<svg xmlns="http://www.w3.org/2000/svg">
  <defs>
    <symbol id="add" viewBox="0 0 32 32"><polygon fill="var(--svg-fill-color)" points="32 13.33 18.67 13.33 18.67 0 13.33 0 13.33 13.33 0 13.33 0 18.67 13.33 18.67 13.33 32 18.67 32 18.67 18.67 32 18.67 32 13.33"/></symbol>
    <symbol id="cross" viewBox="0 0 32 32"><polygon fill="var(--svg-fill-color)" transform="translate(16,16) rotate(45) translate(-16,-16)" points="32 13.33 18.67 13.33 18.67 0 13.33 0 13.33 13.33 0 13.33 0 18.67 13.33 18.67 13.33 32 18.67 32 18.67 18.67 32 18.67 32 13.33"/></symbol>
    <symbol id="my-uploads" viewBox="0 0 48 48"><path fill="var(--svg-fill-color)" d="M35.4,33.5V36H12.6v-2.5H35.4z M20.2,29.7h7.6v-6.3h5.1L24,12l-8.8,11.4h5V29.7z"/></symbol>
    <symbol id="symbols" viewBox="0 0 48 48"><path fill="var(--svg-fill-color)" d="M18.7,28.4l-2.5,2.9L14.6,30l-1.3,1.5l3,2.6l3.8-4.4L18.7,28.4z M17,26c2.8,0,5,2.2,5,5s-2.2,5-5,5s-5-2.2-5-5 S14.2,26,17,26z M33.2,27.6L33.2,27.6L26,31l2.2,1l4.5-3.7L29,32.4l3,2.6L33.2,27.6z M35,26v10H25V26H35z M12,16.9 c0.1-2.7,2.3-4.9,5.1-4.9c2.8,0,5,2.1,5.1,4.9c-0.1,2.7-2.3,4.9-5.1,4.9C14.3,21.8,12.1,19.6,12,16.9z M24.9,21.8l5.6-9.8l5.5,9.8 L24.9,21.8z"/></symbol>
    <symbol id="avatars" viewBox="0 0 48 48"><path fill="var(--svg-fill-color)" d="M14.7,24.1l1.2-1.8c0.9-1.5,1.6-3.1,2-4.8c0.7-3,3.1-5.1,5.6-5.1h1c2.6,0,4.9,2.1,5.6,5.1 c0.4,1.7,1.1,3.3,2,4.8l1.2,1.8c-1.9,2.2-4.4,3.8-7.3,4.6c-0.1-0.2-0.1-0.3-0.1-0.5v-0.7c2.2-0.8,3.7-2.9,3.7-5.3v-0.9 c0-3.5-1.7-5.6-4.5-5.6h-0.4l-0.1,0.4c0,0.2-1.2,4.7-5.8,4.7h-0.5v1.4c0,2.4,1.5,4.5,3.7,5.3v0.7c0,0.2-0.1,0.4-0.2,0.6 C19,28,16.5,26.4,14.7,24.1z M25.4,26.7c2-0.6,3.3-2.4,3.3-4.4v-0.9c0-1.3-0.3-4.4-3.1-4.6c-0.4,1.2-2,4.8-6.2,5.1v0.5 c0,2.1,1.4,3.9,3.4,4.4l0.4,0.1v1.4c0,1.2-1,2.3-2.3,2.2h-1.2c-2,0-3.6,1.5-3.8,3.5c5.3,2.1,11.1,2.1,16.4,0c-0.2-2-1.8-3.5-3.8-3.5 h-1.1c-1.2,0-2.3-1-2.3-2.2v-1.5L25.4,26.7z"/></symbol>
    <symbol id="business" viewBox="0 0 48 48"><path fill="var(--svg-fill-color)" d="M21.8,29.1c0,1.4,0.4,2.8,1.2,4h-4.8V18.6h5.3v5.7C22.4,25.7,21.8,27.4,21.8,29.1z M12,33.1h5.2v-8.3H12V33.1z M29.7,21.5v-9.2h-5.2v11.1c1.4-1.2,3.2-1.9,5-1.9L29.7,21.5z M36,29.1c0,3.6-2.9,6.6-6.5,6.6c-2.8,0-5.3-1.7-6.2-4.4v0 c-0.1-0.2-0.1-0.4-0.2-0.6v-0.1c0-0.2-0.1-0.4-0.1-0.6s0-0.1,0-0.1c-0.1-0.5-0.1-1,0-1.5c0,0,0-0.1,0-0.1s0.1-0.4,0.1-0.6v-0.1 c0.1-0.2,0.1-0.4,0.2-0.6v0c0.1-0.2,0.2-0.4,0.3-0.6l0,0c0.3-0.7,0.8-1.3,1.4-1.9l0,0c0.1-0.1,0.3-0.3,0.5-0.4l0.1-0.1l0.5-0.3 l0.1-0.1l0.5-0.2l0.2-0.1l0.5-0.2l0.2-0.1l0.5-0.1l0.2-0.1l0.5-0.1h0.2c3.6-0.4,6.9,2.2,7.3,5.8C36,28.7,36,28.9,36,29.1z M32.4,30.5c0-0.4-0.1-0.8-0.4-1.1c-0.2-0.3-0.6-0.5-0.9-0.6c-0.4-0.2-0.9-0.3-1.3-0.4c-0.3-0.1-0.7-0.2-1-0.3 c-0.2-0.1-0.3-0.2-0.3-0.4c0-0.2,0.1-0.4,0.3-0.5c0.3-0.1,0.6-0.2,0.9-0.2c0.7,0,1.3,0.2,1.9,0.5l0.6-1.5c-0.3-0.2-0.6-0.3-0.9-0.4 c-0.4-0.1-0.7-0.2-1.1-0.2v-1.1H29v1.1c-0.7,0-1.3,0.3-1.8,0.8c-0.4,0.4-0.6,0.9-0.6,1.5c0,0.4,0.1,0.8,0.4,1.2 c0.2,0.3,0.6,0.5,0.9,0.6c0.4,0.1,0.9,0.3,1.3,0.4c0.3,0.1,0.7,0.2,1,0.3c0.2,0.1,0.3,0.2,0.3,0.4c0,0.4-0.4,0.6-1.1,0.6 c-0.4,0-0.8-0.1-1.2-0.2c-0.4-0.1-0.8-0.3-1.1-0.5L26.4,32c0.3,0.2,0.7,0.4,1.1,0.5c0.5,0.1,0.9,0.2,1.4,0.2v1.1h1.2v-1.1 c0.6-0.1,1.2-0.3,1.7-0.8C32.2,31.6,32.5,31,32.4,30.5z"/></symbol>
    <symbol id="technology" viewBox="0 0 48 48"><path fill="var(--svg-fill-color)" d="M19.5,31.3v-5.6c0-0.9-0.8-1.7-1.7-1.7l0,0v-1.8c0-0.7-0.6-1.3-1.3-1.3c0,0,0,0,0,0h-1.4 c-0.7,0-1.3,0.6-1.3,1.3c0,0,0,0,0,0V24l0,0c-0.9,0-1.7,0.7-1.7,1.7v5.6c0,0.9,0.8,1.7,1.7,1.7c0,0,0,0,0,0l0,0v1.7 c0,0.7,0.6,1.3,1.4,1.3h1.4c0.8,0,1.4-0.6,1.4-1.3c0,0,0,0,0,0V33l0,0C18.8,33,19.5,32.3,19.5,31.3C19.5,31.3,19.5,31.3,19.5,31.3z M18.7,30.9c0,0.5-0.4,1-0.9,1.1c-0.1,0-0.2,0.1-0.3,0.1H14c-0.6,0-1.2-0.5-1.2-1.2V26c0-0.6,0.5-1.1,1.2-1.1h3.5 c0.1,0,0.2,0,0.3,0.1c0.5,0.1,0.9,0.6,0.9,1.1V30.9z M20.2,27.9c0.1,0,0.2,0.1,0.2,0.2v0.8c0,0.1-0.1,0.2-0.2,0.2H20 c-0.1,0-0.2-0.1-0.2-0.2v-0.8c0-0.1,0.1-0.2,0.2-0.2H20.2z M16.9,20h-1.1v-7c0-0.6,0.4-1,1-1h14.9c0.6,0,1,0.4,1,1c0,0,0,0,0,0v3.6 h-1v-2.9H16.9V20z M34.9,17.6h-8.1c-0.6,0-1.1,0.5-1.1,1.1v16.1c0,0.6,0.5,1.1,1.1,1.1h8.1c0.6,0,1.1-0.5,1.1-1.1V18.7 C36,18.1,35.5,17.6,34.9,17.6L34.9,17.6z M30.8,35.1c-0.6,0-1-0.4-1-1s0.4-1,1-1s1,0.4,1,1S31.3,35.1,30.8,35.1z M35,32.5h-8.5V19.4 H35V32.5z M24.7,35.1c0.1,0.3,0.1,0.6,0.2,0.9h-6.5c0.3-0.4,0.4-0.9,0.4-1.4v-0.4c0-0.1,0-0.2,0-0.3c0.6-0.2,1.1-0.6,1.4-1.2h4.4v1 h-2c-0.4,0-0.7,0.2-0.7,0.6c0,0,0,0,0,0c0,0.4,0.3,0.7,0.7,0.7c0,0,0,0,0,0L24.7,35.1z"/></symbol>
    <symbol id="food_and_drink" viewBox="0 0 48 48"><path fill="var(--svg-fill-color)" d="M26.3,28.9c-0.3,1.6-1.1,3.1-2.2,4.3c-0.8,0.9-1.9,1.3-3.1,1.2l-0.3-0.1c-1-0.3-2-0.3-3,0l-0.3,0.1 c-2.1,0.4-4.5-2.1-5.2-5.5c-0.4-1.6-0.3-3.3,0.3-4.8c0.3-1.1,1.2-2,2.3-2.3c0.6-0.1,1.2,0,1.7,0.2c1.7,0.8,3.7,0.7,5.4,0 c0.5-0.3,1.1-0.3,1.7-0.2l0,0c1.1,0.3,2,1.2,2.3,2.3C26.6,25.7,26.7,27.3,26.3,28.9z M19.2,21.1c0.4-5.3-4.1-4.8-4.1-4.8 C14.8,21.6,19.2,21.1,19.2,21.1z M35.4,13.6H19.8l-0.6,2.4H36L35.4,13.6z M21.1,21l0.4-0.2c0.8-0.4,1.7-0.5,2.5-0.3 c1.6,0.4,2.8,1.6,3.3,3.1c0.6,1.8,0.8,3.7,0.4,5.6c-0.4,1.9-1.2,3.6-2.5,5l-0.3,0.3H33l2-17.3H20.5L21.1,21z"/></symbol>
    <symbol id="animals_and_nature" viewBox="0 0 48 48"><path fill="var(--svg-fill-color)" d="M19.9,32.8c-2.6-1.3-4.4-3.7-4.9-6.5c-0.5-2.8-1.5-5.4-3-7.8H12c2.6,0,7.1,0.4,10.3,2.5 C19.5,23.9,18.6,28,19.9,32.8z M34.8,13.5c0,0-0.6,3-8,6.9c-6.3,3.3-5.5,9.3-4.6,12.3c0.2-0.5,0.5-1.1,0.8-1.8c0.6-1.1,1.2-2.1,2-3 c0.4-0.5,0.9-1,1.4-1.5c0.5-0.5,1-0.9,1.6-1.3c0.5-0.4,1-0.8,1.5-1.3c0.5-0.4,0.9-0.9,1.3-1.4c0.7-0.9,1.4-1.8,2-2.7 c0.6-0.9,1.1-1.8,1.5-2.8c-0.3,1-0.7,2-1.2,3c-0.5,1-1.1,2-1.7,3c-0.4,0.5-0.7,1.1-1.2,1.6c-0.4,0.5-0.9,1-1.4,1.5 c-0.5,0.4-0.9,0.9-1.3,1.4c-0.4,0.5-0.8,1-1.1,1.5c-0.5,0.9-1,1.9-1.4,2.9c-0.3,0.7-0.5,1.4-0.7,2.2c0,0.2-0.1,0.3-0.1,0.5 c5.9-0.2,8-1.7,9.9-4.6C38,23.8,34.8,13.5,34.8,13.5z"/></symbol>
    <symbol id="travel_and_places" viewBox="0 0 48 48"><path fill="var(--svg-fill-color)" d="M21.6,32.3L21.6,32.3c-0.4,0-1.6-0.6-2.4-7.1c0.5,0.5,1.1,0.8,1.8,1h0.1h2.6C23,31.8,21.9,32.2,21.6,32.3z M27.4,15.6c0.6-0.2,1.3-0.3,1.9-0.4c0.2,0,0.4,0,0.6,0.1C27.4,12,22.2,12,21.8,12C24.2,12,26.4,13.4,27.4,15.6L27.4,15.6z M18.9,19.2c0.8-1,2-1.6,3.3-1.6c0.7,0,1.4,0.2,2,0.5C24,12.3,22,12,21.7,12h-0.2C21.2,12,19,12.4,18.9,19.2L18.9,19.2z M20.1,35 c0,0.6,0.4,1,1,1h1.1c0.6,0,1-0.4,1-1v-1.6h-3.1V35z M26.9,26.3c-1.9,5.5-4.6,6-5.2,6l0,0c1,0,4.9-0.5,7.7-6 C29.4,26.3,26.9,26.3,26.9,26.3z M21.5,32.3L21.5,32.3c-0.8,0-4.3-0.7-6.1-9.1c-2.1-10.9,5.3-11.2,6-11.2c-0.6,0-12.1,0-8.9,11.2 C15.2,31.6,20.4,32.2,21.5,32.3L21.5,32.3z M33.7,19.8c-0.5-1.8-1.9-3.1-3.8-3.4c-0.2,0-0.5-0.1-0.7-0.1c-0.3,0-0.5,0-0.8,0.1l0,0 c-0.3,0-0.5,0.1-0.8,0.2l0,0c-1.5,0.6-2.6,1.8-2.9,3.3c-0.1-0.2-0.3-0.3-0.5-0.5l0,0l-0.2-0.1c-0.1-0.1-0.2-0.2-0.3-0.2l-0.2-0.1 c-0.1-0.1-0.3-0.1-0.4-0.1l-0.2-0.1c-0.2-0.1-0.4-0.1-0.7-0.1c-0.2,0-0.4,0-0.6,0.1l-0.2,0.1c-0.1,0-0.2,0.1-0.4,0.1L20.8,19 l-0.2,0.1c-0.1,0.1-0.2,0.1-0.3,0.2L20,19.5c-0.1,0.1-0.2,0.2-0.3,0.3l-0.1,0.1c-0.1,0.1-0.2,0.3-0.3,0.4v0.1 c-0.1,0.2-0.2,0.3-0.2,0.5l0,0c-0.1,0.2-0.1,0.4-0.1,0.6l0,0c-0.1,0.5-0.1,0.9,0.1,1.4l0,0c0.2,0.6,0.4,1.1,0.8,1.5l0,0 c0.2,0.2,0.4,0.3,0.6,0.5l0.1,0.1c0.2,0.1,0.5,0.2,0.7,0.3h12.8c1.5-0.6,2.2-2.3,1.5-3.8C35.4,20.5,34.7,19.9,33.7,19.8L33.7,19.8z"/></symbol>
    <symbol id="objects" viewBox="-12 -12 48 48"><path fill="var(--svg-fill-color)" d="M14.19,8.49h4.24a0,0,0,0,1,0,0V22.87A1.53,1.53,0,0,1,16.9,24.4H15.72a1.53,1.53,0,0,1-1.53-1.53V8.49a0,0,0,0,1,0,0Z" transform="translate(-6.85 16.35) rotate(-45)"/><path fill="var(--svg-fill-color)" d="M5.43,5.57l-1.5,1.5L3.2,7.8a1.1,1.1,0,0,0,0,1.54l2.21,2.21a1.1,1.1,0,0,0,1.54,0l.73-.73.75.75,3-3-4.5-4.5Z"/><path fill="var(--svg-fill-color)" d="M1.59,8.92H3.45a1.32,1.32,0,0,1,1.32,1.32V12.9a1.32,1.32,0,0,1-1.32,1.32H1.59a0,0,0,0,1,0,0V8.92a0,0,0,0,1,0,0Z" transform="translate(-7.25 5.64) rotate(-45)"/><path fill="var(--svg-fill-color)" d="M6.93,4.07l.72-.72L9.18,1.82s3-3,6,0a8.2,8.2,0,0,1-.78.78c-3-1.53-6.72,2.22-3,6"/></symbol>
    <symbol id="refresh" viewBox="0 0 14.61 15.24"><path stroke="var(--svg-fill-color)" d="M16.81,13.12a7,7,0,1,1-.76-6.51" transform="translate(-2.69 -2.88)" style="fill:none;stroke-linecap:round;stroke-miterlimit:10"/><polyline stroke="var(--svg-fill-color)" style="fill:none;stroke-linecap:round;stroke-linejoin:round" points="14.11 0.5 14.11 4.5 10.11 4.5"/></symbol>
    <symbol id="marketing" viewBox="-12 -12 48 48"><g transform="matrix(1 0 0 1 -127.518119 -137.090607)"><path fill="var(--svg-fill-color)" transform="matrix(1 0 0 1 -1 1)" d="M134.42128,143.47781C134.42128,142.13178,135.51318,141.04061,136.86011,141.04061L147.54363,141.04061C148.89056,141.04061,149.98246,142.13178,149.98246,143.47781L151.20187,157.65341C151.20187,158.99944,150.10997,160.09061,148.76304,160.09061L135.64069,160.09061C134.29376,160.09061,133.20186,158.99944,133.20186,157.65341L133.33806,156.84676C134.47875,157.83978,136.34861,157.66089,137.60145,156.40805L144.60461,149.40489L144.70163,142.31045L137.53354,142.33382L134.17927,145.68809L134.42128,143.47781Z"/><path fill="none" stroke="var(--svg-fill-color)" stroke-width="1" stroke-linecap="round" stroke-linejoin="round" transform="matrix(1 0 0 1 141.431532 141.38165)" d="M-3.481686,1.273922Q-3.481686,1.922882,-3.481686,0C-3.481686,-1.922882,-1.922882,-3.481686,0,-3.481686C1.922882,-3.481686,3.481686,-1.922882,3.481686,0Q3.481686,1.922882,3.481686,1.273922"/><path fill="var(--background-color-general-2)" stroke="var(--svg-fill-color)" stroke-width="1" stroke-linecap="round" stroke-linejoin="round" transform="matrix(-0.707107 -0.707107 -0.707107 0.707107 602.352201 -127.622418)" d="M137.78853,520.978532L137.78853,530.88249C137.78853,532.722102,136.499531,534.2134,134.909465,534.2134L130.667595,534.2134C129.077529,534.2134,127.78853,532.722102,127.78853,530.88249L127.78853,520.978532L132.736451,515.8934L137.78853,520.978532Z"/><path fill="var(--svg-fill-color)" transform="matrix(1.078418 0 0 1.078418 -9.914561 -411.511711)" d="M132.42379,519.70248C133.06401,519.06226,133.84521,519.11036,134.39089,519.65604C134.93657,520.20172,134.9855,520.98209,134.34445,521.62314C133.7034,522.26419,132.92469,522.21692,132.37486,521.66709C131.82503,521.11726,131.77859,520.34767,132.42379,519.70247L132.42379,519.70248ZM136.46166,521.82964L137.33409,522.70207L131.25199,523.84817L130.37956,522.97574L136.46166,521.82964ZM133.3692,524.05466C134.00942,523.41444,134.79062,523.46254,135.3363,524.00822C135.88198,524.5539,135.93008,525.3351,135.28986,525.97532C134.64964,526.61554,133.86927,526.56993,133.32441,526.02508C132.77956,525.48023,132.72317,524.70068,133.36919,524.05466L133.3692,524.05466ZM133.61135,520.89004C133.95717,520.54422,133.94722,520.32694,133.8336,520.21333C133.71999,520.09972,133.50354,520.08893,133.15689,520.43558C132.81024,520.78223,132.82102,520.99868,132.93464,521.11229C133.04825,521.2259,133.26553,521.23586,133.61135,520.89004ZM134.55676,525.24222C134.90258,524.8964,134.89263,524.67912,134.77901,524.56551C134.6654,524.4519,134.44812,524.44194,134.1023,524.78776C133.75648,525.13358,133.76643,525.35086,133.88253,525.46696C133.99863,525.58306,134.2101,525.58887,134.55675,525.24222L134.55676,525.24222Z"/></g></symbol>
  </defs>
</svg>