<?xml version="1.0"?>
<svg version="1.1" viewBox="0 0 32 32" width="32" height="32" xmlns="http://www.w3.org/2000/svg">
  <g class="layer">
    <rect fill="none" height="22.142839" id="svg_1" width="22.314788" x="8.62186" y="8.820082"/>
    <path id="svg_1" fill="#f9ba00" d="m30.936084,7.844872l-22.314537,0c-0.542493,0 -0.982409,0.436526 -0.982409,0.974837l0,13.385808l-5.59275,0l0,-3.691791c0,-0.538311 -0.439917,-0.974837 -0.982409,-0.974837s-0.982409,0.436526 -0.982409,0.974837l0,4.666627c0,0.538311 0.439917,0.974837 0.982409,0.974837l6.57516,0l0,6.806985c0,0.538311 0.439917,0.974837 0.982409,0.974837l22.314537,0c0.542493,0 0.982409,-0.436526 0.982409,-0.974837l0,-22.142528c0,-0.538249 -0.439917,-0.974774 -0.982409,-0.974774zm-0.982472,22.142466l-20.349656,0l0,-20.192793l20.349656,0l0,20.192793l0,0z"/>
    <path id="svg_2" fill="#f9ba00" d="m1.063915,12.142582c0.542493,0 0.982409,-0.436526 0.982409,-0.974837l0,-9.155022l20.349656,0l0,2.307011c0,0.538311 0.439917,0.974837 0.982409,0.974837c0.542493,0 0.982409,-0.436526 0.982409,-0.974837l0,-3.28191c0.000063,-0.538311 -0.439854,-0.974837 -0.982347,-0.974837l-22.314537,0c-0.542493,0 -0.982409,0.436526 -0.982409,0.974837l0,10.12992c0,0.538373 0.439917,0.974837 0.982409,0.974837z"/>
    <path id="svg_3" fill="#ffffff" d="m19.87769,20.767696c0.251515,0 0.50278,-0.095249 0.694694,-0.285559l4.06766,-4.036367l0,2.263434c0,0.538311 0.439917,0.974837 0.982409,0.974837c0.542493,0 0.982409,-0.436526 0.982409,-0.974837l0,-4.616886c0,-0.538311 -0.439917,-0.974837 -0.982409,-0.974837l-4.652752,0c-0.542493,0 -0.982409,0.436526 -0.982409,0.974837s0.439917,0.974837 0.982409,0.974837l2.281016,0l-4.06766,4.036367c-0.383641,0.380684 -0.383641,0.997933 0,1.378741c0.191789,0.190186 0.443242,0.285435 0.694632,0.285435z"/>
    <path id="svg_4" fill="#ffffff" d="m13.934989,26.664464l4.652877,0c0.542493,0 0.982409,-0.436526 0.982409,-0.974837c0,-0.538311 -0.439917,-0.974837 -0.982409,-0.974837l-2.281079,0l1.3429,-1.332424c0.383641,-0.380684 0.383641,-0.997871 0,-1.378741c-0.383641,-0.380372 -1.005497,-0.380559 -1.389451,0l-1.3429,1.332424l0,-2.263434c0,-0.538311 -0.439917,-0.974837 -0.982409,-0.974837s-0.982409,0.436526 -0.982409,0.974837l0,4.616886c0.000063,0.538435 0.439854,0.974961 0.982472,0.974961z"/>
  </g>
</svg>