<svg id="s1" xmlns="http://www.w3.org/2000/svg" xmlns:xlink="http://www.w3.org/1999/xlink" viewBox="0 0 400 400"><defs><linearGradient id="s9-fill" x1="201.250000" y1="362.090000" x2="126.250000" y2="66.090000" spreadMethod="pad" gradientUnits="userSpaceOnUse"><stop id="s9-fill-0" offset="10%" stop-color="rgb(253,155,129)"/><stop id="s9-fill-1" offset="74%" stop-color="rgb(253,175,154)"/></linearGradient><linearGradient id="s11-fill" x1="40" y1="207.160000" x2="-25.320000" y2="-50.640000" spreadMethod="pad" gradientUnits="userSpaceOnUse"><stop id="s11-fill-0" offset="10%" stop-color="rgb(237,143,119)"/><stop id="s11-fill-1" offset="74%" stop-color="rgb(230,135,112)"/></linearGradient><linearGradient id="s13-fill" x1="317.330000" y1="345.670000" x2="251.930000" y2="87.590000" spreadMethod="pad" gradientUnits="userSpaceOnUse"><stop id="s13-fill-0" offset="10%" stop-color="rgb(222,108,78)"/><stop id="s13-fill-1" offset="74%" stop-color="rgb(224,131,107)"/></linearGradient><linearGradient id="s15-fill" x1="280.450000" y1="352.670000" x2="269.920000" y2="311.100000" spreadMethod="pad" gradientUnits="userSpaceOnUse"><stop id="s15-fill-0" offset="10%" stop-color="rgb(253,155,129)"/><stop id="s15-fill-1" offset="74%" stop-color="rgb(253,175,154)"/></linearGradient></defs><g id="s3"><path id="s5" d="M202,169.460000L202,102.630000C202.032958,90.984948,211.464948,81.552958,223.110000,81.520000L236.640000,81.520000C248.285052,81.552958,257.717042,90.984948,257.750000,102.630000L257.750000,169.460000" fill="none" stroke="rgb(246,166,141)" stroke-width="15" stroke-miterlimit="10"/><g id="s7"><path id="s9" d="M98,139L250.100000,139L250.100000,346.520000L98,346.520000C93.703225,346.520000,90.220000,343.036775,90.220000,338.740000L90.220000,146.740000C90.242011,142.458854,93.718797,138.999943,98,139Z" fill="url(#s9-fill)" stroke="none" stroke-width="1"/><rect id="s11" width="27.610000" height="207.520000" rx="0" ry="0" transform="translate(250.090000,139)" fill="url(#s11-fill)" stroke="none" stroke-width="1"/><path id="s13" d="M274.440000,139L302,139C306.296775,139,309.780000,142.483225,309.780000,146.780000L309.780000,338.780000C309.780000,343.076775,306.296775,346.560000,302,346.560000L274.440000,346.560000L274.440000,139Z" fill="url(#s13-fill)" stroke="none" stroke-width="1"/><path id="s15" d="M274.440000,319.150000L250.090000,346.520000L302,346.520000C303.914958,346.518860,305.761145,345.806047,307.180000,344.520000Z" fill="url(#s15-fill)" stroke="none" stroke-width="1"/></g><path id="s17" d="M142.280000,169.460000L142.280000,102.630000C142.312958,90.984948,151.744948,81.552958,163.390000,81.520000L176.920000,81.520000C188.553335,81.569411,197.967133,90.996607,198,102.630000L198,169.460000" fill="none" stroke="rgb(255,211,199)" stroke-width="15" stroke-linecap="round" stroke-miterlimit="10"/></g></svg>