<svg id="eYZ3EQz71xB1" xmlns="http://www.w3.org/2000/svg" xmlns:xlink="http://www.w3.org/1999/xlink" viewBox="0 0 400 400" shape-rendering="geometricPrecision" text-rendering="geometricPrecision"><g id="eYZ3EQz71xB2"><path id="eYZ3EQz71xB3" d="M143.700000,303.400000L147.500000,344.800000C149.300000,364.400000,162.300000,375.100000,180.500000,375.100000L203.600000,375.100000C221.700000,375.100000,234.800000,364.400000,236.600000,344.800000L240.400000,303.400000L143.700000,303.400000L143.700000,303.400000Z" clip-rule="evenodd" fill="rgb(180,217,210)" fill-rule="evenodd" stroke="none" stroke-width="1"/><path id="eYZ3EQz71xB4" d="M145.900000,326.700000L146.900000,337.500000L148.600000,339.200000C149.900000,340.500000,152.200000,340.500000,153.500000,339.200000L164.900000,327.800000L169.700000,332.600000C171.100000,333.900000,173.300000,333.900000,174.600000,332.600000L176.900000,330.300000L188.500000,341.800000C189.800000,343.200000,192.100000,343.200000,193.400000,341.800000L200.100000,335.100000L205,340C206.400000,341.300000,208.600000,341.300000,209.900000,340L221.700000,328.200000L232.700000,339.200000C233.900000,340.400000,235.900000,340.500000,237.200000,339.500000L238.200000,328.700000L235.100000,331.800000L224.100000,320.800000C222.800000,319.400000,220.500000,319.400000,219.200000,320.800000L207.400000,332.600000L202.500000,327.700000C201.200000,326.300000,198.900000,326.300000,197.600000,327.700000L190.900000,334.400000L179.300000,323C177.900000,321.600000,175.700000,321.600000,174.400000,323L172.100000,325.300000L167.300000,320.500000C166,319.200000,163.700000,319.200000,162.400000,320.500000L151,331.800000L145.900000,326.700000L145.900000,326.700000Z" clip-rule="evenodd" fill="rgb(255,255,255)" fill-rule="evenodd" stroke="none" stroke-width="1"/><rect id="eYZ3EQz71xB5" width="109.400000" height="8.700000" rx="0" ry="0" transform="matrix(1 0 0 1 137.40000000000001 294.69999999999999)" clip-rule="evenodd" fill="rgb(144,185,177)" fill-rule="evenodd" stroke="none" stroke-width="1"/></g><g id="eYZ3EQz71xB6"><g id="eYZ3EQz71xB7"><path id="eYZ3EQz71xB8" d="M190.500000,219C153,214.600000,125.300000,204.300000,107.300000,188.100000C177.900000,186,162.600000,155.300000,88.200000,160.700000C75.500000,128.400000,84.200000,83.100000,114.400000,25C131.900000,30.900000,147.300000,37.300000,160.800000,44.100000C148.100000,107.900000,159.300000,115,194.400000,65.300000C242.900000,104.400000,241.600000,155.600000,190.500000,219L190.500000,219ZM104.300000,109.800000C102.400000,113.200000,106.200000,118.900000,112.800000,122.600000C119.400000,126.200000,126.200000,126.400000,128.100000,123C130,119.600000,126.200000,113.900000,119.600000,110.200000C113,106.600000,106.100000,106.400000,104.300000,109.800000L104.300000,109.800000ZM201.700000,94C195.400000,91.500000,186.400000,99.400000,181.600000,111.600000C176.900000,123.800000,178.100000,135.600000,184.500000,138.100000C190.900000,140.600000,199.800000,132.700000,204.600000,120.600000C209.300000,108.400000,208,96.500000,201.700000,94L201.700000,94Z" clip-rule="evenodd" fill="rgb(65,115,88)" fill-rule="evenodd" stroke="none" stroke-width="1"/><path id="eYZ3EQz71xB9" d="M193.800000,294.700000C199,221,144.700000,99.800000,116.600000,45.900000C150.200000,106.300000,204.600000,216.900000,200,294.700000L193.800000,294.700000L193.800000,294.700000Z" fill="rgb(83,135,107)" stroke="none" stroke-width="1"/></g><g id="eYZ3EQz71xB10"><path id="eYZ3EQz71xB11" d="M164.400000,253.200000C148,261,134.100000,264,122.700000,262C150.900000,243,136.700000,234.500000,107.900000,255.800000C94.400000,245.900000,86.300000,225.300000,83.700000,194C92.300000,191.900000,100.200000,190.500000,107.500000,189.800000C118.700000,219,125.100000,219,126.600000,189.800000C156.300000,193.200000,168.900000,214.300000,164.400000,253.200000ZM101.300000,231C101.400000,232.900000,104.400000,234.200000,108,234C111.600000,233.800000,114.400000,232.100000,114.300000,230.200000C114.200000,228.300000,111.200000,227,107.600000,227.200000C104.100000,227.400000,101.200000,229.100000,101.300000,231ZM136.900000,199.500000C133.700000,200.100000,132.100000,205.600000,133.300000,211.800000C134.500000,218,138.100000,222.500000,141.300000,221.800000C144.500000,221.200000,146.100000,215.700000,145,209.500000C143.700000,203.400000,140.100000,198.900000,136.900000,199.500000L136.900000,199.500000Z" clip-rule="evenodd" fill="rgb(120,166,104)" fill-rule="evenodd" stroke="none" stroke-width="1"/><path id="eYZ3EQz71xB12" d="M180.500000,294.700000C174.700000,250,125.700000,222.100000,89.900000,201C128.100000,218.800000,177.600000,249.300000,183.500000,294.700000L180.500000,294.700000Z" fill="rgb(153,204,153)" stroke="none" stroke-width="1"/></g><g id="eYZ3EQz71xB13"><path id="eYZ3EQz71xB14" d="M215.100000,251.700000C244.100000,255.800000,266.900000,253.500000,283.600000,244.900000C231,229.400000,248.600000,209.300000,303.300000,228.200000C319.200000,206.400000,321.600000,170.800000,310.500000,121.200000C296.200000,122.200000,283.400000,123.900000,271.900000,126.400000C268.800000,176.800000,259,179.800000,242.500000,135.700000C198.400000,155.300000,189.300000,194,215.100000,251.700000ZM301.300000,186.800000C302,189.700000,298.100000,193.300000,292.400000,194.700000C286.800000,196.100000,281.600000,194.900000,280.800000,191.900000C280.100000,189,284,185.400000,289.700000,184C295.400000,182.600000,300.600000,183.800000,301.300000,186.800000ZM231.400000,155.700000C236.700000,155.100000,241.800000,162.800000,243,172.800000C244.200000,182.900000,240.900000,191.500000,235.600000,192.100000C230.300000,192.700000,225.200000,185,224,175C222.800000,164.900000,226.100000,156.300000,231.400000,155.700000Z" clip-rule="evenodd" fill="rgb(92,138,92)" fill-rule="evenodd" stroke="none" stroke-width="1"/><path id="eYZ3EQz71xB15" d="M203.300000,294.700000C202.900000,242.400000,270.400000,160.100000,302.400000,131.300000C271.800000,165.500000,209.300000,242.600000,210,294.700000L203.300000,294.700000Z" fill="rgb(102,153,102)" stroke="none" stroke-width="1"/></g></g></svg>