<svg id="s1" xmlns="http://www.w3.org/2000/svg" xmlns:xlink="http://www.w3.org/1999/xlink" viewBox="0 0 400 400"><defs><linearGradient id="s7-fill" x1="245.066688" y1="-99.211015" x2="209.456790" y2="-31.272195" spreadMethod="pad" gradientUnits="userSpaceOnUse"><stop id="s7-fill-0" offset="4%" stop-color="rgb(255,160,40)"/><stop id="s7-fill-1" offset="100%" stop-color="rgb(248,183,112)"/></linearGradient><linearGradient id="s9-fill" x1="255.300000" y1="224.310000" x2="284.890000" y2="357.040000" spreadMethod="pad" gradientUnits="userSpaceOnUse"><stop id="s9-fill-0" offset="1%" stop-color="rgb(173,120,117)"/><stop id="s9-fill-1" offset="87%" stop-color="rgb(122,83,83)"/></linearGradient><linearGradient id="s11-fill" x1="238.290000" y1="220.260000" x2="253.160000" y2="282.320000" spreadMethod="pad" gradientUnits="userSpaceOnUse"><stop id="s11-fill-0" offset="12%" stop-color="rgb(255,122,50)"/><stop id="s11-fill-1" offset="84%" stop-color="rgb(252,157,93)"/></linearGradient><linearGradient id="s15-fill" x1="193.957929" y1="-161.137213" x2="141.122910" y2="24.874297" spreadMethod="pad" gradientUnits="userSpaceOnUse"><stop id="s15-fill-0" offset="0%" stop-color="rgb(201,229,240)"/><stop id="s15-fill-1" offset="42%" stop-color="rgb(149,187,218)"/><stop id="s15-fill-2" offset="63%" stop-color="rgb(129,170,209)"/><stop id="s15-fill-3" offset="100%" stop-color="rgb(125,125,196)"/></linearGradient><linearGradient id="s17-fill" x1="173.656893" y1="-105.113143" x2="152.090136" y2="23.226738" spreadMethod="pad" gradientUnits="userSpaceOnUse"><stop id="s17-fill-0" offset="0%" stop-color="rgb(222,245,255)"/><stop id="s17-fill-1" offset="35%" stop-color="rgb(202,227,244)"/><stop id="s17-fill-2" offset="79%" stop-color="rgb(182,208,232)"/><stop id="s17-fill-3" offset="100%" stop-color="rgb(168,168,207)"/></linearGradient></defs><g id="s3"><g id="s5"><rect id="s7" width="28.800000" height="43.320000" rx="0" ry="0" transform="translate(-98.650000,233.330000) rotate(-45) scale(1,1) translate(217.930000,214.090000)" fill="url(#s7-fill)" stroke="none" stroke-width="1"/><path id="s9" d="M217.150000,260L268.360000,311.210000C278.690000,321.540000,295.360000,322.620000,306.480000,313.160000C312.396399,308.112665,315.940509,300.827141,316.259368,293.056833C316.578228,285.286524,313.642962,277.735115,308.160000,272.220000L256.550000,220.610000C255.949701,220.008501,255.134800,219.670481,254.285000,219.670481C253.435200,219.670481,252.620299,220.008501,252.020000,220.610000L217.150000,255.480000C215.903973,256.729048,215.903973,258.750952,217.150000,260Z" fill="url(#s9-fill)" stroke="none" stroke-width="1"/><path id="s11" d="M234.180000,277L273.570000,237.610000L256.570000,220.610000C255.969701,220.008501,255.154800,219.670481,254.305000,219.670481C253.455200,219.670481,252.640299,220.008501,252.040000,220.610000L217.170000,255.480000C216.568501,256.080299,216.230481,256.895200,216.230481,257.745000C216.230481,258.594800,216.568501,259.409701,217.170000,260.010000Z" fill="url(#s11-fill)" stroke="none" stroke-width="1"/></g><g id="s13"><circle id="s15" r="81.160000" transform="translate(-70.710000,165.880000) rotate(-45) scale(1,1) translate(164.880000,168.300000)" fill="url(#s15-fill)" stroke="none" stroke-width="1"/><circle id="s17" r="60.800000" transform="translate(-70.710000,165.880000) rotate(-45) scale(1,1) translate(164.880000,168.300000)" fill="url(#s17-fill)" stroke="none" stroke-width="1"/></g></g></svg>