<svg id="s1" xmlns="http://www.w3.org/2000/svg" xmlns:xlink="http://www.w3.org/1999/xlink" viewBox="0 0 400 400"><g id="s3"><path id="s5" d="M223.420000,282.110000C222.910000,305.050000,233.420000,349.940000,241.730000,359.350000C250.040000,368.760000,268.070000,368.350000,263.630000,371.010000C253.880000,376.940000,238.860000,367.350000,220.130000,373.590000C194.610000,382.100000,190.310000,372.250000,180.550000,373.020000C170.790000,373.790000,157.610000,374.810000,144.260000,372.230000C138.850000,371.230000,149.450000,367.440000,161.040000,365.230000C172.630000,363.020000,183.640000,308.930000,186.040000,276.040000C188.440000,243.150000,225.080000,255,223.420000,282.110000Z" fill="rgb(153,101,63)" stroke="none" stroke-width="1"/><path id="s7" d="M254.360000,216.420000C273.580000,267.170000,303.660000,309.260000,325.040000,319.780000C346.420000,330.300000,296.700000,322.850000,269.940000,309.940000C262.870000,305.940000,262.680000,335.780000,256.560000,336.100000C250.440000,336.420000,207.240000,306.320000,200,307C192.760000,307.680000,152.600000,331.090000,145.100000,328.800000C137.690000,328.030000,149.390000,307.910000,142.870000,306.620000C136.350000,305.330000,84.400000,323.600000,71.100000,319.400000C59.730000,315.800000,123.540000,313.320000,159.450000,212.070000C195.360000,110.820000,207,105.840000,210.760000,107.370000C214.520000,108.900000,232.660000,159.130000,254.360000,216.420000Z" fill="rgb(40,133,70)" stroke="none" stroke-width="1"/><path id="s9" d="M314.620000,240.790000C294.410000,225.900000,243.450000,204.130000,223.620000,114.340000C216.210000,81.090000,203.390000,67.890000,200,70.760000C196.610000,73.630000,184.700000,107.330000,167.130000,150.490000C144.470000,206.130000,100.870000,234.100000,100.600000,237.100000C100.310000,240.250000,114.790000,245.720000,162.600000,220.760000C166.830000,219.890000,152.260000,243.120000,156.820000,246.560000C161.380000,250,196.360000,221.990000,203.680000,222.380000C211,222.770000,231.370000,246.620000,243.410000,252.620000C255.450000,258.620000,236.410000,219.800000,243.720000,222.480000C251.030000,225.160000,303,249.090000,314.620000,240.790000Z" fill="rgb(71,150,77)" stroke="none" stroke-width="1"/><path id="s11" d="M203.930000,35.100000C213.500000,35.830000,219.440000,112.680000,280.780000,180.010000C285.780000,185.460000,245.350000,174.310000,229.550000,159.770000C221.830000,175.470000,219.480000,203.130000,204.950000,163.280000C160.950000,193.400000,158.330000,189.200000,167.500000,164.540000C131.100000,181.020000,123.610000,176.950000,126.500000,175.450000C173.720000,151,198.570000,34.690000,203.930000,35.100000Z" fill="rgb(81,171,88)" stroke="none" stroke-width="1"/></g></svg>