<svg id="s1" xmlns="http://www.w3.org/2000/svg" xmlns:xlink="http://www.w3.org/1999/xlink" viewBox="0 0 400 400"><g id="s3"><g id="s5"><path id="s7" d="M94.590000,165.370000C97.900000,147.420000,85.900000,137.850000,71.050000,135.250000C56.200000,132.650000,45.610000,137.340000,39.820000,147.800000C34.030000,158.260000,27.820000,166.490000,22.200000,170.800000C16.580000,175.110000,14.390000,180.600000,16.930000,188.360000C19.470000,196.120000,29.540000,205.360000,53.320000,195.110000C77.100000,184.860000,88.900000,196.310000,94.590000,165.370000Z" fill="rgb(210,141,64)" stroke="none" stroke-width="1"/><path id="s9" d="M24.850000,176.150000C22.470000,176.760000,21.120000,175.580000,19.530000,173.150000C16.230000,176.730000,15.050000,181.150000,16.470000,186.710000C19.270000,185.840000,23.990000,184.120000,26.270000,181.760000C29.640000,178.330000,28.060000,175.330000,24.850000,176.150000Z" fill="rgb(74,52,48)" stroke="none" stroke-width="1"/><ellipse id="s11" rx="4.930000" ry="2.380000" transform="translate(-121.100000,173.780000) rotate(-79.080015) scale(1,1) translate(44.700000,160.230000)" fill="rgb(74,52,48)" stroke="none" stroke-width="1"/></g><g id="s13"><path id="s15" d="M242.540000,239.150000C237.270000,254.950000,237.250000,278,248.360000,287.210000C259.470000,296.420000,284.050000,298.460000,294.090000,282.350000C304.130000,266.240000,304.090000,246.050000,301.490000,232.760000C298.890000,219.470000,255.750000,199.530000,242.540000,239.150000Z" fill="rgb(181,120,51)" stroke="none" stroke-width="1"/><path id="s17" d="M247.570000,285.180000C254.030000,296.420000,278.870000,323.510000,287.470000,327.300000C296.070000,331.090000,308.990000,328.180000,305.860000,320.620000C302.730000,313.060000,289.860000,291.740000,289.040000,284.430000C288.220000,277.120000,279.900000,268,269.210000,268C258.520000,268,239.740000,271.560000,247.570000,285.180000Z" fill="rgb(181,120,51)" stroke="none" stroke-width="1"/><path id="s19" d="M283.730000,320.070000C281.910000,330.210000,280.790000,350.130000,277.950000,359.070000C275.110000,368.010000,281.690000,370.870000,287.860000,371.930000C294.030000,372.990000,299.740000,373.220000,302.330000,355.290000C305.080000,336.290000,310.240000,319.480000,301.160000,318.090000C289.560000,316.320000,284.710000,314.600000,283.730000,320.070000Z" fill="rgb(181,120,51)" stroke="none" stroke-width="1"/><path id="s21" d="M278.380000,357.140000C276.290000,360.140000,270.560000,361.680000,266.560000,362.520000C262.560000,363.360000,258.390000,374.120000,266.210000,374.460000C274.030000,374.800000,298.380000,378.330000,299.770000,365.550000C301.160000,352.770000,284.820000,345.200000,278.380000,357.140000Z" fill="rgb(181,120,51)" stroke="none" stroke-width="1"/></g><g id="s23"><path id="s25" d="M102,237.790000C94.630000,241.970000,91.760000,269.790000,98.590000,290.320000C105.420000,310.850000,112.770000,316.320000,122.230000,315.530000C131.690000,314.740000,138.510000,305.290000,140.350000,287.950000C142.190000,270.610000,144.550000,263.520000,145.080000,252.760000C145.610000,242,129.320000,222.300000,102,237.790000Z" fill="rgb(181,120,51)" stroke="none" stroke-width="1"/><path id="s27" d="M101,295.310000C101.100000,305.310000,103.360000,358.610000,105.460000,365.430000C107.560000,372.250000,128.310000,371.730000,129.620000,364.120000C130.930000,356.510000,136.620000,308.690000,137.760000,300.040000C140.880000,276.930000,100.700000,269.570000,101,295.310000Z" fill="rgb(181,120,51)" stroke="none" stroke-width="1"/><path id="s29" d="M110,348.350000C107.100000,349.580000,107.700000,352.350000,104.540000,352.830000C101.380000,353.310000,87.300000,360.310000,87.600000,367.410000C87.900000,374.510000,96,374.490000,103.830000,374.320000C111.660000,374.150000,129.110000,377.090000,129.720000,364.630000C130.330000,352.170000,122.150000,343.150000,110,348.350000Z" fill="rgb(181,120,51)" stroke="none" stroke-width="1"/></g><g id="s31"><path id="s33" d="M291.260000,187.690000C304.480000,192.100000,319.630000,197.690000,328.090000,224.170000C336.550000,250.650000,346.860000,279.680000,363.950000,294.310000C371.530000,298.540000,371.950000,304.180000,361.950000,298.540000C351.950000,292.900000,332.340000,266.290000,326.350000,247.960000C320.360000,229.630000,316.830000,209.890000,290.220000,200.550000C277,195.940000,277.520000,182.930000,291.260000,187.690000Z" fill="rgb(210,141,64)" stroke="none" stroke-width="1"/><path id="s35" d="M359.820000,294.490000C356.030000,299.070000,363.960000,312.610000,383.170000,315.420000C389.510000,316.350000,379.560000,304.190000,374.980000,298.370000C370.400000,292.550000,362.720000,291,359.820000,294.490000Z" fill="rgb(91,56,27)" stroke="none" stroke-width="1"/></g><path id="s37" d="M97.680000,169.890000C88.760000,180.790000,79.440000,224.080000,96.890000,251.310000C114.340000,278.540000,139.980000,285.940000,173.290000,282.770000C206.600000,279.600000,225.100000,271.400000,251.800000,272.990000C278.500000,274.580000,316.040000,277.480000,320.270000,245.990000C324.500000,214.500000,306.790000,178.850000,272.950000,175.150000C239.110000,171.450000,194.700000,183.610000,165.360000,168.280000C136.020000,152.950000,109.570000,155.350000,97.680000,169.890000Z" fill="rgb(210,141,64)" stroke="none" stroke-width="1"/><g id="s39"><path id="s41" d="M116.360000,238.890000C108.950000,243.100000,106.050000,271.140000,112.920000,291.760000C119.790000,312.380000,127.190000,317.930000,136.710000,317.140000C146.230000,316.350000,153.100000,306.820000,155,289.380000C156.900000,271.940000,159.230000,264.800000,159.760000,253.960000C160.290000,243.120000,143.850000,223.290000,116.360000,238.890000Z" fill="rgb(210,141,64)" stroke="none" stroke-width="1"/><path id="s43" d="M115.300000,296.780000C115.400000,306.780000,117.680000,360.490000,119.790000,367.360000C121.900000,374.230000,142.790000,373.700000,144.110000,366.040000C145.430000,358.380000,151.110000,310.250000,152.300000,301.540000C155.480000,278.270000,115,270.870000,115.300000,296.780000Z" fill="rgb(210,141,64)" stroke="none" stroke-width="1"/><path id="s45" d="M124.360000,350.160000C121.450000,351.400000,122.050000,354.160000,118.870000,354.670000C115.690000,355.180000,101.520000,362.200000,101.820000,369.340000C102.120000,376.480000,110.280000,376.460000,118.150000,376.340000C126.020000,376.220000,143.600000,379.130000,144.200000,366.580000C144.800000,354.030000,136.630000,344.930000,124.360000,350.160000Z" fill="rgb(210,141,64)" stroke="none" stroke-width="1"/></g><g id="s47"><path id="s49" d="M261,239.150000C255.730000,254.950000,255.710000,278,266.820000,287.210000C277.930000,296.420000,302.510000,298.460000,312.550000,282.350000C322.590000,266.240000,322.550000,246.050000,319.950000,232.760000C317.350000,219.470000,274.260000,199.530000,261,239.150000Z" fill="rgb(210,141,64)" stroke="none" stroke-width="1"/><path id="s51" d="M265.270000,285.420000C271.820000,296.810000,296.990000,324.270000,305.710000,328.110000C314.430000,331.950000,327.520000,329,324.350000,321.340000C321.180000,313.680000,308.090000,292.070000,307.300000,284.660000C306.510000,277.250000,298,268,287.210000,268C276.420000,268,257.340000,271.610000,265.270000,285.420000Z" fill="rgb(210,141,64)" stroke="none" stroke-width="1"/><path id="s53" d="M301.930000,320.780000C300.090000,331.050000,298.930000,351.250000,296.070000,360.320000C293.210000,369.390000,299.860000,372.320000,306.070000,373.320000C312.280000,374.320000,318.070000,374.630000,320.740000,356.450000C323.530000,337.180000,328.740000,320.150000,319.550000,318.750000C307.840000,317,302.920000,315.230000,301.930000,320.780000Z" fill="rgb(210,141,64)" stroke="none" stroke-width="1"/><path id="s55" d="M296.510000,358.350000C294.400000,361.420000,288.580000,362.950000,284.510000,363.800000C280.440000,364.650000,276.230000,375.560000,284.160000,375.900000C292.090000,376.240000,316.760000,379.820000,318.160000,366.900000C319.560000,353.980000,303,346.250000,296.510000,358.350000Z" fill="rgb(210,141,64)" stroke="none" stroke-width="1"/></g><path id="s57" d="M50.270000,137.120000C46.750000,130.600000,67.860000,113.200000,73.530000,113.570000C76.020000,113.690000,73.590000,117.890000,73.590000,117.890000C85.800000,108.580000,107.760000,112.670000,108.440000,114.890000C108.720000,115.890000,106.440000,118.640000,106.440000,118.640000C113.110000,118.320000,118.720000,119.720000,118.660000,120.970000C118.600000,122.220000,114.980000,123.700000,114.980000,123.700000C114.980000,123.700000,133.980000,130.090000,135.710000,134.450000C136.240000,135.860000,130.860000,137.360000,130.860000,137.360000C139.860000,140,142.760000,142.560000,142.930000,143.260000C143.100000,143.960000,141.520000,145.900000,141.520000,145.900000C161.740000,148.900000,170.890000,151.820000,172.050000,153.740000C173.580000,156.270000,169.890000,159.110000,169.890000,159.110000C178.530000,162.630000,185.620000,172.860000,185.270000,174.620000C184.920000,176.380000,167.780000,174.970000,167.780000,174.970000C172.190000,178.490000,170.450000,181.140000,169.940000,181.360000C168.090000,182.150000,144.700000,181.100000,144.700000,181.100000C149.460000,190.620000,147.430000,208.240000,144.700000,208.720000C142.450000,209.120000,137.700000,198.410000,137.700000,198.410000C141.750000,212.860000,135.700000,243.700000,128.840000,251.100000C127.080000,253.210000,123.380000,243.700000,123.380000,243.700000C124.260000,258.700000,111.750000,278.420000,109.810000,267.490000C109.990000,280.350000,104.350000,299.920000,96.810000,263.970000C95.580000,270.140000,90.470000,265.730000,88.170000,254.630000C87.810000,264.180000,83,265.230000,75.470000,242C75.470000,252.750000,67.360000,244.760000,65.780000,215.740000C60.440000,227.630000,58.780000,223.460000,57.960000,200.870000C53.590000,213.310000,47.960000,199.530000,63.140000,169.220000C49.750000,175.560000,62.770000,153.130000,64.200000,144.720000C65.080000,139.470000,51.670000,139.700000,50.270000,137.120000Z" fill="rgb(91,56,27)" stroke="none" stroke-width="1"/><path id="s59" d="M74.150000,136C74.150000,140.850000,76.930000,151.610000,79.920000,152.860000C82.910000,154.110000,92.540000,134.150000,91.760000,127C91.210000,125,74.860000,130.200000,74.150000,136Z" fill="rgb(210,141,64)" stroke="none" stroke-width="1"/></g></svg>