<svg id="s1" xmlns="http://www.w3.org/2000/svg" xmlns:xlink="http://www.w3.org/1999/xlink" viewBox="0 0 400 400"><g id="s3"><path id="s5" d="M191.370000,40.180000C186.110000,55.910000,164.510000,54.110000,156.550000,61.570000C148.590000,69.030000,149.090000,85.440000,170.480000,117.280000C191.870000,149.120000,181.420000,166.520000,164.480000,145.630000C147.540000,124.740000,140.610000,97.380000,143.090000,67.540000C129.690000,72,119.250000,84.440000,116.260000,92.400000C121.260000,116.270000,131.180000,143.130000,150.080000,162.030000C168.980000,180.930000,184.900000,205.800000,158.540000,190.380000C132.180000,174.960000,110.790000,121.240000,107.310000,102.840000C93.880000,123.230000,88.910000,134.180000,88.910000,134.180000C94.910000,165.520000,114.770000,182.920000,134.670000,197.350000C154.570000,211.780000,173.470000,241.620000,145.610000,224.710000C117.750000,207.800000,82.560000,158.140000,80.070000,145.710000C66.290000,169.780000,60.070000,196.860000,60.070000,196.860000C80.460000,229.190000,134.680000,245.110000,141.140000,254.060000C147.600000,263.010000,82.450000,252.060000,60.560000,217.250000C54.840000,233.160000,55.110000,251.620000,60.060000,261.520000C68.680000,278.760000,131.190000,272.960000,134.670000,284.400000C138.150000,295.840000,77.470000,288.880000,66.530000,277.930000C67.530000,305.290000,85.930000,320.700000,95.880000,319.710000C118.760000,309.760000,137.160000,309.760000,137.660000,315.230000C138.160000,320.700000,113.790000,330.650000,97.370000,326.670000C95.880000,346.570000,124.230000,342.590000,136.660000,354.520000C149.090000,366.450000,160,356,165.500000,345.070000C171,334.140000,178.920000,313.290000,193.340000,311.800000C205.280000,179.160000,187.280000,82.320000,191.370000,40.180000ZM175.950000,266.490000C173.460000,274.950000,151.880000,263.410000,156.050000,255.050000C159,249.080000,178.430000,258,175.950000,266.490000Z" fill="rgb(53,112,88)" stroke="none" stroke-width="1"/><path id="s7" d="M266,278.920000C287.390000,278.420000,331.160000,270.920000,343.590000,236.640000C345.080000,220.230000,333.640000,193.370000,328.670000,191.380000C314.250000,241.620000,251.080000,259.020000,247.600000,246.090000C244.120000,233.160000,315.170000,230.760000,325.690000,179.440000C328.560000,165.440000,302.310000,131.190000,302.310000,131.190000C302.310000,131.190000,269.810000,209.850000,231.680000,214.250000C213.680000,216.330000,215.270000,202.810000,242.130000,189.380000C268.990000,175.950000,287.890000,149.090000,294.850000,128.700000C301.810000,108.310000,269,85.440000,269,85.440000C262,128.710000,245.130000,166.020000,224.240000,165.520000C203.350000,165.020000,260.640000,125,254,78.470000C252,73.470000,238.580000,68.520000,238.580000,68.520000C241.070000,107.320000,228.630000,118.760000,217.690000,118.260000C206.750000,117.760000,224.690000,76.980000,222.690000,63.050000C220.690000,49.120000,198.420000,54.140000,191.350000,40.170000C187.260000,82.310000,205.270000,179.170000,193.350000,311.790000C209.760000,313.790000,207.780000,351.030000,247.080000,357C286.380000,362.970000,302.790000,336.610000,302.790000,336.610000C266.480000,338.100000,246.090000,327.160000,249.070000,317.210000C252.050000,307.260000,325.670000,345.560000,337.070000,304.280000C342.070000,292.340000,336.570000,266.980000,339.070000,258.020000C319.170000,285.870000,294.310000,300.790000,259.990000,296.320000C225.670000,291.850000,244.590000,279.420000,266,278.920000ZM204.330000,234C202.590000,222.660000,224.220000,212.580000,227.130000,223C230.040000,233.420000,207.640000,242.680000,204.330000,234ZM208.330000,287.850000C208.330000,277.400000,228.720000,277.390000,228.720000,287.850000C228.670000,296.330000,208.280000,298.320000,208.280000,287.870000Z" fill="rgb(64,135,106)" stroke="none" stroke-width="1"/></g></svg>