<svg id="s1" xmlns="http://www.w3.org/2000/svg" xmlns:xlink="http://www.w3.org/1999/xlink" viewBox="0 0 400 400"><g id="s3"><g id="s5"><path id="s7" d="M174.830000,220.060000L174.830000,239.800000C174.805509,244.380402,173.161943,248.804568,170.190000,252.290000C179.222002,257.210760,189.344530,259.786091,199.630000,259.780000L200.370000,259.780000C210.655417,259.785664,220.777841,257.210360,229.810000,252.290000C226.838057,248.804568,225.194491,244.380402,225.170000,239.800000L225.170000,220.060000Z" fill="rgb(237,178,116)" stroke="none" stroke-width="1"/><g id="s9"><path id="s11" d="M248.240000,255.290000L244.780000,255.290000C238.916577,255.279141,233.567358,251.941694,230.980000,246.680000C230.704282,246.102801,230.169106,245.692310,229.540168,245.575620C228.911230,245.458930,228.264421,245.650122,227.800000,246.090000C211.797603,259.797941,188.192397,259.797941,172.190000,246.090000C171.725579,245.650122,171.078770,245.458930,170.449832,245.575620C169.820894,245.692310,169.285718,246.102801,169.010000,246.680000C166.422642,251.941694,161.073423,255.279141,155.210000,255.290000L151.760000,255.290000C119.250902,255.295522,92.900000,281.650902,92.900000,314.160000L92.900000,339.360000C92.900000,342.638076,94.202211,345.781890,96.520160,348.099840C98.838110,350.417789,101.981924,351.720000,105.260000,351.720000L294.740000,351.720000C298.018076,351.720000,301.161890,350.417789,303.479840,348.099840C305.797789,345.781890,307.100000,342.638076,307.100000,339.360000L307.100000,314.160000C307.100000,281.650902,280.749098,255.295522,248.240000,255.290000Z" fill="rgb(230,201,174)" stroke="none" stroke-width="1"/><path id="s13" d="M195.110000,273.200000C196.120068,274.945148,197.983622,276.019735,200,276.019735C202.016378,276.019735,203.879932,274.945148,204.890000,273.200000L212.050000,260.790000C213.361388,258.533848,212.947200,255.671812,211.050000,253.880000C203.737878,255.621508,196.124927,255.672808,188.790000,254.030000C187.028825,255.837446,186.685534,258.596030,187.950000,260.780000Z" fill="rgb(92,58,181)" stroke="none" stroke-width="1"/><path id="s15" d="M155.770000,255.150000L172.500000,271.630000C174.179126,273.308509,176.900874,273.308509,178.580000,271.630000L194.900000,255.310000C195.279857,254.923703,195.408792,254.355913,195.233028,253.843445C195.057264,253.330977,194.606987,252.961842,194.070000,252.890000C183.360000,251.400000,177.510000,246.810000,174.460000,242.980000C173.866549,242.279018,172.950403,241.938403,172.043155,242.081438C171.135906,242.224473,170.368995,242.830435,170.020000,243.680000C167.540000,249.440000,163.230000,254.770000,155.770000,255.150000Z" fill="rgb(242,227,213)" stroke="none" stroke-width="1"/><path id="s17" d="M244.230000,255.150000L227.500000,271.630000C225.820874,273.308509,223.099126,273.308509,221.420000,271.630000L205.100000,255.310000C204.720143,254.923703,204.591208,254.355913,204.766972,253.843445C204.942736,253.330977,205.393013,252.961842,205.930000,252.890000C216.640000,251.400000,222.490000,246.810000,225.540000,242.980000C226.133451,242.279018,227.049597,241.938403,227.956845,242.081438C228.864094,242.224473,229.631005,242.830435,229.980000,243.680000C232.460000,249.440000,236.770000,254.770000,244.230000,255.150000Z" fill="rgb(242,227,213)" stroke="none" stroke-width="1"/><path id="s19" d="M194.730000,275.270000L186,297.860000C185.331238,299.597041,185.560915,301.552021,186.614055,303.086768C187.667196,304.621516,189.408669,305.539103,191.270000,305.540000L208.700000,305.540000C210.561331,305.539103,212.302804,304.621516,213.355945,303.086768C214.409085,301.552021,214.638762,299.597041,213.970000,297.860000L205.260000,275.280000C204.416940,273.108613,202.327725,271.677153,199.998419,271.674941C197.669113,271.672729,195.577183,273.100218,194.730000,275.270000Z" fill="rgb(142,127,253)" stroke="none" stroke-width="1"/><path id="s21" d="M248.240000,255.290000L243.040000,255.110000C241.480000,255.110000,239.170000,256.030000,239.170000,257.710000C238.380563,275.297064,223.924662,289.167687,206.320000,289.230000L193.690000,289.230000C176.085338,289.167687,161.629437,275.297064,160.840000,257.710000C160.840000,256.030000,158.530000,255.110000,156.970000,255.110000L151.770000,255.290000C119.272987,255.328572,92.938572,281.662987,92.900000,314.160000L92.900000,339.360000C92.911012,346.181673,98.438327,351.708988,105.260000,351.720000L294.740000,351.720000C301.561673,351.708988,307.088988,346.181673,307.100000,339.360000L307.100000,314.160000C307.061439,281.666886,280.733107,255.334080,248.240000,255.290000Z" fill="rgb(59,184,227)" stroke="none" stroke-width="1"/><path id="s23" d="M167.910000,285.470000C175.017185,291.778756,184.196739,295.252678,193.700000,295.230000L206.310000,295.230000C216.133282,295.251477,225.598096,291.541327,232.790000,284.850000" fill="none" stroke="rgb(31,152,194)" stroke-width="4" stroke-linecap="round" stroke-miterlimit="10"/><line id="s25" x1="142.150000" y1="320.130000" x2="142.150000" y2="339.190000" fill="none" stroke="rgb(31,152,194)" stroke-width="8" stroke-linecap="round" stroke-miterlimit="10"/><line id="s27" x1="257.850000" y1="320.130000" x2="257.850000" y2="339.190000" fill="none" stroke="rgb(31,152,194)" stroke-width="8" stroke-linecap="round" stroke-miterlimit="10"/></g></g><g id="s29"><g id="s31"><rect id="s33" width="61.490000" height="61.230000" rx="24.600000" ry="24.600000" transform="translate(501.860000,265.400000) rotate(180) translate(220.180000,102.080000)" fill="rgb(161,141,124)" stroke="none" stroke-width="1"/><rect id="s35" width="61.490000" height="61.230000" rx="24.600000" ry="24.600000" transform="translate(118.330000,102.080000)" fill="rgb(161,141,124)" stroke="none" stroke-width="1"/></g><circle id="s37" r="19.160000" transform="translate(261.160000,166.570000)" fill="rgb(255,201,145)" stroke="none" stroke-width="1"/><circle id="s39" r="19.160000" transform="translate(138.840000,166.570000)" fill="rgb(255,201,145)" stroke="none" stroke-width="1"/><path id="s41" d="M196.370000,70.250000L203.630000,70.250000C237.319370,70.250000,264.630000,97.560630,264.630000,131.250000L264.630000,173.250000C264.630000,208.712204,235.882204,237.460000,200.420000,237.460000L199.660000,237.460000C164.197796,237.460000,135.450000,208.712204,135.450000,173.250000L135.450000,131.250000C135.450000,97.560630,162.760630,70.250000,196.450000,70.250000Z" fill="rgb(255,201,145)" stroke="none" stroke-width="1"/><g id="s43"><ellipse id="s45" rx="7" ry="7.550000" transform="translate(167.950000,161.730000)" fill="rgb(0,0,0)" stroke="none" stroke-width="1"/><ellipse id="s47" rx="7" ry="7.550000" transform="translate(232.050000,161.730000)" fill="rgb(0,0,0)" stroke="none" stroke-width="1"/></g><line id="s49" x1="220.180000" y1="133.690000" x2="243.910000" y2="133.690000" fill="none" stroke="rgb(161,141,124)" stroke-width="12" stroke-linecap="round" stroke-miterlimit="10"/><line id="s51" x1="156.090000" y1="133.690000" x2="179.820000" y2="133.690000" fill="none" stroke="rgb(161,141,124)" stroke-width="12" stroke-linecap="round" stroke-miterlimit="10"/><path id="s53" d="M206.660000,176.380000C205.280695,174.039844,202.785792,172.583113,200.069874,172.532139C197.353955,172.481164,194.806147,173.843249,193.340000,176.130000" fill="none" stroke="rgb(219,162,101)" stroke-width="4" stroke-linecap="round" stroke-miterlimit="10"/><path id="s55" d="M189.620000,193.110000C191.768510,196.760052,195.658929,199.031905,199.893662,199.109419C204.128395,199.186934,208.099350,197.058978,210.380000,193.490000" fill="none" stroke="rgb(219,162,101)" stroke-width="4" stroke-linecap="round" stroke-miterlimit="10"/><rect id="s57" width="12.880000" height="55.080000" rx="6.440000" ry="6.440000" transform="translate(129.860000,117.450000)" fill="rgb(161,141,124)" stroke="none" stroke-width="1"/><rect id="s59" width="12.880000" height="55.080000" rx="6.440000" ry="6.440000" transform="translate(527.400000,289.980000) rotate(180) translate(257.260000,117.450000)" fill="rgb(161,141,124)" stroke="none" stroke-width="1"/><line id="s61" x1="183.690000" y1="117.450000" x2="216.310000" y2="117.450000" fill="none" stroke="rgb(219,162,101)" stroke-width="4" stroke-linecap="round" stroke-miterlimit="10"/><line id="s63" x1="189.720000" y1="102.080000" x2="210.280000" y2="102.080000" fill="none" stroke="rgb(219,162,101)" stroke-width="4" stroke-linecap="round" stroke-miterlimit="10"/><g id="s65"><path id="s67" d="M144.890000,159.950000C144.742351,160.819787,144.652156,161.698356,144.620000,162.580000L144.620000,162.580000C144.652953,173.943388,153.856612,183.147047,165.220000,183.180000L169.220000,183.180000C180.583388,183.147047,189.787047,173.943388,189.820000,162.580000L189.820000,162.580000C189.787585,161.698374,189.697392,160.819822,189.550000,159.950000Z" opacity="0.5" fill="rgb(255,255,255)" stroke="none" stroke-width="1"/><path id="s69" d="M255.110000,159.950000C255.257649,160.819787,255.347844,161.698356,255.380000,162.580000L255.380000,162.580000C255.347047,173.943388,246.143388,183.147047,234.780000,183.180000L230.780000,183.180000C219.416612,183.147047,210.212953,173.943388,210.180000,162.580000L210.180000,162.580000C210.212415,161.698374,210.302608,160.819822,210.450000,159.950000Z" opacity="0.5" fill="rgb(255,255,255)" stroke="none" stroke-width="1"/><line id="s71" x1="189.450000" y1="162.060000" x2="209.440000" y2="162.060000" fill="none" stroke="rgb(0,0,0)" stroke-width="6.181050" stroke-linecap="round" stroke-miterlimit="10"/></g><g id="s73"><path id="s75" d="M185.830000,180.110000C179.410000,180.110000,174.150000,184.920000,174.150000,190.810000L174.150000,201.170000L188.920000,201.170000C195.340000,201.170000,200.600000,196.360000,200.600000,190.470000L200.600000,180.110000Z" fill="rgb(161,141,124)" stroke="none" stroke-width="1"/><path id="s77" d="M214.170000,180.110000C220.590000,180.110000,225.850000,184.920000,225.850000,190.810000L225.850000,201.170000L211.080000,201.170000C204.660000,201.170000,199.400000,196.360000,199.400000,190.470000L199.400000,180.110000Z" fill="rgb(161,141,124)" stroke="none" stroke-width="1"/></g></g></g></svg>