<svg id="s1" xmlns="http://www.w3.org/2000/svg" xmlns:xlink="http://www.w3.org/1999/xlink" viewBox="0 0 400 400"><defs><clipPath id="s3"><rect id="s5" width="231.870000" height="149.500000" rx="0" ry="0" transform="translate(88.450000,33.180000)" fill="none" stroke="none" stroke-width="1"/></clipPath><linearGradient id="s15-fill" x1="106.860002" y1="-28.170001" x2="148.360002" y2="150.919999" spreadMethod="pad" gradientUnits="userSpaceOnUse"><stop id="s15-fill-0" offset="2%" stop-color="rgb(118,143,82)"/><stop id="s15-fill-1" offset="100%" stop-color="rgb(83,115,61)"/></linearGradient><linearGradient id="s17-fill" x1="122.618226" y1="195.467712" x2="212.017337" y2="253.457648" spreadMethod="pad" gradientUnits="userSpaceOnUse"><stop id="s17-fill-0" offset="21%" stop-color="rgb(175,194,132)"/><stop id="s17-fill-1" offset="100%" stop-color="rgb(113,153,80)"/></linearGradient><linearGradient id="s21-fill" x1="106.859998" y1="-28.170000" x2="148.349998" y2="150.920000" spreadMethod="pad" gradientUnits="userSpaceOnUse"><stop id="s21-fill-0" offset="2%" stop-color="rgb(136,166,87)"/><stop id="s21-fill-1" offset="100%" stop-color="rgb(96,130,70)"/></linearGradient><linearGradient id="s23-fill" x1="146.499904" y1="173.257682" x2="206.395510" y2="261.391387" spreadMethod="pad" gradientUnits="userSpaceOnUse"><stop id="s23-fill-0" offset="21%" stop-color="rgb(175,194,132)"/><stop id="s23-fill-1" offset="100%" stop-color="rgb(113,153,80)"/></linearGradient><linearGradient id="s29-fill" x1="165.940000" y1="206.190000" x2="63.940000" y2="-46.810000" spreadMethod="pad" gradientUnits="userSpaceOnUse"><stop id="s29-fill-0" offset="18%" stop-color="rgb(143,99,92)"/><stop id="s29-fill-1" offset="100%" stop-color="rgb(181,131,123)"/></linearGradient><linearGradient id="s35-fill" x1="56.630000" y1="68.060000" x2="33.960000" y2="20.730000" spreadMethod="pad" gradientUnits="userSpaceOnUse"><stop id="s35-fill-0" offset="18%" stop-color="rgb(156,99,87)"/><stop id="s35-fill-1" offset="100%" stop-color="rgb(181,131,123)"/></linearGradient><linearGradient id="s37-fill" x1="-5.510000" y1="-17.650000" x2="7.190000" y2="23.030000" spreadMethod="pad" gradientUnits="userSpaceOnUse"><stop id="s37-fill-0" offset="9%" stop-color="rgb(248,233,188)"/><stop id="s37-fill-1" offset="100%" stop-color="rgb(248,208,134)"/></linearGradient></defs><g id="s7"><g id="s9"><g id="s11" clip-path="url(#s3)"><g id="s13"><rect id="s15" width="260.850000" height="147.110000" rx="4.140000" ry="4.140000" transform="translate(-113.010000,255.310000) rotate(-57.030004) scale(1,1) translate(48.010000,158.100000)" fill="url(#s15-fill)" stroke="none" stroke-width="1"/><path id="s17" d="M269.460000,157.880000L208.680000,118.460000C206.035487,122.541573,201.877321,125.404880,197.120943,126.419549C192.364565,127.434218,187.399920,126.517063,183.320000,123.870000L82,280.080000C86.081573,282.724513,88.944880,286.882679,89.959549,291.639057C90.974218,296.395435,90.057063,301.360080,87.410000,305.440000L148.190000,344.860000C150.834513,340.778427,154.992679,337.915120,159.749057,336.900451C164.505435,335.885782,169.470080,336.802937,173.550000,339.450000L274.860000,183.230000C266.369934,177.720057,263.952525,166.371667,269.460000,157.880000Z" fill="url(#s17-fill)" stroke="none" stroke-width="1"/></g><g id="s19"><rect id="s21" width="260.850000" height="147.110000" rx="4.140000" ry="4.140000" transform="translate(-96.520000,142.850000) rotate(-34.007492) scale(1.001249,1.001249) translate(53.470000,154.730000)" fill="url(#s21-fill)" stroke="none" stroke-width="1"/><path id="s23" d="M296.420000,195.610000L255.700000,135.690000C251.678397,138.424368,246.735024,139.448525,241.958077,138.537023C237.181130,137.625521,232.962196,134.853078,230.230000,130.830000L76.230000,235.490000C78.978033,239.513399,80.011142,244.465333,79.101112,249.251905C78.191082,254.038477,75.412801,258.265783,71.380000,261L112.100000,320.910000C116.121603,318.175632,121.064976,317.151475,125.841923,318.062977C130.618870,318.974479,134.837804,321.746922,137.570000,325.770000L291.570000,221.110000C288.825143,217.087352,287.793876,212.137772,288.703801,207.353635C289.613725,202.569497,292.390036,198.344103,296.420000,195.610000Z" fill="url(#s23-fill)" stroke="none" stroke-width="1"/></g></g></g><g id="s25"><g id="s27"><rect id="s29" width="231.870000" height="164.310000" rx="19.230000" ry="19.230000" transform="translate(88.450000,167.150000)" fill="url(#s29-fill)" stroke="none" stroke-width="1"/><rect id="s31" width="190.350000" height="122.790000" rx="3.590000" ry="3.590000" transform="translate(109.200000,187.910000)" fill="none" stroke="rgb(117,78,70)" stroke-width="10" stroke-linecap="round" stroke-miterlimit="10" stroke-dasharray="18.237600,18.237600"/></g><g id="s33"><rect id="s35" width="73.710000" height="53.540000" rx="9.610000" ry="9.610000" transform="translate(261.770000,222.530000)" fill="url(#s35-fill)" stroke="none" stroke-width="1"/><circle id="s37" r="14.360000" transform="translate(294.670000,249.300000)" fill="url(#s37-fill)" stroke="none" stroke-width="1"/></g></g></g></svg>