<svg id="s1" xmlns="http://www.w3.org/2000/svg" xmlns:xlink="http://www.w3.org/1999/xlink" viewBox="0 0 400 400"><g id="s3"><path id="s5" d="M314.390000,275C315.260000,270,249.390000,299,258.390000,279.180000C261.640000,272.010000,301.460000,263.730000,310.810000,257.910000C323.890000,249.760000,315.640000,211.510000,313.300000,209.430000C309.160000,205.740000,246.780000,245.330000,243.410000,229.180000C242.180000,223.280000,284.330000,204.930000,299.810000,186.890000C315.290000,168.850000,292.210000,120.460000,284.900000,122.680000C277.590000,124.900000,240.710000,173.090000,236.660000,159.150000C234.730000,152.520000,269.850000,129.040000,265.350000,107.490000C260.850000,85.940000,231.350000,81.850000,217.810000,65.490000C223.740000,123.740000,201.900000,302.200000,206.470000,343.490000C220.220000,355.340000,298.420000,366.890000,314.390000,275Z" fill="rgb(107,161,48)" stroke="none" stroke-width="1"/><path id="s7" d="M206.490000,343.560000C201.920000,302.270000,223.760000,123.810000,217.830000,65.560000C209.830000,79.810000,163.480000,93.560000,159.670000,114.850000C156.760000,131.070000,196.250000,175.500000,193.170000,181.850000C185.400000,197.920000,148.250000,138.300000,144.410000,135.630000C140.570000,132.960000,121.670000,171,123.170000,191.410000C124.170000,205.020000,175.490000,233.270000,173.760000,243.230000C172.200000,252.160000,147.760000,240.850000,115.680000,208.310000C110.680000,203.310000,100.750000,225.890000,104.290000,244.230000C106.900000,257.740000,149.740000,274.020000,147.540000,283.430000C145.340000,292.840000,110.540000,267.950000,104.380000,271.050000C98.220000,274.150000,135.100000,378.230000,206.500000,343.560000Z" fill="rgb(96,147,39)" stroke="none" stroke-width="1"/></g></svg>