<svg id="s1" xmlns="http://www.w3.org/2000/svg" xmlns:xlink="http://www.w3.org/1999/xlink" viewBox="0 0 400 400"><defs><linearGradient id="s5-fill" x1="29.980000" y1="358.119985" x2="222.120000" y2="313.599985" spreadMethod="pad" gradientUnits="userSpaceOnUse"><stop id="s5-fill-0" offset="2%" stop-color="rgb(136,166,87)"/><stop id="s5-fill-1" offset="100%" stop-color="rgb(96,130,70)"/></linearGradient><linearGradient id="s7-fill" x1="200" y1="140.040000" x2="200" y2="251.460000" spreadMethod="pad" gradientUnits="userSpaceOnUse"><stop id="s7-fill-0" offset="21%" stop-color="rgb(177,201,120)"/><stop id="s7-fill-1" offset="99%" stop-color="rgb(138,171,104)"/></linearGradient><linearGradient id="s9-fill" x1="0" y1="-51.510000" x2="0" y2="30.980000" spreadMethod="pad" gradientUnits="userSpaceOnUse"><stop id="s9-fill-0" offset="7%" stop-color="rgb(215,230,142)"/><stop id="s9-fill-1" offset="100%" stop-color="rgb(170,199,114)"/></linearGradient><linearGradient id="s11-fill" x1="0" y1="-23.380000" x2="0" y2="14.060000" spreadMethod="pad" gradientUnits="userSpaceOnUse"><stop id="s11-fill-0" offset="7%" stop-color="rgb(215,230,142)"/><stop id="s11-fill-1" offset="100%" stop-color="rgb(170,199,114)"/></linearGradient><linearGradient id="s13-fill" x1="0" y1="-23.380000" x2="0" y2="14.060000" spreadMethod="pad" gradientUnits="userSpaceOnUse"><stop id="s13-fill-0" offset="7%" stop-color="rgb(215,230,142)"/><stop id="s13-fill-1" offset="100%" stop-color="rgb(170,199,114)"/></linearGradient></defs><g id="s3"><rect id="s5" width="153.550000" height="297.460000" rx="3.950000" ry="3.950000" transform="translate(409.610000,9.610000) rotate(90) translate(123.220000,60.880000)" fill="url(#s5-fill)" stroke="none" stroke-width="1"/><path id="s7" d="M329,247.490000L329,171.730000C318.420510,171.724483,309.845517,163.149490,309.840000,152.570000L90.170000,152.570000C90.164479,163.153393,81.583395,171.730001,71,171.730000L71,247.490000C81.579490,247.495517,90.154483,256.070510,90.160000,266.650000L309.830000,266.650000C309.835521,256.066607,318.416605,247.489999,329,247.490000Z" fill="url(#s7-fill)" stroke="none" stroke-width="1"/><circle id="s9" r="42.230000" transform="translate(200,209.610000)" fill="url(#s9-fill)" stroke="none" stroke-width="1"/><circle id="s11" r="19.160000" transform="translate(114.720000,209.610000)" fill="url(#s11-fill)" stroke="none" stroke-width="1"/><circle id="s13" r="19.160000" transform="translate(285.280000,209.610000)" fill="url(#s13-fill)" stroke="none" stroke-width="1"/></g></svg>