<svg id="eh83RyszADk1" xmlns="http://www.w3.org/2000/svg" xmlns:xlink="http://www.w3.org/1999/xlink" viewBox="0 0 400 400" shape-rendering="geometricPrecision" text-rendering="geometricPrecision"><g id="eh83RyszADk2"><path id="eh83RyszADk3" d="M255.700000,181.500000C286.200000,160.500000,290.100000,118,304.200000,131C317,142.900000,291,159.400000,298.100000,203.900000C300.600000,219.500000,282.600000,212.500000,275,233.100000C259.800000,274.400000,190.700000,226.400000,255.700000,181.500000Z" fill="rgb(192,200,218)" stroke="none" stroke-width="1"/><path id="eh83RyszADk4" d="M219.200000,314.600000C220,291.800000,223.200000,265.300000,236.700000,239.800000C253.500000,207.900000,286.700000,177.500000,287.700000,152.600000C284.800000,175.500000,250.800000,205.300000,233.300000,237.100000C218.800000,263.400000,215.700000,291.100000,214,314.500000L219.200000,314.500000L219.200000,314.600000Z" fill="rgb(57,54,87)" stroke="none" stroke-width="1"/><path id="eh83RyszADk5" d="M179,144.900000C208.400000,92.100000,196,16.700000,226,25.700000C253.200000,33.900000,224.300000,53.700000,266.600000,113.600000C281.500000,134.600000,237.300000,155.200000,241.100000,190.800000C248.800000,262,116.300000,257.400000,179,144.900000Z" fill="rgb(123,142,169)" stroke="none" stroke-width="1"/><path id="eh83RyszADk6" d="M194,314.600000C190.200000,287.100000,182.100000,249,195.700000,223.400000C212.500000,191.500000,238.100000,115,224.900000,70C230,122.600000,206.700000,186.500000,189.200000,218.400000C174.900000,244.400000,180.700000,286.200000,182.200000,314.600000L194,314.600000L194,314.600000Z" fill="rgb(41,41,66)" stroke="none" stroke-width="1"/><path id="eh83RyszADk7" d="M167.800000,182.900000C123.700000,165,107,112.900000,93,133.200000C80.300000,151.600000,117.400000,165.100000,121,222.700000C122.200000,243,142.800000,229.100000,158,252.900000C188.500000,300.400000,261.700000,221,167.800000,182.900000L167.800000,182.900000Z" fill="rgb(216,222,235)" stroke="none" stroke-width="1"/><path id="eh83RyszADk8" d="M200.900000,314.600000C204,294.200000,209.700000,273,196.400000,247.800000C179.600000,215.900000,119.900000,186.400000,118.800000,161.500000C121.700000,184.300000,182.200000,213.300000,199.800000,245.200000C213.300000,269.600000,209.400000,293.200000,207.800000,314.600000L200.900000,314.600000Z" fill="rgb(61,59,105)" stroke="none" stroke-width="1"/></g><polygon id="eh83RyszADk9" points="222,374.900000 179.100000,374.900000 163,314.600000 238.100000,314.600000" fill="rgb(60,57,69)" stroke="none" stroke-width="1"/></svg>