<svg id="s1" xmlns="http://www.w3.org/2000/svg" xmlns:xlink="http://www.w3.org/1999/xlink" viewBox="0 0 400 400"><defs><linearGradient id="s5-fill" x1="199.480000" y1="200.540000" x2="227.480000" y2="333.870000" spreadMethod="pad" gradientUnits="userSpaceOnUse"><stop id="s5-fill-0" offset="12%" stop-color="rgb(255,160,148)"/><stop id="s5-fill-1" offset="100%" stop-color="rgb(247,118,102)"/></linearGradient><linearGradient id="s7-fill" x1="135.400000" y1="-17.210000" x2="148.400000" y2="60.790000" spreadMethod="pad" gradientUnits="userSpaceOnUse"><stop id="s7-fill-0" offset="16%" stop-color="rgb(250,122,108)"/><stop id="s7-fill-1" offset="100%" stop-color="rgb(219,81,66)"/></linearGradient><linearGradient id="s9-fill" x1="352.408653" y1="421.368934" x2="439.844012" y2="266.536579" spreadMethod="pad" gradientUnits="userSpaceOnUse"><stop id="s9-fill-0" offset="9%" stop-color="rgb(248,233,188)"/><stop id="s9-fill-1" offset="100%" stop-color="rgb(248,191,87)"/></linearGradient><linearGradient id="s11-fill" x1="-58.115205" y1="111.260464" x2="57.191721" y2="246.620402" spreadMethod="pad" gradientUnits="userSpaceOnUse"><stop id="s11-fill-0" offset="9%" stop-color="rgb(248,233,188)"/><stop id="s11-fill-1" offset="100%" stop-color="rgb(248,191,87)"/></linearGradient></defs><g id="s3"><path id="s5" d="M75.590000,203L106.380000,328.320000C107.236467,331.798544,110.357571,334.242583,113.940000,334.240000L286.070000,334.240000C289.652429,334.242583,292.773533,331.798544,293.630000,328.320000L324.410000,203ZM148.470000,310.250000C148.459012,314.288164,145.188164,317.559012,141.150000,317.570000L139.390000,317.570000C135.351836,317.559012,132.080988,314.288164,132.070000,310.250000L132.070000,240.940000C132.080988,236.901836,135.351836,233.630988,139.390000,233.620000L141.150000,233.620000C145.188164,233.630988,148.459012,236.901836,148.470000,240.940000ZM188.290000,310.250000C188.279012,314.288164,185.008164,317.559012,180.970000,317.570000L179.210000,317.570000C175.171836,317.559012,171.900988,314.288164,171.890000,310.250000L171.890000,240.940000C171.900988,236.901836,175.171836,233.630988,179.210000,233.620000L181,233.620000C185.038164,233.630988,188.309012,236.901836,188.320000,240.940000ZM228.110000,310.250000C228.099012,314.288164,224.828164,317.559012,220.790000,317.570000L219,317.570000C214.961836,317.559012,211.690988,314.288164,211.680000,310.250000L211.680000,240.940000C211.690988,236.901836,214.961836,233.630988,219,233.620000L220.760000,233.620000C224.798164,233.630988,228.069012,236.901836,228.080000,240.940000ZM267.930000,310.250000C267.919012,314.288164,264.648164,317.559012,260.610000,317.570000L258.850000,317.570000C254.811836,317.559012,251.540988,314.288164,251.530000,310.250000L251.530000,240.940000C251.540988,236.901836,254.811836,233.630988,258.850000,233.620000L260.610000,233.620000C264.648164,233.630988,267.919012,236.901836,267.930000,240.940000Z" fill="url(#s5-fill)" stroke="none" stroke-width="1"/><rect id="s7" width="283.830000" height="43.810000" rx="3.890000" ry="3.890000" transform="translate(58.080000,179.460000)" fill="url(#s7-fill)" stroke="none" stroke-width="1"/><rect id="s9" width="17.510000" height="133.040000" rx="8.750000" ry="8.750000" transform="translate(531.380000,131.050000) rotate(145.060006) skewX(-0) scale(1,1) translate(236.310000,82.630000)" fill="url(#s9-fill)" stroke="none" stroke-width="1"/><rect id="s11" width="17.510000" height="133.040000" rx="8.750000" ry="8.750000" transform="translate(113.350000,-61.850000) rotate(34.939994) skewX(0) scale(1,1) translate(146.180000,82.630000)" fill="url(#s11-fill)" stroke="none" stroke-width="1"/></g></svg>