<svg id="etbsm3C2FwJ1" xmlns="http://www.w3.org/2000/svg" xmlns:xlink="http://www.w3.org/1999/xlink" viewBox="0 0 400 400" shape-rendering="geometricPrecision" text-rendering="geometricPrecision"><g id="etbsm3C2FwJ2"><path id="etbsm3C2FwJ3" d="M131,238.900000C156.300000,272,170.500000,303.700000,173.600000,333.900000" fill="none" stroke="rgb(51,51,51)" stroke-width="9.903200" stroke-miterlimit="10"/><path id="etbsm3C2FwJ4" d="M221.500000,141.700000C198.100000,216.200000,188.900000,279.900000,193.900000,332.900000" fill="none" stroke="rgb(51,51,51)" stroke-width="15.038200" stroke-miterlimit="10"/><path id="etbsm3C2FwJ5" d="M285.500000,239.600000C222.400000,249,196.400000,279.800000,207.400000,332.100000" fill="none" stroke="rgb(51,51,51)" stroke-width="8.069300" stroke-miterlimit="10"/><path id="etbsm3C2FwJ6" d="M336.200000,192.200000C329.400000,189.700000,321.300000,213.800000,317.300000,213.800000C313,213.800000,304,199.800000,328.400000,190.100000C313.300000,185.900000,302.700000,184,281.800000,187.300000C274.700000,188.400000,269,197.500000,266.300000,207.800000C264.300000,215.900000,257.200000,223.500000,253.800000,221.800000C250.900000,220.300000,250,211.800000,267.900000,189.600000C193.100000,211.200000,236.200000,322,309.600000,292.700000C296,285.200000,283.900000,281,279,276C267.700000,264.600000,280.800000,260.300000,301.800000,280.800000C305.100000,284,312.100000,292.100000,315.900000,290.300000C328.400000,284.300000,339.700000,274.900000,349.700000,263.500000C318.500000,260.200000,320.200000,249,322.600000,247.300000C324,246.300000,349.500000,264.200000,354.200000,258C376.800000,228.900000,371.100000,205,336.200000,192.200000L336.200000,192.200000Z" fill="rgb(64,121,157)" stroke="none" stroke-width="1"/><path id="etbsm3C2FwJ7" d="M303.500000,77.500000C306.300000,88.100000,268.800000,97.100000,268.200000,103.100000C267.600000,109.600000,287.600000,125.100000,305.600000,89.500000C310,112.900000,311.300000,129.200000,303.500000,160.400000C300.800000,171,286.300000,178.400000,270.300000,181C257.800000,183,245.300000,192.600000,247.400000,197.900000C249.200000,202.500000,262,205.100000,298,181C255.100000,291.400000,93.100000,211,147.600000,103.800000C157,125.600000,161.800000,144.600000,168.600000,152.700000C184.300000,171.300000,192.600000,152.100000,164.400000,117.400000C160,112,148.700000,100.300000,152,94.700000C162.800000,76.600000,178.600000,60.800000,197.200000,47.100000C198,94.800000,215.200000,93.900000,218,90.500000C219.700000,88.500000,196,47.500000,206,41.100000C253.400000,11.100000,289,22.900000,303.500000,77.500000L303.500000,77.500000Z" fill="rgb(130,165,186)" stroke="none" stroke-width="1"/><path id="etbsm3C2FwJ8" d="M92.500000,138C100.900000,139.800000,93.900000,169.100000,97.900000,171.600000C102.200000,174.300000,120.100000,165.900000,101.700000,140.700000C119.500000,145.900000,131.400000,150.800000,150.300000,167.200000C156.800000,172.800000,156.800000,185.500000,152.900000,197.600000C149.900000,207,152.200000,219.100000,156.700000,219.500000C160.600000,219.900000,166.800000,211.900000,162.800000,178.300000C224.500000,247.100000,111.300000,331.500000,56,255.800000C74.500000,257,89.400000,260.300000,97.500000,258.400000C116,254.100000,105.600000,241.500000,71.500000,248.900000C66.100000,250.100000,54,253.800000,51.300000,249.500000C42.300000,235.600000,36.900000,219,34,201.200000C67.500000,217.500000,72.900000,205.200000,71.500000,202C70.700000,200.100000,33.800000,202.100000,32.900000,192.900000C28.600000,149.500000,49.300000,128.900000,92.500000,138L92.500000,138Z" fill="rgb(176,199,213)" stroke="none" stroke-width="1"/></g><path id="etbsm3C2FwJ9" d="M269.800000,318.100000L269.800000,318.100000C269.800000,349.400000,244.200000,375,212.800000,375L173.500000,375C142.200000,375,116.500000,349.400000,116.500000,318.100000L116.500000,318.100000L269.800000,318.100000L269.800000,318.100000Z" fill="rgb(195,138,91)" stroke="none" stroke-width="1"/></svg>