<svg id="s1" xmlns="http://www.w3.org/2000/svg" xmlns:xlink="http://www.w3.org/1999/xlink" viewBox="0 0 400 400"><g id="s3"><g id="s5"><path id="s7" d="M219.350000,241.580000L219.350000,266.240000C219.382933,276.443596,227.646404,284.707067,237.850000,284.740000L237.850000,284.740000C253.439849,284.990635,265.958416,297.678192,266,313.270000L266,347.720000L134,347.720000L134,313.270000C134.046820,297.689739,146.551861,285.011326,162.130000,284.750000L162.130000,284.750000C172.333596,284.717067,180.597067,276.453596,180.630000,266.250000L180.630000,241.580000Z" fill="rgb(247,194,153)" stroke="none" stroke-width="1"/><path id="s9" d="M180.650000,241.580000L180.650000,266.240000C180.651220,269.883027,179.568637,273.444065,177.540000,276.470000C184.601796,279.124801,192.085675,280.479962,199.630000,280.470000L200.380000,280.470000C207.924325,280.479962,215.408204,279.124801,222.470000,276.470000C220.441363,273.444065,219.358780,269.883027,219.360000,266.240000L219.360000,241.580000Z" fill="rgb(227,165,126)" stroke="none" stroke-width="1"/><g id="s11"><path id="s13" d="M238.080000,280.750000L238,280.750000C235.942117,280.598762,233.892078,281.133249,232.170000,282.270000C225.078012,287.046731,216.720638,289.595730,208.170000,289.590000L191.830000,289.590000C183.279362,289.595730,174.921988,287.046731,167.830000,282.270000C166.093768,281.123824,164.023660,280.592215,161.950000,280.760000L161.950000,280.760000C144.246147,281.139503,130.071863,295.562225,130,313.270000L130,347.720000C130,349.929139,131.790861,351.720000,134,351.720000L266,351.720000C268.209139,351.720000,270,349.929139,270,347.720000L270,313.270000C269.933946,295.569735,255.775966,281.145628,238.080000,280.750000Z" fill="rgb(209,71,77)" stroke="none" stroke-width="1"/><line id="s15" x1="162.540000" y1="330.080000" x2="162.540000" y2="345.580000" fill="none" stroke="rgb(161,33,38)" stroke-width="6" stroke-linecap="round" stroke-miterlimit="10"/><line id="s17" x1="237.460000" y1="330.080000" x2="237.460000" y2="345.580000" fill="none" stroke="rgb(161,33,38)" stroke-width="6" stroke-linecap="round" stroke-miterlimit="10"/><path id="s19" d="M163.120000,295.330000C170.067314,303.763986,182.519182,305.010066,191,298.120000L201.430000,289.580000L191.830000,289.580000C183.279362,289.585730,174.921988,287.036731,167.830000,282.260000C166.093768,281.113824,164.023660,280.582215,161.950000,280.750000L161.950000,280.750000C158.744472,280.810156,155.565972,281.349456,152.520000,282.350000Z" fill="rgb(242,227,213)" stroke="none" stroke-width="1"/><path id="s21" d="M238,280.750000C235.942117,280.598762,233.892078,281.133249,232.170000,282.270000C225.078012,287.046731,216.720638,289.595730,208.170000,289.590000L198.570000,289.590000L209,298.120000C217.479757,305.019177,229.938940,303.777279,236.890000,295.340000L247.520000,282.340000C244.473992,281.339602,241.295514,280.800306,238.090000,280.740000Z" fill="rgb(242,227,213)" stroke="none" stroke-width="1"/><circle id="s23" r="4.440000" transform="translate(200,305.730000)" fill="rgb(242,227,213)" stroke="none" stroke-width="1"/></g></g><g id="s25"><g id="s27"><path id="s29" d="M138.850000,233.310000C116.449070,233.375902,98.305902,251.519070,98.240000,273.920000L98.240000,280.920000C98.240000,284.863313,101.436687,288.060000,105.380000,288.060000L121.930000,288.060000C144.330930,287.994098,162.474098,269.850930,162.540000,247.450000L162.540000,233.310000Z" fill="rgb(94,56,20)" stroke="none" stroke-width="1"/><path id="s31" d="M261.150000,233.310000C283.550930,233.375902,301.694098,251.519070,301.760000,273.920000L301.760000,280.920000C301.760000,284.863313,298.563313,288.060000,294.620000,288.060000L278.070000,288.060000C255.669070,287.994098,237.525902,269.850930,237.460000,247.450000L237.460000,233.310000Z" fill="rgb(94,56,20)" stroke="none" stroke-width="1"/></g><circle id="s33" r="19.500000" transform="translate(262.250000,208.720000)" fill="rgb(247,194,153)" stroke="none" stroke-width="1"/><circle id="s35" r="19.500000" transform="translate(137.750000,208.720000)" fill="rgb(247,194,153)" stroke="none" stroke-width="1"/><path id="s37" d="M196.430000,117.370000L203.570000,117.370000C219.461772,117.370000,234.702659,123.682982,245.939838,134.920162C257.177018,146.157341,263.490000,161.398228,263.490000,177.290000L263.490000,202.560000C263.490000,237.420213,235.230213,265.680000,200.370000,265.680000L199.620000,265.680000C182.879535,265.680000,166.824716,259.029876,154.987420,247.192580C143.150124,235.355284,136.500000,219.300465,136.500000,202.560000L136.500000,177.290000C136.500000,161.398228,142.812982,146.157341,154.050162,134.920162C165.287341,123.682982,180.528228,117.370000,196.420000,117.370000Z" fill="rgb(247,194,153)" stroke="none" stroke-width="1"/><path id="s39" d="M206.780000,206.350000C205.360857,203.986976,202.825178,202.520971,200.069226,202.470161C197.313275,202.419351,194.725281,203.790893,193.220000,206.100000" fill="none" stroke="rgb(207,148,109)" stroke-width="4" stroke-linecap="round" stroke-miterlimit="10"/><g id="s41"><ellipse id="s43" rx="6.880000" ry="7.430000" transform="translate(168.500000,201.300000)" fill="rgb(0,0,0)" stroke="none" stroke-width="1"/><ellipse id="s45" rx="6.880000" ry="7.430000" transform="translate(231.500000,201.300000)" fill="rgb(0,0,0)" stroke="none" stroke-width="1"/></g><g id="s47"><circle id="s49" r="12.580000" transform="translate(165.910000,230.330000)" fill="rgb(235,145,122)" stroke="none" stroke-width="1"/><circle id="s51" r="12.580000" transform="translate(234.090000,230.330000)" fill="rgb(235,145,122)" stroke="none" stroke-width="1"/></g><g id="s53"><rect id="s55" width="9.230000" height="38.590000" rx="4.620000" ry="4.620000" transform="translate(132.510000,169.920000)" fill="rgb(94,56,20)" stroke="none" stroke-width="1"/><rect id="s57" width="9.230000" height="38.590000" rx="4.620000" ry="4.620000" transform="translate(258.260000,169.920000)" fill="rgb(94,56,20)" stroke="none" stroke-width="1"/><path id="s59" d="M215.060000,113.370000L184.940000,113.370000C155.940000,113.370000,132.510000,139.130000,132.510000,170.920000L132.510000,193.920000C162.980000,181.570000,187.510000,155.570000,200,122.780000C212.460000,155.570000,237,181.570000,267.490000,193.920000L267.490000,170.920000C267.490000,139.130000,244,113.370000,215.060000,113.370000Z" fill="rgb(94,56,20)" stroke="none" stroke-width="1"/></g><path id="s61" d="M246.680000,170.600000C243.141792,165.090062,236.964439,161.849421,230.420000,162.070000" fill="none" stroke="rgb(135,80,28)" stroke-width="6" stroke-linecap="round" stroke-miterlimit="10"/><path id="s63" d="M153.320000,170.600000C156.858208,165.090062,163.035561,161.849421,169.580000,162.070000" fill="none" stroke="rgb(135,80,28)" stroke-width="6" stroke-linecap="round" stroke-miterlimit="10"/><g id="s65"><path id="s67" d="M184,223.820000L184,224.110000C184,231.400000,189.790000,237.930000,197.840000,238.890000C207.580000,240.050000,215.980000,233.190000,215.980000,224.650000L215.980000,223.820000C215.850943,221.559255,213.921574,219.826396,211.660000,219.940000L188.330000,219.940000C186.064619,219.820700,184.129008,221.555151,184,223.820000Z" fill="rgb(161,33,38)" stroke="none" stroke-width="1"/><path id="s69" d="M213.620000,232.140000C205.327323,226.954102,194.809328,226.926964,186.490000,232.070000C189.100028,235.893754,193.248770,238.388112,197.850000,238.900000C203.952094,239.734851,210.016971,237.135069,213.620000,232.140000Z" fill="rgb(199,53,59)" stroke="none" stroke-width="1"/><path id="s71" d="M209.830000,221.330000L209.830000,219.940000L190.170000,219.940000L190.170000,221.330000C190.180954,223.854913,192.225087,225.899046,194.750000,225.910000L205.250000,225.910000C207.774913,225.899046,209.819046,223.854913,209.830000,221.330000Z" fill="rgb(255,255,255)" stroke="none" stroke-width="1"/></g></g></g></svg>