<svg id="s1" xmlns="http://www.w3.org/2000/svg" xmlns:xlink="http://www.w3.org/1999/xlink" viewBox="0 0 400 400"><g id="s3"><g id="s5"><path id="s7" d="M240.500000,195.640000C229.840000,201.700000,220.090000,211.050000,230.290000,248.270000C240.490000,285.490000,252.500000,284.610000,265.290000,289.610000C278.080000,294.610000,288.700000,266.880000,292.710000,248.870000C296.720000,230.860000,284.110000,209.450000,273.100000,202.870000C262.090000,196.290000,249.300000,190.640000,240.500000,195.640000Z" fill="rgb(207,161,100)" stroke="none" stroke-width="1"/><path id="s9" d="M251.900000,262.470000C245.500000,267.670000,243.900000,278.600000,264.300000,289.610000C284.700000,300.620000,292.920000,308.610000,296.520000,312.420000C300.120000,316.230000,318.030000,310.920000,309.880000,298.860000C304.880000,291.490000,294.020000,292.380000,286.180000,276.180000C278.580000,259,263.310000,253.870000,251.900000,262.470000Z" fill="rgb(207,161,100)" stroke="none" stroke-width="1"/><path id="s11" d="M297.720000,300.420000C296.480000,303.780000,296.850000,312.510000,298.200000,325.600000C299.600000,339.160000,296.800000,340.520000,304,342.720000C311.200000,344.920000,314,338.520000,314.810000,325.910000C315.620000,313.300000,314.430000,301.720000,307.680000,296.460000C302.860000,292.720000,298.740000,297.650000,297.720000,300.420000Z" fill="rgb(207,161,100)" stroke="none" stroke-width="1"/><path id="s13" d="M299.800000,336.120000C295,341.920000,287.530000,352.590000,293.600000,356.330000C303,362.130000,314.600000,350.730000,312.010000,334.120000C311.060000,328,302.210000,331.910000,299.800000,336.120000Z" fill="rgb(207,161,100)" stroke="none" stroke-width="1"/><path id="s15" d="M298.450000,345.660000C295.890000,342.900000,286.550000,339.660000,281.190000,342.140000C275.830000,344.620000,272.480000,352.690000,277.340000,356.210000C282.200000,359.730000,301.560000,358.900000,303.400000,356.720000C305.240000,354.540000,300.630000,348,298.450000,345.660000Z" fill="rgb(207,161,100)" stroke="none" stroke-width="1"/></g><g id="s17"><path id="s19" d="M130.640000,221C128.460000,197.950000,97.640000,198.720000,95.210000,224.740000C93.750000,240.740000,102.280000,261.980000,103.720000,274.430000C105.160000,286.880000,129.110000,297.870000,129.920000,266C130.730000,234.130000,131.630000,231.450000,130.640000,221Z" fill="rgb(207,161,100)" stroke="none" stroke-width="1"/><path id="s21" d="M110.630000,265.070000C103.290000,267.970000,101.230000,271.270000,101.830000,295.890000C102.430000,320.510000,101.030000,325.890000,100.230000,330.310000C99.430000,334.730000,107.230000,341.120000,112.640000,331.710000C118.050000,322.300000,127.050000,289.490000,127.450000,278.080000C127.850000,266.670000,118.230000,262.070000,110.630000,265.070000Z" fill="rgb(207,161,100)" stroke="none" stroke-width="1"/><path id="s23" d="M103.420000,326.510000C98.420000,331.510000,93.810000,337.920000,89.610000,341.920000C85.410000,345.920000,89.060000,357.730000,98.860000,355.920000C108.660000,354.110000,112.520000,336.210000,111.920000,330.410000C111.320000,324.610000,105.620000,324.310000,103.420000,326.510000Z" fill="rgb(207,161,100)" stroke="none" stroke-width="1"/><path id="s25" d="M95.820000,344.720000C89.330000,340.370000,79.410000,336.720000,75.610000,342.920000C71.810000,349.120000,71.610000,355.330000,76.810000,356.920000C82.010000,358.510000,118.230000,359.720000,95.820000,344.720000Z" fill="rgb(207,161,100)" stroke="none" stroke-width="1"/></g><path id="s27" d="M68.500000,123.900000C61.600000,134.410000,54.690000,152.110000,69.400000,176.430000C84.110000,200.750000,88.910000,231.660000,104.220000,243.670000C119.530000,255.680000,141.940000,241.470000,159.650000,215.050000C177.360000,188.630000,163.350000,174.330000,150.750000,168.330000C138.150000,162.330000,124.750000,149,116,128.750000C109.310000,113.260000,90.120000,103.490000,68.500000,123.900000Z" fill="rgb(237,189,126)" stroke="none" stroke-width="1"/><path id="s29" d="M180.760000,179.130000C160.020000,172.930000,138.760000,162.620000,121.930000,169.520000C98.310000,179.220000,87.410000,202.240000,96.120000,229.850000C104.830000,257.460000,137.840000,267.370000,171.460000,264.370000C205.080000,261.370000,234.460000,239.160000,269.610000,254.760000C304.760000,270.360000,324.240000,225.940000,308.030000,206.760000C291.820000,187.580000,278.030000,187.250000,261.510000,187.550000C244.990000,187.850000,206.880000,186.930000,180.760000,179.130000Z" fill="rgb(237,189,126)" stroke="none" stroke-width="1"/><g id="s31"><path id="s33" d="M142.640000,219.350000C136.440000,197.040000,107.520000,203.140000,108.420000,229.260000C109.320000,255.380000,121.930000,264.680000,125.530000,276.680000C129.130000,288.680000,154.650000,295.290000,149.840000,263.770000C145.030000,232.250000,145.450000,229.450000,142.640000,219.350000Z" fill="rgb(237,189,126)" stroke="none" stroke-width="1"/><path id="s35" d="M132.640000,265.070000C125.300000,267.970000,123.240000,271.270000,123.840000,295.890000C124.440000,320.510000,123.040000,325.890000,122.240000,330.310000C121.440000,334.730000,129.240000,341.120000,134.650000,331.710000C140.060000,322.300000,149.060000,289.490000,149.460000,278.080000C149.860000,266.670000,140.240000,262.070000,132.640000,265.070000Z" fill="rgb(237,189,126)" stroke="none" stroke-width="1"/><path id="s37" d="M125.430000,326.510000C120.430000,331.510000,115.820000,337.920000,111.620000,341.920000C107.420000,345.920000,111.070000,357.730000,120.870000,355.920000C130.670000,354.110000,134.530000,336.210000,133.930000,330.410000C133.330000,324.610000,127.640000,324.310000,125.430000,326.510000Z" fill="rgb(237,189,126)" stroke="none" stroke-width="1"/><path id="s39" d="M117.830000,344.720000C111.340000,340.370000,101.420000,336.720000,97.620000,342.920000C93.820000,349.120000,93.620000,355.330000,98.820000,356.920000C104.020000,358.510000,140.240000,359.720000,117.830000,344.720000Z" fill="rgb(237,189,126)" stroke="none" stroke-width="1"/></g><g id="s41"><path id="s43" d="M271.310000,195.640000C260.650000,201.700000,250.900000,211.050000,261.100000,248.270000C271.300000,285.490000,283.310000,284.610000,296.100000,289.610000C308.890000,294.610000,319.510000,266.880000,323.520000,248.870000C327.530000,230.860000,314.920000,209.450000,303.910000,202.870000C292.900000,196.290000,280.120000,190.640000,271.310000,195.640000Z" fill="rgb(237,189,126)" stroke="none" stroke-width="1"/><path id="s45" d="M282.720000,262.470000C276.320000,267.670000,270.570000,281.030000,292.670000,288.060000C316.670000,295.690000,323.740000,308.620000,327.340000,312.420000C330.940000,316.220000,347.950000,311.620000,340.340000,299.210000C332.730000,286.800000,325.430000,289.050000,314.260000,270.690000C306.670000,253.480000,294.120000,253.870000,282.720000,262.470000Z" fill="rgb(237,189,126)" stroke="none" stroke-width="1"/><path id="s47" d="M328.540000,300.420000C327.110000,303.700000,327.590000,306.770000,328.180000,326.280000C328.590000,339.900000,327.620000,340.520000,334.830000,342.730000C342.040000,344.940000,344.830000,338.530000,345.640000,325.920000C346.450000,313.310000,343.720000,300.210000,336.970000,294.920000C332.140000,291.200000,329.390000,298.460000,328.540000,300.420000Z" fill="rgb(237,189,126)" stroke="none" stroke-width="1"/><path id="s49" d="M330.620000,336.120000C325.820000,341.920000,318.350000,352.590000,324.420000,356.330000C333.820000,362.130000,345.420000,350.730000,342.830000,334.120000C341.870000,328,333,331.910000,330.620000,336.120000Z" fill="rgb(237,189,126)" stroke="none" stroke-width="1"/><path id="s51" d="M329.270000,345.660000C326.710000,342.900000,317.370000,339.660000,312.010000,342.140000C306.650000,344.620000,303.300000,352.690000,308.160000,356.210000C313.020000,359.730000,332.380000,358.900000,334.220000,356.720000C336.060000,354.540000,331.450000,348,329.270000,345.660000Z" fill="rgb(237,189,126)" stroke="none" stroke-width="1"/></g><path id="s53" d="M289.120000,193.640000C302.120000,190.640000,336.340000,192.840000,354.120000,224.460000C371.900000,256.080000,371.120000,265.680000,374.930000,290.690000C378.740000,315.700000,381.300000,315.060000,367.730000,305.500000C343.320000,288.290000,318.300000,211.650000,301.730000,205.250000C292.520000,201.440000,285.520000,194.240000,289.120000,193.640000Z" fill="rgb(237,189,126)" stroke="none" stroke-width="1"/><g id="s55"><path id="s57" d="M98,109.290000C94.660000,86.680000,89.450000,81.640000,87.420000,82.700000C85.070000,83.920000,75.070000,103.620000,75,106.900000C74.870000,112.120000,98.510000,115.820000,98,109.290000Z" fill="rgb(207,161,100)" stroke="none" stroke-width="1"/><path id="s59" d="M107.190000,113.060000C108.830000,90.260000,104.840000,84.220000,102.630000,84.810000C100.070000,85.500000,86.040000,102.560000,85.260000,105.750000C84,110.810000,106.270000,119.550000,107.190000,113.060000Z" fill="rgb(237,189,126)" stroke="none" stroke-width="1"/><path id="s61" d="M106.310000,112.380000C101.940000,108.380000,89.310000,105.710000,82.650000,104.930000C76.200000,104.510000,61.650000,102.160000,55.560000,117.390000C48.990000,133.800000,45.710000,136.390000,35.860000,138.910000C26.010000,141.430000,19.450000,145.480000,27.860000,159.700000C36.270000,173.920000,63.600000,173.200000,83.660000,169.910000C103.720000,166.620000,113.930000,157.140000,116.490000,145.470000C119,134,115.170000,120.500000,106.310000,112.380000Z" fill="rgb(237,189,126)" stroke="none" stroke-width="1"/><path id="s63" d="M63.770000,126.860000C60.200000,124.720000,59,134,61,135.800000C64.190000,138.670000,66.500000,128.500000,63.770000,126.860000Z" fill="rgb(66,53,35)" stroke="none" stroke-width="1"/><path id="s65" d="M33.860000,147.830000C34.320000,145.130000,30.030000,143.140000,27.510000,142.290000C24.170000,144.670000,22.830000,148.290000,25.210000,154.400000C27.810000,151.740000,33.130000,152.130000,33.860000,147.830000Z" fill="rgb(66,53,35)" stroke="none" stroke-width="1"/></g></g></svg>