<svg id="s1" xmlns="http://www.w3.org/2000/svg" xmlns:xlink="http://www.w3.org/1999/xlink" viewBox="0 0 400 400"><defs><linearGradient id="s5-fill" x1="190.580000" y1="230.680000" x2="202.080000" y2="262.180000" spreadMethod="pad" gradientUnits="userSpaceOnUse"><stop id="s5-fill-0" offset="2%" stop-color="rgb(135,170,230)"/><stop id="s5-fill-1" offset="100%" stop-color="rgb(177,215,255)"/></linearGradient><linearGradient id="s7-fill" x1="142.990000" y1="165.240000" x2="162.490000" y2="298.740000" spreadMethod="pad" gradientUnits="userSpaceOnUse"><stop id="s7-fill-0" offset="2%" stop-color="rgb(135,170,230)"/><stop id="s7-fill-1" offset="100%" stop-color="rgb(177,215,255)"/></linearGradient><linearGradient id="s11-fill" x1="-11.080000" y1="-35.480000" x2="14.450000" y2="46.290000" spreadMethod="pad" gradientUnits="userSpaceOnUse"><stop id="s11-fill-0" offset="0%" stop-color="rgb(255,187,102)"/><stop id="s11-fill-1" offset="100%" stop-color="rgb(248,186,117)"/></linearGradient><linearGradient id="s13-fill" x1="266.160000" y1="345.040000" x2="156.400000" y2="58.450000" spreadMethod="pad" gradientUnits="userSpaceOnUse"><stop id="s13-fill-0" offset="2%" stop-color="rgb(135,170,230)"/><stop id="s13-fill-1" offset="100%" stop-color="rgb(177,215,255)"/></linearGradient><linearGradient id="s15-fill" x1="70.900000" y1="255.070000" x2="-48.030000" y2="-55.450000" spreadMethod="pad" gradientUnits="userSpaceOnUse"><stop id="s15-fill-0" offset="1%" stop-color="rgb(74,120,194)"/><stop id="s15-fill-1" offset="100%" stop-color="rgb(105,171,235)"/></linearGradient><linearGradient id="s17-fill" x1="181.810000" y1="260.630000" x2="121.810000" y2="103.970000" spreadMethod="pad" gradientUnits="userSpaceOnUse"><stop id="s17-fill-0" offset="1%" stop-color="rgb(74,120,194)"/><stop id="s17-fill-1" offset="100%" stop-color="rgb(105,171,235)"/></linearGradient></defs><g id="s3"><path id="s5" d="M190.900000,186L181.680000,186C171.378612,186.027447,163.032963,194.368628,163,204.670000L163,233.160000C163.027474,243.465278,171.374722,251.812526,181.680000,251.840000L190.900000,251.840000C201.205278,251.812526,209.552526,243.465278,209.580000,233.160000L209.580000,204.670000C209.547037,194.368628,201.201388,186.027447,190.900000,186ZM197.580000,233.180000C197.531540,236.849002,194.569002,239.811540,190.900000,239.860000L181.680000,239.860000C178.010998,239.811540,175.048460,236.849002,175,233.180000L175,204.680000C175.048460,201.010998,178.010998,198.048460,181.680000,198L190.900000,198C194.569002,198.048460,197.531540,201.010998,197.580000,204.680000Z" fill="url(#s5-fill)" stroke="none" stroke-width="1"/><path id="s7" d="M172.430000,318.760000L142.270000,318.760000C137.890000,318.760000,134.270000,315.760000,134.270000,312.190000L136.390000,200.310000C136.390000,196.690000,139.980000,193.740000,144.390000,193.740000L170.310000,193.740000C174.690000,193.740000,178.310000,196.740000,178.310000,200.310000L180.430000,312.190000C180.390000,315.800000,176.810000,318.760000,172.430000,318.760000Z" fill="url(#s7-fill)" stroke="none" stroke-width="1"/><g id="s9"><circle id="s11" r="28.880000" transform="translate(282.310000,181.860000)" fill="url(#s11-fill)" stroke="none" stroke-width="1"/><path id="s13" d="M275.510000,91.500000C258.075241,124.334187,223.975859,144.899139,186.800000,145L118.180000,145C112.690290,145,108.240000,149.450290,108.240000,154.940000L108.240000,208.840000C108.240000,214.329711,112.690290,218.780000,118.180000,218.780000L186.800000,218.780000C223.969394,218.874956,258.067197,239.427425,275.510000,272.250000Z" fill="url(#s13-fill)" stroke="none" stroke-width="1"/><rect id="s15" width="23.560000" height="201.440000" rx="10.480000" ry="10.480000" transform="translate(270.530000,81.140000)" fill="url(#s15-fill)" stroke="none" stroke-width="1"/><path id="s17" d="M191.870000,144.790000C190.180000,144.880000,188.500000,144.970000,186.800000,144.970000L118.180000,144.970000C112.690290,144.970000,108.240000,149.420290,108.240000,154.910000L108.240000,208.810000C108.240000,214.299711,112.690290,218.750000,118.180000,218.750000L186.800000,218.750000C188.510000,218.750000,190.190000,218.840000,191.870000,218.930000Z" fill="url(#s17-fill)" stroke="none" stroke-width="1"/></g></g></svg>