<svg id="s1" xmlns="http://www.w3.org/2000/svg" xmlns:xlink="http://www.w3.org/1999/xlink" viewBox="0 0 400 400"><g id="s3"><g id="s5"><g id="s7"><path id="s9" d="M219.370000,286.800000L219.370000,254L256.940000,254C266.328841,254,273.940000,261.611159,273.940000,271C273.940000,280.388841,266.328841,288,256.940000,288L219.370000,288L219.370000,286.800000" fill="rgb(120,158,33)" stroke="none" stroke-width="1"/><path id="s11" d="M181.090000,286.800000L181.090000,254L143.510000,254C134.121159,254,126.510000,261.611159,126.510000,271C126.510000,280.388841,134.121159,288,143.510000,288L181.080000,288L181.080000,286.800000" fill="rgb(120,158,33)" stroke="none" stroke-width="1"/></g><path id="s13" d="M303.210000,363L303.210000,337.800000C303.122126,307.598884,278.661116,283.137874,248.460000,283.050000L245,283.050000C234.183371,283.017056,225.422944,274.256629,225.390000,263.440000L225.390000,243.730000L175.060000,243.730000L175.060000,263.470000C175.027056,274.286629,166.266629,283.047056,155.450000,283.080000L152,283.080000C121.798884,283.167874,97.337874,307.628884,97.250000,337.830000L97.250000,363C97.250000,365.185384,98.118140,367.281260,99.663440,368.826560C101.208740,370.371860,103.304616,371.240000,105.490000,371.240000L295,371.240000C299.539106,371.223474,303.210030,367.539136,303.210000,363Z" fill="rgb(255,197,125)" stroke="none" stroke-width="1"/><path id="s15" d="M199.850000,282.580000L200.600000,282.580000C210.697136,282.591202,220.647003,280.158631,229.600000,275.490000C226.907421,272.068738,225.439229,267.843726,225.430000,263.490000L225.430000,243.730000L175.060000,243.730000L175.060000,263.470000C175.050771,267.823726,173.582579,272.048738,170.890000,275.470000C179.828971,280.140052,189.764635,282.579367,199.850000,282.580000Z" fill="rgb(247,175,85)" stroke="none" stroke-width="1"/><g id="s17"><path id="s19" d="M169.420000,375L230.580000,375L230.580000,297.910000C211.560636,308.469308,188.439364,308.469308,169.420000,297.910000Z" fill="rgb(92,58,181)" stroke="none" stroke-width="1"/><path id="s21" d="M169.420000,310.870000C188.439364,321.429308,211.560636,321.429308,230.580000,310.870000" fill="none" stroke="rgb(142,127,253)" stroke-width="8.241120" stroke-linecap="round" stroke-miterlimit="10"/><path id="s23" d="M105.490000,375.270000C102.239363,375.267351,99.123063,373.972813,96.827330,371.671453C94.531597,369.370093,93.244692,366.250634,93.250000,363L93.250000,337.800000C93.340639,311.350040,111.046240,288.201909,136.550000,281.190000C136.895476,281.096108,137.251994,281.049020,137.610000,281.050000L163.610000,281.050000C173.877927,281.061023,182.198977,289.382073,182.210000,299.650000L182.210000,370.900000C182.225577,371.129736,182.225577,371.360264,182.210000,371.590000C182.032966,373.665374,180.292897,375.257537,178.210000,375.250000Z" fill="rgb(159,201,67)" stroke="none" stroke-width="1"/><path id="s25" d="M222.330000,375.270000C220.247103,375.277537,218.507034,373.685374,218.330000,371.610000C218.314393,371.380265,218.314393,371.149735,218.330000,370.920000L218.330000,299.670000C218.341023,289.402073,226.662073,281.081023,236.930000,281.070000L262.930000,281.070000C263.288006,281.069020,263.644524,281.116108,263.990000,281.210000C289.493760,288.221909,307.199361,311.370040,307.290000,337.820000L307.290000,363C307.295339,366.259309,306.001576,369.386369,303.695018,371.689174C301.388459,373.991979,298.259296,375.280647,295,375.270000Z" fill="rgb(159,201,67)" stroke="none" stroke-width="1"/><line id="s27" x1="142.390000" y1="343.800000" x2="142.390000" y2="362.860000" fill="none" stroke="rgb(120,158,33)" stroke-width="8" stroke-linecap="round" stroke-miterlimit="10"/><line id="s29" x1="258.070000" y1="343.800000" x2="258.070000" y2="362.860000" fill="none" stroke="rgb(120,158,33)" stroke-width="8" stroke-linecap="round" stroke-miterlimit="10"/><path id="s31" d="M254.170000,266.240000C253.426366,271.102876,249.208886,274.671513,244.290000,274.600000L239.920000,274.600000C227.387925,274.605295,217.211485,284.728128,217.140000,297.260000L217.140000,374.700000C217.140000,377.461424,219.378576,379.700000,222.140000,379.700000L222.660000,379.700000C225.421424,379.700000,227.660000,377.461424,227.660000,374.700000L227.660000,298.590000C227.693005,292.770272,232.420179,288.069906,238.240000,288.070000L256.950000,288.070000C266.311572,288.070079,273.911452,280.501492,273.950000,271.140000L253.480000,261.240000C254.155201,262.814361,254.393561,264.541610,254.170000,266.240000Z" fill="rgb(120,158,33)" stroke="none" stroke-width="1"/><path id="s33" d="M174,279C170.096999,276.126443,165.376725,274.577548,160.530000,274.580000L156.160000,274.580000C151.241114,274.651513,147.023634,271.082876,146.280000,266.220000C146.053294,264.522509,146.288195,262.795293,146.960000,261.220000L126.490000,271.120000C126.528548,280.481492,134.128428,288.050079,143.490000,288.050000L162.200000,288.050000C168.019821,288.049906,172.746995,292.750272,172.780000,298.570000L172.780000,374.700000C172.780000,377.461424,175.018576,379.700000,177.780000,379.700000L178.300000,379.700000C181.061424,379.700000,183.300000,377.461424,183.300000,374.700000L183.300000,297.260000C183.291261,290.038064,179.836077,283.254015,174,279Z" fill="rgb(120,158,33)" stroke="none" stroke-width="1"/><path id="s35" d="M160.540000,274.660000L155.870000,274.660000C150.541767,274.643529,146.226471,270.328233,146.210000,265L146.210000,265C146.208592,263.711612,146.467080,262.436178,146.970000,261.250000" fill="none" stroke="rgb(159,201,67)" stroke-width="4" stroke-linecap="round" stroke-miterlimit="10"/><line id="s37" x1="157.050000" y1="285.850000" x2="157.050000" y2="332.550000" fill="none" stroke="rgb(255,255,255)" stroke-width="8" stroke-linecap="round" stroke-miterlimit="10"/><circle id="s39" r="7.690000" transform="translate(156.820000,339.750000)" fill="rgb(92,58,181)" stroke="none" stroke-width="1"/><line id="s41" x1="243.410000" y1="285.850000" x2="243.410000" y2="332.550000" fill="none" stroke="rgb(255,255,255)" stroke-width="8" stroke-linecap="round" stroke-miterlimit="10"/><circle id="s43" r="7.690000" transform="translate(243.410000,339.980000)" fill="rgb(92,58,181)" stroke="none" stroke-width="1"/><path id="s45" d="M239.920000,274.660000L244.590000,274.660000C249.918233,274.643529,254.233529,270.328233,254.250000,265L254.250000,265C254.251408,263.711612,253.992920,262.436178,253.490000,261.250000" fill="none" stroke="rgb(159,201,67)" stroke-width="4" stroke-linecap="round" stroke-miterlimit="10"/></g></g><g id="s47"><g id="s49"><path id="s51" d="M276.380000,178L276.380000,134.770000C276.308703,104.302102,251.647783,79.609909,221.180000,79.500000L178.820000,79.500000C148.352217,79.609909,123.691297,104.302102,123.620000,134.770000L123.620000,178" fill="none" stroke="rgb(159,201,67)" stroke-width="14" stroke-miterlimit="10"/><rect id="s53" width="55.220000" height="61.050000" rx="16.380000" ry="16.380000" transform="translate(101.280000,154.480000)" fill="rgb(120,158,33)" stroke="none" stroke-width="1"/><line id="s55" x1="118.150000" y1="173.260000" x2="118.150000" y2="196.810000" fill="none" stroke="rgb(159,201,67)" stroke-width="16" stroke-linecap="round" stroke-miterlimit="10"/><rect id="s57" width="55.220000" height="61.050000" rx="16.380000" ry="16.380000" transform="translate(542.220000,370.010000) rotate(180) translate(243.500000,154.480000)" fill="rgb(120,158,33)" stroke="none" stroke-width="1"/><line id="s59" x1="281.850000" y1="173.260000" x2="281.850000" y2="196.810000" fill="none" stroke="rgb(159,201,67)" stroke-width="16" stroke-linecap="round" stroke-miterlimit="10"/></g><path id="s61" d="M189,82.680000L211,82.680000C240.005995,82.680000,263.520000,106.194005,263.520000,135.200000L263.520000,191.270000C263.522654,206.053061,257.650597,220.231263,247.196456,230.683528C236.742315,241.135793,222.563061,247.005306,207.780000,247L192.220000,247C161.446694,247,136.500000,222.053306,136.500000,191.280000L136.500000,135.200000C136.499998,106.201814,160.001816,82.691043,189,82.680000Z" fill="rgb(255,197,125)" stroke="none" stroke-width="1"/><path id="s63" d="M206.780000,184.300000C205.360857,181.936976,202.825178,180.470971,200.069226,180.420161C197.313275,180.369351,194.725281,181.740893,193.220000,184.050000" fill="none" stroke="rgb(235,149,42)" stroke-width="4" stroke-linecap="round" stroke-miterlimit="10"/><path id="s65" d="M184,205.460000L184,205.750000C184,213.040000,189.790000,219.570000,197.840000,220.530000C207.580000,221.690000,215.980000,214.830000,215.980000,206.290000L215.980000,205.460000C215.850943,203.199255,213.921574,201.466396,211.660000,201.580000L188.330000,201.580000C186.064619,201.460700,184.129008,203.195151,184,205.460000Z" fill="rgb(255,255,255)" stroke="none" stroke-width="1"/><g id="s67"><ellipse id="s69" rx="6.880000" ry="7.430000" transform="translate(168.500000,165.610000)" fill="rgb(0,0,0)" stroke="none" stroke-width="1"/><ellipse id="s71" rx="6.880000" ry="7.430000" transform="translate(231.500000,165.610000)" fill="rgb(0,0,0)" stroke="none" stroke-width="1"/></g><g id="s73"><line id="s75" x1="219.840000" y1="140.850000" x2="243.170000" y2="140.850000" fill="none" stroke="rgb(179,90,20)" stroke-width="12" stroke-linecap="round" stroke-miterlimit="10"/><line id="s77" x1="157.830000" y1="140.850000" x2="181.160000" y2="140.850000" fill="none" stroke="rgb(179,90,20)" stroke-width="12" stroke-linecap="round" stroke-miterlimit="10"/></g><g id="s79"><path id="s81" d="M252.700000,95.690000L260.090000,88.300000C266.633084,81.719683,266.633084,71.090317,260.090000,64.510000L260.090000,64.510000C255.608188,60.054568,249.011114,58.479608,243,60.430000C243.616080,49.990260,237.709980,40.257929,228.165103,35.984402C218.620225,31.710874,207.426983,33.787319,200.050000,41.200000L192.810000,48.440000C185.576550,46.576377,177.896348,48.662686,172.600000,53.930000L146.170000,80.360000C140.026475,86.544890,138.292974,95.858990,141.800000,103.840000C135.725926,114.657658,132.556399,126.863784,132.600000,139.270000L132.600000,178.610000C132.610957,181.201186,134.708814,183.299043,137.300000,183.310000L137.300000,183.310000C139.891186,183.299043,141.989043,181.201186,142,178.610000L142,177.760000L142,177.760000L142,148.760000C142,148.760000,142,148.760000,142,148.760000L142,138.260000C142,133.460000,145.410000,129.530000,149.950000,129.530000L149.950000,114C154.950000,108.600000,161.950000,103.320000,169.750000,103.320000L230.130000,103.320000C237.930000,103.320000,244.890000,108.600000,249.930000,114L249.930000,129.530000C254.610003,129.682358,258.292268,133.578864,258.180000,138.260000L258.180000,149.190000C258.180000,149.320000,258.180000,149.450000,258.180000,149.590000L258.180000,178.730000C258.180000,181.259464,260.230536,183.310000,262.760000,183.310000C265.289464,183.310000,267.340000,181.259464,267.340000,178.730000L267.340000,139.270000C267.419961,123.523046,262.270736,108.194957,252.700000,95.690000Z" fill="rgb(179,90,20)" stroke="none" stroke-width="1"/><line id="s83" x1="184.590000" y1="76.410000" x2="215.320000" y2="45.680000" fill="none" stroke="rgb(214,113,35)" stroke-width="6" stroke-linecap="round" stroke-miterlimit="10"/><line id="s85" x1="202.190000" y1="93.970000" x2="211.860000" y2="84.290000" fill="none" stroke="rgb(214,113,35)" stroke-width="6" stroke-linecap="round" stroke-miterlimit="10"/></g><g id="s87"><path id="s89" d="M186.240000,237.640000L141,237.640000C132.163444,237.640000,125,230.476556,125,221.640000L125,215.500000" fill="none" stroke="rgb(142,127,253)" stroke-width="12" stroke-miterlimit="10"/><rect id="s91" width="21.730000" height="29.460000" rx="7.140000" ry="7.140000" transform="translate(424.940000,50.340000) rotate(90) translate(176.440000,222.910000)" fill="rgb(92,58,181)" stroke="none" stroke-width="1"/></g></g></g></svg>