<svg id="s1" xmlns="http://www.w3.org/2000/svg" xmlns:xlink="http://www.w3.org/1999/xlink" viewBox="0 0 400 400"><g id="s3"><g id="s5"><rect id="s7" width="85" height="23.040000" rx="10.390000" ry="10.390000" transform="translate(153.730000,257.580000)" fill="rgb(117,51,99)" stroke="none" stroke-width="1"/><path id="s9" d="M301.050000,372L301.050000,338C300.962117,307.257647,276.062353,282.357883,245.320000,282.270000L241.800000,282.270000C230.754305,282.270000,221.800000,273.315695,221.800000,262.270000L221.800000,242.220000L170.610000,242.220000L170.610000,262.310000C170.610000,273.355695,161.655695,282.310000,150.610000,282.310000L147.090000,282.310000C116.382723,282.425184,91.519669,307.292703,91.410000,338L91.410000,372Z" fill="rgb(247,194,153)" stroke="none" stroke-width="1"/><path id="s11" d="M165.750000,275.310000C175.046448,280.143308,185.372182,282.661278,195.850000,282.650000L196.620000,282.650000C207.097724,282.660489,217.423273,280.142565,226.720000,275.310000C223.587747,271.703084,221.862085,267.087117,221.860000,262.310000L221.860000,242.220000L170.610000,242.220000L170.610000,262.310000C170.607016,267.086955,168.881469,271.702617,165.750000,275.310000Z" fill="rgb(227,165,126)" stroke="none" stroke-width="1"/><g id="s13"><path id="s15" d="M245.330000,278.270000L241.810000,278.270000C236.707483,278.267636,231.914885,275.821143,228.920000,271.690000C224.760000,277.350000,214.440000,278.030000,206.830000,275.900000L196.230000,304.350000L185.630000,275.900000C178.630000,279.510000,167.700000,277.350000,163.540000,271.690000C160.545115,275.821143,155.752517,278.267636,150.650000,278.270000L147.130000,278.270000C114.145937,278.275522,87.410000,305.015937,87.410000,338L87.410000,368C87.410000,372.418278,90.991722,376,95.410000,376L297.050000,376C301.468278,376,305.050000,372.418278,305.050000,368L305.050000,338C305.050000,305.015937,278.314063,278.275522,245.330000,278.270000Z" fill="rgb(92,40,77)" stroke="none" stroke-width="1"/><polyline id="s17" points="214.610000,301.800000 205.760000,325.590000 205.760000,368.840000" fill="none" stroke="rgb(56,22,46)" stroke-width="4" stroke-linecap="round" stroke-miterlimit="10"/><line id="s19" x1="137.350000" y1="344.080000" x2="137.350000" y2="363.660000" fill="none" stroke="rgb(56,22,46)" stroke-width="8" stroke-linecap="round" stroke-miterlimit="10"/><line id="s21" x1="255.110000" y1="344.080000" x2="255.110000" y2="363.660000" fill="none" stroke="rgb(56,22,46)" stroke-width="8" stroke-linecap="round" stroke-miterlimit="10"/><path id="s23" d="M237.060000,262.220000C236.041079,260.357875,233.957459,259.342058,231.862890,259.686279C229.768321,260.030499,228.119385,261.659722,227.750000,263.750000C225.841742,270.889083,219.389644,275.866417,212,275.900000L206.840000,275.900000L219,295.060000C219.567234,295.950150,220.577301,296.457103,221.630000,296.380000C233.293988,295.503629,243.043532,287.166534,245.720000,275.780000Z" fill="rgb(117,51,99)" stroke="none" stroke-width="1"/><path id="s25" d="M155.400000,262.220000C156.418921,260.357875,158.502541,259.342058,160.597110,259.686279C162.691679,260.030499,164.340615,261.659722,164.710000,263.750000C166.619233,270.892656,173.076634,275.870918,180.470000,275.900000L185.630000,275.900000L173.500000,295.070000C172.932766,295.960150,171.922699,296.467103,170.870000,296.390000C159.206012,295.513629,149.456468,287.176534,146.780000,275.790000Z" fill="rgb(117,51,99)" stroke="none" stroke-width="1"/><path id="s27" d="M164.710000,263.750000C165.402732,266.329597,166.713924,268.701413,168.530000,270.660000" fill="none" stroke="rgb(92,40,77)" stroke-width="4" stroke-linecap="round" stroke-miterlimit="10"/><path id="s29" d="M227.750000,263.750000C227.057268,266.329597,225.746076,268.701413,223.930000,270.660000" fill="none" stroke="rgb(92,40,77)" stroke-width="4" stroke-linecap="round" stroke-miterlimit="10"/><polyline id="s31" points="196.250000,304.360000 188.360000,325.590000 188.360000,368.840000" fill="none" stroke="rgb(56,22,46)" stroke-width="4" stroke-linecap="round" stroke-miterlimit="10"/><line id="s33" x1="176.860000" y1="296.390000" x2="184.750000" y2="317.630000" fill="none" stroke="rgb(56,22,46)" stroke-width="4" stroke-linecap="round" stroke-miterlimit="10"/><circle id="s35" r="3.520000" transform="translate(210.280000,292.870000)" fill="rgb(117,51,99)" stroke="none" stroke-width="1"/><circle id="s37" r="3.520000" transform="translate(197.200000,326.590000)" fill="rgb(117,51,99)" stroke="none" stroke-width="1"/><circle id="s39" r="3.520000" transform="translate(197.200000,365.340000)" fill="rgb(117,51,99)" stroke="none" stroke-width="1"/></g></g><g id="s41"><circle id="s43" r="19.500000" transform="translate(258.480000,185.140000)" fill="rgb(247,194,153)" stroke="none" stroke-width="1"/><circle id="s45" r="19.500000" transform="translate(133.980000,185.140000)" fill="rgb(247,194,153)" stroke="none" stroke-width="1"/><path id="s47" d="M183.260000,89.840000L207.200000,89.840000C236.205995,89.840000,259.720000,113.354005,259.720000,142.360000L259.720000,198.640000C259.722652,213.419595,253.853340,227.594765,243.403526,238.046454C232.953711,248.498144,218.779596,254.370000,204,254.370000L188.450000,254.370000C157.676694,254.370000,132.730000,229.423306,132.730000,198.650000L132.730000,140.370000C132.730000,126.971263,138.052628,114.121303,147.526965,104.646965C157.001303,95.172628,169.851263,89.850000,183.250000,89.850000Z" fill="rgb(247,194,153)" stroke="none" stroke-width="1"/><path id="s49" d="M185.670000,210.710000C187.857309,214.424044,191.816374,216.735788,196.125912,216.815330C200.435450,216.894872,204.477126,214.730798,206.800000,211.100000" fill="none" stroke="rgb(207,148,109)" stroke-width="4" stroke-linecap="round" stroke-miterlimit="10"/><g id="s51"><ellipse id="s53" rx="6.880000" ry="7.430000" transform="translate(164.730000,172.990000)" fill="rgb(93,97,110)" stroke="none" stroke-width="1"/><ellipse id="s55" rx="6.880000" ry="7.430000" transform="translate(227.740000,172.990000)" fill="rgb(93,97,110)" stroke="none" stroke-width="1"/></g><line id="s57" x1="216.070000" y1="148.230000" x2="239.400000" y2="148.230000" fill="none" stroke="rgb(86,76,74)" stroke-width="12" stroke-linecap="round" stroke-miterlimit="10"/><line id="s59" x1="153.060000" y1="148.230000" x2="176.390000" y2="148.230000" fill="none" stroke="rgb(86,76,74)" stroke-width="12" stroke-linecap="round" stroke-miterlimit="10"/><path id="s61" d="M179,210.340000C179.995996,210.354922,180.930888,209.861088,181.480000,209.030000C182.974899,206.652337,185.581475,205.203821,188.390000,205.190000L204,205.190000C206.808525,205.203821,209.415101,206.652337,210.910000,209.030000C211.459112,209.861088,212.394004,210.354922,213.390000,210.340000L219.860000,210.340000C220.835946,210.343767,221.752729,209.872564,222.317730,209.076788C222.882731,208.281012,223.025325,207.260135,222.700000,206.340000C220.078214,198.617428,212.855255,193.400846,204.700000,193.340000L187.690000,193.340000C179.534745,193.400846,172.311786,198.617428,169.690000,206.340000C169.364675,207.260135,169.507269,208.281012,170.072270,209.076788C170.637271,209.872564,171.554054,210.343767,172.530000,210.340000Z" fill="rgb(86,76,74)" stroke="none" stroke-width="1"/><path id="s63" d="M202.890000,188C201.510695,185.659844,199.015792,184.203113,196.299874,184.152139C193.583955,184.101164,191.036147,185.463249,189.570000,187.750000" fill="none" stroke="rgb(207,148,109)" stroke-width="4" stroke-linecap="round" stroke-miterlimit="10"/><path id="s65" d="M138.270000,179.610000L138.270000,145.610000C138.270000,140.810000,141.680000,136.880000,146.220000,136.880000L146.220000,118.750000C146.220000,104.640000,157.770000,95.090000,171.880000,95.090000L220.740000,95.090000C234.850000,95.090000,246.400000,104.640000,246.400000,118.750000L246.400000,136.920000C250.840000,137.040000,254.130000,140.920000,254.130000,145.640000L254.130000,179.640000L261.700000,179.640000L261.700000,134.420000C261.700000,109.420000,245.500000,89.420000,223.110000,82.140000L222.330000,78.800000C221.215761,74.078598,216.497812,71.143283,211.770000,72.230000L178.860000,79.900000C151.690000,84,130.740000,106,130.740000,134.420000L130.740000,179.610000Z" fill="rgb(105,94,87)" fill-rule="evenodd" stroke="none" stroke-width="1"/><path id="s67" d="M254.160000,156.890000L254.160000,189.740000C254.113877,206.676331,241.143751,220.774672,224.270000,222.230000L224.270000,222.230000L212.270000,222.230000L212.270000,228.040000C212.270000,230.610000,209.270000,232.250000,207.390000,232.250000L205.890000,232.250000C202.688726,232.125231,200.181030,229.452731,200.260000,226.250000L200.260000,224.630000C200.260000,222.810000,201.040000,221.940000,202.260000,220.830000L190.470000,220.830000C191.670000,221.940000,192.470000,222.830000,192.470000,224.630000L192.470000,226.250000C192.548970,229.452731,190.041274,232.125231,186.840000,232.250000L185.340000,232.250000C183.080000,232.250000,180.210000,229.860000,180.210000,228.040000L180.210000,222.230000L168.360000,222.230000L168.360000,222.230000C151.407998,220.857846,138.333713,206.727360,138.280000,189.720000L138.280000,156.890000C136.050000,159.520000,132.200000,162.410000,130.730000,165.470000L130.730000,198.640000C130.730000,229.290000,157.800000,254.360000,188.450000,254.360000L204,254.360000C234.650000,254.360000,261.720000,229.290000,261.720000,198.640000L261.720000,165.480000C260.260000,162.410000,256.390000,159.520000,254.160000,156.890000Z" fill="rgb(86,76,74)" stroke="none" stroke-width="1"/></g></g></svg>