<svg id="s1" xmlns="http://www.w3.org/2000/svg" xmlns:xlink="http://www.w3.org/1999/xlink" viewBox="0 0 400 400"><g id="s3"><g id="s5"><path id="s7" d="M130,270.330000C128,233.660000,112,233.930000,104.330000,232.660000C96.330000,231.330000,85,238.660000,87,250.660000C89.260000,264.240000,93.510000,273.910000,92.060000,288.060000C91.440000,292.060000,96.650000,291.690000,103.330000,292.330000C112,293.160000,120.660000,294.120000,124.160000,292.620000C125.977131,291.997874,127.570311,290.853428,128.740000,289.330000C129.856485,283.062158,130.279034,276.690387,130,270.330000Z" fill="rgb(87,109,140)" stroke="none" stroke-width="1"/><path id="s9" d="M128.840000,288.790000C130.780000,276.330000,108.660000,274.500000,102.340000,276C96.020000,277.500000,94,277.420000,92.190000,286.750000C89.520000,303.080000,82.340000,340.670000,81,346.330000C80.910000,346.700000,80.810000,347.220000,80.690000,347.750000C79.230000,355.690000,79.130000,357.450000,87.340000,358.670000C91.705152,359.351753,96.171170,358.942941,100.340000,357.480000C105.490000,350.660000,123.840000,319.350000,128.840000,288.790000Z" fill="rgb(87,109,140)" stroke="none" stroke-width="1"/><path id="s11" d="M95.060000,346.130000C88.150000,343.050000,82.530000,343.380000,80.940000,346.510000C79.500000,352,72,352.060000,72.330000,357.670000C72.660000,363.280000,95.620000,363.550000,99.390000,358.550000C99.660000,358.190000,100.220000,357.650000,100.390000,357.470000C103.830000,352.500000,102.060000,349.250000,95.060000,346.130000Z" fill="rgb(87,109,140)" stroke="none" stroke-width="1"/></g><path id="s13" d="M324,224.170000C321,194.340000,340,183.670000,343.670000,158.340000C347.340000,133.010000,334.670000,105.670000,338.670000,93.010000C342.670000,80.350000,355,73.330000,344,65.330000C333,57.330000,318.330000,67.660000,312.330000,88.660000C306.330000,109.660000,314.660000,123.330000,321.330000,136.990000C328,150.650000,322,166,311,177.330000C300,188.660000,280.330000,186.660000,265.330000,185.330000C249.330000,184.660000,256,209,279.660000,224C303.320000,239,325,251.830000,324,224.170000Z" fill="rgb(106,128,158)" stroke="none" stroke-width="1"/><g id="s15"><path id="s17" d="M109.670000,147C106.130000,138.630000,101.820000,138.280000,98.090000,142.640000C92.760000,148.880000,91.360000,156.220000,82.730000,153.850000C76.130000,152,61.940000,153,58.130000,165C54.390000,176.770000,49.900000,175.900000,46.340000,177.700000C42.780000,179.500000,38.780000,180.960000,44.940000,192.250000C48.730000,199.200000,51.380000,205.250000,58.880000,207.370000C66.650000,209.530000,69.500000,217.780000,72.880000,228.970000C77.810000,238.600000,90.510000,244.400000,114.650000,227.330000C141.070000,208.650000,140.860000,194.500000,130.890000,191.100000C108.570000,184,113.590000,156.270000,109.670000,147Z" fill="rgb(106,128,158)" stroke="none" stroke-width="1"/><path id="s19" d="M63.840000,174.250000C63.900000,169.750000,60.030000,170.370000,60.030000,173.940000C60.030000,177.510000,63.790000,177.840000,63.840000,174.250000Z" fill="rgb(0,0,0)" stroke="none" stroke-width="1"/><path id="s21" d="M42.240000,186.160000L42.430000,186.260000C47.930000,186.510000,48.680000,178.510000,46.330000,177.710000C43.550000,179.110000,40.500000,180.310000,42.240000,186.160000Z" fill="rgb(0,0,0)" stroke="none" stroke-width="1"/></g><g id="s23"><path id="s25" d="M170.810000,291.750000C170.600000,290.510000,170.370000,288.900000,170.120000,287.030000C168.840000,279.500000,167.410000,272.400000,165.990000,266.340000C158.090000,232.490000,149.320000,229.670000,129.990000,235.340000C110.660000,241.010000,119.320000,261.670000,132.660000,286.340000C135.353754,291.348104,137.780483,296.495307,139.930000,301.760000C142.570000,307.090000,147.290000,307.860000,158,306.260000C170.360000,304.400000,172.560000,302.250000,170.810000,291.750000Z" fill="rgb(106,128,158)" stroke="none" stroke-width="1"/><path id="s27" d="M160.750000,342.880000C155,342.510000,150.880000,342.880000,149.750000,345.630000L149.590000,345.700000C149.465296,346.266749,149.266945,346.814737,149,347.330000C145.330000,354,142.330000,351.660000,141.670000,356.660000C141.010000,361.660000,154.670000,366.330000,168.670000,358.330000C170.255567,357.271491,171.455485,355.727736,172.090000,353.930000C172.622399,352.485097,173.053443,351.004844,173.380000,349.500000C174.500000,344.130000,166.500000,343.250000,160.750000,342.880000Z" fill="rgb(106,128,158)" stroke="none" stroke-width="1"/><path id="s29" d="M169.880000,357.390000C177.070000,350.290000,175.330000,320.770000,171.260000,294.060000C170.980000,292.310000,170.770000,291.060000,170.620000,290.620000C168.290000,283.830000,155.250000,285.870000,147.870000,287.120000C140.870000,288.310000,137.410000,296.200000,138.870000,299.200000C147.710000,319.810000,151.810000,340.560000,149.250000,346.800000C149.020000,356.190000,153.990000,358.120000,158.140000,358.120000C161.470000,358.130000,167.630000,358.750000,169.880000,357.390000Z" fill="rgb(106,128,158)" stroke="none" stroke-width="1"/></g><g id="s31"><path id="s33" d="M277.420000,339.830000C275.810000,339.780000,267.180000,340.460000,263.670000,343C257.670000,347.330000,257.340000,358.670000,274,358C283.410000,357.620000,287.400000,355.340000,290.350000,351.500000C290.684974,351.057981,290.857958,350.514316,290.840000,349.960000C290.830000,340.930000,282.580000,340,277.420000,339.830000Z" fill="rgb(87,109,140)" stroke="none" stroke-width="1"/><path id="s35" d="M247.330000,248.330000C243.330000,264.660000,243.330000,283,263.330000,299.330000C283.330000,315.660000,283.330000,318.330000,289.660000,321C295.990000,323.670000,313.330000,317.670000,308.990000,310C304.650000,302.330000,295.630000,296.140000,299.320000,268.670000C302.320000,246.340000,290.990000,236,276.650000,233C262.310000,230,250.370000,235.920000,247.330000,248.330000Z" fill="rgb(87,109,140)" stroke="none" stroke-width="1"/><path id="s37" d="M310,312C308.130000,306.380000,306.230000,305.650000,294.330000,307.250000C289.080000,307.960000,287.250000,311.670000,286.080000,315C282.880000,324.150000,284.330000,322.330000,279,333C277.835625,335.272749,276.519305,337.464388,275.060000,339.560000C272.110000,344.430000,270.550000,347.130000,273.910000,350.500000C277.270000,353.870000,283.510000,357.050000,288.340000,353.670000C291.830000,350.560000,293.460000,345.890000,297.340000,340C304.330000,329.330000,312.430000,319.300000,310,312Z" fill="rgb(87,109,140)" stroke="none" stroke-width="1"/></g><g id="s39"><path id="s41" d="M261.330000,228C247.200000,242.540000,248,262,266.330000,279.670000C284.660000,297.340000,288,283.670000,318.660000,302C349.320000,320.330000,360.660000,304.330000,359.990000,295C359.320000,285.670000,351.660000,286,344.990000,278.330000C338.320000,270.660000,333.330000,250.670000,325.330000,236C317.330000,221.330000,284.330000,204.330000,261.330000,228Z" fill="rgb(106,128,158)" stroke="none" stroke-width="1"/><path id="s43" d="M368.080000,342.760000C366.890000,331.650000,361.940000,312.400000,360.670000,300.330000C359.340000,287.660000,354.790000,286.160000,348.340000,285.660000C344.010000,285.330000,331.340000,292.990000,340.670000,315.990000C343.249609,321.999319,345.342989,328.205893,346.930000,334.550000C348.517011,340.894107,347.590000,337.780000,347.670000,338.450000C348.850000,346.060000,348.900000,353.750000,354.550000,355.200000C360.340000,356.700000,369.460000,355.680000,368.080000,342.760000Z" fill="rgb(106,128,158)" stroke="none" stroke-width="1"/><path id="s45" d="M368.580000,346.610000C368.150000,340.720000,361.370000,342.060000,357.870000,342.610000C353.795524,343.114904,349.943629,344.749881,346.750000,347.330000C346,347.860000,344.360000,349.100000,344,349.380000C339,353.380000,339,360.380000,352,360.050000C364,359.690000,369.200000,355.660000,368.580000,346.610000Z" fill="rgb(106,128,158)" stroke="none" stroke-width="1"/></g><path id="s47" d="M262.670000,183.670000C196.670000,174,183.100000,195.860000,139.340000,192.670000C129.280000,191.940000,123.050000,188.170000,119.090000,183.030000C110.700000,178.030000,95.990000,185.800000,81.500000,197.250000C66,209.500000,74.700000,234.780000,74.700000,234.780000C75.630000,237.690000,76.700000,240.860000,78,244.340000C86,265.670000,101.670000,288,147.330000,285C192.990000,282,220.330000,281.670000,247.330000,283.670000C274.330000,285.670000,324.660000,289.340000,325.660000,246C326.660000,202.660000,310.200000,190.630000,262.670000,183.670000Z" fill="rgb(106,128,158)" stroke="none" stroke-width="1"/></g></svg>