<svg id="s1" xmlns="http://www.w3.org/2000/svg" xmlns:xlink="http://www.w3.org/1999/xlink" viewBox="0 0 400 400"><g id="s3"><g id="s5"><path id="s7" d="M305.820000,371.890000L305.820000,337.890000C305.732117,307.147647,280.832353,282.247883,250.090000,282.160000L246.570000,282.160000C235.524305,282.160000,226.570000,273.205695,226.570000,262.160000L226.570000,242.070000L175.380000,242.070000L175.380000,262.160000C175.380000,273.205695,166.425695,282.160000,155.380000,282.160000L151.860000,282.160000C121.117647,282.247883,96.217883,307.147647,96.130000,337.890000L96.130000,371.890000Z" fill="rgb(247,194,153)" stroke="none" stroke-width="1"/><path id="s9" d="M170.520000,275.160000C179.816448,279.993308,190.142182,282.511278,200.620000,282.500000L201.390000,282.500000C211.867724,282.510489,222.193273,279.992565,231.490000,275.160000C228.357747,271.553084,226.632085,266.937117,226.630000,262.160000L226.630000,242.070000L175.380000,242.070000L175.380000,262.160000C175.377016,266.936955,173.651469,271.552617,170.520000,275.160000Z" fill="rgb(227,165,126)" stroke="none" stroke-width="1"/><g id="s11"><path id="s13" d="M142.120000,360.930000L142.120000,369.600000C142.120000,371.268212,142.782695,372.868098,143.962298,374.047702C145.141902,375.227305,146.741788,375.890000,148.410000,375.890000L253.590000,375.890000C255.258212,375.890000,256.858098,375.227305,258.037702,374.047702C259.217305,372.868098,259.880000,371.268212,259.880000,369.600000L259.880000,360.930000L302.820000,360.930000C306.685993,360.930000,309.820000,357.795993,309.820000,353.930000L309.820000,339.690000C309.820000,306.690000,283.080000,278.120000,250.090000,278.120000C250.090000,278.120000,245.580000,278.120000,245.090000,278.050000C243.986272,277.958144,242.895543,278.339899,242.090000,279.100000C231.302275,289.322660,217.001951,295.014154,202.140000,295L200.730000,295C185.836961,295,171.514615,289.271062,160.730000,279C159.839873,278.188246,158.631299,277.820899,157.440000,278C156.790000,278.090000,151.940000,278.130000,151.940000,278.130000C118.940000,278.130000,92.210000,306.710000,92.210000,339.700000L92.210000,353.940000C92.210000,357.805993,95.344007,360.940000,99.210000,360.940000Z" fill="rgb(40,62,92)" stroke="none" stroke-width="1"/><path id="s15" d="M156.560000,286C168.671860,296.944587,184.415750,303.002671,200.740000,303L202.150000,303C218.447377,303.007588,234.169492,296.975968,246.280000,286.070000" fill="none" stroke="rgb(22,40,66)" stroke-width="4" stroke-linecap="round" stroke-miterlimit="10"/><line id="s17" x1="142.120000" y1="343.930000" x2="142.120000" y2="363.510000" fill="none" stroke="rgb(22,40,66)" stroke-width="8" stroke-linecap="round" stroke-miterlimit="10"/><line id="s19" x1="259.880000" y1="343.930000" x2="259.880000" y2="363.510000" fill="none" stroke="rgb(22,40,66)" stroke-width="8" stroke-linecap="round" stroke-miterlimit="10"/><path id="s21" d="M236.490000,352.490000L227.570000,357.540000C226.364795,358.228752,224.885205,358.228752,223.680000,357.540000L214.760000,352.490000C213.350185,351.654703,212.495514,350.128505,212.520000,348.490000L212.520000,334.310000C212.435577,331.909029,214.309315,329.892190,216.710000,329.800000L234.560000,329.800000C236.960685,329.892190,238.834423,331.909029,238.750000,334.310000L238.750000,348.490000C238.770345,350.132616,237.907504,351.659769,236.490000,352.490000Z" fill="rgb(25,43,69)" stroke="none" stroke-width="1"/><line id="s23" x1="98.320000" y1="352.360000" x2="127.920000" y2="352.360000" fill="none" stroke="rgb(22,40,66)" stroke-width="4" stroke-linecap="round" stroke-miterlimit="10"/><line id="s25" x1="303.680000" y1="352.360000" x2="274.080000" y2="352.360000" fill="none" stroke="rgb(22,40,66)" stroke-width="4" stroke-linecap="round" stroke-miterlimit="10"/></g></g><g id="s27"><circle id="s29" r="19.500000" transform="translate(263.250000,184.830000)" fill="rgb(247,194,153)" stroke="none" stroke-width="1"/><circle id="s31" r="19.500000" transform="translate(138.750000,184.830000)" fill="rgb(247,194,153)" stroke="none" stroke-width="1"/><path id="s33" d="M188,89.530000L212,89.530000C241.005995,89.530000,264.520000,113.044005,264.520000,142.050000L264.520000,198.330000C264.520000,229.103306,239.573306,254.050000,208.800000,254.050000L193.220000,254.050000C162.446694,254.050000,137.500000,229.103306,137.500000,198.330000L137.500000,140.050000C137.499998,112.156383,160.106385,89.541043,188,89.530000Z" fill="rgb(247,194,153)" stroke="none" stroke-width="1"/><path id="s35" d="M190.440000,210.400000C192.627309,214.114044,196.586374,216.425788,200.895912,216.505330C205.205450,216.584872,209.247126,214.420798,211.570000,210.790000" fill="none" stroke="rgb(207,148,109)" stroke-width="4" stroke-linecap="round" stroke-miterlimit="10"/><g id="s37"><ellipse id="s39" rx="6.880000" ry="7.430000" transform="translate(169.500000,172.670000)" fill="rgb(0,0,0)" stroke="none" stroke-width="1"/><ellipse id="s41" rx="6.880000" ry="7.430000" transform="translate(232.500000,172.670000)" fill="rgb(0,0,0)" stroke="none" stroke-width="1"/></g><g id="s43"><line id="s45" x1="220.840000" y1="147.910000" x2="244.170000" y2="147.910000" fill="none" stroke="rgb(184,150,97)" stroke-width="12" stroke-linecap="round" stroke-miterlimit="10"/><line id="s47" x1="157.830000" y1="147.910000" x2="181.160000" y2="147.910000" fill="none" stroke="rgb(184,150,97)" stroke-width="12" stroke-linecap="round" stroke-miterlimit="10"/></g><path id="s49" d="M207.660000,187.650000C206.280695,185.309844,203.785792,183.853113,201.069874,183.802139C198.353955,183.751164,195.806147,185.113249,194.340000,187.400000" fill="none" stroke="rgb(207,148,109)" stroke-width="4" stroke-linecap="round" stroke-miterlimit="10"/><path id="s51" d="M143,179.770000L143,145.320000C143,140.520000,146.410000,136.590000,150.950000,136.590000L150.950000,118.440000C150.950000,105.440000,160.740000,96.330000,173.310000,94.960000C179.710000,99.190000,189.700000,101.960000,200.930000,101.960000C212.160000,101.960000,222.180000,99.230000,228.580000,94.960000C241.240000,96.250000,251.120000,105.400000,251.120000,118.450000L251.120000,136.620000C255.560000,136.740000,258.850000,140.620000,258.850000,145.340000L258.850000,179.790000L266.420000,179.790000L266.420000,134.110000C266.513460,115.878527,257.401050,98.830836,242.190000,88.780000C244.524006,84.692914,243.999159,79.573748,240.884365,76.045305C237.769570,72.516862,232.755053,71.361030,228.410000,73.170000C227.169796,68.940010,224.107434,65.483673,220.057598,63.743056C216.007761,62.002438,211.392589,62.158975,207.470000,64.170000L169,83.760000C149.300000,92.250000,135.540000,111.110000,135.540000,134.110000L135.540000,179.780000Z" fill="rgb(184,150,99)" fill-rule="evenodd" stroke="none" stroke-width="1"/><path id="s53" d="M259,166.270000L259,190.130000C258.919391,216.814583,237.673539,238.618139,211,239.390000C209.160215,239.224907,207.748087,237.687160,207.740000,235.840000C207.740000,232.450000,211.350000,232.050000,211.350000,229.090000C211.344510,227.341536,209.928464,225.925490,208.180000,225.920000L193.600000,225.920000C191.851536,225.925490,190.435490,227.341536,190.430000,229.090000C190.430000,232.090000,194.040000,232.450000,194.040000,235.840000C194.033929,237.673239,192.643957,239.205661,190.820000,239.390000C164.217117,238.523162,143.077422,216.746889,143,190.130000L143,166.250000C140.770000,168.880000,137.490000,172.690000,135.510000,174.770000L135.510000,198.340000C135.510000,228.990000,162.580000,254.060000,193.230000,254.060000L208.780000,254.060000C239.430000,254.060000,266.500000,228.990000,266.500000,198.340000L266.500000,174.770000C264.420000,171.820000,261.230000,168.880000,259,166.270000Z" fill="rgb(204,167,115)" fill-rule="evenodd" stroke="none" stroke-width="1"/><path id="s55" d="M182.250000,211.680000C183.069410,211.662632,183.843209,211.299346,184.380000,210.680000C188.017695,206.571992,193.213626,204.180848,198.700000,204.090000L203.300000,204.090000C208.786374,204.180848,213.982305,206.571992,217.620000,210.680000C218.156791,211.299346,218.930590,211.662632,219.750000,211.680000L226.090000,211.680000C227.790000,211.680000,228.760000,209.320000,227.720000,207.680000C222.090000,198.790000,213.220000,193.030000,203.290000,193.030000L198.690000,193.030000C188.760000,193.030000,179.890000,198.790000,174.260000,207.680000C173.260000,209.310000,174.190000,211.680000,175.890000,211.680000Z" fill="rgb(204,167,115)" fill-rule="evenodd" stroke="none" stroke-width="1"/></g></g></svg>