<svg id="e42zhZKCiHb1" xmlns="http://www.w3.org/2000/svg" xmlns:xlink="http://www.w3.org/1999/xlink" viewBox="0 0 400 400" shape-rendering="geometricPrecision" text-rendering="geometricPrecision"><defs><linearGradient id="e42zhZKCiHb5-fill" x1="199.872073" y1="356.863731" x2="199.872073" y2="56.526267" spreadMethod="pad" gradientUnits="userSpaceOnUse"><stop id="e42zhZKCiHb5-fill-0" offset="0%" stop-color="rgb(232,199,67)"/><stop id="e42zhZKCiHb5-fill-1" offset="100%" stop-color="rgb(176,150,48)"/></linearGradient></defs><g id="e42zhZKCiHb2"><circle id="e42zhZKCiHb3" r="175" transform="matrix(1 0 0 1 199.90000000000001 199.90000000000001)" clip-rule="evenodd" fill="rgb(195,166,52)" fill-rule="evenodd" stroke="none" stroke-width="1"/><circle id="e42zhZKCiHb4" r="157" transform="matrix(1 0 0 1 199.90000000000001 199.90000000000001)" clip-rule="evenodd" fill="rgb(176,150,48)" fill-rule="evenodd" stroke="none" stroke-width="1"/><path id="e42zhZKCiHb5" d="M43,206.700000C46.600000,290.300000,115.500000,356.900000,199.900000,356.900000C284.400000,356.900000,353.200000,290.300000,356.800000,206.700000C353.200000,123.200000,284.300000,56.500000,199.900000,56.500000C115.400000,56.600000,46.600000,123.200000,43,206.700000L43,206.700000Z" clip-rule="evenodd" fill="url(#e42zhZKCiHb5-fill)" fill-rule="evenodd" stroke="none" stroke-width="1"/><circle id="e42zhZKCiHb6" r="115.800000" transform="matrix(1 0 0 1 199.90000000000001 199.90000000000001)" clip-rule="evenodd" fill="rgb(195,166,52)" fill-rule="evenodd" stroke="none" stroke-width="1"/><path id="e42zhZKCiHb7" d="M84.200000,203.600000C84.100000,204.800000,84.100000,206,84.100000,207.300000C84.100000,271.300000,135.900000,323.100000,199.900000,323.100000C263.900000,323.100000,315.700000,271.300000,315.700000,207.300000C315.700000,206,315.700000,204.800000,315.600000,203.600000C313.700000,265.800000,262.600000,315.700000,199.900000,315.700000C137.200000,315.700000,86.100000,265.800000,84.200000,203.600000L84.200000,203.600000Z" clip-rule="evenodd" fill="rgb(176,150,48)" fill-rule="evenodd" stroke="none" stroke-width="1"/></g><path id="e42zhZKCiHb8" d="M205.500000,114.800000C245.700000,114.800000,271.500000,136.900000,282.800000,165.200000C287.200000,176.200000,289.400000,188,289.400000,199.800000C289.400000,211.600000,287.200000,223.500000,282.800000,234.400000C271.500000,262.700000,245.700000,284.800000,205.500000,284.800000L137.300000,284.800000L137.300000,244.800000L153.100000,244.800000L153.100000,154.600000L137.300000,154.600000L137.300000,114.600000L205.500000,114.800000L205.500000,114.800000ZM275.900000,168C265.700000,142.300000,242.200000,122.300000,205.500000,122.300000L144.800000,122.300000L144.800000,147.400000L160.600000,147.400000L160.600000,252.400000L144.800000,252.400000L144.800000,277.500000L205.500000,277.500000C242.200000,277.500000,265.700000,257.400000,275.900000,231.800000C279.900000,221.800000,281.900000,210.800000,281.900000,199.900000C281.900000,188.900000,279.900000,178,275.900000,168ZM193,245L202.400000,245C223.700000,245,237.300000,233.400000,243.300000,218.500000C245.600000,212.700000,246.800000,206.300000,246.800000,199.900000C246.800000,193.500000,245.600000,187.100000,243.300000,181.300000C237.400000,166.400000,223.700000,154.800000,202.400000,154.800000L193,154.800000L193,245ZM202.400000,252.400000L185.600000,252.400000L185.600000,147.400000L202.400000,147.400000C227.200000,147.400000,243.200000,161.100000,250.200000,178.600000C252.900000,185.400000,254.200000,192.700000,254.200000,199.900000C254.200000,207.200000,252.800000,214.500000,250.200000,221.200000C243.200000,238.700000,227.300000,252.400000,202.400000,252.400000L202.400000,252.400000Z" fill="rgb(255,255,255)" stroke="none" stroke-width="1"/></svg>