<svg id="s1" xmlns="http://www.w3.org/2000/svg" xmlns:xlink="http://www.w3.org/1999/xlink" viewBox="0 0 400 400"><g id="s3"><g id="s5"><rect id="s7" width="170.220000" height="266.490000" rx="85.110000" ry="85.110000" transform="translate(123.260000,76.500000)" fill="rgb(214,113,35)" stroke="none" stroke-width="1"/><path id="s9" d="M161.270000,97.130000C134.313394,97.206925,112.481408,119.043379,112.410000,146L112.410000,257.880000C112.409059,273.564438,116.794183,288.936620,125.070000,302.260000C132.350000,317.160000,159.070000,341.930000,161.380000,341.930000L161.380000,97.130000Z" fill="rgb(214,113,35)" stroke="none" stroke-width="1"/><rect id="s11" width="136.220000" height="167.490000" rx="56.970000" ry="56.970000" transform="translate(131.890000,163.300000)" fill="rgb(179,90,20)" stroke="none" stroke-width="1"/></g><g id="s13"><path id="s15" d="M304.820000,372.900000L304.820000,347.250000C304.732117,316.507647,279.832353,291.607883,249.090000,291.520000L245.570000,291.520000C234.524305,291.520000,225.570000,282.565695,225.570000,271.520000L225.570000,251.470000L174.380000,251.470000L174.380000,271.560000C174.380000,282.605695,165.425695,291.560000,154.380000,291.560000L150.860000,291.560000C120.117647,291.647883,95.217883,316.547647,95.130000,347.290000L95.130000,372.900000C95.130000,377.533669,98.886331,381.290000,103.520000,381.290000L296.430000,381.290000C301.063669,381.290000,304.820000,377.533669,304.820000,372.900000Z" fill="rgb(255,202,138)" stroke="none" stroke-width="1"/><path id="s17" d="M174.380000,251.470000L174.380000,271.560000C174.357218,276.224180,172.685266,280.729949,169.660000,284.280000C178.863861,289.292790,189.179592,291.912985,199.660000,291.900000L200.410000,291.900000C210.890355,291.912558,221.205981,289.292389,230.410000,284.280000C227.384734,280.729949,225.712782,276.224180,225.690000,271.560000L225.690000,251.470000Z" fill="rgb(237,181,113)" stroke="none" stroke-width="1"/><g id="s19"><path id="s21" d="M103.570000,377.100000C101.258208,377.094502,99.385498,375.221792,99.380000,372.910000L99.380000,347.250000C99.457703,323.640123,115.499511,303.073704,138.380000,297.250000C154.870000,312.250000,176.650000,320.560000,199.980000,320.560000C223.310000,320.560000,245.090000,312.300000,261.580000,297.250000C284.460489,303.073704,300.502297,323.640123,300.580000,347.250000L300.580000,372.900000C300.574502,375.211792,298.701792,377.084502,296.390000,377.090000Z" fill="rgb(92,58,181)" stroke="none" stroke-width="1"/><path id="s23" d="M296.430000,381.290000C301.063669,381.290000,304.820000,377.533669,304.820000,372.900000L304.820000,347.250000C304.723922,316.722087,280.145806,291.921343,249.620000,291.550000L208.510000,338.730000C206.367859,341.185452,203.268529,342.594584,200.010000,342.594584C196.751471,342.594584,193.652141,341.185452,191.510000,338.730000L150.400000,291.550000C119.874194,291.921343,95.296078,316.722087,95.200000,347.250000L95.200000,372.900000C95.200000,377.533669,98.956331,381.290000,103.590000,381.290000Z" fill="rgb(142,127,253)" stroke="none" stroke-width="1"/><line id="s25" x1="141.120000" y1="353.330000" x2="141.120000" y2="372.730000" fill="none" stroke="rgb(92,58,181)" stroke-width="8" stroke-linecap="round" stroke-miterlimit="10"/><line id="s27" x1="258.880000" y1="353.330000" x2="258.880000" y2="372.730000" fill="none" stroke="rgb(92,58,181)" stroke-width="8" stroke-linecap="round" stroke-miterlimit="10"/></g></g><g id="s29"><circle id="s31" r="19.500000" transform="translate(137.750000,200.210000)" fill="rgb(255,202,138)" stroke="none" stroke-width="1"/><circle id="s33" r="19.500000" transform="translate(262.250000,200.210000)" fill="rgb(255,202,138)" stroke="none" stroke-width="1"/><path id="s35" d="M196.430000,105.120000L203.570000,105.120000C236.647288,105.119993,263.467919,131.922720,263.490000,165L263.490000,206.270000C263.490000,241.130213,235.230213,269.390000,200.370000,269.390000L199.620000,269.390000C182.879535,269.390000,166.824716,262.739876,154.987420,250.902580C143.150124,239.065284,136.500000,223.010465,136.500000,206.270000L136.500000,165C136.522083,131.918815,163.348808,105.114472,196.430000,105.120000Z" fill="rgb(255,202,138)" stroke="none" stroke-width="1"/><path id="s37" d="M189.440000,226.780000C191.627309,230.494044,195.586374,232.805788,199.895912,232.885330C204.205450,232.964872,208.247126,230.800798,210.570000,227.170000" fill="none" stroke="rgb(235,149,42)" stroke-width="4" stroke-linecap="round" stroke-miterlimit="10"/><path id="s39" d="M206.780000,209.740000C205.360857,207.376976,202.825178,205.910971,200.069226,205.860161C197.313275,205.809351,194.725281,207.180893,193.220000,209.490000" fill="none" stroke="rgb(235,149,42)" stroke-width="4" stroke-linecap="round" stroke-miterlimit="10"/><g id="s41"><ellipse id="s43" rx="6.880000" ry="7.430000" transform="translate(168.500000,195.050000)" fill="rgb(0,0,0)" stroke="none" stroke-width="1"/><ellipse id="s45" rx="6.880000" ry="7.430000" transform="translate(231.500000,195.050000)" fill="rgb(0,0,0)" stroke="none" stroke-width="1"/></g><g id="s47"><path id="s49" d="M203.620000,104.330000L196.390000,104.330000C184.385481,104.325957,172.653606,107.909246,162.700000,114.620000C180.430000,153.010000,219.320000,179.830000,264.190000,179.830000L264.330000,179.830000L264.330000,165C264.214661,131.525174,237.094895,104.423276,203.620000,104.330000Z" fill="rgb(214,113,35)" stroke="none" stroke-width="1"/><path id="s51" d="M135.680000,165L135.680000,180.670000C154.182122,172.022350,166.031475,153.473165,166.100000,133.050000L166.100000,112.550000C147.342297,123.367720,135.754916,143.346620,135.680000,165Z" fill="rgb(214,113,35)" stroke="none" stroke-width="1"/><rect id="s53" width="9.230000" height="38.590000" rx="4.620000" ry="4.620000" transform="translate(132.210000,167.040000)" fill="rgb(214,113,35)" stroke="none" stroke-width="1"/><rect id="s55" width="9.230000" height="38.590000" rx="4.620000" ry="4.620000" transform="translate(258.560000,167.040000)" fill="rgb(214,113,35)" stroke="none" stroke-width="1"/><path id="s57" d="M161.180000,111.300000C164.299155,108.046230,167.778167,105.157676,171.550000,102.690000" fill="none" stroke="rgb(179,90,20)" stroke-width="6" stroke-linecap="round" stroke-miterlimit="10"/></g><g id="s59"><line id="s61" x1="156.830000" y1="163.300000" x2="180.160000" y2="163.300000" fill="none" stroke="rgb(235,149,42)" stroke-width="8" stroke-linecap="round" stroke-miterlimit="10"/><line id="s63" x1="219.840000" y1="163.300000" x2="243.170000" y2="163.300000" fill="none" stroke="rgb(235,149,42)" stroke-width="8" stroke-linecap="round" stroke-miterlimit="10"/></g></g></g></svg>