<svg id="s1" xmlns="http://www.w3.org/2000/svg" xmlns:xlink="http://www.w3.org/1999/xlink" viewBox="0 0 400 400"><defs><linearGradient id="s5-fill" x1="78.150000" y1="18.210000" x2="259.430000" y2="272.730000" spreadMethod="pad" gradientUnits="userSpaceOnUse"><stop id="s5-fill-0" offset="0%" stop-color="rgb(222,245,255)"/><stop id="s5-fill-1" offset="35%" stop-color="rgb(202,227,244)"/><stop id="s5-fill-2" offset="79%" stop-color="rgb(182,208,232)"/><stop id="s5-fill-3" offset="100%" stop-color="rgb(168,168,207)"/></linearGradient><linearGradient id="s7-fill" x1="170.830000" y1="247.190000" x2="272.290000" y2="389.630000" spreadMethod="pad" gradientUnits="userSpaceOnUse"><stop id="s7-fill-0" offset="0%" stop-color="rgb(175,202,227)"/><stop id="s7-fill-1" offset="86%" stop-color="rgb(163,163,212)"/></linearGradient><linearGradient id="s11-fill" x1="-11.860000" y1="-18.240000" x2="15.470000" y2="23.760000" spreadMethod="pad" gradientUnits="userSpaceOnUse"><stop id="s11-fill-0" offset="9%" stop-color="rgb(209,138,255)"/><stop id="s11-fill-1" offset="87%" stop-color="rgb(168,100,212)"/></linearGradient><linearGradient id="s13-fill" x1="-10.560000" y1="-17.200000" x2="12.770000" y2="20.800000" spreadMethod="pad" gradientUnits="userSpaceOnUse"><stop id="s13-fill-0" offset="12%" stop-color="rgb(77,204,191)"/><stop id="s13-fill-1" offset="77%" stop-color="rgb(56,191,177)"/></linearGradient><linearGradient id="s15-fill" x1="-9.130000" y1="-15.780000" x2="12.870000" y2="22.220000" spreadMethod="pad" gradientUnits="userSpaceOnUse"><stop id="s15-fill-0" offset="12%" stop-color="rgb(242,189,118)"/><stop id="s15-fill-1" offset="64%" stop-color="rgb(242,169,109)"/></linearGradient><linearGradient id="s17-fill" x1="-17.880000" y1="0" x2="17.870000" y2="0" spreadMethod="pad" gradientUnits="userSpaceOnUse"><stop id="s17-fill-0" offset="8%" stop-color="rgb(247,116,96)"/><stop id="s17-fill-1" offset="97%" stop-color="rgb(255,151,136)"/></linearGradient><linearGradient id="s19-fill" x1="38.010000" y1="-20.670000" x2="66.670000" y2="54" spreadMethod="pad" gradientUnits="userSpaceOnUse"><stop id="s19-fill-0" offset="0%" stop-color="rgb(179,187,232)"/><stop id="s19-fill-1" offset="99%" stop-color="rgb(126,144,189)"/></linearGradient><linearGradient id="s21-fill" x1="19.620000" y1="-42.690000" x2="48.280000" y2="31.970000" spreadMethod="pad" gradientUnits="userSpaceOnUse"><stop id="s21-fill-0" offset="0%" stop-color="rgb(179,187,232)"/><stop id="s21-fill-1" offset="99%" stop-color="rgb(126,144,189)"/></linearGradient></defs><g id="s3"><rect id="s5" width="263.160000" height="186.460000" rx="15.910000" ry="15.910000" transform="translate(68.420000,117.540000)" fill="url(#s5-fill)" stroke="none" stroke-width="1"/><path id="s7" d="M315.670000,299L84.330000,299C80.110406,299,76.063635,297.323773,73.079931,294.340069C70.096227,291.356365,68.420000,287.309594,68.420000,283.090000L68.420000,288.090000C68.420000,292.309594,70.096227,296.356365,73.079931,299.340069C76.063635,302.323773,80.110406,304,84.330000,304L315.670000,304C319.889594,304,323.936365,302.323773,326.920069,299.340069C329.903773,296.356365,331.580000,292.309594,331.580000,288.090000L331.580000,283.090000C331.580000,287.309594,329.903773,291.356365,326.920069,294.340069C323.936365,297.323773,319.889594,299,315.670000,299Z" fill="url(#s7-fill)" stroke="none" stroke-width="1"/><polyline id="s9" points="121.230000,228.990000 195.950000,259.270000 225.900000,182.490000 290,202.580000" fill="none" stroke="rgb(140,153,200)" stroke-width="14" stroke-miterlimit="10"/><circle id="s11" r="17.870000" transform="translate(121.230000,228.990000)" fill="url(#s11-fill)" stroke="none" stroke-width="1"/><circle id="s13" r="17.870000" transform="translate(195.950000,259.270000)" fill="url(#s13-fill)" stroke="none" stroke-width="1"/><circle id="s15" r="17.870000" transform="translate(225.900000,182.490000)" fill="url(#s15-fill)" stroke="none" stroke-width="1"/><circle id="s17" r="17.870000" transform="translate(290,202.580000)" fill="url(#s17-fill)" stroke="none" stroke-width="1"/><rect id="s19" width="97.130000" height="13.660000" rx="6.830000" ry="6.830000" transform="translate(93.610000,146.010000)" fill="url(#s19-fill)" stroke="none" stroke-width="1"/><rect id="s21" width="77.260000" height="13.660000" rx="6.830000" ry="6.830000" transform="translate(93.610000,175.100000)" fill="url(#s21-fill)" stroke="none" stroke-width="1"/></g></svg>