<svg id="s1" xmlns="http://www.w3.org/2000/svg" xmlns:xlink="http://www.w3.org/1999/xlink" viewBox="0 0 400 400"><g id="s3"><g id="s5"><path id="s7" d="M140.060000,112.820000C129.480000,94.940000,116.440000,90.800000,88,94.690000C59.560000,98.580000,39.310000,125.510000,38.640000,134.220000C37.970000,142.930000,39.640000,159.780000,81.100000,155.620000C122.560000,151.460000,152.270000,153.890000,140.060000,112.820000Z" fill="rgb(232,200,152)" stroke="none" stroke-width="1"/><ellipse id="s9" rx="3.200000" ry="4.880000" transform="translate(76.210000,118)" fill="rgb(23,13,7)" stroke="none" stroke-width="1"/><path id="s11" d="M49.760000,136.210000C49.760000,133.370000,42.760000,132.300000,39.260000,131.500000C38.937576,132.373457,38.725926,133.283889,38.630000,134.210000C38.379301,136.813598,38.572034,139.440860,39.200000,141.980000C41.860000,137.580000,49.760000,139,49.760000,136.210000Z" fill="rgb(176,148,108)" stroke="none" stroke-width="1"/></g><path id="s13" d="M100,97C92.950000,89.150000,94.660000,85.550000,103.610000,81C112.560000,76.450000,117.390000,74.390000,119.940000,77C122.490000,79.610000,121.250000,89.190000,110.480000,99.780000C109,101.150000,103.680000,102,100,97Z" fill="rgb(204,171,125)" stroke="none" stroke-width="1"/><g id="s15"><path id="s17" d="M297.220000,268C300.367759,277.361125,305.614881,285.878293,312.560000,292.900000C317.230000,297.290000,323.030000,301.050000,321.080000,307.530000C319.130000,314.010000,312.080000,319.260000,305.080000,318.450000C298.080000,317.640000,290.480000,308.400000,279.400000,295.220000C268.320000,282.040000,274.300000,270.890000,280.050000,265.630000C285.800000,260.370000,295.580000,262.790000,297.220000,268Z" fill="rgb(204,171,125)" stroke="none" stroke-width="1"/><path id="s19" d="M295.300000,311.390000C297.500000,321.900000,298.410000,335.610000,299.300000,343.460000C300.190000,351.310000,300.170000,356.850000,300.780000,360.510000C301.390000,364.170000,320.980000,367,320.950000,356.280000C320.920000,345.560000,320.290000,319,320.400000,314.580000C320.510000,310.160000,326.230000,296.650000,310.460000,295.580000C294.690000,294.510000,293.200000,301.630000,295.300000,311.390000Z" fill="rgb(204,171,125)" stroke="none" stroke-width="1"/><path id="s21" d="M302.290000,353.500000C297.640000,358.120000,285.290000,365.260000,287.390000,369.920000C289.490000,374.580000,298.480000,375.850000,308.010000,374.230000C317.540000,372.610000,323.090000,370.660000,320.930000,356.280000C319.370000,351.060000,309.520000,348,302.290000,353.500000Z" fill="rgb(204,171,125)" stroke="none" stroke-width="1"/></g><g id="s23"><path id="s25" d="M104.480000,272.400000C107.250000,291.480000,110.740000,308.700000,111.070000,322.740000C111.400000,336.780000,133.450000,331.420000,133.500000,320.440000C133.550000,309.460000,133.150000,280.830000,132.280000,273.760000C130.640000,260.340000,102.510000,258.200000,104.480000,272.400000Z" fill="rgb(204,171,125)" stroke="none" stroke-width="1"/><path id="s27" d="M110.650000,315.330000C111.650000,328.220000,112.890000,349.440000,111.740000,357.020000C110.590000,364.600000,111.460000,366.710000,121.010000,366.390000C130.560000,366.070000,133.580000,363.850000,133.080000,355.980000C132.580000,348.110000,133.880000,322.230000,133.510000,316.030000C132.720000,303,110.130000,308.590000,110.650000,315.330000Z" fill="rgb(204,171,125)" stroke="none" stroke-width="1"/><path id="s29" d="M132.500000,361.700000C132.440000,356.380000,125.270000,353.520000,119.500000,354.610000C113.730000,355.700000,108.880000,362.510000,107.620000,365.870000C105.370000,371.870000,108.830000,373.500000,116.920000,373.190000C125.010000,372.880000,132.620000,372.480000,132.500000,361.700000Z" fill="rgb(204,171,125)" stroke="none" stroke-width="1"/></g><g id="s31"><path id="s33" d="M324.140000,268C327.287759,277.361125,332.534881,285.878293,339.480000,292.900000C344.150000,297.290000,349.950000,301.050000,348,307.530000C346.050000,314.010000,339,319.260000,332,318.450000C325,317.640000,317.400000,308.400000,306.320000,295.220000C295.240000,282.040000,301.220000,270.890000,306.970000,265.630000C312.720000,260.370000,322.500000,262.790000,324.140000,268Z" fill="rgb(232,200,152)" stroke="none" stroke-width="1"/><path id="s35" d="M322.220000,311.390000C324.420000,321.900000,325.330000,335.610000,326.220000,343.460000C327.110000,351.310000,327.090000,356.850000,327.700000,360.510000C328.310000,364.170000,347.900000,367,347.870000,356.280000C347.840000,345.560000,347.210000,319,347.320000,314.580000C347.430000,310.160000,353.150000,296.650000,337.380000,295.580000C321.610000,294.510000,320.120000,301.630000,322.220000,311.390000Z" fill="rgb(232,200,152)" stroke="none" stroke-width="1"/><path id="s37" d="M329.210000,353.500000C324.560000,358.120000,312.210000,365.260000,314.310000,369.920000C316.410000,374.580000,325.400000,375.850000,334.930000,374.230000C344.460000,372.610000,350.010000,370.660000,347.850000,356.280000C346.290000,351.060000,336.450000,348,329.210000,353.500000Z" fill="rgb(232,200,152)" stroke="none" stroke-width="1"/></g><g id="s39"><path id="s41" d="M124.820000,272.400000C127.590000,291.480000,131.080000,308.700000,131.410000,322.740000C131.740000,336.780000,153.790000,331.420000,153.840000,320.440000C153.890000,309.460000,153.490000,280.830000,152.620000,273.760000C151,260.340000,122.850000,258.200000,124.820000,272.400000Z" fill="rgb(232,200,152)" stroke="none" stroke-width="1"/><path id="s43" d="M131,315.330000C132,328.220000,133.240000,349.440000,132.090000,357.020000C130.940000,364.600000,131.810000,366.710000,141.360000,366.390000C150.910000,366.070000,153.930000,363.850000,153.430000,355.980000C152.930000,348.110000,154.230000,322.230000,153.860000,316.030000C153.070000,303,130.480000,308.590000,131,315.330000Z" fill="rgb(232,200,152)" stroke="none" stroke-width="1"/><path id="s45" d="M152.840000,361.700000C152.780000,356.380000,145.610000,353.520000,139.840000,354.610000C134.070000,355.700000,129.220000,362.510000,127.960000,365.870000C125.710000,371.870000,129.170000,373.500000,137.260000,373.190000C145.350000,372.880000,153,372.480000,152.840000,361.700000Z" fill="rgb(232,200,152)" stroke="none" stroke-width="1"/></g><path id="s47" d="M342.890000,249.310000C338.700000,234.920000,341.970000,202.930000,338.310000,187.680000C334.650000,172.430000,321.080000,161.890000,301.930000,160.300000C282.780000,158.710000,281.250000,160.220000,268.130000,150.150000C255.010000,140.080000,235.130000,143.730000,221.730000,146.940000C208.330000,150.150000,197,150.080000,189.410000,142C181.820000,133.920000,175.680000,124.820000,158.900000,124.820000C150.700000,124.820000,154.830000,103.820000,137.060000,100.360000C127.870000,98.590000,119.060000,92.180000,107.890000,85.010000C93.140000,75.550000,74.890000,79.480000,79.350000,96.510000C81.580000,105.090000,114.350000,90.960000,117.350000,115.690000C118.050000,121.460000,109.770000,123.200000,104.090000,129.920000C99.620000,135.210000,100.200000,140.920000,97.170000,145.580000C94.140000,150.240000,85.470000,154.230000,75.710000,155.950000C65.580000,167.040000,64.560000,184.770000,72.370000,196.450000C80.180000,208.130000,68.230000,226.160000,69.370000,237.080000C70.510000,248,72.530000,263.820000,91.170000,266.940000C81.430000,281.350000,100.890000,283.490000,103.520000,286.840000C106.150000,290.190000,112.640000,304,138.680000,300.760000C164.720000,297.520000,167.680000,290.120000,194.250000,296.870000C220.820000,303.620000,237.070000,304.160000,247.150000,297.600000C257.230000,291.040000,269.950000,292.600000,282.940000,299.320000C295.930000,306.040000,316.120000,308.110000,319.140000,292.750000C331.320000,295.690000,334.070000,285.680000,333.460000,278.630000C343,279,347.070000,263.690000,342.890000,249.310000Z" fill="rgb(255,233,200)" stroke="none" stroke-width="1"/><path id="s49" d="M118.690000,103.480000C111.640000,95.630000,113.350000,92.030000,122.300000,87.480000C131.250000,82.930000,136.080000,80.870000,138.630000,83.480000C141.180000,86.090000,139.940000,95.670000,129.170000,106.260000C127.720000,107.660000,122.400000,108.530000,118.690000,103.480000Z" fill="rgb(232,200,152)" stroke="none" stroke-width="1"/></g></svg>