<svg id="eXP5fdlmKbt1" xmlns="http://www.w3.org/2000/svg" xmlns:xlink="http://www.w3.org/1999/xlink" viewBox="0 0 400 400" shape-rendering="geometricPrecision" text-rendering="geometricPrecision"><g id="eXP5fdlmKbt2"><g id="eXP5fdlmKbt3"><path id="eXP5fdlmKbt4" d="M295.100000,194.400000C286.400000,212.400000,274,220.100000,257.800000,217.300000C261.500000,202.100000,273.900000,194.500000,295.100000,194.400000Z" clip-rule="evenodd" fill="rgb(55,95,42)" fill-rule="evenodd" stroke="none" stroke-width="1"/><path id="eXP5fdlmKbt5" d="M249.300000,253.800000C259.800000,230.600000,282,217.400000,315.800000,214.300000C300.700000,246.800000,278.500000,260,249.300000,253.800000L249.300000,253.800000Z" clip-rule="evenodd" fill="rgb(93,118,35)" fill-rule="evenodd" stroke="none" stroke-width="1"/><path id="eXP5fdlmKbt6" d="M210.200000,200.200000C231.400000,205.500000,240.700000,218.300000,238,238.500000C221.700000,233.200000,212.500000,220.400000,210.200000,200.200000L210.200000,200.200000Z" clip-rule="evenodd" fill="rgb(55,95,42)" fill-rule="evenodd" stroke="none" stroke-width="1"/><path id="eXP5fdlmKbt7" d="M245.200000,225C241.900000,240.200000,244.700000,226.500000,241.500000,241.700000C234,228.100000,228,219.100000,214.400000,204.900000C229.900000,222.200000,237.400000,237.400000,240.800000,245.200000C239.300000,252.300000,233.800000,278.600000,230.600000,293.700000L235.400000,293.700000C237.100000,283,238.500000,271,241.300000,258.300000C266,248.800000,286.200000,237.500000,306.700000,219.800000C285.400000,235.600000,266.100000,246.400000,241.500000,256C244.800000,240.700000,244.500000,238.300000,247.900000,223C256.700000,219,268.600000,212.500000,287.500000,199C263.400000,212.400000,260.700000,215.100000,248.500000,220.500000C258,182.500000,262.800000,180.800000,271,128.900000C264.700000,169.900000,256.300000,174.500000,245.200000,225L245.200000,225Z" fill="rgb(127,103,79)" stroke="none" stroke-width="1"/><path id="eXP5fdlmKbt8" d="M272.200000,128.100000C285.100000,150.500000,279.900000,170.800000,256.700000,189.100000C250,166.400000,255.200000,146.100000,272.200000,128.100000L272.200000,128.100000Z" clip-rule="evenodd" fill="rgb(93,118,35)" fill-rule="evenodd" stroke="none" stroke-width="1"/><path id="eXP5fdlmKbt9" d="M233.500000,171.300000C247,181.800000,252.200000,196,249.300000,213.700000C237.200000,205.300000,231.900000,191.200000,233.500000,171.300000Z" clip-rule="evenodd" fill="rgb(30,65,23)" fill-rule="evenodd" stroke="none" stroke-width="1"/></g><g id="eXP5fdlmKbt10"><path id="eXP5fdlmKbt11" d="M126.300000,227.900000C153.700000,222.600000,176.700000,231.300000,195.300000,253.800000C172.100000,259.800000,149.100000,251.100000,126.300000,227.900000L126.300000,227.900000Z" clip-rule="evenodd" fill="rgb(30,65,23)" fill-rule="evenodd" stroke="none" stroke-width="1"/><path id="eXP5fdlmKbt12" d="M175.400000,116C199.900000,137.100000,209.500000,162,202.200000,188.900000C180.900000,171.600000,171.400000,146.700000,175.400000,116L175.400000,116Z" clip-rule="evenodd" fill="rgb(93,118,35)" fill-rule="evenodd" stroke="none" stroke-width="1"/><path id="eXP5fdlmKbt13" d="M202.500000,77.900000C222.900000,96.900000,229.400000,120.600000,222.100000,148.900000C203.600000,133.600000,197.100000,109.900000,202.500000,77.900000Z" clip-rule="evenodd" fill="rgb(30,65,23)" fill-rule="evenodd" stroke="none" stroke-width="1"/><path id="eXP5fdlmKbt14" d="M217.500000,238.500000C228.300000,210.300000,253.700000,193.200000,293.500000,187.200000C277.800000,226.700000,252.500000,243.800000,217.500000,238.500000Z" clip-rule="evenodd" fill="rgb(55,95,42)" fill-rule="evenodd" stroke="none" stroke-width="1"/><path id="eXP5fdlmKbt15" d="M216.500000,184C225.200000,130.500000,240.800000,100,244.500000,41.500000C239.100000,101.400000,220.400000,144.100000,210.700000,204.600000C198.500000,179.300000,188.800000,154.200000,180.400000,127.400000C187.900000,157.900000,205.800000,200.300000,210,208.900000C207.100000,227.200000,204.200000,245.400000,201.500000,263.700000C186.300000,234.300000,172.700000,212.900000,147.200000,191C176.400000,216,196.200000,258.800000,200.800000,267.800000C199.400000,277,198.200000,285.600000,197,293.600000L203,293.600000C204.700000,279.100000,205.500000,262.300000,208.300000,244.200000C212,242.500000,214.100000,241.500000,217.600000,239.800000C225.100000,242,254.700000,250.800000,279.600000,254.200000C259.900000,249.400000,240.400000,243.900000,220.900000,238.200000C228.700000,234.300000,254.200000,222.200000,283,194.200000C258.900000,214.300000,236.800000,228.400000,208.300000,241.500000C211.300000,223.200000,213.600000,202.300000,216.500000,184L216.500000,184Z" fill="rgb(127,103,79)" stroke="none" stroke-width="1"/><path id="eXP5fdlmKbt16" d="M217.500000,238.500000C242.300000,227.300000,267.800000,234.200000,294.100000,259.300000C257.400000,267.200000,231.900000,260.300000,217.500000,238.500000L217.500000,238.500000Z" clip-rule="evenodd" fill="rgb(93,118,35)" fill-rule="evenodd" stroke="none" stroke-width="1"/><path id="eXP5fdlmKbt17" d="M135.800000,182.600000C178.900000,190.800000,198.900000,215.300000,195.900000,256.100000C162.600000,247.400000,142.600000,222.900000,135.800000,182.600000L135.800000,182.600000Z" clip-rule="evenodd" fill="rgb(55,95,42)" fill-rule="evenodd" stroke="none" stroke-width="1"/><path id="eXP5fdlmKbt18" d="M247,25C276,69.300000,267.800000,111.600000,222.400000,151.800000C206.100000,106.100000,214.300000,63.900000,247,25Z" clip-rule="evenodd" fill="rgb(55,95,42)" fill-rule="evenodd" stroke="none" stroke-width="1"/></g><g id="eXP5fdlmKbt19"><path id="eXP5fdlmKbt20" d="M168.100000,85.800000C144.500000,114.900000,140.100000,147.600000,155.100000,184C176.900000,160.200000,181.200000,127.500000,168.100000,85.800000Z" clip-rule="evenodd" fill="rgb(30,65,23)" fill-rule="evenodd" stroke="none" stroke-width="1"/><path id="eXP5fdlmKbt21" d="M119.900000,80.900000C100.900000,121.300000,112.600000,155.600000,155.100000,184C163.500000,143.900000,151.700000,109.500000,119.900000,80.900000L119.900000,80.900000Z" clip-rule="evenodd" fill="rgb(55,95,42)" fill-rule="evenodd" stroke="none" stroke-width="1"/><path id="eXP5fdlmKbt22" d="M68.200000,165.200000C88,198.900000,113.300000,211.700000,144.200000,203.800000C134.700000,174.800000,109.300000,162,68.200000,165.200000Z" clip-rule="evenodd" fill="rgb(55,95,42)" fill-rule="evenodd" stroke="none" stroke-width="1"/><path id="eXP5fdlmKbt23" d="M169.300000,255.800000C157,233.500000,133.800000,222.200000,99.900000,221.800000C117.500000,252.900000,140.700000,264.300000,169.300000,255.800000Z" clip-rule="evenodd" fill="rgb(93,118,35)" fill-rule="evenodd" stroke="none" stroke-width="1"/><path id="eXP5fdlmKbt24" d="M231,199.600000C195.900000,211.400000,182,234.200000,189.300000,268C216.200000,256.900000,230.100000,234.100000,231,199.600000L231,199.600000Z" clip-rule="evenodd" fill="rgb(55,95,42)" fill-rule="evenodd" stroke="none" stroke-width="1"/><path id="eXP5fdlmKbt25" d="M171,226.800000C178.200000,204.200000,183.400000,182.200000,187.400000,158.800000C184.700000,185.200000,174.600000,222.600000,172.100000,230.300000C176.600000,245.200000,181.100000,260.100000,185.500000,275.100000C194.800000,248.800000,203.600000,229.300000,222.400000,208.100000C200.900000,232.400000,189.300000,270.400000,186.500000,278.500000C188.100000,283.800000,189.500000,288.900000,190.900000,293.700000L185.900000,293.700000C183.500000,283.300000,181.100000,271.800000,177.400000,259.600000C174.100000,258.600000,172.200000,258,169.100000,257C163.100000,259.700000,139.400000,270.500000,119,276.200000C134.900000,269.900000,150.600000,263.100000,166.200000,256C159.300000,253.700000,136.500000,246.500000,109.200000,226.400000C131.600000,240.400000,151.800000,249.700000,177.100000,257.200000C172.600000,242.200000,169.100000,227.600000,164.500000,212.600000C155.400000,209.300000,103.700000,190.200000,78.800000,170.800000C105.200000,187.900000,134.400000,199.400000,163.700000,210.100000C150.300000,166.400000,133.700000,142.800000,123.800000,94.300000C135.400000,143.800000,155.900000,177.300000,171,226.800000L171,226.800000Z" fill="rgb(127,103,79)" stroke="none" stroke-width="1"/><path id="eXP5fdlmKbt26" d="M190.200000,148.600000C172.200000,169,167.100000,190.900000,176.300000,212.600000C192.100000,195.700000,197.200000,173.800000,190.200000,148.600000Z" clip-rule="evenodd" fill="rgb(93,118,35)" fill-rule="evenodd" stroke="none" stroke-width="1"/><path id="eXP5fdlmKbt27" d="M169.300000,255.800000C147.300000,249.300000,126.800000,258,107.800000,282C139.300000,284.400000,159.800000,275.700000,169.300000,255.800000Z" clip-rule="evenodd" fill="rgb(30,65,23)" fill-rule="evenodd" stroke="none" stroke-width="1"/></g></g><path id="eXP5fdlmKbt28" d="M254.300000,293.700000L159.700000,293.700000L159.700000,354C159.700000,365.500000,169.100000,375,180.700000,375L233.400000,375C244.900000,375,254.400000,365.600000,254.400000,354L254.400000,293.700000Z" clip-rule="evenodd" fill="rgb(163,97,62)" fill-rule="evenodd" stroke="none" stroke-width="1"/></svg>