<svg id="s1" xmlns="http://www.w3.org/2000/svg" xmlns:xlink="http://www.w3.org/1999/xlink" viewBox="0 0 400 400"><g id="s3"><g id="s5"><path id="s7" d="M309.510000,367.940000L309.510000,333.940000C309.422117,303.197647,284.522353,278.297883,253.780000,278.210000L250.260000,278.210000C239.214305,278.210000,230.260000,269.255695,230.260000,258.210000L230.260000,238.120000L179.060000,238.120000L179.060000,258.210000C179.060000,269.255695,170.105695,278.210000,159.060000,278.210000L155.540000,278.210000C124.832723,278.325184,99.969669,303.192703,99.860000,333.900000L99.860000,367.900000Z" fill="rgb(247,194,153)" stroke="none" stroke-width="1"/><path id="s9" d="M174.200000,271.210000C183.496448,276.043308,193.822182,278.561278,204.300000,278.550000L205.070000,278.550000C215.547724,278.560489,225.873273,276.042565,235.170000,271.210000C232.037747,267.603084,230.312085,262.987117,230.310000,258.210000L230.310000,238.120000L179.060000,238.120000L179.060000,258.210000C179.057016,262.986955,177.331469,267.602617,174.200000,271.210000Z" fill="rgb(227,165,126)" stroke="none" stroke-width="1"/><g id="s11"><path id="s13" d="M145.800000,357L145.800000,365.670000C145.800000,367.338212,146.462695,368.938098,147.642298,370.117702C148.821902,371.297305,150.421788,371.960000,152.090000,371.960000L257.270000,371.960000C258.938212,371.960000,260.538098,371.297305,261.717702,370.117702C262.897305,368.938098,263.560000,367.338212,263.560000,365.670000L263.560000,357L306.500000,357C310.365993,357,313.500000,353.865993,313.500000,350L313.500000,335.740000C313.500000,302.740000,286.760000,274.170000,253.770000,274.170000C253.770000,274.170000,249.260000,274.170000,248.770000,274.100000C247.666272,274.008144,246.575543,274.389899,245.770000,275.150000C234.996375,285.364412,220.716050,291.058647,205.870000,291.060000L204.460000,291.060000C189.566961,291.060000,175.244615,285.331062,164.460000,275.060000C163.569873,274.248246,162.361299,273.880899,161.170000,274.060000C160.520000,274.150000,155.670000,274.190000,155.670000,274.190000C122.670000,274.190000,95.940000,302.770000,95.940000,335.760000L95.940000,350C95.940000,353.865993,99.074007,357,102.940000,357Z" fill="rgb(53,68,77)" stroke="none" stroke-width="1"/><path id="s15" d="M160.250000,282.090000C172.361860,293.034587,188.105750,299.092671,204.430000,299.090000L205.840000,299.090000C222.150369,299.099524,237.884787,293.060158,250,282.140000" fill="none" stroke="rgb(32,44,51)" stroke-width="4" stroke-linecap="round" stroke-miterlimit="10"/><line id="s17" x1="145.800000" y1="339.980000" x2="145.800000" y2="359.560000" fill="none" stroke="rgb(32,44,51)" stroke-width="8" stroke-linecap="round" stroke-miterlimit="10"/><line id="s19" x1="263.560000" y1="339.980000" x2="263.560000" y2="359.560000" fill="none" stroke="rgb(32,44,51)" stroke-width="8" stroke-linecap="round" stroke-miterlimit="10"/><path id="s21" d="M240.170000,348.540000L231.250000,353.590000C230.044795,354.278752,228.565205,354.278752,227.360000,353.590000L218.440000,348.540000C217.030185,347.704703,216.175514,346.178505,216.200000,344.540000L216.200000,330.370000C216.115577,327.969029,217.989315,325.952190,220.390000,325.860000L238.240000,325.860000C240.640685,325.952190,242.514423,327.969029,242.430000,330.370000L242.430000,344.550000C242.446737,346.189058,241.584375,347.711547,240.170000,348.540000Z" fill="rgb(32,44,51)" stroke="none" stroke-width="1"/><line id="s23" x1="102" y1="348.410000" x2="131.600000" y2="348.410000" fill="none" stroke="rgb(32,44,51)" stroke-width="4" stroke-linecap="round" stroke-miterlimit="10"/><line id="s25" x1="307.370000" y1="348.410000" x2="277.770000" y2="348.410000" fill="none" stroke="rgb(32,44,51)" stroke-width="4" stroke-linecap="round" stroke-miterlimit="10"/></g></g><g id="s27"><circle id="s29" r="19.500000" transform="translate(266.930000,181.040000)" fill="rgb(247,194,153)" stroke="none" stroke-width="1"/><circle id="s31" r="19.500000" transform="translate(142.430000,181.040000)" fill="rgb(247,194,153)" stroke="none" stroke-width="1"/><path id="s33" d="M193.710000,86L215.650000,86C229.579170,86,242.937838,91.533341,252.787248,101.382752C262.636659,111.232162,268.170000,124.590830,268.170000,138.520000L268.170000,194.590000C268.170000,225.363306,243.223306,250.310000,212.450000,250.310000L196.910000,250.310000C166.136694,250.310000,141.190000,225.363306,141.190000,194.590000L141.190000,138.480000C141.212079,109.489627,164.719619,85.999992,193.710000,86Z" fill="rgb(247,194,153)" stroke="none" stroke-width="1"/><path id="s35" d="M194.120000,207.610000C196.307309,211.324044,200.266374,213.635788,204.575912,213.715330C208.885450,213.794872,212.927126,211.630798,215.250000,208" fill="none" stroke="rgb(207,148,109)" stroke-width="4" stroke-linecap="round" stroke-miterlimit="10"/><path id="s37" d="M211.460000,187.580000C210.040857,185.216976,207.505178,183.750971,204.749226,183.700161C201.993275,183.649351,199.405281,185.020893,197.900000,187.330000" fill="none" stroke="rgb(207,148,109)" stroke-width="4" stroke-linecap="round" stroke-miterlimit="10"/><g id="s39"><ellipse id="s41" rx="6.880000" ry="7.430000" transform="translate(173.180000,168.890000)" fill="rgb(0,0,0)" stroke="none" stroke-width="1"/><ellipse id="s43" rx="6.880000" ry="7.430000" transform="translate(236.190000,168.890000)" fill="rgb(0,0,0)" stroke="none" stroke-width="1"/></g><g id="s45"><line id="s47" x1="224.520000" y1="144.130000" x2="247.850000" y2="144.130000" fill="none" stroke="rgb(63,61,56)" stroke-width="12" stroke-linecap="round" stroke-miterlimit="10"/><line id="s49" x1="161.520000" y1="144.130000" x2="184.840000" y2="144.130000" fill="none" stroke="rgb(63,61,56)" stroke-width="12" stroke-linecap="round" stroke-miterlimit="10"/></g><g id="s51"><path id="s53" d="M272,101.390000C271.950844,92.910782,265.089218,86.049156,256.610000,86C256.230000,86,255.850000,86,255.480000,86.060000C255.710316,85.052840,255.827707,84.023156,255.830000,82.990000C255.791706,75.273931,249.546069,69.028294,241.830000,68.990000L229.140000,68.990000C228.436461,68.996919,227.734455,69.057091,227.040000,69.170000C226.224622,63.795644,221.605857,59.822741,216.170000,59.820000L203.540000,59.820000C166.973568,60.083031,137.438718,89.742783,137.330000,126.310000L137.330000,142.620000L137.330000,142.620000L137.330000,181L146.760000,181L146.760000,176.700000L146.760000,176.700000L146.760000,141.490000C146.760000,136.690000,150.170000,132.760000,154.710000,132.760000L154.710000,112.350000C159.795626,106.792305,166.976660,103.618868,174.510000,103.600000L234.890000,103.600000C242.423340,103.618868,249.604374,106.792305,254.690000,112.350000L254.690000,132.810000C259.370003,132.962358,263.052268,136.858864,262.940000,141.540000L262.940000,181L272,181L272,144.650000L272,144.650000Z" fill="rgb(63,61,56)" stroke="none" stroke-width="1"/><line id="s55" x1="189.310000" y1="90.660000" x2="210.360000" y2="69.620000" fill="none" stroke="rgb(104,113,125)" stroke-width="6" stroke-linecap="round" stroke-miterlimit="10"/><line id="s57" x1="211.030000" y1="93.540000" x2="220.060000" y2="84.520000" fill="none" stroke="rgb(104,113,125)" stroke-width="6" stroke-linecap="round" stroke-miterlimit="10"/></g><path id="s59" d="M262.630000,152.790000L262.630000,185.640000C262.571528,202.742082,249.356149,216.916044,232.300000,218.170000L232.300000,210.730000C232.383519,200.095012,223.864284,191.388149,213.230000,191.240000L196.140000,191.240000C185.505716,191.388149,176.986481,200.095012,177.070000,210.730000L177.070000,218.170000C160.010029,216.915746,146.793257,202.735932,146.740000,185.630000L146.740000,152.790000C140.663653,159.959127,137.329049,169.052214,137.330000,178.450000L137.330000,196.630000C137.428836,229.245570,163.844430,255.661164,196.460000,255.760000L212.920000,255.760000C245.516043,255.633743,271.901318,229.226138,272,196.630000L272,178.450000C272.012130,169.057256,268.691912,159.964748,262.630000,152.790000ZM196.880000,203.090000L212.480000,203.090000C217.083825,203.144925,220.774439,206.916062,220.730000,211.520000L220.730000,218.270000L220.730000,218.270000L220.730000,224C220.729630,225.492172,220.336456,226.957954,219.590000,228.250000L219.590000,228.250000C218.594101,229.706297,216.944260,230.577982,215.180000,230.580000L213.750000,230.580000C210.797559,230.574497,208.405503,228.182441,208.400000,225.230000L208.400000,223.790000C208.416952,222.247126,209.102922,220.787615,210.280000,219.790000L199.080000,219.790000C200.257078,220.787615,200.943048,222.247126,200.960000,223.790000L200.960000,225.230000C200.954497,228.182441,198.562441,230.574497,195.610000,230.580000L194.180000,230.580000C192.280988,230.571249,190.529496,229.554622,189.580000,227.910000C188.936411,226.702713,188.593386,225.358053,188.580000,223.990000L188.580000,211.520000C188.558693,209.300254,189.422148,207.163386,190.979574,205.581567C192.537000,203.999748,194.660191,203.103190,196.880000,203.090000Z" fill="rgb(104,113,125)" stroke="none" stroke-width="1"/></g></g></svg>