<svg id="s1" xmlns="http://www.w3.org/2000/svg" xmlns:xlink="http://www.w3.org/1999/xlink" viewBox="0 0 400 400"><g id="s3"><path id="s5" d="M62.070000,79.440000C85.220000,89.380000,114.310000,102.310000,113,143.640000C111.690000,184.970000,82.550000,216.640000,103.920000,260.050000C125.290000,303.460000,142.070000,334.910000,219.120000,335.050000C296.170000,335.190000,350.210000,305.120000,355.250000,261.630000C356.900000,247.380000,335.980000,286.320000,312.830000,281.290000C289.680000,276.260000,229.310000,224.600000,200.600000,196.380000C171.890000,168.160000,133.670000,157.170000,119.450000,120.270000C105.230000,83.370000,85,70.720000,68.330000,70.400000C62.510000,70.180000,56.190000,77.910000,62.070000,79.440000Z" fill="rgb(234,126,26)" stroke="none" stroke-width="1"/><path id="s7" d="M121.640000,139.270000C146.460000,196.180000,139.950000,226.430000,182.240000,264.170000C224.530000,301.910000,291.410000,326.070000,340.610000,279.470000" fill="none" stroke="rgb(199,101,12)" stroke-width="7" stroke-linecap="round" stroke-miterlimit="10"/><path id="s9" d="M147.850000,215.560000C149.110000,231.820000,160.720000,295.150000,169.730000,315.710000" fill="none" stroke="rgb(199,101,12)" stroke-width="7" stroke-linecap="round" stroke-miterlimit="10"/><path id="s11" d="M153.070000,255.120000C140.820000,298.240000,140.560000,276.680000,140.820000,298.240000" fill="none" stroke="rgb(199,101,12)" stroke-width="7" stroke-linecap="round" stroke-miterlimit="10"/><path id="s13" d="M195.120000,274.490000C208.120000,276.490000,254.340000,272.900000,268.200000,267.810000" fill="none" stroke="rgb(199,101,12)" stroke-width="7" stroke-linecap="round" stroke-miterlimit="10"/><path id="s15" d="M217.400000,288.760000C222.250000,295.760000,231.660000,315.760000,257.980000,322.830000" fill="none" stroke="rgb(199,101,12)" stroke-width="7" stroke-linecap="round" stroke-miterlimit="10"/><path id="s17" d="M140.570000,193.820000C147.310000,199.640000,171.460000,215.820000,210.300000,222.190000" fill="none" stroke="rgb(199,101,12)" stroke-width="7" stroke-linecap="round" stroke-miterlimit="10"/></g></svg>