<svg id="s1" xmlns="http://www.w3.org/2000/svg" xmlns:xlink="http://www.w3.org/1999/xlink" viewBox="0 0 400 400"><g id="s3"><path id="s5" d="M330.130000,231.670000C317,161.500000,224.910000,107.250000,212.670000,58C200.420000,107.250000,108.300000,161.500000,95.200000,231.670000C84.250000,290.320000,104.940000,335.860000,151.710000,338.670000C185.950000,340.730000,197.890000,326.420000,212.710000,323.490000C227.480000,326.420000,239.420000,340.720000,273.710000,338.670000C320.390000,335.860000,341.080000,290.320000,330.130000,231.670000Z" fill="rgb(130,181,14)" stroke="none" stroke-width="1"/><line id="s7" x1="212.670000" y1="122.440000" x2="212.670000" y2="378.620000" fill="none" stroke="rgb(94,133,6)" stroke-width="7" stroke-linecap="round" stroke-miterlimit="10"/><path id="s9" d="M122.860000,244.210000C212.740000,292.070000,164.860000,283.210000,212.740000,292.070000" fill="none" stroke="rgb(94,133,6)" stroke-width="7" stroke-linecap="round" stroke-miterlimit="10"/><path id="s11" d="M153.590000,193.930000C171.160000,214.450000,199.100000,229.930000,212.750000,233.440000" fill="none" stroke="rgb(94,133,6)" stroke-width="7" stroke-linecap="round" stroke-miterlimit="10"/><path id="s13" d="M177.790000,150.940000C184.510000,158.940000,202.390000,171.120000,212.420000,174.210000" fill="none" stroke="rgb(94,133,6)" stroke-width="7" stroke-linecap="round" stroke-miterlimit="10"/><path id="s15" d="M302.470000,244.210000C212.590000,292.070000,260.470000,283.210000,212.590000,292.070000" fill="none" stroke="rgb(94,133,6)" stroke-width="7" stroke-linecap="round" stroke-miterlimit="10"/><path id="s17" d="M271.750000,193.930000C254.180000,214.450000,226.240000,229.930000,212.590000,233.440000" fill="none" stroke="rgb(94,133,6)" stroke-width="7" stroke-linecap="round" stroke-miterlimit="10"/><path id="s19" d="M247.540000,150.940000C240.820000,158.940000,222.940000,171.120000,212.910000,174.210000" fill="none" stroke="rgb(94,133,6)" stroke-width="7" stroke-linecap="round" stroke-miterlimit="10"/></g></svg>