<svg id="s1" xmlns="http://www.w3.org/2000/svg" xmlns:xlink="http://www.w3.org/1999/xlink" viewBox="0 0 400 400"><path id="s3" d="M200.950000,81.860000C184.575140,80.763728,168.151159,83.082768,152.720000,88.670000C151.068359,89.264846,149.980526,90.847340,150.016761,92.602460C150.052996,94.357581,151.205216,95.893828,152.880000,96.420000C190.176725,108.202412,214.125635,144.494959,210.290000,183.420000C206.610000,222.020000,175.620000,253.420000,137.070000,257.520000C122.506288,259.128022,107.776855,256.836470,94.390000,250.880000C92.778253,250.132525,90.868677,250.505284,89.656363,251.804030C88.444048,253.102776,88.203472,255.033463,89.060000,256.590000C115.594391,305.381314,172.476989,329.171060,225.846690,313.797666C279.216391,298.424271,314.727107,248.020193,311.240000,192.590000C307.660000,133.710000,259.840000,85.680000,200.950000,81.860000Z" fill="rgb(255,165,61)" stroke="none" stroke-width="1"/></svg>