<svg id="s1" xmlns="http://www.w3.org/2000/svg" xmlns:xlink="http://www.w3.org/1999/xlink" viewBox="0 0 400 400"><g id="s3"><path id="s5" d="M211.270000,41.830000L211.270000,41.830000C207.890000,63.570000,164.390000,82.530000,156.390000,190.510000C148.390000,298.490000,164.850000,347,211.900000,347C209.230000,298.330000,212.400000,57.500000,211.270000,41.830000Z" fill="rgb(162,192,79)" stroke="none" stroke-width="1"/><path id="s7" d="M265.430000,190.670000C259.370000,78.120000,220.310000,66,211.270000,41.830000C212.400000,57.500000,209.270000,298.330000,211.900000,347C258.280000,347,271.830000,309.330000,265.430000,190.670000Z" fill="rgb(162,192,79)" stroke="none" stroke-width="1"/><path id="s9" d="M211.900000,382.330000C211.260000,59.660000,209.550000,90.160000,211.260000,59.660000" fill="none" stroke="rgb(119,148,38)" stroke-width="5" stroke-linecap="round" stroke-miterlimit="10"/><line id="s11" x1="172.400000" y1="139.250000" x2="202.030000" y2="154.250000" fill="none" stroke="rgb(119,148,38)" stroke-width="5" stroke-linecap="round" stroke-miterlimit="10"/><line id="s13" x1="210.580000" y1="136.670000" x2="243.450000" y2="114.550000" fill="none" stroke="rgb(119,148,38)" stroke-width="5" stroke-linecap="round" stroke-miterlimit="10"/><line id="s15" x1="229.200000" y1="136.410000" x2="248.530000" y2="124.100000" fill="none" stroke="rgb(119,148,38)" stroke-width="5" stroke-linecap="round" stroke-miterlimit="10"/><path id="s17" d="M163.670000,168C171.840000,171.140000,197.590000,183.070000,210.800000,187" fill="none" stroke="rgb(119,148,38)" stroke-width="5" stroke-linecap="round" stroke-miterlimit="10"/><path id="s19" d="M228.620000,188.780000C232.290000,185.670000,247.150000,175.180000,247.150000,175.180000" fill="none" stroke="rgb(119,148,38)" stroke-width="5" stroke-linecap="round" stroke-miterlimit="10"/><path id="s21" d="M211,218.880000C259.210000,181.980000,245.820000,192.460000,259.210000,181.980000" fill="none" stroke="rgb(119,148,38)" stroke-width="5" stroke-linecap="round" stroke-miterlimit="10"/><line id="s23" x1="160.500000" y1="223.980000" x2="194.390000" y2="235.900000" fill="none" stroke="rgb(119,148,38)" stroke-width="5" stroke-linecap="round" stroke-miterlimit="10"/><path id="s25" d="M161,241.460000C167.630000,243.640000,200.460000,253.630000,211.170000,256.070000" fill="none" stroke="rgb(119,148,38)" stroke-width="5" stroke-linecap="round" stroke-miterlimit="10"/><line id="s27" x1="163.670000" y1="281.920000" x2="178.250000" y2="286.670000" fill="none" stroke="rgb(119,148,38)" stroke-width="5" stroke-linecap="round" stroke-miterlimit="10"/><line id="s29" x1="163.670000" y1="294.150000" x2="199.650000" y2="304.640000" fill="none" stroke="rgb(119,148,38)" stroke-width="5" stroke-linecap="round" stroke-miterlimit="10"/><line id="s31" x1="221.180000" y1="298.550000" x2="258.230000" y2="267.310000" fill="none" stroke="rgb(119,148,38)" stroke-width="5" stroke-linecap="round" stroke-miterlimit="10"/><line id="s33" x1="211.680000" y1="320.550000" x2="259.040000" y2="284.290000" fill="none" stroke="rgb(119,148,38)" stroke-width="5" stroke-linecap="round" stroke-miterlimit="10"/></g></svg>