<svg id="s1" xmlns="http://www.w3.org/2000/svg" xmlns:xlink="http://www.w3.org/1999/xlink" viewBox="0 0 400 400"><g id="s3"><g id="s5"><path id="s7" d="M303.470000,357.750000C303.470000,339.560000,287.470000,339.560000,287.470000,321.360000C287.470000,303.160000,303.470000,303.170000,303.470000,284.970000C303.470000,266.770000,287.470000,266.780000,287.470000,248.590000C287.470000,230.400000,303.470000,230.400000,303.470000,212.200000C303.470000,194,287.470000,194.010000,287.470000,175.820000L287.470000,164.270000C287.338192,119.208568,250.841432,82.711808,205.780000,82.580000L205.780000,82.580000C185.807171,82.586730,166.535491,89.944425,151.640000,103.250000C129.633777,107.575195,113.733455,126.822953,113.640000,149.250000L113.640000,175.780000C113.640000,193.970000,97.640000,193.970000,97.640000,212.160000C97.640000,230.350000,113.640000,230.350000,113.640000,248.550000C113.640000,266.750000,97.640000,266.740000,97.640000,284.930000C97.640000,303.120000,113.640000,303.120000,113.640000,321.320000C113.640000,339.520000,97.640000,339.510000,97.640000,357.710000Z" fill="rgb(128,75,44)" stroke="none" stroke-width="1"/><path id="s9" d="M274.820000,212.200000C274.820000,194.010000,255.700000,194.010000,255.700000,175.820000L255.700000,164.270000C255.700000,163.050000,255.700000,161.840000,255.590000,160.630000L145.440000,160.630000L145.440000,175.810000C145.440000,194,126.320000,194,126.320000,212.190000C126.320000,230.380000,145.440000,230.380000,145.440000,248.580000C145.440000,266.780000,126.320000,266.780000,126.320000,285C126.320000,303.220000,145.440000,303.190000,145.440000,321.390000C145.440000,339.590000,126.320000,339.580000,126.320000,357.780000L274.820000,357.780000C274.820000,339.580000,255.700000,339.580000,255.700000,321.390000C255.700000,303.200000,274.820000,303.200000,274.820000,285C274.820000,266.800000,255.700000,266.810000,255.700000,248.610000C255.700000,230.410000,274.820000,230.400000,274.820000,212.200000Z" fill="rgb(92,53,32)" stroke="none" stroke-width="1"/></g><g id="s11"><path id="s13" d="M304.700000,368L304.700000,342.310000C304.612202,311.579311,279.730637,286.684345,249,286.580000L245.480000,286.580000C234.434305,286.580000,225.480000,277.625695,225.480000,266.580000L225.480000,246.530000L174.250000,246.530000L174.250000,266.620000C174.250000,277.665695,165.295695,286.620000,154.250000,286.620000L150.730000,286.620000C119.987647,286.707883,95.087883,311.607647,95,342.350000L95,368C95,372.633669,98.756331,376.390000,103.390000,376.390000L296.310000,376.390000C300.943669,376.390000,304.700000,372.633669,304.700000,368Z" fill="rgb(247,194,153)" stroke="none" stroke-width="1"/><path id="s15" d="M174.250000,246.530000L174.250000,266.620000C174.227218,271.284180,172.555266,275.789949,169.530000,279.340000C178.733861,284.352790,189.049592,286.972985,199.530000,286.960000L200.280000,286.960000C210.760355,286.972558,221.075981,284.352389,230.280000,279.340000C227.254734,275.789949,225.582782,271.284180,225.560000,266.620000L225.560000,246.530000Z" fill="rgb(227,165,126)" stroke="none" stroke-width="1"/><g id="s17"><path id="s19" d="M249,282.580000L245.480000,282.580000C240.368554,282.573877,235.570499,280.115338,232.580000,275.970000C224.420627,281.923833,214.580668,285.131450,204.480000,285.130000L195.300000,285.130000C185.202783,285.139472,175.363346,281.942530,167.200000,276C164.209501,280.145338,159.411446,282.603877,154.300000,282.610000L150.780000,282.610000C134.938619,282.610000,119.746060,288.902964,108.544512,300.104512C97.342964,311.306060,91.050000,326.498619,91.050000,342.340000L91.050000,372.340000C91.050000,376.758278,94.631722,380.340000,99.050000,380.340000L300.700000,380.340000C305.118278,380.340000,308.700000,376.758278,308.700000,372.340000L308.700000,342.340000C308.707958,326.498618,302.422626,311.302897,291.226703,300.095723C280.030781,288.888549,264.841382,282.587954,249,282.580000Z" fill="rgb(33,59,133)" stroke="none" stroke-width="1"/><path id="s21" d="M165.810000,372.280000C165.812403,367.466295,162.483451,363.291576,157.789987,362.222388C153.096523,361.153201,148.287839,363.474139,146.205045,367.813924C144.122252,372.153710,145.319740,377.357191,149.090000,380.350000L161.900000,380.350000C164.368547,378.399231,165.808962,375.426303,165.810000,372.280000Z" fill="rgb(255,197,125)" stroke="none" stroke-width="1"/><path id="s23" d="M289.130000,362C284.746986,362.002753,280.844820,364.776383,279.401504,368.914940C277.958188,373.053497,279.289259,377.652211,282.720000,380.380000L295.530000,380.380000C298.959313,377.653356,300.290862,373.057180,298.850156,368.919652C297.409449,364.782124,293.511179,362.006996,289.130000,362Z" fill="rgb(255,197,125)" stroke="none" stroke-width="1"/><circle id="s25" r="10.310000" transform="translate(152.460000,302.420000)" fill="rgb(255,197,125)" stroke="none" stroke-width="1"/><circle id="s27" r="10.310000" transform="translate(187.390000,337.350000)" fill="rgb(255,197,125)" stroke="none" stroke-width="1"/><circle id="s29" r="10.310000" transform="translate(120.570000,337.350000)" fill="rgb(255,197,125)" stroke="none" stroke-width="1"/><path id="s31" d="M282.370000,292.820000C277.885091,294.562951,275.202164,299.176402,275.905300,303.936432C276.608436,308.696462,280.510641,312.337179,285.307936,312.708994C290.105231,313.080809,294.521813,310.084841,295.950000,305.490000C292.105875,300.589724,287.524718,296.315552,282.370000,292.820000Z" fill="rgb(255,197,125)" stroke="none" stroke-width="1"/><circle id="s33" r="10.310000" transform="translate(254.210000,337.350000)" fill="rgb(255,197,125)" stroke="none" stroke-width="1"/><circle id="s35" r="10.310000" transform="translate(219.280000,302.420000)" fill="rgb(255,197,125)" stroke="none" stroke-width="1"/><path id="s37" d="M232.630000,372.280000C232.632403,367.466295,229.303451,363.291576,224.609987,362.222388C219.916523,361.153201,215.107839,363.474139,213.025045,367.813924C210.942252,372.153710,212.139740,377.357191,215.910000,380.350000L228.720000,380.350000C231.188547,378.399231,232.628962,375.426303,232.630000,372.280000Z" fill="rgb(255,197,125)" stroke="none" stroke-width="1"/><path id="s39" d="M178.210000,307.070000L178.210000,307.070000C190.164330,307.037038,199.847038,297.354330,199.880000,285.400000L199.880000,281.130000L195.300000,281.130000C186.043126,281.141087,177.023516,278.202270,169.550000,272.740000L169.160000,272.460000C167.588116,271.322183,165.391892,271.671073,164.250000,273.240000L163.970000,273.630000C162.579443,275.540707,160.655688,276.998308,158.440000,277.820000C157.301223,278.273530,156.552900,279.374237,156.550000,280.600000L156.550000,285.410000C156.588422,297.356536,166.263464,307.031578,178.210000,307.070000Z" fill="rgb(242,227,213)" stroke="none" stroke-width="1"/><path id="s41" d="M221.540000,307.070000L221.540000,307.070000C209.585670,307.037038,199.902962,297.354330,199.870000,285.400000L199.870000,281.130000L204.450000,281.130000C213.706874,281.141087,222.726484,278.202270,230.200000,272.740000L230.590000,272.460000C232.161884,271.322183,234.358108,271.671073,235.500000,273.240000L235.780000,273.630000C237.269423,275.680448,239.369778,277.206706,241.780000,277.990000C242.610437,278.251153,243.176569,279.019474,243.180000,279.890000L243.180000,285.410000C243.141643,297.348766,233.478725,307.020614,221.540000,307.070000Z" fill="rgb(242,227,213)" stroke="none" stroke-width="1"/><line id="s43" x1="140.990000" y1="348.390000" x2="140.990000" y2="371.970000" fill="none" stroke="rgb(16,41,112)" stroke-width="8" stroke-linecap="round" stroke-miterlimit="10"/><line id="s45" x1="258.750000" y1="348.390000" x2="258.750000" y2="371.970000" fill="none" stroke="rgb(16,41,112)" stroke-width="8" stroke-linecap="round" stroke-miterlimit="10"/></g></g><g id="s47"><circle id="s49" r="19.500000" transform="translate(262.120000,195.270000)" fill="rgb(247,194,153)" stroke="none" stroke-width="1"/><circle id="s51" r="19.500000" transform="translate(137.620000,195.270000)" fill="rgb(247,194,153)" stroke="none" stroke-width="1"/><path id="s53" d="M197,100.180000L204.140000,100.180000C220.031772,100.180000,235.272659,106.492982,246.509838,117.730162C257.747018,128.967341,264.060000,144.208228,264.060000,160.100000L264.060000,201.370000C264.060000,236.230213,235.800213,264.490000,200.940000,264.490000L200.190000,264.490000C183.449535,264.490000,167.394716,257.839876,155.557420,246.002580C143.720124,234.165284,137.070000,218.110465,137.070000,201.370000L137.070000,160.110000C137.067347,144.214763,143.380531,128.969791,154.620161,117.730161C165.859791,106.490531,181.104763,100.177347,197,100.180000Z" fill="rgb(247,194,153)" stroke="none" stroke-width="1"/><g id="s55"><path id="s57" d="M257,115.670000C245.310000,99.370000,225.440000,88.670000,202.890000,88.670000L197.550000,88.670000C161.550000,88.670000,132.430000,115.950000,132.430000,149.610000L132.430000,192.920000C132.440956,195.483572,134.516428,197.559044,137.080000,197.570000L137.160000,197.570000C139.723572,197.559044,141.799044,195.483572,141.810000,192.920000L141.810000,168.920000C141.803501,149.546658,151.896109,131.570977,168.440000,121.490000L204.330000,121.490000L204.330000,146.210000C204.362991,160.555716,215.984284,172.177009,230.330000,172.210000L258.780000,172.210000L258.780000,192.940000C258.894791,195.405336,260.926993,197.345116,263.395000,197.345116C265.863007,197.345116,267.895209,195.405336,268.010000,192.940000L268.010000,142.760000C268.019807,132.638440,264.067973,122.914988,257,115.670000Z" fill="rgb(128,75,44)" stroke="none" stroke-width="1"/><path id="s59" d="M141.800000,169.050000L141.800000,168.890000C141.791972,149.513609,151.884525,131.534236,168.430000,121.450000C165.994719,120.375036,163.361981,119.819879,160.700000,119.820000C150.070000,119.820000,141.790000,128.730000,141.790000,139.360000L141.790000,169.050000Z" fill="rgb(92,53,32)" stroke="none" stroke-width="1"/><path id="s61" d="M204.300000,121.450000C204.069988,111.709738,196.107977,103.933527,186.365000,103.933527C176.622023,103.933527,168.660012,111.709738,168.430000,121.450000Z" fill="rgb(92,53,32)" stroke="none" stroke-width="1"/><path id="s63" d="M163.240000,108.440000C166.359155,105.186230,169.838167,102.297676,173.610000,99.830000" fill="none" stroke="rgb(163,96,57)" stroke-width="6" stroke-linecap="round" stroke-miterlimit="10"/></g><path id="s65" d="M190,223.720000C192.187309,227.434044,196.146374,229.745788,200.455912,229.825330C204.765450,229.904872,208.807126,227.740798,211.130000,224.110000" fill="none" stroke="rgb(222,159,111)" stroke-width="4" stroke-linecap="round" stroke-miterlimit="10"/><path id="s67" d="M207.230000,205.130000C205.850695,202.789844,203.355792,201.333113,200.639874,201.282139C197.923955,201.231164,195.376147,202.593249,193.910000,204.880000" fill="none" stroke="rgb(207,148,109)" stroke-width="4" stroke-linecap="round" stroke-miterlimit="10"/><g id="s69"><ellipse id="s71" rx="6.880000" ry="7.430000" transform="translate(168.370000,190.110000)" fill="rgb(0,0,0)" stroke="none" stroke-width="1"/><ellipse id="s73" rx="6.880000" ry="7.430000" transform="translate(231.380000,190.110000)" fill="rgb(0,0,0)" stroke="none" stroke-width="1"/></g><g id="s75"><line id="s77" x1="219.710000" y1="158.350000" x2="243.040000" y2="158.350000" fill="none" stroke="rgb(163,96,57)" stroke-width="8" stroke-linecap="round" stroke-miterlimit="10"/><line id="s79" x1="156.710000" y1="158.350000" x2="180.030000" y2="158.350000" fill="none" stroke="rgb(163,96,57)" stroke-width="8" stroke-linecap="round" stroke-miterlimit="10"/></g></g></g></svg>