<svg id="s1" xmlns="http://www.w3.org/2000/svg" xmlns:xlink="http://www.w3.org/1999/xlink" viewBox="0 0 400 400"><defs><linearGradient id="s13-fill" x1="97.920000" y1="242.490000" x2="74.260000" y2="147.580000" spreadMethod="pad" gradientUnits="userSpaceOnUse"><stop id="s13-fill-0" offset="2%" stop-color="rgb(163,193,247)"/><stop id="s13-fill-1" offset="100%" stop-color="rgb(179,215,255)"/></linearGradient><linearGradient id="s15-fill" x1="322.270000" y1="248.570000" x2="293.950000" y2="134.990000" spreadMethod="pad" gradientUnits="userSpaceOnUse"><stop id="s15-fill-0" offset="2%" stop-color="rgb(163,193,247)"/><stop id="s15-fill-1" offset="100%" stop-color="rgb(179,215,255)"/></linearGradient><linearGradient id="s17-fill" x1="222.980000" y1="395.080000" x2="176.320000" y2="109.750000" spreadMethod="pad" gradientUnits="userSpaceOnUse"><stop id="s17-fill-0" offset="1%" stop-color="rgb(50,106,199)"/><stop id="s17-fill-1" offset="100%" stop-color="rgb(96,166,235)"/></linearGradient><linearGradient id="s19-fill" x1="255.920000" y1="230.480000" x2="244.050000" y2="182.890000" spreadMethod="pad" gradientUnits="userSpaceOnUse"><stop id="s19-fill-0" offset="2%" stop-color="rgb(163,193,247)"/><stop id="s19-fill-1" offset="100%" stop-color="rgb(179,215,255)"/></linearGradient></defs><g id="s3"><g id="s5"><path id="s7" d="M182.070000,77.400000C186.533460,71.355041,193.668366,67.871594,201.180000,68.070000C213.350103,68.511066,223.121752,78.260912,223.590000,90.430000C223.934520,102.640595,214.673665,112.990446,202.500000,114C201.426792,114.042962,200.579140,114.925933,200.580000,116L200.580000,135" fill="none" stroke="rgb(255,211,128)" stroke-width="15" stroke-linecap="round" stroke-miterlimit="10"/><polyline id="s9" points="277.030000,165.620000 200.420000,135.060000 123.800000,165.620000" fill="none" stroke="rgb(255,211,128)" stroke-width="15" stroke-linecap="round" stroke-miterlimit="10"/></g><g id="s11"><path id="s13" d="M111.050000,149.460000L48.490000,179.750000C47.067594,180.435236,46.390551,182.082562,46.920000,183.570000L70.870000,251C71.153506,251.799568,71.753274,252.447409,72.528655,252.791602C73.304035,253.135796,74.186823,253.146064,74.970000,252.820000L129.880000,230.100000Z" fill="url(#s13-fill)" stroke="none" stroke-width="1"/><path id="s15" d="M288.950000,149.460000L351.510000,179.750000C352.932406,180.435236,353.609449,182.082562,353.080000,183.570000L329.130000,251C328.846494,251.799568,328.246726,252.447409,327.471345,252.791602C326.695965,253.135796,325.813177,253.146064,325.030000,252.820000L270.120000,230.100000Z" fill="url(#s15-fill)" stroke="none" stroke-width="1"/><path id="s17" d="M244,142.220000C242.506013,141.982468,241.047298,142.813644,240.490000,144.220000C233.888583,160.805966,217.841414,171.690506,199.990000,171.690506C182.138586,171.690506,166.091417,160.805966,159.490000,144.220000C158.932702,142.813644,157.473987,141.982468,155.980000,142.220000L111.040000,149.460000L108.220000,341.940000C108.203948,343.149140,108.673065,344.314294,109.522476,345.174980C110.371886,346.035666,111.530753,346.520107,112.740000,346.520000L287.250000,346.520000C288.459247,346.520107,289.618114,346.035666,290.467524,345.174980C291.316935,344.314294,291.786052,343.149140,291.770000,341.940000L288.950000,149.460000Z" fill="url(#s17-fill)" stroke="none" stroke-width="1"/><path id="s19" d="M226.180000,192.890000L226.180000,210.890000C226.939298,223.010403,236.990837,232.451954,249.135000,232.451954C261.279163,232.451954,271.330702,223.010403,272.090000,210.890000L272.090000,192.890000Z" fill="url(#s19-fill)" stroke="none" stroke-width="1"/></g></g></svg>