<svg id="eWpQ4C3XYZe1" xmlns="http://www.w3.org/2000/svg" xmlns:xlink="http://www.w3.org/1999/xlink" viewBox="0 0 400 400" shape-rendering="geometricPrecision" text-rendering="geometricPrecision"><g id="eWpQ4C3XYZe2"><g id="eWpQ4C3XYZe3"><path id="eWpQ4C3XYZe4" d="M206.300000,238.200000C161.800000,213.400000,143.300000,153.600000,122.200000,64.600000C174,111.200000,216.200000,161.300000,206.300000,238.200000Z" clip-rule="evenodd" fill="rgb(73,112,91)" fill-rule="evenodd" stroke="none" stroke-width="1"/><path id="eWpQ4C3XYZe5" d="M132,81.300000C155.200000,135.500000,178.300000,189.400000,206.300000,238.200000C175.200000,189.200000,152,135.300000,132,81.300000L132,81.300000Z" clip-rule="evenodd" fill="rgb(94,140,101)" fill-rule="evenodd" stroke="none" stroke-width="1"/></g><g id="eWpQ4C3XYZe6"><path id="eWpQ4C3XYZe7" d="M198.900000,258.200000C269.800000,244.700000,313.300000,190.700000,326,103C261.100000,149.600000,204.700000,185.500000,198.900000,258.200000Z" clip-rule="evenodd" fill="rgb(73,112,91)" fill-rule="evenodd" stroke="none" stroke-width="1"/><path id="eWpQ4C3XYZe8" d="M314.100000,131.100000C278.200000,179.800000,246.800000,217.400000,198.900000,258.200000C251.100000,220.400000,282.200000,180.100000,314.100000,131.100000Z" clip-rule="evenodd" fill="rgb(94,140,101)" fill-rule="evenodd" stroke="none" stroke-width="1"/></g><g id="eWpQ4C3XYZe9"><path id="eWpQ4C3XYZe10" d="M223.800000,240.300000C266.500000,212.500000,290.600000,152.900000,295.900000,61.400000C247.400000,111.500000,223.400000,171.100000,223.800000,240.300000Z" clip-rule="evenodd" fill="rgb(92,138,92)" fill-rule="evenodd" stroke="none" stroke-width="1"/><path id="eWpQ4C3XYZe11" d="M289.900000,80.900000C270.500000,136.500000,248.500000,189.600000,223.900000,240.300000C251.600000,189.300000,273.600000,136.200000,289.900000,80.900000L289.900000,80.900000Z" clip-rule="evenodd" fill="rgb(68,112,77)" fill-rule="evenodd" stroke="none" stroke-width="1"/></g><g id="eWpQ4C3XYZe12"><path id="eWpQ4C3XYZe13" d="M237.300000,234.200000C269.600000,239.400000,299.600000,224.500000,327.100000,189.600000C285.400000,191.200000,255.500000,206.100000,237.300000,234.200000L237.300000,234.200000Z" clip-rule="evenodd" fill="rgb(113,161,99)" fill-rule="evenodd" stroke="none" stroke-width="1"/><path id="eWpQ4C3XYZe14" d="M318.300000,195.200000C292.100000,210.200000,265.100000,223.200000,237.300000,234.200000C267,224.300000,294.100000,211.300000,318.300000,195.200000Z" clip-rule="evenodd" fill="rgb(68,112,77)" fill-rule="evenodd" stroke="none" stroke-width="1"/></g><g id="eWpQ4C3XYZe15"><path id="eWpQ4C3XYZe16" d="M204,237C148.500000,233,104.800000,196.700000,72.900000,128C141.200000,147,184.900000,183.300000,204,237Z" clip-rule="evenodd" fill="rgb(92,138,92)" fill-rule="evenodd" stroke="none" stroke-width="1"/><path id="eWpQ4C3XYZe17" d="M85.200000,140.700000C122.700000,175.800000,162.300000,207.900000,204,237C158.600000,208.900000,119,176.800000,85.200000,140.700000L85.200000,140.700000Z" clip-rule="evenodd" fill="rgb(113,161,99)" fill-rule="evenodd" stroke="none" stroke-width="1"/></g><g id="eWpQ4C3XYZe18"><path id="eWpQ4C3XYZe19" d="M211.700000,263C156.300000,197.700000,156.400000,115.500000,210,25C235.100000,116.400000,260.500000,191.500000,211.700000,263Z" clip-rule="evenodd" fill="rgb(113,161,99)" fill-rule="evenodd" stroke="none" stroke-width="1"/><path id="eWpQ4C3XYZe20" d="M200,59.800000C196.800000,131.500000,197.800000,189.700000,211.700000,263C191.600000,189.200000,193,128.800000,200,59.800000L200,59.800000Z" clip-rule="evenodd" fill="rgb(68,112,77)" fill-rule="evenodd" stroke="none" stroke-width="1"/></g><g id="eWpQ4C3XYZe21"><path id="eWpQ4C3XYZe22" d="M192.800000,243.200000C153.700000,249.500000,117.400000,231.500000,84.100000,189.200000C134.500000,191.100000,170.700000,209.100000,192.800000,243.200000Z" clip-rule="evenodd" fill="rgb(113,161,99)" fill-rule="evenodd" stroke="none" stroke-width="1"/><path id="eWpQ4C3XYZe23" d="M94.700000,195.900000C126.400000,214.100000,159.100000,229.800000,192.800000,243.200000C156.700000,231.100000,124,215.400000,94.700000,195.900000L94.700000,195.900000Z" clip-rule="evenodd" fill="rgb(68,112,77)" fill-rule="evenodd" stroke="none" stroke-width="1"/></g></g><g id="eWpQ4C3XYZe24"><path id="eWpQ4C3XYZe25" d="M279.600000,248.600000L131.100000,248.600000L131.100000,332.200000C131.100000,355.700000,150.400000,375,173.900000,375L236.900000,375C260.400000,375,279.700000,355.700000,279.700000,332.200000L279.700000,248.600000Z" clip-rule="evenodd" fill="rgb(238,198,66)" fill-rule="evenodd" stroke="none" stroke-width="1"/><path id="eWpQ4C3XYZe26" d="M131.100000,288.300000L131.100000,300.500000L132.100000,301.600000C132.200000,301.700000,132.200000,301.800000,132.300000,301.800000C134,303.400000,136.600000,303.300000,138.200000,301.600000L152.700000,286C157.500000,291.200000,162.500000,296.400000,167.200000,301.600000C167.300000,301.700000,167.400000,301.800000,167.400000,301.800000C169.100000,303.400000,171.700000,303.300000,173.300000,301.600000L187.800000,286C192.600000,291.200000,197.600000,296.400000,202.300000,301.600000C202.400000,301.700000,202.500000,301.800000,202.500000,301.800000C204.200000,303.400000,206.800000,303.300000,208.400000,301.600000L222.900000,286C227.700000,291.200000,232.700000,296.400000,237.400000,301.600000C237.500000,301.700000,237.600000,301.800000,237.600000,301.800000C239.300000,303.400000,241.900000,303.300000,243.500000,301.600000L258,286C262.800000,291.200000,267.800000,296.400000,272.500000,301.600000C272.600000,301.700000,272.600000,301.800000,272.700000,301.800000C274.400000,303.400000,277,303.300000,278.600000,301.600000L279.600000,300.500000L279.600000,288.300000L275.600000,292.600000L261.100000,277C259.500000,275.300000,256.900000,275.200000,255.200000,276.800000C255.100000,276.900000,255,277,255,277C250.300000,282.300000,245.300000,287.400000,240.500000,292.600000L226,277C224.400000,275.300000,221.800000,275.200000,220.100000,276.800000C220,276.900000,219.900000,277,219.900000,277C215.200000,282.300000,210.200000,287.400000,205.400000,292.600000L190.900000,277C189.300000,275.300000,186.700000,275.200000,185,276.800000C184.900000,276.900000,184.900000,277,184.800000,277C180.100000,282.300000,175.100000,287.400000,170.300000,292.600000L155.800000,277C154.200000,275.300000,151.600000,275.200000,149.900000,276.800000C149.800000,276.900000,149.800000,277,149.700000,277C144.900000,282.300000,140,287.400000,135.200000,292.600000L131.100000,288.300000L131.100000,288.300000Z" clip-rule="evenodd" fill="rgb(255,255,255)" fill-rule="evenodd" stroke="none" stroke-width="1"/><rect id="eWpQ4C3XYZe27" width="176.700000" height="17.600000" rx="0" ry="0" transform="matrix(1 0 0 1 117 231)" clip-rule="evenodd" fill="rgb(213,159,0)" fill-rule="evenodd" stroke="none" stroke-width="1"/></g></svg>