<svg id="eqz5EWZs0Cy1" xmlns="http://www.w3.org/2000/svg" xmlns:xlink="http://www.w3.org/1999/xlink" viewBox="0 0 400 400" shape-rendering="geometricPrecision" text-rendering="geometricPrecision"><g id="eqz5EWZs0Cy2"><path id="eqz5EWZs0Cy3" d="M205.500000,296.200000C206.600000,277.400000,208.300000,241.300000,203.800000,199.600000C199.300000,158,188.500000,111,164.600000,70.400000L166.600000,69.200000C190.700000,110.100000,201.600000,157.500000,206.100000,199.300000C210.600000,241.100000,208.900000,277.400000,207.800000,296.200000L205.500000,296.200000L205.500000,296.200000Z" fill="rgb(90,142,96)" stroke="none" stroke-width="1"/><g id="eqz5EWZs0Cy4"><path id="eqz5EWZs0Cy5" d="M168.400000,74.500000C155.300000,68.800000,146.600000,57.400000,142.400000,40.400000C157.100000,45.600000,167.400000,59,168.400000,74.500000Z" clip-rule="evenodd" fill="rgb(90,142,96)" fill-rule="evenodd" stroke="none" stroke-width="1"/><path id="eqz5EWZs0Cy6" d="M177.200000,91.300000C174.900000,79.100000,178.700000,67.300000,188.700000,56C192.400000,69,187.800000,82.900000,177.200000,91.300000Z" clip-rule="evenodd" fill="rgb(90,142,96)" fill-rule="evenodd" stroke="none" stroke-width="1"/><path id="eqz5EWZs0Cy7" d="M177.200000,91.300000C165.100000,93.900000,153.200000,90.200000,141.700000,80.400000C154.700000,76.500000,168.700000,80.800000,177.200000,91.300000Z" clip-rule="evenodd" fill="rgb(90,142,96)" fill-rule="evenodd" stroke="none" stroke-width="1"/><path id="eqz5EWZs0Cy8" d="M185.400000,110.600000C185.100000,98.200000,190.800000,87.200000,202.500000,77.600000C204,91.100000,197.200000,104.100000,185.400000,110.600000Z" clip-rule="evenodd" fill="rgb(90,142,96)" fill-rule="evenodd" stroke="none" stroke-width="1"/><path id="eqz5EWZs0Cy9" d="M185.800000,110.700000C174,114.500000,161.800000,112.100000,149.300000,103.600000C161.800000,98.300000,176.200000,101.200000,185.800000,110.700000Z" clip-rule="evenodd" fill="rgb(90,142,96)" fill-rule="evenodd" stroke="none" stroke-width="1"/><path id="eqz5EWZs0Cy10" d="M191.100000,128.300000C192.700000,116,200,106,213,98.300000C212.400000,111.800000,203.800000,123.600000,191.100000,128.300000Z" clip-rule="evenodd" fill="rgb(90,142,96)" fill-rule="evenodd" stroke="none" stroke-width="1"/><path id="eqz5EWZs0Cy11" d="M191.100000,128.300000C179.100000,131.500000,167.100000,128.400000,155.100000,119.200000C167.800000,114.800000,182,118.300000,191.100000,128.300000Z" clip-rule="evenodd" fill="rgb(90,142,96)" fill-rule="evenodd" stroke="none" stroke-width="1"/><path id="eqz5EWZs0Cy12" d="M197,151.700000C199,139.500000,206.700000,129.700000,220,122.500000C218.900000,136,209.900000,147.500000,197,151.700000Z" clip-rule="evenodd" fill="rgb(90,142,96)" fill-rule="evenodd" stroke="none" stroke-width="1"/><path id="eqz5EWZs0Cy13" d="M197,151.700000C184.700000,153.400000,173.200000,149,162.300000,138.400000C175.500000,135.500000,189.200000,140.700000,197,151.700000Z" clip-rule="evenodd" fill="rgb(90,142,96)" fill-rule="evenodd" stroke="none" stroke-width="1"/><path id="eqz5EWZs0Cy14" d="M201.800000,176C203,163.600000,209.900000,153.400000,222.800000,145.300000C222.500000,158.800000,214.300000,170.900000,201.800000,176Z" clip-rule="evenodd" fill="rgb(90,142,96)" fill-rule="evenodd" stroke="none" stroke-width="1"/><path id="eqz5EWZs0Cy15" d="M201.800000,176C189.400000,176.500000,178.300000,170.900000,168.600000,159.300000C182,157.700000,195.100000,164.300000,201.800000,176Z" clip-rule="evenodd" fill="rgb(90,142,96)" fill-rule="evenodd" stroke="none" stroke-width="1"/></g><path id="eqz5EWZs0Cy16" d="M197.500000,301.100000C187,282.500000,173.500000,265.700000,157,250.900000C140.500000,236.100000,120.900000,223.200000,98.400000,212.300000L99.400000,210.200000C122.100000,221.200000,141.900000,234.200000,158.600000,249.200000C175.300000,264.200000,189,281.100000,199.600000,300L197.500000,301.100000L197.500000,301.100000Z" fill="rgb(65,115,88)" stroke="none" stroke-width="1"/><g id="eqz5EWZs0Cy17"><path id="eqz5EWZs0Cy18" d="M104.500000,214.100000C88.400000,216.700000,73,211.100000,58.500000,197.400000C75.800000,193.200000,93.900000,199.800000,104.500000,214.100000Z" clip-rule="evenodd" fill="rgb(65,115,88)" fill-rule="evenodd" stroke="none" stroke-width="1"/><path id="eqz5EWZs0Cy19" d="M123.300000,224.700000C113.600000,214.400000,110,200.700000,112.700000,183.700000C124.100000,194,128.300000,210.200000,123.300000,224.700000Z" clip-rule="evenodd" fill="rgb(65,115,88)" fill-rule="evenodd" stroke="none" stroke-width="1"/><path id="eqz5EWZs0Cy20" d="M123.300000,224.700000C113.200000,234.600000,99.600000,238.400000,82.500000,236C92.500000,224.400000,108.600000,220,123.300000,224.700000L123.300000,224.700000Z" clip-rule="evenodd" fill="rgb(65,115,88)" fill-rule="evenodd" stroke="none" stroke-width="1"/><path id="eqz5EWZs0Cy21" d="M143,238.300000C135.100000,226.600000,133.800000,212.500000,139.200000,196.100000C148.800000,208.100000,150.300000,224.800000,143,238.300000Z" clip-rule="evenodd" fill="rgb(65,115,88)" fill-rule="evenodd" stroke="none" stroke-width="1"/><path id="eqz5EWZs0Cy22" d="M143.400000,238.100000C134.400000,249,121.200000,254.200000,104,253.700000C112.800000,241,128.300000,234.900000,143.400000,238.100000Z" clip-rule="evenodd" fill="rgb(65,115,88)" fill-rule="evenodd" stroke="none" stroke-width="1"/><path id="eqz5EWZs0Cy23" d="M159.400000,251.800000C153.300000,239,154.200000,224.900000,162,209.500000C169.700000,222.900000,168.700000,239.500000,159.400000,251.800000L159.400000,251.800000Z" clip-rule="evenodd" fill="rgb(65,115,88)" fill-rule="evenodd" stroke="none" stroke-width="1"/><path id="eqz5EWZs0Cy24" d="M159.400000,251.800000C149.800000,262.200000,136.400000,266.700000,119.200000,265.200000C128.700000,253.100000,144.500000,247.800000,159.400000,251.800000Z" clip-rule="evenodd" fill="rgb(65,115,88)" fill-rule="evenodd" stroke="none" stroke-width="1"/></g><path id="eqz5EWZs0Cy25" d="M207.400000,300.500000C209.800000,279.100000,214.700000,237.900000,227.700000,191.700000C240.700000,145.500000,261.900000,94.300000,296.900000,52.800000L298.700000,54.300000C264,95.500000,243,146.400000,230,192.300000C217,238.300000,212.100000,279.300000,209.700000,300.700000L207.400000,300.500000Z" fill="rgb(65,115,88)" stroke="none" stroke-width="1"/><g id="eqz5EWZs0Cy26"><path id="eqz5EWZs0Cy27" d="M293.700000,58.400000C309.600000,54.400000,321.500000,43.300000,329.500000,25C312,27.900000,297.900000,41.100000,293.700000,58.400000Z" clip-rule="evenodd" fill="rgb(65,115,88)" fill-rule="evenodd" stroke="none" stroke-width="1"/><path id="eqz5EWZs0Cy28" d="M280.600000,75.500000C285.500000,62.200000,283.500000,48.300000,274.300000,33.600000C267.800000,47.600000,270.300000,64.100000,280.600000,75.500000Z" clip-rule="evenodd" fill="rgb(65,115,88)" fill-rule="evenodd" stroke="none" stroke-width="1"/><path id="eqz5EWZs0Cy29" d="M280.600000,75.500000C293.800000,80.700000,307.800000,78.800000,322.600000,70C308.800000,63.200000,292.200000,65.400000,280.600000,75.500000Z" clip-rule="evenodd" fill="rgb(65,115,88)" fill-rule="evenodd" stroke="none" stroke-width="1"/><path id="eqz5EWZs0Cy30" d="M267.800000,95.800000C270.500000,81.900000,266.200000,68.500000,254.800000,55.500000C250.600000,70.200000,255.700000,86.100000,267.800000,95.800000Z" clip-rule="evenodd" fill="rgb(65,115,88)" fill-rule="evenodd" stroke="none" stroke-width="1"/><path id="eqz5EWZs0Cy31" d="M267.300000,95.700000C279.900000,102.200000,294,101.900000,309.700000,94.600000C296.600000,86.500000,279.900000,86.900000,267.300000,95.700000Z" clip-rule="evenodd" fill="rgb(65,115,88)" fill-rule="evenodd" stroke="none" stroke-width="1"/><path id="eqz5EWZs0Cy32" d="M257.900000,114.600000C258.500000,100.500000,252.200000,87.800000,239,76.700000C237.100000,92,244.600000,106.900000,257.900000,114.600000Z" clip-rule="evenodd" fill="rgb(65,115,88)" fill-rule="evenodd" stroke="none" stroke-width="1"/><path id="eqz5EWZs0Cy33" d="M257.900000,114.600000C270.800000,120.400000,284.900000,119.300000,300.200000,111.200000C286.700000,103.800000,270.100000,105.100000,257.900000,114.600000L257.900000,114.600000Z" clip-rule="evenodd" fill="rgb(65,115,88)" fill-rule="evenodd" stroke="none" stroke-width="1"/><path id="eqz5EWZs0Cy34" d="M246.800000,139.800000C246.900000,125.600000,240.100000,113.200000,226.500000,102.600000C225.200000,118,233.200000,132.700000,246.800000,139.800000Z" clip-rule="evenodd" fill="rgb(65,115,88)" fill-rule="evenodd" stroke="none" stroke-width="1"/><path id="eqz5EWZs0Cy35" d="M246.800000,139.800000C260.300000,144.100000,274.100000,141.300000,288.400000,131.500000C274.100000,125.700000,257.700000,128.900000,246.800000,139.800000Z" clip-rule="evenodd" fill="rgb(65,115,88)" fill-rule="evenodd" stroke="none" stroke-width="1"/><path id="eqz5EWZs0Cy36" d="M236.900000,166.200000C237.900000,152.100000,232,139.200000,219.200000,127.700000C216.800000,142.900000,223.800000,158.100000,236.900000,166.200000Z" clip-rule="evenodd" fill="rgb(65,115,88)" fill-rule="evenodd" stroke="none" stroke-width="1"/><path id="eqz5EWZs0Cy37" d="M236.900000,166.200000C250.700000,169.100000,264.300000,165,277.400000,153.800000C262.600000,149.400000,246.700000,154.300000,236.900000,166.200000L236.900000,166.200000Z" clip-rule="evenodd" fill="rgb(65,115,88)" fill-rule="evenodd" stroke="none" stroke-width="1"/></g><path id="eqz5EWZs0Cy38" d="M225.500000,300.100000C229.700000,280,237.100000,260.800000,247.900000,242.600000C258.700000,224.300000,272.700000,207,290.100000,190.500000L291.700000,192.200000C274.500000,208.500000,260.600000,225.700000,249.900000,243.800000C239.300000,261.900000,231.900000,280.800000,227.800000,300.600000L225.500000,300.100000L225.500000,300.100000Z" fill="rgb(120,166,104)" stroke="none" stroke-width="1"/><g id="eqz5EWZs0Cy39"><path id="eqz5EWZs0Cy40" d="M286.600000,195.400000C301.900000,193.100000,314.100000,183.600000,323.300000,167.100000C306.500000,168.300000,292.100000,179.500000,286.600000,195.400000Z" clip-rule="evenodd" fill="rgb(120,166,104)" fill-rule="evenodd" stroke="none" stroke-width="1"/><path id="eqz5EWZs0Cy41" d="M272.700000,210.400000C278.500000,198.300000,277.800000,185,270.500000,170.300000C263.200000,182.900000,264,198.700000,272.700000,210.400000Z" clip-rule="evenodd" fill="rgb(120,166,104)" fill-rule="evenodd" stroke="none" stroke-width="1"/><path id="eqz5EWZs0Cy42" d="M272.700000,210.400000C284.700000,216.400000,298,215.900000,312.800000,208.900000C300.400000,201.300000,284.600000,201.900000,272.700000,210.400000Z" clip-rule="evenodd" fill="rgb(120,166,104)" fill-rule="evenodd" stroke="none" stroke-width="1"/><path id="eqz5EWZs0Cy43" d="M258.900000,228.300000C262.700000,215.400000,259.800000,202.400000,250.200000,189.100000C244.900000,202.800000,248.300000,218.200000,258.900000,228.300000L258.900000,228.300000Z" clip-rule="evenodd" fill="rgb(120,166,104)" fill-rule="evenodd" stroke="none" stroke-width="1"/><path id="eqz5EWZs0Cy44" d="M258.400000,228.300000C269.700000,235.600000,283,236.500000,298.400000,231C286.900000,222.100000,271.100000,221,258.400000,228.300000Z" clip-rule="evenodd" fill="rgb(120,166,104)" fill-rule="evenodd" stroke="none" stroke-width="1"/><path id="eqz5EWZs0Cy45" d="M247.900000,245.200000C249.700000,231.900000,244.900000,219.500000,233.400000,207.800000C230.300000,222.100000,236,236.800000,247.900000,245.200000Z" clip-rule="evenodd" fill="rgb(120,166,104)" fill-rule="evenodd" stroke="none" stroke-width="1"/><path id="eqz5EWZs0Cy46" d="M247.900000,245.200000C259.500000,251.800000,272.900000,252,288,245.700000C276,237.500000,260.200000,237.300000,247.900000,245.200000L247.900000,245.200000Z" clip-rule="evenodd" fill="rgb(120,166,104)" fill-rule="evenodd" stroke="none" stroke-width="1"/><path id="eqz5EWZs0Cy47" d="M239.400000,261.400000C240.400000,248,234.900000,235.900000,222.700000,224.900000C220.400000,239.300000,227,253.700000,239.400000,261.400000Z" clip-rule="evenodd" fill="rgb(120,166,104)" fill-rule="evenodd" stroke="none" stroke-width="1"/><path id="eqz5EWZs0Cy48" d="M239.400000,261.400000C251.400000,267.300000,264.800000,266.700000,279.500000,259.600000C266.900000,252.100000,251.200000,252.800000,239.400000,261.400000Z" clip-rule="evenodd" fill="rgb(120,166,104)" fill-rule="evenodd" stroke="none" stroke-width="1"/></g><path id="eqz5EWZs0Cy49" d="M200.500000,300.500000C200.300000,275.300000,195.900000,250.300000,187.300000,225.600000C178.700000,200.900000,165.900000,176.500000,148.800000,152.300000L150.700000,151C167.900000,175.300000,180.800000,199.900000,189.500000,224.800000C198.200000,249.700000,202.700000,274.900000,202.900000,300.400000L200.500000,300.500000L200.500000,300.500000Z" fill="rgb(120,166,104)" stroke="none" stroke-width="1"/><g id="eqz5EWZs0Cy50"><path id="eqz5EWZs0Cy51" d="M153.900000,157.700000C135.800000,151.100000,123.200000,136.600000,116,114.200000C136.200000,119.800000,151.200000,136.900000,153.900000,157.700000Z" clip-rule="evenodd" fill="rgb(120,166,104)" fill-rule="evenodd" stroke="none" stroke-width="1"/><path id="eqz5EWZs0Cy52" d="M167.200000,179.400000C163,163.300000,167.100000,147.100000,179.600000,131C185.600000,148.200000,180.700000,167.300000,167.200000,179.400000L167.200000,179.400000Z" clip-rule="evenodd" fill="rgb(120,166,104)" fill-rule="evenodd" stroke="none" stroke-width="1"/><path id="eqz5EWZs0Cy53" d="M167.200000,179.400000C151.100000,183.900000,134.900000,180,118.600000,167.800000C135.700000,161.600000,154.800000,166.100000,167.200000,179.400000Z" clip-rule="evenodd" fill="rgb(120,166,104)" fill-rule="evenodd" stroke="none" stroke-width="1"/><path id="eqz5EWZs0Cy54" d="M179.800000,204.700000C178.300000,188.100000,185,172.800000,200,159C203.100000,176.900000,195.100000,194.900000,179.800000,204.700000Z" clip-rule="evenodd" fill="rgb(120,166,104)" fill-rule="evenodd" stroke="none" stroke-width="1"/><path id="eqz5EWZs0Cy55" d="M180.400000,204.700000C164.900000,210.800000,148.400000,208.700000,130.900000,198.300000C147.100000,190.300000,166.700000,192.800000,180.400000,204.700000Z" clip-rule="evenodd" fill="rgb(120,166,104)" fill-rule="evenodd" stroke="none" stroke-width="1"/><path id="eqz5EWZs0Cy56" d="M189.100000,228C190.100000,211.400000,199,197.300000,215.900000,185.800000C216.200000,204,205.700000,220.600000,189.100000,228L189.100000,228Z" clip-rule="evenodd" fill="rgb(120,166,104)" fill-rule="evenodd" stroke="none" stroke-width="1"/><path id="eqz5EWZs0Cy57" d="M189.100000,228C173.300000,233.300000,156.900000,230.300000,140,218.900000C156.600000,211.800000,176,215.400000,189.100000,228L189.100000,228Z" clip-rule="evenodd" fill="rgb(120,166,104)" fill-rule="evenodd" stroke="none" stroke-width="1"/><path id="eqz5EWZs0Cy58" d="M195.600000,249.800000C197.600000,233.200000,207.300000,219.700000,224.800000,209.300000C224.100000,227.500000,212.600000,243.400000,195.600000,249.800000Z" clip-rule="evenodd" fill="rgb(120,166,104)" fill-rule="evenodd" stroke="none" stroke-width="1"/><path id="eqz5EWZs0Cy59" d="M195.600000,249.800000C179.500000,254.100000,163.300000,250.100000,147.100000,237.800000C164.200000,231.700000,183.300000,236.500000,195.600000,249.800000Z" clip-rule="evenodd" fill="rgb(120,166,104)" fill-rule="evenodd" stroke="none" stroke-width="1"/></g></g><g id="eqz5EWZs0Cy60"><path id="eqz5EWZs0Cy61" d="M156.500000,307.800000L259,307.800000L259,345.300000C259,361.600000,247.900000,375,234.300000,375L181.300000,375C167.700000,375,156.600000,361.600000,156.600000,345.300000L156.600000,307.800000Z" clip-rule="evenodd" fill="rgb(232,160,163)" fill-rule="evenodd" stroke="none" stroke-width="1"/><polygon id="eqz5EWZs0Cy62" points="259,315.100000 259,318.500000 156.500000,318.500000 156.500000,315.100000" clip-rule="evenodd" fill="rgb(255,255,255)" fill-rule="evenodd" stroke="none" stroke-width="1"/><path id="eqz5EWZs0Cy63" d="M259,333.300000L259,341.800000L258.300000,342.600000C258.300000,342.600000,258.200000,342.700000,258.200000,342.700000C257,343.800000,255.200000,343.700000,254.100000,342.600000L244.100000,331.700000C240.800000,335.300000,237.300000,338.900000,234.100000,342.600000C234.100000,342.600000,234,342.700000,234,342.700000C232.800000,343.800000,231,343.700000,229.900000,342.600000L219.900000,331.700000C216.600000,335.300000,213.100000,338.900000,209.900000,342.600000C209.900000,342.600000,209.800000,342.700000,209.800000,342.700000C208.600000,343.800000,206.800000,343.700000,205.700000,342.600000L195.700000,331.700000C192.400000,335.300000,188.900000,338.900000,185.700000,342.600000C185.700000,342.600000,185.600000,342.700000,185.600000,342.700000C184.400000,343.800000,182.600000,343.700000,181.500000,342.600000L171.500000,331.700000C168.200000,335.300000,164.700000,338.900000,161.500000,342.600000C161.500000,342.600000,161.400000,342.700000,161.400000,342.700000C160.200000,343.800000,158.400000,343.700000,157.300000,342.600000L156.600000,341.800000L156.600000,333.300000L159.400000,336.300000L169.400000,325.400000C170.500000,324.200000,172.300000,324.200000,173.400000,325.300000C173.500000,325.300000,173.500000,325.400000,173.500000,325.400000C176.800000,329.100000,180.200000,332.700000,183.500000,336.300000L193.500000,325.400000C194.600000,324.200000,196.400000,324.200000,197.500000,325.300000C197.600000,325.300000,197.600000,325.400000,197.600000,325.400000C200.900000,329.100000,204.300000,332.700000,207.600000,336.300000L217.600000,325.400000C218.700000,324.200000,220.500000,324.200000,221.600000,325.300000C221.700000,325.300000,221.700000,325.400000,221.800000,325.400000C225.100000,329.100000,228.500000,332.700000,231.800000,336.300000L241.800000,325.400000C242.900000,324.200000,244.700000,324.200000,245.800000,325.300000C245.900000,325.300000,245.900000,325.400000,246,325.400000C249.300000,329.100000,252.700000,332.700000,256,336.300000L259,333.300000L259,333.300000Z" clip-rule="evenodd" fill="rgb(255,255,255)" fill-rule="evenodd" stroke="none" stroke-width="1"/><rect id="eqz5EWZs0Cy64" width="107.900000" height="12.200000" rx="0" ry="0" transform="matrix(1 0 0 1 153.80000000000001 295.60000000000002)" clip-rule="evenodd" fill="rgb(214,97,103)" fill-rule="evenodd" stroke="none" stroke-width="1"/></g></svg>