<svg id="s1" xmlns="http://www.w3.org/2000/svg" xmlns:xlink="http://www.w3.org/1999/xlink" viewBox="0 0 400 400"><g id="s3"><path id="s5" d="M204.140000,269.700000C212.140000,287.630000,244.190000,307.290000,248.290000,305.220000C260.400000,299.360000,268.670000,281.120000,266.600000,277.500000C264.530000,273.880000,237.600000,263.860000,237.600000,263.860000C225.050000,257.800000,197.540000,253.140000,204.140000,269.700000Z" fill="rgb(134,180,196)" stroke="none" stroke-width="1"/><path id="s7" d="M157.890000,174.290000C169.650000,156.110000,212.120000,141.400000,221.080000,141.060000C227.980000,142.790000,222.080000,181.180000,221.080000,183.480000C216.430000,194.180000,151.650000,187,157.890000,174.290000Z" fill="rgb(134,180,196)" stroke="none" stroke-width="1"/><g id="s9"><path id="s11" d="M354.880000,224.770000C332.010000,241.530000,307.070000,231.100000,308.180000,226.550000C314.420000,203.710000,359.180000,180.470000,372.590000,182.370000C381.540000,183.660000,367.920000,215.220000,354.880000,224.770000Z" fill="rgb(134,180,196)" stroke="none" stroke-width="1"/><path id="s13" d="M354.880000,228.340000C332.010000,211.580000,307.070000,222.010000,308.180000,226.560000C314.420000,249.400000,359.180000,272.640000,372.590000,270.740000C381.540000,269.450000,367.920000,237.890000,354.880000,228.340000Z" fill="rgb(134,180,196)" stroke="none" stroke-width="1"/></g><g id="s15"><path id="s17" d="M321.470000,229C279.340000,174.370000,124.370000,133.170000,40.020000,231.920000C36.590000,235.920000,39.940000,237.920000,41.340000,239.050000C98.520000,285.600000,212.170000,298.390000,321.470000,229Z" fill="rgb(134,180,196)" stroke="none" stroke-width="1"/><circle id="s19" r="6.160000" transform="translate(81.850000,220.560000)" fill="rgb(29,57,69)" stroke="none" stroke-width="1"/><path id="s21" d="M98.910000,187.850000C108.210000,196.850000,126.550000,242.620000,104.740000,270.060000C164.850000,286,244.250000,278,321.470000,229C287.930000,185.490000,182.910000,150.520000,98.910000,187.850000Z" fill="rgb(104,156,173)" stroke="none" stroke-width="1"/></g></g></svg>