<svg id="s1" xmlns="http://www.w3.org/2000/svg" xmlns:xlink="http://www.w3.org/1999/xlink" viewBox="0 0 400 400"><g id="s3"><path id="s5" d="M282,242C295.650000,249.540000,299.710000,266.300000,308.250000,289.750000C311.770000,299.420000,312.170000,306.290000,310,307.130000C305.830000,308.740000,304,299.630000,304,291.630000C304,283.630000,290.130000,247.880000,275.880000,246.630000C270.580000,246.190000,270.570000,235.720000,282,242Z" fill="rgb(250,192,98)" stroke="none" stroke-width="1"/><g id="s7"><path id="s9" d="M219.580000,261.190000C220,286.970000,233.580000,299.280000,245.080000,305.190000C256.580000,311.100000,268.410000,305.680000,262.250000,291.730000C256.090000,277.780000,264.630000,248.890000,247.750000,244.940000C234.420000,241.820000,219.420000,250.840000,219.580000,261.190000Z" fill="rgb(230,154,70)" stroke="none" stroke-width="1"/><path id="s11" d="M238.080000,299.930000C244.910000,307.320000,252.750000,307.650000,257.580000,310.760000C262.410000,313.870000,275.910000,314.540000,275.080000,302.760000C275.080000,297.840000,268.910000,301.610000,262.750000,292.580000C256.250000,283.390000,251.420000,286.830000,246.420000,288.310000C241.420000,289.790000,232.750000,293.690000,238.080000,299.930000Z" fill="rgb(230,154,70)" stroke="none" stroke-width="1"/><path id="s13" d="M256.750000,309C259.080000,317.210000,263.250000,355.130000,262.750000,362.680000C262.580000,366.620000,277.080000,367.930000,277.920000,362.520000C278.090000,352.010000,275.750000,306.380000,275.090000,302.770000C273.750000,301.410000,255.750000,305.510000,256.750000,309Z" fill="rgb(230,154,70)" stroke="none" stroke-width="1"/><path id="s15" d="M262.880000,359.640000C263.130000,362.960000,256.760000,365.550000,256.760000,369.370000C256.760000,373.190000,267.390000,371.960000,271.890000,371.830000C276.390000,371.700000,278.020000,370.830000,277.890000,367.030000C277.890000,362.030000,278.700000,358.170000,273.080000,357.920000C267.460000,357.670000,263,357.470000,262.880000,359.640000Z" fill="rgb(230,154,70)" stroke="none" stroke-width="1"/></g><g id="s17"><path id="s19" d="M150.920000,259.660000C153.760000,277.170000,161.670000,304.200000,162.920000,316.020000C164.170000,327.840000,180.340000,334.160000,180.590000,313.720000C180.840000,293.280000,186.670000,268.150000,185.920000,258.300000C185.170000,248.450000,175.920000,244.300000,167.920000,243.770000C159.920000,243.240000,148.920000,247.350000,150.920000,259.660000Z" fill="rgb(230,154,70)" stroke="none" stroke-width="1"/><path id="s21" d="M162.250000,312.580000C164.250000,329.820000,167.750000,357.160000,165,362.580000C162.250000,368,168.420000,369.950000,175.670000,370.200000C182.920000,370.450000,184.610000,369.200000,183.500000,359.140000C182.060000,346.080000,181.500000,322.930000,181,315.050000C180.500000,307.170000,174.500000,306.430000,171,306.430000C167.500000,306.430000,161.500000,308.150000,162.250000,312.580000Z" fill="rgb(230,154,70)" stroke="none" stroke-width="1"/><path id="s23" d="M166.380000,357.940000C166.130000,361.390000,156.450000,366.060000,157.010000,370.010000C157.430000,373.010000,182.820000,372.160000,183.840000,369.640000C184.510000,368,183.620000,360.770000,183.510000,359.300000C183.130000,354.370000,166.630000,352.520000,166.380000,357.940000Z" fill="rgb(230,154,70)" stroke="none" stroke-width="1"/></g><g id="s25"><path id="s27" d="M161.750000,259.900000C164.590000,277.680000,172.500000,305.110000,173.750000,317.110000C175,329.110000,191.170000,335.530000,191.420000,314.780000C191.670000,294.030000,197.500000,268.530000,196.750000,258.530000C196,248.530000,186.750000,244.280000,178.750000,243.780000C170.750000,243.280000,159.750000,247.400000,161.750000,259.900000Z" fill="rgb(250,192,98)" stroke="none" stroke-width="1"/><path id="s29" d="M173.080000,313.610000C175.080000,331.110000,178.580000,358.860000,175.830000,364.360000C173.080000,369.860000,179.250000,371.840000,186.500000,372.090000C193.750000,372.340000,195.440000,371.030000,194.330000,360.860000C192.890000,347.600000,192.330000,324.110000,191.830000,316.110000C191.330000,308.110000,185.330000,307.360000,181.830000,307.360000C178.330000,307.360000,172.330000,309.110000,173.080000,313.610000Z" fill="rgb(250,192,98)" stroke="none" stroke-width="1"/><path id="s31" d="M177.210000,359.650000C176.960000,363.150000,167.280000,367.900000,167.840000,371.900000C168.260000,374.900000,193.650000,374.080000,194.670000,371.530000C195.340000,369.860000,194.450000,362.530000,194.340000,361.030000C194,356,177.460000,354.150000,177.210000,359.650000Z" fill="rgb(250,192,98)" stroke="none" stroke-width="1"/></g><g id="s33"><path id="s35" d="M243.080000,261.440000C243.500000,287.610000,257.080000,300.110000,268.580000,306.110000C280.080000,312.110000,291.910000,306.610000,285.750000,292.440000C279.590000,278.270000,288.130000,248.950000,271.250000,244.940000C257.920000,241.780000,242.920000,250.940000,243.080000,261.440000Z" fill="rgb(250,192,98)" stroke="none" stroke-width="1"/><path id="s37" d="M261.580000,300.780000C268.410000,308.280000,276.250000,308.610000,281.080000,311.780000C285.910000,314.950000,299.410000,315.610000,298.580000,303.610000C298.580000,298.610000,292.410000,302.440000,286.250000,293.280000C279.750000,283.950000,274.920000,287.450000,269.920000,288.950000C264.920000,290.450000,256.250000,294.440000,261.580000,300.780000Z" fill="rgb(250,192,98)" stroke="none" stroke-width="1"/><path id="s39" d="M280.250000,309.940000C282.580000,318.270000,286.750000,356.770000,286.250000,364.440000C286.080000,368.440000,300.580000,369.770000,301.420000,364.270000C301.590000,353.600000,299.250000,307.270000,298.590000,303.600000C297.250000,302.280000,279.250000,306.440000,280.250000,309.940000Z" fill="rgb(250,192,98)" stroke="none" stroke-width="1"/><path id="s41" d="M286.380000,361.400000C286.630000,364.780000,280.260000,367.400000,280.260000,371.280000C280.260000,375.160000,290.890000,373.910000,295.390000,373.780000C299.890000,373.650000,301.520000,372.780000,301.390000,368.910000C301.390000,363.790000,302.200000,359.910000,296.580000,359.660000C290.960000,359.410000,286.500000,359.190000,286.380000,361.400000Z" fill="rgb(250,192,98)" stroke="none" stroke-width="1"/></g><g id="s43"><path id="s45" d="M150,256.280000C159.500000,272.530000,176,277.030000,217,279.780000C258,282.530000,281,283.780000,284,268.280000C287,252.780000,285.500000,230.280000,269.750000,223.780000C254,217.280000,209.590000,205.830000,196.750000,199.780000C185.880000,194.660000,154.870000,189.340000,146.580000,201.280000C140.140000,210.570000,140.500000,240,150,256.280000Z" fill="rgb(250,192,98)" stroke="none" stroke-width="1"/><path id="s47" d="M205.920000,220.110000C216.250000,222.440000,226.590000,217.650000,226.590000,214.440000C226.431002,212.680086,225.895576,210.974908,225.020000,209.440000C217.820000,207.250000,211.020000,205.120000,205.600000,203.220000C202.850000,209.250000,197,218.100000,205.920000,220.110000Z" fill="rgb(120,78,36)" stroke="none" stroke-width="1"/><path id="s49" d="M231.750000,226.110000C229.630000,221.870000,225.920000,218.280000,221.080000,224.110000C216.240000,229.940000,210.580000,229.780000,214.080000,236.780000C217.580000,243.780000,239.080000,240.780000,231.750000,226.110000Z" fill="rgb(120,78,36)" stroke="none" stroke-width="1"/><path id="s51" d="M200.930000,235.410000C201.190000,231.300000,199.690000,225.740000,193.030000,229.060000C186.370000,232.380000,184.740000,233.840000,189.100000,239.010000C193.460000,244.180000,200.490000,242.280000,200.930000,235.410000Z" fill="rgb(120,78,36)" stroke="none" stroke-width="1"/><path id="s53" d="M265.540000,222.170000C259.380000,219.940000,250.940000,217.310000,241.980000,214.580000C237.550000,217.300000,234.600000,226.070000,242.250000,226.780000C251.250000,227.610000,251.920000,232.450000,255.080000,237.450000C258,242.090000,273.210000,235.210000,265.540000,222.170000Z" fill="rgb(120,78,36)" stroke="none" stroke-width="1"/><path id="s55" d="M247.920000,238.110000C245.720000,236.060000,238.130000,237.990000,239.460000,244.990000C240.790000,251.990000,258,247.490000,247.920000,238.110000Z" fill="rgb(120,78,36)" stroke="none" stroke-width="1"/><path id="s57" d="M283.320000,240.470000C281.320000,233.650000,277.600000,227.790000,271.450000,224.580000C271.053409,227.094135,271.213856,229.664694,271.920000,232.110000C273.580000,237.560000,276.840000,243.260000,283.320000,240.470000Z" fill="rgb(120,78,36)" stroke="none" stroke-width="1"/></g><g id="s59"><path id="s61" d="M171.500000,146C167.500000,119,157,72,154.500000,64.750000C152,57.500000,138,57.600000,134,64.900000C131.630000,69.280000,131.250000,75.780000,132.750000,95.780000C135.250000,117.280000,138,158.530000,139.750000,180.530000C140.570000,190.850000,140.750000,204.580000,141.750000,217.930000C143.750000,237.780000,160.750000,237.840000,175.820000,234.780000C193.240000,231.250000,208.700000,205.030000,196.740000,199.780000C185.880000,194.650000,175.500000,173,171.500000,146Z" fill="rgb(250,192,98)" stroke="none" stroke-width="1"/><path id="s63" d="M155.420000,170C152.780000,170.590000,145.090000,165.750000,144.170000,169.170000C143.250000,172.590000,144.670000,175.670000,147.670000,181.670000C150.670000,187.670000,151.090000,191.840000,158,188.750000C164.910000,185.660000,165.750000,184.580000,165.170000,177.920000C164.590000,171.260000,163.680000,168.190000,155.420000,170Z" fill="rgb(120,78,36)" stroke="none" stroke-width="1"/><path id="s65" d="M180.330000,184.190000C181.220000,183.830000,181.970000,183.510000,182.600000,183.190000C179.937025,177.855878,177.748585,172.297777,176.060000,166.580000C174.240000,167.930000,172.440000,169.400000,173.060000,175.580000C174,183.780000,176.420000,185.780000,180.330000,184.190000Z" fill="rgb(120,78,36)" stroke="none" stroke-width="1"/><path id="s67" d="M171.650000,147C171.650000,146.680000,171.550000,146.370000,171.500000,146C170.740000,140.900000,169.760000,135.090000,168.640000,129C165.400000,127.320000,159.200000,127.180000,157.170000,130.690000C155,134.440000,158.500000,137.190000,152.670000,138.360000C146.840000,139.530000,143.090000,143.940000,145.670000,150.940000C148.110000,157.560000,160.180000,160,171.650000,147Z" fill="rgb(120,78,36)" stroke="none" stroke-width="1"/><path id="s69" d="M167.170000,121.210000C165.020000,110.030000,162.570000,98.400000,160.370000,88.550000C158.820000,89.180000,157.130000,90.970000,154.660000,92.940000C151.330000,95.610000,147.990000,97.520000,149.740000,103.860000C151.490000,110.200000,152.410000,113.860000,153.320000,117.110000C154.230000,120.360000,156.490000,121.860000,161.240000,121.440000C163.205275,121.179815,165.190476,121.102817,167.170000,121.210000Z" fill="rgb(120,78,36)" stroke="none" stroke-width="1"/><path id="s71" d="M134.400000,112.190000C134.830000,116.990000,135.270000,122.130000,135.690000,127.390000C138.870000,129.160000,142.690000,129.300000,144.690000,128.110000C147.440000,126.440000,145.770000,118.690000,144.770000,114.530000C143.860000,110.810000,138.460000,112.390000,134.400000,112.190000Z" fill="rgb(120,78,36)" stroke="none" stroke-width="1"/><path id="s73" d="M183.250000,195.530000C179.650000,191.840000,167.250000,191.030000,165.250000,200.280000C163.250000,209.530000,162.250000,210.530000,160.250000,214.780000C158.250000,219.030000,164,225.780000,176.750000,221.030000C189.500000,216.280000,192.750000,205.280000,183.250000,195.530000Z" fill="rgb(120,78,36)" stroke="none" stroke-width="1"/><path id="s75" d="M140.570000,195.090000C140.770000,199.510000,140.960000,204.160000,141.210000,208.870000C146.490000,213.790000,153.420000,210.030000,153.210000,203.770000C153.100000,198.060000,145.100000,197.240000,140.570000,195.090000Z" fill="rgb(120,78,36)" stroke="none" stroke-width="1"/></g><g id="s77"><path id="s79" d="M137.650000,50.800000C141.890000,48.430000,142.300000,37.620000,141.880000,33.940000C141.460000,30.260000,151.720000,32.320000,150.340000,35.450000C148.960000,38.580000,145.710000,48.320000,146.270000,52.160000C148,57.280000,136.090000,57.270000,137.650000,50.800000Z" fill="rgb(120,78,36)" stroke="none" stroke-width="1"/><path id="s81" d="M132.130000,46C145.130000,45.540000,153.870000,52.230000,156.130000,59.130000C158.510000,66.380000,160.070000,78.620000,147.130000,84.590000C134.190000,90.560000,113.740000,97.720000,108.200000,98.810000C102.660000,99.900000,94.390000,92.620000,95.830000,86.750000C97.270000,80.880000,109.450000,70.990000,114.830000,60.750000C120.210000,50.510000,126.860000,46.210000,132.130000,46Z" fill="rgb(250,192,98)" stroke="none" stroke-width="1"/><ellipse id="s83" rx="3.830000" ry="2.580000" transform="translate(46.100000,187.660000) rotate(-87.030004) scale(1,1) translate(121.870000,69.560000)" fill="rgb(74,52,48)" stroke="none" stroke-width="1"/><path id="s85" d="M150.240000,54.280000C153.560000,44.690000,155.990000,33.740000,168.710000,35.490000C181.430000,37.240000,181.900000,38.280000,175.870000,45.620000C169.840000,52.960000,162.430000,58.320000,156,60C149.570000,61.680000,149.350000,56.870000,150.240000,54.280000Z" fill="rgb(250,192,98)" stroke="none" stroke-width="1"/></g></g></svg>