<svg id="s1" xmlns="http://www.w3.org/2000/svg" xmlns:xlink="http://www.w3.org/1999/xlink" viewBox="0 0 400 400"><defs><clipPath id="s3"><path id="s5" d="M143.280000,248.720000C154.410000,227.490000,195.070000,194.600000,248.930000,195.900000C302.790000,197.200000,362.350000,237.330000,367.270000,290.670000C179.800000,297.400000,170.220000,296.370000,170.220000,296.370000C170.220000,296.370000,148.460000,274.350000,143.280000,248.720000Z" fill="none" stroke="none" stroke-width="1"/></clipPath></defs><g id="s7"><path id="s9" d="M295.810000,300.250000C295.550000,311.900000,295.810000,365.500000,292.960000,367.830000C290.110000,370.160000,258.260000,370.420000,255.960000,365.500000C253.660000,360.580000,254.790000,336.500000,255.440000,326.140000C257.480000,293,293.740000,282.380000,295.810000,300.250000Z" fill="rgb(156,156,61)" stroke="none" stroke-width="1"/><path id="s11" d="M154.430000,300.250000C154.170000,311.900000,154.430000,365.500000,151.580000,367.830000C148.730000,370.160000,116.880000,370.420000,114.580000,365.500000C112.280000,360.580000,113.410000,336.500000,114.060000,326.140000C116.100000,293,152.350000,282.380000,154.430000,300.250000Z" fill="rgb(156,156,61)" stroke="none" stroke-width="1"/><path id="s13" d="M121.790000,284.710000C118.160000,302.840000,130.340000,344.010000,160.110000,344.010000C189.880000,344.010000,322.470000,345.010000,341.110000,345.300000C359.750000,345.590000,379.690000,290.150000,355.610000,273.060000C331.530000,255.970000,123.600000,234,121.790000,284.710000Z" fill="rgb(102,135,8)" stroke="none" stroke-width="1"/><path id="s15" d="M69.230000,241.720000C59.320000,241.210000,48.230000,249.720000,50.850000,267.100000C53.470000,284.480000,53.180000,285.230000,61.470000,289.630000C69.760000,294.030000,69.470000,303.090000,78.040000,308.530000C86.610000,313.970000,131.040000,315.610000,155.720000,313.880000C183.230000,311.960000,176.610000,258.810000,125.720000,270.210000C107.080000,271.210000,92.320000,266.840000,88.950000,254.930000C85.580000,243.020000,78.540000,242.200000,69.230000,241.720000Z" fill="rgb(176,176,77)" stroke="none" stroke-width="1"/><g id="s17"><path id="s19" d="M143.280000,248.720000C154.410000,227.490000,195.070000,194.600000,248.930000,195.900000C302.790000,197.200000,362.350000,237.330000,367.270000,290.670000C179.800000,297.400000,170.220000,296.370000,170.220000,296.370000C170.220000,296.370000,148.460000,274.350000,143.280000,248.720000Z" fill="rgb(102,135,8)" stroke="none" stroke-width="1"/><g id="s21" clip-path="url(#s3)"><path id="s23" d="M197.660000,203.060000C210.610000,206.340000,228.820000,233.180000,237.880000,233.440000C246.940000,233.700000,276.460000,233.610000,289.150000,234.650000C301.840000,235.690000,304.150000,214.970000,305.890000,210.830000" fill="none" stroke="rgb(84,112,6)" stroke-width="6" stroke-linecap="round" stroke-miterlimit="10"/><path id="s25" d="M181.610000,284.190000C188.340000,275.390000,212.340000,246.140000,235.610000,232.920000" fill="none" stroke="rgb(84,112,6)" stroke-width="6" stroke-linecap="round" stroke-miterlimit="10"/><path id="s27" d="M293.300000,234.650000C297.960000,238.020000,326.790000,265.030000,332.660000,287.650000" fill="none" stroke="rgb(84,112,6)" stroke-width="6" stroke-linecap="round" stroke-miterlimit="10"/></g><path id="s29" d="M112,270.470000C124.690000,270.990000,129.350000,269.950000,136.860000,285.470000C144.370000,300.990000,154.990000,319.910000,179.590000,320.940000C204.190000,321.970000,348.420000,318.610000,368.100000,319.650000C387.780000,320.690000,388.590000,289,371.760000,287C354.930000,285,217,288.070000,202.320000,288.070000C179.790000,288.070000,179.790000,268.390000,166.070000,255.700000C152.350000,243.010000,136.550000,239.130000,124.120000,240.940000C111.690000,242.750000,92.790000,268.650000,112,270.470000Z" fill="rgb(84,112,6)" stroke="none" stroke-width="1"/></g><g id="s31"><path id="s33" d="M18,264.250000C17.220000,250.790000,17,239.070000,28.930000,235.440000C40.860000,231.810000,65.930000,228.250000,77.550000,236.540000C89.170000,244.830000,89.200000,253.110000,90.500000,260.620000C91.800000,268.130000,88.950000,288.620000,69.780000,289.620000C50.610000,290.620000,35.860000,289.100000,31.200000,287.810000C26.540000,286.520000,19.770000,288.330000,18,264.250000Z" fill="rgb(176,176,77)" stroke="none" stroke-width="1"/><path id="s35" d="M42.640000,251.220000C38.320000,251.500000,38.840000,261.060000,43.500000,261.410000C48.160000,261.760000,48,250.870000,42.640000,251.220000Z" fill="rgb(43,43,8)" stroke="none" stroke-width="1"/><path id="s37" d="M23.700000,264.770000C20.770000,264.580000,22.340000,271.500000,24.700000,271.500000C27.060000,271.500000,27.780000,265,23.700000,264.770000Z" fill="rgb(134,138,22)" stroke="none" stroke-width="1"/></g><path id="s39" d="M189.120000,304.390000C189.380000,316.040000,189.120000,369.640000,191.970000,371.970000C194.820000,374.300000,226.670000,374.560000,228.970000,369.640000C231.270000,364.720000,230.140000,340.640000,229.490000,330.280000C227.440000,297.140000,191.190000,286.520000,189.120000,304.390000Z" fill="rgb(176,176,77)" stroke="none" stroke-width="1"/><path id="s41" d="M330.500000,304.390000C330.760000,316.040000,330.500000,369.640000,333.350000,371.970000C336.200000,374.300000,368.050000,374.560000,370.350000,369.640000C372.650000,364.720000,371.520000,340.640000,370.870000,330.280000C368.820000,297.140000,332.570000,286.520000,330.500000,304.390000Z" fill="rgb(176,176,77)" stroke="none" stroke-width="1"/></g></svg>