<svg id="e2L0AUkItOK1" xmlns="http://www.w3.org/2000/svg" xmlns:xlink="http://www.w3.org/1999/xlink" viewBox="0 0 400 400" shape-rendering="geometricPrecision" text-rendering="geometricPrecision"><defs><linearGradient id="e2L0AUkItOK5-fill" x1="199.872073" y1="56.526267" x2="199.872073" y2="356.863731" spreadMethod="pad" gradientUnits="userSpaceOnUse"><stop id="e2L0AUkItOK5-fill-0" offset="0%" stop-color="rgb(210,128,61)"/><stop id="e2L0AUkItOK5-fill-1" offset="100%" stop-color="rgb(245,175,63)"/></linearGradient></defs><g id="e2L0AUkItOK2"><circle id="e2L0AUkItOK3" r="175" transform="matrix(1 0 0 1 199.90000000000001 199.90000000000001)" clip-rule="evenodd" fill="rgb(219,133,28)" fill-rule="evenodd" stroke="none" stroke-width="1"/><circle id="e2L0AUkItOK4" r="157" transform="matrix(1 0 0 1 199.90000000000001 199.90000000000001)" clip-rule="evenodd" fill="rgb(210,128,61)" fill-rule="evenodd" stroke="none" stroke-width="1"/><path id="e2L0AUkItOK5" d="M43,206.700000C46.600000,290.300000,115.500000,356.900000,199.900000,356.900000C284.400000,356.900000,353.200000,290.300000,356.800000,206.700000C353.200000,123.200000,284.300000,56.500000,199.900000,56.500000C115.400000,56.600000,46.600000,123.200000,43,206.700000L43,206.700000Z" clip-rule="evenodd" fill="url(#e2L0AUkItOK5-fill)" fill-rule="evenodd" stroke="none" stroke-width="1"/><circle id="e2L0AUkItOK6" r="115.800000" transform="matrix(1 0 0 1 199.90000000000001 199.90000000000001)" clip-rule="evenodd" fill="rgb(247,147,26)" fill-rule="evenodd" stroke="none" stroke-width="1"/><path id="e2L0AUkItOK7" d="M84.200000,203.600000C84.100000,204.800000,84.100000,206,84.100000,207.300000C84.100000,271.300000,135.900000,323.100000,199.900000,323.100000C263.900000,323.100000,315.700000,271.300000,315.700000,207.300000C315.700000,206,315.700000,204.800000,315.600000,203.600000C313.700000,265.800000,262.600000,315.700000,199.900000,315.700000C137.200000,315.700000,86.100000,265.800000,84.200000,203.600000L84.200000,203.600000Z" clip-rule="evenodd" fill="rgb(219,133,28)" fill-rule="evenodd" stroke="none" stroke-width="1"/></g><path id="e2L0AUkItOK8" d="M255.600000,192.600000C260.200000,196.300000,264,200.900000,266.800000,206.100000C270,212.100000,271.800000,219,271.800000,226.200000C271.800000,238.100000,267,248.900000,259.100000,256.700000C251.300000,264.500000,240.500000,269.400000,228.600000,269.400000L227,269.400000L227,287L168.100000,287L168.100000,269.400000L141.400000,269.400000L141.400000,235.600000L159,235.600000L159,164L141.400000,164L141.400000,130.200000L168.100000,130.200000L168.100000,112.600000L227,112.600000L227,131.400000C236,133.600000,243.900000,138.600000,249.800000,145.500000C256.200000,153,260,162.800000,260,173.400000C260,177.300000,259.500000,181.100000,258.500000,184.800000C257.800000,187.600000,256.800000,190.100000,255.600000,192.600000L255.600000,192.600000ZM260.200000,209.600000C257.500000,204.400000,253.500000,200,248.700000,196.700000L245.800000,194.700000L247.600000,191.700000C249.200000,189,250.500000,186,251.300000,183C252.100000,180,252.600000,176.900000,252.600000,173.500000C252.600000,164.700000,249.400000,156.600000,244.100000,150.400000C238.700000,144.100000,231.200000,139.600000,222.700000,138.200000L219.600000,137.700000L219.600000,120.200000L203.600000,120.200000L203.600000,137.800000L191.500000,137.800000L191.500000,120.200000L175.500000,120.200000L175.500000,137.800000L148.800000,137.800000L148.800000,156.700000L166.400000,156.700000L166.400000,243.200000L148.800000,243.200000L148.800000,262L175.500000,262L175.500000,279.600000L191.500000,279.600000L191.500000,262L203.600000,262L203.600000,279.600000L219.600000,279.600000L219.600000,262L228.500000,262C238.400000,262,247.300000,258,253.800000,251.500000C260.300000,245,264.300000,236.100000,264.300000,226.200000C264.300000,220.200000,262.800000,214.500000,260.200000,209.600000L260.200000,209.600000ZM189,209.400000L228.500000,209.400000C233.100000,209.400000,237.400000,211.300000,240.400000,214.300000C243.400000,217.300000,245.300000,221.600000,245.300000,226.200000C245.300000,230.800000,243.400000,235.100000,240.400000,238.100000C237.300000,241.200000,233.100000,243.100000,228.500000,243.100000L185.300000,243.100000L185.300000,209.300000L189,209.400000L189,209.400000ZM228.500000,216.800000L192.700000,216.800000L192.700000,235.700000L228.500000,235.700000C231.100000,235.700000,233.400000,234.600000,235.200000,232.900000C236.900000,231.200000,238,228.800000,238,226.200000C238,223.600000,236.900000,221.200000,235.200000,219.500000C233.500000,217.800000,231.100000,216.800000,228.500000,216.800000ZM189,156.600000L216.800000,156.600000C221.500000,156.600000,225.700000,158.500000,228.700000,161.600000C231.700000,164.600000,233.600000,168.900000,233.600000,173.500000C233.600000,178.200000,231.700000,182.400000,228.700000,185.400000C225.700000,188.400000,221.400000,190.300000,216.800000,190.300000L185.300000,190.300000L185.300000,156.500000L189,156.500000ZM216.800000,164.100000L192.700000,164.100000L192.700000,183L216.800000,183C219.400000,183,221.800000,182,223.500000,180.200000C225.200000,178.500000,226.300000,176.100000,226.300000,173.500000C226.300000,170.900000,225.200000,168.600000,223.500000,166.800000C221.800000,165.100000,219.400000,164.100000,216.800000,164.100000Z" fill="rgb(255,255,255)" stroke="none" stroke-width="1"/></svg>