<svg id="s1" xmlns="http://www.w3.org/2000/svg" xmlns:xlink="http://www.w3.org/1999/xlink" viewBox="0 0 400 400"><defs><linearGradient id="s5-fill" x1="135.080000" y1="97.810000" x2="226.340000" y2="332.120000" spreadMethod="pad" gradientUnits="userSpaceOnUse"><stop id="s5-fill-0" offset="7%" stop-color="rgb(239,141,44)"/><stop id="s5-fill-1" offset="100%" stop-color="rgb(224,115,31)"/></linearGradient><linearGradient id="s7-fill" x1="-40.750000" y1="-104.610000" x2="47.250000" y2="121.310000" spreadMethod="pad" gradientUnits="userSpaceOnUse"><stop id="s7-fill-0" offset="0%" stop-color="rgb(252,186,121)"/><stop id="s7-fill-1" offset="100%" stop-color="rgb(239,141,44)"/></linearGradient><linearGradient id="s9-fill" x1="259.300000" y1="266.940000" x2="216.300000" y2="131.940000" spreadMethod="pad" gradientUnits="userSpaceOnUse"><stop id="s9-fill-0" offset="20%" stop-color="rgb(224,120,56)"/><stop id="s9-fill-1" offset="100%" stop-color="rgb(201,95,28)"/></linearGradient><linearGradient id="s11-fill" x1="253.960000" y1="302.600000" x2="185.460000" y2="108.100000" spreadMethod="pad" gradientUnits="userSpaceOnUse"><stop id="s11-fill-0" offset="7%" stop-color="rgb(239,141,44)"/><stop id="s11-fill-1" offset="100%" stop-color="rgb(224,115,31)"/></linearGradient><linearGradient id="s13-fill" x1="191.690000" y1="144.680000" x2="238.810000" y2="265.670000" spreadMethod="pad" gradientUnits="userSpaceOnUse"><stop id="s13-fill-0" offset="0%" stop-color="rgb(252,186,121)"/><stop id="s13-fill-1" offset="100%" stop-color="rgb(244,158,74)"/></linearGradient></defs><g id="s3"><path id="s5" d="M216.080000,85.390000L182.170000,85.390000C137.030000,85.390000,100.440000,136.700000,100.440000,200C100.440000,263.300000,137,314.610000,182.170000,314.610000L216.080000,314.610000Z" fill="url(#s5-fill)" stroke="none" stroke-width="1"/><ellipse id="s7" rx="81.730000" ry="114.610000" transform="translate(217.830000,200)" fill="url(#s7-fill)" stroke="none" stroke-width="1"/><path id="s9" d="M280.120000,200C280.120000,151.070000,253.690000,117,229.960000,117L216,117L216,283L230,283C253.680000,283,280.120000,248.930000,280.120000,200Z" fill="url(#s9-fill)" stroke="none" stroke-width="1"/><path id="s11" d="M217.830000,283C194.110000,283,167.680000,248.900000,167.680000,200C167.680000,151.100000,194.110000,117,217.830000,117C241.550000,117,268,151.070000,268,200C268,248.930000,241.550000,283,217.830000,283Z" fill="url(#s11-fill)" stroke="none" stroke-width="1"/><path id="s13" d="M229.840000,197C236.910000,194,239.840000,184.550000,239.840000,177.640000C239.950000,164.430000,234.320000,158.140000,228.230000,156.200000L228.230000,140.200000L219.500000,140.200000L219.500000,155.530000L213.740000,155.530000L213.740000,140.300000L205,140.300000L205,155.460000L191.930000,155.460000L191.930000,167.680000L195,167.680000C196.870000,167.680000,198.070000,168.370000,198.070000,173.900000L198.070000,224.840000C198.070000,232.680000,196.200000,232.220000,195,232.220000L191.930000,232.220000L191.930000,243.680000L205,243.680000L205,258.840000L213.740000,258.840000L213.740000,243.680000L219.500000,243.680000L219.500000,258.680000L228.240000,258.680000L228.240000,242.680000C235.310000,240.790000,239.040000,235.950000,241.190000,226C244.120000,212.400000,238,198.340000,229.840000,197ZM227.300000,181.200000C226.770000,191.880000,220.180000,191.200000,210.750000,191.200000L210.750000,169.680000C219.200000,169.530000,216.180000,169.530000,219.200000,169.530000C222.900000,169.530000,227.770000,171.720000,227.300000,181.200000ZM211.740000,230.480000C211.200000,230.480000,210.740000,229.720000,210.740000,228.770000L210.740000,204.470000C219.650000,204.280000,216.460000,204.280000,219.650000,204.280000C223.540000,204.280000,228.650000,206.930000,228.190000,218.400000C227.670000,230.880000,221.160000,230.520000,211.740000,230.480000Z" fill="url(#s13-fill)" stroke="none" stroke-width="1"/></g></svg>