<svg id="s1" xmlns="http://www.w3.org/2000/svg" xmlns:xlink="http://www.w3.org/1999/xlink" viewBox="0 0 400 400"><g id="s3"><path id="s5" d="M292.380000,271.060000C295.640000,292.760000,298.500000,327.640000,300.200000,333.770000C301.900000,339.900000,324.420000,338.290000,328.900000,336.530000C333.380000,334.770000,332.600000,290.910000,332.600000,278.740000C332.600000,253.480000,289.080000,249.090000,292.380000,271.060000Z" fill="rgb(222,147,118)" stroke="none" stroke-width="1"/><path id="s7" d="M89.870000,271.060000C93.130000,292.760000,95.990000,327.640000,97.690000,333.770000C99.390000,339.900000,121.910000,338.290000,126.390000,336.530000C130.870000,334.770000,130.090000,290.910000,130.090000,278.740000C130.090000,253.480000,86.570000,249.090000,89.870000,271.060000Z" fill="rgb(222,147,118)" stroke="none" stroke-width="1"/><path id="s9" d="M30.880000,176.290000C39.130000,176.350000,52.110000,179.890000,56.980000,167.530000C66.310000,143.880000,82.240000,126.670000,118.860000,125.200000C155.480000,123.730000,168.700000,142.200000,220.580000,149.900000C252,154.580000,305,151.100000,335.650000,184.530000C366.300000,217.960000,350.440000,276.270000,345.350000,282.580000C332.650000,298.360000,316.970000,302.390000,254.350000,304.500000C135.140000,308.500000,103.810000,293.380000,86.350000,268.850000C74.860000,252.710000,65.540000,225.730000,54.740000,221.390000C42.040000,216.290000,32.050000,211.010000,29.040000,201.390000C24.290000,186.180000,27.220000,176.330000,30.880000,176.290000Z" fill="rgb(253,177,148)" stroke="none" stroke-width="1"/><path id="s11" d="M103.480000,271.910000C106.740000,293.610000,109.600000,328.490000,111.300000,334.620000C113,340.750000,135.520000,339.140000,140,337.380000C144.480000,335.620000,143.700000,291.760000,143.700000,279.590000C143.710000,254.330000,100.180000,249.940000,103.480000,271.910000Z" fill="rgb(253,177,148)" stroke="none" stroke-width="1"/><path id="s13" d="M306,271.910000C309.260000,293.610000,312.120000,328.490000,313.820000,334.620000C315.520000,340.750000,338.040000,339.140000,342.520000,337.380000C347,335.620000,348.840000,280.550000,348.840000,268.380000C348.830000,243.130000,302.690000,249.940000,306,271.910000Z" fill="rgb(253,177,148)" stroke="none" stroke-width="1"/><path id="s15" d="M133.720000,140.730000C130.120000,136.300000,86.270000,144.990000,87.720000,150.480000C89.170000,155.970000,113.350000,188.570000,119.210000,191.130000C125.070000,193.690000,144.280000,152.850000,133.720000,140.730000Z" fill="rgb(253,202,182)" stroke="none" stroke-width="1"/><path id="s17" d="M73.050000,167.800000C68.330000,165.700000,67.050000,176.800000,71.710000,179.360000C77.310000,182.400000,77.890000,169.950000,73.050000,167.800000Z" fill="rgb(74,52,48)" stroke="none" stroke-width="1"/><path id="s19" d="M330.070000,198C353.870000,193.330000,386.730000,221.910000,374.190000,236.450000C361.650000,250.990000,348.830000,213.920000,386.550000,212" fill="none" stroke="rgb(253,177,148)" stroke-width="7" stroke-linecap="round" stroke-miterlimit="10"/></g></svg>