<svg id="s1" xmlns="http://www.w3.org/2000/svg" xmlns:xlink="http://www.w3.org/1999/xlink" viewBox="0 0 400 400"><g id="s3"><path id="s5" d="M106.810000,333.080000C133.700000,312.290000,198.260000,291.350000,277.410000,324.080000C310.760000,338.340000,284.560000,342.760000,269.090000,340.350000C249.530000,337.350000,262.420000,360.170000,234.090000,364.860000C205.760000,369.550000,144.090000,364.970000,122.600000,358.030000C106.810000,352.930000,91.290000,345.080000,106.810000,333.080000Z" fill="rgb(128,77,45)" stroke="none" stroke-width="1"/><path id="s7" d="M218.620000,195.100000C209.870000,152.310000,253.730000,115.550000,318.620000,130.620000C307.650000,212.270000,252.210000,177.620000,218.620000,195.100000Z" fill="rgb(130,181,14)" stroke="none" stroke-width="1"/><path id="s9" d="M201.840000,181.800000C187.780000,155.990000,151.710000,162.800000,131.220000,131.800000C114.220000,106.140000,122.710000,45.920000,122.710000,45.920000C144.180000,76.610000,233.230000,82.240000,201.840000,181.800000Z" fill="rgb(130,181,14)" stroke="none" stroke-width="1"/><path id="s11" d="M157,102.110000C251.820000,216.020000,169.860000,237.110000,191.350000,322.110000" fill="none" stroke="rgb(94,133,6)" stroke-width="7" stroke-linecap="round" stroke-miterlimit="10"/><path id="s13" d="M201.840000,222C204.690000,206,236.550000,161.090000,286.840000,141.500000" fill="none" stroke="rgb(94,133,6)" stroke-width="7" stroke-linecap="round" stroke-miterlimit="10"/></g></svg>