<svg id="s1" xmlns="http://www.w3.org/2000/svg" xmlns:xlink="http://www.w3.org/1999/xlink" viewBox="0 0 400 400"><defs><linearGradient id="s5-fill" x1="-72.300000" y1="-99.540000" x2="92.590000" y2="127.470000" spreadMethod="pad" gradientUnits="userSpaceOnUse"><stop id="s5-fill-0" offset="17%" stop-color="rgb(252,232,179)"/><stop id="s5-fill-1" offset="99%" stop-color="rgb(207,177,99)"/></linearGradient><linearGradient id="s7-fill" x1="-83.910000" y1="-107.530000" x2="70.290000" y2="90.070000" spreadMethod="pad" gradientUnits="userSpaceOnUse"><stop id="s7-fill-0" offset="0%" stop-color="rgb(230,201,124)"/><stop id="s7-fill-1" offset="100%" stop-color="rgb(214,172,90)"/></linearGradient><linearGradient id="s9-fill" x1="130.650000" y1="111.150000" x2="219.120000" y2="224.530000" spreadMethod="pad" gradientUnits="userSpaceOnUse"><stop id="s9-fill-0" offset="0%" stop-color="rgb(196,169,93)"/><stop id="s9-fill-1" offset="100%" stop-color="rgb(173,138,67)"/></linearGradient><linearGradient id="s11-fill" x1="184.260000" y1="162.030000" x2="235.600000" y2="284.030000" spreadMethod="pad" gradientUnits="userSpaceOnUse"><stop id="s11-fill-0" offset="17%" stop-color="rgb(252,232,179)"/><stop id="s11-fill-1" offset="97%" stop-color="rgb(225,200,133)"/></linearGradient></defs><g id="s3"><circle id="s5" r="118.400000" transform="translate(200,200)" fill="url(#s5-fill)" stroke="none" stroke-width="1"/><circle id="s7" r="80.820000" transform="translate(200,200)" fill="url(#s7-fill)" stroke="none" stroke-width="1"/><path id="s9" d="M127.500000,212.060000C127.491400,178.052776,148.776957,147.680115,180.745668,136.083008C212.714378,124.485900,248.522729,134.146928,270.320000,160.250000C255.258555,133.585072,226.415087,117.728400,195.830831,119.299643C165.246575,120.870886,138.179920,139.599898,125.930339,167.667910C113.680757,195.735922,118.354334,228.317164,138,251.810000C131.112847,239.694457,127.494454,225.996256,127.500000,212.060000Z" fill="url(#s9-fill)" stroke="none" stroke-width="1"/><path id="s11" d="M193.950000,239.300000C185.148587,238.903974,176.494877,236.893927,168.420000,233.370000L168.420000,213.280000C173.303224,215.755376,178.409204,217.764286,183.670000,219.280000C188.355365,220.745393,193.222294,221.549816,198.130000,221.670000Q203.270000,221.670000,205.660000,220.430000C207.221019,219.660772,208.164484,218.026487,208.050000,216.290000C208.046899,214.951131,207.408641,213.693168,206.330000,212.900000C204.550017,211.617771,202.618794,210.559797,200.580000,209.750000Q196.580000,208,189.720000,205.520000C185.304179,203.994114,181.128744,201.845786,177.320000,199.140000C174.430337,197.082393,172.074793,194.363403,170.450000,191.210000C168.911908,187.780966,168.176576,184.046164,168.300000,180.290000Q168.300000,170.290000,174.710000,164.680000Q181.120000,159.070000,193.950000,157.680000L193.950000,149.390000L206.480000,149.390000L206.480000,157.560000C214.853300,158.089192,223.066753,160.096850,230.740000,163.490000L223.540000,180.740000Q210.890000,175,200.730000,175Q195.890000,175,193.920000,176.180000C192.648524,176.868080,191.874433,178.214999,191.920000,179.660000C191.886420,180.915027,192.405573,182.121509,193.340000,182.960000C194.835287,184.161391,196.495625,185.141428,198.270000,185.870000Q201.780000,187.470000,208.010000,189.590000Q220.660000,194.070000,226.160000,199.790000Q231.660000,205.510000,231.670000,214.520000Q231.670000,224.690000,225.230000,231.040000Q218.790000,237.390000,206.440000,238.910000L206.440000,250.590000L193.950000,250.590000Z" fill="url(#s11-fill)" stroke="none" stroke-width="1"/></g></svg>