<svg id="s1" xmlns="http://www.w3.org/2000/svg" xmlns:xlink="http://www.w3.org/1999/xlink" viewBox="0 0 400 400"><g id="s3"><g id="s5"><path id="s7" d="M195.540000,293.600000C194.722486,293.579624,193.914353,293.420703,193.150000,293.130000L192.590000,292.920000C186.110000,290.500000,182.540000,289.170000,179.660000,286.480000C178.713923,285.553453,178.352895,284.182314,178.720000,282.910000C178.990001,282.307538,179.600441,281.930968,180.260000,281.960000C181.615425,282.146124,182.876354,282.759075,183.860000,283.710000C186.945462,286.297746,190.643425,288.050319,194.600000,288.800000C196.470000,289.210000,197.820000,289.510000,198.030000,291.060000C198.152991,291.682924,197.991662,292.328240,197.590000,292.820000C197.049333,293.358819,196.301244,293.636159,195.540000,293.580000Z" fill="rgb(107,77,43)" stroke="none" stroke-width="1"/><path id="s9" d="M180.820000,335.740000C180.642109,335.741031,180.464560,335.724281,180.290000,335.690000C179.548863,335.616651,178.902015,335.156248,178.590000,334.480000C178.230000,333.560000,178.590000,332.340000,179.870000,330.620000C185.220000,323.190000,193.560000,294.450000,193.420000,292.800000C193.319279,291.872169,193.617357,290.945220,194.240000,290.250000C194.709638,289.709439,195.384211,289.390286,196.100000,289.370000C197.080512,289.395395,197.897915,290.128094,198.030000,291.100000C198.930000,295.450000,193.260000,310.100000,189.110000,320.770000C187.590000,324.690000,186.270000,328.080000,185.610000,330.130000C184.400000,333.740000,182.710000,335.730000,180.840000,335.730000Z" fill="rgb(107,77,43)" stroke="none" stroke-width="1"/><path id="s11" d="M161.150000,353.910000C160.803360,353.911742,160.461047,353.833010,160.150000,353.680000C159.640541,353.457391,159.286807,352.981942,159.220000,352.430000C158.980000,350.280000,163.010000,346.770000,168.740000,342.050000C170.616256,340.607991,172.384324,339.030434,174.030000,337.330000C172.450000,337.420000,168.180000,338.840000,163.670000,340.330000C157.600000,342.330000,151.320000,344.450000,148.460000,344.450000C147.310000,344.450000,146.660000,344.090000,146.530000,343.380000C145.930000,340.070000,154.060000,338.240000,163.470000,336.110000C170.220000,334.580000,177.200000,333.010000,179.620000,331.030000C180.219741,330.517864,180.981360,330.234471,181.770000,330.230000C182.950009,330.259727,184.053064,330.822285,184.770000,331.760000C185.180000,332.180000,188.370000,332.490000,190.700000,332.760000C196.900000,333.360000,200.700000,333.880000,200.520000,335.910000C200.440000,337.100000,199.520000,337.710000,197.870000,337.710000C196.147874,337.614685,194.435921,337.383973,192.750000,337.020000C190.550000,336.620000,188.060000,336.180000,185.310000,335.930000L184.940000,335.930000C180.870000,335.930000,175.590000,341.440000,170.940000,346.310000C166.990000,350.430000,163.590000,353.990000,161.160000,353.990000Z" fill="rgb(107,77,43)" stroke="none" stroke-width="1"/></g><path id="s13" d="M277.270000,251.150000C295.070000,303.150000,317.830000,322.960000,328.590000,325.570000C339.350000,328.180000,351.230000,325.040000,343.940000,316.140000C336.650000,307.240000,297.780000,260.140000,281.430000,241.550000C279.450000,239.310000,271.390000,235.180000,277.270000,251.150000Z" fill="rgb(168,125,75)" stroke="none" stroke-width="1"/><path id="s15" d="M123.440000,169.500000C117.720000,222.500000,126.270000,291.070000,193.190000,292.660000C260.110000,294.250000,293.190000,255.250000,288.780000,249.900000C284.370000,244.550000,200.260000,136.900000,187.660000,122.060000C176,108.350000,126.420000,115.600000,123.440000,169.500000Z" fill="rgb(138,102,61)" stroke="none" stroke-width="1"/><g id="s17"><g id="s19"><path id="s21" d="M122.390000,158.390000C102.390000,171.290000,101.310000,170.200000,102.390000,171.290000C103.470000,172.380000,123.690000,170.930000,123.690000,170.930000C125.880000,170.900000,123.380000,157.820000,122.390000,158.390000Z" fill="rgb(230,157,77)" stroke="none" stroke-width="1"/><path id="s23" d="M115.830000,148.180000C110,149.430000,92.110000,161.880000,92.110000,164C92.110000,166.120000,116.320000,169.310000,123.300000,170.390000C128.460000,170.360000,124.630000,145.840000,115.830000,148.180000Z" fill="rgb(230,157,77)" stroke="none" stroke-width="1"/></g><circle id="s25" r="41.630000" transform="translate(155.140000,148.180000)" fill="rgb(138,102,61)" stroke="none" stroke-width="1"/><path id="s27" d="M137.700000,146.720000C132.490000,144.410000,131.030000,156.660000,136.220000,159.480000C142.400000,162.830000,143,149.090000,137.700000,146.720000Z" fill="rgb(74,52,48)" stroke="none" stroke-width="1"/></g><g id="s29"><path id="s31" d="M238.760000,294.450000C237.942486,294.429624,237.134353,294.270703,236.370000,293.980000L235.810000,293.770000C229.330000,291.350000,225.760000,290.020000,222.880000,287.330000C221.933923,286.403453,221.572895,285.032314,221.940000,283.760000C222.210001,283.157538,222.820441,282.780968,223.480000,282.810000C224.835425,282.996124,226.096354,283.609075,227.080000,284.560000C230.165462,287.147746,233.863425,288.900319,237.820000,289.650000C239.690000,290.060000,241.040000,290.360000,241.250000,291.910000C241.372991,292.532924,241.211662,293.178240,240.810000,293.670000C240.269333,294.208819,239.521244,294.486159,238.760000,294.430000Z" fill="rgb(107,77,43)" stroke="none" stroke-width="1"/><path id="s33" d="M224,336.590000C223.822109,336.591031,223.644560,336.574281,223.470000,336.540000C222.728863,336.466651,222.082015,336.006248,221.770000,335.330000C221.410000,334.410000,221.770000,333.190000,223.050000,331.470000C228.400000,324.040000,236.740000,295.300000,236.600000,293.650000C236.499279,292.722169,236.797357,291.795220,237.420000,291.100000C237.889638,290.559439,238.564211,290.240286,239.280000,290.220000C240.260512,290.245395,241.077915,290.978094,241.210000,291.950000C242.110000,296.300000,236.440000,310.950000,232.290000,321.620000C230.770000,325.540000,229.450000,328.930000,228.790000,330.980000C227.580000,334.590000,225.890000,336.580000,224.020000,336.580000Z" fill="rgb(107,77,43)" stroke="none" stroke-width="1"/><path id="s35" d="M204.370000,354.750000C204.023360,354.751742,203.681047,354.673010,203.370000,354.520000C202.860541,354.297391,202.506807,353.821942,202.440000,353.270000C202.200000,351.120000,206.230000,347.610000,211.960000,342.890000C213.836256,341.447991,215.604324,339.870434,217.250000,338.170000C215.670000,338.260000,211.400000,339.680000,206.890000,341.170000C200.820000,343.170000,194.540000,345.290000,191.680000,345.290000C190.530000,345.290000,189.880000,344.930000,189.750000,344.220000C189.150000,340.910000,197.280000,339.080000,206.690000,336.950000C213.440000,335.420000,220.420000,333.850000,222.840000,331.870000C223.439741,331.357864,224.201360,331.074471,224.990000,331.070000C226.170009,331.099727,227.273064,331.662285,227.990000,332.600000C228.400000,333.020000,231.590000,333.330000,233.920000,333.600000C240.120000,334.200000,243.920000,334.720000,243.740000,336.750000C243.660000,337.940000,242.740000,338.550000,241.090000,338.550000C239.367874,338.454685,237.655921,338.223973,235.970000,337.860000C233.770000,337.460000,231.280000,337.020000,228.530000,336.770000L228.160000,336.770000C224.090000,336.770000,218.810000,342.280000,214.160000,347.150000C210.210000,351.270000,206.810000,354.830000,204.380000,354.830000Z" fill="rgb(107,77,43)" stroke="none" stroke-width="1"/></g><path id="s37" d="M228.220000,183.930000C209.400000,161.930000,167.220000,168.600000,167.300000,208.010000C167.360000,246.620000,220.060000,266.010000,264.100000,261.080000C281.610000,258.830000,288.250000,254.200000,228.220000,183.930000Z" fill="rgb(107,77,43)" stroke="none" stroke-width="1"/></g></svg>