<svg id="s1" xmlns="http://www.w3.org/2000/svg" xmlns:xlink="http://www.w3.org/1999/xlink" viewBox="0 0 400 400"><defs><linearGradient id="s5-fill" x1="104.120000" y1="23.140000" x2="167.110000" y2="246.630000" spreadMethod="pad" gradientUnits="userSpaceOnUse"><stop id="s5-fill-0" offset="4%" stop-color="rgb(247,227,203)"/><stop id="s5-fill-1" offset="100%" stop-color="rgb(247,202,148)"/></linearGradient><linearGradient id="s7-fill" x1="115.500000" y1="-12.090000" x2="140.060000" y2="75.020000" spreadMethod="pad" gradientUnits="userSpaceOnUse"><stop id="s7-fill-0" offset="4%" stop-color="rgb(255,182,130)"/><stop id="s7-fill-1" offset="100%" stop-color="rgb(214,133,73)"/></linearGradient><linearGradient id="s9-fill" x1="126.070000" y1="-15.650000" x2="147.830000" y2="61.560000" spreadMethod="pad" gradientUnits="userSpaceOnUse"><stop id="s9-fill-0" offset="4%" stop-color="rgb(247,227,203)"/><stop id="s9-fill-1" offset="100%" stop-color="rgb(247,202,148)"/></linearGradient><linearGradient id="s15-fill" x1="86.870000" y1="118.200000" x2="107.440000" y2="184.100000" spreadMethod="pad" gradientUnits="userSpaceOnUse"><stop id="s15-fill-0" offset="9%" stop-color="rgb(255,196,130)"/><stop id="s15-fill-1" offset="100%" stop-color="rgb(255,191,77)"/></linearGradient><linearGradient id="s17-fill" x1="134.540000" y1="131.690000" x2="141.880000" y2="166.660000" spreadMethod="pad" gradientUnits="userSpaceOnUse"><stop id="s17-fill-0" offset="24%" stop-color="rgb(255,139,125)"/><stop id="s17-fill-1" offset="100%" stop-color="rgb(232,91,77)"/></linearGradient><linearGradient id="s19-fill" x1="171.630000" y1="118.200000" x2="192.200000" y2="184.100000" spreadMethod="pad" gradientUnits="userSpaceOnUse"><stop id="s19-fill-0" offset="9%" stop-color="rgb(255,196,130)"/><stop id="s19-fill-1" offset="100%" stop-color="rgb(255,191,77)"/></linearGradient><linearGradient id="s21-fill" x1="219.300000" y1="131.690000" x2="226.650000" y2="166.660000" spreadMethod="pad" gradientUnits="userSpaceOnUse"><stop id="s21-fill-0" offset="24%" stop-color="rgb(255,139,125)"/><stop id="s21-fill-1" offset="100%" stop-color="rgb(232,91,77)"/></linearGradient><linearGradient id="s23-fill" x1="256.400000" y1="118.200000" x2="276.970000" y2="184.100000" spreadMethod="pad" gradientUnits="userSpaceOnUse"><stop id="s23-fill-0" offset="9%" stop-color="rgb(255,196,130)"/><stop id="s23-fill-1" offset="100%" stop-color="rgb(255,191,77)"/></linearGradient><linearGradient id="s25-fill" x1="304.070000" y1="131.690000" x2="311.410000" y2="166.660000" spreadMethod="pad" gradientUnits="userSpaceOnUse"><stop id="s25-fill-0" offset="24%" stop-color="rgb(255,139,125)"/><stop id="s25-fill-1" offset="100%" stop-color="rgb(232,91,77)"/></linearGradient><linearGradient id="s29-fill" x1="95.340000" y1="105.750000" x2="106.410000" y2="141.230000" spreadMethod="pad" gradientUnits="userSpaceOnUse"><stop id="s29-fill-0" offset="9%" stop-color="rgb(255,224,189)"/><stop id="s29-fill-1" offset="100%" stop-color="rgb(255,222,161)"/></linearGradient><linearGradient id="s31-fill" x1="137.630000" y1="112.160000" x2="141.610000" y2="131.100000" spreadMethod="pad" gradientUnits="userSpaceOnUse"><stop id="s31-fill-0" offset="12%" stop-color="rgb(255,171,161)"/><stop id="s31-fill-1" offset="100%" stop-color="rgb(255,161,150)"/></linearGradient><linearGradient id="s33-fill" x1="173.600000" y1="103.620000" x2="186.210000" y2="144.020000" spreadMethod="pad" gradientUnits="userSpaceOnUse"><stop id="s33-fill-0" offset="9%" stop-color="rgb(255,224,189)"/><stop id="s33-fill-1" offset="100%" stop-color="rgb(255,222,161)"/></linearGradient><linearGradient id="s35-fill" x1="217.310000" y1="111.100000" x2="221.680000" y2="131.910000" spreadMethod="pad" gradientUnits="userSpaceOnUse"><stop id="s35-fill-0" offset="12%" stop-color="rgb(255,171,161)"/><stop id="s35-fill-1" offset="100%" stop-color="rgb(255,161,150)"/></linearGradient><linearGradient id="s37-fill" x1="254.510000" y1="100.650000" x2="268.660000" y2="145.980000" spreadMethod="pad" gradientUnits="userSpaceOnUse"><stop id="s37-fill-0" offset="9%" stop-color="rgb(255,224,189)"/><stop id="s37-fill-1" offset="100%" stop-color="rgb(255,222,161)"/></linearGradient><linearGradient id="s39-fill" x1="297.920000" y1="109.850000" x2="302.680000" y2="132.520000" spreadMethod="pad" gradientUnits="userSpaceOnUse"><stop id="s39-fill-0" offset="12%" stop-color="rgb(255,171,161)"/><stop id="s39-fill-1" offset="100%" stop-color="rgb(255,161,150)"/></linearGradient><linearGradient id="s43-fill" x1="83.160000" y1="106.050000" x2="30.260000" y2="-25.160000" spreadMethod="pad" gradientUnits="userSpaceOnUse"><stop id="s43-fill-0" offset="18%" stop-color="rgb(138,91,83)"/><stop id="s43-fill-1" offset="100%" stop-color="rgb(181,128,119)"/></linearGradient><linearGradient id="s45-fill" x1="7.220002" y1="355.129989" x2="-80.409998" y2="364.859989" spreadMethod="pad" gradientUnits="userSpaceOnUse"><stop id="s45-fill-0" offset="0%" stop-color="rgb(112,189,224)"/><stop id="s45-fill-1" offset="100%" stop-color="rgb(143,225,255)"/></linearGradient><linearGradient id="s47-fill" x1="149.150000" y1="273.570000" x2="140.750000" y2="197.960000" spreadMethod="pad" gradientUnits="userSpaceOnUse"><stop id="s47-fill-0" offset="0%" stop-color="rgb(147,220,252)"/><stop id="s47-fill-1" offset="100%" stop-color="rgb(173,233,255)"/></linearGradient><linearGradient id="s49-fill" x1="193.760000" y1="271.650000" x2="188.380000" y2="223.230000" spreadMethod="pad" gradientUnits="userSpaceOnUse"><stop id="s49-fill-0" offset="0%" stop-color="rgb(147,220,252)"/><stop id="s49-fill-1" offset="100%" stop-color="rgb(173,233,255)"/></linearGradient><linearGradient id="s53-fill" x1="299.820000" y1="334.530000" x2="236.730000" y2="178.040000" spreadMethod="pad" gradientUnits="userSpaceOnUse"><stop id="s53-fill-0" offset="18%" stop-color="rgb(138,91,83)"/><stop id="s53-fill-1" offset="100%" stop-color="rgb(181,128,119)"/></linearGradient><linearGradient id="s55-fill" x1="93.289998" y1="472.140007" x2="39.199998" y2="478.150007" spreadMethod="pad" gradientUnits="userSpaceOnUse"><stop id="s55-fill-0" offset="0%" stop-color="rgb(112,189,224)"/><stop id="s55-fill-1" offset="100%" stop-color="rgb(143,225,255)"/></linearGradient><linearGradient id="s57-fill" x1="274.430000" y1="250.360000" x2="268.900000" y2="200.520000" spreadMethod="pad" gradientUnits="userSpaceOnUse"><stop id="s57-fill-0" offset="0%" stop-color="rgb(147,220,252)"/><stop id="s57-fill-1" offset="100%" stop-color="rgb(173,233,255)"/></linearGradient></defs><g id="s3"><rect id="s5" width="245.540000" height="178.620000" rx="0" ry="0" transform="translate(77.230000,141.210000)" fill="url(#s5-fill)" stroke="none" stroke-width="1"/><rect id="s7" width="245.540000" height="27.390000" rx="0" ry="0" transform="translate(77.230000,292.440000)" fill="url(#s7-fill)" stroke="none" stroke-width="1"/><rect id="s9" width="265.010000" height="14.430000" rx="7.210000" ry="7.210000" transform="translate(67.490000,319.840000)" fill="url(#s9-fill)" stroke="none" stroke-width="1"/><g id="s11"><g id="s13"><path id="s15" d="M72.850000,129.570000L72.850000,149.570000C72.882958,161.204006,82.305994,170.627042,93.940000,170.660000L94.150000,170.660000C105.784006,170.627042,115.207042,161.204006,115.240000,149.570000L115.240000,129.570000Z" fill="url(#s15-fill)" stroke="none" stroke-width="1"/><path id="s17" d="M115.240000,129.570000L115.240000,149.570000C115.272958,161.204006,124.695994,170.627042,136.330000,170.660000L136.540000,170.660000C148.174006,170.627042,157.597042,161.204006,157.630000,149.570000L157.630000,129.570000Z" fill="url(#s17-fill)" stroke="none" stroke-width="1"/><path id="s19" d="M157.620000,129.570000L157.620000,149.570000C157.652958,161.204006,167.075994,170.627042,178.710000,170.660000L178.920000,170.660000C190.534562,170.621689,199.945148,161.224496,200,149.610000L200,129.610000Z" fill="url(#s19-fill)" stroke="none" stroke-width="1"/><path id="s21" d="M200,129.570000L200,149.570000C200.032958,161.204006,209.455994,170.627042,221.090000,170.660000L221.300000,170.660000C232.934006,170.627042,242.357042,161.204006,242.390000,149.570000L242.390000,129.570000Z" fill="url(#s21-fill)" stroke="none" stroke-width="1"/><path id="s23" d="M242.380000,129.570000L242.380000,149.570000C242.412958,161.204006,251.835994,170.627042,263.470000,170.660000L263.680000,170.660000C275.314006,170.627042,284.737042,161.204006,284.770000,149.570000L284.770000,129.570000Z" fill="url(#s23-fill)" stroke="none" stroke-width="1"/><path id="s25" d="M284.760000,129.570000L284.760000,149.570000C284.792958,161.204006,294.215994,170.627042,305.850000,170.660000L306.060000,170.660000C317.694006,170.627042,327.117042,161.204006,327.150000,149.570000L327.150000,129.570000Z" fill="url(#s25-fill)" stroke="none" stroke-width="1"/></g><g id="s27"><polygon id="s29" points="90.370000,111.070000 72.850000,129.570000 115.240000,129.570000 126.920000,111.070000 90.370000,111.070000" fill="url(#s29-fill)" stroke="none" stroke-width="1"/><polygon id="s31" points="126.920000,111.070000 115.240000,129.570000 157.620000,129.570000 163.460000,111.070000 126.920000,111.070000" fill="url(#s31-fill)" stroke="none" stroke-width="1"/><polygon id="s33" points="163.460000,111.070000 157.620000,129.570000 200,129.570000 200,111.070000 163.460000,111.070000" fill="url(#s33-fill)" stroke="none" stroke-width="1"/><polygon id="s35" points="200,111.070000 200,129.570000 242.380000,129.570000 236.540000,111.070000 200,111.070000" fill="url(#s35-fill)" stroke="none" stroke-width="1"/><polygon id="s37" points="236.540000,111.070000 242.380000,129.570000 284.760000,129.570000 273.080000,111.070000 236.540000,111.070000" fill="url(#s37-fill)" stroke="none" stroke-width="1"/><polygon id="s39" points="273.080000,111.070000 284.760000,129.570000 327.150000,129.570000 309.630000,111.070000 273.080000,111.070000" fill="url(#s39-fill)" stroke="none" stroke-width="1"/></g></g><g id="s41"><rect id="s43" width="114.450000" height="83.450000" rx="3.670000" ry="3.670000" transform="translate(96.830000,194.250000)" fill="url(#s43-fill)" stroke="none" stroke-width="1"/><rect id="s45" width="60.100000" height="91.110000" rx="0" ry="0" transform="translate(390.020000,81.920000) rotate(90) translate(124,190.410000)" fill="url(#s45-fill)" stroke="none" stroke-width="1"/><polygon id="s47" points="116.040000,266.020000 147.160000,266.020000 173.910000,205.920000 142.790000,205.920000 116.040000,266.020000" fill="url(#s47-fill)" stroke="none" stroke-width="1"/><polygon id="s49" points="182.340000,266.020000 199.610000,266.020000 199.610000,227.220000 182.340000,266.020000" fill="url(#s49-fill)" stroke="none" stroke-width="1"/></g><g id="s51"><path id="s53" d="M239.140000,194.250000L299.290000,194.250000C301.438388,194.250000,303.180000,195.991612,303.180000,198.140000L303.180000,319.840000L235.250000,319.840000L235.250000,198.140000C235.250000,195.991612,236.991612,194.250000,239.140000,194.250000Z" fill="url(#s53-fill)" stroke="none" stroke-width="1"/><rect id="s55" width="38.380000" height="44.580000" rx="0" ry="0" transform="translate(494.320000,-44.100000) rotate(90) translate(250.020000,202.820000)" fill="url(#s55-fill)" stroke="none" stroke-width="1"/><polygon id="s57" points="251.750000,244.300000 282.870000,244.300000 291.500000,224.900000 291.500000,205.920000 268.830000,205.920000 251.750000,244.300000" fill="url(#s57-fill)" stroke="none" stroke-width="1"/></g></g></svg>