<svg id="eZcESwqhpH11" xmlns="http://www.w3.org/2000/svg" xmlns:xlink="http://www.w3.org/1999/xlink" viewBox="0 0 400 400" shape-rendering="geometricPrecision" text-rendering="geometricPrecision"><g id="eZcESwqhpH12"><g id="eZcESwqhpH13"><polygon id="eZcESwqhpH14" points="303.900000,322.200000 96.100000,322.200000 133,216.700000 160.300000,194.600000 137.200000,204.700000 200,25 247.100000,159.900000 226.200000,150.700000 250.900000,170.800000 287,274 258.100000,261.300000 292.300000,289" clip-rule="evenodd" fill="rgb(138,201,123)" fill-rule="evenodd" stroke="none" stroke-width="1"/><g id="eZcESwqhpH15"><path id="eZcESwqhpH16" d="M145.100000,182.200000L147,176.700000C147.100000,176.700000,147.200000,176.800000,147.300000,176.900000L200.200000,207.500000C201.600000,208.300000,202,210,201.300000,211.400000C200.500000,212.800000,198.800000,213.200000,197.400000,212.500000L145.100000,182.200000L145.100000,182.200000Z" clip-rule="evenodd" fill="rgb(86,168,124)" fill-rule="evenodd" stroke="none" stroke-width="1"/><path id="eZcESwqhpH17" d="M234.100000,122.600000L236,128.100000L200.200000,148.800000C198.800000,149.600000,197.100000,149.100000,196.300000,147.800000C195.500000,146.400000,196,144.700000,197.300000,143.900000L233.700000,122.900000C233.800000,122.700000,234,122.600000,234.100000,122.600000Z" clip-rule="evenodd" fill="rgb(65,170,41)" fill-rule="evenodd" stroke="none" stroke-width="1"/></g><polygon id="eZcESwqhpH18" points="121.100000,250.600000 129.500000,226.600000 198.800000,266.700000 198.800000,295.400000" clip-rule="evenodd" fill="rgb(174,216,165)" fill-rule="evenodd" stroke="none" stroke-width="1"/><polygon id="eZcESwqhpH19" points="198,227.300000 198.800000,272.300000 271.800000,230.100000 258.500000,192.400000" clip-rule="evenodd" fill="rgb(174,216,165)" fill-rule="evenodd" stroke="none" stroke-width="1"/></g><path id="eZcESwqhpH110" d="M194.500000,122.100000C194.500000,119.700000,196.400000,117.800000,198.800000,117.800000C201.200000,117.800000,203.100000,119.700000,203.100000,122.100000L203.100000,375L194.500000,375L194.500000,122.100000Z" fill="rgb(86,60,34)" stroke="none" stroke-width="1"/></g></svg>