<svg id="s1" xmlns="http://www.w3.org/2000/svg" xmlns:xlink="http://www.w3.org/1999/xlink" viewBox="0 0 400 400"><g id="s3"><g id="s5"><path id="s7" d="M134.920000,171.830000C124.110000,176.660000,105.170000,179.830000,109.480000,199.990000C113.790000,220.150000,121.040000,237.890000,123.560000,247.230000C126.080000,256.570000,131.560000,256.890000,143.040000,255.230000C154.520000,253.570000,170.110000,236.430000,170.620000,212.670000C171.130000,188.910000,162.700000,159.420000,134.920000,171.830000Z" fill="rgb(112,68,45)" stroke="none" stroke-width="1"/><path id="s9" d="M154.460000,259.560000C154.580000,244.890000,152.260000,234.070000,141.280000,235.070000C130.300000,236.070000,121.540000,231.670000,124.370000,249.670000C127.200000,267.670000,133.870000,294.670000,134.250000,297.320000C135.170000,303.750000,151.500000,303.080000,151.380000,295.740000C151.150000,281.620000,154.410000,265.790000,154.460000,259.560000Z" fill="rgb(112,68,45)" stroke="none" stroke-width="1"/><path id="s11" d="M152,306.410000C151.840000,297.910000,151.800000,284.410000,142.300000,283.910000C132.800000,283.410000,133.300000,289.180000,135.770000,305.990000C138.240000,322.800000,138.560000,337.880000,135.840000,346.900000C133.120000,355.920000,138.080000,359.080000,146.270000,358.240000C154.460000,357.400000,152.530000,335.240000,152,306.410000Z" fill="rgb(112,68,45)" stroke="none" stroke-width="1"/><path id="s13" d="M153.610000,356.910000C154.470000,347.240000,140.670000,344.030000,131.890000,352.320000C123.110000,360.610000,124.460000,363.600000,137.950000,364.220000C150,363.940000,153,364,153.610000,356.910000Z" fill="rgb(71,39,21)" stroke="none" stroke-width="1"/></g><g id="s15"><path id="s17" d="M299.460000,202.570000C295.290000,177.280000,275.710000,168.210000,250.250000,172.230000C224.790000,176.250000,220.790000,194.230000,235.120000,209.910000C249.450000,225.590000,260.790000,247.060000,277.790000,249.480000C294.790000,251.900000,304.240000,231.590000,299.460000,202.570000Z" fill="rgb(112,68,45)" stroke="none" stroke-width="1"/><path id="s19" d="M255.080000,233.370000C260.910000,243.690000,276.080000,260.960000,284.790000,272.880000C295.790000,288,307.570000,290.680000,310.590000,286.470000C313.610000,282.260000,316.350000,278.240000,308.700000,267.550000C299.480000,254.670000,298.450000,243.260000,299.450000,222.700000C299.750000,216.570000,286.450000,222.580000,277.800000,223.250000C269.150000,223.920000,251.370000,226.810000,255.080000,233.370000Z" fill="rgb(112,68,45)" stroke="none" stroke-width="1"/><path id="s21" d="M315.050000,278.440000C313.630000,273.320000,306.960000,262.060000,297.170000,265.570000C287.380000,269.080000,284.670000,272.340000,291.830000,281.570000C298.620000,290.300000,303.830000,319.730000,299.350000,343.120000C297.570000,354.510000,312.920000,355.120000,315.770000,341.910000C318.620000,328.700000,319.540000,292.860000,315.050000,278.440000Z" fill="rgb(112,68,45)" stroke="none" stroke-width="1"/><path id="s23" d="M315.700000,360.200000C318.240000,352.650000,313.700000,341.790000,304.970000,341.890000C296.240000,341.990000,298.220000,346.040000,294.170000,351.780000C290.120000,357.520000,285.170000,361.960000,290.670000,363.480000C296.170000,365,314.200000,364.670000,315.700000,360.200000Z" fill="rgb(71,39,21)" stroke="none" stroke-width="1"/></g><path id="s25" d="M311.460000,156.280000C322.780000,158.570000,351.680000,182.780000,357.730000,225.840000C363.780000,268.900000,373.120000,299.400000,383.500000,304.840000C352.110000,308.280000,346.400000,286.920000,340.400000,255.210000C334.400000,223.500000,335.230000,176.330000,312.090000,166.380000C302.450000,163.910000,303.120000,154.070000,311.460000,156.280000Z" fill="rgb(71,39,21)" stroke="none" stroke-width="1"/><path id="s27" d="M114.450000,204.930000C115.780000,221.240000,125.610000,244.270000,148,246.250000C170.390000,248.230000,210.360000,250.780000,244.570000,239.350000C278.780000,227.920000,285.630000,231.980000,302.780000,232.550000C319.930000,233.120000,331.380000,218.550000,331.080000,192.550000C330.780000,166.550000,311.430000,147.820000,277.770000,146.850000C244.110000,145.880000,228.770000,154.500000,202.220000,147.960000C175.670000,141.420000,157.220000,133.140000,143.810000,148.840000C130.400000,164.540000,114.120000,186.280000,114.450000,204.930000Z" fill="rgb(138,88,61)" stroke="none" stroke-width="1"/><path id="s29" d="M73.250000,130.240000C80.440000,143.090000,97.410000,166.650000,109.770000,202.110000C122.130000,237.570000,136.120000,244.900000,154.120000,211.240000C172.120000,177.580000,197.340000,146.330000,171.060000,139.780000C144.780000,133.230000,133.440000,120.700000,120.700000,111C107.960000,101.300000,91.530000,89.240000,75.540000,86.590000C60,84,51.130000,102.240000,73.250000,130.240000Z" fill="rgb(138,88,61)" stroke="none" stroke-width="1"/><g id="s31"><path id="s33" d="M50.190000,89.540000C47.510000,85.920000,45.860000,64.110000,47.320000,63.740000C48.780000,63.370000,63.160000,81.260000,64,91.750000C64.840000,102.240000,52.470000,94.470000,50.190000,89.540000Z" fill="rgb(120,68,38)" stroke="none" stroke-width="1"/><path id="s35" d="M85.570000,89.860000C75.110000,85.570000,53.380000,77.050000,43.570000,95.530000C35.462935,110.822561,28.374191,126.633601,22.350000,142.860000C18.100000,153.950000,22.560000,163.280000,33.600000,163.490000C42.990000,163.660000,48.070000,150.490000,58.680000,146.360000C69.290000,142.230000,81.680000,142.250000,90.850000,131.610000C99.670000,121.390000,99.780000,95.690000,85.570000,89.860000Z" fill="rgb(138,88,61)" stroke="none" stroke-width="1"/><path id="s37" d="M39,104.580000C52.720000,91.460000,61.580000,84.750000,66.450000,83.740000C59.370000,81,43.200000,83.570000,39,104.580000Z" fill="rgb(71,39,21)" stroke="none" stroke-width="1"/><path id="s39" d="M59.400000,88.290000C56.720000,84.670000,55.070000,62.860000,56.530000,62.490000C57.990000,62.120000,72.370000,80,73.240000,90.500000C74.110000,101,61.680000,93.220000,59.400000,88.290000Z" fill="rgb(138,88,61)" stroke="none" stroke-width="1"/><ellipse id="s41" rx="3.150000" ry="3.610000" transform="translate(48.120000,115.660000)" fill="rgb(23,13,7)" stroke="none" stroke-width="1"/><path id="s43" d="M28.810000,155.330000C28.562972,154.973421,28.408346,154.561085,28.360000,154.130000C28.231256,153.456497,28.019648,152.801518,27.730000,152.180000C27.120000,150.890000,25.660000,149.980000,25.860000,149.280000C25.960000,148.970000,26.490000,148.770000,27.320000,148.950000C28.465776,149.236348,29.430669,150.006271,29.964202,151.059903C30.497736,152.113535,30.547289,153.346963,30.100000,154.440000C29.740000,155.270000,29,155.620000,28.810000,155.330000Z" fill="rgb(71,39,21)" stroke="none" stroke-width="1"/></g><g id="s45"><path id="s47" d="M323.120000,202.570000C318.950000,177.280000,299.370000,168.210000,273.910000,172.230000C248.450000,176.250000,244.450000,194.230000,258.780000,209.910000C273.110000,225.590000,284.450000,247.060000,301.450000,249.480000C318.450000,251.900000,327.910000,231.590000,323.120000,202.570000Z" fill="rgb(138,88,61)" stroke="none" stroke-width="1"/><path id="s49" d="M278.740000,233.370000C284.570000,243.690000,299.740000,260.960000,308.450000,272.880000C319.450000,288,331.230000,290.680000,334.250000,286.470000C337.270000,282.260000,340.010000,278.240000,332.360000,267.550000C323.140000,254.670000,322.960000,244.830000,323.960000,224.280000C324.260000,218.150000,310.140000,222.590000,301.450000,223.280000C292.760000,223.970000,275,226.810000,278.740000,233.370000Z" fill="rgb(138,88,61)" stroke="none" stroke-width="1"/><path id="s51" d="M338.720000,278.440000C337.300000,273.320000,330.630000,262.060000,320.840000,265.570000C311.050000,269.080000,308.340000,272.340000,315.500000,281.570000C322.290000,290.300000,327.500000,319.730000,323.020000,343.120000C321.240000,354.510000,336.590000,355.120000,339.440000,341.910000C342.290000,328.700000,343.200000,292.860000,338.720000,278.440000Z" fill="rgb(138,88,61)" stroke="none" stroke-width="1"/><path id="s53" d="M339.370000,360.200000C341.910000,352.650000,337.370000,341.790000,328.640000,341.890000C319.910000,341.990000,321.890000,346.040000,317.840000,351.780000C313.790000,357.520000,308.840000,361.960000,314.340000,363.480000C319.840000,365,337.870000,364.670000,339.370000,360.200000Z" fill="rgb(71,39,21)" stroke="none" stroke-width="1"/></g><g id="s55"><path id="s57" d="M150.260000,171.830000C139.450000,176.660000,115.580000,197.690000,125.140000,215.910000C134.700000,234.130000,136.370000,237.910000,138.890000,247.240000C141.410000,256.570000,146.890000,256.900000,158.370000,255.240000C169.850000,253.580000,185.440000,236.440000,185.950000,212.680000C186.460000,188.920000,178,159.420000,150.260000,171.830000Z" fill="rgb(138,88,61)" stroke="none" stroke-width="1"/><path id="s59" d="M169.800000,259.560000C169.920000,244.890000,167.600000,234.070000,156.620000,235.070000C145.640000,236.070000,136.820000,237.220000,139.620000,255.230000C142.420000,273.240000,149.180000,294.690000,149.560000,297.320000C150.480000,303.750000,166.810000,303.080000,166.690000,295.740000C166.490000,281.620000,169.750000,265.790000,169.800000,259.560000Z" fill="rgb(138,88,61)" stroke="none" stroke-width="1"/><path id="s61" d="M167.340000,306.410000C167.180000,297.910000,167.140000,284.410000,157.640000,283.910000C148.140000,283.410000,148.640000,289.180000,151.110000,305.990000C153.580000,322.800000,153.900000,337.880000,151.180000,346.900000C148.460000,355.920000,153.420000,359.080000,161.610000,358.240000C169.800000,357.400000,167.870000,335.240000,167.340000,306.410000Z" fill="rgb(138,88,61)" stroke="none" stroke-width="1"/><path id="s63" d="M169,356.910000C169.860000,347.240000,156.060000,344.030000,147.280000,352.320000C138.500000,360.610000,139.850000,363.600000,153.340000,364.220000C165.380000,363.940000,168.320000,364,169,356.910000Z" fill="rgb(71,39,21)" stroke="none" stroke-width="1"/></g><path id="s65" d="M158.250000,168.060000C163.310000,166.700000,168.170000,151.260000,163.700000,137.670000C142.540000,130.780000,132.190000,119.730000,120.700000,110.950000C115.280000,106.800000,109.180000,102.250000,102.700000,98.190000C108.960000,107.020000,114.060000,123.570000,115.700000,139.870000C118,162.120000,153,168.730000,158.250000,168.060000Z" fill="rgb(71,39,21)" stroke="none" stroke-width="1"/></g></svg>