<svg id="s1" xmlns="http://www.w3.org/2000/svg" xmlns:xlink="http://www.w3.org/1999/xlink" viewBox="0 0 400 400"><g id="s3"><path id="s5" d="M340.220000,198.180000C341.050000,190.050000,346.740000,181.540000,345.520000,173.080000C344.360000,165,336.520000,158.260000,333.750000,150.190000C331.070000,142.420000,333.190000,132.350000,329.230000,124.870000C325.270000,117.390000,315.820000,113.580000,310.900000,106.800000C305.980000,100.020000,305.200000,89.730000,299.450000,83.750000C293.700000,77.770000,283.350000,76.490000,276.840000,71.500000C270.050000,66.300000,266.150000,56.730000,258.900000,53.050000C251.240000,49.160000,241.340000,51.800000,233.430000,49.960000C225.140000,48,217.210000,41.420000,209,42.160000C200.790000,42.900000,194.350000,50.730000,186.560000,54.490000C179.510000,57.900000,169.290000,57.780000,162.790000,64.010000C160.795657,66.088098,159.259261,68.561321,158.280000,71.270000C150.790000,69.080000,145.680000,64.270000,138.670000,65.040000C131.210000,65.900000,125.880000,73.880000,119.260000,77.470000C112.880000,80.930000,103.370000,80.790000,97.970000,86.280000C92.900000,91.440000,92.970000,101.070000,88.970000,107.600000C85.120000,113.800000,76.430000,117.850000,73.650000,124.940000C70.960000,131.800000,74.520000,140.720000,72.950000,148.090000C71.380000,155.460000,64.500000,162.090000,64.180000,169.520000C63.860000,176.950000,70.180000,184.220000,71.180000,191.580000C72.180000,198.940000,68.180000,207.720000,70.660000,214.730000C73.140000,221.740000,81.800000,225.800000,85.930000,232.070000C89.930000,238.190000,90.270000,247.770000,95.930000,252.900000C101.260000,257.710000,110.770000,257.150000,117.650000,260.850000C123.880000,264.200000,128.500000,272.560000,136.080000,274.850000C142.830000,276.850000,151.350000,272.520000,159.210000,273.520000C166.210000,274.410000,175.980000,279.130000,183.890000,279.130000C189.670000,278.970000,192.740000,275.390000,195.700000,276.020000C202.980000,277.570000,206.150000,281.020000,212.300000,280.970000C221.140000,280.970000,224.210000,276.970000,232.070000,276.380000C240.950000,275.680000,250,280.520000,257.680000,279.070000C266.510000,277.410000,273.020000,269.490000,280.350000,266.940000C288.880000,263.940000,298.960000,265.850000,305.580000,261.850000C313.250000,257.210000,315.930000,247.340000,321.230000,241.560000C327.110000,235.160000,336.560000,231.360000,339.800000,223.900000C343.090000,216.190000,339.370000,206.570000,340.220000,198.180000Z" fill="rgb(87,37,25)" stroke="none" stroke-width="1"/><g id="s7"><path id="s9" d="M304.700000,368L304.700000,342.310000C304.612202,311.579311,279.730637,286.684345,249,286.580000L245.480000,286.580000C234.434305,286.580000,225.480000,277.625695,225.480000,266.580000L225.480000,246.530000L174.250000,246.530000L174.250000,266.620000C174.250000,277.665695,165.295695,286.620000,154.250000,286.620000L150.730000,286.620000C119.987647,286.707883,95.087883,311.607647,95,342.350000L95,368C95,372.633669,98.756331,376.390000,103.390000,376.390000L296.310000,376.390000C300.943669,376.390000,304.700000,372.633669,304.700000,368Z" fill="rgb(153,96,63)" stroke="none" stroke-width="1"/><path id="s11" d="M174.250000,246.530000L174.250000,266.620000C174.227218,271.284180,172.555266,275.789949,169.530000,279.340000C178.733861,284.352790,189.049592,286.972985,199.530000,286.960000L200.280000,286.960000C210.760355,286.972558,221.075981,284.352389,230.280000,279.340000C227.254734,275.789949,225.582782,271.284180,225.560000,266.620000L225.560000,246.530000Z" fill="rgb(138,80,47)" stroke="none" stroke-width="1"/><g id="s13"><path id="s15" d="M249.100000,286.580000C240.916097,301.848870,225.013761,311.395648,207.690000,311.440000L192.070000,311.440000C174.746239,311.395648,158.843903,301.848870,150.660000,286.580000C119.972314,286.739093,95.152931,311.612042,95.060000,342.300000L95.060000,368C95.060000,372.633669,98.816331,376.390000,103.450000,376.390000L296.310000,376.390000C300.943669,376.390000,304.700000,372.633669,304.700000,368L304.700000,342.310000C304.612549,311.618139,279.791573,286.739129,249.100000,286.580000Z" fill="rgb(92,201,152)" stroke="none" stroke-width="1"/><line id="s17" x1="186" y1="319.710000" x2="186" y2="369.040000" fill="none" stroke="rgb(51,168,117)" stroke-width="5" stroke-linecap="round" stroke-miterlimit="10"/><circle id="s19" r="4.920000" transform="translate(204.900000,330.960000)" fill="rgb(122,230,181)" stroke="none" stroke-width="1"/><circle id="s21" r="4.920000" transform="translate(204.900000,358.720000)" fill="rgb(122,230,181)" stroke="none" stroke-width="1"/><line id="s23" x1="140.990000" y1="348.390000" x2="140.990000" y2="369.040000" fill="none" stroke="rgb(51,168,117)" stroke-width="8" stroke-linecap="round" stroke-miterlimit="10"/><line id="s25" x1="258.750000" y1="348.390000" x2="258.750000" y2="369.040000" fill="none" stroke="rgb(51,168,117)" stroke-width="8" stroke-linecap="round" stroke-miterlimit="10"/></g></g><g id="s27"><circle id="s29" r="19.500000" transform="translate(262.120000,195.270000)" fill="rgb(153,96,63)" stroke="none" stroke-width="1"/><circle id="s31" r="19.500000" transform="translate(137.620000,195.270000)" fill="rgb(153,96,63)" stroke="none" stroke-width="1"/><path id="s33" d="M197,100.180000L204.140000,100.180000C220.031772,100.180000,235.272659,106.492982,246.509838,117.730162C257.747018,128.967341,264.060000,144.208228,264.060000,160.100000L264.060000,201.370000C264.060000,236.230213,235.800213,264.490000,200.940000,264.490000L200.190000,264.490000C183.449535,264.490000,167.394716,257.839876,155.557420,246.002580C143.720124,234.165284,137.070000,218.110465,137.070000,201.370000L137.070000,160.110000C137.067347,144.214763,143.380531,128.969791,154.620161,117.730161C165.859791,106.490531,181.104763,100.177347,197,100.180000Z" fill="rgb(153,96,63)" stroke="none" stroke-width="1"/><path id="s35" d="M184.580000,219.310000L184.580000,219.600000C184.580000,226.890000,190.370000,233.420000,198.420000,234.380000C208.160000,235.540000,216.560000,228.680000,216.560000,220.140000L216.560000,219.310000C216.430943,217.049255,214.501574,215.316396,212.240000,215.430000L188.900000,215.430000C186.638426,215.316396,184.709057,217.049255,184.580000,219.310000Z" fill="rgb(255,255,255)" stroke="none" stroke-width="1"/><path id="s37" d="M207.230000,205.130000C205.850695,202.789844,203.355792,201.333113,200.639874,201.282139C197.923955,201.231164,195.376147,202.593249,193.910000,204.880000" fill="none" stroke="rgb(128,67,32)" stroke-width="4" stroke-linecap="round" stroke-miterlimit="10"/><g id="s39"><ellipse id="s41" rx="6.880000" ry="7.430000" transform="translate(168.370000,190.110000)" fill="rgb(0,0,0)" stroke="none" stroke-width="1"/><ellipse id="s43" rx="6.880000" ry="7.430000" transform="translate(231.380000,190.110000)" fill="rgb(0,0,0)" stroke="none" stroke-width="1"/></g><g id="s45"><line id="s47" x1="219.710000" y1="158.350000" x2="243.040000" y2="158.350000" fill="none" stroke="rgb(87,37,25)" stroke-width="8" stroke-linecap="round" stroke-miterlimit="10"/><line id="s49" x1="156.710000" y1="158.350000" x2="180.030000" y2="158.350000" fill="none" stroke="rgb(87,37,25)" stroke-width="8" stroke-linecap="round" stroke-miterlimit="10"/></g><g id="s51"><path id="s53" d="M268,162.850000L268,149.580000C268,115.920000,238.850000,88.640000,202.880000,88.640000L197.540000,88.640000C161.540000,88.640000,132.420000,115.920000,132.420000,149.580000L132.420000,191.640000L132.420000,191.640000L132.420000,192.890000C132.430956,195.453572,134.506428,197.529044,137.070000,197.540000L137.150000,197.540000C139.713572,197.529044,141.789044,195.453572,141.800000,192.890000L141.800000,168.890000C141.794259,149.638525,151.761875,131.758120,168.140000,121.640000L233,121.640000C249.378125,131.758120,259.345741,149.638525,259.340000,168.890000L259.340000,191.640000L259.340000,191.640000L259.340000,193.640000C259.345496,195.791630,261.088370,197.534504,263.240000,197.540000L264.080000,197.540000C266.231630,197.534504,267.974504,195.791630,267.980000,193.640000L267.980000,162.850000Z" fill="rgb(87,37,25)" stroke="none" stroke-width="1"/><path id="s55" d="M195.140000,121.630000L195.140000,115.630000C195.118034,108.249548,189.140452,102.271966,181.760000,102.250000L181.760000,102.250000C174.379548,102.271966,168.401966,108.249548,168.380000,115.630000L168.380000,121.630000Z" fill="rgb(59,20,11)" stroke="none" stroke-width="1"/><path id="s57" d="M183.270000,102.360000C183.880000,110.090000,180.710000,116.760000,183.520000,124.210000C186.260000,131.460000,195.240000,135.640000,199.860000,142.110000C204.370000,148.420000,205.350000,158.290000,211.450000,163.400000C217.370000,168.400000,227.200000,167.640000,234.450000,171.050000C241.370000,174.310000,247.030000,182.430000,255,183.890000C262.420000,185.260000,268.660000,180.720000,276.860000,180.240000C277.700000,171.490000,282.920000,164.580000,281.970000,156.330000C280.970000,147.520000,273.090000,140.870000,269.330000,133.410000C265.570000,125.950000,264.630000,115.500000,257.330000,110.200000C251.070000,105.650000,240.880000,107.400000,231.530000,105.030000C224.120000,103.160000,216.480000,96.140000,206.870000,95.930000C199.090000,95.750000,192.620000,101.280000,183.270000,102.360000Z" fill="rgb(87,37,25)" stroke="none" stroke-width="1"/></g></g></g></svg>