<svg id="s1" xmlns="http://www.w3.org/2000/svg" xmlns:xlink="http://www.w3.org/1999/xlink" viewBox="0 0 400 400"><g id="s3"><g id="s5"><path id="s7" d="M227.760000,312.650000C228.470000,326.720000,224.400000,356.650000,220.760000,369.020000C217.200000,381.170000,248.460000,376.220000,260.960000,375.340000C275.230000,374.340000,277.100000,367.340000,276.080000,360.270000C275.060000,353.200000,269.600000,315.410000,264.670000,304C262.640000,299.250000,226.870000,304.820000,227.760000,312.650000Z" fill="rgb(153,101,63)" stroke="none" stroke-width="1"/><path id="s9" d="M221.470000,256.180000C223.680000,265.820000,224.130000,290.950000,223.670000,316.180000C223.570000,321.570000,236.360000,320.430000,248.430000,318.530000C262.430000,316.320000,269.580000,312.200000,270.210000,309.440000C270.840000,306.680000,260,261.620000,249.540000,247.150000C245.320000,245.540000,221,253.550000,221.470000,256.180000Z" fill="rgb(184,125,82)" stroke="none" stroke-width="1"/><path id="s11" d="M205.530000,199.380000C209.910000,211.440000,214.660000,254.320000,215.120000,267.100000C215.390000,274.680000,232.290000,269.610000,245.840000,265.340000C262.120000,260.220000,265.650000,260.340000,257.350000,245.790000C249.050000,231.240000,229.350000,193.290000,229.350000,193.290000C229.350000,193.290000,203.920000,193.760000,205.530000,199.380000Z" fill="rgb(153,101,63)" stroke="none" stroke-width="1"/><path id="s13" d="M194,169.340000C196.360000,182.080000,197.340000,199.340000,199.610000,213.730000C200.920000,222.030000,211.120000,218.450000,226.210000,212.370000C241.130000,206.370000,248.210000,204.490000,239.300000,192.920000C230.390000,181.350000,217.300000,163.380000,214,162.160000C210.700000,160.940000,193,163.880000,194,169.340000Z" fill="rgb(184,125,82)" stroke="none" stroke-width="1"/></g><g id="s15"><path id="s17" d="M101.770000,119.310000C65.050000,131.760000,48.520000,178.310000,54.560000,195.840000C55.920000,198.640000,114.760000,139.090000,202.040000,159.110000C189.150000,112.530000,138.500000,106.860000,101.770000,119.310000Z" fill="rgb(54,140,49)" stroke="none" stroke-width="1"/><path id="s19" d="M111.280000,206.350000C94.910000,241.500000,117.130000,285.610000,133.990000,293.350000C136.990000,294.300000,134.560000,210.620000,209.340000,161.350000C166.750000,138.500000,127.650000,171.200000,111.280000,206.350000Z" fill="rgb(54,140,49)" stroke="none" stroke-width="1"/><path id="s21" d="M230.890000,56.300000C263.710000,35.650000,310.250000,52.170000,320.060000,67.920000C321.370000,70.740000,238.060000,78.860000,198.560000,159.220000C170.520000,119.840000,198.060000,77,230.890000,56.300000Z" fill="rgb(54,140,49)" stroke="none" stroke-width="1"/><path id="s23" d="M301.130000,135.320000C337.950000,152.160000,350.130000,202.250000,342.040000,219.830000C340.330000,222.590000,285.540000,154.490000,192.760000,166.010000C211.100000,119,264.310000,118.480000,301.130000,135.320000Z" fill="rgb(54,140,49)" stroke="none" stroke-width="1"/></g></g></svg>