<svg id="s1" xmlns="http://www.w3.org/2000/svg" xmlns:xlink="http://www.w3.org/1999/xlink" viewBox="0 0 400 400"><g id="s3"><g id="s5"><path id="s7" d="M304.820000,356.760000L304.820000,337.610000C304.732117,306.867647,279.832353,281.967883,249.090000,281.880000L245.570000,281.880000C234.524305,281.880000,225.570000,272.925695,225.570000,261.880000L225.570000,241.830000L174.380000,241.830000L174.380000,261.920000C174.380000,272.965695,165.425695,281.920000,154.380000,281.920000L150.860000,281.920000C120.117647,282.007883,95.217883,306.907647,95.130000,337.650000L95.130000,356.790000C95.130000,365.019043,101.800957,371.690000,110.030000,371.690000L289.920000,371.690000C293.876929,371.690008,297.671356,370.116074,300.466512,367.315290C303.261668,364.514506,304.827967,360.716921,304.820000,356.760000Z" fill="rgb(255,197,125)" stroke="none" stroke-width="1"/><path id="s9" d="M174.380000,241.830000L174.380000,261.920000C174.357218,266.584180,172.685266,271.089949,169.660000,274.640000C178.863861,279.652790,189.179592,282.272985,199.660000,282.260000L200.410000,282.260000C210.890355,282.272558,221.205981,279.652389,230.410000,274.640000C227.384734,271.089949,225.712782,266.584180,225.690000,261.920000L225.690000,241.830000Z" fill="rgb(247,175,85)" stroke="none" stroke-width="1"/><g id="s11"><path id="s13" d="M248.230000,275.180000L244.770000,275.180000C238.933048,275.170950,233.602193,271.864814,231,266.640000C230.720930,266.058678,230.186891,265.640613,229.555575,265.509253C228.924259,265.377892,228.267786,265.548241,227.780000,265.970000C225.062072,268.282027,222.069506,270.250201,218.870000,271.830000C217.556479,272.498329,216.534879,273.626717,216,275L203.660000,306.260000C203.067228,307.760136,201.618005,308.745744,200.005000,308.745744C198.391995,308.745744,196.942772,307.760136,196.350000,306.260000L184,275C183.453240,273.623623,182.416753,272.498092,181.090000,271.840000C177.893936,270.259578,174.904754,268.291420,172.190000,265.980000C171.702214,265.558241,171.045741,265.387892,170.414425,265.519253C169.783109,265.650613,169.249070,266.068678,168.970000,266.650000C166.369418,271.871597,161.043347,275.177167,155.210000,275.190000L151.760000,275.190000C119.254807,275.195521,92.905521,301.544807,92.900000,334.050000L92.900000,359.250000C92.900000,362.528076,94.202211,365.671890,96.520160,367.989840C98.838110,370.307789,101.981924,371.610000,105.260000,371.610000L294.740000,371.610000C298.018076,371.610000,301.161890,370.307789,303.479840,367.989840C305.797789,365.671890,307.100000,362.528076,307.100000,359.250000L307.100000,334C307.072402,301.506525,280.723487,275.179988,248.230000,275.180000Z" fill="rgb(242,227,213)" stroke="none" stroke-width="1"/><rect id="s15" width="13.330000" height="104.090000" rx="3" ry="3" transform="translate(150.170000,271.560000)" fill="rgb(76,57,87)" stroke="none" stroke-width="1"/><rect id="s17" width="13.330000" height="104.090000" rx="3" ry="3" transform="translate(236.500000,271.560000)" fill="rgb(76,57,87)" stroke="none" stroke-width="1"/><line id="s19" x1="141.120000" y1="343.690000" x2="141.120000" y2="363.270000" fill="none" stroke="rgb(209,179,153)" stroke-width="8" stroke-linecap="round" stroke-miterlimit="10"/><line id="s21" x1="258.880000" y1="343.690000" x2="258.880000" y2="363.270000" fill="none" stroke="rgb(209,179,153)" stroke-width="8" stroke-linecap="round" stroke-miterlimit="10"/><line id="s23" x1="193.070000" y1="318.530000" x2="193.070000" y2="363.270000" fill="none" stroke="rgb(209,179,153)" stroke-width="4" stroke-linecap="round" stroke-miterlimit="10"/><circle id="s25" r="4.500000" transform="translate(216.980000,300.270000)" fill="rgb(209,179,153)" stroke="none" stroke-width="1"/><circle id="s27" r="4.500000" transform="translate(204.570000,328.860000)" fill="rgb(209,179,153)" stroke="none" stroke-width="1"/><circle id="s29" r="4.500000" transform="translate(204.570000,357.440000)" fill="rgb(209,179,153)" stroke="none" stroke-width="1"/><line id="s31" x1="169.190000" y1="275.150000" x2="180.300000" y2="282.740000" fill="none" stroke="rgb(209,179,153)" stroke-width="4" stroke-linecap="round" stroke-miterlimit="10"/><line id="s33" x1="230.810000" y1="275.150000" x2="219.700000" y2="282.740000" fill="none" stroke="rgb(209,179,153)" stroke-width="4" stroke-linecap="round" stroke-miterlimit="10"/></g></g><g id="s35"><circle id="s37" r="19.500000" transform="translate(262.250000,180.570000)" fill="rgb(255,197,125)" stroke="none" stroke-width="1"/><circle id="s39" r="19.500000" transform="translate(137.750000,180.570000)" fill="rgb(255,197,125)" stroke="none" stroke-width="1"/><path id="s41" d="M189,85.490000L211,85.490000C239.990374,85.506559,263.484485,109.009621,263.490000,138L263.490000,194.070000C263.490000,224.843306,238.543306,249.790000,207.770000,249.790000L192.220000,249.790000C161.446694,249.790000,136.500000,224.843306,136.500000,194.070000L136.500000,138C136.505519,109.005719,160.005720,85.501041,189,85.490000Z" fill="rgb(255,197,125)" stroke="none" stroke-width="1"/><path id="s43" d="M189.440000,207.140000C191.627309,210.854044,195.586374,213.165788,199.895912,213.245330C204.205450,213.324872,208.247126,211.160798,210.570000,207.530000" fill="none" stroke="rgb(235,149,42)" stroke-width="4" stroke-linecap="round" stroke-miterlimit="10"/><path id="s45" d="M206.780000,187.110000C205.360857,184.746976,202.825178,183.280971,200.069226,183.230161C197.313275,183.179351,194.725281,184.550893,193.220000,186.860000" fill="none" stroke="rgb(235,149,42)" stroke-width="4" stroke-linecap="round" stroke-miterlimit="10"/><g id="s47"><ellipse id="s49" rx="6.880000" ry="7.430000" transform="translate(168.500000,168.420000)" fill="rgb(0,0,0)" stroke="none" stroke-width="1"/><ellipse id="s51" rx="6.880000" ry="7.430000" transform="translate(231.500000,168.420000)" fill="rgb(0,0,0)" stroke="none" stroke-width="1"/></g><g id="s53"><line id="s55" x1="219.840000" y1="143.660000" x2="243.170000" y2="143.660000" fill="none" stroke="rgb(214,113,35)" stroke-width="12" stroke-linecap="round" stroke-miterlimit="10"/><line id="s57" x1="156.830000" y1="143.660000" x2="180.160000" y2="143.660000" fill="none" stroke="rgb(214,113,35)" stroke-width="12" stroke-linecap="round" stroke-miterlimit="10"/></g><g id="s59"><path id="s61" d="M203.840000,73.930000L196.160000,73.930000C160.710000,73.930000,132.640000,104.600000,132.640000,142.080000L132.640000,182.650000L142.110000,182.650000L142.110000,131.250000C142.250959,126.106741,146.464815,122.012647,151.610000,122.020000L155.310000,122.080000C155.990000,111.970000,164.230000,97.400000,174.240000,97.400000L225.750000,97.400000C235.750000,97.400000,243.990000,111.950000,244.680000,122.060000L248.390000,122.060000C253.470000,122.060000,257.990000,126.210000,257.990000,131.290000L257.990000,182.690000L267.360000,182.690000L267.360000,142.080000C267.360000,104.600000,239.290000,73.930000,203.840000,73.930000Z" fill="rgb(240,137,58)" stroke="none" stroke-width="1"/><path id="s63" d="M249.830000,53C249.790807,42.413720,241.352336,33.771592,230.770000,33.480000C228.238153,41.053103,221.369217,46.336292,213.400000,46.840000L176.660000,46.840000C162.042689,46.883929,150.203929,58.722689,150.160000,73.340000L150.160000,77.900000C150.192944,88.683492,158.926508,97.417056,169.710000,97.450000L230.280000,97.450000C241.063492,97.417056,249.797056,88.683492,249.830000,77.900000L249.830000,66.360000C249.830000,66.050000,249.830000,65.750000,249.830000,65.440000C249.830000,65.130000,249.830000,64.830000,249.830000,64.520000Z" fill="rgb(214,113,35)" stroke="none" stroke-width="1"/></g><path id="s65" d="M257.950000,152.330000L257.950000,185.180000C257.891528,202.282082,244.676149,216.456044,227.620000,217.710000L227.620000,210.270000C227.703519,199.635012,219.184284,190.928149,208.550000,190.780000L191.460000,190.780000C180.825716,190.928149,172.306481,199.635012,172.390000,210.270000L172.390000,217.710000C155.330029,216.455746,142.113257,202.275932,142.060000,185.170000L142.060000,152.330000C135.977056,159.499898,132.638603,168.597360,132.640000,178L132.640000,217.300000C132.716891,243.777753,154.162247,265.223109,180.640000,265.300000L219.360000,265.300000C245.837753,265.223109,267.283109,243.777753,267.360000,217.300000L267.360000,178C267.364190,168.598622,264.029334,159.501306,257.950000,152.330000ZM183.950000,211.060000C183.905561,206.456062,187.596175,202.684925,192.200000,202.630000L207.800000,202.630000C212.403825,202.684925,216.094439,206.456062,216.050000,211.060000L216.050000,217.810000L216.050000,217.810000L216.050000,223.530000C216.049630,225.022172,215.656456,226.487954,214.910000,227.780000L214.910000,227.780000C213.914101,229.236297,212.264260,230.107982,210.500000,230.110000L209.070000,230.110000C206.117559,230.104497,203.725503,227.712441,203.720000,224.760000L203.720000,223.320000C203.736952,221.777126,204.422922,220.317615,205.600000,219.320000L194.400000,219.320000C195.577078,220.317615,196.263048,221.777126,196.280000,223.320000L196.280000,224.760000C196.274497,227.712441,193.882441,230.104497,190.930000,230.110000L189.500000,230.110000C187.603043,230.103319,185.852025,229.090774,184.900000,227.450000C184.256411,226.242713,183.913386,224.898053,183.900000,223.530000L183.900000,211.050000Z" fill="rgb(214,113,35)" stroke="none" stroke-width="1"/></g></g></svg>