<svg id="s1" xmlns="http://www.w3.org/2000/svg" xmlns:xlink="http://www.w3.org/1999/xlink" viewBox="0 0 400 400"><g id="s3"><path id="s5" d="M234.780000,128.880000C235.010000,72.430000,265.940000,37.480000,301.690000,18.160000C296.280000,74.380000,271.750000,108.390000,234.780000,128.880000Z" fill="rgb(37,143,125)" stroke="none" stroke-width="1"/><path id="s7" d="M212.100000,173C219.200000,150.070000,224.630000,101.640000,210.750000,68.300000C198.360000,94.680000,190.520000,139.810000,212.100000,173Z" fill="rgb(37,143,125)" stroke="none" stroke-width="1"/><path id="s9" d="M213.470000,173.110000C232.770000,144.360000,277.640000,117.110000,303.720000,115.110000C293.420000,151.610000,222.220000,171.790000,213.470000,173.110000Z" fill="rgb(37,143,125)" stroke="none" stroke-width="1"/><path id="s11" d="M190.930000,217.390000C193.350000,203.780000,188.170000,143.110000,168.930000,111.920000C160.080000,157.910000,171.570000,197.530000,190.930000,217.390000Z" fill="rgb(37,143,125)" stroke="none" stroke-width="1"/><path id="s13" d="M194.160000,215.830000C205.280000,200.830000,252.040000,169.100000,281.330000,165.110000C269.730000,212.220000,194.160000,215.830000,194.160000,215.830000Z" fill="rgb(37,143,125)" stroke="none" stroke-width="1"/><path id="s15" d="M169.810000,273.070000C170.520000,270.920000,173.810000,262.240000,173.930000,260.520000C175.300000,235.920000,155.530000,185.140000,137.560000,164.060000C133.240000,237.320000,165.390000,265.900000,169.810000,273.070000Z" fill="rgb(37,143,125)" stroke="none" stroke-width="1"/><path id="s17" d="M170.350000,274.780000C182.640000,252.270000,228.920000,216.030000,262.800000,217.540000C245,258.660000,170.350000,274.780000,170.350000,274.780000Z" fill="rgb(37,143,125)" stroke="none" stroke-width="1"/><path id="s19" d="M152.460000,324.690000C155.540000,309.380000,138.210000,239.920000,106.910000,216.630000C105.820000,273.830000,146.910000,333.810000,149.070000,335.940000C149.600000,334.680000,152.460000,324.690000,152.460000,324.690000Z" fill="rgb(37,143,125)" stroke="none" stroke-width="1"/><path id="s21" d="M149.060000,335.930000C150.370000,333.180000,152.550000,322.560000,154.450000,319.740000C173.130000,291.960000,226.800000,270.860000,254.370000,274.460000C223.160000,320.360000,149.060000,335.930000,149.060000,335.930000Z" fill="rgb(37,143,125)" stroke="none" stroke-width="1"/><path id="s23" d="M268.670000,71.410000C234.270000,125.410000,156.880000,268.180000,139.270000,387.250000" fill="none" stroke="rgb(30,115,101)" stroke-width="5" stroke-linecap="round" stroke-miterlimit="10"/></g></svg>