<svg id="s1" xmlns="http://www.w3.org/2000/svg" xmlns:xlink="http://www.w3.org/1999/xlink" viewBox="0 0 400 400"><defs><linearGradient id="s7-fill" x1="200" y1="99.980000" x2="200" y2="164.640000" spreadMethod="pad" gradientUnits="userSpaceOnUse"><stop id="s7-fill-0" offset="9%" stop-color="rgb(225,171,105)"/><stop id="s7-fill-1" offset="100%" stop-color="rgb(217,162,96)"/></linearGradient><linearGradient id="s9-fill" x1="16.150000" y1="1.860000" x2="16.150000" y2="48.860000" spreadMethod="pad" gradientUnits="userSpaceOnUse"><stop id="s9-fill-0" offset="11%" stop-color="rgb(209,153,82)"/><stop id="s9-fill-1" offset="99%" stop-color="rgb(174,123,61)"/></linearGradient><linearGradient id="s11-fill" x1="115.870000" y1="110.280000" x2="126.050000" y2="141.580000" spreadMethod="pad" gradientUnits="userSpaceOnUse"><stop id="s11-fill-0" offset="4%" stop-color="rgb(242,197,143)"/><stop id="s11-fill-1" offset="48%" stop-color="rgb(242,188,123)"/></linearGradient><linearGradient id="s13-fill" x1="16.160000" y1="1.860000" x2="16.160000" y2="48.860000" spreadMethod="pad" gradientUnits="userSpaceOnUse"><stop id="s13-fill-0" offset="11%" stop-color="rgb(209,153,82)"/><stop id="s13-fill-1" offset="99%" stop-color="rgb(174,123,61)"/></linearGradient><linearGradient id="s15-fill" x1="274.140000" y1="116.520000" x2="284.730000" y2="149.090000" spreadMethod="pad" gradientUnits="userSpaceOnUse"><stop id="s15-fill-0" offset="4%" stop-color="rgb(242,197,143)"/><stop id="s15-fill-1" offset="48%" stop-color="rgb(242,188,123)"/></linearGradient><linearGradient id="s17-fill" x1="173.200000" y1="162.630000" x2="232.620000" y2="345.460000" spreadMethod="pad" gradientUnits="userSpaceOnUse"><stop id="s17-fill-0" offset="4%" stop-color="rgb(242,197,143)"/><stop id="s17-fill-1" offset="48%" stop-color="rgb(242,188,123)"/></linearGradient></defs><g id="s3"><g id="s5"><path id="s7" d="M116.700000,104L283.300000,104C287.596775,104,291.080000,107.483225,291.080000,111.780000L291.080000,150.200000L108.920000,150.200000L108.920000,111.810000C108.912023,109.741423,109.728177,107.754834,111.188075,106.289306C112.647974,104.823778,114.631407,103.999985,116.700000,104Z" fill="url(#s7-fill)" stroke="none" stroke-width="1"/><rect id="s9" width="32.310000" height="46.830000" rx="0" ry="0" transform="translate(108.970000,127.120000)" fill="url(#s9-fill)" stroke="none" stroke-width="1"/><path id="s11" d="M111.620000,106C109.911491,107.464112,108.925706,109.599979,108.920000,111.850000L108.920000,150.260000L141.280000,127.160000Z" fill="url(#s11-fill)" stroke="none" stroke-width="1"/><rect id="s13" width="32.310000" height="46.830000" rx="0" ry="0" transform="translate(258.720000,127.120000)" fill="url(#s13-fill)" stroke="none" stroke-width="1"/><path id="s15" d="M288.380000,106L258.720000,127.170000L291.080000,150.270000L291.080000,111.810000C291.062707,109.573971,290.077981,107.454986,288.380000,106Z" fill="url(#s15-fill)" stroke="none" stroke-width="1"/><path id="s17" d="M108.920000,150.220000L291.080000,150.220000L291.080000,338.740000C291.080000,343.036775,287.596775,346.520000,283.300000,346.520000L116.700000,346.520000C112.403225,346.520000,108.920000,343.036775,108.920000,338.740000L108.920000,150.220000Z" fill="url(#s17-fill)" stroke="none" stroke-width="1"/></g><path id="s19" d="M162.160000,187.810000L162.160000,223.810000C162.264069,244.660322,179.149602,261.532468,200,261.620000L200,261.620000C220.862038,261.532343,237.752343,244.642038,237.840000,223.780000L237.840000,187.780000" fill="none" stroke="rgb(255,233,204)" stroke-width="15" stroke-linecap="round" stroke-miterlimit="10"/></g></svg>