<svg id="s1" xmlns="http://www.w3.org/2000/svg" xmlns:xlink="http://www.w3.org/1999/xlink" viewBox="0 0 400 400"><defs><linearGradient id="s7-fill" x1="-30.920000" y1="-114.240000" x2="23.080000" y2="85.250000" spreadMethod="pad" gradientUnits="userSpaceOnUse"><stop id="s7-fill-0" offset="0%" stop-color="rgb(252,204,140)"/><stop id="s7-fill-1" offset="100%" stop-color="rgb(245,177,100)"/></linearGradient><linearGradient id="s9-fill" x1="-16.690000" y1="-69.650000" x2="20.520000" y2="85.640000" spreadMethod="pad" gradientUnits="userSpaceOnUse"><stop id="s9-fill-0" offset="6%" stop-color="rgb(252,165,118)"/><stop id="s9-fill-1" offset="100%" stop-color="rgb(251,139,74)"/></linearGradient><linearGradient id="s11-fill" x1="-5.860000" y1="-17.820000" x2="6.670000" y2="20.250000" spreadMethod="pad" gradientUnits="userSpaceOnUse"><stop id="s11-fill-0" offset="12%" stop-color="rgb(252,118,100)"/><stop id="s11-fill-1" offset="100%" stop-color="rgb(252,84,62)"/></linearGradient><linearGradient id="s15-fill" x1="253.810000" y1="78.420000" x2="273.100000" y2="137.040000" spreadMethod="pad" gradientUnits="userSpaceOnUse"><stop id="s15-fill-0" offset="12%" stop-color="rgb(252,144,131)"/><stop id="s15-fill-1" offset="100%" stop-color="rgb(252,116,100)"/></linearGradient><linearGradient id="s17-fill" x1="298.450000" y1="128.670000" x2="313.150000" y2="173.360000" spreadMethod="pad" gradientUnits="userSpaceOnUse"><stop id="s17-fill-0" offset="12%" stop-color="rgb(252,144,131)"/><stop id="s17-fill-1" offset="100%" stop-color="rgb(252,116,100)"/></linearGradient><linearGradient id="s19-fill" x1="-3.772604" y1="267.263445" x2="55.949635" y2="297.414478" spreadMethod="pad" gradientUnits="userSpaceOnUse"><stop id="s19-fill-0" offset="12%" stop-color="rgb(191,82,69)"/><stop id="s19-fill-1" offset="100%" stop-color="rgb(229,74,55)"/></linearGradient></defs><g id="s3"><g id="s5"><circle id="s7" r="100.090000" transform="translate(183.270000,227.910000)" fill="url(#s7-fill)" stroke="none" stroke-width="1"/><circle id="s9" r="64.030000" transform="translate(183.270000,227.910000)" fill="url(#s9-fill)" stroke="none" stroke-width="1"/><circle id="s11" r="27.970000" transform="translate(183.270000,227.910000)" fill="url(#s11-fill)" stroke="none" stroke-width="1"/></g><g id="s13"><path id="s15" d="M241.590000,158.200000L227.190000,110.200000C226.757538,108.784345,227.142225,107.245596,228.190000,106.200000L278.710000,55.680000C279.705658,54.684354,281.151476,54.285539,282.516772,54.629938C283.882069,54.974337,284.965729,56.011219,285.370000,57.360000L298.530000,101.200000Z" fill="url(#s15-fill)" stroke="none" stroke-width="1"/><path id="s17" d="M253.630000,170.240000L301.630000,184.640000C303.045655,185.072462,304.584404,184.687775,305.630000,183.640000L356.150000,133.120000C357.145646,132.124342,357.544461,130.678524,357.200062,129.313228C356.855663,127.947931,355.818781,126.864271,354.470000,126.460000L310.630000,113.300000Z" fill="url(#s17-fill)" stroke="none" stroke-width="1"/><rect id="s19" width="17.020000" height="186.520000" rx="8.510000" ry="8.510000" transform="translate(190.380000,-122.790000) rotate(45) scale(1,1) translate(234.900000,75.150000)" fill="url(#s19-fill)" stroke="none" stroke-width="1"/></g></g></svg>