<svg id="s1" xmlns="http://www.w3.org/2000/svg" xmlns:xlink="http://www.w3.org/1999/xlink" viewBox="0 0 400 400"><g id="s3"><g id="s5"><path id="s7" d="M269.190000,207.170000L132.190000,207.170000C132.190000,272.300000,90.190000,268.270000,90.190000,306.280000C90.190000,335.280000,113.540000,349.280000,139.450000,349.280000L262,349.280000C287.900000,349.280000,311.260000,335.280000,311.260000,306.280000C311.230000,268.280000,269.190000,272.300000,269.190000,207.170000Z" fill="rgb(189,145,77)" stroke="none" stroke-width="1"/><path id="s9" d="M154,316.130000C148.475830,316.241458,143.024027,314.859505,138.220000,312.130000C135.740000,310.590000,132.550000,308.010000,130.220000,301.660000C128.220000,296.140000,128.850000,293.940000,133.220000,284.800000C138.990000,272.800000,148.320000,253.440000,144.430000,205.150000L256.920000,205.150000C253.020000,253.440000,262.360000,272.820000,268.130000,284.800000C272.530000,293.940000,273.130000,296.140000,271.130000,301.660000C268.820000,308.020000,265.630000,310.600000,263.130000,312.130000C258.325973,314.859505,252.874170,316.241458,247.350000,316.130000Z" fill="rgb(163,126,69)" fill-rule="evenodd" stroke="none" stroke-width="1"/></g><g id="s11"><path id="s13" d="M304.820000,368L304.820000,342.310000C304.732117,311.567647,279.832353,286.667883,249.090000,286.580000L245.570000,286.580000C234.524305,286.580000,225.570000,277.625695,225.570000,266.580000L225.570000,246.530000L174.380000,246.530000L174.380000,266.620000C174.380000,277.665695,165.425695,286.620000,154.380000,286.620000L150.860000,286.620000C120.117647,286.707883,95.217883,311.607647,95.130000,342.350000L95.130000,368C95.130000,372.633669,98.886331,376.390000,103.520000,376.390000L296.430000,376.390000C301.063669,376.390000,304.820000,372.633669,304.820000,368Z" fill="rgb(247,194,153)" stroke="none" stroke-width="1"/><path id="s15" d="M174.380000,246.530000L174.380000,266.620000C174.357218,271.284180,172.685266,275.789949,169.660000,279.340000C178.863861,284.352790,189.179592,286.972985,199.660000,286.960000L200.410000,286.960000C210.890355,286.972558,221.205981,284.352389,230.410000,279.340000C227.384734,275.789949,225.712782,271.284180,225.690000,266.620000L225.690000,246.530000Z" fill="rgb(227,165,126)" stroke="none" stroke-width="1"/><g id="s17"><path id="s19" d="M163.360000,376.350000L163.360000,290.150000C163.358794,288.139958,163.522678,286.133212,163.850000,284.150000C160.954643,285.719271,157.713282,286.540782,154.420000,286.540000L150.900000,286.540000C150.090000,286.540000,149.290000,286.540000,148.490000,286.600000C148.410000,287.760000,148.360000,288.930000,148.360000,290.110000L148.360000,376.310000Z" fill="rgb(242,227,213)" stroke="none" stroke-width="1"/><path id="s21" d="M251.640000,376.350000L251.640000,290.150000C251.640000,288.970000,251.590000,287.800000,251.510000,286.640000C250.710000,286.640000,249.910000,286.580000,249.100000,286.580000L245.580000,286.580000C242.286718,286.580782,239.045357,285.759271,236.150000,284.190000C236.477322,286.173212,236.641206,288.179958,236.640000,290.190000L236.640000,376.390000Z" fill="rgb(242,227,213)" stroke="none" stroke-width="1"/><path id="s23" d="M234,319.690000L165.440000,319.690000C145.564409,319.702727,125.928547,315.350202,107.920000,306.940000C99.679133,316.884560,95.169557,329.394654,95.170000,342.310000L95.170000,368C95.170000,372.633669,98.926331,376.390000,103.560000,376.390000L296.430000,376.390000C301.063669,376.390000,304.820000,372.633669,304.820000,368L304.820000,342.310000C304.819931,329.309486,300.250287,316.722612,291.910000,306.750000C273.797315,315.281677,254.021457,319.700596,234,319.690000Z" fill="rgb(92,40,77)" stroke="none" stroke-width="1"/><line id="s25" x1="141.120000" y1="348.390000" x2="141.120000" y2="371.970000" fill="none" stroke="rgb(117,51,99)" stroke-width="8" stroke-linecap="round" stroke-miterlimit="10"/><line id="s27" x1="258.880000" y1="348.390000" x2="258.880000" y2="371.970000" fill="none" stroke="rgb(117,51,99)" stroke-width="8" stroke-linecap="round" stroke-miterlimit="10"/></g></g><g id="s29"><circle id="s31" r="19.500000" transform="translate(263.640000,195.270000)" fill="rgb(247,194,153)" stroke="none" stroke-width="1"/><circle id="s33" r="19.500000" transform="translate(137.750000,195.270000)" fill="rgb(247,194,153)" stroke="none" stroke-width="1"/><path id="s35" d="M197.130000,100.180000L204.270000,100.180000C220.161772,100.180000,235.402659,106.492982,246.639838,117.730162C257.877018,128.967341,264.190000,144.208228,264.190000,160.100000L264.190000,201.370000C264.190000,236.230213,235.930213,264.490000,201.070000,264.490000L200.320000,264.490000C183.579535,264.490000,167.524716,257.839876,155.687420,246.002580C143.850124,234.165284,137.200000,218.110465,137.200000,201.370000L137.200000,160.110000C137.200000,144.218228,143.512982,128.977341,154.750162,117.740162C165.987341,106.502982,181.228228,100.190000,197.120000,100.190000Z" fill="rgb(247,194,153)" stroke="none" stroke-width="1"/><path id="s37" d="M190.130000,221C192.317309,224.714044,196.276374,227.025788,200.585912,227.105330C204.895450,227.184872,208.937126,225.020798,211.260000,221.390000" fill="none" stroke="rgb(207,148,109)" stroke-width="4" stroke-linecap="round" stroke-miterlimit="10"/><path id="s39" d="M207.360000,205.130000C205.980695,202.789844,203.485792,201.333113,200.769874,201.282139C198.053955,201.231164,195.506147,202.593249,194.040000,204.880000" fill="none" stroke="rgb(207,148,109)" stroke-width="4" stroke-linecap="round" stroke-miterlimit="10"/><g id="s41"><ellipse id="s43" rx="6.880000" ry="7.430000" transform="translate(168.500000,190.110000)" fill="rgb(0,0,0)" stroke="none" stroke-width="1"/><ellipse id="s45" rx="6.880000" ry="7.430000" transform="translate(231.500000,190.110000)" fill="rgb(0,0,0)" stroke="none" stroke-width="1"/></g><g id="s47"><line id="s49" x1="219.840000" y1="158.350000" x2="243.170000" y2="158.350000" fill="none" stroke="rgb(189,145,77)" stroke-width="8" stroke-linecap="round" stroke-miterlimit="10"/><line id="s51" x1="156.830000" y1="158.350000" x2="180.160000" y2="158.350000" fill="none" stroke="rgb(189,145,77)" stroke-width="8" stroke-linecap="round" stroke-miterlimit="10"/></g><g id="s53"><rect id="s55" width="54.960000" height="42" rx="21" ry="21" transform="translate(173.210000,64.630000)" fill="rgb(207,160,87)" stroke="none" stroke-width="1"/><path id="s57" d="M204.270000,95.180000L197.130000,95.180000C161.293948,95.224079,132.254079,124.263948,132.210000,160.100000L132.210000,192.880000C132.220956,195.443572,134.296428,197.519044,136.860000,197.530000L136.940000,197.530000C139.503572,197.519044,141.579044,195.443572,141.590000,192.880000L141.590000,164.110000C141.572405,148.048899,148.451762,132.753344,160.480000,122.110000C164.717802,118.503744,170.651541,117.655511,175.730000,119.930000C179.050958,121.339493,182.622311,122.063968,186.230000,122.060000L215.160000,122.060000C218.767689,122.063968,222.339042,121.339493,225.660000,119.930000C230.741186,117.651254,236.680110,118.499672,240.920000,122.110000C252.953066,132.748885,259.830497,148.048256,259.800000,164.110000L259.800000,192.910000C259.810956,195.473572,261.886428,197.549044,264.450000,197.560000L264.530000,197.560000C267.093572,197.549044,269.169044,195.473572,269.180000,192.910000L269.180000,160.110000C269.141442,124.273941,240.106045,95.229598,204.270000,95.180000Z" fill="rgb(189,145,77)" fill-rule="evenodd" stroke="none" stroke-width="1"/></g></g></g></svg>