<svg id="s1" xmlns="http://www.w3.org/2000/svg" xmlns:xlink="http://www.w3.org/1999/xlink" viewBox="0 0 400 400"><defs><clipPath id="s3"><path id="s5" d="M253.780000,272.170000L250.260000,272.170000C245.157483,272.167636,240.364885,269.721143,237.370000,265.590000C233.210000,271.250000,222.890000,271.930000,215.280000,269.800000L204.680000,298.250000L194.080000,269.800000C187.080000,273.410000,176.150000,271.250000,171.990000,265.590000C168.995115,269.721143,164.202517,272.167636,159.100000,272.170000L155.580000,272.170000C122.595937,272.175522,95.860000,298.915937,95.860000,331.900000L95.860000,361.900000C95.860000,366.318278,99.441722,369.900000,103.860000,369.900000L305.510000,369.900000C309.928278,369.900000,313.510000,366.318278,313.510000,361.900000L313.510000,331.900000C313.510000,298.912032,286.767968,272.170000,253.780000,272.170000Z" fill="none" stroke="none" stroke-width="1"/></clipPath></defs><g id="s7"><g id="s9"><rect id="s11" width="85" height="23.040000" rx="10.390000" ry="10.390000" transform="translate(162.180000,251.480000)" fill="rgb(168,69,69)" stroke="none" stroke-width="1"/><path id="s13" d="M309.510000,365.940000L309.510000,331.940000C309.422117,301.197647,284.522353,276.297883,253.780000,276.210000L250.260000,276.210000C239.214305,276.210000,230.260000,267.255695,230.260000,256.210000L230.260000,236.120000L179.060000,236.120000L179.060000,256.210000C179.060000,267.255695,170.105695,276.210000,159.060000,276.210000L155.540000,276.210000C124.832723,276.325184,99.969669,301.192703,99.860000,331.900000L99.860000,365.900000Z" fill="rgb(255,222,186)" stroke="none" stroke-width="1"/><path id="s15" d="M174.200000,269.210000C183.496448,274.043308,193.822182,276.561278,204.300000,276.550000L205.070000,276.550000C215.547724,276.560489,225.873273,274.042565,235.170000,269.210000C232.037747,265.603084,230.312085,260.987117,230.310000,256.210000L230.310000,236.120000L179.060000,236.120000L179.060000,256.210000C179.057016,260.986955,177.331469,265.602617,174.200000,269.210000Z" fill="rgb(235,194,150)" stroke="none" stroke-width="1"/><g id="s17"><path id="s19" d="M253.780000,272.170000L250.260000,272.170000C245.157483,272.167636,240.364885,269.721143,237.370000,265.590000C233.210000,271.250000,222.890000,271.930000,215.280000,269.800000L204.680000,298.250000L194.080000,269.800000C187.080000,273.410000,176.150000,271.250000,171.990000,265.590000C168.995115,269.721143,164.202517,272.167636,159.100000,272.170000L155.580000,272.170000C122.595937,272.175522,95.860000,298.915937,95.860000,331.900000L95.860000,361.900000C95.860000,366.318278,99.441722,369.900000,103.860000,369.900000L305.510000,369.900000C309.928278,369.900000,313.510000,366.318278,313.510000,361.900000L313.510000,331.900000C313.510000,298.912032,286.767968,272.170000,253.780000,272.170000Z" fill="rgb(140,48,48)" stroke="none" stroke-width="1"/><g id="s21" clip-path="url(#s3)"><line id="s23" x1="100.100000" y1="259.260000" x2="100.100000" y2="374.780000" fill="none" stroke="rgb(84,20,20)" stroke-width="20" stroke-opacity="0.5" stroke-linecap="round" stroke-miterlimit="10"/><line id="s25" x1="139.710000" y1="259.260000" x2="139.710000" y2="374.780000" fill="none" stroke="rgb(84,20,20)" stroke-width="20" stroke-opacity="0.5" stroke-linecap="round" stroke-miterlimit="10"/><line id="s27" x1="179.330000" y1="259.260000" x2="179.330000" y2="374.780000" fill="none" stroke="rgb(84,20,20)" stroke-width="20" stroke-opacity="0.5" stroke-linecap="round" stroke-miterlimit="10"/><line id="s29" x1="218.950000" y1="259.260000" x2="218.950000" y2="374.780000" fill="none" stroke="rgb(84,20,20)" stroke-width="20" stroke-opacity="0.5" stroke-linecap="round" stroke-miterlimit="10"/><line id="s31" x1="258.570000" y1="259.260000" x2="258.570000" y2="374.780000" fill="none" stroke="rgb(84,20,20)" stroke-width="20" stroke-opacity="0.5" stroke-linecap="round" stroke-miterlimit="10"/><line id="s33" x1="298.190000" y1="259.260000" x2="298.190000" y2="374.780000" fill="none" stroke="rgb(84,20,20)" stroke-width="20" stroke-opacity="0.5" stroke-linecap="round" stroke-miterlimit="10"/><line id="s35" x1="80.330000" y1="307.460000" x2="317.960000" y2="307.460000" fill="none" stroke="rgb(84,20,20)" stroke-width="20" stroke-opacity="0.5" stroke-linecap="round" stroke-miterlimit="10"/><line id="s37" x1="80.320000" y1="347.080000" x2="320.990000" y2="347.080000" fill="none" stroke="rgb(84,20,20)" stroke-width="20" stroke-opacity="0.5" stroke-linecap="round" stroke-miterlimit="10"/><line id="s39" x1="80.330000" y1="267.850000" x2="317.960000" y2="267.850000" fill="none" stroke="rgb(84,20,20)" stroke-width="20" stroke-opacity="0.5" stroke-linecap="round" stroke-miterlimit="10"/></g><polyline id="s41" points="223.060000,295.700000 214.210000,319.500000 214.210000,362.750000" fill="none" stroke="rgb(79,15,15)" stroke-width="4" stroke-linecap="round" stroke-miterlimit="10"/><line id="s43" x1="145.800000" y1="337.980000" x2="145.800000" y2="357.560000" fill="none" stroke="rgb(79,15,15)" stroke-width="8" stroke-linecap="round" stroke-miterlimit="10"/><line id="s45" x1="263.560000" y1="337.980000" x2="263.560000" y2="357.560000" fill="none" stroke="rgb(79,15,15)" stroke-width="8" stroke-linecap="round" stroke-miterlimit="10"/><path id="s47" d="M245.510000,256.120000C244.491079,254.257875,242.407459,253.242058,240.312890,253.586279C238.218321,253.930499,236.569385,255.559722,236.200000,257.650000C234.290767,264.792656,227.833366,269.770918,220.440000,269.800000L215.280000,269.800000L227.420000,289C227.987234,289.890150,228.997301,290.397103,230.050000,290.320000C241.713988,289.443629,251.463532,281.106534,254.140000,269.720000Z" fill="rgb(168,69,69)" stroke="none" stroke-width="1"/><path id="s49" d="M163.850000,256.120000C164.868921,254.257875,166.952541,253.242058,169.047110,253.586279C171.141679,253.930499,172.790615,255.559722,173.160000,257.650000C175.069233,264.792656,181.526634,269.770918,188.920000,269.800000L194.080000,269.800000L181.950000,289C181.382766,289.890150,180.372699,290.397103,179.320000,290.320000C167.656012,289.443629,157.906468,281.106534,155.230000,269.720000Z" fill="rgb(168,69,69)" stroke="none" stroke-width="1"/><polyline id="s51" points="204.710000,298.260000 196.810000,319.500000 196.810000,362.750000" fill="none" stroke="rgb(79,15,15)" stroke-width="4" stroke-linecap="round" stroke-miterlimit="10"/><line id="s53" x1="185.310000" y1="290.290000" x2="193.200000" y2="311.530000" fill="none" stroke="rgb(79,15,15)" stroke-width="4" stroke-linecap="round" stroke-miterlimit="10"/><circle id="s55" r="3.520000" transform="translate(218.740000,286.770000)" fill="rgb(168,69,69)" stroke="none" stroke-width="1"/><circle id="s57" r="3.520000" transform="translate(205.660000,320.490000)" fill="rgb(168,69,69)" stroke="none" stroke-width="1"/><circle id="s59" r="3.520000" transform="translate(205.660000,359.240000)" fill="rgb(168,69,69)" stroke="none" stroke-width="1"/><path id="s61" d="M173.160000,257.670000C174.433830,262.380545,177.729735,266.284362,182.160000,268.330000" fill="none" stroke="rgb(140,48,48)" stroke-width="4" stroke-linecap="round" stroke-miterlimit="10"/><path id="s63" d="M236.200000,257.670000C234.926170,262.380545,231.630265,266.284362,227.200000,268.330000" fill="none" stroke="rgb(140,48,48)" stroke-width="4" stroke-linecap="round" stroke-miterlimit="10"/></g></g><g id="s65"><g id="s67"><circle id="s69" r="19.500000" transform="translate(266.930000,181.040000)" fill="rgb(255,222,186)" stroke="none" stroke-width="1"/><circle id="s71" r="19.500000" transform="translate(142.430000,181.040000)" fill="rgb(255,222,186)" stroke="none" stroke-width="1"/><path id="s73" d="M193.710000,86L215.650000,86C229.579170,86,242.937838,91.533341,252.787248,101.382752C262.636659,111.232162,268.170000,124.590830,268.170000,138.520000L268.170000,194.590000C268.170000,225.363306,243.223306,250.310000,212.450000,250.310000L196.910000,250.310000C166.136694,250.310000,141.190000,225.363306,141.190000,194.590000L141.190000,138.480000C141.212079,109.489627,164.719619,85.999992,193.710000,86Z" fill="rgb(255,222,186)" stroke="none" stroke-width="1"/><path id="s75" d="M194.120000,207.610000C196.307309,211.324044,200.266374,213.635788,204.575912,213.715330C208.885450,213.794872,212.927126,211.630798,215.250000,208" fill="none" stroke="rgb(230,188,145)" stroke-width="4" stroke-linecap="round" stroke-miterlimit="10"/><path id="s77" d="M211.460000,187.580000C210.040857,185.216976,207.505178,183.750971,204.749226,183.700161C201.993275,183.649351,199.405281,185.020893,197.900000,187.330000" fill="none" stroke="rgb(230,188,145)" stroke-width="4" stroke-linecap="round" stroke-miterlimit="10"/><g id="s79"><ellipse id="s81" rx="6.880000" ry="7.430000" transform="translate(173.180000,168.890000)" fill="rgb(0,0,0)" stroke="none" stroke-width="1"/><ellipse id="s83" rx="6.880000" ry="7.430000" transform="translate(236.190000,168.890000)" fill="rgb(0,0,0)" stroke="none" stroke-width="1"/></g><g id="s85"><line id="s87" x1="224.520000" y1="144.130000" x2="247.850000" y2="144.130000" fill="none" stroke="rgb(63,61,56)" stroke-width="12" stroke-linecap="round" stroke-miterlimit="10"/><line id="s89" x1="161.520000" y1="144.130000" x2="184.840000" y2="144.130000" fill="none" stroke="rgb(63,61,56)" stroke-width="12" stroke-linecap="round" stroke-miterlimit="10"/></g><g id="s91"><path id="s93" d="M272,101.390000C271.950844,92.910782,265.089218,86.049156,256.610000,86C256.230000,86,255.850000,86,255.480000,86.060000C255.710316,85.052840,255.827707,84.023156,255.830000,82.990000C255.791706,75.273931,249.546069,69.028294,241.830000,68.990000L229.140000,68.990000C228.436461,68.996919,227.734455,69.057091,227.040000,69.170000C226.224622,63.795644,221.605857,59.822741,216.170000,59.820000L203.540000,59.820000C166.973568,60.083031,137.438718,89.742783,137.330000,126.310000L137.330000,142.620000L137.330000,142.620000L137.330000,181L146.760000,181L146.760000,176.700000L146.760000,176.700000L146.760000,141.490000C146.760000,136.690000,150.170000,132.760000,154.710000,132.760000L154.710000,112.350000C159.795626,106.792305,166.976660,103.618868,174.510000,103.600000L234.890000,103.600000C242.423340,103.618868,249.604374,106.792305,254.690000,112.350000L254.690000,132.810000C259.370003,132.962358,263.052268,136.858864,262.940000,141.540000L262.940000,181L272,181L272,144.650000L272,144.650000Z" fill="rgb(63,61,56)" stroke="none" stroke-width="1"/><line id="s95" x1="189.310000" y1="90.660000" x2="210.360000" y2="69.620000" fill="none" stroke="rgb(104,113,125)" stroke-width="6" stroke-linecap="round" stroke-miterlimit="10"/><line id="s97" x1="211.030000" y1="93.540000" x2="220.060000" y2="84.520000" fill="none" stroke="rgb(104,113,125)" stroke-width="6" stroke-linecap="round" stroke-miterlimit="10"/></g><g id="s99"><ellipse id="s101" rx="6.880000" ry="7.430000" transform="translate(173.180000,168.930000)" fill="rgb(0,0,0)" stroke="none" stroke-width="1"/><ellipse id="s103" rx="6.880000" ry="7.430000" transform="translate(236.190000,168.930000)" fill="rgb(0,0,0)" stroke="none" stroke-width="1"/></g><g id="s105"><path id="s107" d="M150,167.170000C149.856524,168.030042,149.769670,168.898577,149.740000,169.770000L149.740000,169.770000C149.773022,181.051178,158.918786,190.183531,170.200000,190.200000L174.150000,190.200000C185.419500,190.167048,194.547048,181.039500,194.580000,169.770000L194.580000,169.770000C194.550101,168.898592,194.463249,168.030073,194.320000,167.170000Z" opacity="0.5" fill="rgb(255,255,255)" stroke="none" stroke-width="1"/><path id="s109" d="M259.330000,167.170000C259.473476,168.030042,259.560330,168.898577,259.590000,169.770000L259.590000,169.770000C259.557048,181.039500,250.429500,190.167048,239.160000,190.200000L235.210000,190.200000C223.940500,190.167048,214.812952,181.039500,214.780000,169.770000L214.780000,169.770000C214.809899,168.898592,214.896751,168.030073,215.040000,167.170000Z" opacity="0.5" fill="rgb(255,255,255)" stroke="none" stroke-width="1"/><line id="s111" x1="194.220000" y1="169.270000" x2="214.050000" y2="169.270000" fill="none" stroke="rgb(0,0,0)" stroke-width="6.181050" stroke-linecap="round" stroke-miterlimit="10"/></g></g></g></g></svg>