<svg id="eFDQcjoeT4i1" xmlns="http://www.w3.org/2000/svg" xmlns:xlink="http://www.w3.org/1999/xlink" viewBox="0 0 400 400" shape-rendering="geometricPrecision" text-rendering="geometricPrecision"><g id="eFDQcjoeT4i2"><path id="eFDQcjoeT4i3" d="M228,199.500000C213.600000,161.400000,225,142,251.800000,148.100000C273.100000,153,280.400000,167.100000,269.800000,183.800000C253.500000,209.300000,233.700000,214.600000,228,199.500000Z" clip-rule="evenodd" fill="rgb(93,139,93)" fill-rule="evenodd" stroke="none" stroke-width="1"/><path id="eFDQcjoeT4i4" d="M228,199.500000C226.300000,195,225,190.800000,224,186.900000C234.600000,190,243.900000,196.100000,251.100000,203.900000C240.700000,210.400000,231.600000,208.900000,228,199.500000L228,199.500000Z" clip-rule="evenodd" fill="rgb(68,112,77)" fill-rule="evenodd" stroke="none" stroke-width="1"/><path id="eFDQcjoeT4i5" d="M263.100000,263.300000C249.800000,297.300000,229.400000,312,201.100000,307.600000C177.700000,303.900000,161.600000,281.500000,155.400000,239.600000C150,202.700000,168.900000,184.900000,209.500000,186.700000C248.400000,188.400000,276.600000,229,263.100000,263.300000Z" clip-rule="evenodd" fill="rgb(93,139,93)" fill-rule="evenodd" stroke="none" stroke-width="1"/><path id="eFDQcjoeT4i6" d="M212.100000,204.100000C212,203.500000,211.500000,203,210.800000,203.100000C210.200000,203.200000,209.700000,203.700000,209.800000,204.400000L210.500000,210.900000C210.600000,211.500000,211.100000,211.900000,211.800000,211.900000C212.400000,211.800000,212.900000,211.300000,212.800000,210.600000L212.100000,204.100000ZM253.800000,220.200000C253.500000,219.700000,252.800000,219.500000,252.300000,219.900000C251.700000,220.200000,251.600000,220.900000,251.900000,221.500000C252.500000,222.400000,253,223.700000,253.300000,225C253.500000,226.100000,253.600000,227.300000,253.500000,228.200000C253.400000,228.800000,253.800000,229.400000,254.400000,229.500000C255,229.600000,255.600000,229.200000,255.700000,228.600000C255.900000,227.400000,255.800000,225.900000,255.500000,224.500000C255.100000,222.800000,254.500000,221.300000,253.800000,220.200000L253.800000,220.200000ZM259.300000,236.600000C259.300000,236,258.700000,235.500000,258.100000,235.500000C257.500000,235.500000,257,236.100000,257,236.700000C257,237.300000,256.900000,238.700000,256.700000,240.300000L256.700000,240.300000C256.400000,242.800000,256,245.800000,255.800000,246.900000C255.700000,247.500000,256.100000,248.100000,256.700000,248.200000C257.300000,248.300000,257.900000,247.900000,258,247.300000C258.200000,246.200000,258.600000,243.200000,258.900000,240.600000L258.900000,240.600000C259.200000,238.800000,259.300000,237.300000,259.300000,236.600000L259.300000,236.600000ZM245.600000,241.800000C245.500000,241.200000,245,240.700000,244.300000,240.800000C243.700000,240.900000,243.200000,241.400000,243.300000,242.100000C243.500000,243.500000,243.400000,244.400000,243.400000,245.200000C243.400000,245.900000,243.300000,246.500000,243.400000,247.500000C243.400000,248.100000,244,248.600000,244.600000,248.500000C245.200000,248.400000,245.700000,247.900000,245.600000,247.300000C245.500000,246.500000,245.600000,245.900000,245.600000,245.300000C245.700000,244.300000,245.800000,243.300000,245.600000,241.800000L245.600000,241.800000ZM256.300000,256.600000C256.600000,256.100000,256.400000,255.400000,255.900000,255.100000C255.400000,254.800000,254.700000,255,254.400000,255.500000C253.800000,256.500000,252.700000,258.900000,251.900000,260.800000C251.700000,261.300000,251.500000,261.700000,251.200000,262.400000C251,263,251.200000,263.700000,251.800000,263.900000C252.400000,264.200000,253.100000,263.900000,253.300000,263.300000L254,261.700000C254.700000,259.900000,255.800000,257.600000,256.300000,256.600000L256.300000,256.600000ZM241.500000,262.600000C241.400000,262,240.900000,261.500000,240.200000,261.600000C239.600000,261.700000,239.200000,262.200000,239.200000,262.900000C239.500000,265.700000,239.400000,266.200000,239.100000,267.700000L239.100000,267.700000C239,268.300000,238.900000,268.900000,238.800000,269.900000C238.700000,270.500000,239.100000,271.100000,239.700000,271.200000C240.300000,271.300000,240.900000,270.900000,241,270.200000C241.100000,269.300000,241.200000,268.600000,241.300000,268.100000L241.300000,268C241.800000,266.300000,241.800000,265.800000,241.500000,262.600000L241.500000,262.600000ZM244,280.400000C243.900000,279.800000,243.400000,279.300000,242.700000,279.400000C242.100000,279.500000,241.600000,280.100000,241.700000,280.700000C241.800000,281.700000,241.700000,285.900000,241.700000,286.900000L241.700000,287.100000C241.700000,287.700000,242.200000,288.200000,242.800000,288.200000C243.400000,288.200000,243.900000,287.700000,243.900000,287.100000L243.900000,286.900000C244.100000,285.800000,244.100000,281.500000,244,280.400000ZM229.300000,275.300000C229.400000,274.700000,229,274.100000,228.300000,274C227.700000,273.900000,227.100000,274.300000,227,275C226.900000,275.900000,226.700000,277.500000,226.600000,278.900000C226.500000,279.900000,226.500000,280.900000,226.600000,281.600000C226.700000,282.200000,227.200000,282.600000,227.900000,282.600000C228.500000,282.500000,229,282,228.900000,281.300000C228.800000,280.700000,228.800000,279.900000,228.900000,279C229,277.700000,229.200000,276.200000,229.300000,275.300000L229.300000,275.300000ZM231.200000,294.600000C231,294,230.300000,293.700000,229.700000,294C229.100000,294.200000,228.800000,294.900000,229.100000,295.500000C229.900000,297.200000,229.700000,297.900000,229.500000,299.100000C229.400000,299.500000,229.400000,299.900000,229.300000,300.400000C229.200000,301,229.600000,301.600000,230.200000,301.700000C230.800000,301.800000,231.400000,301.400000,231.500000,300.700000C231.600000,300.200000,231.600000,299.800000,231.700000,299.500000C232.100000,297.800000,232.300000,296.900000,231.200000,294.600000ZM200.500000,298.900000C200.600000,298.300000,200.100000,297.700000,199.500000,297.700000C198.900000,297.600000,198.300000,298,198.200000,298.700000C198.100000,299.400000,198.100000,300.200000,198.200000,301.100000C198.300000,301.800000,198.400000,302.500000,198.700000,303.100000C199,303.700000,199.600000,303.900000,200.200000,303.600000C200.800000,303.300000,201,302.600000,200.700000,302.100000C200.600000,301.800000,200.500000,301.400000,200.400000,300.800000C200.400000,300.100000,200.400000,299.400000,200.500000,298.900000L200.500000,298.900000ZM216.700000,294.800000C216.800000,294.200000,216.300000,293.600000,215.700000,293.500000C215.100000,293.400000,214.500000,293.800000,214.400000,294.500000C214.300000,295.600000,214.500000,296.500000,214.700000,297.400000C214.800000,297.900000,215,298.400000,215,298.900000C215,299.500000,215.600000,300,216.200000,299.900000C216.800000,299.800000,217.300000,299.300000,217.200000,298.700000C217.100000,298,217,297.400000,216.800000,296.800000C216.800000,296.200000,216.600000,295.500000,216.700000,294.800000L216.700000,294.800000ZM204.200000,277.400000C204.100000,276.800000,203.600000,276.300000,202.900000,276.400000C202.300000,276.500000,201.800000,277,201.900000,277.700000C202.100000,279.400000,202,278.400000,202,278.600000C202.300000,281.100000,202.300000,281.700000,203.600000,284.600000C203.800000,285.200000,204.500000,285.400000,205.100000,285.200000C205.700000,285,205.900000,284.300000,205.700000,283.700000C204.600000,281.100000,204.500000,280.600000,204.300000,278.300000L204.300000,278.300000C204.200000,277.500000,204.300000,278.400000,204.200000,277.400000L204.200000,277.400000ZM218.500000,274.700000C218.500000,274.100000,218,273.500000,217.500000,273.500000C216.900000,273.500000,216.300000,273.900000,216.300000,274.500000L216.200000,275.200000C216.100000,276.900000,216,277.500000,216.300000,279.500000C216.400000,280.100000,216.900000,280.500000,217.600000,280.500000C218.200000,280.400000,218.700000,279.900000,218.600000,279.200000C218.400000,277.400000,218.400000,276.800000,218.500000,275.300000L218.500000,274.700000L218.500000,274.700000ZM227.500000,260.100000C227.400000,259.500000,226.800000,259.100000,226.200000,259.200000C225.600000,259.300000,225.200000,259.900000,225.200000,260.500000C225.300000,260.900000,225.200000,262.200000,225,263.700000C224.800000,265.700000,224.600000,268.100000,224.800000,269.500000C224.900000,270.100000,225.400000,270.600000,226.100000,270.500000C226.700000,270.400000,227.200000,269.900000,227.100000,269.200000C227,268,227.200000,265.800000,227.300000,263.800000C227.400000,262.100000,227.500000,260.700000,227.500000,260.100000L227.500000,260.100000ZM230.200000,247.200000C229.900000,246.600000,229.200000,246.400000,228.700000,246.700000C228.100000,247,227.900000,247.700000,228.200000,248.200000C229.300000,250.400000,229.100000,251.800000,228.800000,253.800000C228.700000,254.200000,228.600000,254.700000,228.600000,254.900000C228.500000,255.500000,228.900000,256.100000,229.500000,256.200000C230.100000,256.300000,230.700000,255.900000,230.800000,255.200000C230.900000,254.700000,230.900000,254.400000,231,254.100000C231.400000,251.900000,231.700000,250,230.200000,247.200000L230.200000,247.200000ZM211.600000,238.300000C211.500000,237.700000,211,237.200000,210.300000,237.300000C209.700000,237.400000,209.200000,237.900000,209.300000,238.600000L209.900000,243.900000C210,244.500000,210.500000,245,211.200000,244.900000C211.800000,244.800000,212.300000,244.300000,212.200000,243.600000L211.600000,238.300000ZM212.300000,251.900000C212.500000,251.300000,212.200000,250.600000,211.600000,250.400000C211,250.200000,210.400000,250.500000,210.200000,251.100000C209.800000,252.200000,209.300000,254.700000,208.900000,257.100000C208.600000,259,208.400000,261,208.600000,261.900000C208.700000,262.500000,209.300000,262.900000,209.900000,262.800000C210.500000,262.700000,210.900000,262.100000,210.800000,261.500000C210.700000,260.800000,210.800000,259.200000,211.100000,257.500000C211.500000,255.300000,212,252.900000,212.300000,251.900000ZM199,257.100000C199.100000,256.500000,198.800000,255.900000,198.100000,255.700000C197.500000,255.600000,196.900000,255.900000,196.700000,256.500000C196.600000,256.900000,196.600000,258,196.500000,259.100000C196.400000,260.700000,196.400000,262.400000,196.400000,262.900000C196.400000,263.500000,197,264,197.600000,263.900000C198.200000,263.900000,198.700000,263.300000,198.600000,262.700000C198.600000,262.400000,198.600000,260.700000,198.700000,259.100000C198.900000,258.200000,198.900000,257.300000,199,257.100000L199,257.100000ZM184.500000,262.900000C184.400000,262.300000,183.900000,261.800000,183.200000,261.900000C182.500000,262,182.100000,262.500000,182.200000,263.200000C182.400000,265.300000,182.500000,266.700000,182.500000,268.100000C182.500000,269,182.500000,270,182.600000,271.100000C182.600000,271.700000,183.200000,272.200000,183.800000,272.200000C184.400000,272.200000,184.900000,271.600000,184.900000,271C184.800000,269.900000,184.800000,268.900000,184.800000,268.100000C184.800000,266.500000,184.800000,265.100000,184.500000,262.900000L184.500000,262.900000ZM192.600000,284.400000C192.200000,283.900000,191.500000,283.900000,191,284.300000C190.500000,284.800000,190.500000,285.400000,190.900000,285.900000C191.900000,287,192.100000,288.900000,192.300000,290.600000L192.300000,291C192.400000,291.600000,192.900000,292.100000,193.600000,292C194.200000,291.900000,194.700000,291.400000,194.600000,290.700000L194.500000,290.200000C194.300000,288.300000,194.100000,286.100000,192.600000,284.400000L192.600000,284.400000ZM183.700000,285.700000C183.600000,285.100000,183.100000,284.600000,182.400000,284.700000C181.800000,284.700000,181.300000,285.300000,181.400000,285.900000C181.500000,287,181.800000,288.400000,182.200000,289.700000C182.600000,290.800000,183.100000,292,183.700000,292.900000C184.100000,293.400000,184.800000,293.500000,185.300000,293.200000C185.800000,292.800000,185.900000,292.100000,185.600000,291.600000C185.100000,290.900000,184.700000,290,184.400000,289C184,287.900000,183.800000,286.700000,183.700000,285.700000L183.700000,285.700000ZM174.600000,275.100000C174.500000,274.500000,174,274,173.300000,274.100000C172.600000,274.200000,172.200000,274.700000,172.300000,275.400000C172.500000,277.100000,172.800000,278.100000,173.100000,279C173.300000,279.600000,173.500000,280.100000,173.600000,280.700000C173.700000,281.300000,174.300000,281.700000,174.900000,281.600000C175.500000,281.500000,175.900000,280.900000,175.800000,280.300000C175.700000,279.500000,175.500000,278.900000,175.200000,278.300000C175.100000,277.500000,174.800000,276.600000,174.600000,275.100000ZM166.600000,252.900000C166.500000,252.300000,165.900000,251.900000,165.300000,252C164.700000,252.100000,164.300000,252.700000,164.400000,253.300000C164.600000,254.500000,164.900000,255.600000,165.200000,256.700000C165.600000,258.200000,166,259.600000,166.200000,261.200000C166.300000,261.800000,166.800000,262.300000,167.500000,262.200000C168.100000,262.100000,168.600000,261.600000,168.500000,260.900000C168.300000,259.200000,167.900000,257.600000,167.500000,256.100000C167.100000,255,166.800000,254,166.600000,252.900000L166.600000,252.900000ZM165.800000,236.200000C165.600000,235.600000,165,235.300000,164.400000,235.500000C163.800000,235.700000,163.500000,236.400000,163.700000,237C164,237.800000,164,238.300000,164.100000,239L164.200000,239.700000C164.300000,240.300000,164.800000,240.700000,165.500000,240.700000C166.100000,240.600000,166.600000,240.100000,166.500000,239.400000L166.400000,238.700000C166.200000,237.900000,166.100000,237.300000,165.800000,236.200000L165.800000,236.200000ZM181.800000,245.400000C181.700000,244.800000,181.200000,244.300000,180.500000,244.400000C179.900000,244.500000,179.400000,245.100000,179.500000,245.700000C179.600000,246.800000,179.800000,247.900000,180.100000,248.900000C180.300000,249.900000,180.500000,250.900000,180.600000,252C180.700000,252.600000,181.200000,253.100000,181.900000,253C182.600000,252.900000,183,252.300000,182.900000,251.700000C182.800000,250.500000,182.600000,249.400000,182.300000,248.400000C182.200000,247.400000,182,246.400000,181.800000,245.400000L181.800000,245.400000ZM193.100000,234.600000C192.600000,234.200000,192,234.100000,191.500000,234.600000C191,235.100000,191,235.700000,191.500000,236.200000C191.900000,236.600000,192.400000,237.700000,192.900000,238.800000C193.500000,240.200000,193.900000,241.600000,193.900000,242.200000C193.900000,242.800000,194.500000,243.300000,195.100000,243.300000C195.700000,243.300000,196.200000,242.700000,196.200000,242.100000C196.100000,241.200000,195.600000,239.500000,195.100000,237.900000C194.400000,236.700000,193.700000,235.300000,193.100000,234.600000L193.100000,234.600000ZM193.300000,220.500000C193,219.900000,192.400000,219.700000,191.800000,219.900000C191.200000,220.100000,191,220.800000,191.200000,221.400000C191.900000,222.800000,192,223.700000,192.300000,224.800000L192.300000,224.800000C192.400000,225.300000,192.500000,225.800000,192.600000,226.300000C192.700000,226.900000,193.300000,227.300000,194,227.100000C194.700000,226.900000,195,226.400000,194.800000,225.700000C194.700000,225.100000,194.600000,224.600000,194.500000,224.200000C194.200000,223.100000,194.100000,222.100000,193.300000,220.500000L193.300000,220.500000ZM176.900000,223.900000C176.800000,223.300000,176.200000,222.900000,175.600000,223C175,223.100000,174.600000,223.700000,174.700000,224.300000C174.800000,225.200000,175.500000,226.600000,176.300000,228.100000C177,229.500000,177.700000,230.900000,178.100000,232.100000C178.300000,232.700000,178.900000,233,179.500000,232.800000C180.100000,232.600000,180.400000,232,180.200000,231.400000C179.800000,230.100000,179,228.500000,178.300000,227.100000C177.700000,225.700000,177,224.500000,176.900000,223.900000ZM163.800000,218.900000C163.500000,218.300000,162.800000,218.100000,162.300000,218.400000C161.700000,218.700000,161.500000,219.300000,161.800000,219.900000C162.300000,220.900000,164.300000,224.200000,165.400000,225.900000L165.800000,226.500000C166.100000,227.100000,166.800000,227.200000,167.400000,226.900000C168,226.600000,168.100000,225.900000,167.800000,225.300000L167.400000,224.600000C166.300000,223.100000,164.300000,219.900000,163.800000,218.900000L163.800000,218.900000ZM184,206.800000C184.200000,206.200000,183.800000,205.600000,183.200000,205.400000C182.600000,205.200000,182,205.500000,181.800000,206.200000C181.400000,207.400000,181.400000,208.400000,181.600000,209.400000C181.800000,210.400000,182.200000,211.200000,182.900000,212.200000C183.200000,212.700000,183.900000,212.900000,184.500000,212.500000C185,212.200000,185.200000,211.500000,184.800000,210.900000C184.300000,210.100000,184,209.500000,183.800000,208.800000C183.800000,208.300000,183.800000,207.600000,184,206.800000L184,206.800000ZM198.700000,200.700000C198.900000,200.100000,198.600000,199.500000,197.900000,199.300000C197.300000,199.100000,196.700000,199.400000,196.500000,200.100000C196,201.600000,196.200000,201.900000,196.500000,203C196.500000,203.100000,196.600000,203.300000,196.600000,203.500000C196.800000,204.100000,197.400000,204.500000,198,204.300000C198.600000,204.200000,199,203.500000,198.800000,202.900000C198.700000,202.700000,198.700000,202.500000,198.600000,202.300000C198.500000,201.700000,198.500000,201.500000,198.700000,200.700000L198.700000,200.700000ZM209.300000,221.200000C209.200000,220.600000,208.700000,220.100000,208,220.200000C207.400000,220.300000,206.900000,220.800000,207,221.500000L207,221.700000L207,221.700000C207.200000,223.800000,207.400000,225.200000,207.800000,227.200000C207.900000,227.800000,208.500000,228.200000,209.200000,228.100000C209.800000,228,210.200000,227.400000,210.100000,226.800000C209.700000,224.700000,209.500000,223.400000,209.300000,221.500000L209.300000,221.500000L209.300000,221.200000L209.300000,221.200000ZM227.400000,233C227.500000,232.400000,227.200000,231.800000,226.600000,231.600000C226,231.500000,225.400000,231.800000,225.200000,232.400000C224.600000,234.800000,225.200000,236.100000,225.800000,237.400000C226.100000,238.100000,226.500000,238.900000,226.500000,240C226.600000,240.600000,227.100000,241.100000,227.800000,241C228.400000,240.900000,228.900000,240.400000,228.800000,239.800000C228.700000,238.400000,228.300000,237.400000,227.900000,236.500000C227.400000,235.500000,227,234.600000,227.400000,233L227.400000,233ZM240.200000,222.700000C240.300000,222.100000,239.900000,221.500000,239.300000,221.400000C238.700000,221.300000,238.100000,221.700000,238,222.300000C237.900000,222.800000,237.900000,224.600000,237.800000,226.600000C237.800000,228.600000,237.800000,230.700000,237.800000,231.200000C237.900000,231.800000,238.400000,232.300000,239.100000,232.200000C239.700000,232.100000,240.200000,231.600000,240.100000,230.900000C240.100000,230.400000,240.100000,228.500000,240.100000,226.500000C240.100000,224.800000,240.100000,223,240.200000,222.700000L240.200000,222.700000ZM243.300000,207C243.200000,206.400000,242.700000,205.900000,242,206C241.400000,206.100000,241,206.600000,241,207.300000C241.200000,208.900000,241.200000,209.900000,241.200000,210.900000C241.200000,211.600000,241.200000,212.300000,241.300000,213.100000C241.300000,213.700000,241.900000,214.200000,242.500000,214.200000C243.100000,214.200000,243.600000,213.600000,243.500000,213C243.500000,212.200000,243.400000,211.500000,243.400000,210.900000C243.500000,209.700000,243.500000,208.600000,243.300000,207L243.300000,207ZM228.800000,211.800000C228.800000,211.200000,228.300000,210.700000,227.700000,210.700000C227.100000,210.700000,226.600000,211.200000,226.600000,211.800000C226.600000,212.500000,226.600000,212.900000,226.600000,213.200000C226.600000,214.800000,226.700000,216.600000,226.600000,217.700000C226.500000,218.300000,226.900000,218.900000,227.600000,219C228.200000,219.100000,228.800000,218.600000,228.900000,218C229.100000,216.700000,229,214.800000,229,213.200000L228.800000,211.800000ZM224.800000,196.800000C224.700000,196.200000,224.100000,195.800000,223.500000,195.800000C222.900000,195.900000,222.400000,196.400000,222.500000,197.100000C222.500000,197.200000,222.500000,197.500000,222.600000,197.800000C222.700000,198.500000,222.800000,199.400000,222.700000,199.900000C222.500000,200.500000,222.900000,201.100000,223.500000,201.300000C224.100000,201.500000,224.800000,201.100000,224.900000,200.500000C225.100000,199.600000,225,198.400000,224.800000,197.500000C224.900000,197.300000,224.900000,197.100000,224.800000,196.800000L224.800000,196.800000Z" fill="rgb(172,215,170)" stroke="none" stroke-width="1"/><path id="eFDQcjoeT4i7" d="M177.200000,104.100000C166.500000,51.100000,185.500000,30.500000,218.700000,47.400000C245.200000,60.900000,251.700000,81.200000,234.500000,98.600000C208.200000,125.300000,181.400000,125.100000,177.200000,104.100000L177.200000,104.100000Z" clip-rule="evenodd" fill="rgb(93,139,93)" fill-rule="evenodd" stroke="none" stroke-width="1"/><path id="eFDQcjoeT4i8" d="M177.200000,104.100000C176.300000,99.800000,175.700000,95.700000,175.200000,91.900000C183.600000,97.800000,191.200000,107.100000,196.700000,119.300000C186.600000,119.500000,179.300000,114.200000,177.200000,104.100000L177.200000,104.100000Z" clip-rule="evenodd" fill="rgb(68,112,77)" fill-rule="evenodd" stroke="none" stroke-width="1"/><path id="eFDQcjoeT4i9" d="M157.600000,210.200000C164.300000,193.400000,181.900000,185.500000,209.500000,186.700000C209.600000,186.700000,209.600000,186.700000,209.700000,186.700000C208.400000,197.100000,204.800000,206,198.700000,213.200000C189.400000,224.200000,175.600000,223.600000,157.600000,210.200000L157.600000,210.200000Z" clip-rule="evenodd" fill="rgb(68,112,77)" fill-rule="evenodd" stroke="none" stroke-width="1"/><path id="eFDQcjoeT4i10" d="M198.400000,125.200000C213.300000,163.900000,213.200000,192.100000,198,210.100000C185.400000,225.100000,164.500000,218.600000,136.200000,188.200000C111.200000,161.300000,108.800000,131.900000,127.800000,102.100000C146.100000,73.600000,183.400000,86,198.400000,125.200000Z" clip-rule="evenodd" fill="rgb(93,139,93)" fill-rule="evenodd" stroke="none" stroke-width="1"/><path id="eFDQcjoeT4i11" d="M255.700000,138.700000C258.200000,138.400000,258.900000,141.300000,259.400000,145.200000C260.700000,143.600000,266.600000,136.600000,269.100000,138.600000C271.700000,140.600000,266.300000,148.300000,264.900000,150.100000C268.700000,149.400000,271.800000,149.800000,272.100000,151.200000C272.400000,152.400000,270.500000,154,267.600000,155.300000C264.200000,152.400000,259.500000,150.100000,253.600000,148.500000C253,144,252.900000,139,255.700000,138.700000L255.700000,138.700000Z" clip-rule="evenodd" fill="rgb(232,160,163)" fill-rule="evenodd" stroke="none" stroke-width="1"/><path id="eFDQcjoeT4i12" d="M212.500000,30.700000C216.400000,29.200000,218.800000,33.700000,221.100000,39.800000C222.500000,36.600000,229.500000,23.100000,234.300000,25.300000C239.300000,27.500000,233.600000,42.100000,232,45.600000C237.800000,43,243,42.400000,244.100000,44.500000C245.500000,46.900000,240.800000,52.100000,233.700000,55.900000C233.300000,56.100000,232.900000,56.300000,232.500000,56.500000C228.700000,53.200000,224.100000,50.100000,218.600000,47.300000C216.300000,46.200000,214.100000,45.100000,211.900000,44.300000C209.800000,38.200000,208.800000,32.100000,212.500000,30.700000L212.500000,30.700000Z" clip-rule="evenodd" fill="rgb(232,160,163)" fill-rule="evenodd" stroke="none" stroke-width="1"/><path id="eFDQcjoeT4i13" d="M150.900000,93.600000C150.700000,92.800000,150,92.400000,149.300000,92.600000C148.600000,92.800000,148.300000,93.600000,148.500000,94.300000L150.900000,102.100000C151.100000,102.800000,151.900000,103.200000,152.500000,103.100000C153.200000,102.900000,153.500000,102.100000,153.300000,101.400000L150.900000,93.600000ZM196.300000,132.700000C196.100000,131.900000,195.400000,131.500000,194.700000,131.700000C194,131.900000,193.700000,132.700000,193.900000,133.400000C194.400000,135.100000,194.600000,136.100000,194.700000,137.100000C194.800000,137.900000,195,138.700000,195.300000,139.800000C195.500000,140.500000,196.200000,141,196.900000,140.800000C197.600000,140.600000,197.900000,139.900000,197.700000,139.100000C197.500000,138.200000,197.400000,137.500000,197.200000,136.700000C197.100000,135.700000,196.900000,134.600000,196.300000,132.700000L196.300000,132.700000ZM197.200000,158.600000C197,157.900000,196.300000,157.500000,195.600000,157.600000C194.900000,157.800000,194.600000,158.600000,194.800000,159.300000C195.800000,162.600000,195.900000,163.200000,196,165.100000L196,165.200000C196,165.900000,196.100000,166.700000,196.200000,168C196.300000,168.800000,196.900000,169.400000,197.600000,169.400000C198.300000,169.400000,198.800000,168.800000,198.700000,168C198.600000,166.900000,198.600000,166,198.600000,165.400000L198.600000,165.300000C198.400000,163.100000,198.300000,162.400000,197.200000,158.600000ZM202.900000,178.400000C202.700000,177.600000,202,177.200000,201.300000,177.400000C200.700000,177.600000,200.300000,178.400000,200.500000,179.100000C200.900000,180.300000,201.900000,185.400000,202.100000,186.600000L202.100000,186.900000C202.200000,187.700000,202.900000,188.200000,203.600000,188.100000C204.300000,188,204.700000,187.300000,204.500000,186.500000L204.400000,186.200000C204.400000,184.900000,203.400000,179.600000,202.900000,178.400000L202.900000,178.400000ZM187.300000,176.400000C187.200000,175.600000,186.600000,175,185.900000,175.100000C185.200000,175.100000,184.700000,175.700000,184.800000,176.500000C184.900000,177.700000,185.100000,179.600000,185.400000,181.300000C185.600000,182.600000,185.900000,183.700000,186.100000,184.600000C186.300000,185.300000,187,185.700000,187.700000,185.500000C188.400000,185.300000,188.700000,184.600000,188.500000,183.800000C188.300000,183.100000,188.100000,182.100000,187.900000,181C187.700000,179.300000,187.500000,177.500000,187.300000,176.400000L187.300000,176.400000ZM194.300000,199.200000C193.900000,198.500000,193.100000,198.400000,192.600000,198.700000C192,199.100000,191.900000,200,192.300000,200.600000C193.600000,202.600000,193.600000,203.400000,193.700000,204.900000C193.700000,205.400000,193.700000,205.900000,193.800000,206.500000C193.900000,207.300000,194.500000,207.900000,195.200000,207.900000C195.900000,207.900000,196.400000,207.200000,196.300000,206.500000C196.200000,205.900000,196.200000,205.500000,196.200000,205C196,203,196,201.800000,194.300000,199.200000L194.300000,199.200000ZM167.200000,200.800000C167.100000,200,166.500000,199.400000,165.800000,199.500000C165.100000,199.500000,164.600000,200.200000,164.700000,200.900000C164.800000,201.700000,165,202.700000,165.300000,203.700000C165.600000,204.600000,165.900000,205.400000,166.300000,206C166.800000,206.600000,167.500000,206.800000,168.100000,206.300000C168.600000,205.900000,168.700000,205,168.300000,204.400000C168.100000,204.100000,167.800000,203.500000,167.700000,202.900000C167.400000,202.300000,167.300000,201.400000,167.200000,200.800000L167.200000,200.800000ZM178.700000,202.300000C178.600000,201.500000,178,200.900000,177.300000,200.900000C176.600000,200.900000,176.100000,201.600000,176.200000,202.300000C176.300000,203.700000,176.800000,204.700000,177.300000,205.800000C177.500000,206.400000,177.800000,207,178,207.600000C178.200000,208.300000,178.900000,208.800000,179.600000,208.600000C180.300000,208.400000,180.600000,207.700000,180.400000,206.900000C180.200000,206,179.800000,205.300000,179.500000,204.600000C179.200000,204,178.800000,203.100000,178.700000,202.300000L178.700000,202.300000ZM161,183.600000C160.800000,182.800000,160.100000,182.400000,159.400000,182.600000C158.700000,182.800000,158.400000,183.600000,158.600000,184.300000C159.200000,186.300000,158.800000,185.100000,158.900000,185.300000C159.800000,188.300000,160,189.100000,162.200000,192.300000C162.600000,193,163.400000,193.100000,163.900000,192.700000C164.500000,192.300000,164.600000,191.400000,164.100000,190.800000C162.200000,187.900000,162,187.200000,161.200000,184.600000L161.200000,184.600000C161,183.700000,161.300000,184.800000,161,183.600000L161,183.600000ZM175.600000,177.700000C175.500000,177,174.800000,176.400000,174.200000,176.400000C173.500000,176.500000,173.100000,177.100000,173.200000,177.900000L173.300000,178.800000C173.600000,180.900000,173.700000,181.600000,174.500000,184C174.700000,184.700000,175.400000,185.200000,176.100000,185C176.700000,184.800000,177.100000,184,176.800000,183.300000C176.100000,181.100000,176,180.400000,175.800000,178.600000L175.600000,177.700000ZM181.500000,158.300000C181.300000,157.600000,180.500000,157.200000,179.900000,157.400000C179.200000,157.600000,178.900000,158.400000,179.200000,159.100000C179.400000,159.600000,179.600000,161.200000,179.800000,162.900000C180.100000,165.400000,180.500000,168.300000,181,170C181.200000,170.800000,181.900000,171.200000,182.600000,171C183.300000,170.800000,183.600000,170,183.400000,169.300000C182.900000,167.900000,182.600000,165.100000,182.300000,162.800000C182,160.700000,181.800000,159,181.500000,158.300000L181.500000,158.300000ZM181.200000,142.200000C180.700000,141.600000,179.900000,141.500000,179.400000,141.900000C178.900000,142.400000,178.800000,143.300000,179.300000,143.800000C181.100000,146.200000,181.200000,148,181.300000,150.500000C181.300000,151,181.400000,151.600000,181.400000,151.900000C181.500000,152.700000,182.100000,153.300000,182.800000,153.300000C183.500000,153.300000,184,152.700000,183.900000,151.900000C183.900000,151.300000,183.900000,150.900000,183.800000,150.500000C183.700000,147.600000,183.600000,145.300000,181.200000,142.200000L181.200000,142.200000ZM159,135C158.800000,134.300000,158.100000,133.800000,157.400000,134C156.800000,134.200000,156.400000,135,156.700000,135.700000L158.600000,142C158.800000,142.700000,159.500000,143.200000,160.200000,143C160.900000,142.800000,161.200000,142,161,141.300000L159,135L159,135ZM163.200000,151.300000C163.300000,150.500000,162.800000,149.800000,162.100000,149.700000C161.400000,149.600000,160.800000,150,160.700000,150.800000C160.500000,152.200000,160.600000,155.400000,160.800000,158.300000C161,160.700000,161.300000,163.100000,161.700000,164.200000C162,164.900000,162.700000,165.300000,163.300000,165C163.900000,164.800000,164.200000,164,164,163.300000C163.700000,162.500000,163.400000,160.500000,163.300000,158.300000C163.200000,155.500000,163.100000,152.600000,163.200000,151.300000ZM150.200000,160.100000C150.200000,159.300000,149.600000,158.700000,148.900000,158.600000C148.200000,158.500000,147.600000,159.100000,147.600000,159.900000C147.600000,160.400000,147.800000,161.700000,148.100000,163.100000C148.400000,165,148.900000,167.200000,149,167.700000C149.200000,168.500000,149.900000,168.900000,150.600000,168.700000C151.300000,168.500000,151.600000,167.800000,151.400000,167.100000C151.300000,166.700000,150.900000,164.600000,150.600000,162.800000C150.400000,161.500000,150.200000,160.400000,150.200000,160.100000L150.200000,160.100000ZM136.200000,170C136,169.200000,135.300000,168.800000,134.600000,169C133.900000,169.200000,133.600000,170,133.800000,170.700000C134.600000,173.200000,134.900000,174.800000,135.300000,176.500000C135.500000,177.600000,135.800000,178.800000,136.200000,180.200000C136.400000,180.900000,137.100000,181.400000,137.700000,181.200000C138.400000,181,138.700000,180.300000,138.600000,179.600000C138.200000,178.200000,138,177.100000,137.800000,176C137.400000,174.300000,137,172.600000,136.200000,170L136.200000,170ZM151.400000,190.300000C150.800000,189.800000,150.100000,189.900000,149.700000,190.500000C149.300000,191.100000,149.400000,192,150,192.400000C151.300000,193.500000,152,195.800000,152.600000,197.800000L152.700000,198.300000C152.900000,199,153.700000,199.400000,154.300000,199.200000C155,199,155.300000,198.300000,155.100000,197.500000L154.900000,197C154.200000,194.700000,153.400000,192,151.400000,190.300000L151.400000,190.300000ZM136.800000,102.300000C136.500000,101.600000,135.700000,101.400000,135.100000,101.700000C134.500000,102,134.300000,102.900000,134.700000,103.600000C135.200000,104.500000,135.400000,105.100000,135.600000,106L135.800000,106.800000C136,107.500000,136.700000,108,137.400000,107.800000C138.100000,107.600000,138.400000,106.800000,138.200000,106.100000L138,105.300000C137.700000,104.200000,137.500000,103.500000,136.800000,102.300000L136.800000,102.300000ZM128.900000,149.200000C128.700000,148.500000,127.900000,148.100000,127.300000,148.300000C126.600000,148.500000,126.300000,149.200000,126.500000,150C126.900000,151.300000,127.400000,152.500000,127.900000,153.800000C128.400000,154.900000,128.800000,156.100000,129.300000,157.500000C129.500000,158.200000,130.200000,158.700000,130.900000,158.500000C131.500000,158.300000,131.900000,157.500000,131.600000,156.800000C131.200000,155.400000,130.700000,154.200000,130.200000,152.900000C129.800000,151.600000,129.300000,150.500000,128.900000,149.200000L128.900000,149.200000ZM138.300000,134.100000C137.700000,133.600000,136.900000,133.800000,136.600000,134.400000C136.300000,135,136.400000,135.900000,137,136.300000C137.600000,136.800000,138.400000,137.900000,139.200000,139.200000C140.100000,140.700000,140.900000,142.400000,141.100000,143.200000C141.300000,144,142,144.400000,142.700000,144.300000C143.400000,144.100000,143.700000,143.400000,143.500000,142.600000C143.200000,141.500000,142.200000,139.500000,141.200000,137.800000C140.200000,136.300000,139.100000,134.800000,138.300000,134.100000L138.300000,134.100000ZM134.900000,117C134.500000,116.300000,133.700000,116.200000,133.200000,116.600000C132.700000,117,132.600000,117.900000,133,118.500000C134,120.100000,134.500000,121.100000,135,122.500000L135,122.500000C135.200000,123.100000,135.500000,123.700000,135.700000,124.300000C136,125,136.700000,125.300000,137.400000,125.100000C138.100000,124.900000,138.300000,124,138,123.300000C137.700000,122.500000,137.500000,122,137.300000,121.600000C136.600000,120,136.100000,118.900000,134.900000,117L134.900000,117ZM125,131.400000C124.800000,130.700000,124,130.300000,123.400000,130.500000C122.800000,130.700000,122.500000,131.500000,122.700000,132.200000C123.100000,133.300000,123.200000,133.600000,124.400000,135.300000C125.400000,136.800000,125.100000,136.200000,125.800000,137.600000C126.100000,138.300000,126.900000,138.500000,127.500000,138.200000C128.100000,137.900000,128.300000,137,127.900000,136.400000C127.100000,134.900000,127.400000,135.400000,126.300000,133.800000C125.200000,132.200000,125.200000,132,125,131.400000L125,131.400000ZM152.300000,114.800000C152.100000,114,151.400000,113.600000,150.700000,113.800000C150.100000,114,149.700000,114.800000,150,115.500000L150.100000,115.700000L150.100000,115.700000C150.900000,118.100000,151.400000,119.800000,152.300000,122.200000C152.600000,122.900000,153.300000,123.300000,154,123C154.600000,122.700000,154.900000,121.900000,154.600000,121.200000C153.700000,118.800000,153.100000,117.200000,152.400000,114.900000L152.400000,114.900000L152.300000,114.800000L152.300000,114.800000ZM174.600000,125.500000C174.600000,124.700000,174,124.100000,173.300000,124C172.600000,123.900000,172,124.500000,172,125.300000C172,128.300000,172.900000,129.700000,173.900000,131.200000C174.400000,132,175,132.900000,175.400000,134.100000C175.600000,134.800000,176.300000,135.300000,177,135.100000C177.700000,134.900000,178,134.200000,177.800000,133.400000C177.300000,131.700000,176.600000,130.600000,176,129.600000C175.200000,128.600000,174.600000,127.600000,174.600000,125.500000L174.600000,125.500000ZM185.700000,110.700000C185.700000,109.900000,185.100000,109.300000,184.400000,109.300000C183.700000,109.300000,183.200000,109.900000,183.200000,110.700000C183.200000,111.300000,183.700000,113.600000,184.100000,115.900000C184.600000,118.300000,185.100000,120.900000,185.300000,121.500000C185.500000,122.300000,186.300000,122.700000,186.900000,122.500000C187.600000,122.300000,187.900000,121.500000,187.700000,120.800000C187.500000,120.200000,187,117.900000,186.600000,115.500000C186.100000,113.200000,185.700000,111.100000,185.700000,110.700000ZM170.800000,99.700000C170.600000,98.900000,170,98.400000,169.300000,98.600000C168.600000,98.700000,168.200000,99.500000,168.400000,100.200000C168.600000,101.100000,168.700000,101.500000,168.800000,101.900000C169.200000,103.800000,169.700000,105.900000,169.800000,107.300000C169.900000,108.100000,170.500000,108.700000,171.200000,108.700000C171.900000,108.700000,172.400000,108,172.300000,107.200000C172.100000,105.600000,171.600000,103.300000,171.200000,101.400000L170.800000,99.700000L170.800000,99.700000Z" fill="rgb(172,215,170)" stroke="none" stroke-width="1"/><path id="eFDQcjoeT4i14" d="M264,187.400000C264.200000,187,264.100000,186.500000,263.600000,186.200000C263.200000,186,262.700000,186.100000,262.400000,186.600000C261.400000,188.500000,261.100000,188.800000,260.300000,189.700000L260.300000,189.700000C260,190,259.600000,190.400000,259.100000,191C258.800000,191.300000,258.800000,191.900000,259.200000,192.300000C259.500000,192.600000,260.100000,192.600000,260.500000,192.200000C261,191.700000,261.300000,191.300000,261.600000,191L261.600000,191C262.500000,189.900000,262.900000,189.600000,264,187.400000L264,187.400000ZM250.600000,190.300000C250.900000,189.900000,250.900000,189.400000,250.500000,189C250.200000,188.700000,249.600000,188.700000,249.200000,189.100000C248.700000,189.700000,247.900000,190.600000,247.300000,191.400000C246.800000,192,246.400000,192.700000,246.100000,193.100000C245.900000,193.500000,246,194,246.400000,194.300000C246.900000,194.500000,247.400000,194.400000,247.600000,193.900000C247.800000,193.500000,248.200000,193,248.600000,192.400000C249.400000,191.600000,250.100000,190.800000,250.600000,190.300000L250.600000,190.300000ZM233.600000,180.500000C233.800000,180.100000,233.700000,179.500000,233.300000,179.300000C232.800000,179.100000,232.300000,179.200000,232.100000,179.600000C231.500000,180.700000,231.900000,180.100000,231.800000,180.200000C230.900000,181.900000,230.700000,182.400000,230.200000,184.800000C230.100000,185.300000,230.400000,185.700000,230.900000,185.800000C231.400000,185.900000,231.800000,185.600000,231.900000,185.100000C232.300000,182.900000,232.500000,182.600000,233.300000,181L233.300000,181C233.500000,180.600000,233.200000,181.200000,233.600000,180.500000L233.600000,180.500000ZM244,185.100000C244.300000,184.700000,244.200000,184.200000,243.900000,183.900000C243.500000,183.600000,243,183.700000,242.700000,184L242.400000,184.400000C241.600000,185.400000,241.300000,185.800000,240.500000,187.200000C240.300000,187.600000,240.500000,188.200000,240.900000,188.400000C241.300000,188.600000,241.900000,188.500000,242.100000,188.100000C242.800000,186.800000,243,186.500000,243.800000,185.600000L244,185.100000L244,185.100000ZM256.100000,179.600000C256.300000,179.200000,256.100000,178.700000,255.700000,178.400000C255.200000,178.200000,254.700000,178.400000,254.500000,178.800000C254.400000,179.100000,253.700000,179.800000,253,180.700000C252,182,250.800000,183.400000,250.300000,184.400000C250.100000,184.800000,250.200000,185.300000,250.700000,185.600000C251.100000,185.800000,251.600000,185.700000,251.900000,185.200000C252.400000,184.400000,253.400000,183,254.400000,181.900000C255.200000,180.900000,255.900000,180.100000,256.100000,179.600000L256.100000,179.600000ZM263.500000,172.600000C263.500000,172.100000,263.200000,171.700000,262.700000,171.600000C262.200000,171.500000,261.800000,171.900000,261.700000,172.400000C261.500000,174.300000,260.700000,175.200000,259.600000,176.300000C259.400000,176.500000,259.100000,176.800000,259,176.900000C258.700000,177.300000,258.700000,177.800000,259,178.200000C259.400000,178.500000,259.900000,178.500000,260.300000,178.200000C260.600000,177.900000,260.800000,177.700000,260.900000,177.600000C262.200000,176.100000,263.200000,175,263.500000,172.600000L263.500000,172.600000ZM255.500000,158.700000C255.700000,158.300000,255.500000,157.700000,255.100000,157.500000C254.700000,157.300000,254.100000,157.400000,253.900000,157.800000L252,161.500000C251.800000,162,251.900000,162.500000,252.400000,162.700000C252.800000,162.900000,253.300000,162.800000,253.600000,162.300000L255.500000,158.700000L255.500000,158.700000ZM249.900000,167.800000C250.300000,167.500000,250.400000,167,250.100000,166.500000C249.800000,166.100000,249.300000,166,248.900000,166.300000C248.200000,166.800000,246.700000,168.200000,245.500000,169.500000C244.500000,170.600000,243.500000,171.800000,243.200000,172.500000C243,173,243.200000,173.500000,243.700000,173.700000C244.200000,173.900000,244.700000,173.700000,244.900000,173.200000C245.100000,172.700000,245.900000,171.700000,246.800000,170.700000C248,169.500000,249.300000,168.200000,249.900000,167.800000ZM239.100000,165.200000C239.400000,164.900000,239.500000,164.300000,239.100000,163.900000C238.800000,163.600000,238.200000,163.500000,237.800000,163.900000C237.600000,164.100000,237.100000,164.800000,236.500000,165.500000C235.800000,166.500000,235,167.600000,234.800000,167.900000C234.600000,168.300000,234.700000,168.900000,235.100000,169.100000C235.500000,169.300000,236.100000,169.200000,236.300000,168.800000C236.400000,168.600000,237.200000,167.500000,237.900000,166.500000C238.600000,165.900000,239,165.300000,239.100000,165.200000L239.100000,165.200000ZM228.400000,162.700000C228.600000,162.300000,228.500000,161.700000,228,161.500000C227.600000,161.300000,227.100000,161.400000,226.800000,161.800000C226,163.300000,226.300000,162.800000,225.700000,163.700000C225.300000,164.300000,224.900000,164.900000,224.400000,165.700000C224.200000,166.100000,224.300000,166.600000,224.700000,166.900000C225.100000,167.200000,225.700000,167,225.900000,166.600000C226.400000,165.800000,226.700000,165.200000,227.100000,164.700000C227.800000,163.800000,227.600000,164.200000,228.400000,162.700000L228.400000,162.700000ZM229.500000,172.600000C229.700000,172.100000,229.600000,171.600000,229.200000,171.400000C228.700000,171.200000,228.200000,171.400000,228,171.800000C227.400000,172.900000,227.200000,173.700000,227,174.500000C226.900000,175,226.800000,175.400000,226.500000,175.800000C226.300000,176.300000,226.500000,176.800000,227,176.900000C227.400000,177.100000,227.900000,176.900000,228.100000,176.500000C228.400000,175.900000,228.500000,175.500000,228.600000,175C228.800000,174.200000,229,173.500000,229.500000,172.600000L229.500000,172.600000ZM239.300000,174.100000C239.400000,173.600000,239.200000,173.200000,238.700000,173C238.200000,172.900000,237.800000,173.100000,237.600000,173.600000C237.400000,174.300000,237.200000,174.600000,236.900000,175.100000L236.700000,175.600000C236.500000,176,236.600000,176.600000,237,176.800000C237.500000,177,238,176.900000,238.200000,176.500000L238.400000,176C238.800000,175.400000,239,175,239.300000,174.100000ZM235.300000,153.400000C235.500000,153,235.400000,152.500000,234.900000,152.200000C234.500000,152,234,152.100000,233.700000,152.600000C233.300000,153.400000,233,154.100000,232.700000,154.900000C232.400000,155.600000,232.100000,156.400000,231.700000,157.200000C231.500000,157.600000,231.700000,158.100000,232.100000,158.400000C232.500000,158.600000,233.100000,158.500000,233.300000,158C233.800000,157.200000,234.100000,156.400000,234.400000,155.600000C234.600000,154.800000,234.900000,154.100000,235.300000,153.400000L235.300000,153.400000ZM246.200000,152.800000C246.100000,152.300000,245.700000,152,245.200000,152.100000C244.700000,152.200000,244.400000,152.700000,244.500000,153.100000C244.600000,153.600000,244.400000,154.500000,244.200000,155.400000C244,156.500000,243.600000,157.600000,243.300000,158C243.100000,158.400000,243.200000,159,243.600000,159.200000C244,159.400000,244.500000,159.300000,244.800000,158.900000C245.100000,158.300000,245.600000,157,245.900000,155.700000C246.200000,154.600000,246.300000,153.500000,246.200000,152.800000L246.200000,152.800000ZM271.500000,174.300000C271.600000,173.800000,271.300000,173.400000,270.800000,173.300000C270.300000,173.200000,269.900000,173.500000,269.800000,174C269.600000,175.200000,269.300000,175.800000,269,176.700000L269,176.700000C268.900000,177,268.700000,177.500000,268.500000,177.800000C268.300000,178.300000,268.600000,178.800000,269,178.900000C269.500000,179.100000,269.900000,178.800000,270.100000,178.400000C270.300000,177.900000,270.400000,177.600000,270.500000,177.300000C271,176.400000,271.200000,175.700000,271.500000,174.300000L271.500000,174.300000ZM253.200000,172.600000C253.600000,172.300000,253.700000,171.700000,253.300000,171.400000C253,171,252.500000,170.900000,252.100000,171.200000C251.200000,172,251.100000,172.200000,250.800000,173.100000C250.800000,173.200000,250.700000,173.400000,250.700000,173.500000C250.600000,174,250.800000,174.500000,251.300000,174.600000C251.800000,174.800000,252.300000,174.500000,252.400000,174.100000C252.500000,173.900000,252.500000,173.800000,252.600000,173.600000C252.700000,173.200000,252.700000,173,253.200000,172.600000ZM263.800000,156.600000C264,156.200000,263.900000,155.600000,263.500000,155.400000C263,155.200000,262.500000,155.300000,262.300000,155.700000L262.200000,155.900000L262.200000,155.900000C261.500000,157.300000,260.900000,158.300000,260.300000,159.800000C260.100000,160.300000,260.300000,160.800000,260.800000,161C261.300000,161.200000,261.800000,161,261.900000,160.500000C262.600000,159,263,158.100000,263.700000,156.700000L263.700000,156.700000L263.800000,156.600000L263.800000,156.600000ZM267.900000,162.200000C268.200000,161.900000,268.300000,161.300000,267.900000,160.900000C267.600000,160.600000,267,160.600000,266.600000,160.900000C265.200000,162.200000,265,163.200000,264.800000,164.300000C264.700000,164.900000,264.600000,165.600000,264.200000,166.300000C264,166.700000,264.100000,167.200000,264.500000,167.500000C264.900000,167.700000,265.400000,167.600000,265.700000,167.200000C266.300000,166.200000,266.400000,165.500000,266.500000,164.700000C266.800000,163.800000,266.900000,163.100000,267.900000,162.200000L267.900000,162.200000Z" fill="rgb(172,215,170)" stroke="none" stroke-width="1"/><path id="eFDQcjoeT4i15" d="M179.600000,71.300000C179.900000,70.700000,180.600000,70.500000,181.200000,70.800000C181.800000,71.100000,182,71.800000,181.700000,72.400000C180.300000,74.900000,180.200000,75.400000,179.900000,77L179.900000,77C179.800000,77.600000,179.700000,78.200000,179.400000,79.200000C179.200000,79.800000,178.600000,80.200000,178,80C177.400000,79.800000,177,79.200000,177.100000,78.600000C177.300000,77.700000,177.500000,77,177.600000,76.400000L177.600000,76.400000C177.900000,74.600000,178.100000,74.100000,179.600000,71.300000ZM186.300000,87.900000C186.500000,87.300000,187.100000,86.900000,187.700000,87.100000C188.300000,87.300000,188.700000,87.900000,188.500000,88.500000C188.300000,89.500000,187.800000,91,187.400000,92.300000C187.100000,93.300000,186.700000,94.200000,186.400000,94.900000C186.100000,95.500000,185.400000,95.700000,184.800000,95.400000C184.200000,95.100000,184,94.400000,184.300000,93.800000C184.600000,93.300000,184.900000,92.500000,185.200000,91.600000C185.600000,90.200000,186.100000,88.800000,186.300000,87.900000ZM209.200000,99.300000C209.500000,98.700000,210.200000,98.500000,210.700000,98.800000C211.300000,99.100000,211.500000,99.800000,211.200000,100.400000C210.400000,101.900000,210.900000,101,210.800000,101.200000C209.500000,103.500000,209.300000,104,207,106.300000C206.500000,106.800000,205.800000,106.700000,205.400000,106.300000C204.900000,105.800000,204.900000,105.100000,205.400000,104.700000C207.500000,102.700000,207.700000,102.200000,208.800000,100.200000L208.800000,100.200000C209.200000,99.400000,208.700000,100.200000,209.200000,99.300000L209.200000,99.300000ZM196.700000,91.400000C196.900000,90.800000,197.500000,90.500000,198.100000,90.600000C198.700000,90.800000,199,91.400000,198.900000,92.100000L198.700000,92.800000C198.200000,94.400000,198,95,197,96.800000C196.700000,97.400000,196,97.600000,195.400000,97.300000C194.800000,97,194.600000,96.300000,194.900000,95.700000C195.800000,94,196,93.500000,196.400000,92L196.700000,91.400000ZM193.800000,74.200000C194.100000,73.600000,194.800000,73.400000,195.400000,73.700000C196,74,196.100000,74.700000,195.800000,75.300000C195.600000,75.600000,195.200000,76.900000,194.800000,78.300000C194.200000,80.300000,193.500000,82.600000,192.900000,83.900000C192.600000,84.500000,191.900000,84.700000,191.300000,84.400000C190.700000,84.100000,190.500000,83.400000,190.800000,82.800000C191.400000,81.700000,192.100000,79.500000,192.600000,77.600000C193.100000,76.100000,193.500000,74.700000,193.800000,74.200000L193.800000,74.200000ZM196,61C196.500000,60.600000,197.200000,60.700000,197.600000,61.100000C198,61.500000,197.900000,62.300000,197.500000,62.700000C195.600000,64.300000,195.300000,65.800000,194.900000,67.800000C194.800000,68.200000,194.700000,68.700000,194.700000,68.900000C194.600000,69.500000,193.900000,69.900000,193.300000,69.800000C192.700000,69.600000,192.300000,69,192.400000,68.400000C192.500000,67.900000,192.600000,67.600000,192.600000,67.300000C193.200000,64.900000,193.600000,63,196,61L196,61ZM217,59.600000C217.300000,59,218,58.800000,218.600000,59.100000C219.200000,59.400000,219.400000,60.100000,219.100000,60.700000L216.600000,65.500000C216.300000,66.100000,215.600000,66.300000,215,66C214.400000,65.700000,214.200000,65,214.500000,64.400000L217,59.600000ZM211.200000,72.200000C211.200000,71.500000,211.800000,71.100000,212.400000,71.100000C213,71.100000,213.500000,71.700000,213.500000,72.300000C213.500000,73.500000,213,76.100000,212.500000,78.400000C212,80.300000,211.500000,82.200000,211,83C210.700000,83.600000,210,83.700000,209.400000,83.400000C208.900000,83.100000,208.700000,82.400000,209.100000,81.800000C209.400000,81.200000,209.900000,79.600000,210.400000,77.900000C210.700000,75.600000,211.200000,73.200000,211.200000,72.200000L211.200000,72.200000ZM221.800000,82.100000C221.900000,81.500000,222.500000,81.100000,223.100000,81.100000C223.700000,81.200000,224.100000,81.800000,224,82.400000C224,82.800000,223.600000,83.800000,223.200000,85C222.700000,86.500000,222,88.200000,221.800000,88.600000C221.500000,89.200000,220.800000,89.400000,220.300000,89.200000C219.700000,88.900000,219.500000,88.200000,219.700000,87.600000C219.900000,87.300000,220.500000,85.700000,221,84.200000C221.500000,83.200000,221.800000,82.300000,221.800000,82.100000L221.800000,82.100000ZM232.400000,91.900000C232.700000,91.300000,233.400000,91.100000,234,91.400000C234.600000,91.700000,234.800000,92.400000,234.500000,93C233.500000,94.900000,233.700000,94.300000,233.200000,95.600000C232.900000,96.500000,232.500000,97.300000,232,98.400000C231.700000,99,231,99.200000,230.500000,99C229.900000,98.800000,229.700000,98.100000,229.900000,97.500000C230.400000,96.500000,230.700000,95.600000,231.100000,94.700000C231.600000,93.300000,231.300000,93.900000,232.400000,91.900000L232.400000,91.900000ZM220.900000,97.900000C221.200000,97.300000,221.900000,97.100000,222.500000,97.400000C223.100000,97.700000,223.300000,98.400000,223,99C222.200000,100.500000,221.500000,101.300000,220.800000,102.100000C220.400000,102.600000,220,103,219.700000,103.500000C219.400000,104.100000,218.700000,104.200000,218.100000,103.900000C217.500000,103.600000,217.400000,102.900000,217.700000,102.300000C218.100000,101.600000,218.500000,101.100000,219,100.600000C219.500000,99.900000,220.200000,99.100000,220.900000,97.900000ZM212,88.400000C212.400000,87.900000,213.100000,87.800000,213.600000,88.300000C214.100000,88.700000,214.100000,89.400000,213.700000,89.900000C213.100000,90.600000,212.900000,91,212.600000,91.700000L212.300000,92.300000C212,92.900000,211.300000,93.100000,210.700000,92.800000C210.100000,92.500000,209.900000,91.800000,210.200000,91.200000L210.500000,90.600000C211,89.900000,211.300000,89.300000,212,88.400000L212,88.400000ZM237.500000,77.600000C237.800000,77,238.500000,76.800000,239.100000,77.100000C239.700000,77.400000,239.900000,78.100000,239.600000,78.700000C239,79.700000,238.500000,80.600000,237.900000,81.500000C237.300000,82.400000,236.800000,83.200000,236.200000,84.300000C235.900000,84.900000,235.200000,85.100000,234.600000,84.800000C234,84.500000,233.800000,83.800000,234.100000,83.200000C234.700000,82.200000,235.200000,81.200000,235.900000,80.300000C236.400000,79.400000,237,78.500000,237.500000,77.600000L237.500000,77.600000ZM230.200000,65.300000C230.800000,65.100000,231.500000,65.300000,231.700000,65.900000C231.900000,66.500000,231.700000,67.200000,231.100000,67.400000C230.500000,67.600000,229.600000,68.400000,228.800000,69.300000C227.800000,70.400000,226.900000,71.600000,226.500000,72.200000C226.200000,72.800000,225.600000,73,225,72.800000C224.400000,72.600000,224.200000,71.900000,224.400000,71.300000C224.800000,70.500000,225.900000,69,227.100000,67.800000C228.100000,66.700000,229.300000,65.700000,230.200000,65.300000L230.200000,65.300000ZM188.300000,53.600000C188.800000,53.200000,189.500000,53.200000,189.900000,53.700000C190.400000,54.200000,190.300000,54.900000,189.900000,55.300000C188.800000,56.400000,188.300000,57.100000,187.600000,58.200000L187.600000,58.200000C187.300000,58.600000,187,59.100000,186.700000,59.500000C186.400000,60,185.600000,60.200000,185.100000,59.800000C184.600000,59.400000,184.400000,58.700000,184.800000,58.200000C185.200000,57.600000,185.400000,57.300000,185.600000,56.900000C186.400000,55.700000,187,54.900000,188.300000,53.600000L188.300000,53.600000ZM203.500000,72.100000C203.500000,71.500000,204.100000,71,204.700000,71.100000C205.400000,71.100000,205.800000,71.700000,205.800000,72.300000C205.700000,73.900000,205.400000,74.200000,204.700000,75.100000C204.600000,75.200000,204.500000,75.400000,204.400000,75.600000C204,76.100000,203.300000,76.200000,202.800000,75.800000C202.300000,75.400000,202.200000,74.700000,202.600000,74.200000C202.700000,74,202.900000,73.900000,203,73.700000C203.300000,73.100000,203.500000,73,203.500000,72.100000L203.500000,72.100000ZM213.100000,49C213.400000,48.400000,214.100000,48.200000,214.700000,48.500000C215.300000,48.800000,215.500000,49.500000,215.200000,50.100000L215.100000,50.300000L215.100000,50.300000C214.100000,52.100000,213.400000,53.400000,212.300000,55.200000C212,55.800000,211.200000,55.900000,210.700000,55.500000C210.200000,55.200000,210,54.500000,210.400000,53.900000C211.600000,52.100000,212.200000,50.900000,213.200000,49.200000L213.200000,49.200000L213.100000,49L213.100000,49ZM204.100000,48.600000C204.200000,48,204.800000,47.500000,205.400000,47.600000C206.100000,47.700000,206.500000,48.300000,206.400000,48.900000C206,51.400000,205,52.300000,204,53.400000C203.400000,54,202.900000,54.500000,202.400000,55.500000C202.100000,56.100000,201.400000,56.300000,200.800000,56C200.200000,55.700000,200,55,200.300000,54.500000C201,53.200000,201.700000,52.400000,202.400000,51.700000C203.200000,51,203.800000,50.300000,204.100000,48.600000L204.100000,48.600000Z" fill="rgb(172,215,170)" stroke="none" stroke-width="1"/></g><g id="eFDQcjoeT4i16"><g id="eFDQcjoeT4i17"><path id="eFDQcjoeT4i18" d="M136.400000,305.100000L136.400000,316.900000C136.400000,348.900000,167.900000,375.100000,206.500000,375.100000L206.500000,375.100000C245,375.100000,276.500000,348.900000,276.500000,316.900000L276.500000,305.100000L136.400000,305.100000L136.400000,305.100000Z" clip-rule="evenodd" fill="rgb(181,216,210)" fill-rule="evenodd" stroke="none" stroke-width="1"/><rect id="eFDQcjoeT4i19" width="152.700000" height="11.800000" rx="0" ry="0" transform="matrix(1 0 0 1 130.09999999999999 293.30000000000001)" clip-rule="evenodd" fill="rgb(144,187,178)" fill-rule="evenodd" stroke="none" stroke-width="1"/></g><rect id="eFDQcjoeT4i20" width="140.100000" height="5.900000" rx="0" ry="0" transform="matrix(1 0 0 1 136.40000000000001 311)" clip-rule="evenodd" fill="rgb(255,255,255)" fill-rule="evenodd" stroke="none" stroke-width="1"/></g></svg>