<svg id="s1" xmlns="http://www.w3.org/2000/svg" xmlns:xlink="http://www.w3.org/1999/xlink" viewBox="0 0 400 400"><g id="s3"><g id="s5"><path id="s7" d="M200,54C155.670000,54.180000,123.690000,88.110000,188,167.350000C191.370000,171.510000,196.530000,172.350000,200,172.350000C203.470000,172.350000,208.640000,171.480000,212,167.350000C276.310000,88.110000,244.330000,54.180000,200,54Z" fill="rgb(174,225,234)" stroke="none" stroke-width="1"/><path id="s9" d="M73.560000,127C51.560000,165.480000,64.940000,210.150000,165.720000,194.080000C171.010000,193.240000,174.310000,189.190000,176.080000,186.190000C177.850000,183.190000,179.650000,178.270000,177.730000,173.270000C141.260000,78,95.880000,88.700000,73.560000,127Z" fill="rgb(174,225,234)" stroke="none" stroke-width="1"/><path id="s11" d="M73.560000,273C95.880000,311.300000,141.260000,322,177.740000,226.730000C179.650000,221.730000,177.800000,216.840000,176.090000,213.810000C174.380000,210.780000,171.010000,206.810000,165.730000,205.920000C64.940000,189.850000,51.550000,234.520000,73.560000,273Z" fill="rgb(174,225,234)" stroke="none" stroke-width="1"/><path id="s13" d="M200,346C244.330000,345.820000,276.310000,311.890000,212,232.650000C208.630000,228.490000,203.470000,227.650000,200,227.650000C196.530000,227.650000,191.360000,228.520000,188,232.650000C123.690000,311.890000,155.670000,345.820000,200,346Z" fill="rgb(174,225,234)" stroke="none" stroke-width="1"/><path id="s15" d="M326.440000,273C348.440000,234.520000,335.060000,189.850000,234.280000,205.920000C228.990000,206.760000,225.690000,210.810000,223.920000,213.810000C222.150000,216.810000,220.350000,221.730000,222.270000,226.730000C258.740000,322,304.120000,311.300000,326.440000,273Z" fill="rgb(174,225,234)" stroke="none" stroke-width="1"/><path id="s17" d="M326.440000,127C304.120000,88.700000,258.740000,78,222.260000,173.270000C220.350000,178.270000,222.200000,183.160000,223.910000,186.190000C225.620000,189.220000,228.990000,193.190000,234.270000,194.080000C335.060000,210.150000,348.450000,165.480000,326.440000,127Z" fill="rgb(174,225,234)" stroke="none" stroke-width="1"/></g><g id="s19"><circle id="s21" r="54.730000" transform="translate(200,200)" fill="rgb(247,169,77)" stroke="none" stroke-width="1"/><circle id="s23" r="34.200000" transform="translate(200,200)" fill="rgb(247,209,133)" stroke="none" stroke-width="1"/></g></g></svg>