<svg id="s1" xmlns="http://www.w3.org/2000/svg" xmlns:xlink="http://www.w3.org/1999/xlink" viewBox="0 0 400 400"><g id="s3"><path id="s5" d="M253.390000,324C268.060000,328.670000,282.060000,317,274.720000,300.330000C267.380000,283.660000,258.060000,274,262.060000,257.670000C266.060000,241.340000,278.730000,244.340000,276.730000,257.340000C274.730000,270.340000,277.060000,279.010000,283.400000,288.010000C289.740000,297.010000,300.400000,315.340000,286.730000,331.680000C273.060000,348.020000,246.060000,344.350000,237.400000,339.010000C228.740000,333.670000,231.720000,316,253.390000,324Z" fill="rgb(159,163,194)" stroke="none" stroke-width="1"/><path id="s7" d="M244.390000,240.330000C237.720000,215.660000,241.060000,192,233.720000,167.660000C233.720000,167.660000,228.110000,148.500000,197.720000,148.500000C167.330000,148.500000,161.720000,167.660000,161.720000,167.660000C154.390000,191.990000,157.720000,215.660000,151.050000,240.330000C144.380000,265,132.720000,305,138.720000,323.670000C144.720000,342.340000,151.720000,347.670000,159.720000,349.670000C167.440000,351.600000,179.320000,352.900000,197.720000,352.900000C216.120000,352.900000,228,351.600000,235.720000,349.670000C243.720000,347.670000,250.720000,342.340000,256.720000,323.670000C262.720000,305,251.060000,265,244.390000,240.330000Z" fill="rgb(140,144,171)" stroke="none" stroke-width="1"/><path id="s9" d="M224.720000,351.670000C225.890000,346.840000,231.550000,343.340000,240.390000,343C249.230000,342.660000,254.560000,347.170000,254.560000,353.830000C254.560000,360.490000,235.730000,363.830000,225.390000,358.500000C223.390000,356.500000,223.720000,354,224.720000,351.670000Z" fill="rgb(140,144,171)" stroke="none" stroke-width="1"/><g id="s11"><path id="s13" d="M241.810000,227.250000C245.460000,239.710000,251.140000,265.080000,246.480000,284.080000C241.820000,303.080000,241.150000,309.250000,237.650000,325.910000C234.150000,342.570000,233.150000,348.580000,233.980000,356.410000C234.810000,364.240000,220.480000,364.740000,212.150000,364.740000C203.820000,364.740000,202.320000,358.410000,203.480000,335.240000C204.640000,312.070000,211.980000,283.570000,211.650000,272.910000C211.320000,262.250000,207.820000,250.080000,208.480000,238.580000C209.140000,227.080000,215.650000,219.910000,222.310000,218.580000C228.970000,217.250000,239.810000,220.420000,241.810000,227.250000Z" fill="rgb(159,163,194)" stroke="none" stroke-width="1"/><path id="s15" d="M218.220000,368.330000C211.050000,368.330000,202.040000,368.020000,202.220000,363.500000C202.550000,355.170000,209.050000,348.830000,221.220000,349.830000C233.390000,350.830000,239.390000,352.500000,238.550000,359.830000C237.710000,367.160000,231.890000,367.830000,218.220000,368.330000Z" fill="rgb(159,163,194)" stroke="none" stroke-width="1"/></g><path id="s17" d="M170.720000,351.670000C169.550000,346.840000,163.890000,343.340000,155.050000,343C146.210000,342.660000,140.880000,347.170000,140.880000,353.830000C140.880000,360.490000,159.710000,363.830000,170.050000,358.500000C172.060000,356.500000,171.720000,354,170.720000,351.670000Z" fill="rgb(140,144,171)" stroke="none" stroke-width="1"/><g id="s19"><path id="s21" d="M153.640000,227.250000C149.990000,239.710000,144.310000,265.080000,148.970000,284.080000C153.630000,303.080000,154.300000,309.250000,157.800000,325.910000C161.300000,342.570000,162.300000,348.580000,161.470000,356.410000C160.640000,364.240000,174.970000,364.740000,183.300000,364.740000C191.630000,364.740000,193.130000,358.410000,191.970000,335.240000C190.810000,312.070000,183.470000,283.570000,183.800000,272.910000C184.130000,262.250000,187.630000,250.080000,186.970000,238.580000C186.310000,227.080000,179.800000,219.910000,173.140000,218.580000C166.480000,217.250000,155.640000,220.420000,153.640000,227.250000Z" fill="rgb(159,163,194)" stroke="none" stroke-width="1"/><path id="s23" d="M177.220000,368.330000C184.390000,368.330000,193.400000,368.020000,193.220000,363.500000C192.890000,355.170000,186.390000,348.830000,174.220000,349.830000C162.050000,350.830000,156.050000,352.500000,156.890000,359.830000C157.730000,367.160000,163.560000,367.830000,177.220000,368.330000Z" fill="rgb(159,163,194)" stroke="none" stroke-width="1"/></g><g id="s25"><path id="s27" d="M252.410000,150.470000C251.820000,134.620000,246.250000,119.070000,238.620000,108.470000C230.990000,97.870000,215.140000,96.470000,197.140000,96.470000C179.140000,96.470000,163.260000,98,155.660000,108.470000C148.060000,118.940000,142.450000,134.590000,141.870000,150.470000C141.290000,166.350000,146.870000,174.240000,161.870000,183.630000C175.870000,192.420000,180.120000,195.040000,195.520000,195.340000L198.850000,195.340000C214.250000,195.040000,218.490000,192.420000,232.500000,183.630000C247.420000,174.240000,253,166.320000,252.410000,150.470000Z" fill="rgb(159,163,194)" stroke="none" stroke-width="1"/><g id="s29"><circle id="s31" r="4.890000" transform="translate(173.370000,148.510000)" fill="rgb(63,69,97)" stroke="none" stroke-width="1"/><circle id="s33" r="4.890000" transform="translate(220.910000,148.510000)" fill="rgb(63,69,97)" stroke="none" stroke-width="1"/></g><g id="s35"><path id="s37" d="M179.630000,98.140000C176.300000,92.470000,153.750000,69.440000,142.630000,73.880000C133.830000,77.400000,142.830000,119.460000,147.720000,130.610000C153.200000,143,193.320000,120.830000,179.630000,98.140000Z" fill="rgb(159,163,194)" stroke="none" stroke-width="1"/><path id="s39" d="M214.650000,98.140000C217.980000,92.470000,240.530000,69.440000,251.650000,73.880000C260.450000,77.400000,251.450000,119.460000,246.560000,130.610000C241.080000,143,201,120.830000,214.650000,98.140000Z" fill="rgb(159,163,194)" stroke="none" stroke-width="1"/></g><g id="s41"><path id="s43" d="M182.410000,172.350000C185.660000,179.600000,196.610000,179.020000,197.110000,169.540000" fill="none" stroke="rgb(87,97,130)" stroke-width="2" stroke-linecap="round" stroke-miterlimit="10"/><path id="s45" d="M211.820000,172.350000C208.570000,179.600000,197.620000,179.020000,197.120000,169.540000" fill="none" stroke="rgb(87,97,130)" stroke-width="2" stroke-linecap="round" stroke-miterlimit="10"/></g><path id="s47" d="M197.140000,158.440000C192.330000,158.440000,188.520000,158.690000,188.650000,160.130000C188.780000,161.570000,191.270000,170.040000,197.140000,170.040000C203.010000,170.040000,205.490000,161.610000,205.630000,160.130000C205.770000,158.650000,201.950000,158.440000,197.140000,158.440000Z" fill="rgb(63,69,97)" stroke="none" stroke-width="1"/></g></g></svg>