<svg id="s1" xmlns="http://www.w3.org/2000/svg" xmlns:xlink="http://www.w3.org/1999/xlink" viewBox="0 0 400 400"><g id="s3"><g id="s5"><path id="s7" d="M221.680000,43.760000C210.580000,43.620000,210.290000,55.840000,200.470000,56.440000L199.540000,56.440000C189.720000,55.840000,189.430000,43.620000,178.330000,43.760000C167.230000,43.900000,141.240000,88.160000,143.740000,129.070000C146.210000,169.520000,165.280000,200.920000,200.010000,202.880000C234.740000,200.880000,253.800000,169.510000,256.280000,129.070000C258.770000,88.150000,232.780000,43.890000,221.680000,43.760000Z" fill="rgb(253,177,148)" stroke="none" stroke-width="1"/><path id="s9" d="M49.730000,137.190000C46.170000,147.710000,57.730000,151.760000,55.240000,161.280000C55.240000,161.440000,55.010000,162.020000,54.950000,162.170000C51.340000,171.320000,39.640000,167.820000,36.330000,178.420000C33.020000,189.020000,67.090000,227.420000,106.780000,237.680000C146.010000,247.830000,181.780000,239.400000,194.370000,206.980000C203.230000,173.350000,179.260000,145.510000,141.560000,130.660000C103.410000,115.630000,53.290000,126.670000,49.730000,137.190000Z" fill="rgb(253,177,148)" stroke="none" stroke-width="1"/><path id="s11" d="M85.450000,329.590000C94.350000,336.230000,101.770000,326.510000,110.060000,331.800000C110.200000,331.890000,110.690000,332.240000,110.810000,332.350000C118.400000,338.610000,111.450000,348.660000,120.520000,355.080000C129.590000,361.500000,176.620000,340.960000,198.650000,306.390000C220.420000,272.220000,223.450000,235.600000,196.520000,213.600000C167.270000,194.780000,133.390000,208.980000,107.610000,240.240000C81.540000,271.880000,76.550000,323,85.450000,329.590000Z" fill="rgb(253,177,148)" stroke="none" stroke-width="1"/><path id="s13" d="M279.480000,355.080000C288.540000,348.660000,281.600000,338.610000,289.190000,332.350000C289.310000,332.250000,289.810000,331.890000,289.940000,331.800000C298.240000,326.520000,305.650000,336.230000,314.550000,329.590000C323.450000,322.950000,318.460000,271.870000,292.390000,240.240000C266.620000,208.970000,232.730000,194.780000,203.480000,213.600000C176.540000,235.600000,179.570000,272.210000,201.350000,306.390000C223.380000,341,270.410000,361.490000,279.480000,355.080000Z" fill="rgb(253,177,148)" stroke="none" stroke-width="1"/><path id="s15" d="M363.670000,178.420000C360.370000,167.820000,348.670000,171.320000,345.050000,162.170000C344.990000,162.020000,344.800000,161.440000,344.760000,161.280000C342.300000,151.760000,353.830000,147.710000,350.270000,137.190000C346.710000,126.670000,296.590000,115.630000,258.450000,130.660000C220.750000,145.510000,196.780000,173.350000,205.640000,206.980000C218.240000,239.400000,254,247.830000,293.230000,237.680000C332.910000,227.410000,367,189,363.670000,178.420000Z" fill="rgb(253,177,148)" stroke="none" stroke-width="1"/></g><g id="s17"><circle id="s19" r="41.960000" transform="translate(200,208.810000)" fill="rgb(255,222,171)" stroke="none" stroke-width="1"/><circle id="s21" r="31.670000" transform="translate(200,208.810000)" fill="rgb(255,231,194)" stroke="none" stroke-width="1"/></g><g id="s23"><line id="s25" x1="189.920000" y1="190.700000" x2="173.020000" y2="161.250000" fill="none" stroke="rgb(209,133,105)" stroke-width="4" stroke-linecap="round" stroke-miterlimit="10"/><circle id="s27" r="8.870000" transform="translate(-16.090000,19.590000) rotate(-6.279982) scale(1,1) translate(170.390000,156.360000)" fill="rgb(209,133,105)" stroke="none" stroke-width="1"/></g><g id="s29"><line id="s31" x1="179.280000" y1="208.480000" x2="145.330000" y2="208.390000" fill="none" stroke="rgb(209,133,105)" stroke-width="4" stroke-linecap="round" stroke-miterlimit="10"/><circle id="s33" r="8.870000" transform="translate(-107.090000,252.450000) rotate(-66.280015) scale(1,1) translate(139.770000,208.230000)" fill="rgb(209,133,105)" stroke="none" stroke-width="1"/></g><g id="s35"><line id="s37" x1="189.360000" y1="226.590000" x2="172.300000" y2="255.950000" fill="none" stroke="rgb(209,133,105)" stroke-width="4" stroke-linecap="round" stroke-miterlimit="10"/><circle id="s39" r="8.870000" transform="translate(-121.420000,150.790000) rotate(-36.280004) skewX(0) scale(1,1) translate(169.390000,260.670000)" fill="rgb(209,133,105)" stroke="none" stroke-width="1"/></g><g id="s41"><line id="s43" x1="210.080000" y1="226.910000" x2="226.980000" y2="256.360000" fill="none" stroke="rgb(209,133,105)" stroke-width="4" stroke-linecap="round" stroke-miterlimit="10"/><circle id="s45" r="8.870000" transform="translate(-27.220000,26.700000) rotate(-6.279982) scale(1,1) translate(229.610000,261.250000)" fill="rgb(209,133,105)" stroke="none" stroke-width="1"/></g><g id="s47"><line id="s49" x1="220.720000" y1="209.130000" x2="254.670000" y2="209.220000" fill="none" stroke="rgb(209,133,105)" stroke-width="4" stroke-linecap="round" stroke-miterlimit="10"/><circle id="s51" r="8.870000" transform="translate(-36.140000,363.420000) rotate(-66.280015) scale(1,1) translate(260.230000,209.390000)" fill="rgb(209,133,105)" stroke="none" stroke-width="1"/></g><g id="s53"><line id="s55" x1="210.640000" y1="191.030000" x2="227.700000" y2="161.670000" fill="none" stroke="rgb(209,133,105)" stroke-width="4" stroke-linecap="round" stroke-miterlimit="10"/><circle id="s57" r="8.870000" transform="translate(-48.160000,166.910000) rotate(-36.280004) skewX(0) scale(1,1) translate(230.610000,156.940000)" fill="rgb(209,133,105)" stroke="none" stroke-width="1"/></g></g></svg>