<svg id="s1" xmlns="http://www.w3.org/2000/svg" xmlns:xlink="http://www.w3.org/1999/xlink" viewBox="0 0 400 400"><g id="s3"><g id="s5"><path id="s7" d="M219.350000,241.580000L219.350000,266.240000C219.382933,276.443596,227.646404,284.707067,237.850000,284.740000L237.850000,284.740000C253.439849,284.990635,265.958416,297.678192,266,313.270000L266,347.720000L134,347.720000L134,313.270000C134.046820,297.689739,146.551861,285.011326,162.130000,284.750000L162.130000,284.750000C172.333596,284.717067,180.597067,276.453596,180.630000,266.250000L180.630000,241.580000Z" fill="rgb(255,210,153)" stroke="none" stroke-width="1"/><path id="s9" d="M180.650000,241.580000L180.650000,266.240000C180.651220,269.883027,179.568637,273.444065,177.540000,276.470000C184.601796,279.124801,192.085675,280.479962,199.630000,280.470000L200.380000,280.470000C207.924325,280.479962,215.408204,279.124801,222.470000,276.470000C220.441363,273.444065,219.358780,269.883027,219.360000,266.240000L219.360000,241.580000Z" fill="rgb(235,182,115)" stroke="none" stroke-width="1"/><g id="s11"><path id="s13" d="M238.080000,280.750000L238,280.750000C235.942117,280.598762,233.892078,281.133249,232.170000,282.270000C225.078012,287.046731,216.720638,289.595730,208.170000,289.590000L191.830000,289.590000C183.279362,289.595730,174.921988,287.046731,167.830000,282.270000C166.093768,281.123824,164.023660,280.592215,161.950000,280.760000L161.950000,280.760000C144.246147,281.139503,130.071863,295.562225,130,313.270000L130,347.720000C130,349.929139,131.790861,351.720000,134,351.720000L266,351.720000C268.209139,351.720000,270,349.929139,270,347.720000L270,313.270000C269.933946,295.569735,255.775966,281.145628,238.080000,280.750000Z" fill="rgb(159,201,67)" stroke="none" stroke-width="1"/><line id="s15" x1="162.540000" y1="330.080000" x2="162.540000" y2="345.580000" fill="none" stroke="rgb(120,158,33)" stroke-width="6" stroke-linecap="round" stroke-miterlimit="10"/><line id="s17" x1="237.460000" y1="330.080000" x2="237.460000" y2="345.580000" fill="none" stroke="rgb(120,158,33)" stroke-width="6" stroke-linecap="round" stroke-miterlimit="10"/></g></g><g id="s19"><circle id="s21" r="19.500000" transform="translate(262.250000,208.720000)" fill="rgb(255,210,153)" stroke="none" stroke-width="1"/><circle id="s23" r="19.500000" transform="translate(137.750000,208.720000)" fill="rgb(255,210,153)" stroke="none" stroke-width="1"/><path id="s25" d="M196.430000,117.370000L203.570000,117.370000C219.461772,117.370000,234.702659,123.682982,245.939838,134.920162C257.177018,146.157341,263.490000,161.398228,263.490000,177.290000L263.490000,202.560000C263.490000,237.420213,235.230213,265.680000,200.370000,265.680000L199.620000,265.680000C182.879535,265.680000,166.824716,259.029876,154.987420,247.192580C143.150124,235.355284,136.500000,219.300465,136.500000,202.560000L136.500000,177.290000C136.500000,161.396494,142.814355,146.154092,154.053698,134.916625C165.293041,123.679158,180.536496,117.367347,196.430000,117.370000Z" fill="rgb(255,210,153)" stroke="none" stroke-width="1"/><path id="s27" d="M206.780000,206.350000C205.360857,203.986976,202.825178,202.520971,200.069226,202.470161C197.313275,202.419351,194.725281,203.790893,193.220000,206.100000" fill="none" stroke="rgb(209,158,94)" stroke-width="4" stroke-linecap="round" stroke-miterlimit="10"/><g id="s29"><ellipse id="s31" rx="6.880000" ry="7.430000" transform="translate(168.500000,201.300000)" fill="rgb(0,0,0)" stroke="none" stroke-width="1"/><ellipse id="s33" rx="6.880000" ry="7.430000" transform="translate(231.500000,201.300000)" fill="rgb(0,0,0)" stroke="none" stroke-width="1"/></g><g id="s35"><circle id="s37" r="12.580000" transform="translate(165.910000,230.330000)" fill="rgb(255,167,112)" stroke="none" stroke-width="1"/><circle id="s39" r="12.580000" transform="translate(234.090000,230.330000)" fill="rgb(255,167,112)" stroke="none" stroke-width="1"/></g><g id="s41"><path id="s43" d="M184,223.820000L184,224.110000C184,231.400000,189.790000,237.930000,197.840000,238.890000C207.580000,240.050000,215.980000,233.190000,215.980000,224.650000L215.980000,223.820000C215.850943,221.559255,213.921574,219.826396,211.660000,219.940000L188.330000,219.940000C186.064619,219.820700,184.129008,221.555151,184,223.820000Z" fill="rgb(161,33,38)" stroke="none" stroke-width="1"/><path id="s45" d="M213.620000,232.140000C205.327323,226.954102,194.809328,226.926964,186.490000,232.070000C189.100028,235.893754,193.248770,238.388112,197.850000,238.900000C203.952094,239.734851,210.016971,237.135069,213.620000,232.140000Z" fill="rgb(199,53,59)" stroke="none" stroke-width="1"/><path id="s47" d="M209.830000,221.330000L209.830000,219.940000L190.170000,219.940000L190.170000,221.330000C190.180954,223.854913,192.225087,225.899046,194.750000,225.910000L205.250000,225.910000C207.774913,225.899046,209.819046,223.854913,209.830000,221.330000Z" fill="rgb(255,255,255)" stroke="none" stroke-width="1"/></g><g id="s49"><path id="s51" d="M246.680000,170.600000C243.141792,165.090062,236.964439,161.849421,230.420000,162.070000" fill="none" stroke="rgb(201,107,33)" stroke-width="6" stroke-linecap="round" stroke-miterlimit="10"/><path id="s53" d="M153.320000,170.600000C156.858208,165.090062,163.035561,161.849421,169.580000,162.070000" fill="none" stroke="rgb(201,107,33)" stroke-width="6" stroke-linecap="round" stroke-miterlimit="10"/></g><g id="s55"><rect id="s57" width="9.230000" height="48.590000" rx="4.620000" ry="4.620000" transform="translate(132.510000,159.920000)" fill="rgb(179,90,20)" stroke="none" stroke-width="1"/><rect id="s59" width="9.230000" height="48.590000" rx="4.620000" ry="4.620000" transform="translate(258.260000,159.920000)" fill="rgb(179,90,20)" stroke="none" stroke-width="1"/><path id="s61" d="M247.740000,128.360000C245.659789,127.477239,243.437730,126.975921,241.180000,126.880000L158.820000,126.880000C153.590000,126.880000,150.160000,129.310000,146.250000,131.760000C137.644005,137.870133,132.524920,147.765539,132.510000,158.320000L132.510000,174.770000C146.619484,165.959730,156.596926,151.849342,160.200000,135.610000L211.380000,135.610000C216.518531,145.667230,226.836251,152.019860,238.130000,152.080000C240.616917,152.075679,243.093279,151.756473,245.500000,151.130000C250.630272,160.802467,258.218248,168.952644,267.500000,174.760000L267.500000,158.310000C267.459980,145.284052,259.699635,133.521788,247.740000,128.360000Z" fill="rgb(179,90,20)" stroke="none" stroke-width="1"/><path id="s63" d="M191.590000,102.090000C201.526850,93.985157,213.956995,89.559192,226.780000,89.560000L229.680000,89.560000C237.806964,89.553046,245.836221,91.331636,253.200000,94.770000C257.499242,96.765271,260.627299,100.644951,261.665433,105.269545C262.703567,109.894139,261.533910,114.738574,258.500000,118.380000C255.367027,122.166865,251.753168,125.528595,247.750000,128.380000C243.750000,132.440000,210.240000,134.510000,194.750000,134.190000C158.130000,133.440000,160.630000,129.840000,160.630000,129.840000C160.630000,129.840000,164.460000,117.520000,191.590000,102.090000Z" fill="rgb(179,90,20)" stroke="none" stroke-width="1"/><path id="s65" d="M146.250000,131.750000C136.806575,127.770784,131.441470,117.720600,133.390000,107.660000L133.390000,107.660000C133.616274,106.582777,134.348617,105.681023,135.356513,105.238581C136.364409,104.796138,137.523893,104.867424,138.470000,105.430000C144.729793,109.298345,149.473663,115.196416,151.910000,122.140000C153.910000,127.880000,153.650000,134.840000,146.250000,131.750000Z" fill="rgb(179,90,20)" stroke="none" stroke-width="1"/><path id="s67" d="M150.730000,121.890000L150.730000,120.310000C150.733737,119.759625,150.787289,119.210719,150.890000,118.670000C152.739311,97.329559,170.579626,80.934348,192,80.890000L192,80.890000C194.098596,80.921557,196.053681,81.961440,197.252889,83.683938C198.452097,85.406437,198.748775,87.600906,198.050000,89.580000C196.480739,94.034196,194.292629,98.245467,191.550000,102.090000C184.520000,112.540000,150.730000,144.540000,150.730000,121.890000Z" fill="rgb(179,90,20)" stroke="none" stroke-width="1"/></g></g></g></svg>