<svg id="s1" xmlns="http://www.w3.org/2000/svg" xmlns:xlink="http://www.w3.org/1999/xlink" viewBox="0 0 400 400"><defs><linearGradient id="s5-fill" x1="-43.530000" y1="-111.750000" x2="50.470000" y2="129.590000" spreadMethod="pad" gradientUnits="userSpaceOnUse"><stop id="s5-fill-0" offset="0%" stop-color="rgb(252,186,121)"/><stop id="s5-fill-1" offset="100%" stop-color="rgb(239,141,44)"/></linearGradient><linearGradient id="s7-fill" x1="-29.710000" y1="-76.280000" x2="34.460000" y2="88.460000" spreadMethod="pad" gradientUnits="userSpaceOnUse"><stop id="s7-fill-0" offset="9%" stop-color="rgb(219,115,30)"/><stop id="s7-fill-1" offset="100%" stop-color="rgb(212,121,31)"/></linearGradient><linearGradient id="s9-fill" x1="181.310000" y1="140.480000" x2="217.980000" y2="289.820000" spreadMethod="pad" gradientUnits="userSpaceOnUse"><stop id="s9-fill-0" offset="0%" stop-color="rgb(252,186,121)"/><stop id="s9-fill-1" offset="100%" stop-color="rgb(239,141,44)"/></linearGradient><linearGradient id="s11-fill" x1="170.130000" y1="104.350000" x2="207.630000" y2="228.850000" spreadMethod="pad" gradientUnits="userSpaceOnUse"><stop id="s11-fill-0" offset="20%" stop-color="rgb(204,101,37)"/><stop id="s11-fill-1" offset="100%" stop-color="rgb(201,95,28)"/></linearGradient></defs><g id="s3"><circle id="s5" r="118.400000" transform="translate(200,200)" fill="url(#s5-fill)" stroke="none" stroke-width="1"/><circle id="s7" r="80.820000" transform="translate(200,200)" fill="url(#s7-fill)" stroke="none" stroke-width="1"/><path id="s9" d="M219.620000,199.540000C230.370000,196.900000,234.830000,188.540000,234.830000,182.540000C234.990000,170.920000,226.440000,165.380000,217.180000,163.670000L217.180000,149.540000L203.900000,149.540000L203.900000,163L195.140000,163L195.140000,149.680000L181.850000,149.680000L181.850000,163L162,163L162,173.750000L166.670000,173.750000C169.510000,173.750000,171.340000,174.360000,171.340000,179.230000L171.340000,224.060000C171.340000,230.960000,168.500000,230.550000,166.670000,230.550000L162,230.550000L162,240.630000L181.840000,240.630000L181.840000,254L195.130000,254L195.130000,240.650000L203.890000,240.650000L203.890000,253.860000L217.180000,253.860000L217.180000,239.770000C227.920000,238.110000,233.590000,233.850000,236.860000,225.090000C241.320000,213.130000,232,200.750000,219.620000,199.540000ZM215.770000,185.680000C214.970000,195.070000,204.950000,194.470000,190.620000,194.470000L190.620000,175.530000C203.470000,175.390000,198.870000,175.390000,203.470000,175.390000C209.070000,175.400000,216.470000,177.330000,215.760000,185.680000ZM192.120000,229C191.289940,229.000018,190.615497,228.330042,190.610000,227.500000L190.610000,206.150000C204.160000,205.990000,199.310000,205.990000,204.160000,205.990000C210.080000,205.990000,217.880000,208.320000,217.160000,218.420000C216.320000,229.390000,206.420000,229.080000,192.120000,229Z" fill="url(#s9-fill)" stroke="none" stroke-width="1"/><path id="s11" d="M127.500000,212.060000C127.491400,178.052776,148.776957,147.680115,180.745668,136.083008C212.714378,124.485900,248.522729,134.146928,270.320000,160.250000C255.258555,133.585072,226.415087,117.728400,195.830831,119.299643C165.246575,120.870886,138.179920,139.599898,125.930339,167.667910C113.680757,195.735922,118.354334,228.317164,138,251.810000C131.112847,239.694457,127.494454,225.996256,127.500000,212.060000Z" fill="url(#s11-fill)" stroke="none" stroke-width="1"/></g></svg>