<svg id="edj1vnfJaKs1" xmlns="http://www.w3.org/2000/svg" xmlns:xlink="http://www.w3.org/1999/xlink" viewBox="0 0 2110 5014" shape-rendering="geometricPrecision" text-rendering="geometricPrecision"><g id="edj1vnfJaKs2"><path id="edj1vnfJaKs3" d="M1118.900000,3508.600000C355.200000,2299.200000,1099.200000,781,996.900000,4C1251.300000,904.700000,1355.900000,2073.100000,1311.400000,3508.500000L1118.900000,3508.500000Z" clip-rule="evenodd" fill="rgb(83,135,107)" fill-rule="evenodd" stroke="none" stroke-width="1"/><path id="edj1vnfJaKs4" d="M833.300000,3508.600000L875.500000,3508.600000C960.500000,2038.500000,891.700000,898.400000,669.100000,87.900000C140.700000,1510.600000,501.500000,2159.300000,833.300000,3508.600000Z" clip-rule="evenodd" fill="rgb(73,112,91)" fill-rule="evenodd" stroke="none" stroke-width="1"/><path id="edj1vnfJaKs5" d="M1575.600000,3508.600000C1750.800000,2039,1784.300000,1094.400000,1675.600000,675.800000C1499.300000,1821.600000,696.800000,1811.800000,1032.200000,3508.600000L1575.600000,3508.600000L1575.600000,3508.600000Z" clip-rule="evenodd" fill="rgb(73,112,91)" fill-rule="evenodd" stroke="none" stroke-width="1"/><path id="edj1vnfJaKs6" d="M1699.300000,2271.400000C1594.100000,2670.300000,1543.800000,3082.500000,1549,3508.600000L1866.400000,3508.600000C1862.300000,3124.100000,1806.800000,2711.900000,1699.300000,2271.400000Z" clip-rule="evenodd" fill="rgb(73,112,91)" fill-rule="evenodd" stroke="none" stroke-width="1"/><path id="edj1vnfJaKs7" d="M679.500000,3508.600000C641.300000,2297.400000,447.700000,1336.600000,97.900000,625.500000C161.500000,945.800000,53.400000,1087.400000,15.800000,1447C-58.200000,2164.400000,420.500000,2348.900000,513,3508.600000L679.500000,3508.600000Z" clip-rule="evenodd" fill="rgb(83,135,107)" fill-rule="evenodd" stroke="none" stroke-width="1"/><path id="edj1vnfJaKs8" d="M792.200000,3508.600000C928.100000,2459.300000,895.100000,1501.400000,692.800000,635.400000C400.300000,1567.900000,385.800000,2525.300000,649.400000,3508.600000L792.200000,3508.600000Z" clip-rule="evenodd" fill="rgb(92,138,92)" fill-rule="evenodd" stroke="none" stroke-width="1"/><g id="edj1vnfJaKs9"><path id="edj1vnfJaKs10" d="M1270.900000,3508.600000C1220.600000,3147.900000,1283.600000,2779.600000,1472.100000,2410.800000C1740.900000,1884.700000,1917.200000,1391,1984.300000,920.400000C2156,1526.800000,2147.900000,2092.200000,1905.100000,2590.600000C1762.300000,2883.100000,1663.400000,3183.200000,1640.900000,3508.600000L1270.900000,3508.600000L1270.900000,3508.600000Z" clip-rule="evenodd" fill="rgb(92,138,92)" fill-rule="evenodd" stroke="none" stroke-width="1"/><path id="edj1vnfJaKs11" d="M1185.400000,3508.600000C1142.600000,3117.200000,1193.500000,2763.400000,1295.800000,2432.100000C1443.200000,1956.900000,1435.700000,1440.600000,1357.700000,897.200000C1311.500000,575.200000,1336.300000,275.100000,1406.300000,-0C1120.700000,337,989.500000,770.600000,1013.200000,1301.900000C1025.300000,1578.200000,969.800000,1861.500000,810.300000,2130.900000C653.100000,2398,631.700000,2851.200000,775.600000,3508.600000L1185.400000,3508.600000L1185.400000,3508.600000Z" clip-rule="evenodd" fill="rgb(113,161,99)" fill-rule="evenodd" stroke="none" stroke-width="1"/><path id="edj1vnfJaKs12" d="M499.700000,3508.600000C475.400000,3272.700000,502,3021.800000,571.400000,2753.600000C665.100000,2391.700000,598,1987.600000,385.200000,1545.300000C421.600000,1840.100000,340.700000,2100.300000,203.100000,2359.900000C39.500000,2667.400000,95,3058.200000,321.700000,3508.600000L499.700000,3508.600000L499.700000,3508.600000Z" clip-rule="evenodd" fill="rgb(113,161,99)" fill-rule="evenodd" stroke="none" stroke-width="1"/></g></g><g id="edj1vnfJaKs13"><path id="edj1vnfJaKs14" d="M1993.600000,3508.600000L116.400000,3508.600000C53.400000,3508.600000,-8.500000,3561.200000,1.400000,3624.200000L97.400000,4261.300000L2012.700000,4261.300000L2109.200000,3624.200000C2118.400000,3561.200000,2057.200000,3508.600000,1993.600000,3508.600000L1993.600000,3508.600000Z" clip-rule="evenodd" fill="rgb(144,187,178)" fill-rule="evenodd" stroke="none" stroke-width="1"/><path id="edj1vnfJaKs15" d="M1993.600000,5014L116.400000,5014C53.400000,5014,-8.500000,4961.400000,1.400000,4899L97.400000,4261.300000L2012.700000,4261.300000L2109.200000,4899C2118.400000,4961.400000,2057.200000,5014,1993.600000,5014L1993.600000,5014Z" clip-rule="evenodd" fill="rgb(181,216,210)" fill-rule="evenodd" stroke="none" stroke-width="1"/><path id="edj1vnfJaKs16" d="M37.800000,4657.300000L97.300000,4261.300000L2012.600000,4261.300000L2059.400000,4572.900000C2009.100000,4579.300000,1959.400000,4592.600000,1911.400000,4613.900000C1718.900000,4701.800000,1644.300000,4557.800000,1424.600000,4616.200000C1268.500000,4657.200000,783.500000,4779.800000,655.700000,4665.300000C630.800000,4643.300000,272.400000,4563,183.400000,4604C136.100000,4625.500000,86.900000,4643.400000,37.800000,4657.300000L37.800000,4657.300000Z" clip-rule="evenodd" fill="rgb(171,204,199)" fill-rule="evenodd" stroke="none" stroke-width="1"/><path id="edj1vnfJaKs17" d="M75.400000,4115.600000L97.400000,4261.300000L2012.700000,4261.300000L2026,4171.700000C1969.300000,4163,1891.900000,4128.300000,1760.100000,4044.500000C1473.400000,3862.400000,1415,4297.100000,1022.400000,4089C685.400000,3910.400000,820.600000,4119.100000,447.200000,4115.600000C357.500000,4115,205.500000,4106.400000,75.400000,4115.600000L75.400000,4115.600000Z" clip-rule="evenodd" fill="rgb(214,97,103)" fill-rule="evenodd" stroke="none" stroke-width="1"/><path id="edj1vnfJaKs18" d="M71.900000,4431.800000L97.300000,4261.300000L2012.600000,4261.300000L2053.100000,4529.500000C1986,4515,1920.100000,4493.700000,1856.500000,4464.800000C1776.100000,4428.400000,1452.400000,4500.600000,1429.900000,4520.900000C1314.300000,4623.800000,876.100000,4513.400000,735,4475.800000C536.100000,4423.200000,469.100000,4553.300000,295.100000,4474.100000C224,4441.700000,148.800000,4430.700000,71.900000,4431.800000L71.900000,4431.800000Z" clip-rule="evenodd" fill="rgb(232,160,163)" fill-rule="evenodd" stroke="none" stroke-width="1"/></g></svg>