<svg id="eZ1U4KXhYk91" xmlns="http://www.w3.org/2000/svg" xmlns:xlink="http://www.w3.org/1999/xlink" viewBox="0 0 400 400" shape-rendering="geometricPrecision" text-rendering="geometricPrecision"><g id="eZ1U4KXhYk92"><path id="eZ1U4KXhYk93" d="M171.400000,125.700000C200.100000,183.100000,209.600000,245.700000,204.800000,292.700000" fill="none" stroke="rgb(94,150,83)" stroke-width="7" stroke-miterlimit="10"/><path id="eZ1U4KXhYk94" d="M120.200000,25C115.500000,37.400000,112.200000,49.100000,110.300000,60.200000L123.900000,69.100000L109.400000,66.500000C107,85.300000,108.600000,102.100000,114.400000,117L127.300000,115.100000L117.800000,124.500000C124.800000,138.500000,135.800000,150.700000,150.800000,161.100000L162.700000,161.400000L157.600000,165.500000C168.200000,172,180.600000,177.600000,194.600000,182.500000C203.600000,155.100000,206.800000,131,204.300000,110.200000L194.200000,121L202.400000,99.200000C197.500000,78.300000,186,61.100000,167.900000,47.700000L161.300000,64.100000L159.800000,42.200000C148.500000,35.200000,135.400000,29.500000,120.200000,25L120.200000,25Z" fill="rgb(180,211,159)" stroke="none" stroke-width="1"/><path id="eZ1U4KXhYk95" d="M164.300000,202.900000C188,231.500000,195.600000,254.500000,182.900000,292.700000" fill="none" stroke="rgb(94,150,83)" stroke-width="5" stroke-miterlimit="10"/><path id="eZ1U4KXhYk96" d="M227.500000,185.200000C200.300000,225.700000,193.100000,266.700000,195.100000,292.700000" fill="none" stroke="rgb(94,150,83)" stroke-width="3" stroke-miterlimit="10"/><path id="eZ1U4KXhYk97" d="M291.800000,92.300000C294.300000,103.400000,295.700000,113.900000,296.100000,123.600000L283.400000,129.600000L296.200000,129.100000C296,145.400000,292.600000,159.700000,285.800000,171.800000L275,168.600000L282.100000,177.800000C274.400000,189,263.400000,198.100000,249.400000,205.200000L239.200000,204L243.100000,208.100000C233.200000,212.400000,221.900000,215.700000,209.300000,218.200000C204.900000,193.600000,205,172.600000,209.700000,155.100000L217.100000,165.500000L212.700000,145.900000C219.400000,128.600000,231.300000,115.200000,248.400000,105.900000L252.100000,120.700000L256.100000,102.200000C266.300000,97.700000,278.200000,94.400000,291.800000,92.300000Z" fill="rgb(209,229,196)" stroke="none" stroke-width="1"/><path id="eZ1U4KXhYk98" d="M106.100000,126C104.400000,135.800000,103.600000,144.900000,103.700000,153.300000L115,157.900000L104,158C104.900000,172.200000,108.400000,184.400000,114.800000,194.600000L124,191.400000L118.300000,199.700000C125.500000,209.100000,135.300000,216.500000,147.800000,222L156.600000,220.600000L153.400000,224.300000C162.200000,227.500000,172.100000,230,183.100000,231.600000C185.800000,210.200000,184.800000,191.900000,180,177L174,186.400000L177,169C170.400000,154.300000,159.600000,143.200000,144.300000,135.900000L141.700000,148.900000L137.500000,133C128.400000,129.500000,118,127.200000,106.100000,126L106.100000,126Z" fill="rgb(134,180,116)" stroke="none" stroke-width="1"/></g><g id="eZ1U4KXhYk99"><path id="eZ1U4KXhYk910" d="M148.400000,288.100000L244.100000,288.100000C245.300000,288.100000,246.300000,289.100000,246.300000,290.300000L246.300000,300C246.300000,301.200000,245.300000,302.200000,244.100000,302.200000L148.400000,302.200000C147.200000,302.200000,146.200000,301.200000,146.200000,300L146.200000,290.300000C146.200000,289,147.200000,288.100000,148.400000,288.100000Z" fill="rgb(249,186,105)" stroke="none" stroke-width="1"/><polygon id="eZ1U4KXhYk911" points="238.100000,302.200000 154.500000,302.200000 158.500000,375 234.100000,375" fill="rgb(239,166,79)" stroke="none" stroke-width="1"/><polygon id="eZ1U4KXhYk912" points="238.100000,302.200000 154.500000,302.200000 154.800000,308 237.700000,308" fill="rgb(233,137,54)" stroke="none" stroke-width="1"/></g></svg>