<svg id="s1" xmlns="http://www.w3.org/2000/svg" xmlns:xlink="http://www.w3.org/1999/xlink" viewBox="0 0 400 400"><g id="s3"><g id="s5"><path id="s7" d="M114.780000,202.220000C106.700000,204.390000,102.100000,217.880000,109.780000,232.940000C115.541833,244.158544,119.298364,256.297891,120.880000,268.810000C121.470000,274.950000,143.070000,275.350000,144.460000,266.040000C145.850000,256.730000,142.680000,230.570000,136.140000,217.490000C129.600000,204.410000,122.900000,200,114.780000,202.220000Z" fill="rgb(196,74,38)" stroke="none" stroke-width="1"/><path id="s9" d="M120.130000,261.870000C122.510000,274.950000,123.700000,310.420000,121.910000,321.320000C121.510000,324.490000,135.580000,329.640000,138.560000,320.320000C141.540000,311,147.280000,277.320000,144.700000,257.320000C142.120000,248,118.940000,248,120.130000,261.870000Z" fill="rgb(196,74,38)" stroke="none" stroke-width="1"/><path id="s11" d="M122.730000,307.190000C122.748522,311.912409,122.474664,316.631435,121.910000,321.320000C121.510000,324.490000,135.580000,329.640000,138.560000,320.320000C139.560000,317.190000,140.870000,310.380000,142.070000,301.950000C133.910000,306.360000,124.740000,309.680000,122.730000,307.190000Z" fill="rgb(41,16,21)" stroke="none" stroke-width="1"/><path id="s13" d="M137,327.860000C137.710000,324.940000,139.800000,316.170000,138.390000,313.100000C136.710000,309.430000,124.390000,308.730000,122.820000,316.950000C121.540000,323.580000,121.940000,323.110000,116.820000,327.270000C111.700000,331.430000,110.480000,333.220000,115.230000,334.800000C119.980000,336.380000,135.190000,335.190000,137,327.860000Z" fill="rgb(41,16,21)" stroke="none" stroke-width="1"/></g><g id="s15"><path id="s17" d="M289.660000,200.830000C281.590000,184.990000,262.020000,178.830000,240.320000,200.530000C218.620000,222.230000,221.590000,229.960000,229.920000,247.530000C238.250000,265.100000,244.030000,279.470000,253.700000,279.930000C263.060000,280.380000,269.900000,278.150000,267.080000,261.800000C264.100000,244.600000,305.410000,231.750000,289.660000,200.830000Z" fill="rgb(196,74,38)" stroke="none" stroke-width="1"/><path id="s19" d="M243.070000,272.200000C248.540000,279.480000,256.440000,292.510000,259.290000,300.350000C262.140000,308.190000,278.740000,306.210000,274.890000,294.770000C271.040000,283.330000,269.430000,272.420000,267.460000,265.170000C264.380000,253.860000,232.610000,252.900000,243.070000,272.200000Z" fill="rgb(196,74,38)" stroke="none" stroke-width="1"/><path id="s21" d="M259.240000,296.780000C258.600000,305.420000,257.790000,318.570000,257.470000,324.140000C256.850000,334.950000,270.530000,336.140000,273.730000,329.460000C275.020000,326.770000,275.890000,307.780000,275.730000,298.320000C275.670000,290.570000,259.070000,290.410000,259.240000,296.780000Z" fill="rgb(41,16,21)" stroke="none" stroke-width="1"/><path id="s23" d="M257.850000,319.930000C257.450000,324.240000,247.150000,325.930000,246.110000,334.050000C245.560000,338.310000,252.920000,338.280000,264.790000,337.450000C276.660000,336.620000,275.710000,329.860000,274.990000,320.320000C274.490000,313.530000,258.130000,312.480000,257.850000,319.930000Z" fill="rgb(41,16,21)" stroke="none" stroke-width="1"/><path id="s25" d="M274.890000,294.770000C272.670262,287.839440,270.847306,280.788007,269.430000,273.650000C263.540000,278.650000,254.840000,279.650000,247.710000,278.880000C252.320000,285.880000,257.180000,294.560000,259.290000,300.350000C262.140000,308.180000,278.740000,306.210000,274.890000,294.770000Z" fill="rgb(41,16,21)" stroke="none" stroke-width="1"/></g><g id="s27"><path id="s29" d="M293.330000,176.150000C343.330000,173.150000,334.230000,247.760000,371.400000,259.400000C399.240000,268.120000,394.290000,308.150000,357.730000,302.800000C294.930000,293.610000,332.830000,186.290000,286.730000,188.060000C268.710000,187.710000,273.360000,175.470000,293.330000,176.150000Z" fill="rgb(196,74,38)" stroke="none" stroke-width="1"/><path id="s31" d="M371.400000,259.390000C368.490498,258.476390,365.735986,257.127792,363.230000,255.390000C359.960000,260.820000,360.390000,275.710000,343.160000,276.230000C336.040000,276.450000,328.460000,273.980000,324.580000,276.480000C330.430000,289.920000,340.120000,300.210000,357.720000,302.780000C394.290000,308.140000,399.250000,268.110000,371.400000,259.390000Z" fill="rgb(77,33,42)" stroke="none" stroke-width="1"/></g><path id="s33" d="M102.240000,183.440000C91.870000,197.510000,94.070000,241.850000,126.760000,251.960000C159.450000,262.070000,228.760000,233.830000,262.010000,240.370000C295.260000,246.910000,310.460000,226.990000,308.380000,196.670000C306.300000,166.350000,281.380000,159.220000,246.850000,159.220000C212.320000,159.220000,171.350000,166.800000,151.730000,166.220000C141.130000,165.880000,119.780000,159.660000,102.240000,183.440000Z" fill="rgb(219,91,52)" stroke="none" stroke-width="1"/><g id="s35"><path id="s37" d="M127.560000,204.300000C119.480000,206.470000,114.880000,219.960000,122.560000,235.020000C128.321833,246.238544,132.078364,258.377891,133.660000,270.890000C134.250000,277.030000,155.850000,277.430000,157.240000,268.120000C158.630000,258.810000,155.460000,232.650000,148.920000,219.570000C142.380000,206.490000,135.680000,202.120000,127.560000,204.300000Z" fill="rgb(219,91,52)" stroke="none" stroke-width="1"/><path id="s39" d="M132.910000,264C135.290000,277.080000,136.480000,312.550000,134.690000,323.450000C134.290000,326.620000,148.360000,331.770000,151.340000,322.450000C154.320000,313.130000,160.060000,279.450000,157.480000,259.450000C154.900000,250.080000,131.720000,250.080000,132.910000,264Z" fill="rgb(219,91,52)" stroke="none" stroke-width="1"/><path id="s41" d="M135.510000,309.270000C135.528522,313.992409,135.254664,318.711435,134.690000,323.400000C134.290000,326.570000,148.360000,331.720000,151.340000,322.400000C152.340000,319.270000,153.650000,312.460000,154.850000,304.030000C146.690000,308.440000,137.520000,311.760000,135.510000,309.270000Z" fill="rgb(77,33,42)" stroke="none" stroke-width="1"/><path id="s43" d="M149.750000,329.940000C150.460000,327.020000,152.550000,318.250000,151.140000,315.180000C149.460000,311.510000,137.140000,310.810000,135.570000,319.030000C134.290000,325.660000,134.690000,325.190000,129.570000,329.350000C124.450000,333.510000,123.230000,335.300000,127.980000,336.880000C132.730000,338.460000,148,337.270000,149.750000,329.940000Z" fill="rgb(77,33,42)" stroke="none" stroke-width="1"/></g><g id="s45"><path id="s47" d="M55.230000,165.860000C64.350000,176.960000,71.880000,199.150000,83.770000,217.780000C95.660000,236.410000,115.080000,250.280000,133.310000,254.640000C151.540000,259,174.530000,241.560000,174.130000,214.210000C173.730000,186.860000,167,168.630000,147.770000,166.060000C129.550000,163.620000,117.250000,152.780000,105.360000,132.370000C97.780000,121.470000,75.190000,120.680000,64.490000,128.010000C53.790000,135.340000,43.530000,153.370000,55.230000,165.860000Z" fill="rgb(219,91,52)" stroke="none" stroke-width="1"/><path id="s49" d="M83.760000,217.780000C94.450000,234.530000,111.230000,247.410000,127.760000,253.010000C127.470184,252.635818,127.134182,252.299816,126.760000,252.010000C115.760000,241.900000,100.600000,223.180000,91.090000,201.180000C81.580000,179.180000,92.280000,165.460000,89,158C85.720000,150.540000,65.220000,151.910000,52.740000,157.410000C52.100000,157.690000,51.440000,157.950000,50.740000,158.190000L50.740000,158.190000L50.740000,158.290000C51.603146,161.098293,53.109767,163.666398,55.140000,165.790000C64.340000,177,71.870000,199.150000,83.760000,217.780000Z" fill="rgb(242,205,136)" stroke="none" stroke-width="1"/></g><g id="s51"><path id="s53" d="M302.740000,200.830000C294.670000,184.990000,275.100000,178.830000,253.400000,200.530000C231.700000,222.230000,234.670000,230,243,247.500000C251.330000,265,257.110000,279.440000,266.780000,279.900000C276.140000,280.350000,282.980000,278.120000,280.160000,261.770000C277.180000,244.600000,318.490000,231.750000,302.740000,200.830000Z" fill="rgb(219,91,52)" stroke="none" stroke-width="1"/><path id="s55" d="M256.150000,272.200000C261.620000,279.480000,269.520000,292.510000,272.370000,300.350000C275.220000,308.190000,291.820000,306.210000,287.970000,294.770000C284.120000,283.330000,282.510000,272.420000,280.540000,265.170000C277.460000,253.860000,245.690000,252.900000,256.150000,272.200000Z" fill="rgb(219,91,52)" stroke="none" stroke-width="1"/><path id="s57" d="M272.310000,296.780000C271.670000,305.420000,270.860000,318.570000,270.540000,324.140000C269.920000,334.950000,283.600000,336.140000,286.800000,329.460000C288.090000,326.770000,288.960000,307.780000,288.800000,298.320000C288.750000,290.570000,272.140000,290.410000,272.310000,296.780000Z" fill="rgb(77,33,42)" stroke="none" stroke-width="1"/><path id="s59" d="M270.930000,319.930000C270.530000,324.240000,260.230000,325.930000,259.190000,334.050000C258.640000,338.310000,266,338.280000,277.870000,337.450000C289.740000,336.620000,288.790000,329.860000,288.070000,320.320000C287.560000,313.530000,271.210000,312.480000,270.930000,319.930000Z" fill="rgb(77,33,42)" stroke="none" stroke-width="1"/><path id="s61" d="M288,294.770000C285.780262,287.839440,283.957306,280.788007,282.540000,273.650000C276.650000,278.650000,267.950000,279.650000,260.820000,278.880000C265.430000,285.880000,270.290000,294.560000,272.400000,300.350000C275.220000,308.180000,291.820000,306.210000,288,294.770000Z" fill="rgb(77,33,42)" stroke="none" stroke-width="1"/></g><g id="s63"><g id="s65"><path id="s67" d="M64.340000,133.750000C58.790000,130.380000,55.420000,110.560000,62.340000,100.260000C64.700000,97.930000,75.820000,119.680000,80.970000,123.840000C86.120000,128,74.840000,141.480000,64.340000,133.750000Z" fill="rgb(196,74,38)" stroke="none" stroke-width="1"/><path id="s69" d="M64.340000,133.750000C58.790000,130.380000,55.420000,110.560000,62.340000,100.260000C64.700000,97.930000,75.820000,119.680000,80.970000,123.840000C86.120000,128,74.840000,141.480000,64.340000,133.750000Z" fill="rgb(196,74,38)" stroke="none" stroke-width="1"/><path id="s71" d="M62.280000,99.940000C60.153597,103.350373,58.865101,107.215860,58.520000,111.220000C61.090000,112.220000,62.570000,105.700000,64.880000,106.620000C66.970000,107.460000,69.290000,110.890000,71.180000,110.170000C67.200000,104.090000,63.530000,98.700000,62.280000,99.940000Z" fill="rgb(54,23,30)" stroke="none" stroke-width="1"/></g><path id="s73" d="M22.130000,158C35.510000,152.650000,47.690000,136.600000,60.770000,125.600000C73.850000,114.600000,96.770000,116.680000,106.250000,133.600000C115.730000,150.520000,102.580000,172.440000,83.860000,173.330000C65.140000,174.220000,58.400000,169.620000,47.100000,171.700000C35.800000,173.780000,22.730000,169,20.350000,166.950000C17.970000,164.900000,11.730000,161.300000,22.130000,158Z" fill="rgb(219,91,52)" stroke="none" stroke-width="1"/><path id="s75" d="M83.370000,173.490000C84.901112,173.384789,86.422099,173.164162,87.920000,172.830000C89,166.380000,90.550000,161.520000,89,158C85.730000,150.570000,65.220000,151.910000,52.740000,157.410000C44.350000,161.100000,34.610000,164.840000,22.120000,158C11.720000,161.270000,17.960000,164.840000,20.340000,166.920000C22.720000,169,33.340000,173.980000,44.710000,172.370000C58.690000,170.410000,71.380000,174.480000,83.370000,173.490000Z" fill="rgb(242,205,136)" stroke="none" stroke-width="1"/><path id="s77" d="M21.670000,167.870000C24.252816,164.962297,25.135597,160.919691,24,157.200000C9.550000,161.100000,18.070000,165.810000,21.670000,167.870000Z" fill="rgb(54,23,30)" stroke="none" stroke-width="1"/><ellipse id="s79" rx="1.880000" ry="3.860000" transform="translate(55.920000,143.660000)" fill="rgb(54,23,30)" stroke="none" stroke-width="1"/><g id="s81"><path id="s83" d="M70.290000,128.800000C68.900000,115.920000,88.720000,101.450000,95.660000,102.440000C101.610000,106.010000,100.420000,131.770000,86.740000,134.740000C73.060000,137.710000,70.680000,131.770000,70.290000,128.800000Z" fill="rgb(219,91,52)" stroke="none" stroke-width="1"/><path id="s85" d="M95.650000,102.440000C92.480000,101.990000,86.650000,104.760000,81.350000,109.130000C80.200000,110.890000,85.540000,109.850000,87.480000,109.430000C93.280000,108.170000,95.310000,111.210000,95.850000,115.380000C96.210000,118.150000,97.610000,119.440000,98.600000,118.510000C99.770000,111.350000,98.580000,104.200000,95.650000,102.440000Z" fill="rgb(54,23,30)" stroke="none" stroke-width="1"/></g></g></g></svg>