<svg id="s1" xmlns="http://www.w3.org/2000/svg" xmlns:xlink="http://www.w3.org/1999/xlink" viewBox="0 0 400 400"><defs><linearGradient id="s5-fill" x1="240.990000" y1="321.570000" x2="148.990000" y2="71.570000" spreadMethod="pad" gradientUnits="userSpaceOnUse"><stop id="s5-fill-0" offset="0%" stop-color="rgb(62,122,59)"/><stop id="s5-fill-1" offset="71%" stop-color="rgb(118,188,119)"/></linearGradient><linearGradient id="s7-fill" x1="139.420000" y1="171.340000" x2="265.380000" y2="90.180000" spreadMethod="pad" gradientUnits="userSpaceOnUse"><stop id="s7-fill-0" offset="7%" stop-color="rgb(255,221,133)"/><stop id="s7-fill-1" offset="33%" stop-color="rgb(255,213,97)"/><stop id="s7-fill-2" offset="82%" stop-color="rgb(255,195,97)"/></linearGradient><linearGradient id="s9-fill" x1="223.750000" y1="79.930000" x2="266.080000" y2="222.660000" spreadMethod="pad" gradientUnits="userSpaceOnUse"><stop id="s9-fill-0" offset="4%" stop-color="rgb(196,214,116)"/><stop id="s9-fill-1" offset="97%" stop-color="rgb(163,198,83)"/></linearGradient></defs><g id="s3"><path id="s5" d="M119.540000,119.540000C83.121323,155.957156,75.703564,212.295198,101.454737,256.897959C127.205911,301.500721,179.704789,323.246202,229.452418,309.915686C279.200048,296.585170,313.791521,251.502711,313.790000,200L200,200Z" fill="url(#s5-fill)" stroke="none" stroke-width="1"/><path id="s7" d="M200,86.210000C169.813474,86.171198,140.856582,98.166390,119.540000,119.540000L200,200Z" fill="url(#s7-fill)" stroke="none" stroke-width="1"/><path id="s9" d="M200,86.210000L200,200L313.790000,200C313.790000,169.821017,301.801446,140.878085,280.461682,119.538321C259.121918,98.198556,230.178986,86.210000,200,86.210000Z" fill="url(#s9-fill)" stroke="none" stroke-width="1"/></g></svg>