<svg id="s1" xmlns="http://www.w3.org/2000/svg" xmlns:xlink="http://www.w3.org/1999/xlink" viewBox="0 0 400 400"><defs><linearGradient id="s7-fill" x1="91.540000" y1="10.900000" x2="125.810000" y2="174.110000" spreadMethod="pad" gradientUnits="userSpaceOnUse"><stop id="s7-fill-0" offset="13%" stop-color="rgb(255,146,133)"/><stop id="s7-fill-1" offset="100%" stop-color="rgb(255,106,89)"/></linearGradient><linearGradient id="s9-fill" x1="105.700000" y1="-57.050000" x2="140.810000" y2="100.640000" spreadMethod="pad" gradientUnits="userSpaceOnUse"><stop id="s9-fill-0" offset="12%" stop-color="rgb(255,146,133)"/><stop id="s9-fill-1" offset="100%" stop-color="rgb(245,88,69)"/></linearGradient><linearGradient id="s11-fill" x1="-34.330000" y1="20.780000" x2="85.490000" y2="185.750000" spreadMethod="pad" gradientUnits="userSpaceOnUse"><stop id="s11-fill-0" offset="24%" stop-color="rgb(255,219,163)"/><stop id="s11-fill-1" offset="99%" stop-color="rgb(235,182,118)"/></linearGradient><linearGradient id="s15-fill" x1="127.990000" y1="106.930000" x2="164.950000" y2="164.220000" spreadMethod="pad" gradientUnits="userSpaceOnUse"><stop id="s15-fill-0" offset="24%" stop-color="rgb(255,219,163)"/><stop id="s15-fill-1" offset="99%" stop-color="rgb(235,182,118)"/></linearGradient><linearGradient id="s17-fill" x1="227.850000" y1="106.120000" x2="253.730000" y2="144.930000" spreadMethod="pad" gradientUnits="userSpaceOnUse"><stop id="s17-fill-0" offset="24%" stop-color="rgb(255,219,163)"/><stop id="s17-fill-1" offset="99%" stop-color="rgb(235,182,118)"/></linearGradient><linearGradient id="s19-fill" x1="18.210000" y1="-4.920000" x2="18.210000" y2="37.590000" spreadMethod="pad" gradientUnits="userSpaceOnUse"><stop id="s19-fill-0" offset="3%" stop-color="rgb(243,198,137)"/><stop id="s19-fill-1" offset="39%" stop-color="rgb(255,219,163)"/><stop id="s19-fill-2" offset="74%" stop-color="rgb(243,198,137)"/><stop id="s19-fill-3" offset="99%" stop-color="rgb(235,182,118)"/></linearGradient></defs><g id="s3"><g id="s5"><rect id="s7" width="214.720000" height="172.480000" rx="6.920000" ry="6.920000" transform="translate(92.640000,174.040000)" fill="url(#s7-fill)" stroke="none" stroke-width="1"/><rect id="s9" width="248.820000" height="53.970000" rx="6.920000" ry="6.920000" transform="translate(75.590000,159.960000)" fill="url(#s9-fill)" stroke="none" stroke-width="1"/></g><rect id="s11" width="36.410000" height="186.250000" rx="0" ry="0" transform="translate(181.790000,160.280000)" fill="url(#s11-fill)" stroke="none" stroke-width="1"/><g id="s13"><path id="s15" d="M182.470000,160.280000L130.070000,160.280000C128.025181,160.280000,126.064112,159.467699,124.618207,158.021793C123.172301,156.575888,122.360000,154.614819,122.360000,152.570000L122.360000,113.500000C122.362031,110.749591,123.829082,108.208541,126.209970,106.831542C128.590858,105.454544,131.524994,105.450145,133.910000,106.820000L182.460000,134.750000Z" fill="url(#s15-fill)" stroke="none" stroke-width="1"/><path id="s17" d="M217.530000,160.280000L269.930000,160.280000C274.188115,160.280000,277.640000,156.828115,277.640000,152.570000L277.640000,113.500000C277.637969,110.749591,276.170918,108.208541,273.790030,106.831542C271.409142,105.454544,268.475006,105.450145,266.090000,106.820000L217.540000,134.750000Z" fill="url(#s17-fill)" stroke="none" stroke-width="1"/><rect id="s19" width="36.410000" height="25.530000" rx="0" ry="0" transform="translate(181.790000,134.750000)" fill="url(#s19-fill)" stroke="none" stroke-width="1"/></g></g></svg>