<svg id="s1" xmlns="http://www.w3.org/2000/svg" xmlns:xlink="http://www.w3.org/1999/xlink" viewBox="0 0 400 400"><g id="s3"><g id="s5"><path id="s7" d="M275.520000,163.140000L275.520000,124C275.404681,85.327184,244.082816,54.005319,205.410000,53.890000L205.410000,53.890000C195.683084,53.886819,186.188071,56.859899,178.200000,62.410000L178.200000,62.410000C149.395308,62.426149,126.013029,85.705658,125.870000,114.510000L125.870000,139.100000C125.881094,147.471598,129.728436,155.376337,136.310000,160.550000Z" fill="rgb(237,222,209)" stroke="none" stroke-width="1"/><rect id="s9" width="124.500000" height="61.860000" rx="30.440000" ry="30.440000" transform="translate(138.450000,179.440000)" fill="rgb(237,222,209)" stroke="none" stroke-width="1"/></g><g id="s11"><path id="s13" d="M304.820000,339.340000L304.820000,313.680000C304.704687,282.957175,279.812916,258.087736,249.090000,258L245.570000,258C234.524305,258,225.570000,249.045695,225.570000,238L225.570000,217.900000L174.380000,217.900000L174.380000,238C174.380000,249.045695,165.425695,258,154.380000,258L150.860000,258C120.117647,258.087883,95.217883,282.987647,95.130000,313.730000L95.130000,339.380000C95.130000,344.013669,98.886331,347.770000,103.520000,347.770000L296.430000,347.770000C298.662114,347.770025,300.802228,346.880593,302.376813,345.298501C303.951398,343.716409,304.830642,341.572089,304.820000,339.340000Z" fill="rgb(255,193,145)" stroke="none" stroke-width="1"/><path id="s15" d="M174.380000,217.900000L174.380000,238C174.357218,242.664180,172.685266,247.169949,169.660000,250.720000C178.863861,255.732790,189.179592,258.352985,199.660000,258.340000L200.410000,258.340000C210.890355,258.352558,221.205981,255.732389,230.410000,250.720000C227.359437,247.179810,225.662303,242.673017,225.620000,238L225.620000,217.900000Z" fill="rgb(245,172,130)" stroke="none" stroke-width="1"/><g id="s17"><path id="s19" d="M260.650000,259.170000C251.763085,284.477010,227.901908,301.444602,201.080000,301.530000L200.330000,301.530000C173.409875,301.445479,149.483224,284.356732,140.670000,258.920000C114.351679,263.925327,95.278682,286.890087,95.190000,313.680000L95.190000,339.330000C95.190000,343.963669,98.946331,347.720000,103.580000,347.720000L296.430000,347.720000C301.063669,347.720000,304.820000,343.963669,304.820000,339.330000L304.820000,313.680000C304.736424,287.387629,286.353962,264.701915,260.650000,259.170000Z" fill="rgb(76,57,87)" stroke="none" stroke-width="1"/><path id="s21" d="M176.800000,304.450000C184.347043,307.152414,192.303711,308.532652,200.320000,308.530000L201.070000,308.530000C209.503090,308.526774,217.865473,306.991863,225.750000,304" fill="none" stroke="rgb(113,84,128)" stroke-width="4" stroke-linecap="round" stroke-miterlimit="10"/><path id="s23" d="M171.890000,316.580000C171.887614,294.171496,163.525799,272.569843,148.440000,256C147.346001,254.778694,145.729787,254.160511,144.100000,254.340000C113.964173,257.825137,91.212651,283.323348,91.170000,313.660000L91.170000,339.310000C91.170000,346.152808,96.717192,351.700000,103.560000,351.700000L166.880000,351.700000C169.641424,351.700000,171.880000,349.461424,171.880000,346.700000Z" fill="rgb(135,101,153)" stroke="none" stroke-width="1"/><path id="s25" d="M257.250000,254.520000C255.584925,254.298901,253.918430,254.916815,252.800000,256.170000C237.805796,272.721479,229.501096,294.256670,229.500000,316.590000L229.500000,346.730000C229.500000,349.491424,231.738576,351.730000,234.500000,351.730000L296.430000,351.730000C303.272808,351.730000,308.820000,346.182808,308.820000,339.340000L308.820000,313.680000C308.780277,283.862018,286.783676,258.627989,257.250000,254.520000Z" fill="rgb(135,101,153)" stroke="none" stroke-width="1"/><line id="s27" x1="141.120000" y1="319.760000" x2="141.120000" y2="339.160000" fill="none" stroke="rgb(113,84,128)" stroke-width="8" stroke-linecap="round" stroke-miterlimit="10"/><line id="s29" x1="258.880000" y1="319.760000" x2="258.880000" y2="339.160000" fill="none" stroke="rgb(113,84,128)" stroke-width="8" stroke-linecap="round" stroke-miterlimit="10"/></g><g id="s31"><circle id="s33" r="7.390000" transform="translate(163.950000,255.790000)" fill="rgb(255,241,227)" stroke="none" stroke-width="1"/><circle id="s35" r="7.390000" transform="translate(174.690000,264.980000)" fill="rgb(255,241,227)" stroke="none" stroke-width="1"/><circle id="s37" r="7.390000" transform="translate(186.850000,271.470000)" fill="rgb(255,241,227)" stroke="none" stroke-width="1"/><circle id="s39" r="7.390000" transform="translate(236.050000,255.790000)" fill="rgb(255,241,227)" stroke="none" stroke-width="1"/><circle id="s41" r="7.390000" transform="translate(225.310000,264.980000)" fill="rgb(255,241,227)" stroke="none" stroke-width="1"/><circle id="s43" r="7.390000" transform="translate(213.150000,271.470000)" fill="rgb(255,241,227)" stroke="none" stroke-width="1"/><circle id="s45" r="7.390000" transform="translate(200,273.280000)" fill="rgb(255,241,227)" stroke="none" stroke-width="1"/></g></g><g id="s47"><circle id="s49" r="19.500000" transform="translate(262.250000,169.640000)" fill="rgb(255,193,145)" stroke="none" stroke-width="1"/><circle id="s51" r="19.500000" transform="translate(137.750000,169.640000)" fill="rgb(255,193,145)" stroke="none" stroke-width="1"/><path id="s53" d="M220.620000,79.580000C213.895088,78.888816,207.100113,79.642298,200.690000,81.790000C194.276749,79.640874,187.478210,78.887375,180.750000,79.580000C156.170000,82.090000,137.750000,103.330000,137.750000,128.040000L137.750000,182.600000C137.822619,205.761176,154.404281,225.575925,177.190000,229.730000C177.935603,229.874068,178.627383,230.219958,179.190000,230.730000C185.008958,235.968267,192.560586,238.867808,200.390000,238.870000L201,238.870000C208.829238,238.866860,216.380538,235.967446,222.200000,230.730000C222.762617,230.219958,223.454397,229.874068,224.200000,229.730000C246.985719,225.575925,263.567381,205.761176,263.640000,182.600000L263.640000,128C263.640000,103.320000,245.210000,82.080000,220.620000,79.580000Z" fill="rgb(255,193,145)" stroke="none" stroke-width="1"/><path id="s55" d="M190.130000,196.210000C192.317309,199.924044,196.276374,202.235788,200.585912,202.315330C204.895450,202.394872,208.937126,200.230798,211.260000,196.600000" fill="none" stroke="rgb(222,159,111)" stroke-width="4" stroke-linecap="round" stroke-miterlimit="10"/><path id="s57" d="M207.480000,179.180000C206.060857,176.816976,203.525178,175.350971,200.769226,175.300161C198.013275,175.249351,195.425281,176.620893,193.920000,178.930000" fill="none" stroke="rgb(222,159,111)" stroke-width="4" stroke-linecap="round" stroke-miterlimit="10"/><g id="s59"><ellipse id="s61" rx="6.880000" ry="7.430000" transform="translate(168.500000,164.490000)" fill="rgb(0,0,0)" stroke="none" stroke-width="1"/><ellipse id="s63" rx="6.880000" ry="7.430000" transform="translate(231.500000,164.490000)" fill="rgb(0,0,0)" stroke="none" stroke-width="1"/></g><circle id="s65" r="4.500000" transform="translate(271.020000,179.440000)" fill="rgb(135,101,153)" stroke="none" stroke-width="1"/><circle id="s67" r="4.500000" transform="translate(131.370000,179.440000)" fill="rgb(135,101,153)" stroke="none" stroke-width="1"/><g id="s69"><path id="s71" d="M266.520000,134.480000C264.600000,110.770000,253.520000,70.640000,200.700000,70.640000C151.780000,70.640000,138.050000,96.250000,135.840000,133.530000C133.891708,134.110829,132.552074,135.897008,132.540000,137.930000L132.540000,167.300000C132.545500,169.849274,134.610726,171.914500,137.160000,171.920000L137.160000,171.920000C139.709274,171.914500,141.774500,169.849274,141.780000,167.300000L141.780000,158.230000C149.325255,157.443331,155.064488,151.096110,155.090000,143.510000L155.090000,113.100000C163.915753,104.002401,176.054828,98.874688,188.730000,98.890000L212.730000,98.890000C214.965210,98.891997,217.197468,99.052399,219.410000,99.370000Q219.410000,99.740000,219.410000,100.110000L219.410000,100.250000C219.469396,125.074224,235.346853,147.098313,258.880000,155L258.880000,167.300000C258.994791,169.765336,261.026993,171.705116,263.495000,171.705116C265.963007,171.705116,267.995209,169.765336,268.110000,167.300000L268.110000,137.940000C268.105965,136.610854,267.525967,135.348720,266.520000,134.480000Z" fill="rgb(237,222,209)" stroke="none" stroke-width="1"/><path id="s73" d="M199.250000,80L199.250000,80C188.242748,80.036949,179.293494,88.883900,179.130000,99.890000L179.130000,99.890000C182.277530,99.231050,185.484238,98.895971,188.700000,98.890000L212.700000,98.890000C214.911612,98.891942,217.120364,99.048994,219.310000,99.360000L219.380000,99.360000C218.935583,88.557978,210.061136,80.022990,199.250000,80Z" fill="rgb(181,162,145)" stroke="none" stroke-width="1"/><path id="s75" d="M258.880000,134.220000C247.574900,128.253726,239.116577,118.024553,235.380000,105.800000" fill="none" stroke="rgb(181,162,145)" stroke-width="4" stroke-linecap="round" stroke-miterlimit="10"/><path id="s77" d="M161.450000,81.260000C165.180432,80.058377,169.155649,79.827780,173,80.590000" fill="none" stroke="rgb(181,162,145)" stroke-width="4" stroke-linecap="round" stroke-miterlimit="10"/><path id="s79" d="M168.120000,94.070000C160.960717,94.119057,155.169057,99.910717,155.120000,107.070000L155.120000,113.070000C161.529975,106.497530,169.729383,101.952735,178.700000,100L178.900000,99.830000C176.482252,96.243289,172.445476,94.086347,168.120000,94.070000Z" fill="rgb(181,162,145)" stroke="none" stroke-width="1"/><path id="s81" d="M173,80.540000C176.366279,75.567206,180.624825,71.261193,185.560000,67.840000" fill="none" stroke="rgb(181,162,145)" stroke-width="4" stroke-linecap="round" stroke-miterlimit="10"/></g><line id="s83" x1="219.840000" y1="132.730000" x2="243.170000" y2="132.730000" fill="none" stroke="rgb(255,241,227)" stroke-width="8" stroke-linecap="round" stroke-miterlimit="10"/><line id="s85" x1="156.830000" y1="132.730000" x2="180.160000" y2="132.730000" fill="none" stroke="rgb(255,241,227)" stroke-width="8" stroke-linecap="round" stroke-miterlimit="10"/><g id="s87"><line id="s89" x1="185.970000" y1="186.150000" x2="175.640000" y2="196.890000" fill="none" stroke="rgb(222,159,111)" stroke-width="4" stroke-linecap="round" stroke-miterlimit="10"/><line id="s91" x1="215.420000" y1="186.150000" x2="225.750000" y2="196.890000" fill="none" stroke="rgb(222,159,111)" stroke-width="4" stroke-linecap="round" stroke-miterlimit="10"/><line id="s93" x1="190.860000" y1="117.140000" x2="210.530000" y2="117.140000" fill="none" stroke="rgb(222,159,111)" stroke-width="4" stroke-linecap="round" stroke-miterlimit="10"/></g></g></g></svg>