<svg id="s1" xmlns="http://www.w3.org/2000/svg" xmlns:xlink="http://www.w3.org/1999/xlink" viewBox="0 0 400 400"><g id="s3"><path id="s5" d="M175.660000,51.080000C186.600000,72.080000,240.850000,170.510000,253.310000,197.250000C259.080000,208.490000,262.470000,230.130000,251.830000,237.420000C241.190000,244.710000,214.750000,258.420000,209.890000,259.620000C202.890000,244.120000,153.680000,223.160000,139.700000,188.520000C125.720000,153.880000,122.530000,109.730000,148.520000,77C159.120000,63.670000,171.920000,45.820000,175.660000,51.080000Z" fill="rgb(181,64,55)" stroke="none" stroke-width="1"/><g id="s7"><g id="s9"><path id="s11" d="M101.830000,77C96.160000,59.170000,105.480000,36.490000,134.640000,30.820000C163.800000,25.150000,186.900000,51.280000,177.790000,81.260000C167.870000,113.900000,113.580000,116.310000,101.830000,77Z" fill="rgb(181,64,55)" stroke="none" stroke-width="1"/><path id="s13" d="M105.270000,64.860000C112.360000,42.370000,138.720000,34,151,57C161.630000,77,128.660000,88.540000,116.670000,82.720000C109.741377,79.465956,105.304364,72.514635,105.270000,64.860000Z" fill="rgb(209,93,83)" stroke="none" stroke-width="1"/><ellipse id="s15" rx="3.950000" ry="6.990000" transform="translate(129.880000,63.540000)" fill="rgb(41,16,21)" stroke="none" stroke-width="1"/></g><g id="s17"><path id="s19" d="M122.490000,78.230000C123.100000,84.310000,121.490000,97.490000,120.490000,98.590000C114.110000,105.430000,98.490000,104.060000,93.300000,102.840000C88.110000,101.620000,85.860000,93.270000,85.860000,93.270000C97.580000,92.350000,115,77.920000,122.490000,78.230000Z" fill="rgb(230,153,48)" stroke="none" stroke-width="1"/><path id="s21" d="M100.610000,60.600000C104.860000,62.120000,122.790000,71.540000,122.790000,78.220000C121.120000,84.140000,91.490000,96.600000,88.150000,116.220000C71.450000,92.510000,66,62.730000,100.610000,60.600000Z" fill="rgb(249,173,72)" stroke="none" stroke-width="1"/></g></g><path id="s23" d="M217,262.550000C208.640000,264.270000,191.230000,266.920000,189.650000,274.700000C188.850000,278.700000,189.450000,283.510000,187.730000,283.700000C186.930000,283.790000,179.610000,271.230000,186.510000,266.580000C177.800000,265.770000,181.950000,278.230000,180.230000,278.630000C178.940000,278.930000,171.320000,265.770000,178.150000,261.540000C184.030000,257.900000,211.950000,258.490000,216.480000,258.170000C222.350000,257.790000,224.110000,261.090000,217,262.550000Z" fill="rgb(249,173,72)" stroke="none" stroke-width="1"/><g id="s25"><g id="s27"><path id="s29" d="M247.510000,188.680000C245.740000,191.480000,299.420000,318.040000,337.340000,347.350000C343.180000,350.810000,327.530000,309.860000,303.700000,269.510000C279.870000,229.160000,251.440000,187.620000,247.510000,188.680000Z" fill="rgb(209,93,83)" stroke="none" stroke-width="1"/><path id="s31" d="M306.660000,310C317.130000,326.310000,327.740000,340,337.340000,347.390000C341.720000,349.990000,334,327.550000,319.780000,299.130000C326,318.360000,319.510000,321.290000,306.660000,310Z" fill="rgb(44,103,201)" stroke="none" stroke-width="1"/></g><g id="s33"><path id="s35" d="M249.720000,191.670000C247.060000,184.670000,244.720000,190.380000,246.990000,198.990000C252.330000,219.580000,256.370000,330.920000,270.690000,329.990000C278.580000,329.500000,275.540000,260.080000,249.720000,191.670000Z" fill="rgb(209,93,83)" stroke="none" stroke-width="1"/><path id="s37" d="M258,292.630000C261.130000,314.020000,265.120000,330.360000,270.640000,330.010000C274.090000,329.790000,275.450000,316.420000,273.740000,295.720000C272.250000,314.150000,263.720000,313.640000,258,292.630000Z" fill="rgb(44,103,201)" stroke="none" stroke-width="1"/></g><g id="s39"><path id="s41" d="M250.580000,196.480000C250.880000,216.680000,255.980000,265.560000,282.110000,316.540000C308.240000,367.520000,335.890000,387.660000,344.110000,386.480000C347.700000,385.900000,249.410000,167.220000,250.580000,196.480000Z" fill="rgb(209,93,83)" stroke="none" stroke-width="1"/><path id="s43" d="M281.880000,316.070000L282.120000,316.540000C308.250000,367.540000,335.900000,387.660000,344.120000,386.480000C345.240000,386.300000,336.640000,365.320000,324.260000,337.280000C332,367.360000,303.400000,352.790000,281.880000,316.070000Z" fill="rgb(44,103,201)" stroke="none" stroke-width="1"/></g></g><g id="s45"><path id="s47" d="M222.450000,128C207.280000,110.590000,186.390000,99.640000,174.650000,114C162.910000,128.360000,176.070000,188.740000,234.400000,235.130000C292.730000,281.520000,330.620000,298.940000,339.530000,296.510000C341.760000,295.290000,323.930000,273.010000,323.930000,273.010000C329.400000,273.420000,307.520000,244.250000,293.140000,230.070000C290.720000,208.570000,234.810000,142.130000,222.450000,128Z" fill="rgb(209,93,83)" stroke="none" stroke-width="1"/><path id="s49" d="M243,152.520000C241,150.070000,239.110000,147.730000,237.280000,145.520000C236.980000,150.200000,232.910000,155.680000,228.760000,155.920000C229.980000,160.780000,234.430000,175.370000,225.110000,173.340000C229.160000,183.870000,227.110000,191.570000,218.630000,187.110000C220.430000,205.110000,199.460000,194.920000,187.110000,180.750000C195.245196,194.874643,205.226378,207.852198,216.790000,219.340000L218.630000,219.920000L251.440000,215.060000C243,152.520000,253.480000,187,243,152.520000Z" fill="rgb(249,173,72)" stroke="none" stroke-width="1"/><path id="s51" d="M293.150000,230C291.260000,213.310000,257.070000,169.470000,236.150000,144.100000C241.310000,156.470000,240.710000,164.370000,235.030000,162.550000C239.490000,174.300000,241.920000,201.240000,231.180000,192.330000C233.610000,211.330000,220.180000,217.190000,203.530000,204.620000C212.693902,215.858396,223.051300,226.068262,234.420000,235.070000C292.760000,281.460000,330.640000,298.880000,339.550000,296.450000C341.780000,295.230000,323.950000,272.950000,323.950000,272.950000C329.400000,273.390000,307.530000,244.220000,293.150000,230Z" fill="rgb(36,181,116)" stroke="none" stroke-width="1"/><path id="s53" d="M293.150000,230C291.660000,216.850000,270.150000,186.860000,250.820000,162.310000C253.920000,171.870000,255.180000,181.310000,250.310000,185.440000C256.390000,195.440000,262.770000,215.220000,252.740000,214.300000C265.130000,233.300000,246.090000,241.560000,232.460000,233.460000C233.110000,233.990000,233.740000,234.530000,234.410000,235.060000C292.750000,281.450000,330.630000,298.870000,339.540000,296.440000C341.770000,295.220000,323.940000,272.940000,323.940000,272.940000C329.400000,273.390000,307.530000,244.220000,293.150000,230Z" fill="rgb(44,103,201)" stroke="none" stroke-width="1"/></g></g></svg>