<svg id="s1" xmlns="http://www.w3.org/2000/svg" xmlns:xlink="http://www.w3.org/1999/xlink" viewBox="0 0 400 400"><g id="s3"><g id="s5"><path id="s7" d="M307.450000,352.570000L307.450000,333.430000C307.362117,302.687647,282.462353,277.787883,251.720000,277.700000L248.200000,277.700000C237.154305,277.700000,228.200000,268.745695,228.200000,257.700000L228.200000,237.650000L177,237.650000L177,257.740000C177,268.785695,168.045695,277.740000,157,277.740000L153.480000,277.740000C122.737647,277.827883,97.837883,302.727647,97.750000,333.470000L97.750000,352.610000C97.750000,360.839043,104.420957,367.510000,112.650000,367.510000L292.550000,367.510000C296.508666,367.510014,300.304614,365.934708,303.100058,363.131758C305.895503,360.328809,307.460627,356.528652,307.450000,352.570000Z" fill="rgb(128,75,44)" stroke="none" stroke-width="1"/><path id="s9" d="M172.150000,270.740000C181.446448,275.573308,191.772182,278.091278,202.250000,278.080000L203,278.080000C213.477724,278.090489,223.803273,275.572565,233.100000,270.740000C229.967747,267.133084,228.242085,262.517117,228.240000,257.740000L228.240000,237.650000L177,237.650000L177,257.740000C176.999792,262.515670,175.277851,267.131181,172.150000,270.740000Z" fill="rgb(102,57,31)" stroke="none" stroke-width="1"/><g id="s11"><path id="s13" d="M251.720000,273.700000C246.720000,273.630000,247.210000,273.700000,246.720000,273.630000C245.616272,273.538144,244.525543,273.919899,243.720000,274.680000C232.946375,284.894412,218.666050,290.588647,203.820000,290.590000L202.410000,290.590000C187.516961,290.590000,173.194615,284.861062,162.410000,274.590000C161.519873,273.778246,160.311299,273.410899,159.120000,273.590000C158.470000,273.680000,153.620000,273.720000,153.620000,273.720000C137.778619,273.720000,122.586060,280.012964,111.384512,291.214512C100.182964,302.416060,93.890000,317.608619,93.890000,333.450000L93.890000,352.590000C93.890000,363.028182,102.351818,371.490000,112.790000,371.490000L292.550000,371.490000C302.988182,371.490000,311.450000,363.028182,311.450000,352.590000L311.450000,333.430000C311.450000,317.588619,305.157036,302.396060,293.955488,291.194512C282.753940,279.992964,267.561381,273.700000,251.720000,273.700000Z" fill="rgb(255,205,70)" stroke="none" stroke-width="1"/><path id="s15" d="M158.190000,281.620000C170.301860,292.564587,186.045750,298.622671,202.370000,298.620000L203.780000,298.620000C220.077377,298.627588,235.799492,292.595968,247.910000,281.690000" fill="none" stroke="rgb(245,161,59)" stroke-width="4" stroke-linecap="round" stroke-miterlimit="10"/><line id="s17" x1="143.750000" y1="339.510000" x2="143.750000" y2="359.090000" fill="none" stroke="rgb(245,161,59)" stroke-width="8" stroke-linecap="round" stroke-miterlimit="10"/><line id="s19" x1="261.510000" y1="339.510000" x2="261.510000" y2="359.090000" fill="none" stroke="rgb(245,161,59)" stroke-width="8" stroke-linecap="round" stroke-miterlimit="10"/></g></g><g id="s21"><circle id="s23" r="19.500000" transform="translate(264.880000,180.570000)" fill="rgb(128,75,44)" stroke="none" stroke-width="1"/><circle id="s25" r="19.500000" transform="translate(140.380000,180.570000)" fill="rgb(128,75,44)" stroke="none" stroke-width="1"/><path id="s27" d="M191.660000,85.490000L213.600000,85.490000C242.602090,85.489999,266.114478,108.997910,266.120000,138L266.120000,194.070000C266.122652,208.849595,260.253340,223.024765,249.803526,233.476454C239.353711,243.928144,225.179596,249.800000,210.400000,249.800000L194.850000,249.800000C164.076694,249.800000,139.130000,224.853306,139.130000,194.080000L139.130000,138C139.132652,124.070830,144.668537,110.713216,154.519823,100.865681C164.371109,91.018145,177.730830,85.487348,191.660000,85.490000Z" fill="rgb(128,75,44)" stroke="none" stroke-width="1"/><path id="s29" d="M192.060000,207.140000C194.247309,210.854044,198.206374,213.165788,202.515912,213.245330C206.825450,213.324872,210.867126,211.160798,213.190000,207.530000" fill="none" stroke="rgb(84,47,24)" stroke-width="4" stroke-linecap="round" stroke-miterlimit="10"/><path id="s31" d="M209.410000,187.110000C207.990857,184.746976,205.455178,183.280971,202.699226,183.230161C199.943275,183.179351,197.355281,184.550893,195.850000,186.860000" fill="none" stroke="rgb(84,47,24)" stroke-width="4" stroke-linecap="round" stroke-miterlimit="10"/><g id="s33"><ellipse id="s35" rx="6.880000" ry="7.430000" transform="translate(171.120000,168.420000)" fill="rgb(0,0,0)" stroke="none" stroke-width="1"/><ellipse id="s37" rx="6.880000" ry="7.430000" transform="translate(234.130000,168.420000)" fill="rgb(0,0,0)" stroke="none" stroke-width="1"/></g><g id="s39"><line id="s41" x1="222.470000" y1="143.660000" x2="245.800000" y2="143.660000" fill="none" stroke="rgb(84,47,24)" stroke-width="12" stroke-linecap="round" stroke-miterlimit="10"/><line id="s43" x1="159.460000" y1="143.660000" x2="182.790000" y2="143.660000" fill="none" stroke="rgb(84,47,24)" stroke-width="12" stroke-linecap="round" stroke-miterlimit="10"/></g><path id="s45" d="M206.470000,78.930000L198.790000,78.930000C163.340000,78.930000,135.270000,104.600000,135.270000,142.080000L135.270000,180.570000L144.700000,180.570000L144.700000,176.270000L144.700000,141.070000C144.700000,136.270000,148.110000,132.340000,152.650000,132.340000L152.650000,111.880000C157.664137,106.404602,164.716314,103.242158,172.140000,103.140000C175.218962,108.588801,180.981522,111.970012,187.240000,112L218,112C224.251664,111.983825,230.016441,108.622629,233.110000,103.190000C240.533686,103.292158,247.585863,106.454602,252.600000,111.930000L252.600000,132.390000C257.280003,132.542358,260.962268,136.438864,260.850000,141.120000L260.850000,180.620000L270,180.620000L270,142.080000C270,104.600000,241.920000,78.930000,206.470000,78.930000Z" fill="rgb(71,37,24)" stroke="none" stroke-width="1"/><path id="s47" d="M260.580000,152.330000L260.580000,185.180000C260.521528,202.282082,247.306149,216.456044,230.250000,217.710000L230.250000,210.270000C230.333519,199.635012,221.814284,190.928149,211.180000,190.780000L194.090000,190.780000C183.447872,190.917251,174.916568,199.627314,175,210.270000L175,217.710000C157.940029,216.455746,144.723257,202.275932,144.670000,185.170000L144.670000,152.330000L144.670000,152.330000C138.594275,159.502712,135.263016,168.599884,135.270000,178L135.270000,196.180000C135.374323,228.791665,161.788318,255.201193,194.400000,255.300000L210.860000,255.300000C243.483365,255.206625,269.906625,228.783365,270,196.160000L270,178C270.001397,168.597360,266.662944,159.499898,260.580000,152.330000ZM194.830000,202.630000L210.430000,202.630000C215.033825,202.684925,218.724439,206.456062,218.680000,211.060000L218.680000,223.530000C218.679630,225.022172,218.286456,226.487954,217.540000,227.780000L217.540000,227.780000C216.544101,229.236297,214.894260,230.107982,213.130000,230.110000L211.700000,230.110000C208.747559,230.104497,206.355503,227.712441,206.350000,224.760000L206.350000,223.320000C206.366952,221.777126,207.052922,220.317615,208.230000,219.320000L197,219.320000C198.177078,220.317615,198.863048,221.777126,198.880000,223.320000L198.880000,224.760000C198.874497,227.712441,196.482441,230.104497,193.530000,230.110000L192.100000,230.110000C190.200988,230.101249,188.449496,229.084622,187.500000,227.440000C186.856411,226.232713,186.513386,224.888053,186.500000,223.520000L186.500000,211.050000C186.478676,208.825076,187.346236,206.683659,188.910152,205.100969C190.474068,203.518278,192.604980,202.625227,194.830000,202.620000Z" fill="rgb(87,58,49)" stroke="none" stroke-width="1"/></g></g></svg>