<svg id="s1" xmlns="http://www.w3.org/2000/svg" xmlns:xlink="http://www.w3.org/1999/xlink" viewBox="0 0 400 400"><defs><linearGradient id="s9-fill" x1="136.440000" y1="243.340000" x2="257.790000" y2="243.340000" spreadMethod="pad" gradientUnits="userSpaceOnUse"><stop id="s9-fill-0" offset="35%" stop-color="rgb(222,195,122)"/><stop id="s9-fill-1" offset="100%" stop-color="rgb(196,164,101)"/></linearGradient><linearGradient id="s11-fill" x1="-28.430000" y1="-39.150000" x2="36.410000" y2="50.130000" spreadMethod="pad" gradientUnits="userSpaceOnUse"><stop id="s11-fill-0" offset="0%" stop-color="rgb(252,222,142)"/><stop id="s11-fill-1" offset="17%" stop-color="rgb(252,232,179)"/><stop id="s11-fill-2" offset="99%" stop-color="rgb(217,191,121)"/></linearGradient><linearGradient id="s13-fill" x1="-34.200000" y1="-43.830000" x2="28.650000" y2="36.710000" spreadMethod="pad" gradientUnits="userSpaceOnUse"><stop id="s13-fill-0" offset="0%" stop-color="rgb(230,201,124)"/><stop id="s13-fill-1" offset="100%" stop-color="rgb(214,172,90)"/></linearGradient><linearGradient id="s15-fill" x1="154.430000" y1="179.060000" x2="217.280000" y2="259.590000" spreadMethod="pad" gradientUnits="userSpaceOnUse"><stop id="s15-fill-0" offset="0%" stop-color="rgb(196,169,93)"/><stop id="s15-fill-1" offset="100%" stop-color="rgb(173,138,67)"/></linearGradient><linearGradient id="s19-fill" x1="136.440000" y1="217.150000" x2="257.790000" y2="217.150000" spreadMethod="pad" gradientUnits="userSpaceOnUse"><stop id="s19-fill-0" offset="35%" stop-color="rgb(222,195,122)"/><stop id="s19-fill-1" offset="100%" stop-color="rgb(196,164,101)"/></linearGradient><linearGradient id="s21-fill" x1="-28.430000" y1="-39.150000" x2="36.410000" y2="50.130000" spreadMethod="pad" gradientUnits="userSpaceOnUse"><stop id="s21-fill-0" offset="0%" stop-color="rgb(252,222,142)"/><stop id="s21-fill-1" offset="17%" stop-color="rgb(252,232,179)"/><stop id="s21-fill-2" offset="99%" stop-color="rgb(217,191,121)"/></linearGradient><linearGradient id="s23-fill" x1="-34.200000" y1="-43.830000" x2="28.650000" y2="36.710000" spreadMethod="pad" gradientUnits="userSpaceOnUse"><stop id="s23-fill-0" offset="0%" stop-color="rgb(230,201,124)"/><stop id="s23-fill-1" offset="100%" stop-color="rgb(214,172,90)"/></linearGradient><linearGradient id="s25-fill" x1="154.430000" y1="152.860000" x2="217.280000" y2="233.400000" spreadMethod="pad" gradientUnits="userSpaceOnUse"><stop id="s25-fill-0" offset="0%" stop-color="rgb(196,169,93)"/><stop id="s25-fill-1" offset="100%" stop-color="rgb(173,138,67)"/></linearGradient><linearGradient id="s29-fill" x1="136.440000" y1="191.150000" x2="257.790000" y2="191.150000" spreadMethod="pad" gradientUnits="userSpaceOnUse"><stop id="s29-fill-0" offset="35%" stop-color="rgb(222,195,122)"/><stop id="s29-fill-1" offset="100%" stop-color="rgb(196,164,101)"/></linearGradient><linearGradient id="s31-fill" x1="-28.430000" y1="-39.150000" x2="36.410000" y2="50.130000" spreadMethod="pad" gradientUnits="userSpaceOnUse"><stop id="s31-fill-0" offset="0%" stop-color="rgb(252,222,142)"/><stop id="s31-fill-1" offset="17%" stop-color="rgb(252,232,179)"/><stop id="s31-fill-2" offset="99%" stop-color="rgb(217,191,121)"/></linearGradient><linearGradient id="s33-fill" x1="-34.200000" y1="-43.830000" x2="28.650000" y2="36.710000" spreadMethod="pad" gradientUnits="userSpaceOnUse"><stop id="s33-fill-0" offset="0%" stop-color="rgb(230,201,124)"/><stop id="s33-fill-1" offset="100%" stop-color="rgb(214,172,90)"/></linearGradient><linearGradient id="s35-fill" x1="154.430000" y1="126.860000" x2="217.280000" y2="207.400000" spreadMethod="pad" gradientUnits="userSpaceOnUse"><stop id="s35-fill-0" offset="0%" stop-color="rgb(196,169,93)"/><stop id="s35-fill-1" offset="100%" stop-color="rgb(173,138,67)"/></linearGradient><linearGradient id="s39-fill" x1="136.440000" y1="165.150000" x2="257.790000" y2="165.150000" spreadMethod="pad" gradientUnits="userSpaceOnUse"><stop id="s39-fill-0" offset="35%" stop-color="rgb(222,195,122)"/><stop id="s39-fill-1" offset="100%" stop-color="rgb(196,164,101)"/></linearGradient><linearGradient id="s41-fill" x1="-28.430000" y1="-39.150000" x2="36.410000" y2="50.130000" spreadMethod="pad" gradientUnits="userSpaceOnUse"><stop id="s41-fill-0" offset="0%" stop-color="rgb(252,222,142)"/><stop id="s41-fill-1" offset="17%" stop-color="rgb(252,232,179)"/><stop id="s41-fill-2" offset="99%" stop-color="rgb(217,191,121)"/></linearGradient><linearGradient id="s43-fill" x1="-34.200000" y1="-43.830000" x2="28.650000" y2="36.710000" spreadMethod="pad" gradientUnits="userSpaceOnUse"><stop id="s43-fill-0" offset="0%" stop-color="rgb(230,201,124)"/><stop id="s43-fill-1" offset="100%" stop-color="rgb(214,172,90)"/></linearGradient><linearGradient id="s45-fill" x1="154.430000" y1="100.860000" x2="217.280000" y2="181.400000" spreadMethod="pad" gradientUnits="userSpaceOnUse"><stop id="s45-fill-0" offset="0%" stop-color="rgb(196,169,93)"/><stop id="s45-fill-1" offset="100%" stop-color="rgb(173,138,67)"/></linearGradient><linearGradient id="s49-fill" x1="-45.380000" y1="-62.480000" x2="58.110000" y2="80.010000" spreadMethod="pad" gradientUnits="userSpaceOnUse"><stop id="s49-fill-0" offset="0%" stop-color="rgb(252,222,142)"/><stop id="s49-fill-1" offset="17%" stop-color="rgb(252,232,179)"/><stop id="s49-fill-2" offset="99%" stop-color="rgb(217,191,121)"/></linearGradient><linearGradient id="s51-fill" x1="-52.720000" y1="-67.560000" x2="44.160000" y2="56.590000" spreadMethod="pad" gradientUnits="userSpaceOnUse"><stop id="s51-fill-0" offset="0%" stop-color="rgb(230,201,124)"/><stop id="s51-fill-1" offset="100%" stop-color="rgb(214,172,90)"/></linearGradient><linearGradient id="s53-fill" x1="72.940000" y1="201.510000" x2="133.670000" y2="279.330000" spreadMethod="pad" gradientUnits="userSpaceOnUse"><stop id="s53-fill-0" offset="0%" stop-color="rgb(196,169,93)"/><stop id="s53-fill-1" offset="100%" stop-color="rgb(173,138,67)"/></linearGradient><linearGradient id="s59-fill" x1="229.680000" y1="279.140000" x2="351.030000" y2="279.140000" spreadMethod="pad" gradientUnits="userSpaceOnUse"><stop id="s59-fill-0" offset="35%" stop-color="rgb(222,195,122)"/><stop id="s59-fill-1" offset="100%" stop-color="rgb(196,164,101)"/></linearGradient><linearGradient id="s61-fill" x1="-28.430000" y1="-39.150000" x2="36.410000" y2="50.130000" spreadMethod="pad" gradientUnits="userSpaceOnUse"><stop id="s61-fill-0" offset="0%" stop-color="rgb(252,222,142)"/><stop id="s61-fill-1" offset="17%" stop-color="rgb(252,232,179)"/><stop id="s61-fill-2" offset="99%" stop-color="rgb(217,191,121)"/></linearGradient><linearGradient id="s63-fill" x1="-34.200000" y1="-43.830000" x2="28.650000" y2="36.710000" spreadMethod="pad" gradientUnits="userSpaceOnUse"><stop id="s63-fill-0" offset="0%" stop-color="rgb(230,201,124)"/><stop id="s63-fill-1" offset="100%" stop-color="rgb(214,172,90)"/></linearGradient><linearGradient id="s65-fill" x1="247.670000" y1="214.860000" x2="310.520000" y2="295.390000" spreadMethod="pad" gradientUnits="userSpaceOnUse"><stop id="s65-fill-0" offset="0%" stop-color="rgb(196,169,93)"/><stop id="s65-fill-1" offset="100%" stop-color="rgb(173,138,67)"/></linearGradient><linearGradient id="s69-fill" x1="229.680000" y1="253.140000" x2="351.030000" y2="253.140000" spreadMethod="pad" gradientUnits="userSpaceOnUse"><stop id="s69-fill-0" offset="35%" stop-color="rgb(222,195,122)"/><stop id="s69-fill-1" offset="100%" stop-color="rgb(196,164,101)"/></linearGradient><linearGradient id="s71-fill" x1="-28.430000" y1="-39.150000" x2="36.410000" y2="50.130000" spreadMethod="pad" gradientUnits="userSpaceOnUse"><stop id="s71-fill-0" offset="0%" stop-color="rgb(252,222,142)"/><stop id="s71-fill-1" offset="17%" stop-color="rgb(252,232,179)"/><stop id="s71-fill-2" offset="99%" stop-color="rgb(217,191,121)"/></linearGradient><linearGradient id="s73-fill" x1="-34.200000" y1="-43.830000" x2="28.650000" y2="36.710000" spreadMethod="pad" gradientUnits="userSpaceOnUse"><stop id="s73-fill-0" offset="0%" stop-color="rgb(230,201,124)"/><stop id="s73-fill-1" offset="100%" stop-color="rgb(214,172,90)"/></linearGradient><linearGradient id="s75-fill" x1="247.670000" y1="188.860000" x2="310.520000" y2="269.390000" spreadMethod="pad" gradientUnits="userSpaceOnUse"><stop id="s75-fill-0" offset="0%" stop-color="rgb(196,169,93)"/><stop id="s75-fill-1" offset="100%" stop-color="rgb(173,138,67)"/></linearGradient><linearGradient id="s79-fill" x1="229.680000" y1="227.140000" x2="351.030000" y2="227.140000" spreadMethod="pad" gradientUnits="userSpaceOnUse"><stop id="s79-fill-0" offset="35%" stop-color="rgb(222,195,122)"/><stop id="s79-fill-1" offset="100%" stop-color="rgb(196,164,101)"/></linearGradient><linearGradient id="s81-fill" x1="-28.430000" y1="-39.150000" x2="36.410000" y2="50.130000" spreadMethod="pad" gradientUnits="userSpaceOnUse"><stop id="s81-fill-0" offset="0%" stop-color="rgb(252,222,142)"/><stop id="s81-fill-1" offset="17%" stop-color="rgb(252,232,179)"/><stop id="s81-fill-2" offset="99%" stop-color="rgb(217,191,121)"/></linearGradient><linearGradient id="s83-fill" x1="-34.200000" y1="-43.830000" x2="28.650000" y2="36.710000" spreadMethod="pad" gradientUnits="userSpaceOnUse"><stop id="s83-fill-0" offset="0%" stop-color="rgb(230,201,124)"/><stop id="s83-fill-1" offset="100%" stop-color="rgb(214,172,90)"/></linearGradient><linearGradient id="s85-fill" x1="247.670000" y1="162.860000" x2="310.520000" y2="243.390000" spreadMethod="pad" gradientUnits="userSpaceOnUse"><stop id="s85-fill-0" offset="0%" stop-color="rgb(196,169,93)"/><stop id="s85-fill-1" offset="100%" stop-color="rgb(173,138,67)"/></linearGradient></defs><g id="s3"><g id="s5"><g id="s7"><path id="s9" d="M263.400000,246.110000L263.400000,221.570000L113.860000,221.570000L113.860000,246.120000L113.860000,246.120000C113.860000,256.620000,147.340000,265.120000,188.630000,265.120000C229.920000,265.120000,263.400000,256.610000,263.400000,246.120000Z" fill="url(#s9-fill)" stroke="none" stroke-width="1"/><ellipse id="s11" rx="74.770000" ry="19.010000" transform="translate(188.630000,222.890000)" fill="url(#s11-fill)" stroke="none" stroke-width="1"/><ellipse id="s13" rx="51.580000" ry="11.190000" transform="translate(188.630000,222.890000)" fill="url(#s13-fill)" stroke="none" stroke-width="1"/><path id="s15" d="M139.330000,226.180000C145.810000,221.610000,165.430000,218.280000,188.630000,218.280000C211.830000,218.280000,231.460000,221.600000,237.930000,226.180000C239.400000,225.180000,240.210000,224.040000,240.210000,222.890000C240.210000,216.710000,217.120000,211.700000,188.630000,211.700000C160.140000,211.700000,137.050000,216.700000,137.050000,222.890000C137.050000,224,137.850000,225.140000,139.330000,226.180000Z" fill="url(#s15-fill)" stroke="none" stroke-width="1"/></g><g id="s17"><path id="s19" d="M263.400000,219.910000L263.400000,195.370000L113.860000,195.370000L113.860000,219.920000L113.860000,219.920000C113.860000,230.420000,147.340000,238.920000,188.630000,238.920000C229.920000,238.920000,263.400000,230.410000,263.400000,219.920000Z" fill="url(#s19-fill)" stroke="none" stroke-width="1"/><ellipse id="s21" rx="74.770000" ry="19.010000" transform="translate(188.630000,196.690000)" fill="url(#s21-fill)" stroke="none" stroke-width="1"/><ellipse id="s23" rx="51.580000" ry="11.190000" transform="translate(188.630000,196.690000)" fill="url(#s23-fill)" stroke="none" stroke-width="1"/><path id="s25" d="M139.330000,200C145.810000,195.430000,165.430000,192.100000,188.630000,192.100000C211.830000,192.100000,231.460000,195.420000,237.930000,200C239.400000,199,240.210000,197.860000,240.210000,196.710000C240.210000,190.530000,217.120000,185.520000,188.630000,185.520000C160.140000,185.520000,137.050000,190.520000,137.050000,196.710000C137.050000,197.840000,137.850000,198.940000,139.330000,200Z" fill="url(#s25-fill)" stroke="none" stroke-width="1"/></g><g id="s27"><path id="s29" d="M263.400000,193.910000L263.400000,169.370000L113.860000,169.370000L113.860000,193.920000L113.860000,193.920000C113.860000,204.420000,147.340000,212.920000,188.630000,212.920000C229.920000,212.920000,263.400000,204.410000,263.400000,193.920000Z" fill="url(#s29-fill)" stroke="none" stroke-width="1"/><ellipse id="s31" rx="74.770000" ry="19.010000" transform="translate(188.630000,170.690000)" fill="url(#s31-fill)" stroke="none" stroke-width="1"/><ellipse id="s33" rx="51.580000" ry="11.190000" transform="translate(188.630000,170.690000)" fill="url(#s33-fill)" stroke="none" stroke-width="1"/><path id="s35" d="M139.330000,174C145.810000,169.430000,165.430000,166.100000,188.630000,166.100000C211.830000,166.100000,231.460000,169.420000,237.930000,174C239.400000,173,240.210000,171.860000,240.210000,170.710000C240.210000,164.530000,217.120000,159.520000,188.630000,159.520000C160.140000,159.520000,137.050000,164.520000,137.050000,170.710000C137.050000,171.840000,137.850000,172.940000,139.330000,174Z" fill="url(#s35-fill)" stroke="none" stroke-width="1"/></g><g id="s37"><path id="s39" d="M263.400000,167.910000L263.400000,143.370000L113.860000,143.370000L113.860000,167.920000L113.860000,167.920000C113.860000,178.420000,147.340000,186.920000,188.630000,186.920000C229.920000,186.920000,263.400000,178.410000,263.400000,167.920000Z" fill="url(#s39-fill)" stroke="none" stroke-width="1"/><ellipse id="s41" rx="74.770000" ry="19.010000" transform="translate(188.630000,144.690000)" fill="url(#s41-fill)" stroke="none" stroke-width="1"/><ellipse id="s43" rx="51.580000" ry="11.190000" transform="translate(188.630000,144.690000)" fill="url(#s43-fill)" stroke="none" stroke-width="1"/><path id="s45" d="M139.330000,148C145.810000,143.430000,165.430000,140.100000,188.630000,140.100000C211.830000,140.100000,231.460000,143.420000,237.930000,148C239.400000,147,240.210000,145.860000,240.210000,144.710000C240.210000,138.530000,217.120000,133.520000,188.630000,133.520000C160.140000,133.520000,137.050000,138.520000,137.050000,144.710000C137.050000,145.840000,137.850000,146.940000,139.330000,148Z" fill="url(#s45-fill)" stroke="none" stroke-width="1"/></g></g><g id="s47"><circle id="s49" r="74.320000" transform="translate(117.680000,258.770000)" fill="url(#s49-fill)" stroke="none" stroke-width="1"/><circle id="s51" r="50.780000" transform="translate(117.680000,258.770000)" fill="url(#s51-fill)" stroke="none" stroke-width="1"/><path id="s53" d="M74.300000,265.670000C74.273136,246.360695,85.214768,228.711817,102.521488,220.148674C119.828209,211.585530,140.496222,213.594360,155.830000,225.330000C143.089894,210.774654,123.181176,204.731153,104.499681,209.748143C85.818187,214.765132,71.615629,229.969351,67.881460,248.948930C64.147290,267.928508,71.531482,287.379849,86.920000,299.100000C78.782177,289.865618,74.294709,277.978450,74.300000,265.670000Z" fill="url(#s53-fill)" stroke="none" stroke-width="1"/></g><g id="s55"><g id="s57"><path id="s59" d="M356.640000,281.910000L356.640000,257.360000L207.100000,257.360000L207.100000,281.910000L207.100000,281.910000C207.100000,292.410000,240.580000,300.910000,281.870000,300.910000C323.160000,300.910000,356.640000,292.400000,356.640000,281.910000Z" fill="url(#s59-fill)" stroke="none" stroke-width="1"/><ellipse id="s61" rx="74.770000" ry="19.010000" transform="translate(281.870000,258.690000)" fill="url(#s61-fill)" stroke="none" stroke-width="1"/><ellipse id="s63" rx="51.580000" ry="11.190000" transform="translate(281.870000,258.690000)" fill="url(#s63-fill)" stroke="none" stroke-width="1"/><path id="s65" d="M232.560000,262C239.040000,257.430000,258.660000,254.100000,281.860000,254.100000C305.060000,254.100000,324.690000,257.420000,331.160000,262C332.630000,261,333.440000,259.860000,333.440000,258.710000C333.440000,252.530000,310.350000,247.520000,281.860000,247.520000C253.370000,247.520000,230.280000,252.520000,230.280000,258.710000C230.290000,259.830000,231.090000,260.930000,232.560000,262Z" fill="url(#s65-fill)" stroke="none" stroke-width="1"/></g><g id="s67"><path id="s69" d="M356.640000,255.910000L356.640000,231.360000L207.100000,231.360000L207.100000,255.910000L207.100000,255.910000C207.100000,266.410000,240.580000,274.910000,281.870000,274.910000C323.160000,274.910000,356.640000,266.400000,356.640000,255.910000Z" fill="url(#s69-fill)" stroke="none" stroke-width="1"/><ellipse id="s71" rx="74.770000" ry="19.010000" transform="translate(281.870000,232.690000)" fill="url(#s71-fill)" stroke="none" stroke-width="1"/><ellipse id="s73" rx="51.580000" ry="11.190000" transform="translate(281.870000,232.690000)" fill="url(#s73-fill)" stroke="none" stroke-width="1"/><path id="s75" d="M232.560000,236C239.040000,231.430000,258.660000,228.100000,281.860000,228.100000C305.060000,228.100000,324.690000,231.420000,331.160000,236C332.630000,235,333.440000,233.860000,333.440000,232.710000C333.440000,226.530000,310.350000,221.520000,281.860000,221.520000C253.370000,221.520000,230.280000,226.520000,230.280000,232.710000C230.290000,233.830000,231.090000,234.930000,232.560000,236Z" fill="url(#s75-fill)" stroke="none" stroke-width="1"/></g><g id="s77"><path id="s79" d="M356.640000,229.910000L356.640000,205.360000L207.100000,205.360000L207.100000,229.910000L207.100000,229.910000C207.100000,240.410000,240.580000,248.910000,281.870000,248.910000C323.160000,248.910000,356.640000,240.400000,356.640000,229.910000Z" fill="url(#s79-fill)" stroke="none" stroke-width="1"/><ellipse id="s81" rx="74.770000" ry="19.010000" transform="translate(281.870000,206.690000)" fill="url(#s81-fill)" stroke="none" stroke-width="1"/><ellipse id="s83" rx="51.580000" ry="11.190000" transform="translate(281.870000,206.690000)" fill="url(#s83-fill)" stroke="none" stroke-width="1"/><path id="s85" d="M232.560000,210C239.040000,205.430000,258.660000,202.100000,281.860000,202.100000C305.060000,202.100000,324.690000,205.420000,331.160000,210C332.630000,209,333.440000,207.860000,333.440000,206.710000C333.440000,200.530000,310.350000,195.520000,281.860000,195.520000C253.370000,195.520000,230.280000,200.520000,230.280000,206.710000C230.290000,207.830000,231.090000,208.930000,232.560000,210Z" fill="url(#s85-fill)" stroke="none" stroke-width="1"/></g></g></g></svg>