<svg id="s1" xmlns="http://www.w3.org/2000/svg" xmlns:xlink="http://www.w3.org/1999/xlink" viewBox="0 0 400 400"><defs><linearGradient id="s7-fill" x1="169.770000" y1="104.040000" x2="246.570000" y2="350.060000" spreadMethod="pad" gradientUnits="userSpaceOnUse"><stop id="s7-fill-0" offset="9%" stop-color="rgb(248,226,161)"/><stop id="s7-fill-1" offset="100%" stop-color="rgb(248,198,107)"/></linearGradient><linearGradient id="s25-fill" x1="-47.250000" y1="-64.750000" x2="-6.750000" y2="-9.250000" spreadMethod="pad" gradientUnits="userSpaceOnUse"><stop id="s25-fill-0" offset="11%" stop-color="rgb(76,126,176)"/><stop id="s25-fill-1" offset="94%" stop-color="rgb(86,133,176)"/></linearGradient><linearGradient id="s27-fill" x1="56.800000" y1="64.080000" x2="19.300000" y2="-13.420000" spreadMethod="pad" gradientUnits="userSpaceOnUse"><stop id="s27-fill-0" offset="10%" stop-color="rgb(92,143,191)"/><stop id="s27-fill-1" offset="94%" stop-color="rgb(113,160,204)"/></linearGradient><linearGradient id="s29-fill" x1="12.580000" y1="-37.440000" x2="53.080000" y2="18.060000" spreadMethod="pad" gradientUnits="userSpaceOnUse"><stop id="s29-fill-0" offset="11%" stop-color="rgb(76,126,176)"/><stop id="s29-fill-1" offset="94%" stop-color="rgb(86,133,176)"/></linearGradient><linearGradient id="s31-fill" x1="2.770000" y1="-50.890000" x2="43.270000" y2="4.610000" spreadMethod="pad" gradientUnits="userSpaceOnUse"><stop id="s31-fill-0" offset="11%" stop-color="rgb(76,126,176)"/><stop id="s31-fill-1" offset="94%" stop-color="rgb(86,133,176)"/></linearGradient></defs><g id="s3"><g id="s5"><path id="s7" d="M200,125.370000C147.480000,125.370000,118.120000,163.370000,120.210000,205.160000C122.830000,257.520000,168.640000,256.030000,170.730000,293.660000L229.260000,293.660000C231.350000,256.030000,277.160000,257.530000,279.780000,205.160000C281.880000,163.350000,252.520000,125.370000,200,125.370000Z" fill="url(#s7-fill)" stroke="none" stroke-width="1"/><path id="s9" d="M212.070000,289.350000L212.070000,201.490000C212.070000,192.410439,219.430439,185.050000,228.510000,185.050000C237.589561,185.050000,244.950000,192.410439,244.950000,201.490000C244.950000,210.569561,237.589561,217.930000,228.510000,217.930000L171.510000,217.930000C162.430439,217.930000,155.070000,210.569561,155.070000,201.490000C155.070000,192.410439,162.430439,185.050000,171.510000,185.050000C180.589561,185.050000,187.950000,192.410439,187.950000,201.490000L187.950000,289.350000" fill="none" stroke="rgb(249,169,80)" stroke-width="12" stroke-miterlimit="10"/></g><g id="s11"><line id="s13" x1="200" y1="90.100000" x2="200" y2="50.050000" fill="none" stroke="rgb(250,199,112)" stroke-width="14" stroke-linecap="round" stroke-miterlimit="10"/><line id="s15" x1="133.820000" y1="106.190000" x2="108.070000" y2="75.500000" fill="none" stroke="rgb(250,199,112)" stroke-width="14" stroke-linecap="round" stroke-miterlimit="10"/><line id="s17" x1="98.610000" y1="167.180000" x2="59.160000" y2="160.230000" fill="none" stroke="rgb(250,199,112)" stroke-width="14" stroke-linecap="round" stroke-miterlimit="10"/><line id="s19" x1="266.180000" y1="106.190000" x2="291.930000" y2="75.500000" fill="none" stroke="rgb(250,199,112)" stroke-width="14" stroke-linecap="round" stroke-miterlimit="10"/><line id="s21" x1="301.390000" y1="167.180000" x2="340.840000" y2="160.230000" fill="none" stroke="rgb(250,199,112)" stroke-width="14" stroke-linecap="round" stroke-miterlimit="10"/></g><g id="s23"><ellipse id="s25" rx="31.380000" ry="14.950000" transform="translate(200,335.010000)" fill="url(#s25-fill)" stroke="none" stroke-width="1"/><rect id="s27" width="76.760000" height="52.040000" rx="3.610000" ry="3.610000" transform="translate(161.620000,286.380000)" fill="url(#s27-fill)" stroke="none" stroke-width="1"/><rect id="s29" width="88.320000" height="11.660000" rx="5.830000" ry="5.830000" transform="translate(155.840000,296.270000)" fill="url(#s29-fill)" stroke="none" stroke-width="1"/><rect id="s31" width="88.320000" height="11.660000" rx="5.830000" ry="5.830000" transform="translate(155.840000,316.870000)" fill="url(#s31-fill)" stroke="none" stroke-width="1"/></g></g></svg>