<svg id="s1" xmlns="http://www.w3.org/2000/svg" xmlns:xlink="http://www.w3.org/1999/xlink" viewBox="0 0 400 400"><g id="s3"><path id="s5" d="M168.540000,177.050000C160.160000,172.850000,145.320000,164.150000,143.540000,162.220000C141.760000,160.290000,144.980000,146.540000,144.730000,144.880000C144.440000,142.940000,123.090000,128,123.090000,128" fill="none" stroke="rgb(110,85,94)" stroke-width="7" stroke-linecap="round" stroke-miterlimit="10"/><path id="s7" d="M172.450000,185.760000C172.380000,186.490000,132.020000,189.290000,132.020000,189.290000L109.160000,211.550000" fill="none" stroke="rgb(110,85,94)" stroke-width="7" stroke-linecap="round" stroke-miterlimit="10"/><path id="s9" d="M136.780000,98C148.210000,98,179.890000,111.720000,187.020000,141.850000" fill="none" stroke="rgb(110,85,94)" stroke-width="7" stroke-linecap="round" stroke-miterlimit="10"/><path id="s11" d="M231.460000,177.050000C239.840000,172.850000,254.680000,164.150000,256.460000,162.220000C258.240000,160.290000,255.020000,146.540000,255.270000,144.880000C255.560000,142.940000,276.910000,128,276.910000,128" fill="none" stroke="rgb(110,85,94)" stroke-width="7" stroke-linecap="round" stroke-miterlimit="10"/><path id="s13" d="M227.550000,185.760000C227.620000,186.490000,267.980000,189.290000,267.980000,189.290000L290.840000,211.550000" fill="none" stroke="rgb(110,85,94)" stroke-width="7" stroke-linecap="round" stroke-miterlimit="10"/><path id="s15" d="M263.220000,98C251.790000,98,220.110000,111.720000,212.980000,141.850000" fill="none" stroke="rgb(110,85,94)" stroke-width="7" stroke-linecap="round" stroke-miterlimit="10"/><g id="s17"><path id="s19" d="M236.780000,196.920000L200,199.550000L163.220000,196.920000C141.570000,236.880000,142.760000,322,200,322C257.240000,322,258.430000,236.880000,236.780000,196.920000Z" fill="rgb(237,175,59)" stroke="none" stroke-width="1"/><path id="s21" d="M151.630000,234.380000C150.330886,243.408254,149.948940,252.544819,150.490000,261.650000C164.760000,266.500000,181.740000,269.330000,199.990000,269.330000C218.240000,269.330000,235.220000,266.500000,249.490000,261.650000C250.031060,252.544819,249.649114,243.408254,248.350000,234.380000C232.710124,239.338604,216.386662,241.802140,199.980000,241.680000C183.580039,241.800038,167.263489,239.336526,151.630000,234.380000Z" fill="rgb(110,85,94)" stroke="none" stroke-width="1"/><path id="s23" d="M152.170000,275.190000C154.440000,287.190000,158.780000,298.190000,165.620000,306.430000C188.294603,311.140541,211.695397,311.140541,234.370000,306.430000C241.210000,298.150000,245.560000,287.210000,247.820000,275.190000C232.344819,280.025072,216.212509,282.427038,200,282.310000C183.784141,282.428075,167.648378,280.026096,152.170000,275.190000Z" fill="rgb(110,85,94)" stroke="none" stroke-width="1"/></g><g id="s25"><path id="s27" d="M238.700000,185.340000C266.890000,210.470000,306.530000,243.930000,318.760000,274.480000C330.990000,305.030000,314.380000,316.080000,299.710000,314.610000C285.040000,313.140000,274.610000,291.820000,258.880000,291.610000C243.150000,291.400000,222.410000,302.480000,222.450000,260.120000C222.490000,217.760000,221.640000,208.350000,222.450000,191.910000C223.260000,175.470000,238.700000,185.340000,238.700000,185.340000Z" fill="rgb(255,235,210)" stroke="none" stroke-width="1"/><path id="s29" d="M271.790000,296.360000C268.808965,294.186013,265.400579,292.669282,261.790000,291.910000C255.850000,256.080000,235.990000,211.480000,224.090000,185.500000C226.200000,182.040000,229.920000,182.040000,233.090000,182.900000C240.520000,199.150000,250.750000,222.100000,258.970000,245.900000C275.070000,251.660000,303.970000,270.960000,322.300000,286.420000C323.151555,290.540988,323.212637,294.786218,322.480000,298.930000C308.280000,285.680000,280.780000,266.270000,262.820000,257.600000C267,270.890000,270.240000,284.160000,271.790000,296.360000Z" fill="rgb(222,198,169)" stroke="none" stroke-width="1"/></g><g id="s31"><path id="s33" d="M161.300000,185.340000C133.110000,210.470000,93.470000,243.930000,81.240000,274.480000C69.010000,305.030000,85.620000,316.080000,100.290000,314.610000C114.960000,313.140000,125.390000,291.820000,141.120000,291.610000C156.850000,291.400000,177.590000,302.480000,177.550000,260.120000C177.510000,217.760000,178.360000,208.350000,177.550000,191.910000C176.740000,175.470000,161.300000,185.340000,161.300000,185.340000Z" fill="rgb(255,235,210)" stroke="none" stroke-width="1"/><path id="s35" d="M128.210000,296.360000C131.191035,294.186013,134.599421,292.669282,138.210000,291.910000C144.150000,256.080000,164.010000,211.480000,175.910000,185.500000C173.800000,182.040000,170.080000,182.040000,166.910000,182.900000C159.480000,199.150000,149.250000,222.100000,141.030000,245.900000C124.930000,251.660000,96.030000,270.960000,77.700000,286.420000C76.848445,290.540988,76.787363,294.786218,77.520000,298.930000C91.720000,285.680000,119.220000,266.270000,137.180000,257.600000C133,270.890000,129.760000,284.160000,128.210000,296.360000Z" fill="rgb(222,198,169)" stroke="none" stroke-width="1"/></g><ellipse id="s37" rx="27.840000" ry="28.710000" transform="translate(200,160.630000)" fill="rgb(237,175,59)" stroke="none" stroke-width="1"/><ellipse id="s39" rx="46.640000" ry="33.600000" transform="translate(200,185.340000)" fill="rgb(110,85,94)" stroke="none" stroke-width="1"/></g></svg>