<svg id="s1" xmlns="http://www.w3.org/2000/svg" xmlns:xlink="http://www.w3.org/1999/xlink" viewBox="0 0 400 400"><g id="s3"><g id="s5"><path id="s7" d="M163,175.480000C140,178.710000,127.510000,178,125,143.920000C122.490000,109.840000,118.850000,99.670000,103.750000,99.210000C88.650000,98.750000,77.750000,138,87.750000,182.950000C97.750000,227.900000,136.950000,233.610000,162.990000,227.500000C205.140000,217.610000,184.580000,172.440000,163,175.480000Z" fill="rgb(71,150,77)" stroke="none" stroke-width="1"/><path id="s9" d="M110.130000,109.070000C115.830000,134.070000,107.130000,195.600000,153.680000,191.600000" fill="none" stroke="rgb(92,173,98)" stroke-width="4" stroke-linecap="round" stroke-miterlimit="10"/><path id="s11" d="M97.490000,111.180000C90.400000,142.280000,97.120000,219.400000,155.490000,212" fill="none" stroke="rgb(92,173,98)" stroke-width="4" stroke-linecap="round" stroke-miterlimit="10"/><path id="s13" d="M92.320000,75.720000C86.170000,77.670000,86.220000,100.500000,104.750000,101.300000C130.920000,102.420000,122.890000,78.910000,118.120000,78.720000C113.350000,78.530000,110.430000,87.660000,110.430000,87.660000C111.170000,72.070000,101.430000,74.310000,99.760000,85.790000C99,75.380000,94.160000,75.130000,92.320000,75.720000Z" fill="rgb(253,177,148)" stroke="none" stroke-width="1"/></g><g id="s15"><path id="s17" d="M230.290000,239.220000C250.600000,239.910000,273.290000,237.760000,270.670000,201.610000C266.600000,146.270000,270.770000,119.130000,290.900000,121.490000C311.030000,123.850000,314.760000,179.120000,316.030000,205.880000C317.300000,232.640000,309.460000,297.320000,234.210000,289.820000C214.580000,287.540000,205.180000,236.130000,230.290000,239.220000Z" fill="rgb(71,150,77)" stroke="none" stroke-width="1"/><path id="s19" d="M235.590000,255.720000C314.230000,255.720000,265.590000,185.090000,281.510000,132.720000" fill="none" stroke="rgb(92,173,98)" stroke-width="4" stroke-linecap="round" stroke-miterlimit="10"/><path id="s21" d="M239.390000,279.330000C263.800000,283.530000,306.790000,266.840000,302.210000,194.220000C301.520000,181.910000,293.810000,132.720000,293.810000,132.720000" fill="none" stroke="rgb(92,173,98)" stroke-width="4" stroke-linecap="round" stroke-miterlimit="10"/><path id="s23" d="M287.800000,109.060000C287.260000,98.960000,276.900000,96.560000,276.600000,104.370000C276.300000,112.180000,277.550000,118.370000,288.700000,121.900000C299.850000,125.430000,312.150000,115.640000,310.200000,109.330000C308.250000,103.020000,300.720000,105.530000,298.560000,109.530000C300.620000,95.510000,288.480000,97.700000,287.800000,109.060000Z" fill="rgb(253,177,148)" stroke="none" stroke-width="1"/></g><g id="s25"><path id="s27" d="M154.550000,363.570000C154.950000,229.570000,147.550000,112.340000,168.160000,82.380000C188.770000,52.420000,233.260000,59.380000,235.160000,100.960000C237.060000,142.540000,242.160000,350.720000,242.160000,362.750000C242.200000,369.180000,155.480000,371.760000,154.550000,363.570000Z" fill="rgb(71,150,77)" stroke="none" stroke-width="1"/><path id="s29" d="M190.600000,71.300000C171.760000,90.640000,181.360000,159.880000,180.940000,362.750000" fill="none" stroke="rgb(92,173,98)" stroke-width="4" stroke-linecap="round" stroke-miterlimit="10"/><path id="s31" d="M206.170000,69.670000C220.170000,81.670000,214.930000,358.300000,215.370000,361.780000" fill="none" stroke="rgb(92,173,98)" stroke-width="4" stroke-linecap="round" stroke-miterlimit="10"/><line id="s33" x1="235.620000" y1="85.180000" x2="242.200000" y2="79.830000" fill="none" stroke="rgb(92,173,98)" stroke-width="4" stroke-linecap="round" stroke-miterlimit="10"/><line id="s35" x1="239.390000" y1="115.620000" x2="248.150000" y2="110.970000" fill="none" stroke="rgb(92,173,98)" stroke-width="4" stroke-linecap="round" stroke-miterlimit="10"/><line id="s37" x1="241" y1="156.270000" x2="248.150000" y2="155.370000" fill="none" stroke="rgb(92,173,98)" stroke-width="4" stroke-linecap="round" stroke-miterlimit="10"/><line id="s39" x1="243.770000" y1="199" x2="251.190000" y2="199" fill="none" stroke="rgb(92,173,98)" stroke-width="4" stroke-linecap="round" stroke-miterlimit="10"/><line id="s41" x1="213.370000" y1="63.060000" x2="215.550000" y2="57.530000" fill="none" stroke="rgb(92,173,98)" stroke-width="4" stroke-linecap="round" stroke-miterlimit="10"/><line id="s43" x1="182.990000" y1="57.530000" x2="186.060000" y2="63.060000" fill="none" stroke="rgb(92,173,98)" stroke-width="4" stroke-linecap="round" stroke-miterlimit="10"/><line id="s45" x1="157.750000" y1="75.540000" x2="162.960000" y2="79.830000" fill="none" stroke="rgb(92,173,98)" stroke-width="4" stroke-linecap="round" stroke-miterlimit="10"/><line id="s47" x1="143.310000" y1="109.070000" x2="151.080000" y2="113.300000" fill="none" stroke="rgb(92,173,98)" stroke-width="4" stroke-linecap="round" stroke-miterlimit="10"/><line id="s49" x1="139.330000" y1="147.140000" x2="147.200000" y2="147.790000" fill="none" stroke="rgb(92,173,98)" stroke-width="4" stroke-linecap="round" stroke-miterlimit="10"/><line id="s51" x1="247.390000" y1="298.840000" x2="256.300000" y2="298.840000" fill="none" stroke="rgb(92,173,98)" stroke-width="4" stroke-linecap="round" stroke-miterlimit="10"/><line id="s53" x1="246.100000" y1="331.560000" x2="254.490000" y2="333.360000" fill="none" stroke="rgb(92,173,98)" stroke-width="4" stroke-linecap="round" stroke-miterlimit="10"/><line id="s55" x1="244.570000" y1="229.540000" x2="250.300000" y2="229.540000" fill="none" stroke="rgb(92,173,98)" stroke-width="4" stroke-linecap="round" stroke-miterlimit="10"/><line id="s57" x1="136.160000" y1="250.610000" x2="142.510000" y2="249.740000" fill="none" stroke="rgb(92,173,98)" stroke-width="4" stroke-linecap="round" stroke-miterlimit="10"/><path id="s59" d="M133,285.220000L143.310000,285.220000" fill="none" stroke="rgb(92,173,98)" stroke-width="4" stroke-linecap="round" stroke-miterlimit="10"/><line id="s61" x1="133.960000" y1="328.540000" x2="144.710000" y2="327.620000" fill="none" stroke="rgb(92,173,98)" stroke-width="4" stroke-linecap="round" stroke-miterlimit="10"/></g></g></svg>