<svg id="s1" xmlns="http://www.w3.org/2000/svg" xmlns:xlink="http://www.w3.org/1999/xlink" viewBox="0 0 400 400"><g id="s3"><g id="s5"><path id="s7" d="M157.650000,296.200000C153.730000,270.040000,153.120000,246.940000,130.400000,249.670000C118.190000,251.140000,113.530000,255.380000,116.100000,276.150000C117.250000,285.460000,120.100000,297.570000,120.450000,301.050000C121.450000,311.050000,123.670000,315.970000,131.840000,320.230000C150.740000,330.090000,160.050000,312.210000,157.650000,296.200000Z" fill="rgb(136,141,171)" stroke="none" stroke-width="1"/><path id="s9" d="M138.300000,293C132.550000,293.140000,127.920000,296.780000,121.520000,304.190000C118.340000,307.870000,108.520000,325.260000,102.330000,329.190000C88.840000,337.750000,83.890000,352.190000,99.130000,356.300000C115.360000,360.620000,126.260000,354.510000,134.280000,338.970000C141.280000,325.380000,154.380000,319.420000,156.340000,309.070000C158,300.390000,150.240000,292.700000,138.300000,293Z" fill="rgb(136,141,171)" stroke="none" stroke-width="1"/></g><path id="s11" d="M315.270000,293.640000C331.350000,271.130000,368.940000,282.390000,363.830000,314.090000C358.320000,348.310000,307.410000,341.490000,309.910000,315.600000C309.820000,301.500000,315.270000,293.640000,315.270000,293.640000Z" fill="rgb(171,176,209)" stroke="none" stroke-width="1"/><path id="s13" d="M149.870000,194.670000C162.870000,209.250000,178.300000,224.610000,210.160000,210.360000C242.020000,196.110000,286.160000,200.180000,309.040000,225.110000C337.780000,256.480000,337.040000,346.520000,267.390000,350.810000C209.870000,354.380000,147.990000,345.920000,131.390000,288.880000C127.460000,275.370000,106.470000,256.490000,104.560000,238.150000C100.520000,198.920000,136.590000,179.720000,149.870000,194.670000Z" fill="rgb(147,151,179)" stroke="none" stroke-width="1"/><g id="s15"><path id="s17" d="M168.090000,289.140000C158,264.680000,151.900000,242.400000,130.500000,250.490000C119,254.840000,115.500000,260.070000,122.950000,279.630000C126.290000,288.390000,131.950000,299.470000,133.130000,302.770000C136.470000,312.280000,139.820000,316.480000,148.780000,318.660000C169.490000,323.700000,174.250000,304.110000,168.090000,289.140000Z" fill="rgb(147,151,179)" stroke="none" stroke-width="1"/><path id="s19" d="M148.530000,290.650000C142.980000,292.160000,139.350000,296.800000,134.920000,305.530000C132.720000,309.860000,127.330000,329.100000,122.270000,334.380000C111.270000,345.920000,109.890000,361.170000,125.650000,361.470000C142.440000,361.790000,151.560000,353.240000,155.650000,336.240000C159.210000,321.370000,170.480000,312.450000,169.910000,301.930000C169.410000,293.130000,160.060000,287.520000,148.530000,290.650000Z" fill="rgb(147,151,179)" stroke="none" stroke-width="1"/></g><g id="s21"><path id="s23" d="M178.870000,362.520000C191.300000,362.310000,254.180000,360.220000,277.760000,360.750000C301.340000,361.280000,299.910000,339.840000,290.860000,338.650000C281.810000,337.460000,201.630000,339,190.670000,340C179.710000,341,169.610000,346.270000,170.090000,354C170.570000,361.730000,173.820000,362.610000,178.870000,362.520000Z" fill="rgb(147,151,179)" stroke="none" stroke-width="1"/><path id="s25" d="M216.310000,339C189.430000,316.130000,200.310000,258.660000,253.400000,266C306.490000,273.340000,315.470000,302.130000,296.960000,348.600000C291.500000,362.340000,243.940000,362.530000,216.310000,339Z" fill="rgb(147,151,179)" stroke="none" stroke-width="1"/></g><g id="s27"><g id="s29"><path id="s31" d="M114.860000,185.950000C121.230000,170.890000,121.700000,166.950000,111.960000,135.590000C102.220000,104.230000,121.640000,73.350000,137.240000,75.940000C152.840000,78.530000,146.090000,149.810000,144.620000,169.270000C143.150000,188.730000,154,204.140000,135.350000,209.110000C116.700000,214.080000,106.400000,206,114.860000,185.950000Z" fill="rgb(136,141,171)" stroke="none" stroke-width="1"/><path id="s33" d="M112,135.590000C118.590000,156.840000,120.500000,165.490000,119.070000,173.530000C138.280000,153.190000,134.920000,93.770000,123.500000,81.380000C112.800000,91.370000,105.050000,113.330000,112,135.590000Z" fill="rgb(235,159,132)" stroke="none" stroke-width="1"/></g><path id="s35" d="M103.660000,173.240000C69.190000,175.620000,68.720000,208.240000,64.860000,216.610000C61.280000,224.360000,43.150000,219.660000,51.120000,242.610000C59.090000,265.560000,121,276,142.340000,251.480000C174.860000,214.080000,146.700000,170.270000,103.660000,173.240000Z" fill="rgb(147,151,179)" stroke="none" stroke-width="1"/><path id="s37" d="M88.680000,205.400000C83.490000,203.090000,82.020000,215.310000,87.200000,218.120000C93.360000,221.470000,94,207.760000,88.680000,205.400000Z" fill="rgb(74,52,48)" stroke="none" stroke-width="1"/><g id="s39"><path id="s41" d="M119.530000,180.940000C133.130000,171.850000,135.140000,167.360000,138.400000,134.640000C141.660000,101.920000,171.550000,81.080000,184.910000,89.540000C198.270000,98,164.300000,161,155.380000,178.380000C146.460000,195.760000,150.440000,214.150000,131.380000,211.470000C112.320000,208.790000,103,192,119.530000,180.940000Z" fill="rgb(147,151,179)" stroke="none" stroke-width="1"/><path id="s43" d="M169.160000,89.550000C155.690000,95,140.650000,112,138.400000,134.640000C136.070000,158.040000,134.310000,166.900000,128.570000,173.440000C154.280000,164.890000,175.230000,105,169.160000,89.550000Z" fill="rgb(253,177,148)" stroke="none" stroke-width="1"/></g><path id="s45" d="M55,223.120000C50.310000,225.680000,46.710000,229.900000,51.130000,242.600000C51.310000,243.120000,51.550000,243.600000,51.790000,244.140000C54.700000,240.210000,61.310000,232.330000,61.600000,229.680000C61.850000,227.430000,59.110000,223.610000,55,223.120000Z" fill="rgb(171,176,209)" stroke="none" stroke-width="1"/></g></g></svg>