<svg id="s1" xmlns="http://www.w3.org/2000/svg" xmlns:xlink="http://www.w3.org/1999/xlink" viewBox="0 0 400 400"><g id="s3"><path id="s5" d="M343.780000,205.450000C354.600000,210,369.200000,227.650000,374.430000,253C379.660000,278.350000,383,299,387.790000,308.270000C392.580000,317.540000,392.030000,337.270000,381.920000,314.540000C371.810000,291.810000,366.810000,233.060000,346.920000,225.920000C338.610000,223.100000,329.560000,200.210000,343.780000,205.450000Z" fill="rgb(141,180,199)" stroke="none" stroke-width="1"/><g id="s7"><path id="s9" d="M250.880000,256.890000C251.410000,277.400000,256.390000,307.040000,257.010000,319.890000C257.630000,332.740000,272.230000,340.100000,286.480000,340.460000C301.640000,340.850000,315.080000,344.110000,317.430000,325.980000C319.780000,307.850000,330.430000,247.320000,320.910000,218.780000C311.390000,190.240000,249.210000,193,250.880000,256.890000Z" fill="rgb(107,154,176)" stroke="none" stroke-width="1"/><path id="s11" d="M256.360000,305.420000C258.220000,332.160000,259.180000,359.310000,260.490000,367.650000C261.320000,372.970000,302.790000,373.650000,310.110000,367.700000C314,363.630000,316.900000,331.370000,318.110000,318.420000C322.090000,275.390000,253.570000,265.240000,256.360000,305.420000Z" fill="rgb(107,154,176)" stroke="none" stroke-width="1"/></g><g id="s13"><path id="s15" d="M117.650000,255C119.760000,267.330000,123,285.860000,124.390000,301.420000C125.780000,316.980000,126.530000,323.580000,135.450000,324.510000C144.370000,325.440000,158.300000,326.080000,161.980000,326.250000C165.660000,326.420000,172.810000,325.690000,173.230000,310.750000C173.650000,295.810000,174.410000,268,174.230000,260.900000C174.050000,253.800000,165.740000,239.240000,145.510000,238.050000C125.280000,236.860000,114.390000,235.890000,117.650000,255Z" fill="rgb(107,154,176)" stroke="none" stroke-width="1"/><path id="s17" d="M125.380000,308.540000C127.460000,324.540000,131.380000,350.300000,131.800000,357.940000C132.220000,365.580000,131.440000,371.580000,138.800000,372.180000C146.160000,372.780000,155.970000,371.670000,159.910000,371.850000C163.850000,372.030000,171.100000,374.440000,171.530000,359.500000C171.960000,344.560000,173.390000,313.370000,173.310000,309.430000C173.230000,305.490000,159.310000,304.060000,147.750000,303.800000C136.190000,303.540000,124.210000,299.550000,125.380000,308.540000Z" fill="rgb(107,154,176)" stroke="none" stroke-width="1"/><path id="s19" d="M130.290000,358.070000C125.290000,360.170000,118.440000,366.200000,118.440000,370.400000C118.440000,374.600000,144.240000,371.970000,150.820000,372.240000C157.400000,372.510000,170.040000,374.600000,168.720000,360.700000C167.660000,356.760000,140,355.450000,130.290000,358.070000Z" fill="rgb(107,154,176)" stroke="none" stroke-width="1"/></g><path id="s21" d="M128.580000,93.680000C139.810000,94.030000,159.770000,93.500000,202.240000,118.770000C244.710000,144.040000,297.700000,147.200000,320.520000,166.500000C343.340000,185.800000,351.050000,206.500000,356.320000,233.190000C361.590000,259.880000,360.180000,289.700000,317.320000,292.500000C273.120000,295.400000,157.630000,298.500000,136.040000,283.200000C116.340000,269.260000,108.400000,237.660000,107.040000,195.280000C106,159.710000,90,92.280000,128.580000,93.680000Z" fill="rgb(141,180,199)" stroke="none" stroke-width="1"/><path id="s23" d="M46.670000,201.470000C47.230000,216.610000,61.150000,262.320000,56.940000,280.750000C52.730000,299.180000,29.300000,304.750000,20.090000,287.330000C16.400000,282.590000,5.610000,294.170000,9.560000,301.330000C13.510000,308.490000,26.410000,330.810000,60.100000,315.810000C93.790000,300.810000,86,252.280000,73.650000,209.900000C70.230000,195.160000,63.120000,195.290000,59.440000,194.760000C55.760000,194.230000,46.370000,193.390000,46.670000,201.470000Z" fill="rgb(141,180,199)" stroke="none" stroke-width="1"/><g id="s25"><path id="s27" d="M141.610000,262.410000C146.870000,273.990000,150.030000,286.890000,152.140000,302.410000C154.250000,317.930000,155.300000,324.520000,164.250000,325.050000C173.200000,325.580000,187.150000,325.580000,190.840000,325.580000C194.530000,325.580000,201.630000,324.530000,201.370000,309.520000C201.110000,294.510000,200.580000,266.610000,200.050000,259.520000C199.520000,252.430000,190.570000,238.200000,170.300000,237.940000C150.030000,237.680000,132.390000,245.300000,141.610000,262.410000Z" fill="rgb(141,180,199)" stroke="none" stroke-width="1"/><path id="s29" d="M153.450000,309.530000C156.260000,325.480000,161.350000,351.120000,162.140000,358.750000C162.930000,366.380000,162.400000,372.440000,169.770000,372.750000C177.140000,373.060000,186.880000,372.750000,190.830000,372.750000C194.780000,372.750000,202.150000,373.540000,201.890000,358.540000C201.630000,343.540000,201.630000,312.210000,201.360000,308.260000C201.090000,304.310000,187.150000,303.520000,175.560000,303.790000C163.970000,304.060000,151.870000,300.580000,153.450000,309.530000Z" fill="rgb(141,180,199)" stroke="none" stroke-width="1"/><path id="s31" d="M163.190000,358.490000C158.190000,360.600000,151.340000,366.650000,151.340000,370.860000C151.340000,375.070000,177.140000,372.440000,183.720000,372.700000C190.300000,372.960000,202.940000,375.070000,201.620000,361.120000C200.570000,357.170000,172.930000,355.860000,163.190000,358.490000Z" fill="rgb(141,180,199)" stroke="none" stroke-width="1"/></g><g id="s33"><path id="s35" d="M112.910000,94.210000C92.470000,96.740000,53.080000,100.210000,47.100000,143.700000C42.980000,173.700000,45.610000,203.320000,48.900000,212.400000C52,220.830000,80.800000,221.080000,95,222.660000C109.200000,224.240000,153.440000,231.610000,174,198.970000C194.560000,166.330000,173.610000,106.660000,155.310000,98.970000C144.370000,94.340000,123.650000,92.880000,112.910000,94.210000Z" fill="rgb(141,180,199)" stroke="none" stroke-width="1"/><path id="s37" d="M22.710000,221.430000C31.840000,246.520000,84.310000,254.070000,96.590000,208.090000C100.590000,198.260000,77.190000,190.770000,76.190000,197.770000C70.690000,219.270000,47.390000,229.090000,27.450000,217.650000C24.340000,215.880000,21.360000,217.730000,22.710000,221.430000Z" fill="rgb(230,210,182)" stroke="none" stroke-width="1"/><ellipse id="s39" rx="4.210000" ry="7.110000" transform="translate(68.430000,168.700000)" fill="rgb(61,43,22)" stroke="none" stroke-width="1"/><path id="s41" d="M133.270000,109.560000C117.750000,122.290000,126.600000,175.560000,132.920000,202.560000C139.240000,229.560000,146.260000,252.050000,164.510000,251.700000C182.760000,251.350000,189.780000,230.990000,192.240000,210.290000C194.700000,189.590000,234.700000,178,235.050000,151C235.400000,124,203.460000,121.170000,184.860000,116.600000C166.260000,112.030000,147,98.330000,133.270000,109.560000Z" fill="rgb(107,154,176)" stroke="none" stroke-width="1"/></g><g id="s43"><path id="s45" d="M282.570000,259.600000C284.270000,280.020000,290.990000,309.220000,292.340000,322C293.690000,334.780000,308.900000,341,323.340000,340.240000C338.730000,339.450000,352.530000,341.660000,353.890000,323.390000C355.250000,305.120000,362.630000,243.890000,351.370000,216.150000C340.110000,188.410000,277.280000,196,282.570000,259.600000Z" fill="rgb(141,180,199)" stroke="none" stroke-width="1"/><path id="s47" d="M290.870000,307.600000C295.070000,340.600000,297.220000,361.030000,298.560000,369.370000C299.840000,377.370000,346.450000,373.670000,348.490000,370.600000C352.200000,366.230000,353.680000,328.800000,354.170000,315.790000C355.790000,272.530000,285.780000,267.640000,290.870000,307.600000Z" fill="rgb(141,180,199)" stroke="none" stroke-width="1"/></g></g></svg>