<svg id="s1" xmlns="http://www.w3.org/2000/svg" xmlns:xlink="http://www.w3.org/1999/xlink" viewBox="0 0 400 400"><g id="s3"><g id="s5"><path id="s7" d="M205.310000,85.640000C159.650000,44.210000,117.050000,92.480000,129.590000,127.380000C142.130000,162.280000,195.720000,175.380000,196.380000,196.510000C196.380000,210.080000,214.240000,210.080000,214.240000,196.510000C214.890000,175.370000,268.480000,162.280000,281.030000,127.380000C293.580000,92.480000,251,44.210000,205.310000,85.640000Z" fill="rgb(40,133,70)" stroke="none" stroke-width="1"/><path id="s9" d="M108.110000,254.670000C96.110000,315.160000,159.490000,326.760000,182.920000,298.020000C206.350000,269.280000,189.920000,216.620000,207.710000,205.150000C219.340000,198.150000,210.120000,182.850000,198.500000,189.840000C180,200.190000,141.200000,161,104.830000,168.270000C68.460000,175.540000,49.060000,236.910000,108.110000,254.670000Z" fill="rgb(40,133,70)" stroke="none" stroke-width="1"/><path id="s11" d="M302.510000,254.670000C314.510000,315.160000,251.130000,326.760000,227.700000,298.020000C204.270000,269.280000,220.700000,216.620000,202.910000,205.150000C191.280000,198.150000,200.500000,182.850000,212.120000,189.840000C230.570000,200.180000,269.420000,161.020000,305.790000,168.260000C342.160000,175.500000,361.560000,236.910000,302.510000,254.670000Z" fill="rgb(40,133,70)" stroke="none" stroke-width="1"/></g><path id="s13" d="M205.270000,201.660000C206.900000,229.270000,207.860000,305.230000,181.270000,361.720000" fill="none" stroke="rgb(40,133,70)" stroke-width="9" stroke-linecap="round" stroke-miterlimit="10"/></g></svg>