<svg id="s1" xmlns="http://www.w3.org/2000/svg" xmlns:xlink="http://www.w3.org/1999/xlink" viewBox="0 0 400 400"><g id="s3"><g id="s5"><path id="s7" d="M286.240000,340.070000C284.340000,348.350000,265.120000,346.540000,271.110000,355.960000C274.370000,361.080000,296.990000,357.860000,298.110000,353.870000C298.590000,352.180000,300.860000,342.740000,298.590000,338.930000C295.500000,333.710000,285.800000,335.940000,286.240000,340.070000Z" fill="rgb(181,120,51)" stroke="none" stroke-width="1"/><path id="s9" d="M216,221.620000C218.660000,238.750000,230.080000,275.470000,245.300000,289.170000C260.520000,302.870000,283.390000,296,280,277.570000C276,256.220000,279.430000,244.320000,273.340000,222.570000C264.630000,191.500000,209.750000,183.950000,216,221.620000Z" fill="rgb(181,120,51)" stroke="none" stroke-width="1"/><path id="s11" d="M296,309.650000C295.540000,308.270000,295,306.900000,294.500000,305.540000C286.500000,285.850000,280.500000,278.610000,278.230000,272.620000C270.580000,252.540000,229.230000,272.050000,246.640000,289.560000C253.250000,297.500000,270.200000,305.900000,278.410000,317.560000C278.867395,318.006125,279.255067,318.518526,279.560000,319.080000C282.510000,324.350000,296.160000,315.420000,296,309.650000Z" fill="rgb(181,120,51)" stroke="none" stroke-width="1"/><path id="s13" d="M283.580000,307.920000C279.970000,310.580000,276.460000,314.280000,279,318.360000C281.111988,321.369237,282.604279,324.768532,283.390000,328.360000C285.960000,341.490000,285.100000,340.360000,286.240000,345.480000C287.380000,350.600000,299.080000,351.190000,299.660000,344.620000C300.210000,338.340000,302.310000,327.180000,295.500000,308.120000C293,303.330000,286.920000,305.460000,283.580000,307.920000Z" fill="rgb(181,120,51)" stroke="none" stroke-width="1"/></g><g id="s15"><path id="s17" d="M153.140000,294C153.670000,287.710000,146.010000,289.720000,141.850000,289.880000C137.690000,290.040000,130.530000,291.250000,131.450000,296.140000C133.370000,306.340000,131.530000,336.140000,128.730000,343.640000C126.730000,349.050000,123.790000,358.830000,131.180000,359.560000C138.570000,360.290000,140.790000,359.070000,146.540000,332.680000C149.510000,319,151.760000,310.270000,153.140000,294Z" fill="rgb(181,120,51)" stroke="none" stroke-width="1"/><path id="s19" d="M127.540000,345.770000C125.070000,353,110.030000,352.430000,114.790000,360.420000C117.900000,365.640000,138.790000,362.640000,140.100000,358.710000C145.810000,342.160000,130.670000,336.630000,127.540000,345.770000Z" fill="rgb(181,120,51)" stroke="none" stroke-width="1"/><path id="s21" d="M153.390000,290C153.790828,276.377226,153.497114,262.742875,152.510000,249.150000C150.580000,225.930000,136.070000,195.150000,118.660000,209.020000C109.790000,216.660000,109.890000,228.890000,123.030000,264.830000C126.738934,275.121873,129.523281,285.723808,131.350000,296.510000C132.210000,302.140000,138.520000,300.070000,142.210000,299.680000C149.540000,298.890000,152.370000,298.300000,153.390000,290Z" fill="rgb(181,120,51)" stroke="none" stroke-width="1"/></g><path id="s23" d="M283,189.230000C309.540000,204.070000,346.080000,192.660000,361.780000,155.230000C366.630000,148.380000,369.780000,208.610000,300.130000,223.730000C268.730000,229.770000,245.330000,177.530000,283,189.230000Z" fill="rgb(227,163,93)" stroke="none" stroke-width="1"/><path id="s25" d="M112.320000,221.340000C116.890000,240.180000,134.070000,270.760000,155,270C189.540000,268.740000,289.290000,269.860000,299,261.870000C308.710000,253.880000,309.560000,238.040000,304.710000,217.780000C299.860000,197.520000,289.300000,188.100000,261.610000,181.780000C233.920000,175.460000,190.160000,176.260000,164.470000,156.660000C146.630000,143.100000,96.910000,156.170000,112.320000,221.340000Z" fill="rgb(210,141,64)" stroke="none" stroke-width="1"/><g id="s27"><path id="s29" d="M137.250000,118.450000C124.730000,94.070000,114.600000,90.190000,92.630000,91.330000C74.750000,92.260000,61.630000,106.220000,58.850000,121.110000C56.950000,131.290000,27.210000,139.230000,24.980000,141.660000C22.250000,144.660000,37.920000,172.870000,55.050000,169.820000C72.180000,166.770000,83.300000,154.760000,93.490000,170.680000C107.190000,192.090000,108.710000,214.870000,115.180000,229.330000C121.650000,243.790000,168.080000,248.830000,187.490000,221.430000C206.900000,194.030000,211.850000,182.760000,194.720000,174.770000C177.590000,166.780000,158.940000,160.690000,137.250000,118.450000Z" fill="rgb(210,141,64)" stroke="none" stroke-width="1"/><path id="s31" d="M125.350000,116.260000C121.260000,99.420000,96.900000,84.960000,93.350000,113.980000C89.600000,144.880000,87.260000,150.510000,103.240000,155.080000C119.220000,159.650000,137.320000,165.500000,125.350000,116.260000Z" fill="rgb(227,163,93)" stroke="none" stroke-width="1"/><path id="s33" d="M56.120000,125.710000C48.310000,133.640000,26.850000,139.610000,24.980000,141.660000C22.250000,144.660000,37.920000,172.870000,55.050000,169.820000C66.820000,167.730000,75.750000,161.400000,83.500000,162.820000C83.280000,143.450000,59.530000,141.890000,56.120000,125.710000Z" fill="rgb(240,226,211)" stroke="none" stroke-width="1"/><path id="s35" d="M28.910000,152.900000C42.670000,145.700000,43.100000,139.520000,39.740000,135.290000C32.610000,138.290000,25.980000,140.560000,24.980000,141.660000C23.980000,142.760000,25.570000,147.580000,28.910000,152.900000Z" fill="rgb(74,52,48)" stroke="none" stroke-width="1"/><circle id="s37" r="1.900000" transform="translate(45.530000,154.220000)" fill="rgb(210,141,64)" stroke="none" stroke-width="1"/><circle id="s39" r="1.900000" transform="translate(56.190000,152.700000)" fill="rgb(210,141,64)" stroke="none" stroke-width="1"/><circle id="s41" r="1.900000" transform="translate(52.380000,160.500000)" fill="rgb(210,141,64)" stroke="none" stroke-width="1"/><path id="s43" d="M69.320000,121.300000C65.980000,119.820000,65.040000,127.670000,68.320000,129.480000C72.330000,131.640000,72.740000,122.820000,69.320000,121.300000Z" fill="rgb(74,52,48)" stroke="none" stroke-width="1"/></g><g id="s45"><path id="s47" d="M183,294.650000C182.910000,288.340000,175.340000,289.130000,171.210000,289.650000C167.080000,290.170000,158.910000,292.530000,160.310000,297.310000C163.220000,307.310000,166.460000,336.680000,164.410000,344.400000C163,350,161,360,168.450000,360C175.900000,360,177.960000,358.570000,181.100000,331.740000C182.720952,319.447075,183.356310,307.044214,183,294.650000Z" fill="rgb(210,141,64)" stroke="none" stroke-width="1"/><path id="s49" d="M164.460000,345.770000C162,353,147,352.430000,151.710000,360.430000C154.820000,365.650000,175.710000,362.650000,177.020000,358.720000C182.730000,342.160000,167.590000,336.630000,164.460000,345.770000Z" fill="rgb(210,141,64)" stroke="none" stroke-width="1"/><path id="s51" d="M183,294.090000C182.859940,280.463025,182.025524,266.852040,180.500000,253.310000C177.650000,230.190000,161.660000,205.220000,144.820000,219.780000C136.260000,227.780000,137.110000,234.780000,151.670000,270.150000C155.787918,280.287931,158.993939,290.772756,161.250000,301.480000C162.330000,307.070000,168.560000,304.750000,172.250000,304.220000C179.540000,303.150000,182.350000,302.440000,183,294.090000Z" fill="rgb(210,141,64)" stroke="none" stroke-width="1"/></g><g id="s53"><path id="s55" d="M315.550000,340.070000C313.650000,348.350000,294.430000,346.540000,300.420000,355.960000C303.680000,361.080000,326.300000,357.860000,327.420000,353.870000C327.900000,352.180000,330.170000,342.740000,327.900000,338.930000C324.810000,333.710000,315.110000,335.940000,315.550000,340.070000Z" fill="rgb(210,141,64)" stroke="none" stroke-width="1"/><path id="s57" d="M245.330000,221.620000C247.990000,238.750000,259.410000,275.470000,274.630000,289.170000C289.850000,302.870000,312.690000,296.020000,309.260000,277.560000C305.260000,256.210000,308.690000,244.310000,302.600000,222.560000C293.930000,191.500000,239.050000,183.950000,245.330000,221.620000Z" fill="rgb(210,141,64)" stroke="none" stroke-width="1"/><path id="s59" d="M325.330000,309.650000C324.870000,308.270000,324.330000,306.900000,323.830000,305.540000C315.830000,285.850000,309.830000,278.610000,307.560000,272.620000C299.910000,252.540000,258.560000,272.050000,275.970000,289.560000C282.580000,297.500000,299.530000,305.900000,307.740000,317.560000C308.197395,318.006125,308.585067,318.518526,308.890000,319.080000C311.810000,324.350000,325.460000,315.420000,325.330000,309.650000Z" fill="rgb(210,141,64)" stroke="none" stroke-width="1"/><path id="s61" d="M312.880000,307.920000C309.270000,310.580000,305.760000,314.280000,308.300000,318.360000C310.411988,321.369237,311.904279,324.768532,312.690000,328.360000C315.260000,341.490000,314.400000,340.360000,315.540000,345.480000C316.680000,350.600000,328.380000,351.190000,328.960000,344.620000C329.510000,338.340000,331.610000,327.180000,324.800000,308.120000C322.320000,303.330000,316.220000,305.460000,312.880000,307.920000Z" fill="rgb(210,141,64)" stroke="none" stroke-width="1"/></g><g id="s63"><path id="s65" d="M96.450000,178.480000C104.900000,176.480000,131.450000,167.830000,154.570000,145.280000C156.390000,143.760000,162.870000,151.600000,161.380000,153.370000C141.900000,176.490000,110.840000,186.190000,100.490000,188.470000C98.130000,188.570000,95.180000,179,96.450000,178.480000Z" fill="rgb(74,52,48)" stroke="none" stroke-width="1"/><path id="s67" d="M102,187.110000C97.220000,186.010000,97.500000,201.400000,100.530000,203.620000C105.490000,207.300000,107.290000,188.340000,102,187.110000Z" fill="rgb(250,179,102)" stroke="none" stroke-width="1"/></g></g></svg>