<svg id="s1" xmlns="http://www.w3.org/2000/svg" xmlns:xlink="http://www.w3.org/1999/xlink" viewBox="0 0 400 400"><g id="s3"><path id="s5" d="M187.350000,283.490000C192.470000,313.040000,199.520000,345.050000,197.350000,347.920000C195.180000,350.790000,178.810000,349.720000,175.990000,352.690000C171.480000,357.450000,192.990000,352.360000,193.570000,354.410000C194.490000,357.580000,176.970000,363.880000,180.420000,365.360000C188.690000,368.910000,199.580000,353.790000,207.520000,355.890000C221.210000,359.510000,222.230000,358.010000,219.520000,355.890000C216.420000,353.560000,206.280000,353.080000,205.580000,349.070000C204.950000,345.490000,200.060000,290.600000,199.290000,280.530000C198.520000,270.460000,184.610000,266.920000,187.350000,283.490000Z" fill="rgb(237,171,45)" stroke="none" stroke-width="1"/><path id="s7" d="M229.160000,283.490000C234.280000,313.040000,241.330000,345.050000,239.160000,347.920000C236.990000,350.790000,220.620000,349.720000,217.800000,352.690000C213.290000,357.450000,234.800000,352.360000,235.380000,354.410000C236.300000,357.580000,218.780000,363.880000,222.230000,365.360000C230.500000,368.910000,241.390000,353.790000,249.330000,355.890000C263.020000,359.510000,264.040000,358.010000,261.330000,355.890000C258.230000,353.560000,248.090000,353.080000,247.390000,349.070000C246.760000,345.490000,241.870000,290.600000,241.100000,280.530000C240.330000,270.460000,226.420000,266.920000,229.160000,283.490000Z" fill="rgb(237,171,45)" stroke="none" stroke-width="1"/><path id="s9" d="M99.730000,87.270000C95.730000,92.690000,94.200000,95.100000,87.500000,96.040000C80.800000,96.980000,74.920000,99.180000,81.710000,102.780000C88.500000,106.380000,95.880000,106.980000,100.350000,108.060000C104.820000,109.140000,107.410000,87.920000,99.730000,87.270000Z" fill="rgb(237,171,45)" stroke="none" stroke-width="1"/><path id="s11" d="M109,70.820000C108.320000,67.490000,104.570000,47.400000,111.640000,45.150000C118.710000,42.900000,120.770000,50.690000,120.770000,50.690000C131.050000,37.690000,151.070000,37.620000,137.770000,54.220000C175.820000,33.470000,178.380000,70.020000,141.380000,77.080000C131.660000,81.540000,110.610000,79.250000,109,70.820000Z" fill="rgb(212,59,71)" stroke="none" stroke-width="1"/><path id="s13" d="M117.770000,65.240000C98.770000,70.820000,93.130000,91.010000,99.100000,108.840000C108.100000,135.840000,100.620000,211.670000,114.350000,245.170000C128.080000,278.670000,153.920000,279.800000,153.920000,279.800000C174.840000,307.570000,260.450000,333.270000,288.060000,266.290000C306.610000,221.290000,336.890000,209.170000,339.910000,189.930000C342.010000,176.570000,324.910000,182.870000,324.910000,182.870000C341.120000,167.610000,352.510000,138.950000,320.660000,152.430000C288.810000,165.910000,238.920000,188,198,163C157.080000,138,149.510000,94.590000,144.670000,80.570000C139.830000,66.550000,127.140000,62.490000,117.770000,65.240000Z" fill="rgb(255,233,200)" stroke="none" stroke-width="1"/><path id="s15" d="M109.750000,86.160000C105,84.050000,103.660000,95.230000,108.400000,97.800000C114,100.850000,114.620000,88.320000,109.750000,86.160000Z" fill="rgb(74,52,48)" stroke="none" stroke-width="1"/><path id="s17" d="M176.720000,193.300000C160.890000,182.970000,141.560000,174.810000,153.930000,212.440000C166.300000,250.070000,200.350000,292.740000,246.440000,281.020000C284.540000,271.380000,294.440000,248.120000,260.440000,256.780000C294.650000,240.330000,288.150000,228.640000,277.980000,232.530000C304.830000,215.860000,301.260000,205.720000,297.980000,206.220000C294.700000,206.720000,232.820000,228.530000,176.720000,193.300000Z" fill="rgb(255,248,237)" stroke="none" stroke-width="1"/></g></svg>