<svg id="s1" xmlns="http://www.w3.org/2000/svg" xmlns:xlink="http://www.w3.org/1999/xlink" viewBox="0 0 400 400"><g id="s3"><path id="s5" d="M252.240000,153.280000C247.586321,153.283445,242.961337,154.008734,238.530000,155.430000C226.487925,118.499906,191.612934,93.869814,152.782015,94.871396C113.951096,95.872978,80.392223,122.268213,70.270000,159.770000C68.740192,159.543184,67.196477,159.422895,65.650000,159.410000C48.490000,159.410000,33.160000,173.260000,32.650000,192.950000C32.614940,194.065157,33.031463,195.147259,33.805184,195.951100C34.578904,196.754941,35.644318,197.212466,36.760000,197.220000L292.860000,197.220000C294.047194,197.213329,295.174101,196.696084,295.953172,195.800248C296.732243,194.904412,297.088122,193.716635,296.930000,192.540000C294.015115,170.082740,274.885641,153.277568,252.240000,153.280000Z" fill="rgb(154,225,240)" stroke="none" stroke-width="1"/><path id="s7" d="M292.890000,245.330000C273.563896,192.564148,219.170427,161.263656,163.838611,171.067923C108.506796,180.872190,68.179515,228.956290,68.160000,285.150000C68.161775,289.537607,68.415526,293.921491,68.920000,298.280000C69.371655,302.192060,72.681957,305.145537,76.620000,305.150000L358.430000,305.150000C361.824397,305.194298,364.836550,302.982121,365.810000,299.730000C374.060000,270.060000,349.610000,224.060000,292.890000,245.330000Z" fill="rgb(103,200,219)" stroke="none" stroke-width="1"/></g></svg>