<svg id="s1" xmlns="http://www.w3.org/2000/svg" xmlns:xlink="http://www.w3.org/1999/xlink" viewBox="0 0 400 400"><g id="s3"><path id="s5" d="M345.500000,200.110000C353.830000,203.110000,371.330000,206.110000,374,224.440000C376.670000,242.770000,358,241.330000,350.170000,236.110000C340.170000,229.440000,330.170000,193.440000,345.500000,200.110000Z" fill="rgb(112,68,45)" stroke="none" stroke-width="1"/><g id="s7"><path id="s9" d="M263.750000,370.940000C266.750000,365.610000,277.580000,362.110000,287.080000,362.270000C296.580000,362.430000,315.750000,359.940000,316.250000,362.270000C316.750000,364.600000,319.080000,371.100000,315.080000,371.270000C311.080000,371.440000,258.920000,377.440000,263.750000,370.940000Z" fill="rgb(112,68,45)" stroke="none" stroke-width="1"/><path id="s11" d="M325.110000,303.070000C328.810000,281.850000,335.530000,260.990000,321.220000,237.070000C306.910000,213.150000,278,211.210000,264.370000,236C250.740000,260.790000,261.020000,311.380000,262.480000,323.260000C263.940000,335.140000,291.480000,335.770000,304.010000,337.390000C316.540000,339.010000,317.820000,344.880000,325.110000,303.070000Z" fill="rgb(112,68,45)" stroke="none" stroke-width="1"/><path id="s13" d="M292.940000,294.690000C274.040000,292.760000,258.490000,304.690000,263.320000,326.340000C268.150000,347.990000,270.100000,353.420000,271.080000,358.550000C272.060000,363.680000,273.170000,370.070000,290.080000,371.550000C306.990000,373.030000,317.910000,374.650000,318.520000,358.880000C319.130000,343.110000,320.420000,332.940000,320.910000,323.190000C321.400000,313.440000,319.550000,297.410000,292.940000,294.690000Z" fill="rgb(112,68,45)" stroke="none" stroke-width="1"/></g><g id="s15"><path id="s17" d="M151.160000,203.300000C139.560000,203.460000,113.650000,224.710000,120.430000,272.850000C125.950000,312.020000,129.630000,314.190000,135.650000,319.080000C142.430000,324.580000,162.530000,327.340000,169.420000,321.630000C171.420000,319.970000,176.420000,316.320000,176.800000,300.630000C177.180000,284.940000,195.770000,202.700000,151.160000,203.300000Z" fill="rgb(112,68,45)" stroke="none" stroke-width="1"/><path id="s19" d="M124.570000,297.530000C126.570000,307.900000,137.300000,346.690000,137.570000,359.790000C137.670000,364.720000,139.380000,368.260000,149.400000,369.110000C159.420000,369.960000,172.030000,376.880000,173.150000,360.810000C174.270000,344.740000,176.640000,309.050000,176.780000,298.420000C177.210000,267,118.050000,267.840000,124.570000,297.530000Z" fill="rgb(112,68,45)" stroke="none" stroke-width="1"/><path id="s21" d="M119.580000,371.280000C122.580000,365.950000,133.410000,362.450000,142.910000,362.610000C152.410000,362.770000,171.580000,360.280000,172.080000,362.610000C172.580000,364.940000,174.910000,371.440000,170.910000,371.610000C166.910000,371.780000,114.750000,377.780000,119.580000,371.280000Z" fill="rgb(112,68,45)" stroke="none" stroke-width="1"/></g><path id="s23" d="M121.580000,162.190000C131.960000,166.040000,153.080000,170.440000,173.330000,170.940000C193.580000,171.440000,207.830000,173.440000,202.080000,206.690000C196.330000,239.940000,193.330000,280.940000,175.080000,279.190000C156.830000,277.440000,128.830000,262.070000,107.330000,252.570000C85.830000,243.070000,96.580000,210.200000,102.830000,195.450000C109.080000,180.700000,112.830000,158.940000,121.580000,162.190000Z" fill="rgb(138,88,61)" stroke="none" stroke-width="1"/><path id="s25" d="M133.830000,202.440000C136.350000,183.060000,152.080000,161.190000,186.330000,167.940000C220.580000,174.690000,245.580000,171.440000,265.330000,170.690000C285.080000,169.940000,332.580000,171.190000,350.080000,208.690000C367.580000,246.190000,353.830000,288.440000,321.080000,300.690000C288.330000,312.940000,208.830000,307.940000,179.080000,288.940000C149.330000,269.940000,129.080000,238.940000,133.830000,202.440000Z" fill="rgb(138,88,61)" stroke="none" stroke-width="1"/><g id="s27"><path id="s29" d="M156.080000,205.940000C144.710000,208.210000,123.080000,233.840000,138.580000,279.940000C151.160000,317.440000,155.180000,318.940000,162,322.610000C169.670000,326.780000,189.940000,325.810000,195.670000,318.940000C197.340000,316.940000,201.590000,312.440000,199.090000,296.940000C196.590000,281.440000,199.830000,197.190000,156.080000,205.940000Z" fill="rgb(138,88,61)" stroke="none" stroke-width="1"/><path id="s31" d="M147.170000,303.440000C151,313.270000,168.670000,349.440000,171.340000,362.270000C172.340000,367.100000,174.670000,370.270000,184.670000,369.270000C194.670000,368.270000,208.340000,372.770000,206.500000,356.770000C204.660000,340.770000,200.500000,305.250000,198.670000,294.770000C193.330000,263.780000,135.330000,275.440000,147.170000,303.440000Z" fill="rgb(138,88,61)" stroke="none" stroke-width="1"/><path id="s33" d="M153.830000,371.280000C156.830000,365.950000,167.660000,362.450000,177.160000,362.610000C186.660000,362.770000,205.830000,360.280000,206.330000,362.610000C206.830000,364.940000,209.160000,371.440000,205.160000,371.610000C201.160000,371.780000,149,377.780000,153.830000,371.280000Z" fill="rgb(138,88,61)" stroke="none" stroke-width="1"/></g><g id="s35"><path id="s37" d="M300.750000,370.940000C303.750000,365.610000,314.580000,362.110000,324.080000,362.270000C333.580000,362.430000,352.750000,359.940000,353.250000,362.270000C353.750000,364.600000,356.080000,371.100000,352.080000,371.270000C348.080000,371.440000,295.920000,377.440000,300.750000,370.940000Z" fill="rgb(138,88,61)" stroke="none" stroke-width="1"/><path id="s39" d="M355.580000,300.190000C357.100000,278.700000,361.660000,257.270000,345,234.940000C328.340000,212.610000,299.330000,213.610000,288.330000,239.610000C277.330000,265.610000,292.660000,314.940000,295.330000,326.610000C298,338.280000,325.410000,336.110000,338.080000,336.440000C350.750000,336.770000,352.580000,342.530000,355.580000,300.190000Z" fill="rgb(138,88,61)" stroke="none" stroke-width="1"/><path id="s41" d="M322.080000,294.940000C303.080000,294.940000,288.830000,308.440000,295.830000,329.440000C302.830000,350.440000,305.330000,355.690000,306.830000,360.690000C308.330000,365.690000,310.080000,371.940000,327.080000,371.690000C344.080000,371.440000,355.080000,371.940000,354.080000,356.190000C353.080000,340.440000,353.330000,330.190000,352.830000,320.440000C352.330000,310.690000,348.830000,294.940000,322.080000,294.940000Z" fill="rgb(138,88,61)" stroke="none" stroke-width="1"/></g><g id="s43"><path id="s45" d="M131,166.940000C119.110000,160.080000,101.670000,149.610000,77,160.940000C52.330000,172.270000,47.330000,190.940000,44.670000,201.270000C42.010000,211.600000,39,212.600000,31.670000,216.600000C24.340000,220.600000,28.340000,228.600000,34.340000,235.930000C40.340000,243.260000,52.670000,248.930000,63.670000,249.260000C74.670000,249.590000,98.340000,249.930000,109.340000,253.260000C120.340000,256.590000,136.340000,219.260000,138.340000,201.930000C140.340000,184.600000,148.330000,176.940000,131,166.940000Z" fill="rgb(138,88,61)" stroke="none" stroke-width="1"/><path id="s47" d="M92.330000,171.940000C89.160000,160.940000,97.330000,147.770000,109,155.110000C120.670000,162.450000,118.330000,186.110000,102.330000,183.440000C97.330000,183.440000,92.500000,174.610000,92.330000,171.940000Z" fill="rgb(112,68,45)" stroke="none" stroke-width="1"/><path id="s49" d="M37.500000,219.780000C37.260000,216.940000,34.760000,216.620000,31.660000,216.620000C26.560000,219.400000,26.950000,224.120000,29.660000,229.200000C33.520000,227.280000,37.770000,223,37.500000,219.780000Z" fill="rgb(71,40,24)" stroke="none" stroke-width="1"/><path id="s51" d="M62.500000,201.780000C58.800000,201.910000,58.500000,210.450000,62.830000,210.280000C67.160000,210.110000,67.330000,201.610000,62.500000,201.780000Z" fill="rgb(71,40,24)" stroke="none" stroke-width="1"/></g></g></svg>