<svg id="s1" xmlns="http://www.w3.org/2000/svg" xmlns:xlink="http://www.w3.org/1999/xlink" viewBox="0 0 400 400"><g id="s3"><path id="s5" d="M218.760000,99.870000C191.930000,91.530000,175.760000,44.280000,196.450000,36.520000C217.140000,28.760000,237.900000,66.920000,218.760000,99.870000Z" fill="rgb(33,128,90)" stroke="none" stroke-width="1"/><path id="s7" d="M225.710000,151.150000C207.180000,120.210000,186.210000,108.520000,171.550000,117.900000C156.890000,127.280000,180.340000,158.430000,225.710000,151.150000Z" fill="rgb(33,128,90)" stroke="none" stroke-width="1"/><path id="s9" d="M225.710000,150.400000C234.440000,142.240000,241.370000,101.790000,264.090000,100.970000C286.810000,100.150000,271.270000,150.600000,225.710000,150.400000Z" fill="rgb(33,128,90)" stroke="none" stroke-width="1"/><path id="s11" d="M221.150000,206.800000C215,192.600000,195.460000,163.640000,176.280000,171C157.100000,178.360000,183.770000,214.750000,221.150000,206.800000Z" fill="rgb(33,128,90)" stroke="none" stroke-width="1"/><path id="s13" d="M221.150000,207.210000C230.010000,201.940000,248.900000,162.210000,273.020000,171.390000C295.320000,179.910000,262.760000,220.910000,221.150000,207.210000Z" fill="rgb(33,128,90)" stroke="none" stroke-width="1"/><path id="s15" d="M163.910000,221.490000C180.660000,211.650000,198.970000,245.880000,203.710000,271.940000C174.770000,268.440000,141.080000,234.900000,163.910000,221.490000Z" fill="rgb(33,128,90)" stroke="none" stroke-width="1"/><path id="s17" d="M203.710000,271.940000C215.010000,265.190000,234.230000,233.740000,257.710000,242.670000C281.190000,251.600000,259.300000,287.120000,203.710000,271.940000Z" fill="rgb(33,128,90)" stroke="none" stroke-width="1"/><path id="s19" d="M182,330.770000C172.460000,304.010000,166.300000,265.880000,141.370000,275.220000C116.440000,284.560000,152.090000,328.840000,182,330.770000Z" fill="rgb(33,128,90)" stroke="none" stroke-width="1"/><path id="s21" d="M182,330.770000C198,324.540000,231.290000,301.380000,246.600000,311.770000C261.910000,322.160000,239.370000,357.930000,182,330.770000Z" fill="rgb(33,128,90)" stroke="none" stroke-width="1"/><path id="s23" d="M212.930000,81C250.750000,186.140000,195.500000,291,169.120000,362.820000" fill="none" stroke="rgb(22,97,67)" stroke-width="5" stroke-linecap="round" stroke-miterlimit="10"/></g></svg>