<svg id="s1" xmlns="http://www.w3.org/2000/svg" xmlns:xlink="http://www.w3.org/1999/xlink" viewBox="0 0 400 400"><g id="s3"><g id="s5"><path id="s7" d="M210.890000,323.070000C211.390000,312.070000,220.720000,285.240000,237.890000,275.570000C255.060000,265.900000,267.060000,267.240000,260.890000,299.070000C257.241986,318.079565,251.077764,336.518422,242.560000,353.900000C231.560000,353.900000,210.890000,355.070000,210.890000,355.070000C209.958875,344.423653,209.958875,333.716347,210.890000,323.070000Z" fill="rgb(40,47,54)" stroke="none" stroke-width="1"/><path id="s9" d="M223.060000,351.900000C229.730000,345.230000,255.230000,339.900000,257.890000,343.070000C260.550000,346.240000,255.890000,355.900000,248.060000,355.900000C245.390000,355.900000,214.890000,359.230000,223.060000,351.900000Z" fill="rgb(40,47,54)" stroke="none" stroke-width="1"/></g><g id="s11"><path id="s13" d="M181.060000,323.070000C180.560000,312.070000,171.230000,285.240000,154.060000,275.570000C136.890000,265.900000,124.890000,267.240000,131.060000,299.070000C134.708014,318.079565,140.872236,336.518422,149.390000,353.900000C160.390000,353.900000,181.060000,355.070000,181.060000,355.070000C181.991125,344.423653,181.991125,333.716347,181.060000,323.070000Z" fill="rgb(40,47,54)" stroke="none" stroke-width="1"/><path id="s15" d="M168.890000,351.900000C162.220000,345.230000,136.720000,339.900000,134.060000,343.070000C131.400000,346.240000,136.060000,355.900000,143.890000,355.900000C146.560000,355.900000,177.060000,359.230000,168.890000,351.900000Z" fill="rgb(40,47,54)" stroke="none" stroke-width="1"/></g><g id="s17"><path id="s19" d="M228.810000,171.070000C192.940000,147.860000,222.810000,147.860000,192.940000,147.860000C163.070000,147.860000,157.320000,171.070000,157.320000,171.070000C152.650000,190.400000,142.820000,225.400000,145.820000,240.240000C148.820000,255.080000,159.150000,355.740000,166.320000,355.740000C171.440000,355.740000,185.020000,356.490000,193.070000,356.490000C201.120000,356.490000,214.700000,355.740000,219.820000,355.740000C226.990000,355.740000,237.320000,255.070000,240.320000,240.240000C243.320000,225.410000,233.470000,190.400000,228.810000,171.070000Z" fill="rgb(40,47,54)" stroke="none" stroke-width="1"/><path id="s21" d="M210.310000,200.730000C209.810000,197.980000,214.310000,194.730000,215.810000,192.230000C217.310000,189.730000,207.560000,192.730000,211.060000,189.980000C214.560000,187.230000,221.310000,179.480000,219.310000,174.230000C219.310000,174.230000,215.440000,164.360000,193.120000,164.360000C170.800000,164.360000,166.810000,174.240000,166.810000,174.240000C164.810000,179.490000,171.560000,187.240000,175.060000,189.990000C178.560000,192.740000,168.810000,189.740000,170.310000,192.240000C171.810000,194.740000,176.310000,197.990000,175.810000,200.740000C175.310000,203.490000,164.060000,205.240000,166.310000,217.740000C168.560000,230.240000,179.810000,229.990000,180.310000,248.240000C180.790000,265.640000,181.310000,345.100000,181.960000,356.240000C185.960000,356.380000,189.960000,356.490000,193.060000,356.490000C196.160000,356.490000,200.170000,356.380000,204.160000,356.240000C204.850000,345.110000,205.330000,265.640000,205.810000,248.240000C206.310000,229.990000,217.560000,230.240000,219.810000,217.740000C222.060000,205.240000,210.810000,203.480000,210.310000,200.730000Z" fill="rgb(224,191,126)" stroke="none" stroke-width="1"/></g><g id="s23"><g id="s25"><path id="s27" d="M215.650000,87.510000C218.950000,80.650000,250.900000,60.800000,255.760000,65.250000C260.620000,69.700000,251.250000,111.990000,239.270000,121.250000C228.330000,127,203,107.170000,215.650000,87.510000Z" fill="rgb(40,47,54)" stroke="none" stroke-width="1"/><path id="s29" d="M171.210000,87.510000C167.910000,80.650000,136,60.800000,131.100000,65.250000C126.200000,69.700000,135.610000,111.990000,147.590000,121.250000C158.530000,127,183.880000,107.170000,171.210000,87.510000Z" fill="rgb(40,47,54)" stroke="none" stroke-width="1"/></g><path id="s31" d="M239.390000,127.070000C239.720000,116.570000,240.060000,109.570000,231.560000,96.900000C223.320000,84.620000,205.840000,83.780000,193.390000,83.740000L192.720000,83.740000C180.270000,83.740000,162.790000,84.620000,154.550000,96.900000C146.050000,109.570000,146.380000,116.570000,146.720000,127.070000C147.060000,137.570000,140.050000,152.070000,143.890000,161.570000C147.640000,170.870000,166.740000,180.640000,192.720000,181.040000L193.390000,181.040000C219.390000,180.630000,238.470000,170.870000,242.220000,161.570000C246.060000,152.070000,239.060000,137.570000,239.390000,127.070000Z" fill="rgb(51,59,69)" stroke="none" stroke-width="1"/><path id="s33" d="M219.220000,157C219.270000,151.740000,202.470000,145.770000,199.470000,137.610000C196.470000,129.450000,205.600000,115,209.390000,107C212.960000,99.480000,211.670000,90.560000,209.300000,84.800000C204.030034,84.060378,198.711101,83.726065,193.390000,83.800000L192.720000,83.800000C187.398899,83.726065,182.079966,84.060378,176.810000,84.800000C174.440000,90.560000,173.150000,99.480000,176.720000,107C180.510000,115,189.640000,129.460000,186.640000,137.620000C183.640000,145.780000,166.840000,151.750000,166.890000,157.010000C166.950000,163.010000,171.520000,173.410000,179.250000,180.010000C183.713746,180.677114,188.217152,181.044603,192.730000,181.110000L193.400000,181.110000C197.912848,181.044603,202.416254,180.677114,206.880000,180.010000C214.600000,173.380000,219.160000,163,219.220000,157Z" fill="rgb(245,228,196)" stroke="none" stroke-width="1"/><g id="s35"><circle id="s37" r="5" transform="translate(170.060000,130.820000)" fill="rgb(0,0,0)" stroke="none" stroke-width="1"/><circle id="s39" r="5" transform="translate(216.060000,130.820000)" fill="rgb(0,0,0)" stroke="none" stroke-width="1"/></g><g id="s41"><g id="s43"><path id="s45" d="M178.750000,162.810000C182.370000,169.140000,193.990000,167.550000,192.750000,158.070000" fill="none" stroke="rgb(224,191,126)" stroke-width="2" stroke-linecap="round" stroke-miterlimit="10"/></g><g id="s47"><path id="s49" d="M207.360000,162.840000C203.740000,169.170000,192.120000,167.580000,193.360000,158.100000" fill="none" stroke="rgb(224,191,126)" stroke-width="2" stroke-linecap="round" stroke-miterlimit="10"/></g></g><path id="s51" d="M201.290000,150.230000C201.410000,146.040000,198.190000,146.410000,193.060000,146.420000C187.930000,146.430000,184.700000,146.040000,184.830000,150.230000C184.960000,154.420000,187.700000,158.620000,193.050000,158.830000L193.050000,158.830000C198.420000,158.630000,201.170000,154.380000,201.290000,150.230000Z" fill="rgb(0,0,0)" stroke="none" stroke-width="1"/></g><g id="s53"><path id="s55" d="M185,363.550000C188.180000,361.800000,188,354.860000,173.750000,349.610000C160.550000,344.750000,153.970000,346.540000,156.750000,355.360000C158.358553,360.314457,162.866711,363.755313,168.070000,364C171.190000,364.110000,183.190000,364.550000,185,363.550000Z" fill="rgb(51,59,69)" stroke="none" stroke-width="1"/><path id="s57" d="M149.060000,231.090000C146.810000,240.190000,150.810000,256.360000,155.060000,280.090000C159.310000,303.820000,166.810000,347.280000,167.690000,357.890000C167.190000,363.200000,169.690000,363.960000,178.190000,363.960000C186.690000,363.960000,188.820000,365.730000,186.940000,341.210000C184.700000,311.910000,183.780000,267.040000,182.320000,255.830000C177.810000,221.480000,152.810000,216.170000,149.060000,231.090000Z" fill="rgb(51,59,69)" stroke="none" stroke-width="1"/></g><g id="s59"><path id="s61" d="M237.060000,231.090000C239.310000,240.190000,235.310000,256.360000,231.060000,280.090000C226.810000,303.820000,219.310000,347.280000,218.440000,357.890000C218.940000,363.200000,216.440000,363.960000,207.940000,363.960000C199.440000,363.960000,197.320000,365.730000,199.190000,341.210000C201.430000,311.910000,202.350000,267.040000,203.820000,255.830000C208.310000,221.480000,233.310000,216.170000,237.060000,231.090000Z" fill="rgb(51,59,69)" stroke="none" stroke-width="1"/><path id="s63" d="M201.110000,363.550000C197.930000,361.800000,198.110000,354.860000,212.360000,349.610000C225.560000,344.750000,232.140000,346.540000,229.360000,355.360000C227.746306,360.327675,223.218202,363.771585,218,364C214.920000,364.110000,202.920000,364.550000,201.110000,363.550000Z" fill="rgb(51,59,69)" stroke="none" stroke-width="1"/></g></g></svg>