<svg id="e98dNfsHwOI1" xmlns="http://www.w3.org/2000/svg" xmlns:xlink="http://www.w3.org/1999/xlink" viewBox="0 0 400 400" shape-rendering="geometricPrecision" text-rendering="geometricPrecision"><defs><linearGradient id="e98dNfsHwOI5-fill" x1="200.007949" y1="56.805778" x2="200.007949" y2="357.117089" spreadMethod="pad" gradientUnits="userSpaceOnUse"><stop id="e98dNfsHwOI5-fill-0" offset="0%" stop-color="rgb(25,102,166)"/><stop id="e98dNfsHwOI5-fill-1" offset="100%" stop-color="rgb(88,154,209)"/></linearGradient></defs><g id="e98dNfsHwOI2"><circle id="e98dNfsHwOI3" r="175" transform="matrix(1 0 0 1 200 200)" clip-rule="evenodd" fill="rgb(28,117,188)" fill-rule="evenodd" stroke="none" stroke-width="1"/><circle id="e98dNfsHwOI4" r="157" transform="matrix(1 0 0 1 200 200)" clip-rule="evenodd" fill="rgb(25,102,166)" fill-rule="evenodd" stroke="none" stroke-width="1"/><path id="e98dNfsHwOI5" d="M43.100000,206.900000C46.700000,290.400000,115.600000,357,200,357C284.400000,357,353.300000,290.400000,356.900000,206.800000C353.300000,123.400000,284.400000,56.700000,200,56.700000C115.600000,56.700000,46.700000,123.400000,43.100000,206.900000L43.100000,206.900000Z" clip-rule="evenodd" fill="url(#e98dNfsHwOI5-fill)" fill-rule="evenodd" stroke="none" stroke-width="1"/><circle id="e98dNfsHwOI6" r="115.800000" transform="matrix(1 0 0 1 200 200)" clip-rule="evenodd" fill="rgb(28,117,188)" fill-rule="evenodd" stroke="none" stroke-width="1"/><path id="e98dNfsHwOI7" d="M84.300000,203.700000C84.300000,204.900000,84.200000,206.100000,84.200000,207.400000C84.200000,271.400000,136.100000,323.200000,200,323.200000C264,323.200000,315.800000,271.400000,315.800000,207.400000C315.800000,206.100000,315.800000,204.900000,315.700000,203.700000C313.700000,265.900000,262.700000,315.800000,199.900000,315.800000C137.300000,315.800000,86.200000,266,84.300000,203.700000L84.300000,203.700000Z" clip-rule="evenodd" fill="rgb(25,102,166)" fill-rule="evenodd" stroke="none" stroke-width="1"/></g><path id="e98dNfsHwOI8" d="M157.600000,142.100000L266.400000,142.100000C268.900000,142.100000,271.300000,142.400000,273.600000,143C278.800000,144.400000,283,147.300000,286,151.200000C288.900000,155.100000,290.600000,160.100000,290.600000,165.500000L290.600000,165.500000C290.600000,168,290.300000,170.600000,289.500000,173.300000L274.700000,228.400000C272.500000,236.500000,267.300000,243.900000,260.500000,249.200000C253.700000,254.500000,245.500000,257.800000,237.300000,257.800000L123.700000,257.800000L132.200000,226.100000L219.800000,226.100000C223,226.100000,226.300000,224.700000,229.100000,222.500000C231.900000,220.300000,234.100000,217.300000,234.900000,214.100000L243.100000,183.700000C243.400000,182.700000,243.500000,181.800000,243.500000,180.900000C243.500000,179.100000,243,177.600000,242.100000,176.400000C241.200000,175.200000,240,174.400000,238.300000,173.900000C237.500000,173.700000,236.700000,173.600000,235.800000,173.600000L146.200000,173.600000L154.700000,141.900000L157.600000,142.100000L157.600000,142.100000ZM120.300000,183L190.700000,183C191.600000,183,192.400000,183.100000,193.200000,183.300000C195.100000,183.800000,196.700000,184.900000,197.700000,186.400000C198.800000,187.800000,199.400000,189.600000,199.400000,191.600000C199.400000,192.400000,199.300000,193.300000,199,194.200000L195.300000,207.700000C194.600000,210.300000,193,212.600000,190.900000,214.300000C188.800000,216,186.100000,217,183.500000,217L108.200000,217L117.300000,182.900000L120.300000,182.900000L120.300000,183ZM190.700000,190.400000L123.200000,190.400000L118,209.600000L183.600000,209.600000C184.500000,209.600000,185.500000,209.200000,186.400000,208.500000C187.300000,207.800000,188,206.800000,188.300000,205.800000L191.900000,192.300000C192,192,192,191.800000,192,191.600000C192,191.300000,191.900000,191,191.800000,190.800000C191.700000,190.700000,191.500000,190.500000,191.300000,190.500000C191.100000,190.400000,190.900000,190.400000,190.700000,190.400000L190.700000,190.400000ZM266.400000,149.500000L160.400000,149.500000L155.900000,166.300000L235.900000,166.300000C237.400000,166.300000,238.900000,166.500000,240.300000,166.900000C243.500000,167.800000,246.200000,169.600000,248,172.100000C249.800000,174.600000,250.900000,177.600000,250.900000,181C250.900000,182.500000,250.700000,184.100000,250.300000,185.700000L242.100000,216.100000C240.800000,220.900000,237.700000,225.300000,233.700000,228.500000C229.700000,231.700000,224.800000,233.600000,219.900000,233.600000L137.900000,233.600000L133.400000,250.400000L237.500000,250.400000C244,250.400000,250.600000,247.700000,256.100000,243.300000C261.600000,239,266,233,267.700000,226.400000L282.500000,171.300000C283.100000,169.300000,283.300000,167.300000,283.300000,165.400000L283.300000,165.400000C283.300000,161.600000,282.200000,158.200000,280.200000,155.500000C278.200000,152.900000,275.400000,150.900000,271.800000,150C270.100000,149.800000,268.300000,149.500000,266.400000,149.500000L266.400000,149.500000Z" fill="rgb(255,255,255)" stroke="none" stroke-width="1"/></svg>