<svg id="s1" xmlns="http://www.w3.org/2000/svg" xmlns:xlink="http://www.w3.org/1999/xlink" viewBox="0 0 400 400"><defs><linearGradient id="s5-fill" x1="195.150000" y1="76.090000" x2="251.150000" y2="185.090000" spreadMethod="pad" gradientUnits="userSpaceOnUse"><stop id="s5-fill-0" offset="27%" stop-color="rgb(83,222,235)"/><stop id="s5-fill-1" offset="92%" stop-color="rgb(66,181,199)"/></linearGradient><linearGradient id="s7-fill" x1="200.010000" y1="261.420000" x2="311.630000" y2="261.420000" spreadMethod="pad" gradientUnits="userSpaceOnUse"><stop id="s7-fill-0" offset="15%" stop-color="rgb(81,222,172)"/><stop id="s7-fill-1" offset="80%" stop-color="rgb(66,214,146)"/></linearGradient><linearGradient id="s9-fill" x1="88.370000" y1="284.190000" x2="245.530000" y2="284.190000" spreadMethod="pad" gradientUnits="userSpaceOnUse"><stop id="s9-fill-0" offset="15%" stop-color="rgb(81,222,210)"/><stop id="s9-fill-1" offset="82%" stop-color="rgb(22,196,183)"/></linearGradient></defs><g id="s3"><path id="s5" d="M305,116.770000L206.640000,116.770000C204.879070,116.764678,203.188584,117.461164,201.942474,118.705397C200.696365,119.949629,199.997332,121.639064,200,123.400000L200,155.400000C199.999115,156.541994,199.364418,157.589119,198.352393,158.118228C197.340367,158.647336,196.118288,158.570975,195.180000,157.920000C188.660000,153.470000,183.340000,150.640000,176.960000,150.520000C166.001064,150.171023,156.491244,158.023050,154.760000,168.850000C153.657801,175.272039,155.444478,181.853263,159.642931,186.836275C163.841384,191.819288,170.024065,194.696645,176.540000,194.700000C183.100000,194.700000,188.540000,191.840000,195.170000,187.300000C196.109727,186.656569,197.327817,186.584223,198.337099,187.111898C199.346381,187.639572,199.982099,188.681129,199.990000,189.820000L199.990000,221.820000C199.990000,223.575733,200.687462,225.259556,201.928953,226.501047C203.170444,227.742538,204.854267,228.440000,206.610000,228.440000L238.610000,228.440000C239.748871,228.432099,240.790428,227.796381,241.318102,226.787099C241.845777,225.777817,241.773431,224.559727,241.130000,223.620000C236.590000,216.960000,233.730000,211.550000,233.730000,204.990000C233.733355,198.474065,236.610712,192.291384,241.593725,188.092931C246.576737,183.894478,253.157961,182.107801,259.580000,183.210000C270.406950,184.941244,278.258977,194.451064,277.910000,205.410000C277.790000,211.790000,274.910000,217.110000,270.510000,223.630000C269.859025,224.568288,269.782664,225.790367,270.311772,226.802393C270.840881,227.814418,271.888006,228.449115,273.030000,228.450000L305.030000,228.450000C306.785733,228.450000,308.469556,227.752538,309.711047,226.511047C310.952538,225.269556,311.650000,223.585733,311.650000,221.830000L311.650000,123.400000C311.652681,121.637324,310.952277,119.946364,309.703999,118.701841C308.455722,117.457318,306.762660,116.762010,305,116.770000Z" fill="url(#s5-fill)" stroke="none" stroke-width="1"/><path id="s7" d="M305,228.390000L273,228.390000C271.858006,228.389115,270.810881,227.754418,270.281772,226.742393C269.752664,225.730367,269.829025,224.508288,270.480000,223.570000C274.930000,217.050000,277.760000,211.730000,277.880000,205.350000C278.228977,194.391064,270.376950,184.881244,259.550000,183.150000C253.127961,182.047801,246.546737,183.834478,241.563725,188.032931C236.580712,192.231384,233.703355,198.414065,233.700000,204.930000C233.700000,211.490000,236.560000,216.930000,241.100000,223.560000C241.743431,224.499727,241.815777,225.717817,241.288102,226.727099C240.760428,227.736381,239.718871,228.372099,238.580000,228.380000L206.580000,228.380000C202.939506,228.401997,199.999934,231.359439,200,235L200,267.310000C200.120722,268.383989,200.797269,269.315389,201.781290,269.762298C202.765311,270.209208,203.911838,270.105787,204.800000,269.490000C211.460000,264.950000,216.870000,262.090000,223.430000,262.090000C229.960144,262.087343,236.157463,264.971490,240.360495,269.969221C244.563527,274.966952,246.342323,281.567024,245.220000,288C243.465371,298.814773,233.950180,306.642751,223,306.280000C216.620000,306.160000,211.300000,303.280000,204.780000,298.880000C203.891838,298.264213,202.745311,298.160792,201.761290,298.607702C200.777269,299.054611,200.100722,299.986011,199.980000,301.060000L199.980000,333.370000C199.980000,335.125733,200.677462,336.809556,201.918953,338.051047C203.160444,339.292538,204.844267,339.990000,206.600000,339.990000L305,339.990000C306.755733,339.990000,308.439556,339.292538,309.681047,338.051047C310.922538,336.809556,311.620000,335.125733,311.620000,333.370000L311.620000,235C311.614483,231.347781,308.652223,228.389996,305,228.390000Z" fill="url(#s7-fill)" stroke="none" stroke-width="1"/><path id="s9" d="M223.440000,262.100000C216.880000,262.100000,211.440000,264.960000,204.810000,269.500000C203.873520,270.135978,202.663644,270.206988,201.659197,269.684926C200.654750,269.162864,200.017635,268.131880,200,267L200,235C200,233.244267,199.302538,231.560444,198.061047,230.318953C196.819556,229.077462,195.135733,228.380000,193.380000,228.380000L161.380000,228.380000C160.241129,228.387901,159.199572,229.023619,158.671898,230.032901C158.144223,231.042183,158.216569,232.260273,158.860000,233.200000C163.400000,239.860000,166.260000,245.270000,166.260000,251.830000C166.256645,258.345935,163.379288,264.528616,158.396275,268.727069C153.413263,272.925522,146.832039,274.712199,140.410000,273.610000C129.583050,271.878756,121.731023,262.368936,122.080000,251.410000C122.200000,245.030000,125.080000,239.710000,129.480000,233.190000C130.130975,232.251712,130.207336,231.029633,129.678228,230.017607C129.149119,229.005582,128.101994,228.370885,126.960000,228.370000L95,228.370000C93.240801,228.367341,91.552889,229.065002,90.308946,230.308946C89.065002,231.552889,88.367341,233.240801,88.370000,235L88.370000,333.370000C88.367341,335.129199,89.065002,336.817111,90.308946,338.061054C91.552889,339.304998,93.240801,340.002659,95,340L193.370000,340C195.125733,340,196.809556,339.302538,198.051047,338.061047C199.292538,336.819556,199.990000,335.135733,199.990000,333.380000L199.990000,301.380000C199.990885,300.238006,200.625582,299.190881,201.637607,298.661772C202.649633,298.132664,203.871712,298.209025,204.810000,298.860000C211.330000,303.310000,216.650000,306.140000,223.030000,306.260000C233.962443,306.608789,243.457804,298.795121,245.220000,288C246.338713,281.570281,244.559652,274.974783,240.359264,269.979831C236.158876,264.984879,229.966317,262.100810,223.440000,262.100000Z" fill="url(#s9-fill)" stroke="none" stroke-width="1"/></g></svg>