<svg id="s1" xmlns="http://www.w3.org/2000/svg" xmlns:xlink="http://www.w3.org/1999/xlink" viewBox="0 0 400 400"><g id="s3"><path id="s5" d="M344.130000,163.250000C358.420000,166.250000,385.810000,195.320000,384.130000,257C392.470000,272,383.890000,291.290000,380.800000,293C377.710000,294.710000,369.610000,272.760000,377.940000,256.560000C379.610000,223.930000,363.150000,183.930000,347.210000,178.920000C336.700000,175.370000,339.590000,161.770000,344.130000,163.250000Z" fill="rgb(237,207,158)" stroke="none" stroke-width="1"/><path id="s7" d="M301.500000,196.630000C275.280000,201.870000,263.600000,224.230000,266.960000,251.270000C269.850000,274.560000,292.060000,275.590000,300.500000,283.420000C300.890000,283.640000,301.270000,283.850000,301.680000,284.090000C310.680000,289.500000,331.210000,299.790000,335.890000,275.690000C336.580000,259.550000,337.300000,235.260000,336.820000,225.050000C336.230000,212.630000,327.710000,191.390000,301.500000,196.630000Z" fill="rgb(237,207,158)" stroke="none" stroke-width="1"/><path id="s9" d="M307.940000,258.120000C298.440000,262.050000,293.370000,277.270000,299.940000,282.680000L299.940000,282.890000C301.585058,284.160588,302.799896,285.906044,303.420000,287.890000C307.050000,300.420000,304.980000,329.890000,304.710000,334.640000C304.520000,337.940000,299.910000,343.070000,301.650000,346.960000C303.170000,350.360000,328.310000,351.750000,330.240000,345.120000C331.530000,340.710000,334.710000,303.170000,336.240000,269.120000C334.110000,251.180000,316.690000,254.500000,307.940000,258.120000Z" fill="rgb(237,207,158)" stroke="none" stroke-width="1"/><path id="s11" d="M157.220000,218.290000C123.280000,212.910000,111.270000,239.810000,114.220000,258.440000C117.170000,277.070000,135.010000,284.730000,137.570000,296.320000C138.050000,298.470000,138.630000,301.190000,139.230000,304.210000C140.110000,307.130000,140.820000,311.420000,144.780000,313.920000C152,318.490000,163.200000,314.060000,165.130000,304.520000C166.040000,298.380000,169.220000,291.810000,177.770000,281.580000C195.750000,260,191.160000,223.670000,157.220000,218.290000Z" fill="rgb(237,207,158)" stroke="none" stroke-width="1"/><path id="s13" d="M165.830000,301.110000C168.390000,292.980000,162.230000,290.030000,154.970000,289.620000C144.740000,289.040000,136.970000,293.110000,138.240000,299.620000C140.600000,310.760000,144.140000,329.950000,141.830000,336.740000C139.270000,344.250000,138.370000,349.180000,150.940000,349.210000C162.820000,349.210000,167.160000,347.020000,166.330000,327.740000C165.810000,315.940000,163.460000,309.370000,165.830000,301.110000Z" fill="rgb(237,207,158)" stroke="none" stroke-width="1"/><path id="s15" d="M78.130000,131.280000C81.310000,125.040000,87.130000,121.880000,89.870000,113.190000C92.610000,104.500000,100.390000,111.390000,96.960000,129.340000C93.530000,147.290000,78.060000,136,78.130000,131.280000Z" fill="rgb(245,157,125)" stroke="none" stroke-width="1"/><path id="s17" d="M337,297.570000C335.620000,269.210000,324.860000,250.280000,280.710000,272.440000C282.710000,276.150000,284.500000,282.680000,289.710000,288.330000C282.710000,302.600000,290.760000,304.390000,297.710000,294.420000C298.966985,295.063357,300.262828,295.627784,301.590000,296.110000C299.020000,309.450000,306.680000,309.020000,311.160000,298.400000C312.330000,298.560000,313.570000,298.680000,314.850000,298.770000C315.630000,314.560000,323.850000,311.670000,324.910000,298.840000C328.958719,298.619318,332.993801,298.195451,337,297.570000Z" fill="rgb(224,137,105)" stroke="none" stroke-width="1"/><path id="s19" d="M125.220000,143.850000C146.010000,152.480000,176.910000,150.740000,220.520000,150.440000C264.130000,150.140000,327.520000,141.650000,346.610000,163.350000C365.700000,185.050000,360.370000,220.930000,361.370000,247.420000C362.370000,273.910000,311.370000,284.670000,263.500000,284.510000C215.630000,284.350000,149.210000,290.410000,123.580000,274.870000C113.580000,268.810000,106.220000,245.490000,90.410000,226.180000C74.600000,206.870000,84.560000,125.830000,125.220000,143.850000Z" fill="rgb(245,228,196)" stroke="none" stroke-width="1"/><path id="s21" d="M135.520000,147.130000C125.220000,143.850000,105.940000,126.580000,83.690000,127.730000C61.440000,128.880000,54.580000,150.350000,43.180000,156.350000C31.780000,162.350000,21.780000,161.770000,24,183.620000C26.220000,205.470000,41.350000,197.180000,57.610000,203.840000C73.870000,210.500000,83.610000,216.900000,90.390000,226.160000C97.170000,235.420000,124.750000,229.060000,135.090000,202.570000C145.430000,176.080000,156.120000,158.050000,135.520000,147.130000Z" fill="rgb(245,228,196)" stroke="none" stroke-width="1"/><path id="s23" d="M88.520000,135.720000C92.810000,122,113.590000,115.430000,120.220000,118.720000C125.220000,120.650000,110.870000,143.240000,104.370000,144.980000C97.870000,146.720000,88,137.460000,88.520000,135.720000Z" fill="rgb(0,61,79)" stroke="none" stroke-width="1"/><path id="s25" d="M38,158.810000C29,162.730000,22.180000,165.200000,24.070000,183.620000C25.940000,201.870000,36.800000,199.100000,49.810000,201.620000C53.490000,196.140000,51.020000,183.910000,50.350000,174.050000C49.510000,162.420000,45,161.310000,38,158.810000Z" fill="rgb(245,157,125)" stroke="none" stroke-width="1"/><ellipse id="s27" rx="3.550000" ry="4.610000" transform="translate(66.620000,155.760000)" fill="rgb(29,57,69)" stroke="none" stroke-width="1"/><path id="s29" d="M283.130000,148.550000C262.020000,148.630000,239.420000,150.300000,220.530000,150.430000C198.800000,150.580000,180.230000,151.090000,164.530000,150.490000C164.620000,154.800000,163.170000,159.780000,160.580000,166.020000C152.390000,185.730000,165.710000,201.570000,193,200.020000C217.310000,198.670000,219.190000,167.690000,258.490000,168.150000C275.410000,168.380000,285,156.830000,283.130000,148.550000Z" fill="rgb(0,61,79)" stroke="none" stroke-width="1"/><path id="s31" d="M298.160000,171C293.860000,164.940000,278.040000,165.840000,280.680000,178.900000C283.320000,191.960000,307.770000,184.560000,298.160000,171Z" fill="rgb(0,61,79)" stroke="none" stroke-width="1"/><path id="s33" d="M172,219.540000C138.060000,214.160000,126.050000,241.060000,129,259.690000C131.950000,278.320000,149.700000,286,152.260000,297.570000C152.740000,299.720000,153.320000,302.440000,153.920000,305.460000C154.800000,308.380000,155.510000,312.670000,159.470000,315.170000C166.690000,319.740000,177.890000,315.310000,179.820000,305.770000C180.730000,299.630000,183.910000,293.060000,192.460000,282.830000C210.490000,261.270000,205.900000,224.920000,172,219.540000Z" fill="rgb(245,228,196)" stroke="none" stroke-width="1"/><path id="s35" d="M180.560000,302.360000C183.120000,294.230000,176.960000,291.280000,169.700000,290.870000C159.470000,290.290000,151.700000,294.360000,152.970000,300.870000C155.330000,312.010000,158.870000,331.200000,156.560000,337.990000C154,345.500000,153.100000,350.430000,165.670000,350.460000C177.550000,350.460000,181.890000,348.270000,181.060000,328.990000C180.540000,317.190000,178.190000,310.620000,180.560000,302.360000Z" fill="rgb(245,228,196)" stroke="none" stroke-width="1"/><path id="s37" d="M325.660000,196.630000C299.440000,201.870000,287.760000,224.230000,291.120000,251.270000C294.010000,274.560000,316.220000,275.590000,324.660000,283.420000C325.050000,283.640000,325.430000,283.850000,325.840000,284.090000C334.840000,289.500000,355.370000,299.790000,360.050000,275.690000C360.740000,259.550000,361.460000,235.260000,360.980000,225.050000C360.400000,212.630000,351.880000,191.390000,325.660000,196.630000Z" fill="rgb(245,228,196)" stroke="none" stroke-width="1"/><path id="s39" d="M332.110000,258.120000C322.610000,262.050000,317.540000,277.270000,324.110000,282.680000L324.110000,282.890000C325.755058,284.160588,326.969896,285.906044,327.590000,287.890000C331.220000,300.420000,329.150000,329.890000,328.880000,334.640000C328.690000,337.940000,324.080000,343.070000,325.820000,346.960000C327.340000,350.360000,352.480000,351.750000,354.410000,345.120000C355.700000,340.710000,358.880000,303.170000,360.410000,269.120000C358.270000,251.180000,340.850000,254.500000,332.110000,258.120000Z" fill="rgb(245,228,196)" stroke="none" stroke-width="1"/><path id="s41" d="M30.520000,176.650000C27.580000,176.750000,27.380000,185.440000,31.200000,185.440000C34.360000,185.430000,34.470000,176.510000,30.520000,176.650000Z" fill="rgb(224,137,105)" stroke="none" stroke-width="1"/><path id="s43" d="M355.420000,222C351.740000,208.180000,334.880000,203.310000,325.660000,213.590000C316.440000,223.870000,322.330000,231.750000,334.050000,243.010000C345.770000,254.270000,363.810000,253.490000,355.420000,222Z" fill="rgb(0,61,79)" stroke="none" stroke-width="1"/><path id="s45" d="M319.280000,239.290000C314.430000,235.040000,305.280000,235.850000,308.700000,249.030000C312.120000,262.210000,332.690000,251,319.280000,239.290000Z" fill="rgb(0,61,79)" stroke="none" stroke-width="1"/><path id="s47" d="M190.800000,255.360000C200.690000,243.800000,195.870000,234.580000,182.540000,236.910000C173.770000,238.440000,170.820000,228.910000,164.940000,225.050000C158.720000,220.960000,142.450000,227.740000,155.840000,244.380000C169.230000,261.020000,181.500000,266.240000,190.800000,255.360000Z" fill="rgb(0,61,79)" stroke="none" stroke-width="1"/></g></svg>