<svg id="s1" xmlns="http://www.w3.org/2000/svg" xmlns:xlink="http://www.w3.org/1999/xlink" viewBox="0 0 400 400"><defs><linearGradient id="s9-fill" x1="149.910000" y1="122.200000" x2="203.710000" y2="287.750000" spreadMethod="pad" gradientUnits="userSpaceOnUse"><stop id="s9-fill-0" offset="4%" stop-color="rgb(255,226,189)"/><stop id="s9-fill-1" offset="100%" stop-color="rgb(247,202,148)"/></linearGradient><linearGradient id="s11-fill" x1="397.706907" y1="393.958854" x2="249.362975" y2="299.652023" spreadMethod="pad" gradientUnits="userSpaceOnUse"><stop id="s11-fill-0" offset="12%" stop-color="rgb(255,146,133)"/><stop id="s11-fill-1" offset="100%" stop-color="rgb(245,88,69)"/></linearGradient><linearGradient id="s13-fill" x1="228.570000" y1="109.720000" x2="242.510000" y2="152.620000" spreadMethod="pad" gradientUnits="userSpaceOnUse"><stop id="s13-fill-0" offset="14%" stop-color="rgb(240,190,132)"/><stop id="s13-fill-1" offset="100%" stop-color="rgb(247,187,131)"/></linearGradient></defs><g id="s3"><rect id="s5" width="133.120000" height="83.590000" rx="30.050000" ry="30.050000" transform="translate(230.220000,116.410000)" fill="none" stroke="rgb(118,137,191)" stroke-width="15" stroke-linecap="round" stroke-miterlimit="10"/><g id="s7"><path id="s9" d="M286,172.480000L292.430000,98.300000C292.627362,96.012059,291.803849,93.753804,290.180000,92.130000L272.420000,74.390000C270.796196,72.766151,268.537941,71.942638,266.250000,72.140000L192.070000,78.570000C190.245352,78.728107,188.534977,79.524866,187.240000,80.820000L40.080000,228C35.525162,232.556975,35.525162,239.943025,40.080000,244.500000L120.080000,324.500000C124.636975,329.054838,132.023025,329.054838,136.580000,324.500000L283.730000,177.310000C285.032476,176.018000,285.836477,174.307284,286,172.480000ZM245.230000,115.480000C251.339681,119.904073,253.902937,127.760973,251.577666,134.936887C249.252395,142.112801,242.568251,146.973189,235.025000,146.973189C227.481749,146.973189,220.797605,142.112801,218.472334,134.936887C216.147063,127.760973,218.710319,119.904073,224.820000,115.480000C230.899275,111.074724,239.117789,111.062632,245.210000,115.450000Z" fill="url(#s9-fill)" stroke="none" stroke-width="1"/><rect id="s11" width="97.560000" height="68.660000" rx="7.780000" ry="7.780000" transform="translate(31.070000,502.680000) rotate(225) scale(1,1) translate(70.860000,210.570000)" fill="url(#s11-fill)" stroke="none" stroke-width="1"/><path id="s13" d="M255,109.550000C243.956934,98.518081,226.062551,98.524105,215.026915,109.563456C203.991279,120.602808,203.991279,138.497192,215.026915,149.536544C226.062551,160.575895,243.956934,160.581919,255,149.550000C260.307829,144.247528,263.290188,137.052617,263.290188,129.550000C263.290188,122.047383,260.307829,114.852472,255,109.550000ZM243.850000,120.700000C247.427223,124.274121,248.498658,129.651445,246.564531,134.323706C244.630404,138.995967,240.071765,142.042668,235.015000,142.042668C229.958235,142.042668,225.399596,138.995967,223.465469,134.323706C221.531342,129.651445,222.602777,124.274121,226.180000,120.700000C231.062283,115.832976,238.963232,115.837450,243.840000,120.710000Z" fill="url(#s13-fill)" stroke="none" stroke-width="1"/></g><path id="s15" d="M275,200L332.850000,200C349.620000,200,363.350000,186.670000,363.350000,170.390000L363.350000,146C363.350000,129.710000,349.630000,116.390000,332.850000,116.390000L260.720000,116.390000C250.298205,116.357485,240.568761,121.604234,234.870000,130.330000" fill="none" stroke="rgb(118,137,191)" stroke-width="15" stroke-linecap="round" stroke-miterlimit="10"/></g></svg>