<svg id="s1" xmlns="http://www.w3.org/2000/svg" xmlns:xlink="http://www.w3.org/1999/xlink" viewBox="0 0 400 400"><defs><linearGradient id="s5-fill" x1="-189.289998" y1="390.970005" x2="-51.309998" y2="347.890005" spreadMethod="pad" gradientUnits="userSpaceOnUse"><stop id="s5-fill-0" offset="4%" stop-color="rgb(124,119,252)"/><stop id="s5-fill-1" offset="100%" stop-color="rgb(157,157,245)"/></linearGradient><linearGradient id="s7-fill" x1="-111.199998" y1="419.690007" x2="55.870002" y2="379.660007" spreadMethod="pad" gradientUnits="userSpaceOnUse"><stop id="s7-fill-0" offset="12%" stop-color="rgb(209,134,252)"/><stop id="s7-fill-1" offset="82%" stop-color="rgb(233,156,252)"/></linearGradient><linearGradient id="s9-fill" x1="0.070001" y1="450.069995" x2="121.260001" y2="410.199995" spreadMethod="pad" gradientUnits="userSpaceOnUse"><stop id="s9-fill-0" offset="13%" stop-color="rgb(252,129,161)"/><stop id="s9-fill-1" offset="86%" stop-color="rgb(252,138,168)"/></linearGradient><linearGradient id="s15-fill" x1="267.250000" y1="59.660000" x2="308.610000" y2="133.810000" spreadMethod="pad" gradientUnits="userSpaceOnUse"><stop id="s15-fill-0" offset="0%" stop-color="rgb(190,223,237)"/><stop id="s15-fill-1" offset="42%" stop-color="rgb(139,180,215)"/><stop id="s15-fill-2" offset="63%" stop-color="rgb(119,163,206)"/><stop id="s15-fill-3" offset="100%" stop-color="rgb(116,116,193)"/></linearGradient></defs><g id="s3"><rect id="s5" width="90.210000" height="50" rx="6.960000" ry="6.960000" transform="translate(417.380000,154.420000) rotate(90) translate(86.380000,260.900000)" fill="url(#s5-fill)" stroke="none" stroke-width="1"/><rect id="s7" width="132.660000" height="50" rx="6.960000" ry="6.960000" transform="translate(468.070000,61.260000) rotate(90) translate(137.070000,239.670000)" fill="url(#s7-fill)" stroke="none" stroke-width="1"/><rect id="s9" width="174.920000" height="50" rx="6.960000" ry="6.960000" transform="translate(518.870000,-31.790000) rotate(90) translate(187.870000,218.540000)" fill="url(#s9-fill)" stroke="none" stroke-width="1"/><g id="s11"><line id="s13" x1="109.020000" y1="198.340000" x2="278.760000" y2="101.970000" fill="none" stroke="rgb(128,166,209)" stroke-width="15" stroke-linecap="round" stroke-miterlimit="10"/><path id="s15" d="M307.390000,79.400000L254.670000,76C252.465411,75.871271,250.368309,76.963969,249.210689,78.844579C248.053068,80.725190,248.022073,83.089691,249.130000,85L279.220000,136.130000C280.351186,138.027524,282.433571,139.149963,284.640499,139.051738C286.847426,138.953513,288.821861,137.650514,289.780000,135.660000L312.410000,87.920000C313.244692,86.129046,313.144107,84.041950,312.141058,82.339564C311.138009,80.637179,309.361102,79.537775,307.390000,79.400000Z" fill="url(#s15-fill)" stroke="none" stroke-width="1"/></g></g></svg>