<svg id="s1" xmlns="http://www.w3.org/2000/svg" xmlns:xlink="http://www.w3.org/1999/xlink" viewBox="0 0 400 400"><defs><linearGradient id="s5-fill" x1="255.130000" y1="146.240000" x2="255.130000" y2="353.420000" spreadMethod="pad" gradientUnits="userSpaceOnUse"><stop id="s5-fill-0" offset="11%" stop-color="rgb(214,165,103)"/><stop id="s5-fill-1" offset="99%" stop-color="rgb(179,134,79)"/></linearGradient><linearGradient id="s7-fill" x1="118.620000" y1="160.530000" x2="175.430000" y2="335.350000" spreadMethod="pad" gradientUnits="userSpaceOnUse"><stop id="s7-fill-0" offset="4%" stop-color="rgb(247,211,168)"/><stop id="s7-fill-1" offset="48%" stop-color="rgb(247,202,148)"/></linearGradient><linearGradient id="s9-fill" x1="200" y1="53.570000" x2="200" y2="243.850000" spreadMethod="pad" gradientUnits="userSpaceOnUse"><stop id="s9-fill-0" offset="9%" stop-color="rgb(230,184,128)"/><stop id="s9-fill-1" offset="100%" stop-color="rgb(222,175,118)"/></linearGradient><linearGradient id="s11-fill" x1="191.130000" y1="114.460000" x2="205.330000" y2="158.160000" spreadMethod="pad" gradientUnits="userSpaceOnUse"><stop id="s11-fill-0" offset="4%" stop-color="rgb(247,211,168)"/><stop id="s11-fill-1" offset="48%" stop-color="rgb(247,202,148)"/></linearGradient><linearGradient id="s13-fill" x1="133.200000" y1="152.530000" x2="153.860000" y2="231.320000" spreadMethod="pad" gradientUnits="userSpaceOnUse"><stop id="s13-fill-0" offset="4%" stop-color="rgb(255,234,207)"/><stop id="s13-fill-1" offset="89%" stop-color="rgb(251,216,174)"/></linearGradient><linearGradient id="s15-fill" x1="105.220000" y1="239.060000" x2="118.720000" y2="290.560000" spreadMethod="pad" gradientUnits="userSpaceOnUse"><stop id="s15-fill-0" offset="4%" stop-color="rgb(255,234,207)"/><stop id="s15-fill-1" offset="89%" stop-color="rgb(251,216,174)"/></linearGradient></defs><g id="s3"><polygon id="s5" points="200,344.510000 310.270000,281.180000 310.270000,138.080000 200,201.420000 200,344.510000" fill="url(#s5-fill)" stroke="none" stroke-width="1"/><polygon id="s7" points="200,344.510000 89.730000,281.180000 89.730000,138.080000 200,201.420000 200,344.510000" fill="url(#s7-fill)" stroke="none" stroke-width="1"/><polygon id="s9" points="310.270000,138.150000 200,201.420000 89.730000,138.150000 200,65.480000 310.270000,138.150000" fill="url(#s9-fill)" stroke="none" stroke-width="1"/><polygon id="s11" points="131.170000,161.920000 158.560000,177.640000 264.380000,107.910000 238.760000,91.030000 131.170000,161.920000" fill="url(#s11-fill)" stroke="none" stroke-width="1"/><polygon id="s13" points="158.560000,177.610000 131.260000,161.930000 131.260000,216.760000 158.560000,232.450000 158.560000,177.610000" fill="url(#s13-fill)" stroke="none" stroke-width="1"/><path id="s15" d="M99.130000,256.440000L99.130000,246.440000L126.610000,262L126.610000,272ZM99.130000,264.440000L99.130000,274.440000L126.610000,290L126.610000,280Z" fill="url(#s15-fill)" stroke="none" stroke-width="1"/></g></svg>