<svg id="s1" xmlns="http://www.w3.org/2000/svg" xmlns:xlink="http://www.w3.org/1999/xlink" viewBox="0 0 400 400"><g id="s3"><g id="s5"><circle id="s7" r="62.290000" transform="translate(-22.600000,42.780000) rotate(-8.980017) scale(1,1) translate(261.230000,165.320000)" fill="rgb(255,176,84)" stroke="none" stroke-width="1"/><g id="s9"><line id="s11" x1="246.540000" y1="72.320000" x2="243.480000" y2="52.960000" fill="none" stroke="rgb(255,200,117)" stroke-width="15" stroke-linecap="round" stroke-linejoin="round"/><line id="s13" x1="194.680000" y1="98.710000" x2="180.830000" y2="84.850000" fill="none" stroke="rgb(255,200,117)" stroke-width="15" stroke-linecap="round" stroke-linejoin="round"/><line id="s15" x1="168.240000" y1="150.550000" x2="148.890000" y2="147.480000" fill="none" stroke="rgb(255,200,117)" stroke-width="15" stroke-linecap="round" stroke-linejoin="round"/><line id="s17" x1="177.320000" y1="208.030000" x2="159.860000" y2="216.920000" fill="none" stroke="rgb(255,200,117)" stroke-width="15" stroke-linecap="round" stroke-linejoin="round"/><line id="s19" x1="218.450000" y1="249.200000" x2="209.540000" y2="266.650000" fill="none" stroke="rgb(255,200,117)" stroke-width="15" stroke-linecap="round" stroke-linejoin="round"/><line id="s21" x1="275.920000" y1="258.320000" x2="278.980000" y2="277.670000" fill="none" stroke="rgb(255,200,117)" stroke-width="15" stroke-linecap="round" stroke-linejoin="round"/><line id="s23" x1="327.780000" y1="231.930000" x2="341.630000" y2="245.780000" fill="none" stroke="rgb(255,200,117)" stroke-width="15" stroke-linecap="round" stroke-linejoin="round"/><line id="s25" x1="354.220000" y1="180.090000" x2="373.570000" y2="183.160000" fill="none" stroke="rgb(255,200,117)" stroke-width="15" stroke-linecap="round" stroke-linejoin="round"/><line id="s27" x1="345.140000" y1="122.610000" x2="362.600000" y2="113.720000" fill="none" stroke="rgb(255,200,117)" stroke-width="15" stroke-linecap="round" stroke-linejoin="round"/><line id="s29" x1="304.010000" y1="81.440000" x2="312.910000" y2="63.990000" fill="none" stroke="rgb(255,200,117)" stroke-width="15" stroke-linecap="round" stroke-linejoin="round"/></g></g><path id="s31" d="M292.240000,264C289.354785,216.534925,251.850072,178.498455,204.430318,174.945317C157.010565,171.392179,114.256353,203.414889,104.330000,249.920000C85.684593,243.127127,64.826995,246.881144,49.720163,259.748854C34.613332,272.616563,27.589420,292.611481,31.330000,312.100000C32.023183,315.496427,35.023663,317.926983,38.490000,317.900000L335.890000,317.900000C337.892023,317.905625,339.808003,317.086531,341.187249,315.635390C342.566494,314.184250,343.287260,312.229155,343.180000,310.230000C342.370000,295.370000,335.520000,264,292.240000,264Z" fill="rgb(92,176,209)" stroke="none" stroke-width="1"/></g></svg>