<svg id="s1" xmlns="http://www.w3.org/2000/svg" xmlns:xlink="http://www.w3.org/1999/xlink" viewBox="0 0 400 400"><g id="s3"><g id="s5"><path id="s7" d="M279.390000,164.270000C279.390000,119.340000,246.100000,82.580000,205.390000,82.580000L205.390000,82.580000C186.620000,82.580000,169.390000,90.410000,156.390000,103.250000C136.870000,107.450000,122.010000,126.540000,122.010000,149.250000L122.010000,254C122.075920,275.852536,139.777448,293.549596,161.630000,293.610000L238.400000,293.610000C260.190000,293.610000,279.400000,278.450000,279.400000,246.610000L279.400000,246.610000Z" fill="rgb(56,23,23)" stroke="none" stroke-width="1"/><rect id="s9" width="118.550000" height="160.800000" rx="48" ry="48" transform="translate(140.350000,140.500000)" fill="rgb(10,4,1)" stroke="none" stroke-width="1"/></g><g id="s11"><path id="s13" d="M304.820000,368L304.820000,342.310000C304.732117,311.567647,279.832353,286.667883,249.090000,286.580000L245.570000,286.580000C234.524305,286.580000,225.570000,277.625695,225.570000,266.580000L225.570000,246.530000L174.380000,246.530000L174.380000,266.620000C174.380000,277.665695,165.425695,286.620000,154.380000,286.620000L150.860000,286.620000C120.117647,286.707883,95.217883,311.607647,95.130000,342.350000L95.130000,368C95.130000,372.633669,98.886331,376.390000,103.520000,376.390000L296.430000,376.390000C301.063669,376.390000,304.820000,372.633669,304.820000,368Z" fill="rgb(247,194,153)" stroke="none" stroke-width="1"/><path id="s15" d="M174.380000,246.530000L174.380000,266.620000C174.357218,271.284180,172.685266,275.789949,169.660000,279.340000C178.863861,284.352790,189.179592,286.972985,199.660000,286.960000L200.410000,286.960000C210.890355,286.972558,221.205981,284.352389,230.410000,279.340000C227.384734,275.789949,225.712782,271.284180,225.690000,266.620000L225.690000,246.530000Z" fill="rgb(227,165,126)" stroke="none" stroke-width="1"/><g id="s17"><path id="s19" d="M249.090000,282.580000L245.570000,282.580000C241.790011,282.584076,238.133173,281.236259,235.260000,278.780000C233.525761,277.330383,231.061160,277.145438,229.130000,278.320000C221.716360,282.785635,213.224706,285.143659,204.570000,285.140000L195.410000,285.140000C186.755294,285.143659,178.263640,282.785635,170.850000,278.320000C168.918840,277.145438,166.454239,277.330383,164.720000,278.780000C161.846827,281.236259,158.189989,282.584076,154.410000,282.580000L150.890000,282.580000C135.048619,282.580000,119.856060,288.872964,108.654512,300.074512C97.452964,311.276060,91.160000,326.468619,91.160000,342.310000L91.160000,372.310000C91.160000,376.728278,94.741722,380.310000,99.160000,380.310000L300.820000,380.310000C305.238278,380.310000,308.820000,376.728278,308.820000,372.310000L308.820000,342.310000C308.820000,326.468619,302.527036,311.276060,291.325488,300.074512C280.123940,288.872964,264.931381,282.580000,249.090000,282.580000Z" fill="rgb(145,28,34)" stroke="none" stroke-width="1"/><line id="s21" x1="141.120000" y1="348.390000" x2="141.120000" y2="371.970000" fill="none" stroke="rgb(110,11,15)" stroke-width="8" stroke-linecap="round" stroke-miterlimit="10"/><circle id="s23" r="4.820000" transform="translate(232.360000,293.810000)" fill="rgb(242,227,213)" stroke="none" stroke-width="1"/><line id="s25" x1="258.880000" y1="348.390000" x2="258.880000" y2="371.970000" fill="none" stroke="rgb(110,11,15)" stroke-width="8" stroke-linecap="round" stroke-miterlimit="10"/></g></g><g id="s27"><circle id="s29" r="19.500000" transform="translate(137.750000,195.270000)" fill="rgb(247,194,153)" stroke="none" stroke-width="1"/><path id="s31" d="M197.130000,100.180000L204.270000,100.180000C220.161772,100.180000,235.402659,106.492982,246.639838,117.730162C257.877018,128.967341,264.190000,144.208228,264.190000,160.100000L264.190000,201.370000C264.190000,236.230213,235.930213,264.490000,201.070000,264.490000L200.320000,264.490000C183.579535,264.490000,167.524716,257.839876,155.687420,246.002580C143.850124,234.165284,137.200000,218.110465,137.200000,201.370000L137.200000,160.110000C137.200000,144.218228,143.512982,128.977341,154.750162,117.740162C165.987341,106.502982,181.228228,100.190000,197.120000,100.190000Z" fill="rgb(247,194,153)" stroke="none" stroke-width="1"/><path id="s33" d="M207.360000,205.130000C205.980695,202.789844,203.485792,201.333113,200.769874,201.282139C198.053955,201.231164,195.506147,202.593249,194.040000,204.880000" fill="none" stroke="rgb(207,148,109)" stroke-width="4" stroke-linecap="round" stroke-miterlimit="10"/><g id="s35"><ellipse id="s37" rx="6.880000" ry="7.430000" transform="translate(168.500000,190.110000)" fill="rgb(0,0,0)" stroke="none" stroke-width="1"/><ellipse id="s39" rx="6.880000" ry="7.430000" transform="translate(231.500000,190.110000)" fill="rgb(0,0,0)" stroke="none" stroke-width="1"/></g><g id="s41"><line id="s43" x1="139.610000" y1="176.010000" x2="192.750000" y2="175.950000" fill="none" stroke="rgb(36,5,5)" stroke-width="5" stroke-linecap="round" stroke-miterlimit="10"/><path id="s45" d="M147.280000,176L149.030000,191.200000C150.120000,200.680000,157.130000,207.760000,165.430000,207.760000L171.740000,207.760000C180.340000,207.760000,187.370000,199.660000,187.370000,189.760000L187.370000,176Z" fill="none" stroke="rgb(36,5,5)" stroke-width="5" stroke-linecap="round" stroke-miterlimit="10"/><path id="s47" d="M254.110000,176L252.360000,191.200000C251.270000,200.680000,244.260000,207.760000,235.960000,207.760000L229.650000,207.760000C221.050000,207.760000,214.020000,199.660000,214.020000,189.760000L214.020000,176Z" fill="none" stroke="rgb(36,5,5)" stroke-width="5" stroke-linecap="round" stroke-miterlimit="10"/><line id="s49" x1="261.780000" y1="176.010000" x2="208.640000" y2="175.950000" fill="none" stroke="rgb(36,5,5)" stroke-width="5" stroke-linecap="round" stroke-miterlimit="10"/><line id="s51" x1="190.430000" y1="185.300000" x2="210.960000" y2="185.300000" fill="none" stroke="rgb(36,5,5)" stroke-width="5" stroke-linecap="round" stroke-miterlimit="10"/></g><path id="s53" d="M190.130000,221C192.317309,224.714044,196.276374,227.025788,200.585912,227.105330C204.895450,227.184872,208.937126,225.020798,211.260000,221.390000" fill="none" stroke="rgb(207,148,109)" stroke-width="4" stroke-linecap="round" stroke-miterlimit="10"/><g id="s55"><line id="s57" x1="219.840000" y1="158.350000" x2="243.170000" y2="158.350000" fill="none" stroke="rgb(120,66,66)" stroke-width="8" stroke-linecap="round" stroke-miterlimit="10"/><line id="s59" x1="156.830000" y1="158.350000" x2="180.160000" y2="158.350000" fill="none" stroke="rgb(120,66,66)" stroke-width="8" stroke-linecap="round" stroke-miterlimit="10"/></g><g id="s61"><path id="s63" d="M205.690000,93.300000L198.520000,93.300000C165.410000,93.300000,132.520000,115.470000,132.520000,145.970000L132.520000,192.890000C132.530956,195.453572,134.606428,197.529044,137.170000,197.540000L137.250000,197.540000C139.813572,197.529044,141.889044,195.453572,141.900000,192.890000L141.900000,168.890000C141.861219,138.351203,166.551358,113.544749,197.090000,113.440000L204.260000,113.440000C234.798642,113.544749,259.488781,138.351203,259.450000,168.890000L259.450000,191.640000L264.450000,191.640000L264.450000,159.800000C264.490000,123.630000,238.800000,93.300000,205.690000,93.300000Z" fill="rgb(56,23,23)" stroke="none" stroke-width="1"/><path id="s65" d="M163.370000,108.440000C166.489155,105.186230,169.968167,102.297676,173.740000,99.830000" fill="none" stroke="rgb(94,38,38)" stroke-width="6" stroke-linecap="round" stroke-miterlimit="10"/><path id="s67" d="M141.920000,169.050000L141.920000,168.890000C141.911972,149.513609,152.004525,131.534236,168.550000,121.450000C166.114719,120.375036,163.481981,119.819879,160.820000,119.820000C150.190000,119.820000,141.910000,128.730000,141.910000,139.360000L141.910000,169.050000Z" fill="rgb(10,4,1)" stroke="none" stroke-width="1"/><path id="s69" d="M197.110000,113.440000L204.280000,113.440000C219.544916,113.447210,234.117633,119.809639,244.500000,131C242.848780,112.637806,228.622342,97.909367,210.328422,95.622627C192.034501,93.335887,174.620338,104.109250,168.500000,121.500000C177.108850,116.221669,187.011831,113.431804,197.110000,113.440000Z" fill="rgb(10,4,1)" stroke="none" stroke-width="1"/><path id="s71" d="M279.390000,290.850000L279.390000,173.470000C279.390000,157.740000,253.680000,115.150000,246.140000,113.370000C245.344487,115.338197,244.848965,117.414672,244.670000,119.530000L244.670000,360.680000C245.667213,371.796265,254.969130,380.322300,266.130000,380.350000L300.820000,380.350000C305.238278,380.350000,308.820000,376.768278,308.820000,372.350000L308.820000,342.350000C308.841360,321.177845,297.641919,301.579775,279.390000,290.850000Z" fill="rgb(56,23,23)" stroke="none" stroke-width="1"/><path id="s73" d="M279.390000,290.880000L279.390000,349C279.417466,358.752995,287.317005,366.652534,297.070000,366.680000" fill="none" stroke="rgb(94,38,38)" stroke-width="6" stroke-linecap="round" stroke-miterlimit="10"/><line id="s75" x1="258.880000" y1="137.700000" x2="258.880000" y2="201.370000" fill="none" stroke="rgb(94,38,38)" stroke-width="6" stroke-linecap="round" stroke-miterlimit="10"/><line id="s77" x1="258.880000" y1="234.510000" x2="258.880000" y2="266.850000" fill="none" stroke="rgb(94,38,38)" stroke-width="6" stroke-linecap="round" stroke-miterlimit="10"/></g></g></g></svg>