<svg id="s1" xmlns="http://www.w3.org/2000/svg" xmlns:xlink="http://www.w3.org/1999/xlink" viewBox="0 0 400 400"><g id="s3"><path id="s5" d="M279.280000,274C287.248198,274.033251,293.812415,267.751936,294.130000,259.790000Q294.130000,258.390000,294.130000,256.970000L294.130000,161.770000C294.130000,115.310000,257.340000,76.590000,210.890000,75.580000C189.438668,75.111637,168.609181,82.802965,152.610000,97.100000C129.660590,101.610604,113.098247,121.711552,113.060000,145.100000L113.060000,256.940000Q113.060000,258.360000,113.060000,259.770000C113.368111,267.774959,119.989530,274.081706,128,274Z" fill="rgb(29,18,36)" stroke="none" stroke-width="1"/><g id="s7"><path id="s9" d="M304.820000,372L304.820000,346.310000C304.732117,315.567647,279.832353,290.667883,249.090000,290.580000L245.570000,290.580000C234.524305,290.580000,225.570000,281.625695,225.570000,270.580000L225.570000,250.530000L174.380000,250.530000L174.380000,270.620000C174.380000,281.665695,165.425695,290.620000,154.380000,290.620000L150.860000,290.620000C120.117647,290.707883,95.217883,315.607647,95.130000,346.350000L95.130000,372C95.130000,376.633669,98.886331,380.390000,103.520000,380.390000L296.430000,380.390000C301.063669,380.390000,304.820000,376.633669,304.820000,372Z" fill="rgb(255,193,145)" stroke="none" stroke-width="1"/><path id="s11" d="M174.380000,250.530000L174.380000,270.620000C174.357218,275.284180,172.685266,279.789949,169.660000,283.340000C178.863861,288.352790,189.179592,290.972985,199.660000,290.960000L200.410000,290.960000C210.890355,290.972558,221.205981,288.352389,230.410000,283.340000C227.384734,279.789949,225.712782,275.284180,225.690000,270.620000L225.690000,250.530000Z" fill="rgb(245,172,130)" stroke="none" stroke-width="1"/><g id="s13"><path id="s15" d="M260.150000,291.690000C250.873637,316.293072,227.363638,332.608406,201.070000,332.690000L200.320000,332.690000C173.936047,332.606823,150.365143,316.182480,141.150000,291.460000C114.591835,296.251183,95.242400,319.323281,95.150000,346.310000L95.150000,376.160000C95.150000,380.793669,98.906331,384.550000,103.540000,384.550000L296.430000,384.550000C301.063669,384.550000,304.820000,380.793669,304.820000,376.160000L304.820000,346.310000C304.738073,319.824197,286.092876,297.025884,260.150000,291.690000Z" fill="rgb(242,227,213)" stroke="none" stroke-width="1"/><path id="s17" d="M160.740000,285.270000C158.745394,286.135244,156.594189,286.581142,154.420000,286.580000L150.900000,286.580000C117.928023,286.618573,91.208573,313.338023,91.170000,346.310000L91.170000,372C91.175514,378.840523,96.719477,384.384486,103.560000,384.390000L188.470000,384.390000Z" fill="rgb(76,57,87)" stroke="none" stroke-width="1"/><path id="s19" d="M211.520000,384.350000L296.430000,384.350000C303.254950,384.344551,308.792482,378.824896,308.820000,372L308.820000,346.310000C308.781427,313.338023,282.061977,286.618573,249.090000,286.580000L245.570000,286.580000C243.395811,286.581142,241.244606,286.135244,239.250000,285.270000Z" fill="rgb(76,57,87)" stroke="none" stroke-width="1"/><line id="s21" x1="141.120000" y1="352.390000" x2="141.120000" y2="371.790000" fill="none" stroke="rgb(113,84,128)" stroke-width="8" stroke-linecap="round" stroke-miterlimit="10"/><line id="s23" x1="258.880000" y1="352.390000" x2="258.880000" y2="371.790000" fill="none" stroke="rgb(113,84,128)" stroke-width="8" stroke-linecap="round" stroke-miterlimit="10"/><path id="s25" d="M179.720000,337.560000L165.120000,285.400000C164.618328,283.128493,162.542425,281.556738,160.220000,281.690000C157.980000,281.880000,144.220000,282.750000,140,283.630000C138.729279,283.897088,137.626156,284.679046,136.953357,285.789636C136.280559,286.900227,136.098305,288.240048,136.450000,289.490000L148.330000,331.930000C148.915173,334.042211,150.309238,335.838686,152.210000,336.930000L167.730000,345.820000Z" fill="rgb(135,101,153)" stroke="none" stroke-width="1"/><path id="s27" d="M178.910000,334.680000L192.390000,382.810000C192.788005,384.221623,192.501230,385.738190,191.615274,386.907023C190.729318,388.075856,189.346658,388.761759,187.880000,388.760000L167.780000,388.760000C165.679528,388.761259,163.835512,387.362914,163.270000,385.340000L156.270000,360.400000C155.396718,357.280795,156.410812,353.938188,158.870000,351.830000Z" fill="rgb(113,84,128)" stroke="none" stroke-width="1"/><path id="s29" d="M220.280000,337.560000L234.880000,285.400000C235.381672,283.128493,237.457575,281.556738,239.780000,281.690000C242.020000,281.880000,255.780000,282.750000,260,283.630000C261.270721,283.897088,262.373844,284.679046,263.046643,285.789636C263.719441,286.900227,263.901695,288.240048,263.550000,289.490000L251.670000,331.930000C251.084827,334.042211,249.690762,335.838686,247.790000,336.930000L232.270000,345.820000Z" fill="rgb(135,101,153)" stroke="none" stroke-width="1"/><path id="s31" d="M221.090000,334.680000L207.610000,382.810000C207.211995,384.221623,207.498770,385.738190,208.384726,386.907023C209.270682,388.075856,210.653342,388.761759,212.120000,388.760000L232.210000,388.760000C234.310472,388.761259,236.154488,387.362914,236.720000,385.340000L243.720000,360.400000C244.593282,357.280795,243.579188,353.938188,241.120000,351.830000Z" fill="rgb(113,84,128)" stroke="none" stroke-width="1"/></g></g><g id="s33"><circle id="s35" r="19.500000" transform="translate(262.250000,199.270000)" fill="rgb(255,193,145)" stroke="none" stroke-width="1"/><circle id="s37" r="19.500000" transform="translate(137.750000,199.270000)" fill="rgb(255,193,145)" stroke="none" stroke-width="1"/><path id="s39" d="M197.130000,104.180000L204.270000,104.180000C220.161772,104.180000,235.402659,110.492982,246.639838,121.730162C257.877018,132.967341,264.190000,148.208228,264.190000,164.100000L264.190000,205.370000C264.190000,240.230213,235.930213,268.490000,201.070000,268.490000L200.320000,268.490000C183.579535,268.490000,167.524716,261.839876,155.687420,250.002580C143.850124,238.165284,137.200000,222.110465,137.200000,205.370000L137.200000,164.110000C137.197347,148.214763,143.510531,132.969791,154.750161,121.730161C165.989791,110.490531,181.234763,104.177347,197.130000,104.180000Z" fill="rgb(255,193,145)" stroke="none" stroke-width="1"/><path id="s41" d="M190.130000,225.840000C192.317309,229.554044,196.276374,231.865788,200.585912,231.945330C204.895450,232.024872,208.937126,229.860798,211.260000,226.230000" fill="none" stroke="rgb(222,159,111)" stroke-width="4" stroke-linecap="round" stroke-miterlimit="10"/><path id="s43" d="M207.480000,208.800000C206.060857,206.436976,203.525178,204.970971,200.769226,204.920161C198.013275,204.869351,195.425281,206.240893,193.920000,208.550000" fill="none" stroke="rgb(222,159,111)" stroke-width="4" stroke-linecap="round" stroke-miterlimit="10"/><g id="s45"><ellipse id="s47" rx="6.880000" ry="7.430000" transform="translate(169.190000,194.110000)" fill="rgb(0,0,0)" stroke="none" stroke-width="1"/><ellipse id="s49" rx="6.880000" ry="7.430000" transform="translate(232.200000,194.110000)" fill="rgb(0,0,0)" stroke="none" stroke-width="1"/></g><rect id="s51" width="9.230000" height="38.590000" rx="4.620000" ry="4.620000" transform="translate(132.910000,162.950000)" fill="rgb(29,18,36)" stroke="none" stroke-width="1"/><rect id="s53" width="9.230000" height="38.590000" rx="4.620000" ry="4.620000" transform="translate(259.250000,162.950000)" fill="rgb(29,18,36)" stroke="none" stroke-width="1"/><path id="s55" d="M249.440000,177.610000L195.850000,177.610000C187.815715,177.610093,180.867521,172.010739,179.160000,164.160000L164.580000,97.090000L220.290000,97.090000C242.959004,97.088555,261.945398,114.255402,264.220000,136.810000L266.440000,158.810000C266.926431,163.615813,265.355209,168.402878,262.115449,171.985672C258.875688,175.568465,254.270368,177.611930,249.440000,177.610000Z" fill="rgb(29,18,36)" stroke="none" stroke-width="1"/><path id="s57" d="M149.790000,109L126.710000,170.300000C126.087144,171.960525,126.317714,173.820884,127.327103,175.279112C128.336492,176.737340,129.996503,177.608236,131.770000,177.610000L141.770000,177.610000C149.804285,177.610093,156.752479,172.010739,158.460000,164.160000L173,97.090000L167,97.090000C159.348726,97.107418,152.502146,101.845522,149.790000,109Z" fill="rgb(29,18,36)" stroke="none" stroke-width="1"/><g id="s59"><line id="s61" x1="220.540000" y1="162.350000" x2="243.860000" y2="162.350000" fill="none" stroke="rgb(76,57,87)" stroke-width="8" stroke-linecap="round" stroke-miterlimit="10"/><line id="s63" x1="157.530000" y1="162.350000" x2="180.850000" y2="162.350000" fill="none" stroke="rgb(76,57,87)" stroke-width="8" stroke-linecap="round" stroke-miterlimit="10"/></g><circle id="s65" r="4.500000" transform="translate(130.370000,209.070000)" fill="rgb(242,227,213)" stroke="none" stroke-width="1"/><circle id="s67" r="4.500000" transform="translate(271.020000,209.070000)" fill="rgb(242,227,213)" stroke="none" stroke-width="1"/></g></g></svg>