<svg id="s1" xmlns="http://www.w3.org/2000/svg" xmlns:xlink="http://www.w3.org/1999/xlink" viewBox="0 0 400 400"><g id="s3"><g id="s5"><path id="s7" d="M188.430000,195.790000C170.810000,197.290000,132.430000,197.790000,138.020000,143.060000C115,137.420000,60.190000,133,16,166.790000C34.610000,171.060000,70.130000,180.550000,62.080000,231.490000C83.960000,216.990000,117.080000,241.900000,122.080000,282.340000C145.880000,266.440000,178.420000,279.080000,193.380000,285.030000C221.440000,287.610000,219.780000,190.310000,188.430000,195.790000Z" fill="rgb(94,66,88)" stroke="none" stroke-width="1"/><path id="s9" d="M62.110000,231.490000C66.420000,220.150000,98.640000,156.620000,137.470000,143.900000" fill="none" stroke="rgb(105,77,99)" stroke-width="6" stroke-linecap="round" stroke-miterlimit="10"/><path id="s11" d="M137.470000,143.900000C123.680000,174.900000,121.720000,257.710000,122.100000,282.340000" fill="none" stroke="rgb(105,77,99)" stroke-width="6" stroke-linecap="round" stroke-miterlimit="10"/></g><g id="s13"><path id="s15" d="M211.570000,195.790000C229.190000,197.290000,267.570000,197.790000,261.980000,143.060000C284.980000,137.410000,339.820000,132.950000,383.980000,166.790000C365.370000,171.060000,329.850000,180.550000,337.900000,231.490000C316.020000,216.990000,282.900000,241.900000,277.900000,282.340000C254.100000,266.440000,221.560000,279.080000,206.600000,285.030000C178.560000,287.610000,180.220000,190.310000,211.570000,195.790000Z" fill="rgb(94,66,88)" stroke="none" stroke-width="1"/><path id="s17" d="M337.890000,231.490000C333.580000,220.150000,301.360000,156.620000,262.530000,143.900000" fill="none" stroke="rgb(105,77,99)" stroke-width="6" stroke-linecap="round" stroke-miterlimit="10"/><path id="s19" d="M262.530000,143.900000C276.320000,174.900000,278.280000,257.710000,277.900000,282.340000" fill="none" stroke="rgb(105,77,99)" stroke-width="6" stroke-linecap="round" stroke-miterlimit="10"/></g><path id="s21" d="M222.870000,198.690000C220.370000,192.770000,217.320000,186.930000,200,186.930000C182.680000,186.930000,179.630000,192.770000,177.130000,198.690000C165.800000,225.570000,167.900000,261.410000,177.470000,282.900000C186.560000,303.320000,195.240000,306.830000,199.670000,307.120000L200.330000,307.120000C204.760000,306.820000,213.440000,303.310000,222.530000,282.900000C232.100000,261.410000,234.200000,225.570000,222.870000,198.690000Z" fill="rgb(105,77,99)" stroke="none" stroke-width="1"/><g id="s23"><path id="s25" d="M200,156.400000C188.580000,156.400000,168.580000,157.030000,168.760000,174.180000C168.940000,191.330000,177.310000,209.700000,200,209.340000C222.690000,209.700000,231,191.420000,231.240000,174.180000C231.480000,156.940000,211.420000,156.400000,200,156.400000Z" fill="rgb(112,82,106)" stroke="none" stroke-width="1"/><circle id="s27" r="3.250000" transform="translate(185.190000,183.140000)" fill="rgb(66,43,61)" stroke="none" stroke-width="1"/><path id="s29" d="M170.440000,173.300000C167.230000,167.410000,165.280000,147.940000,169.320000,143.740000C172.950000,139.960000,188,153.100000,193.020000,158.540000C196.370000,165.090000,176.300000,182.260000,170.440000,173.300000Z" fill="rgb(112,82,106)" stroke="none" stroke-width="1"/><path id="s31" d="M229.560000,173.300000C232.770000,167.410000,234.720000,147.940000,230.680000,143.740000C227.050000,140,212,153.100000,207,158.540000C203.630000,165.090000,223.700000,182.260000,229.560000,173.300000Z" fill="rgb(112,82,106)" stroke="none" stroke-width="1"/><circle id="s33" r="3.250000" transform="translate(214.810000,183.140000)" fill="rgb(66,43,61)" stroke="none" stroke-width="1"/></g></g></svg>