<svg id="s1" xmlns="http://www.w3.org/2000/svg" xmlns:xlink="http://www.w3.org/1999/xlink" viewBox="0 0 400 400"><g id="s3"><path id="s5" d="M307.240000,164.130000C304.503640,119.336477,269.105340,83.447144,224.353762,80.093992C179.602185,76.740841,139.250919,106.954402,129.870000,150.840000C112.272068,144.424486,92.583643,147.969139,78.328252,160.119443C64.072862,172.269746,57.453645,191.147898,61,209.540000C61.657869,212.733978,64.479032,215.019372,67.740000,215L348.450000,215C350.338811,215.002588,352.145616,214.228526,353.446733,212.859327C354.747851,211.490128,355.428835,209.646225,355.330000,207.760000C354.560000,193.720000,348.100000,164.130000,307.240000,164.130000Z" fill="rgb(57,102,168)" stroke="none" stroke-width="1"/><line id="s7" x1="290.510000" y1="243.620000" x2="303.980000" y2="230.140000" fill="none" stroke="rgb(84,131,204)" stroke-width="16" stroke-linecap="round" stroke-miterlimit="10"/><line id="s9" x1="262.020000" y1="292.780000" x2="280.120000" y2="274.690000" fill="none" stroke="rgb(84,131,204)" stroke-width="16" stroke-linecap="round" stroke-miterlimit="10"/><line id="s11" x1="120.930000" y1="228.200000" x2="134.640000" y2="214.490000" fill="none" stroke="rgb(84,131,204)" stroke-width="16" stroke-linecap="round" stroke-miterlimit="10"/><line id="s13" x1="97.830000" y1="277.960000" x2="113.750000" y2="262.040000" fill="none" stroke="rgb(84,131,204)" stroke-width="16" stroke-linecap="round" stroke-miterlimit="10"/><line id="s15" x1="153.210000" y1="251.500000" x2="168.960000" y2="235.740000" fill="none" stroke="rgb(84,131,204)" stroke-width="16" stroke-linecap="round" stroke-miterlimit="10"/><line id="s17" x1="133.970000" y1="306.890000" x2="153.430000" y2="287.430000" fill="none" stroke="rgb(84,131,204)" stroke-width="16" stroke-linecap="round" stroke-miterlimit="10"/><polyline id="s19" points="253.660000,194.740000 199.720000,248.680000 242.480000,248.680000 169.520000,321.650000" fill="none" stroke="rgb(255,200,117)" stroke-width="15" stroke-linecap="round" stroke-linejoin="round"/></g></svg>