<svg id="evmLDFjr4Z71" xmlns="http://www.w3.org/2000/svg" xmlns:xlink="http://www.w3.org/1999/xlink" viewBox="0 0 400 400" shape-rendering="geometricPrecision" text-rendering="geometricPrecision"><g id="evmLDFjr4Z72"><path id="evmLDFjr4Z73" d="M266.620000,283.510000L133.380000,283.510000C121.184937,283.471573,111.308427,273.595063,111.270000,261.400000L111.270000,113.730000C111.270000,64.725774,150.995774,25,200,25C249.004226,25,288.730000,64.725774,288.730000,113.730000L288.730000,261.400000C288.691573,273.595063,278.815063,283.471573,266.620000,283.510000Z" fill="rgb(255,153,153)" fill-rule="evenodd" stroke="none" stroke-width="1"/><path id="evmLDFjr4Z74" d="M111.270000,224.560000L111.270000,113.730000C111.270000,64.725774,150.995774,25,200,25C249.004226,25,288.730000,64.725774,288.730000,113.730000L288.730000,224.560000L274.610000,224.560000L274.610000,236.850000C274.593505,242.055099,270.375113,246.269022,265.170000,246.280000L265.170000,246.280000C259.968791,246.263532,255.756468,242.051209,255.740000,236.850000L255.740000,224.560000L244.690000,224.560000L244.690000,255C244.678999,260.203482,240.463482,264.418999,235.260000,264.430000L235.260000,264.430000C230.058791,264.413532,225.846468,260.201209,225.830000,255L225.830000,224.560000L139.520000,224.560000L139.520000,225.800000C139.503532,231.001209,135.291209,235.213532,130.090000,235.230000L130.090000,235.230000C124.884887,235.219022,120.666495,231.005099,120.650000,225.800000L120.650000,224.560000Z" fill="rgb(61,53,50)" fill-rule="evenodd" stroke="none" stroke-width="1"/><path id="evmLDFjr4Z75" d="M219.500000,283.510000L180.500000,283.510000L180.500000,355.510000C180.538428,366.261972,189.248010,374.967087,200,375L200,375C210.755878,374.967057,219.467057,366.255878,219.500000,355.500000Z" fill="rgb(250,221,192)" fill-rule="evenodd" stroke="none" stroke-width="1"/></g></svg>