<svg id="s1" xmlns="http://www.w3.org/2000/svg" xmlns:xlink="http://www.w3.org/1999/xlink" viewBox="0 0 400 400"><defs><linearGradient id="s7-fill" x1="210.730000" y1="356.120000" x2="210.730000" y2="208.970000" spreadMethod="pad" gradientUnits="userSpaceOnUse"><stop id="s7-fill-0" offset="3%" stop-color="rgb(91,194,64)"/><stop id="s7-fill-1" offset="100%" stop-color="rgb(129,219,100)"/></linearGradient><linearGradient id="s21-fill" x1="216.800000" y1="253.030000" x2="190.800000" y2="104.040000" spreadMethod="pad" gradientUnits="userSpaceOnUse"><stop id="s21-fill-0" offset="0%" stop-color="rgb(59,140,56)"/><stop id="s21-fill-1" offset="53%" stop-color="rgb(76,170,78)"/><stop id="s21-fill-2" offset="100%" stop-color="rgb(126,201,81)"/></linearGradient></defs><g id="s3"><g id="s5"><path id="s7" d="M206.400000,209C200.713156,208.998196,195.032977,209.389126,189.400000,210.170000C193.907053,219.467932,196.245758,229.667284,196.240000,240L196.240000,276C196.248003,276.603771,196.015123,277.185850,195.592873,277.617484C195.170622,278.049118,194.593801,278.294733,193.990000,278.300000C193.114261,278.234963,192.345490,277.692979,191.990000,276.890000C183.136828,253.123314,162.012741,236.087513,136.910000,232.470000C127.730000,239.910000,123.310000,246.230000,123.310000,246.230000C148.917164,257.895990,165.381466,283.410775,165.460000,311.550000L165.460000,348.240000C165.460000,352.592004,168.987996,356.120000,173.340000,356.120000L241.340000,356.120000C245.692004,356.120000,249.220000,352.592004,249.220000,348.240000L249.220000,311.550000C249.300498,280.694709,269.032582,253.320767,298.280000,243.490000C297.110000,228.100000,263.570000,209,206.400000,209Z" fill="url(#s7-fill)" stroke="none" stroke-width="1"/><path id="s9" d="M258.280000,244.920000C246.791561,252.620613,238.039214,263.764101,233.280000,276.750000" fill="none" stroke="rgb(155,230,116)" stroke-width="5" stroke-linecap="round" stroke-miterlimit="10"/><line id="s11" x1="170.160000" y1="295.420000" x2="192.850000" y2="295.420000" fill="none" stroke="rgb(155,230,116)" stroke-width="5" stroke-linecap="round" stroke-miterlimit="10"/><line id="s13" x1="188.030000" y1="312.620000" x2="209.570000" y2="312.620000" fill="none" stroke="rgb(155,230,116)" stroke-width="5" stroke-linecap="round" stroke-miterlimit="10"/><line id="s15" x1="172.480000" y1="343.790000" x2="201.280000" y2="343.790000" fill="none" stroke="rgb(155,230,116)" stroke-width="5" stroke-linecap="round" stroke-miterlimit="10"/><line id="s17" x1="228.870000" y1="333.030000" x2="241.120000" y2="333.030000" fill="none" stroke="rgb(155,230,116)" stroke-width="5" stroke-linecap="round" stroke-miterlimit="10"/></g><g id="s19"><path id="s21" d="M340.380000,205.070000C340.377009,185.011549,325.369543,168.126538,305.450000,165.770000C305.353277,165.762070,305.266365,165.707841,305.216727,165.624448C305.167088,165.541056,305.160856,165.438803,305.200000,165.350000C309.740000,154.350000,309.910000,141.020000,303.560000,127.610000C299.718544,119.571918,293.183777,113.132677,285.090000,109.410000C268.650000,101.810000,252.470000,104,240.410000,111.950000C240.026975,112.191898,239.562491,112.268857,239.121916,112.163420C238.681342,112.057984,238.302020,111.779088,238.070000,111.390000C225.835800,91.531415,202.101584,81.946113,179.507758,87.739048C156.913933,93.531984,140.719777,113.354707,139.550000,136.650000C139.526579,137.096452,139.268339,137.497064,138.871392,137.702736C138.474444,137.908408,137.998236,137.888340,137.620000,137.650000C126.030000,130.400000,110.720000,128.540000,95.180000,135.650000C87.054484,139.398833,80.543450,145.938253,76.830000,154.080000C66.300000,177.210000,75.650000,199.850000,93.130000,210.340000C93.209561,210.396223,93.256867,210.487578,93.256867,210.585000C93.256867,210.682422,93.209561,210.773777,93.130000,210.830000C82.440000,220.380000,77.790000,236.630000,86,253C88.675592,258.361654,93.005734,262.719845,98.350000,265.430000C120.070000,276.430000,141.640000,264.760000,147.480000,246.160000C147.509184,246.063772,147.583230,245.987677,147.678626,245.955879C147.774022,245.924080,147.878916,245.940528,147.960000,246C156.436133,252.375758,167.234786,254.821139,177.630756,252.719012C188.026726,250.616886,197.026919,244.168063,202.360000,235C202.559779,234.640088,202.895333,234.375138,203.291767,234.264287C203.688202,234.153435,204.112515,234.205911,204.470000,234.410000C216.982345,241.818673,232.614852,241.485325,244.800000,233.550000C244.965587,233.435602,245.176944,233.410243,245.364893,233.482223C245.552842,233.554204,245.693190,233.714258,245.740000,233.910000C250.378029,251.402163,265.892270,263.816551,283.975737,264.505970C302.059204,265.195390,318.473618,253.998259,324.430000,236.910000C324.448404,236.854292,324.483273,236.805477,324.530000,236.770000C334.520881,229.297564,340.396579,217.546166,340.380000,205.070000Z" fill="url(#s21-fill)" stroke="none" stroke-width="1"/><path id="s23" d="M206.530000,124.200000C215.121137,116.442302,227.193344,113.846599,238.213847,117.387505C249.234350,120.928411,257.535330,130.070053,260,141.380000" fill="none" stroke="rgb(157,219,103)" stroke-width="5" stroke-linecap="round" stroke-miterlimit="10"/><path id="s25" d="M129.260000,153.510000C135.658408,143.212705,148.384663,138.789988,159.790000,142.900000" fill="none" stroke="rgb(157,219,103)" stroke-width="5" stroke-linecap="round" stroke-miterlimit="10"/><path id="s27" d="M126.090000,174.840000C128.592773,170.013710,132.320785,165.930485,136.900000,163" fill="none" stroke="rgb(157,219,103)" stroke-width="5" stroke-linecap="round" stroke-miterlimit="10"/></g></g></svg>