<svg id="s1" xmlns="http://www.w3.org/2000/svg" xmlns:xlink="http://www.w3.org/1999/xlink" viewBox="0 0 400 400"><defs><linearGradient id="s7-fill" x1="-2.980000" y1="71.410000" x2="36.230000" y2="137.130000" spreadMethod="pad" gradientUnits="userSpaceOnUse"><stop id="s7-fill-0" offset="8%" stop-color="rgb(240,231,218)"/><stop id="s7-fill-1" offset="46%" stop-color="rgb(235,227,211)"/><stop id="s7-fill-2" offset="100%" stop-color="rgb(214,195,167)"/></linearGradient><linearGradient id="s9-fill" x1="40.930000" y1="-9.720000" x2="57.370000" y2="31.680000" spreadMethod="pad" gradientUnits="userSpaceOnUse"><stop id="s9-fill-0" offset="8%" stop-color="rgb(240,231,218)"/><stop id="s9-fill-1" offset="46%" stop-color="rgb(235,227,211)"/><stop id="s9-fill-2" offset="100%" stop-color="rgb(214,195,167)"/></linearGradient><linearGradient id="s11-fill" x1="171.150000" y1="53.010000" x2="233.010000" y2="208.760000" spreadMethod="pad" gradientUnits="userSpaceOnUse"><stop id="s11-fill-0" offset="8%" stop-color="rgb(240,231,218)"/><stop id="s11-fill-1" offset="46%" stop-color="rgb(235,227,211)"/><stop id="s11-fill-2" offset="100%" stop-color="rgb(214,195,167)"/></linearGradient><linearGradient id="s15-fill" x1="135.570000" y1="67.130000" x2="254.290000" y2="219.260000" spreadMethod="pad" gradientUnits="userSpaceOnUse"><stop id="s15-fill-0" offset="0%" stop-color="rgb(216,181,86)"/><stop id="s15-fill-1" offset="100%" stop-color="rgb(194,146,50)"/></linearGradient><linearGradient id="s17-fill" x1="-3.610000" y1="-4.630000" x2="4.240000" y2="5.430000" spreadMethod="pad" gradientUnits="userSpaceOnUse"><stop id="s17-fill-0" offset="0%" stop-color="rgb(252,236,194)"/><stop id="s17-fill-1" offset="100%" stop-color="rgb(243,231,199)"/></linearGradient><linearGradient id="s19-fill" x1="-2.490000" y1="-3.200000" x2="2.940000" y2="3.760000" spreadMethod="pad" gradientUnits="userSpaceOnUse"><stop id="s19-fill-0" offset="0%" stop-color="rgb(252,236,194)"/><stop id="s19-fill-1" offset="100%" stop-color="rgb(243,231,199)"/></linearGradient><linearGradient id="s21-fill" x1="-2.130000" y1="-2.740000" x2="2.500000" y2="3.200000" spreadMethod="pad" gradientUnits="userSpaceOnUse"><stop id="s21-fill-0" offset="0%" stop-color="rgb(252,236,194)"/><stop id="s21-fill-1" offset="100%" stop-color="rgb(243,231,199)"/></linearGradient><linearGradient id="s23-fill" x1="-2.500000" y1="-3.200000" x2="2.930000" y2="3.760000" spreadMethod="pad" gradientUnits="userSpaceOnUse"><stop id="s23-fill-0" offset="0%" stop-color="rgb(252,236,194)"/><stop id="s23-fill-1" offset="100%" stop-color="rgb(243,231,199)"/></linearGradient><linearGradient id="s25-fill" x1="-4.610000" y1="-5.910000" x2="5.420000" y2="6.940000" spreadMethod="pad" gradientUnits="userSpaceOnUse"><stop id="s25-fill-0" offset="0%" stop-color="rgb(252,236,194)"/><stop id="s25-fill-1" offset="100%" stop-color="rgb(243,231,199)"/></linearGradient></defs><g id="s3"><g id="s5"><rect id="s7" width="21.440000" height="188.750000" rx="10.720000" ry="10.720000" transform="translate(188.310000,183.400000)" fill="url(#s7-fill)" stroke="none" stroke-width="1"/><rect id="s9" width="98.310000" height="22.020000" rx="11.010000" ry="11.010000" transform="translate(149.870000,354.650000)" fill="url(#s9-fill)" stroke="none" stroke-width="1"/><path id="s11" d="M192.360000,229.920000C170.440000,226.720000,154.470000,207.430000,154.470000,185.280000L154.470000,53.940000C154.470000,49.411265,158.141265,45.740000,162.670000,45.740000L235.390000,45.740000C239.913212,45.740000,243.580000,49.406788,243.580000,53.930000L243.580000,185.850000C243.566163,198.826887,237.902305,211.154545,228.065390,219.618285C218.228476,228.082026,205.193647,231.842833,192.360000,229.920000Z" fill="url(#s11-fill)" stroke="none" stroke-width="1"/></g><g id="s13"><path id="s15" d="M167.550000,97.290000C165.821349,97.290000,164.420000,98.691349,164.420000,100.420000L164.420000,185.290000C164.420000,202.690000,177.050000,217.650000,193.800000,220.090000C195.531897,220.342549,197.279787,220.469547,199.030000,220.470000C218.135437,220.447957,233.617957,204.965437,233.640000,185.860000L233.640000,100.420000C233.640000,98.691349,232.238651,97.290000,230.510000,97.290000Z" fill="url(#s15-fill)" stroke="none" stroke-width="1"/><circle id="s17" r="5.190000" transform="translate(191.510000,127.550000)" opacity="0.8" fill="url(#s17-fill)" stroke="none" stroke-width="1"/><circle id="s19" r="3.590000" transform="translate(215.870000,143.780000)" opacity="0.8" fill="url(#s19-fill)" stroke="none" stroke-width="1"/><circle id="s21" r="3.060000" transform="translate(202.620000,114.600000)" opacity="0.8" fill="url(#s21-fill)" stroke="none" stroke-width="1"/><circle id="s23" r="3.590000" transform="translate(202.620000,191.280000)" opacity="0.8" fill="url(#s23-fill)" stroke="none" stroke-width="1"/><circle id="s25" r="6.630000" transform="translate(184.880000,166.880000)" opacity="0.8" fill="url(#s25-fill)" stroke="none" stroke-width="1"/></g></g></svg>