<svg id="s1" xmlns="http://www.w3.org/2000/svg" xmlns:xlink="http://www.w3.org/1999/xlink" viewBox="0 0 400 400"><defs><linearGradient id="s7-fill" x1="192.460000" y1="176.060000" x2="232.950000" y2="283.560000" spreadMethod="pad" gradientUnits="userSpaceOnUse"><stop id="s7-fill-0" offset="0%" stop-color="rgb(224,65,65)"/><stop id="s7-fill-1" offset="76%" stop-color="rgb(171,50,50)"/><stop id="s7-fill-2" offset="100%" stop-color="rgb(163,36,36)"/></linearGradient><linearGradient id="s11-fill" x1="267.480000" y1="78.270000" x2="227.150000" y2="118.600000" spreadMethod="pad" gradientUnits="userSpaceOnUse"><stop id="s11-fill-0" offset="3%" stop-color="rgb(120,158,33)"/><stop id="s11-fill-1" offset="84%" stop-color="rgb(91,140,24)"/></linearGradient></defs><g id="s3"><path id="s5" d="M193.630000,88.390000C204.715647,112.629816,210.442535,138.975549,210.420000,165.630000L210.420000,168.570000" fill="none" stroke="rgb(159,201,67)" stroke-width="15" stroke-linecap="round" stroke-miterlimit="10"/><path id="s7" d="M252.360000,147.120000L246.940000,147.460000C234.542440,148.211782,222.683717,152.792450,213,160.570000C211.333547,161.912925,208.956453,161.912925,207.290000,160.570000C197.618760,152.805656,185.779084,148.229092,173.400000,147.470000L167.980000,147.130000C149.412902,145.950744,131.367225,153.546148,119.231928,167.648003C107.096631,181.749858,102.276143,200.726147,106.210000,218.910000L123.420000,298.450000C128.678473,322.758385,150.179353,340.107342,175.050000,340.110000L175.050000,340.110000C183.729472,340.123565,192.127975,337.034420,198.730000,331.400000C205.300264,325.763961,214.999736,325.763961,221.570000,331.400000C228.172025,337.034420,236.570528,340.123565,245.250000,340.110000L245.250000,340.110000C270.120647,340.107342,291.621527,322.758385,296.880000,298.450000L314.090000,218.910000C318.025090,200.731935,313.211062,181.760419,301.084772,167.657935C288.958482,153.555450,270.922471,145.953108,252.360000,147.120000Z" fill="url(#s7-fill)" stroke="none" stroke-width="1"/><g id="s9"><path id="s11" d="M285.850000,95.870000C285.190000,66.730000,285.620000,76.770000,285.190000,66.730000C285.046866,63.375798,282.354648,60.692279,279,60.560000C269,60.130000,249.860000,59.900000,249.860000,59.900000C223.459566,59.976890,202.076890,81.359566,202,107.760000C202.026176,117.103371,204.809067,126.231250,210,134C210.462522,134.698906,211.061094,135.297478,211.760000,135.760000C219.532090,140.940331,228.659716,143.712708,238,143.730000C264.396528,143.647622,285.773138,122.266545,285.850000,95.870000Z" fill="url(#s11-fill)" stroke="none" stroke-width="1"/><line id="s13" x1="224.140000" y1="121.610000" x2="270.700000" y2="75.050000" fill="none" stroke="rgb(159,201,67)" stroke-width="10" stroke-linecap="round" stroke-miterlimit="10"/></g></g></svg>