<svg id="ejgUoLaECPB1" xmlns="http://www.w3.org/2000/svg" xmlns:xlink="http://www.w3.org/1999/xlink" viewBox="0 0 400 400" shape-rendering="geometricPrecision" text-rendering="geometricPrecision"><defs><linearGradient id="ejgUoLaECPB5-fill" x1="199.880371" y1="356.972000" x2="199.880371" y2="56.663355" spreadMethod="pad" gradientUnits="userSpaceOnUse"><stop id="ejgUoLaECPB5-fill-0" offset="0%" stop-color="rgb(129,150,235)"/><stop id="ejgUoLaECPB5-fill-1" offset="100%" stop-color="rgb(84,108,201)"/></linearGradient></defs><g id="ejgUoLaECPB2"><circle id="ejgUoLaECPB3" r="175" transform="matrix(1 0 0 1 199.90000000000001 199.90000000000001)" clip-rule="evenodd" fill="rgb(98,126,234)" fill-rule="evenodd" stroke="none" stroke-width="1"/><circle id="ejgUoLaECPB4" r="157" transform="matrix(1 0 0 1 199.90000000000001 199.90000000000001)" clip-rule="evenodd" fill="rgb(84,108,201)" fill-rule="evenodd" stroke="none" stroke-width="1"/><path id="ejgUoLaECPB5" d="M43,206.800000C46.600000,290.300000,115.500000,357,199.900000,357C284.300000,357,353.200000,290.400000,356.800000,206.800000C353.200000,123.300000,284.300000,56.600000,199.900000,56.600000C115.500000,56.600000,46.600000,123.200000,43,206.800000L43,206.800000Z" clip-rule="evenodd" fill="url(#ejgUoLaECPB5-fill)" fill-rule="evenodd" stroke="none" stroke-width="1"/><circle id="ejgUoLaECPB6" r="115.800000" transform="matrix(1 0 0 1 199.90000000000001 199.90000000000001)" clip-rule="evenodd" fill="rgb(98,126,234)" fill-rule="evenodd" stroke="none" stroke-width="1"/><path id="ejgUoLaECPB7" d="M84.100000,203.600000C84.100000,204.800000,84,206,84,207.300000C84,271.300000,135.900000,323.100000,199.800000,323.100000C263.800000,323.100000,315.600000,271.300000,315.600000,207.300000C315.600000,206,315.600000,204.800000,315.500000,203.600000C313.500000,265.800000,262.500000,315.700000,199.700000,315.700000C137.200000,315.700000,86.100000,265.800000,84.100000,203.600000L84.100000,203.600000Z" clip-rule="evenodd" fill="rgb(84,108,201)" fill-rule="evenodd" stroke="none" stroke-width="1"/></g><path id="ejgUoLaECPB8" d="M241.100000,194.800000L203.600000,175L203.600000,214.600000L241.100000,194.800000L241.100000,194.800000ZM203.600000,238.400000L203.600000,270.400000L233.600000,222.600000L203.600000,238.400000L203.600000,238.400000ZM196.200000,270.400000L196.200000,238.400000L166.200000,222.600000L196.200000,270.400000ZM196.200000,175L158.700000,194.800000L196.200000,214.600000L196.200000,175ZM203.600000,129.300000L203.600000,166.600000L238.600000,185.100000L203.600000,129.300000L203.600000,129.300000ZM196.200000,166.600000L196.200000,129.300000L161.200000,185.100000L196.200000,166.600000ZM147.600000,192.800000L199.900000,109.500000L254.300000,196.200000L199.900000,224.900000L145.500000,196.200000L147.600000,192.800000ZM196.700000,285.200000L145.200000,203.200000L199.800000,232L254.400000,203.200000L199.800000,290.200000L196.700000,285.200000Z" fill="rgb(255,255,255)" stroke="none" stroke-width="1"/></svg>