<svg id="eW7lH9pMUZi1" xmlns="http://www.w3.org/2000/svg" xmlns:xlink="http://www.w3.org/1999/xlink" viewBox="0 0 300 300" shape-rendering="geometricPrecision" text-rendering="geometricPrecision"><style><![CDATA[#eW7lH9pMUZi4_ts {animation: eW7lH9pMUZi4_ts__ts 2000ms linear infinite normal forwards}@keyframes eW7lH9pMUZi4_ts__ts { 0% {transform: translate(209.279999px,141.139996px) scale(0.880471,0.880471);animation-timing-function: cubic-bezier(0.175,0.885,0.32,1.275)} 50% {transform: translate(209.279999px,141.139996px) scale(1,1)} 100% {transform: translate(209.279999px,141.139996px) scale(1,1)}} #eW7lH9pMUZi5_tr {animation: eW7lH9pMUZi5_tr__tr 2000ms linear infinite normal forwards}@keyframes eW7lH9pMUZi5_tr__tr { 0% {transform: translate(200px,229.067277px) rotate(8.503472deg);animation-timing-function: cubic-bezier(0.175,0.885,0.32,1.275)} 50% {transform: translate(200px,229.067277px) rotate(0deg)} 100% {transform: translate(200px,229.067277px) rotate(0deg)}} #eW7lH9pMUZi6 {animation: eW7lH9pMUZi6_s_do 2000ms linear infinite normal forwards}@keyframes eW7lH9pMUZi6_s_do { 0% {stroke-dashoffset: 411.75} 50% {stroke-dashoffset: 0} 100% {stroke-dashoffset: 0}}]]></style><g id="eW7lH9pMUZi2" transform="matrix(1 0 0 1 -47.883325 2.597778)"><ellipse id="eW7lH9pMUZi3" rx="83.428339" ry="83.428339" transform="matrix(1.037781 0 0 1.037781 200.93294 152.130676)" fill="rgb(0,0,0)" stroke="none" stroke-width="0"/><g id="eW7lH9pMUZi4_ts" transform="translate(209.279999,141.139996) scale(0.880471,0.880471)"><circle id="eW7lH9pMUZi4" r="58.6" transform="translate(0.000001,0.000004)" fill="rgb(249,200,0)" stroke="none" stroke-width="1"/></g><g id="eW7lH9pMUZi5_tr" transform="translate(200,229.067277) rotate(8.503472)"><g id="eW7lH9pMUZi5" transform="translate(-199.999993,-229.067276)"><path id="eW7lH9pMUZi6" d="M190,206.8L193,225.8C193,225.8,195.16,231.99,200.19,227.91C215.78,215.29,246.8,189.79,246.8,189.79C246.8,189.79,268.95647,171.691769,264.26,139.2C263.26,130.97,253.26,85.2,201.58,85.66C186.77,85.84,144.27,97.2,141.71,145.33C141.71,149.41,140.31,189.75,189.99,206.83" fill="none" stroke="rgb(255,255,255)" stroke-width="4" stroke-linecap="round" stroke-miterlimit="10" stroke-dashoffset="411.75" stroke-dasharray="600"/><g id="eW7lH9pMUZi7" transform="matrix(0.753564 0 0 0.753564 77.817378 68.357969)"><path id="eW7lH9pMUZi8" d="M106.43,119.27C104.248002,118.703072,102.189934,117.736763,100.36,116.42L103.04,110.42C104.62842,111.560053,106.391338,112.434758,108.26,113.01C110.196088,113.65227,112.220261,113.989632,114.26,114.01C115.985928,114.127068,117.711862,113.781881,119.26,113.01C120.250129,112.49232,120.870539,111.467295,120.87,110.35C120.865348,109.564212,120.495839,108.825194,119.87,108.35C119.150339,107.762328,118.320885,107.323806,117.43,107.06Q115.94,106.57,113.43,105.98C111.260364,105.496661,109.122901,104.8788,107.03,104.13C105.374624,103.509549,103.904934,102.47698,102.76,101.13C101.520885,99.59277,100.894016,97.651611,101,95.68C100.981327,93.759038,101.542424,91.877098,102.61,90.28C103.823474,88.558258,105.512291,87.22736,107.47,86.45C109.998668,85.423669,112.711883,84.930048,115.44,85C117.593934,84.99685,119.740068,85.25882,121.83,85.78C123.758672,86.237834,125.604169,86.993577,127.3,88.02L124.86,94.02C121.992802,92.310815,118.727558,91.383307,115.39,91.33C113.684937,91.21324,111.981875,91.584375,110.48,92.4C109.491377,93.003739,108.891702,94.081636,108.9,95.24C108.898156,96.408989,109.630376,97.453304,110.73,97.85C112.530783,98.600238,114.403979,99.163202,116.32,99.53C118.485187,100.022013,120.618999,100.643123,122.71,101.39C124.353795,101.993519,125.821325,102.997076,126.98,104.31C128.232044,105.829512,128.867368,107.764039,128.76,109.73C128.775245,111.63787,128.206459,113.504742,127.13,115.08C125.896402,116.802947,124.191407,118.132913,122.22,118.91C119.677864,119.922307,116.955043,120.402204,114.22,120.32C111.586589,120.342628,108.963441,119.989058,106.43,119.27Z" fill="rgb(36,36,36)" stroke="none" stroke-width="1"/><path id="eW7lH9pMUZi9" d="M157.31,112.47L141.45,112.47L138.45,119.79L130.35,119.79L145.58,85.62L153.39,85.62L168.67,119.79L160.37,119.79ZM154.82,106.47L149.41,93.39L144,106.46Z" fill="rgb(36,36,36)" stroke="none" stroke-width="1"/><path id="eW7lH9pMUZi10" d="M172.83,85.62L180.74,85.62L180.74,113.34L197.87,113.34L197.87,119.79L172.87,119.79Z" fill="rgb(36,36,36)" stroke="none" stroke-width="1"/><path id="eW7lH9pMUZi11" d="M229.4,113.44L229.4,119.79L203,119.79L203,85.62L228.82,85.62L228.82,92L210.82,92L210.82,99.42L226.69,99.42L226.69,105.56L210.8,105.56L210.8,113.47Z" fill="rgb(36,36,36)" stroke="none" stroke-width="1"/></g></g></g></g></svg>