<svg id="s1" xmlns="http://www.w3.org/2000/svg" xmlns:xlink="http://www.w3.org/1999/xlink" viewBox="0 0 400 400"><defs><linearGradient id="s5-fill" x1="279.940000" y1="207.320000" x2="130.490000" y2="207.320000" spreadMethod="pad" gradientUnits="userSpaceOnUse"><stop id="s5-fill-0" offset="3%" stop-color="rgb(49,79,5)"/><stop id="s5-fill-1" offset="17%" stop-color="rgb(49,79,5)"/><stop id="s5-fill-2" offset="61%" stop-color="rgb(66,107,7)"/><stop id="s5-fill-3" offset="85%" stop-color="rgb(82,135,10)"/><stop id="s5-fill-4" offset="100%" stop-color="rgb(65,105,7)"/></linearGradient><linearGradient id="s7-fill" x1="168.630000" y1="135.510000" x2="237.050000" y2="135.510000" spreadMethod="pad" gradientUnits="userSpaceOnUse"><stop id="s7-fill-0" offset="0%" stop-color="rgb(252,222,142)"/><stop id="s7-fill-1" offset="17%" stop-color="rgb(252,232,179)"/><stop id="s7-fill-2" offset="40%" stop-color="rgb(252,222,142)"/><stop id="s7-fill-3" offset="75%" stop-color="rgb(204,175,99)"/></linearGradient><linearGradient id="s11-fill" x1="20.820000" y1="-2.750000" x2="23.730000" y2="15.760000" spreadMethod="pad" gradientUnits="userSpaceOnUse"><stop id="s11-fill-0" offset="0%" stop-color="rgb(252,222,142)"/><stop id="s11-fill-1" offset="17%" stop-color="rgb(252,232,179)"/><stop id="s11-fill-2" offset="40%" stop-color="rgb(252,222,142)"/><stop id="s11-fill-3" offset="75%" stop-color="rgb(204,175,99)"/></linearGradient><linearGradient id="s13-fill" x1="279.940000" y1="317.840000" x2="142.300000" y2="317.840000" spreadMethod="pad" gradientUnits="userSpaceOnUse"><stop id="s13-fill-0" offset="3%" stop-color="rgb(245,173,37)"/><stop id="s13-fill-1" offset="11%" stop-color="rgb(204,141,24)"/><stop id="s13-fill-2" offset="27%" stop-color="rgb(204,141,24)"/><stop id="s13-fill-3" offset="80%" stop-color="rgb(255,202,69)"/></linearGradient><linearGradient id="s15-fill" x1="-22.430000" y1="-21.120000" x2="14.050000" y2="13.240000" spreadMethod="pad" gradientUnits="userSpaceOnUse"><stop id="s15-fill-0" offset="0%" stop-color="rgb(148,134,107)"/><stop id="s15-fill-1" offset="100%" stop-color="rgb(97,81,47)"/></linearGradient></defs><g id="s3"><path id="s5" d="M216.210000,47.480000C216.280777,45.821086,215.672243,44.205004,214.524864,43.004784C213.377484,41.804565,211.790419,41.123935,210.130000,41.120000L189.870000,41.120000C188.209581,41.123935,186.622516,41.804565,185.475136,43.004784C184.327757,44.205004,183.719223,45.821086,183.790000,47.480000C190.070000,196.480000,117.730000,221.550000,135.660000,367.350000C136.082483,370.888727,139.096231,373.545131,142.660000,373.520000L257.360000,373.520000C260.923769,373.545131,263.937517,370.888727,264.360000,367.350000C282.270000,221.550000,209.930000,196.480000,216.210000,47.480000Z" fill="url(#s5-fill)" stroke="none" stroke-width="1"/><path id="s7" d="M202.600000,228.940000C214.660000,218.690000,229.450000,208.170000,241.290000,199.050000C227.290000,158.900000,213.290000,116.480000,216.210000,47.480000C216.280777,45.821086,215.672243,44.205004,214.524864,43.004784C213.377484,41.804565,211.790419,41.123935,210.130000,41.120000L189.870000,41.120000C188.209581,41.123935,186.622516,41.804565,185.475136,43.004784C184.327757,44.205004,183.719223,45.821086,183.790000,47.480000C186.700000,116.480000,172.790000,158.900000,158.710000,199.050000C170.550000,208.180000,185.340000,218.690000,197.400000,228.940000C198.896896,230.220351,201.103104,230.220351,202.600000,228.940000Z" fill="url(#s7-fill)" stroke="none" stroke-width="1"/><path id="s9" d="M200,202.940000C210.860000,197.010000,224.450000,189.940000,236.160000,184.130000C233.710000,176.830000,231.340000,169.360000,229.160000,161.600000C219.280000,166.600000,208.780000,172.130000,200.040000,176.900000C191.300000,172.130000,180.800000,166.590000,170.920000,161.600000C168.700000,169.370000,166.330000,176.840000,163.920000,184.130000C175.550000,189.890000,189.140000,197,200,202.940000Z" fill="rgb(245,173,37)" stroke="none" stroke-width="1"/><rect id="s11" width="44.620000" height="13.450000" rx="6.440000" ry="6.440000" transform="translate(177.690000,53.710000)" fill="url(#s11-fill)" stroke="none" stroke-width="1"/><path id="s13" d="M134.370000,355.270000L265.630000,355.270000C268.350000,326.050000,267.310000,301.840000,264.060000,280.390000L135.940000,280.390000C132.690000,301.850000,131.650000,326.060000,134.370000,355.270000Z" fill="url(#s13-fill)" stroke="none" stroke-width="1"/><circle id="s15" r="19.040000" transform="translate(200,188.280000)" fill="url(#s15-fill)" stroke="none" stroke-width="1"/></g></svg>