<svg id="eOdsl3zUTKb1" xmlns="http://www.w3.org/2000/svg" xmlns:xlink="http://www.w3.org/1999/xlink" viewBox="0 0 400 400" shape-rendering="geometricPrecision" text-rendering="geometricPrecision"><defs><linearGradient id="eOdsl3zUTKb7-fill" x1="74.610400" y1="225.088800" x2="174.034000" y2="192.121600" spreadMethod="pad" gradientUnits="userSpaceOnUse"><stop id="eOdsl3zUTKb7-fill-0" offset="0%" stop-color="rgb(242,237,195)"/><stop id="eOdsl3zUTKb7-fill-1" offset="100%" stop-color="rgb(247,242,213)"/></linearGradient><linearGradient id="eOdsl3zUTKb8-fill" x1="224.876800" y1="222.420800" x2="324.300400" y2="189.453600" spreadMethod="pad" gradientUnits="userSpaceOnUse"><stop id="eOdsl3zUTKb8-fill-0" offset="0%" stop-color="rgb(235,229,167)"/><stop id="eOdsl3zUTKb8-fill-1" offset="100%" stop-color="rgb(247,242,213)"/></linearGradient></defs><g id="eOdsl3zUTKb2"><path id="eOdsl3zUTKb3" d="M67,25L333,25L333,289.340000C332.857179,336.597228,294.577260,374.868212,247.320000,375L152.680000,375C105.422740,374.868212,67.142821,336.597228,67,289.340000L67,25Z" fill="rgb(214,229,240)" fill-rule="evenodd" stroke="none" stroke-width="1"/><polygon id="eOdsl3zUTKb4" points="315.040000,89.450000 85.330000,89.450000 85.330000,25 315.040000,25 315.040000,89.450000" fill="rgb(201,224,240)" fill-rule="evenodd" stroke="none" stroke-width="1"/><g id="eOdsl3zUTKb5"><path id="eOdsl3zUTKb6" d="M315,89.450000L315,216.730000C315,279.990000,263.230000,331.730000,200,331.730000C136.770000,331.730000,85,280,85,216.730000L85,89.450000Z" fill="rgb(247,242,213)" fill-rule="evenodd" stroke="none" stroke-width="1"/><path id="eOdsl3zUTKb7" d="M163.300000,325.720000C117.880000,310.310000,85,267.180000,85,216.730000L85,89.450000L102.940000,89.450000L102.940000,221.870000C103.040237,264.790132,126.055864,304.388753,163.300000,325.720000Z" fill="url(#eOdsl3zUTKb7-fill)" fill-rule="evenodd" stroke="none" stroke-width="1"/><path id="eOdsl3zUTKb8" d="M236.700000,325.720000C282.120000,310.310000,315.040000,267.180000,315.040000,216.720000L315.040000,89.450000L297.040000,89.450000L297.040000,221.870000C296.943875,264.785994,273.936435,304.383652,236.700000,325.720000Z" fill="url(#eOdsl3zUTKb8-fill)" fill-rule="evenodd" stroke="none" stroke-width="1"/></g><g id="eOdsl3zUTKb9"><path id="eOdsl3zUTKb10" d="M256.290000,359.490000C241.950000,351.490000,221.990000,346.490000,200,346.490000C178.740000,346.490000,158.580000,351.200000,143.710000,359.490000Z" fill="rgb(184,198,209)" fill-rule="evenodd" stroke="none" stroke-width="1"/><g id="eOdsl3zUTKb11"><path id="eOdsl3zUTKb12" d="M98.650000,25L129.430000,25L129.430000,236.420000C129.430000,244.919662,122.539662,251.810000,114.040000,251.810000C105.540338,251.810000,98.650000,244.919662,98.650000,236.420000L98.650000,25Z" fill="rgb(245,251,255)" fill-rule="evenodd" stroke="none" stroke-width="1"/><path id="eOdsl3zUTKb13" d="M143.300000,25L137.180000,25L137.180000,124.270000C137.180000,125.959991,138.550009,127.330000,140.240000,127.330000C141.929991,127.330000,143.300000,125.959991,143.300000,124.270000L143.300000,25Z" fill="rgb(255,255,255)" fill-rule="evenodd" stroke="none" stroke-width="1"/></g></g></g></svg>