<svg id="s1" xmlns="http://www.w3.org/2000/svg" xmlns:xlink="http://www.w3.org/1999/xlink" viewBox="0 0 400 400"><defs><linearGradient id="s5-fill" x1="123.740000" y1="19.350000" x2="-19.030000" y2="19.350000" spreadMethod="pad" gradientUnits="userSpaceOnUse"><stop id="s5-fill-0" offset="4%" stop-color="rgb(130,125,117)"/><stop id="s5-fill-1" offset="55%" stop-color="rgb(156,150,140)"/><stop id="s5-fill-2" offset="93%" stop-color="rgb(130,125,117)"/></linearGradient><linearGradient id="s7-fill" x1="146.100000" y1="190.490000" x2="65" y2="190.490000" spreadMethod="pad" gradientUnits="userSpaceOnUse"><stop id="s7-fill-0" offset="4%" stop-color="rgb(130,125,117)"/><stop id="s7-fill-1" offset="55%" stop-color="rgb(156,150,140)"/><stop id="s7-fill-2" offset="93%" stop-color="rgb(130,125,117)"/></linearGradient><linearGradient id="s9-fill" x1="271.290000" y1="146.080000" x2="329.290000" y2="260.080000" spreadMethod="pad" gradientUnits="userSpaceOnUse"><stop id="s9-fill-0" offset="4%" stop-color="rgb(138,132,120)"/><stop id="s9-fill-1" offset="80%" stop-color="rgb(100,96,86)"/></linearGradient><linearGradient id="s11-fill" x1="110.650000" y1="315.580000" x2="267.430000" y2="315.580000" spreadMethod="pad" gradientUnits="userSpaceOnUse"><stop id="s11-fill-0" offset="1%" stop-color="rgb(181,175,163)"/><stop id="s11-fill-1" offset="40%" stop-color="rgb(211,205,190)"/><stop id="s11-fill-2" offset="100%" stop-color="rgb(181,175,163)"/></linearGradient><linearGradient id="s13-fill" x1="175.540000" y1="105.300000" x2="214.870000" y2="179.300000" spreadMethod="pad" gradientUnits="userSpaceOnUse"><stop id="s13-fill-0" offset="33%" stop-color="rgb(237,230,214)"/><stop id="s13-fill-1" offset="93%" stop-color="rgb(195,189,176)"/></linearGradient><linearGradient id="s15-fill" x1="108.520000" y1="194.010000" x2="269.120000" y2="194.010000" spreadMethod="pad" gradientUnits="userSpaceOnUse"><stop id="s15-fill-0" offset="1%" stop-color="rgb(181,175,163)"/><stop id="s15-fill-1" offset="40%" stop-color="rgb(211,205,190)"/><stop id="s15-fill-2" offset="100%" stop-color="rgb(181,175,163)"/></linearGradient><linearGradient id="s29-fill" x1="188.880000" y1="79.910000" x2="210.330000" y2="122.060000" spreadMethod="pad" gradientUnits="userSpaceOnUse"><stop id="s29-fill-0" offset="4%" stop-color="rgb(138,132,120)"/><stop id="s29-fill-1" offset="80%" stop-color="rgb(100,96,86)"/></linearGradient></defs><g id="s3"><rect id="s5" width="110.150000" height="38.700000" rx="0" ry="0" transform="translate(142.930000,238.180000)" fill="url(#s5-fill)" stroke="none" stroke-width="1"/><path id="s7" d="M122.490000,149.260000L93.240000,149.260000C91.068340,149.261736,88.986052,150.124860,87.450000,151.660000L78.240000,160.880000C75.884343,163.220376,75.174976,166.751504,76.444038,169.820048C77.713100,172.888592,80.709393,174.887165,84.030000,174.880000L96,174.880000L138.330000,231.730000C132.860000,204.280000,128.200000,176.660000,122.490000,149.260000Z" fill="url(#s7-fill)" stroke="none" stroke-width="1"/><path id="s9" d="M273,151.240000L309,146.240000C312.745570,145.716720,316.469632,147.329837,318.650000,150.420000L335.130000,173.770000C337.132303,176.607463,337.536409,180.274626,336.200000,183.480000L305.080000,258.260000C303.512243,262.027871,299.831018,264.482021,295.750000,264.480000L287.750000,264.480000C282.354890,264.465279,277.916012,260.228568,277.650000,254.840000C277.420000,250.390000,278,246.050000,281.140000,245.890000C287.640000,245.560000,297.140000,242.820000,294.210000,230.800000C291.280000,218.780000,296.270000,217.670000,301.680000,216.570000C307.090000,215.470000,305.480000,208.570000,304.110000,203.280000C302.740000,197.990000,303.510000,192.750000,309.010000,190.450000C314.510000,188.150000,315.220000,182.450000,311.520000,176.560000C307.820000,170.670000,279.240000,185.620000,262.730000,197.220000C267.540000,179.140000,273,151.240000,273,151.240000Z" fill="url(#s9-fill)" stroke="none" stroke-width="1"/><path id="s11" d="M280.790000,347.550000L253.350000,272.620000L142.650000,272.620000L115.210000,347.550000C114.283989,350.057820,114.643468,352.860037,116.172502,355.052915C117.701535,357.245793,120.206677,358.551897,122.880000,358.550000L273.120000,358.550000C275.793323,358.551897,278.298465,357.245793,279.827498,355.052915C281.356532,352.860037,281.716011,350.057820,280.790000,347.550000Z" fill="url(#s11-fill)" stroke="none" stroke-width="1"/><polygon id="s13" points="281.840000,147.560000 204.100000,113.320000 196.910000,113.320000 191.900000,113.320000 114.170000,147.560000 281.840000,147.560000" fill="url(#s13-fill)" stroke="none" stroke-width="1"/><path id="s15" d="M116.760000,146.110000C115.526599,146.066931,114.344605,146.605753,113.568135,147.565037C112.791665,148.524322,112.510916,149.792636,112.810000,150.990000L137.460000,239.130000C138.010309,240.855294,139.651093,241.995639,141.460000,241.910000L254.570000,241.910000C256.378907,241.995639,258.019691,240.855294,258.570000,239.130000L283.190000,151C283.489084,149.802636,283.208335,148.534322,282.431865,147.575037C281.655395,146.615753,280.473401,146.076931,279.240000,146.120000Z" fill="url(#s15-fill)" stroke="none" stroke-width="1"/><line id="s17" x1="198" y1="164.500000" x2="198" y2="227.390000" fill="none" stroke="rgb(162,158,147)" stroke-width="10" stroke-linecap="round" stroke-miterlimit="10"/><line id="s19" x1="153.270000" y1="164.500000" x2="163.760000" y2="227.390000" fill="none" stroke="rgb(162,158,147)" stroke-width="10" stroke-linecap="round" stroke-miterlimit="10"/><line id="s21" x1="242.740000" y1="164.500000" x2="232.240000" y2="227.390000" fill="none" stroke="rgb(162,158,147)" stroke-width="10" stroke-linecap="round" stroke-miterlimit="10"/><line id="s23" x1="198" y1="340.730000" x2="198" y2="285.620000" fill="none" stroke="rgb(162,158,147)" stroke-width="10" stroke-linecap="round" stroke-miterlimit="10"/><line id="s25" x1="153.270000" y1="340.730000" x2="163.760000" y2="285.620000" fill="none" stroke="rgb(162,158,147)" stroke-width="10" stroke-linecap="round" stroke-miterlimit="10"/><line id="s27" x1="242.740000" y1="340.730000" x2="232.240000" y2="285.620000" fill="none" stroke="rgb(162,158,147)" stroke-width="10" stroke-linecap="round" stroke-miterlimit="10"/><path id="s29" d="M207.360000,118.530000L188.650000,118.530000C185.472012,118.531780,182.732743,116.294362,182.100000,113.180000L178.020000,93.180000C177.624127,91.216144,178.130557,89.178295,179.399687,87.628212C180.668817,86.078130,182.566641,85.179485,184.570000,85.180000L211.450000,85.180000C213.453359,85.179485,215.351183,86.078130,216.620313,87.628212C217.889443,89.178295,218.395873,91.216144,218,93.180000L213.920000,113.180000C213.286514,116.298050,210.541744,118.536544,207.360000,118.530000Z" fill="url(#s29-fill)" stroke="none" stroke-width="1"/></g></svg>