<svg id="eXExL3cdmvH1" xmlns="http://www.w3.org/2000/svg" xmlns:xlink="http://www.w3.org/1999/xlink" viewBox="0 0 400 400" shape-rendering="geometricPrecision" text-rendering="geometricPrecision"><g id="eXExL3cdmvH2"><g id="eXExL3cdmvH3"><polygon id="eXExL3cdmvH4" points="261.240000,103.180000 138.760000,103.180000 138.760000,141.500000 141.030000,141.500000 141.030000,143.670000 138.760000,143.670000 138.760000,375 261.240000,375 261.240000,143.670000 258.970000,143.670000 258.970000,141.500000 261.240000,141.500000 261.240000,103.180000" fill="rgb(255,204,0)" fill-rule="evenodd" stroke="none" stroke-width="1"/><polygon id="eXExL3cdmvH5" points="142.220000,103.180000 177.780000,103.180000 177.780000,366.600000 142.220000,366.600000 142.220000,103.180000" fill="rgb(255,204,153)" fill-rule="evenodd" stroke="none" stroke-width="1"/><polygon id="eXExL3cdmvH6" points="250.470000,103.180000 256.800000,103.180000 256.800000,371.350000 250.470000,371.350000 250.470000,103.180000" fill="rgb(255,153,51)" fill-rule="evenodd" stroke="none" stroke-width="1"/><polygon id="eXExL3cdmvH7" points="151.700000,103.180000 158.020000,103.180000 158.020000,371.350000 151.700000,371.350000 151.700000,103.180000" fill="rgb(255,255,204)" fill-rule="evenodd" stroke="none" stroke-width="1"/><polygon id="eXExL3cdmvH8" points="258.970000,143.670000 141.030000,143.670000 141.030000,141.500000 258.970000,141.500000 258.970000,143.670000" fill="rgb(204,102,51)" fill-rule="evenodd" stroke="none" stroke-width="1"/></g><g id="eXExL3cdmvH9"><polygon id="eXExL3cdmvH10" points="145.650000,103.180000 145.650000,86.980000 254.350000,86.980000 254.350000,103.180000 145.650000,103.180000" fill="rgb(255,204,0)" fill-rule="evenodd" stroke="none" stroke-width="1"/><polygon id="eXExL3cdmvH11" points="180.280000,99.770000 180.280000,90.410000 148.720000,90.410000 148.720000,99.770000 180.280000,99.770000" fill="rgb(255,204,153)" fill-rule="evenodd" stroke="none" stroke-width="1"/><polygon id="eXExL3cdmvH12" points="250.400000,101.650000 250.400000,88.470000 244.790000,88.470000 244.790000,101.650000 250.400000,101.650000" fill="rgb(255,153,51)" fill-rule="evenodd" stroke="none" stroke-width="1"/><polygon id="eXExL3cdmvH13" points="162.750000,96.120000 162.750000,88.470000 157.140000,88.470000 157.140000,96.120000 162.750000,96.120000" fill="rgb(255,255,204)" fill-rule="evenodd" stroke="none" stroke-width="1"/><polygon id="eXExL3cdmvH14" points="145.650000,103.180000 145.650000,101.650000 254.350000,101.650000 254.350000,103.180000 145.650000,103.180000" fill="rgb(204,153,51)" fill-rule="evenodd" stroke="none" stroke-width="1"/></g><g id="eXExL3cdmvH15"><polygon id="eXExL3cdmvH16" points="228.450000,86.980000 171.550000,86.980000 195.260000,25 204.740000,25 228.450000,86.980000" fill="rgb(255,204,153)" fill-rule="evenodd" stroke="none" stroke-width="1"/><polygon id="eXExL3cdmvH17" points="188.360000,81.360000 178.390000,81.360000 196.250000,26.530000 197.910000,26.530000 188.360000,81.360000" fill="rgb(255,255,204)" fill-rule="evenodd" stroke="none" stroke-width="1"/></g></g></svg>