<svg id="esMXGH24w5q1" xmlns="http://www.w3.org/2000/svg" xmlns:xlink="http://www.w3.org/1999/xlink" viewBox="0 0 400 400" shape-rendering="geometricPrecision" text-rendering="geometricPrecision"><defs><linearGradient id="esMXGH24w5q5-fill" x1="199.995632" y1="357.014278" x2="199.995632" y2="56.713424" spreadMethod="pad" gradientUnits="userSpaceOnUse"><stop id="esMXGH24w5q5-fill-0" offset="0%" stop-color="rgb(28,177,227)"/><stop id="esMXGH24w5q5-fill-1" offset="100%" stop-color="rgb(0,155,207)"/></linearGradient></defs><g id="esMXGH24w5q2"><circle id="esMXGH24w5q3" r="175" transform="matrix(1 0 0 1 200 200)" clip-rule="evenodd" fill="rgb(0,170,228)" fill-rule="evenodd" stroke="none" stroke-width="1"/><circle id="esMXGH24w5q4" r="157" transform="matrix(1 0 0 1 200 200)" clip-rule="evenodd" fill="rgb(0,155,207)" fill-rule="evenodd" stroke="none" stroke-width="1"/><path id="esMXGH24w5q5" d="M43.100000,206.900000C46.700000,290.400000,115.600000,357,200,357C284.400000,357,353.300000,290.400000,356.900000,206.900000C353.300000,123.400000,284.400000,56.700000,200,56.700000C115.600000,56.700000,46.700000,123.400000,43.100000,206.900000L43.100000,206.900000Z" clip-rule="evenodd" fill="url(#esMXGH24w5q5-fill)" fill-rule="evenodd" stroke="none" stroke-width="1"/><circle id="esMXGH24w5q6" r="115.800000" transform="matrix(1 0 0 1 200 200)" clip-rule="evenodd" fill="rgb(0,170,228)" fill-rule="evenodd" stroke="none" stroke-width="1"/><path id="esMXGH24w5q7" d="M84.300000,203.700000C84.300000,204.900000,84.300000,206.100000,84.300000,207.400000C84.300000,271.300000,136.100000,323.200000,200.100000,323.200000C264.100000,323.200000,315.900000,271.300000,315.900000,207.400000C315.900000,206.200000,315.900000,205,315.900000,203.700000C313.900000,265.900000,262.900000,315.800000,200.200000,315.800000C137.500000,315.800000,86.200000,266,84.300000,203.700000L84.300000,203.700000Z" clip-rule="evenodd" fill="rgb(0,155,207)" fill-rule="evenodd" stroke="none" stroke-width="1"/></g><path id="esMXGH24w5q8" d="M176.900000,217C172.800000,225,166.300000,231.100000,158.600000,234.600000C150.900000,238.100000,142.100000,239.200000,133.400000,237.100000C124.700000,235,117.300000,230.100000,112,223.400000C106.800000,216.700000,103.700000,208.400000,103.700000,199.500000C103.700000,190.600000,106.800000,182.200000,112,175.500000L112,175.500000C117.200000,168.800000,124.700000,163.900000,133.400000,161.800000C142.100000,159.700000,150.900000,160.800000,158.600000,164.300000C166.300000,167.900000,172.800000,173.900000,176.800000,181.900000C179.500000,187.100000,183.700000,189,187.600000,188.700000C189.400000,188.600000,191.200000,188,192.700000,187C194.300000,186.100000,195.600000,184.800000,196.600000,183.400000C198.600000,180.300000,199,176.100000,196,171.700000L196,171.600000C191.100000,164.100000,189.100000,155.500000,189.900000,147C190.700000,138.600000,194.200000,130.400000,200.400000,123.900000C206.600000,117.400000,214.500000,113.400000,222.900000,112.200000C231.300000,111,240,112.500000,247.800000,117L247.800000,117C255.500000,121.500000,261.200000,128.300000,264.400000,136.200000C267.500000,144.100000,268.100000,152.900000,265.600000,161.500000C263,170.100000,257.700000,177.300000,250.800000,182.100000C243.900000,187,235.400000,189.600000,226.500000,189.100000C221.100000,188.900000,217.700000,191.500000,216.200000,195C215.400000,196.700000,215.100000,198.500000,215.100000,200.400000C215.100000,202.200000,215.500000,204,216.300000,205.700000C217.800000,208.900000,221,211.200000,225.800000,210.800000L225.900000,210.800000C234.800000,210.300000,243.400000,212.900000,250.200000,217.800000C257.100000,222.700000,262.400000,229.800000,265,238.400000C267.600000,247,267,255.800000,263.800000,263.700000C260.700000,271.600000,255,278.400000,247.200000,282.900000L247.200000,282.900000C239.500000,287.400000,230.700000,288.900000,222.300000,287.700000C213.900000,286.500000,205.900000,282.500000,199.800000,276C193.600000,269.500000,190.100000,261.300000,189.300000,252.900000C188.500000,244.500000,190.500000,235.800000,195.400000,228.300000L195.400000,228.300000C198.600000,223.300000,198.100000,218.800000,195.900000,215.600000C194.900000,214.100000,193.500000,212.900000,191.900000,212C190.300000,211.100000,188.500000,210.600000,186.800000,210.500000C183,210.300000,179.200000,212.200000,176.900000,217L176.900000,217L176.900000,217ZM155.600000,227.800000C161.800000,224.900000,167,220.100000,170.300000,213.700000L170.300000,213.700000C174.100000,205.800000,180.700000,202.800000,187.200000,203.100000C190.100000,203.300000,193,204.100000,195.500000,205.600000C198,207,200.300000,209,201.900000,211.400000C205.700000,216.900000,206.600000,224.400000,201.600000,232.300000L201.600000,232.300000C197.700000,238.400000,196,245.400000,196.600000,252.200000C197.200000,259,200.100000,265.600000,205.100000,270.900000C210.100000,276.100000,216.500000,279.300000,223.300000,280.300000C230.100000,281.300000,237.200000,280.100000,243.400000,276.500000L243.400000,276.500000C249.600000,272.900000,254.300000,267.400000,256.800000,261C259.400000,254.700000,259.800000,247.500000,257.700000,240.500000C255.600000,233.600000,251.400000,227.800000,245.700000,223.900000C240.100000,220,233.300000,217.800000,226.100000,218.200000L226.100000,218.200000C217.800000,218.900000,212.200000,214.600000,209.400000,208.800000C208.200000,206.200000,207.500000,203.300000,207.500000,200.400000C207.500000,197.500000,208,194.600000,209.200000,192C211.900000,185.900000,217.700000,181.400000,226.700000,181.700000L226.700000,181.700000C233.900000,182.100000,240.800000,180,246.400000,176C252,172.100000,256.300000,166.300000,258.400000,159.400000C260.500000,152.400000,260,145.200000,257.500000,138.900000C254.900000,132.600000,250.300000,127,244.100000,123.400000L244.100000,123.400000C237.800000,119.800000,230.700000,118.600000,224,119.600000C217.200000,120.600000,210.800000,123.800000,205.800000,129C200.800000,134.200000,198,140.800000,197.400000,147.700000C196.800000,154.500000,198.400000,161.500000,202.300000,167.600000L202.300000,167.600000C207.300000,174.800000,206.600000,182,203,187.500000C201.400000,189.900000,199.200000,192,196.700000,193.500000C194.200000,195,191.300000,195.900000,188.400000,196.200000C181.800000,196.700000,174.800000,193.800000,170.500000,185.400000L170.500000,185.400000C167.200000,179,161.900000,174.100000,155.800000,171.200000C149.600000,168.300000,142.400000,167.500000,135.400000,169.100000C128.400000,170.800000,122.400000,174.800000,118.100000,180.200000L118.100000,180.200000C113.900000,185.500000,111.400000,192.300000,111.400000,199.600000C111.400000,206.800000,113.900000,213.600000,118.100000,219C122.300000,224.400000,128.300000,228.400000,135.400000,230.100000C142.200000,231.500000,149.300000,230.700000,155.600000,227.800000L155.600000,227.800000Z" fill="rgb(255,255,255)" stroke="none" stroke-width="1"/></svg>