<svg id="s1" xmlns="http://www.w3.org/2000/svg" xmlns:xlink="http://www.w3.org/1999/xlink" viewBox="0 0 400 400"><defs><linearGradient id="s5-fill" x1="138.150000" y1="201.370000" x2="255.950000" y2="201.370000" spreadMethod="pad" gradientUnits="userSpaceOnUse"><stop id="s5-fill-0" offset="3%" stop-color="rgb(199,188,60)"/><stop id="s5-fill-1" offset="36%" stop-color="rgb(222,210,69)"/><stop id="s5-fill-2" offset="66%" stop-color="rgb(194,168,47)"/><stop id="s5-fill-3" offset="100%" stop-color="rgb(125,116,38)"/></linearGradient><linearGradient id="s7-fill" x1="173.330000" y1="59.720000" x2="234.930000" y2="64.750000" spreadMethod="pad" gradientUnits="userSpaceOnUse"><stop id="s7-fill-0" offset="4%" stop-color="rgb(138,132,120)"/><stop id="s7-fill-1" offset="80%" stop-color="rgb(82,76,61)"/></linearGradient><linearGradient id="s9-fill" x1="13.590000" y1="68.080000" x2="107.350000" y2="68.080000" spreadMethod="pad" gradientUnits="userSpaceOnUse"><stop id="s9-fill-0" offset="0%" stop-color="rgb(252,222,142)"/><stop id="s9-fill-1" offset="17%" stop-color="rgb(252,232,179)"/><stop id="s9-fill-2" offset="40%" stop-color="rgb(252,222,142)"/><stop id="s9-fill-3" offset="75%" stop-color="rgb(204,175,99)"/></linearGradient><linearGradient id="s11-fill" x1="13.790000" y1="0.970000" x2="42.030000" y2="17.220000" spreadMethod="pad" gradientUnits="userSpaceOnUse"><stop id="s11-fill-0" offset="4%" stop-color="rgb(138,132,120)"/><stop id="s11-fill-1" offset="80%" stop-color="rgb(82,76,61)"/></linearGradient></defs><g id="s3"><path id="s5" d="M218.550000,116.210000L218.550000,32.260000C218.550000,28.730900,215.689100,25.870000,212.160000,25.870000L187.840000,25.870000C184.310900,25.870000,181.450000,28.730900,181.450000,32.260000L181.450000,116.210000C181.468499,117.962951,180.413702,119.549112,178.790000,120.210000C157.460437,128.893595,143.488499,149.600662,143.420000,172.630000L143.420000,367.510000C143.420000,369.992426,144.406140,372.373179,146.161481,374.128519C147.916821,375.883860,150.297574,376.870000,152.780000,376.870000L247.230000,376.870000C249.712426,376.870000,252.093179,375.883860,253.848519,374.128519C255.603860,372.373179,256.590000,369.992426,256.590000,367.510000L256.590000,172.580000C256.521501,149.550662,242.549563,128.843595,221.220000,120.160000C219.609350,119.509056,218.553623,117.947212,218.550000,116.210000Z" fill="url(#s5-fill)" stroke="none" stroke-width="1"/><path id="s7" d="M212.290000,25.870000L187.710000,25.870000C184.252697,25.870000,181.450000,28.672697,181.450000,32.130000L181.450000,97.440000L218.550000,97.440000L218.550000,32.130000C218.550000,30.469745,217.890466,28.877489,216.716488,27.703512C215.542511,26.529534,213.950255,25.870000,212.290000,25.870000Z" fill="url(#s7-fill)" stroke="none" stroke-width="1"/><rect id="s9" width="113.170000" height="136.170000" rx="0" ry="0" transform="translate(143.420000,189.030000)" fill="url(#s9-fill)" stroke="none" stroke-width="1"/><rect id="s11" width="47.260000" height="13.250000" rx="5.510000" ry="5.510000" transform="translate(176.190000,39.430000)" fill="url(#s11-fill)" stroke="none" stroke-width="1"/></g></svg>