<svg id="s1" xmlns="http://www.w3.org/2000/svg" xmlns:xlink="http://www.w3.org/1999/xlink" viewBox="0 0 400 400"><defs><linearGradient id="s5-fill" x1="107.690000" y1="0.270000" x2="107.690000" y2="48" spreadMethod="pad" gradientUnits="userSpaceOnUse"><stop id="s5-fill-0" offset="10%" stop-color="rgb(255,198,107)"/><stop id="s5-fill-1" offset="51%" stop-color="rgb(245,155,81)"/><stop id="s5-fill-2" offset="89%" stop-color="rgb(239,132,44)"/></linearGradient><linearGradient id="s7-fill" x1="111.170000" y1="6.940000" x2="111.170000" y2="34.940000" spreadMethod="pad" gradientUnits="userSpaceOnUse"><stop id="s7-fill-0" offset="7%" stop-color="rgb(171,67,46)"/><stop id="s7-fill-1" offset="65%" stop-color="rgb(186,76,55)"/><stop id="s7-fill-2" offset="100%" stop-color="rgb(207,84,61)"/></linearGradient><linearGradient id="s11-fill" x1="200.110000" y1="238.630000" x2="201.440000" y2="271.960000" spreadMethod="pad" gradientUnits="userSpaceOnUse"><stop id="s11-fill-0" offset="9%" stop-color="rgb(252,193,96)"/><stop id="s11-fill-1" offset="63%" stop-color="rgb(252,220,131)"/></linearGradient><linearGradient id="s13-fill" x1="200.180000" y1="240.350000" x2="201.450000" y2="271.990000" spreadMethod="pad" gradientUnits="userSpaceOnUse"><stop id="s13-fill-0" offset="17%" stop-color="rgb(247,186,84)"/><stop id="s13-fill-1" offset="40%" stop-color="rgb(252,193,96)"/></linearGradient><linearGradient id="s17-fill" x1="142.500000" y1="251.720000" x2="142.500000" y2="186.300000" spreadMethod="pad" gradientUnits="userSpaceOnUse"><stop id="s17-fill-0" offset="0%" stop-color="rgb(232,117,82)"/><stop id="s17-fill-1" offset="69%" stop-color="rgb(217,78,48)"/><stop id="s17-fill-2" offset="96%" stop-color="rgb(232,78,37)"/></linearGradient><linearGradient id="s19-fill" x1="278.250000" y1="241.390000" x2="278.250000" y2="186.070000" spreadMethod="pad" gradientUnits="userSpaceOnUse"><stop id="s19-fill-0" offset="0%" stop-color="rgb(232,117,82)"/><stop id="s19-fill-1" offset="69%" stop-color="rgb(217,78,48)"/><stop id="s19-fill-2" offset="96%" stop-color="rgb(232,78,37)"/></linearGradient><linearGradient id="s21-fill" x1="176.470000" y1="239.380000" x2="176.470000" y2="184.060000" spreadMethod="pad" gradientUnits="userSpaceOnUse"><stop id="s21-fill-0" offset="0%" stop-color="rgb(232,117,82)"/><stop id="s21-fill-1" offset="69%" stop-color="rgb(217,78,48)"/><stop id="s21-fill-2" offset="96%" stop-color="rgb(232,78,37)"/></linearGradient><linearGradient id="s23-fill" x1="101.240000" y1="12.180000" x2="101.240000" y2="2.200000" spreadMethod="pad" gradientUnits="userSpaceOnUse"><stop id="s23-fill-0" offset="0%" stop-color="rgb(232,117,82)"/><stop id="s23-fill-1" offset="69%" stop-color="rgb(217,78,48)"/><stop id="s23-fill-2" offset="96%" stop-color="rgb(232,78,37)"/></linearGradient><linearGradient id="s25-fill" x1="199.980000" y1="273.980000" x2="199.980000" y2="302.680000" spreadMethod="pad" gradientUnits="userSpaceOnUse"><stop id="s25-fill-0" offset="21%" stop-color="rgb(159,194,81)"/><stop id="s25-fill-1" offset="100%" stop-color="rgb(95,153,47)"/></linearGradient><linearGradient id="s29-fill" x1="200" y1="105.310000" x2="200" y2="214.700000" spreadMethod="pad" gradientUnits="userSpaceOnUse"><stop id="s29-fill-0" offset="10%" stop-color="rgb(255,198,107)"/><stop id="s29-fill-1" offset="51%" stop-color="rgb(245,155,81)"/><stop id="s29-fill-2" offset="83%" stop-color="rgb(239,132,44)"/><stop id="s29-fill-3" offset="100%" stop-color="rgb(245,155,81)"/></linearGradient><linearGradient id="s31-fill" x1="-7.167785" y1="25.958103" x2="-6.355575" y2="39.038466" spreadMethod="pad" gradientUnits="userSpaceOnUse"><stop id="s31-fill-0" offset="8%" stop-color="rgb(255,230,163)"/><stop id="s31-fill-1" offset="78%" stop-color="rgb(255,220,153)"/></linearGradient><linearGradient id="s33-fill" x1="-16.412325" y1="63.379397" x2="-13.494855" y2="78.485607" spreadMethod="pad" gradientUnits="userSpaceOnUse"><stop id="s33-fill-0" offset="8%" stop-color="rgb(255,230,163)"/><stop id="s33-fill-1" offset="78%" stop-color="rgb(255,220,153)"/></linearGradient><linearGradient id="s35-fill" x1="95.853031" y1="-67.132854" x2="97.834535" y2="-51.170040" spreadMethod="pad" gradientUnits="userSpaceOnUse"><stop id="s35-fill-0" offset="8%" stop-color="rgb(255,230,163)"/><stop id="s35-fill-1" offset="78%" stop-color="rgb(255,220,153)"/></linearGradient><linearGradient id="s37-fill" x1="-7.262827" y1="68.066260" x2="-4.345357" y2="83.172470" spreadMethod="pad" gradientUnits="userSpaceOnUse"><stop id="s37-fill-0" offset="8%" stop-color="rgb(255,230,163)"/><stop id="s37-fill-1" offset="78%" stop-color="rgb(255,220,153)"/></linearGradient><linearGradient id="s39-fill" x1="88.868067" y1="-86.150197" x2="78.435793" y2="-68.087355" spreadMethod="pad" gradientUnits="userSpaceOnUse"><stop id="s39-fill-0" offset="8%" stop-color="rgb(255,230,163)"/><stop id="s39-fill-1" offset="78%" stop-color="rgb(255,220,153)"/></linearGradient></defs><g id="s3"><rect id="s5" width="215.370000" height="50.280000" rx="25.140000" ry="25.140000" transform="translate(92.510000,288.300000)" fill="url(#s5-fill)" stroke="none" stroke-width="1"/><rect id="s7" width="222.330000" height="43.590000" rx="21.800000" ry="21.800000" transform="translate(89.850000,244.710000)" fill="url(#s7-fill)" stroke="none" stroke-width="1"/><g id="s9"><path id="s11" d="M200.170000,234L104.240000,234C102.626650,234.013113,101.085368,234.670096,99.958689,235.824941C98.832011,236.979786,98.213279,238.536818,98.240000,240.150000L98.240000,240.150000C98.276926,243.439759,100.501224,246.301908,103.680000,247.150000L197.210000,272.150000C199.175879,272.672463,201.244121,272.672463,203.210000,272.150000L296.740000,247.150000C299.918776,246.301908,302.143074,243.439759,302.180000,240.150000L302.180000,240.150000C302.206721,238.536818,301.587989,236.979786,300.461311,235.824941C299.334632,234.670096,297.793350,234.013113,296.180000,234Z" fill="url(#s11-fill)" stroke="none" stroke-width="1"/><path id="s13" d="M296.710000,239.360000L203.180000,264.360000C201.214121,264.882463,199.145879,264.882463,197.180000,264.360000L103.650000,239.360000C101.946120,238.896079,100.468165,237.830246,99.490000,236.360000C98.637999,237.445074,98.185956,238.790611,98.210000,240.170000C98.246926,243.459759,100.471224,246.321908,103.650000,247.170000L197.180000,272.170000C199.145879,272.692463,201.214121,272.692463,203.180000,272.170000L296.710000,247.170000C299.888776,246.321908,302.113074,243.459759,302.150000,240.170000C302.174044,238.790611,301.722001,237.445074,300.870000,236.360000C299.891835,237.830246,298.413880,238.896079,296.710000,239.360000Z" fill="url(#s13-fill)" stroke="none" stroke-width="1"/></g><g id="s15"><path id="s17" d="M131.500000,222L131.500000,260.340000C131.500000,266.415132,136.424868,271.340000,142.500000,271.340000C148.575132,271.340000,153.500000,266.415132,153.500000,260.340000L153.500000,222Z" fill="url(#s17-fill)" stroke="none" stroke-width="1"/><path id="s19" d="M267.250000,222L267.250000,247.870000C267.260983,253.456188,271.783826,257.983500,277.370000,258L279.140000,258C284.722283,257.983525,289.243525,253.462283,289.260000,247.880000L289.260000,222Z" fill="url(#s19-fill)" stroke="none" stroke-width="1"/><path id="s21" d="M165.470000,222L165.470000,245.860000C165.475483,251.450092,169.999930,255.983480,175.590000,256L177.360000,256C182.942283,255.983525,187.463525,251.462283,187.480000,245.880000L187.480000,222Z" fill="url(#s21-fill)" stroke="none" stroke-width="1"/><rect id="s23" width="202.460000" height="15.180000" rx="5.420000" ry="5.420000" transform="translate(98.960000,219.640000)" fill="url(#s23-fill)" stroke="none" stroke-width="1"/></g><path id="s25" d="M301.500000,282.300000C308.071826,282.488596,313.301467,287.870469,313.301467,294.445000C313.301467,301.019531,308.071826,306.401404,301.500000,306.590000L300.430000,306.590000C287.810000,306.590000,287.810000,293.310000,275.200000,293.310000C262.590000,293.310000,262.590000,306.590000,250,306.590000C237.410000,306.590000,237.390000,293.310000,224.770000,293.310000C212.150000,293.310000,212.160000,306.590000,199.540000,306.590000C186.920000,306.590000,186.930000,293.310000,174.310000,293.310000C161.690000,293.310000,161.700000,306.590000,149.080000,306.590000C136.460000,306.590000,136.470000,293.310000,123.860000,293.310000L123.700000,293.310000C111.090000,293.310000,111.090000,306.590000,98.470000,306.590000C94.047913,306.716903,89.906327,304.430235,87.657836,300.620347C85.409345,296.810459,85.409345,292.079541,87.657836,288.269653C89.906327,284.459765,94.047913,282.173097,98.470000,282.300000C111.080000,282.300000,111.080000,277.210000,123.700000,277.210000L123.860000,277.210000C136.470000,277.210000,136.470000,282.300000,149.080000,282.300000C161.690000,282.300000,161.690000,277.210000,174.310000,277.210000C186.930000,277.210000,186.920000,282.300000,199.540000,282.300000C212.160000,282.300000,212.150000,277.210000,224.770000,277.210000C237.390000,277.210000,237.380000,282.300000,250,282.300000C262.620000,282.300000,262.620000,277.210000,275.230000,277.210000C287.840000,277.210000,287.850000,282.300000,300.460000,282.300000" fill="url(#s25-fill)" stroke="none" stroke-width="1"/><g id="s27"><path id="s29" d="M298.920000,219.910000C305.593055,219.900566,311.881249,216.784571,315.930726,211.480658C319.980203,206.176745,321.329195,199.289726,319.580000,192.850000C305.920000,142.160000,257.580000,104.690000,200,104.690000C142.420000,104.690000,94.080000,142.160000,80.420000,192.850000C78.670805,199.289726,80.019797,206.176745,84.069274,211.480658C88.118751,216.784571,94.406945,219.900566,101.080000,219.910000Z" fill="url(#s29-fill)" stroke="none" stroke-width="1"/><rect id="s31" width="31.150000" height="12.610000" rx="6.300000" ry="6.300000" transform="translate(28.370000,-24.760000) rotate(10.830022) scale(1,1) translate(129.240000,131.010000)" fill="url(#s31-fill)" stroke="none" stroke-width="1"/><rect id="s33" width="31.150000" height="12.610000" rx="6.300000" ry="6.300000" transform="translate(52.050000,-56.860000) rotate(18.250013) scale(1,1) translate(187.410000,127.250000)" fill="url(#s33-fill)" stroke="none" stroke-width="1"/><rect id="s35" width="31.150000" height="12.610000" rx="6.300000" ry="6.300000" transform="translate(-32.820000,109.540000) rotate(-32.879997) skewX(-0) scale(0.999999,0.999999) translate(153.620000,104.070000)" fill="url(#s35-fill)" stroke="none" stroke-width="1"/><rect id="s37" width="31.150000" height="12.610000" rx="6.300000" ry="6.300000" transform="translate(44.830000,-64.170000) rotate(18.250013) scale(1,1) translate(206.560000,101.150000)" fill="url(#s37-fill)" stroke="none" stroke-width="1"/><rect id="s39" width="31.150000" height="12.610000" rx="6.300000" ry="6.300000" transform="translate(-31.740000,109.080000) rotate(-22.709991) scale(1,1) translate(240.120000,127.250000)" fill="url(#s39-fill)" stroke="none" stroke-width="1"/></g></g></svg>