<svg id="s1" xmlns="http://www.w3.org/2000/svg" xmlns:xlink="http://www.w3.org/1999/xlink" viewBox="0 0 400 400"><defs><linearGradient id="s5-fill" x1="186.650000" y1="172.620000" x2="240.650000" y2="264.620000" spreadMethod="pad" gradientUnits="userSpaceOnUse"><stop id="s5-fill-0" offset="4%" stop-color="rgb(242,196,138)"/><stop id="s5-fill-1" offset="93%" stop-color="rgb(224,175,112)"/></linearGradient><linearGradient id="s7-fill" x1="147.690000" y1="151.960000" x2="208.360000" y2="338.630000" spreadMethod="pad" gradientUnits="userSpaceOnUse"><stop id="s7-fill-0" offset="4%" stop-color="rgb(247,211,168)"/><stop id="s7-fill-1" offset="48%" stop-color="rgb(247,202,148)"/></linearGradient><linearGradient id="s9-fill" x1="189.970000" y1="56.890000" x2="207.970000" y2="103.550000" spreadMethod="pad" gradientUnits="userSpaceOnUse"><stop id="s9-fill-0" offset="4%" stop-color="rgb(242,196,138)"/><stop id="s9-fill-1" offset="93%" stop-color="rgb(224,175,112)"/></linearGradient><linearGradient id="s13-fill" x1="163.340000" y1="215.600000" x2="180.340000" y2="295.600000" spreadMethod="pad" gradientUnits="userSpaceOnUse"><stop id="s13-fill-0" offset="5%" stop-color="rgb(222,246,255)"/><stop id="s13-fill-1" offset="76%" stop-color="rgb(210,234,245)"/></linearGradient></defs><g id="s3"><path id="s5" d="M263.100000,95.370000L136.700000,95.370000L162.140000,129.740000L162.140000,347.360000L280,347.360000C282.270253,347.360000,284.447523,346.458145,286.052834,344.852834C287.658145,343.247523,288.560000,341.070253,288.560000,338.800000L288.560000,129.740000Z" fill="url(#s5-fill)" stroke="none" stroke-width="1"/><path id="s7" d="M111.460000,129.740000L237.860000,129.740000L237.860000,347.360000L120,347.360000C117.729747,347.360000,115.552477,346.458145,113.947166,344.852834C112.341855,343.247523,111.440000,341.070253,111.440000,338.800000L111.440000,129.740000Z" fill="url(#s7-fill)" stroke="none" stroke-width="1"/><path id="s9" d="M141,66.420000L258.820000,66.420000C261.183779,66.420000,263.100000,68.336221,263.100000,70.700000L263.100000,95.370000L136.700000,95.370000L136.700000,70.700000C136.699988,69.561400,137.153659,68.469723,137.960646,67.666490C138.767632,66.863257,139.861412,66.414679,141,66.420000Z" fill="url(#s9-fill)" stroke="none" stroke-width="1"/><polygon id="s11" points="237.860000,129.740000 111.460000,129.740000 136.910000,95.370000 263.300000,95.370000 237.860000,129.740000" fill="rgb(255,228,194)" stroke="none" stroke-width="1"/><path id="s13" d="M207,268.110000C206.689593,285.773919,192.281646,299.930900,174.615000,299.930900C156.948354,299.930900,142.540407,285.773919,142.230000,268.110000C142.230000,250.220000,174.620000,210.530000,174.620000,210.530000C174.620000,210.530000,207,250.230000,207,268.110000Z" fill="url(#s13-fill)" stroke="none" stroke-width="1"/></g></svg>