<svg id="s1" xmlns="http://www.w3.org/2000/svg" xmlns:xlink="http://www.w3.org/1999/xlink" viewBox="0 0 400 400"><defs><linearGradient id="s7-fill" x1="176.770000" y1="315.160000" x2="221.450000" y2="315.160000" spreadMethod="pad" gradientUnits="userSpaceOnUse"><stop id="s7-fill-0" offset="7%" stop-color="rgb(176,234,255)"/><stop id="s7-fill-1" offset="18%" stop-color="rgb(212,244,255)"/><stop id="s7-fill-2" offset="30%" stop-color="rgb(201,241,255)"/><stop id="s7-fill-3" offset="58%" stop-color="rgb(176,233,255)"/><stop id="s7-fill-4" offset="85%" stop-color="rgb(140,214,242)"/><stop id="s7-fill-5" offset="100%" stop-color="rgb(176,233,255)"/></linearGradient><linearGradient id="s9-fill" x1="-5" y1="8.440000" x2="120" y2="8.440000" spreadMethod="pad" gradientUnits="userSpaceOnUse"><stop id="s9-fill-0" offset="7%" stop-color="rgb(176,234,255)"/><stop id="s9-fill-1" offset="18%" stop-color="rgb(212,244,255)"/><stop id="s9-fill-2" offset="30%" stop-color="rgb(201,241,255)"/><stop id="s9-fill-3" offset="58%" stop-color="rgb(176,233,255)"/><stop id="s9-fill-4" offset="85%" stop-color="rgb(140,214,242)"/><stop id="s9-fill-5" offset="100%" stop-color="rgb(176,233,255)"/></linearGradient><linearGradient id="s11-fill" x1="130.510000" y1="193.320000" x2="262.920000" y2="193.320000" spreadMethod="pad" gradientUnits="userSpaceOnUse"><stop id="s11-fill-0" offset="7%" stop-color="rgb(176,234,255)"/><stop id="s11-fill-1" offset="18%" stop-color="rgb(212,244,255)"/><stop id="s11-fill-2" offset="30%" stop-color="rgb(201,241,255)"/><stop id="s11-fill-3" offset="58%" stop-color="rgb(176,233,255)"/><stop id="s11-fill-4" offset="85%" stop-color="rgb(140,214,242)"/><stop id="s11-fill-5" offset="100%" stop-color="rgb(176,233,255)"/></linearGradient><linearGradient id="s15-fill" x1="249.350000" y1="271.060000" x2="177.630000" y2="184.140000" spreadMethod="pad" gradientUnits="userSpaceOnUse"><stop id="s15-fill-0" offset="4%" stop-color="rgb(176,28,97)"/><stop id="s15-fill-1" offset="90%" stop-color="rgb(245,98,174)"/></linearGradient><linearGradient id="s17-fill" x1="2.100002" y1="0.659951" x2="33.390002" y2="34.919951" spreadMethod="pad" gradientUnits="userSpaceOnUse"><stop id="s17-fill-0" offset="18%" stop-color="rgb(252,251,247)"/><stop id="s17-fill-1" offset="100%" stop-color="rgb(252,241,214)"/></linearGradient><linearGradient id="s19-fill" x1="-2.150003" y1="11.030017" x2="37.919997" y2="23.870017" spreadMethod="pad" gradientUnits="userSpaceOnUse"><stop id="s19-fill-0" offset="18%" stop-color="rgb(252,251,247)"/><stop id="s19-fill-1" offset="100%" stop-color="rgb(252,241,214)"/></linearGradient><linearGradient id="s21-fill" x1="-2.149998" y1="11.019993" x2="37.910002" y2="23.869993" spreadMethod="pad" gradientUnits="userSpaceOnUse"><stop id="s21-fill-0" offset="18%" stop-color="rgb(252,251,247)"/><stop id="s21-fill-1" offset="100%" stop-color="rgb(252,241,214)"/></linearGradient></defs><g id="s3"><g id="s5"><path id="s7" d="M221.230000,346.360000L221.090000,346.360000C213.980166,346.338039,208.221961,340.579834,208.200000,333.470000L208.200000,290.050000C208.200000,285.510219,204.519781,281.830000,199.980000,281.830000C195.440219,281.830000,191.760000,285.510219,191.760000,290.050000L191.760000,333.470000C191.738039,340.579834,185.979834,346.338039,178.870000,346.360000L178.520000,346.360000L178.520000,348.490000L221.190000,348.490000Z" fill="url(#s7-fill)" stroke="none" stroke-width="1"/><rect id="s9" width="119.360000" height="16.880000" rx="8.440000" ry="8.440000" transform="translate(140.210000,346.360000)" fill="url(#s9-fill)" stroke="none" stroke-width="1"/><path id="s11" d="M258.230000,84.780000L139.830000,84.780000C138.296708,84.765334,136.889972,85.628478,136.208494,87.002082C135.527016,88.375686,135.690745,90.017977,136.630000,91.230000C167.680000,132.410000,164.500000,149.650000,149.940000,187.880000C134.330000,228.880000,136.710000,301.880000,199.020000,301.880000C261.330000,301.880000,263.720000,228.880000,248.100000,187.880000C233.540000,149.650000,230.360000,132.410000,261.410000,91.230000C262.346958,90.020828,262.512249,88.383171,261.835814,87.011157C261.159379,85.639142,259.759686,84.773059,258.230000,84.780000Z" fill="url(#s11-fill)" stroke="none" stroke-width="1"/></g><path id="s13" d="M187,240.780000L234.350000,58.640000C235.025380,56.041773,237.102927,54.043137,239.725346,53.468823C242.347766,52.894509,245.070492,53.841878,246.770000,55.920000L286.770000,104.820000" fill="none" stroke="rgb(245,173,37)" stroke-width="13" stroke-linecap="round" stroke-miterlimit="10"/><path id="s15" d="M199,288.230000C183.750000,288.230000,172.790000,283.080000,165.490000,272.490000C151.960000,252.860000,153.690000,217.390000,162.190000,194C162.218315,193.921538,162.241694,193.841381,162.260000,193.760000C171.080000,170.700000,175.520000,155.030000,173.890000,138.760000C173.790759,137.826727,174.092378,136.895199,174.719803,136.197213C175.347227,135.499227,176.241466,135.100409,177.180000,135.100000L220.820000,135.100000C221.758534,135.100409,222.652773,135.499227,223.280197,136.197213C223.907622,136.895199,224.209241,137.826727,224.110000,138.760000C222.480000,155.010000,226.920000,170.690000,235.750000,193.760000C235.768700,193.838001,235.792076,193.914806,235.820000,193.990000C244.320000,217.390000,246.060000,252.850000,232.520000,272.480000C225.240000,283.090000,214.280000,288.230000,199,288.230000Z" opacity="0.8" fill="url(#s15-fill)" stroke="none" stroke-width="1"/><rect id="s17" width="34.500000" height="34.500000" rx="3.460000" ry="3.460000" transform="translate(-114.290000,208.180000) rotate(-47.600003) skewX(-0) scale(0.999999,0.999999) translate(161.630000,216.420000)" opacity="0.3" fill="url(#s17-fill)" stroke="none" stroke-width="1"/><rect id="s19" width="34.500000" height="34.500000" rx="3.460000" ry="3.460000" transform="translate(-71.230000,75.910000) rotate(-17.780005) scale(1,1) translate(189.810000,248.430000)" opacity="0.3" fill="url(#s19-fill)" stroke="none" stroke-width="1"/><rect id="s21" width="34.500000" height="34.500000" rx="3.460000" ry="3.460000" transform="translate(317,-74.300000) rotate(63.230012) scale(1,1) translate(201.600000,203.080000)" opacity="0.3" fill="url(#s21-fill)" stroke="none" stroke-width="1"/></g></svg>