<svg id="s1" xmlns="http://www.w3.org/2000/svg" xmlns:xlink="http://www.w3.org/1999/xlink" viewBox="0 0 400 400"><defs><clipPath id="s3"><path id="s5" d="M224.220000,336.890000L277.120000,219.690000C278.712359,216.162171,278.405942,212.067374,276.306277,208.815823C274.206611,205.564271,270.600553,203.600193,266.730000,203.600000L160.930000,203.600000C157.059447,203.600193,153.453389,205.564271,151.353723,208.815823C149.254058,212.067374,148.947641,216.162171,150.540000,219.690000L203.440000,336.890000C205.283917,340.973829,209.349187,343.598742,213.830000,343.598742C218.310813,343.598742,222.376083,340.973829,224.220000,336.890000Z" fill="none" stroke="none" stroke-width="1"/></clipPath><linearGradient id="s11-fill" x1="172.640000" y1="235.610000" x2="264.520000" y2="287.230000" spreadMethod="pad" gradientUnits="userSpaceOnUse"><stop id="s11-fill-0" offset="7%" stop-color="rgb(252,209,156)"/><stop id="s11-fill-1" offset="100%" stop-color="rgb(237,170,85)"/></linearGradient><linearGradient id="s35-fill" x1="178.330000" y1="51.750000" x2="227.890000" y2="185.960000" spreadMethod="pad" gradientUnits="userSpaceOnUse"><stop id="s35-fill-0" offset="6%" stop-color="rgb(252,141,172)"/><stop id="s35-fill-1" offset="68%" stop-color="rgb(252,106,148)"/><stop id="s35-fill-2" offset="100%" stop-color="rgb(242,80,126)"/></linearGradient></defs><g id="s7"><g id="s9"><path id="s11" d="M224.220000,336.890000L277.120000,219.690000C278.712359,216.162171,278.405942,212.067374,276.306277,208.815823C274.206611,205.564271,270.600553,203.600193,266.730000,203.600000L160.930000,203.600000C157.059447,203.600193,153.453389,205.564271,151.353723,208.815823C149.254058,212.067374,148.947641,216.162171,150.540000,219.690000L203.440000,336.890000C205.283917,340.973829,209.349187,343.598742,213.830000,343.598742C218.310813,343.598742,222.376083,340.973829,224.220000,336.890000Z" fill="url(#s11-fill)" stroke="none" stroke-width="1"/><g id="s13"><g id="s15" clip-path="url(#s3)"><g id="s17"><line id="s19" x1="131.070000" y1="251.700000" x2="297.290000" y2="251.700000" fill="none" stroke="rgb(227,172,98)" stroke-width="10" stroke-linecap="round" stroke-miterlimit="10"/><line id="s21" x1="131.070000" y1="285.910000" x2="297.290000" y2="285.910000" fill="none" stroke="rgb(227,172,98)" stroke-width="10" stroke-linecap="round" stroke-miterlimit="10"/><line id="s23" x1="131.070000" y1="320.110000" x2="297.290000" y2="320.110000" fill="none" stroke="rgb(227,172,98)" stroke-width="10" stroke-linecap="round" stroke-miterlimit="10"/><line id="s25" x1="162.870000" y1="364.290000" x2="162.870000" y2="219.900000" fill="none" stroke="rgb(227,172,98)" stroke-width="10" stroke-linecap="round" stroke-miterlimit="10"/><line id="s27" x1="197.080000" y1="364.290000" x2="197.080000" y2="219.900000" fill="none" stroke="rgb(227,172,98)" stroke-width="10" stroke-linecap="round" stroke-miterlimit="10"/><line id="s29" x1="231.280000" y1="364.290000" x2="231.280000" y2="219.900000" fill="none" stroke="rgb(227,172,98)" stroke-width="10" stroke-linecap="round" stroke-miterlimit="10"/><line id="s31" x1="265.480000" y1="364.290000" x2="265.480000" y2="219.900000" fill="none" stroke="rgb(227,172,98)" stroke-width="10" stroke-linecap="round" stroke-miterlimit="10"/></g></g></g></g><g id="s33"><path id="s35" d="M306.060000,143.940000C306.060000,95.220000,264.250000,55.730000,212.670000,55.730000C161.090000,55.730000,119.280000,95.220000,119.280000,143.940000C119.343717,165.909015,127.892095,187.004089,143.140000,202.820000C141.183447,206.020887,140.145551,209.698501,140.140000,213.450000C140.184905,219.019604,142.440581,224.343232,146.410766,228.249654C150.380951,232.156076,155.740399,234.325270,161.310000,234.280000C168.689118,234.299080,175.547801,230.481547,179.420000,224.200000C183.555793,230.867331,191.020730,234.722758,198.851501,234.235816C206.682272,233.748875,213.612064,228.998339,216.890000,221.870000C219.976030,228.445818,226.427271,232.792653,233.680695,233.183544C240.934120,233.574434,247.815147,229.946081,251.590000,223.740000C255.404236,230.288758,262.421482,234.306236,270,234.280000C275.569601,234.325270,280.929049,232.156076,284.899234,228.249654C288.869419,224.343232,291.125095,219.019604,291.170000,213.450000C291.165600,208.138619,289.104891,203.035228,285.420000,199.210000C298.689794,183.848705,306.012785,164.239128,306.060000,143.940000Z" fill="url(#s35-fill)" stroke="none" stroke-width="1"/><line id="s37" x1="230.440000" y1="200.630000" x2="264.090000" y2="200.630000" fill="none" stroke="rgb(209,65,110)" stroke-width="10" stroke-linecap="round" stroke-miterlimit="10"/><line id="s39" x1="194.050000" y1="200.630000" x2="208.220000" y2="200.630000" fill="none" stroke="rgb(209,65,110)" stroke-width="10" stroke-linecap="round" stroke-miterlimit="10"/></g></g></svg>