<svg id="e4u8kNIzaTr1" xmlns="http://www.w3.org/2000/svg" xmlns:xlink="http://www.w3.org/1999/xlink" viewBox="0 0 300 300" shape-rendering="geometricPrecision" text-rendering="geometricPrecision"><g id="e4u8kNIzaTr2"><rect id="e4u8kNIzaTr3" width="251.140065" height="247.231271" rx="0" ry="0" transform="matrix(1 0 0 1 24.429968 26.384365)" fill="rgb(0,0,0)" stroke="none" stroke-width="0"/><g id="e4u8kNIzaTr4" transform="matrix(1.256629 0 0 1.256629 -70.058333 -24.663943)"><g id="e4u8kNIzaTr5"><path id="e4u8kNIzaTr6" d="M121.7,121.72C118.138925,120.86803,114.754501,119.399191,111.7,117.38L116.7,106.09C119.314343,107.775963,122.156478,109.07917,125.14,109.96C128.19218,110.918625,131.370858,111.414134,134.57,111.43Q143.39,111.43,143.39,107.02C143.381311,105.452496,142.370089,104.066599,140.88,103.58C138.264987,102.546488,135.560188,101.756473,132.8,101.22C129.332427,100.512314,125.917687,99.566745,122.58,98.39C119.877547,97.394415,117.469928,95.733158,115.58,93.56C113.58,91.34,112.65,88.35,112.65,84.56C112.615338,81.374115,113.557626,78.254096,115.35,75.62C117.383859,72.784896,120.193015,70.597296,123.44,69.32C127.608447,67.669126,132.068157,66.879917,136.55,67C140.094218,66.998176,143.627069,67.40078,147.08,68.2C150.281093,68.898455,153.356611,70.082126,156.2,71.71L151.48,83.09C146.909436,80.461326,141.751338,79.023936,136.48,78.91C133.48,78.91,131.22,79.36,129.83,80.26C128.540214,80.960944,127.737992,82.312054,127.74,83.78C127.74,85.23,128.56,86.31,130.21,87.03C132.80144,88.023116,135.479644,88.773013,138.21,89.27C141.689847,89.967419,145.115277,90.913172,148.46,92.1C151.147814,93.104295,153.550442,94.748379,155.46,96.89C157.46,99.09,158.46,102.06,158.46,105.83C158.487783,108.979111,157.541225,112.05979,155.75,114.65C153.694662,117.476689,150.878732,119.661462,147.63,120.95C143.454048,122.627203,138.978565,123.430407,134.48,123.31C130.169423,123.330571,125.874127,122.79618,121.7,121.72Z" fill="rgb(36,36,36)" stroke="rgb(255,255,255)" stroke-width="0.805777" stroke-miterlimit="10"/><path id="e4u8kNIzaTr7" d="M124.7,125.72C121.138925,124.86803,117.754501,123.399191,114.7,121.38L119.7,110.09C122.314343,111.775963,125.156478,113.07917,128.14,113.96C131.19218,114.918625,134.370858,115.414134,137.57,115.43Q146.39,115.43,146.39,111.02C146.381311,109.452496,145.370089,108.066599,143.88,107.58C141.264987,106.546488,138.560188,105.756473,135.8,105.22C132.332427,104.512314,128.917687,103.566745,125.58,102.39C122.877547,101.394415,120.469928,99.733158,118.58,97.56C116.58,95.34,115.65,92.35,115.65,88.56C115.615338,85.374115,116.557626,82.254096,118.35,79.62C120.383859,76.784896,123.193015,74.597296,126.44,73.32C130.608447,71.669126,135.068157,70.879917,139.55,71C143.094218,70.998176,146.627069,71.40078,150.08,72.2C153.281093,72.898455,156.356611,74.082126,159.2,75.71L154.48,87.09C149.909436,84.461326,144.751338,83.023936,139.48,82.91C136.48,82.91,134.22,83.36,132.83,84.26C131.540214,84.960944,130.737992,86.312054,130.74,87.78C130.74,89.23,131.56,90.31,133.21,91.03C135.80144,92.023116,138.479644,92.773013,141.21,93.27C144.689847,93.967419,148.115277,94.913172,151.46,96.1C154.147814,97.104295,156.550442,98.748379,158.46,100.89C160.46,103.09,161.46,106.06,161.46,109.83C161.487783,112.979111,160.541225,116.05979,158.75,118.65C156.694662,121.476689,153.878732,123.661462,150.63,124.95C146.454048,126.627203,141.978565,127.430407,137.48,127.31C133.169423,127.330571,128.874127,126.79618,124.7,125.72Z" fill="rgb(36,36,36)" stroke="rgb(255,255,255)" stroke-width="0.805777" stroke-miterlimit="10"/><path id="e4u8kNIzaTr8" d="M127.7,129.72C124.138925,128.86803,120.754501,127.399191,117.7,125.38L122.7,114.09C125.314343,115.775963,128.156478,117.07917,131.14,117.96C134.19218,118.918625,137.370858,119.414134,140.57,119.43Q149.39,119.43,149.39,115.02C149.381311,113.452496,148.370089,112.066599,146.88,111.58C144.264987,110.546488,141.560188,109.756473,138.8,109.22C135.332427,108.512314,131.917687,107.566745,128.58,106.39C125.877547,105.394415,123.469928,103.733158,121.58,101.56C119.58,99.34,118.65,96.35,118.65,92.56C118.615338,89.374115,119.557626,86.254096,121.35,83.62C123.383859,80.784896,126.193015,78.597296,129.44,77.32C133.608447,75.669126,138.068157,74.879917,142.55,75C146.094218,74.998176,149.627069,75.40078,153.08,76.2C156.281093,76.898455,159.356611,78.082126,162.2,79.71L157.48,91.09C152.909436,88.461326,147.751338,87.023936,142.48,86.91C139.48,86.91,137.22,87.36,135.83,88.26C134.540214,88.960944,133.737992,90.312054,133.74,91.78C133.74,93.23,134.56,94.31,136.21,95.03C138.80144,96.023116,141.479644,96.773013,144.21,97.27C147.689847,97.967419,151.115277,98.913172,154.46,100.1C157.147814,101.104295,159.550442,102.748379,161.46,104.89C163.46,107.09,164.46,110.06,164.46,113.83C164.487783,116.979111,163.541225,120.05979,161.75,122.65C159.694662,125.476689,156.878732,127.661462,153.63,128.95C149.454048,130.627203,144.978565,131.430407,140.48,131.31C136.169423,131.330571,131.874127,130.79618,127.7,129.72Z" fill="rgb(36,36,36)" stroke="rgb(255,255,255)" stroke-width="0.805777" stroke-miterlimit="10"/><path id="e4u8kNIzaTr9" d="M130.93,132.94C127.349096,132.096554,123.944076,130.630974,120.87,128.61L125.87,117.31C131.217558,120.709766,137.403882,122.558393,143.74,122.65Q152.56,122.65,152.56,118.24C152.546793,116.670851,151.532128,115.285753,150.04,114.8C147.425489,113.765025,144.720552,112.97497,141.96,112.44C138.496829,111.731898,135.085668,110.789736,131.75,109.62C129.047677,108.619268,126.640491,106.95487,124.75,104.78Q121.81,101.45,121.81,95.78C121.774408,92.592495,122.720558,89.471247,124.52,86.84C126.550344,84.005617,129.356106,81.817956,132.6,80.54C136.793499,78.878978,141.281406,78.089597,145.79,78.22C149.330913,78.21824,152.860446,78.620848,156.31,79.42C159.514721,80.141451,162.59027,81.348738,165.43,83L160.71,94.37C156.138936,91.742519,150.981149,90.305216,145.71,90.19Q141.15,90.19,139.06,91.55C137.811036,92.254265,137.027544,93.566424,137,95C137,96.45,137.82,97.53,139.48,98.25C142.070011,99.249808,144.748535,100.003143,147.48,100.5C150.9598,101.193283,154.385287,102.135709,157.73,103.32C160.417727,104.329306,162.819967,105.976557,164.73,108.12Q167.73,111.4,167.73,117.05C167.762769,120.212161,166.808457,123.30581,165,125.9C162.947061,128.729014,160.130387,130.914364,156.88,132.2C152.705632,133.882711,148.228995,134.686122,143.73,134.56C139.411337,134.574057,135.108989,134.029541,130.93,132.94Z" fill="rgb(36,36,36)" stroke="rgb(255,255,255)" stroke-width="0.805777" stroke-miterlimit="10"/><path id="e4u8kNIzaTr10" d="M134.15,136.16C130.567653,135.320929,127.16189,133.855029,124.09,131.83L129.09,120.54C134.452761,123.93756,140.652168,125.782498,147,125.87Q155.82,125.87,155.82,121.46C155.80372,119.891872,154.790228,118.508375,153.3,118.02C150.683894,116.989678,147.979392,116.199749,145.22,115.66C141.752634,114.955737,138.337888,114.013508,135,112.84C132.29887,111.836976,129.892213,110.172944,128,108Q125,104.69,125,99C124.962567,95.815341,125.908973,92.696739,127.71,90.07C129.73893,87.231921,132.544833,85.040678,135.79,83.76C139.993444,82.112198,144.487187,81.333192,149,81.47C152.540948,81.467628,156.07055,81.870245,159.52,82.67C162.72529,83.370014,165.804366,84.557128,168.65,86.19L163.93,97.56C159.356947,94.937269,154.200394,93.50031,148.93,93.38C145.93,93.38,143.67,93.84,142.28,94.74C140.999489,95.450535,140.200853,96.795605,140.19,98.26C140.19,99.7,141.02,100.79,142.67,101.51C145.260964,102.504553,147.939305,103.254488,150.67,103.75C154.148046,104.450672,157.573015,105.392956,160.92,106.57C163.60717,107.580375,166.009171,109.227461,167.92,111.37Q170.92,114.65,170.92,120.3C170.951373,123.448128,170.008278,126.528908,168.22,129.12C166.158587,131.94726,163.340349,134.134601,160.09,135.43C155.914284,137.108024,151.438629,137.91126,146.94,137.79C142.624298,137.799148,138.325459,137.25129,134.15,136.16Z" fill="rgb(255,255,255)" stroke="rgb(255,255,255)" stroke-width="1"/></g><g id="e4u8kNIzaTr11"><path id="e4u8kNIzaTr12" d="M220.21,111.74L197.31,111.74L193.06,122.26L177.43,122.26L201.33,68.11L216.42,68.11L240.42,122.26L224.46,122.26ZM215.72,100.44L208.72,83.12L201.72,100.44Z" fill="rgb(36,36,36)" stroke="rgb(255,255,255)" stroke-width="0.805777" stroke-miterlimit="10"/><path id="e4u8kNIzaTr13" d="M223.21,115.74L200.31,115.74L196.06,126.26L180.43,126.26L204.33,72.11L219.42,72.11L243.42,126.26L227.46,126.26ZM218.72,104.44L211.72,87.12L204.72,104.44Z" fill="rgb(36,36,36)" stroke="rgb(255,255,255)" stroke-width="0.805777" stroke-miterlimit="10"/><path id="e4u8kNIzaTr14" d="M226.21,119.74L203.31,119.74L199.06,130.26L183.43,130.26L207.33,76.11L222.42,76.11L246.42,130.26L230.46,130.26ZM221.72,108.44L214.72,91.12L207.72,108.44Z" fill="rgb(36,36,36)" stroke="rgb(255,255,255)" stroke-width="0.805777" stroke-miterlimit="10"/><path id="e4u8kNIzaTr15" d="M229.43,123L206.53,123L202.28,133.52L186.65,133.52L210.56,79.37L225.64,79.37L249.64,133.52L233.68,133.52ZM224.94,111.71L217.94,94.38L210.94,111.71Z" fill="rgb(36,36,36)" stroke="rgb(255,255,255)" stroke-width="0.805777" stroke-miterlimit="10"/><path id="e4u8kNIzaTr16" d="M232.65,126.18L209.76,126.18L205.5,136.7L189.88,136.7L213.78,82.55L228.86,82.55L252.86,136.7L236.91,136.7ZM228.17,114.89L221.17,97.56L214.17,114.89Z" fill="rgb(255,255,255)" stroke="rgb(255,255,255)" stroke-width="1"/></g><g id="e4u8kNIzaTr17"><path id="e4u8kNIzaTr18" d="M112.44,145.41L127.75,145.41L127.75,187.41L153.59,187.41L153.59,199.55L112.44,199.55Z" fill="rgb(36,36,36)" stroke="rgb(255,255,255)" stroke-width="0.805777" stroke-miterlimit="10"/><path id="e4u8kNIzaTr19" d="M116.44,148.41L131.75,148.41L131.75,190.41L157.59,190.41L157.59,202.55L116.44,202.55Z" fill="rgb(36,36,36)" stroke="rgb(255,255,255)" stroke-width="0.805777" stroke-miterlimit="10"/><path id="e4u8kNIzaTr20" d="M120.44,151.41L135.75,151.41L135.75,193.41L161.59,193.41L161.59,205.55L120.44,205.55Z" fill="rgb(36,36,36)" stroke="rgb(255,255,255)" stroke-width="0.805777" stroke-miterlimit="10"/><path id="e4u8kNIzaTr21" d="M124.66,154.63L140,154.63L140,196.63L165.83,196.63L165.83,208.78L124.66,208.78Z" fill="rgb(36,36,36)" stroke="rgb(255,255,255)" stroke-width="0.805777" stroke-miterlimit="10"/><path id="e4u8kNIzaTr22" d="M127.88,156.85L143.2,156.85L143.2,198.85L169,198.85L169,211L127.88,211Z" fill="rgb(255,255,255)" stroke="rgb(255,255,255)" stroke-width="1"/></g><g id="e4u8kNIzaTr23"><path id="e4u8kNIzaTr24" d="M228,187.72L228,199.55L184.51,199.55L184.51,145.41L227,145.41L227,157.24L199.67,157.24L199.67,166.37L223.73,166.37L223.73,177.82L199.67,177.82L199.67,187.72Z" fill="rgb(36,36,36)" stroke="rgb(255,255,255)" stroke-width="0.805777" stroke-miterlimit="10"/><path id="e4u8kNIzaTr25" d="M232,190.72L232,202.55L188.51,202.55L188.51,148.41L231,148.41L231,160.24L203.67,160.24L203.67,169.37L227.73,169.37L227.73,180.82L203.67,180.82L203.67,190.72Z" fill="rgb(36,36,36)" stroke="rgb(255,255,255)" stroke-width="0.805777" stroke-miterlimit="10"/><path id="e4u8kNIzaTr26" d="M236,193.72L236,205.55L192.51,205.55L192.51,151.41L235,151.41L235,163.24L207.67,163.24L207.67,172.37L231.73,172.37L231.73,183.82L207.67,183.82L207.67,193.72Z" fill="rgb(36,36,36)" stroke="rgb(255,255,255)" stroke-width="0.805777" stroke-miterlimit="10"/><path id="e4u8kNIzaTr27" d="M240.21,196.94L240.21,208.78L196.74,208.78L196.74,154.63L239.2,154.63L239.2,166.46L211.9,166.46L211.9,175.59L235.9,175.59L235.9,187L211.9,187L211.9,196.9Z" fill="rgb(36,36,36)" stroke="rgb(255,255,255)" stroke-width="0.805777" stroke-miterlimit="10"/><path id="e4u8kNIzaTr28" d="M243.43,199.16L243.43,211L200,211L200,156.85L242.47,156.85L242.47,168.69L215.12,168.69L215.12,177.82L239.18,177.82L239.18,189.26L215.12,189.26L215.12,199.16Z" fill="rgb(255,255,255)" stroke="rgb(255,255,255)" stroke-width="1"/></g></g></g></svg>