<svg id="enuITychCG01" xmlns="http://www.w3.org/2000/svg" xmlns:xlink="http://www.w3.org/1999/xlink" viewBox="0 0 300 300" shape-rendering="geometricPrecision" text-rendering="geometricPrecision"><style><![CDATA[#enuITychCG03_to {animation: enuITychCG03_to__to 2000ms linear infinite normal forwards}@keyframes enuITychCG03_to__to { 0% {transform: translate(157.461997px,154px);animation-timing-function: cubic-bezier(0.175,0.885,0.32,1.275)} 25% {transform: translate(157.426553px,162.462429px);animation-timing-function: cubic-bezier(0.175,0.885,0.32,1.275)} 50% {transform: translate(157.461997px,154px)} 100% {transform: translate(157.461997px,154px)}} #enuITychCG04 {animation: enuITychCG04__m 2000ms linear infinite normal forwards}@keyframes enuITychCG04__m { 0% {d: path('M284.73,153.84L187.28,237.16L89.83,153.84L120.9,153.84L120.9,54.98L253.66,54.98L253.66,153.84L284.73,153.84');animation-timing-function: cubic-bezier(0.175,0.885,0.32,1.275)} 25% {d: path('M303.331099,163.920488L187.28,232.235387L73.667943,163.920488L120.9,163.920488L120.9,67.890706L253.66,67.890706L253.66,163.920488L303.331099,163.920488');animation-timing-function: cubic-bezier(0.175,0.885,0.32,1.275)} 50% {d: path('M284.73,153.84L187.28,237.16L89.83,153.84L120.9,153.84L120.9,54.98L253.66,54.98L253.66,153.84L284.73,153.84')} 100% {d: path('M284.73,153.84L187.28,237.16L89.83,153.84L120.9,153.84L120.9,54.98L253.66,54.98L253.66,153.84L284.73,153.84')}} #enuITychCG04_to {animation: enuITychCG04_to__to 2000ms linear infinite normal forwards}@keyframes enuITychCG04_to__to { 0% {transform: translate(187.280006px,146.070004px);animation-timing-function: cubic-bezier(0.175,0.885,0.32,1.275)} 25% {transform: translate(187.280006px,142.070004px);animation-timing-function: cubic-bezier(0.175,0.885,0.32,1.275)} 50% {transform: translate(187.280006px,146.070004px)} 100% {transform: translate(187.280006px,146.070004px)}} #enuITychCG05 {animation: enuITychCG05__m 2000ms linear infinite normal forwards}@keyframes enuITychCG05__m { 0% {d: path('M276.62,147.29L179.17,230.61L81.72,147.29L112.8,147.29L112.8,48.43L245.55,48.43L245.55,147.29L276.62,147.29');animation-timing-function: cubic-bezier(0.175,0.885,0.32,1.275)} 25% {d: path('M285.11487,167.250002L179.354972,230.61L73.667943,167.152767L112.984972,167.250001L112.984972,76.076213L245.734973,76.076213L245.734972,167.25L285.11487,167.250002');animation-timing-function: cubic-bezier(0.175,0.885,0.32,1.275)} 50% {d: path('M276.62,147.29L179.17,230.61L81.72,147.29L112.8,147.29L112.8,48.43L245.55,48.43L245.55,147.29L276.62,147.29')} 100% {d: path('M276.62,147.29L179.17,230.61L81.72,147.29L112.8,147.29L112.8,48.43L245.55,48.43L245.55,147.29L276.62,147.29')}} #enuITychCG06_to {animation: enuITychCG06_to__to 2000ms linear infinite normal forwards}@keyframes enuITychCG06_to__to { 0% {transform: translate(178.879998px,101.626023px);animation-timing-function: cubic-bezier(0.175,0.885,0.32,1.275)} 25% {transform: translate(178.879998px,124.733289px);animation-timing-function: cubic-bezier(0.175,0.885,0.32,1.275)} 50% {transform: translate(178.879998px,101.626023px)} 100% {transform: translate(178.879998px,101.626023px)}}]]></style><g id="enuITychCG02"><g id="enuITychCG03_to" transform="translate(157.461997,154)"><g id="enuITychCG03" transform="scale(0.885268,0.885268) translate(-183.225006,-142.795005)"><g id="enuITychCG04_to" transform="translate(187.280006,146.070004)"><path id="enuITychCG04" d="M284.73,153.84L187.28,237.16L89.83,153.84L120.9,153.84L120.9,54.98L253.66,54.98L253.66,153.84L284.73,153.84Z" transform="translate(-187.280006,-146.070004)" fill="rgb(20,19,19)" stroke="none" stroke-width="1"/></g><path id="enuITychCG05" d="M276.62,147.29L179.17,230.61L81.72,147.29L112.8,147.29L112.8,48.43L245.55,48.43L245.55,147.29L276.62,147.29Z" fill="rgb(36,36,36)" stroke="rgb(255,255,255)" stroke-width="4" stroke-miterlimit="10"/><g id="enuITychCG06_to" transform="translate(178.879998,101.626023)"><g id="enuITychCG06" transform="translate(-178.879997,-101.626022)"><path id="enuITychCG07" d="M145.46,88.94C146.127888,89.830029,146.479795,90.91742,146.46,92.03C146.533854,93.620316,145.776565,95.134893,144.46,96.03C142.683023,97.070717,140.634883,97.554886,138.58,97.42L128.3,97.42L128.3,77.67L138,77.67C139.94795,77.547702,141.886171,78.029638,143.55,79.05C144.795329,79.884996,145.524253,81.301299,145.48,82.8C145.520084,84.634314,144.500162,86.327696,142.86,87.15C143.889769,87.465826,144.797475,88.090747,145.46,88.94ZM132.85,81.11L132.85,85.77L137.39,85.77C138.28565,85.825434,139.178209,85.620528,139.96,85.18C140.534666,84.787715,140.864153,84.124955,140.83,83.43C140.86062,82.738532,140.531546,82.080385,139.96,81.69C139.176958,81.253482,138.284623,81.052099,137.39,81.11ZM140.9,93.39C141.522773,92.993485,141.876452,92.286127,141.82,91.55Q141.82,89.11,138.18,89.1L132.85,89.1L132.85,94L138.18,94C139.125678,94.052673,140.067386,93.841481,140.9,93.39Z" fill="rgb(255,255,255)" stroke="none" stroke-width="1"/><path id="enuITychCG08" d="M150.26,77.67L154.83,77.67L154.83,93.67L164.73,93.67L164.73,97.39L150.26,97.39Z" fill="rgb(255,255,255)" stroke="none" stroke-width="1"/><path id="enuITychCG09" d="M180.85,93.19L171.68,93.19L169.93,97.42L165.24,97.42L174.05,77.67L178.56,77.67L187.39,97.42L182.6,97.42ZM179.41,89.72L176.28,82.16L173.14,89.72Z" fill="rgb(255,255,255)" stroke="none" stroke-width="1"/><path id="enuITychCG010" d="M193.53,96.45C191.941077,95.610848,190.612862,94.35181,189.69,92.81C187.837405,89.544452,187.837405,85.545548,189.69,82.28C190.612862,80.73819,191.941077,79.479152,193.53,78.64C196.689696,77.049488,200.382101,76.900042,203.66,78.23C205.012024,78.809435,206.207889,79.700336,207.15,80.83L204.21,83.54C202.987071,82.041118,201.144179,81.186016,199.21,81.22C198.091032,81.202368,196.986106,81.470854,196,82C195.056014,82.51913,194.27913,83.296014,193.76,84.24C192.692738,86.292908,192.692738,88.737092,193.76,90.79C194.274566,91.745055,195.051875,92.532775,196,93.06C197.004031,93.611306,198.134751,93.890539,199.28,93.87C201.221206,93.905802,203.068812,93.037427,204.28,91.52L207.22,94.23C206.283899,95.377551,205.0827,96.280166,203.72,96.86C202.245045,97.477132,200.658684,97.783511,199.06,97.76C197.135683,97.79673,195.233343,97.346085,193.53,96.45Z" fill="rgb(255,255,255)" stroke="none" stroke-width="1"/><path id="enuITychCG011" d="M217.79,89.66L215.13,92.43L215.13,97.43L210.59,97.43L210.59,77.67L215.13,77.67L215.13,86.9L223.88,77.67L229,77.67L220.82,86.47L229.48,97.47L224.15,97.47Z" fill="rgb(255,255,255)" stroke="none" stroke-width="1"/><path id="enuITychCG012" d="M132.52,109.84L132.52,115.06L141.66,115.06L141.66,118.73L132.52,118.73L132.52,125.92L128,125.92L128,106.17L142.93,106.17L142.93,109.84Z" fill="rgb(206,0,0)" stroke="none" stroke-width="1"/><path id="enuITychCG013" d="M157.21,125.92L153.4,120.42L149.2,120.42L149.2,125.92L144.63,125.92L144.63,106.17L153.18,106.17C154.741228,106.133735,156.292284,106.43031,157.73,107.04C159.545421,107.89929,160.909675,109.490179,161.48209,111.4154C162.054504,113.34062,161.781045,115.41844,160.73,117.13C159.993327,118.222137,158.949311,119.071271,157.73,119.57L162.16,125.92ZM156.06,110.78C155.14794,110.128745,154.038141,109.814184,152.92,109.89L149.2,109.89L149.2,116.78L152.92,116.78C154.039877,116.858025,155.151489,116.53941,156.06,115.88C156.745324,115.208522,157.13152,114.289453,157.13152,113.33C157.13152,112.370547,156.745324,111.451478,156.06,110.78Z" fill="rgb(206,0,0)" stroke="none" stroke-width="1"/><path id="enuITychCG014" d="M164,106.17L168.57,106.17L168.57,125.92L164,125.92Z" fill="rgb(206,0,0)" stroke="none" stroke-width="1"/><path id="enuITychCG015" d="M171.91,106.17L180.91,106.17C182.876569,106.131337,184.824987,106.552524,186.6,107.4C188.180595,108.159665,189.509904,109.357085,190.43,110.85C192.257593,114.072229,192.257593,118.017771,190.43,121.24C189.507488,122.733372,188.179101,123.93343,186.6,124.7C184.822621,125.539508,182.875318,125.957032,180.91,125.92L171.91,125.92ZM180.66,122.17C182.39147,122.257593,184.088692,121.665539,185.39,120.52C187.767399,117.991002,187.767399,114.048998,185.39,111.52C184.088692,110.374461,182.39147,109.782407,180.66,109.87L176.49,109.87L176.49,122.12Z" fill="rgb(206,0,0)" stroke="none" stroke-width="1"/><path id="enuITychCG016" d="M206.6,121.69L197.43,121.69L195.68,125.92L191,125.92L199.81,106.17L204.32,106.17L213.16,125.92L208.36,125.92ZM205.16,118.22L202,110.66L198.86,118.22Z" fill="rgb(206,0,0)" stroke="none" stroke-width="1"/><path id="enuITychCG017" d="M222.12,118.92L222.12,125.92L217.55,125.92L217.55,118.92L209.9,106.22L214.75,106.22L220,115L225.28,106.22L229.76,106.22Z" fill="rgb(206,0,0)" stroke="none" stroke-width="1"/><path id="enuITychCG018" d="M160.41,162.69C157.010809,158.345928,157.010809,152.244072,160.41,147.9C162.102937,146.05546,164.517826,145.043472,167.02,145.13C169.514084,145.040085,171.92114,146.05339,173.6,147.9C176.974223,152.252648,176.974223,158.337352,173.6,162.69C171.92114,164.53661,169.514084,165.549915,167.02,165.46C164.517826,165.546528,162.102937,164.53454,160.41,162.69ZM169.84,159.69C171.212796,156.934868,171.212796,153.695132,169.84,150.94C169.209068,150.010355,168.158528,149.4537,167.035,149.4537C165.911472,149.4537,164.860932,150.010355,164.23,150.94C162.830824,153.667706,162.830824,156.902294,164.23,159.63C164.860932,160.559645,165.911472,161.1163,167.035,161.1163C168.158528,161.1163,169.209068,160.559645,169.84,159.63ZM189,145.55L195.27,145.55L170.09,182.42L163.83,182.42ZM187.34,181.55C185.939508,180.704785,184.814084,179.471682,184.1,178C182.56716,174.580592,182.56716,170.669408,184.1,167.25C184.814084,165.778318,185.939508,164.545215,187.34,163.7C188.769105,162.859852,190.402491,162.430742,192.06,162.46C194.561679,162.376172,196.975485,163.387707,198.67,165.23C202.07441,169.576002,202.07441,175.683998,198.67,180.03C196.972102,181.866366,194.559618,182.873696,192.06,182.79C190.400484,182.838115,188.759999,182.426264,187.32,181.6ZM194.88,176.97C196.240688,174.233127,196.240688,171.016873,194.88,168.28C194.249068,167.350355,193.198528,166.7937,192.075,166.7937C190.951472,166.7937,189.900932,167.350355,189.27,168.28C187.8569,171.025508,187.8569,174.284492,189.27,177.03C189.900932,177.959645,190.951472,178.5163,192.075,178.5163C193.198528,178.5163,194.249068,177.959645,194.88,177.03Z" fill="rgb(255,255,255)" stroke="none" stroke-width="1"/></g></g></g></g></g></svg>