<svg id="s1" xmlns="http://www.w3.org/2000/svg" xmlns:xlink="http://www.w3.org/1999/xlink" viewBox="0 0 400 400"><defs><linearGradient id="s5-fill" x1="143.730000" y1="108.240000" x2="282.390000" y2="342.910000" spreadMethod="pad" gradientUnits="userSpaceOnUse"><stop id="s5-fill-0" offset="0%" stop-color="rgb(255,209,153)"/><stop id="s5-fill-1" offset="33%" stop-color="rgb(255,228,194)"/><stop id="s5-fill-2" offset="70%" stop-color="rgb(255,209,153)"/><stop id="s5-fill-3" offset="100%" stop-color="rgb(255,196,125)"/></linearGradient><linearGradient id="s7-fill" x1="217.250000" y1="236.920000" x2="285.750000" y2="364.920000" spreadMethod="pad" gradientUnits="userSpaceOnUse"><stop id="s7-fill-0" offset="2%" stop-color="rgb(255,209,153)"/><stop id="s7-fill-1" offset="100%" stop-color="rgb(224,155,74)"/></linearGradient><radialGradient id="s9-fill" cx="207.250000" cy="215.430000" r="128.830000" spreadMethod="pad" gradientUnits="userSpaceOnUse"><stop id="s9-fill-0" offset="12%" stop-color="rgb(255,161,187)"/><stop id="s9-fill-1" offset="58%" stop-color="rgb(252,106,148)"/><stop id="s9-fill-2" offset="100%" stop-color="rgb(240,89,133)"/></radialGradient><linearGradient id="s11-fill" x1="140.960000" y1="101.340000" x2="164.960000" y2="137.840000" spreadMethod="pad" gradientUnits="userSpaceOnUse"><stop id="s11-fill-0" offset="12%" stop-color="rgb(255,161,187)"/><stop id="s11-fill-1" offset="46%" stop-color="rgb(252,106,148)"/></linearGradient><linearGradient id="s13-fill" x1="223.610000" y1="247.440000" x2="278.280000" y2="354.770000" spreadMethod="pad" gradientUnits="userSpaceOnUse"><stop id="s13-fill-0" offset="32%" stop-color="rgb(252,106,148)"/><stop id="s13-fill-1" offset="67%" stop-color="rgb(219,71,113)"/></linearGradient><linearGradient id="s17-fill" x1="86.162589" y1="-35.277753" x2="86.010875" y2="-21.964129" spreadMethod="pad" gradientUnits="userSpaceOnUse"><stop id="s17-fill-0" offset="30%" stop-color="rgb(163,230,255)"/><stop id="s17-fill-1" offset="60%" stop-color="rgb(120,218,255)"/><stop id="s17-fill-2" offset="91%" stop-color="rgb(93,193,232)"/></linearGradient><linearGradient id="s19-fill" x1="-34.280717" y1="173.212634" x2="-33.997578" y2="189.853542" spreadMethod="pad" gradientUnits="userSpaceOnUse"><stop id="s19-fill-0" offset="30%" stop-color="rgb(163,230,255)"/><stop id="s19-fill-1" offset="60%" stop-color="rgb(120,218,255)"/><stop id="s19-fill-2" offset="91%" stop-color="rgb(93,193,232)"/></linearGradient><linearGradient id="s21-fill" x1="-124.196223" y1="136.995330" x2="-123.731192" y2="150.305200" spreadMethod="pad" gradientUnits="userSpaceOnUse"><stop id="s21-fill-0" offset="30%" stop-color="rgb(163,230,255)"/><stop id="s21-fill-1" offset="60%" stop-color="rgb(120,218,255)"/><stop id="s21-fill-2" offset="91%" stop-color="rgb(93,193,232)"/></linearGradient><linearGradient id="s23-fill" x1="225.164019" y1="-137.634394" x2="224.160980" y2="-121.693286" spreadMethod="pad" gradientUnits="userSpaceOnUse"><stop id="s23-fill-0" offset="18%" stop-color="rgb(191,224,114)"/><stop id="s23-fill-1" offset="39%" stop-color="rgb(173,214,81)"/><stop id="s23-fill-2" offset="66%" stop-color="rgb(155,196,62)"/></linearGradient><linearGradient id="s25-fill" x1="-53.169253" y1="59.543432" x2="-52.999124" y2="72.869949" spreadMethod="pad" gradientUnits="userSpaceOnUse"><stop id="s25-fill-0" offset="18%" stop-color="rgb(191,224,114)"/><stop id="s25-fill-1" offset="39%" stop-color="rgb(173,214,81)"/><stop id="s25-fill-2" offset="66%" stop-color="rgb(155,196,62)"/></linearGradient><linearGradient id="s27-fill" x1="344.306787" y1="-80.777198" x2="343.231787" y2="-64.807198" spreadMethod="pad" gradientUnits="userSpaceOnUse"><stop id="s27-fill-0" offset="18%" stop-color="rgb(191,224,114)"/><stop id="s27-fill-1" offset="39%" stop-color="rgb(173,214,81)"/><stop id="s27-fill-2" offset="66%" stop-color="rgb(155,196,62)"/></linearGradient><linearGradient id="s29-fill" x1="-60.613593" y1="69.561841" x2="-60.525953" y2="84.192453" spreadMethod="pad" gradientUnits="userSpaceOnUse"><stop id="s29-fill-0" offset="16%" stop-color="rgb(168,103,92)"/><stop id="s29-fill-1" offset="44%" stop-color="rgb(156,91,80)"/><stop id="s29-fill-2" offset="88%" stop-color="rgb(136,66,55)"/></linearGradient><linearGradient id="s31-fill" x1="-31.148246" y1="107.673452" x2="-32.345675" y2="125.698853" spreadMethod="pad" gradientUnits="userSpaceOnUse"><stop id="s31-fill-0" offset="16%" stop-color="rgb(168,103,92)"/><stop id="s31-fill-1" offset="44%" stop-color="rgb(156,91,80)"/><stop id="s31-fill-2" offset="88%" stop-color="rgb(136,66,55)"/></linearGradient><linearGradient id="s33-fill" x1="-47.905704" y1="441.805056" x2="-47.491706" y2="427.945813" spreadMethod="pad" gradientUnits="userSpaceOnUse"><stop id="s33-fill-0" offset="16%" stop-color="rgb(168,103,92)"/><stop id="s33-fill-1" offset="44%" stop-color="rgb(156,91,80)"/><stop id="s33-fill-2" offset="88%" stop-color="rgb(136,66,55)"/></linearGradient><linearGradient id="s35-fill" x1="330.556117" y1="557.242761" x2="331.086447" y2="542.923849" spreadMethod="pad" gradientUnits="userSpaceOnUse"><stop id="s35-fill-0" offset="16%" stop-color="rgb(168,103,92)"/><stop id="s35-fill-1" offset="44%" stop-color="rgb(156,91,80)"/><stop id="s35-fill-2" offset="88%" stop-color="rgb(136,66,55)"/></linearGradient><linearGradient id="s37-fill" x1="-11.078968" y1="64.268422" x2="-12.251731" y2="82.430873" spreadMethod="pad" gradientUnits="userSpaceOnUse"><stop id="s37-fill-0" offset="13%" stop-color="rgb(255,219,120)"/><stop id="s37-fill-1" offset="51%" stop-color="rgb(255,205,70)"/><stop id="s37-fill-2" offset="100%" stop-color="rgb(255,166,56)"/></linearGradient><linearGradient id="s39-fill" x1="139.466958" y1="-88.377428" x2="139.727294" y2="-76.191587" spreadMethod="pad" gradientUnits="userSpaceOnUse"><stop id="s39-fill-0" offset="13%" stop-color="rgb(255,219,120)"/><stop id="s39-fill-1" offset="51%" stop-color="rgb(255,205,70)"/><stop id="s39-fill-2" offset="100%" stop-color="rgb(255,166,56)"/></linearGradient><linearGradient id="s41-fill" x1="134.920739" y1="-29.237386" x2="136.195389" y2="-16.868058" spreadMethod="pad" gradientUnits="userSpaceOnUse"><stop id="s41-fill-0" offset="13%" stop-color="rgb(255,219,120)"/><stop id="s41-fill-1" offset="51%" stop-color="rgb(255,205,70)"/><stop id="s41-fill-2" offset="100%" stop-color="rgb(255,166,56)"/></linearGradient></defs><g id="s3"><path id="s5" d="M207,81.930000C133.337562,81.930000,73.621841,141.644229,73.620000,215.306667C73.618160,288.969105,133.330896,348.686318,206.993334,348.690000C280.655772,348.693682,340.374477,288.982438,340.380000,215.320000C340.382652,179.943692,326.331328,146.015398,301.317438,120.999633C276.303549,95.983868,242.376308,81.930000,207,81.930000ZM207,263.930000C180.175530,263.930000,158.430000,242.184470,158.430000,215.360000C158.430000,188.535530,180.175530,166.790000,207,166.790000C233.824470,166.790000,255.570000,188.535530,255.570000,215.360000C255.547921,242.168848,233.808857,263.890009,207,263.890000Z" fill="url(#s5-fill)" stroke="none" stroke-width="1"/><path id="s7" d="M308.460000,294.060000C315.710000,284.060000,314.410000,269.380000,318.290000,257.410000C322.040000,245.860000,331.870000,234.780000,331.870000,221.980000C331.870000,209.180000,322,198.100000,318.290000,186.550000C314.400000,174.550000,315.710000,159.860000,308.460000,149.900000C301.210000,139.940000,286.690000,136.560000,276.630000,129.240000C266.570000,121.920000,259.130000,109.240000,247.160000,105.330000C235.610000,101.580000,222.060000,107.330000,209.260000,107.330000C196.460000,107.330000,182.910000,101.550000,171.360000,105.330000C159.360000,109.220000,151.850000,121.990000,141.890000,129.240000C131.930000,136.490000,117.370000,139.840000,110,149.900000C102.630000,159.960000,104.050000,174.580000,100.170000,186.550000C96.460000,198.100000,86.630000,209.180000,86.630000,222C86.630000,234.820000,96.460000,245.880000,100.210000,257.430000C104.100000,269.430000,102.790000,284.120000,110.040000,294.080000C117.290000,304.040000,131.810000,307.420000,141.870000,314.740000C151.930000,322.060000,159.370000,334.740000,171.340000,338.650000C182.890000,342.400000,196.440000,336.650000,209.240000,336.650000C222.040000,336.650000,235.590000,342.430000,247.140000,338.650000C259.140000,334.760000,266.650000,321.990000,276.610000,314.740000C286.570000,307.490000,301.140000,304.120000,308.460000,294.060000ZM209.690000,271.890000C187.265155,271.887128,167.756163,256.535316,162.480000,234.740000C155.151895,217.911983,157.935809,198.390367,169.675711,184.281576C181.415613,170.172786,200.106038,163.886951,217.985715,168.034289C235.865392,172.181628,249.880031,186.053671,254.210000,203.890000C260.759105,218.906922,259.298204,236.213276,250.324431,249.919848C241.350658,263.626420,226.072878,271.886783,209.690000,271.890000Z" fill="url(#s7-fill)" stroke="none" stroke-width="1"/><path id="s9" d="M315.600000,178.550000C311.710000,166.550000,313.020000,151.860000,305.770000,141.900000C298.520000,131.940000,284,128.560000,273.940000,121.240000C263.880000,113.920000,256.440000,101.240000,244.470000,97.330000C232.920000,93.580000,219.370000,99.330000,206.570000,99.330000C193.770000,99.330000,180.220000,93.550000,168.670000,97.330000C156.670000,101.220000,149.160000,113.990000,139.200000,121.240000C129.240000,128.490000,114.690000,131.840000,107.370000,141.900000C100.050000,151.960000,101.420000,166.580000,97.540000,178.550000C93.780000,190.100000,83.950000,201.180000,83.950000,214C83.950000,226.820000,93.780000,237.880000,97.530000,249.430000C101.420000,261.430000,100.110000,276.120000,107.360000,286.080000C114.610000,296.040000,129.130000,299.420000,139.190000,306.740000C149.250000,314.060000,156.690000,326.740000,168.660000,330.650000C180.210000,334.400000,193.760000,328.650000,206.560000,328.650000C219.360000,328.650000,232.910000,334.430000,244.460000,330.650000C256.460000,326.760000,263.970000,313.990000,273.930000,306.740000C283.890000,299.490000,298.440000,296.140000,305.760000,286.080000C313.080000,276.020000,311.710000,261.400000,315.590000,249.430000C319.340000,237.880000,329.170000,226.800000,329.170000,214C329.170000,201.200000,319.350000,190.100000,315.600000,178.550000ZM207,263.890000C180.175530,263.890000,158.430000,242.144470,158.430000,215.320000C158.430000,188.495530,180.175530,166.750000,207,166.750000C233.824470,166.750000,255.570000,188.495530,255.570000,215.320000C255.570000,242.144470,233.824470,263.890000,207,263.890000Z" fill="url(#s9-fill)" stroke="none" stroke-width="1"/><path id="s11" d="M91.290000,236C87.590000,229,83.940000,221.820000,83.940000,214C83.940000,201.200000,93.770000,190.120000,97.520000,178.570000C101.410000,166.570000,100.100000,151.880000,107.350000,141.920000C114.600000,131.960000,129.120000,128.580000,139.180000,121.260000C149.240000,113.940000,156.680000,101.260000,168.650000,97.350000C180.200000,93.600000,193.750000,99.350000,206.550000,99.350000C219.350000,99.350000,232.900000,93.570000,244.450000,97.350000C256.450000,101.240000,263.960000,114.010000,273.920000,121.260000C283.880000,128.510000,298.430000,131.860000,305.750000,141.920000C307.618443,144.575447,309.034261,147.521970,309.940000,150.640000C302.570000,140.750000,288.260000,137.460000,278.270000,130.190000C268.280000,122.920000,260.770000,110.190000,248.800000,106.280000C237.250000,102.530000,223.700000,108.280000,210.900000,108.280000C198.100000,108.280000,184.550000,102.500000,173,106.280000C161,110.170000,153.490000,122.940000,143.530000,130.190000C133.570000,137.440000,119.020000,140.790000,111.700000,150.850000C104.380000,160.910000,105.750000,175.530000,101.870000,187.500000C98.130000,199,88.300000,210.110000,88.300000,222.910000C88.409076,227.429654,89.425898,231.881226,91.290000,236Z" fill="url(#s11-fill)" stroke="none" stroke-width="1"/><path id="s13" d="M315.600000,178.550000C311.710000,166.550000,313.020000,151.860000,305.770000,141.900000C305.350000,141.320000,304.900000,140.770000,304.430000,140.230000C308.730000,149.790000,308.290000,162,311.600000,172.230000C315.350000,183.780000,325.180000,194.860000,325.180000,207.660000C325.180000,220.460000,315.350000,231.540000,311.600000,243.090000C307.710000,255.090000,309.020000,269.780000,301.770000,279.740000C294.520000,289.700000,280,293.060000,269.940000,300.380000C259.880000,307.700000,252.440000,320.380000,240.470000,324.290000C228.920000,328.040000,215.370000,322.290000,202.570000,322.290000C189.770000,322.290000,176.220000,328.070000,164.670000,324.290000C152.670000,320.400000,145.160000,307.630000,135.200000,300.380000C125.720000,293.480000,112.350000,290.170000,104.710000,281.380000C105.433580,283.020914,106.324993,284.582561,107.370000,286.040000C114.690000,296.100000,129.140000,299.380000,139.200000,306.700000C149.260000,314.020000,156.700000,326.700000,168.670000,330.610000C180.220000,334.360000,193.770000,328.610000,206.570000,328.610000C219.370000,328.610000,232.920000,334.390000,244.470000,330.610000C256.470000,326.720000,263.980000,313.950000,273.940000,306.700000C283.900000,299.450000,298.450000,296.100000,305.770000,286.040000C313.090000,275.980000,311.720000,261.360000,315.600000,249.390000C319.350000,237.840000,329.180000,226.760000,329.180000,213.960000C329.180000,201.160000,319.350000,190.100000,315.600000,178.550000Z" fill="url(#s13-fill)" stroke="none" stroke-width="1"/><g id="s15"><rect id="s17" width="30.310000" height="12.270000" rx="6.130000" ry="6.130000" transform="translate(-53.440000,65.200000) rotate(-22.709991) scale(1,1) translate(120.430000,159.500000)" fill="url(#s17-fill)" stroke="none" stroke-width="1"/><rect id="s19" width="30.310000" height="12.270000" rx="6.130000" ry="6.130000" transform="translate(146.120000,-128.770000) rotate(33.710027) scale(1,1) translate(270.430000,170.640000)" fill="url(#s19-fill)" stroke="none" stroke-width="1"/><rect id="s21" width="30.310000" height="12.270000" rx="6.130000" ry="6.130000" transform="translate(198.150000,-44.820000) rotate(33.710027) scale(1,1) translate(157.890000,298.480000)" fill="url(#s21-fill)" stroke="none" stroke-width="1"/><rect id="s23" width="30.310000" height="12.270000" rx="6.130000" ry="6.130000" transform="translate(-13.060000,264.260000) rotate(-53.680036) scale(1,1) translate(239.420000,138.900000)" fill="url(#s23-fill)" stroke="none" stroke-width="1"/><rect id="s25" width="30.310000" height="12.270000" rx="6.130000" ry="6.130000" transform="translate(90.600000,-33.020000) rotate(23.929981) skewX(0) scale(1,1) translate(108.070000,191.130000)" fill="url(#s25-fill)" stroke="none" stroke-width="1"/><rect id="s27" width="30.310000" height="12.270000" rx="6.130000" ry="6.130000" transform="translate(-129.420000,326.630000) rotate(-53.680036) scale(1,1) translate(242.860000,285.050000)" fill="url(#s27-fill)" stroke="none" stroke-width="1"/><rect id="s29" width="30.310000" height="12.270000" rx="6.130000" ry="6.130000" transform="translate(95.640000,-48.910000) rotate(17.229996) scale(1,1) translate(194.100000,285.050000)" fill="url(#s29-fill)" stroke="none" stroke-width="1"/><rect id="s31" width="30.310000" height="12.270000" rx="6.130000" ry="6.130000" transform="translate(107.090000,-74.310000) rotate(33.710027) scale(1,1) translate(161.020000,133.450000)" fill="url(#s31-fill)" stroke="none" stroke-width="1"/><rect id="s33" width="30.310000" height="12.270000" rx="6.130000" ry="6.130000" transform="translate(393.570000,226.240000) rotate(113.929981) skewX(0) scale(1,1) translate(108.070000,234.960000)" fill="url(#s33-fill)" stroke="none" stroke-width="1"/><rect id="s35" width="30.310000" height="12.270000" rx="6.130000" ry="6.130000" transform="translate(637.840000,160.950000) rotate(135) scale(1,1) translate(270.430000,206.440000)" fill="url(#s35-fill)" stroke="none" stroke-width="1"/><rect id="s37" width="30.310000" height="12.270000" rx="6.130000" ry="6.130000" transform="translate(47.100000,-58.080000) rotate(17.229996) scale(1,1) translate(200.100000,120.290000)" fill="url(#s37-fill)" stroke="none" stroke-width="1"/><rect id="s39" width="30.310000" height="12.270000" rx="6.130000" ry="6.130000" transform="translate(-78.170000,138.680000) rotate(-24.289987) scale(1,1) translate(267.930000,244.800000)" fill="url(#s39-fill)" stroke="none" stroke-width="1"/><rect id="s41" width="30.310000" height="12.270000" rx="6.130000" ry="6.130000" transform="translate(-98.720000,83.260000) rotate(-24.289987) scale(1,1) translate(128.920000,264.840000)" fill="url(#s41-fill)" stroke="none" stroke-width="1"/></g></g></svg>