<svg id="s1" xmlns="http://www.w3.org/2000/svg" xmlns:xlink="http://www.w3.org/1999/xlink" viewBox="0 0 400 400"><defs><linearGradient id="s5-fill" x1="229.730000" y1="116.810000" x2="273.830000" y2="307.160000" spreadMethod="pad" gradientUnits="userSpaceOnUse"><stop id="s5-fill-0" offset="2%" stop-color="rgb(97,138,37)"/><stop id="s5-fill-1" offset="58%" stop-color="rgb(59,92,33)"/><stop id="s5-fill-2" offset="100%" stop-color="rgb(58,90,32)"/></linearGradient><linearGradient id="s9-fill" x1="94.410000" y1="104.770000" x2="147.650000" y2="243.430000" spreadMethod="pad" gradientUnits="userSpaceOnUse"><stop id="s9-fill-0" offset="1%" stop-color="rgb(146,181,65)"/><stop id="s9-fill-1" offset="40%" stop-color="rgb(138,173,55)"/><stop id="s9-fill-2" offset="100%" stop-color="rgb(105,141,54)"/></linearGradient><linearGradient id="s11-fill" x1="112.390000" y1="128.250000" x2="172.440000" y2="330.670000" spreadMethod="pad" gradientUnits="userSpaceOnUse"><stop id="s11-fill-0" offset="10%" stop-color="rgb(185,207,91)"/><stop id="s11-fill-1" offset="31%" stop-color="rgb(152,191,61)"/><stop id="s11-fill-2" offset="81%" stop-color="rgb(127,163,44)"/></linearGradient><linearGradient id="s13-fill" x1="178.300000" y1="306.650000" x2="155.380000" y2="253.350000" spreadMethod="pad" gradientUnits="userSpaceOnUse"><stop id="s13-fill-0" offset="0%" stop-color="rgb(118,152,40)"/><stop id="s13-fill-1" offset="81%" stop-color="rgb(102,133,30)"/></linearGradient><linearGradient id="s17-fill" x1="-20.060000" y1="-27.530000" x2="23.580000" y2="32.360000" spreadMethod="pad" gradientUnits="userSpaceOnUse"><stop id="s17-fill-0" offset="16%" stop-color="rgb(163,90,76)"/><stop id="s17-fill-1" offset="63%" stop-color="rgb(125,69,59)"/><stop id="s17-fill-2" offset="100%" stop-color="rgb(112,57,48)"/></linearGradient></defs><g id="s3"><path id="s5" d="M226.730000,328.820000C178.980000,314.200000,154.870000,264.340000,170.630000,212.820000C178.390000,187.480000,196.630000,159.470000,218.190000,139.720000C243.770000,116.300000,270.190000,107.170000,292.490000,114C314.790000,120.830000,331.570000,143.170000,339.650000,176.900000C346.470000,205.350000,345.890000,238.760000,338.130000,264.100000C322.370000,315.630000,274.480000,343.440000,226.730000,328.820000Z" fill="url(#s5-fill)" stroke="none" stroke-width="1"/><g id="s7"><path id="s9" d="M144.630000,333.740000C94.700000,333.740000,57,293.130000,57,239.270000C57,212.770000,66.230000,180.660000,81.080000,155.450000C98.690000,125.570000,121.240000,109.110000,144.590000,109.110000C167.940000,109.110000,190.500000,125.570000,208.100000,155.450000C222.950000,180.660000,232.180000,212.770000,232.180000,239.270000C232.220000,293.130000,194.560000,333.740000,144.630000,333.740000Z" fill="url(#s9-fill)" stroke="none" stroke-width="1"/><path id="s11" d="M222,239.270000C222,289.040000,187.360000,323.530000,144.620000,323.530000C101.880000,323.530000,67.250000,289,67.250000,239.270000C67.250000,189.540000,101.890000,119.320000,144.630000,119.320000C187.370000,119.320000,222,189.500000,222,239.270000Z" fill="url(#s11-fill)" stroke="none" stroke-width="1"/><path id="s13" d="M201.190000,254.270000C201.190000,278.841149,181.271148,298.760000,156.700000,298.760000C132.130000,298.760000,104.970000,267.930000,104.970000,243.360000C104.970000,218.790000,128.510000,196.930000,153.080000,196.930000C177.650000,196.930000,201.190000,229.700000,201.190000,254.270000Z" fill="url(#s13-fill)" stroke="none" stroke-width="1"/><g id="s15"><circle id="s17" r="44.490000" transform="translate(144.630000,236.630000)" fill="url(#s17-fill)" stroke="none" stroke-width="1"/><path id="s19" d="M112.210000,236.630000C112.203631,231.328694,113.505440,226.107719,116,221.430000" fill="none" stroke="rgb(196,122,105)" stroke-width="10" stroke-linecap="round" stroke-miterlimit="10"/><path id="s21" d="M126.470000,209.780000C128.533043,208.379155,130.751096,207.221472,133.080000,206.330000" fill="none" stroke="rgb(196,122,105)" stroke-width="10" stroke-linecap="round" stroke-miterlimit="10"/></g></g></g></svg>