<svg id="s1" xmlns="http://www.w3.org/2000/svg" xmlns:xlink="http://www.w3.org/1999/xlink" viewBox="0 0 400 400"><defs><linearGradient id="s9-fill" x1="177.170000" y1="162.260000" x2="213.990000" y2="394.150000" spreadMethod="pad" gradientUnits="userSpaceOnUse"><stop id="s9-fill-0" offset="6%" stop-color="rgb(226,226,226)"/><stop id="s9-fill-1" offset="77%" stop-color="rgb(204,204,204)"/></linearGradient><linearGradient id="s13-fill" x1="221" y1="374.560000" x2="153.520000" y2="68.950000" spreadMethod="pad" gradientUnits="userSpaceOnUse"><stop id="s13-fill-0" offset="1%" stop-color="rgb(250,209,72)"/><stop id="s13-fill-1" offset="100%" stop-color="rgb(237,169,43)"/></linearGradient></defs><g id="s3"><g id="s5"><rect id="s7" width="89.520000" height="105.070000" rx="20.420000" ry="20.420000" transform="translate(224.370000,190.920000)" fill="none" stroke="rgb(226,226,226)" stroke-width="21" stroke-miterlimit="10"/><path id="s9" d="M116.150000,151.060000L116.150000,356.310000L267.150000,356.310000L267.150000,151.060000C267.150000,147.597175,264.342825,144.790000,260.880000,144.790000L122.410000,144.790000C118.951081,144.795517,116.149996,147.601076,116.150000,151.060000Z" fill="url(#s9-fill)" stroke="none" stroke-width="1"/><rect id="s11" width="174.900000" height="18.830000" rx="8.950000" ry="8.950000" transform="translate(104.200000,354.040000)" fill="rgb(226,226,226)" stroke="none" stroke-width="1"/></g><path id="s13" d="M126.720000,144.790000L126.720000,337.510000C126.720000,339.692732,127.587087,341.786064,129.130511,343.329489C130.673936,344.872913,132.767268,345.740000,134.950000,345.740000L248.350000,345.740000C250.532732,345.740000,252.626064,344.872913,254.169489,343.329489C255.712913,341.786064,256.580000,339.692732,256.580000,337.510000L256.580000,144.790000Z" fill="url(#s13-fill)" stroke="none" stroke-width="1"/><g id="s15"><rect id="s17" width="25.070000" height="143.220000" rx="12.530000" ry="12.530000" transform="translate(137.150000,180.320000)" opacity="0.4" fill="rgb(249,242,204)" stroke="none" stroke-width="1"/><rect id="s19" width="25.070000" height="143.220000" rx="12.530000" ry="12.530000" transform="translate(179.110000,180.320000)" opacity="0.4" fill="rgb(249,242,204)" stroke="none" stroke-width="1"/><rect id="s21" width="25.070000" height="143.220000" rx="12.530000" ry="12.530000" transform="translate(221.070000,180.320000)" opacity="0.4" fill="rgb(249,242,204)" stroke="none" stroke-width="1"/></g><g id="s23"><circle id="s25" r="35.430000" transform="translate(133.550000,129.380000)" fill="rgb(249,242,204)" stroke="none" stroke-width="1"/><circle id="s27" r="48.490000" transform="translate(205.360000,109.850000)" fill="rgb(249,242,204)" stroke="none" stroke-width="1"/><circle id="s29" r="34.270000" transform="translate(257.720000,126.570000)" fill="rgb(249,242,204)" stroke="none" stroke-width="1"/><circle id="s31" r="24.780000" transform="translate(178.380000,137.230000)" fill="rgb(249,242,204)" stroke="none" stroke-width="1"/><line id="s33" x1="161.280000" y1="133.470000" x2="161.280000" y2="184.620000" fill="none" stroke="rgb(249,242,204)" stroke-width="13" stroke-linecap="round" stroke-miterlimit="10"/><circle id="s35" r="8.730000" transform="translate(161.280000,212.250000)" fill="rgb(249,242,204)" stroke="none" stroke-width="1"/><circle id="s37" r="7.070000" transform="translate(217.300000,300.910000)" fill="rgb(249,242,204)" stroke="none" stroke-width="1"/><circle id="s39" r="5.430000" transform="translate(200.600000,334.410000)" fill="rgb(249,242,204)" stroke="none" stroke-width="1"/><circle id="s41" r="8.180000" transform="translate(229.890000,176.710000)" fill="rgb(249,242,204)" stroke="none" stroke-width="1"/></g></g></svg>