<svg id="s1" xmlns="http://www.w3.org/2000/svg" xmlns:xlink="http://www.w3.org/1999/xlink" viewBox="0 0 400 400"><defs><linearGradient id="s7-fill" x1="219.520000" y1="138.600000" x2="189" y2="67.210000" spreadMethod="pad" gradientUnits="userSpaceOnUse"><stop id="s7-fill-0" offset="11%" stop-color="rgb(196,51,51)"/><stop id="s7-fill-1" offset="55%" stop-color="rgb(227,88,88)"/></linearGradient><linearGradient id="s9-fill" x1="159.490000" y1="135.880000" x2="213.390000" y2="223.470000" spreadMethod="pad" gradientUnits="userSpaceOnUse"><stop id="s9-fill-0" offset="0%" stop-color="rgb(255,221,178)"/><stop id="s9-fill-1" offset="51%" stop-color="rgb(255,209,153)"/><stop id="s9-fill-2" offset="100%" stop-color="rgb(255,196,125)"/></linearGradient><linearGradient id="s11-fill" x1="178.740000" y1="121.720000" x2="211.680000" y2="192.090000" spreadMethod="pad" gradientUnits="userSpaceOnUse"><stop id="s11-fill-0" offset="6%" stop-color="rgb(252,141,172)"/><stop id="s11-fill-1" offset="62%" stop-color="rgb(252,106,148)"/><stop id="s11-fill-2" offset="100%" stop-color="rgb(242,80,126)"/></linearGradient><linearGradient id="s15-fill" x1="85.444850" y1="-44.260868" x2="85.282108" y2="-29.314952" spreadMethod="pad" gradientUnits="userSpaceOnUse"><stop id="s15-fill-0" offset="30%" stop-color="rgb(163,230,255)"/><stop id="s15-fill-1" offset="60%" stop-color="rgb(120,218,255)"/><stop id="s15-fill-2" offset="91%" stop-color="rgb(93,193,232)"/></linearGradient><linearGradient id="s17-fill" x1="94.357882" y1="-80.418827" x2="94.497136" y2="-63.319356" spreadMethod="pad" gradientUnits="userSpaceOnUse"><stop id="s17-fill-0" offset="18%" stop-color="rgb(191,224,114)"/><stop id="s17-fill-1" offset="39%" stop-color="rgb(173,214,81)"/><stop id="s17-fill-2" offset="66%" stop-color="rgb(155,196,62)"/></linearGradient><linearGradient id="s19-fill" x1="-14.959678" y1="60.377372" x2="-16.277465" y2="80.772998" spreadMethod="pad" gradientUnits="userSpaceOnUse"><stop id="s19-fill-0" offset="13%" stop-color="rgb(255,219,120)"/><stop id="s19-fill-1" offset="51%" stop-color="rgb(255,205,70)"/><stop id="s19-fill-2" offset="100%" stop-color="rgb(255,166,56)"/></linearGradient><linearGradient id="s23-fill" x1="167.450000" y1="187.870000" x2="246" y2="332.700000" spreadMethod="pad" gradientUnits="userSpaceOnUse"><stop id="s23-fill-0" offset="11%" stop-color="rgb(156,88,77)"/><stop id="s23-fill-1" offset="45%" stop-color="rgb(135,72,60)"/><stop id="s23-fill-2" offset="56%" stop-color="rgb(134,71,59)"/><stop id="s23-fill-3" offset="100%" stop-color="rgb(125,62,50)"/></linearGradient></defs><g id="s3"><g id="s5"><path id="s7" d="M238,100.870000C238.014247,91.464817,231.608669,83.263862,222.480000,81C216.378262,79.464206,209.909472,80.733028,204.840000,84.460000C199.772450,80.737353,193.308652,79.468792,187.210000,81C178.097723,83.260982,171.699416,91.441410,171.700000,100.830000L171.700000,106C171.700000,122.530000,185.880000,136,203.210000,136L206.470000,136C223.800000,136,238,122.490000,238,106Z" fill="url(#s7-fill)" stroke="none" stroke-width="1"/><path id="s9" d="M311,222.910000L311,221.910000C311,171.810000,270,130.830000,219.920000,130.830000L189.760000,130.830000C139.660000,130.830000,98.680000,171.830000,98.680000,221.910000L98.680000,222.910000Z" fill="url(#s9-fill)" stroke="none" stroke-width="1"/><path id="s11" d="M219.920000,130.780000L189.760000,130.780000C156.908602,130.861405,126.634928,148.589473,110.490000,177.200000C119.360000,184.530000,124.650000,195.580000,140.580000,195.580000C164.400000,195.580000,164.400000,170.830000,188.230000,170.830000C212.060000,170.830000,212.040000,195.580000,235.860000,195.580000C259.680000,195.580000,259.690000,170.830000,283.520000,170.830000C288.572948,170.729824,293.543352,172.121120,297.810000,174.830000C281.320971,147.551850,251.794443,130.853384,219.920000,130.780000Z" fill="url(#s11-fill)" stroke="none" stroke-width="1"/><g id="s13"><rect id="s15" width="34.030000" height="13.770000" rx="6.890000" ry="6.890000" transform="translate(-47.780000,73.130000) rotate(-22.709991) scale(1,1) translate(141.140000,148.630000)" fill="url(#s15-fill)" stroke="none" stroke-width="1"/><rect id="s17" width="34.030000" height="13.770000" rx="6.890000" ry="6.890000" transform="translate(-42.560000,109.120000) rotate(-22.709991) scale(1,1) translate(233.350000,153.620000)" fill="url(#s17-fill)" stroke="none" stroke-width="1"/><rect id="s19" width="34.030000" height="13.770000" rx="6.890000" ry="6.890000" transform="translate(52.560000,-55.180000) rotate(17.229996) scale(1,1) translate(191.380000,139.010000)" fill="url(#s19-fill)" stroke="none" stroke-width="1"/></g></g><g id="s21"><path id="s23" d="M316.110000,226.570000C316.152048,226.342285,316.175459,226.111520,316.180000,225.880000C317.430925,215.698631,310.191369,206.430925,300.010000,205.180000C289.828631,203.929075,280.560925,211.168631,279.310000,221.350000L279.050000,221.350000C277.978195,211.965277,270.035729,204.878269,260.590000,204.878269C251.144271,204.878269,243.201805,211.965277,242.130000,221.350000L241.870000,221.350000C240.798195,211.965277,232.855729,204.878269,223.410000,204.878269C213.964271,204.878269,206.021805,211.965277,204.950000,221.350000L204.690000,221.350000C203.618195,211.965277,195.675729,204.878269,186.230000,204.878269C176.784271,204.878269,168.841805,211.965277,167.770000,221.350000L167.510000,221.350000C166.438195,211.965277,158.495729,204.878269,149.050000,204.878269C139.604271,204.878269,131.661805,211.965277,130.590000,221.350000L130.330000,221.350000C129.079075,211.168631,119.811369,203.929075,109.630000,205.180000C99.448631,206.430925,92.209075,215.698631,93.460000,225.880000C93.464541,226.111520,93.487952,226.342285,93.530000,226.570000L93.630000,227.030000C93.630000,227.210000,93.710000,227.380000,93.750000,227.560000L119.200000,341.400000C120.731365,348.255662,126.815388,353.130360,133.840000,353.130000L275.840000,353.130000C282.864612,353.130360,288.948635,348.255662,290.480000,341.400000L315.880000,227.560000C315.880000,227.380000,315.960000,227.210000,316,227.030000Z" fill="url(#s23-fill)" stroke="none" stroke-width="1"/><line id="s25" x1="204.840000" y1="239.270000" x2="204.840000" y2="338.220000" fill="none" stroke="rgb(94,47,39)" stroke-width="10" stroke-linecap="round" stroke-miterlimit="10"/><line id="s27" x1="163.860000" y1="239.270000" x2="177.070000" y2="338.220000" fill="none" stroke="rgb(94,47,39)" stroke-width="10" stroke-linecap="round" stroke-miterlimit="10"/><line id="s29" x1="125.370000" y1="239.270000" x2="146.440000" y2="338.220000" fill="none" stroke="rgb(94,47,39)" stroke-width="10" stroke-linecap="round" stroke-miterlimit="10"/><line id="s31" x1="245.820000" y1="239.270000" x2="232.610000" y2="338.220000" fill="none" stroke="rgb(94,47,39)" stroke-width="10" stroke-linecap="round" stroke-miterlimit="10"/><line id="s33" x1="284.310000" y1="239.270000" x2="263.240000" y2="338.220000" fill="none" stroke="rgb(94,47,39)" stroke-width="10" stroke-linecap="round" stroke-miterlimit="10"/></g></g></svg>