<svg id="ewVX9lguFWQ1" xmlns="http://www.w3.org/2000/svg" xmlns:xlink="http://www.w3.org/1999/xlink" viewBox="0 0 400 400" shape-rendering="geometricPrecision" text-rendering="geometricPrecision"><g id="ewVX9lguFWQ2"><g id="ewVX9lguFWQ3"><path id="ewVX9lguFWQ4" d="M101.680000,25L298.320000,25C301.128847,25.005502,303.404498,27.281153,303.410000,30.090000L303.410000,369.910000C303.404498,372.718847,301.128847,374.994498,298.320000,375L101.680000,375C98.871153,374.994498,96.595502,372.718847,96.590000,369.910000L96.590000,30.090000C96.595502,27.281153,98.871153,25.005502,101.680000,25Z" fill="rgb(61,53,50)" fill-rule="evenodd" stroke="none" stroke-width="1"/><path id="ewVX9lguFWQ5" d="M158.770000,36C161.948877,36.005505,164.524495,38.581123,164.530000,41.760000L164.530000,88.410000C164.524516,91.590509,161.950494,94.168999,158.770000,94.180000L112.090000,94.180000C108.905600,94.174495,106.325505,91.594400,106.320000,88.410000L106.320000,41.730000C106.347408,38.561232,108.921118,36.005364,112.090000,36ZM176.660000,36L223.340000,36C226.518877,36.005505,229.094495,38.581123,229.100000,41.760000L229.100000,88.410000C229.094516,91.590509,226.520494,94.168999,223.340000,94.180000L176.660000,94.180000C173.479506,94.168999,170.905484,91.590509,170.900000,88.410000L170.900000,41.730000C170.921952,38.562845,173.492773,36.005413,176.660000,36ZM287.910000,36C291.090509,36.005484,293.668999,38.579506,293.680000,41.760000L293.680000,88.410000C293.674495,91.594400,291.094400,94.174495,287.910000,94.180000L241.230000,94.180000C238.049506,94.168999,235.475484,91.590509,235.470000,88.410000L235.470000,41.730000C235.491952,38.562845,238.062773,36.005413,241.230000,36ZM158.770000,160L112.090000,160C108.905600,159.994495,106.325505,157.414400,106.320000,154.230000L106.320000,107.580000C106.331001,104.399506,108.909491,101.825484,112.090000,101.820000L158.770000,101.820000C161.948877,101.825505,164.524495,104.401123,164.530000,107.580000L164.530000,154.260000C164.508089,157.428791,161.938848,159.989111,158.770000,160ZM176.660000,160C173.479506,159.988999,170.905484,157.410509,170.900000,154.230000L170.900000,107.580000C170.905505,104.401123,173.481123,101.825505,176.660000,101.820000L223.340000,101.820000C226.518877,101.825505,229.094495,104.401123,229.100000,107.580000L229.100000,154.260000C229.094516,157.440509,226.520494,160.018999,223.340000,160.030000ZM287.910000,160L241.230000,160C238.049506,159.988999,235.475484,157.410509,235.470000,154.230000L235.470000,107.580000C235.475505,104.401123,238.051123,101.825505,241.230000,101.820000L287.910000,101.820000C291.090509,101.825484,293.668999,104.399506,293.680000,107.580000L293.680000,154.260000C293.658048,157.432678,291.082750,159.994587,287.910000,160Z" fill="rgb(74,64,60)" fill-rule="evenodd" stroke="none" stroke-width="1"/><path id="ewVX9lguFWQ6" d="M158.770000,38.630000L112.090000,38.630000C110.380196,38.635489,108.995489,40.020196,108.990000,41.730000L108.990000,88.410000C108.990000,90.122083,110.377917,91.510000,112.090000,91.510000L158.770000,91.510000C160.479804,91.504511,161.864511,90.119804,161.870000,88.410000L161.870000,41.730000C161.859089,40.022457,160.477543,38.640911,158.770000,38.630000Z" fill="rgb(103,92,90)" fill-rule="evenodd" stroke="none" stroke-width="1"/><path id="ewVX9lguFWQ7" d="M176.660000,38.630000L223.340000,38.630000C225.049804,38.635489,226.434511,40.020196,226.440000,41.730000L226.440000,88.410000C226.440000,90.122083,225.052083,91.510000,223.340000,91.510000L176.660000,91.510000C174.947917,91.510000,173.560000,90.122083,173.560000,88.410000L173.560000,41.730000C173.565489,40.020196,174.950196,38.635489,176.660000,38.630000Z" fill="rgb(103,92,90)" fill-rule="evenodd" stroke="none" stroke-width="1"/><path id="ewVX9lguFWQ8" d="M287.910000,38.630000L241.230000,38.630000C239.522457,38.640911,238.140911,40.022457,238.130000,41.730000L238.130000,88.410000C238.135489,90.119804,239.520196,91.504511,241.230000,91.510000L287.910000,91.510000C289.623708,91.510009,291.014490,90.123699,291.020000,88.410000L291.020000,41.730000C291.009038,40.018580,289.621447,38.635450,287.910000,38.630000Z" fill="rgb(103,92,90)" fill-rule="evenodd" stroke="none" stroke-width="1"/><path id="ewVX9lguFWQ9" d="M158.770000,157.370000L112.090000,157.370000C110.376301,157.364490,108.989991,155.973708,108.990000,154.260000L108.990000,107.580000C108.995489,105.870196,110.380196,104.485489,112.090000,104.480000L158.770000,104.480000C160.477543,104.490911,161.859089,105.872457,161.870000,107.580000L161.870000,154.260000C161.864550,155.971447,160.481420,157.359038,158.770000,157.370000Z" fill="rgb(103,92,90)" fill-rule="evenodd" stroke="none" stroke-width="1"/><path id="ewVX9lguFWQ10" d="M176.660000,157.370000L223.340000,157.370000C225.053699,157.364490,226.440009,155.973708,226.440000,154.260000L226.440000,107.580000C226.434511,105.870196,225.049804,104.485489,223.340000,104.480000L176.660000,104.480000C174.950196,104.485489,173.565489,105.870196,173.560000,107.580000L173.560000,154.260000C173.559991,155.973708,174.946301,157.364490,176.660000,157.370000Z" fill="rgb(103,92,90)" fill-rule="evenodd" stroke="none" stroke-width="1"/><path id="ewVX9lguFWQ11" d="M287.910000,157.370000L241.230000,157.370000C239.518580,157.359038,238.135450,155.971447,238.130000,154.260000L238.130000,107.580000C238.140911,105.872457,239.522457,104.490911,241.230000,104.480000L287.910000,104.480000C289.621447,104.485450,291.009038,105.868580,291.020000,107.580000L291.020000,154.260000C291.014511,155.975327,289.625327,157.364511,287.910000,157.370000Z" fill="rgb(103,92,90)" fill-rule="evenodd" stroke="none" stroke-width="1"/></g><g id="ewVX9lguFWQ12"><path id="ewVX9lguFWQ13" d="M304.540000,167.720000L304.540000,369.850000C304.529036,372.689713,302.229713,374.989036,299.390000,375L100.610000,375C97.770287,374.989036,95.470964,372.689713,95.460000,369.850000L95.460000,167.720000Z" fill="rgb(204,51,0)" fill-rule="evenodd" stroke="none" stroke-width="1"/><polygon id="ewVX9lguFWQ14" points="304.540000,167.720000 95.460000,167.720000 82.350000,214.420000 317.650000,214.420000 304.540000,167.720000" fill="rgb(255,255,255)" fill-rule="evenodd" stroke="none" stroke-width="1"/><path id="ewVX9lguFWQ15" d="M95.460000,224.930000L304.540000,224.930000L304.540000,307L256,307C260.694248,284.252785,251.162182,260.926049,231.880877,247.976028C212.599572,235.026007,187.400428,235.026007,168.119123,247.976028C148.837818,260.926049,139.305752,284.252785,144,307L95.460000,307Z" fill="rgb(204,204,255)" fill-rule="evenodd" stroke="none" stroke-width="1"/><path id="ewVX9lguFWQ16" d="M200,245.790000C220.139995,245.785955,238.298937,257.915417,246.008047,276.521572C253.717158,295.127727,249.457973,316.545719,235.216846,330.786846C220.975719,345.027973,199.557727,349.287158,180.951572,341.578047C162.345417,333.868937,150.215955,315.709995,150.220000,295.570000C150.220000,268.077265,172.507265,245.790000,200,245.790000Z" fill="rgb(102,153,255)" fill-rule="evenodd" stroke="none" stroke-width="1"/></g></g></svg>