<svg id="s1" xmlns="http://www.w3.org/2000/svg" xmlns:xlink="http://www.w3.org/1999/xlink" viewBox="0 0 400 400"><defs><linearGradient id="s5-fill" x1="200.740000" y1="147.640000" x2="223.980000" y2="367.620000" spreadMethod="pad" gradientUnits="userSpaceOnUse"><stop id="s5-fill-0" offset="2%" stop-color="rgb(245,195,83)"/><stop id="s5-fill-1" offset="51%" stop-color="rgb(239,180,62)"/><stop id="s5-fill-2" offset="89%" stop-color="rgb(209,149,30)"/></linearGradient><linearGradient id="s7-fill" x1="203.210000" y1="182.080000" x2="230.080000" y2="336.720000" spreadMethod="pad" gradientUnits="userSpaceOnUse"><stop id="s7-fill-0" offset="64%" stop-color="rgb(230,170,51)"/><stop id="s7-fill-1" offset="92%" stop-color="rgb(209,149,30)"/></linearGradient><linearGradient id="s9-fill" x1="15.910000" y1="6.950000" x2="21.280000" y2="57.840000" spreadMethod="pad" gradientUnits="userSpaceOnUse"><stop id="s9-fill-0" offset="8%" stop-color="rgb(245,195,83)"/><stop id="s9-fill-1" offset="31%" stop-color="rgb(245,195,83)"/></linearGradient><linearGradient id="s13-fill" x1="226.434671" y1="49.805182" x2="243.591236" y2="76.663127" spreadMethod="pad" gradientUnits="userSpaceOnUse"><stop id="s13-fill-0" offset="3%" stop-color="rgb(209,110,48)"/><stop id="s13-fill-1" offset="56%" stop-color="rgb(186,96,41)"/></linearGradient></defs><g id="s3"><path id="s5" d="M295.450000,103.480000C295.090000,179.820000,232.530000,242.170000,156.100000,242.170000L156.100000,242.170000C132.959388,242.188065,110.185274,236.390517,89.870000,225.310000C85.530000,233.310000,81.010000,241.140000,76.520000,249.010000C75.740000,250.380000,74.940000,251.750000,74.160000,253.120000C96.560000,300.270000,144.700000,333.120000,200.160000,333.120000L200.160000,333.120000C276.810000,333.120000,339.520000,270.410000,339.520000,193.760000L339.520000,164.550000C339.535059,143.373453,334.676333,122.477510,325.320000,103.480000Z" fill="url(#s5-fill)" stroke="none" stroke-width="1"/><path id="s7" d="M325.280000,103.480000L314.540000,103.480000C314.540000,103.990000,314.540000,104.480000,314.540000,105.020000L314.540000,134.190000C314.540000,210.840000,251.830000,273.550000,175.180000,273.550000L175.180000,273.550000C141.041928,273.539654,108.106943,260.938907,82.680000,238.160000Q79.600000,243.590000,76.500000,249.010000C75.720000,250.380000,74.920000,251.750000,74.140000,253.120000C96.540000,300.270000,144.680000,333.120000,200.140000,333.120000L200.140000,333.120000C276.790000,333.120000,339.500000,270.410000,339.500000,193.760000L339.500000,164.550000C339.508838,143.371878,334.643250,122.475855,325.280000,103.480000Z" fill="url(#s7-fill)" stroke="none" stroke-width="1"/><rect id="s9" width="35.480000" height="48.680000" rx="7.290000" ry="7.290000" transform="translate(295.490000,74.370000)" fill="url(#s9-fill)" stroke="none" stroke-width="1"/><path id="s11" d="M104.630000,254C125.068679,264.724511,147.808527,270.318527,170.890000,270.300000L170.890000,270.300000C249.890000,270.300000,314.560000,205.650000,314.560000,126.630000" fill="none" stroke="rgb(255,211,92)" stroke-width="10" stroke-linecap="round" stroke-miterlimit="10"/><rect id="s13" width="32.450000" height="23" rx="6.520000" ry="6.520000" transform="translate(-163.570000,175.520000) rotate(-57.429969) scale(1,1) translate(62.180000,225.540000)" fill="url(#s13-fill)" stroke="none" stroke-width="1"/></g></svg>