<svg id="eM1zkc6g9pJ1" xmlns="http://www.w3.org/2000/svg" xmlns:xlink="http://www.w3.org/1999/xlink" viewBox="0 0 400 400" shape-rendering="geometricPrecision" text-rendering="geometricPrecision"><defs><linearGradient id="eM1zkc6g9pJ5-fill" x1="196.516784" y1="356.863731" x2="196.516784" y2="56.526267" spreadMethod="pad" gradientUnits="userSpaceOnUse"><stop id="eM1zkc6g9pJ5-fill-0" offset="0%" stop-color="rgb(59,170,235)"/><stop id="eM1zkc6g9pJ5-fill-1" offset="100%" stop-color="rgb(19,119,176)"/></linearGradient></defs><g id="eM1zkc6g9pJ2"><circle id="eM1zkc6g9pJ3" r="175" transform="matrix(1 0 0 1 196.50000000000000 199.90000000000001)" clip-rule="evenodd" fill="rgb(19,135,201)" fill-rule="evenodd" stroke="none" stroke-width="1"/><circle id="eM1zkc6g9pJ4" r="157" transform="matrix(1 0 0 1 196.50000000000000 199.90000000000001)" clip-rule="evenodd" fill="rgb(19,119,176)" fill-rule="evenodd" stroke="none" stroke-width="1"/><path id="eM1zkc6g9pJ5" d="M39.600000,206.700000C43.200000,290.300000,112.100000,356.900000,196.500000,356.900000C281,356.900000,349.800000,290.300000,353.400000,206.700000C349.800000,123.200000,281,56.600000,196.500000,56.600000C112.100000,56.600000,43.200000,123.200000,39.600000,206.700000L39.600000,206.700000Z" clip-rule="evenodd" fill="url(#eM1zkc6g9pJ5-fill)" fill-rule="evenodd" stroke="none" stroke-width="1"/><circle id="eM1zkc6g9pJ6" r="115.800000" transform="matrix(1 0 0 1 196.50000000000000 199.90000000000001)" clip-rule="evenodd" fill="rgb(19,135,201)" fill-rule="evenodd" stroke="none" stroke-width="1"/><path id="eM1zkc6g9pJ7" d="M80.800000,203.600000C80.700000,204.800000,80.700000,206,80.700000,207.300000C80.700000,271.300000,132.500000,323.100000,196.500000,323.100000C260.500000,323.100000,312.300000,271.300000,312.300000,207.300000C312.300000,206,312.300000,204.800000,312.200000,203.600000C310.300000,265.800000,259.200000,315.700000,196.500000,315.700000C133.800000,315.700000,82.700000,265.800000,80.800000,203.600000L80.800000,203.600000Z" clip-rule="evenodd" fill="rgb(19,119,176)" fill-rule="evenodd" stroke="none" stroke-width="1"/></g><path id="eM1zkc6g9pJ8" d="M120.300000,171.100000L196.500000,219.300000L272.800000,171.100000L196.500000,122.900000L120.300000,171.100000L120.300000,171.100000ZM194.600000,226.700000L117.100000,177.800000L117.100000,197.800000L196.500000,248L283.400000,193.100000L283.400000,230.600000L196.500000,285.500000L111.400000,231.700000L115.300000,225.400000L196.500000,276.700000L276,226.500000L276,206.500000L196.500000,256.700000L109.600000,201.800000L109.600000,169C138.600000,150.700000,167.500000,132.400000,196.500000,114.100000L286.600000,171L196.500000,228L194.600000,226.700000L194.600000,226.700000Z" fill="rgb(255,255,255)" stroke="none" stroke-width="1"/></svg>