<svg id="s1" xmlns="http://www.w3.org/2000/svg" xmlns:xlink="http://www.w3.org/1999/xlink" viewBox="0 0 400 400"><defs><linearGradient id="s7-fill" x1="-51.470000" y1="-10.200000" x2="54.830000" y2="10.860000" spreadMethod="pad" gradientUnits="userSpaceOnUse"><stop id="s7-fill-0" offset="0%" stop-color="rgb(252,166,86)"/><stop id="s7-fill-1" offset="100%" stop-color="rgb(252,187,83)"/></linearGradient><linearGradient id="s9-fill" x1="78.630000" y1="94.870000" x2="167.680000" y2="112.520000" spreadMethod="pad" gradientUnits="userSpaceOnUse"><stop id="s9-fill-0" offset="18%" stop-color="rgb(252,232,179)"/><stop id="s9-fill-1" offset="100%" stop-color="rgb(252,222,142)"/></linearGradient><linearGradient id="s11-fill" x1="98.670000" y1="64.300000" x2="146.110000" y2="144.710000" spreadMethod="pad" gradientUnits="userSpaceOnUse"><stop id="s11-fill-0" offset="1%" stop-color="rgb(250,209,72)"/><stop id="s11-fill-1" offset="100%" stop-color="rgb(237,169,43)"/></linearGradient><linearGradient id="s15-fill" x1="8.540000" y1="157.320000" x2="8.540000" y2="10.780000" spreadMethod="pad" gradientUnits="userSpaceOnUse"><stop id="s15-fill-0" offset="0%" stop-color="rgb(212,244,255)"/><stop id="s15-fill-1" offset="51%" stop-color="rgb(176,233,255)"/><stop id="s15-fill-2" offset="100%" stop-color="rgb(123,209,242)"/></linearGradient><linearGradient id="s17-fill" x1="102.040000" y1="173.280000" x2="304.950000" y2="173.280000" spreadMethod="pad" gradientUnits="userSpaceOnUse"><stop id="s17-fill-0" offset="7%" stop-color="rgb(176,234,255)"/><stop id="s17-fill-1" offset="18%" stop-color="rgb(212,244,255)"/><stop id="s17-fill-2" offset="30%" stop-color="rgb(201,241,255)"/><stop id="s17-fill-3" offset="58%" stop-color="rgb(176,233,255)"/><stop id="s17-fill-4" offset="85%" stop-color="rgb(140,214,242)"/><stop id="s17-fill-5" offset="100%" stop-color="rgb(176,233,255)"/></linearGradient><linearGradient id="s19-fill" x1="505.600020" y1="120.059997" x2="505.600020" y2="183.459997" spreadMethod="pad" gradientUnits="userSpaceOnUse"><stop id="s19-fill-0" offset="18%" stop-color="rgb(212,244,255)"/><stop id="s19-fill-1" offset="58%" stop-color="rgb(176,233,255)"/><stop id="s19-fill-2" offset="85%" stop-color="rgb(123,209,242)"/></linearGradient><linearGradient id="s21-fill" x1="-26.074224" y1="159.624075" x2="31.762662" y2="202.393011" spreadMethod="pad" gradientUnits="userSpaceOnUse"><stop id="s21-fill-0" offset="4%" stop-color="rgb(240,111,82)"/><stop id="s21-fill-1" offset="74%" stop-color="rgb(224,65,65)"/></linearGradient><linearGradient id="s23-fill" x1="201.050000" y1="120.810000" x2="220.460000" y2="204.690000" spreadMethod="pad" gradientUnits="userSpaceOnUse"><stop id="s23-fill-0" offset="1%" stop-color="rgb(255,86,172)"/><stop id="s23-fill-1" offset="100%" stop-color="rgb(235,203,76)"/></linearGradient><linearGradient id="s25-fill" x1="3.029999" y1="0.950000" x2="48.109999" y2="50.310000" spreadMethod="pad" gradientUnits="userSpaceOnUse"><stop id="s25-fill-0" offset="18%" stop-color="rgb(252,251,247)"/><stop id="s25-fill-1" offset="100%" stop-color="rgb(252,241,214)"/></linearGradient><linearGradient id="s27-fill" x1="-3.100000" y1="15.890001" x2="54.630000" y2="34.400001" spreadMethod="pad" gradientUnits="userSpaceOnUse"><stop id="s27-fill-0" offset="18%" stop-color="rgb(252,251,247)"/><stop id="s27-fill-1" offset="100%" stop-color="rgb(252,241,214)"/></linearGradient></defs><g id="s3"><g id="s5"><circle id="s7" r="53.560000" transform="translate(121.750000,103.420000)" fill="url(#s7-fill)" stroke="none" stroke-width="1"/><path id="s9" d="M121.750000,148.290000C96.968983,148.290000,76.880000,128.201017,76.880000,103.420000C76.880000,78.638983,96.968983,58.550000,121.750000,58.550000C146.531017,58.550000,166.620000,78.638983,166.620000,103.420000C166.592445,128.189594,146.519594,148.262445,121.750000,148.290000Z" fill="url(#s9-fill)" stroke="none" stroke-width="1"/><path id="s11" d="M118.130000,65.410000L118.130000,90.820000C118.149663,91.475420,117.767428,92.076495,117.165532,92.336655C116.563636,92.596816,115.863927,92.463394,115.400000,92L97.400000,74C97.075217,73.679993,96.903441,73.235954,96.928309,72.780685C96.953177,72.325415,97.172294,71.902729,97.530000,71.620000C103.006444,67.441609,109.474277,64.757304,116.300000,63.830000C116.759710,63.759799,117.227110,63.894374,117.579106,64.198283C117.931101,64.502191,118.132404,64.944967,118.130000,65.410000ZM109.130000,107.040000L83.740000,107.040000C83.273203,107.043481,82.830898,107.249393,82.527735,107.604363C82.224572,107.959332,82.090400,108.428408,82.160000,108.890000C83.094372,115.693797,85.774704,122.139687,89.940000,127.600000C90.222729,127.957706,90.645415,128.176823,91.100685,128.201691C91.555954,128.226559,91.999993,128.054783,92.320000,127.730000L110.320000,109.730000C110.781906,109.267337,110.915868,108.570194,110.658335,107.969285C110.400803,107.368376,109.803588,106.984594,109.150000,107ZM125.350000,65.410000L125.350000,90.820000C125.325895,91.479861,125.709620,92.086755,126.316074,92.347929C126.922529,92.609102,127.627132,92.470905,128.090000,92L146.090000,74C146.414783,73.679993,146.586559,73.235954,146.561691,72.780685C146.536823,72.325415,146.317706,71.902729,145.960000,71.620000C140.483556,67.441609,134.015723,64.757304,127.190000,63.830000C126.731860,63.763019,126.267280,63.899068,125.917642,64.202600C125.568004,64.506132,125.368042,64.946994,125.370000,65.410000ZM110.280000,97.070000L92.280000,79.070000C91.959993,78.745217,91.515954,78.573441,91.060685,78.598309C90.605415,78.623177,90.182729,78.842294,89.900000,79.200000C85.734720,84.690218,83.067567,91.168574,82.160000,98C82.090400,98.461592,82.224572,98.930668,82.527735,99.285637C82.830898,99.640607,83.273203,99.846519,83.740000,99.850000L109.160000,99.850000C109.827201,99.866681,110.434671,99.467463,110.684076,98.848405C110.933481,98.229347,110.772423,97.520505,110.280000,97.070000ZM134.340000,99.790000L159.760000,99.790000C160.214862,99.784380,160.646117,99.586600,160.947150,99.245557C161.248182,98.904514,161.390893,98.452040,161.340000,98C160.405628,91.196203,157.725296,84.750313,153.560000,79.290000C153.277271,78.932294,152.854585,78.713177,152.399315,78.688309C151.944046,78.663441,151.500007,78.835217,151.180000,79.160000L133.180000,97.160000C132.780006,97.626906,132.682928,98.281712,132.930252,98.844586C133.177575,99.407461,133.725550,99.778834,134.340000,99.800000ZM133.210000,109.790000L151.210000,127.790000C151.530007,128.114783,151.974046,128.286559,152.429315,128.261691C152.884585,128.236823,153.307271,128.017706,153.590000,127.660000C157.755296,122.199687,160.435628,115.753797,161.370000,108.950000C161.439600,108.488408,161.305428,108.019332,161.002265,107.664363C160.699102,107.309393,160.256797,107.103481,159.790000,107.100000L134.340000,107.100000C133.724827,107.129587,133.181244,107.509641,132.942246,108.077262C132.703248,108.644882,132.811265,109.299294,133.220000,109.760000ZM125.370000,116L125.370000,141.410000C125.366726,141.866777,125.560062,142.302898,125.900729,142.607202C126.241397,142.911507,126.696486,143.054597,127.150000,143C133.975723,142.072696,140.443556,139.388391,145.920000,135.210000C146.277706,134.927271,146.496823,134.504585,146.521691,134.049315C146.546559,133.594046,146.374783,133.150007,146.050000,132.830000L128.050000,114.830000C127.583468,114.403163,126.909316,114.291127,126.329804,114.544123C125.750291,114.797119,125.374141,115.367683,125.370000,116ZM115.370000,114.870000L97.370000,132.870000C97.045217,133.190007,96.873441,133.634046,96.898309,134.089315C96.923177,134.544585,97.142294,134.967271,97.500000,135.250000C102.957450,139.413712,109.399699,142.093963,116.200000,143.030000C116.661592,143.099600,117.130668,142.965428,117.485637,142.662265C117.840607,142.359102,118.046519,141.916797,118.050000,141.450000L118.050000,116C118.013823,115.390605,117.634031,114.854902,117.070964,114.619051C116.507896,114.383200,115.859689,114.488308,115.400000,114.890000Z" fill="url(#s11-fill)" stroke="none" stroke-width="1"/></g><g id="s13"><rect id="s15" width="17.080000" height="151.630000" rx="8.540000" ry="8.540000" transform="translate(198.500000,212.300000)" fill="url(#s15-fill)" stroke="none" stroke-width="1"/><path id="s17" d="M118.250000,107.480000C112.264064,121.151306,109.525849,136.023235,110.250000,150.930000C112.600000,200.590000,152.960000,240.840000,202.630000,243.030000C236.054532,244.541055,267.893402,228.700040,286.848185,201.128336C305.802968,173.556633,309.191002,138.156454,295.810000,107.490000C294.722258,105.015002,292.273478,103.417801,289.570000,103.420000L124.480000,103.420000C121.781749,103.417436,119.337236,105.010489,118.250000,107.480000Z" fill="url(#s17-fill)" stroke="none" stroke-width="1"/><rect id="s19" width="17.080000" height="118.360000" rx="7.540000" ry="7.540000" transform="translate(-150.700000,564.770000) rotate(-90) translate(198.500000,298.560000)" fill="url(#s19-fill)" stroke="none" stroke-width="1"/></g><rect id="s21" width="15.700000" height="207.050000" rx="2.440000" ry="2.440000" transform="translate(57.070000,-83.580000) rotate(20.230026) skewX(0) scale(1,1) translate(255,14.660000)" fill="url(#s21-fill)" stroke="none" stroke-width="1"/><path id="s23" d="M207,228.540000C205.770000,228.540000,204.500000,228.540000,203.250000,228.460000C161.250000,226.600000,126.790000,192.250000,124.800000,150.250000C124.526455,144.566436,124.838094,138.869807,125.730000,133.250000C125.886087,132.351275,126.667828,131.696302,127.580000,131.700000C152.700000,132.020000,166.500000,135.240000,179.850000,138.350000C192.490000,141.300000,204.420000,144.080000,224.410000,144.080000C234.680000,144.080000,244.620000,141.450000,256.130000,138.400000C265.400000,135.940000,274.980000,133.400000,286.130000,131.860000L286.390000,131.860000C287.300689,131.860393,288.080145,132.513451,288.240000,133.410000C291.997752,157.176057,285.164238,181.396102,269.538640,199.693284C253.913043,217.990466,231.061299,228.531114,207,228.540000Z" opacity="0.8" fill="url(#s23-fill)" stroke="none" stroke-width="1"/><rect id="s25" width="49.710000" height="49.710000" rx="4.990000" ry="4.990000" transform="translate(-71.540000,178.510000) rotate(-47.600003) skewX(-0) scale(0.999999,0.999999) translate(141.760000,145.510000)" opacity="0.3" fill="url(#s25-fill)" stroke="none" stroke-width="1"/><rect id="s27" width="49.710000" height="49.710000" rx="4.990000" ry="4.990000" transform="translate(-49,77.230000) rotate(-17.780005) scale(1,1) translate(197.530000,170.400000)" opacity="0.3" fill="url(#s27-fill)" stroke="none" stroke-width="1"/></g></svg>