<svg id="s1" xmlns="http://www.w3.org/2000/svg" xmlns:xlink="http://www.w3.org/1999/xlink" viewBox="0 0 400 400"><defs><linearGradient id="s15-fill" x1="157.650000" y1="261.490000" x2="221.360000" y2="261.490000" spreadMethod="pad" gradientUnits="userSpaceOnUse"><stop id="s15-fill-0" offset="10%" stop-color="rgb(255,198,107)"/><stop id="s15-fill-1" offset="51%" stop-color="rgb(245,155,81)"/><stop id="s15-fill-2" offset="83%" stop-color="rgb(239,132,44)"/></linearGradient></defs><g id="s3"><g id="s5"><path id="s7" d="M139,77C169.200086,98.663583,187.133689,133.533445,187.190000,170.700000L187.190000,201.340000" fill="none" stroke="rgb(182,205,78)" stroke-width="26" stroke-linecap="round" stroke-miterlimit="10"/><path id="s9" d="M210.780000,184.230000L210.780000,142.510000C210.792755,114.686894,221.773168,87.990406,241.340000,68.210000" fill="none" stroke="rgb(182,205,78)" stroke-width="26" stroke-linecap="round" stroke-miterlimit="10"/><path id="s11" d="M171.600000,43.870000C187.676873,59.867650,196.719918,81.609821,196.730000,104.290000L196.730000,184.230000" fill="none" stroke="rgb(142,174,45)" stroke-width="26" stroke-linecap="round" stroke-miterlimit="10"/></g><g id="s13"><path id="s15" d="M168.820000,159.120000C159.120000,159.120000,151.400000,168.910000,152.040000,180.490000C156.640000,263.590000,172.420000,363.870000,196.730000,363.870000C221.040000,363.870000,236.830000,263.600000,241.430000,180.490000C242.070000,168.910000,234.360000,159.120000,224.650000,159.120000Z" fill="url(#s15-fill)" stroke="none" stroke-width="1"/><path id="s17" d="M192.300000,192.530000L152.770000,192.530000C153.130000,197.970000,153.550000,203.460000,154,208.970000L192.300000,208.970000C196.839781,208.970000,200.520000,205.289781,200.520000,200.750000C200.520000,196.210219,196.839781,192.530000,192.300000,192.530000Z" fill="rgb(255,203,130)" stroke="none" stroke-width="1"/><path id="s19" d="M238.430000,220.550000L203.080000,220.550000C198.540219,220.550000,194.860000,224.230219,194.860000,228.770000C194.860000,233.309781,198.540219,236.990000,203.080000,236.990000L236.740000,236.990000Q237.650000,228.810000,238.430000,220.550000Z" fill="rgb(255,203,130)" stroke="none" stroke-width="1"/><path id="s21" d="M183.420000,248.580000L158.070000,248.580000Q159.070000,256.910000,160.270000,265.020000L183.420000,265.020000C187.959781,265.020000,191.640000,261.339781,191.640000,256.800000C191.640000,252.260219,187.959781,248.580000,183.420000,248.580000Z" fill="rgb(255,203,130)" stroke="none" stroke-width="1"/><path id="s23" d="M226.270000,304.230000C227.400000,298.970000,228.480000,293.470000,229.510000,287.790000L191.370000,287.790000C188.433277,287.790000,185.719633,289.356723,184.251271,291.900000C182.782909,294.443277,182.782909,297.576723,184.251271,300.120000C185.719633,302.663277,188.433277,304.230000,191.370000,304.230000Z" fill="rgb(255,203,130)" stroke="none" stroke-width="1"/></g></g></svg>