<svg id="s1" xmlns="http://www.w3.org/2000/svg" xmlns:xlink="http://www.w3.org/1999/xlink" viewBox="0 0 400 400"><defs><linearGradient id="s7-fill" x1="145.200000" y1="206.830000" x2="252.250000" y2="206.830000" spreadMethod="pad" gradientUnits="userSpaceOnUse"><stop id="s7-fill-0" offset="7%" stop-color="rgb(176,234,255)"/><stop id="s7-fill-1" offset="18%" stop-color="rgb(212,244,255)"/><stop id="s7-fill-2" offset="30%" stop-color="rgb(201,241,255)"/><stop id="s7-fill-3" offset="58%" stop-color="rgb(176,233,255)"/><stop id="s7-fill-4" offset="85%" stop-color="rgb(123,209,242)"/><stop id="s7-fill-5" offset="100%" stop-color="rgb(176,233,255)"/></linearGradient><linearGradient id="s9-fill" x1="27.050000" y1="-9.020000" x2="27.050000" y2="7.410000" spreadMethod="pad" gradientUnits="userSpaceOnUse"><stop id="s9-fill-0" offset="8%" stop-color="rgb(212,244,255)"/><stop id="s9-fill-1" offset="30%" stop-color="rgb(201,241,255)"/><stop id="s9-fill-2" offset="60%" stop-color="rgb(176,233,255)"/><stop id="s9-fill-3" offset="86%" stop-color="rgb(123,209,242)"/><stop id="s9-fill-4" offset="100%" stop-color="rgb(176,233,255)"/></linearGradient><linearGradient id="s11-fill" x1="26.806375" y1="-20.679775" x2="31.492895" y2="-8.711678" spreadMethod="pad" gradientUnits="userSpaceOnUse"><stop id="s11-fill-0" offset="8%" stop-color="rgb(194,239,255)"/><stop id="s11-fill-1" offset="30%" stop-color="rgb(176,234,255)"/><stop id="s11-fill-2" offset="80%" stop-color="rgb(155,218,242)"/></linearGradient><linearGradient id="s13-fill" x1="26.076375" y1="-20.719776" x2="30.763826" y2="-8.761636" spreadMethod="pad" gradientUnits="userSpaceOnUse"><stop id="s13-fill-0" offset="8%" stop-color="rgb(194,239,255)"/><stop id="s13-fill-1" offset="30%" stop-color="rgb(176,234,255)"/><stop id="s13-fill-2" offset="80%" stop-color="rgb(155,218,242)"/></linearGradient><linearGradient id="s21-fill" x1="200" y1="388.930000" x2="200" y2="373.800000" spreadMethod="pad" gradientUnits="userSpaceOnUse"><stop id="s21-fill-0" offset="52%" stop-color="rgb(132,217,250)"/><stop id="s21-fill-1" offset="82%" stop-color="rgb(110,197,230)"/></linearGradient><linearGradient id="s25-fill" x1="1.970000" y1="3.910000" x2="54.110000" y2="3.910000" spreadMethod="pad" gradientUnits="userSpaceOnUse"><stop id="s25-fill-0" offset="28%" stop-color="rgb(70,104,212)"/><stop id="s25-fill-1" offset="75%" stop-color="rgb(36,68,166)"/><stop id="s25-fill-2" offset="99%" stop-color="rgb(58,93,201)"/></linearGradient><linearGradient id="s31-fill" x1="1.970000" y1="14.640000" x2="54.110000" y2="14.640000" spreadMethod="pad" gradientUnits="userSpaceOnUse"><stop id="s31-fill-0" offset="28%" stop-color="rgb(70,104,212)"/><stop id="s31-fill-1" offset="75%" stop-color="rgb(36,68,166)"/><stop id="s31-fill-2" offset="99%" stop-color="rgb(58,93,201)"/></linearGradient></defs><g id="s3"><g id="s5"><path id="s7" d="M244.750000,292.500000C244.660231,280.252824,246.115038,268.043198,249.080000,256.160000C250.093756,252.271309,250.604590,248.268657,250.600000,244.250000L250.600000,119C250.577408,103.279036,243.194280,88.475772,230.650000,79C225.217127,74.852342,222.020683,68.415112,222,61.580000L222,33.230000C222,32.078960,221.542751,30.975064,220.728843,30.161157C219.914936,29.347249,218.811040,28.890000,217.660000,28.890000L182.310000,28.890000C179.924808,28.906488,177.999943,30.844751,178,33.230000L178,61.570000C177.982421,68.408630,174.785656,74.850204,169.350000,79C156.786888,88.465378,149.384435,103.270284,149.350000,119L149.350000,244.250000C149.345410,248.268657,149.856244,252.271309,150.870000,256.160000C156.644746,280.039164,156.644746,304.950836,150.870000,328.830000C149.856244,332.718691,149.345410,336.721343,149.350000,340.740000L149.350000,363.630000C149.382958,375.291621,158.828379,384.737042,170.490000,384.770000L229.420000,384.770000C241.081621,384.737042,250.527042,375.291621,250.560000,363.630000L250.560000,340.740000C250.564590,336.721343,250.053756,332.718691,249.040000,328.830000C246.089350,316.948330,244.647991,304.742141,244.750000,292.500000Z" fill="url(#s7-fill)" stroke="none" stroke-width="1"/><rect id="s9" width="54.100000" height="6.130000" rx="2.450000" ry="2.450000" transform="translate(172.950000,61.650000)" fill="url(#s9-fill)" stroke="none" stroke-width="1"/><rect id="s11" width="49.850000" height="5.430000" rx="2.660000" ry="2.660000" transform="translate(-3.360000,18.800000) rotate(-5.340016) scale(1,1) translate(175.070000,42.770000)" fill="url(#s11-fill)" stroke="none" stroke-width="1"/><rect id="s13" width="49.850000" height="5.430000" rx="2.660000" ry="2.660000" transform="translate(-2.630000,18.760000) rotate(-5.340016) scale(1,1) translate(175.070000,34.910000)" fill="url(#s13-fill)" stroke="none" stroke-width="1"/><path id="s15" d="M153.250000,153.460000C190.680000,135.310000,219.840000,180.060000,246.760000,168.870000" fill="none" stroke="rgb(163,227,255)" stroke-width="5" stroke-linecap="round" stroke-miterlimit="10"/><path id="s17" d="M153.250000,180.650000C190.680000,162.500000,219.840000,207.250000,246.760000,196.060000" fill="none" stroke="rgb(163,227,255)" stroke-width="5" stroke-linecap="round" stroke-miterlimit="10"/><path id="s19" d="M153.250000,207.840000C190.680000,189.690000,219.840000,234.440000,246.760000,223.250000" fill="none" stroke="rgb(163,227,255)" stroke-width="5" stroke-linecap="round" stroke-miterlimit="10"/><path id="s21" d="M229.470000,384.770000C233.500651,384.763405,237.444254,383.596988,240.830000,381.410000C230.520000,381.500000,215.050000,374.170000,200.010000,374.170000C184.970000,374.170000,169.490000,381.500000,159.190000,381.410000C162.575746,383.596988,166.519349,384.763405,170.550000,384.770000Z" fill="url(#s21-fill)" stroke="none" stroke-width="1"/><g id="s23"><rect id="s25" width="54.100000" height="7.820000" rx="3.710000" ry="3.710000" transform="translate(172.950000,53.840000)" fill="url(#s25-fill)" stroke="none" stroke-width="1"/><path id="s27" d="M223.340000,58.570000L176.660000,58.570000C175.132479,58.563262,173.764333,57.623405,173.210000,56.200000C173.038836,56.629537,172.950613,57.087616,172.950000,57.550000L172.950000,57.940000C172.955495,59.986696,174.613304,61.644505,176.660000,61.650000L223.330000,61.650000C225.361058,61.622705,226.994723,59.971235,227,57.940000L227,57.550000C226.999387,57.087616,226.911164,56.629537,226.740000,56.200000C226.192459,57.606636,224.849203,58.542965,223.340000,58.570000Z" fill="rgb(45,70,170)" stroke="none" stroke-width="1"/></g></g><g id="s29"><rect id="s31" width="54.100000" height="29.280000" rx="5.710000" ry="5.710000" transform="translate(172.950000,22.980000)" fill="url(#s31-fill)" stroke="none" stroke-width="1"/><path id="s33" d="M221.340000,49.060000L178.660000,49.060000C175.520000,49.060000,172.950000,46.060000,172.950000,42.910000L172.950000,46.550000C172.955504,49.701263,175.508737,52.254496,178.660000,52.260000L221.340000,52.260000C224.471720,52.227152,226.994697,49.681887,227,46.550000L227,42.910000C227,46,224.480000,49.060000,221.340000,49.060000Z" fill="rgb(45,70,170)" stroke="none" stroke-width="1"/></g></g></svg>