<svg id="s1" xmlns="http://www.w3.org/2000/svg" xmlns:xlink="http://www.w3.org/1999/xlink" viewBox="0 0 400 400"><defs><linearGradient id="s7-fill" x1="184.210000" y1="258.260000" x2="218.820000" y2="316.260000" spreadMethod="pad" gradientUnits="userSpaceOnUse"><stop id="s7-fill-0" offset="26%" stop-color="rgb(240,231,218)"/><stop id="s7-fill-1" offset="100%" stop-color="rgb(232,213,186)"/></linearGradient><linearGradient id="s9-fill" x1="53.920000" y1="-1.210000" x2="70.400000" y2="26.410000" spreadMethod="pad" gradientUnits="userSpaceOnUse"><stop id="s9-fill-0" offset="26%" stop-color="rgb(240,231,218)"/><stop id="s9-fill-1" offset="100%" stop-color="rgb(232,213,186)"/></linearGradient><linearGradient id="s11-fill" x1="198.070000" y1="107.410000" x2="238.860000" y2="175.780000" spreadMethod="pad" gradientUnits="userSpaceOnUse"><stop id="s11-fill-0" offset="26%" stop-color="rgb(240,231,218)"/><stop id="s11-fill-1" offset="100%" stop-color="rgb(232,213,186)"/></linearGradient><linearGradient id="s19-fill" x1="350.749999" y1="-88.300003" x2="393.259999" y2="-94.560003" spreadMethod="pad" gradientUnits="userSpaceOnUse"><stop id="s19-fill-0" offset="0%" stop-color="rgb(54,88,6)"/><stop id="s19-fill-1" offset="42%" stop-color="rgb(66,107,7)"/><stop id="s19-fill-2" offset="77%" stop-color="rgb(82,135,10)"/></linearGradient><linearGradient id="s21-fill" x1="389.959991" y1="-96.849997" x2="409.229991" y2="-106.369997" spreadMethod="pad" gradientUnits="userSpaceOnUse"><stop id="s21-fill-0" offset="3%" stop-color="rgb(62,95,0)"/><stop id="s21-fill-1" offset="97%" stop-color="rgb(43,66,0)"/></linearGradient><linearGradient id="s25-fill" x1="2.950001" y1="19.970000" x2="-3.319999" y2="-22.540000" spreadMethod="pad" gradientUnits="userSpaceOnUse"><stop id="s25-fill-0" offset="0%" stop-color="rgb(54,88,6)"/><stop id="s25-fill-1" offset="42%" stop-color="rgb(66,107,7)"/><stop id="s25-fill-2" offset="77%" stop-color="rgb(82,135,10)"/></linearGradient><linearGradient id="s27-fill" x1="5.790000" y1="11.700000" x2="-3.740000" y2="-7.560000" spreadMethod="pad" gradientUnits="userSpaceOnUse"><stop id="s27-fill-0" offset="3%" stop-color="rgb(62,95,0)"/><stop id="s27-fill-1" offset="97%" stop-color="rgb(43,66,0)"/></linearGradient><linearGradient id="s31-fill" x1="92.220000" y1="175.660000" x2="295.430000" y2="175.660000" spreadMethod="pad" gradientUnits="userSpaceOnUse"><stop id="s31-fill-0" offset="3%" stop-color="rgb(199,188,60)"/><stop id="s31-fill-1" offset="36%" stop-color="rgb(222,210,69)"/><stop id="s31-fill-2" offset="100%" stop-color="rgb(194,168,47)"/></linearGradient><linearGradient id="s33-fill" x1="-3.720000" y1="-4.070000" x2="3.970000" y2="4.350000" spreadMethod="pad" gradientUnits="userSpaceOnUse"><stop id="s33-fill-0" offset="18%" stop-color="rgb(252,251,247)"/><stop id="s33-fill-1" offset="100%" stop-color="rgb(252,241,214)"/></linearGradient><linearGradient id="s35-fill" x1="-4.130000" y1="-4.520000" x2="4.400000" y2="4.820000" spreadMethod="pad" gradientUnits="userSpaceOnUse"><stop id="s35-fill-0" offset="18%" stop-color="rgb(252,251,247)"/><stop id="s35-fill-1" offset="100%" stop-color="rgb(252,241,214)"/></linearGradient><linearGradient id="s37-fill" x1="-2.170000" y1="-2.370000" x2="2.300000" y2="2.530000" spreadMethod="pad" gradientUnits="userSpaceOnUse"><stop id="s37-fill-0" offset="18%" stop-color="rgb(252,251,247)"/><stop id="s37-fill-1" offset="100%" stop-color="rgb(252,241,214)"/></linearGradient></defs><g id="s3"><g id="s5"><path id="s7" d="M221.230000,346.360000L221.090000,346.360000C213.980166,346.338039,208.221961,340.579834,208.200000,333.470000L208.200000,201.050000C208.200000,196.510219,204.519781,192.830000,199.980000,192.830000C195.440219,192.830000,191.760000,196.510219,191.760000,201.050000L191.760000,333.470000C191.738039,340.579834,185.979834,346.338039,178.870000,346.360000L178.520000,346.360000L178.520000,348.490000L221.190000,348.490000Z" fill="url(#s7-fill)" stroke="none" stroke-width="1"/><rect id="s9" width="119.360000" height="16.880000" rx="8.440000" ry="8.440000" transform="translate(140.320000,346.360000)" fill="url(#s9-fill)" stroke="none" stroke-width="1"/><path id="s11" d="M221.130000,224.310000L316.180000,113.050000C317.125497,111.946176,317.341553,110.392795,316.733173,109.072845C316.124792,107.752896,314.803406,106.908141,313.350000,106.910000L86.640000,106.910000C85.186594,106.908141,83.865208,107.752896,83.256827,109.072845C82.648447,110.392795,82.864503,111.946176,83.810000,113.050000L178.860000,224.310000C184.141724,230.491133,191.864624,234.050327,199.995000,234.050327C208.125376,234.050327,215.848276,230.491133,221.130000,224.310000Z" fill="url(#s11-fill)" stroke="none" stroke-width="1"/></g><g id="s13"><line id="s15" x1="260.010000" y1="41.520000" x2="211.970000" y2="204.060000" fill="none" stroke="rgb(243,216,131)" stroke-width="7" stroke-linecap="round" stroke-miterlimit="10"/><g id="s17"><ellipse id="s19" rx="17.160000" ry="30.870000" transform="translate(7.330000,290.950000) rotate(-65.240010) scale(1,1) translate(230.980000,139.740000)" fill="url(#s19-fill)" stroke="none" stroke-width="1"/><ellipse id="s21" rx="6.080000" ry="4.110000" transform="translate(10.770000,315.850000) rotate(-65.240010) scale(1,1) translate(252.150000,149.510000)" fill="url(#s21-fill)" stroke="none" stroke-width="1"/></g><g id="s23"><ellipse id="s25" rx="30.870000" ry="17.160000" transform="translate(-3.920000,9.800000) rotate(-2.289978) scale(1,1) translate(242.870000,102.730000)" fill="url(#s25-fill)" stroke="none" stroke-width="1"/><ellipse id="s27" rx="4.110000" ry="6.080000" transform="translate(-3.860000,10.730000) rotate(-2.289978) scale(1,1) translate(266.170000,101.790000)" fill="url(#s27-fill)" stroke="none" stroke-width="1"/></g></g><g id="s29"><path id="s31" d="M200,219.230000C196.206935,219.224411,192.605491,217.562487,190.140000,214.680000L123.260000,136.420000C122.592227,135.639683,122.439776,134.542037,122.869622,133.609273C123.299467,132.676508,124.232958,132.079297,125.260000,132.080000L274.740000,132.080000C275.767042,132.079297,276.700533,132.676508,277.130378,133.609273C277.560224,134.542037,277.407773,135.639683,276.740000,136.420000L209.640000,214.940000C208.637622,216.137505,207.398311,217.114654,206,217.810000C204.134842,218.735760,202.082252,219.221539,200,219.230000Z" opacity="0.7" fill="url(#s31-fill)" stroke="none" stroke-width="1"/><circle id="s33" r="5.640000" transform="translate(178,144.910000)" opacity="0.3" fill="url(#s33-fill)" stroke="none" stroke-width="1"/><circle id="s35" r="6.250000" transform="translate(196.040000,193.030000)" opacity="0.3" fill="url(#s35-fill)" stroke="none" stroke-width="1"/><circle id="s37" r="3.280000" transform="translate(198.760000,162.340000)" opacity="0.3" fill="url(#s37-fill)" stroke="none" stroke-width="1"/></g></g></svg>