<svg id="e6LZFunbghV1" xmlns="http://www.w3.org/2000/svg" xmlns:xlink="http://www.w3.org/1999/xlink" viewBox="0 0 300 300" shape-rendering="geometricPrecision" text-rendering="geometricPrecision"><g id="e6LZFunbghV2" transform="matrix(1 0 0 1 -80.830007 -108.384581)"><ellipse id="e6LZFunbghV3" rx="94.421824" ry="94.421824" transform="matrix(0.863542 0 0 0.863542 218.236157 269.783387)" fill="rgb(0,0,0)" stroke="none" stroke-width="0"/><g id="e6LZFunbghV4" transform="matrix(1 0 0 1 0 0.000001)"><g id="e6LZFunbghV5" transform="matrix(0.977755 0 0 0.977755 4.811371 7.028161)"><path id="e6LZFunbghV6" d="M170.39,284C168.637285,283.590604,166.971346,282.872761,165.47,281.88L167.93,276.35C170.546971,278.018508,173.576696,278.925695,176.68,278.97Q180.99,278.97,180.99,276.81C180.985636,276.040924,180.490486,275.360596,179.76,275.12C178.464374,274.61594,177.125502,274.231014,175.76,273.97C174.063847,273.624418,172.39329,273.163345,170.76,272.59C169.431404,272.098038,168.245881,271.283635,167.31,270.22C166.300131,268.987011,165.786643,267.421587,165.87,265.83C165.850712,264.267733,166.315291,262.737766,167.2,261.45C168.190095,260.061978,169.56249,258.991857,171.15,258.37C173.2036,257.555343,175.401601,257.167461,177.61,257.23C179.343484,257.230767,181.071256,257.428706,182.76,257.82C184.329152,258.161501,185.836667,258.741574,187.23,259.54L185,265.06C182.761269,263.769703,180.233369,263.064642,177.65,263.01C176.526669,262.928249,175.402459,263.156551,174.4,263.67C173.781832,264.026899,173.400732,264.686202,173.4,265.4C173.425574,266.132886,173.910439,266.770023,174.61,266.99C175.877175,267.474794,177.185931,267.842986,178.52,268.09C180.216852,268.432658,181.887609,268.893787,183.52,269.47C184.846688,269.955888,186.032098,270.763341,186.97,271.82C187.993633,273.038587,188.515573,274.600832,188.43,276.19C188.446073,277.73318,187.981222,279.24307,187.1,280.51C186.084621,281.894139,184.697674,282.962088,183.1,283.59C181.055215,284.412884,178.863397,284.807683,176.66,284.75C174.546404,284.771403,172.438917,284.519312,170.39,284Z" transform="matrix(1 0 0 1 2 0)" fill="rgb(255,255,255)" stroke="none" stroke-width="1"/><path id="e6LZFunbghV7" d="M210,279.07L198.75,279.07L196.67,284.22L189,284.22L200.7,257.71L208.09,257.71L219.83,284.22L212,284.22ZM207.81,273.54L204.4,265.06L201,273.54Z" transform="matrix(1 0 0 1 2 0)" fill="rgb(255,255,255)" stroke="none" stroke-width="1"/><path id="e6LZFunbghV8" d="M222.34,257.71L229.84,257.71L229.84,278.27L242.49,278.27L242.49,284.27L222.34,284.27Z" transform="matrix(1 0 0 1 2 0)" fill="rgb(255,255,255)" stroke="none" stroke-width="1"/><path id="e6LZFunbghV9" d="M267.11,278.42L267.11,284.22L245.82,284.22L245.82,257.71L266.61,257.71L266.61,263.5L253.25,263.5L253.25,268L265,268L265,273.61L253.25,273.61L253.25,278.45Z" transform="matrix(1 0 0 1 2 0)" fill="rgb(255,255,255)" stroke="none" stroke-width="1"/></g><path id="e6LZFunbghV10" d="M279,241.25L279,295.75C279,300.858634,274.858634,305,269.75,305L202.68,305L191,325.22C190.443586,326.178985,189.418715,326.769231,188.31,326.769231C187.201285,326.769231,186.176414,326.178985,185.62,325.22L174,305L164.29,305C159.181366,305,155.04,300.858634,155.04,295.75L155.04,241.25C155.04,236.141366,159.181366,232,164.29,232L269.79,232C274.883006,232.022024,279.000048,236.156946,279,241.25Z" transform="matrix(1.015291 0 0 1 -2.318453 0)" fill="none" stroke="rgb(255,255,255)" stroke-width="3.58198" stroke-miterlimit="10"/><path id="e6LZFunbghV11" d="M279,241.25L279,295.75C279,300.858634,274.924215,304.260124,269.815581,304.260124L195.952288,304.203304L189.898753,319.114447C186.916649,327.618213,185.493251,325.199327,185.493251,325.199327C185.493251,325.199327,185.000536,326.025285,182.115628,319.87695L175.076656,304.233L164.186535,304.168009C159.077901,304.168009,155.32246,300.976192,155.32246,295.867558L155.625595,241.129191C155.625595,236.020557,159.181366,232,164.29,232L269.79,232C274.883006,232.022024,279.000048,236.156946,279,241.25Z" transform="matrix(0.923428 0 0 0.856887 17.568778 38.404828)" fill="none" stroke="rgb(255,255,255)" stroke-width="0.8" stroke-linecap="round" stroke-linejoin="round" stroke-miterlimit="10" stroke-dashoffset="400.97" stroke-dasharray="6,4"/></g><g id="e6LZFunbghV12" transform="matrix(0.898162 0 0 0.898162 27.053264 23.017425)"><rect id="e6LZFunbghV13" width="122" height="57" rx="8.11" ry="8.11" transform="matrix(1 0 0 1 204.65 197.52)" fill="rgb(242,60,119)" stroke="none" stroke-width="1"/><g id="e6LZFunbghV14" transform="matrix(1 0 0 1 0.000001 0)"><path id="e6LZFunbghV15" d="M216.53,235.43C215.160427,235.10317,213.857831,234.541532,212.68,233.77L214.61,229.45C216.656311,230.738997,219.02162,231.43162,221.44,231.45C223.69,231.45,224.82,230.89,224.82,229.76C224.812632,229.15038,224.406108,228.617834,223.82,228.45C222.820111,228.052476,221.785746,227.747857,220.73,227.54C219.405307,227.275988,218.101799,226.915017,216.83,226.46C215.787138,226.083332,214.857765,225.44654,214.13,224.61C213.342759,223.645922,212.9434,222.422883,213.01,221.18C212.989329,219.96504,213.338043,218.772438,214.01,217.76C214.789376,216.674598,215.86593,215.837664,217.11,215.35C218.700047,214.720779,220.400494,214.418099,222.11,214.46C223.456252,214.464757,224.797811,214.619036,226.11,214.92C227.334174,215.193351,228.510539,215.648392,229.6,216.27L227.79,220.62C226.041624,219.612543,224.067425,219.062244,222.05,219.02C221.171494,218.954442,220.292065,219.134483,219.51,219.54C219.018449,219.806862,218.71169,220.320683,218.71,220.88C218.720724,221.459068,219.104946,221.964623,219.66,222.13C220.63299,222.503654,221.636822,222.791419,222.66,222.99C223.992112,223.25029,225.302544,223.611327,226.58,224.07C227.617197,224.447898,228.544765,225.076583,229.28,225.9C230.079895,226.854215,230.487387,228.076691,230.42,229.32C230.441986,230.519553,230.092717,231.69659,229.42,232.69C228.635061,233.774143,227.555755,234.610519,226.31,235.1C224.724117,235.745564,223.021641,236.055414,221.31,236.01C219.698745,236.016228,218.093008,235.82139,216.53,235.43Z" fill="rgb(255,255,255)" stroke="none" stroke-width="1"/><path id="e6LZFunbghV16" d="M236,233.53C234.29,231.85,233.44,229.48,233.44,226.4L233.44,214.92L239.3,214.92L239.3,226.22C239.3,229.54,240.61,231.22,243.23,231.22C245.85,231.22,247.14,229.57,247.14,226.22L247.14,214.92L252.91,214.92L252.91,226.4C252.91,229.48,252.06,231.85,250.35,233.53C246.157297,236.891656,240.192703,236.891656,236,233.53Z" fill="rgb(255,255,255)" stroke="none" stroke-width="1"/><path id="e6LZFunbghV17" d="M271.48,215.85C274.170646,216.997321,275.91665,219.639949,275.91665,222.565C275.91665,225.490051,274.170646,228.132679,271.48,229.28C269.939692,229.940077,268.27529,230.260679,266.6,230.22L263,230.22L263,235.63L257.14,235.63L257.14,214.92L266.61,214.92C268.280775,214.882831,269.940492,215.199779,271.48,215.85ZM268.97,224.85C269.600381,224.281408,269.938761,223.457526,269.89,222.61C269.934592,221.760267,269.597173,220.935056,268.97,220.36C268.189337,219.774321,267.223441,219.490234,266.25,219.56L263,219.56L263,225.63L266.26,225.63C267.240812,225.696374,268.212929,225.408996,269,224.82Z" fill="rgb(255,255,255)" stroke="none" stroke-width="1"/><path id="e6LZFunbghV18" d="M295.57,231.1L295.57,235.63L278.94,235.63L278.94,214.92L295.19,214.92L295.19,219.44L284.74,219.44L284.74,222.94L294,222.94L294,227.32L284.79,227.32L284.79,231.1Z" fill="rgb(255,255,255)" stroke="none" stroke-width="1"/><path id="e6LZFunbghV19" d="M308.18,230.13L305,230.13L305,235.63L299.14,235.63L299.14,214.92L308.61,214.92C310.28746,214.880298,311.954226,215.197291,313.5,215.85C314.800306,216.406078,315.909283,217.330805,316.69,218.51C317.458415,219.726155,317.851448,221.14177,317.82,222.58C317.8531,223.960315,317.48862,225.321039,316.77,226.5C316.040893,227.642052,314.999806,228.551268,313.77,229.12L318.24,235.63L311.97,235.63ZM310.96,220.33C310.179337,219.744321,309.213441,219.460234,308.24,219.53L305,219.53L305,225.6L308.26,225.6C309.23041,225.670142,310.194236,225.393751,310.98,224.82C311.610381,224.251408,311.948761,223.427526,311.9,222.58C311.949677,221.733455,311.619798,220.908755,311,220.33Z" fill="rgb(255,255,255)" stroke="none" stroke-width="1"/></g></g></g></svg>