<svg id="eAckM0NKwEX1" xmlns="http://www.w3.org/2000/svg" xmlns:xlink="http://www.w3.org/1999/xlink" viewBox="0 0 400 400" shape-rendering="geometricPrecision" text-rendering="geometricPrecision"><defs><linearGradient id="eAckM0NKwEX5-fill" x1="142.739660" y1="84.653990" x2="293.017649" y2="100.757221" spreadMethod="pad" gradientUnits="userSpaceOnUse"><stop id="eAckM0NKwEX5-fill-0" offset="0%" stop-color="rgb(255,204,153)"/><stop id="eAckM0NKwEX5-fill-1" offset="100%" stop-color="rgb(230,185,141)"/></linearGradient><linearGradient id="eAckM0NKwEX8-fill" x1="102.215029" y1="162.093316" x2="248.203302" y2="122.975830" spreadMethod="pad" gradientUnits="userSpaceOnUse"><stop id="eAckM0NKwEX8-fill-0" offset="0%" stop-color="rgb(255,204,153)"/><stop id="eAckM0NKwEX8-fill-1" offset="100%" stop-color="rgb(230,185,141)"/></linearGradient></defs><g id="eAckM0NKwEX2"><g id="eAckM0NKwEX3"><g id="eAckM0NKwEX4"><path id="eAckM0NKwEX5" d="M281.400000,37.300000L167.600000,25.100000C157.600000,24,148.500000,31.400000,147.400000,41.400000C146.300000,51.400000,153.700000,60.500000,163.700000,61.600000L155.700000,135.900000C155,142.600000,159.900000,148.800000,166.700000,149.500000L256,159.100000C262.700000,159.800000,268.900000,154.900000,269.600000,148.100000L277.600000,73.800000C287.600000,74.900000,296.700000,67.500000,297.800000,57.500000C298.700000,47.500000,291.400000,38.400000,281.400000,37.300000L281.400000,37.300000Z" clip-rule="evenodd" fill="url(#eAckM0NKwEX5-fill)" fill-rule="evenodd" stroke="none" stroke-width="1"/><path id="eAckM0NKwEX6" d="M281.400000,37.300000L293.300000,38.600000C303.300000,39.700000,310.700000,48.800000,309.600000,58.800000C308.500000,68.800000,299.400000,76.200000,289.400000,75.100000L281.400000,149.400000C280.700000,156.100000,274.600000,161.100000,267.800000,160.400000L255.900000,159.100000C262.600000,159.800000,268.800000,154.900000,269.500000,148.100000L277.500000,73.800000C287.500000,74.900000,296.600000,67.500000,297.700000,57.500000C298.700000,47.500000,291.400000,38.400000,281.400000,37.300000Z" clip-rule="evenodd" fill="rgb(102,51,0)" fill-rule="evenodd" stroke="none" stroke-width="1"/></g><g id="eAckM0NKwEX7"><path id="eAckM0NKwEX8" d="M214.500000,68L103.900000,97.600000C94.200000,100.200000,88.300000,110.300000,90.900000,120.100000C93.500000,129.800000,103.600000,135.700000,113.400000,133.100000L132.700000,205.300000C134.500000,211.900000,141.300000,215.800000,147.800000,214L234.500000,190.800000C241.100000,189,245,182.200000,243.200000,175.700000L224,103.400000C233.700000,100.800000,239.600000,90.700000,237,80.900000C234.300000,71.200000,224.200000,65.400000,214.500000,68Z" clip-rule="evenodd" fill="url(#eAckM0NKwEX8-fill)" fill-rule="evenodd" stroke="none" stroke-width="1"/><path id="eAckM0NKwEX9" d="M214.500000,68L226.100000,64.900000C235.800000,62.300000,245.900000,68.100000,248.600000,77.900000C251.200000,87.600000,245.400000,97.700000,235.600000,100.400000L254.900000,172.600000C256.700000,179.200000,252.700000,186,246.200000,187.700000L234.600000,190.800000C241.200000,189,245.100000,182.200000,243.300000,175.700000L224,103.400000C233.700000,100.800000,239.600000,90.700000,237,80.900000C234.300000,71.200000,224.200000,65.400000,214.500000,68Z" clip-rule="evenodd" fill="rgb(102,51,0)" fill-rule="evenodd" stroke="none" stroke-width="1"/></g></g><g id="eAckM0NKwEX10"><g id="eAckM0NKwEX11"><path id="eAckM0NKwEX12" d="M181.800000,198.200000L146.800000,198.200000C98.200000,198.200000,58.400000,238,58.400000,286.600000L58.400000,366.500000C58.400000,371.200000,62.300000,375.100000,67,375.100000L261.700000,375.100000C266.400000,375.100000,270.300000,371.200000,270.300000,366.500000L270.300000,286.600000C270.300000,237.900000,230.500000,198.200000,181.800000,198.200000L181.800000,198.200000Z" clip-rule="evenodd" fill="rgb(255,153,153)" fill-rule="evenodd" stroke="none" stroke-width="1"/><path id="eAckM0NKwEX13" d="M253.100000,198.200000L181.800000,198.200000C230.400000,198.200000,270.200000,238,270.200000,286.600000L270.200000,366.500000C270.200000,371.200000,266.300000,375.100000,261.600000,375.100000L333,375.100000C337.700000,375.100000,341.600000,371.200000,341.600000,366.500000L341.600000,286.600000C341.500000,237.900000,301.800000,198.200000,253.100000,198.200000L253.100000,198.200000Z" clip-rule="evenodd" fill="rgb(255,102,102)" fill-rule="evenodd" stroke="none" stroke-width="1"/></g><path id="eAckM0NKwEX14" d="M58.500000,348.800000L58.500000,366.400000C58.500000,371.100000,62.400000,375,67.100000,375L261.800000,375C266.500000,375,270.400000,371.100000,270.400000,366.400000L270.400000,348.800000L58.500000,348.800000Z" clip-rule="evenodd" fill="rgb(204,51,0)" fill-rule="evenodd" stroke="none" stroke-width="1"/><path id="eAckM0NKwEX15" d="M270.300000,348.800000L270.300000,366.400000C270.300000,371.100000,266.400000,375,261.700000,375L333,375C337.700000,375,341.600000,371.100000,341.600000,366.400000L341.600000,348.800000L270.300000,348.800000Z" clip-rule="evenodd" fill="rgb(153,0,0)" fill-rule="evenodd" stroke="none" stroke-width="1"/><g id="eAckM0NKwEX16"><path id="eAckM0NKwEX17" d="M307.600000,275.900000L307.600000,275.900000C305.200000,275.900000,303.300000,277.800000,303.300000,280.200000L303.300000,335.500000C303.300000,337.900000,305.200000,339.800000,307.600000,339.800000L307.600000,339.800000C310,339.800000,311.900000,337.900000,311.900000,335.500000L311.900000,280.200000C311.900000,277.800000,310,275.900000,307.600000,275.900000Z" clip-rule="evenodd" fill="rgb(26,26,26)" fill-rule="evenodd" stroke="none" stroke-width="1"/><path id="eAckM0NKwEX18" d="M302,311.100000L313.100000,311.100000C314.600000,311.100000,315.800000,312.300000,315.800000,313.800000L315.800000,313.800000C315.800000,315.300000,314.600000,316.500000,313.100000,316.500000L302,316.500000C300.500000,316.500000,299.300000,315.300000,299.300000,313.800000L299.300000,313.800000C299.400000,312.300000,300.600000,311.100000,302,311.100000Z" clip-rule="evenodd" fill="rgb(255,153,102)" fill-rule="evenodd" stroke="none" stroke-width="1"/><path id="eAckM0NKwEX19" d="M303.800000,311.100000L314.900000,311.100000C316.400000,311.100000,317.600000,312.300000,317.600000,313.800000L317.600000,313.800000C317.600000,315.300000,316.400000,316.500000,314.900000,316.500000L303.800000,316.500000C302.300000,316.500000,301.100000,315.300000,301.100000,313.800000L301.100000,313.800000C301.100000,312.300000,302.300000,311.100000,303.800000,311.100000Z" clip-rule="evenodd" fill="rgb(255,204,153)" fill-rule="evenodd" stroke="none" stroke-width="1"/></g><g id="eAckM0NKwEX20"><g id="eAckM0NKwEX21"><path id="eAckM0NKwEX22" d="M294.200000,352.500000C291.500000,352.500000,289.200000,354.700000,289.200000,357.500000C289.200000,360.300000,291.400000,362.500000,294.200000,362.500000C296.900000,362.500000,299.200000,360.300000,299.200000,357.500000C299.200000,354.700000,297,352.500000,294.200000,352.500000Z" clip-rule="evenodd" fill="rgb(204,204,204)" fill-rule="evenodd" stroke="none" stroke-width="1"/><path id="eAckM0NKwEX23" d="M307.600000,352.500000C310.300000,352.500000,312.600000,354.700000,312.600000,357.500000C312.600000,360.300000,310.400000,362.500000,307.600000,362.500000C304.900000,362.500000,302.600000,360.300000,302.600000,357.500000C302.600000,354.700000,304.900000,352.500000,307.600000,352.500000Z" clip-rule="evenodd" fill="rgb(204,204,204)" fill-rule="evenodd" stroke="none" stroke-width="1"/><path id="eAckM0NKwEX24" d="M321,352.500000C318.300000,352.500000,316,354.700000,316,357.500000C316,360.300000,318.200000,362.500000,321,362.500000C323.700000,362.500000,326,360.300000,326,357.500000C326,354.700000,323.700000,352.500000,321,352.500000Z" clip-rule="evenodd" fill="rgb(204,204,204)" fill-rule="evenodd" stroke="none" stroke-width="1"/></g><g id="eAckM0NKwEX25"><path id="eAckM0NKwEX26" d="M296,352.500000C293.300000,352.500000,291,354.700000,291,357.500000C291,360.300000,293.200000,362.500000,296,362.500000C298.700000,362.500000,301,360.300000,301,357.500000C301,354.700000,298.700000,352.500000,296,352.500000Z" clip-rule="evenodd" fill="rgb(255,255,255)" fill-rule="evenodd" stroke="none" stroke-width="1"/><path id="eAckM0NKwEX27" d="M309.300000,352.500000C312,352.500000,314.300000,354.700000,314.300000,357.500000C314.300000,360.300000,312.100000,362.500000,309.300000,362.500000C306.600000,362.500000,304.300000,360.300000,304.300000,357.500000C304.300000,354.700000,306.600000,352.500000,309.300000,352.500000Z" clip-rule="evenodd" fill="rgb(255,255,255)" fill-rule="evenodd" stroke="none" stroke-width="1"/><path id="eAckM0NKwEX28" d="M322.700000,352.500000C320,352.500000,317.700000,354.700000,317.700000,357.500000C317.700000,360.300000,319.900000,362.500000,322.700000,362.500000C325.400000,362.500000,327.700000,360.300000,327.700000,357.500000C327.700000,354.700000,325.400000,352.500000,322.700000,352.500000Z" clip-rule="evenodd" fill="rgb(255,255,255)" fill-rule="evenodd" stroke="none" stroke-width="1"/></g></g><g id="eAckM0NKwEX29"><path id="eAckM0NKwEX30" d="M240.400000,198.200000L226.700000,198.200000C262.900000,198.200000,294.200000,220.200000,307.800000,251.600000L321.500000,251.600000C307.900000,220.200000,276.600000,198.200000,240.400000,198.200000Z" clip-rule="evenodd" fill="rgb(153,0,0)" fill-rule="evenodd" stroke="none" stroke-width="1"/><path id="eAckM0NKwEX31" d="M218.200000,198.200000L204.500000,198.200000C240.700000,198.200000,272,220.200000,285.600000,251.600000L299.300000,251.600000C285.700000,220.200000,254.400000,198.200000,218.200000,198.200000Z" clip-rule="evenodd" fill="rgb(153,0,0)" fill-rule="evenodd" stroke="none" stroke-width="1"/></g><g id="eAckM0NKwEX32"><g id="eAckM0NKwEX33"><path id="eAckM0NKwEX34" d="M209.300000,310.300000L209.300000,310.300000C206.200000,310.300000,203.700000,312.800000,203.700000,315.900000L203.700000,337C203.700000,340.100000,206.200000,342.600000,209.300000,342.600000L209.300000,342.600000C212.400000,342.600000,214.900000,340.100000,214.900000,337L214.900000,315.900000C214.900000,312.800000,212.400000,310.300000,209.300000,310.300000Z" clip-rule="evenodd" fill="rgb(26,26,26)" fill-rule="evenodd" stroke="none" stroke-width="1"/><path id="eAckM0NKwEX35" d="M196.500000,310.300000L196.500000,310.300000C199.600000,310.300000,202.100000,312.800000,202.100000,315.900000L202.100000,337C202.100000,340.100000,199.600000,342.600000,196.500000,342.600000L196.500000,342.600000C193.400000,342.600000,190.900000,340.100000,190.900000,337L190.900000,315.900000C190.900000,312.800000,193.400000,310.300000,196.500000,310.300000Z" clip-rule="evenodd" fill="rgb(26,26,26)" fill-rule="evenodd" stroke="none" stroke-width="1"/><path id="eAckM0NKwEX36" d="M170.800000,310.300000L170.800000,310.300000C173.900000,310.300000,176.400000,312.800000,176.400000,315.900000L176.400000,337C176.400000,340.100000,173.900000,342.600000,170.800000,342.600000L170.800000,342.600000C167.700000,342.600000,165.200000,340.100000,165.200000,337L165.200000,315.900000C165.200000,312.800000,167.700000,310.300000,170.800000,310.300000Z" clip-rule="evenodd" fill="rgb(26,26,26)" fill-rule="evenodd" stroke="none" stroke-width="1"/><path id="eAckM0NKwEX37" d="M183.600000,310.300000L183.600000,310.300000C180.500000,310.300000,178,312.800000,178,315.900000L178,337C178,340.100000,180.500000,342.600000,183.600000,342.600000L183.600000,342.600000C186.700000,342.600000,189.200000,340.100000,189.200000,337L189.200000,315.900000C189.200000,312.800000,186.700000,310.300000,183.600000,310.300000Z" clip-rule="evenodd" fill="rgb(26,26,26)" fill-rule="evenodd" stroke="none" stroke-width="1"/><path id="eAckM0NKwEX38" d="M119.400000,310.300000L119.400000,310.300000C122.500000,310.300000,125,312.800000,125,315.900000L125,337C125,340.100000,122.500000,342.600000,119.400000,342.600000L119.400000,342.600000C116.300000,342.600000,113.800000,340.100000,113.800000,337L113.800000,315.900000C113.800000,312.800000,116.300000,310.300000,119.400000,310.300000Z" clip-rule="evenodd" fill="rgb(26,26,26)" fill-rule="evenodd" stroke="none" stroke-width="1"/><path id="eAckM0NKwEX39" d="M132.200000,310.300000L132.200000,310.300000C129.100000,310.300000,126.600000,312.800000,126.600000,315.900000L126.600000,337C126.600000,340.100000,129.100000,342.600000,132.200000,342.600000L132.200000,342.600000C135.300000,342.600000,137.800000,340.100000,137.800000,337L137.800000,315.900000C137.800000,312.800000,135.300000,310.300000,132.200000,310.300000Z" clip-rule="evenodd" fill="rgb(26,26,26)" fill-rule="evenodd" stroke="none" stroke-width="1"/><path id="eAckM0NKwEX40" d="M157.900000,310.300000L157.900000,310.300000C154.800000,310.300000,152.300000,312.800000,152.300000,315.900000L152.300000,337C152.300000,340.100000,154.800000,342.600000,157.900000,342.600000L157.900000,342.600000C161,342.600000,163.500000,340.100000,163.500000,337L163.500000,315.900000C163.500000,312.800000,161,310.300000,157.900000,310.300000Z" clip-rule="evenodd" fill="rgb(26,26,26)" fill-rule="evenodd" stroke="none" stroke-width="1"/><path id="eAckM0NKwEX41" d="M145.100000,310.300000L145.100000,310.300000C148.200000,310.300000,150.700000,312.800000,150.700000,315.900000L150.700000,337C150.700000,340.100000,148.200000,342.600000,145.100000,342.600000L145.100000,342.600000C142,342.600000,139.500000,340.100000,139.500000,337L139.500000,315.900000C139.500000,312.800000,142,310.300000,145.100000,310.300000Z" clip-rule="evenodd" fill="rgb(26,26,26)" fill-rule="evenodd" stroke="none" stroke-width="1"/></g><g id="eAckM0NKwEX42"><path id="eAckM0NKwEX43" d="M209.300000,310.300000L209.300000,310.300000C206.200000,310.300000,203.700000,312.800000,203.700000,315.900000L203.700000,337C203.700000,340.100000,206.200000,342.600000,209.300000,342.600000L209.300000,342.600000C209.500000,342.600000,209.700000,342.600000,209.900000,342.600000C207.100000,342.300000,204.900000,339.900000,204.900000,337.100000L204.900000,316C204.900000,313.100000,207.100000,310.700000,209.900000,310.500000C209.700000,310.300000,209.500000,310.300000,209.300000,310.300000Z" clip-rule="evenodd" fill="rgb(204,51,0)" fill-rule="evenodd" stroke="none" stroke-width="1"/><path id="eAckM0NKwEX44" d="M196.500000,310.300000L196.500000,310.300000C196.700000,310.300000,196.900000,310.300000,197.100000,310.300000C194.300000,310.600000,192.100000,313,192.100000,315.800000L192.100000,336.900000C192.100000,339.800000,194.300000,342.200000,197.100000,342.400000C196.900000,342.400000,196.700000,342.400000,196.500000,342.400000L196.500000,342.400000C193.400000,342.400000,190.900000,339.900000,190.900000,336.800000L190.900000,315.700000C190.900000,312.800000,193.400000,310.300000,196.500000,310.300000Z" clip-rule="evenodd" fill="rgb(204,51,0)" fill-rule="evenodd" stroke="none" stroke-width="1"/><path id="eAckM0NKwEX45" d="M170.800000,310.300000L170.800000,310.300000C171,310.300000,171.200000,310.300000,171.400000,310.300000C168.600000,310.600000,166.400000,313,166.400000,315.800000L166.400000,336.900000C166.400000,339.800000,168.600000,342.200000,171.400000,342.400000C171.200000,342.400000,171,342.400000,170.800000,342.400000L170.800000,342.400000C167.700000,342.400000,165.200000,339.900000,165.200000,336.800000L165.200000,315.700000C165.200000,312.800000,167.700000,310.300000,170.800000,310.300000Z" clip-rule="evenodd" fill="rgb(204,51,0)" fill-rule="evenodd" stroke="none" stroke-width="1"/><path id="eAckM0NKwEX46" d="M183.600000,310.300000L183.600000,310.300000C180.500000,310.300000,178,312.800000,178,315.900000L178,337C178,340.100000,180.500000,342.600000,183.600000,342.600000L183.600000,342.600000C183.800000,342.600000,184,342.600000,184.200000,342.600000C181.400000,342.300000,179.200000,339.900000,179.200000,337.100000L179.200000,316C179.200000,313.100000,181.400000,310.700000,184.200000,310.500000C184,310.300000,183.800000,310.300000,183.600000,310.300000Z" clip-rule="evenodd" fill="rgb(204,51,0)" fill-rule="evenodd" stroke="none" stroke-width="1"/><path id="eAckM0NKwEX47" d="M119.400000,310.300000L119.400000,310.300000C119.600000,310.300000,119.800000,310.300000,120,310.300000C117.200000,310.600000,115,313,115,315.800000L115,336.900000C115,339.800000,117.200000,342.200000,120,342.400000C119.800000,342.400000,119.600000,342.400000,119.400000,342.400000L119.400000,342.400000C116.300000,342.400000,113.800000,339.900000,113.800000,336.800000L113.800000,315.700000C113.800000,312.800000,116.300000,310.300000,119.400000,310.300000Z" clip-rule="evenodd" fill="rgb(204,51,0)" fill-rule="evenodd" stroke="none" stroke-width="1"/><path id="eAckM0NKwEX48" d="M132.200000,310.300000L132.200000,310.300000C129.100000,310.300000,126.600000,312.800000,126.600000,315.900000L126.600000,337C126.600000,340.100000,129.100000,342.600000,132.200000,342.600000L132.200000,342.600000C132.400000,342.600000,132.600000,342.600000,132.800000,342.600000C130,342.300000,127.800000,339.900000,127.800000,337.100000L127.800000,316C127.800000,313.100000,130,310.700000,132.800000,310.500000C132.600000,310.300000,132.400000,310.300000,132.200000,310.300000Z" clip-rule="evenodd" fill="rgb(204,51,0)" fill-rule="evenodd" stroke="none" stroke-width="1"/><path id="eAckM0NKwEX49" d="M157.900000,310.300000L157.900000,310.300000C154.800000,310.300000,152.300000,312.800000,152.300000,315.900000L152.300000,337C152.300000,340.100000,154.800000,342.600000,157.900000,342.600000L157.900000,342.600000C158.100000,342.600000,158.300000,342.600000,158.500000,342.600000C155.700000,342.300000,153.500000,339.900000,153.500000,337.100000L153.500000,316C153.500000,313.100000,155.700000,310.700000,158.500000,310.500000C158.300000,310.300000,158.100000,310.300000,157.900000,310.300000Z" clip-rule="evenodd" fill="rgb(204,51,0)" fill-rule="evenodd" stroke="none" stroke-width="1"/><path id="eAckM0NKwEX50" d="M145.100000,310.300000L145.100000,310.300000C145.300000,310.300000,145.500000,310.300000,145.700000,310.300000C142.900000,310.600000,140.700000,313,140.700000,315.800000L140.700000,336.900000C140.700000,339.800000,142.900000,342.200000,145.700000,342.400000C145.500000,342.400000,145.300000,342.400000,145.100000,342.400000L145.100000,342.400000C142,342.400000,139.500000,339.900000,139.500000,336.800000L139.500000,315.700000C139.500000,312.800000,142,310.300000,145.100000,310.300000Z" clip-rule="evenodd" fill="rgb(204,51,0)" fill-rule="evenodd" stroke="none" stroke-width="1"/></g></g></g></g></svg>