<svg id="s1" xmlns="http://www.w3.org/2000/svg" xmlns:xlink="http://www.w3.org/1999/xlink" viewBox="0 0 400 400"><defs><linearGradient id="s7-fill" x1="207.420000" y1="339.590000" x2="189.460000" y2="254.760000" spreadMethod="pad" gradientUnits="userSpaceOnUse"><stop id="s7-fill-0" offset="9%" stop-color="rgb(255,228,194)"/><stop id="s7-fill-1" offset="84%" stop-color="rgb(255,212,158)"/></linearGradient><linearGradient id="s9-fill" x1="109.340000" y1="-0.870000" x2="109.340000" y2="28.150000" spreadMethod="pad" gradientUnits="userSpaceOnUse"><stop id="s9-fill-0" offset="7%" stop-color="rgb(163,98,86)"/><stop id="s9-fill-1" offset="65%" stop-color="rgb(135,72,60)"/></linearGradient><linearGradient id="s11-fill" x1="109.340000" y1="-0.870000" x2="109.340000" y2="28.140000" spreadMethod="pad" gradientUnits="userSpaceOnUse"><stop id="s11-fill-0" offset="7%" stop-color="rgb(163,98,86)"/><stop id="s11-fill-1" offset="65%" stop-color="rgb(135,72,60)"/></linearGradient><linearGradient id="s13-fill" x1="264.170000" y1="280.200000" x2="264.170000" y2="249.190000" spreadMethod="pad" gradientUnits="userSpaceOnUse"><stop id="s13-fill-0" offset="11%" stop-color="rgb(110,54,44)"/><stop id="s13-fill-1" offset="98%" stop-color="rgb(145,80,68)"/></linearGradient><linearGradient id="s15-fill" x1="224.630000" y1="242.810000" x2="224.630000" y2="225.800000" spreadMethod="pad" gradientUnits="userSpaceOnUse"><stop id="s15-fill-0" offset="6%" stop-color="rgb(110,54,44)"/><stop id="s15-fill-1" offset="78%" stop-color="rgb(145,80,68)"/></linearGradient><linearGradient id="s17-fill" x1="253.690000" y1="229.920000" x2="141.860000" y2="183.820000" spreadMethod="pad" gradientUnits="userSpaceOnUse"><stop id="s17-fill-0" offset="11%" stop-color="rgb(110,54,44)"/><stop id="s17-fill-1" offset="47%" stop-color="rgb(145,80,68)"/><stop id="s17-fill-2" offset="94%" stop-color="rgb(181,100,86)"/></linearGradient><linearGradient id="s21-fill" x1="13.450000" y1="31.450000" x2="-16.050000" y2="-37.550000" spreadMethod="pad" gradientUnits="userSpaceOnUse"><stop id="s21-fill-0" offset="11%" stop-color="rgb(196,51,51)"/><stop id="s21-fill-1" offset="55%" stop-color="rgb(227,88,88)"/></linearGradient><linearGradient id="s27-fill" x1="-3.390000" y1="-8.370000" x2="2.820000" y2="6.940000" spreadMethod="pad" gradientUnits="userSpaceOnUse"><stop id="s27-fill-0" offset="30%" stop-color="rgb(163,230,255)"/><stop id="s27-fill-1" offset="60%" stop-color="rgb(120,218,255)"/><stop id="s27-fill-2" offset="91%" stop-color="rgb(93,193,232)"/></linearGradient><linearGradient id="s29-fill" x1="-4.300000" y1="-7.130000" x2="4.450000" y2="7.370000" spreadMethod="pad" gradientUnits="userSpaceOnUse"><stop id="s29-fill-0" offset="12%" stop-color="rgb(255,161,187)"/><stop id="s29-fill-1" offset="58%" stop-color="rgb(252,106,148)"/><stop id="s29-fill-2" offset="100%" stop-color="rgb(240,89,133)"/></linearGradient><linearGradient id="s31-fill" x1="8.850000" y1="11.050000" x2="-2.150000" y2="-2.700000" spreadMethod="pad" gradientUnits="userSpaceOnUse"><stop id="s31-fill-0" offset="9%" stop-color="rgb(117,65,138)"/><stop id="s31-fill-1" offset="100%" stop-color="rgb(175,110,181)"/></linearGradient><linearGradient id="s33-fill" x1="-4.440000" y1="-7.150000" x2="4.560000" y2="7.350000" spreadMethod="pad" gradientUnits="userSpaceOnUse"><stop id="s33-fill-0" offset="18%" stop-color="rgb(191,224,114)"/><stop id="s33-fill-1" offset="75%" stop-color="rgb(145,186,53)"/></linearGradient></defs><g id="s3"><g id="s5"><path id="s7" d="M86.620000,231.860000L86.620000,343C86.620000,346.462825,89.427175,349.270000,92.890000,349.270000L299,349.270000C300.668099,349.277981,302.270616,348.620919,303.452966,347.444200C304.635315,346.267481,305.300019,344.668118,305.300000,343L305.300000,227.290000L88.220000,227.290000C87.186505,228.589279,86.622642,230.199810,86.620000,231.860000Z" fill="url(#s7-fill)" stroke="none" stroke-width="1"/><rect id="s9" width="218.680000" height="28.300000" rx="0" ry="0" transform="translate(86.620000,296.650000)" fill="url(#s9-fill)" stroke="none" stroke-width="1"/><rect id="s11" width="218.680000" height="28.300000" rx="0" ry="0" transform="translate(86.620000,251.570000)" fill="url(#s11-fill)" stroke="none" stroke-width="1"/><path id="s13" d="M252.500000,197.340000L252.500000,280.120000C252.516487,286.558321,257.731679,291.773513,264.170000,291.790000L264.170000,291.790000C270.608321,291.773513,275.823513,286.558321,275.840000,280.120000L275.840000,197.340000Z" fill="url(#s13-fill)" stroke="none" stroke-width="1"/><path id="s15" d="M213,197.340000L213,237.510000C213,243.955163,218.224837,249.180000,224.670000,249.180000C231.115163,249.180000,236.340000,243.955163,236.340000,237.510000L236.340000,197.340000Z" fill="url(#s15-fill)" stroke="none" stroke-width="1"/><path id="s17" d="M88.220000,227.290000L305.300000,227.290000C300.730000,198.050000,275.220000,172.610000,238.170000,156.740000C234.969333,155.378625,231.332835,155.488268,228.220000,157.040000L90.710000,225.260000C89.388756,225.922538,88.297957,226.968032,87.580000,228.260000C87.767856,227.920559,87.981835,227.596247,88.220000,227.290000Z" fill="url(#s17-fill)" stroke="none" stroke-width="1"/></g><g id="s19"><circle id="s21" r="29.490000" transform="translate(249.430000,162.910000)" fill="url(#s21-fill)" stroke="none" stroke-width="1"/><path id="s23" d="M248.690000,145Q248.590000,143.060000,248.590000,141.100000C248.570465,117.494587,259.844093,95.304161,278.920000,81.400000" fill="none" stroke="rgb(125,69,59)" stroke-width="10" stroke-linecap="round" stroke-miterlimit="10"/></g><g id="s25"><circle id="s27" r="7.740000" transform="translate(196.440000,190.730000)" fill="url(#s27-fill)" stroke="none" stroke-width="1"/><circle id="s29" r="7.740000" transform="translate(163.240000,211.540000)" fill="url(#s29-fill)" stroke="none" stroke-width="1"/><circle id="s31" r="7.740000" transform="translate(271.180000,207.900000)" fill="url(#s31-fill)" stroke="none" stroke-width="1"/><circle id="s33" r="7.740000" transform="translate(224.630000,209.630000)" fill="url(#s33-fill)" stroke="none" stroke-width="1"/></g></g></svg>