<svg id="s1" xmlns="http://www.w3.org/2000/svg" xmlns:xlink="http://www.w3.org/1999/xlink" viewBox="0 0 400 400"><defs><linearGradient id="s5-fill" x1="146.970000" y1="92.740000" x2="210.370000" y2="284.310000" spreadMethod="pad" gradientUnits="userSpaceOnUse"><stop id="s5-fill-0" offset="4%" stop-color="rgb(226,226,226)"/><stop id="s5-fill-1" offset="53%" stop-color="rgb(207,207,207)"/></linearGradient><linearGradient id="s9-fill" x1="252.950000" y1="363.750000" x2="115.630000" y2="82.870000" spreadMethod="pad" gradientUnits="userSpaceOnUse"><stop id="s9-fill-0" offset="4%" stop-color="rgb(87,42,34)"/><stop id="s9-fill-1" offset="100%" stop-color="rgb(135,72,62)"/></linearGradient><linearGradient id="s11-fill" x1="1.980000" y1="2.970000" x2="-3.880000" y2="-5.820000" spreadMethod="pad" gradientUnits="userSpaceOnUse"><stop id="s11-fill-0" offset="41%" stop-color="rgb(125,62,52)"/><stop id="s11-fill-1" offset="90%" stop-color="rgb(125,62,52)"/></linearGradient><linearGradient id="s13-fill" x1="1.480000" y1="2.220000" x2="-2.900000" y2="-4.350000" spreadMethod="pad" gradientUnits="userSpaceOnUse"><stop id="s13-fill-0" offset="41%" stop-color="rgb(125,62,52)"/><stop id="s13-fill-1" offset="90%" stop-color="rgb(125,62,52)"/></linearGradient><linearGradient id="s15-fill" x1="2.730000" y1="4.100000" x2="-1.650000" y2="-2.470000" spreadMethod="pad" gradientUnits="userSpaceOnUse"><stop id="s15-fill-0" offset="0%" stop-color="rgb(153,82,70)"/><stop id="s15-fill-1" offset="100%" stop-color="rgb(143,73,61)"/></linearGradient><linearGradient id="s17-fill" x1="1.580000" y1="2.390000" x2="-0.960000" y2="-1.430000" spreadMethod="pad" gradientUnits="userSpaceOnUse"><stop id="s17-fill-0" offset="0%" stop-color="rgb(153,82,70)"/><stop id="s17-fill-1" offset="100%" stop-color="rgb(143,73,61)"/></linearGradient><linearGradient id="s19-fill" x1="2.220000" y1="3.340000" x2="-4.360000" y2="-6.550000" spreadMethod="pad" gradientUnits="userSpaceOnUse"><stop id="s19-fill-0" offset="41%" stop-color="rgb(125,62,52)"/><stop id="s19-fill-1" offset="90%" stop-color="rgb(125,62,52)"/></linearGradient><linearGradient id="s21-fill" x1="163.860000" y1="189.200000" x2="240.700000" y2="219.940000" spreadMethod="pad" gradientUnits="userSpaceOnUse"><stop id="s21-fill-0" offset="0%" stop-color="rgb(232,71,71)"/><stop id="s21-fill-1" offset="76%" stop-color="rgb(171,50,50)"/><stop id="s21-fill-2" offset="100%" stop-color="rgb(163,36,36)"/></linearGradient><linearGradient id="s23-fill" x1="194.080000" y1="25.340000" x2="200.970000" y2="43.620000" spreadMethod="pad" gradientUnits="userSpaceOnUse"><stop id="s23-fill-0" offset="0%" stop-color="rgb(224,65,65)"/><stop id="s23-fill-1" offset="76%" stop-color="rgb(171,50,50)"/><stop id="s23-fill-2" offset="100%" stop-color="rgb(163,36,36)"/></linearGradient></defs><g id="s3"><path id="s5" d="M250.340000,335.430000C245.600000,319.430000,243.560000,290.530000,248.340000,259.060000C257.270000,199.900000,249.690000,171.870000,232.790000,115.770000C219.940000,73.180000,218,46.180000,217.840000,35.640000C217.774809,32.859274,215.501490,30.639236,212.720000,30.640000L187.280000,30.640000C184.498510,30.639236,182.225191,32.859274,182.160000,35.640000C181.980000,46.180000,180.060000,73.180000,167.230000,115.770000C150.330000,171.870000,142.760000,199.890000,151.680000,259.060000C156.430000,290.530000,154.400000,319.430000,149.680000,335.430000C143.560000,356,135.370000,384.540000,200,384.770000C264.630000,384.540000,256.440000,356,250.340000,335.430000Z" fill="url(#s5-fill)" stroke="none" stroke-width="1"/><g id="s7"><path id="s9" d="M237.090000,257.370000C245.590000,201.060000,238.990000,175.790000,221.900000,119.050000C219.270000,110.310000,217.080000,102.200000,215.260000,94.720000C214.737647,92.577734,212.815018,91.072709,210.610000,91.080000L189.390000,91.080000C187.184982,91.072709,185.262353,92.577734,184.740000,94.720000C182.920000,102.200000,180.740000,110.310000,178.100000,119.050000C161.010000,175.790000,154.410000,201.050000,162.910000,257.370000C168.320000,293.190000,165.230000,322.850000,160.540000,338.660000C157.320000,349.540000,155.160000,358.270000,159.010000,363.440000C161.750000,367.120000,170.710000,373.310000,200.010000,373.440000C229.310000,373.330000,238.270000,367.140000,241.010000,363.440000C244.860000,358.260000,242.700000,349.530000,239.480000,338.660000C234.770000,322.840000,231.690000,293.180000,237.090000,257.370000Z" fill="url(#s9-fill)" stroke="none" stroke-width="1"/><circle id="s11" r="6.280000" transform="translate(212.740000,259)" fill="url(#s11-fill)" stroke="none" stroke-width="1"/><circle id="s13" r="4.690000" transform="translate(194.200000,275.470000)" fill="url(#s13-fill)" stroke="none" stroke-width="1"/><circle id="s15" r="4.690000" transform="translate(194.200000,141.870000)" fill="url(#s15-fill)" stroke="none" stroke-width="1"/><circle id="s17" r="2.730000" transform="translate(203.500000,128.220000)" fill="url(#s17-fill)" stroke="none" stroke-width="1"/><circle id="s19" r="7.060000" transform="translate(218.720000,339.100000)" fill="url(#s19-fill)" stroke="none" stroke-width="1"/></g><path id="s21" d="M155.200000,158.350000C148.130000,187.220000,145.780000,211.500000,150.030000,246.890000L250,246.890000C254.250000,211.500000,251.900000,187.220000,244.830000,158.350000Z" fill="url(#s21-fill)" stroke="none" stroke-width="1"/><path id="s23" d="M218.830000,23L181.170000,23C179.520263,23.087355,178.093954,24.179931,177.580000,25.750000L172.460000,39.110000C171.270000,42.220000,173.180000,45.760000,176.050000,45.760000L223.950000,45.760000C226.820000,45.760000,228.730000,42.220000,227.540000,39.110000L222.420000,25.750000C221.906046,24.179931,220.479737,23.087355,218.830000,23Z" fill="url(#s23-fill)" stroke="none" stroke-width="1"/></g></svg>