<svg id="eadsbLcDyrW1" xmlns="http://www.w3.org/2000/svg" xmlns:xlink="http://www.w3.org/1999/xlink" viewBox="0 0 400 400" shape-rendering="geometricPrecision" text-rendering="geometricPrecision"><g id="eadsbLcDyrW2"><path id="eadsbLcDyrW3" d="M214.360000,104.470000L201,54.750000C199.407254,48.714498,202.978122,42.523505,209,40.880000L268.320000,25L271.250000,35.930000L212,51.820000L212,51.820000L226.110000,104.480000ZM212,51.800000L212,51.800000ZM212,51.800000" fill="rgb(204,51,0)" stroke="none" stroke-width="1"/><g id="eadsbLcDyrW4"><g id="eadsbLcDyrW5"><polygon id="eadsbLcDyrW6" points="236.540000,160.280000 103.400000,160.280000 103.400000,375 236.540000,375 236.540000,160.280000" fill="rgb(255,255,204)" fill-rule="evenodd" stroke="none" stroke-width="1"/><polygon id="eadsbLcDyrW7" points="236.540000,160.280000 296.600000,160.280000 296.600000,375 236.540000,375 236.540000,160.280000" fill="rgb(207,207,172)" fill-rule="evenodd" stroke="none" stroke-width="1"/><polygon id="eadsbLcDyrW8" points="236.540000,160.280000 296.600000,160.280000 266.570000,119.480000 236.540000,160.280000" fill="rgb(191,191,159)" fill-rule="evenodd" stroke="none" stroke-width="1"/><polygon id="eadsbLcDyrW9" points="103.400000,160.280000 236.540000,160.280000 266.570000,119.480000 133.430000,119.480000 103.400000,160.280000" fill="rgb(255,255,240)" fill-rule="evenodd" stroke="none" stroke-width="1"/><polygon id="eadsbLcDyrW10" points="266.570000,104.470000 133.430000,104.470000 133.430000,119.480000 266.570000,119.480000 266.570000,104.470000" fill="rgb(255,255,204)" fill-rule="evenodd" stroke="none" stroke-width="1"/></g><g id="eadsbLcDyrW11"><polygon id="eadsbLcDyrW12" points="121.250000,267.600000 121.250000,354.460000 175.380000,354.460000 121.250000,267.600000" fill="rgb(224,91,91)" fill-rule="evenodd" stroke="none" stroke-width="1"/><polygon id="eadsbLcDyrW13" points="218.690000,180.810000 189.710000,180.810000 218.690000,255.820000 218.690000,180.810000" fill="rgb(224,91,91)" fill-rule="evenodd" stroke="none" stroke-width="1"/><polygon id="eadsbLcDyrW14" points="160.750000,180.810000 186.920000,261.220000 121.250000,200.890000 121.250000,180.810000 160.750000,180.810000" fill="rgb(153,204,204)" fill-rule="evenodd" stroke="none" stroke-width="1"/><polygon id="eadsbLcDyrW15" points="213.070000,354.460000 194.490000,354.460000 178.970000,306.770000 213.070000,354.460000" fill="rgb(153,204,204)" fill-rule="evenodd" stroke="none" stroke-width="1"/></g></g></g></svg>