<svg id="eeNqwsvxFdh1" xmlns="http://www.w3.org/2000/svg" xmlns:xlink="http://www.w3.org/1999/xlink" viewBox="0 0 400 400" shape-rendering="geometricPrecision" text-rendering="geometricPrecision"><g id="eeNqwsvxFdh2"><ellipse id="eeNqwsvxFdh3" rx="126.710098" ry="126.710098" transform="matrix(1.169081 0 0 1.169081 200.765015 200)" fill="rgb(0,0,0)" stroke="none" stroke-width="0"/><g id="eeNqwsvxFdh4" transform="matrix(1 0 0 1 -340 -340)"><g id="eeNqwsvxFdh5"><g id="eeNqwsvxFdh6" transform="matrix(1 0 0 1 0.000001 0.000001)"><path id="eeNqwsvxFdh7" d="M0,0L133.66,0C133.66,0,133.66,89.62,133.66,89.62L0,89.62C0,89.62,0,0,0,0Z" transform="matrix(1 0 0 1 473.175 522.025952)" fill="rgb(36,36,36)" stroke="rgb(255,255,255)" stroke-width="3.5" stroke-linecap="round" stroke-linejoin="round"/><g id="eeNqwsvxFdh8" transform="matrix(1 0 0 1 0.000001 0)"><path id="eeNqwsvxFdh9" d="M221,236.71C219.543356,236.385705,218.155394,235.806823,216.9,235L218.9,230.41C221.064987,231.799701,223.577523,232.551729,226.15,232.58C228.54,232.58,229.73,231.99,229.73,230.79C229.726978,230.158588,229.326302,229.597641,228.73,229.39C227.669657,228.956756,226.571694,228.622011,225.45,228.39C224.042031,228.101876,222.655452,227.717643,221.3,227.24C220.195279,226.826732,219.214319,226.13834,218.45,225.24C217.609069,224.219319,217.180945,222.920676,217.25,221.6C217.237644,220.306099,217.621493,219.039397,218.35,217.97C219.174352,216.818953,220.313199,215.930096,221.63,215.41C223.334338,214.736082,225.158049,214.416252,226.99,214.47C228.426833,214.469303,229.859181,214.630317,231.26,214.95C232.557447,215.240468,233.80444,215.722414,234.96,216.38L233.07,221C231.213274,219.934954,229.119905,219.350598,226.98,219.3C226.046717,219.234185,225.11317,219.424352,224.28,219.85C223.759525,220.138509,223.43473,220.684929,223.43,221.28C223.442621,221.890019,223.846175,222.422711,224.43,222.6C225.479395,223.003296,226.564083,223.307946,227.67,223.51C229.081844,223.795617,230.471921,224.179893,231.83,224.66C232.924771,225.063059,233.903545,225.729312,234.68,226.6C235.530932,227.611733,235.963705,228.910055,235.89,230.23C235.904078,231.507118,235.523399,232.757421,234.8,233.81C233.961824,234.955902,232.818296,235.843002,231.5,236.37C229.80744,237.066102,227.98975,237.406493,226.16,237.37C224.418785,237.372649,222.684492,237.15082,221,236.71Z" transform="matrix(1 0 0 1 275.655 352.825952)" fill="rgb(242,60,119)" stroke="none" stroke-width="1"/><path id="eeNqwsvxFdh10" d="M256.62,232.66L247.32,232.66L245.6,236.93L239.25,236.93L249,215L255.12,215L264.85,237L258.38,237ZM254.8,228.07L252,221L249.17,228Z" transform="matrix(1 0 0 1 275.655 352.825952)" fill="rgb(242,60,119)" stroke="none" stroke-width="1"/><path id="eeNqwsvxFdh11" d="M269.71,215L275.93,215L275.93,232L286.42,232L286.42,236.93L269.71,236.93Z" transform="matrix(1 0 0 1 275.655 352.825952)" fill="rgb(242,60,119)" stroke="none" stroke-width="1"/><path id="eeNqwsvxFdh12" d="M309.65,232.12L309.65,236.93L292,236.93L292,215L309.24,215L309.24,219.8L298.16,219.8L298.16,223.51L307.92,223.51L307.92,228.15L298.16,228.15L298.16,232.15Z" transform="matrix(1 0 0 1 275.655 352.825952)" fill="rgb(242,60,119)" stroke="none" stroke-width="1" stroke-linecap="round" stroke-linejoin="round"/><path id="eeNqwsvxFdh13" d="M220.6,207.49C219.415348,207.130129,218.318699,206.527313,217.38,205.72L218.38,203.54C219.220204,204.261399,220.191116,204.814751,221.24,205.17C222.390682,205.588081,223.605721,205.801305,224.83,205.8C226.091084,205.889053,227.35039,205.603796,228.45,204.98C229.206011,204.510608,229.661245,203.679806,229.65,202.79C229.677611,202.178509,229.440814,201.584695,229,201.16C228.537119,200.715435,227.984871,200.374542,227.38,200.16C226.74,199.94,225.83,199.69,224.66,199.41C223.451524,199.134538,222.262327,198.780451,221.1,198.35C220.208702,198.002979,219.415703,197.443417,218.79,196.72C218.094711,195.87942,217.738117,194.809637,217.79,193.72C217.774888,192.71911,218.060546,191.736725,218.61,190.9C219.231375,190.004651,220.100089,189.309679,221.11,188.9C222.4254,188.361632,223.83937,188.106095,225.26,188.15C226.41076,188.150947,227.556691,188.298809,228.67,188.59C229.694248,188.850279,230.665398,189.286788,231.54,189.88L230.62,192.11C229.807548,191.59104,228.925368,191.190356,228,190.92C227.110289,190.657257,226.187692,190.522571,225.26,190.52C224.016324,190.43407,222.776467,190.73443,221.71,191.38C220.957127,191.874723,220.508497,192.719203,220.52,193.62C220.497548,194.234579,220.741827,194.828868,221.19,195.25C221.666229,195.697186,222.232063,196.03805,222.85,196.25C223.731736,196.548043,224.629886,196.795118,225.54,196.99C226.741552,197.266895,227.924004,197.620962,229.08,198.05C229.965312,198.403366,230.756191,198.958008,231.39,199.67C232.078128,200.487182,232.434935,201.532626,232.39,202.6C232.395184,203.596173,232.10268,204.571186,231.55,205.4C230.920563,206.303952,230.036377,207.000162,229.01,207.4C227.68268,207.932541,226.259475,208.184496,224.83,208.14C223.394495,208.148437,221.966743,207.929042,220.6,207.49Z" transform="matrix(1 0 0 1 275.655 352.825952)" fill="rgb(242,60,119)" stroke="none" stroke-width="1"/><path id="eeNqwsvxFdh14" d="M237.8,205.94C236.251571,204.173797,235.470656,201.863441,235.63,199.52L235.63,188.42L238.42,188.42L238.42,199.42Q238.42,205.7,243.91,205.7C245.436497,205.800472,246.931743,205.235195,248.01,204.15C249.063822,202.808898,249.574326,201.12031,249.44,199.42L249.44,188.42L252.14,188.42L252.14,199.52C252.14,202.33,251.42,204.52,249.97,205.95C246.456205,208.917995,241.313795,208.917995,237.8,205.95Z" transform="matrix(1 0 0 1 275.655 352.825952)" fill="rgb(242,60,119)" stroke="none" stroke-width="1"/><path id="eeNqwsvxFdh15" d="M270.75,190.23C272.14398,191.518994,272.936571,193.331399,272.936571,195.23C272.936571,197.128601,272.14398,198.941006,270.75,200.23C269.031436,201.532677,266.902257,202.17498,264.75,202.04L260,202.04L260,208L257.21,208L257.21,188.42L264.83,188.42C266.954324,188.31211,269.049216,188.952609,270.75,190.23ZM268.75,198.48C269.644261,197.635559,270.151059,196.459952,270.151059,195.23C270.151059,194.000048,269.644261,192.824441,268.75,191.98C267.584633,191.158015,266.173204,190.759286,264.75,190.85L260,190.85L260,199.61L264.75,199.61C266.169325,199.693609,267.57529,199.295428,268.74,198.48Z" transform="matrix(1 0 0 1 275.655 352.825952)" fill="rgb(242,60,119)" stroke="none" stroke-width="1"/><path id="eeNqwsvxFdh16" d="M290.5,205.52L290.5,208L276.33,208L276.33,188.42L290.11,188.42L290.11,190.85L279.11,190.85L279.11,196.85L288.9,196.85L288.9,199.22L279.11,199.22L279.11,205.52Z" transform="matrix(1 0 0 1 275.655 352.825952)" fill="rgb(242,60,119)" stroke="none" stroke-width="1"/><path id="eeNqwsvxFdh17" d="M307.38,208L303.17,202C302.64,202,302.24,202.06,301.94,202.06L297.11,202.06L297.11,208L294.32,208L294.32,188.42L301.94,188.42C304.091325,188.293014,306.217792,188.934498,307.94,190.23C309.40146,191.468571,310.203495,193.316579,310.11,195.23C310.149903,196.597605,309.761851,197.94355,309,199.08C308.211965,200.167921,307.098259,200.976934,305.82,201.39L310.45,207.95ZM305.9,198.54C306.845707,197.729077,307.359601,196.523831,307.29,195.28C307.378908,194.027117,306.862059,192.807504,305.9,192C304.734283,191.17875,303.323118,190.780096,301.9,190.87L297.16,190.87L297.16,199.66L301.9,199.66C303.32783,199.738308,304.739434,199.325414,305.9,198.49Z" transform="matrix(1 0 0 1 275.655 352.825952)" fill="rgb(242,60,119)" stroke="none" stroke-width="1"/></g></g></g><g id="eeNqwsvxFdh18" transform="matrix(1 0 0 1 0 7)"><g id="eeNqwsvxFdh19" transform="matrix(1 0 0 1 0 0.000001)"><path id="eeNqwsvxFdh20" d="M300.39,119.1C309.09,111.87,316.24,104.1,312.7,99.82C309.16,95.54,300.9,97.65,291.84,106.21C284.1,113.51,270.46,133.05,268.78,135.83L268.28,135.94C268.28,135.94,272.53,98.86,280.56,89.94C285.751069,84.186238,293.61741,81.638944,301.195849,83.257661C308.774288,84.876377,314.913479,90.415182,317.300849,97.787661C319.688219,105.16014,317.961069,113.246238,312.77,119C305.84,126.68,277.77,133.69,270.18,135.47C276.27,133.16,292.92,125.31,300.39,119.1Z" transform="matrix(1 0 0 1 275.429153 362.2696)" fill="rgb(242,60,119)" stroke="none" stroke-width="2" stroke-linecap="round" stroke-linejoin="round"/><path id="eeNqwsvxFdh21" d="M300.39,119.1C309.09,111.87,316.24,104.1,312.7,99.82C309.16,95.54,300.9,97.65,291.84,106.21C284.1,113.51,270.46,133.05,268.78,135.83L268.28,135.94C268.28,135.94,272.53,98.86,280.56,89.94C285.751069,84.186238,293.61741,81.638944,301.195849,83.257661C308.774288,84.876377,314.913479,90.415182,317.300849,97.787661C319.688219,105.16014,317.961069,113.246238,312.77,119C305.84,126.68,277.77,133.69,270.18,135.47C276.27,133.16,292.92,125.31,300.39,119.1Z" transform="matrix(-1 0 0 1 811.989147 362.2696)" fill="rgb(242,60,119)" stroke="none" stroke-width="2" stroke-linecap="round" stroke-linejoin="round"/></g><rect id="eeNqwsvxFdh22" width="151.51" height="34.21" rx="0" ry="0" transform="matrix(1 0 0 0.696181 464.245 498.2096)" fill="rgb(36,36,36)" stroke="rgb(255,255,255)" stroke-width="3.5" stroke-linecap="round" stroke-linejoin="round"/></g></g></g></svg>