<svg id="s1" xmlns="http://www.w3.org/2000/svg" xmlns:xlink="http://www.w3.org/1999/xlink" viewBox="0 0 400 400"><defs><linearGradient id="s5-fill" x1="271.460000" y1="213.370000" x2="233.860000" y2="213.370000" spreadMethod="pad" gradientUnits="userSpaceOnUse"><stop id="s5-fill-0" offset="10%" stop-color="rgb(255,198,107)"/><stop id="s5-fill-1" offset="51%" stop-color="rgb(245,155,81)"/><stop id="s5-fill-2" offset="83%" stop-color="rgb(239,132,44)"/></linearGradient><linearGradient id="s7-fill" x1="129.260000" y1="213.370000" x2="185.190000" y2="213.370000" spreadMethod="pad" gradientUnits="userSpaceOnUse"><stop id="s7-fill-0" offset="10%" stop-color="rgb(255,198,107)"/><stop id="s7-fill-1" offset="51%" stop-color="rgb(245,155,81)"/><stop id="s7-fill-2" offset="83%" stop-color="rgb(239,132,44)"/></linearGradient><linearGradient id="s9-fill" x1="14.170000" y1="136.300000" x2="55.350000" y2="136.300000" spreadMethod="pad" gradientUnits="userSpaceOnUse"><stop id="s9-fill-0" offset="7%" stop-color="rgb(171,67,46)"/><stop id="s9-fill-1" offset="42%" stop-color="rgb(186,76,55)"/><stop id="s9-fill-2" offset="74%" stop-color="rgb(224,101,78)"/><stop id="s9-fill-3" offset="84%" stop-color="rgb(218,97,74)"/><stop id="s9-fill-4" offset="98%" stop-color="rgb(201,86,64)"/><stop id="s9-fill-5" offset="100%" stop-color="rgb(198,84,62)"/></linearGradient></defs><g id="s3"><path id="s5" d="M233.640000,93L195.410000,93L195.410000,333.770000L233.640000,333.770000C256.841739,333.704086,275.634086,314.911739,275.700000,291.710000L275.700000,135C275.601181,111.821696,256.818422,93.065731,233.640000,93Z" fill="url(#s5-fill)" stroke="none" stroke-width="1"/><path id="s7" d="M202.840000,93L166.360000,93C143.181578,93.065731,124.398819,111.821696,124.300000,135L124.300000,291.700000C124.365914,314.901739,143.158261,333.694086,166.360000,333.760000L202.840000,333.760000Z" fill="url(#s7-fill)" stroke="none" stroke-width="1"/><rect id="s9" width="56.620000" height="272.610000" rx="28.310000" ry="28.310000" transform="translate(171.690000,73.830000)" fill="url(#s9-fill)" stroke="none" stroke-width="1"/><path id="s11" d="M200.720000,95.700000C200.720000,108.410000,185.860000,108.410000,185.860000,121.120000C185.860000,133.830000,200.720000,133.830000,200.720000,146.550000C200.720000,159.270000,185.860000,159.260000,185.860000,172C185.860000,184.740000,200.720000,184.710000,200.720000,197.430000C200.720000,210.150000,185.860000,210.140000,185.860000,222.860000C185.860000,235.580000,200.720000,235.570000,200.720000,248.290000C200.720000,261.010000,185.860000,261,185.860000,273.700000C185.860000,286.400000,200.720000,286.420000,200.720000,299.130000C200.720000,311.840000,185.860000,311.850000,185.860000,324.560000" fill="none" stroke="rgb(158,61,36)" stroke-width="13" stroke-linecap="round" stroke-miterlimit="10"/><g id="s13"><path id="s15" d="M207.430000,95.700000C207.430000,108.410000,192.570000,108.410000,192.570000,121.120000C192.570000,133.830000,207.430000,133.830000,207.430000,146.550000C207.430000,159.270000,192.570000,159.260000,192.570000,172C192.570000,184.740000,207.430000,184.710000,207.430000,197.430000C207.430000,210.150000,192.570000,210.140000,192.570000,222.860000C192.570000,235.580000,207.430000,235.570000,207.430000,248.290000C207.430000,261.010000,192.570000,261,192.570000,273.700000C192.570000,286.400000,207.430000,286.420000,207.430000,299.130000C207.430000,311.840000,192.570000,311.850000,192.570000,324.560000" fill="none" stroke="rgb(255,211,92)" stroke-width="13" stroke-linecap="round" stroke-miterlimit="10"/><path id="s17" d="M210.610000,95.700000C210.610000,108.410000,195.750000,108.410000,195.750000,121.120000C195.750000,133.830000,210.610000,133.830000,210.610000,146.550000C210.610000,159.270000,195.760000,159.260000,195.760000,172C195.760000,184.740000,210.620000,184.710000,210.620000,197.430000C210.620000,210.150000,195.760000,210.140000,195.760000,222.860000C195.760000,235.580000,210.620000,235.570000,210.620000,248.290000C210.620000,261.010000,195.760000,261,195.760000,273.700000C195.760000,286.400000,210.620000,286.420000,210.620000,299.130000C210.620000,311.840000,195.760000,311.850000,195.760000,324.560000" fill="none" stroke="rgb(255,221,128)" stroke-width="5" stroke-linecap="round" stroke-miterlimit="10"/></g></g></svg>