<svg id="edtN5rYMCFl1" xmlns="http://www.w3.org/2000/svg" xmlns:xlink="http://www.w3.org/1999/xlink" viewBox="0 0 400 400" shape-rendering="geometricPrecision" text-rendering="geometricPrecision"><g id="edtN5rYMCFl2"><g id="edtN5rYMCFl3"><path id="edtN5rYMCFl4" d="M25,167.520000C25,264.169831,103.350169,342.520000,200,342.520000C296.649831,342.520000,375,264.169831,375,167.520000Z" fill="rgb(217,169,134)" fill-rule="evenodd" stroke="none" stroke-width="1"/><path id="edtN5rYMCFl5" d="M206.160000,342.400000C300.349499,339.082474,374.993779,261.767905,375,167.520000L48.800000,167.520000C48.800000,262.110000,118.740000,339.160000,206.160000,342.400000Z" fill="rgb(207,156,120)" fill-rule="evenodd" stroke="none" stroke-width="1"/><path id="edtN5rYMCFl6" d="M272.380000,354.470000L127.620000,354.470000L127.620000,338C127.630994,333.547624,131.237624,329.940994,135.690000,329.930000L264.310000,329.930000C268.762376,329.940994,272.369006,333.547624,272.380000,338Z" fill="rgb(135,94,66)" fill-rule="evenodd" stroke="none" stroke-width="1"/><path id="edtN5rYMCFl7" d="M272.380000,354.470000L127.620000,354.470000L127.620000,341.710000C127.630994,337.257624,131.237624,333.650994,135.690000,333.640000L264.310000,333.640000C268.762376,333.650994,272.369006,337.257624,272.380000,341.710000Z" fill="rgb(167,132,103)" fill-rule="evenodd" stroke="none" stroke-width="1"/></g><g id="edtN5rYMCFl8"><path id="edtN5rYMCFl9" d="M50,161.830000C48.110000,136.730000,61.710000,112.460000,91,108.030000C93.570856,87.163494,106.875972,69.164843,126.070950,60.587362C145.265929,52.009881,167.550180,54.105043,184.810000,66.110000C200.788300,47.710905,226.307759,40.803408,249.385015,48.631115C272.462272,56.458823,288.512945,77.466731,290,101.790000C323,101.400000,351.180000,128.440000,350.130000,161.790000L349.960000,167.480000L50.440000,167.480000L50,161.830000Z" fill="rgb(251,248,245)" fill-rule="evenodd" stroke="none" stroke-width="1"/><g id="edtN5rYMCFl10"><path id="edtN5rYMCFl11" d="M136.360000,85.400000C139.160000,85.400000,141.430000,86.890000,141.430000,88.730000C141.430000,90.570000,139.160000,92.070000,136.360000,92.070000C133.560000,92.070000,131.280000,90.580000,131.280000,88.730000C131.280000,86.880000,133.560000,85.400000,136.360000,85.400000Z" fill="rgb(26,26,26)" fill-rule="evenodd" stroke="none" stroke-width="1"/><path id="edtN5rYMCFl12" d="M182.370000,104.550000C183.700000,107.020000,183.460000,109.730000,181.840000,110.610000C180.220000,111.490000,177.840000,110.190000,176.500000,107.720000C175.160000,105.250000,175.400000,102.550000,177.020000,101.720000C178.640000,100.890000,181,102.090000,182.370000,104.550000Z" fill="rgb(26,26,26)" fill-rule="evenodd" stroke="none" stroke-width="1"/><path id="edtN5rYMCFl13" d="M215.510000,118C214.180000,120.470000,214.410000,123.180000,216.040000,124C217.670000,124.820000,220.040000,123.590000,221.380000,121.120000C222.720000,118.650000,222.480000,115.940000,220.860000,115.120000C219.240000,114.300000,216.860000,115.540000,215.510000,118Z" fill="rgb(26,26,26)" fill-rule="evenodd" stroke="none" stroke-width="1"/><path id="edtN5rYMCFl14" d="M240.380000,77.710000C240,80.480000,241.180000,82.940000,243.010000,83.180000C244.840000,83.420000,246.620000,81.370000,247.010000,78.590000C247.400000,75.810000,246.200000,73.360000,244.370000,73.120000C242.540000,72.880000,240.750000,74.930000,240.380000,77.710000Z" fill="rgb(26,26,26)" fill-rule="evenodd" stroke="none" stroke-width="1"/><path id="edtN5rYMCFl15" d="M270.380000,131.330000C268.150000,133.020000,267.240000,135.580000,268.380000,137.050000C269.520000,138.520000,272.210000,138.340000,274.440000,136.640000C276.670000,134.940000,277.590000,132.390000,276.440000,130.920000C275.290000,129.450000,272.620000,129.630000,270.380000,131.330000Z" fill="rgb(26,26,26)" fill-rule="evenodd" stroke="none" stroke-width="1"/><path id="edtN5rYMCFl16" d="M235.760000,149C233.120000,149.920000,231.470000,152.080000,232.080000,153.820000C232.690000,155.560000,235.320000,156.220000,237.970000,155.290000C240.620000,154.360000,242.270000,152.200000,241.660000,150.460000C241.050000,148.720000,238.410000,148,235.760000,149Z" fill="rgb(26,26,26)" fill-rule="evenodd" stroke="none" stroke-width="1"/><path id="edtN5rYMCFl17" d="M194.490000,145.190000C197.130000,146.120000,198.780000,148.280000,198.170000,150.020000C197.560000,151.760000,194.930000,152.420000,192.280000,151.490000C189.630000,150.560000,187.990000,148.400000,188.590000,146.660000C189.190000,144.920000,191.840000,144.270000,194.490000,145.190000Z" fill="rgb(26,26,26)" fill-rule="evenodd" stroke="none" stroke-width="1"/><path id="edtN5rYMCFl18" d="M153.260000,137.420000C155.500000,139.110000,156.410000,141.670000,155.260000,143.140000C154.110000,144.610000,151.440000,144.430000,149.200000,142.730000C146.960000,141.030000,146.060000,138.480000,147.200000,137.010000C148.340000,135.540000,151,135.720000,153.260000,137.420000Z" fill="rgb(26,26,26)" fill-rule="evenodd" stroke="none" stroke-width="1"/><path id="edtN5rYMCFl19" d="M123.570000,129.190000C123.940000,131.970000,122.760000,134.420000,120.930000,134.660000C119.100000,134.900000,117.330000,132.850000,116.930000,130.070000C116.530000,127.290000,117.740000,124.850000,119.570000,124.600000C121.400000,124.350000,123.200000,126.410000,123.570000,129.190000Z" fill="rgb(26,26,26)" fill-rule="evenodd" stroke="none" stroke-width="1"/><path id="edtN5rYMCFl20" d="M90.090000,151.820000C92.900000,151.820000,95.170000,153.320000,95.170000,155.160000C95.170000,157,92.900000,158.490000,90.090000,158.490000C87.280000,158.490000,85,157,85,155.160000C85,153.320000,87.290000,151.820000,90.090000,151.820000Z" fill="rgb(26,26,26)" fill-rule="evenodd" stroke="none" stroke-width="1"/><path id="edtN5rYMCFl21" d="M313.280000,152.260000C312.910000,155.040000,314.090000,157.490000,315.920000,157.730000C317.750000,157.970000,319.520000,155.920000,319.920000,153.140000C320.320000,150.360000,319.110000,147.910000,317.280000,147.670000C315.450000,147.430000,313.650000,149.480000,313.280000,152.260000Z" fill="rgb(26,26,26)" fill-rule="evenodd" stroke="none" stroke-width="1"/></g></g></g></svg>