<svg id="efaoHXksqQY1" xmlns="http://www.w3.org/2000/svg" xmlns:xlink="http://www.w3.org/1999/xlink" viewBox="0 0 300 300" shape-rendering="geometricPrecision" text-rendering="geometricPrecision"><style><![CDATA[#efaoHXksqQY3_ts {animation: efaoHXksqQY3_ts__ts 2000ms linear infinite normal forwards}@keyframes efaoHXksqQY3_ts__ts { 0% {transform: translate(239.775002px,202.574684px) scale(0.941465,0.941465)} 40% {transform: translate(239.775002px,202.574684px) scale(0.941465,0.941465);animation-timing-function: cubic-bezier(0.39,0.575,0.565,1)} 50% {transform: translate(239.775002px,202.574684px) scale(1,1)} 100% {transform: translate(239.775002px,202.574684px) scale(1,1)}} #efaoHXksqQY14 {animation: efaoHXksqQY14_s_do 2000ms linear infinite normal forwards}@keyframes efaoHXksqQY14_s_do { 0% {stroke-dashoffset: 416.42;animation-timing-function: cubic-bezier(0.445,0.05,0.55,0.95)} 15% {stroke-dashoffset: 0} 100% {stroke-dashoffset: 0}} #efaoHXksqQY18 {animation: efaoHXksqQY18_s_do 2000ms linear infinite normal forwards}@keyframes efaoHXksqQY18_s_do { 0% {stroke-dashoffset: 213.02} 15% {stroke-dashoffset: 213.02;animation-timing-function: cubic-bezier(0.39,0.575,0.565,1)} 30% {stroke-dashoffset: 0} 100% {stroke-dashoffset: 0}} #efaoHXksqQY22 {animation: efaoHXksqQY22_s_do 2000ms linear infinite normal forwards}@keyframes efaoHXksqQY22_s_do { 0% {stroke-dashoffset: 155.55} 30% {stroke-dashoffset: 155.55;animation-timing-function: cubic-bezier(0.39,0.575,0.565,1)} 40% {stroke-dashoffset: 0} 100% {stroke-dashoffset: 0}}]]></style><g id="efaoHXksqQY2" transform="matrix(1.16317 0 0 1.16317 -111.730043 -45.752415)"><g id="efaoHXksqQY3_ts" transform="translate(239.775002,202.574684) scale(0.941465,0.941465)"><g id="efaoHXksqQY3" transform="translate(-239.775001,-202.574684)"><path id="efaoHXksqQY4" d="M191.8,196.37L191.8,201.59L201,201.59L201,205.26L191.8,205.26L191.8,212.45L187.23,212.45L187.23,192.7L202.16,192.7L202.16,196.37Z" fill="rgb(36,36,36)" stroke="none" stroke-width="1"/><path id="efaoHXksqQY5" d="M217.14,212.45L213.33,206.95L209.13,206.95L209.13,212.45L204.56,212.45L204.56,192.7L213.11,192.7C214.674583,192.662309,216.229197,192.958913,217.67,193.57C220.196839,194.625904,221.842009,197.096415,221.842009,199.835C221.842009,202.573585,220.196839,205.044096,217.67,206.1L222.1,212.45ZM216,197.31C215.08794,196.658745,213.978141,196.344184,212.86,196.42L209.14,196.42L209.14,203.31L212.86,203.31C213.979877,203.388025,215.091489,203.06941,216,202.41C216.685324,201.738522,217.07152,200.819453,217.07152,199.86C217.07152,198.900547,216.685324,197.981478,216,197.31Z" fill="rgb(36,36,36)" stroke="none" stroke-width="1"/><path id="efaoHXksqQY6" d="M224.59,192.7L229.17,192.7L229.17,212.45L224.59,212.45Z" fill="rgb(36,36,36)" stroke="none" stroke-width="1"/><path id="efaoHXksqQY7" d="M233.14,192.7L242.14,192.7C244.1022,192.661976,246.046479,193.079585,247.82,193.92C249.403718,194.68361,250.736083,195.884125,251.66,197.38C253.487593,200.602229,253.487593,204.547771,251.66,207.77C250.73853,209.265452,249.405228,210.46334,247.82,211.22C246.048864,212.068419,244.103457,212.489695,242.14,212.45L233.14,212.45ZM241.89,208.7C243.62147,208.787593,245.318692,208.195539,246.62,207.05C248.997399,204.521002,248.997399,200.578998,246.62,198.05C245.318692,196.904461,243.62147,196.312407,241.89,196.4L237.71,196.4L237.71,208.7Z" fill="rgb(36,36,36)" stroke="none" stroke-width="1"/><path id="efaoHXksqQY8" d="M268.47,208.22L259.3,208.22L257.55,212.45L252.87,212.45L261.67,192.7L266.19,192.7L275,212.45L270.2,212.45ZM267,204.75L263.86,197.18L260.73,204.75Z" fill="rgb(36,36,36)" stroke="none" stroke-width="1"/><path id="efaoHXksqQY9" d="M284.64,205.45L284.64,212.45L280.07,212.45L280.07,205.45L272.42,192.75L277.28,192.75L282.56,201.52L287.83,192.75L292.32,192.75Z" fill="rgb(36,36,36)" stroke="none" stroke-width="1"/></g></g><g id="efaoHXksqQY10" transform="matrix(1 0 0 1 0 0.000001)"><g id="efaoHXksqQY11" mask="url(#efaoHXksqQY13)"><path id="efaoHXksqQY12" d="M190.71,173.99C190.24271,177.315,189.15014,180.52146,187.49,183.44C185.47102,186.4251,182.97034,189.05419,180.09,191.22C176.3339,194.1771,172.14481,196.5381,167.67,198.22C162.85,200.09333,158.82333,201.02667,155.59,201.02C152.35667,201.01333,149.90333,200.34667,148.23,199.02C146.60548,197.81377,145.66921,195.89274,145.72,193.87C145.72,190.64333,147.63,187.39667,151.45,184.13C155.60651,180.66934,160.29317,177.90056,165.33,175.93C170.52473,173.79703,175.95703,172.29626,181.51,171.46C180.58831,169.9844,179.27198,168.79624,177.71,168.03C174.92499,166.75766,172.02526,165.75313,169.05,165.03C166.82,164.42,165.71,163.41,165.71,162.03C165.71417,161.15871,166.07565,160.32729,166.71,159.73C167.78089,158.76276,168.95848,157.92066,170.22,157.22C171.87,156.22,173.43,155.22,174.91,154.22C176.39,153.22,178.03,151.95,179.84,150.5C181.52654,149.1712,183.05639,147.65477,184.4,145.98C185.44728,144.85271,186.09395,143.41175,186.24,141.88C186.35169,141.07466,186.07872,140.26361,185.50283,139.68968C184.92694,139.11575,184.11496,138.84556,183.31,138.96C181.81,138.96,179.76333,139.67,177.17,141.09C174.41777,142.62131,171.84803,144.45972,169.51,146.57L166,157.93C163.48667,165.93,160.71333,172.12,157.68,176.5C154.64667,180.88,151.75333,183.08,149,183.1C146.1,183.1,144.65,181.31667,144.65,177.75C144.65,174.18333,146.38,169.62667,149.84,164.08C153.89843,157.81215,158.72228,152.07459,164.2,147C164.2,146.95,164.35,146.43,164.66,145.46C164.97,144.49,165.26,143.46,165.54,142.46C166.08712,140.47493,166.81344,138.54366,167.71,136.69L171.81,137.36C171.77387,138.63957,171.54808,139.90671,171.14,141.12C174.25698,138.78393,177.57305,136.72603,181.05,134.97C184.54,133.22,187.05,132.34,188.75,132.34C190.24239,132.26861,191.69539,132.83164,192.75,133.89C193.83091,135.13394,194.37399,136.75599,194.26,138.4C194.26,140.4,193.32,142.66,191.45,145.22C189.4874,147.87951,187.12631,150.22037,184.45,152.16C180.39193,155.30715,176.03822,158.05334,171.45,160.36C177.25,161.24667,181.48667,162.43,184.16,163.91C186.82827,165.37359,188.8985,167.72692,190.01,170.56L194.27139,170.56C195.55088,166.47009,197.40375,161.37343,199.83,155.27C204.3898,143.59383,209.66995,132.21195,215.64,121.19L219.32,123.19C213.85333,133.77667,208.91667,144.3,204.51,154.76C200.10333,165.22,197.90333,172.73333,197.91,177.3C197.91,179.92,198.88333,181.23,200.83,181.23C202.39,181.19667,203.95333,180.01,205.52,177.67L207.27,179.09C205.88453,181.39953,204.24427,183.5463,202.38,185.49C201.18898,186.74015,199.54643,187.46057,197.82,187.49C196.21112,187.52195,194.6852,186.77759,193.72,185.49C192.63075,184.05578,192.06921,182.28993,192.13,180.49C192.13,178.97319,192.51824,176.77468,193.29473,173.89448L190.71,173.99ZM154.75,172.48C158.50941,166.5443,161.1465,159.96852,162.53,153.08C159.39851,156.53741,156.64926,160.32266,154.33,164.37C151.87667,168.61,150.65,171.67667,150.65,173.57C150.65,174.74,151.06,175.33,151.87,175.33C152.68,175.33,153.63,174.38,154.75,172.48ZM174.15,190.38C176.68422,188.72997,178.89694,186.63245,180.68,184.19C182.1335,182.34539,182.97902,180.09533,183.1,177.75C183.09733,176.78806,182.95587,175.83154,182.68,174.91C174.32,175.91,167.43667,178.09667,162.03,181.47C156.62333,184.84333,153.91667,188.06333,153.91,191.13C153.8763,192.39992,154.47121,193.60472,155.5,194.35C156.77531,195.22627,158.30501,195.65529,159.85,195.57C164.37,195.57,169.13667,193.84,174.15,190.38Z" fill="rgb(206,0,0)" stroke="none" stroke-width="1"/><mask id="efaoHXksqQY13" mask-type="alpha"><path id="efaoHXksqQY14" d="M146.215002,169.8689Q136.717071,213.118622,125.843839,212.938622C123.391836,212.938622,122.415002,199.826116,148.515002,174.2989C154.415002,170.5389,162.323485,167.700791,167.883485,169.8689C169.323485,170.5389,172.742208,177.6589,144.375002,193.6689C153.875002,197.0889,169.780685,197.898892,162.780685,213.548892C160.377855,217.018892,154.369078,228.771935,133.920685,231.088891C128.980685,231.088891,122.980684,228.202188,136.010685,217.738892C144.040685,212.775322,150.095003,205.658898,171.400003,205.658898C177.535002,188.653898,190.22436,162.398104,194.926369,154.968892C182.346369,178.778892,165.075001,213.108897,174.525001,216.618897C176.985931,217.288897,179.884106,217.618897,183.975001,209.678897" transform="matrix(1 0 0 1 21.669315 -33.778892)" fill="none" stroke="rgb(63,87,135)" stroke-width="9" stroke-dashoffset="416.42" stroke-dasharray="416.42"/></mask></g><g id="efaoHXksqQY15" mask="url(#efaoHXksqQY17)"><path id="efaoHXksqQY16" d="M242.36,183.44C240.72987,184.76811,238.72784,185.55774,236.63,185.7C233.33667,185.7,231.69,183.97,231.69,180.51C231.76703,178.52749,232.19358,176.57415,232.95,174.74L229.85,177.92C227.60301,180.40098,224.96058,182.49262,222.03,184.11C220.01845,185.12434,217.8026,185.66805,215.55,185.7C213.76127,185.82751,212.00557,185.17049,210.74,183.9C209.58388,182.49945,209.00144,180.71283,209.11,178.9C209.11,175,210.61667,171.14,213.63,167.32C216.75471,163.41267,220.69255,160.23237,225.17,158C229.50395,155.69876,234.31442,154.43879,239.22,154.32L239.39,157.08L235.87,157.84C230.90249,158.89806,226.28491,161.19996,222.45,164.53C218.58,167.87,216.64,171.21,216.64,174.53C216.64,177.85,217.98,179.53,220.64,179.53C223.14667,179.53,226.24333,177.77333,229.93,174.26C233.66292,170.6729,236.77215,166.48896,239.13,161.88L242.64,163.97C239.18,170.93667,237.45,175.37,237.45,177.27C237.42522,178.01921,237.71536,178.74456,238.25,179.27C238.65149,179.73735,239.22503,180.02232,239.84,180.06C240.17531,180.07217,240.51089,180.04532,240.84,179.98C241.01083,179.92035,241.17781,179.85021,241.34,179.77C241.55694,179.65522,241.76727,179.52835,241.97,179.39C242.08107,179.31604,242.19021,179.23926,242.2973,179.15973C241.97849,178.11911,241.84006,177.02012,241.9,175.91C241.9,172.90333,243.21,169.64333,245.83,166.13C248.54696,162.52873,252.01349,159.56035,255.99,157.43C259.71368,155.25994,263.93085,154.07913,268.24,154C268.8,154,269.63,154.06,270.75,154.17L270.5,157.43C264.36,157.71,259.27333,159.57667,255.24,163.03C251.20667,166.48333,249.18333,170.15,249.17,174.03C249.09444,175.49464,249.64328,176.92266,250.68031,177.95969C251.71734,178.99672,253.14537,179.54556,254.61,179.47C257.17,179.49667,260.46,177.61333,264.48,173.82L266.48,175.49C265.1541,178.55534,262.90221,181.12893,260.04,182.85C257.50103,184.5603,254.52988,185.51717,251.47,185.61C248.92942,185.69614,246.45972,184.7637,244.61,183.02C244.36138,182.76981,244.1284,182.50717,243.91165,182.23357C243.42767,182.67332,242.90917,183.07688,242.36,183.44Z" fill="rgb(206,0,0)" stroke="none" stroke-width="1"/><mask id="efaoHXksqQY17" mask-type="alpha"><path id="efaoHXksqQY18" d="M239.84,155.475C239.84,155.475,219.63,157.74,213.63,174.74C212.860001,176.98,209.140001,186.421876,224.590001,179.39C232.985003,175.35,235.633754,168.405285,239.923584,161.84C234.923584,171.84,233.5,180.5,236.5,182.5C237.5,183.5,239.84,184.19,243.5,181.5C243.5,179.5,241.772718,159.9,271.772718,154.9C264.772718,155.9,240.049953,162.47,247.049953,179.47C248.049953,181.47,255.000001,186.91,267.000001,173.91" fill="none" stroke="rgb(206,142,142)" stroke-width="9" stroke-miterlimit="10" stroke-dashoffset="213.02" stroke-dasharray="213.02"/></mask></g><g id="efaoHXksqQY19" mask="url(#efaoHXksqQY21)"><path id="efaoHXksqQY20" d="M299.85,177.17L301.94,179.01Q297.09,186.95,291.66,186.95Q288.31,186.95,284.8,182.02C282.46,178.73,281.29,176.02,281.29,173.91C281.29,172.57,283.29,171.23,287.29,169.91C288.799188,169.403293,290.20247,168.623692,291.43,167.61C292.515837,166.880386,293.208367,165.694243,293.31,164.39C293.371332,163.449041,293.037972,162.525054,292.39,161.84C291.759135,161.245435,290.916317,160.928478,290.05,160.96Q280.84,161.8,270.81,185.72L265.71,183.96Q265.71,180.36,275.45,154.86Q285.19,129.36,289.32,124L293.41,125.5Q282.13,145.15,274.51,171.16Q281.04,161.38,285.72,158.16C288.295036,156.17505,291.421573,155.036222,294.67,154.9C296.21179,154.826731,297.713621,155.403521,298.81,156.49C299.836332,157.564541,300.390765,159.004627,300.35,160.49C300.37106,162.066791,299.952036,163.61822,299.14,164.97C298.254811,166.380375,297.070137,167.578705,295.67,168.48C293.131991,170.129434,290.455221,171.554814,287.67,172.74C287.971142,174.92221,288.871109,176.978286,290.27,178.68C291.304215,179.925349,292.831383,180.656052,294.45,180.68Q295.66,180.68,299.85,177.17Z" fill="rgb(206,0,0)" stroke="none" stroke-width="1"/><mask id="efaoHXksqQY21" mask-type="alpha"><path id="efaoHXksqQY22" d="M291.5,124.5C281.137414,143.712141,273.141621,163.725528,268.24,184.996721C272.24,173.996721,282.67,155.16,294.67,158.16C296.682604,158.823863,301.267507,160.96,291.66,167.610001C290.050756,168.702732,284.8,172.017155,284.8,174.26C285.72,181.47,289.32,183.44,292.320001,184.11C296.869743,184.19,300.35,180.68,303.241666,177.17" fill="none" stroke="rgb(206,142,142)" stroke-width="8" stroke-miterlimit="8" stroke-dashoffset="155.55" stroke-dasharray="155.55"/></mask></g></g></g></svg>