<svg id="e1D2ISJGgu51" xmlns="http://www.w3.org/2000/svg" xmlns:xlink="http://www.w3.org/1999/xlink" viewBox="0 0 400 400" shape-rendering="geometricPrecision" text-rendering="geometricPrecision"><defs><linearGradient id="e1D2ISJGgu55-fill" x1="199.995632" y1="357.014278" x2="199.995632" y2="56.713424" spreadMethod="pad" gradientUnits="userSpaceOnUse"><stop id="e1D2ISJGgu55-fill-0" offset="0%" stop-color="rgb(224,224,224)"/><stop id="e1D2ISJGgu55-fill-1" offset="100%" stop-color="rgb(181,177,177)"/></linearGradient></defs><g id="e1D2ISJGgu52"><circle id="e1D2ISJGgu53" r="175" transform="matrix(1 0 0 1 200 200)" clip-rule="evenodd" fill="rgb(203,198,198)" fill-rule="evenodd" stroke="none" stroke-width="1"/><circle id="e1D2ISJGgu54" r="157" transform="matrix(1 0 0 1 200 200)" clip-rule="evenodd" fill="rgb(181,177,177)" fill-rule="evenodd" stroke="none" stroke-width="1"/><path id="e1D2ISJGgu55" d="M43.100000,206.900000C46.700000,290.400000,115.600000,357,200,357C284.400000,357,353.300000,290.400000,356.900000,206.900000C353.300000,123.400000,284.400000,56.700000,200,56.700000C115.600000,56.700000,46.700000,123.400000,43.100000,206.900000L43.100000,206.900000Z" clip-rule="evenodd" fill="url(#e1D2ISJGgu55-fill)" fill-rule="evenodd" stroke="none" stroke-width="1"/><circle id="e1D2ISJGgu56" r="115.800000" transform="matrix(1 0 0 1 200 200)" clip-rule="evenodd" fill="rgb(203,198,198)" fill-rule="evenodd" stroke="none" stroke-width="1"/><path id="e1D2ISJGgu57" d="M84.300000,203.700000C84.300000,204.900000,84.300000,206.100000,84.300000,207.400000C84.300000,271.300000,136.100000,323.200000,200.100000,323.200000C264.100000,323.200000,315.900000,271.300000,315.900000,207.400000C315.900000,206.200000,315.900000,205,315.900000,203.700000C313.900000,265.900000,262.900000,315.800000,200.200000,315.800000C137.500000,315.800000,86.200000,266,84.300000,203.700000L84.300000,203.700000Z" clip-rule="evenodd" fill="rgb(181,177,177)" fill-rule="evenodd" stroke="none" stroke-width="1"/></g><path id="e1D2ISJGgu58" d="M267.900000,245.200000L197.300000,245.200000L210.100000,197.400000L237.700000,187.600000L244.800000,161L217.200000,170.800000L232.100000,115.100000L187.500000,115.100000L167.200000,190.800000L139.600000,200.600000L132.500000,227.200000L160.100000,217.400000L146.500000,268.300000L261.700000,268.300000L267.900000,245.200000L267.900000,245.200000ZM207,237.800000L277.600000,237.800000L267.500000,275.700000L136.900000,275.700000L149.400000,229.100000L121.800000,238.900000L133.600000,194.900000L161.200000,185.100000L181.900000,107.600000L241.800000,107.600000L228.100000,159L255.700000,149.200000L243.900000,193.200000L216.300000,203L207,237.800000Z" fill="rgb(255,255,255)" stroke="none" stroke-width="1"/></svg>