<svg id="eqmZlP0x2fW1" xmlns="http://www.w3.org/2000/svg" xmlns:xlink="http://www.w3.org/1999/xlink" viewBox="0 0 400 400" shape-rendering="geometricPrecision" text-rendering="geometricPrecision"><g id="eqmZlP0x2fW2"><g id="eqmZlP0x2fW3"><path id="eqmZlP0x2fW4" d="M200,25C296.649831,25,375,103.350169,375,200C375,296.649831,296.649831,375,200,375C103.350169,375,25,296.649831,25,200C25,103.350169,103.350169,25,200,25Z" fill="rgb(255,153,51)" fill-rule="evenodd" stroke="none" stroke-width="1"/><path id="eqmZlP0x2fW5" d="M200,41.640000C287.459813,41.640000,358.360000,112.540187,358.360000,200C358.360000,287.459813,287.459813,358.360000,200,358.360000C112.540187,358.360000,41.640000,287.459813,41.640000,200C41.640000,112.540187,112.540187,41.640000,200,41.640000Z" fill="rgb(255,255,204)" fill-rule="evenodd" stroke="none" stroke-width="1"/></g><g id="eqmZlP0x2fW6"><path id="eqmZlP0x2fW7" d="M95.850000,286C78.674088,265.247997,68.125270,239.816565,65.570000,213C65.465265,211.932425,65.817833,210.870469,66.540263,210.077511C67.262693,209.284554,68.287312,208.834875,69.360000,208.840000L169.720000,208.840000C171.260640,208.833503,172.652736,209.757881,173.244517,211.180347C173.836298,212.602813,173.510634,214.241822,172.420000,215.330000L101.470000,286.270000C100.725239,287.047242,99.673927,287.453846,98.600000,287.380000C97.526129,287.342343,96.522014,286.838460,95.850000,286Z" fill="rgb(222,135,47)" fill-rule="evenodd" stroke="none" stroke-width="1"/><path id="eqmZlP0x2fW8" d="M187.150000,334.440000C160.278715,331.916019,134.789498,321.361427,114,304.150000C113.165285,303.476071,112.665193,302.472236,112.630000,301.400000C112.556154,300.326073,112.962758,299.274761,113.740000,298.530000L184.740000,227.530000C185.829506,226.443777,187.465379,226.119398,188.886928,226.707701C190.308478,227.296003,191.236714,228.681530,191.240000,230.220000L191.240000,330.650000C191.252379,331.726872,190.796214,332.755980,189.990000,333.470000C189.224838,334.183306,188.191646,334.536193,187.150000,334.440000Z" fill="rgb(204,102,51)" fill-rule="evenodd" stroke="none" stroke-width="1"/><path id="eqmZlP0x2fW9" d="M286,304.150000C265.218757,321.355894,239.740803,331.910150,212.880000,334.440000C211.810347,334.549029,210.746684,334.183510,209.970000,333.440000C209.163786,332.725980,208.707621,331.696872,208.720000,330.620000L208.720000,230.170000C208.723286,228.631530,209.651522,227.246003,211.073072,226.657701C212.494621,226.069398,214.130494,226.393777,215.220000,227.480000L286.220000,298.480000C286.997242,299.224761,287.403846,300.276073,287.330000,301.350000C287.294807,302.422236,286.794715,303.426071,285.960000,304.100000Z" fill="rgb(222,135,47)" fill-rule="evenodd" stroke="none" stroke-width="1"/><path id="eqmZlP0x2fW10" d="M334.430000,213C331.874730,239.816565,321.325912,265.247997,304.150000,286C303.476071,286.834715,302.472236,287.334807,301.400000,287.370000C300.326073,287.443846,299.274761,287.037242,298.530000,286.260000L227.580000,215.320000C226.489366,214.231822,226.163702,212.592813,226.755483,211.170347C227.347264,209.747881,228.739360,208.823503,230.280000,208.830000L330.640000,208.830000C331.712688,208.824875,332.737307,209.274554,333.459737,210.067511C334.182167,210.860469,334.534735,211.922425,334.430000,212.990000Z" fill="rgb(204,102,51)" fill-rule="evenodd" stroke="none" stroke-width="1"/><path id="eqmZlP0x2fW11" d="M114,95.850000C134.781243,78.644106,160.259197,68.089850,187.120000,65.560000C188.189653,65.450971,189.253316,65.816490,190.030000,66.560000C190.836214,67.274020,191.292379,68.303128,191.280000,69.380000L191.280000,169.830000C191.276714,171.368470,190.348478,172.753997,188.926928,173.342299C187.505379,173.930602,185.869506,173.606223,184.780000,172.520000L113.780000,101.470000C113.002758,100.725239,112.596154,99.673927,112.670000,98.600000C112.695278,97.534250,113.180240,96.531510,114,95.850000Z" fill="rgb(222,135,47)" fill-rule="evenodd" stroke="none" stroke-width="1"/><path id="eqmZlP0x2fW12" d="M169.720000,191.200000L69.360000,191.200000C68.279587,191.206343,67.247825,190.751269,66.524000,189.949141C65.800174,189.147012,65.453101,188.074089,65.570000,187C68.125270,160.183435,78.674088,134.752003,95.850000,114C96.523929,113.165285,97.527764,112.665193,98.600000,112.630000C99.673927,112.556154,100.725239,112.962758,101.470000,113.740000L172.420000,184.680000C173.510634,185.768178,173.836298,187.407187,173.244517,188.829653C172.652736,190.252119,171.260640,191.176497,169.720000,191.170000Z" fill="rgb(204,102,51)" fill-rule="evenodd" stroke="none" stroke-width="1"/><path id="eqmZlP0x2fW13" d="M304.150000,114C321.325912,134.752003,331.874730,160.183435,334.430000,187C334.534735,188.067575,334.182167,189.129531,333.459737,189.922489C332.737307,190.715446,331.712688,191.165125,330.640000,191.160000L230.280000,191.160000C228.739360,191.166497,227.347264,190.242119,226.755483,188.819653C226.163702,187.397187,226.489366,185.758178,227.580000,184.670000L298.530000,113.730000C299.274761,112.952758,300.326073,112.546154,301.400000,112.620000C302.472236,112.655193,303.476071,113.155285,304.150000,113.990000Z" fill="rgb(222,135,47)" fill-rule="evenodd" stroke="none" stroke-width="1"/><path id="eqmZlP0x2fW14" d="M212.850000,65.560000C239.721285,68.083981,265.210502,78.638573,286,95.850000C286.834715,96.523929,287.334807,97.527764,287.370000,98.600000C287.443846,99.673927,287.037242,100.725239,286.260000,101.470000L215.260000,172.520000C214.170494,173.606223,212.534621,173.930602,211.113072,173.342299C209.691522,172.753997,208.763286,171.368470,208.760000,169.830000L208.760000,69.350000C208.747621,68.273128,209.203786,67.244020,210.010000,66.530000C210.786684,65.786490,211.850347,65.420971,212.920000,65.530000Z" fill="rgb(204,102,51)" fill-rule="evenodd" stroke="none" stroke-width="1"/><path id="eqmZlP0x2fW15" d="M95.850000,281C79.312919,261.045430,68.894978,236.736900,65.850000,211C66.018933,210.637964,66.237723,210.301363,66.500000,210C67.215060,209.196396,68.244441,208.743760,69.320000,208.760000L169.720000,208.760000C170.824906,208.746607,171.879181,209.222494,172.600000,210.060000L172.420000,210.260000L101.470000,281.200000C100.712527,281.957703,99.670391,282.360438,98.600234,282.309025C97.530077,282.257612,96.531348,281.756828,95.850000,280.930000Z" fill="rgb(255,153,51)" fill-rule="evenodd" stroke="none" stroke-width="1"/><path id="eqmZlP0x2fW16" d="M187.150000,329.450000C160.279919,326.921163,134.792079,316.367141,114,299.160000C113.840276,299.023619,113.689935,298.876619,113.550000,298.720000L113.740000,298.530000L184.740000,227.530000C185.829506,226.443777,187.465379,226.119398,188.886928,226.707701C190.308478,227.296003,191.236714,228.681530,191.240000,230.220000L191.240000,325.710000C191.235846,326.779662,190.783396,327.798580,189.992678,328.518969C189.201961,329.239358,188.145424,329.595214,187.080000,329.500000Z" fill="rgb(255,102,51)" fill-rule="evenodd" stroke="none" stroke-width="1"/><path id="eqmZlP0x2fW17" d="M286,299.160000C265.216177,316.361612,239.739598,326.915299,212.880000,329.450000C211.814576,329.545214,210.758039,329.189358,209.967322,328.468969C209.176604,327.748580,208.724154,326.729662,208.720000,325.660000L208.720000,230.170000C208.723286,228.631530,209.651522,227.246003,211.073072,226.657701C212.494621,226.069398,214.130494,226.393777,215.220000,227.480000L286.220000,298.480000L286.410000,298.670000C286.270065,298.826619,286.119724,298.973619,285.960000,299.110000Z" fill="rgb(255,153,51)" fill-rule="evenodd" stroke="none" stroke-width="1"/><path id="eqmZlP0x2fW18" d="M334.110000,211C331.065022,236.736900,320.647081,261.045430,304.110000,281C303.428652,281.826828,302.429923,282.327612,301.359766,282.379025C300.289609,282.430438,299.247473,282.027703,298.490000,281.270000L227.580000,210.300000L227.400000,210.100000C228.120819,209.262494,229.175094,208.786607,230.280000,208.800000L330.640000,208.800000C331.715559,208.783760,332.744940,209.236396,333.460000,210.040000C333.722277,210.341363,333.941067,210.677964,334.110000,211.040000Z" fill="rgb(255,102,51)" fill-rule="evenodd" stroke="none" stroke-width="1"/><path id="eqmZlP0x2fW19" d="M191.310000,164.840000C191.306714,166.378470,190.378478,167.763997,188.956928,168.352299C187.535379,168.940602,185.899506,168.616223,184.810000,167.530000L113.810000,96.530000C113.741644,96.468292,113.678124,96.401429,113.620000,96.330000C113.762634,96.179151,113.912827,96.035633,114.070000,95.900000C134.851243,78.694106,160.329197,68.139850,187.190000,65.610000C188.259653,65.500971,189.323316,65.866490,190.100000,66.610000C190.906214,67.324020,191.362379,68.353128,191.350000,69.430000L191.350000,164.920000Z" fill="rgb(255,153,51)" fill-rule="evenodd" stroke="none" stroke-width="1"/><path id="eqmZlP0x2fW20" d="M169.720000,186.210000L69.360000,186.210000C67.878047,186.198626,66.533452,185.339796,65.900000,184C68.927256,158.267545,79.327998,133.958632,95.850000,114C96.523929,113.165285,97.527764,112.665193,98.600000,112.630000C99.673927,112.556154,100.725239,112.962758,101.470000,113.740000L172.420000,184.680000L172.600000,184.880000C171.879181,185.717506,170.824906,186.193393,169.720000,186.180000Z" fill="rgb(255,102,51)" fill-rule="evenodd" stroke="none" stroke-width="1"/><path id="eqmZlP0x2fW21" d="M334.100000,184C333.463680,185.335900,332.119676,186.190469,330.640000,186.200000L230.280000,186.200000C229.175094,186.213393,228.120819,185.737506,227.400000,184.900000L227.580000,184.700000L298.530000,113.760000C299.274761,112.982758,300.326073,112.576154,301.400000,112.650000C302.472236,112.685193,303.476071,113.185285,304.150000,114.020000C320.668481,133.973077,331.069012,158.274553,334.100000,184Z" fill="rgb(255,153,51)" fill-rule="evenodd" stroke="none" stroke-width="1"/><path id="eqmZlP0x2fW22" d="M212.850000,65.560000C239.721285,68.083981,265.210502,78.638573,286,95.850000C286.157173,95.985633,286.307366,96.129151,286.450000,96.280000C286.391876,96.351429,286.328356,96.418292,286.260000,96.480000L215.260000,167.530000C214.170494,168.616223,212.534621,168.940602,211.113072,168.352299C209.691522,167.763997,208.763286,166.378470,208.760000,164.840000L208.760000,69.350000C208.747621,68.273128,209.203786,67.244020,210.010000,66.530000C210.786684,65.786490,211.850347,65.420971,212.920000,65.530000Z" fill="rgb(255,102,51)" fill-rule="evenodd" stroke="none" stroke-width="1"/></g></g></svg>