<svg id="s1" xmlns="http://www.w3.org/2000/svg" xmlns:xlink="http://www.w3.org/1999/xlink" viewBox="0 0 400 400"><defs><linearGradient id="s5-fill" x1="202.190000" y1="73.400000" x2="225.700000" y2="116.750000" spreadMethod="pad" gradientUnits="userSpaceOnUse"><stop id="s5-fill-0" offset="11%" stop-color="rgb(156,88,77)"/><stop id="s5-fill-1" offset="45%" stop-color="rgb(135,72,60)"/><stop id="s5-fill-2" offset="56%" stop-color="rgb(134,71,59)"/><stop id="s5-fill-3" offset="100%" stop-color="rgb(125,62,50)"/></linearGradient><linearGradient id="s11-fill" x1="188.850000" y1="213.020000" x2="246.760000" y2="310.090000" spreadMethod="pad" gradientUnits="userSpaceOnUse"><stop id="s11-fill-0" offset="8%" stop-color="rgb(242,225,201)"/><stop id="s11-fill-1" offset="100%" stop-color="rgb(232,199,153)"/></linearGradient><linearGradient id="s13-fill" x1="31.800000" y1="4.180000" x2="43" y2="22.950000" spreadMethod="pad" gradientUnits="userSpaceOnUse"><stop id="s13-fill-0" offset="8%" stop-color="rgb(242,225,201)"/><stop id="s13-fill-1" offset="100%" stop-color="rgb(232,199,153)"/></linearGradient><linearGradient id="s15-fill" x1="175.650000" y1="241.210000" x2="268.400000" y2="345.760000" spreadMethod="pad" gradientUnits="userSpaceOnUse"><stop id="s15-fill-0" offset="7%" stop-color="rgb(224,194,74)"/><stop id="s15-fill-1" offset="94%" stop-color="rgb(184,152,33)"/></linearGradient></defs><g id="s3"><path id="s5" d="M228.930000,125.780000L199.160000,125.780000C196.245149,125.780748,193.789175,123.603862,193.440000,120.710000L188.520000,80.250000C188.319469,78.612152,188.830994,76.966950,189.924871,75.731558C191.018748,74.496166,192.589921,73.789229,194.240000,73.790000L233.850000,73.790000C235.500079,73.789229,237.071252,74.496166,238.165129,75.731558C239.259006,76.966950,239.770531,78.612152,239.570000,80.250000L234.650000,120.710000C234.300825,123.603862,231.844851,125.780748,228.930000,125.780000Z" fill="url(#s5-fill)" stroke="none" stroke-width="1"/><g id="s7"><path id="s9" d="M237.470000,176.790000C266.540000,133.560000,294.640000,134.870000,306,147.200000C333.300000,176.820000,272.070000,209.200000,288.730000,247.890000" fill="none" stroke="rgb(239,223,196)" stroke-width="17" stroke-linecap="round" stroke-miterlimit="10"/><path id="s11" d="M187.470000,368.390000L240.620000,368.390000C243.354922,368.397817,245.980888,367.318653,247.920000,365.390000C351.170000,261.690000,224.350000,209.610000,238.080000,118.480000C238.205269,117.647450,237.961254,116.801663,237.411758,116.163787C236.862262,115.525910,236.061922,115.159368,235.220000,115.160000L192.870000,115.160000C192.028078,115.159368,191.227738,115.525910,190.678242,116.163787C190.128746,116.801663,189.884731,117.647450,190.010000,118.480000C203.740000,209.610000,76.920000,261.690000,180.170000,365.390000C182.109112,367.318653,184.735078,368.397817,187.470000,368.390000Z" fill="url(#s11-fill)" stroke="none" stroke-width="1"/><rect id="s13" width="71.440000" height="21.480000" rx="10.600000" ry="10.600000" transform="translate(178.330000,106.080000)" fill="url(#s13-fill)" stroke="none" stroke-width="1"/></g><path id="s15" d="M190.750000,355.330000C189.390026,355.335373,188.086539,354.786536,187.140000,353.810000C162.570000,328.460000,151.540000,305.660000,152.470000,282.240000C153.060000,267.350000,158.410000,253.310000,164.070000,241.190000C164.890267,239.407219,166.677596,238.269117,168.640000,238.280000L259.460000,238.280000C261.422404,238.269117,263.209733,239.407219,264.030000,241.190000C269.700000,253.310000,275.030000,267.350000,275.630000,282.240000C276.550000,305.660000,265.530000,328.460000,240.960000,353.810000C240.013461,354.786536,238.709974,355.335373,237.350000,355.330000Z" fill="url(#s15-fill)" stroke="none" stroke-width="1"/></g></svg>