<svg id="s1" xmlns="http://www.w3.org/2000/svg" xmlns:xlink="http://www.w3.org/1999/xlink" viewBox="0 0 400 400"><defs><linearGradient id="s9-stroke" x1="238.516012" y1="81.528403" x2="213.673510" y2="202.661208" spreadMethod="pad" gradientUnits="userSpaceOnUse"><stop id="s9-stroke-0" offset="4%" stop-color="rgb(117,114,109)"/><stop id="s9-stroke-1" offset="86%" stop-color="rgb(84,79,70)"/></linearGradient><linearGradient id="s13-fill" x1="227.735746" y1="148.832438" x2="236.527668" y2="193.630521" spreadMethod="pad" gradientUnits="userSpaceOnUse"><stop id="s13-fill-0" offset="4%" stop-color="rgb(117,114,109)"/><stop id="s13-fill-1" offset="86%" stop-color="rgb(84,79,70)"/></linearGradient><linearGradient id="s15-fill" x1="257.710000" y1="205.930000" x2="156.870000" y2="163.170000" spreadMethod="pad" gradientUnits="userSpaceOnUse"><stop id="s15-fill-0" offset="0%" stop-color="rgb(202,195,182)"/><stop id="s15-fill-1" offset="60%" stop-color="rgb(255,247,230)"/><stop id="s15-fill-2" offset="100%" stop-color="rgb(195,189,176)"/></linearGradient><linearGradient id="s19-fill" x1="63.100000" y1="220.930000" x2="142.770000" y2="215.930000" spreadMethod="pad" gradientUnits="userSpaceOnUse"><stop id="s19-fill-0" offset="26%" stop-color="rgb(179,173,161)"/><stop id="s19-fill-1" offset="65%" stop-color="rgb(235,227,211)"/><stop id="s19-fill-2" offset="100%" stop-color="rgb(195,189,176)"/></linearGradient><linearGradient id="s21-fill" x1="93.490000" y1="230.180000" x2="308.880000" y2="333.350000" spreadMethod="pad" gradientUnits="userSpaceOnUse"><stop id="s21-fill-0" offset="8%" stop-color="rgb(231,224,207)"/><stop id="s21-fill-1" offset="24%" stop-color="rgb(231,224,207)"/><stop id="s21-fill-2" offset="54%" stop-color="rgb(176,170,157)"/><stop id="s21-fill-3" offset="81%" stop-color="rgb(166,160,149)"/><stop id="s21-fill-4" offset="100%" stop-color="rgb(219,213,197)"/></linearGradient><linearGradient id="s23-fill" x1="200.620000" y1="320.580000" x2="200.620000" y2="308.930000" spreadMethod="pad" gradientUnits="userSpaceOnUse"><stop id="s23-fill-0" offset="26%" stop-color="rgb(179,173,161)"/><stop id="s23-fill-1" offset="65%" stop-color="rgb(235,227,211)"/><stop id="s23-fill-2" offset="100%" stop-color="rgb(195,189,176)"/></linearGradient><linearGradient id="s25-fill" x1="200.620000" y1="312.680000" x2="200.620000" y2="355.040000" spreadMethod="pad" gradientUnits="userSpaceOnUse"><stop id="s25-fill-0" offset="4%" stop-color="rgb(117,114,109)"/><stop id="s25-fill-1" offset="86%" stop-color="rgb(84,79,70)"/></linearGradient><linearGradient id="s27-fill" x1="200.620000" y1="342.190000" x2="200.620000" y2="370.140000" spreadMethod="pad" gradientUnits="userSpaceOnUse"><stop id="s27-fill-0" offset="4%" stop-color="rgb(117,114,109)"/><stop id="s27-fill-1" offset="86%" stop-color="rgb(84,79,70)"/></linearGradient><linearGradient id="s29-fill" x1="-10.190000" y1="-12.240000" x2="11.650000" y2="14.010000" spreadMethod="pad" gradientUnits="userSpaceOnUse"><stop id="s29-fill-0" offset="0%" stop-color="rgb(232,118,102)"/><stop id="s29-fill-1" offset="53%" stop-color="rgb(217,87,87)"/><stop id="s29-fill-2" offset="100%" stop-color="rgb(188,61,61)"/></linearGradient></defs><g id="s3"><g id="s5"><path id="s7" d="M138.190000,206C121.420000,188.690000,113.140000,167.510000,117.420000,146.840000C125.760000,106.570000,178.650000,83.480000,235.550000,95.270000C292.450000,107.060000,331.800000,149.270000,323.460000,189.530000C319.540000,208.470000,305.760000,223.610000,286.340000,233.110000" fill="none" stroke="rgb(223,216,200)" stroke-width="13" stroke-miterlimit="10"/><path id="s9" d="M118.910000,174.740000C116.058305,165.733473,115.545547,156.149380,117.420000,146.890000C125.760000,106.620000,178.650000,83.530000,235.550000,95.320000C292.450000,107.110000,331.800000,149.320000,323.460000,189.580000C321.403781,199.240446,316.825151,208.183783,310.190000,215.500000" fill="none" stroke="url(#s9-stroke)" stroke-width="30" stroke-miterlimit="10"/></g><g id="s11"><path id="s13" d="M233.380000,190.550000L218,186.170000L221.570000,155.260000C221.724284,153.925592,222.456604,152.726190,223.573109,151.979287C224.689614,151.232383,226.077726,151.013289,227.370000,151.380000L243.700000,156C244.991415,156.368331,246.056107,157.284884,246.612389,158.507164C247.168672,159.729445,247.160487,161.134284,246.590000,162.350000Z" fill="url(#s13-fill)" stroke="none" stroke-width="1"/><path id="s15" d="M272.880000,206.880000C246.299443,183.623210,210.145863,174.589468,175.750000,182.610000Z" fill="url(#s15-fill)" stroke="none" stroke-width="1"/></g><g id="s17"><path id="s19" d="M130.840000,224.410000L112.720000,243.410000L76.200000,211.700000C75.726482,211.284688,75.446804,210.691310,75.427842,210.061752C75.408879,209.432194,75.652337,208.823058,76.100000,208.380000C82.886624,201.810654,90.907776,196.651285,99.700000,193.200000C100.569895,192.846579,101.567603,193.065200,102.210000,193.750000Z" fill="url(#s19-fill)" stroke="none" stroke-width="1"/><path id="s21" d="M272.890000,206.850000L272.890000,206.850000L175.690000,182.570000C126.530000,194,89.870000,238.480000,89.870000,291.570000C89.844867,309.741229,94.230391,327.647069,102.650000,343.750000L298.650000,343.750000C322.727738,297.622965,312.103313,241.008952,272.940000,206.750000Z" fill="url(#s21-fill)" stroke="none" stroke-width="1"/><path id="s23" d="M100.080000,338.580000L301.160000,338.580000C305.228391,329.707743,308.119551,320.341730,309.760000,310.720000L91.470000,310.720000C93.113642,320.342196,96.008168,329.708225,100.080000,338.580000Z" fill="url(#s23-fill)" stroke="none" stroke-width="1"/><path id="s25" d="M92.490000,316C94.624564,325.695198,98.037759,335.063830,102.640000,343.860000L298.640000,343.860000C303.224949,335.061308,306.621295,325.692772,308.740000,316Z" fill="url(#s25-fill)" stroke="none" stroke-width="1"/><path id="s27" d="M299.830000,364.850000L101.400000,364.850000C100.326356,364.849654,99.308258,364.372746,98.620738,363.548108C97.933218,362.723471,97.647219,361.636194,97.840000,360.580000L100.540000,345.760000C100.841023,344.028365,102.342397,342.763162,104.100000,342.760000L297.100000,342.760000C298.857603,342.763162,300.358977,344.028365,300.660000,345.760000L303.360000,360.580000C303.551884,361.631053,303.269663,362.713190,302.588903,363.536658C301.908144,364.360126,300.898386,364.840809,299.830000,364.850000Z" fill="url(#s27-fill)" stroke="none" stroke-width="1"/><ellipse id="s29" rx="20.910000" ry="5.750000" transform="translate(200.620000,329.700000)" fill="url(#s29-fill)" stroke="none" stroke-width="1"/></g></g></svg>