<svg id="ew49CapvXyP1" xmlns="http://www.w3.org/2000/svg" xmlns:xlink="http://www.w3.org/1999/xlink" viewBox="0 0 300 300" shape-rendering="geometricPrecision" text-rendering="geometricPrecision"><g id="ew49CapvXyP2" transform="matrix(1 0 0 1 -57.219147 20.908855)"><g id="ew49CapvXyP3" transform="matrix(0.997898 -0.064803 0.064803 0.997898 -11.985543 8.482996)"><polygon id="ew49CapvXyP4" points="277.49,86 264.51,159.6 164.28,159.6 132.31,189 134.88,159.6 114.51,159.6 127.49,86 277.49,86" fill="rgb(20,19,19)" stroke="none" stroke-width="1"/><polygon id="ew49CapvXyP5" points="272.49,80 259.51,153.6 159.28,153.6 127.31,183 129.88,153.6 109.51,153.6 122.49,80 272.49,80" fill="rgb(36,36,36)" stroke="rgb(255,255,255)" stroke-width="4" stroke-miterlimit="10"/><g id="ew49CapvXyP6"><path id="ew49CapvXyP7" d="M152.68,115.18C153.276442,116.29109,153.4505,117.580535,153.17,118.81C152.861585,120.774312,151.691624,122.498079,149.98,123.51C147.776076,124.707306,145.285049,125.274706,142.78,125.15L130.78,125.15L134.84,101.94L146.18,101.94C149.01,101.94,151.08,102.48,152.41,103.57C153.723347,104.624416,154.308061,106.343473,153.91,107.98C153.717648,109.075228,153.257303,110.10585,152.57,110.98C151.863583,111.871567,150.959871,112.587006,149.93,113.07C151.075718,113.40972,152.055252,114.16129,152.68,115.18ZM146.41,120.41C147.20044,119.950152,147.737978,119.154889,147.87,118.25Q148.36,115.37,144.09,115.37L137.83,115.37L136.83,121.1L143.1,121.1C144.244178,121.156759,145.3838,120.919194,146.41,120.41ZM139.47,106L138.47,111.47L143.81,111.47C144.90049,111.522336,145.984998,111.280567,146.95,110.77C147.699982,110.327769,148.210624,109.57099,148.34,108.71C148.530245,107.969554,148.267895,107.186419,147.67,106.71C146.798334,106.185387,145.784013,105.947546,144.77,106.03Z" fill="rgb(255,255,255)" stroke="none" stroke-width="1"/><path id="ew49CapvXyP8" d="M160.63,101.94L166,101.94L162.71,120.77L174.34,120.77L173.58,125.15L156.58,125.15Z" fill="rgb(255,255,255)" stroke="none" stroke-width="1"/><path id="ew49CapvXyP9" d="M193.37,120.17L182.6,120.17L179.67,125.17L174.17,125.17L188.57,101.96L193.88,101.96L200.19,125.17L194.56,125.17ZM192.37,116.1L190.24,107.21L185,116.1Z" fill="rgb(255,255,255)" stroke="none" stroke-width="1"/><path id="ew49CapvXyP10" d="M207.6,124C205.91417,123.025252,204.593636,121.525602,203.84,119.73C203.053599,117.765251,202.862332,115.612623,203.29,113.54C203.668512,111.285823,204.603406,109.161688,206.01,107.36C207.405166,105.548774,209.20253,104.086917,211.26,103.09C213.349214,102.058423,215.650018,101.527731,217.98,101.54C219.793159,101.502428,221.592372,101.864319,223.25,102.6C224.697648,103.26514,225.930665,104.321517,226.81,105.65L222.81,108.84C221.628248,107.056527,219.597309,106.023975,217.46,106.12C214.651022,106.095503,212.003056,107.428797,210.35,109.7C209.516984,110.835614,208.962107,112.150877,208.73,113.54C208.468467,114.824024,208.561811,116.155047,209,117.39C209.411131,118.486354,210.17893,119.412645,211.18,120.02C212.286843,120.695966,213.563269,121.04282,214.86,121.02C217.247513,120.988951,219.521926,119.997725,221.17,118.27L224.06,121.45C222.740359,122.78802,221.156817,123.836904,219.41,124.53C217.613042,125.24575,215.694194,125.605746,213.76,125.59C211.599943,125.632929,209.469434,125.083009,207.6,124Z" fill="rgb(255,255,255)" stroke="none" stroke-width="1"/><path id="ew49CapvXyP11" d="M237.49,116L233.81,119.25L232.81,125.12L227.47,125.12L231.53,101.91L236.87,101.91L234.97,112.75L247.15,101.91L253.15,101.91L241.73,112.25L249.66,125.12L243.39,125.12Z" fill="rgb(255,255,255)" stroke="none" stroke-width="1"/></g></g><g id="ew49CapvXyP12" transform="matrix(0.893756 0 0 0.893756 24.875969 16.386048)"><polygon id="ew49CapvXyP13" points="282,177.85 188.83,177.85 195.17,141.89 288.34,141.89 282,177.85" fill="rgb(20,19,19)" stroke="none" stroke-width="1"/><polygon id="ew49CapvXyP14" points="277,172.85 183.83,172.85 190.17,136.89 283.34,136.89 277,172.85" fill="rgb(206,0,0)" stroke="rgb(255,255,255)" stroke-width="4" stroke-miterlimit="10"/><g id="ew49CapvXyP15"><path id="ew49CapvXyP16" d="M203.72,150.42L203.16,153.64L208.8,153.64L208.4,155.9L202.77,155.9L201.99,160.33L199.17,160.33L201.3,148.15L210.51,148.15L210.11,150.42Z" fill="rgb(255,255,255)" stroke="none" stroke-width="1"/><path id="ew49CapvXyP17" d="M218.23,160.33L216.47,156.94L213.88,156.94L213.28,160.33L210.46,160.33L212.6,148.15L217.87,148.15C218.802777,148.119976,219.729975,148.304731,220.58,148.69C221.267151,148.999242,221.823131,149.541057,222.15,150.22C222.474269,150.959035,222.554826,151.782118,222.38,152.57C222.248296,153.432553,221.88155,154.242163,221.32,154.91C220.753501,155.581314,220.028185,156.100379,219.21,156.42L221.21,160.33ZM219.14,151C218.625859,150.583532,217.96855,150.385981,217.31,150.45L215,150.45L214.26,154.7L216.56,154.7C217.268837,154.727181,217.968343,154.531319,218.56,154.14C219.066279,153.761012,219.400903,153.196108,219.49,152.57C219.653599,152.021386,219.521132,151.427177,219.14,151Z" fill="rgb(255,255,255)" stroke="none" stroke-width="1"/><path id="ew49CapvXyP18" d="M225.56,148.15L228.38,148.15L226.25,160.33L223.43,160.33Z" fill="rgb(255,255,255)" stroke="none" stroke-width="1"/><path id="ew49CapvXyP19" d="M231.44,148.15L237,148.15C238.169186,148.117808,239.327802,148.379099,240.37,148.91C241.259333,149.372111,241.964736,150.123365,242.37,151.04C242.786048,152.053286,242.887108,153.168428,242.66,154.24C242.466556,155.411291,241.981689,156.515135,241.25,157.45C240.520339,158.369098,239.58067,159.099571,238.51,159.58C237.365045,160.089867,236.123251,160.345731,234.87,160.33L229.34,160.33ZM235.11,158.02C236.225503,158.060087,237.319492,157.706045,238.2,157.02C239.05318,156.331346,239.614089,155.345289,239.77,154.26C240.021663,153.300136,239.798609,152.277804,239.17,151.51C238.446423,150.792689,237.445517,150.427395,236.43,150.51L233.86,150.51L232.54,158Z" fill="rgb(255,255,255)" stroke="none" stroke-width="1"/><path id="ew49CapvXyP20" d="M252.16,157.72L246.51,157.72L245,160.33L242.11,160.33L249.67,148.15L252.46,148.15L255.77,160.33L252.77,160.33ZM251.65,155.58L250.54,150.92L247.79,155.58Z" fill="rgb(255,255,255)" stroke="none" stroke-width="1"/><path id="ew49CapvXyP21" d="M263,156L262.25,160.31L259.43,160.31L260.19,155.96L256.84,148.13L259.84,148.13L262.14,153.55L266.34,148.13L269.11,148.13Z" fill="rgb(255,255,255)" stroke="none" stroke-width="1"/></g></g><g id="ew49CapvXyP22" transform="matrix(1 0 0 1 0.780853 -61.091145)" clip-path="url(#ew49CapvXyP24)"><path id="ew49CapvXyP23" d="M270.460908,175.207748L271.22398,114.066246L284.382489,126.398467Q270.460909,175.207748,270.460908,175.207748Z" transform="matrix(1.107956 0.32695 -0.285297 0.966803 26.323388 -73.00112)" fill="rgb(206,0,0)" stroke="none" stroke-width="0.8"/><clipPath id="ew49CapvXyP24"><path id="ew49CapvXyP25" d="M294.284763,120.785706L308.863806,142.180111L275.995841,187.500001L270.109998,175.25L294.284763,120.785706Z" transform="matrix(1 0 0 1 -28.799998 52.570166)" fill="rgb(255,230,230)" stroke="none" stroke-width="0.8"/></clipPath></g><g id="ew49CapvXyP26" transform="matrix(1 0 0 1 1.780853 -58.091145)" clip-path="url(#ew49CapvXyP28)"><path id="ew49CapvXyP27" d="M274.831633,180.894972L312.425868,169.573241L305.881246,158.183241L274.831633,180.894972Z" transform="matrix(1 0 0 1 2.000004 3.816765)" fill="rgb(206,0,0)" stroke="none" stroke-width="0.8"/><clipPath id="ew49CapvXyP28" transform="matrix(1 0 0 1 -41.198707 18.877104)"><path id="ew49CapvXyP29" d="M308.863806,157.18665L319.876578,176.829516L276.831637,194.136664L270.132902,179.025326L308.863806,157.18665Z" transform="matrix(1 0 0 1 0.624015 -1.112223)" fill="rgb(0,0,0)" stroke="none" stroke-width="0.8"/></clipPath></g></g></svg>