<svg id="e3zuFvhNprx1" xmlns="http://www.w3.org/2000/svg" xmlns:xlink="http://www.w3.org/1999/xlink" viewBox="0 0 400 400" shape-rendering="geometricPrecision" text-rendering="geometricPrecision"><g id="e3zuFvhNprx2"><g id="e3zuFvhNprx3"><path id="e3zuFvhNprx4" d="M42.410000,109.360000C52.154173,103.775962,64.578746,107.108839,70.220000,116.820000C75.845020,126.559541,88.300458,129.895020,98.040000,124.270000C107.779541,118.644979,111.115020,106.189541,105.490000,96.450000L97.050000,81.840000C93.290781,75.534021,93.217579,67.692564,96.858418,61.317503C100.499256,54.942443,107.290234,51.021164,114.631622,51.054814C121.973009,51.088464,128.727755,55.071832,132.310000,61.480000L154.420000,99.760000C158.002245,106.168168,164.756991,110.151536,172.098378,110.185186C179.439766,110.218836,186.230744,106.297557,189.871582,99.922497C193.512421,93.547436,193.439219,85.705979,189.680000,79.400000L187.570000,75.750000C181.947741,66.010458,185.285458,53.557259,195.025000,47.935000C204.764542,42.312741,217.217741,45.650458,222.840000,55.390000L240.080000,85.250000C245.728561,94.958803,258.155430,98.286631,267.900000,92.700000C277.644934,87.121822,290.065155,90.453532,295.710000,100.160000L336.250000,170.370000C341.835727,180.111564,338.507532,192.535336,328.800000,198.180000C319.087568,203.825152,315.755059,216.252821,321.340000,226C326.772806,235.718579,323.391309,247.998764,313.749286,253.566308C304.107263,259.133852,291.781203,255.923600,286.080000,246.360000L274.430000,226.180000C268.807741,216.440459,256.354542,213.102742,246.615000,218.725000C236.875459,224.347259,233.537741,236.800458,239.160000,246.540000L241.820000,251.150000C247.438727,260.899747,244.106155,273.357753,234.370000,279C224.661197,284.648561,221.333369,297.075430,226.920000,306.820000L237,324.250000C240.636964,330.550379,240.636445,338.312466,236.998639,344.612358C233.360833,350.912251,226.638409,354.792845,219.363639,354.792358C212.088869,354.791872,205.366964,350.910379,201.730000,344.610000L194.580000,332.220000C188.931439,322.511197,176.504570,319.183369,166.760000,324.770000C157.029679,330.321955,144.643099,326.997746,139,317.320000L35,137.180000C29.413369,127.435430,32.741197,115.008561,42.450000,109.360000Z" fill="rgb(255,238,199)" fill-rule="evenodd" stroke="none" stroke-width="1"/><path id="e3zuFvhNprx5" d="M42.410000,109.360000C52.154173,103.775962,64.578746,107.108839,70.220000,116.820000C75.845020,126.559541,88.300458,129.895020,98.040000,124.270000C107.779541,118.644979,111.115020,106.189541,105.490000,96.450000L97.050000,81.840000C93.290781,75.534021,93.217579,67.692564,96.858418,61.317503C100.499256,54.942443,107.290234,51.021164,114.631622,51.054814C121.973009,51.088464,128.727755,55.071832,132.310000,61.480000L154.420000,99.760000C158.002245,106.168168,164.756991,110.151536,172.098378,110.185186C179.439766,110.218836,186.230744,106.297557,189.871582,99.922497C193.512421,93.547436,193.439219,85.705979,189.680000,79.400000L187.570000,75.750000C181.947741,66.010458,185.285458,53.557259,195.025000,47.935000C204.764542,42.312741,217.217741,45.650458,222.840000,55.390000L240.080000,85.250000C245.728561,94.958803,258.155430,98.286631,267.900000,92.700000C277.644934,87.121822,290.065155,90.453532,295.710000,100.160000L336.250000,170.370000C341.835727,180.111564,338.507532,192.535336,328.800000,198.180000C319.087568,203.825152,315.755059,216.252821,321.340000,226C326.772806,235.718579,323.391309,247.998764,313.749286,253.566308C304.107263,259.133852,291.781203,255.923600,286.080000,246.360000L274.430000,226.180000C268.807741,216.440459,256.354542,213.102742,246.615000,218.725000C236.875459,224.347259,233.537741,236.800458,239.160000,246.540000L241.820000,251.150000C247.438727,260.899747,244.106155,273.357753,234.370000,279C224.661197,284.648561,221.333369,297.075430,226.920000,306.820000L237,324.250000C240.636964,330.550379,240.636445,338.312466,236.998639,344.612358C233.360833,350.912251,226.638409,354.792845,219.363639,354.792358C212.088869,354.791872,205.366964,350.910379,201.730000,344.610000L194.580000,332.220000C188.931439,322.511197,176.504570,319.183369,166.760000,324.770000C157.029679,330.321955,144.643099,326.997746,139,317.320000L35,137.180000C29.413369,127.435430,32.741197,115.008561,42.450000,109.360000ZM57.010000,108.060000C49.659011,106.099797,41.850657,108.755677,37.219365,114.791451C32.588072,120.827226,32.043847,129.056923,35.840000,135.650000L139.840000,315.790000C145.062454,324.771741,156.557976,327.850021,165.570000,322.680000C176.044532,316.699318,189.381537,320.267748,195.470000,330.680000L202.620000,343.070000C207.819761,352.077764,219.337236,355.164761,228.345000,349.965000C237.352764,344.765239,240.439761,333.247764,235.240000,324.240000L225.150000,306.770000C219.169318,296.295468,222.737748,282.958463,233.150000,276.870000C242.125988,271.643779,245.206618,260.156154,240.050000,251.140000L237.390000,246.530000C231.542545,236.080374,235.176678,222.871553,245.546540,216.883784C255.916403,210.896016,269.173006,214.351785,275.300000,224.640000L287,244.830000C292.402448,253.372814,303.585927,256.126425,312.337155,251.068548C321.088384,246.010671,324.285278,234.945752,319.580000,226C313.558358,215.530801,317.134923,202.163388,327.580000,196.100000C336.557046,190.873956,339.634161,179.382787,334.470000,170.370000L293.930000,100.160000C288.707673,91.185286,277.223149,88.104290,268.210000,93.260000C257.740801,99.281642,244.373388,95.705077,238.310000,85.260000L221.070000,55.390000C215.794677,46.550821,204.399020,43.585944,195.484729,48.733325C186.570438,53.880706,183.441630,65.232449,188.460000,74.220000L190.570000,77.870000C196.614757,88.341319,193.026319,101.730243,182.555000,107.775000C172.083681,113.819757,158.694757,110.231319,152.650000,99.760000L130.550000,61.480000C125.350239,52.472236,113.832764,49.385239,104.825000,54.585000C95.817236,59.784761,92.730239,71.302236,97.930000,80.310000L106.370000,94.920000C112.414757,105.391319,108.826319,118.780243,98.355000,124.825000C87.883681,130.869757,74.494757,127.281319,68.450000,116.810000C65.952136,112.483800,61.830356,109.333968,57,108.060000Z" fill="rgb(250,221,192)" fill-rule="evenodd" stroke="none" stroke-width="1"/></g><g id="e3zuFvhNprx6"><g id="e3zuFvhNprx7"><path id="e3zuFvhNprx8" d="M312.250000,101.200000L324.480000,94.140000C325.092726,95.182507,326.429541,95.538991,327.480000,94.940000L327.480000,94.940000C328.522507,94.327274,328.878991,92.990459,328.280000,91.940000L361.930000,72.520000C363.896676,71.386398,366.409777,72.057155,367.550000,74.020000L374.450000,86C375.583602,87.966676,374.912845,90.479777,372.950000,91.620000L339.300000,111C338.687139,109.958479,337.353784,109.598473,336.300000,110.190000L336.300000,110.190000C335.252812,110.799159,334.895173,112.140303,335.500000,113.190000L323.220000,120.270000L312.220000,101.270000Z" fill="rgb(242,200,158)" fill-rule="evenodd" stroke="none" stroke-width="1"/><path id="e3zuFvhNprx9" d="M374.070000,85.280000L374.450000,85.950000C375.583602,87.916676,374.912845,90.429777,372.950000,91.570000L339.300000,111C338.687139,109.958479,337.353784,109.598473,336.300000,110.190000L336.300000,110.190000C335.252812,110.799159,334.895173,112.140303,335.500000,113.190000L323.220000,120.270000L320.780000,116.040000Z" fill="rgb(225,180,123)" fill-rule="evenodd" stroke="none" stroke-width="1"/><path id="e3zuFvhNprx10" d="M312.250000,101.200000L324.480000,94.140000C324.626208,94.388637,324.819882,94.606095,325.050000,94.780000L312.630000,102L312.230000,101.310000ZM328.570000,92.750000C328.529941,92.461281,328.434891,92.182922,328.290000,91.930000L361.940000,72.510000C362.717934,72.054061,363.627099,71.874343,364.520000,72L328.570000,92.750000Z" fill="rgb(250,221,192)" fill-rule="evenodd" stroke="none" stroke-width="1"/></g><g id="e3zuFvhNprx11"><path id="e3zuFvhNprx12" d="M76.750000,237.160000L64.510000,244.230000C64.803217,244.733568,64.883655,245.333230,64.733511,245.896270C64.583367,246.459309,64.215023,246.939296,63.710000,247.230000L63.710000,247.230000C62.660303,247.834827,61.319159,247.477188,60.710000,246.430000L27.050000,265.850000C25.090580,266.997699,24.421349,269.509547,25.550000,271.480000L32.440000,283.410000C33.580409,285.371771,36.089947,286.046042,38.060000,284.920000L71.710000,265.490000C71.111009,264.439541,71.467493,263.102726,72.510000,262.490000L72.510000,262.490000C73.563060,261.892711,74.900665,262.253864,75.510000,263.300000L87.780000,256.220000L76.780000,237.220000Z" fill="rgb(242,200,158)" fill-rule="evenodd" stroke="none" stroke-width="1"/><path id="e3zuFvhNprx13" d="M32.050000,282.740000L32.440000,283.410000C33.580409,285.371771,36.089947,286.046042,38.060000,284.920000L71.710000,265.490000C71.111009,264.439541,71.467493,263.102726,72.510000,262.490000L72.510000,262.490000C73.563060,261.892711,74.900665,262.253864,75.510000,263.300000L87.780000,256.220000L85.350000,252L32.050000,282.770000Z" fill="rgb(225,180,123)" fill-rule="evenodd" stroke="none" stroke-width="1"/><path id="e3zuFvhNprx14" d="M76.750000,237.160000L64.510000,244.230000C64.660693,244.480261,64.756158,244.759839,64.790000,245.050000L77.210000,237.880000L76.810000,237.180000ZM61.270000,247.080000C61.039770,246.902216,60.846197,246.681475,60.700000,246.430000L27.050000,265.850000C26.266794,266.305521,25.657977,267.009356,25.320000,267.850000L61.320000,247.090000Z" fill="rgb(250,221,192)" fill-rule="evenodd" stroke="none" stroke-width="1"/></g><g id="e3zuFvhNprx15"><path id="e3zuFvhNprx16" d="M78.310000,222.920000L299.120000,95.430000C303.159462,93.116649,308.308754,94.496642,310.650000,98.520000L324.770000,123C327.085045,127.036854,325.709731,132.185350,321.690000,134.530000L100.880000,262C96.843146,264.315045,91.694650,262.939731,89.350000,258.920000L75.230000,234.440000C72.915863,230.406153,74.291541,225.260757,78.310000,222.920000Z" fill="rgb(242,200,158)" fill-rule="evenodd" stroke="none" stroke-width="1"/><path id="e3zuFvhNprx17" d="M322.370000,118.810000L324.770000,122.980000C327.085045,127.016854,325.709731,132.165350,321.690000,134.510000L100.880000,262C96.843146,264.315045,91.694650,262.939731,89.350000,258.920000L86.940000,254.750000C89.284650,258.769731,94.433146,260.145045,98.470000,257.830000L129.340000,240L113.890000,231.520000L130.800000,239.160000L141.330000,233.080000L138.810000,228.080000L145.180000,230.800000L277.180000,154.580000L278.240000,132.340000L278.950000,153.560000L302.660000,139.870000L302.480000,134.870000L303.910000,139.130000L319.260000,130.270000C323.283358,127.928754,324.663351,122.779462,322.350000,118.740000Z" fill="rgb(225,180,123)" fill-rule="evenodd" stroke="none" stroke-width="1"/><path id="e3zuFvhNprx18" d="M78.310000,222.920000L299.120000,95.430000C303.159462,93.116649,308.308754,94.496642,310.650000,98.520000L311.220000,99.520000C308.886252,95.493210,303.735691,94.111679,299.700000,96.430000L296,98.540000L296.450000,101.490000L294.280000,99.490000L260.540000,119L260.670000,124.250000L259.870000,119.390000L106.440000,208L108.080000,210.330000L104.860000,208.910000L89.750000,217.640000L100.370000,223.910000L88.250000,218.500000L78.890000,223.910000C74.867913,226.247349,73.487554,231.393544,75.800000,235.430000L75.230000,234.430000C72.915863,230.396153,74.291541,225.250757,78.310000,222.910000Z" fill="rgb(250,221,192)" fill-rule="evenodd" stroke="none" stroke-width="1"/></g></g></g></svg>