<svg id="e0P8E13N7k41" xmlns="http://www.w3.org/2000/svg" xmlns:xlink="http://www.w3.org/1999/xlink" viewBox="0 0 300 300" shape-rendering="geometricPrecision" text-rendering="geometricPrecision"><style><![CDATA[#e0P8E13N7k44_ts {animation: e0P8E13N7k44_ts__ts 3000ms linear infinite normal forwards}@keyframes e0P8E13N7k44_ts__ts { 0% {transform: translate(405.152359px,368.199982px) scale(0.900897,0.717655)} 6.666667% {transform: translate(405.152359px,368.199982px) scale(0.900897,0.717655);animation-timing-function: cubic-bezier(0.68,-0.55,0.265,1.55)} 23.333333% {transform: translate(405.152359px,368.199982px) scale(0.900897,0.717655);animation-timing-function: cubic-bezier(0.68,-0.55,0.265,1.55)} 53.333333% {transform: translate(405.152359px,368.199982px) scale(1,1)} 100% {transform: translate(405.152359px,368.199982px) scale(1,1)}} #e0P8E13N7k46 {animation-name: e0P8E13N7k46__m, e0P8E13N7k46_c_o;animation-duration: 3000ms;animation-fill-mode: forwards;animation-timing-function: linear;animation-direction: normal;animation-iteration-count: infinite;}@keyframes e0P8E13N7k46__m { 0% {d: path('M556.668872,396.2L254.78891,396.2C252.98891,396.2,251.58891,394.8,251.58891,393L251.58891,343.3C251.58891,341.5,252.98891,340.1,254.78891,340.1L556.668872,340.1C558.468872,340.1,559.868872,341.5,559.868872,343.3L559.868872,393C559.868872,394.8,558.468872,396.2,556.668872,396.2Z')} 20% {d: path('M556.668872,396.2L254.78891,396.2C252.98891,396.2,251.58891,394.8,251.58891,393L251.58891,343.3C251.58891,341.5,252.98891,340.1,254.78891,340.1L556.668872,340.1C558.468872,340.1,559.868872,341.5,559.868872,343.3L559.868872,393C559.868872,394.8,558.468872,396.2,556.668872,396.2Z');animation-timing-function: cubic-bezier(0.68,-0.55,0.265,1.55)} 53.333333% {d: path('M560.9,396.2L396.36,396.2C394.56,396.2,393.16,394.8,393.16,393L393.16,343.3C393.16,341.5,394.56,340.1,396.36,340.1L560.9,340.1C562.7,340.1,564.1,341.5,564.1,343.3L564.1,393C564.1,394.8,562.7,396.2,560.9,396.2Z')} 100% {d: path('M560.9,396.2L396.36,396.2C394.56,396.2,393.16,394.8,393.16,393L393.16,343.3C393.16,341.5,394.56,340.1,396.36,340.1L560.9,340.1C562.7,340.1,564.1,341.5,564.1,343.3L564.1,393C564.1,394.8,562.7,396.2,560.9,396.2Z')}}@keyframes e0P8E13N7k46_c_o { 0% {opacity: 1} 40% {opacity: 1} 46.666667% {opacity: 0} 100% {opacity: 0}} #e0P8E13N7k413 {animation: e0P8E13N7k413__m 3000ms linear infinite normal forwards}@keyframes e0P8E13N7k413__m { 0% {d: path('M545,370.7L545,380.3L538.8,380.3L538.8,370.7L528.4,353.4L535,353.4L542.2,365.4L546.4,353.4L552.5,353.4L545,370.7Z')} 36.666667% {d: path('M545,370.7L545,380.3L538.8,380.3L538.8,370.7L528.4,353.4L535,353.4L542.2,365.4L546.4,353.4L552.5,353.4L545,370.7Z')} 46.666667% {d: path('M545,370.7L545,380.3L538.8,380.3L538.8,370.7L528.4,353.4L535,353.4L542.2,365.4L549.4,353.4L555.5,353.4L545,370.7Z')} 100% {d: path('M545,370.7L545,380.3L538.8,380.3L538.8,370.7L528.4,353.4L535,353.4L542.2,365.4L549.4,353.4L555.5,353.4L545,370.7Z')}} #e0P8E13N7k414_to {animation: e0P8E13N7k414_to__to 3000ms linear infinite normal forwards}@keyframes e0P8E13N7k414_to__to { 0% {transform: translate(405.199967px,366.755386px);animation-timing-function: cubic-bezier(0.68,-0.55,0.265,1.55)} 23.333333% {transform: translate(405.199967px,366.755386px);animation-timing-function: cubic-bezier(0.68,-0.55,0.265,1.55)} 53.333333% {transform: translate(325.149979px,366.755386px)} 100% {transform: translate(325.149979px,366.755386px)}} #e0P8E13N7k414_ts {animation: e0P8E13N7k414_ts__ts 3000ms linear infinite normal forwards}@keyframes e0P8E13N7k414_ts__ts { 0% {transform: scale(0.699153,0.699153);animation-timing-function: cubic-bezier(0.68,-0.55,0.265,1.55)} 23.333333% {transform: scale(1,1);animation-timing-function: cubic-bezier(0.68,-0.55,0.265,1.55)} 53.333333% {transform: scale(1,1)} 100% {transform: scale(1,1)}} #e0P8E13N7k414 {animation: e0P8E13N7k414_c_o 3000ms linear infinite normal forwards}@keyframes e0P8E13N7k414_c_o { 0% {opacity: 0} 10% {opacity: 1;animation-timing-function: cubic-bezier(0.68,-0.55,0.265,1.55)} 53.333333% {opacity: 1} 100% {opacity: 1}} #e0P8E13N7k415 {animation: e0P8E13N7k415_f_p 3000ms linear infinite normal forwards}@keyframes e0P8E13N7k415_f_p { 0% {fill: rgb(33,31,30)} 40% {fill: rgb(33,31,30)} 53.333333% {fill: rgb(255,255,255)} 100% {fill: rgb(255,255,255)}} #e0P8E13N7k416 {animation: e0P8E13N7k416_f_p 3000ms linear infinite normal forwards}@keyframes e0P8E13N7k416_f_p { 0% {fill: rgb(33,31,30)} 40% {fill: rgb(33,31,30)} 53.333333% {fill: rgb(255,255,255)} 100% {fill: rgb(255,255,255)}} #e0P8E13N7k417 {animation: e0P8E13N7k417_f_p 3000ms linear infinite normal forwards}@keyframes e0P8E13N7k417_f_p { 0% {fill: rgb(33,31,30)} 40% {fill: rgb(33,31,30)} 53.333333% {fill: rgb(255,255,255)} 100% {fill: rgb(255,255,255)}} #e0P8E13N7k418 {animation: e0P8E13N7k418_f_p 3000ms linear infinite normal forwards}@keyframes e0P8E13N7k418_f_p { 0% {fill: rgb(33,31,30)} 40% {fill: rgb(33,31,30)} 53.333333% {fill: rgb(255,255,255)} 100% {fill: rgb(255,255,255)}} #e0P8E13N7k419 {animation: e0P8E13N7k419_f_p 3000ms linear infinite normal forwards}@keyframes e0P8E13N7k419_f_p { 0% {fill: rgb(33,31,30)} 40% {fill: rgb(33,31,30)} 53.333333% {fill: rgb(255,255,255)} 100% {fill: rgb(255,255,255)}}]]></style><g id="e0P8E13N7k42" transform="matrix(0.7 0 0 0.7 -133.639998 -107.739998)"><path id="e0P8E13N7k43" d="M226.1,403.2L226.1,333.2C226.1,328.7,229.8,325,234.3,325L576.1,325C580.6,325,584.3,328.7,584.3,333.2L584.3,403.2C584.3,407.7,580.6,411.4,576.1,411.4L234.3,411.4C229.8,411.4,226.1,407.7,226.1,403.2Z" fill="rgb(255,255,255)" stroke="none" stroke-width="1"/><g id="e0P8E13N7k44_ts" transform="translate(405.152359,368.199982) scale(0.900897,0.717655)"><path id="e0P8E13N7k44" d="M573.1,403.4L237.3,403.4C235.5,403.4,234.1,402,234.1,400.2L234.1,336.2C234.1,334.4,235.5,333,237.3,333L573,333C574.8,333,576.2,334.4,576.2,336.2L576.2,400.2C576.3,401.9,574.8,403.4,573.1,403.4Z" transform="translate(-405.152359,-368.199982)" fill="rgb(255,255,255)" stroke="rgb(33,31,30)" stroke-width="3" stroke-miterlimit="10"/></g><path id="e0P8E13N7k45" d="M560.9,396.2L249.5,396.2C247.7,396.2,246.3,394.8,246.3,393L246.3,343.3C246.3,341.5,247.7,340.1,249.5,340.1L560.9,340.1C562.7,340.1,564.1,341.5,564.1,343.3L564.1,393C564.1,394.8,562.7,396.2,560.9,396.2Z" fill="rgb(33,31,30)" stroke="none" stroke-width="1"/><path id="e0P8E13N7k46" d="M556.668872,396.2L254.78891,396.2C252.98891,396.2,251.58891,394.8,251.58891,393L251.58891,343.3C251.58891,341.5,252.98891,340.1,254.78891,340.1L556.668872,340.1C558.468872,340.1,559.868872,341.5,559.868872,343.3L559.868872,393C559.868872,394.8,558.468872,396.2,556.668872,396.2Z" transform="matrix(0.945374 0 0 0.769429 22.134457 84.884712)" fill="rgb(252,42,31)" stroke="none" stroke-width="1"/><g id="e0P8E13N7k47"><path id="e0P8E13N7k48" d="M413.4,358.3L413.4,365.4L425.9,365.4L425.9,370.4L413.4,370.4L413.4,380.2L407.2,380.2L407.2,353.2L427.6,353.2L427.6,358.2L413.4,358.2Z" fill="rgb(252,42,31)" stroke="none" stroke-width="1"/><path id="e0P8E13N7k49" d="M449,380.3L443.8,372.8L443.5,372.8L438.1,372.8L438.1,380.3L431.9,380.3L431.9,353.3L443.6,353.3C446,353.3,448.1,353.7,449.8,354.5C451.6,355.3,452.9,356.4,453.9,357.9C454.9,359.4,455.3,361.1,455.3,363.1C455.3,365.1,454.8,366.8,453.9,368.3C453,369.8,451.6,370.9,449.8,371.6L455.8,380.3L449,380.3ZM447.4,359.6C446.4,358.8,445,358.4,443.1,358.4L438,358.4L438,367.8L443.1,367.8C445,367.8,446.4,367.4,447.4,366.6C448.4,365.8,448.9,364.6,448.9,363.1C448.9,361.6,448.4,360.4,447.4,359.6Z" fill="rgb(252,42,31)" stroke="none" stroke-width="1"/><path id="e0P8E13N7k410" d="M460.1,353.3L466.3,353.3L466.3,380.3L460.1,380.3L460.1,353.3Z" fill="rgb(252,42,31)" stroke="none" stroke-width="1"/><path id="e0P8E13N7k411" d="M472.8,353.3L485,353.3C487.9,353.3,490.5,353.9,492.8,355C495.1,356.1,496.8,357.7,498,359.7C499.2,361.7,499.9,364.1,499.9,366.8C499.9,369.5,499.3,371.9,498,373.9C496.8,375.9,495,377.5,492.8,378.6C490.6,379.7,488,380.3,485,380.3L472.7,380.3L472.7,353.3ZM484.7,375.2C487.4,375.2,489.5,374.4,491.2,372.9C492.8,371.4,493.6,369.4,493.6,366.8C493.6,364.2,492.8,362.2,491.2,360.7C489.6,359.2,487.4,358.4,484.7,358.4L479,358.4L479,375.1L484.7,375.1Z" fill="rgb(252,42,31)" stroke="none" stroke-width="1"/><path id="e0P8E13N7k412" d="M522,374.5L509.5,374.5L507.1,380.3L500.7,380.3L512.7,353.3L518.9,353.3L531,380.3L524.5,380.3L522,374.5ZM520,369.8L515.7,359.5L511.4,369.8L520,369.8Z" fill="rgb(252,42,31)" stroke="none" stroke-width="1"/><path id="e0P8E13N7k413" d="M545,370.7L545,380.3L538.8,380.3L538.8,370.7L528.4,353.4L535,353.4L542.2,365.4L546.4,353.4L552.5,353.4L545,370.7Z" fill="rgb(252,42,31)" stroke="none" stroke-width="1"/></g><g id="e0P8E13N7k414_to" transform="translate(405.199967,366.755386)"><g id="e0P8E13N7k414_ts" transform="scale(0.699153,0.699153)"><g id="e0P8E13N7k414" transform="translate(-325.149979,-366.755386)" opacity="0"><path id="e0P8E13N7k415" d="M280.6,368.7C281.5,369.8,281.9,371.2,281.9,372.9C281.9,375.3,281,377.1,279.1,378.4C277.3,379.7,274.6,380.3,271.1,380.3L257.2,380.3L257.2,353.3L270.4,353.3C273.7,353.3,276.2,353.9,278,355.2C279.8,356.5,280.6,358.2,280.6,360.3C280.6,361.6,280.3,362.8,279.7,363.8C279.1,364.8,278.2,365.6,277.1,366.2C278.5,366.8,279.7,367.6,280.6,368.7ZM263.3,358L263.3,364.4L269.5,364.4C271,364.4,272.2,364.1,273,363.6C273.8,363.1,274.2,362.3,274.2,361.2C274.2,360.1,273.8,359.4,273,358.8C272.2,358.3,271,358,269.5,358L263.3,358ZM274.3,374.8C275.1,374.3,275.6,373.4,275.6,372.3C275.6,370.1,273.9,368.9,270.6,368.9L263.3,368.9L263.3,375.6L270.6,375.6C272.3,375.6,273.5,375.3,274.3,374.8Z" fill="rgb(33,31,30)" stroke="none" stroke-width="1"/><path id="e0P8E13N7k416" d="M286.6,353.3L292.8,353.3L292.8,375.2L306.3,375.2L306.3,380.3L286.5,380.3L286.5,353.3Z" fill="rgb(33,31,30)" stroke="none" stroke-width="1"/><path id="e0P8E13N7k417" d="M327.9,374.5L315.4,374.5L313,380.3L306.6,380.3L318.6,353.3L324.8,353.3L336.9,380.3L330.4,380.3L327.9,374.5ZM325.9,369.8L321.6,359.5L317.3,369.8L325.9,369.8Z" fill="rgb(33,31,30)" stroke="none" stroke-width="1"/><path id="e0P8E13N7k418" d="M344.7,379C342.5,377.8,340.7,376.1,339.5,374C338.2,371.9,337.6,369.5,337.6,366.8C337.6,364.1,338.2,361.7,339.5,359.6C340.8,357.5,342.5,355.8,344.7,354.6C346.9,353.4,349.4,352.8,352.2,352.8C354.5,352.8,356.6,353.2,358.5,354C360.4,354.8,362,356,363.3,357.5L359.3,361.2C357.5,359.1,355.2,358,352.5,358C350.8,358,349.3,358.4,348,359.1C346.7,359.8,345.7,360.9,344.9,362.2C344.2,363.5,343.8,365,343.8,366.7C343.8,368.4,344.2,369.9,344.9,371.2C345.6,372.5,346.7,373.5,348,374.3C349.3,375,350.8,375.4,352.5,375.4C355.2,375.4,357.5,374.3,359.3,372.2L363.3,375.9C362,377.5,360.4,378.7,358.5,379.5C356.6,380.3,354.5,380.7,352.1,380.7C349.4,380.8,346.9,380.2,344.7,379Z" fill="rgb(33,31,30)" stroke="none" stroke-width="1"/><path id="e0P8E13N7k419" d="M377.3,369.7L373.7,373.5L373.7,380.3L367.5,380.3L367.5,353.3L373.7,353.3L373.7,365.9L385.6,353.3L392.5,353.3L381.3,365.3L393.1,380.2L385.8,380.2L377.3,369.7Z" fill="rgb(33,31,30)" stroke="none" stroke-width="1"/></g></g></g></g></svg>