<svg id="s1" xmlns="http://www.w3.org/2000/svg" xmlns:xlink="http://www.w3.org/1999/xlink" viewBox="0 0 400 400"><defs><linearGradient id="s7-fill" x1="-8.640000" y1="25.520000" x2="21.420000" y2="85.180000" spreadMethod="pad" gradientUnits="userSpaceOnUse"><stop id="s7-fill-0" offset="9%" stop-color="rgb(194,239,255)"/><stop id="s7-fill-1" offset="30%" stop-color="rgb(176,234,255)"/><stop id="s7-fill-2" offset="80%" stop-color="rgb(155,218,242)"/></linearGradient><linearGradient id="s9-fill" x1="49.420000" y1="-11.020000" x2="66.750000" y2="23.360000" spreadMethod="pad" gradientUnits="userSpaceOnUse"><stop id="s9-fill-0" offset="9%" stop-color="rgb(194,239,255)"/><stop id="s9-fill-1" offset="30%" stop-color="rgb(176,234,255)"/><stop id="s9-fill-2" offset="80%" stop-color="rgb(155,218,242)"/></linearGradient><linearGradient id="s11-fill" x1="176.580000" y1="110.400000" x2="223.710000" y2="203.940000" spreadMethod="pad" gradientUnits="userSpaceOnUse"><stop id="s11-fill-0" offset="9%" stop-color="rgb(194,239,255)"/><stop id="s11-fill-1" offset="30%" stop-color="rgb(176,234,255)"/><stop id="s11-fill-2" offset="80%" stop-color="rgb(155,218,242)"/></linearGradient><linearGradient id="s13-fill" x1="183.150000" y1="130.930000" x2="209.780000" y2="201.640000" spreadMethod="pad" gradientUnits="userSpaceOnUse"><stop id="s13-fill-0" offset="0%" stop-color="rgb(224,65,65)"/><stop id="s13-fill-1" offset="76%" stop-color="rgb(171,50,50)"/><stop id="s13-fill-2" offset="100%" stop-color="rgb(163,36,36)"/></linearGradient></defs><g id="s3"><g id="s5"><rect id="s7" width="19.410000" height="123.870000" rx="9.710000" ry="9.710000" transform="translate(190.290000,199)" fill="url(#s7-fill)" stroke="none" stroke-width="1"/><rect id="s9" width="120" height="19.940000" rx="9.970000" ry="9.970000" transform="translate(140,306.540000)" fill="url(#s9-fill)" stroke="none" stroke-width="1"/><path id="s11" d="M119.510000,118.140000L119.510000,179C119.619862,223.412680,155.587364,259.393588,200,259.520000L200,259.520000C244.412636,259.393588,280.380138,223.412680,280.490000,179L280.490000,118.140000C280.490000,112.473559,275.896442,107.880000,270.230000,107.880000L129.770000,107.880000C127.048879,107.880000,124.439208,108.960961,122.515084,110.885084C120.590961,112.809208,119.510000,115.418879,119.510000,118.140000Z" fill="url(#s11-fill)" stroke="none" stroke-width="1"/></g><path id="s13" d="M135.510000,162L135.510000,178C135.510000,213.390000,163.610000,242.920000,198.990000,243.460000C216.257336,243.711459,232.905642,237.034542,245.214112,224.921504C257.522582,212.808466,264.465082,196.269149,264.490000,179L264.490000,162C264.490000,160.907308,264.055930,159.859370,263.283280,159.086720C262.510630,158.314070,261.462692,157.880000,260.370000,157.880000L139.640000,157.880000C138.545576,157.877344,137.495067,158.310241,136.720253,159.083179C135.945439,159.856117,135.509997,160.905573,135.510000,162Z" fill="url(#s13-fill)" stroke="none" stroke-width="1"/></g></svg>