<svg id="esT0codjtm81" xmlns="http://www.w3.org/2000/svg" xmlns:xlink="http://www.w3.org/1999/xlink" viewBox="0 0 400 400" shape-rendering="geometricPrecision" text-rendering="geometricPrecision"><g id="esT0codjtm82"><g id="esT0codjtm83"><path id="esT0codjtm84" d="M200,25C133.775536,25,80.090000,78.685536,80.090000,144.910000C80.090000,211.134464,133.775536,264.820000,200,264.820000C266.224464,264.820000,319.910000,211.134464,319.910000,144.910000C319.910000,113.107891,307.276661,82.608313,284.789174,60.120826C262.301687,37.633339,231.802109,25,200,25Z" fill="rgb(153,0,0)" fill-rule="evenodd" stroke="none" stroke-width="1"/><path id="esT0codjtm85" d="M200,25C157.766274,25.010883,118.650868,47.233390,97.018657,83.506453C75.386445,119.779517,74.425985,164.756536,94.490000,201.920000C128.032247,257.750088,200.002595,276.604290,256.609774,244.390810C313.216953,212.177329,333.766721,140.672651,302.900000,83.320000C281.246495,47.133087,242.170686,24.986331,200,25Z" fill="rgb(204,51,0)" fill-rule="evenodd" stroke="none" stroke-width="1"/><path id="esT0codjtm86" d="M275.530000,51.780000C258.813603,38.186007,238.730790,29.367814,217.410000,26.260000C233.603087,32.049233,248.163659,41.653380,259.860000,54.260000C279.490000,75.200000,291.640000,104.170000,291.640000,136.210000C291.807419,161.997362,282.153974,186.881799,264.640000,205.810000C248.070000,223.480000,225.200000,234.410000,199.970000,234.410000C174.740000,234.410000,151.870000,223.480000,135.300000,205.810000C117.786026,186.881799,108.132581,161.997362,108.300000,136.210000C108.156512,115.013553,116.082657,94.556448,130.470000,78.990000C144.070000,64.480000,162.840000,55.510000,183.550000,55.510000C204.260000,55.510000,223.020000,64.510000,236.620000,78.990000C251.011680,94.553742,258.938517,115.012631,258.790000,136.210000C258.905016,152.794234,252.717968,168.803355,241.480000,181C230.864383,192.716746,215.790549,199.400133,199.980000,199.400133C184.169451,199.400133,169.095617,192.716746,158.480000,181C147.201262,168.792334,140.990962,152.749954,141.110000,136.130000C141.016001,124.095589,145.510898,112.477514,153.680000,103.640000C161.330099,95.208662,172.185296,90.400426,183.570000,90.400426C194.954704,90.400426,205.809901,95.208662,213.460000,103.640000C221.624758,112.480222,226.118963,124.096510,226.030000,136.130000C226.093511,143.586811,223.315290,150.788019,218.260000,156.270000C213.581170,161.440647,206.933309,164.390640,199.960000,164.390640C192.986691,164.390640,186.338830,161.440647,181.660000,156.270000C176.604710,150.788019,173.826489,143.586811,173.890000,136.130000C173.868208,133.253227,174.940613,130.475700,176.890000,128.360000C178.597428,126.449886,181.038000,125.357991,183.600000,125.357991C186.162000,125.357991,188.602572,126.449886,190.310000,128.360000C192.260254,130.475161,193.332796,133.253044,193.310000,136.130000C193.310000,139.841353,196.318647,142.850000,200.030000,142.850000C203.741353,142.850000,206.750000,139.841353,206.750000,136.130000C206.783077,129.824380,204.408116,123.743907,200.110000,119.130000C195.877263,114.492764,189.888537,111.850730,183.610000,111.850730C177.331463,111.850730,171.342737,114.492764,167.110000,119.130000C162.814654,123.744903,160.443199,129.825559,160.480000,136.130000C160.427580,147.005205,164.518027,157.492339,171.920000,165.460000C179.119569,173.343729,189.303531,177.835082,199.980000,177.835082C210.656469,177.835082,220.840431,173.343729,228.040000,165.460000C235.441973,157.492339,239.532420,147.005205,239.480000,136.130000C239.561901,120.677374,233.754915,105.773732,223.240000,94.450000C213.065800,83.307861,198.673460,76.960095,183.585000,76.960095C168.496540,76.960095,154.104200,83.307861,143.930000,94.450000C133.418554,105.775906,127.612125,120.678120,127.690000,136.130000C127.569707,156.160190,135.078034,175.485193,148.690000,190.180000C161.837235,204.583366,180.438546,212.789560,199.940000,212.789560C219.441454,212.789560,238.042765,204.583366,251.190000,190.180000C264.801966,175.485193,272.310293,156.160190,272.190000,136.130000C272.322400,111.515168,263.084033,87.772136,246.350000,69.720000C230.380000,52.620000,208.170000,42,183.610000,42C159.050000,42,136.830000,52.600000,120.770000,69.730000C104.031633,87.779423,94.792572,111.524239,94.930000,136.140000C94.764038,165.338961,105.719156,193.506199,125.570000,214.920000C144.570000,235.220000,170.910000,247.780000,200,247.780000C229.090000,247.780000,255.400000,235.220000,274.430000,214.920000C294.280844,193.506199,305.235962,165.338961,305.070000,136.140000C305.214819,105.460134,294.782485,75.667590,275.530000,51.780000Z" fill="rgb(255,102,102)" fill-rule="evenodd" stroke="none" stroke-width="1"/><path id="esT0codjtm87" d="M275.530000,51.780000C260.514753,39.573128,242.759047,31.196305,223.790000,27.370000C238.056525,33.271637,250.886700,42.172955,261.410000,53.470000C281.050000,74.410000,293.190000,103.390000,293.190000,135.470000C293.358898,161.254655,283.705074,186.136493,266.190000,205.060000C258.138919,213.690432,248.499754,220.688079,237.800000,225.670000C226.022340,231.396583,213.096066,234.368258,200,234.360000C174.770000,234.360000,151.900000,223.430000,135.330000,205.760000C117.816026,186.831799,108.162581,161.947362,108.330000,136.160000C108.186512,114.963553,116.112657,94.506448,130.500000,78.940000C137.163414,71.825929,145.144336,66.072873,154,62C163.701541,57.241293,174.364206,54.768048,185.170000,54.770000C205.880000,54.770000,224.640000,63.770000,238.240000,78.250000C252.633183,93.816809,260.560057,114.279369,260.410000,135.480000C260.506919,152.085456,254.282545,168.105800,243,180.290000C237.758631,185.919851,231.462888,190.465832,224.470000,193.670000C216.851165,197.433398,208.467635,199.390696,199.970000,199.390000C184.197613,199.288742,169.179393,192.625653,158.520000,181C147.241262,168.792334,141.030962,152.749954,141.150000,136.130000C141.056001,124.095589,145.550898,112.477514,153.720000,103.640000C157.548208,99.524911,162.157939,96.213791,167.280000,93.900000C172.827794,91.111649,178.950900,89.659637,185.160000,89.660000C196.530877,89.725311,207.361023,94.522605,215.050000,102.900000C223.215393,111.743830,227.709498,123.363432,227.620000,135.400000C227.682505,142.856628,224.904421,150.057479,219.850000,155.540000C217.419973,158.143727,214.483139,160.222993,211.220000,161.650000C207.755505,163.457767,203.907761,164.407700,200,164.420000C193.036524,164.374588,186.406205,161.432610,181.700000,156.300000C176.644710,150.818019,173.866489,143.616811,173.930000,136.160000C173.908208,133.283227,174.980613,130.505700,176.930000,128.390000C177.951789,127.289350,179.219725,126.446343,180.630000,125.930000C182.006693,125.100949,183.582951,124.661947,185.190000,124.660000C187.746070,124.685503,190.176568,125.772164,191.900000,127.660000C193.851992,129.774079,194.924810,132.552677,194.900000,135.430000C194.900000,139.141354,197.908646,142.150000,201.620000,142.150000C202.326186,142.147717,203.027785,142.036405,203.700000,141.820000C205.629902,140.585672,206.795371,138.450864,206.790000,136.160000C206.823077,129.854380,204.448116,123.773907,200.150000,119.160000C195.875165,114.572950,189.880147,111.977766,183.610000,112C180.615788,111.994432,177.651953,112.600130,174.900000,113.780000C172.575180,114.995276,170.472280,116.594427,168.680000,118.510000C164.388135,123.127088,162.017240,129.206308,162.050000,135.510000C161.999119,146.381943,166.089529,156.865406,173.490000,164.830000C180.715291,172.677222,190.883131,177.159624,201.550000,177.200000C206.842871,177.201192,212.076585,176.086984,216.910000,173.930000C221.089637,171.821139,224.864213,168.991053,228.060000,165.570000C235.461973,157.602339,239.552420,147.115205,239.500000,136.240000C239.581901,120.787374,233.774915,105.883732,223.260000,94.560000C213.064961,83.441097,198.695188,77.077081,183.610000,77C176.019707,76.996312,168.517166,78.623000,161.610000,81.770000C155.564163,84.767299,150.109830,88.832641,145.510000,93.770000C134.998554,105.095906,129.192125,119.998120,129.270000,135.450000C129.164433,155.462581,136.671605,174.766738,150.270000,189.450000C163.465362,203.786317,182.035622,211.978972,201.520000,212.060000C211.410064,212.067289,221.184287,209.931630,230.170000,205.800000C238.073601,201.909264,245.205759,196.616897,251.220000,190.180000C264.831966,175.485193,272.340293,156.160190,272.220000,136.130000C272.352400,111.515168,263.114033,87.772136,246.380000,69.720000C230.380000,52.620000,208.170000,42,183.610000,42C171.416279,41.993147,159.367254,44.641134,148.300000,49.760000C138.530922,54.531447,129.718760,61.052447,122.300000,69C105.559898,87.048337,96.320560,110.793867,96.460000,135.410000C96.296050,164.608590,107.250890,192.775114,127.100000,214.190000C146.100000,234.490000,172.440000,247.040000,201.530000,247.040000C216.038084,247.056043,230.373747,243.895371,243.530000,237.780000C255.149453,232.117527,265.630006,224.368968,274.450000,214.920000C294.300844,193.506199,305.255962,165.338961,305.090000,136.140000C305.239424,105.453279,294.806827,75.652923,275.550000,51.760000Z" fill="rgb(255,255,255)" fill-rule="evenodd" stroke="none" stroke-width="1"/></g><path id="esT0codjtm88" d="M209.460000,264.440000L209.460000,365.540000C209.460000,370.764614,205.224614,375,200,375C194.775386,375,190.540000,370.764614,190.540000,365.540000L190.540000,264.440000C193.660000,264.690000,196.820000,264.810000,200,264.810000C203.180000,264.810000,206.340000,264.690000,209.460000,264.440000Z" fill="rgb(255,204,204)" fill-rule="evenodd" stroke="none" stroke-width="1"/></g></svg>