<svg id="s1" xmlns="http://www.w3.org/2000/svg" xmlns:xlink="http://www.w3.org/1999/xlink" viewBox="0 0 400 400"><defs><linearGradient id="s9-fill" x1="228.510000" y1="365.910000" x2="188.600000" y2="252.440000" spreadMethod="pad" gradientUnits="userSpaceOnUse"><stop id="s9-fill-0" offset="9%" stop-color="rgb(255,175,146)"/><stop id="s9-fill-1" offset="64%" stop-color="rgb(214,130,100)"/></linearGradient><linearGradient id="s11-fill" x1="0" y1="117.960000" x2="142.860000" y2="117.960000" spreadMethod="pad" gradientUnits="userSpaceOnUse"><stop id="s11-fill-0" offset="6%" stop-color="rgb(255,123,159)"/><stop id="s11-fill-1" offset="39%" stop-color="rgb(245,79,126)"/><stop id="s11-fill-2" offset="88%" stop-color="rgb(219,62,106)"/></linearGradient><linearGradient id="s13-fill" x1="0" y1="43.130000" x2="142.860000" y2="43.130000" spreadMethod="pad" gradientUnits="userSpaceOnUse"><stop id="s13-fill-0" offset="6%" stop-color="rgb(134,90,166)"/><stop id="s13-fill-1" offset="86%" stop-color="rgb(107,63,138)"/></linearGradient><linearGradient id="s15-fill" x1="173.480000" y1="58.650000" x2="213.770000" y2="126.310000" spreadMethod="pad" gradientUnits="userSpaceOnUse"><stop id="s15-fill-0" offset="7%" stop-color="rgb(255,220,128)"/><stop id="s15-fill-1" offset="33%" stop-color="rgb(255,211,92)"/><stop id="s15-fill-2" offset="82%" stop-color="rgb(255,193,92)"/></linearGradient></defs><g id="s3" style="isolation:isolate"><g id="s5"><g id="s7"><path id="s9" d="M223.860000,237.540000L188.260000,237.540000C191.260000,289.890000,181.650000,322.770000,181.650000,342.330000C181.650000,361.890000,196.590000,367.330000,206.060000,367.330000C215.530000,367.330000,230.470000,361.860000,230.470000,342.330000C230.470000,322.800000,220.830000,289.890000,223.860000,237.540000Z" fill="url(#s9-fill)" stroke="none" stroke-width="1"/><rect id="s11" width="142.860000" height="235.930000" rx="60.450000" ry="60.450000" transform="translate(134.630000,53.990000)" fill="url(#s11-fill)" stroke="none" stroke-width="1"/><rect id="s13" width="142.860000" height="86.270000" rx="0" ry="0" transform="translate(134.630000,128.820000)" fill="url(#s13-fill)" stroke="none" stroke-width="1"/><path id="s15" d="M217,54L195,54C161.655417,54.098848,134.648848,81.105417,134.550000,114.450000L134.550000,128.830000L277.490000,128.830000L277.490000,114.440000C277.385558,81.083761,250.356314,54.076859,217,54Z" fill="url(#s15-fill)" stroke="none" stroke-width="1"/><rect id="s17" style="mix-blend-mode:multiply" width="19.090000" height="154.490000" rx="9.550000" ry="9.550000" transform="translate(171.270000,94.710000)" opacity="0.28" fill="rgb(96,56,19)" stroke="none" stroke-width="1"/><rect id="s19" style="mix-blend-mode:multiply" width="19.090000" height="154.490000" rx="9.550000" ry="9.550000" transform="translate(221.750000,94.710000)" opacity="0.28" fill="rgb(96,56,19)" stroke="none" stroke-width="1"/></g></g></g></svg>