<svg id="s1" xmlns="http://www.w3.org/2000/svg" xmlns:xlink="http://www.w3.org/1999/xlink" viewBox="0 0 400 400"><defs><linearGradient id="s7-fill" x1="285.680000" y1="381.840000" x2="146.680000" y2="139.840000" spreadMethod="pad" gradientUnits="userSpaceOnUse"><stop id="s7-fill-0" offset="22%" stop-color="rgb(138,176,54)"/><stop id="s7-fill-1" offset="76%" stop-color="rgb(159,201,67)"/></linearGradient><linearGradient id="s9-fill" x1="117.940000" y1="162.060000" x2="242.940000" y2="287.060000" spreadMethod="pad" gradientUnits="userSpaceOnUse"><stop id="s9-fill-0" offset="5%" stop-color="rgb(147,171,39)"/><stop id="s9-fill-1" offset="86%" stop-color="rgb(105,140,27)"/></linearGradient><linearGradient id="s19-fill" x1="125.330000" y1="125.060000" x2="267.110000" y2="125.060000" spreadMethod="pad" gradientUnits="userSpaceOnUse"><stop id="s19-fill-0" offset="10%" stop-color="rgb(186,119,106)"/><stop id="s19-fill-1" offset="84%" stop-color="rgb(163,98,86)"/></linearGradient><linearGradient id="s21-fill" x1="89.570000" y1="-1.800000" x2="110.910000" y2="62.200000" spreadMethod="pad" gradientUnits="userSpaceOnUse"><stop id="s21-fill-0" offset="0%" stop-color="rgb(140,80,69)"/><stop id="s21-fill-1" offset="88%" stop-color="rgb(117,61,51)"/></linearGradient></defs><g id="s3"><g id="s5"><path id="s7" d="M249.530000,347L142.910000,347C140.842177,346.923859,139.141263,345.346260,138.910000,343.290000L112,157.140000C111.773447,155.923624,112.083103,154.668663,112.849474,153.697287C113.615846,152.725911,114.764297,152.132722,116,152.070000L276.470000,152.070000C277.705703,152.132722,278.854154,152.725911,279.620526,153.697287C280.386897,154.668663,280.696553,155.923624,280.470000,157.140000L253.550000,343.290000C253.317572,345.353534,251.605520,346.933562,249.530000,347Z" fill="url(#s7-fill)" stroke="none" stroke-width="1"/><path id="s9" d="M272.790000,290.470000L285.290000,204.060000C285.516553,202.843624,285.206897,201.588663,284.440526,200.617287C283.674154,199.645911,282.525703,199.052722,281.290000,198.990000L111.170000,198.990000C109.934297,199.052722,108.785846,199.645911,108.019474,200.617287C107.253103,201.588663,106.943447,202.843624,107.170000,204.060000L119.670000,290.470000C119.901263,292.526260,121.602177,294.103859,123.670000,294.180000L268.770000,294.180000C270.845520,294.113562,272.557572,292.533534,272.790000,290.470000Z" fill="url(#s9-fill)" stroke="none" stroke-width="1"/><g id="s11"><path id="s13" d="M191.430000,271.640000C193.825525,263.683056,193.825525,255.196944,191.430000,247.240000C189.881390,242.393935,189.138190,237.326660,189.230000,232.240000C189.176444,228.569850,189.545540,224.905734,190.330000,221.320000C190.485591,220.650405,190.257072,219.949752,189.736617,219.500650C189.216162,219.051547,188.489604,218.928062,187.850000,219.180000C178.120000,223.180000,171.160000,233.950000,171.160000,246.600000C171.160000,258.950000,177.800000,269.500000,187.160000,273.720000C187.986203,274.077319,188.926027,274.062870,189.740855,273.680321C190.555683,273.297773,191.167147,272.583918,191.420000,271.720000Z" fill="rgb(159,201,67)" stroke="none" stroke-width="1"/><path id="s15" d="M203.460000,218.730000C202.965722,218.555362,202.421253,218.592700,201.955442,218.833180C201.489632,219.073659,201.143877,219.495908,201,220L201,220C198.604475,227.956944,198.604475,236.443056,201,244.400000C203.662406,253.325101,203.914273,262.796007,201.730000,271.850000C201.220000,273.850000,202.330000,274.850000,204.210000,274.120000C214.130000,270.240000,221.270000,259.370000,221.270000,246.560000C221.300000,233.440000,213.780000,222.340000,203.460000,218.730000Z" fill="rgb(159,201,67)" stroke="none" stroke-width="1"/></g></g><g id="s17"><path id="s19" d="M142,109.500000L250.500000,109.500000C252.099013,109.516693,253.534434,110.484128,254.150000,111.960000L267.150000,140.630000L125.330000,140.630000L138.330000,111.960000C138.948414,110.477481,140.393693,109.508711,142,109.500000Z" fill="url(#s19-fill)" stroke="none" stroke-width="1"/><rect id="s21" width="193.420000" height="39.240000" rx="6.730000" ry="6.730000" transform="translate(99.510000,136.550000)" fill="url(#s21-fill)" stroke="none" stroke-width="1"/></g></g></svg>