<svg id="ewZDmPOGHNu1" xmlns="http://www.w3.org/2000/svg" xmlns:xlink="http://www.w3.org/1999/xlink" viewBox="0 0 400 400" shape-rendering="geometricPrecision" text-rendering="geometricPrecision"><g id="ewZDmPOGHNu2"><g id="ewZDmPOGHNu3"><path id="ewZDmPOGHNu4" d="M285.510000,86.350000L272.380000,370C272.267248,372.795077,269.967349,375.002273,267.170000,375L133.780000,375C130.984720,374.997129,128.687807,372.792798,128.570000,370L114.570000,86.310000Z" fill="rgb(113,177,221)" fill-rule="evenodd" stroke="none" stroke-width="1"/><path id="ewZDmPOGHNu5" d="M286.080000,73.940000L272.380000,370C272.267248,372.795077,269.967349,375.002273,267.170000,375L223.740000,375L251.880000,363.110000L273.250000,91.560000L171.620000,86.350000L286.080000,73.940000Z" fill="rgb(86,153,198)" fill-rule="evenodd" stroke="none" stroke-width="1"/><path id="ewZDmPOGHNu6" d="M127.110000,95.890000L153.640000,95.890000C156.411511,95.885995,158.701054,98.052491,158.850000,100.820000L161.250000,145.190000C161.329801,146.618649,160.817381,148.017050,159.833409,149.055897C158.849437,150.094744,157.480874,150.682227,156.050000,150.680000L129.520000,150.680000C126.748489,150.684005,124.458946,148.517509,124.310000,145.750000L121.910000,101.380000C121.830199,99.951351,122.342619,98.552950,123.326591,97.514103C124.310563,96.475256,125.679126,95.887773,127.110000,95.890000ZM169.050000,289.110000L172.880000,360C172.956756,361.428806,172.443632,362.826480,171.460611,363.866214C170.477590,364.905948,169.110862,365.496578,167.680000,365.500000L141.150000,365.500000C138.382351,365.498688,136.098741,363.333649,135.950000,360.570000L132.110000,289.710000C132.033244,288.281194,132.546368,286.883520,133.529389,285.843786C134.512410,284.804052,135.879138,284.213422,137.310000,284.210000L163.840000,284.210000C166.611511,284.205995,168.901054,286.372491,169.050000,289.140000Z" fill="rgb(153,203,238)" fill-rule="evenodd" stroke="none" stroke-width="1"/></g><g id="ewZDmPOGHNu7"><path id="ewZDmPOGHNu8" d="M128.780000,54.390000L266.510000,25.330000C272.110000,23.830000,276,27.710000,276,32.700000L275.200000,63.420000L124.810000,63.420000C124.730000,60.610000,125.340000,55.110000,128.780000,54.390000Z" fill="rgb(86,153,198)" fill-rule="evenodd" stroke="none" stroke-width="1"/><path id="ewZDmPOGHNu9" d="M276.250000,58L124.470000,47.880000C123.060980,47.704760,121.646374,48.159690,120.603636,49.123404C119.560898,50.087118,118.996120,51.461562,119.060000,52.880000L119.570000,63.380000L280.500000,63.380000C280.630000,60.620000,279.160000,58.100000,276.260000,57.910000Z" fill="rgb(113,177,221)" fill-rule="evenodd" stroke="none" stroke-width="1"/><path id="ewZDmPOGHNu10" d="M111.680000,63.420000L288.320000,63.420000C291.480036,63.430972,294.039028,65.989964,294.050000,69.150000L294.050000,86.350000L106,86.350000L106,69.150000C106.010972,65.989964,108.569964,63.430972,111.730000,63.420000Z" fill="rgb(253,225,89)" fill-rule="evenodd" stroke="none" stroke-width="1"/></g><g id="ewZDmPOGHNu11"><path id="ewZDmPOGHNu12" d="M283,159.580000L117.390000,159.580000C115.967353,159.581220,114.607081,160.164148,113.625002,161.193442C112.642923,162.222736,112.124465,163.608863,112.190000,165.030000L116.930000,270.310000C117.047807,273.102798,119.344720,275.307129,122.140000,275.310000L278.210000,275.310000C281.003476,275.306908,283.297405,273.101208,283.410000,270.310000L288.160000,165C288.225615,163.577128,287.705812,162.189433,286.721545,161.159825C285.737279,160.130218,284.374384,159.548488,282.950000,159.550000Z" fill="rgb(247,176,61)" fill-rule="evenodd" stroke="none" stroke-width="1"/><path id="ewZDmPOGHNu13" d="M278.670000,164.390000L274.850000,164.390000L274.850000,238.630000C274.895669,239.182290,274.626856,239.713327,274.154728,240.003506C273.682599,240.293685,273.087401,240.293685,272.615272,240.003506C272.143144,239.713327,271.874331,239.182290,271.920000,238.630000L271.920000,164.390000L265.090000,164.390000L265.090000,238.630000C265.135669,239.182290,264.866856,239.713327,264.394728,240.003506C263.922599,240.293685,263.327401,240.293685,262.855272,240.003506C262.383144,239.713327,262.114331,239.182290,262.160000,238.630000L262.160000,164.390000L255.330000,164.390000L255.330000,238.630000C255.375669,239.182290,255.106856,239.713327,254.634728,240.003506C254.162599,240.293685,253.567401,240.293685,253.095272,240.003506C252.623144,239.713327,252.354331,239.182290,252.400000,238.630000L252.400000,164.390000L245.560000,164.390000L245.560000,238.630000C245.560000,239.151608,245.281726,239.633593,244.830000,239.894397C244.378274,240.155201,243.821726,240.155201,243.370000,239.894397C242.918274,239.633593,242.640000,239.151608,242.640000,238.630000L242.640000,164.390000L235.800000,164.390000L235.800000,238.630000C235.845669,239.182290,235.576856,239.713327,235.104728,240.003506C234.632599,240.293685,234.037401,240.293685,233.565272,240.003506C233.093144,239.713327,232.824331,239.182290,232.870000,238.630000L232.870000,164.390000L226,164.390000L226,238.630000C226.045669,239.182290,225.776856,239.713327,225.304728,240.003506C224.832599,240.293685,224.237401,240.293685,223.765272,240.003506C223.293144,239.713327,223.024331,239.182290,223.070000,238.630000L223.070000,164.390000L216.240000,164.390000L216.240000,238.630000C216.285669,239.182290,216.016856,239.713327,215.544728,240.003506C215.072599,240.293685,214.477401,240.293685,214.005272,240.003506C213.533144,239.713327,213.264331,239.182290,213.310000,238.630000L213.310000,164.390000L206.480000,164.390000L206.480000,238.630000C206.525669,239.182290,206.256856,239.713327,205.784728,240.003506C205.312599,240.293685,204.717401,240.293685,204.245272,240.003506C203.773144,239.713327,203.504331,239.182290,203.550000,238.630000L203.550000,164.390000L196.720000,164.390000L196.720000,238.630000C196.765669,239.182290,196.496856,239.713327,196.024728,240.003506C195.552599,240.293685,194.957401,240.293685,194.485272,240.003506C194.013144,239.713327,193.744331,239.182290,193.790000,238.630000L193.790000,164.390000L187,164.390000L187,238.630000C187.045669,239.182290,186.776856,239.713327,186.304728,240.003506C185.832599,240.293685,185.237401,240.293685,184.765272,240.003506C184.293144,239.713327,184.024331,239.182290,184.070000,238.630000L184.070000,164.390000L177.240000,164.390000L177.240000,238.630000C177.285669,239.182290,177.016856,239.713327,176.544728,240.003506C176.072599,240.293685,175.477401,240.293685,175.005272,240.003506C174.533144,239.713327,174.264331,239.182290,174.310000,238.630000L174.310000,164.390000L167.480000,164.390000L167.480000,238.630000C167.525669,239.182290,167.256856,239.713327,166.784728,240.003506C166.312599,240.293685,165.717401,240.293685,165.245272,240.003506C164.773144,239.713327,164.504331,239.182290,164.550000,238.630000L164.550000,164.390000L157.720000,164.390000L157.720000,238.630000C157.765669,239.182290,157.496856,239.713327,157.024728,240.003506C156.552599,240.293685,155.957401,240.293685,155.485272,240.003506C155.013144,239.713327,154.744331,239.182290,154.790000,238.630000L154.790000,164.390000L148,164.390000L148,238.630000C148.045669,239.182290,147.776856,239.713327,147.304728,240.003506C146.832599,240.293685,146.237401,240.293685,145.765272,240.003506C145.293144,239.713327,145.024331,239.182290,145.070000,238.630000L145.070000,164.390000L138.230000,164.390000L138.230000,238.630000C138.230000,239.151608,137.951726,239.633593,137.500000,239.894397C137.048274,240.155201,136.491726,240.155201,136.040000,239.894397C135.588274,239.633593,135.310000,239.151608,135.310000,238.630000L135.310000,164.390000L128.470000,164.390000L128.470000,238.630000C128.515669,239.182290,128.246856,239.713327,127.774728,240.003506C127.302599,240.293685,126.707401,240.293685,126.235272,240.003506C125.763144,239.713327,125.494331,239.182290,125.540000,238.630000L125.540000,164.390000L121.720000,164.390000C120.415852,164.394191,119.169794,164.929961,118.269576,165.873586C117.369358,166.817211,116.892817,168.087099,116.950000,169.390000L121.300000,265.910000C121.407408,268.464335,123.513419,270.477628,126.070000,270.470000L274.370000,270.470000C276.926339,270.472709,279.032346,268.463631,279.150000,265.910000L283.490000,169.390000C283.547183,168.087099,283.070642,166.817211,282.170424,165.873586C281.270206,164.929961,280.024148,164.394191,278.720000,164.390000Z" fill="rgb(247,169,61)" fill-rule="evenodd" stroke="none" stroke-width="1"/></g></g></svg>