<svg id="s1" xmlns="http://www.w3.org/2000/svg" xmlns:xlink="http://www.w3.org/1999/xlink" viewBox="0 0 400 400"><defs><linearGradient id="s9-fill" x1="184.840000" y1="140.310000" x2="203.510000" y2="215.650000" spreadMethod="pad" gradientUnits="userSpaceOnUse"><stop id="s9-fill-0" offset="4%" stop-color="rgb(255,229,158)"/><stop id="s9-fill-1" offset="40%" stop-color="rgb(255,226,148)"/><stop id="s9-fill-2" offset="100%" stop-color="rgb(245,208,127)"/></linearGradient><linearGradient id="s19-fill" x1="91.190000" y1="205.430000" x2="115.850000" y2="287.630000" spreadMethod="pad" gradientUnits="userSpaceOnUse"><stop id="s19-fill-0" offset="8%" stop-color="rgb(138,134,124)"/><stop id="s19-fill-1" offset="100%" stop-color="rgb(201,196,181)"/></linearGradient><linearGradient id="s21-fill" x1="277.800000" y1="206.730000" x2="301.800000" y2="286.730000" spreadMethod="pad" gradientUnits="userSpaceOnUse"><stop id="s21-fill-0" offset="8%" stop-color="rgb(138,134,124)"/><stop id="s21-fill-1" offset="100%" stop-color="rgb(201,196,181)"/></linearGradient><linearGradient id="s23-fill" x1="316" y1="271.170000" x2="122.980000" y2="271.170000" spreadMethod="pad" gradientUnits="userSpaceOnUse"><stop id="s23-fill-0" offset="11%" stop-color="rgb(179,173,161)"/><stop id="s23-fill-1" offset="60%" stop-color="rgb(225,219,203)"/><stop id="s23-fill-2" offset="100%" stop-color="rgb(195,189,176)"/></linearGradient><linearGradient id="s25-fill" x1="201.510000" y1="191.050000" x2="216.180000" y2="303.720000" spreadMethod="pad" gradientUnits="userSpaceOnUse"><stop id="s25-fill-0" offset="6%" stop-color="rgb(255,247,230)"/><stop id="s25-fill-1" offset="8%" stop-color="rgb(254,247,230)"/><stop id="s25-fill-2" offset="64%" stop-color="rgb(245,238,221)"/></linearGradient><linearGradient id="s27-fill" x1="112.790000" y1="303.590000" x2="291.490000" y2="303.590000" spreadMethod="pad" gradientUnits="userSpaceOnUse"><stop id="s27-fill-0" offset="7%" stop-color="rgb(184,57,57)"/><stop id="s27-fill-1" offset="44%" stop-color="rgb(194,83,83)"/><stop id="s27-fill-2" offset="100%" stop-color="rgb(184,57,57)"/></linearGradient></defs><g id="s3"><g id="s5"><line id="s7" x1="182.830000" y1="47.150000" x2="190.080000" y2="165.220000" fill="none" stroke="rgb(184,57,57)" stroke-width="15" stroke-linecap="round" stroke-miterlimit="10"/><path id="s9" d="M279.330000,238.930000C283.550000,232.380000,296.390000,207.040000,296.390000,195.540000C296.390000,189.158891,293.855114,183.039136,289.342989,178.527011C284.830864,174.014886,278.711109,171.480000,272.330000,171.480000C259.960000,171.480000,253.550000,180.550000,240.690000,180.550000C216.820000,180.550000,199.180000,140.550000,162.500000,140.550000C146.447364,140.555303,131.054456,146.937959,119.708218,158.293574C108.361979,169.649190,101.992042,185.047366,102,201.100000C102,205.280000,109.400000,232.990000,110.670000,238.920000Z" fill="url(#s9-fill)" stroke="none" stroke-width="1"/><path id="s11" d="M139.740000,201.930000C139.490000,200.830000,139.270000,199.840000,139.090000,199.010000C140.190544,186.891749,150.341890,177.607299,162.510000,177.590000C168.800000,177.590000,175.690000,183.040000,186.300000,192.010000C190.100000,195.220000,194.150000,198.660000,198.570000,201.930000" fill="none" stroke="rgb(255,243,212)" stroke-width="10" stroke-linecap="round" stroke-miterlimit="10"/><line id="s13" x1="252.690000" y1="69.960000" x2="211.720000" y2="180.920000" fill="none" stroke="rgb(184,57,57)" stroke-width="15" stroke-linecap="round" stroke-miterlimit="10"/><path id="s15" d="M117.580000,206.260000C117.290874,204.552122,117.097240,202.829446,117,201.100000C117.027556,175.971421,137.391421,155.607556,162.520000,155.580000C177.330000,155.580000,188.590000,165.110000,200.520000,175.210000C212.450000,185.310000,224.520000,195.550000,240.710000,195.550000C250.600000,195.550000,257.940000,192.050000,263.310000,189.490000C267.450000,187.490000,269.740000,186.490000,272.310000,186.490000C277.311415,186.495511,281.364489,190.548585,281.370000,195.550000C281.435016,199.209813,280.800307,202.848355,279.500000,206.270000" fill="none" stroke="rgb(255,243,212)" stroke-width="10" stroke-linecap="round" stroke-miterlimit="10"/></g><g id="s17"><path id="s19" d="M164.460000,266.400000L56.740000,266.400000C55.646900,266.400833,54.639864,265.807050,54.111482,264.850138C53.583100,263.893226,53.617013,262.724659,54.200000,261.800000L95.660000,195.900000L117,195.900000Z" fill="url(#s19-fill)" stroke="none" stroke-width="1"/><path id="s21" d="M239.820000,266.400000L347.550000,266.400000C348.643100,266.400833,349.650136,265.807050,350.178518,264.850138C350.706900,263.893226,350.672987,262.724659,350.090000,261.800000L308.630000,195.900000L287.330000,195.900000Z" fill="url(#s21-fill)" stroke="none" stroke-width="1"/><path id="s23" d="M276.380000,346.440000L127.900000,346.440000C125.000455,346.438153,122.517085,344.363067,122,341.510000L95.660000,195.910000L308.660000,195.910000L282.320000,341.510000C281.800269,344.377962,279.294621,346.457566,276.380000,346.440000Z" fill="url(#s23-fill)" stroke="none" stroke-width="1"/><path id="s25" d="M262.170000,266.400000L142.110000,266.400000C139.653754,266.400939,137.376721,265.114416,136.110000,263.010000L95.660000,195.910000L308.660000,195.910000L268.160000,263C266.897587,265.105201,264.624697,266.395322,262.170000,266.400000Z" fill="url(#s25-fill)" stroke="none" stroke-width="1"/><polygon id="s27" points="286.790000,316.600000 291.490000,290.600000 112.790000,290.600000 117.490000,316.600000 286.790000,316.600000" fill="url(#s27-fill)" stroke="none" stroke-width="1"/></g></g></svg>