<svg id="enjIqUzLCX51" xmlns="http://www.w3.org/2000/svg" xmlns:xlink="http://www.w3.org/1999/xlink" viewBox="0 0 300 300" shape-rendering="geometricPrecision" text-rendering="geometricPrecision"><g id="enjIqUzLCX52" transform="matrix(1 0 0 1 -114.226142 -52.250152)"><g id="enjIqUzLCX53" transform="matrix(0.834306 0 0 0.834306 44.958029 33.511636)"><rect id="enjIqUzLCX54" width="131.23" height="131.23" rx="0" ry="0" transform="matrix(0.710986 -0.710986 0.710986 0.710986 178.02894 202.250135)" fill="rgb(0,0,0)" stroke="none" stroke-width="3" stroke-miterlimit="10"/><rect id="enjIqUzLCX55" width="131.23" height="131.23" rx="0" ry="0" transform="matrix(0.707107 -0.707107 0.707107 0.707107 178.538007 202.250135)" fill="none" stroke="rgb(206,0,0)" stroke-width="3" stroke-miterlimit="10"/><rect id="enjIqUzLCX56" width="131.23" height="131.23" rx="0" ry="0" transform="matrix(0.572905 -0.572905 0.572905 0.572905 196.149308 202.250135)" fill="none" stroke="rgb(255,255,255)" stroke-width="3" stroke-miterlimit="10"/></g><g id="enjIqUzLCX57" transform="matrix(1 0 0 1 15.426137 -2.594641)"><polygon id="enjIqUzLCX58" points="348.75,246.54 206.65,270.29 206.65,208.34 348.75,184.69 348.75,246.54" fill="rgb(206,0,0)" stroke="rgb(255,255,255)" stroke-width="3" stroke-miterlimit="10"/><g id="enjIqUzLCX59" transform="matrix(1 0 0 1 0.000001 0)"><path id="enjIqUzLCX510" d="M224.64,251.23L226.23,219.77L239.09,217.59L238.92,220.96L230.74,222.35L230.22,232.46L236.07,231.46L235.9,234.83L230.05,235.83L229.31,250.44Z" fill="rgb(255,255,255)" stroke="none" stroke-width="1"/><path id="enjIqUzLCX511" d="M241.5,248.37L243.09,216.91L248.94,215.91Q254.16,215.03,256.71,216.53Q259.26,218.03,259.03,222.53C258.972473,224.231749,258.535135,225.899098,257.75,227.41C257.034013,228.748246,255.923849,229.833973,254.57,230.52L259,245.4L254.36,246.19L250.36,232.38L246.85,232.97L246.11,247.58ZM247.08,229.6L248.25,229.4C249.888988,229.208241,251.435962,228.540782,252.7,227.48C253.770736,226.377305,254.363595,224.896954,254.35,223.36Q254.49,220.67,253.09,219.73C252.15,219.11,250.71,218.96,248.77,219.29L247.6,219.49Z" fill="rgb(255,255,255)" stroke="none" stroke-width="1"/><path id="enjIqUzLCX512" d="M263.82,244.59L265.41,213.13L270.09,212.34L268.49,243.79Z" fill="rgb(255,255,255)" stroke="none" stroke-width="1"/><path id="enjIqUzLCX513" d="M275.36,242.63L276.96,211.17L284.21,209.94C287.63,209.36,290.01,209.63,291.34,210.73C292.67,211.83,293.27,214.04,293.1,217.35L292.47,229.71Q292.22,234.88,289.94,237.71C288.43,239.6,285.94,240.83,282.58,241.41ZM280.21,238.47L282.78,238.03C283.464628,237.924719,284.13542,237.743605,284.78,237.49C285.312357,237.275127,285.783086,236.931529,286.15,236.49C286.467095,236.13281,286.751565,235.747939,287,235.34C287.251523,234.848379,287.417239,234.317413,287.49,233.77C287.6,233.07,287.68,232.51,287.71,232.07C287.74,231.63,287.79,230.94,287.83,230.02C287.83,229.71,287.83,229.49,287.83,229.33L288.34,219.22C288.34,218.65,288.39,218.22,288.4,217.85C288.41,217.48,288.4,217.12,288.4,216.66C288.406742,216.301619,288.379959,215.943394,288.32,215.59C288.266905,215.296178,288.196787,215.005689,288.11,214.72C288.047216,214.456401,287.920095,214.212465,287.74,214.01C287.567165,213.83066,287.376136,213.669794,287.17,213.53C286.933563,213.359428,286.658849,213.249542,286.37,213.21C286.015961,213.156907,285.657755,213.13682,285.3,213.15C284.833547,213.157378,284.368555,213.204212,283.91,213.29L281.43,213.71Z" fill="rgb(255,255,255)" stroke="none" stroke-width="1"/><path id="enjIqUzLCX514" d="M295.29,239.25L303.9,206.6L308.57,205.81L314,236.08L309.32,236.87L308,229.31L302.16,230.31L300,238.46ZM302.87,226.83L307.55,226.04L305.89,213Z" fill="rgb(255,255,255)" stroke="none" stroke-width="1"/><path id="enjIqUzLCX515" d="M321.72,234.77L322.23,224.66L316.3,204.5L320.97,203.71L324.85,218.64L330.32,202.12L335,201.33L326.91,223.87L326.39,234Z" fill="rgb(255,255,255)" stroke="none" stroke-width="1"/></g></g><g id="enjIqUzLCX516" transform="matrix(1 0 0 1 -33.463866 5.495361)"><polygon id="enjIqUzLCX517" points="326.59,188.41 198.25,210.1 197.74,155.1 326.07,133.41 326.59,188.41" fill="rgb(36,36,36)" stroke="rgb(255,255,255)" stroke-width="3" stroke-miterlimit="10"/><g id="enjIqUzLCX518" transform="matrix(1 0 0 1 0 -1)"><path id="enjIqUzLCX519" d="M212.66,196.24L213.1,164.74L220.1,163.66C221.437125,163.429897,222.798296,163.372761,224.15,163.49C225.239596,163.579021,226.300392,163.88502,227.27,164.39C228.146306,164.873745,228.84656,165.623016,229.27,166.53C229.787943,167.611437,230.038311,168.801542,230,170C230.06387,171.670517,229.58305,173.316536,228.63,174.69C227.571641,175.983469,226.192369,176.976545,224.63,177.57C226.269915,177.742423,227.803147,178.464981,228.98,179.62Q230.42,181.19,230.37,184.54C230.416553,187.11944,229.48394,189.620701,227.76,191.54C225.944615,193.473274,223.504112,194.702381,220.87,195.01ZM217.39,192.14L219.73,191.78C221.403398,191.638394,222.979265,190.933307,224.2,189.78C225.229606,188.513388,225.753324,186.91017,225.67,185.28C225.67,183.28,225.24,181.97,224.32,181.22C223.4,180.47,221.91,180.22,219.89,180.56L217.55,180.92ZM217.59,177.52L219.94,177.16Q225.79,176.25,225.87,170.63C225.890395,170.085372,225.819413,169.541175,225.66,169.02C225.534467,168.627173,225.348942,168.256122,225.11,167.92C224.846699,167.613151,224.498919,167.390572,224.11,167.28C223.714803,167.144652,223.31044,167.037713,222.9,166.96C222.381583,166.902619,221.858417,166.902619,221.34,166.96C220.66,167.01,220.1,167.07,219.65,167.13C219.2,167.19,218.56,167.28,217.73,167.4Z" fill="rgb(255,255,255)" stroke="none" stroke-width="1"/><path id="enjIqUzLCX520" d="M235.5,192.71L235.95,161.21L240.63,160.49L240.23,188.61L248.43,187.35L248.38,190.72Z" fill="rgb(255,255,255)" stroke="none" stroke-width="1"/><path id="enjIqUzLCX521" d="M250.38,190.41L257.86,157.83L262.54,157.11L269.12,187.52L264.44,188.24L262.79,180.64L256.94,181.54L255.07,189.69ZM257.57,178.08L262.25,177.36L260.1,164.22Z" fill="rgb(255,255,255)" stroke="none" stroke-width="1"/><path id="enjIqUzLCX522" d="M281.88,185.86C280.680133,186.081454,279.449867,186.081454,278.25,185.86C277.312238,185.70231,276.430723,185.306316,275.69,184.71C274.990038,184.099407,274.43928,183.336556,274.08,182.48C273.670831,181.520749,273.388451,180.512252,273.24,179.48C273.079851,178.226688,273.013,176.963214,273.04,175.7L273.17,166.7C273.177735,165.410756,273.281354,164.123872,273.48,162.85C273.655369,161.713197,273.967638,160.601787,274.41,159.54C274.804554,158.540247,275.369603,157.616545,276.08,156.81C276.820194,156.009172,277.701564,155.351534,278.68,154.87C279.830377,154.305504,281.061899,153.924239,282.33,153.74C283.634924,153.491317,284.975076,153.491317,286.28,153.74C287.291851,153.958922,288.210799,154.48653,288.91,155.25C289.590426,156.030902,290.089079,156.953069,290.37,157.95C290.716508,159.190781,290.89807,160.471799,290.91,161.76C290.91,161.98,290.91,162.33,290.91,162.76L286.23,163.48L286.23,162.48C286.23,161.86,286.23,161.33,286.18,160.9C286.148208,160.453304,286.088087,160.009077,286,159.57C285.887145,158.828817,285.48874,158.161219,284.89,157.71C284.569328,157.486345,284.198307,157.345495,283.81,157.3C283.296399,157.24749,282.777959,157.267689,282.27,157.36C281.58404,157.448342,280.921773,157.669098,280.32,158.01C279.819216,158.284468,279.380143,158.658871,279.03,159.11C278.692416,159.59016,278.448169,160.129539,278.31,160.7C278.14008,161.312179,278.022984,161.937806,277.96,162.57C277.9,163.17,277.87,163.9,277.86,164.77L277.7,176.02C277.686227,176.687449,277.709596,177.355147,277.77,178.02C277.827701,178.61857,277.951797,179.208865,278.14,179.78C278.289676,180.294845,278.541328,180.774345,278.88,181.19C279.208292,181.565094,279.634013,181.841986,280.11,181.99C280.697446,182.164363,281.318154,182.195226,281.92,182.08C282.561617,181.996603,283.17655,181.771127,283.72,181.42C284.191798,181.114602,284.596649,180.716555,284.91,180.25C285.234973,179.750771,285.471751,179.199417,285.61,178.62C285.779031,178.011007,285.896117,177.388778,285.96,176.76C286.02,176.17,286.05,175.48,286.06,174.76L286.06,173.63L290.74,172.91L290.74,174.04C290.729277,175.504268,290.558258,176.96296,290.23,178.39C289.926216,179.62655,289.422954,180.805331,288.74,181.88C288.039258,182.938346,287.101002,183.81839,286,184.45C284.728591,185.177201,283.330369,185.655719,281.88,185.86Z" fill="rgb(255,255,255)" stroke="none" stroke-width="1"/><path id="enjIqUzLCX523" d="M295.6,183.43L296.04,151.93L300.73,151.21L300.54,164.71L307.75,150.12L313.61,149.22L306.39,162.68L314.33,180.54L308.48,181.44L302.83,167.72L300.43,172.58L300.28,182.71Z" fill="rgb(255,255,255)" stroke="none" stroke-width="1"/></g></g></g></svg>