<svg id="e2TPtvj1XHG1" xmlns="http://www.w3.org/2000/svg" xmlns:xlink="http://www.w3.org/1999/xlink" viewBox="0 0 400 400" shape-rendering="geometricPrecision" text-rendering="geometricPrecision"><defs><linearGradient id="e2TPtvj1XHG5-fill" x1="199.880371" y1="356.972000" x2="199.880371" y2="56.663355" spreadMethod="pad" gradientUnits="userSpaceOnUse"><stop id="e2TPtvj1XHG5-fill-0" offset="0%" stop-color="rgb(255,205,62)"/><stop id="e2TPtvj1XHG5-fill-1" offset="100%" stop-color="rgb(245,175,63)"/></linearGradient></defs><g id="e2TPtvj1XHG2"><circle id="e2TPtvj1XHG3" r="175" transform="matrix(1 0 0 1 199.90000000000001 199.90000000000001)" clip-rule="evenodd" fill="rgb(236,178,68)" fill-rule="evenodd" stroke="none" stroke-width="1"/><circle id="e2TPtvj1XHG4" r="157" transform="matrix(1 0 0 1 199.90000000000001 199.90000000000001)" clip-rule="evenodd" fill="rgb(247,169,61)" fill-rule="evenodd" stroke="none" stroke-width="1"/><path id="e2TPtvj1XHG5" d="M43,206.800000C46.600000,290.300000,115.500000,357,199.900000,357C284.300000,357,353.200000,290.400000,356.800000,206.800000C353.200000,123.300000,284.300000,56.600000,199.900000,56.600000C115.500000,56.600000,46.600000,123.200000,43,206.800000L43,206.800000Z" clip-rule="evenodd" fill="url(#e2TPtvj1XHG5-fill)" fill-rule="evenodd" stroke="none" stroke-width="1"/><circle id="e2TPtvj1XHG6" r="115.800000" transform="matrix(1 0 0 1 199.90000000000001 199.90000000000001)" clip-rule="evenodd" fill="rgb(236,178,68)" fill-rule="evenodd" stroke="none" stroke-width="1"/><path id="e2TPtvj1XHG7" d="M84.100000,203.600000C84.100000,204.800000,84,206,84,207.300000C84,271.300000,135.900000,323.100000,199.800000,323.100000C263.800000,323.100000,315.600000,271.300000,315.600000,207.300000C315.600000,206,315.600000,204.800000,315.500000,203.600000C313.500000,265.800000,262.500000,315.700000,199.700000,315.700000C137.200000,315.700000,86.100000,265.800000,84.100000,203.600000L84.100000,203.600000Z" clip-rule="evenodd" fill="rgb(247,169,61)" fill-rule="evenodd" stroke="none" stroke-width="1"/></g><path id="e2TPtvj1XHG8" d="M147.100000,125.800000L178.600000,125.800000L178.600000,99.400000L221.200000,99.400000L221.200000,125.800000L256.400000,125.800000L256.400000,166L201.100000,231.300000L256.400000,231.300000L256.400000,273.900000L221.200000,273.900000L221.200000,300.300000L178.600000,300.300000L178.600000,273.900000L143.400000,273.900000L143.400000,233.700000L198.700000,168.400000L143.400000,168.400000L143.400000,125.800000L147.100000,125.800000L147.100000,125.800000ZM182.300000,133.200000L150.800000,133.200000L150.800000,161L214.700000,161L150.800000,236.400000L150.800000,266.500000L186,266.500000L186,292.900000L213.800000,292.900000L213.800000,266.500000L249,266.500000L249,238.800000L185.100000,238.800000L249,163.400000L249,133.300000L213.800000,133.300000L213.800000,106.900000L186,106.900000L186,133.300000L182.300000,133.300000L182.300000,133.200000Z" fill="rgb(255,255,255)" stroke="none" stroke-width="1"/></svg>