<svg id="eUaiKRXMyTg1" xmlns="http://www.w3.org/2000/svg" xmlns:xlink="http://www.w3.org/1999/xlink" viewBox="0 0 300 300" shape-rendering="geometricPrecision" text-rendering="geometricPrecision"><style><![CDATA[#eUaiKRXMyTg4 {animation: eUaiKRXMyTg4__m 2000ms linear infinite normal forwards}@keyframes eUaiKRXMyTg4__m { 0% {d: path('M292.94,222.62L281.86,227.26C281.144804,227.550248,280.329164,227.211512,280.03,226.5L278.73,223.4C278.511668,222.862138,277.980085,222.518408,277.4,222.54L206.28,224.85C205.881821,224.862957,205.50802,225.04494,205.252226,225.350365C204.996433,225.65579,204.882876,226.055727,204.94,226.45L210.38,263.67C210.6598,265.591641,210.136874,267.543773,208.933952,269.06823C207.73103,270.592688,205.954026,271.555249,204.02,271.73L199.56,272.15C197.626851,272.324141,195.706982,271.696997,194.249415,270.415245C192.791848,269.133494,191.924417,267.309549,191.85,265.37L190.79,237.3C190.775044,236.856636,190.543223,236.448915,190.169869,236.20933C189.796514,235.969744,189.329281,235.928874,188.92,236.1L178.92,240.3C178.207549,240.597317,177.388879,240.261797,177.09,239.55L172.21,228C172.066531,227.65565,171.791565,227.382798,171.446118,227.24199C171.100671,227.101183,170.713313,227.104066,170.37,227.25L161.16,231.1C155.768244,233.357409,149.690578,233.32664,144.321954,231.014757C138.95333,228.702873,134.754795,224.308414,132.69,218.84C128.55,207.89,134.26,195.64,145.06,191.13L153.75,187.49C154.461797,187.191121,154.797317,186.372451,154.5,185.66L149.66,174.08C149.362683,173.367549,149.698203,172.548879,150.41,172.25L175.22,161.88L175.53,162.61C175.705926,163.025565,176.07138,163.330848,176.511621,163.430001C176.951863,163.529155,177.412906,163.41002,177.75,163.11L232.12,114.54C232.566341,114.144989,232.711163,113.509379,232.48,112.96L231.21,109.96C230.912683,109.247549,231.248203,108.428879,231.96,108.13L243.04,103.49C243.755196,103.199752,244.570836,103.538488,244.87,104.25L259.08,138C270.437075,136.765799,281.252793,143.150204,285.659898,153.689836C290.067002,164.229468,287.015193,176.412523,278.16,183.63L293.69,220.77C293.841976,221.114122,293.847981,221.505148,293.706646,221.853775C293.565311,222.202403,293.288705,222.478856,292.94,222.62Z');animation-timing-function: cubic-bezier(0.175,0.885,0.32,1.275)} 25% {d: path('M301.94,220.62L290.86,225.26C290.144804,225.550248,289.329164,225.211512,289.03,224.5L287.73,221.4C287.511668,220.862138,286.980085,220.518408,286.4,220.54L206.28,224.85C205.881821,224.862957,205.50802,225.04494,205.252226,225.350365C204.996433,225.65579,204.882876,226.055727,204.94,226.45L210.38,263.67C210.6598,265.591641,210.136874,267.543773,208.933952,269.06823C207.73103,270.592688,205.954026,271.555249,204.02,271.73L199.56,272.15C197.626851,272.324141,195.706982,271.696997,194.249415,270.415245C192.791848,269.133494,191.924417,267.309549,191.85,265.37L190.79,237.3C190.775044,236.856636,190.543223,236.448915,190.169869,236.20933C189.796514,235.969744,189.329281,235.928874,188.92,236.1L178.92,240.3C178.207549,240.597317,177.388879,240.261797,177.09,239.55L172.21,228C172.066531,227.65565,171.791565,227.382798,171.446118,227.24199C171.100671,227.101183,170.713313,227.104066,170.37,227.25L161.16,231.1C155.768244,233.357409,149.690578,233.32664,144.321954,231.014757C138.95333,228.702873,134.754795,224.308414,132.69,218.84C128.55,207.89,134.26,195.64,145.06,191.13L153.75,187.49C154.461797,187.191121,154.797317,186.372451,154.5,185.66L149.66,174.08C149.362683,173.367549,149.698203,172.548879,150.41,172.25L175.22,161.88L175.53,162.61C175.705926,163.025565,176.07138,163.330848,176.511621,163.430001C176.951863,163.529155,177.412906,163.41002,177.75,163.11L241.12,112.54C241.566341,112.144989,241.711163,111.509379,241.48,110.96L240.21,107.96C239.912683,107.247549,240.248203,106.428879,240.96,106.13L252.04,101.49C252.755196,101.199752,253.570836,101.538488,253.87,102.25L268.08,136C279.437075,134.765799,290.252793,141.150204,294.659898,151.689836C299.067002,162.229468,296.015193,174.412523,287.16,181.63L302.69,218.77C302.841976,219.114122,302.847981,219.505148,302.706646,219.853775C302.565311,220.202403,302.288705,220.478856,301.94,220.62Z')} 50% {d: path('M292.94,222.62L281.86,227.26C281.144804,227.550248,280.329164,227.211512,280.03,226.5L278.73,223.4C278.511668,222.862138,277.980085,222.518408,277.4,222.54L206.28,224.85C205.881821,224.862957,205.50802,225.04494,205.252226,225.350365C204.996433,225.65579,204.882876,226.055727,204.94,226.45L210.38,263.67C210.6598,265.591641,210.136874,267.543773,208.933952,269.06823C207.73103,270.592688,205.954026,271.555249,204.02,271.73L199.56,272.15C197.626851,272.324141,195.706982,271.696997,194.249415,270.415245C192.791848,269.133494,191.924417,267.309549,191.85,265.37L190.79,237.3C190.775044,236.856636,190.543223,236.448915,190.169869,236.20933C189.796514,235.969744,189.329281,235.928874,188.92,236.1L178.92,240.3C178.207549,240.597317,177.388879,240.261797,177.09,239.55L172.21,228C172.066531,227.65565,171.791565,227.382798,171.446118,227.24199C171.100671,227.101183,170.713313,227.104066,170.37,227.25L161.16,231.1C155.768244,233.357409,149.690578,233.32664,144.321954,231.014757C138.95333,228.702873,134.754795,224.308414,132.69,218.84C128.55,207.89,134.26,195.64,145.06,191.13L153.75,187.49C154.461797,187.191121,154.797317,186.372451,154.5,185.66L149.66,174.08C149.362683,173.367549,149.698203,172.548879,150.41,172.25L175.22,161.88L175.53,162.61C175.705926,163.025565,176.07138,163.330848,176.511621,163.430001C176.951863,163.529155,177.412906,163.41002,177.75,163.11L232.12,114.54C232.566341,114.144989,232.711163,113.509379,232.48,112.96L231.21,109.96C230.912683,109.247549,231.248203,108.428879,231.96,108.13L243.04,103.49C243.755196,103.199752,244.570836,103.538488,244.87,104.25L259.08,138C270.437075,136.765799,281.252793,143.150204,285.659898,153.689836C290.067002,164.229468,287.015193,176.412523,278.16,183.63L293.69,220.77C293.841976,221.114122,293.847981,221.505148,293.706646,221.853775C293.565311,222.202403,293.288705,222.478856,292.94,222.62Z')} 100% {d: path('M292.94,222.62L281.86,227.26C281.144804,227.550248,280.329164,227.211512,280.03,226.5L278.73,223.4C278.511668,222.862138,277.980085,222.518408,277.4,222.54L206.28,224.85C205.881821,224.862957,205.50802,225.04494,205.252226,225.350365C204.996433,225.65579,204.882876,226.055727,204.94,226.45L210.38,263.67C210.6598,265.591641,210.136874,267.543773,208.933952,269.06823C207.73103,270.592688,205.954026,271.555249,204.02,271.73L199.56,272.15C197.626851,272.324141,195.706982,271.696997,194.249415,270.415245C192.791848,269.133494,191.924417,267.309549,191.85,265.37L190.79,237.3C190.775044,236.856636,190.543223,236.448915,190.169869,236.20933C189.796514,235.969744,189.329281,235.928874,188.92,236.1L178.92,240.3C178.207549,240.597317,177.388879,240.261797,177.09,239.55L172.21,228C172.066531,227.65565,171.791565,227.382798,171.446118,227.24199C171.100671,227.101183,170.713313,227.104066,170.37,227.25L161.16,231.1C155.768244,233.357409,149.690578,233.32664,144.321954,231.014757C138.95333,228.702873,134.754795,224.308414,132.69,218.84C128.55,207.89,134.26,195.64,145.06,191.13L153.75,187.49C154.461797,187.191121,154.797317,186.372451,154.5,185.66L149.66,174.08C149.362683,173.367549,149.698203,172.548879,150.41,172.25L175.22,161.88L175.53,162.61C175.705926,163.025565,176.07138,163.330848,176.511621,163.430001C176.951863,163.529155,177.412906,163.41002,177.75,163.11L232.12,114.54C232.566341,114.144989,232.711163,113.509379,232.48,112.96L231.21,109.96C230.912683,109.247549,231.248203,108.428879,231.96,108.13L243.04,103.49C243.755196,103.199752,244.570836,103.538488,244.87,104.25L259.08,138C270.437075,136.765799,281.252793,143.150204,285.659898,153.689836C290.067002,164.229468,287.015193,176.412523,278.16,183.63L293.69,220.77C293.841976,221.114122,293.847981,221.505148,293.706646,221.853775C293.565311,222.202403,293.288705,222.478856,292.94,222.62Z')}} #eUaiKRXMyTg5 {animation: eUaiKRXMyTg5__m 2000ms linear infinite normal forwards}@keyframes eUaiKRXMyTg5__m { 0% {d: path('M265.74,182.16L279.41,214.85L186.67,217.85L184.86,213.53L161.16,223.44C150.183341,228.032248,137.562248,222.856659,132.97,211.88C128.377752,200.903341,133.553341,188.282248,144.53,183.69L168.24,173.78L165.24,166.68L233.67,105.54L246.51,136.25C255.07998,129.556548,266.927567,128.957637,276.128859,134.752729C285.330152,140.54782,289.907967,151.49166,287.573356,162.112227C285.238744,172.732795,276.49337,180.747933,265.71,182.15Z');animation-timing-function: cubic-bezier(0.175,0.885,0.32,1.275)} 25% {d: path('M274.74,179.16L288.41,211.85L186.67,217.85L184.86,213.53L161.16,223.44C150.183341,228.032248,137.562248,222.856659,132.97,211.88C128.377752,200.903341,133.553341,188.282248,144.53,183.69L168.24,173.78L165.24,166.68L242.67,102.54L255.51,133.25C264.07998,126.556548,275.927567,125.957637,285.128859,131.752729C294.330152,137.54782,298.907967,148.49166,296.573356,159.112227C294.238744,169.732795,285.49337,177.747933,274.71,179.15Z')} 50% {d: path('M265.74,182.16L279.41,214.85L186.67,217.85L184.86,213.53L161.16,223.44C150.183341,228.032248,137.562248,222.856659,132.97,211.88C128.377752,200.903341,133.553341,188.282248,144.53,183.69L168.24,173.78L165.24,166.68L233.67,105.54L246.51,136.25C255.07998,129.556548,266.927567,128.957637,276.128859,134.752729C285.330152,140.54782,289.907967,151.49166,287.573356,162.112227C285.238744,172.732795,276.49337,180.747933,265.71,182.15Z')} 100% {d: path('M265.74,182.16L279.41,214.85L186.67,217.85L184.86,213.53L161.16,223.44C150.183341,228.032248,137.562248,222.856659,132.97,211.88C128.377752,200.903341,133.553341,188.282248,144.53,183.69L168.24,173.78L165.24,166.68L233.67,105.54L246.51,136.25C255.07998,129.556548,266.927567,128.957637,276.128859,134.752729C285.330152,140.54782,289.907967,151.49166,287.573356,162.112227C285.238744,172.732795,276.49337,180.747933,265.71,182.15Z')}} #eUaiKRXMyTg7_to {animation: eUaiKRXMyTg7_to__to 2000ms linear infinite normal forwards}@keyframes eUaiKRXMyTg7_to__to { 0% {transform: translate(-40.46px,113.04px);animation-timing-function: cubic-bezier(0.175,0.885,0.32,1.275)} 25% {transform: translate(-31.46px,112.04px)} 50% {transform: translate(-40.46px,113.04px)} 100% {transform: translate(-40.46px,113.04px)}} #eUaiKRXMyTg8 {animation: eUaiKRXMyTg8__m 2000ms linear infinite normal forwards}@keyframes eUaiKRXMyTg8__m { 0% {d: path('M292.94,215L281.86,219.64C281.144804,219.930248,280.329164,219.591512,280.03,218.88L278.73,215.78C278.511668,215.242138,277.980085,214.898408,277.4,214.92L206.28,217.23C205.881821,217.242957,205.50802,217.42494,205.252226,217.730365C204.996433,218.03579,204.882876,218.435727,204.94,218.83L210.38,256.05C210.6598,257.971641,210.136874,259.923773,208.933952,261.44823C207.73103,262.972688,205.954026,263.935249,204.02,264.11L199.56,264.53C197.626851,264.704141,195.706982,264.076997,194.249415,262.795245C192.791848,261.513494,191.924417,259.689549,191.85,257.75L190.79,229.68C190.775044,229.236636,190.543223,228.828915,190.169869,228.58933C189.796514,228.349744,189.329281,228.308874,188.92,228.48L178.92,232.68C178.207549,232.977317,177.388879,232.641797,177.09,231.93L172.25,220.35C172.106531,220.00565,171.831565,219.732798,171.486118,219.59199C171.140671,219.451183,170.753313,219.454066,170.41,219.6L161.2,223.45C155.808244,225.707409,149.730578,225.67664,144.361954,223.364757C138.99333,221.052873,134.794795,216.658414,132.73,211.19C128.59,200.24,134.3,187.99,145.1,183.48L153.79,179.84C154.501797,179.541121,154.837317,178.722451,154.54,178.01L149.7,166.43C149.402683,165.717549,149.738203,164.898879,150.45,164.6L175.26,154.23L175.57,154.96C175.745926,155.375565,176.11138,155.680848,176.551621,155.780001C176.991863,155.879155,177.452906,155.76002,177.79,155.46L232.16,106.89C232.606341,106.494989,232.751163,105.859379,232.52,105.31L231.25,102.31C230.952683,101.597549,231.288203,100.778879,232,100.48L243.08,95.84C243.795196,95.549752,244.610836,95.888488,244.91,96.6L259.06,130.43C270.389297,129.226243,281.166104,135.598956,285.570147,146.106402C289.974189,156.613848,286.961844,168.766083,278.16,176L293.69,213.14C293.84522,213.485214,293.852949,213.878798,293.7114,214.229839C293.569851,214.58088,293.291268,214.859016,292.94,215Z');animation-timing-function: cubic-bezier(0.175,0.885,0.32,1.275)} 25% {d: path('M300.94,213L289.86,217.64C289.144804,217.930248,288.329164,217.591512,288.03,216.88L286.73,213.78C286.511668,213.242138,285.980085,212.898408,285.4,212.92L206.28,217.23C205.881821,217.242957,205.50802,217.42494,205.252226,217.730365C204.996433,218.03579,204.882876,218.435727,204.94,218.83L210.38,256.05C210.6598,257.971641,210.136874,259.923773,208.933952,261.44823C207.73103,262.972688,205.954026,263.935249,204.02,264.11L199.56,264.53C197.626851,264.704141,195.706982,264.076997,194.249415,262.795245C192.791848,261.513494,191.924417,259.689549,191.85,257.75L190.79,229.68C190.775044,229.236636,190.543223,228.828915,190.169869,228.58933C189.796514,228.349744,189.329281,228.308874,188.92,228.48L178.92,232.68C178.207549,232.977317,177.388879,232.641797,177.09,231.93L172.25,220.35C172.106531,220.00565,171.831565,219.732798,171.486118,219.59199C171.140671,219.451183,170.753313,219.454066,170.41,219.6L161.2,223.45C155.808244,225.707409,149.730578,225.67664,144.361954,223.364757C138.99333,221.052873,134.794795,216.658414,132.73,211.19C128.59,200.24,134.3,187.99,145.1,183.48L153.79,179.84C154.501797,179.541121,154.837317,178.722451,154.54,178.01L149.7,166.43C149.402683,165.717549,149.738203,164.898879,150.45,164.6L175.26,154.23L175.57,154.96C175.745926,155.375565,176.11138,155.680848,176.551621,155.780001C176.991863,155.879155,177.452906,155.76002,177.79,155.46L240.16,104.89C240.606341,104.494989,240.751163,103.859379,240.52,103.31L239.25,100.31C238.952683,99.597549,239.288203,98.778879,240,98.48L251.08,93.84C251.795196,93.549752,252.610836,93.888488,252.91,94.6L267.06,128.43C278.389297,127.226243,289.166104,133.598956,293.570147,144.106402C297.974189,154.613848,294.961844,166.766083,286.16,174L301.69,211.14C301.84522,211.485214,301.852949,211.878798,301.7114,212.229839C301.569851,212.58088,301.291268,212.859016,300.94,213Z')} 50% {d: path('M292.94,215L281.86,219.64C281.144804,219.930248,280.329164,219.591512,280.03,218.88L278.73,215.78C278.511668,215.242138,277.980085,214.898408,277.4,214.92L206.28,217.23C205.881821,217.242957,205.50802,217.42494,205.252226,217.730365C204.996433,218.03579,204.882876,218.435727,204.94,218.83L210.38,256.05C210.6598,257.971641,210.136874,259.923773,208.933952,261.44823C207.73103,262.972688,205.954026,263.935249,204.02,264.11L199.56,264.53C197.626851,264.704141,195.706982,264.076997,194.249415,262.795245C192.791848,261.513494,191.924417,259.689549,191.85,257.75L190.79,229.68C190.775044,229.236636,190.543223,228.828915,190.169869,228.58933C189.796514,228.349744,189.329281,228.308874,188.92,228.48L178.92,232.68C178.207549,232.977317,177.388879,232.641797,177.09,231.93L172.25,220.35C172.106531,220.00565,171.831565,219.732798,171.486118,219.59199C171.140671,219.451183,170.753313,219.454066,170.41,219.6L161.2,223.45C155.808244,225.707409,149.730578,225.67664,144.361954,223.364757C138.99333,221.052873,134.794795,216.658414,132.73,211.19C128.59,200.24,134.3,187.99,145.1,183.48L153.79,179.84C154.501797,179.541121,154.837317,178.722451,154.54,178.01L149.7,166.43C149.402683,165.717549,149.738203,164.898879,150.45,164.6L175.26,154.23L175.57,154.96C175.745926,155.375565,176.11138,155.680848,176.551621,155.780001C176.991863,155.879155,177.452906,155.76002,177.79,155.46L232.16,106.89C232.606341,106.494989,232.751163,105.859379,232.52,105.31L231.25,102.31C230.952683,101.597549,231.288203,100.778879,232,100.48L243.08,95.84C243.795196,95.549752,244.610836,95.888488,244.91,96.6L259.06,130.43C270.389297,129.226243,281.166104,135.598956,285.570147,146.106402C289.974189,156.613848,286.961844,168.766083,278.16,176L293.69,213.14C293.84522,213.485214,293.852949,213.878798,293.7114,214.229839C293.569851,214.58088,293.291268,214.859016,292.94,215Z')} 100% {d: path('M292.94,215L281.86,219.64C281.144804,219.930248,280.329164,219.591512,280.03,218.88L278.73,215.78C278.511668,215.242138,277.980085,214.898408,277.4,214.92L206.28,217.23C205.881821,217.242957,205.50802,217.42494,205.252226,217.730365C204.996433,218.03579,204.882876,218.435727,204.94,218.83L210.38,256.05C210.6598,257.971641,210.136874,259.923773,208.933952,261.44823C207.73103,262.972688,205.954026,263.935249,204.02,264.11L199.56,264.53C197.626851,264.704141,195.706982,264.076997,194.249415,262.795245C192.791848,261.513494,191.924417,259.689549,191.85,257.75L190.79,229.68C190.775044,229.236636,190.543223,228.828915,190.169869,228.58933C189.796514,228.349744,189.329281,228.308874,188.92,228.48L178.92,232.68C178.207549,232.977317,177.388879,232.641797,177.09,231.93L172.25,220.35C172.106531,220.00565,171.831565,219.732798,171.486118,219.59199C171.140671,219.451183,170.753313,219.454066,170.41,219.6L161.2,223.45C155.808244,225.707409,149.730578,225.67664,144.361954,223.364757C138.99333,221.052873,134.794795,216.658414,132.73,211.19C128.59,200.24,134.3,187.99,145.1,183.48L153.79,179.84C154.501797,179.541121,154.837317,178.722451,154.54,178.01L149.7,166.43C149.402683,165.717549,149.738203,164.898879,150.45,164.6L175.26,154.23L175.57,154.96C175.745926,155.375565,176.11138,155.680848,176.551621,155.780001C176.991863,155.879155,177.452906,155.76002,177.79,155.46L232.16,106.89C232.606341,106.494989,232.751163,105.859379,232.52,105.31L231.25,102.31C230.952683,101.597549,231.288203,100.778879,232,100.48L243.08,95.84C243.795196,95.549752,244.610836,95.888488,244.91,96.6L259.06,130.43C270.389297,129.226243,281.166104,135.598956,285.570147,146.106402C289.974189,156.613848,286.961844,168.766083,278.16,176L293.69,213.14C293.84522,213.485214,293.852949,213.878798,293.7114,214.229839C293.569851,214.58088,293.291268,214.859016,292.94,215Z')}} #eUaiKRXMyTg9_tr {animation: eUaiKRXMyTg9_tr__tr 2000ms linear infinite normal forwards}@keyframes eUaiKRXMyTg9_tr__tr { 0% {transform: translate(166.069999px,206.850384px) rotate(0deg);animation-timing-function: cubic-bezier(0.175,0.885,0.32,1.275)} 25% {transform: translate(166.069999px,206.850384px) rotate(1.387513deg)} 50% {transform: translate(166.069999px,206.850384px) rotate(0deg)} 100% {transform: translate(166.069999px,206.850384px) rotate(0deg)}} #eUaiKRXMyTg9_ts {animation: eUaiKRXMyTg9_ts__ts 2000ms linear infinite normal forwards}@keyframes eUaiKRXMyTg9_ts__ts { 0% {transform: scale(1,1);animation-timing-function: cubic-bezier(0.175,0.885,0.32,1.275)} 25% {transform: scale(1.100113,1.100113)} 50% {transform: scale(1,1)} 100% {transform: scale(1,1)}} #eUaiKRXMyTg27 {animation: eUaiKRXMyTg27_s_do 2000ms linear infinite normal forwards}@keyframes eUaiKRXMyTg27_s_do { 0% {stroke-dashoffset: 96.88;animation-timing-function: cubic-bezier(0.075,0.82,0.165,1)} 25% {stroke-dashoffset: 0} 50% {stroke-dashoffset: 96.88} 100% {stroke-dashoffset: 96.88}} #eUaiKRXMyTg31 {animation: eUaiKRXMyTg31_s_do 2000ms linear infinite normal forwards}@keyframes eUaiKRXMyTg31_s_do { 0% {stroke-dashoffset: 96.88;animation-timing-function: cubic-bezier(0.075,0.82,0.165,1)} 25% {stroke-dashoffset: 0} 50% {stroke-dashoffset: 96.88} 100% {stroke-dashoffset: 96.88}} #eUaiKRXMyTg35 {animation: eUaiKRXMyTg35_s_do 2000ms linear infinite normal forwards}@keyframes eUaiKRXMyTg35_s_do { 0% {stroke-dashoffset: 46.39;animation-timing-function: cubic-bezier(0.075,0.82,0.165,1)} 25% {stroke-dashoffset: 0} 50% {stroke-dashoffset: 46.39} 100% {stroke-dashoffset: 46.39}} #eUaiKRXMyTg39 {animation: eUaiKRXMyTg39_s_do 2000ms linear infinite normal forwards}@keyframes eUaiKRXMyTg39_s_do { 0% {stroke-dashoffset: 46.39;animation-timing-function: cubic-bezier(0.075,0.82,0.165,1)} 25% {stroke-dashoffset: 0} 50% {stroke-dashoffset: 46.39} 100% {stroke-dashoffset: 46.39}} #eUaiKRXMyTg43 {animation: eUaiKRXMyTg43_s_do 2000ms linear infinite normal forwards}@keyframes eUaiKRXMyTg43_s_do { 0% {stroke-dashoffset: 46.39;animation-timing-function: cubic-bezier(0.075,0.82,0.165,1)} 25% {stroke-dashoffset: 0} 50% {stroke-dashoffset: 46.39} 100% {stroke-dashoffset: 46.39}}]]></style><g id="eUaiKRXMyTg2" transform="matrix(0.915683 0 0 0.915683 -86.860803 -4.474545)"><g id="eUaiKRXMyTg3"><path id="eUaiKRXMyTg4" d="M292.94,222.62L281.86,227.26C281.144804,227.550248,280.329164,227.211512,280.03,226.5L278.73,223.4C278.511668,222.862138,277.980085,222.518408,277.4,222.54L206.28,224.85C205.881821,224.862957,205.50802,225.04494,205.252226,225.350365C204.996433,225.65579,204.882876,226.055727,204.94,226.45L210.38,263.67C210.6598,265.591641,210.136874,267.543773,208.933952,269.06823C207.73103,270.592688,205.954026,271.555249,204.02,271.73L199.56,272.15C197.626851,272.324141,195.706982,271.696997,194.249415,270.415245C192.791848,269.133494,191.924417,267.309549,191.85,265.37L190.79,237.3C190.775044,236.856636,190.543223,236.448915,190.169869,236.20933C189.796514,235.969744,189.329281,235.928874,188.92,236.1L178.92,240.3C178.207549,240.597317,177.388879,240.261797,177.09,239.55L172.21,228C172.066531,227.65565,171.791565,227.382798,171.446118,227.24199C171.100671,227.101183,170.713313,227.104066,170.37,227.25L161.16,231.1C155.768244,233.357409,149.690578,233.32664,144.321954,231.014757C138.95333,228.702873,134.754795,224.308414,132.69,218.84C128.55,207.89,134.26,195.64,145.06,191.13L153.75,187.49C154.461797,187.191121,154.797317,186.372451,154.5,185.66L149.66,174.08C149.362683,173.367549,149.698203,172.548879,150.41,172.25L175.22,161.88L175.53,162.61C175.705926,163.025565,176.07138,163.330848,176.511621,163.430001C176.951863,163.529155,177.412906,163.41002,177.75,163.11L232.12,114.54C232.566341,114.144989,232.711163,113.509379,232.48,112.96L231.21,109.96C230.912683,109.247549,231.248203,108.428879,231.96,108.13L243.04,103.49C243.755196,103.199752,244.570836,103.538488,244.87,104.25L259.08,138C270.437075,136.765799,281.252793,143.150204,285.659898,153.689836C290.067002,164.229468,287.015193,176.412523,278.16,183.63L293.69,220.77C293.841976,221.114122,293.847981,221.505148,293.706646,221.853775C293.565311,222.202403,293.288705,222.478856,292.94,222.62Z" fill="rgb(20,19,19)" stroke="none" stroke-width="1"/><path id="eUaiKRXMyTg5" d="M265.74,182.16L279.41,214.85L186.67,217.85L184.86,213.53L161.16,223.44C150.183341,228.032248,137.562248,222.856659,132.97,211.88C128.377752,200.903341,133.553341,188.282248,144.53,183.69L168.24,173.78L165.24,166.68L233.67,105.54L246.51,136.25C255.07998,129.556548,266.927567,128.957637,276.128859,134.752729C285.330152,140.54782,289.907967,151.49166,287.573356,162.112227C285.238744,172.732795,276.49337,180.747933,265.71,182.15Z" fill="rgb(45,45,45)" stroke="none" stroke-width="1"/><path id="eUaiKRXMyTg6" d="M204.49,263.92L200.03,264.32C196.03,264.69,192.51,262.05,192.41,258.54L191.49,227.4L182.49,231.18C180.648121,231.947458,178.532536,231.079755,177.76,229.24L152.08,167.83C151.313243,165.990889,152.181543,163.878323,154.02,163.11L174.02,154.76C175.85913,153.991371,177.973589,154.854142,178.75,156.69L204.43,218.11C204.536807,218.362845,204.610744,218.628344,204.65,218.9C205.074007,219.538753,205.353824,220.262181,205.47,221.02L211.01,256.85C211.47,260.32,208.53,263.55,204.49,263.92Z" fill="rgb(36,36,36)" stroke="none" stroke-width="1"/><g id="eUaiKRXMyTg7_to" transform="translate(-40.46,113.04)"><rect id="eUaiKRXMyTg7" width="14.81" height="129.19" rx="0" ry="0" transform="rotate(-22.690008) translate(254,92.74)" fill="rgb(36,36,36)" stroke="none" stroke-width="1"/></g><path id="eUaiKRXMyTg8" d="M292.94,215L281.86,219.64C281.144804,219.930248,280.329164,219.591512,280.03,218.88L278.73,215.78C278.511668,215.242138,277.980085,214.898408,277.4,214.92L206.28,217.23C205.881821,217.242957,205.50802,217.42494,205.252226,217.730365C204.996433,218.03579,204.882876,218.435727,204.94,218.83L210.38,256.05C210.6598,257.971641,210.136874,259.923773,208.933952,261.44823C207.73103,262.972688,205.954026,263.935249,204.02,264.11L199.56,264.53C197.626851,264.704141,195.706982,264.076997,194.249415,262.795245C192.791848,261.513494,191.924417,259.689549,191.85,257.75L190.79,229.68C190.775044,229.236636,190.543223,228.828915,190.169869,228.58933C189.796514,228.349744,189.329281,228.308874,188.92,228.48L178.92,232.68C178.207549,232.977317,177.388879,232.641797,177.09,231.93L172.25,220.35C172.106531,220.00565,171.831565,219.732798,171.486118,219.59199C171.140671,219.451183,170.753313,219.454066,170.41,219.6L161.2,223.45C155.808244,225.707409,149.730578,225.67664,144.361954,223.364757C138.99333,221.052873,134.794795,216.658414,132.73,211.19C128.59,200.24,134.3,187.99,145.1,183.48L153.79,179.84C154.501797,179.541121,154.837317,178.722451,154.54,178.01L149.7,166.43C149.402683,165.717549,149.738203,164.898879,150.45,164.6L175.26,154.23L175.57,154.96C175.745926,155.375565,176.11138,155.680848,176.551621,155.780001C176.991863,155.879155,177.452906,155.76002,177.79,155.46L232.16,106.89C232.606341,106.494989,232.751163,105.859379,232.52,105.31L231.25,102.31C230.952683,101.597549,231.288203,100.778879,232,100.48L243.08,95.84C243.795196,95.549752,244.610836,95.888488,244.91,96.6L259.06,130.43C270.389297,129.226243,281.166104,135.598956,285.570147,146.106402C289.974189,156.613848,286.961844,168.766083,278.16,176L293.69,213.14C293.84522,213.485214,293.852949,213.878798,293.7114,214.229839C293.569851,214.58088,293.291268,214.859016,292.94,215Z" fill="none" stroke="rgb(255,255,255)" stroke-width="4" stroke-linecap="round" stroke-linejoin="round" stroke-miterlimit="10"/></g><g id="eUaiKRXMyTg9_tr" transform="translate(166.069999,206.850384) rotate(0)"><g id="eUaiKRXMyTg9_ts" transform="scale(1,1)"><g id="eUaiKRXMyTg9" transform="translate(-166.07,-206.410001)"><g id="eUaiKRXMyTg10" transform="matrix(1 0 0 1 0 0.000001)"><path id="eUaiKRXMyTg11" d="M183.09,177.58C183.898637,178.048153,184.52311,178.778469,184.86,179.65C185.448571,180.855701,185.365167,182.281166,184.64,183.41C183.605442,184.790305,182.185979,185.834028,180.56,186.41L172.66,189.82L166.07,174.55L173.53,171.33C174.992789,170.590568,176.647403,170.31829,178.27,170.55C179.512829,170.77669,180.551695,171.626671,181.02,172.8C181.336202,173.494339,181.447234,174.264626,181.34,175.02C181.232193,175.757497,180.920475,176.450204,180.44,177.02C181.36042,176.919899,182.28877,177.116079,183.09,177.58ZM170.73,175.74L172.28,179.33L175.79,177.82C176.50325,177.565147,177.125762,177.106089,177.58,176.5C177.899284,176.008162,177.933547,175.383822,177.67,174.86C177.476658,174.307775,176.997309,173.905121,176.42,173.81C175.669064,173.735068,174.912405,173.877376,174.24,174.22ZM181.05,182.53C181.388779,182.015889,181.426917,181.359907,181.15,180.81Q180.32,178.92,177.52,180.13L173.39,181.91L175.02,185.68L179.15,183.9C179.899925,183.631778,180.558638,183.156812,181.05,182.53Z" fill="rgb(255,255,255)" stroke="none" stroke-width="1"/><path id="eUaiKRXMyTg12" d="M183,167.26L186.53,165.74L191.88,178.13L199.53,174.82L200.78,177.7L189.59,182.53Z" fill="rgb(255,255,255)" stroke="none" stroke-width="1"/><path id="eUaiKRXMyTg13" d="M211.86,169.05L204.77,172.11L204.83,175.97L201.21,177.53L201.42,159.33L204.91,157.82L218.33,170.14L214.62,171.74ZM209.59,166.85L204.59,162.05L204.69,168.94Z" fill="rgb(255,255,255)" stroke="none" stroke-width="1"/><path id="eUaiKRXMyTg14" d="M222.75,167.34C221.24103,167.223247,219.794036,166.690145,218.57,165.8C217.304442,164.890097,216.320307,163.642601,215.73,162.2C215.092065,160.780971,214.856814,159.213789,215.05,157.67C215.250223,156.170988,215.859121,154.755991,216.81,153.58C217.81703,152.32575,219.123952,151.345558,220.61,150.73C221.83457,150.18264,223.158733,149.893298,224.5,149.88C225.736604,149.872717,226.957086,150.160696,228.06,150.72L226.7,153.8C225.260238,153.055043,223.559375,153.007183,222.08,153.67C221.190457,154.033201,220.411353,154.6227,219.82,155.38C219.257034,156.094416,218.910065,156.954898,218.82,157.86C218.727969,158.818416,218.890077,159.784162,219.29,160.66C219.657188,161.547266,220.245976,162.325429,221,162.92C221.717967,163.476813,222.576609,163.82304,223.48,163.92C224.438089,164.003327,225.401629,163.84159,226.28,163.45C227.778539,162.824321,228.906674,161.545031,229.34,159.98L232.51,161.09C232.170713,162.290205,231.542376,163.388937,230.68,164.29C228.597922,166.412764,225.698021,167.528952,222.73,167.35Z" fill="rgb(255,255,255)" stroke="none" stroke-width="1"/><path id="eUaiKRXMyTg15" d="M239.23,154L238.1,157L239.77,160.86L236.26,162.38L229.67,147.11L233.18,145.59L236.26,152.73L239.94,142.68L243.86,140.98L240.48,150.52L250.83,156.09L246.7,157.87Z" fill="rgb(255,255,255)" stroke="none" stroke-width="1"/></g><g id="eUaiKRXMyTg16" transform="matrix(1 0 0 1 0 0.000001)"><path id="eUaiKRXMyTg17" d="M180.09,198L181.83,202L188.9,199L190.12,201.83L183.05,204.89L185.45,210.45L181.92,212L175.33,196.74L186.87,191.74L188.09,194.57Z" fill="rgb(206,0,0)" stroke="none" stroke-width="1"/><path id="eUaiKRXMyTg18" d="M204.54,202.23L199.76,199.23L199.58,199.3L196.51,200.63L198.34,204.88L194.81,206.41L188.22,191.14L194.83,188.29C196.02397,187.735602,197.323607,187.445656,198.64,187.44C199.752039,187.435786,200.840682,187.759248,201.77,188.37C202.702635,189.010338,203.426057,189.911137,203.85,190.96C204.32556,191.987011,204.482307,193.133007,204.3,194.25C204.094478,195.341788,203.568859,196.347775,202.79,197.14L208.33,200.57ZM198.59,190.91C197.672421,190.708003,196.713019,190.835452,195.88,191.27L193,192.51L195.29,197.84L198.17,196.59C199.059639,196.277959,199.810469,195.661712,200.29,194.85C200.596703,194.102904,200.589238,193.263705,200.269292,192.522184C199.949346,191.780662,199.343946,191.199455,198.59,190.91Z" fill="rgb(206,0,0)" stroke="none" stroke-width="1"/><path id="eUaiKRXMyTg19" d="M203.2,184.69L206.74,183.17L213.33,198.43L209.79,200Z" fill="rgb(206,0,0)" stroke="none" stroke-width="1"/><path id="eUaiKRXMyTg20" d="M209.31,182.06L216.24,179.06C217.747288,178.372498,219.394515,178.047162,221.05,178.11C222.527734,178.171244,223.957191,178.653512,225.17,179.5C227.64597,181.375763,228.958788,184.411179,228.63,187.5C228.416728,188.962638,227.788577,190.333464,226.82,191.45C225.724701,192.696211,224.355571,193.671716,222.82,194.3L215.88,197.3ZM221.41,191.5C222.775896,190.991331,223.888545,189.968411,224.51,188.65C225.482177,185.913435,224.171912,182.891093,221.51,181.73C220.119448,181.284456,218.610294,181.395582,217.3,182.04L214.07,183.43L218.16,192.9Z" fill="rgb(206,0,0)" stroke="none" stroke-width="1"/><path id="eUaiKRXMyTg21" d="M241.29,182.48L234.2,185.54L234.26,189.39L230.64,191L230.86,172.79L234.35,171.28L247.76,183.6L244.06,185.2ZM239,180.27L234.06,175.47L234.16,182.36Z" fill="rgb(206,0,0)" stroke="none" stroke-width="1"/><path id="eUaiKRXMyTg22" d="M252.36,175.16L254.7,180.57L251.17,182.09L248.81,176.64L238.66,169.38L242.42,167.76L249.42,172.76L250.57,164.22L254.04,162.72Z" fill="rgb(206,0,0)" stroke="none" stroke-width="1"/></g></g></g></g><g id="eUaiKRXMyTg23" transform="matrix(1 0 0 1 0 0.000001)"><g id="eUaiKRXMyTg24" mask="url(#eUaiKRXMyTg26)"><polygon id="eUaiKRXMyTg25" points="298.53,130.44 359.26,61.46 345.73,51.58 298.53,130.44" fill="rgb(206,0,0)" stroke="none" stroke-width="1"/><mask id="eUaiKRXMyTg26" mask-type="alpha"><path id="eUaiKRXMyTg27" d="M253.53,165.43L309.811553,86.580001" transform="matrix(1 0 0 1 45 -34.995001)" fill="none" stroke="rgb(63,87,135)" stroke-width="20" stroke-dashoffset="96.88" stroke-dasharray="96.88"/></mask></g><g id="eUaiKRXMyTg28" transform="matrix(0.472285 0.881446 -0.881446 0.472285 278.763555 -174.16271)" mask="url(#eUaiKRXMyTg30)"><polygon id="eUaiKRXMyTg29" points="298.53,130.44 359.26,61.46 345.73,51.58 298.53,130.44" fill="rgb(206,0,0)" stroke="none" stroke-width="1"/><mask id="eUaiKRXMyTg30" mask-type="alpha"><path id="eUaiKRXMyTg31" d="M253.53,165.43L309.811553,86.580001" transform="matrix(1 0 0 1 45 -34.995001)" fill="none" stroke="rgb(63,87,135)" stroke-width="20" stroke-dashoffset="96.88" stroke-dasharray="96.88"/></mask></g><g id="eUaiKRXMyTg32" mask="url(#eUaiKRXMyTg34)"><polygon id="eUaiKRXMyTg33" points="285.99,117.67 306.64,77.81 290.6,73.01 285.99,117.67" fill="rgb(206,0,0)" stroke="none" stroke-width="1"/><mask id="eUaiKRXMyTg34" mask-type="alpha"><path id="eUaiKRXMyTg35" d="M240.990002,154.612234L253.53,109.952234" transform="matrix(1 0 0 1 45 -36.942234)" fill="none" stroke="rgb(63,87,135)" stroke-width="19" stroke-dashoffset="46.39" stroke-dasharray="46.39"/></mask></g><g id="eUaiKRXMyTg36" transform="matrix(0.564587 0.825374 -0.825374 0.564587 250.240661 -166.407165)" mask="url(#eUaiKRXMyTg38)"><polygon id="eUaiKRXMyTg37" points="285.99,117.67 306.64,77.81 290.6,73.01 285.99,117.67" fill="rgb(206,0,0)" stroke="none" stroke-width="1"/><mask id="eUaiKRXMyTg38" mask-type="alpha"><path id="eUaiKRXMyTg39" d="M240.990002,154.612234L253.53,109.952234" transform="matrix(1 0 0 1 45 -36.942234)" fill="none" stroke="rgb(63,87,135)" stroke-width="19" stroke-dashoffset="46.39" stroke-dasharray="46.39"/></mask></g><g id="eUaiKRXMyTg40" transform="matrix(-0.261306 0.965256 -0.965256 -0.261306 494.75773 -76.114148)" mask="url(#eUaiKRXMyTg42)"><polygon id="eUaiKRXMyTg41" points="285.99,117.67 306.64,77.81 290.6,73.01 285.99,117.67" fill="rgb(206,0,0)" stroke="none" stroke-width="1"/><mask id="eUaiKRXMyTg42" mask-type="alpha"><path id="eUaiKRXMyTg43" d="M240.990002,154.612234L253.53,109.952234" transform="matrix(1 0 0 1 45 -36.942234)" fill="none" stroke="rgb(63,87,135)" stroke-width="19" stroke-dashoffset="46.39" stroke-dasharray="46.39"/></mask></g></g></g></svg>