<svg id="s1" xmlns="http://www.w3.org/2000/svg" xmlns:xlink="http://www.w3.org/1999/xlink" viewBox="0 0 400 400"><defs><linearGradient id="s7-fill" x1="206.290000" y1="163.920000" x2="209.540000" y2="207.420000" spreadMethod="pad" gradientUnits="userSpaceOnUse"><stop id="s7-fill-0" offset="9%" stop-color="rgb(255,228,194)"/><stop id="s7-fill-1" offset="84%" stop-color="rgb(255,212,158)"/></linearGradient><linearGradient id="s9-fill" x1="220.680000" y1="167.120000" x2="199" y2="116.410000" spreadMethod="pad" gradientUnits="userSpaceOnUse"><stop id="s9-fill-0" offset="11%" stop-color="rgb(196,51,51)"/><stop id="s9-fill-1" offset="55%" stop-color="rgb(227,88,88)"/></linearGradient><linearGradient id="s11-fill" x1="20.150000" y1="6.600000" x2="22.150000" y2="43.850000" spreadMethod="pad" gradientUnits="userSpaceOnUse"><stop id="s11-fill-0" offset="9%" stop-color="rgb(255,228,194)"/><stop id="s11-fill-1" offset="84%" stop-color="rgb(255,212,158)"/></linearGradient><linearGradient id="s15-fill" x1="90.520000" y1="17.020000" x2="133.180000" y2="139.680000" spreadMethod="pad" gradientUnits="userSpaceOnUse"><stop id="s15-fill-0" offset="7%" stop-color="rgb(232,67,113)"/><stop id="s15-fill-1" offset="56%" stop-color="rgb(214,55,99)"/><stop id="s15-fill-2" offset="88%" stop-color="rgb(191,43,85)"/></linearGradient><linearGradient id="s17-fill" x1="3.590000" y1="69.100000" x2="89.590000" y2="64.430000" spreadMethod="pad" gradientUnits="userSpaceOnUse"><stop id="s17-fill-0" offset="0%" stop-color="rgb(255,221,178)"/><stop id="s17-fill-1" offset="51%" stop-color="rgb(255,209,153)"/><stop id="s17-fill-2" offset="100%" stop-color="rgb(255,196,125)"/></linearGradient><linearGradient id="s19-fill" x1="75.910000" y1="-1.250000" x2="75.910000" y2="40.180000" spreadMethod="pad" gradientUnits="userSpaceOnUse"><stop id="s19-fill-0" offset="24%" stop-color="rgb(135,72,60)"/><stop id="s19-fill-1" offset="80%" stop-color="rgb(125,62,50)"/></linearGradient><linearGradient id="s21-fill" x1="163.820000" y1="182.430000" x2="180.480000" y2="238.430000" spreadMethod="pad" gradientUnits="userSpaceOnUse"><stop id="s21-fill-0" offset="6%" stop-color="rgb(252,141,172)"/><stop id="s21-fill-1" offset="68%" stop-color="rgb(252,106,148)"/><stop id="s21-fill-2" offset="100%" stop-color="rgb(242,80,126)"/></linearGradient><linearGradient id="s23-fill" x1="123.980000" y1="-13.070000" x2="134.650000" y2="16.260000" spreadMethod="pad" gradientUnits="userSpaceOnUse"><stop id="s23-fill-0" offset="16%" stop-color="rgb(120,218,255)"/><stop id="s23-fill-1" offset="100%" stop-color="rgb(86,184,222)"/></linearGradient></defs><g id="s3"><g id="s5"><path id="s7" d="M254.240000,176.770000L246.790000,176.770000C246.962106,175.779095,247.052410,174.775712,247.060000,173.770000L247.060000,173.770000C247.032528,163.547565,238.752435,155.267472,228.530000,155.240000L190.790000,155.240000C180.567565,155.267472,172.287472,163.547565,172.260000,173.770000L172.260000,173.770000C172.267590,174.775712,172.357894,175.779095,172.530000,176.770000L163,176.770000C152.964986,176.770000,144.830000,184.904986,144.830000,194.940000C144.830000,204.975014,152.964986,213.110000,163,213.110000L254.280000,213.110000C264.315014,213.110000,272.450000,204.975014,272.450000,194.940000C272.450000,184.904986,264.315014,176.770000,254.280000,176.770000Z" fill="url(#s7-fill)" stroke="none" stroke-width="1"/><path id="s9" d="M233.800000,140.320000C233.801435,133.655455,229.265744,127.845647,222.800000,126.230000C218.465415,125.142543,213.871683,126.044425,210.270000,128.690000C206.668317,126.044425,202.074585,125.142543,197.740000,126.230000C191.274256,127.845647,186.738565,133.655455,186.740000,140.320000L186.740000,143.940000C186.740000,155.680000,196.810000,165.290000,209.130000,165.290000L211.450000,165.290000C223.760000,165.290000,233.840000,155.680000,233.840000,143.940000Z" fill="url(#s9-fill)" stroke="none" stroke-width="1"/><rect id="s11" width="41.380000" height="33.290000" rx="16.650000" ry="16.650000" transform="translate(198.720000,159.490000)" fill="url(#s11-fill)" stroke="none" stroke-width="1"/></g><g id="s13"><rect id="s15" width="214.540000" height="130.350000" rx="7.790000" ry="7.790000" transform="translate(97.470000,197.230000)" fill="url(#s15-fill)" stroke="none" stroke-width="1"/><rect id="s17" width="151.830000" height="130.350000" rx="7.790000" ry="7.790000" transform="translate(97.470000,197.230000)" fill="url(#s17-fill)" stroke="none" stroke-width="1"/><rect id="s19" width="151.830000" height="40.400000" rx="0" ry="0" transform="translate(97.470000,248.200000)" fill="url(#s19-fill)" stroke="none" stroke-width="1"/><path id="s21" d="M241.510000,197.230000L105.260000,197.230000C100.965500,197.229986,97.481026,200.705514,97.470000,205L97.470000,225.250000C97.470000,218.263598,103.133598,212.600000,110.120000,212.600000C117.106402,212.600000,122.770000,218.263598,122.770000,225.250000L122.770000,238.650000C122.770000,245.639164,128.435836,251.305000,135.425000,251.305000C142.414164,251.305000,148.080000,245.639164,148.080000,238.650000L148.080000,232.500000C148.080000,225.513598,153.743598,219.850000,160.730000,219.850000C167.716402,219.850000,173.380000,225.513598,173.380000,232.500000L173.380000,272.500000C173.380000,279.486402,179.043598,285.150000,186.030000,285.150000C193.016402,285.150000,198.680000,279.486402,198.680000,272.500000L198.680000,243.350000C198.680000,236.363598,204.343598,230.700000,211.330000,230.700000C218.316402,230.700000,223.980000,236.363598,223.980000,243.350000L223.980000,243.350000L223.980000,246.760000C223.980000,253.746402,229.643598,259.410000,236.630000,259.410000C243.616402,259.410000,249.280000,253.746402,249.280000,246.760000L249.280000,205C249.269008,200.713309,245.796691,197.240992,241.510000,197.230000Z" fill="url(#s21-fill)" stroke="none" stroke-width="1"/></g><rect id="s23" width="266.330000" height="24.350000" rx="12.180000" ry="12.180000" transform="translate(71.580000,319.250000)" fill="url(#s23-fill)" stroke="none" stroke-width="1"/></g></svg>