<svg id="s1" xmlns="http://www.w3.org/2000/svg" xmlns:xlink="http://www.w3.org/1999/xlink" viewBox="0 0 400 400"><defs><linearGradient id="s5-fill" x1="95.440000" y1="279.570000" x2="63.060000" y2="49.910000" spreadMethod="pad" gradientUnits="userSpaceOnUse"><stop id="s5-fill-0" offset="13%" stop-color="rgb(224,164,90)"/><stop id="s5-fill-1" offset="92%" stop-color="rgb(255,196,125)"/></linearGradient><linearGradient id="s9-fill" x1="138.600000" y1="42.070000" x2="209.770000" y2="227.450000" spreadMethod="pad" gradientUnits="userSpaceOnUse"><stop id="s9-fill-0" offset="1%" stop-color="rgb(146,181,65)"/><stop id="s9-fill-1" offset="40%" stop-color="rgb(138,173,55)"/><stop id="s9-fill-2" offset="100%" stop-color="rgb(105,141,54)"/></linearGradient><linearGradient id="s11-fill" x1="20.350000" y1="3.540000" x2="29.190000" y2="71.380000" spreadMethod="pad" gradientUnits="userSpaceOnUse"><stop id="s11-fill-0" offset="6%" stop-color="rgb(255,247,230)"/><stop id="s11-fill-1" offset="8%" stop-color="rgb(254,247,230)"/><stop id="s11-fill-2" offset="64%" stop-color="rgb(245,238,221)"/></linearGradient><linearGradient id="s13-fill" x1="-24.180000" y1="-30.970000" x2="32.710000" y2="41.900000" spreadMethod="pad" gradientUnits="userSpaceOnUse"><stop id="s13-fill-0" offset="7%" stop-color="rgb(171,67,46)"/><stop id="s13-fill-1" offset="42%" stop-color="rgb(186,76,55)"/><stop id="s13-fill-2" offset="74%" stop-color="rgb(224,101,78)"/><stop id="s13-fill-3" offset="84%" stop-color="rgb(218,97,74)"/><stop id="s13-fill-4" offset="98%" stop-color="rgb(201,86,64)"/><stop id="s13-fill-5" offset="100%" stop-color="rgb(198,84,62)"/></linearGradient><linearGradient id="s15-fill" x1="19.150000" y1="45.630000" x2="-9.830000" y2="-23.400000" spreadMethod="pad" gradientUnits="userSpaceOnUse"><stop id="s15-fill-0" offset="7%" stop-color="rgb(171,67,46)"/><stop id="s15-fill-1" offset="42%" stop-color="rgb(186,76,55)"/><stop id="s15-fill-2" offset="74%" stop-color="rgb(224,101,78)"/><stop id="s15-fill-3" offset="84%" stop-color="rgb(218,97,74)"/><stop id="s15-fill-4" offset="98%" stop-color="rgb(201,86,64)"/><stop id="s15-fill-5" offset="100%" stop-color="rgb(198,84,62)"/></linearGradient><linearGradient id="s17-fill" x1="20.349999" y1="3.550000" x2="29.189999" y2="71.390000" spreadMethod="pad" gradientUnits="userSpaceOnUse"><stop id="s17-fill-0" offset="6%" stop-color="rgb(255,247,230)"/><stop id="s17-fill-1" offset="8%" stop-color="rgb(254,247,230)"/><stop id="s17-fill-2" offset="64%" stop-color="rgb(245,238,221)"/></linearGradient><linearGradient id="s19-fill" x1="303.230000" y1="200.590000" x2="200.970000" y2="208.890000" spreadMethod="pad" gradientUnits="userSpaceOnUse"><stop id="s19-fill-0" offset="29%" stop-color="rgb(255,209,153)"/><stop id="s19-fill-1" offset="99%" stop-color="rgb(242,179,102)"/></linearGradient><linearGradient id="s21-fill" x1="276.940000" y1="166.160000" x2="119.050000" y2="212.510000" spreadMethod="pad" gradientUnits="userSpaceOnUse"><stop id="s21-fill-0" offset="0%" stop-color="rgb(255,221,178)"/><stop id="s21-fill-1" offset="51%" stop-color="rgb(255,209,153)"/><stop id="s21-fill-2" offset="100%" stop-color="rgb(255,196,125)"/></linearGradient></defs><g id="s3"><rect id="s5" width="157.150000" height="320" rx="65.120000" ry="65.120000" transform="translate(121.420000,42)" fill="url(#s5-fill)" stroke="none" stroke-width="1"/><g id="s7"><path id="s9" d="M230.110000,346.360000C220.110000,346.360000,220.110000,342.360000,210.040000,342.360000C199.970000,342.360000,200.040000,346.360000,189.970000,346.360000C179.900000,346.360000,179.970000,342.360000,169.900000,342.360000C163.530000,342.360000,156.530000,344.360000,151.370000,341.360000C146.210000,338.360000,144.370000,331.100000,141.260000,325.790000C138.150000,320.480000,132.810000,315.640000,132.810000,309.270000C132.810000,273.510000,136.810000,273.510000,136.810000,237.750000C136.810000,201.990000,132.810000,201.990000,132.810000,166.230000C132.810000,130.470000,136.810000,130.470000,136.810000,94.710000C136.810000,88.340000,134.810000,81.340000,137.810000,76.180000C140.810000,71.020000,148.070000,69.180000,153.380000,66.070000C158.690000,62.960000,163.530000,57.620000,169.900000,57.620000C179.900000,57.620000,179.900000,61.620000,189.970000,61.620000C200.040000,61.620000,199.970000,57.620000,210.040000,57.620000C220.110000,57.620000,220.040000,61.620000,230.110000,61.620000C236.480000,61.620000,243.480000,59.620000,248.640000,62.620000C253.800000,65.620000,255.640000,72.880000,258.750000,78.190000C261.860000,83.500000,267.200000,88.340000,267.200000,94.710000C267.200000,130.470000,263.200000,130.470000,263.200000,166.230000C263.200000,201.990000,267.200000,201.990000,267.200000,237.750000C267.200000,273.510000,263.200000,273.510000,263.200000,309.270000C263.200000,315.640000,265.200000,322.640000,262.200000,327.800000C259.200000,332.960000,251.940000,334.800000,246.630000,337.910000C241.320000,341.020000,236.480000,346.360000,230.110000,346.360000Z" fill="url(#s9-fill)" stroke="none" stroke-width="1"/><rect id="s11" width="46.440000" height="51.120000" rx="6.710000" ry="6.710000" transform="translate(34.730000,-58.290000) rotate(16.079984) scale(1,1) translate(200.530000,68.250000)" fill="url(#s11-fill)" stroke="none" stroke-width="1"/><circle id="s13" r="48.150000" transform="translate(183.810000,119.980000)" fill="url(#s13-fill)" stroke="none" stroke-width="1"/><circle id="s15" r="48.150000" transform="translate(220.310000,289.240000)" fill="url(#s15-fill)" stroke="none" stroke-width="1"/><rect id="s17" width="46.440000" height="51.120000" rx="6.710000" ry="6.710000" transform="translate(-64.710000,48.820000) rotate(-13.019997) skewX(-0) scale(0.999999,0.999999) translate(158.380000,282.430000)" fill="url(#s17-fill)" stroke="none" stroke-width="1"/></g><path id="s19" d="M278.580000,107.120000C278.577697,103.069425,278.192652,99.028130,277.430000,95.050000L277.430000,95.050000C277.430000,94.970000,277.430000,94.890000,277.430000,94.810000Q277.230000,93.810000,276.990000,92.730000L276.870000,92.180000C276.680000,91.390000,276.480000,90.600000,276.260000,89.810000L276.260000,89.810000C272.855725,77.608211,265.980539,66.657939,256.470000,58.290000C261.224751,63.791441,262.908028,71.308680,260.953479,78.312482C258.998929,85.316285,253.666376,90.875618,246.750000,93.120000C193.610000,105.650000,153.850000,152.300000,153.850000,207.520000L153.850000,207.520000C153.850000,261.360000,191.630000,307.050000,242.770000,320.920000C248.370179,323.327176,252.456679,328.298850,253.734159,334.259097C255.011639,340.219344,253.321692,346.429104,249.200000,350.920000L249.540000,350.990000C259.165256,344.527601,266.913150,335.637875,272,325.220000L272,325.220000L272,325.220000L272,325.160000L272,325.160000C276.277951,316.357447,278.497284,306.697020,278.490000,296.910000Z" fill="url(#s19-fill)" stroke="none" stroke-width="1"/><path id="s21" d="M154.700000,93.470000L154.700000,93.470000C147.403218,91.668794,141.564504,86.208952,139.278530,79.049225C136.992556,71.889498,138.587059,64.056361,143.490000,58.360000C134.009647,66.722333,127.156460,77.653393,123.760000,89.830000L123.760000,89.830000C123.550000,90.590000,123.360000,91.350000,123.170000,92.110000C123.170000,92.320000,123.080000,92.520000,123.030000,92.730000Q122.810000,93.730000,122.610000,94.730000L122.550000,95L122.550000,95C121.774971,99.007016,121.383204,103.078721,121.380000,107.160000L121.380000,296.880000C121.375452,305.552689,123.120243,314.137199,126.510000,322.120000L126.510000,322.120000C126.920000,323.120000,127.340000,324.050000,127.820000,324.990000C133.700000,336.520000,140.400000,344.070000,149.650000,350.450000C146.194414,345.743962,144.994434,339.751684,146.371415,334.077903C147.748397,328.404122,151.561656,323.628517,156.790000,321.030000C208.140000,307.300000,246.150000,261.510000,246.150000,207.520000L246.150000,207.520000C246.190000,152.810000,207.140000,106.490000,154.700000,93.470000Z" fill="url(#s21-fill)" stroke="none" stroke-width="1"/></g></svg>