<svg id="s1" xmlns="http://www.w3.org/2000/svg" xmlns:xlink="http://www.w3.org/1999/xlink" viewBox="0 0 400 400"><defs><linearGradient id="s5-fill" x1="141.460000" y1="157.470000" x2="236.700000" y2="300.340000" spreadMethod="pad" gradientUnits="userSpaceOnUse"><stop id="s5-fill-0" offset="6%" stop-color="rgb(255,166,56)"/><stop id="s5-fill-1" offset="84%" stop-color="rgb(242,153,44)"/></linearGradient><linearGradient id="s7-fill" x1="272.430000" y1="142.560000" x2="141.330000" y2="180.940000" spreadMethod="pad" gradientUnits="userSpaceOnUse"><stop id="s7-fill-0" offset="15%" stop-color="rgb(251,193,78)"/><stop id="s7-fill-1" offset="93%" stop-color="rgb(253,206,103)"/></linearGradient><linearGradient id="s9-fill" x1="19.680000" y1="15.790000" x2="-11.680000" y2="-9.380000" spreadMethod="pad" gradientUnits="userSpaceOnUse"><stop id="s9-fill-0" offset="7%" stop-color="rgb(251,193,78)"/><stop id="s9-fill-1" offset="84%" stop-color="rgb(237,147,36)"/></linearGradient><linearGradient id="s11-fill" x1="10.730000" y1="8.610000" x2="-6.370000" y2="-5.120000" spreadMethod="pad" gradientUnits="userSpaceOnUse"><stop id="s11-fill-0" offset="7%" stop-color="rgb(251,193,78)"/><stop id="s11-fill-1" offset="84%" stop-color="rgb(237,147,36)"/></linearGradient><linearGradient id="s13-fill" x1="13.800000" y1="11.080000" x2="-8.200000" y2="-6.580000" spreadMethod="pad" gradientUnits="userSpaceOnUse"><stop id="s13-fill-0" offset="7%" stop-color="rgb(251,193,78)"/><stop id="s13-fill-1" offset="84%" stop-color="rgb(237,147,36)"/></linearGradient><linearGradient id="s15-fill" x1="246.960000" y1="318.210000" x2="209.750000" y2="288.350000" spreadMethod="pad" gradientUnits="userSpaceOnUse"><stop id="s15-fill-0" offset="7%" stop-color="rgb(251,193,78)"/><stop id="s15-fill-1" offset="84%" stop-color="rgb(237,147,36)"/></linearGradient><linearGradient id="s17-fill" x1="25.830000" y1="20.740000" x2="-15.340000" y2="-12.310000" spreadMethod="pad" gradientUnits="userSpaceOnUse"><stop id="s17-fill-0" offset="7%" stop-color="rgb(251,193,78)"/><stop id="s17-fill-1" offset="84%" stop-color="rgb(237,147,36)"/></linearGradient><linearGradient id="s19-fill" x1="13.020000" y1="10.450000" x2="-7.720000" y2="-6.200000" spreadMethod="pad" gradientUnits="userSpaceOnUse"><stop id="s19-fill-0" offset="7%" stop-color="rgb(251,193,78)"/><stop id="s19-fill-1" offset="84%" stop-color="rgb(237,147,36)"/></linearGradient><linearGradient id="s21-fill" x1="211.560000" y1="154.400000" x2="170.030000" y2="189.370000" spreadMethod="pad" gradientUnits="userSpaceOnUse"><stop id="s21-fill-0" offset="0%" stop-color="rgb(248,205,95)"/><stop id="s21-fill-1" offset="92%" stop-color="rgb(247,164,38)"/></linearGradient><linearGradient id="s23-fill" x1="222.920000" y1="195.130000" x2="178.470000" y2="180.940000" spreadMethod="pad" gradientUnits="userSpaceOnUse"><stop id="s23-fill-0" offset="7%" stop-color="rgb(251,193,78)"/><stop id="s23-fill-1" offset="84%" stop-color="rgb(237,147,36)"/></linearGradient><linearGradient id="s25-fill" x1="12.960000" y1="-10.920000" x2="-13.650000" y2="11.490000" spreadMethod="pad" gradientUnits="userSpaceOnUse"><stop id="s25-fill-0" offset="0%" stop-color="rgb(248,205,95)"/><stop id="s25-fill-1" offset="92%" stop-color="rgb(247,164,38)"/></linearGradient><linearGradient id="s27-fill" x1="9.700000" y1="-8.170000" x2="-10.220000" y2="8.600000" spreadMethod="pad" gradientUnits="userSpaceOnUse"><stop id="s27-fill-0" offset="0%" stop-color="rgb(248,205,95)"/><stop id="s27-fill-1" offset="92%" stop-color="rgb(247,164,38)"/></linearGradient></defs><g id="s3"><path id="s5" d="M84.100000,177.610000C82.028659,177.610000,80.042155,178.432837,78.577496,179.897496C77.112837,181.362155,76.290000,183.348659,76.290000,185.420000L76.290000,188.370000C76.302386,192.131155,78.842384,195.413866,82.480000,196.370000C96.988282,200.395695,107.030313,213.603557,107.030313,228.660000C107.030313,243.716443,96.988282,256.924305,82.480000,260.950000C78.842384,261.906134,76.302386,265.188845,76.290000,268.950000L76.290000,307.310000C76.290000,311.175993,79.424007,314.310000,83.290000,314.310000L204.690000,314.310000C205.590629,314.314613,206.479085,314.101933,207.280000,313.690000C211.040000,311.690000,216.880000,310.470000,223.440000,310.470000C230,310.470000,235.690000,311.700000,239.440000,313.610000C240.337763,314.069237,241.331597,314.309128,242.340000,314.310000L314.260000,314.310000C318.125993,314.310000,321.260000,311.175993,321.260000,307.310000L321.260000,177.610000Z" fill="url(#s5-fill)" stroke="none" stroke-width="1"/><path id="s7" d="M300.740000,136.670000C299.413410,135.205888,297.525674,134.376593,295.550000,134.390000L295.550000,134.390000C282.610000,134.390000,272.120000,127.520000,272.120000,119.040000Q272.120000,118.600000,272.120000,118.160000C272.442601,115.369234,271.126139,112.642832,268.740000,111.160000Q267.400000,110.370000,266.040000,109.610000C252.551448,102.088985,236.218897,101.714728,222.400000,108.610000L153.600000,142.740000C152.029866,143.516893,151.037302,145.118179,151.040000,146.870000L151.040000,146.870000C151.040000,154.070000,142.130000,159.870000,131.150000,159.870000C128.553458,159.882440,125.967006,159.546100,123.460000,158.870000C122.456864,158.600956,121.389996,158.707643,120.460000,159.170000L83.320000,177.610000L321.270000,177.610000C319,162.840000,311.800000,149,300.740000,136.670000Z" fill="url(#s7-fill)" stroke="none" stroke-width="1"/><circle id="s9" r="19.140000" transform="translate(134,280.530000)" fill="url(#s9-fill)" stroke="none" stroke-width="1"/><circle id="s11" r="10.440000" transform="translate(139.180000,212.770000)" fill="url(#s11-fill)" stroke="none" stroke-width="1"/><circle id="s13" r="13.430000" transform="translate(289.100000,280.530000)" fill="url(#s13-fill)" stroke="none" stroke-width="1"/><path id="s15" d="M200.750000,299.670000C200.744359,304.945833,202.583866,310.057539,205.950000,314.120000C206.423014,314.017552,206.880340,313.852780,207.310000,313.630000C211.070000,311.630000,216.910000,310.420000,223.470000,310.420000C230.030000,310.420000,235.720000,311.650000,239.470000,313.560000C239.951906,313.803287,240.462616,313.984724,240.990000,314.100000C247.345515,306.372266,247.894721,295.395552,242.342310,287.072021C236.789899,278.748490,226.444222,275.039468,216.868134,277.939292C207.292046,280.839115,200.742022,289.664480,200.740000,299.670000Z" fill="url(#s15-fill)" stroke="none" stroke-width="1"/><circle id="s17" r="25.140000" transform="translate(254.370000,216.390000)" fill="url(#s17-fill)" stroke="none" stroke-width="1"/><circle id="s19" r="12.660000" transform="translate(197.550000,254.190000)" fill="url(#s19-fill)" stroke="none" stroke-width="1"/><path id="s21" d="M220.850000,177.610000C221.407901,176.043274,221.695331,174.393088,221.700000,172.730000C221.700000,161.310000,208.270000,152.050000,191.700000,152.050000C175.130000,152.050000,161.700000,161.310000,161.700000,172.730000C161.704669,174.393088,161.992099,176.043274,162.550000,177.610000Z" fill="url(#s21-fill)" stroke="none" stroke-width="1"/><path id="s23" d="M162.560000,177.610000C165.845673,191.035301,177.878482,200.478352,191.700000,200.478352C205.521518,200.478352,217.554327,191.035301,220.840000,177.610000Z" fill="url(#s23-fill)" stroke="none" stroke-width="1"/><ellipse id="s25" rx="19.050000" ry="12.490000" transform="translate(227.130000,133.670000)" fill="url(#s25-fill)" stroke="none" stroke-width="1"/><ellipse id="s27" rx="14.260000" ry="9.340000" transform="translate(280.800000,155.490000)" fill="url(#s27-fill)" stroke="none" stroke-width="1"/></g></svg>