<svg id="s1" xmlns="http://www.w3.org/2000/svg" xmlns:xlink="http://www.w3.org/1999/xlink" viewBox="0 0 400 400"><defs><linearGradient id="s5-fill" x1="109.270191" y1="163.559845" x2="236.613052" y2="220.248595" spreadMethod="pad" gradientUnits="userSpaceOnUse"><stop id="s5-fill-0" offset="1%" stop-color="rgb(146,181,65)"/><stop id="s5-fill-1" offset="40%" stop-color="rgb(138,173,55)"/><stop id="s5-fill-2" offset="100%" stop-color="rgb(105,141,54)"/></linearGradient><linearGradient id="s7-fill" x1="342.375013" y1="230.947121" x2="177.909047" y2="196.758508" spreadMethod="pad" gradientUnits="userSpaceOnUse"><stop id="s7-fill-0" offset="0%" stop-color="rgb(230,200,124)"/><stop id="s7-fill-1" offset="57%" stop-color="rgb(242,211,131)"/></linearGradient><linearGradient id="s9-fill" x1="145.622551" y1="177.284787" x2="295.769605" y2="241.504225" spreadMethod="pad" gradientUnits="userSpaceOnUse"><stop id="s9-fill-0" offset="7%" stop-color="rgb(248,78,105)"/><stop id="s9-fill-1" offset="79%" stop-color="rgb(230,65,91)"/></linearGradient><linearGradient id="s11-fill" x1="200.338474" y1="223.473002" x2="251.441081" y2="244.778130" spreadMethod="pad" gradientUnits="userSpaceOnUse"><stop id="s11-fill-0" offset="11%" stop-color="rgb(82,41,74)"/><stop id="s11-fill-1" offset="80%" stop-color="rgb(105,56,96)"/></linearGradient><linearGradient id="s13-fill" x1="153.724252" y1="229.123348" x2="165.583364" y2="283.204272" spreadMethod="pad" gradientUnits="userSpaceOnUse"><stop id="s13-fill-0" offset="11%" stop-color="rgb(82,41,74)"/><stop id="s13-fill-1" offset="80%" stop-color="rgb(105,56,96)"/></linearGradient><linearGradient id="s15-fill" x1="221.931060" y1="181.868059" x2="268.694450" y2="152.227373" spreadMethod="pad" gradientUnits="userSpaceOnUse"><stop id="s15-fill-0" offset="11%" stop-color="rgb(82,41,74)"/><stop id="s15-fill-1" offset="80%" stop-color="rgb(105,56,96)"/></linearGradient></defs><g id="s3"><path id="s5" d="M277.550000,84.080000C279.255530,82.365630,281.591393,81.428661,284.008878,81.489193C286.426362,81.549724,288.712406,82.602422,290.330000,84.400000C344.077181,145.039354,341.308925,237.045233,284.013257,294.343550C226.717590,351.641867,134.711839,354.414377,74.070000,300.670000C72.272422,299.052406,71.219724,296.766362,71.159193,294.348878C71.098661,291.931393,72.035630,289.595530,73.750000,287.890000Z" fill="url(#s5-fill)" stroke="none" stroke-width="1"/><path id="s7" d="M84.410000,277.230000C134.803223,327.620460,216.504540,327.618221,266.895000,277.224998C317.285460,226.831776,317.283221,145.130458,266.890000,94.740000Z" fill="url(#s7-fill)" stroke="none" stroke-width="1"/><path id="s9" d="M94.580000,267.050000C139.519595,310.835047,211.305846,310.367999,255.671923,266.001923C300.037999,221.635846,300.505047,149.849595,256.720000,104.910000Z" fill="url(#s9-fill)" stroke="none" stroke-width="1"/><path id="s11" d="M232.250000,222.140000C237.894350,227.784350,237.894350,236.935650,232.250000,242.580000C226.605650,248.224350,217.454350,248.224350,211.810000,242.580000C207.880000,238.650000,205.440000,226.290000,204.330000,219.150000C204.136193,217.907127,204.547489,216.646419,205.436954,215.756954C206.326419,214.867489,207.587127,214.456193,208.830000,214.650000C216,215.770000,228.320000,218.210000,232.250000,222.140000Z" fill="url(#s11-fill)" stroke="none" stroke-width="1"/><path id="s13" d="M173.110000,254.500000C171.729288,262.361773,164.236773,267.615712,156.375000,266.235000C148.513227,264.854288,143.259288,257.361773,144.640000,249.500000C145.640000,244.020000,154.330000,234.940000,159.540000,229.940000C160.446199,229.071058,161.712268,228.686017,162.948813,228.903301C164.185358,229.120586,165.244319,229.914178,165.800000,231.040000C169,237.500000,174.080000,249,173.110000,254.500000Z" fill="url(#s13-fill)" stroke="none" stroke-width="1"/><path id="s15" d="M239.140000,155C246.870096,153.891507,254.083793,159.120890,255.434593,166.812346C256.785393,174.503801,251.785221,181.878227,244.140000,183.470000C238.660000,184.470000,227.140000,179.340000,220.660000,176.160000C219.534178,175.604319,218.740586,174.545358,218.523301,173.308813C218.306017,172.072268,218.691058,170.806199,219.560000,169.900000C224.580000,164.670000,233.660000,155.940000,239.140000,155Z" fill="url(#s15-fill)" stroke="none" stroke-width="1"/></g></svg>