<svg id="ebRoEIiGSvU1" xmlns="http://www.w3.org/2000/svg" xmlns:xlink="http://www.w3.org/1999/xlink" viewBox="0 0 400 400" shape-rendering="geometricPrecision" text-rendering="geometricPrecision"><g id="ebRoEIiGSvU2"><g id="ebRoEIiGSvU3"><polygon id="ebRoEIiGSvU4" points="261.240000,103.180000 138.760000,103.180000 138.760000,141.500000 141.030000,141.500000 141.030000,143.670000 138.760000,143.670000 138.760000,375 261.240000,375 261.240000,143.670000 258.970000,143.670000 258.970000,141.500000 261.240000,141.500000 261.240000,103.180000" fill="rgb(204,51,0)" fill-rule="evenodd" stroke="none" stroke-width="1"/><polygon id="ebRoEIiGSvU5" points="142.220000,103.180000 177.780000,103.180000 177.780000,366.600000 142.220000,366.600000 142.220000,103.180000" fill="rgb(255,102,102)" fill-rule="evenodd" stroke="none" stroke-width="1"/><polygon id="ebRoEIiGSvU6" points="250.470000,103.180000 256.800000,103.180000 256.800000,371.350000 250.470000,371.350000 250.470000,103.180000" fill="rgb(153,0,0)" fill-rule="evenodd" stroke="none" stroke-width="1"/><polygon id="ebRoEIiGSvU7" points="151.700000,103.180000 158.020000,103.180000 158.020000,371.350000 151.700000,371.350000 151.700000,103.180000" fill="rgb(255,153,153)" fill-rule="evenodd" stroke="none" stroke-width="1"/><polygon id="ebRoEIiGSvU8" points="258.970000,143.670000 141.030000,143.670000 141.030000,141.500000 258.970000,141.500000 258.970000,143.670000" fill="rgb(153,0,0)" fill-rule="evenodd" stroke="none" stroke-width="1"/></g><g id="ebRoEIiGSvU9"><polygon id="ebRoEIiGSvU10" points="145.650000,103.180000 145.650000,86.980000 254.350000,86.980000 254.350000,103.180000 145.650000,103.180000" fill="rgb(204,51,0)" fill-rule="evenodd" stroke="none" stroke-width="1"/><polygon id="ebRoEIiGSvU11" points="180.280000,99.770000 180.280000,90.410000 148.720000,90.410000 148.720000,99.770000 180.280000,99.770000" fill="rgb(255,102,102)" fill-rule="evenodd" stroke="none" stroke-width="1"/><polygon id="ebRoEIiGSvU12" points="250.400000,101.650000 250.400000,88.470000 244.790000,88.470000 244.790000,101.650000 250.400000,101.650000" fill="rgb(153,0,0)" fill-rule="evenodd" stroke="none" stroke-width="1"/><polygon id="ebRoEIiGSvU13" points="162.750000,96.120000 162.750000,88.470000 157.140000,88.470000 157.140000,96.120000 162.750000,96.120000" fill="rgb(255,153,153)" fill-rule="evenodd" stroke="none" stroke-width="1"/><polygon id="ebRoEIiGSvU14" points="145.650000,103.180000 145.650000,101.650000 254.350000,101.650000 254.350000,103.180000 145.650000,103.180000" fill="rgb(184,46,0)" fill-rule="evenodd" stroke="none" stroke-width="1"/></g><g id="ebRoEIiGSvU15"><polygon id="ebRoEIiGSvU16" points="228.450000,86.980000 171.550000,86.980000 195.260000,25 204.740000,25 228.450000,86.980000" fill="rgb(204,51,0)" fill-rule="evenodd" stroke="none" stroke-width="1"/><polygon id="ebRoEIiGSvU17" points="188.360000,81.360000 178.390000,81.360000 196.250000,26.530000 197.910000,26.530000 188.360000,81.360000" fill="rgb(255,102,102)" fill-rule="evenodd" stroke="none" stroke-width="1"/></g></g></svg>