<svg id="e5aipVmFPQM1" xmlns="http://www.w3.org/2000/svg" xmlns:xlink="http://www.w3.org/1999/xlink" viewBox="0 0 400 400" shape-rendering="geometricPrecision" text-rendering="geometricPrecision"><g id="e5aipVmFPQM2"><path id="e5aipVmFPQM3" d="M355.300000,28.400000C359.800000,23.900000,367.100000,23.900000,371.600000,28.400000C376.100000,32.900000,376.100000,40.200000,371.600000,44.700000L79.600000,336.700000C75.400000,340.900000,48,357.300000,31.400000,373.900000C29.900000,375.400000,27.600000,375.400000,26.100000,373.900000C24.600000,372.400000,24.600000,370.100000,26.100000,368.600000C42.700000,352,59.100000,324.600000,63.300000,320.400000L355.300000,28.400000Z" fill="rgb(242,200,158)" stroke="none" stroke-width="1"/><g id="e5aipVmFPQM4"><g id="e5aipVmFPQM5"><path id="e5aipVmFPQM6" d="M287.800000,56.600000L329.300000,112C331.900000,115.500000,336.600000,116.200000,339.300000,113.900000L364.600000,92C367.200000,89.700000,367.100000,85.100000,364.300000,81.800000L319.700000,29C316.900000,25.600000,312.400000,24.800000,309.700000,27.100000L287.400000,46.400000C284.800000,48.600000,285.100000,53.100000,287.800000,56.600000Z" clip-rule="evenodd" fill="rgb(131,65,69)" fill-rule="evenodd" stroke="none" stroke-width="1"/><path id="e5aipVmFPQM7" d="M347.400000,107L364.600000,92C367.200000,89.700000,367.100000,85.100000,364.300000,81.800000L319.700000,29C316.900000,25.600000,312.400000,24.800000,309.700000,27.100000L298.600000,36.700000C298.600000,36.700000,287.700000,52.300000,314.900000,58.600000C340.900000,64.600000,333.100000,77.800000,345.700000,92.400000C353.700000,101.500000,346.200000,105.200000,347.400000,107L347.400000,107Z" clip-rule="evenodd" fill="rgb(189,79,66)" fill-rule="evenodd" stroke="none" stroke-width="1"/></g><g id="e5aipVmFPQM8"><path id="e5aipVmFPQM9" d="M231.100000,100.700000C261.500000,117.700000,290.300000,135.900000,316.400000,156.900000C321.200000,160.800000,326,160.600000,328.900000,154.500000C340.700000,129.700000,334.600000,108.200000,312.200000,92.300000C299.400000,83.200000,292.600000,79.200000,292.600000,79.200000C270.500000,67.900000,250.900000,69.300000,233.900000,83.800000C225.400000,91,224.400000,97,231.100000,100.700000L231.100000,100.700000Z" clip-rule="evenodd" fill="rgb(254,194,77)" fill-rule="evenodd" stroke="none" stroke-width="1"/><path id="e5aipVmFPQM10" d="M330.500000,150.800000L330.500000,150.800000C342.300000,125.900000,342,100.700000,319.500000,84.800000C306.700000,75.700000,299.900000,71.700000,299.900000,71.700000C275.400000,59.200000,247.400000,66.400000,232.200000,85.300000L232.200000,85.300000C232.700000,84.800000,233.300000,84.300000,233.900000,83.800000C250.900000,69.400000,270.500000,67.900000,292.600000,79.200000C292.600000,79.200000,299.400000,83.200000,312.200000,92.300000C333.400000,107.400000,340,127.600000,330.500000,150.800000L330.500000,150.800000Z" clip-rule="evenodd" fill="rgb(248,135,39)" fill-rule="evenodd" stroke="none" stroke-width="1"/><g id="e5aipVmFPQM11"><path id="e5aipVmFPQM12" d="M313.500000,128.900000C309.800000,130.100000,310.100000,126.400000,307.200000,123.200000C304.300000,120,307.600000,115.900000,310.100000,115.200000C312.600000,114.600000,315.500000,117.100000,316.400000,120.900000C317.400000,124.700000,317.300000,127.700000,313.500000,128.900000Z" clip-rule="evenodd" fill="rgb(253,150,43)" fill-rule="evenodd" stroke="none" stroke-width="1"/><path id="e5aipVmFPQM13" d="M275.300000,103.400000C275.700000,105.400000,273.300000,107.100000,269.600000,109.200000C265.900000,111.300000,263.200000,108.900000,263.100000,106.300000C263,103.700000,265.500000,99.800000,269.400000,99.700000C273.200000,99.700000,274.900000,101.400000,275.300000,103.400000L275.300000,103.400000Z" clip-rule="evenodd" fill="rgb(253,150,43)" fill-rule="evenodd" stroke="none" stroke-width="1"/><path id="e5aipVmFPQM14" d="M258.700000,79.700000C259.200000,79.300000,260,79.800000,261.100000,80.500000C262.200000,81.200000,261.900000,82.300000,261.200000,82.700000C260.500000,83.100000,259.100000,82.900000,258.500000,81.800000C257.900000,80.800000,258.200000,80.100000,258.700000,79.700000L258.700000,79.700000Z" clip-rule="evenodd" fill="rgb(253,150,43)" fill-rule="evenodd" stroke="none" stroke-width="1"/></g></g><g id="e5aipVmFPQM15"><path id="e5aipVmFPQM16" d="M63.100000,276.700000L113.300000,343.600000C116.500000,347.800000,122.100000,348.700000,125.300000,346L155.900000,319.600000C159.100000,316.800000,158.900000,311.300000,155.500000,307.200000L101.700000,243.500000C98.300000,239.500000,92.900000,238.400000,89.700000,241.100000L62.700000,264.400000C59.400000,267.100000,59.900000,272.500000,63.100000,276.700000L63.100000,276.700000Z" clip-rule="evenodd" fill="rgb(131,65,69)" fill-rule="evenodd" stroke="none" stroke-width="1"/><path id="e5aipVmFPQM17" d="M135,337.500000L155.900000,319.500000C159.100000,316.700000,158.900000,311.200000,155.500000,307.100000L101.700000,243.400000C98.300000,239.400000,92.900000,238.300000,89.700000,241L76.300000,252.500000C76.300000,252.500000,63.100000,271.400000,96,278.900000C127.400000,286.100000,118,302.100000,133.200000,319.700000C142.700000,330.900000,133.700000,335.300000,135,337.500000L135,337.500000Z" clip-rule="evenodd" fill="rgb(189,79,66)" fill-rule="evenodd" stroke="none" stroke-width="1"/></g><g id="e5aipVmFPQM18"><path id="e5aipVmFPQM19" d="M271.800000,186.700000L201.300000,123.500000C196.800000,119.500000,190.400000,119.800000,187.400000,123.500000L159.200000,159.700000C156.300000,163.500000,157.700000,169.600000,162.400000,173.400000L236.300000,232.300000C241,236,247.200000,236,250.200000,232.300000L275,200.500000C277.900000,196.600000,276.200000,190.800000,271.800000,186.700000L271.800000,186.700000Z" clip-rule="evenodd" fill="rgb(131,65,69)" fill-rule="evenodd" stroke="none" stroke-width="1"/><path id="e5aipVmFPQM20" d="M175.700000,138.500000L159.200000,159.700000C156.300000,163.500000,157.700000,169.600000,162.400000,173.400000L236.300000,232.300000C241,236,247.200000,236,250.200000,232.300000L262.500000,216.500000C258.700000,215.100000,253.500000,212.800000,245.700000,206.400000C230.900000,194.400000,227,194.300000,224.400000,176.600000C222.200000,161.300000,195.400000,155.400000,185.300000,147.400000C180.400000,143.500000,177.700000,140.600000,175.700000,138.500000L175.700000,138.500000Z" clip-rule="evenodd" fill="rgb(189,79,66)" fill-rule="evenodd" stroke="none" stroke-width="1"/></g><g id="e5aipVmFPQM21"><path id="e5aipVmFPQM22" d="M168.600000,294.600000C158,253.500000,145.400000,214,128.700000,176.800000C125.600000,169.900000,127.200000,164.300000,135.400000,162.800000C168.300000,156.500000,191.700000,170.400000,203.500000,201.700000C210.300000,219.600000,212.800000,228.900000,212.800000,228.900000C219.300000,258.400000,211.500000,281.100000,189.300000,296.600000C178.400000,304.300000,171,303.700000,168.600000,294.600000L168.600000,294.600000Z" clip-rule="evenodd" fill="rgb(254,194,77)" fill-rule="evenodd" stroke="none" stroke-width="1"/><path id="e5aipVmFPQM23" d="M140.300000,162L140.300000,162C173.200000,155.700000,202.900000,164,214.700000,195.300000C221.500000,213.200000,224,222.500000,224,222.500000C231.200000,255.200000,214,285.900000,187.100000,298.100000L187.100000,298.100000C187.800000,297.600000,188.600000,297.100000,189.400000,296.600000C211.700000,281.100000,219.400000,258.400000,212.900000,228.900000C212.900000,228.900000,210.300000,219.700000,203.600000,201.700000C192.400000,171.900000,170.700000,157.900000,140.300000,162L140.300000,162Z" clip-rule="evenodd" fill="rgb(248,135,39)" fill-rule="evenodd" stroke="none" stroke-width="1"/><g id="e5aipVmFPQM24"><path id="e5aipVmFPQM25" d="M160.900000,188.700000C158.300000,192.700000,162.800000,193.500000,165.600000,197.900000C168.400000,202.300000,174.300000,199.700000,175.900000,196.900000C177.400000,194.100000,175.300000,190,171.200000,187.700000C167,185.500000,163.500000,184.700000,160.900000,188.700000Z" clip-rule="evenodd" fill="rgb(253,150,43)" fill-rule="evenodd" stroke="none" stroke-width="1"/><path id="e5aipVmFPQM26" d="M179.100000,241.600000C176.900000,240.500000,174.100000,242.900000,170.400000,246.600000C166.800000,250.300000,168.700000,254.300000,171.800000,255.200000C174.900000,256.100000,180.200000,254.400000,181.500000,249.800000C182.900000,245.300000,181.300000,242.700000,179.100000,241.600000Z" clip-rule="evenodd" fill="rgb(253,150,43)" fill-rule="evenodd" stroke="none" stroke-width="1"/><path id="e5aipVmFPQM27" d="M201.900000,268.600000C202.500000,268.100000,202.200000,267,201.700000,265.500000C201.200000,264,199.800000,264,199.100000,264.700000C198.400000,265.400000,198.200000,267.100000,199.300000,268.100000C200.400000,269.100000,201.300000,269,201.900000,268.600000L201.900000,268.600000Z" clip-rule="evenodd" fill="rgb(253,150,43)" fill-rule="evenodd" stroke="none" stroke-width="1"/></g></g><g id="e5aipVmFPQM28"><path id="e5aipVmFPQM29" d="M199.900000,279.500000L124.300000,195.400000C122.400000,193.200000,119,193.100000,116.800000,195L100,210.200000C97.800000,212.100000,97.700000,215.500000,99.600000,217.700000L175.200000,301.800000C177.100000,304,180.500000,304.100000,182.700000,302.200000L199.500000,287.100000C201.600000,285.100000,201.800000,281.700000,199.900000,279.500000Z" clip-rule="evenodd" fill="rgb(153,0,0)" fill-rule="evenodd" stroke="none" stroke-width="1"/><path id="e5aipVmFPQM30" d="M180.600000,258.100000L124.300000,195.500000C122.400000,193.300000,119,193.200000,116.800000,195.100000L100,210.200000C97.800000,212.100000,97.700000,215.500000,99.600000,217.700000L155.900000,280.300000C157.800000,282.500000,161.200000,282.600000,163.400000,280.700000L180.200000,265.600000C182.300000,263.600000,182.500000,260.200000,180.600000,258.100000Z" clip-rule="evenodd" fill="rgb(204,51,0)" fill-rule="evenodd" stroke="none" stroke-width="1"/></g><g id="e5aipVmFPQM31"><path id="e5aipVmFPQM32" d="M313.400000,164.500000L232.100000,85.900000C230,83.900000,226.600000,83.900000,224.600000,86L208.900000,102.300000C206.900000,104.400000,206.900000,107.800000,209,109.800000L290.300000,188.400000C292.400000,190.400000,295.800000,190.400000,297.800000,188.300000L313.500000,172C315.600000,169.900000,315.500000,166.500000,313.400000,164.500000L313.400000,164.500000Z" clip-rule="evenodd" fill="rgb(153,0,0)" fill-rule="evenodd" stroke="none" stroke-width="1"/><path id="e5aipVmFPQM33" d="M292.600000,144.400000L232.100000,85.900000C230,83.900000,226.600000,83.900000,224.600000,86L208.900000,102.300000C206.900000,104.400000,206.900000,107.800000,209,109.800000L269.500000,168.300000C271.600000,170.300000,275,170.300000,277,168.200000L292.700000,151.900000C294.800000,149.800000,294.700000,146.400000,292.600000,144.400000L292.600000,144.400000Z" clip-rule="evenodd" fill="rgb(204,51,0)" fill-rule="evenodd" stroke="none" stroke-width="1"/></g><g id="e5aipVmFPQM34"><path id="e5aipVmFPQM35" d="M186.400000,302.500000L87.700000,218.400000C84.700000,215.800000,80.100000,216.200000,77.500000,219.200000L77.500000,219.200000C74.900000,222.200000,75.300000,226.800000,78.300000,229.400000L177,313.500000C180,316.100000,184.600000,315.700000,187.200000,312.700000L187.200000,312.700000C189.800000,309.700000,189.500000,305.100000,186.400000,302.500000L186.400000,302.500000Z" clip-rule="evenodd" fill="rgb(0,153,51)" fill-rule="evenodd" stroke="none" stroke-width="1"/><path id="e5aipVmFPQM36" d="M160.800000,280.700000L87.700000,218.500000C84.700000,215.900000,80.100000,216.300000,77.500000,219.300000L77.500000,219.300000C74.900000,222.300000,75.300000,226.900000,78.300000,229.500000L151.400000,291.700000C154.400000,294.300000,159,293.900000,161.600000,290.900000L161.600000,290.900000C164.200000,287.900000,163.800000,283.300000,160.800000,280.700000L160.800000,280.700000Z" clip-rule="evenodd" fill="rgb(51,204,102)" fill-rule="evenodd" stroke="none" stroke-width="1"/></g><g id="e5aipVmFPQM37"><path id="e5aipVmFPQM38" d="M292.700000,204.800000L204,97.400000C201.300000,94.100000,196.400000,93.600000,193.100000,96.400000L193.100000,96.400000C189.800000,99.100000,189.300000,104,192.100000,107.300000L280.700000,214.700000C283.400000,218,288.300000,218.500000,291.600000,215.700000L291.600000,215.700000C294.900000,213,295.400000,208.100000,292.700000,204.800000Z" clip-rule="evenodd" fill="rgb(0,153,51)" fill-rule="evenodd" stroke="none" stroke-width="1"/><path id="e5aipVmFPQM39" d="M269.600000,176.900000L204,97.400000C201.300000,94.100000,196.400000,93.600000,193.100000,96.400000L193.100000,96.400000C189.800000,99.100000,189.300000,104,192.100000,107.300000L257.700000,186.800000C260.400000,190.100000,265.300000,190.600000,268.600000,187.800000L268.600000,187.800000C271.900000,185.100000,272.400000,180.200000,269.600000,176.900000L269.600000,176.900000Z" clip-rule="evenodd" fill="rgb(51,204,102)" fill-rule="evenodd" stroke="none" stroke-width="1"/></g></g></g></svg>