<svg id="s1" xmlns="http://www.w3.org/2000/svg" xmlns:xlink="http://www.w3.org/1999/xlink" viewBox="0 0 400 400"><defs><linearGradient id="s7-fill" x1="245.850000" y1="202.980000" x2="320.170000" y2="315.480000" spreadMethod="pad" gradientUnits="userSpaceOnUse"><stop id="s7-fill-0" offset="4%" stop-color="rgb(240,111,82)"/><stop id="s7-fill-1" offset="18%" stop-color="rgb(224,65,65)"/><stop id="s7-fill-2" offset="63%" stop-color="rgb(171,50,50)"/><stop id="s7-fill-3" offset="100%" stop-color="rgb(186,44,44)"/></linearGradient><linearGradient id="s15-fill" x1="144.520000" y1="217.350000" x2="94.750000" y2="343.480000" spreadMethod="pad" gradientUnits="userSpaceOnUse"><stop id="s15-fill-0" offset="4%" stop-color="rgb(240,111,82)"/><stop id="s15-fill-1" offset="18%" stop-color="rgb(224,65,65)"/><stop id="s15-fill-2" offset="63%" stop-color="rgb(171,50,50)"/><stop id="s15-fill-3" offset="100%" stop-color="rgb(186,44,44)"/></linearGradient></defs><g id="s3"><g id="s5"><path id="s7" d="M288.260000,187C276.780000,187.360000,266.440000,193.080000,258.590000,202.250000C245.440000,199.540000,232.530000,201.840000,222.850000,209.870000C202.990000,226.330000,204.180000,260.530000,225.500000,286.270000C236.090000,299.060000,249.660000,307.340000,263.070000,310.430000C279.271405,314.651003,296.504615,311.739373,310.420000,302.430000C315.706271,299.201682,320.317739,294.980728,324,290C331.752959,280.160587,336.172965,268.108889,336.620000,255.590000C336.907686,252.408652,337.001193,249.212726,336.900000,246.020000C335.800000,212.580000,314,186.160000,288.260000,187Z" fill="url(#s7-fill)" stroke="none" stroke-width="1"/><path id="s9" d="M261.060000,214.130000C241.110000,163,215.920000,128.400000,180,96.510000" fill="none" stroke="rgb(59,110,89)" stroke-width="15" stroke-linecap="round" stroke-miterlimit="10"/><path id="s11" d="M278.770000,211.440000C277.775305,212.481194,276.720144,213.462894,275.610000,214.380000C266.730117,221.746624,254.873797,224.446137,243.680000,221.650000" fill="none" stroke="rgb(160,40,39)" stroke-width="10" stroke-linecap="round" stroke-miterlimit="10"/></g><g id="s13"><path id="s15" d="M173.770000,231.620000C164.700000,224.620000,153.090000,222.380000,141.200000,224.440000C132.800000,213.960000,121.390000,207.500000,108.820000,207.500000C83.030000,207.500000,62.120000,234.600000,62.120000,268.030000C62.120000,284.630000,67.280000,299.670000,75.640000,310.600000C85.410899,324.192327,100.529172,332.956122,117.180000,334.680000C123.317082,335.536829,129.562014,335.197246,135.570000,333.680000C147.816405,331.050863,158.908328,324.592541,167.240000,315.240000C169.490774,312.973948,171.601353,310.572831,173.560000,308.050000C194,281.670000,194.140000,247.440000,173.770000,231.620000Z" fill="url(#s15-fill)" stroke="none" stroke-width="1"/><path id="s17" d="M135,236.240000C161.580000,188.240000,177.920000,146.130000,179.510000,98.140000" fill="none" stroke="rgb(59,110,89)" stroke-width="15" stroke-linecap="round" stroke-miterlimit="10"/><path id="s19" d="M150.860000,244.410000C149.429490,244.577905,147.990330,244.661383,146.550000,244.660000C135.011249,244.669372,124.157305,239.184843,117.320000,229.890000" fill="none" stroke="rgb(160,40,39)" stroke-width="10" stroke-linecap="round" stroke-miterlimit="10"/></g><path id="s21" d="M160.130000,98.560000C174.870000,100.900000,190.250000,96.870000,198.960000,86.270000" fill="none" stroke="rgb(125,69,59)" stroke-width="20" stroke-linecap="round" stroke-miterlimit="10"/></g></svg>