<svg id="s1" xmlns="http://www.w3.org/2000/svg" xmlns:xlink="http://www.w3.org/1999/xlink" viewBox="0 0 400 400"><defs><linearGradient id="s7-fill" x1="71.240000" y1="262.040000" x2="115.830000" y2="259.620000" spreadMethod="pad" gradientUnits="userSpaceOnUse"><stop id="s7-fill-0" offset="0%" stop-color="rgb(255,221,178)"/><stop id="s7-fill-1" offset="51%" stop-color="rgb(255,209,153)"/><stop id="s7-fill-2" offset="100%" stop-color="rgb(255,196,125)"/></linearGradient><linearGradient id="s9-fill" x1="126.810000" y1="272.350000" x2="224.940000" y2="267.020000" spreadMethod="pad" gradientUnits="userSpaceOnUse"><stop id="s9-fill-0" offset="0%" stop-color="rgb(255,221,178)"/><stop id="s9-fill-1" offset="51%" stop-color="rgb(255,209,153)"/><stop id="s9-fill-2" offset="100%" stop-color="rgb(255,196,125)"/></linearGradient><linearGradient id="s13-fill" x1="226.990000" y1="237.760000" x2="241.930000" y2="291.290000" spreadMethod="pad" gradientUnits="userSpaceOnUse"><stop id="s13-fill-0" offset="1%" stop-color="rgb(128,166,41)"/><stop id="s13-fill-1" offset="40%" stop-color="rgb(120,158,33)"/><stop id="s13-fill-2" offset="100%" stop-color="rgb(88,126,34)"/></linearGradient><linearGradient id="s23-fill" x1="89.350000" y1="348.190000" x2="228.360000" y2="340.650000" spreadMethod="pad" gradientUnits="userSpaceOnUse"><stop id="s23-fill-0" offset="1%" stop-color="rgb(255,209,153)"/><stop id="s23-fill-1" offset="100%" stop-color="rgb(240,178,103)"/></linearGradient></defs><g id="s3"><g id="s5"><path id="s7" d="M147,308.560000L117.060000,308.560000C89.864254,308.532449,67.823071,286.495740,67.790000,259.300000L67.790000,239.770000C67.795501,223.342473,81.102487,210.022064,97.530000,210L147,210L147,231L97.530000,231C92.705316,231.005511,88.795511,234.915316,88.790000,239.740000L88.790000,259.300000C88.806535,274.906236,101.453764,287.553465,117.060000,287.570000L147,287.570000Z" fill="url(#s7-fill)" stroke="none" stroke-width="1"/><path id="s9" d="M119.400000,205.230000L119.400000,270.570000C119.531780,313.974585,154.685415,349.128220,198.090000,349.260000L217.410000,349.260000C260.814585,349.128220,295.968220,313.974585,296.100000,270.570000L296.100000,205.230000C296.100000,201.190753,294.495415,197.316943,291.639236,194.460764C288.783057,191.604585,284.909247,190,280.870000,190L134.630000,190C126.218703,190,119.400000,196.818703,119.400000,205.230000Z" fill="url(#s9-fill)" stroke="none" stroke-width="1"/></g><g id="s11"><path id="s13" d="M247.660000,218.890000L224.660000,218.890000C221.257013,218.889021,218.119817,220.729255,216.460000,223.700000L203.910000,246.190000C203.130500,247.587086,202.720880,249.160166,202.720000,250.760000L202.720000,290.460000C202.720000,295.645954,206.924046,299.850000,212.110000,299.850000L260.220000,299.850000C265.405954,299.850000,269.610000,295.645954,269.610000,290.460000L269.610000,250.760000C269.609120,249.160166,269.199500,247.587086,268.420000,246.190000L255.860000,223.700000C254.200183,220.729255,251.062987,218.889021,247.660000,218.890000Z" fill="url(#s13-fill)" stroke="none" stroke-width="1"/><line id="s15" x1="236.160000" y1="186.480000" x2="236.160000" y2="238.470000" fill="none" stroke="rgb(154,194,36)" stroke-width="10" stroke-linecap="round" stroke-miterlimit="10"/></g><path id="s17" d="M222.660000,59C222.660000,77.830000,206.840000,77.830000,206.840000,96.660000C206.840000,115.490000,222.660000,115.490000,222.660000,134.330000C222.660000,153.170000,206.840000,153.170000,206.840000,172" fill="none" stroke="rgb(255,228,194)" stroke-width="10" stroke-linecap="round" stroke-miterlimit="10"/><path id="s19" d="M263.840000,83C263.840000,97.830000,251.380000,97.830000,251.380000,112.660000C251.380000,127.490000,263.840000,127.490000,263.840000,142.330000C263.840000,157.170000,251.380000,157.170000,251.380000,172" fill="none" stroke="rgb(255,228,194)" stroke-width="10" stroke-linecap="round" stroke-miterlimit="10"/><path id="s21" d="M170.940000,83C170.940000,97.830000,158.480000,97.830000,158.480000,112.660000C158.480000,127.490000,170.940000,127.490000,170.940000,142.330000C170.940000,157.170000,158.480000,157.170000,158.480000,172" fill="none" stroke="rgb(255,228,194)" stroke-width="10" stroke-linecap="round" stroke-miterlimit="10"/><path id="s23" d="M333.500000,332.770000C333.489005,328.190599,329.779401,324.480995,325.200000,324.470000L86.300000,324.470000C82.478941,324.462735,79.147885,327.068139,78.234543,330.778442C77.321201,334.488746,79.062196,338.342705,82.450000,340.110000C104.921440,355.040079,131.300881,363.002962,158.280000,363L253.220000,363C280.182089,362.993119,306.542745,355.030656,329,340.110000C331.747721,338.689970,333.480932,335.862910,333.500000,332.770000Z" fill="url(#s23-fill)" stroke="none" stroke-width="1"/></g></svg>