<svg id="ebIyzqv6dfS1" xmlns="http://www.w3.org/2000/svg" xmlns:xlink="http://www.w3.org/1999/xlink" viewBox="0 0 400 400" shape-rendering="geometricPrecision" text-rendering="geometricPrecision"><defs><linearGradient id="ebIyzqv6dfS9-fill" x1="94.442134" y1="243.090282" x2="131.195567" y2="243.090282" spreadMethod="pad" gradientUnits="userSpaceOnUse"><stop id="ebIyzqv6dfS9-fill-0" offset="0%" stop-color="rgb(204,51,0)"/><stop id="ebIyzqv6dfS9-fill-1" offset="100%" stop-color="rgb(222,86,60)"/></linearGradient><linearGradient id="ebIyzqv6dfS10-fill" x1="173.771845" y1="243.854293" x2="312.607248" y2="243.854293" spreadMethod="pad" gradientUnits="userSpaceOnUse"><stop id="ebIyzqv6dfS10-fill-0" offset="0%" stop-color="rgb(255,102,102)"/><stop id="ebIyzqv6dfS10-fill-1" offset="100%" stop-color="rgb(222,86,60)"/></linearGradient><linearGradient id="ebIyzqv6dfS14-fill" x1="106.193752" y1="339.195803" x2="143.623409" y2="339.195803" spreadMethod="pad" gradientUnits="userSpaceOnUse"><stop id="ebIyzqv6dfS14-fill-0" offset="0%" stop-color="rgb(255,204,153)"/><stop id="ebIyzqv6dfS14-fill-1" offset="100%" stop-color="rgb(255,241,227)"/></linearGradient><linearGradient id="ebIyzqv6dfS15-fill" x1="94.843602" y1="143.335261" x2="132.495508" y2="143.335261" spreadMethod="pad" gradientUnits="userSpaceOnUse"><stop id="ebIyzqv6dfS15-fill-0" offset="0%" stop-color="rgb(255,204,153)"/><stop id="ebIyzqv6dfS15-fill-1" offset="100%" stop-color="rgb(255,241,227)"/></linearGradient><linearGradient id="ebIyzqv6dfS18-fill" x1="87.350615" y1="119.231736" x2="138.032293" y2="119.231736" spreadMethod="pad" gradientUnits="userSpaceOnUse"><stop id="ebIyzqv6dfS18-fill-0" offset="0%" stop-color="rgb(242,200,158)"/><stop id="ebIyzqv6dfS18-fill-1" offset="100%" stop-color="rgb(250,221,192)"/></linearGradient></defs><g id="ebIyzqv6dfS2"><g id="ebIyzqv6dfS3"><path id="ebIyzqv6dfS4" d="M116.700000,115.400000L97.200000,42.500000C95.200000,35.100000,99.600000,27.400000,107.100000,25.400000C114.500000,23.400000,122.200000,27.800000,124.200000,35.300000L145.600000,115.400000L116.700000,115.400000L116.700000,115.400000Z" fill="rgb(255,153,102)" stroke="none" stroke-width="1"/><path id="ebIyzqv6dfS5" d="M114.100000,115.400000L94.800000,43.600000C92.800000,36.200000,97.200000,28.500000,104.700000,26.500000C112.100000,24.500000,119.800000,28.900000,121.800000,36.400000L143,115.400000L114.100000,115.400000L114.100000,115.400000Z" fill="rgb(255,204,153)" stroke="none" stroke-width="1"/></g><g id="ebIyzqv6dfS6"><g id="ebIyzqv6dfS7"><polygon id="ebIyzqv6dfS8" points="315,163.600000 304.900000,322.500000 95.100000,322.500000 85,163.600000" clip-rule="evenodd" fill="rgb(222,86,60)" fill-rule="evenodd" stroke="none" stroke-width="1"/><polygon id="ebIyzqv6dfS9" points="131.200000,322.500000 102.900000,322.500000 94.400000,163.600000 122.700000,163.600000" clip-rule="evenodd" fill="url(#ebIyzqv6dfS9-fill)" fill-rule="evenodd" stroke="none" stroke-width="1"/><path id="ebIyzqv6dfS10" d="M312.600000,201.700000L307.200000,285.900000L215.800000,285.900000C192.600000,285.900000,173.700000,267,173.700000,243.800000L173.700000,243.800000C173.700000,220.600000,192.600000,201.700000,215.800000,201.700000L312.600000,201.700000L312.600000,201.700000Z" clip-rule="evenodd" fill="url(#ebIyzqv6dfS10-fill)" fill-rule="evenodd" stroke="none" stroke-width="1"/></g><g id="ebIyzqv6dfS11"><path id="ebIyzqv6dfS12" d="M285.500000,358L285,365.300000C284.700000,370.600000,280.600000,375,275.300000,375L124.600000,375C119.300000,375,115.200000,370.600000,114.900000,365.300000L114.400000,358C116.600000,358.800000,119,359.200000,121.500000,359.200000L278.400000,359.200000C280.900000,359.200000,283.300000,358.800000,285.500000,358Z" clip-rule="evenodd" fill="rgb(242,200,158)" fill-rule="evenodd" stroke="none" stroke-width="1"/><path id="ebIyzqv6dfS13" d="M314.800000,123L312.200000,163.600000L87.800000,163.600000L85.200000,123L314.800000,123L314.800000,123ZM302.100000,322.500000L301.200000,336.400000C300.400000,348.900000,291,359.200000,278.400000,359.200000L121.600000,359.200000C109.100000,359.200000,99.600000,348.900000,98.800000,336.400000L97.900000,322.500000L302.100000,322.500000Z" clip-rule="evenodd" fill="rgb(255,241,227)" fill-rule="evenodd" stroke="none" stroke-width="1"/><path id="ebIyzqv6dfS14" d="M141.500000,322.500000L143.600000,355.800000L121.500000,355.800000C116.300000,355.800000,110.300000,353.600000,107.900000,349.400000L106.100000,322.500000L141.500000,322.500000Z" clip-rule="evenodd" fill="url(#ebIyzqv6dfS14-fill)" fill-rule="evenodd" stroke="none" stroke-width="1"/><polygon id="ebIyzqv6dfS15" points="132.500000,163.600000 97.100000,163.600000 94.800000,123 130.200000,123" clip-rule="evenodd" fill="url(#ebIyzqv6dfS15-fill)" fill-rule="evenodd" stroke="none" stroke-width="1"/><g id="ebIyzqv6dfS16"><path id="ebIyzqv6dfS17" d="M77.900000,123L322,123C324.100000,123,325.800000,121.300000,325.800000,119.200000L325.800000,119.200000C325.800000,117.100000,324.100000,115.400000,322,115.400000L77.900000,115.400000C75.800000,115.400000,74.100000,117.100000,74.100000,119.200000L74.100000,119.200000C74.100000,121.300000,75.800000,123,77.900000,123L77.900000,123Z" clip-rule="evenodd" fill="rgb(250,221,192)" fill-rule="evenodd" stroke="none" stroke-width="1"/><path id="ebIyzqv6dfS18" d="M91.200000,123L134.200000,123C136.300000,123,138,121.300000,138,119.200000L138,119.200000C138,117.100000,136.300000,115.400000,134.200000,115.400000L91.200000,115.400000C89.100000,115.400000,87.400000,117.100000,87.400000,119.200000L87.400000,119.200000C87.300000,121.300000,89.100000,123,91.200000,123Z" clip-rule="evenodd" fill="url(#ebIyzqv6dfS18-fill)" fill-rule="evenodd" stroke="none" stroke-width="1"/></g></g></g></g></svg>