<svg id="s1" xmlns="http://www.w3.org/2000/svg" xmlns:xlink="http://www.w3.org/1999/xlink" viewBox="0 0 400 400"><defs><linearGradient id="s5-fill" x1="210.890000" y1="252.070000" x2="242" y2="302.070000" spreadMethod="pad" gradientUnits="userSpaceOnUse"><stop id="s5-fill-0" offset="19%" stop-color="rgb(255,189,104)"/><stop id="s5-fill-1" offset="78%" stop-color="rgb(245,155,81)"/><stop id="s5-fill-2" offset="97%" stop-color="rgb(237,142,64)"/></linearGradient><linearGradient id="s7-fill" x1="23.200000" y1="41.700000" x2="4.030000" y2="7.260000" spreadMethod="pad" gradientUnits="userSpaceOnUse"><stop id="s7-fill-0" offset="0%" stop-color="rgb(245,208,143)"/><stop id="s7-fill-1" offset="80%" stop-color="rgb(237,188,116)"/></linearGradient><linearGradient id="s9-fill" x1="158.740000" y1="282.530000" x2="139.620000" y2="248.170000" spreadMethod="pad" gradientUnits="userSpaceOnUse"><stop id="s9-fill-0" offset="0%" stop-color="rgb(245,208,143)"/><stop id="s9-fill-1" offset="80%" stop-color="rgb(237,188,116)"/></linearGradient><linearGradient id="s11-fill" x1="20.420000" y1="36.680000" x2="3.560000" y2="6.380000" spreadMethod="pad" gradientUnits="userSpaceOnUse"><stop id="s11-fill-0" offset="0%" stop-color="rgb(245,208,143)"/><stop id="s11-fill-1" offset="80%" stop-color="rgb(237,188,116)"/></linearGradient><linearGradient id="s15-fill" x1="157.960000" y1="98.960000" x2="209.080000" y2="247.200000" spreadMethod="pad" gradientUnits="userSpaceOnUse"><stop id="s15-fill-0" offset="25%" stop-color="rgb(255,233,176)"/><stop id="s15-fill-1" offset="69%" stop-color="rgb(255,223,138)"/></linearGradient><linearGradient id="s17-fill" x1="207.240000" y1="241.870000" x2="225.970000" y2="296.200000" spreadMethod="pad" gradientUnits="userSpaceOnUse"><stop id="s17-fill-0" offset="25%" stop-color="rgb(255,233,176)"/><stop id="s17-fill-1" offset="69%" stop-color="rgb(255,226,148)"/></linearGradient><linearGradient id="s21-fill" x1="-12.160000" y1="-26.290000" x2="29.880000" y2="64.620000" spreadMethod="pad" gradientUnits="userSpaceOnUse"><stop id="s21-fill-0" offset="5%" stop-color="rgb(207,91,91)"/><stop id="s21-fill-1" offset="70%" stop-color="rgb(184,57,57)"/></linearGradient><linearGradient id="s23-fill" x1="229.130000" y1="199.730000" x2="243.160000" y2="233.460000" spreadMethod="pad" gradientUnits="userSpaceOnUse"><stop id="s23-fill-0" offset="40%" stop-color="rgb(184,57,57)"/><stop id="s23-fill-1" offset="88%" stop-color="rgb(135,33,33)"/></linearGradient><linearGradient id="s25-fill" x1="-4.590000" y1="-8.710000" x2="19.190000" y2="36.450000" spreadMethod="pad" gradientUnits="userSpaceOnUse"><stop id="s25-fill-0" offset="3%" stop-color="rgb(227,114,114)"/><stop id="s25-fill-1" offset="55%" stop-color="rgb(207,91,91)"/></linearGradient><linearGradient id="s27-fill" x1="-17.110000" y1="-32.470000" x2="12.150000" y2="23.080000" spreadMethod="pad" gradientUnits="userSpaceOnUse"><stop id="s27-fill-0" offset="3%" stop-color="rgb(227,114,114)"/><stop id="s27-fill-1" offset="55%" stop-color="rgb(207,91,91)"/></linearGradient><linearGradient id="s29-fill" x1="-6.450000" y1="-12.250000" x2="22.800000" y2="43.300000" spreadMethod="pad" gradientUnits="userSpaceOnUse"><stop id="s29-fill-0" offset="3%" stop-color="rgb(227,114,114)"/><stop id="s29-fill-1" offset="55%" stop-color="rgb(207,91,91)"/></linearGradient><linearGradient id="s33-fill" x1="-13.810000" y1="-29.890000" x2="33.960000" y2="73.440000" spreadMethod="pad" gradientUnits="userSpaceOnUse"><stop id="s33-fill-0" offset="5%" stop-color="rgb(207,91,91)"/><stop id="s33-fill-1" offset="70%" stop-color="rgb(184,57,57)"/></linearGradient><linearGradient id="s35-fill" x1="159.540000" y1="149.270000" x2="175.340000" y2="187.260000" spreadMethod="pad" gradientUnits="userSpaceOnUse"><stop id="s35-fill-0" offset="40%" stop-color="rgb(184,57,57)"/><stop id="s35-fill-1" offset="88%" stop-color="rgb(135,33,33)"/></linearGradient><linearGradient id="s37-fill" x1="-11.150000" y1="-27.640000" x2="12.920000" y2="31.990000" spreadMethod="pad" gradientUnits="userSpaceOnUse"><stop id="s37-fill-0" offset="3%" stop-color="rgb(227,114,114)"/><stop id="s37-fill-1" offset="55%" stop-color="rgb(207,91,91)"/></linearGradient><linearGradient id="s39-fill" x1="-7.610000" y1="-18.840000" x2="16.470000" y2="40.790000" spreadMethod="pad" gradientUnits="userSpaceOnUse"><stop id="s39-fill-0" offset="3%" stop-color="rgb(227,114,114)"/><stop id="s39-fill-1" offset="55%" stop-color="rgb(207,91,91)"/></linearGradient><linearGradient id="s41-fill" x1="-17.720000" y1="-43.910000" x2="6.350000" y2="15.710000" spreadMethod="pad" gradientUnits="userSpaceOnUse"><stop id="s41-fill-0" offset="3%" stop-color="rgb(227,114,114)"/><stop id="s41-fill-1" offset="55%" stop-color="rgb(207,91,91)"/></linearGradient><linearGradient id="s45-fill" x1="119.980000" y1="204.140000" x2="167.750000" y2="307.460000" spreadMethod="pad" gradientUnits="userSpaceOnUse"><stop id="s45-fill-0" offset="5%" stop-color="rgb(207,91,91)"/><stop id="s45-fill-1" offset="70%" stop-color="rgb(184,57,57)"/></linearGradient><linearGradient id="s47-fill" x1="137.300000" y1="241.540000" x2="151.480000" y2="275.640000" spreadMethod="pad" gradientUnits="userSpaceOnUse"><stop id="s47-fill-0" offset="40%" stop-color="rgb(184,57,57)"/><stop id="s47-fill-1" offset="88%" stop-color="rgb(135,33,33)"/></linearGradient><linearGradient id="s49-fill" x1="-3.560000" y1="-9.890000" x2="17.920000" y2="49.740000" spreadMethod="pad" gradientUnits="userSpaceOnUse"><stop id="s49-fill-0" offset="3%" stop-color="rgb(227,114,114)"/><stop id="s49-fill-1" offset="55%" stop-color="rgb(207,91,91)"/></linearGradient><linearGradient id="s51-fill" x1="-13.470000" y1="-37.400000" x2="8.010000" y2="22.230000" spreadMethod="pad" gradientUnits="userSpaceOnUse"><stop id="s51-fill-0" offset="3%" stop-color="rgb(227,114,114)"/><stop id="s51-fill-1" offset="55%" stop-color="rgb(207,91,91)"/></linearGradient><linearGradient id="s53-fill" x1="-9.960000" y1="-27.670000" x2="11.520000" y2="31.960000" spreadMethod="pad" gradientUnits="userSpaceOnUse"><stop id="s53-fill-0" offset="3%" stop-color="rgb(227,114,114)"/><stop id="s53-fill-1" offset="55%" stop-color="rgb(207,91,91)"/></linearGradient></defs><g id="s3"><path id="s5" d="M116.290000,65.150000L116.290000,327.340000C116.289154,331.349742,117.939708,335.182847,120.853374,337.937585C123.767039,340.692324,127.686605,342.125514,131.690000,341.900000C211.463719,337.335749,284.982890,297.227043,332,232.620000C334.327077,229.445992,335.274158,225.466910,334.626525,221.584877C333.978892,217.702843,331.791404,214.246696,328.560000,212Z" fill="url(#s5-fill)" stroke="none" stroke-width="1"/><circle id="s7" r="34.890000" transform="translate(161.270000,150.510000)" fill="url(#s7-fill)" stroke="none" stroke-width="1"/><path id="s9" d="M141.420000,207.130000C134.404480,205.736023,127.129636,206.542787,120.590000,209.440000L111.590000,254.770000L111.590000,267.580000C122.616742,277.269344,138.528819,279.020693,151.398970,271.961541C164.269121,264.902389,171.344438,250.542677,169.100060,236.036293C166.855681,221.529909,155.771675,209.979747,141.370000,207.140000Z" fill="url(#s9-fill)" stroke="none" stroke-width="1"/><circle id="s11" r="30.700000" transform="translate(231.180000,201.760000)" fill="url(#s11-fill)" stroke="none" stroke-width="1"/><g id="s13"><path id="s15" d="M124.450000,65.150000C119.450000,61.410000,111.650000,65.150000,111.650000,72.770000L111.650000,302.910000C111.638488,304.294666,112.220602,305.617952,113.249091,306.545122C114.277580,307.472291,115.653937,307.914541,117.030000,307.760000C128.390000,306.290000,137.280000,298.040000,146.300000,290.550000C147.390832,289.642991,148.907559,289.448051,150.192298,290.049737C151.477037,290.651423,152.298354,291.941347,152.300000,293.360000L152.300000,338.060000C152.235290,343.391656,156.047377,347.983104,161.300000,348.900000C164.378360,349.384829,167.514828,348.499645,169.885512,346.476969C172.256196,344.454293,173.624136,341.496300,173.630000,338.380000L173.630000,316.470000C173.630000,309.940000,178.420000,317.140000,184.280000,317.140000L184.280000,317.140000C190.154993,317.123520,194.913520,312.364993,194.930000,306.490000L194.930000,283.890000C194.924776,280.381003,197.666223,277.481396,201.170000,277.290000C206.549034,277.147275,211.849699,275.965576,216.780000,273.810000C229.840000,267.810000,235.310000,253.440000,243.120000,241.810000C243.725394,240.909245,244.847843,240.509193,245.886476,240.824000C246.925109,241.138807,247.636570,242.094712,247.640000,243.180000L247.640000,265.350000C247.575290,270.681656,251.387377,275.273104,256.640000,276.190000C259.718360,276.674829,262.854828,275.789645,265.225512,273.766969C267.596196,271.744293,268.964136,268.786300,268.970000,265.670000L268.970000,228C268.966907,225.044337,270.900949,222.435818,273.730000,221.580000C281.970000,219.110000,290.310000,216.790000,297.130000,211.640000C301.880000,208.050000,305.250000,202.260000,307.220000,198.080000C308.541367,195.240709,307.625001,191.862401,305.050000,190.080000Z" fill="url(#s15-fill)" stroke="none" stroke-width="1"/><path id="s17" d="M150.070000,290C148.808266,289.447102,147.341857,289.660468,146.290000,290.550000C137.290000,298.040000,128.390000,306.290000,117.020000,307.760000C115.643937,307.914541,114.267580,307.472291,113.239091,306.545122C112.210602,305.617952,111.628488,304.294666,111.640000,302.910000L111.640000,299.910000C112.569911,300.529017,113.691930,300.791768,114.800000,300.650000C126.160000,299.180000,135.050000,290.930000,144.070000,283.440000C145.160832,282.532991,146.677559,282.338051,147.962298,282.939737C149.247037,283.541423,150.068354,284.831347,150.070000,286.250000ZM245.370000,236C245.364511,234.918882,244.656561,233.966972,243.622743,233.650637C242.588925,233.334303,241.469522,233.727067,240.860000,234.620000C233.040000,246.290000,227.580000,260.620000,214.510000,266.680000C209.579699,268.835576,204.279034,270.017275,198.900000,270.160000C195.396223,270.351396,192.654776,273.251003,192.660000,276.760000L192.660000,299.360000C192.638006,305.234979,187.875009,309.989039,182,310C176.140000,310,171.350000,302.810000,171.350000,309.330000L171.350000,331.250000C171.350904,334.373886,169.982782,337.341259,167.606610,339.369183C165.230438,341.397106,162.084922,342.281859,159,341.790000C156.295362,341.352623,153.872947,339.864671,152.260000,337.650000L152.260000,338.060000C152.195290,343.391656,156.007377,347.983104,161.260000,348.900000C164.338360,349.384829,167.474828,348.499645,169.845512,346.476969C172.216196,344.454293,173.584136,341.496300,173.590000,338.380000L173.590000,316.470000C173.590000,309.940000,178.380000,317.140000,184.240000,317.140000C190.114993,317.123520,194.873520,312.364993,194.890000,306.490000L194.890000,283.890000C194.884776,280.381003,197.626223,277.481396,201.130000,277.290000C206.509034,277.147275,211.809699,275.965576,216.740000,273.810000C229.810000,267.810000,235.270000,253.420000,243.090000,241.750000C243.585217,240.983967,244.474692,240.568361,245.380000,240.680000ZM305.190000,190.180000C305.117649,190.421666,305.030826,190.658761,304.930000,190.890000C302.930000,195.070000,299.590000,200.890000,294.820000,204.480000C288,209.640000,279.660000,211.950000,271.420000,214.420000C268.590949,215.275818,266.656907,217.884337,266.660000,220.840000L266.660000,258.490000C266.651221,261.604551,265.282031,264.559791,262.911723,266.580224C260.541416,268.600656,257.406639,269.484565,254.330000,269C251.625362,268.562623,249.202947,267.074671,247.590000,264.860000L247.590000,265.270000C247.525290,270.601656,251.337377,275.193104,256.590000,276.110000C259.668360,276.594829,262.804828,275.709645,265.175512,273.686969C267.546196,271.664293,268.914136,268.706300,268.920000,265.590000L268.920000,228C268.916907,225.044337,270.850949,222.435818,273.680000,221.580000C281.920000,219.110000,290.260000,216.790000,297.080000,211.640000C301.840000,208.040000,305.220000,202.230000,307.190000,198.050000C308.469354,195.293281,307.633567,192.016994,305.190000,190.210000Z" fill="url(#s17-fill)" stroke="none" stroke-width="1"/></g><g id="s19"><circle id="s21" r="30.700000" transform="translate(227.480000,195.760000)" fill="url(#s21-fill)" stroke="none" stroke-width="1"/><path id="s23" d="M255.350000,182.890000C259.118134,198.250619,250.599674,213.960262,235.670634,219.182450C220.741595,224.404638,204.288214,217.430162,197.660000,203.070000C200.440973,214.406502,209.410265,223.185169,220.803885,225.722003C232.197505,228.258837,244.044065,224.114902,251.372119,215.029215C258.700173,205.943527,260.241780,193.488141,255.350000,182.890000Z" fill="url(#s23-fill)" stroke="none" stroke-width="1"/><circle id="s25" r="6.450000" transform="translate(210.530000,190.300000)" fill="url(#s25-fill)" stroke="none" stroke-width="1"/><circle id="s27" r="7.930000" transform="translate(232.870000,204.680000)" fill="url(#s27-fill)" stroke="none" stroke-width="1"/><circle id="s29" r="7.930000" transform="translate(237.010000,181.270000)" fill="url(#s29-fill)" stroke="none" stroke-width="1"/></g><g id="s31"><circle id="s33" r="34.890000" transform="translate(157.560000,144.520000)" fill="url(#s33-fill)" stroke="none" stroke-width="1"/><path id="s35" d="M189.430000,130.300000C193.896829,147.852502,184.194097,165.905088,167.090509,171.864128C149.986920,177.823167,131.167140,169.708072,123.760000,153.180000C127.012162,165.959440,137.189558,175.814637,150.066974,178.654141C162.944391,181.493645,176.322671,176.832536,184.647732,166.605904C192.972792,156.379273,194.822912,142.333584,189.430000,130.300000Z" fill="url(#s35-fill)" stroke="none" stroke-width="1"/><circle id="s37" r="7.150000" transform="translate(140.520000,144.520000)" fill="url(#s37-fill)" stroke="none" stroke-width="1"/><circle id="s39" r="9.250000" transform="translate(161.800000,125.580000)" fill="url(#s39-fill)" stroke="none" stroke-width="1"/><circle id="s41" r="9.250000" transform="translate(163.460000,153.770000)" fill="url(#s41-fill)" stroke="none" stroke-width="1"/></g><g id="s43"><path id="s45" d="M111.650000,206.420000L111.650000,263.610000C126.152972,273.749122,145.949595,271.425339,157.710369,258.203305C169.471143,244.981271,169.471143,225.048729,157.710369,211.826695C145.949595,198.604661,126.152972,196.280878,111.650000,206.420000Z" fill="url(#s45-fill)" stroke="none" stroke-width="1"/><path id="s47" d="M163.490000,220.800000C167.019674,234.529592,161.888706,249.029767,150.509271,257.483688C139.129837,265.937609,123.765754,266.663459,111.640000,259.320000L111.640000,263.620000C124.489698,272.599543,141.750713,271.906504,153.839142,261.925681C165.927572,251.944859,169.875130,235.127020,163.490000,220.810000Z" fill="url(#s47-fill)" stroke="none" stroke-width="1"/><circle id="s49" r="7.430000" transform="translate(123.720000,218.900000)" fill="url(#s49-fill)" stroke="none" stroke-width="1"/><circle id="s51" r="9.010000" transform="translate(127.240000,248.710000)" fill="url(#s51-fill)" stroke="none" stroke-width="1"/><circle id="s53" r="9.250000" transform="translate(146.350000,230.830000)" fill="url(#s53-fill)" stroke="none" stroke-width="1"/></g></g></svg>