<svg id="ePGdHDUi09K1" xmlns="http://www.w3.org/2000/svg" xmlns:xlink="http://www.w3.org/1999/xlink" viewBox="0 0 400 400" shape-rendering="geometricPrecision" text-rendering="geometricPrecision"><defs><linearGradient id="ePGdHDUi09K5-fill" x1="199.995632" y1="56.713424" x2="199.995632" y2="357.014278" spreadMethod="pad" gradientUnits="userSpaceOnUse"><stop id="ePGdHDUi09K5-fill-0" offset="0%" stop-color="rgb(255,102,0)"/><stop id="ePGdHDUi09K5-fill-1" offset="100%" stop-color="rgb(245,175,63)"/></linearGradient></defs><g id="ePGdHDUi09K2"><circle id="ePGdHDUi09K3" r="175" transform="matrix(1 0 0 1 200 200)" clip-rule="evenodd" fill="rgb(255,130,46)" fill-rule="evenodd" stroke="none" stroke-width="1"/><circle id="ePGdHDUi09K4" r="157" transform="matrix(1 0 0 1 200 200)" clip-rule="evenodd" fill="rgb(255,102,0)" fill-rule="evenodd" stroke="none" stroke-width="1"/><path id="ePGdHDUi09K5" d="M43.100000,206.900000C46.700000,290.400000,115.600000,357,200,357C284.400000,357,353.300000,290.400000,356.900000,206.900000C353.300000,123.400000,284.400000,56.700000,200,56.700000C115.600000,56.700000,46.700000,123.400000,43.100000,206.900000L43.100000,206.900000Z" clip-rule="evenodd" fill="url(#ePGdHDUi09K5-fill)" fill-rule="evenodd" stroke="none" stroke-width="1"/><circle id="ePGdHDUi09K6" r="115.800000" transform="matrix(1 0 0 1 200 200)" clip-rule="evenodd" fill="rgb(255,130,46)" fill-rule="evenodd" stroke="none" stroke-width="1"/><path id="ePGdHDUi09K7" d="M84.300000,203.700000C84.300000,204.900000,84.300000,206.100000,84.300000,207.400000C84.300000,271.300000,136.100000,323.200000,200.100000,323.200000C264.100000,323.200000,315.900000,271.300000,315.900000,207.400000C315.900000,206.200000,315.900000,205,315.900000,203.700000C313.900000,265.900000,262.900000,315.800000,200.200000,315.800000C137.500000,315.800000,86.200000,266,84.300000,203.700000L84.300000,203.700000Z" clip-rule="evenodd" fill="rgb(255,102,0)" fill-rule="evenodd" stroke="none" stroke-width="1"/></g><path id="ePGdHDUi09K8" d="M243.300000,209L243.300000,250.200000L279.800000,250.200000L287.500000,231.500000L262,231.500000L262,155L200,217L138,155L138,231.500000L112.600000,231.500000L120.200000,250.200000L156.700000,250.200000L156.700000,200.100000L200,243.400000L243.300000,200.100000L243.300000,209L243.300000,209ZM235.900000,227.800000L235.900000,218L200,253.900000L164.100000,218L164.100000,257.600000L115.300000,257.600000L101.600000,224.200000L130.700000,224.200000L130.700000,137.200000L200.100000,206.600000L269.500000,137.200000L269.500000,224.200000L298.500000,224.200000L284.800000,257.600000L236,257.600000L235.900000,227.800000L235.900000,227.800000Z" fill="rgb(255,255,255)" stroke="none" stroke-width="1"/></svg>