<svg id="ejtWTZOHVbX1" xmlns="http://www.w3.org/2000/svg" xmlns:xlink="http://www.w3.org/1999/xlink" viewBox="0 0 300 300" shape-rendering="geometricPrecision" text-rendering="geometricPrecision"><rect id="ejtWTZOHVbX2" width="230.863192" height="230.863192" rx="115.43" ry="115.43" transform="matrix(1.141047 0 0 1.141047 19.630771 18.897873)" fill="rgb(0,0,0)" stroke="none" stroke-width="0"/><g id="ejtWTZOHVbX3" transform="matrix(0.581894 0 0 0.581894 -3.326949 10.616033)"><g id="ejtWTZOHVbX4" transform="matrix(1.133379 0 0 1.133379 84.909174 102.968664)"><path id="ejtWTZOHVbX5" d="M257.346047,135.713426C257.346047,135.713426,260.768368,74.805073,291.846047,83.833426C306.346047,88.173426,313.346047,111.253426,257.346047,135.713426Z" transform="matrix(0.986657 0.162812 -0.162812 0.986657 -79.322814 -129.729614)" fill="rgb(255,255,255)" stroke="rgb(255,255,255)" stroke-width="13" stroke-miterlimit="10"/><path id="ejtWTZOHVbX6" d="M257.479968,135.791728C257.479968,135.791728,253.231258,75.176831,223.009968,83.911728C208.479968,88.251728,201.479968,111.331728,257.479968,135.791728Z" transform="matrix(0.98732 -0.158745 0.158745 0.98732 -123.476736 -48.44036)" fill="rgb(255,255,255)" stroke="rgb(255,255,255)" stroke-width="13" stroke-miterlimit="10"/><rect id="ejtWTZOHVbX7" width="133.31" height="79" rx="8.09" ry="8.09" transform="matrix(1 0 0 1 85.331511 43.12)" fill="rgb(255,255,255)" stroke="rgb(255,255,255)" stroke-width="10"/><rect id="ejtWTZOHVbX8" width="133.31" height="79" rx="8.09" ry="8.09" transform="matrix(1 0 0 1 85.990731 43.120002)" fill="rgb(249,200,0)" stroke="none" stroke-width="1"/><path id="ejtWTZOHVbX9" d="M257.21,135.91C257.21,135.91,259.741122,76.142771,291.71,84.02C306.21,88.37,313.21,111.44,257.21,135.91Z" transform="matrix(0.989524 0.144369 -0.144369 0.989524 -81.699287 -125.419293)" fill="rgb(36,36,36)" stroke="rgb(249,200,0)" stroke-width="4" stroke-miterlimit="10"/><path id="ejtWTZOHVbX10" d="M257.21,135.91C257.21,135.91,253.76319,75.969047,222.71,84.02C208.21,88.37,201.21,111.44,257.21,135.91Z" transform="matrix(0.999318 -0.173354 0.178456 1.02873 -128.08872 -49.316913)" fill="rgb(36,36,36)" stroke="rgb(249,200,0)" stroke-width="4" stroke-miterlimit="10"/></g><g id="ejtWTZOHVbX11"><g id="ejtWTZOHVbX12" transform="matrix(0.920797 0 0 0.920797 22.25151 54.563065)"><circle id="ejtWTZOHVbX13" r="24.42" transform="matrix(1 0 0 1 208.992929 352.461399)" fill="rgb(249,200,0)" stroke="rgb(255,255,255)" stroke-width="6" stroke-miterlimit="10"/><circle id="ejtWTZOHVbX14" r="24.42" transform="matrix(1 0 0 1 307.379859 352.461496)" fill="rgb(249,200,0)" stroke="rgb(255,255,255)" stroke-width="6" stroke-miterlimit="10"/></g><path id="ejtWTZOHVbX15" d="M349.965125,247.005621Q342.915398,279.503438,338.76,297.8L333.460017,322.114559C332.71287,324.8,330.307929,324.803077,328.6,324.8L185.84,324.8C182.454591,324.826579,179.522728,322.455958,178.84,319.14L174.46,297.8L151.76,187.34C151.330388,185.250675,151.862878,183.078904,153.210216,181.425264C154.557555,179.771624,156.576964,178.811352,158.71,178.81L355.69,178.8C359.153703,178.79566,362.113533,181.294602,362.69,184.71L373.69,135.22C372.839038,133.239528,372.403392,131.105543,372.41,128.95C372.407745,120.955038,378.307398,114.185512,386.227641,113.09502C394.147884,112.004528,401.657453,116.927817,403.815882,124.625908C405.974312,132.323998,402.119033,140.433821,394.786393,143.62001C387.453752,146.806199,378.894638,144.090695,374.74,137.26L359.17,207.37C357.455696,213.135217,355.501636,223.231205,349.965125,247.005621Z" fill="rgb(255,255,255)" stroke="rgb(255,255,255)" stroke-width="14" stroke-miterlimit="10"/><g id="ejtWTZOHVbX16" transform="matrix(1 0 0 1 0 -6.591012)"><path id="ejtWTZOHVbX17" d="M259.345092,226.230244L252.638721,258.274005L169.362913,258.152411" transform="matrix(1.547257 0 0 1.547257 -60.959972 -49.461767)" fill="none" stroke="rgb(255,255,255)" stroke-width="8" stroke-linecap="round" stroke-linejoin="round"/><path id="ejtWTZOHVbX18" d="M260.4361,221.932103L253.068251,258.204349L169.362913,258.152411" transform="matrix(1.547257 0 0 1.547257 -61.377431 -49.303036)" fill="none" stroke="rgb(249,200,0)" stroke-width="3" stroke-linecap="round" stroke-linejoin="round"/></g><path id="ejtWTZOHVbX19" d="M328.93,324.87L186.17,324.87C182.801662,324.867864,179.898411,322.499312,179.22,319.2L152.13,187.39C151.702025,185.293562,152.242316,183.115916,153.600618,181.462668C154.958921,179.80942,156.990364,178.856898,159.13,178.87L356,178.87C358.132179,178.868283,360.15192,179.826221,361.499667,181.478423C362.847414,183.130625,363.380045,185.301639,362.95,187.39L335.389999,317.678806C334.711588,320.978118,332.298338,324.867864,328.93,324.87Z" transform="matrix(1 0 0 1 0.83967 0)" fill="rgb(36,36,36)" stroke="rgb(249,200,0)" stroke-width="5" stroke-miterlimit="10"/><line id="ejtWTZOHVbX20" x1="339.309183" y1="295.690844" x2="378.51832" y2="121.349673" transform="matrix(1.143008 -0.048628 0.042505 0.999096 -60.307519 17.486924)" fill="none" stroke="rgb(249,200,0)" stroke-width="4" stroke-miterlimit="10"/><circle id="ejtWTZOHVbX21" r="16" transform="matrix(1 0 0 1 388.504449 129.165672)" fill="rgb(249,200,0)" stroke="none" stroke-width="1"/></g><g id="ejtWTZOHVbX22" transform="matrix(0.957253 0 0 0.957253 6.206408 14.249779)"><rect id="ejtWTZOHVbX23" width="289.33" height="90.5" rx="45.25" ry="45.25" transform="matrix(1.025212 0 0 1.045994 109.232706 205.288772)" fill="rgb(249,200,0)" stroke="rgb(255,255,255)" stroke-width="6" stroke-miterlimit="10"/><g id="ejtWTZOHVbX24" transform="matrix(1.198519 0 0 1.198519 -50.859577 -49.806844)"><path id="ejtWTZOHVbX25" d="M177,258.57L185.63,257.73C185.913237,260.161176,187.029872,262.419181,188.79,264.12C190.620263,265.543624,192.905151,266.25432,195.22,266.12Q199.51,266.12,201.68,264.3C203.022438,263.300265,203.824244,261.733602,203.85,260.06C203.876081,259.095843,203.552907,258.154731,202.94,257.41C202.058478,256.511953,200.9595,255.857389,199.75,255.51Q198.19,254.97,192.65,253.59Q185.51,251.82,182.65,249.24C180.072339,247.031847,178.607197,243.793884,178.65,240.4C178.64709,238.164647,179.308404,235.97883,180.55,234.12C181.888107,232.115821,183.802251,230.564284,186.04,229.67C188.787523,228.583165,191.726337,228.06275,194.68,228.14Q202.96,228.14,207.14,231.77C209.935011,234.209483,211.536204,237.740132,211.53,241.45L202.66,241.84C202.444235,239.962589,201.530437,238.23494,200.1,237C198.44533,235.890317,196.467095,235.365839,194.48,235.51C192.362895,235.399102,190.264349,235.955217,188.48,237.1C187.575277,237.710074,187.043794,238.739117,187.07,239.83C187.073007,240.876339,187.560444,241.862292,188.39,242.5Q190.07,243.91,196.54,245.44C199.847388,246.109548,203.063337,247.170341,206.12,248.6C208.110156,249.620845,209.786287,251.162193,210.97,253.06C213.436082,257.463341,213.305745,262.860822,210.63,267.14C209.208311,269.351811,207.131773,271.06478,204.69,272.04C201.639387,273.196189,198.390833,273.73988,195.13,273.64Q186.8,273.64,182.33,269.79Q177.86,265.94,177,258.57Z" fill="rgb(36,36,36)" stroke="none" stroke-width="1"/><path id="ejtWTZOHVbX26" d="M259.76,272.87L250.11,272.87L246.28,262.87L228.71,262.87L225.09,272.87L215.67,272.87L232.79,228.93L242.17,228.93ZM243.43,255.49L237.38,239.18L231.44,255.49Z" fill="rgb(36,36,36)" stroke="none" stroke-width="1"/><path id="ejtWTZOHVbX27" d="M264.71,272.87L264.71,229.29L273.58,229.29L273.58,265.47L295.64,265.47L295.64,272.87Z" fill="rgb(36,36,36)" stroke="none" stroke-width="1"/><path id="ejtWTZOHVbX28" d="M302,272.87L302,228.93L334.58,228.93L334.58,236.36L310.84,236.36L310.84,246.1L332.9,246.1L332.9,253.51L310.84,253.51L310.84,265.51L335.39,265.51L335.39,272.91Z" fill="rgb(36,36,36)" stroke="none" stroke-width="1"/></g></g></g></svg>