<svg id="ePx3fmFZjO01" xmlns="http://www.w3.org/2000/svg" xmlns:xlink="http://www.w3.org/1999/xlink" viewBox="0 0 400 400" shape-rendering="geometricPrecision" text-rendering="geometricPrecision"><g id="ePx3fmFZjO02"><g id="ePx3fmFZjO03"><path id="ePx3fmFZjO04" d="M157,371.930000L156.340000,371.870000L153.960000,371.650000L151.760000,371.440000L150.580000,371.310000L147.580000,370.990000L147.040000,370.930000L143.550000,370.510000L143.400000,370.510000L139.630000,370.020000C94.780000,364.020000,35.750000,347.770000,26.220000,295.740000C26.080000,294.930000,25.940000,294.130000,25.820000,293.340000C25.820000,293.070000,25.750000,292.820000,25.720000,292.560000C25.640000,292.030000,25.570000,291.510000,25.500000,290.990000L25.410000,290.080000C25.360000,289.610000,25.300000,289.140000,25.260000,288.680000C25.220000,288.220000,25.260000,288.060000,25.190000,287.750000L25.100000,286.430000C25.100000,286.110000,25.100000,285.800000,25.100000,285.430000C25.100000,285.060000,25.100000,284.590000,25.100000,284.180000C25.100000,283.770000,25.100000,283.530000,25.100000,283.180000L25.100000,281.990000C25.100000,281.670000,25.100000,281.340000,25.100000,280.990000C25.100000,280.640000,25.100000,280.220000,25.100000,279.850000C25.100000,279.480000,25.100000,279.200000,25.150000,278.850000C25.200000,278.500000,25.200000,278.110000,25.230000,277.740000C25.260000,277.370000,25.230000,277.110000,25.310000,276.790000C25.390000,276.470000,25.380000,276.060000,25.420000,275.700000L25.540000,274.770000Q25.600000,274.230000,25.690000,273.690000C25.690000,273.390000,25.780000,273.090000,25.830000,272.790000C25.880000,272.490000,25.950000,272.080000,26.010000,271.720000C26.070000,271.360000,26.120000,271.130000,26.180000,270.840000C26.240000,270.550000,26.320000,270.140000,26.400000,269.840000C26.480000,269.540000,26.520000,269.260000,26.590000,268.980000C26.660000,268.700000,26.760000,268.280000,26.840000,267.930000C26.920000,267.580000,26.990000,267.370000,27.060000,267.090000C27.130000,266.810000,27.250000,266.410000,27.340000,266.090000C27.430000,265.770000,27.500000,265.530000,27.590000,265.250000C27.680000,264.970000,27.800000,264.580000,27.910000,264.250000C28.020000,263.920000,28.080000,263.710000,28.170000,263.440000C28.260000,263.170000,28.410000,262.750000,28.530000,262.440000L28.790000,261.690000L29.210000,260.610000L29.470000,259.920000C29.630000,259.530000,29.790000,259.140000,29.960000,258.750000L30.200000,258.180000L30.800000,256.820000C30.860000,256.700000,30.910000,256.570000,30.970000,256.450000C31.510000,255.290000,32.070000,254.140000,32.660000,253.010000L32.820000,252.720000C33.060000,252.260000,33.310000,251.800000,33.560000,251.340000L33.860000,250.790000C34.070000,250.420000,34.280000,250.040000,34.500000,249.670000C34.600000,249.480000,34.710000,249.300000,34.820000,249.110000L35.480000,248L35.820000,247.440000L36.480000,246.360000L36.850000,245.770000L37.520000,244.720000L37.900000,244.130000L38.590000,243.130000L38.980000,242.550000L39.690000,241.490000L40.080000,240.930000L40.820000,239.850000L41.190000,239.320000C41.450000,238.940000,41.720000,238.570000,41.990000,238.190000L42.320000,237.730000C42.600000,237.320000,42.890000,236.920000,43.180000,236.520000L43.470000,236.120000C43.790000,235.680000,44.110000,235.230000,44.470000,234.790000L44.640000,234.560000L45.710000,233L45.710000,233C49.710000,227.560000,53.950000,222,58.050000,216.090000L58.120000,215.990000L59.120000,214.540000L59.350000,214.200000L60.230000,212.890000L60.560000,212.380000C60.830000,211.970000,61.100000,211.560000,61.360000,211.150000C61.500000,210.950000,61.630000,210.740000,61.760000,210.540000L62.520000,209.340000L62.940000,208.670000Q63.320000,208.080000,63.660000,207.500000L64.110000,206.770000L64.800000,205.600000L65.260000,204.830000L65.920000,203.680000C66.080000,203.410000,66.230000,203.140000,66.380000,202.870000C66.530000,202.600000,66.820000,202.090000,67.030000,201.700000L67.480000,200.870000L68.110000,199.690000L68.560000,198.830000L69.170000,197.640000C69.310000,197.340000,69.460000,197.050000,69.600000,196.760000L70.200000,195.530000L70.620000,194.650000C70.810000,194.240000,71.010000,193.820000,71.200000,193.390000C71.390000,192.960000,71.470000,192.790000,71.610000,192.490000C71.750000,192.190000,71.980000,191.650000,72.170000,191.220000L72.560000,190.290000C72.740000,189.860000,72.930000,189.430000,73.100000,188.990000C73.270000,188.550000,73.350000,188.370000,73.470000,188.070000C73.650000,187.620000,73.830000,187.160000,74,186.710000C74.120000,186.410000,74.230000,186.100000,74.340000,185.800000C74.520000,185.330000,74.690000,184.860000,74.860000,184.380000L75.160000,183.530000L75.690000,182L75.810000,181.610000C76.260000,180.230000,76.690000,178.830000,77.100000,177.400000C77.870000,174.720000,78.550000,171.950000,79.100000,169.070000C99.430000,70.210000,147.900000,34.290000,244.100000,27.070000C259.265353,25.772249,274.529232,27.873253,288.780000,33.220000C349.780000,56.510000,376.710000,138.090000,374.850000,202.010000C373.450000,250.170000,359.730000,287.210000,337.130000,314.330000C298,361.390000,231.910000,378.550000,157,371.930000Z" fill="rgb(247,204,159)" fill-rule="evenodd" stroke="none" stroke-width="1"/><path id="ePx3fmFZjO05" d="M335.050000,265.090000C375.420000,180.270000,331.360000,47.870000,246.200000,54.250000C194.770000,58.110000,160.140000,69.600000,136.890000,99.060000C117.820000,128.980000,122.550000,144.550000,142.170000,159.770000C152.750000,167.980000,152.340000,177.470000,148.990000,201.770000C145.920000,224.130000,150.080000,240.440000,179.610000,253.910000C225.180000,274.680000,304.750000,328.760000,335.050000,265.090000Z" fill="rgb(222,86,60)" fill-rule="evenodd" stroke="none" stroke-width="1"/><path id="ePx3fmFZjO06" d="M105.900000,175C95,227.810000,-34.890000,319.050000,143.260000,343C158.610000,345.060000,183.600000,345.060000,209.410000,342.640000C237.010000,337.850000,244.150000,310.870000,225.100000,299.440000C161.620000,261.340000,120.590000,246.800000,128.520000,207.060000C138,159.650000,112.220000,149.750000,105.900000,175.060000Z" fill="rgb(222,86,60)" fill-rule="evenodd" stroke="none" stroke-width="1"/><path id="ePx3fmFZjO07" d="M274.230000,306.610000C262.680000,302.900000,243.390000,296.900000,248.610000,313.050000C251.890000,323.200000,243.280000,333.510000,252.150000,336.900000C260.270000,339.990000,269.840000,329.750000,278.270000,326.540000C287.480000,323.020000,293.860000,312.920000,274.270000,306.610000Z" fill="rgb(222,86,60)" fill-rule="evenodd" stroke="none" stroke-width="1"/></g><g id="ePx3fmFZjO08"><path id="ePx3fmFZjO09" d="M302.180000,239C308.670000,220.100000,302.110000,193.470000,283.180000,187C264.250000,180.530000,246.270000,200.120000,233.720000,215.520000C221.170000,230.920000,237.290000,254.990000,256.180000,261.520000C265.265897,264.646333,275.222363,264.028898,283.852382,259.803941C292.482400,255.578984,299.076640,248.093769,302.180000,239Z" fill="rgb(255,255,255)" fill-rule="evenodd" stroke="none" stroke-width="1"/><path id="ePx3fmFZjO010" d="M293.470000,236C298.300000,221.920000,294.310000,200.530000,280.230000,195.690000C266.150000,190.850000,253.370000,207.910000,242.470000,218.490000C231.570000,229.070000,245.130000,247.910000,259.210000,252.750000C273.294752,257.564903,288.619467,250.072521,293.470000,236Z" fill="rgb(255,241,227)" fill-rule="evenodd" stroke="none" stroke-width="1"/></g></g></svg>