<svg id="eeVkcKv6M581" xmlns="http://www.w3.org/2000/svg" xmlns:xlink="http://www.w3.org/1999/xlink" viewBox="0 0 300 300" shape-rendering="geometricPrecision" text-rendering="geometricPrecision"><g id="eeVkcKv6M582" transform="matrix(0.973626 0 0 0.973626 -8.430813 40.03773)"><ellipse id="eeVkcKv6M583" rx="107.125407" ry="107.125407" transform="matrix(1.130899 0 0 1.130899 165.635 112.940975)" fill="rgb(0,0,0)" stroke="none" stroke-width="0"/><g id="eeVkcKv6M584" transform="matrix(1 0 0 1 -4.108352 10.27088)"><rect id="eeVkcKv6M585" width="183.04" height="109.78" rx="54.89" ry="54.89" transform="matrix(1 0 0 1 80.63 42.59)" fill="rgb(249,200,0)" stroke="none" stroke-width="1"/><rect id="eeVkcKv6M586" width="183.04" height="109.78" rx="54.89" ry="54.89" transform="matrix(1 0 0 1 80.63 42.59)" fill="rgb(249,200,0)" stroke="none" stroke-width="1"/><path id="eeVkcKv6M587" d="M257.17,102.91C257.109481,133.199807,232.569807,157.739481,202.28,157.8L182.84,157.8L169.36,181.15C168.588139,182.476155,167.169424,183.291942,165.635,183.291942C164.100576,183.291942,162.681861,182.476155,161.91,181.15L148.43,157.8L129,157.8C98.679567,157.8,74.1,133.220433,74.1,102.9C74.1,72.579567,98.679567,48,129,48L202.29,48C232.572311,48.093418,257.093131,72.627643,257.17,102.91Z" fill="none" stroke="rgb(255,255,255)" stroke-width="4" stroke-miterlimit="10"/><g id="eeVkcKv6M588"><path id="eeVkcKv6M589" d="M106.43,119.27C104.248002,118.703072,102.189934,117.736763,100.36,116.42L103.04,110.42C104.62842,111.560053,106.391338,112.434758,108.26,113.01C110.196088,113.65227,112.220261,113.989632,114.26,114.01C115.985928,114.127068,117.711862,113.781881,119.26,113.01C120.250129,112.49232,120.870539,111.467295,120.87,110.35C120.865348,109.564212,120.495839,108.825194,119.87,108.35C119.150339,107.762328,118.320885,107.323806,117.43,107.06Q115.94,106.57,113.43,105.98C111.260364,105.496661,109.122901,104.8788,107.03,104.13C105.374624,103.509549,103.904934,102.47698,102.76,101.13C101.520885,99.59277,100.894016,97.651611,101,95.68C100.981327,93.759038,101.542424,91.877098,102.61,90.28C103.823474,88.558258,105.512291,87.22736,107.47,86.45C109.998668,85.423669,112.711883,84.930048,115.44,85C117.593934,84.99685,119.740068,85.25882,121.83,85.78C123.758672,86.237834,125.604169,86.993577,127.3,88.02L124.86,94.02C121.992802,92.310815,118.727558,91.383307,115.39,91.33C113.684937,91.21324,111.981875,91.584375,110.48,92.4C109.491377,93.003739,108.891702,94.081636,108.9,95.24C108.898156,96.408989,109.630376,97.453304,110.73,97.85C112.530783,98.600238,114.403979,99.163202,116.32,99.53C118.485187,100.022013,120.618999,100.643123,122.71,101.39C124.353795,101.993519,125.821325,102.997076,126.98,104.31C128.232044,105.829512,128.867368,107.764039,128.76,109.73C128.775245,111.63787,128.206459,113.504742,127.13,115.08C125.896402,116.802947,124.191407,118.132913,122.22,118.91C119.677864,119.922307,116.955043,120.402204,114.22,120.32C111.586589,120.342628,108.963441,119.989058,106.43,119.27Z" fill="rgb(36,36,36)" stroke="none" stroke-width="1"/><path id="eeVkcKv6M5810" d="M157.31,112.47L141.45,112.47L138.45,119.79L130.35,119.79L145.58,85.62L153.39,85.62L168.67,119.79L160.37,119.79ZM154.82,106.47L149.41,93.39L144,106.46Z" fill="rgb(36,36,36)" stroke="none" stroke-width="1"/><path id="eeVkcKv6M5811" d="M172.83,85.62L180.74,85.62L180.74,113.34L197.87,113.34L197.87,119.79L172.87,119.79Z" fill="rgb(36,36,36)" stroke="none" stroke-width="1"/><path id="eeVkcKv6M5812" d="M229.4,113.44L229.4,119.79L203,119.79L203,85.62L228.82,85.62L228.82,92L210.82,92L210.82,99.42L226.69,99.42L226.69,105.56L210.8,105.56L210.8,113.47Z" fill="rgb(36,36,36)" stroke="none" stroke-width="1"/></g></g></g></svg>