<svg id="eHZoz24aS9d1" xmlns="http://www.w3.org/2000/svg" xmlns:xlink="http://www.w3.org/1999/xlink" viewBox="0 0 400 400" shape-rendering="geometricPrecision" text-rendering="geometricPrecision"><defs><linearGradient id="eHZoz24aS9d30-fill" x1="143.084000" y1="203.880400" x2="143.084000" y2="316.412000" spreadMethod="pad" gradientUnits="userSpaceOnUse"><stop id="eHZoz24aS9d30-fill-0" offset="0%" stop-color="rgb(255,153,153)"/><stop id="eHZoz24aS9d30-fill-1" offset="100%" stop-color="rgb(255,102,102)"/></linearGradient></defs><g id="eHZoz24aS9d2"><g id="eHZoz24aS9d3"><polygon id="eHZoz24aS9d4" points="326.020000,63.380000 159.330000,63.380000 159.330000,336.620000 326.020000,336.620000 326.020000,63.380000" fill="rgb(204,233,251)" fill-rule="evenodd" stroke="none" stroke-width="1"/><polygon id="eHZoz24aS9d5" points="326.020000,63.380000 375,63.380000 375,336.620000 326.020000,336.620000 326.020000,63.380000" fill="rgb(153,203,238)" fill-rule="evenodd" stroke="none" stroke-width="1"/><polygon id="eHZoz24aS9d6" points="326.020000,279.750000 159.330000,279.750000 159.330000,336.620000 326.020000,336.620000 326.020000,279.750000" fill="rgb(204,153,204)" fill-rule="evenodd" stroke="none" stroke-width="1"/><polygon id="eHZoz24aS9d7" points="326.020000,279.750000 375,279.750000 375,336.620000 326.020000,336.620000 326.020000,279.750000" fill="rgb(153,102,204)" fill-rule="evenodd" stroke="none" stroke-width="1"/><path id="eHZoz24aS9d8" d="M350.510000,79.280000C345.041236,79.280000,339.796458,81.452458,335.929458,85.319458C332.062458,89.186458,329.890000,94.431236,329.890000,99.900000L371.130000,99.900000C371.130000,94.431236,368.957542,89.186458,365.090542,85.319458C361.223542,81.452458,355.978764,79.280000,350.510000,79.280000Z" fill="rgb(51,51,51)" fill-rule="evenodd" stroke="none" stroke-width="1"/><path id="eHZoz24aS9d9" d="M356,82.070000C344.610000,82.070000,332.900000,90.070000,329.850000,99.900000L371.090000,99.900000C374.180000,90.050000,367.430000,82.070000,356,82.070000Z" fill="rgb(86,153,198)" fill-rule="evenodd" stroke="none" stroke-width="1"/><path id="eHZoz24aS9d10" d="M242.680000,87.230000C259.935291,87.228387,274.683806,99.654634,277.610000,116.660000L312.710000,116.660000L312.710000,128.900000L267.250000,128.900000C269.843899,118.652057,265.806191,107.870293,257.118849,101.847109C248.431507,95.823925,236.918493,95.823925,228.231151,101.847109C219.543809,107.870293,215.506101,118.652057,218.100000,128.900000L172.650000,128.900000L172.650000,116.660000L207.740000,116.660000C210.674409,99.655254,225.423925,87.231721,242.680000,87.230000Z" fill="rgb(255,255,255)" fill-rule="evenodd" stroke="none" stroke-width="1"/><path id="eHZoz24aS9d11" d="M242.680000,102.240000C234.424017,102.235955,226.978722,107.206126,223.816490,114.832500C220.654259,122.458873,222.397983,131.239217,228.234415,137.078510C234.070846,142.917803,242.850335,144.665829,250.478257,141.507336C258.106179,138.348843,263.079999,130.905984,263.080000,122.650000C263.080001,111.381772,253.948226,102.245521,242.680000,102.240000Z" fill="rgb(255,102,0)" fill-rule="evenodd" stroke="none" stroke-width="1"/><polygon id="eHZoz24aS9d12" points="290.580000,193.020000 194.780000,193.020000 194.780000,199.030000 290.580000,199.030000 290.580000,193.020000" fill="rgb(255,255,255)" fill-rule="evenodd" stroke="none" stroke-width="1"/><polygon id="eHZoz24aS9d13" points="271.680000,204.730000 213.680000,204.730000 213.680000,208.370000 271.680000,208.370000 271.680000,204.730000" fill="rgb(255,255,255)" fill-rule="evenodd" stroke="none" stroke-width="1"/><polygon id="eHZoz24aS9d14" points="271.680000,210.960000 213.680000,210.960000 213.680000,214.600000 271.680000,214.600000 271.680000,210.960000" fill="rgb(255,255,255)" fill-rule="evenodd" stroke="none" stroke-width="1"/><polygon id="eHZoz24aS9d15" points="271.680000,217.190000 213.680000,217.190000 213.680000,220.830000 271.680000,220.830000 271.680000,217.190000" fill="rgb(255,255,255)" fill-rule="evenodd" stroke="none" stroke-width="1"/><polygon id="eHZoz24aS9d16" points="271.680000,223.420000 213.680000,223.420000 213.680000,227.060000 271.680000,227.060000 271.680000,223.420000" fill="rgb(255,255,255)" fill-rule="evenodd" stroke="none" stroke-width="1"/><polygon id="eHZoz24aS9d17" points="287.890000,323.730000 313.130000,323.730000 313.130000,309.230000 287.890000,309.230000 287.890000,323.730000" fill="rgb(255,255,255)" fill-rule="evenodd" stroke="none" stroke-width="1"/><polygon id="eHZoz24aS9d18" points="348.310000,323.730000 349.280000,323.730000 349.280000,294.620000 348.310000,294.620000 348.310000,323.730000" fill="rgb(26,26,26)" fill-rule="evenodd" stroke="none" stroke-width="1"/><polygon id="eHZoz24aS9d19" points="350.400000,323.730000 352.340000,323.730000 352.340000,294.620000 350.400000,294.620000 350.400000,323.730000" fill="rgb(26,26,26)" fill-rule="evenodd" stroke="none" stroke-width="1"/><polygon id="eHZoz24aS9d20" points="361.250000,323.730000 365.870000,323.730000 365.870000,294.620000 361.250000,294.620000 361.250000,323.730000" fill="rgb(26,26,26)" fill-rule="evenodd" stroke="none" stroke-width="1"/><polygon id="eHZoz24aS9d21" points="335.150000,323.730000 339.770000,323.730000 339.770000,294.620000 335.150000,294.620000 335.150000,323.730000" fill="rgb(26,26,26)" fill-rule="evenodd" stroke="none" stroke-width="1"/><polygon id="eHZoz24aS9d22" points="356.470000,323.730000 357.440000,323.730000 357.440000,294.620000 356.470000,294.620000 356.470000,323.730000" fill="rgb(26,26,26)" fill-rule="evenodd" stroke="none" stroke-width="1"/><polygon id="eHZoz24aS9d23" points="358.570000,323.730000 360.500000,323.730000 360.500000,294.620000 358.570000,294.620000 358.570000,323.730000" fill="rgb(26,26,26)" fill-rule="evenodd" stroke="none" stroke-width="1"/><polygon id="eHZoz24aS9d24" points="353.410000,323.730000 355.350000,323.730000 355.350000,294.620000 353.410000,294.620000 353.410000,323.730000" fill="rgb(26,26,26)" fill-rule="evenodd" stroke="none" stroke-width="1"/><polygon id="eHZoz24aS9d25" points="341.060000,323.730000 342.030000,323.730000 342.030000,294.620000 341.060000,294.620000 341.060000,323.730000" fill="rgb(26,26,26)" fill-rule="evenodd" stroke="none" stroke-width="1"/><polygon id="eHZoz24aS9d26" points="343.160000,323.730000 345.090000,323.730000 345.090000,294.620000 343.160000,294.620000 343.160000,323.730000" fill="rgb(26,26,26)" fill-rule="evenodd" stroke="none" stroke-width="1"/></g><g id="eHZoz24aS9d27"><polygon id="eHZoz24aS9d28" points="194.770000,336.620000 90.060000,336.620000 90.060000,327.580000 194.770000,327.580000 194.770000,336.620000" fill="rgb(255,102,102)" fill-rule="evenodd" stroke="none" stroke-width="1"/><path id="eHZoz24aS9d29" d="M190.190000,323.560000L94.650000,323.560000C93.545431,323.560000,92.650000,324.455431,92.650000,325.560000L92.650000,327.560000L192.200000,327.560000L192.200000,325.560000C192.200007,325.027830,191.987921,324.517601,191.610682,324.142239C191.233444,323.766878,190.722163,323.557339,190.190000,323.560000Z" fill="rgb(255,255,255)" fill-rule="evenodd" stroke="none" stroke-width="1"/><path id="eHZoz24aS9d30" d="M30.340000,221.750000C30.335727,265.493189,55.776404,305.243271,95.500000,323.560000L189.330000,323.560000C229.057016,305.247197,254.499270,265.494651,254.490000,221.750000L254.490000,214.160000C254.484507,212.190623,252.889377,210.595493,250.920000,210.590000L34,210.590000C32.032888,210.600929,30.440929,212.192888,30.430000,214.160000L30.430000,221.750000Z" fill="url(#eHZoz24aS9d30-fill)" fill-rule="evenodd" stroke="none" stroke-width="1"/><polygon id="eHZoz24aS9d31" points="254.400000,219.630000 30.430000,219.630000 30.430000,217.400000 254.400000,217.400000 254.400000,219.630000" fill="rgb(255,204,204)" fill-rule="evenodd" stroke="none" stroke-width="1"/></g><g id="eHZoz24aS9d32"><path id="eHZoz24aS9d33" d="M54.170000,210.590000L26.380000,185.370000C24.780948,183.778491,24.716502,181.210754,26.233701,179.541031C27.750901,177.871309,30.313057,177.690244,32.050000,179.130000L66.720000,210.590000Z" fill="rgb(153,153,153)" stroke="none" stroke-width="1"/><path id="eHZoz24aS9d34" d="M25.570000,184.380000C24.524223,182.581590,24.945095,180.289351,26.561527,178.979742C28.177958,177.670133,30.507643,177.733913,32.050000,179.130000L66.720000,210.590000L56.810000,210.590000L25.570000,184.380000Z" fill="rgb(204,204,204)" stroke="none" stroke-width="1"/></g></g></svg>