<svg id="eK5gTLRhzMo1" xmlns="http://www.w3.org/2000/svg" xmlns:xlink="http://www.w3.org/1999/xlink" viewBox="0 0 300 300" shape-rendering="geometricPrecision" text-rendering="geometricPrecision"><g id="eK5gTLRhzMo2" transform="matrix(0.927744 0 0 0.927744 -64.391433 -92.772956)"><g id="eK5gTLRhzMo3"><polygon id="eK5gTLRhzMo4" points="242.71,223.39 242.08,223.17 241.64,223.01 239.12,222.1 181.14,201.3 212.53,166.35 242.03,222.1 242.07,222.19 242.51,223.01 242.71,223.39" transform="matrix(1 0 0 1 0.000001 0)" fill="rgb(20,19,19)" stroke="none" stroke-width="1"/><polygon id="eK5gTLRhzMo5" points="303.01,201.3 245.03,222.1 242.51,223.01 242.08,223.17 241.44,223.39 241.64,223.01 242.07,222.19 242.12,222.1 271.61,166.35 303.01,201.3" fill="rgb(20,19,19)" stroke="none" stroke-width="1"/><rect id="eK5gTLRhzMo6" width="139.181433" height="112.92" rx="0" ry="0" transform="matrix(0.992501 0 0 0.992501 173.922304 252.179913)" fill="rgb(20,19,19)" stroke="none" stroke-width="0"/><rect id="eK5gTLRhzMo7" width="161.011433" height="34.33" rx="0" ry="0" transform="matrix(0.981918 0 0 0.981918 163.06999 219.515379)" fill="rgb(20,19,19)" stroke="none" stroke-width="0"/></g><g id="eK5gTLRhzMo8"><rect id="eK5gTLRhzMo9" width="137.95" height="128.16" rx="0" ry="0" transform="matrix(1 0 0 0.883177 163.070008 245.162036)" fill="rgb(36,36,36)" stroke="rgb(255,255,255)" stroke-width="4" stroke-miterlimit="10"/><rect id="eK5gTLRhzMo10" width="58.59" height="106.88" rx="0" ry="0" transform="matrix(0.947836 0 0 1.023842 204.291185 246.903757)" fill="rgb(206,0,0)" stroke="none" stroke-width="1"/><g id="eK5gTLRhzMo11" transform="matrix(1 0 0 1 0.000001 0)"><path id="eK5gTLRhzMo12" d="M193.83,283.5C194.572921,284.512749,194.956526,285.744509,194.92,287C195.001912,288.803952,194.132994,290.51902,192.63,291.52C191.11,292.58,188.89,293.1,185.97,293.1L174.41,293.1L174.41,270.74L185.33,270.74C187.533989,270.601366,189.727075,271.146145,191.61,272.3C193.013904,273.253247,193.8385,274.85349,193.8,276.55C193.818055,277.573955,193.547764,278.582347,193.02,279.46C192.483012,280.311372,191.726479,281.00227,190.83,281.46C192.020023,281.806797,193.070016,282.520792,193.83,283.5ZM179.55,274.64L179.55,279.91L184.69,279.91C185.704357,279.972475,186.715093,279.739763,187.6,279.24C188.26604,278.799275,188.647044,278.037267,188.6,277.24C188.655574,276.441007,188.272539,275.674937,187.6,275.24C186.712797,274.747721,185.702347,274.52202,184.69,274.59ZM188.67,288.53C189.350615,288.06942,189.732243,287.279449,189.67,286.46C189.67,284.6,188.3,283.68,185.55,283.68L179.55,283.68L179.55,289.21L185.55,289.21C186.633587,289.285788,187.716226,289.049828,188.67,288.53Z" fill="rgb(255,255,255)" stroke="none" stroke-width="1"/><path id="eK5gTLRhzMo13" d="M199.26,270.74L204.44,270.74L204.44,288.89L215.65,288.89L215.65,293.1L199.26,293.1Z" fill="rgb(255,255,255)" stroke="none" stroke-width="1"/><path id="eK5gTLRhzMo14" d="M233.9,288.31L223.51,288.31L221.51,293.1L216.21,293.1L226.21,270.74L231.32,270.74L241.32,293.1L235.89,293.1ZM232.27,284.38L228.72,275.82L225.17,284.38Z" fill="rgb(255,255,255)" stroke="none" stroke-width="1"/><path id="eK5gTLRhzMo15" d="M248.26,292C246.460669,291.050095,244.956153,289.625129,243.91,287.88C241.797062,284.187571,241.797062,279.652429,243.91,275.96C244.956153,274.214871,246.460669,272.789905,248.26,271.84C251.835127,270.028315,256.021274,269.860432,259.73,271.38C261.259378,272.03603,262.612622,273.043255,263.68,274.32L260.35,277.38C258.972517,275.697534,256.904268,274.733333,254.73,274.76C253.435774,274.740296,252.158215,275.053659,251.02,275.67C249.954783,276.265549,249.075549,277.144783,248.48,278.21C247.263638,280.533785,247.263638,283.306215,248.48,285.63C249.075549,286.695217,249.954783,287.574451,251.02,288.17C252.158215,288.786341,253.435774,289.099704,254.73,289.08C256.910275,289.103789,258.981252,288.127261,260.35,286.43L263.68,289.49C262.611313,290.801283,261.238064,291.83122,259.68,292.49C258.011952,293.186066,256.217083,293.526648,254.41,293.49C252.267799,293.51417,250.153596,293.001949,248.26,292Z" fill="rgb(255,255,255)" stroke="none" stroke-width="1"/><path id="eK5gTLRhzMo16" d="M275.72,284.32L272.72,287.45L272.72,293.1L267.57,293.1L267.57,270.74L272.72,270.74L272.72,281.19L282.62,270.74L288.37,270.74L279.11,280.74L288.92,293.13L282.92,293.13Z" fill="rgb(255,255,255)" stroke="none" stroke-width="1"/><path id="eK5gTLRhzMo17" d="M189.58,317.84C189.343512,317.619658,189.15316,317.354525,189.02,317.06C188.914494,316.822347,188.834059,316.574339,188.78,316.32C188.730022,316.059038,188.730022,315.790962,188.78,315.53C188.875879,315.19706,189.020802,314.880252,189.21,314.59C189.409336,314.295313,189.640752,314.023651,189.9,313.78C190.241721,313.463389,190.629458,313.200402,191.05,313C191.376784,312.205859,191.660528,311.394682,191.9,310.57C192.15,309.72,192.38,308.94,192.57,308.24C192.76,307.54,192.98,306.61,193.15,305.79C193.674954,304.170573,193.987563,302.489876,194.08,300.79C194.122958,299.942804,194.099554,299.093544,194.01,298.25C194.01,298.08,194.01,297.91,193.94,297.75C193.888292,297.589004,193.844901,297.425455,193.81,297.26C193.78162,297.084189,193.741531,296.910469,193.69,296.74C193.95,296.59,194.19,296.47,194.39,296.38C194.558717,296.296201,194.73237,296.222732,194.91,296.16C195.06193,296.096219,195.219211,296.046023,195.38,296.01C195.896073,295.89672,196.421803,295.833096,196.95,295.82Q197.69,295.82,197.76,296.09C197.804201,296.304462,197.834265,296.521596,197.85,296.74C197.894047,297.1217,197.914087,297.505789,197.91,297.89C197.90469,298.401771,197.867954,298.912733,197.8,299.42C197.717713,300.026938,197.583896,300.625768,197.4,301.21C197.23,301.76,197.01,302.53,196.72,303.52C196.43,304.51,196.1,305.52,195.67,306.89C195.24,308.26,194.67,310.09,193.98,312.28C194.7,312.04,195.49,311.81,196.36,311.6C197.23,311.39,198.11,311.2,199.01,311.06C199.91,310.92,200.81,310.8,201.71,310.73C202.545795,310.675986,203.384205,310.675986,204.22,310.73C204.354428,310.727288,204.47706,310.806405,204.53,310.93C204.590323,311.063502,204.590323,311.216498,204.53,311.35C204.439498,311.522747,204.30046,311.665261,204.13,311.76C203.861459,311.912591,203.558827,311.995127,203.25,312L201.66,312.16C201.08,312.22,200.49,312.3,199.87,312.41C199.25,312.52,198.65,312.65,198.05,312.81C197.474415,312.957432,196.909731,313.144546,196.36,313.37L195.13,313.8C194.79,313.92,194.44,314.06,194.07,314.22C193.7,314.38,193.39,314.51,193.15,314.63L192.32,317.26C193.545412,318.083194,194.632287,319.09581,195.54,320.26C196.2069,321.13734,196.76122,322.094801,197.19,323.11C197.580386,324.065711,197.810148,325.079368,197.87,326.11C197.865128,327.190221,197.706882,328.264276,197.4,329.3C197.091031,330.362454,196.675591,331.391002,196.16,332.37C195.64702,333.333647,195.040786,334.244673,194.35,335.09C193.71235,335.890884,192.987931,336.618657,192.19,337.26C191.490342,337.826029,190.712231,338.287507,189.88,338.63C189.179927,338.927504,188.418213,339.051026,187.66,338.99C187.200259,338.957189,186.761118,338.786412,186.4,338.5C186.067556,338.23495,185.806361,337.891273,185.64,337.5C185.472562,337.047376,185.374782,336.571964,185.35,336.09C185.329426,335.575529,185.379901,335.060679,185.5,334.56C185.6,334.05,185.8,333.11,186.11,331.74Q186.51,330.02,187.34,326.74Q188.17,323.46,189.58,317.84ZM191.7,319.53C191.37,320.73,191.07,321.84,190.82,322.85C190.57,323.86,190.36,324.75,190.19,325.52C190.02,326.29,189.8,327.22,189.68,327.94C189.47,328.85,189.24,329.75,189.02,330.64C188.8,331.53,188.61,332.33,188.47,333.04C188.354445,333.602456,188.300792,334.17587,188.31,334.75C188.31,335.19,188.49,335.4,188.78,335.4C189.582873,335.414931,190.361668,335.125562,190.96,334.59C191.761574,333.955543,192.462804,333.203743,193.04,332.36C193.665997,331.445207,194.186001,330.462233,194.59,329.43C194.972164,328.509758,195.179046,327.52622,195.2,326.53C195.197728,325.538018,195.039115,324.552593,194.73,323.61C194.514187,323.100074,194.263597,322.605576,193.98,322.13Q193.58,321.52,192.98,320.81C192.608091,320.33188,192.17812,319.901909,191.7,319.53Z" fill="rgb(255,255,255)" stroke="none" stroke-width="1"/><path id="eK5gTLRhzMo18" d="M199.49,321.41C199.365882,321.636835,199.173433,321.818786,198.94,321.93C198.76389,322.002782,198.56611,322.002782,198.39,321.93C198.233536,321.860451,198.121338,321.718333,198.09,321.55C198.051244,321.301017,198.100768,321.046319,198.23,320.83L198.72,319.83L199.62,318.01L200.76,315.7L201.93,313.34C202.3,312.6,202.64,311.93,202.93,311.34L203.61,310.06C203.35,309.82,203.17,309.64,203.07,309.53C202.934383,309.321011,202.858321,309.078997,202.85,308.83C202.825844,308.411659,202.90124,307.993553,203.07,307.61C203.267032,307.092883,203.52199,306.599741,203.83,306.14C204.108093,305.697025,204.444434,305.293415,204.83,304.94C205.124033,304.638346,205.519592,304.456603,205.94,304.43C206.498583,304.375498,207.043776,304.623313,207.37,305.08C207.631313,305.480823,207.798806,305.935448,207.86,306.41C207.898419,306.811694,207.871402,307.216961,207.78,307.61C207.696677,308.074367,207.51233,308.514752,207.24,308.9C207.332272,308.96385,207.429212,309.020677,207.53,309.07C207.714561,309.141548,207.912435,309.172253,208.11,309.16C208.382381,309.170255,208.654888,309.14334,208.92,309.08C209.16304,309.027544,209.411435,309.004047,209.66,309.01C210.018877,308.996684,210.371584,309.106023,210.66,309.32C210.925263,309.527366,211.146281,309.785787,211.31,310.08C211.481768,310.394402,211.609625,310.730868,211.69,311.08C211.769705,311.408575,211.823206,311.742959,211.85,312.08C211.903373,312.738069,211.73817,313.395367,211.38,313.95C210.99,314.6,210.53,315.31,209.97,316.08C209.64,316.56,209.3,317.08,208.97,317.7C208.664412,318.187037,208.514423,318.755601,208.54,319.33C208.5726,319.594144,208.657594,319.849125,208.79,320.08C208.91,320.28,209.25,320.37,209.79,320.37C210.275674,320.345684,210.745674,320.190169,211.15,319.92C211.687818,319.584195,212.193318,319.199211,212.66,318.77C213.19721,318.280918,213.707936,317.763516,214.19,317.22C214.7,316.65,215.19,316.1,215.6,315.56C216.01,315.02,216.4,314.56,216.7,314.1C217,313.64,217.22,313.35,217.37,313.16C217.475289,312.975989,217.641522,312.834514,217.84,312.76C217.999278,312.689816,218.180722,312.689816,218.34,312.76C218.498616,312.846667,218.600849,313.009483,218.61,313.19C218.624357,313.502632,218.528834,313.810428,218.34,314.06C218.2,314.3,217.95,314.69,217.6,315.21C217.25,315.73,216.83,316.33,216.34,316.98C215.85,317.63,215.34,318.3,214.7,318.98C214.114901,319.653607,213.479761,320.282061,212.8,320.86C212.182499,321.39035,211.512341,321.85611,210.8,322.25C210.224722,322.584401,209.575108,322.770005,208.91,322.79C208.370347,322.811711,207.834842,322.687335,207.36,322.43C206.969693,322.204311,206.629444,321.90149,206.36,321.54C206.108927,321.194246,205.925691,320.804021,205.82,320.39C205.718873,320.008709,205.678378,319.61388,205.7,319.22C205.727406,318.903079,205.805042,318.592533,205.93,318.3C206.06,317.97,206.22,317.64,206.4,317.3C206.58,316.96,206.77,316.6,206.98,316.3C207.19,316,207.37,315.61,207.54,315.3C207.94,314.61,208.28,314.01,208.54,313.52C208.760096,313.137661,208.890061,312.710147,208.92,312.27C208.922782,312.069893,208.87092,311.872817,208.77,311.7C208.67902,311.527538,208.494443,311.425432,208.3,311.44L208,311.44L207.82,311.44L207.57,311.44L207.08,311.44C206.805727,311.447133,206.53306,311.396008,206.28,311.29C206.08376,311.20088,205.879513,311.130565,205.67,311.08L205.02,312.16Q204.51,312.99,203.85,314.11L202.44,316.45C201.95,317.27,201.49,318.03,201.05,318.74L199.95,320.54C199.75,321,199.57,321.31,199.49,321.41Z" fill="rgb(255,255,255)" stroke="none" stroke-width="1"/><path id="eK5gTLRhzMo19" d="M218.83,308C219.015149,307.814135,219.252201,307.688637,219.51,307.64C219.85484,307.538899,220.20548,307.458753,220.56,307.4C220.890567,307.341489,221.224619,307.304743,221.56,307.29C221.732595,307.267371,221.907405,307.267371,222.08,307.29C222.063572,307.551714,222.002702,307.80872,221.9,308.05C221.76,308.53,221.58,309.05,221.36,309.74C221.14,310.43,220.92,311.06,220.68,311.74C220.44,312.42,220.26,312.99,220.14,313.42C220.02,313.85,219.87,314.34,219.7,314.88C219.53,315.42,219.38,315.95,219.25,316.47C219.130258,316.97338,219.046711,317.484687,219,318C218.947618,318.337196,218.985574,318.682253,219.11,319C219.18762,319.229173,219.325844,319.433054,219.51,319.59C219.643567,319.695866,219.809583,319.752382,219.98,319.75C220.651559,319.672879,221.285045,319.397904,221.8,318.96C222.57625,318.39262,223.311416,317.771071,224,317.1C224.76,316.36,225.46,315.62,226.11,314.86C226.76,314.1,227.24,313.5,227.56,313.04C227.709202,312.831581,227.913501,312.668833,228.15,312.57C228.308826,312.482831,228.501174,312.482831,228.66,312.57C228.800787,312.684335,228.87876,312.858846,228.87,313.04C228.871745,313.307625,228.791479,313.569364,228.64,313.79C228.138173,314.63401,227.569696,315.436564,226.94,316.19C226.194969,317.121907,225.400495,318.013187,224.56,318.86C223.793417,319.648543,222.967679,320.377332,222.09,321.04C221.524832,321.534928,220.831711,321.860695,220.09,321.98C219.676861,322.003237,219.263688,321.934944,218.88,321.78C218.483629,321.63048,218.117696,321.410242,217.8,321.13C217.469324,320.848131,217.191633,320.509484,216.98,320.13C216.77362,319.772001,216.650571,319.372094,216.62,318.96C216.548711,318.13821,216.548711,317.31179,216.62,316.49C216.7,315.44,216.83,314.37,217.02,313.28C217.200839,312.225479,217.447996,311.183411,217.76,310.16C217.979969,309.380006,218.342778,308.647606,218.83,308ZM223.83,300.31C223.742105,300.594859,223.599436,300.859816,223.41,301.09C223.22111,301.331872,222.990891,301.538392,222.73,301.7C222.491112,301.850099,222.226749,301.955166,221.95,302.01C221.721821,302.067709,221.479816,302.011861,221.3,301.86C220.863344,301.58675,220.573129,301.131223,220.51,300.62C220.480011,300.176662,220.592102,299.735304,220.83,299.36C221.06251,298.971602,221.368155,298.631996,221.73,298.36C222.002122,298.127499,222.323564,297.959939,222.67,297.87C222.906068,297.814894,223.154304,297.874174,223.34,298.03C223.52857,298.197225,223.669946,298.411014,223.75,298.65C223.8507,298.919257,223.908078,299.202776,223.92,299.49C223.929878,299.777434,223.892722,300.06455,223.81,300.34Z" fill="rgb(255,255,255)" stroke="none" stroke-width="1"/><path id="eK5gTLRhzMo20" d="M237.48,314.7C237.36,315.44,237.24,316.15,237.13,316.83C237.02,317.51,236.96,318.04,236.94,318.45C236.87343,318.908465,236.988225,319.37482,237.26,319.75C237.454872,319.989109,237.741931,320.134455,238.05,320.15C238.50758,320.105919,238.942184,319.928601,239.3,319.64C239.848283,319.25207,240.372575,318.8313,240.87,318.38C241.42,317.87,241.97,317.32,242.53,316.72C243.09,316.12,243.59,315.55,244.06,315.01C244.53,314.47,244.93,314.01,245.25,313.58C245.57,313.15,245.8,312.91,245.92,312.79C246.03737,312.656258,246.195514,312.564886,246.37,312.53C246.507263,312.489007,246.655968,312.52263,246.762244,312.618687C246.86852,312.714744,246.916954,312.859305,246.89,313C246.867826,313.266699,246.766886,313.52079,246.6,313.73C246.31,314.18,245.94,314.73,245.49,315.33C245.04,315.93,244.49,316.57,243.97,317.22C243.45,317.87,242.83,318.51,242.22,319.14C241.642099,319.728276,241.027536,320.279378,240.38,320.79C239.829138,321.239092,239.236417,321.63424,238.61,321.97C238.144624,322.24321,237.619188,322.39775,237.08,322.42C236.72513,322.425779,236.376719,322.324739,236.08,322.13C235.768016,321.925498,235.493939,321.66834,235.27,321.37C235.03461,321.066391,234.845864,320.729343,234.71,320.37C234.583459,319.997009,234.529157,319.60332,234.55,319.21C234.55,319.04,234.61,318.76,234.66,318.35C233.782309,319.371475,232.773593,320.272595,231.66,321.03C230.797713,321.64139,229.77624,321.98883,228.72,322.03C227.889053,322.000489,227.114939,321.600591,226.61,320.94C226.273038,320.486173,226.022217,319.974364,225.87,319.43C225.668861,318.691242,225.597801,317.92312,225.66,317.16C225.720221,315.790765,226.000473,314.440154,226.49,313.16C226.92575,311.983285,227.539567,310.880439,228.31,309.89C228.994364,309.006698,229.839115,308.260331,230.8,307.69C231.639784,307.172993,232.603916,306.893084,233.59,306.88C233.985204,306.874825,234.373702,306.982355,234.71,307.19C235.049245,307.393403,235.344917,307.661887,235.58,307.98C235.819671,308.311205,236.017817,308.670554,236.17,309.05C236.318345,309.398027,236.432223,309.759757,236.51,310.13C236.68,309.43,236.84,308.75,236.98,308.07C237.12,307.39,237.27,306.76,237.42,306.16C237.66,305.27,237.91,304.31,238.17,303.27L239,300.21C239.31,299.05,239.66,297.84,240,296.57C240.207307,296.395383,240.43577,296.247554,240.68,296.13C240.879631,296.04073,241.087211,295.970421,241.3,295.92C241.494935,295.84648,241.701663,295.809201,241.91,295.81C242.129976,295.806877,242.349148,295.837224,242.56,295.9C242.779629,295.984811,242.956115,296.154094,243.05,296.37C243.206728,296.727531,243.298171,297.110237,243.32,297.5C243.370879,298.185724,243.370879,298.874276,243.32,299.56C243.250676,300.729287,243.063051,301.888541,242.76,303.02C242.41056,304.337544,241.98314,305.633161,241.48,306.9C240.95,308.23,240.34,309.57,239.66,310.9C239.001007,312.204307,238.273319,313.472754,237.48,314.7ZM235.35,315.17C235.45,314.71,235.54,314.25,235.62,313.8C235.7,313.35,235.81,312.87,235.93,312.39L235.8,312.46L235.67,312.53C235.41,312.66,235.23,312.65,235.13,312.53C235.025697,312.337089,234.977217,312.118929,234.99,311.9C234.99,311.75,234.99,311.49,234.99,311.12C234.965556,310.73051,234.898488,310.344874,234.79,309.97C234.690213,309.610972,234.52771,309.272424,234.31,308.97C234.104851,308.678094,233.766615,308.508976,233.41,308.52C232.752641,308.56524,232.140607,308.871257,231.71,309.37C231.088879,309.985122,230.544884,310.67351,230.09,311.42C229.57954,312.2343,229.153979,313.098827,228.82,314C228.514838,314.785523,228.322917,315.610445,228.25,316.45C228.138209,317.304387,228.288139,318.172589,228.68,318.94C228.967121,319.420903,229.490013,319.710975,230.05,319.7C230.564183,319.671034,231.059794,319.497743,231.48,319.2C232.020525,318.837899,232.526053,318.426111,232.99,317.97C233.472667,317.501387,233.929984,317.007351,234.36,316.49C234.74,315.93,235.08,315.5,235.35,315.17Z" fill="rgb(255,255,255)" stroke="none" stroke-width="1"/><path id="eK5gTLRhzMo21" d="M262.37,314.41C262.03,314.89,261.6,315.49,261.07,316.2C260.54,316.91,259.99,317.61,259.43,318.32C258.87,319.03,258.31,319.68,257.77,320.27C257.365133,320.736501,256.908913,321.155821,256.41,321.52C256.147838,321.671002,255.869391,321.791775,255.58,321.88C255.25343,321.97288,254.91846,322.033175,254.58,322.06C254.27203,322.08125,253.962601,322.06107,253.66,322C253.390417,321.94744,253.132799,321.845748,252.9,321.7C252.663476,321.50811,252.477987,321.260792,252.36,320.98C252.218609,320.639715,252.104907,320.288575,252.02,319.93C251.903394,319.398395,251.85966,318.853397,251.89,318.31C251.405836,319.165791,250.756626,319.916971,249.98,320.52C249.36757,320.988117,248.69485,321.371568,247.98,321.66C247.281564,321.915166,246.551423,322.073307,245.81,322.13C245.425574,322.118198,245.051859,322.000547,244.73,321.79C244.298527,321.530704,243.951244,321.152166,243.73,320.7C243.431205,320.104897,243.25763,319.454839,243.22,318.79C243.162045,317.850369,243.260036,316.907625,243.51,316C243.82791,314.590277,244.367989,313.240082,245.11,312C245.784805,310.881637,246.590486,309.84768,247.51,308.92C248.26266,308.152999,249.12548,307.502514,250.07,306.99C250.704885,306.610821,251.430503,306.410412,252.17,306.41C252.728955,306.500348,253.265344,306.697251,253.75,306.99C254.099505,307.245742,254.338954,307.624572,254.42,308.05C254.472745,308.724821,254.257137,309.393205,253.82,309.91C254.100534,309.847691,254.384301,309.800953,254.67,309.77C254.846484,309.758625,255.023516,309.758625,255.2,309.77C255.291933,309.747133,255.388067,309.747133,255.48,309.77C255.502334,309.868753,255.502334,309.971247,255.48,310.07C255.46289,310.355523,255.426136,310.639528,255.37,310.92C255.3,311.33,255.19,311.92,255.05,312.58C254.91,313.24,254.71,314.18,254.47,315.29C254.42,315.5,254.38,315.7,254.34,315.88L254.24,316.42C254.24,316.6,254.16,316.81,254.11,317.05C254.06,317.29,254,317.59,253.93,317.96C253.909544,318.192885,253.909544,318.427115,253.93,318.66C253.940517,318.89825,253.984273,319.133861,254.06,319.36C254.120827,319.565313,254.238739,319.749117,254.4,319.89C254.593353,320.031566,254.831115,320.098991,255.07,320.08C255.419572,320.03141,255.744964,319.873963,256,319.63C256.442429,319.282893,256.853966,318.898122,257.23,318.48C257.66,318.01,258.12,317.48,258.58,316.93C259.04,316.38,259.49,315.82,259.9,315.29L261,313.88C261.33,313.47,261.56,313.17,261.7,312.98C261.848269,312.795169,262.051337,312.662124,262.28,312.6C262.442991,312.551024,262.618668,312.616393,262.71,312.76C262.81681,312.959718,262.838446,313.194105,262.77,313.41C262.703129,313.766221,262.567246,314.105929,262.37,314.41ZM251.8,316C251.92,315.52,252.06,314.95,252.23,314.3C252.4,313.65,252.54,313.03,252.66,312.43C252.78,311.83,252.87,311.33,252.93,310.93C252.99,310.53,252.93,310.35,252.88,310.37C252.74407,310.396468,252.61035,310.433241,252.48,310.48C252.328349,310.535507,252.170533,310.572443,252.01,310.59C251.818422,310.613609,251.628174,310.646986,251.44,310.69C251.599412,310.391766,251.713977,310.071657,251.78,309.74C251.803705,309.540702,251.803705,309.339298,251.78,309.14C251.759893,309.000393,251.708627,308.8671,251.63,308.75C251.37,308.53,250.9,308.75,250.24,309.27C249.320546,310.185862,248.548102,311.238274,247.95,312.39C247.586515,313.020945,247.297896,313.692151,247.09,314.39C246.883226,315.04261,246.732677,315.711718,246.64,316.39C246.552656,316.935482,246.532505,317.489614,246.58,318.04C246.585235,318.368328,246.686007,318.688019,246.87,318.96C247.10205,319.208156,247.430509,319.343189,247.77,319.33C248.11988,319.311412,248.46134,319.215803,248.77,319.05C249.14452,318.851792,249.496558,318.613747,249.82,318.34C250.153797,318.065608,250.464814,317.764624,250.75,317.44C251.000744,317.167074,251.23135,316.876311,251.44,316.57C251.590342,316.400949,251.711954,316.208396,251.8,316Z" fill="rgb(255,255,255)" stroke="none" stroke-width="1"/><path id="eK5gTLRhzMo22" d="M269.44,308.31C269.721079,308.08691,270.030428,307.901973,270.36,307.76C270.618345,307.635855,270.890139,307.541902,271.17,307.48C271.427499,307.412269,271.694603,307.388602,271.96,307.41C272.61,307.41,273.01,307.67,273.17,308.03C273.337913,308.592332,273.355155,309.188909,273.22,309.76C273.118775,310.287435,272.974971,310.805798,272.79,311.31C272.57,311.93,272.32,312.7,272.03,313.6C271.74,314.5,271.44,315.53,271.11,316.68C270.78,317.83,270.48,319.14,270.19,320.58C269.9,321.76,269.59,323.12,269.26,324.65C268.97,326,268.62,327.65,268.26,329.52C267.9,331.39,267.43,333.6,266.98,336.05Q266.8,336.95,266.2,337.1C265.781651,337.19278,265.344159,337.139857,264.96,336.95C264.792064,336.860906,264.634448,336.753592,264.49,336.63L264.09,336.21C263.930018,336.025519,263.807716,335.81149,263.73,335.58Q264.55,332.58,265.19,330.06C265.61,328.41,265.99,326.96,266.33,325.74C266.69,324.32,267.03,323.04,267.33,321.91C267.45,321.41,267.56,320.91,267.67,320.42C267.78,319.93,267.89,319.42,268.01,318.96C267.702985,319.457752,267.36916,319.93846,267.01,320.4C266.66227,320.842758,266.262758,321.24227,265.82,321.59C265.399472,321.917303,264.930514,322.177086,264.43,322.36C263.941715,322.54152,263.416221,322.599908,262.9,322.53C261.811335,322.476788,260.801517,321.946267,260.14,321.08C259.568023,320.153426,259.321674,319.062449,259.44,317.98C259.466806,317.422055,259.537018,316.867044,259.65,316.32C259.78,315.72,259.91,315.14,260.05,314.59C260.19,314.04,260.33,313.59,260.47,313.09C260.61,312.59,260.7,312.33,260.77,312.14C261.021081,311.368261,261.231372,310.583843,261.4,309.79C261.553011,309.232537,261.442487,308.635704,261.1,308.17C261.39015,307.969443,261.711012,307.817455,262.05,307.72L262.86,307.52C263.126292,307.499997,263.393708,307.499997,263.66,307.52C264.31,307.62,264.66,307.86,264.79,308.24C264.890757,308.817872,264.849575,309.411573,264.67,309.97C264.57,310.38,264.42,310.91,264.2,311.54C263.98,312.17,263.75,312.84,263.51,313.54C263.27,314.24,263.06,314.83,262.86,315.4C262.712111,315.787854,262.60487,316.190008,262.54,316.6C262.334229,317.424015,262.334229,318.285985,262.54,319.11C262.696063,319.672176,263.228315,320.045171,263.81,320C264.178272,319.964886,264.527099,319.818379,264.81,319.58C265.244411,319.260033,265.640373,318.890916,265.99,318.48C266.410846,317.980377,266.801539,317.456114,267.16,316.91C267.54,316.32,267.9,315.73,268.22,315.13C268.54,314.53,268.83,313.94,269.09,313.36C269.313369,312.85734,269.500512,312.339353,269.65,311.81C269.81,310.92,269.92,310.22,269.97,309.72C270.019474,309.193517,269.824021,308.673538,269.44,308.31Z" fill="rgb(255,255,255)" stroke="none" stroke-width="1"/></g></g><g id="eK5gTLRhzMo23" transform="matrix(1 0 0 1 0 0.000001)"><g id="eK5gTLRhzMo24" transform="matrix(1 0 0 1 0 0.000001)"><polygon id="eK5gTLRhzMo25" points="230.84,215.55 201.71,159.35 171.4,193.78 230.84,215.55" transform="matrix(1 0 0 1 0.000002 0)" fill="rgb(206,0,0)" stroke="rgb(255,255,255)" stroke-width="4" stroke-miterlimit="10"/><polygon id="eK5gTLRhzMo26" points="229.61,215.55 258.75,159.35 289.06,193.78 229.61,215.55" transform="matrix(1 0 0 1 0.000001 0)" fill="rgb(206,0,0)" stroke="rgb(255,255,255)" stroke-width="4" stroke-miterlimit="10"/></g><rect id="eK5gTLRhzMo27" width="159.31" height="33.82" rx="0" ry="0" transform="matrix(1 0 0 1 152.75 213.28)" fill="rgb(36,36,36)" stroke="rgb(255,255,255)" stroke-width="4" stroke-miterlimit="10"/><rect id="eK5gTLRhzMo28" width="62.37" height="29.97" rx="0" ry="0" transform="matrix(1 0 0 1 201.12 215.205)" fill="rgb(206,0,0)" stroke="none" stroke-width="1"/></g></g></svg>