<svg id="s1" xmlns="http://www.w3.org/2000/svg" xmlns:xlink="http://www.w3.org/1999/xlink" viewBox="0 0 400 400"><defs><linearGradient id="s9-fill" x1="135.040000" y1="91.970000" x2="213.170000" y2="202.950000" spreadMethod="pad" gradientUnits="userSpaceOnUse"><stop id="s9-fill-0" offset="4%" stop-color="rgb(242,196,138)"/><stop id="s9-fill-1" offset="97%" stop-color="rgb(224,175,112)"/></linearGradient><linearGradient id="s11-fill" x1="186.380000" y1="124.300000" x2="230.310000" y2="259.450000" spreadMethod="pad" gradientUnits="userSpaceOnUse"><stop id="s11-fill-0" offset="4%" stop-color="rgb(247,211,168)"/><stop id="s11-fill-1" offset="48%" stop-color="rgb(247,202,148)"/></linearGradient><linearGradient id="s21-fill" x1="18.540000" y1="-3.980000" x2="36.360000" y2="24.340000" spreadMethod="pad" gradientUnits="userSpaceOnUse"><stop id="s21-fill-0" offset="7%" stop-color="rgb(95,210,217)"/><stop id="s21-fill-1" offset="40%" stop-color="rgb(81,184,204)"/><stop id="s21-fill-2" offset="81%" stop-color="rgb(65,163,181)"/></linearGradient><linearGradient id="s23-fill" x1="75.830000" y1="-25.290000" x2="143.830000" y2="149.710000" spreadMethod="pad" gradientUnits="userSpaceOnUse"><stop id="s23-fill-0" offset="0%" stop-color="rgb(159,96,180)"/><stop id="s23-fill-1" offset="36%" stop-color="rgb(133,88,166)"/><stop id="s23-fill-2" offset="80%" stop-color="rgb(95,47,120)"/></linearGradient><linearGradient id="s27-fill" x1="-10.880000" y1="-17.300000" x2="8.620000" y2="13.700000" spreadMethod="pad" gradientUnits="userSpaceOnUse"><stop id="s27-fill-0" offset="7%" stop-color="rgb(95,210,217)"/><stop id="s27-fill-1" offset="40%" stop-color="rgb(81,184,204)"/><stop id="s27-fill-2" offset="81%" stop-color="rgb(65,163,181)"/></linearGradient></defs><g id="s3"><g id="s5"><path id="s7" d="M267.790000,117.420000L134.190000,117.420000C124.734885,117.420000,117.070000,125.084885,117.070000,134.540000C117.070000,143.995115,124.734885,151.660000,134.190000,151.660000L134.190000,261.090000L267.760000,261.090000L267.760000,151.660000C277.215115,151.660000,284.880000,143.995115,284.880000,134.540000C284.880000,125.084885,277.215115,117.420000,267.760000,117.420000Z" fill="rgb(255,211,92)" stroke="none" stroke-width="1"/><path id="s9" d="M122.620000,268.700000L122.620000,160.880000C111.260285,155.786647,104.418789,144.011225,105.620000,131.620000C107.080000,117.150000,120,105.810000,135.010000,105.810000L267,105.810000C282,105.810000,294.930000,117.150000,296.390000,131.620000C297.638153,143.938276,290.862484,155.672833,279.570000,160.750000L279.450000,160.750000L279.450000,160.750000L279.450000,268.670000C279.450000,270.879139,277.659139,272.670000,275.450000,272.670000L126.620000,272.670000C124.422524,272.670062,122.636481,270.897414,122.620000,268.700000Z" fill="url(#s9-fill)" stroke="none" stroke-width="1"/><path id="s11" d="M267.310000,117.420000L134.670000,117.420000C125.920000,117.420000,118.230000,123.790000,117.200000,132.480000C116.312870,139.925134,120.362123,147.084214,127.200000,150.160000C131.353808,151.882276,134.099169,155.894425,134.200000,160.390000L134.200000,259.090000C134.200000,260.194569,135.095431,261.090000,136.200000,261.090000L265.760000,261.090000C266.864569,261.090000,267.760000,260.194569,267.760000,259.090000L267.760000,160.390000C267.863392,155.895250,270.607888,151.884365,274.760000,150.160000C281.597877,147.084214,285.647130,139.925134,284.760000,132.480000C283.750000,123.790000,276.060000,117.420000,267.310000,117.420000Z" fill="url(#s11-fill)" stroke="none" stroke-width="1"/></g><g id="s13"><g id="s15"><rect id="s17" width="24.760000" height="35.830000" rx="7.960000" ry="7.960000" transform="translate(110.020000,310.480000)" fill="rgb(64,57,69)" stroke="none" stroke-width="1"/><rect id="s19" width="24.760000" height="35.830000" rx="7.960000" ry="7.960000" transform="translate(267.190000,310.480000)" fill="rgb(64,57,69)" stroke="none" stroke-width="1"/></g><rect id="s21" width="56.990000" height="23.650000" rx="9.440000" ry="9.440000" transform="translate(62.420000,202.700000)" fill="url(#s21-fill)" stroke="none" stroke-width="1"/><rect id="s23" width="233.190000" height="159.230000" rx="20.010000" ry="20.010000" transform="translate(84.400000,169.400000)" fill="url(#s23-fill)" stroke="none" stroke-width="1"/><g id="s25"><circle id="s27" r="23.630000" transform="translate(258.040000,282.630000)" fill="url(#s27-fill)" stroke="none" stroke-width="1"/><line id="s29" x1="258.100000" y1="269.150000" x2="258.100000" y2="280.710000" fill="none" stroke="rgb(69,145,168)" stroke-width="10" stroke-linecap="round" stroke-miterlimit="10"/></g><line id="s31" x1="258.100000" y1="238.170000" x2="258.100000" y2="249.720000" fill="none" stroke="rgb(152,111,186)" stroke-width="10" stroke-linecap="round" stroke-miterlimit="10"/><line id="s33" x1="219.570000" y1="260.350000" x2="229.580000" y2="266.130000" fill="none" stroke="rgb(152,111,186)" stroke-width="10" stroke-linecap="round" stroke-miterlimit="10"/><line id="s35" x1="296.520000" y1="260.350000" x2="286.510000" y2="266.130000" fill="none" stroke="rgb(152,111,186)" stroke-width="10" stroke-linecap="round" stroke-miterlimit="10"/><line id="s37" x1="110.020000" y1="302.560000" x2="176.920000" y2="302.560000" fill="none" stroke="rgb(152,111,186)" stroke-width="10" stroke-linecap="round" stroke-miterlimit="10"/><line id="s39" x1="110.020000" y1="281.600000" x2="176.920000" y2="281.600000" fill="none" stroke="rgb(152,111,186)" stroke-width="10" stroke-linecap="round" stroke-miterlimit="10"/><line id="s41" x1="110.020000" y1="260.640000" x2="176.920000" y2="260.640000" fill="none" stroke="rgb(152,111,186)" stroke-width="10" stroke-linecap="round" stroke-miterlimit="10"/></g></g></svg>