<svg id="s1" xmlns="http://www.w3.org/2000/svg" xmlns:xlink="http://www.w3.org/1999/xlink" viewBox="0 0 400 400"><defs><linearGradient id="s7-fill" x1="224.253502" y1="63.841898" x2="240.201302" y2="87.527597" spreadMethod="pad" gradientUnits="userSpaceOnUse"><stop id="s7-fill-0" offset="60%" stop-color="rgb(225,219,203)"/><stop id="s7-fill-1" offset="100%" stop-color="rgb(195,189,176)"/></linearGradient><linearGradient id="s9-fill" x1="265.440000" y1="232.870000" x2="117.380000" y2="232.870000" spreadMethod="pad" gradientUnits="userSpaceOnUse"><stop id="s9-fill-0" offset="26%" stop-color="rgb(179,173,161)"/><stop id="s9-fill-1" offset="65%" stop-color="rgb(235,227,211)"/><stop id="s9-fill-2" offset="100%" stop-color="rgb(195,189,176)"/></linearGradient><linearGradient id="s11-fill" x1="70.490000" y1="-3.210000" x2="70.490000" y2="10.520000" spreadMethod="pad" gradientUnits="userSpaceOnUse"><stop id="s11-fill-0" offset="60%" stop-color="rgb(225,219,203)"/><stop id="s11-fill-1" offset="100%" stop-color="rgb(195,189,176)"/></linearGradient><linearGradient id="s13-fill" x1="135.730000" y1="227.260000" x2="308.760000" y2="246.060000" spreadMethod="pad" gradientUnits="userSpaceOnUse"><stop id="s13-fill-0" offset="3%" stop-color="rgb(160,209,44)"/><stop id="s13-fill-1" offset="84%" stop-color="rgb(91,140,24)"/></linearGradient><linearGradient id="s17-fill" x1="-43.570000" y1="-8.640000" x2="46.410000" y2="9.190000" spreadMethod="pad" gradientUnits="userSpaceOnUse"><stop id="s17-fill-0" offset="25%" stop-color="rgb(252,232,179)"/><stop id="s17-fill-1" offset="69%" stop-color="rgb(252,222,142)"/></linearGradient><linearGradient id="s19-fill" x1="-19.550000" y1="-3.870000" x2="20.820000" y2="4.130000" spreadMethod="pad" gradientUnits="userSpaceOnUse"><stop id="s19-fill-0" offset="25%" stop-color="rgb(252,232,179)"/><stop id="s19-fill-1" offset="69%" stop-color="rgb(252,222,142)"/></linearGradient><linearGradient id="s21-fill" x1="-9.630000" y1="-1.910000" x2="10.250000" y2="2.030000" spreadMethod="pad" gradientUnits="userSpaceOnUse"><stop id="s21-fill-0" offset="25%" stop-color="rgb(252,232,179)"/><stop id="s21-fill-1" offset="69%" stop-color="rgb(252,222,142)"/></linearGradient></defs><g id="s3"><g id="s5"><path id="s7" d="M243.920000,57.660000C238.803701,54.139814,231.805472,55.408160,228.250000,60.500000L217.250000,76.410000C214.958141,79.716493,214.604369,83.994511,216.321947,87.632565C218.039525,91.270620,221.567511,93.716004,225.576947,94.047565C229.586383,94.379127,233.468141,92.546493,235.760000,89.240000L246.760000,73.330000C250.280186,68.213701,249.011840,61.215472,243.920000,57.660000ZM231.570000,86.340000C229.540122,88.867025,225.904545,89.400205,223.234545,87.562447C220.564544,85.724688,219.764393,82.138401,221.400000,79.340000L224.620000,74.690000L234.790000,81.690000ZM239.790000,74.480000L229.620000,67.480000L232.420000,63.480000C234.449878,60.952975,238.085455,60.419795,240.755455,62.257553C243.425456,64.095312,244.225607,67.681599,242.590000,70.480000Z" fill="url(#s7-fill)" stroke="none" stroke-width="1"/><path id="s9" d="M272.940000,111.580000L263.110000,98.090000L136.890000,98.090000L127.060000,111.580000C121.380134,119.372737,118.319911,128.766991,118.320000,138.410000L118.320000,334.520000C118.371994,338.489031,120.506298,342.138617,123.940000,344.130000C129.625223,347.656483,133.925479,353.030038,136.120000,359.350000C137.133167,362.328555,139.773917,364.455177,142.900000,364.810000C159.750000,366.810000,179.230000,367.660000,200,367.660000C220.770000,367.660000,240.250000,366.820000,257.100000,364.810000C260.226083,364.455177,262.866833,362.328555,263.880000,359.350000C266.073798,353.029639,270.374229,347.655865,276.060000,344.130000C279.493702,342.138617,281.628006,338.489031,281.680000,334.520000L281.680000,138.400000C281.677972,128.760408,278.617853,119.369975,272.940000,111.580000Z" fill="url(#s9-fill)" stroke="none" stroke-width="1"/><rect id="s11" width="140.970000" height="14.100000" rx="7.050000" ry="7.050000" transform="translate(129.100000,83.990000)" fill="url(#s11-fill)" stroke="none" stroke-width="1"/></g><path id="s13" d="M118.320000,138.400000L118.320000,334.520000C118.330333,337.553844,119.593222,340.448717,121.810000,342.520000C147.657847,346.731392,173.811650,348.781818,200,348.650000C226.189462,348.768549,252.343268,346.704743,278.190000,342.480000C280.406778,340.408717,281.669667,337.513844,281.680000,334.480000L281.680000,138.400000C281.675535,133.997089,281.032164,129.618126,279.770000,125.400000L120.240000,125.400000C118.974450,129.617627,118.327710,133.996600,118.320000,138.400000Z" fill="url(#s13-fill)" stroke="none" stroke-width="1"/><g id="s15"><circle id="s17" r="45.330000" transform="translate(203.430000,272.660000)" fill="url(#s17-fill)" stroke="none" stroke-width="1"/><circle id="s19" r="20.340000" transform="translate(163.490000,191.610000)" fill="url(#s19-fill)" stroke="none" stroke-width="1"/><circle id="s21" r="10.020000" transform="translate(215.230000,153.790000)" fill="url(#s21-fill)" stroke="none" stroke-width="1"/></g></g></svg>