<svg id="s1" xmlns="http://www.w3.org/2000/svg" xmlns:xlink="http://www.w3.org/1999/xlink" viewBox="0 0 400 400"><defs><linearGradient id="s7-fill" x1="-68.990000" y1="0" x2="68.990000" y2="0" spreadMethod="pad" gradientUnits="userSpaceOnUse"><stop id="s7-fill-0" offset="9%" stop-color="rgb(235,182,66)"/><stop id="s7-fill-1" offset="43%" stop-color="rgb(255,162,46)"/><stop id="s7-fill-2" offset="82%" stop-color="rgb(235,139,42)"/></linearGradient><linearGradient id="s9-fill" x1="-58.840000" y1="0" x2="58.840000" y2="0" spreadMethod="pad" gradientUnits="userSpaceOnUse"><stop id="s9-fill-0" offset="4%" stop-color="rgb(255,215,107)"/><stop id="s9-fill-1" offset="92%" stop-color="rgb(255,205,70)"/></linearGradient><linearGradient id="s11-fill" x1="246.450000" y1="79.580000" x2="297.950000" y2="163.080000" spreadMethod="pad" gradientUnits="userSpaceOnUse"><stop id="s11-fill-0" offset="6%" stop-color="rgb(250,165,59)"/><stop id="s11-fill-1" offset="61%" stop-color="rgb(235,149,42)"/></linearGradient><linearGradient id="s13-fill" x1="210.100000" y1="102" x2="261.600000" y2="185.500000" spreadMethod="pad" gradientUnits="userSpaceOnUse"><stop id="s13-fill-0" offset="6%" stop-color="rgb(250,165,59)"/><stop id="s13-fill-1" offset="61%" stop-color="rgb(235,149,42)"/></linearGradient><linearGradient id="s15-fill" x1="202.450000" y1="106.720000" x2="253.950000" y2="190.220000" spreadMethod="pad" gradientUnits="userSpaceOnUse"><stop id="s15-fill-0" offset="6%" stop-color="rgb(250,165,59)"/><stop id="s15-fill-1" offset="61%" stop-color="rgb(235,149,42)"/></linearGradient><linearGradient id="s17-fill" x1="208.660000" y1="102.880000" x2="260.160000" y2="186.380000" spreadMethod="pad" gradientUnits="userSpaceOnUse"><stop id="s17-fill-0" offset="6%" stop-color="rgb(250,165,59)"/><stop id="s17-fill-1" offset="61%" stop-color="rgb(235,149,42)"/></linearGradient><linearGradient id="s19-fill" x1="245.010000" y1="80.470000" x2="296.510000" y2="163.970000" spreadMethod="pad" gradientUnits="userSpaceOnUse"><stop id="s19-fill-0" offset="6%" stop-color="rgb(250,165,59)"/><stop id="s19-fill-1" offset="61%" stop-color="rgb(235,149,42)"/></linearGradient><linearGradient id="s21-fill" x1="252.660000" y1="75.750000" x2="304.160000" y2="159.250000" spreadMethod="pad" gradientUnits="userSpaceOnUse"><stop id="s21-fill-0" offset="6%" stop-color="rgb(250,165,59)"/><stop id="s21-fill-1" offset="61%" stop-color="rgb(235,149,42)"/></linearGradient><linearGradient id="s25-fill" x1="146.310000" y1="161.350000" x2="210.310000" y2="288.350000" spreadMethod="pad" gradientUnits="userSpaceOnUse"><stop id="s25-fill-0" offset="9%" stop-color="rgb(194,239,255)"/><stop id="s25-fill-1" offset="30%" stop-color="rgb(176,234,255)"/><stop id="s25-fill-2" offset="80%" stop-color="rgb(155,218,242)"/></linearGradient><linearGradient id="s27-fill" x1="129.630000" y1="273.340000" x2="237.620000" y2="273.340000" spreadMethod="pad" gradientUnits="userSpaceOnUse"><stop id="s27-fill-0" offset="14%" stop-color="rgb(235,156,61)"/><stop id="s27-fill-1" offset="82%" stop-color="rgb(235,139,42)"/></linearGradient><linearGradient id="s29-fill" x1="55.290000" y1="-3.470000" x2="63.290000" y2="31.200000" spreadMethod="pad" gradientUnits="userSpaceOnUse"><stop id="s29-fill-0" offset="4%" stop-color="rgb(132,197,220)"/><stop id="s29-fill-1" offset="59%" stop-color="rgb(107,177,201)"/></linearGradient></defs><g id="s3"><g id="s5"><circle id="s7" r="68.990000" transform="translate(257.010000,138.990000)" fill="url(#s7-fill)" stroke="none" stroke-width="1"/><circle id="s9" r="58.840000" transform="translate(257.010000,138.990000)" fill="url(#s9-fill)" stroke="none" stroke-width="1"/><path id="s11" d="M257,128.540000C255.685362,128.556442,254.466312,127.854913,253.820000,126.710000L237,97.590000C236.398137,96.578723,236.338173,95.334467,236.840000,94.270000C237.353584,93.141417,238.389284,92.337535,239.610000,92.120000C251.084289,89.907193,262.875711,89.907193,274.350000,92.120000C275.570716,92.337535,276.606416,93.141417,277.120000,94.270000C277.623620,95.334109,277.563613,96.579251,276.960000,97.590000L260.160000,126.700000C259.519759,127.842455,258.309604,128.547103,257,128.540000Z" fill="url(#s11-fill)" stroke="none" stroke-width="1"/><path id="s13" d="M211.170000,135.600000C209.978625,135.627385,208.852564,135.056848,208.170000,134.080000C207.447955,133.069319,207.268520,131.768409,207.690000,130.600000C211.524829,119.564708,217.419115,109.357447,225.060000,100.520000C225.781999,99.667846,226.843110,99.177540,227.960000,99.180000C229.262002,99.161848,230.470035,99.855988,231.110000,100.990000L248,130.090000C248.653176,131.225453,248.651641,132.622965,247.995974,133.756981C247.340307,134.890997,246.129920,135.589574,244.820000,135.590000Z" fill="url(#s13-fill)" stroke="none" stroke-width="1"/><path id="s15" d="M228,178.810000C226.881485,178.809975,225.820100,178.315881,225.100000,177.460000C217.459115,168.622553,211.564829,158.415292,207.730000,147.380000C207.308520,146.211591,207.487955,144.910681,208.210000,143.900000C208.890120,142.920341,210.017803,142.348981,211.210000,142.380000L244.820000,142.380000C246.129920,142.380426,247.340307,143.079003,247.995974,144.213019C248.651641,145.347035,248.653176,146.744547,248,147.880000L231.150000,177C230.511048,178.136288,229.303540,178.833960,228,178.820000Z" fill="url(#s15-fill)" stroke="none" stroke-width="1"/><path id="s17" d="M257,187.520000C251.170685,187.514042,245.354928,186.958247,239.630000,185.860000C238.409284,185.642465,237.373584,184.838583,236.860000,183.710000C236.358173,182.645533,236.418137,181.401277,237.020000,180.390000L253.820000,151.280000C254.476443,150.147726,255.686199,149.450727,256.995000,149.450727C258.303801,149.450727,259.513557,150.147726,260.170000,151.280000L277,180.390000C277.603613,181.400749,277.663620,182.645891,277.160000,183.710000C276.646416,184.838583,275.610716,185.642465,274.390000,185.860000C268.658510,186.959500,262.835997,187.515301,257,187.520000Z" fill="url(#s17-fill)" stroke="none" stroke-width="1"/><path id="s19" d="M286,178.810000C284.696460,178.823960,283.488952,178.126288,282.850000,176.990000L266.050000,147.880000C265.391039,146.746928,265.388311,145.347975,266.042849,144.212342C266.697386,143.076709,267.909246,142.377799,269.220000,142.380000L302.830000,142.380000C304.022197,142.348981,305.149880,142.920341,305.830000,143.900000C306.550400,144.911335,306.729720,146.211407,306.310000,147.380000C302.476500,158.415900,296.582076,168.623401,288.940000,177.460000C288.223007,178.314324,287.165323,178.808398,286.050000,178.810000Z" fill="url(#s19-fill)" stroke="none" stroke-width="1"/><path id="s21" d="M269.240000,135.600000C267.931866,135.596013,266.724745,134.896030,266.071514,133.762664C265.418283,132.629297,265.417706,131.233906,266.070000,130.100000L282.870000,101C283.501286,99.864599,284.700919,99.163216,286,99.170000C287.117190,99.166165,288.178853,99.656726,288.900000,100.510000C296.542473,109.346317,302.436944,119.553897,306.270000,130.590000C306.691480,131.758409,306.512045,133.059319,305.790000,134.070000C305.107436,135.046848,303.981375,135.617385,302.790000,135.590000Z" fill="url(#s21-fill)" stroke="none" stroke-width="1"/></g><g id="s23"><path id="s25" d="M110.290000,145.710000L110.290000,319.710000C110.361361,335.323981,123.015917,347.956211,138.630000,348L228.630000,348C244.267447,347.972585,256.945001,335.317375,257,319.680000L257,145.680000C257,144.255788,256.434234,142.889907,255.427163,141.882837C254.420093,140.875766,253.054213,140.310000,251.630000,140.310000L115.670000,140.310000C114.238842,140.307313,112.865818,140.876019,111.855714,141.889878C110.845610,142.903738,110.282002,144.278862,110.290000,145.710000Z" fill="url(#s25-fill)" stroke="none" stroke-width="1"/><path id="s27" d="M129.630000,221.500000L129.630000,302.620000C129.630000,309.531541,132.375599,316.160004,137.262797,321.047202C142.149995,325.934401,148.778458,328.680000,155.690000,328.680000L211.560000,328.680000C218.471542,328.680000,225.100005,325.934401,229.987203,321.047203C234.874401,316.160005,237.620000,309.531542,237.620000,302.620000L237.620000,221.500000C237.620000,220.574394,237.252305,219.686699,236.597803,219.032197C235.943301,218.377695,235.055606,218.010000,234.130000,218.010000L133.130000,218.010000C132.202663,218.007343,131.312397,218.373865,130.655730,219.028655C129.999064,219.683445,129.629996,220.572659,129.630000,221.500000Z" fill="url(#s27-fill)" stroke="none" stroke-width="1"/><rect id="s29" width="115.110000" height="12.740000" rx="5.850000" ry="5.850000" transform="translate(126.070000,347.260000)" fill="url(#s29-fill)" stroke="none" stroke-width="1"/><circle id="s31" r="9.720000" transform="translate(167.830000,243.970000)" fill="rgb(255,205,70)" stroke="none" stroke-width="1"/><circle id="s33" r="6.420000" transform="translate(154.620000,279.080000)" fill="rgb(255,205,70)" stroke="none" stroke-width="1"/><circle id="s35" r="9.720000" transform="translate(192.010000,302.120000)" fill="rgb(255,205,70)" stroke="none" stroke-width="1"/></g></g></svg>