<svg id="s1" xmlns="http://www.w3.org/2000/svg" xmlns:xlink="http://www.w3.org/1999/xlink" viewBox="0 0 400 400"><defs><linearGradient id="s5-fill" x1="223.270000" y1="290.130000" x2="304.130000" y2="347.480000" spreadMethod="pad" gradientUnits="userSpaceOnUse"><stop id="s5-fill-0" offset="23%" stop-color="rgb(247,211,168)"/><stop id="s5-fill-1" offset="62%" stop-color="rgb(232,185,129)"/><stop id="s5-fill-2" offset="98%" stop-color="rgb(204,157,102)"/></linearGradient><linearGradient id="s9-fill" x1="304.430000" y1="282.830000" x2="120.170000" y2="113.860000" spreadMethod="pad" gradientUnits="userSpaceOnUse"><stop id="s9-fill-0" offset="5%" stop-color="rgb(184,95,57)"/><stop id="s9-fill-1" offset="57%" stop-color="rgb(224,107,58)"/><stop id="s9-fill-2" offset="100%" stop-color="rgb(255,153,66)"/></linearGradient></defs><g id="s3"><path id="s5" d="M270.710000,285.160000L270.710000,285.160000C268.138411,286.513901,264.956168,285.535093,263.590000,282.970000L238.320000,235.200000L202.380000,254.200000L227.600000,302C228.952369,304.574227,227.968812,307.757374,225.400000,309.120000L225.400000,309.120000C214.663989,314.800824,209.042878,326.951326,211.664016,338.811484C214.285153,350.671641,224.503244,359.321623,236.633379,359.948947C248.763513,360.576272,259.819394,353.026498,263.650000,341.500000C265.370585,336.408434,270.774047,333.552947,275.950000,335C287.633295,338.323591,300.097733,333.436227,306.408171,323.057209C312.718610,312.678191,311.321362,299.362929,302.993849,290.519956C294.666335,281.676983,281.458866,279.483522,270.720000,285.160000Z" fill="url(#s5-fill)" stroke="none" stroke-width="1"/><g id="s7"><path id="s9" d="M136.350000,88.640000C92.903412,111.621937,76.311568,165.471558,99.290000,208.920000C126.940000,261.200000,180.820000,238.860000,201.210000,277.410000L201.210000,277.410000C201.430000,277.870000,201.650000,278.320000,201.890000,278.780000C208.440000,291.160000,221.370000,297.150000,230.790000,292.180000C238.790000,287.950000,241.660000,277.180000,238.340000,266.450000C242.340000,269.110000,247.230000,269.700000,251.340000,267.530000C257.660000,264.190000,259.660000,255.530000,255.810000,248.300000C255.740000,248.170000,255.660000,248.040000,255.580000,247.910000C236,209.630000,284.130000,177.720000,256.580000,125.720000C233.606106,82.295322,179.791808,65.698514,136.350000,88.640000Z" fill="url(#s9-fill)" stroke="none" stroke-width="1"/><path id="s11" d="M248.080000,142.190000C251.819822,147.750787,252.511325,154.819898,249.920000,161" fill="none" stroke="rgb(247,152,55)" stroke-width="5" stroke-linecap="round" stroke-miterlimit="10"/><path id="s13" d="M246.570000,175.750000C247.927506,180.043721,247.028860,184.732470,244.180000,188.220000" fill="none" stroke="rgb(247,152,55)" stroke-width="5" stroke-linecap="round" stroke-miterlimit="10"/><path id="s15" d="M106.300000,151.610000C106.051761,150.149798,105.927983,148.671151,105.930000,147.190000C105.922053,141.575516,107.740142,136.110719,111.110000,131.620000" fill="none" stroke="rgb(255,175,94)" stroke-width="5" stroke-linecap="round" stroke-miterlimit="10"/></g></g></svg>