<svg id="eGHtvQ5qDY71" xmlns="http://www.w3.org/2000/svg" xmlns:xlink="http://www.w3.org/1999/xlink" viewBox="0 0 128 128" shape-rendering="geometricPrecision" text-rendering="geometricPrecision"><style><![CDATA[#eGHtvQ5qDY73 {animation: eGHtvQ5qDY73_s_do 2000ms linear infinite normal forwards}@keyframes eGHtvQ5qDY73_s_do { 0% {stroke-dashoffset: 304} 100% {stroke-dashoffset: 112}} #eGHtvQ5qDY74_to {animation: eGHtvQ5qDY74_to__to 2000ms linear infinite normal forwards}@keyframes eGHtvQ5qDY74_to__to { 0% {transform: translate(62px,92px)} 25% {transform: translate(63px,92px)} 50% {transform: translate(62px,92px)} 75% {transform: translate(63px,92px)} 100% {transform: translate(62px,92px)}} #eGHtvQ5qDY74_ts {animation: eGHtvQ5qDY74_ts__ts 2000ms linear infinite normal forwards}@keyframes eGHtvQ5qDY74_ts__ts { 0% {transform: scale(1,1);animation-timing-function: cubic-bezier(0,0,0.58,1)} 12.5% {transform: scale(1,1.023079);animation-timing-function: cubic-bezier(0.42,0,0.58,1)} 37.5% {transform: scale(1,0.967894);animation-timing-function: cubic-bezier(0.42,0,1,1)} 50% {transform: scale(1,1);animation-timing-function: cubic-bezier(0,0,0.58,1)} 62.5% {transform: scale(1,1.023079);animation-timing-function: cubic-bezier(0.42,0,0.58,1)} 87.5% {transform: scale(1,0.967894);animation-timing-function: cubic-bezier(0.42,0,1,1)} 100% {transform: scale(1,1)}} #eGHtvQ5qDY75_to {animation: eGHtvQ5qDY75_to__to 2000ms linear infinite normal forwards}@keyframes eGHtvQ5qDY75_to__to { 0% {transform: translate(62.069927px,65px);animation-timing-function: cubic-bezier(0.42,0,0.58,1)} 25% {transform: translate(62px,64px);animation-timing-function: cubic-bezier(0.42,0,0.58,1)} 50% {transform: translate(62.069927px,65px);animation-timing-function: cubic-bezier(0.42,0,0.58,1)} 75% {transform: translate(62px,64px);animation-timing-function: cubic-bezier(0.42,0,0.58,1)} 100% {transform: translate(62.069927px,65px)}} #eGHtvQ5qDY79_to {animation: eGHtvQ5qDY79_to__to 2000ms linear infinite normal forwards}@keyframes eGHtvQ5qDY79_to__to { 0% {transform: translate(32.845px,68px);animation-timing-function: cubic-bezier(0.42,0,0.58,1)} 25% {transform: translate(36.845px,69px);animation-timing-function: cubic-bezier(0.42,0,0.58,1)} 50% {transform: translate(32.845px,69px);animation-timing-function: cubic-bezier(0.42,0,0.58,1)} 75% {transform: translate(36.845px,69px);animation-timing-function: cubic-bezier(0.42,0,0.58,1)} 100% {transform: translate(32.845px,68px)}} #eGHtvQ5qDY710_to {animation: eGHtvQ5qDY710_to__to 2000ms linear infinite normal forwards}@keyframes eGHtvQ5qDY710_to__to { 0% {transform: translate(32.845px,60px);animation-timing-function: cubic-bezier(0.42,0,0.58,1)} 25% {transform: translate(30.845px,61px);animation-timing-function: cubic-bezier(0.42,0,0.58,1)} 50% {transform: translate(32.845px,61px);animation-timing-function: cubic-bezier(0.42,0,0.58,1)} 75% {transform: translate(30.845px,61px);animation-timing-function: cubic-bezier(0.42,0,0.58,1)} 100% {transform: translate(32.845px,60px)}} #eGHtvQ5qDY711_to {animation: eGHtvQ5qDY711_to__to 2000ms linear infinite normal forwards}@keyframes eGHtvQ5qDY711_to__to { 0% {transform: translate(28.845px,52px);animation-timing-function: cubic-bezier(0.42,0,0.58,1)} 25% {transform: translate(30.845px,53px);animation-timing-function: cubic-bezier(0.42,0,0.58,1)} 50% {transform: translate(28.845px,53px);animation-timing-function: cubic-bezier(0.42,0,0.58,1)} 75% {transform: translate(30.845px,53px);animation-timing-function: cubic-bezier(0.42,0,0.58,1)} 100% {transform: translate(28.845px,52px)}}]]></style><g id="eGHtvQ5qDY72"><line id="eGHtvQ5qDY73" x1="94" y1="92" x2="30" y2="92" fill="none" stroke="rgb(84,131,204)" stroke-width="4" stroke-linecap="round" stroke-linejoin="round" stroke-dashoffset="304" stroke-dasharray="40,8,1,8,31,8"/><g id="eGHtvQ5qDY74_to" transform="translate(62,92)"><g id="eGHtvQ5qDY74_ts" transform="scale(1,1)"><g id="eGHtvQ5qDY74" transform="translate(-62,-92)"><g id="eGHtvQ5qDY75_to" transform="translate(62.069927,65)"><g id="eGHtvQ5qDY75" transform="translate(-62,-64)"><path id="eGHtvQ5qDY76" d="M73,73L33,73L33,80C33,82.209139,34.790861,84,37,84L42.81,84C43.883393,82.149587,45.860794,81.010631,48,81.010631C50.139206,81.010631,52.116607,82.149587,53.19,84L75.81,84C76.883393,82.149587,78.860794,81.010631,81,81.010631C83.139206,81.010631,85.116607,82.149587,86.19,84L91,84C93.209139,84,95,82.209139,95,80L95,74L95,74C95.000789,73.377659,94.853392,72.764074,94.57,72.21L86.57,58.21C85.893356,56.85779,84.512056,56.002699,83,56L73,56Z" fill="rgb(169,193,229)" stroke="none" stroke-width="2" stroke-linecap="round" stroke-linejoin="round"/><path id="eGHtvQ5qDY77" d="M29,70L29,50C29,47.790861,30.790861,46,33,46L69,46C71.209139,46,73,47.790861,73,50L73,74L33,74C30.790861,74,29,72.209139,29,70Z" fill="rgb(84,131,204)" stroke="none" stroke-width="2" stroke-linecap="round" stroke-linejoin="round"/><path id="eGHtvQ5qDY78" d="M79,57C81.436203,57,82.245156,56.42258,83.988119,59.095124Q85.731082,61.767668,91,71L80.69,71L79,57Z" transform="matrix(1 0 0 1 0 2)" fill="rgb(84,131,204)" stroke="none" stroke-width="4" stroke-linecap="round" stroke-linejoin="round"/></g></g><g id="eGHtvQ5qDY79_to" transform="translate(32.845,68)"><path id="eGHtvQ5qDY79" d="M77,69L61,69" transform="translate(-72.845,-69)" fill="none" stroke="rgb(169,193,229)" stroke-width="3" stroke-linecap="round" stroke-linejoin="round"/></g><g id="eGHtvQ5qDY710_to" transform="translate(32.845,60)"><path id="eGHtvQ5qDY710" d="M85,70L69,70" transform="translate(-72.845,-69)" fill="none" stroke="rgb(169,193,229)" stroke-width="3" stroke-linecap="round" stroke-linejoin="round"/></g><g id="eGHtvQ5qDY711_to" transform="translate(28.845,52)"><path id="eGHtvQ5qDY711" d="M77,71L61,71" transform="translate(-68.845,-69)" fill="none" stroke="rgb(169,193,229)" stroke-width="3" stroke-linecap="round" stroke-linejoin="round"/></g><circle id="eGHtvQ5qDY712" r="6" transform="matrix(1 0 0 1 47 86)" fill="rgb(84,131,204)" stroke="rgb(84,131,204)" stroke-width="3" stroke-linecap="round" stroke-linejoin="round"/><circle id="eGHtvQ5qDY713" r="6" transform="matrix(1 0 0 1 81 86)" fill="rgb(84,131,204)" stroke="rgb(84,131,204)" stroke-width="3" stroke-linecap="round" stroke-linejoin="round"/></g></g></g></g></svg>