<svg id="eijmCZ5RBcs1" xmlns="http://www.w3.org/2000/svg" xmlns:xlink="http://www.w3.org/1999/xlink" viewBox="0 0 128 128" shape-rendering="geometricPrecision" text-rendering="geometricPrecision"><g id="eijmCZ5RBcs2"><path id="eijmCZ5RBcs3" d="M41,59C41,59,41,83,41,83C41,85.209139,42.790861,87,45,87L83,87C85.209139,87,87,85.209139,87,83C87,83,87,59,87,59L41,59Z" transform="matrix(1 0 0 1 0 1)" fill="rgb(255,169,193)" stroke="rgb(255,84,132)" stroke-width="4" stroke-miterlimit="10"/><path id="eijmCZ5RBcs4" d="M62,62L62,85C62,86.104569,62.895431,87,64,87C65.104569,87,66,86.104569,66,85L66,62Z" transform="matrix(1 0 0 1 0 1)" fill="none" fill-opacity="0.5" stroke="rgb(255,84,132)" stroke-width="4" stroke-miterlimit="10"/><g id="eijmCZ5RBcs5" transform="matrix(1 0 0 1 0 0.000001)"><path id="eijmCZ5RBcs6" d="M87,48.125001C87,48.125001,41,48.125001,41,48.125001C38.790861,48.125001,37,49.915862,37,52.125001L37,60C37,60,91,60,91,60L91,52.125001C91,49.915862,89.209139,48.125001,87,48.125001Z" transform="matrix(1 0 0 1 0 1)" fill="rgb(255,169,193)" stroke="rgb(255,84,132)" stroke-width="4" stroke-linejoin="round"/><g id="eijmCZ5RBcs7" transform="matrix(1 0 0 1 0 0.000001)"><path id="eijmCZ5RBcs8" d="M82.954001,39.339304C82.034001,35.339304,77.024001,34.059304,73.604001,36.269304C69.684001,38.809304,66.344001,42.959304,65.954001,50.339304C69.164001,47.659304,74.104001,47.919304,77.954001,47.079304C81.360332,46.165203,83.521152,42.820254,82.954001,39.339304Z" transform="matrix(1 0 0 1 0 1)" fill="none" stroke="rgb(255,84,132)" stroke-width="4" stroke-linejoin="round"/><path id="eijmCZ5RBcs9" d="M54.35,36.451124C50.93,34.241124,45.92,35.521124,45,39.521124C44.432849,43.002074,46.593669,46.347023,50,47.261124C53.89,48.101124,58.83,47.841124,62,50.521124C61.61,43.141124,58.27,38.991124,54.35,36.451124Z" transform="matrix(1 0 0 1 0 1)" fill="none" stroke="rgb(255,84,132)" stroke-width="4" stroke-linejoin="round"/><path id="eijmCZ5RBcs10" d="M66,59L66,47.709504C66,46.604935,65.104569,45.709504,64,45.709504C62.895431,45.709504,62,46.604935,62,47.709504L62,59Z" transform="matrix(1 0 0 1 0 1)" fill="none" fill-opacity="0.5" stroke="rgb(255,84,132)" stroke-width="4" stroke-miterlimit="10"/></g></g></g></svg>