<svg id="eKGoPcOdMED1" xmlns="http://www.w3.org/2000/svg" xmlns:xlink="http://www.w3.org/1999/xlink" viewBox="0 0 128 128" shape-rendering="geometricPrecision" text-rendering="geometricPrecision"><g id="eKGoPcOdMED2"><path id="eKGoPcOdMED3" d="M41,61C41,61,41,83,41,83C41,85.209139,42.790861,87,45,87L83,87C85.209139,87,87,85.209139,87,83C87,83,87,61,87,61L41,61Z" transform="matrix(1 0 0 1 0 1)" fill="rgb(169,193,229)" stroke="none" stroke-width="2" stroke-miterlimit="10"/><path id="eKGoPcOdMED4" d="M62,63L62,85C62,85,66,85,66,85L66,63Z" transform="matrix(1 0 0 1 0 1)" fill="rgb(255,84,132)" fill-opacity="0.5" stroke="rgb(84,131,204)" stroke-width="4" stroke-miterlimit="10"/><g id="eKGoPcOdMED5" transform="matrix(1 0 0 1 0 0.000001)"><path id="eKGoPcOdMED6" d="M87,46C87,46,41,46,41,46C38.790861,46,37,47.790861,37,50L37,59C37,59,91,59,91,59L91,50C91,47.790861,89.209139,46,87,46Z" transform="matrix(1 0 0 1 0 1)" fill="rgb(169,193,229)" stroke="none" stroke-width="2" stroke-linejoin="round"/><g id="eKGoPcOdMED7" transform="matrix(1 0 0 1 0 0.000001)"><path id="eKGoPcOdMED8" d="M83,36C82.08,32,77.07,30.72,73.65,32.93C69.73,35.47,66,39.972599,66,46C69.21,43.32,74.15,44.58,78,43.74C81.406331,42.825899,83.567151,39.48095,83,36Z" transform="matrix(1 0 0 1 0 1)" fill="none" stroke="rgb(84,131,204)" stroke-width="4" stroke-linejoin="round"/><path id="eKGoPcOdMED9" d="M54.35,32.93C50.93,30.72,45.92,32,45,36C44.432849,39.48095,46.593669,42.825899,50,43.74C53.89,44.58,58.83,43.32,62,46C62,40.009665,58.27,35.47,54.35,32.93Z" transform="matrix(1 0 0 1 0 1)" fill="none" stroke="rgb(84,131,204)" stroke-width="4" stroke-linejoin="round"/><path id="eKGoPcOdMED10" d="M66,57L66,44C66,42.895431,65.104569,42,64,42C62.895431,42,62,42.895431,62,44L62,57Z" transform="matrix(1 0 0 1 0 1)" fill="rgb(255,84,132)" fill-opacity="0.5" stroke="rgb(84,131,204)" stroke-width="4" stroke-miterlimit="10"/></g></g></g></svg>