<svg id="ehADpng1TiI1" xmlns="http://www.w3.org/2000/svg" xmlns:xlink="http://www.w3.org/1999/xlink" viewBox="0 0 128 128" shape-rendering="geometricPrecision" text-rendering="geometricPrecision"><g id="ehADpng1TiI2"><line id="ehADpng1TiI3" x1="94" y1="92" x2="30" y2="92" fill="none" stroke="rgb(0,162,255)" stroke-width="4" stroke-linecap="round" stroke-linejoin="round" stroke-dashoffset="304" stroke-dasharray="40,8,1,8,31,8"/><g id="ehADpng1TiI4"><g id="ehADpng1TiI5" transform="matrix(1 0 0 1 0.069927 1)"><path id="ehADpng1TiI6" d="M30,70L30,51C30,48.790861,31.790861,47,34,47L66,47C68.209139,47,70,48.790861,70,51L70,74L34,74C31.790861,74,30,72.209139,30,70Z" fill="rgb(127,208,255)" stroke="rgb(0,162,255)" stroke-width="4" stroke-linecap="round" stroke-linejoin="round"/><path id="ehADpng1TiI7" d="M70,74L34,74L34,79C34,81.209139,35.790861,83,38,83L42.81,83C43.883393,81.149587,45.860794,80.010631,48,80.010631C50.139206,80.010631,52.116607,81.149587,53.19,83L74.81,83C75.883393,81.149587,77.860794,80.010631,80,80.010631C82.139206,80.010631,84.116607,81.149587,85.19,83L90,83C92.209139,83,94,81.209139,94,79L94,75L94,75C94.000789,74.377659,93.853392,73.764074,93.57,73.21L85.57,59.21C84.893356,57.85779,83.512056,57.002699,82,57L70,57Z" fill="rgb(127,208,255)" stroke="rgb(0,162,255)" stroke-width="4" stroke-linecap="round" stroke-linejoin="round"/><polyline id="ehADpng1TiI8" points="85,71 80.69,71 78,57" fill="none" stroke="rgb(0,162,255)" stroke-width="4" stroke-linecap="round" stroke-linejoin="round"/></g><path id="ehADpng1TiI9" d="M77,69L61,69" transform="matrix(1 0 0 1 -40 0)" fill="none" stroke="rgb(0,162,255)" stroke-width="4" stroke-linecap="round" stroke-linejoin="round"/><path id="ehADpng1TiI10" d="M85,70L69,70" transform="matrix(1 0 0 1 -40 -8)" fill="none" stroke="rgb(0,162,255)" stroke-width="4" stroke-linecap="round" stroke-linejoin="round"/><path id="ehADpng1TiI11" d="M77,71L61,71" transform="matrix(1 0 0 1 -40 -16)" fill="none" stroke="rgb(0,162,255)" stroke-width="4" stroke-linecap="round" stroke-linejoin="round"/><circle id="ehADpng1TiI12" r="6" transform="matrix(1 0 0 1 48 86)" fill="rgb(127,208,255)" stroke="rgb(0,162,255)" stroke-width="4" stroke-linecap="round" stroke-linejoin="round"/><circle id="ehADpng1TiI13" r="6" transform="matrix(1 0 0 1 80 86)" fill="rgb(127,208,255)" stroke="rgb(0,162,255)" stroke-width="4" stroke-linecap="round" stroke-linejoin="round"/></g></g></svg>