<svg id="eTRBqSghJD71" xmlns="http://www.w3.org/2000/svg" xmlns:xlink="http://www.w3.org/1999/xlink" viewBox="0 0 128 128" shape-rendering="geometricPrecision" text-rendering="geometricPrecision"><style><![CDATA[#eTRBqSghJD73_to {animation: eTRBqSghJD73_to__to 1000ms linear infinite normal forwards}@keyframes eTRBqSghJD73_to__to { 0% {transform: translate(64px,65px);animation-timing-function: cubic-bezier(0.42,0,0.58,1)} 50% {transform: translate(64px,63px);animation-timing-function: cubic-bezier(0.42,0,0.58,1)} 100% {transform: translate(64px,65px)}} #eTRBqSghJD75_to {animation: eTRBqSghJD75_to__to 1000ms linear infinite normal forwards}@keyframes eTRBqSghJD75_to__to { 0% {transform: translate(64px,65px);animation-timing-function: cubic-bezier(0.42,0,0.58,1)} 50% {transform: translate(64px,63px);animation-timing-function: cubic-bezier(0.42,0,0.58,1)} 100% {transform: translate(64px,65px)}} #eTRBqSghJD76 {animation-name: eTRBqSghJD76_c_o, eTRBqSghJD76_s_do, eTRBqSghJD76_s_da;animation-duration: 1000ms;animation-fill-mode: forwards;animation-timing-function: linear;animation-direction: normal;animation-iteration-count: infinite;}@keyframes eTRBqSghJD76_c_o { 0% {opacity: 0} 9% {opacity: 0} 10% {opacity: 1} 100% {opacity: 1}}@keyframes eTRBqSghJD76_s_do { 0% {stroke-dashoffset: 24.75} 10% {stroke-dashoffset: 24.75;animation-timing-function: cubic-bezier(0.215,0.61,0.355,1)} 40% {stroke-dashoffset: 33} 100% {stroke-dashoffset: 33}}@keyframes eTRBqSghJD76_s_da { 0% {stroke-dasharray: 0, 16.5} 10% {stroke-dasharray: 0, 16.5;animation-timing-function: cubic-bezier(0.215,0.61,0.355,1)} 40% {stroke-dasharray: 16.5, 0} 100% {stroke-dasharray: 16.5, 0}} #eTRBqSghJD77_ts {animation: eTRBqSghJD77_ts__ts 1000ms linear infinite normal forwards}@keyframes eTRBqSghJD77_ts__ts { 0% {transform: translate(56px,62.00962px) scale(1.5,0);animation-timing-function: cubic-bezier(0.215,0.61,0.355,1)} 40% {transform: translate(56px,62.00962px) scale(1,1)} 70% {transform: translate(56px,62.00962px) scale(1,1);animation-timing-function: cubic-bezier(0.42,0,1,1)} 80% {transform: translate(56px,62.00962px) scale(1.5,0.2);animation-timing-function: cubic-bezier(0,0,0.58,1)} 90% {transform: translate(56px,62.00962px) scale(1,1)} 100% {transform: translate(56px,62.00962px) scale(1,1)}} #eTRBqSghJD77 {animation: eTRBqSghJD77_c_o 1000ms linear infinite normal forwards}@keyframes eTRBqSghJD77_c_o { 0% {opacity: 0;animation-timing-function: cubic-bezier(0.215,0.61,0.355,1)} 40% {opacity: 1} 100% {opacity: 1}} #eTRBqSghJD78_ts {animation: eTRBqSghJD78_ts__ts 1000ms linear infinite normal forwards}@keyframes eTRBqSghJD78_ts__ts { 0% {transform: translate(72px,62.00962px) scale(1.5,0);animation-timing-function: cubic-bezier(0.215,0.61,0.355,1)} 40% {transform: translate(72px,62.00962px) scale(1,1)} 70% {transform: translate(72px,62.00962px) scale(1,1);animation-timing-function: cubic-bezier(0.42,0,1,1)} 80% {transform: translate(72px,62.00962px) scale(1.5,0.2);animation-timing-function: cubic-bezier(0,0,0.58,1)} 90% {transform: translate(72px,62.00962px) scale(1,1)} 100% {transform: translate(72px,62.00962px) scale(1,1)}} #eTRBqSghJD78 {animation: eTRBqSghJD78_c_o 1000ms linear infinite normal forwards}@keyframes eTRBqSghJD78_c_o { 0% {opacity: 0;animation-timing-function: cubic-bezier(0.215,0.61,0.355,1)} 40% {opacity: 1} 100% {opacity: 1}} #eTRBqSghJD79_to {animation: eTRBqSghJD79_to__to 1000ms linear infinite normal forwards}@keyframes eTRBqSghJD79_to__to { 0% {transform: translate(64px,65px);animation-timing-function: cubic-bezier(0.42,0,0.58,1)} 50% {transform: translate(64px,64px);animation-timing-function: cubic-bezier(0.42,0,0.58,1)} 100% {transform: translate(64px,65px)}}]]></style><g id="eTRBqSghJD72"><g id="eTRBqSghJD73_to" transform="translate(64,65)"><g id="eTRBqSghJD73" transform="translate(-64,-65)"><circle id="eTRBqSghJD74" r="22" transform="matrix(1 0 0 1 64 65)" fill="rgb(84,131,204)" stroke="none" stroke-width="4" stroke-linecap="round" stroke-linejoin="round"/><g id="eTRBqSghJD75_to" transform="translate(64,65)"><g id="eTRBqSghJD75" transform="translate(-64,-64.999998)"><path id="eTRBqSghJD76" d="M10.5,0C10.5,5.79899,5.79899,10.5,0,10.5" transform="matrix(0.707107 0.707107 -0.707107 0.707107 64 65)" opacity="0" fill="none" fill-opacity="0.5" stroke="rgb(255,255,255)" stroke-width="4" stroke-linecap="round" stroke-linejoin="round" stroke-dashoffset="24.75" stroke-dasharray="0,16.5"/><g id="eTRBqSghJD77_ts" transform="translate(56,62.00962) scale(1.5,0)"><circle id="eTRBqSghJD77" r="1.990378" transform="translate(0,0)" opacity="0" fill="rgb(255,255,255)" stroke="none" stroke-width="2" stroke-linecap="round" stroke-linejoin="round"/></g><g id="eTRBqSghJD78_ts" transform="translate(72,62.00962) scale(1.5,0)"><circle id="eTRBqSghJD78" r="1.990378" transform="translate(0,0)" opacity="0" fill="rgb(255,255,255)" stroke="none" stroke-width="2" stroke-linecap="round" stroke-linejoin="round"/></g></g></g></g></g><g id="eTRBqSghJD79_to" transform="translate(64,65)"><g id="eTRBqSghJD79" transform="translate(-64,-65)"><path id="eTRBqSghJD710" d="M42,56C42,43.849736,51.849736,34,64,34C76.150264,34,86,43.849736,86,56" fill="none" stroke="rgb(84,131,204)" stroke-width="4" stroke-linecap="round" stroke-linejoin="round"/><path id="eTRBqSghJD711" d="M41,77C37.686292,77,35,74.313708,35,71L35,65C35,61.686292,37.686292,59,41,59L41,59C42.148752,59,43.08,59.931248,43.08,61.08L43.08,74.92C43.08,76.068752,42.148752,77,41,77Z" transform="matrix(1 0 0 1 0 -3)" fill="rgb(169,193,229)" stroke="rgb(169,193,229)" stroke-width="2" stroke-linecap="round" stroke-linejoin="round"/><path id="eTRBqSghJD712" d="M87,77C90.313708,77,93,74.313708,93,71L93,65C93,61.686292,90.313708,59,87,59L87,59C85.851248,59,84.92,59.931248,84.92,61.08L84.92,74.92C84.92,76.068752,85.851248,77,87,77Z" transform="matrix(1 0 0 1 0 -3)" fill="rgb(169,193,229)" stroke="rgb(169,193,229)" stroke-width="2" stroke-linecap="round" stroke-linejoin="round"/><path id="eTRBqSghJD713" d="M68,79C77.19,79,84.86,70.834828,86.62,60.011226" transform="matrix(1 0 0 1 0 14)" fill="none" stroke="rgb(84,131,204)" stroke-width="4" stroke-linecap="round" stroke-linejoin="round"/><line id="eTRBqSghJD714" x1="68" y1="79" x2="64" y2="79" transform="matrix(1 0 0 1 0 14)" fill="none" stroke="rgb(84,131,204)" stroke-width="6" stroke-linecap="round" stroke-linejoin="round"/></g></g></g></svg>