<svg id="en84dl5wLRo1" xmlns="http://www.w3.org/2000/svg" xmlns:xlink="http://www.w3.org/1999/xlink" viewBox="0 0 128 128" shape-rendering="geometricPrecision" text-rendering="geometricPrecision"><g id="en84dl5wLRo2"><g id="en84dl5wLRo3" transform="matrix(1 0 0 1 0 0.000002)"><g id="en84dl5wLRo4"><path id="en84dl5wLRo5" d="M68,71L60,71C58.895431,71,58,71.895431,58,73L58,87L70,87L70,73C70,71.895431,69.104569,71,68,71Z" fill="rgb(84,131,204)" stroke="none" stroke-width="4" stroke-linecap="round" stroke-linejoin="round"/></g><path id="en84dl5wLRo6" d="M82,67.3L64,49.3L46,67.3L46,85C46,86.104569,46.895431,87,48,87L58,87L58,73C58,71.895431,58.895431,71,60,71L68,71C69.104569,71,70,71.895431,70,73L70,87L80,87C81.104569,87,82,86.104569,82,85L82,67.3Z" fill="rgb(170,193,230)" stroke="none" stroke-width="4" stroke-linecap="round" stroke-linejoin="round"/><g id="en84dl5wLRo7" transform="matrix(1 0 0 1 0 16.388891)" opacity="0"><path id="en84dl5wLRo8" d="M0,6L0,0L6,0" transform="matrix(0.707107 0.707107 -0.707107 0.707107 64 73.166666)" fill="none" stroke="rgb(84,131,204)" stroke-width="3.33" stroke-linecap="round" stroke-linejoin="round"/><path id="en84dl5wLRo9" d="M70,89.166667L70,101.666666" transform="matrix(1 0 0 1 -6 -15.166667)" fill="rgb(255,212,29)" stroke="rgb(84,131,204)" stroke-width="3.33" stroke-linecap="round" stroke-linejoin="round"/></g><path id="en84dl5wLRo10" d="M88,63.33L88,63.33L66.8,42.13C66.049727,41.378892,65.031637,40.956853,63.97,40.956853C62.908363,40.956853,61.890273,41.378892,61.14,42.13L40,63.35L40,63.35C38.735051,64.748884,38.788941,66.893861,40.12254,68.22746C41.456139,69.561059,43.601116,69.614949,45,68.35L64,49.3L83,68.3C83.961356,69.239511,85.366058,69.565169,86.642747,69.144513C87.919437,68.723858,88.855424,67.626968,89.07,66.3C89.305166,65.187211,88.890826,64.037128,88,63.33Z" fill="rgb(84,131,204)" stroke="none" stroke-width="4" stroke-linecap="round" stroke-linejoin="round"/></g></g></svg>