<svg id="eeFxgZBTJW31" xmlns="http://www.w3.org/2000/svg" xmlns:xlink="http://www.w3.org/1999/xlink" viewBox="0 0 300 300" shape-rendering="geometricPrecision" text-rendering="geometricPrecision"><style><![CDATA[#eeFxgZBTJW33_ts {animation: eeFxgZBTJW33_ts__ts 3000ms linear infinite normal forwards}@keyframes eeFxgZBTJW33_ts__ts { 0% {transform: translate(400.600021px,336.850021px) scale(0.434143,0.52279);animation-timing-function: cubic-bezier(0.68,-0.55,0.265,1.55)} 13.333333% {transform: translate(400.600021px,336.850021px) scale(1,1)} 100% {transform: translate(400.600021px,336.850021px) scale(1,1)}} #eeFxgZBTJW33 {animation: eeFxgZBTJW33_c_o 3000ms linear infinite normal forwards}@keyframes eeFxgZBTJW33_c_o { 0% {opacity: 0} 3.333333% {opacity: 0;animation-timing-function: cubic-bezier(0.445,0.05,0.55,0.95)} 10% {opacity: 1} 100% {opacity: 1}} #eeFxgZBTJW34_ts {animation: eeFxgZBTJW34_ts__ts 3000ms linear infinite normal forwards}@keyframes eeFxgZBTJW34_ts__ts { 0% {transform: translate(399.099991px,338.499992px) scale(0.555703,0.555703);animation-timing-function: cubic-bezier(0.68,-0.55,0.265,1.55)} 13.333333% {transform: translate(399.099991px,338.499992px) scale(1,1)} 100% {transform: translate(399.099991px,338.499992px) scale(1,1)}} #eeFxgZBTJW34 {animation: eeFxgZBTJW34_c_o 3000ms linear infinite normal forwards}@keyframes eeFxgZBTJW34_c_o { 0% {opacity: 0} 3.333333% {opacity: 0;animation-timing-function: cubic-bezier(0.445,0.05,0.55,0.95)} 10% {opacity: 1} 100% {opacity: 1}} #eeFxgZBTJW39_to {animation: eeFxgZBTJW39_to__to 3000ms linear infinite normal forwards}@keyframes eeFxgZBTJW39_to__to { 0% {offset-distance: 0%} 6.666667% {offset-distance: 0%;animation-timing-function: cubic-bezier(0.68,-0.55,0.265,1.55)} 16.666667% {offset-distance: 100%} 100% {offset-distance: 100%}} #eeFxgZBTJW39_ts {animation: eeFxgZBTJW39_ts__ts 3000ms linear infinite normal forwards}@keyframes eeFxgZBTJW39_ts__ts { 0% {transform: scale(1.914278,1.914278)} 6.666667% {transform: scale(1.914278,1.914278);animation-timing-function: cubic-bezier(0.68,-0.55,0.265,1.55)} 16.666667% {transform: scale(1,1)} 100% {transform: scale(1,1)}} #eeFxgZBTJW39 {animation: eeFxgZBTJW39_c_o 3000ms linear infinite normal forwards}@keyframes eeFxgZBTJW39_c_o { 0% {opacity: 0} 6.666667% {opacity: 0;animation-timing-function: cubic-bezier(0.445,0.05,0.55,0.95)} 13.333333% {opacity: 1} 100% {opacity: 1}} #eeFxgZBTJW310 {animation: eeFxgZBTJW310_s_w 3000ms linear infinite normal forwards}@keyframes eeFxgZBTJW310_s_w { 0% {stroke-width: 7} 10% {stroke-width: 7;animation-timing-function: cubic-bezier(0.68,-0.55,0.265,1.55)} 20% {stroke-width: 3} 100% {stroke-width: 3}} #eeFxgZBTJW312 {animation: eeFxgZBTJW312_c_o 3000ms linear infinite normal forwards}@keyframes eeFxgZBTJW312_c_o { 0% {opacity: 0} 13.333333% {opacity: 0} 20% {opacity: 1} 100% {opacity: 1}} #eeFxgZBTJW318_ts {animation: eeFxgZBTJW318_ts__ts 3000ms linear infinite normal forwards}@keyframes eeFxgZBTJW318_ts__ts { 0% {transform: translate(399.149994px,420.250015px) scale(0.340343,0.235109)} 23.333333% {transform: translate(399.149994px,420.250015px) scale(0.340343,0.235109);animation-timing-function: cubic-bezier(0.68,-0.55,0.265,1.55)} 33.333333% {transform: translate(399.149994px,420.250015px) scale(1,1)} 100% {transform: translate(399.149994px,420.250015px) scale(1,1)}} #eeFxgZBTJW318 {animation: eeFxgZBTJW318_c_o 3000ms linear infinite normal forwards}@keyframes eeFxgZBTJW318_c_o { 0% {opacity: 0} 23.333333% {opacity: 0;animation-timing-function: cubic-bezier(0.445,0.05,0.55,0.95)} 30% {opacity: 1} 100% {opacity: 1}} #eeFxgZBTJW324_ts {animation: eeFxgZBTJW324_ts__ts 3000ms linear infinite normal forwards}@keyframes eeFxgZBTJW324_ts__ts { 0% {transform: translate(404.549988px,387.250015px) scale(0.340343,0.235109)} 16.666667% {transform: translate(404.549988px,387.250015px) scale(0.340343,0.235109);animation-timing-function: cubic-bezier(0.68,-0.55,0.265,1.55)} 26.666667% {transform: translate(404.549988px,387.250015px) scale(1,1)} 100% {transform: translate(404.549988px,387.250015px) scale(1,1)}} #eeFxgZBTJW324 {animation: eeFxgZBTJW324_c_o 3000ms linear infinite normal forwards}@keyframes eeFxgZBTJW324_c_o { 0% {opacity: 0} 16.666667% {opacity: 0;animation-timing-function: cubic-bezier(0.445,0.05,0.55,0.95)} 23.333333% {opacity: 1} 100% {opacity: 1}}]]></style><g id="eeFxgZBTJW32" transform="matrix(0.7 0 0 0.7 -130.420004 -85.795004)"><g id="eeFxgZBTJW33_ts" transform="translate(400.600021,336.850021) scale(0.434143,0.52279)"><path id="eeFxgZBTJW33" d="M504.7,337.3L501.8,310.4C500.9,301.6,493.5,295,484.7,295C484.3,295,483.9,295,483.5,295.1L483.5,285.5C483.5,275.9,475.7,268.1,466.1,268.1L429.9,268.1C428.5,256.3,424.8,240.5,415,230.5C408.9,224.3,401.1,221,392.4,221C383.5,221,375.5,224.4,369.3,230.7C359.6,240.7,355.8,256.4,354.4,268.1L337.9,268.1C333.7,268.1,329.7,269.6,326.6,272.3C321.1,275.3,317.6,281.2,317.6,287.5L317.6,312.7L311.8,313.3C302.4,314.3,295.5,322.8,296.5,332.3L299.4,359.2C300.3,368,307.7,374.6,316.5,374.6C316.9,374.6,317.3,374.6,317.7,374.5L317.7,427.7C317.7,432.3,319.5,436.7,322.8,440L330.4,447.6C333.7,450.9,338.1,452.7,342.7,452.7L456,452.7C460.2,452.7,464.3,451.2,467.4,448.4C468.8,447.6,470.1,446.6,471.3,445.5L478.5,438.3C481.8,435,483.6,430.6,483.6,426L483.6,356.8L489.4,356.2C498.8,355.3,505.7,346.8,504.7,337.3Z" transform="translate(-400.600021,-336.850021)" opacity="0" fill="rgb(255,255,255)" stroke="none" stroke-width="1"/></g><g id="eeFxgZBTJW34_ts" transform="translate(399.099991,338.499992) scale(0.555703,0.555703)"><g id="eeFxgZBTJW34" transform="translate(-399.099991,-338.499992)" opacity="0"><path id="eeFxgZBTJW35" d="M475.2,430.8L475.2,286.3C475.2,281,470.9,276.8,465.7,276.8L332.4,276.8C327.1,276.8,322.9,281.1,322.9,286.3L322.9,430.4C322.9,432.9,323.9,435.4,325.7,437.1L333.6,445C335.4,446.8,337.8,447.8,340.3,447.8L458.3,447.8C460.8,447.8,463.3,446.8,465,445L472.4,437.6C474.2,435.7,475.2,433.3,475.2,430.8Z" fill="rgb(252,42,31)" stroke="none" stroke-width="1"/><path id="eeFxgZBTJW36" d="M361.8,283.3C361.8,283.3,360.3,229.2,392.5,229.2C424.1,229.2,422.6,283.3,422.6,283.3" fill="none" stroke="rgb(33,31,30)" stroke-width="3" stroke-linecap="round" stroke-linejoin="round" stroke-miterlimit="10"/><path id="eeFxgZBTJW37" d="M475.3,426L475.3,285.5C475.3,280.4,471.2,276.3,466.1,276.3L337.9,276.3C332.8,276.3,328.7,280.4,328.7,285.5L328.7,425.7C328.7,428.1,329.7,430.5,331.4,432.2L339,439.8C340.7,441.5,343.1,442.5,345.5,442.5L459,442.5C461.4,442.5,463.8,441.5,465.5,439.8L472.7,432.6C474.3,430.8,475.3,428.5,475.3,426Z" fill="rgb(33,31,30)" stroke="none" stroke-width="1"/><path id="eeFxgZBTJW38" d="M371.6,283.3C371.6,283.3,370.1,229.2,402.3,229.2C433.9,229.2,432.4,283.3,432.4,283.3" fill="none" stroke="rgb(252,42,31)" stroke-width="3" stroke-linecap="round" stroke-linejoin="round" stroke-miterlimit="10"/></g></g><g id="eeFxgZBTJW39_to" style="offset-path:path('M447.176479,329.619572C437.387161,327.863577,416.398363,328.392597,401.092011,334.100006');offset-rotate:0deg"><g id="eeFxgZBTJW39_ts" transform="scale(1.914278,1.914278)"><g id="eeFxgZBTJW39" transform="translate(-401.09201,-334.100006)" opacity="0"><path id="eeFxgZBTJW310" d="M490.5,346.4L312.3,365.4C309.3,365.7,306.6,363.5,306.3,360.5L302.7,326.6C302.4,323.6,304.6,320.9,307.6,320.6L485.8,301.6C488.8,301.3,491.5,303.5,491.8,306.5L495.4,340.4C495.7,343.4,493.5,346.1,490.5,346.4Z" transform="matrix(1 0 0 1 1.084006 0)" fill="none" stroke="rgb(252,42,31)" stroke-width="7" stroke-linecap="round" stroke-linejoin="round" stroke-miterlimit="10"/><path id="eeFxgZBTJW311" d="M493.5,347.6L315.3,366.6C312.3,366.9,309.6,364.7,309.3,361.7L305.7,327.8C305.4,324.8,307.6,322.1,310.6,321.8L488.8,302.8C491.8,302.5,494.5,304.7,494.8,307.7L498.4,341.6C498.7,344.5,496.5,347.2,493.5,347.6Z" fill="rgb(255,255,255)" stroke="rgb(33,31,30)" stroke-width="2" stroke-miterlimit="10"/><g id="eeFxgZBTJW312" transform="matrix(0.999929 -0.011916 0.011916 0.999929 -3.314305 3.928623)" opacity="0"><path id="eeFxgZBTJW313" d="M345.2,343.8C346.5,345.1,347.2,346.8,347.4,348.8C347.7,351.8,346.7,354.3,344.4,356.2C342.1,358.1,338.6,359.3,333.9,359.8L314.6,361.9L310.9,327.5L329.3,325.5C333.9,325,337.4,325.5,339.9,326.8C342.4,328.2,343.8,330.2,344.1,333C344.3,334.6,344,336.1,343.4,337.4C342.7,338.8,341.7,339.9,340.2,340.9C342.2,341.6,343.9,342.5,345.2,343.8ZM323.1,334.4L323.6,339.5L329,338.9C331.5,338.6,332.7,337.6,332.5,335.9C332.3,334.2,331,333.5,328.4,333.7L323.1,334.4ZM335.6,348.8C335.4,347,334,346.2,331.5,346.5L324.5,347.2L325.1,352.6L332.1,351.9C334.6,351.6,335.8,350.6,335.6,348.8Z" fill="rgb(33,31,30)" stroke="none" stroke-width="1"/><path id="eeFxgZBTJW314" d="M348.8,323.5L360.4,322.3L363.1,347.7L378.6,346L379.6,355L352.5,357.9L348.8,323.5Z" fill="rgb(33,31,30)" stroke="none" stroke-width="1"/><path id="eeFxgZBTJW315" d="M408.2,345.9L395.1,347.3L393.4,353.5L381.6,354.8L393,318.8L404.4,317.6L423.1,350.4L411.1,351.7L408.2,345.9ZM404.1,337.9L399.8,329.6L397.4,338.6L404.1,337.9Z" fill="rgb(33,31,30)" stroke="none" stroke-width="1"/><path id="eeFxgZBTJW316" d="M432.3,347.9C429.2,346.7,426.7,344.8,424.8,342.2C422.9,339.6,421.7,336.6,421.3,333.2C420.9,329.7,421.4,326.5,422.8,323.6C424.2,320.7,426.2,318.3,429,316.5C431.8,314.7,434.9,313.6,438.6,313.2C441.9,312.8,445,313.1,447.7,314C450.4,314.9,452.8,316.4,454.7,318.4L448.1,325.7C445.7,323.2,443,322.2,440.2,322.5C437.8,322.8,435.9,323.7,434.6,325.5C433.3,327.2,432.8,329.4,433.1,332C433.4,334.6,434.3,336.6,436,338C437.6,339.4,439.7,340,442.1,339.7C445,339.4,447.3,337.8,449.2,334.9L457.2,340.7C455.7,343.1,453.8,345,451.3,346.5C448.8,348,445.9,348.9,442.6,349.2C438.7,349.5,435.3,349.1,432.3,347.9Z" fill="rgb(33,31,30)" stroke="none" stroke-width="1"/><path id="eeFxgZBTJW317" d="M473.8,333.4L471.5,336.6L472.4,345.1L461,346.3L457.3,311.9L468.7,310.7L470,323.2L480,309.5L492.6,308.2L480.5,324.8L497,342.5L483.6,343.9L473.8,333.4Z" fill="rgb(33,31,30)" stroke="none" stroke-width="1"/></g></g></g></g><g id="eeFxgZBTJW318_ts" transform="translate(399.149994,420.250015) scale(0.340343,0.235109)"><g id="eeFxgZBTJW318" transform="translate(-399.149994,-420.250015)" opacity="0"><g id="eeFxgZBTJW319"><path id="eeFxgZBTJW320" d="M372.6,428C371.5,427.6,370.6,427.1,369.9,426.5L370.8,424.7C371.4,425.3,372.2,425.7,373.2,426.1C374.2,426.4,375.2,426.6,376.2,426.6C377.5,426.6,378.6,426.4,379.2,425.9C379.9,425.4,380.2,424.8,380.2,424.1C380.2,423.5,380,423.1,379.7,422.7C379.3,422.4,378.9,422.1,378.4,421.9C377.9,421.7,377.1,421.5,376.1,421.3C374.9,421,373.9,420.7,373.1,420.4C372.3,420.1,371.7,419.7,371.2,419C370.7,418.4,370.4,417.6,370.4,416.5C370.4,415.6,370.6,414.9,371.1,414.2C371.6,413.5,372.2,412.9,373.2,412.5C374.1,412.1,375.3,411.9,376.7,411.9C377.7,411.9,378.6,412,379.5,412.3C380.4,412.5,381.2,412.9,381.9,413.4L381.1,415.3C380.4,414.9,379.7,414.5,378.9,414.3C378.1,414.1,377.4,414,376.6,414C375.3,414,374.3,414.2,373.6,414.7C372.9,415.2,372.6,415.8,372.6,416.6C372.6,417.2,372.8,417.6,373.2,418C373.6,418.3,374,418.6,374.6,418.8C375.1,419,375.9,419.2,376.8,419.4C378,419.7,379,420,379.7,420.3C380.4,420.6,381.1,421,381.6,421.6C382.1,422.2,382.4,423,382.4,424C382.4,424.9,382.2,425.6,381.7,426.3C381.2,427,380.5,427.6,379.6,428C378.7,428.4,377.5,428.6,376.1,428.6C374.9,428.6,373.8,428.4,372.6,428Z" fill="rgb(255,255,255)" stroke="none" stroke-width="1"/><path id="eeFxgZBTJW321" d="M396.2,424.4L387.6,424.4L385.8,428.5L383.4,428.5L390.8,412.3L393.1,412.3L400.5,428.5L398,428.5L396.2,424.4ZM395.4,422.5L391.9,414.5L388.4,422.5L395.4,422.5Z" fill="rgb(255,255,255)" stroke="none" stroke-width="1"/><path id="eeFxgZBTJW322" d="M402.8,412.2L405.1,412.2L405.1,426.4L413.9,426.4L413.9,428.4L402.8,428.4L402.8,412.2Z" fill="rgb(255,255,255)" stroke="none" stroke-width="1"/><path id="eeFxgZBTJW323" d="M428.4,426.4L428.4,428.4L416.6,428.4L416.6,412.2L428.1,412.2L428.1,414.2L419,414.2L419,419.2L427.1,419.2L427.1,421.2L419,421.2L419,426.4L428.4,426.4Z" fill="rgb(255,255,255)" stroke="none" stroke-width="1"/></g></g></g><g id="eeFxgZBTJW324_ts" transform="translate(404.549988,387.250015) scale(0.340343,0.235109)"><g id="eeFxgZBTJW324" transform="translate(-404.549988,-387.250015)" opacity="0"><path id="eeFxgZBTJW325" d="M343.5,381.3L343.5,385.5L353.6,385.5L353.6,391.7L343.5,391.7L343.5,399.5L335.3,399.5L335.3,375.2L355,375.2L355,381.4L343.5,381.4Z" fill="rgb(255,255,255)" stroke="none" stroke-width="1"/><path id="eeFxgZBTJW326" d="M368,393.2L365.8,393.2L365.8,399.3L357.6,399.3L357.6,375L369.3,375C371.5,375,373.5,375.4,375.2,376.1C376.9,376.8,378.1,377.9,379,379.3C379.9,380.7,380.4,382.3,380.4,384.2C380.4,385.9,380,387.4,379.2,388.7C378.4,390,377.3,391,375.8,391.8L380.9,399.3L372.2,399.3L368,393.2ZM371.2,382.1C370.6,381.6,369.8,381.4,368.7,381.4L365.7,381.4L365.7,387.1L368.7,387.1C369.8,387.1,370.6,386.9,371.2,386.4C371.8,385.9,372,385.2,372,384.3C372.1,383.3,371.8,382.6,371.2,382.1Z" fill="rgb(255,255,255)" stroke="none" stroke-width="1"/><path id="eeFxgZBTJW327" d="M383.4,375.1L391.6,375.1L391.6,399.4L383.4,399.4L383.4,375.1Z" fill="rgb(255,255,255)" stroke="none" stroke-width="1"/><path id="eeFxgZBTJW328" d="M395.5,375.1L407.5,375.1C410.2,375.1,412.6,375.6,414.7,376.6C416.8,377.6,418.4,379,419.5,380.8C420.6,382.6,421.2,384.8,421.2,387.2C421.2,389.7,420.6,391.8,419.5,393.6C418.4,395.4,416.8,396.8,414.7,397.8C412.6,398.8,410.2,399.3,407.5,399.3L395.5,399.3L395.5,375.1ZM407.1,393C408.9,393,410.3,392.5,411.3,391.5C412.4,390.5,412.9,389.1,412.9,387.3C412.9,385.5,412.4,384.1,411.3,383.1C410.2,382.1,408.8,381.6,407.1,381.6L403.7,381.6L403.7,393L407.1,393Z" fill="rgb(255,255,255)" stroke="none" stroke-width="1"/><path id="eeFxgZBTJW329" d="M440.3,395.1L431.1,395.1L429.5,399.3L421.2,399.3L431.8,375L439.8,375L450.4,399.3L442,399.3L440.3,395.1ZM438.1,389.2L435.7,383.1L433.3,389.2L438.1,389.2Z" fill="rgb(255,255,255)" stroke="none" stroke-width="1"/><path id="eeFxgZBTJW330" d="M464.6,390.5L464.6,399.3L456.4,399.3L456.4,390.4L447.3,375.1L455.9,375.1L460.9,383.5L465.9,375.1L473.8,375.1L464.6,390.5Z" fill="rgb(255,255,255)" stroke="none" stroke-width="1"/></g></g></g></svg>