<svg id="e4FxiLBv5C61" xmlns="http://www.w3.org/2000/svg" xmlns:xlink="http://www.w3.org/1999/xlink" viewBox="0 0 128 128" shape-rendering="geometricPrecision" text-rendering="geometricPrecision"><g id="e4FxiLBv5C62"><line id="e4FxiLBv5C63" x1="94" y1="92" x2="30" y2="92" fill="none" stroke="rgb(84,131,204)" stroke-width="4" stroke-linecap="round" stroke-linejoin="round" stroke-dashoffset="304" stroke-dasharray="40,8,1,8,31,8"/><g id="e4FxiLBv5C64"><g id="e4FxiLBv5C65" transform="matrix(1 0 0 1 0.069927 1)"><path id="e4FxiLBv5C66" d="M30,70L30,51C30,48.790861,31.790861,47,34,47L66,47C68.209139,47,70,48.790861,70,51L70,74L34,74C31.790861,74,30,72.209139,30,70Z" fill="none" stroke="rgb(84,131,204)" stroke-width="4" stroke-linecap="round" stroke-linejoin="round"/><path id="e4FxiLBv5C67" d="M70,74L34,74L34,79C34,81.209139,35.790861,83,38,83L41.81,83C42.883393,81.149587,45.088402,79.010631,48,79.010631C50.911598,79.010631,53.116607,81.149587,54.19,83L73.81,83C74.883393,81.149587,77.058001,79.021262,80,79.010631C82.941999,79,85.116607,81.149587,86.19,83L90,83C92.209139,83,94,81.209139,94,79L94,75L94,75C94.000789,74.377659,93.853392,73.764074,93.57,73.21L85.57,59.21C84.893356,57.85779,83.512056,57.002699,82,57L70,57Z" fill="none" stroke="rgb(84,131,204)" stroke-width="4" stroke-linecap="round" stroke-linejoin="round"/><polyline id="e4FxiLBv5C68" points="85,71 80.69,71 78,57" fill="none" stroke="rgb(84,131,204)" stroke-width="4" stroke-linecap="round" stroke-linejoin="round"/></g><path id="e4FxiLBv5C69" d="M77,69L61,69" transform="matrix(1 0 0 1 -40 0)" fill="none" stroke="rgb(84,131,204)" stroke-width="4" stroke-linecap="round" stroke-linejoin="round"/><path id="e4FxiLBv5C610" d="M85,70L69,70" transform="matrix(1 0 0 1 -40 -8)" fill="none" stroke="rgb(84,131,204)" stroke-width="4" stroke-linecap="round" stroke-linejoin="round"/><path id="e4FxiLBv5C611" d="M77,71L61,71" transform="matrix(1 0 0 1 -40 -16)" fill="none" stroke="rgb(84,131,204)" stroke-width="4" stroke-linecap="round" stroke-linejoin="round"/><circle id="e4FxiLBv5C612" r="6" transform="matrix(1 0 0 1 48 86)" fill="none" stroke="rgb(84,131,204)" stroke-width="4" stroke-linecap="round" stroke-linejoin="round"/><circle id="e4FxiLBv5C613" r="6" transform="matrix(1 0 0 1 80 86)" fill="none" stroke="rgb(84,131,204)" stroke-width="4" stroke-linecap="round" stroke-linejoin="round"/></g></g></svg>