<svg id="elkqVvcaEQr1" xmlns="http://www.w3.org/2000/svg" xmlns:xlink="http://www.w3.org/1999/xlink" viewBox="0 0 128 128" shape-rendering="geometricPrecision" text-rendering="geometricPrecision"><style><![CDATA[#elkqVvcaEQr3_ts {animation: elkqVvcaEQr3_ts__ts 1000ms linear infinite normal forwards}@keyframes elkqVvcaEQr3_ts__ts { 0% {transform: translate(63.999998px,64px) scale(1,1);animation-timing-function: cubic-bezier(0.42,0,0.58,1)} 50% {transform: translate(63.999998px,64px) scale(1.1,1.1);animation-timing-function: cubic-bezier(0.42,0,0.58,1)} 100% {transform: translate(63.999998px,64px) scale(1,1)}} #elkqVvcaEQr4_tr {animation: elkqVvcaEQr4_tr__tr 1000ms linear infinite normal forwards}@keyframes elkqVvcaEQr4_tr__tr { 0% {transform: translate(64px,64px) rotate(0deg)} 100% {transform: translate(64px,64px) rotate(36deg)}} #elkqVvcaEQr4 {animation: elkqVvcaEQr4_s_w 1000ms linear infinite normal forwards}@keyframes elkqVvcaEQr4_s_w { 0% {stroke-width: 4;animation-timing-function: cubic-bezier(0.42,0,0.58,1)} 50% {stroke-width: 3.66;animation-timing-function: cubic-bezier(0.42,0,0.58,1)} 100% {stroke-width: 4}}]]></style><g id="elkqVvcaEQr2"><g id="elkqVvcaEQr3_ts" transform="translate(63.999998,64) scale(1,1)"><g id="elkqVvcaEQr3" transform="translate(-63.999998,-64)"><g id="elkqVvcaEQr4_tr" transform="translate(64,64) rotate(0)"><polygon id="elkqVvcaEQr4" points="64,93 57.51,83.98 46.95,87.46 47.01,76.34 36.41,72.96 43,64 36.41,55.04 47.01,51.66 46.95,40.54 57.51,44.02 64,35 70.49,44.02 81.05,40.54 80.99,51.66 91.59,55.04 85,64 91.59,72.96 80.99,76.34 81.05,87.46 70.49,83.98 64,93" transform="translate(-64,-64)" fill="rgb(255,170,194)" stroke="rgb(255,84,132)" stroke-width="4" stroke-linecap="round" stroke-linejoin="round" stroke-miterlimit="10"/></g><g id="elkqVvcaEQr5"><line id="elkqVvcaEQr6" x1="64" y1="74" x2="64" y2="55" transform="matrix(1 0 -0.509525 1 32.864391 0)" fill="none" stroke="rgb(255,84,132)" stroke-width="4" stroke-miterlimit="10"/><path id="elkqVvcaEQr7" d="M61,56C61,53.790861,59.209139,52,57,52C54.790861,52,53,53.790861,53,56L53,60C53,62.209139,54.790861,64,57,64C59.209139,64,61,62.209139,61,60Z" transform="matrix(0.75 0 0 0.666667 14.25 21.333312)" fill="none" stroke="rgb(255,84,132)" stroke-width="4" stroke-miterlimit="10"/><path id="elkqVvcaEQr8" d="M77,68C77,65.790861,75.209139,64,73,64C70.790861,64,69,65.790861,69,68L69,72C69,74.209139,70.790861,76,73,76C75.209139,76,77,74.209139,77,72Z" transform="matrix(0.75 0 0 0.666667 16.25 22.333312)" fill="none" stroke="rgb(255,84,132)" stroke-width="4" stroke-miterlimit="10"/></g></g></g></g></svg>