<svg id="eG0dQSReIiq1" xmlns="http://www.w3.org/2000/svg" xmlns:xlink="http://www.w3.org/1999/xlink" viewBox="0 0 128 128" shape-rendering="geometricPrecision" text-rendering="geometricPrecision"><g id="eG0dQSReIiq2"><g id="eG0dQSReIiq3" transform="matrix(1 0 0 1 0 -22)"><rect id="eG0dQSReIiq4" width="52" height="34" rx="6" ry="6" transform="matrix(1 0 0 1 38 69)" fill="rgb(84,131,204)" stroke="rgb(255,255,255)" stroke-width="2" stroke-linecap="round" stroke-linejoin="round"/><rect id="eG0dQSReIiq5" width="7.000008" height="7.000008" rx="2" ry="2" transform="matrix(1 0 0 1 45.000001 75.000001)" fill="rgb(255,255,255)" stroke="none" stroke-width="4" stroke-linecap="round" stroke-linejoin="round"/><line id="eG0dQSReIiq6" x1="43" y1="87" x2="85" y2="87" fill="none" stroke="rgb(255,255,255)" stroke-width="4" stroke-linejoin="round" stroke-dasharray="8,3.3"/><line id="eG0dQSReIiq7" x1="45" y1="94" x2="69" y2="94" transform="matrix(1 0 0 1 16 0)" fill="none" stroke="rgb(169,193,229)" stroke-width="4" stroke-miterlimit="10" stroke-dasharray="11,2"/></g><g id="eG0dQSReIiq8" transform="matrix(1.30436 0 0 1.3 -19.47904 -8.8)"><rect id="eG0dQSReIiq9" width="52" height="34" rx="6" ry="6" transform="matrix(1 0 0 1 38 39)" fill="rgb(84,131,204)" stroke="rgb(255,255,255)" stroke-width="2" stroke-linecap="round" stroke-linejoin="round"/><line id="eG0dQSReIiq10" x1="41.53332" y1="52" x2="86.46668" y2="52" fill="none" stroke="rgb(255,255,255)" stroke-width="4"/><rect id="eG0dQSReIiq11" width="8" height="8" rx="3" ry="3" transform="matrix(1 0 0 1 44.23334 59)" fill="rgb(255,255,255)" stroke="none" stroke-width="4" stroke-linecap="round" stroke-linejoin="round"/><circle id="eG0dQSReIiq12" r="4" transform="matrix(1 0 0 1 79.76666 63)" fill="rgb(255,255,255)" stroke="none" stroke-width="4" stroke-linecap="round" stroke-linejoin="round"/><circle id="eG0dQSReIiq13" r="4" transform="matrix(1 0 0 1 73.76666 63)" fill="rgb(169,193,229)" stroke="none" stroke-width="4" stroke-linecap="round" stroke-linejoin="round"/></g></g></svg>