<svg id="eQMKmXu0zqI1" xmlns="http://www.w3.org/2000/svg" xmlns:xlink="http://www.w3.org/1999/xlink" viewBox="0 0 128 128" shape-rendering="geometricPrecision" text-rendering="geometricPrecision"><style><![CDATA[#eQMKmXu0zqI3 {animation: eQMKmXu0zqI3__m 1000ms linear infinite normal forwards}@keyframes eQMKmXu0zqI3__m { 0% {d: path('M54,78.86L54,89L64,83.93L74,89L74,78.86');animation-timing-function: cubic-bezier(0.42,0,0.58,1)} 50% {d: path('M54,78.86L54,92L64,86.93L74,92L74,78.86')} 100% {d: path('M54,78.86L54,92L64,86.93L74,92L74,78.86')}} #eQMKmXu0zqI4_ts {animation: eQMKmXu0zqI4_ts__ts 1000ms linear infinite normal forwards}@keyframes eQMKmXu0zqI4_ts__ts { 0% {transform: translate(64px,58px) scale(1,1)} 50% {transform: translate(64px,58px) scale(1,1);animation-timing-function: cubic-bezier(0,0,0.58,1)} 100% {transform: translate(64px,58px) scale(1.373652,1.373653)}} #eQMKmXu0zqI4 {animation: eQMKmXu0zqI4_c_o 1000ms linear infinite normal forwards}@keyframes eQMKmXu0zqI4_c_o { 0% {opacity: 0} 50% {opacity: 0} 51% {opacity: 0.5;animation-timing-function: cubic-bezier(0,0,0.58,1)} 100% {opacity: 0}} #eQMKmXu0zqI5 {animation: eQMKmXu0zqI5__m 1000ms linear infinite normal forwards}@keyframes eQMKmXu0zqI5__m { 0% {d: path('M81,58C81,60.42,80.37,62.31,79.49,64.42C78.61,66.53,77.665786,68.375786,76.015786,70.005786C74.365786,71.635786,72.6,72.57,70.43,73.42C68.26,74.27,66.42,75,64,75C61.58,75,59.69,74.37,57.58,73.49C55.47,72.61,53.624214,71.665786,51.994214,70.015786C50.364214,68.365786,49.43,66.6,48.53,64.43C47.63,62.26,47,60.42,47,58C47,55.58,47.63,53.69,48.51,51.58C49.39,49.47,50.334214,47.624214,51.984214,45.994214C53.634214,44.364214,55.4,43.43,57.57,42.53C59.74,41.63,61.58,41,64,41C66.42,41,68.31,41.63,70.42,42.51C72.53,43.39,74.375786,44.334214,76.005786,45.984214C77.635786,47.634214,78.57,49.4,79.42,51.57C80.27,53.74,81,55.58,81,58Z')} 50% {d: path('M83,58C83,60.42,80.37,62.31,79.49,64.42C78.61,66.53,79.08,69.79,77.43,71.42C75.78,73.05,72.6,72.57,70.43,73.42C68.26,74.27,66.42,77,64,77C61.58,77,59.69,74.37,57.58,73.49C55.47,72.61,52.21,73.08,50.58,71.43C48.95,69.78,49.43,66.6,48.53,64.43C47.63,62.26,45,60.42,45,58C45,55.58,47.63,53.69,48.51,51.58C49.39,49.47,48.92,46.21,50.57,44.58C52.22,42.95,55.4,43.43,57.57,42.53C59.74,41.63,61.58,39,64,39C66.42,39,68.31,41.63,70.42,42.51C72.53,43.39,75.79,42.92,77.42,44.57C79.05,46.22,78.57,49.4,79.42,51.57C80.27,53.74,83,55.58,83,58Z')} 100% {d: path('M83,58C83,60.42,80.37,62.31,79.49,64.42C78.61,66.53,79.08,69.79,77.43,71.42C75.78,73.05,72.6,72.57,70.43,73.42C68.26,74.27,66.42,77,64,77C61.58,77,59.69,74.37,57.58,73.49C55.47,72.61,52.21,73.08,50.58,71.43C48.95,69.78,49.43,66.6,48.53,64.43C47.63,62.26,45,60.42,45,58C45,55.58,47.63,53.69,48.51,51.58C49.39,49.47,48.92,46.21,50.57,44.58C52.22,42.95,55.4,43.43,57.57,42.53C59.74,41.63,61.58,39,64,39C66.42,39,68.31,41.63,70.42,42.51C72.53,43.39,75.79,42.92,77.42,44.57C79.05,46.22,78.57,49.4,79.42,51.57C80.27,53.74,83,55.58,83,58Z')}} #eQMKmXu0zqI5_tr {animation: eQMKmXu0zqI5_tr__tr 1000ms linear infinite normal forwards}@keyframes eQMKmXu0zqI5_tr__tr { 0% {transform: translate(64px,58px) rotate(90deg);animation-timing-function: cubic-bezier(0.42,0,0.58,1)} 50% {transform: translate(64px,58px) rotate(0deg)} 100% {transform: translate(64px,58px) rotate(0deg)}} #eQMKmXu0zqI6 {animation: eQMKmXu0zqI6__m 1000ms linear infinite normal forwards}@keyframes eQMKmXu0zqI6__m { 0% {d: path('M81,58C81,60.42,80.37,62.31,79.49,64.42C78.61,66.53,77.665786,68.375786,76.015786,70.005786C74.365786,71.635786,72.6,72.57,70.43,73.42C68.26,74.27,66.42,75,64,75C61.58,75,59.69,74.37,57.58,73.49C55.47,72.61,53.624214,71.665786,51.994214,70.015786C50.364214,68.365786,49.43,66.6,48.53,64.43C47.63,62.26,47,60.42,47,58C47,55.58,47.63,53.69,48.51,51.58C49.39,49.47,50.334214,47.624214,51.984214,45.994214C53.634214,44.364214,55.4,43.43,57.57,42.53C59.74,41.63,61.58,41,64,41C66.42,41,68.31,41.63,70.42,42.51C72.53,43.39,74.375786,44.334214,76.005786,45.984214C77.635786,47.634214,78.57,49.4,79.42,51.57C80.27,53.74,81,55.58,81,58Z')} 50% {d: path('M83,58C83,60.42,80.37,62.31,79.49,64.42C78.61,66.53,79.08,69.79,77.43,71.42C75.78,73.05,72.6,72.57,70.43,73.42C68.26,74.27,66.42,77,64,77C61.58,77,59.69,74.37,57.58,73.49C55.47,72.61,52.21,73.08,50.58,71.43C48.95,69.78,49.43,66.6,48.53,64.43C47.63,62.26,45,60.42,45,58C45,55.58,47.63,53.69,48.51,51.58C49.39,49.47,48.92,46.21,50.57,44.58C52.22,42.95,55.4,43.43,57.57,42.53C59.74,41.63,61.58,39,64,39C66.42,39,68.31,41.63,70.42,42.51C72.53,43.39,75.79,42.92,77.42,44.57C79.05,46.22,78.57,49.4,79.42,51.57C80.27,53.74,83,55.58,83,58Z')} 100% {d: path('M83,58C83,60.42,80.37,62.31,79.49,64.42C78.61,66.53,79.08,69.79,77.43,71.42C75.78,73.05,72.6,72.57,70.43,73.42C68.26,74.27,66.42,77,64,77C61.58,77,59.69,74.37,57.58,73.49C55.47,72.61,52.21,73.08,50.58,71.43C48.95,69.78,49.43,66.6,48.53,64.43C47.63,62.26,45,60.42,45,58C45,55.58,47.63,53.69,48.51,51.58C49.39,49.47,48.92,46.21,50.57,44.58C52.22,42.95,55.4,43.43,57.57,42.53C59.74,41.63,61.58,39,64,39C66.42,39,68.31,41.63,70.42,42.51C72.53,43.39,75.79,42.92,77.42,44.57C79.05,46.22,78.57,49.4,79.42,51.57C80.27,53.74,83,55.58,83,58Z')}} #eQMKmXu0zqI6_tr {animation: eQMKmXu0zqI6_tr__tr 1000ms linear infinite normal forwards}@keyframes eQMKmXu0zqI6_tr__tr { 0% {transform: translate(64px,58px) rotate(90deg);animation-timing-function: cubic-bezier(0.42,0,0.58,1)} 50% {transform: translate(64px,58px) rotate(0deg)} 100% {transform: translate(64px,58px) rotate(0deg)}} #eQMKmXu0zqI6_ts {animation: eQMKmXu0zqI6_ts__ts 1000ms linear infinite normal forwards}@keyframes eQMKmXu0zqI6_ts__ts { 0% {transform: scale(0.881693,0.881693);animation-timing-function: cubic-bezier(0.42,0,0.58,1)} 50% {transform: scale(0,0)} 100% {transform: scale(0,0)}} #eQMKmXu0zqI7 {animation: eQMKmXu0zqI7_c_o 1000ms linear infinite normal forwards}@keyframes eQMKmXu0zqI7_c_o { 0% {opacity: 1;animation-timing-function: step-end} 1% {opacity: 0} 100% {opacity: 0}} #eQMKmXu0zqI8 {animation-name: eQMKmXu0zqI8_c_o, eQMKmXu0zqI8_s_do;animation-duration: 1000ms;animation-fill-mode: forwards;animation-timing-function: linear;animation-direction: normal;animation-iteration-count: infinite;}@keyframes eQMKmXu0zqI8_c_o { 0% {opacity: 0} 39% {opacity: 0} 40% {opacity: 1} 100% {opacity: 1}}@keyframes eQMKmXu0zqI8_s_do { 0% {stroke-dashoffset: 25.04} 40% {stroke-dashoffset: 25.04} 80% {stroke-dashoffset: 0} 100% {stroke-dashoffset: 0}}]]></style><g id="eQMKmXu0zqI2"><path id="eQMKmXu0zqI3" d="M54,78.86L54,89L64,83.93L74,89L74,78.86" fill="none" stroke="rgb(255,212,29)" stroke-width="4" stroke-linecap="round" stroke-linejoin="round"/><g id="eQMKmXu0zqI4_ts" transform="translate(64,58) scale(1,1)"><path id="eQMKmXu0zqI4" d="M83,58C83,60.42,80.37,62.31,79.49,64.42C78.61,66.53,79.08,69.79,77.43,71.42C75.78,73.05,72.6,72.57,70.43,73.42C68.26,74.27,66.42,77,64,77C61.58,77,59.69,74.37,57.58,73.49C55.47,72.61,52.21,73.08,50.58,71.43C48.95,69.78,49.43,66.6,48.53,64.43C47.63,62.26,45,60.42,45,58C45,55.58,47.63,53.69,48.51,51.58C49.39,49.47,48.92,46.21,50.57,44.58C52.22,42.95,55.4,43.43,57.57,42.53C59.74,41.63,61.58,39,64,39C66.42,39,68.31,41.63,70.42,42.51C72.53,43.39,75.79,42.92,77.42,44.57C79.05,46.22,78.57,49.4,79.42,51.57C80.27,53.74,83,55.58,83,58Z" transform="translate(-64,-58)" opacity="0" fill="rgb(255,212,29)" stroke="rgb(255,212,29)" stroke-width="4" stroke-linecap="round" stroke-linejoin="round"/></g><g id="eQMKmXu0zqI5_tr" transform="translate(64,58) rotate(90)"><path id="eQMKmXu0zqI5" d="M81,58C81,60.42,80.37,62.31,79.49,64.42C78.61,66.53,77.665786,68.375786,76.015786,70.005786C74.365786,71.635786,72.6,72.57,70.43,73.42C68.26,74.27,66.42,75,64,75C61.58,75,59.69,74.37,57.58,73.49C55.47,72.61,53.624214,71.665786,51.994214,70.015786C50.364214,68.365786,49.43,66.6,48.53,64.43C47.63,62.26,47,60.42,47,58C47,55.58,47.63,53.69,48.51,51.58C49.39,49.47,50.334214,47.624214,51.984214,45.994214C53.634214,44.364214,55.4,43.43,57.57,42.53C59.74,41.63,61.58,41,64,41C66.42,41,68.31,41.63,70.42,42.51C72.53,43.39,74.375786,44.334214,76.005786,45.984214C77.635786,47.634214,78.57,49.4,79.42,51.57C80.27,53.74,81,55.58,81,58Z" transform="translate(-64,-58)" fill="rgb(255,212,29)" stroke="rgb(255,212,29)" stroke-width="4" stroke-linecap="round" stroke-linejoin="round"/></g><g id="eQMKmXu0zqI6_tr" transform="translate(64,58) rotate(90)"><g id="eQMKmXu0zqI6_ts" transform="scale(0.881693,0.881693)"><path id="eQMKmXu0zqI6" d="M81,58C81,60.42,80.37,62.31,79.49,64.42C78.61,66.53,77.665786,68.375786,76.015786,70.005786C74.365786,71.635786,72.6,72.57,70.43,73.42C68.26,74.27,66.42,75,64,75C61.58,75,59.69,74.37,57.58,73.49C55.47,72.61,53.624214,71.665786,51.994214,70.015786C50.364214,68.365786,49.43,66.6,48.53,64.43C47.63,62.26,47,60.42,47,58C47,55.58,47.63,53.69,48.51,51.58C49.39,49.47,50.334214,47.624214,51.984214,45.994214C53.634214,44.364214,55.4,43.43,57.57,42.53C59.74,41.63,61.58,41,64,41C66.42,41,68.31,41.63,70.42,42.51C72.53,43.39,74.375786,44.334214,76.005786,45.984214C77.635786,47.634214,78.57,49.4,79.42,51.57C80.27,53.74,81,55.58,81,58Z" transform="translate(-64,-58)" fill="rgb(255,233,141)" stroke="none" stroke-width="4" stroke-linecap="round" stroke-linejoin="round"/></g></g><ellipse id="eQMKmXu0zqI7" rx="17" ry="17" transform="matrix(1 0 0 1 64 58)" fill="rgb(255,233,141)" stroke="rgb(255,212,29)" stroke-width="4"/><polyline id="eQMKmXu0zqI8" points="55.25,58 60.8,63.97 72.75,52.03" transform="matrix(1 0 0 1 0 1)" opacity="0" fill="none" stroke="rgb(255,255,255)" stroke-width="4" stroke-linecap="round" stroke-linejoin="round" stroke-dashoffset="25.04" stroke-dasharray="25.4"/></g></svg>