<svg id="eHlMBiNb59r1" xmlns="http://www.w3.org/2000/svg" xmlns:xlink="http://www.w3.org/1999/xlink" viewBox="0 0 128 128" shape-rendering="geometricPrecision" text-rendering="geometricPrecision"><g id="eHlMBiNb59r2"><g id="eHlMBiNb59r3"><polygon id="eHlMBiNb59r4" points="64,93 57.51,83.98 46.95,87.46 47.01,76.34 36.41,72.96 43,64 36.41,55.04 47.01,51.66 46.95,40.54 57.51,44.02 64,35 70.49,44.02 81.05,40.54 80.99,51.66 91.59,55.04 85,64 91.59,72.96 80.99,76.34 81.05,87.46 70.49,83.98 64,93" fill="rgb(84,131,204)" stroke="rgb(84,131,204)" stroke-width="4" stroke-linecap="round" stroke-linejoin="round" stroke-miterlimit="10"/><g id="eHlMBiNb59r5"><line id="eHlMBiNb59r6" x1="64" y1="74" x2="64" y2="55" transform="matrix(1 0 -0.509525 1 32.864391 0)" fill="none" stroke="rgb(255,255,255)" stroke-width="4" stroke-miterlimit="10"/><path id="eHlMBiNb59r7" d="M61,56C61,53.790861,59.209139,52,57,52C54.790861,52,53,53.790861,53,56L53,60C53,62.209139,54.790861,64,57,64C59.209139,64,61,62.209139,61,60Z" transform="matrix(0.75 0 0 0.666667 14.25 21.333312)" fill="none" stroke="rgb(255,255,255)" stroke-width="4" stroke-miterlimit="10"/><path id="eHlMBiNb59r8" d="M77,68C77,65.790861,75.209139,64,73,64C70.790861,64,69,65.790861,69,68L69,72C69,74.209139,70.790861,76,73,76C75.209139,76,77,74.209139,77,72Z" transform="matrix(0.75 0 0 0.666667 16.25 22.333312)" fill="none" stroke="rgb(255,255,255)" stroke-width="4" stroke-miterlimit="10"/></g></g></g></svg>