<svg id="eOD9sX5mQq71" xmlns="http://www.w3.org/2000/svg" xmlns:xlink="http://www.w3.org/1999/xlink" viewBox="0 0 128 128" shape-rendering="geometricPrecision" text-rendering="geometricPrecision"><style><![CDATA[#eOD9sX5mQq74_ts {animation: eOD9sX5mQq74_ts__ts 1000ms linear infinite normal forwards}@keyframes eOD9sX5mQq74_ts__ts { 0% {transform: translate(64px,64.85306px) scale(0.9,0.9)} 100% {transform: translate(64px,64.85306px) scale(1,1)}} #eOD9sX5mQq75_to {animation: eOD9sX5mQq75_to__to 1000ms linear infinite normal forwards}@keyframes eOD9sX5mQq75_to__to { 0% {transform: translate(111.041451px,109.052477px)} 100% {transform: translate(0.404723px,61.738638px)}} #eOD9sX5mQq77_ts {animation: eOD9sX5mQq77_ts__ts 1000ms linear infinite normal forwards}@keyframes eOD9sX5mQq77_ts__ts { 0% {transform: translate(64px,64.85306px) scale(0.9,0.9)} 100% {transform: translate(64px,64.85306px) scale(1,1)}}]]></style><g id="eOD9sX5mQq72"><g id="eOD9sX5mQq73" mask="url(#eOD9sX5mQq76)"><g id="eOD9sX5mQq74_ts" transform="translate(64,64.85306) scale(0.9,0.9)"><polygon id="eOD9sX5mQq74" points="0,-29.589155 8.610584,-12.142207 27.864435,-9.344458 13.932217,4.236097 17.221168,23.412149 0,14.358445 -17.221168,23.412149 -13.932217,4.236097 -27.864435,-9.344458 -8.610584,-12.142207 0,-29.589155" transform="translate(0,0)" fill="none" stroke="rgb(84,131,204)" stroke-width="4" stroke-linejoin="round"/></g><g id="eOD9sX5mQq75_to" transform="translate(111.041451,109.052477)"><path id="eOD9sX5mQq75" d="M108.828,42.71175C99.383023,35.726942,90.059135,42.71175,90.059135,42.71175C90.059135,42.71175,79.887621,49.696557,70.442644,42.71175C60.997667,35.726942,51.67378,42.71175,51.67378,42.71175C51.67378,42.71175,41.502266,49.696557,32.057289,42.71175C22.612312,35.726942,13.288424,42.71175,13.288424,42.71175C13.288424,42.71175,3.116911,49.696557,-6.328066,42.71175C-15.773043,35.726942,-25.096931,42.71175,-25.096931,42.71175L-25.096931,80.38L128.44449,80.38L128.44449,42.71175C128.44449,42.71175,118.272977,49.691485,108.828,42.71175Z" transform="scale(1.292474,1.292474) translate(-50,-60)" fill="rgb(84,131,204)" stroke="none" stroke-width="1"/></g><mask id="eOD9sX5mQq76" mask-type="luminance"><g id="eOD9sX5mQq77_ts" transform="translate(64,64.85306) scale(0.9,0.9)"><polygon id="eOD9sX5mQq77" points="0,-29.589155 8.610584,-12.142207 27.864435,-9.344458 13.932217,4.236097 17.221168,23.412149 0,14.358445 -17.221168,23.412149 -13.932217,4.236097 -27.864435,-9.344458 -8.610584,-12.142207 0,-29.589155" transform="translate(0,0)" fill="rgb(255,255,255)" stroke="rgb(255,255,255)" stroke-width="4" stroke-linejoin="round"/></g></mask></g></g></svg>