<svg id="edTS03714af1" xmlns="http://www.w3.org/2000/svg" xmlns:xlink="http://www.w3.org/1999/xlink" viewBox="0 0 128 128" shape-rendering="geometricPrecision" text-rendering="geometricPrecision"><style><![CDATA[#edTS03714af3_ts {animation: edTS03714af3_ts__ts 1000ms linear infinite normal forwards}@keyframes edTS03714af3_ts__ts { 0% {transform: translate(64px,64px) scale(1,1);animation-timing-function: cubic-bezier(0.42,0,0.58,1)} 20% {transform: translate(64px,64px) scale(0.8,0.8);animation-timing-function: cubic-bezier(0.5,0,0.5,1)} 60% {transform: translate(64px,64px) scale(1.266789,1.266789);animation-timing-function: cubic-bezier(0.42,0,0.58,1)} 80% {transform: translate(64px,64px) scale(1,1)} 100% {transform: translate(64px,64px) scale(1,1)}} #edTS03714af5 {animation: edTS03714af5__m 1000ms linear infinite normal forwards}@keyframes edTS03714af5__m { 0% {d: path('M64,37.599985C72.226861,37.495113,78.879629,41.238281,84.560485,46.919138C94.161927,56.520581,96.390496,74.30065,82.468394,88.222752C79.132784,91.717041,71.266716,95.208649,64.000001,95.208649C64.000001,95.208649,64.000001,95.208649,64.000001,95.208649C64.000001,95.208649,64.000001,95.208649,64.000001,95.208649C57.024576,95.208648,47.846087,90.966335,42.942455,85.662357C31.340704,74.060606,35.433095,55.080369,42.314131,48.199332C47.594926,42.918537,54.944262,37.599984,64,37.599985L64,37.599985L64,37.599985Z')} 40% {d: path('M64,37.599985C72.226861,37.495113,78.879629,41.238281,84.560485,46.919138C94.161927,56.520581,96.390496,74.30065,82.468394,88.222752C79.132784,91.717041,71.266716,95.208649,64.000001,95.208649C64.000001,95.208649,64.000001,95.208649,64.000001,95.208649C64.000001,95.208649,64.000001,95.208649,64.000001,95.208649C57.024576,95.208648,47.846087,90.966335,42.942455,85.662357C31.340704,74.060606,35.433095,55.080369,42.314131,48.199332C47.594926,42.918537,54.944262,37.599984,64,37.599985L64,37.599985L64,37.599985Z');animation-timing-function: cubic-bezier(0.25,1,0.25,1)} 60% {d: path('M69.43,45.00162C74.36998,39.9495,82.53821,39.50534,87.91202,44.47944C93.28582,49.45354,93.31774,58.07389,88.17,63.22162C88.17,63.22162,66.84,84.55162,66.84,84.55162C66.08893,85.30887,65.06655,85.73481,64,85.73481C62.93345,85.73481,61.91107,85.30887,61.16,84.55162C61.16,84.55162,39.83,63.22162,39.83,63.22162C34.68226,58.07389,34.71418,49.45354,40.08798,44.47944C45.46178,39.50534,53.63002,39.94951,58.57,45.00162L64,50.42162L69.43,45.00162Z')} 100% {d: path('M69.43,45.00162C74.36998,39.9495,82.53821,39.50534,87.91202,44.47944C93.28582,49.45354,93.31774,58.07389,88.17,63.22162C88.17,63.22162,66.84,84.55162,66.84,84.55162C66.08893,85.30887,65.06655,85.73481,64,85.73481C62.93345,85.73481,61.91107,85.30887,61.16,84.55162C61.16,84.55162,39.83,63.22162,39.83,63.22162C34.68226,58.07389,34.71418,49.45354,40.08798,44.47944C45.46178,39.50534,53.63002,39.94951,58.57,45.00162L64,50.42162L69.43,45.00162Z')}} #edTS03714af5_to {animation: edTS03714af5_to__to 1000ms linear infinite normal forwards}@keyframes edTS03714af5_to__to { 0% {transform: translate(64px,65.302772px)} 40% {transform: translate(64px,65.302772px)} 60% {transform: translate(64px,63.367404px)} 100% {transform: translate(64px,63.367404px)}} #edTS03714af5_ts {animation: edTS03714af5_ts__ts 1000ms linear infinite normal forwards}@keyframes edTS03714af5_ts__ts { 0% {transform: scale(0,0)} 20% {transform: scale(0,0)} 40% {transform: scale(0.16,0.16);animation-timing-function: cubic-bezier(0.39,0.575,0.565,1)} 60% {transform: scale(1,1)} 100% {transform: scale(1,1)}} #edTS03714af9 {animation: edTS03714af9_s_do 1000ms linear infinite normal forwards}@keyframes edTS03714af9_s_do { 0% {stroke-dashoffset: 30.53} 70% {stroke-dashoffset: 30.53;animation-timing-function: cubic-bezier(0,0,0.58,1)} 100% {stroke-dashoffset: 0}}]]></style><g id="edTS03714af2"><g id="edTS03714af3_ts" transform="translate(64,64) scale(1,1)"><g id="edTS03714af3" transform="translate(-64,-64)"><path id="edTS03714af4" d="M61.16,85.19L39.83,63.86C37.301588,61.331032,35.919842,57.876505,36.006762,54.301454C36.093682,50.726403,37.641675,47.343106,40.29,44.94C45.601866,40.28046,53.630024,40.587884,58.57,45.64L64,51.06L69.43,45.64C74.369976,40.587884,82.398134,40.28046,87.71,44.94C90.358325,47.343106,91.906318,50.726403,91.993238,54.301454C92.080158,57.876505,90.698412,61.331032,88.17,63.86L66.84,85.19C66.088934,85.947251,65.06655,86.373193,64,86.373193C62.93345,86.373193,61.911066,85.947251,61.16,85.19Z" transform="matrix(1 0 0 1 0 -0.638382)" fill="rgb(169,193,229)" stroke="rgb(169,193,229)" stroke-width="4" stroke-miterlimit="10"/><g id="edTS03714af5_to" transform="translate(64,65.302772)"><g id="edTS03714af5_ts" transform="scale(0,0)"><path id="edTS03714af5" d="M64,37.599985C72.226861,37.495113,78.879629,41.238281,84.560485,46.919138C94.161927,56.520581,96.390496,74.30065,82.468394,88.222752C79.132784,91.717041,71.266716,95.208649,64.000001,95.208649C64.000001,95.208649,64.000001,95.208649,64.000001,95.208649C64.000001,95.208649,64.000001,95.208649,64.000001,95.208649C57.024576,95.208648,47.846087,90.966335,42.942455,85.662357C31.340704,74.060606,35.433095,55.080369,42.314131,48.199332C47.594926,42.918537,54.944262,37.599984,64,37.599985L64,37.599985L64,37.599985Z" transform="translate(-64,-63.367404)" fill="rgb(84,131,204)" stroke="rgb(84,131,204)" stroke-width="4" stroke-miterlimit="10"/></g></g><g id="edTS03714af6" mask="url(#edTS03714af8)"><path id="edTS03714af7" d="M85.348985,47.133822C89.962168,48.886117,92.558212,54.869539,90.034179,59.286597Q87.510146,63.703655,79.522621,71.093335" transform="matrix(1 0 0 1 -3.064897 -1.532446)" fill="none" stroke="rgb(255,255,255)" stroke-width="4" stroke-linecap="round" stroke-linejoin="round" stroke-dasharray="14,6,3,6,0.1,32.05"/><mask id="edTS03714af8" mask-type="luminance"><path id="edTS03714af9" d="M85.348985,47.133822C89.962168,48.886117,92.558212,54.869539,90.034179,59.286597Q87.510146,63.703655,79.522621,71.093335" transform="matrix(1 0 0 1 -3.064897 -1.532446)" fill="none" stroke="rgb(255,255,255)" stroke-width="4" stroke-linecap="round" stroke-linejoin="round" stroke-dashoffset="30.53" stroke-dasharray="30.53"/></mask></g></g></g></g></svg>