<svg id="eDsRy0iW3lI1" xmlns="http://www.w3.org/2000/svg" xmlns:xlink="http://www.w3.org/1999/xlink" viewBox="0 0 128 128" shape-rendering="geometricPrecision" text-rendering="geometricPrecision"><style><![CDATA[#eDsRy0iW3lI3 {animation: eDsRy0iW3lI3__m 1200ms linear infinite normal forwards}@keyframes eDsRy0iW3lI3__m { 0% {d: path('M41,60C41,60,41,83,41,83C41,85.209139,42.790861,87,45,87L83,87C85.209139,87,87,85.209139,87,83C87,83,87,60,87,60L41,60Z');animation-timing-function: cubic-bezier(0.215,0.61,0.355,0.95)} 33.333333% {d: path('M40.062453,63.812642C38.795271,68.676167,37.787918,79.695872,39.6314,83.466579C40.541089,85.465248,42.790861,87,45,87L83,87C85.209139,87,87.480984,85.514811,88.385326,83.51353C90.201924,79.770597,88.992772,69.010189,87.937547,63.812642L40.062453,63.812642Z')} 50% {d: path('M40,64C38.648407,69.1875,37.573951,79.475774,39.540233,83.497659C40.510519,85.482308,42.790861,87,45,87L83,87C85.209139,87,87.513024,85.535172,88.477607,83.547738C90.415214,79.555476,89.125516,69.543772,88,64L40,64Z');animation-timing-function: cubic-bezier(0.1,0,0.8,0.995)} 55% {d: path('M41,60C41,60,41,83,41,83C41,85.209139,42.790861,87,45,87L83,87C85.209139,87,87,85.209139,87,83C87,83,87,60,87,60L41,60Z')} 77.5% {d: path('M41,60C41,60,41,83,41,83C41,85.209139,42.790861,87,45,87L83,87C85.209139,87,87,85.209139,87,83C87,83,87,60,87,60L41,60Z');animation-timing-function: cubic-bezier(0,0,0.58,1)} 83.333333% {d: path('M40,62C40,62,40,83,40,83C40,85.209139,41.790861,87,44,87L84,87C86.209139,87,88,85.209139,88,83C88,83,88,62,88,62L40,62Z');animation-timing-function: cubic-bezier(0.42,0,1,1)} 100% {d: path('M41,60C41,60,41,83,41,83C41,85.209139,42.790861,87,45,87L83,87C85.209139,87,87,85.209139,87,83C87,83,87,60,87,60L41,60Z')}} #eDsRy0iW3lI5_to {animation: eDsRy0iW3lI5_to__to 1200ms linear infinite normal forwards}@keyframes eDsRy0iW3lI5_to__to { 0% {transform: translate(64px,53.000001px);animation-timing-function: cubic-bezier(0.215,0.61,0.355,0.95)} 33.333333% {transform: translate(64px,56.75019px)} 50% {transform: translate(64px,57.000001px);animation-timing-function: cubic-bezier(0,0,0.58,1)} 58.333333% {transform: translate(64.188001px,40.000001px);animation-timing-function: cubic-bezier(0.5,0,1,1)} 83.333333% {transform: translate(64px,55.000001px);animation-timing-function: cubic-bezier(0.42,0,1,1)} 100% {transform: translate(64px,53.000001px)}} #eDsRy0iW3lI5_tr {animation: eDsRy0iW3lI5_tr__tr 1200ms linear infinite normal forwards}@keyframes eDsRy0iW3lI5_tr__tr { 0% {transform: rotate(0deg)} 50% {transform: rotate(0deg);animation-timing-function: cubic-bezier(0,0,0.58,1)} 55% {transform: rotate(5.542988deg);animation-timing-function: cubic-bezier(0.42,0,0.58,1)} 61.666667% {transform: rotate(-0.771052deg);animation-timing-function: cubic-bezier(0.42,0,1,1)} 66.666667% {transform: rotate(0deg)} 100% {transform: rotate(0deg)}} #eDsRy0iW3lI6 {animation: eDsRy0iW3lI6__m 1200ms linear infinite normal forwards}@keyframes eDsRy0iW3lI6__m { 0% {d: path('M87,46C87,46,41,46,41,46C38.790861,46,37,47.790861,37,50L37,60C37,60,91,60,91,60L91,50C91,47.790861,89.209139,46,87,46Z')} 50% {d: path('M87,46C87,46,41,46,41,46C38.790861,46,37,47.790861,37,50L37,60C37,60,91,60,91,60L91,50C91,47.790861,89.209139,46,87,46Z');animation-timing-function: cubic-bezier(0.1,0,0.8,0.995)} 58.333333% {d: path('M86.967644,45.787696C74.602735,43.602296,52.648761,43.845896,40.967644,45.787696C38.788408,46.149959,37,47.790861,37,50L37,60C51.075163,57.898276,77.07057,57.946506,91,60L91,50C91,47.790861,89.143067,46.172185,86.967644,45.787696Z');animation-timing-function: cubic-bezier(0.6,0,1,1)} 66.666667% {d: path('M87,46C87,46,41,46,41,46C38.790861,46,37,47.790861,37,50L37,60C37,60,91,60,91,60L91,50C91,47.790861,89.209139,46,87,46Z')} 100% {d: path('M87,46C87,46,41,46,41,46C38.790861,46,37,47.790861,37,50L37,60C37,60,91,60,91,60L91,50C91,47.790861,89.209139,46,87,46Z')}} #eDsRy0iW3lI7_to {animation: eDsRy0iW3lI7_to__to 1200ms linear infinite normal forwards}@keyframes eDsRy0iW3lI7_to__to { 0% {transform: translate(64px,45.927295px)} 50% {transform: translate(64px,45.927295px);animation-timing-function: cubic-bezier(0.1,0,0.8,0.995)} 58.333333% {transform: translate(64px,43.927295px)} 62.5% {transform: translate(64px,43.927295px)} 83.333333% {transform: translate(64px,46.927295px);animation-timing-function: cubic-bezier(0.42,0,1,1)} 100% {transform: translate(64px,45.927295px)}} #eDsRy0iW3lI8_tr {animation: eDsRy0iW3lI8_tr__tr 1200ms linear infinite normal forwards}@keyframes eDsRy0iW3lI8_tr__tr { 0% {transform: translate(66px,47px) rotate(0deg)} 58.333333% {transform: translate(66px,47px) rotate(0deg);animation-timing-function: cubic-bezier(0.8,-0.8,0.735,0.045)} 83.333333% {transform: translate(66px,47px) rotate(9deg);animation-timing-function: cubic-bezier(0.6,0,1,1)} 100% {transform: translate(66px,47px) rotate(0deg)}} #eDsRy0iW3lI9_tr {animation: eDsRy0iW3lI9_tr__tr 1200ms linear infinite normal forwards}@keyframes eDsRy0iW3lI9_tr__tr { 0% {transform: translate(61.887077px,47.003191px) rotate(0deg)} 58.333333% {transform: translate(61.887077px,47.003191px) rotate(0deg);animation-timing-function: cubic-bezier(0.8,-0.8,0.735,0.045)} 83.333333% {transform: translate(61.887077px,47.003191px) rotate(-9deg);animation-timing-function: cubic-bezier(0.6,0,1,1)} 100% {transform: translate(61.887077px,47.003191px) rotate(0deg)}}]]></style><g id="eDsRy0iW3lI2"><path id="eDsRy0iW3lI3" d="M41,60C41,60,41,83,41,83C41,85.209139,42.790861,87,45,87L83,87C85.209139,87,87,85.209139,87,83C87,83,87,60,87,60L41,60Z" transform="matrix(1 0 0 1 0 1)" fill="none" stroke="rgb(84,131,204)" stroke-width="4" stroke-miterlimit="10"/><path id="eDsRy0iW3lI4" d="M62,62L62,85C62,86.104569,62.895431,87,64,87C65.104569,87,66,86.104569,66,85L66,62Z" transform="matrix(1 0 0 1 0 1)" fill="rgb(255,84,132)" fill-opacity="0.5" stroke="rgb(84,131,204)" stroke-width="4" stroke-miterlimit="10"/><g id="eDsRy0iW3lI5_to" transform="translate(64,53.000001)"><g id="eDsRy0iW3lI5_tr" transform="rotate(0)"><g id="eDsRy0iW3lI5" transform="translate(-64,-53)"><path id="eDsRy0iW3lI6" d="M87,46C87,46,41,46,41,46C38.790861,46,37,47.790861,37,50L37,60C37,60,91,60,91,60L91,50C91,47.790861,89.209139,46,87,46Z" transform="matrix(1 0 0 1 0 1)" fill="none" stroke="rgb(84,131,204)" stroke-width="4" stroke-linejoin="round"/><g id="eDsRy0iW3lI7_to" transform="translate(64,45.927295)"><g id="eDsRy0iW3lI7" transform="translate(-64,-45.927294)"><g id="eDsRy0iW3lI8_tr" transform="translate(66,47) rotate(0)"><path id="eDsRy0iW3lI8" d="M83,36C82.08,32,77.07,30.72,73.65,32.93C69.73,35.47,66.39,39.62,66,47C69.21,44.32,74.15,44.58,78,43.74C81.406331,42.825899,83.567151,39.48095,83,36Z" transform="translate(-66,-46)" fill="none" stroke="rgb(84,131,204)" stroke-width="4" stroke-linejoin="round"/></g><g id="eDsRy0iW3lI9_tr" transform="translate(61.887077,47.003191) rotate(0)"><path id="eDsRy0iW3lI9" d="M54.35,32.93C50.93,30.72,45.92,32,45,36C44.432849,39.48095,46.593669,42.825899,50,43.74C53.89,44.58,58.83,44.32,62,47C61.61,39.62,58.27,35.47,54.35,32.93Z" transform="translate(-61.887077,-46.003191)" fill="none" stroke="rgb(84,131,204)" stroke-width="4" stroke-linejoin="round"/></g><path id="eDsRy0iW3lI10" d="M66,59L66,44C66,42.895431,65.104569,42,64,42C62.895431,42,62,42.895431,62,44L62,59Z" transform="matrix(1 0 0 1 0 1)" fill="rgb(255,84,132)" fill-opacity="0.5" stroke="rgb(84,131,204)" stroke-width="4" stroke-miterlimit="10"/></g></g></g></g></g></g></svg>