<svg id="e4COl9fNpgB1" xmlns="http://www.w3.org/2000/svg" xmlns:xlink="http://www.w3.org/1999/xlink" viewBox="0 0 128 128" shape-rendering="geometricPrecision" text-rendering="geometricPrecision"><style><![CDATA[#e4COl9fNpgB4_ts {animation: e4COl9fNpgB4_ts__ts 1000ms linear infinite normal forwards}@keyframes e4COl9fNpgB4_ts__ts { 0% {transform: translate(64px,64.85306px) scale(0.9,0.9)} 100% {transform: translate(64px,64.85306px) scale(1,1)}} #e4COl9fNpgB5_to {animation: e4COl9fNpgB5_to__to 1000ms linear infinite normal forwards}@keyframes e4COl9fNpgB5_to__to { 0% {transform: translate(111.041451px,109.052477px)} 100% {transform: translate(0.404723px,61.738638px)}} #e4COl9fNpgB7_ts {animation: e4COl9fNpgB7_ts__ts 1000ms linear infinite normal forwards}@keyframes e4COl9fNpgB7_ts__ts { 0% {transform: translate(64px,64.85306px) scale(0.9,0.9)} 100% {transform: translate(64px,64.85306px) scale(1,1)}}]]></style><g id="e4COl9fNpgB2"><g id="e4COl9fNpgB3" transform="matrix(1 0 0 1 0.000002 0.000001)" mask="url(#e4COl9fNpgB6)"><g id="e4COl9fNpgB4_ts" transform="translate(64,64.85306) scale(0.9,0.9)"><polygon id="e4COl9fNpgB4" points="0,-29.589155 8.610584,-12.142207 27.864435,-9.344458 13.932217,4.236097 17.221168,23.412149 0,14.358445 -17.221168,23.412149 -13.932217,4.236097 -27.864435,-9.344458 -8.610584,-12.142207 0,-29.589155" transform="translate(0,0)" fill="rgb(255,233,141)" stroke="rgb(255,212,29)" stroke-width="4" stroke-linejoin="round"/></g><g id="e4COl9fNpgB5_to" transform="translate(111.041451,109.052477)"><path id="e4COl9fNpgB5" d="M108.828,42.71175C99.383023,35.726942,90.059135,42.71175,90.059135,42.71175C90.059135,42.71175,79.887621,49.696557,70.442644,42.71175C60.997667,35.726942,51.67378,42.71175,51.67378,42.71175C51.67378,42.71175,41.502266,49.696557,32.057289,42.71175C22.612312,35.726942,13.288424,42.71175,13.288424,42.71175C13.288424,42.71175,3.116911,49.696557,-6.328066,42.71175C-15.773043,35.726942,-25.096931,42.71175,-25.096931,42.71175L-25.096931,80.38L128.44449,80.38L128.44449,42.71175C128.44449,42.71175,118.272977,49.691485,108.828,42.71175Z" transform="scale(1.292474,1.292474) translate(-50,-60)" fill="rgb(255,212,29)" stroke="none" stroke-width="1"/></g><mask id="e4COl9fNpgB6" mask-type="luminance"><g id="e4COl9fNpgB7_ts" transform="translate(64,64.85306) scale(0.9,0.9)"><polygon id="e4COl9fNpgB7" points="0,-29.589155 8.610584,-12.142207 27.864435,-9.344458 13.932217,4.236097 17.221168,23.412149 0,14.358445 -17.221168,23.412149 -13.932217,4.236097 -27.864435,-9.344458 -8.610584,-12.142207 0,-29.589155" transform="translate(0,0)" fill="rgb(255,255,255)" stroke="rgb(255,255,255)" stroke-width="4" stroke-linejoin="round"/></g></mask></g></g></svg>