<svg id="ejXIRSqKHGF1" xmlns="http://www.w3.org/2000/svg" xmlns:xlink="http://www.w3.org/1999/xlink" viewBox="0 0 128 128" shape-rendering="geometricPrecision" text-rendering="geometricPrecision"><g id="ejXIRSqKHGF2"><path id="ejXIRSqKHGF3" d="M51.38,78.72C48.06,79.81,46,81.32,46,83C46,86.31,54.06,89,64,89C73.94,89,82,86.31,82,83C82,81.32,79.94,79.81,76.62,78.72" fill="none" fill-opacity="0.5" stroke="rgb(84,131,204)" stroke-width="4" stroke-linecap="round"/><path id="ejXIRSqKHGF4" d="M52,68.69C47.12584,63.83267,45.6606,56.51606,48.28843,50.15638C50.91626,43.79669,57.11879,39.64841,64,39.64841C70.88121,39.64841,77.08375,43.7967,79.71157,50.15638C82.3394,56.51607,80.87416,63.83268,76,68.69L64,80.69C58.732405,75.702825,52,68.69,52,68.69ZM64,63C67.31371,63,70,60.31371,70,57C70,53.68629,67.31371,51,64,51C60.68629,51,58,53.68629,58,57C58,60.31371,60.68629,63,64,63Z" fill="rgb(84,131,204)" fill-opacity="0" stroke="rgb(84,131,204)" stroke-width="4" stroke-linejoin="round" stroke-miterlimit="10"/></g></svg>