<svg id="eavHuoIt9yL1" xmlns="http://www.w3.org/2000/svg" xmlns:xlink="http://www.w3.org/1999/xlink" viewBox="0 0 128 128" shape-rendering="geometricPrecision" text-rendering="geometricPrecision"><g id="eavHuoIt9yL2"><path id="eavHuoIt9yL3" d="M39,47.13C39,47.13,59,63,59,63C59,63,59,89,59,89L69,85C69,85,69,63,69,63C69,63,89,47.13,89,47.13C90.329266,46.072289,90.845472,44.290353,90.287402,42.685903C89.729333,41.081454,88.218729,40.004495,86.52,40L41.52,40C39.813915,39.987402,38.287633,41.058336,37.71909,42.666951C37.150547,44.275566,37.664906,46.067735,39,47.13Z" transform="matrix(1 0 0 1 0 -0.499945)" fill="none" stroke="rgb(84,131,204)" stroke-width="4" stroke-linecap="round" stroke-linejoin="round"/><g id="eavHuoIt9yL4" mask="url(#eavHuoIt9yL8)"><line id="eavHuoIt9yL5" x1="-14" y1="0" x2="14" y2="0" transform="matrix(1 0 0 1 64 64)" opacity="0" fill="none" stroke="rgb(84,131,204)" stroke-width="4" stroke-linecap="round" stroke-dashoffset="14" stroke-dasharray="0,28"/><line id="eavHuoIt9yL6" x1="-14" y1="0" x2="14" y2="0" transform="matrix(1 0 0 1 64 77)" opacity="0" fill="none" stroke="rgb(84,131,204)" stroke-width="4" stroke-linecap="round" stroke-dashoffset="14" stroke-dasharray="0,28"/><line id="eavHuoIt9yL7" x1="-14" y1="0" x2="14" y2="0" transform="matrix(1 0 0 1 64 52)" opacity="0" fill="none" stroke="rgb(84,131,204)" stroke-width="4" stroke-linecap="round" stroke-dashoffset="14" stroke-dasharray="0,28"/><mask id="eavHuoIt9yL8" mask-type="luminance"><path id="eavHuoIt9yL9" d="M39.5,45C39.5,45,39.5,85,39.5,85C39.5,87.455359,41.438294,89,43.52,89L84.52,89C86.809594,89,88.5,87.150911,88.5,85C88.5,85,88.500001,45.43532,88.500001,45.43532C88.500001,43.820928,88.425067,42.666762,87.912717,41.90672C87.400367,41.146678,86.218729,40.004495,84.52,40L43.52,40C41.813915,39.987402,40.739391,40.987581,40.141416,41.805863C39.543441,42.624145,39.5,43.665863,39.5,45Z" transform="matrix(1 0 0 1 0 -0.499945)" fill="rgb(255,255,255)" stroke="none" stroke-width="4" stroke-linecap="round" stroke-linejoin="round"/><ellipse id="eavHuoIt9yL10" rx="1.505305" ry="1.505305" transform="matrix(0 0 0 0 74.979646 77)" fill="rgb(0,0,0)" stroke="none" stroke-width="3"/><ellipse id="eavHuoIt9yL11" rx="1.484951" ry="1.484951" transform="matrix(0 0 0 0 75 52)" fill="rgb(0,0,0)" stroke="none" stroke-width="3"/><ellipse id="eavHuoIt9yL12" rx="1.505304" ry="1.505304" transform="matrix(0 0 0 0 54 64)" fill="rgb(0,0,0)" stroke="none" stroke-width="3"/></mask></g><ellipse id="eavHuoIt9yL13" rx="1.484951" ry="1.484951" transform="matrix(0 0 0 0 75 52)" fill="none" stroke="rgb(84,131,204)" stroke-width="3"/><ellipse id="eavHuoIt9yL14" rx="1.505304" ry="1.505304" transform="matrix(0 0 0 0 54 64)" fill="none" stroke="rgb(84,131,204)" stroke-width="3"/><ellipse id="eavHuoIt9yL15" rx="1.505305" ry="1.505305" transform="matrix(0 0 0 0 74.979646 77)" fill="none" stroke="rgb(84,131,204)" stroke-width="3"/></g></svg>