<svg id="e8STZrucUMR1" xmlns="http://www.w3.org/2000/svg" xmlns:xlink="http://www.w3.org/1999/xlink" viewBox="0 0 128 128" shape-rendering="geometricPrecision" text-rendering="geometricPrecision"><g id="e8STZrucUMR2"><g id="e8STZrucUMR3" transform="matrix(1 0 0 1 0 -22)"><rect id="e8STZrucUMR4" width="46" height="30" rx="6" ry="6" transform="matrix(1 0 0 1 41 71)" fill="rgb(255,233,142)" stroke="rgb(255,212,29)" stroke-width="4" stroke-linecap="round" stroke-linejoin="round"/><rect id="e8STZrucUMR5" width="2" height="2" rx="0" ry="0" transform="matrix(1 0 0 1 48 78)" fill="none" stroke="rgb(255,212,29)" stroke-width="4" stroke-linecap="round" stroke-linejoin="round"/><line id="e8STZrucUMR6" x1="45" y1="87" x2="83" y2="87" fill="none" stroke="rgb(255,212,29)" stroke-width="4" stroke-linejoin="round" stroke-dasharray="7,3.3"/><line id="e8STZrucUMR7" x1="45" y1="94" x2="67" y2="94" transform="matrix(1 0 0 1 16 0)" fill="none" stroke="rgb(255,212,29)" stroke-width="4" stroke-miterlimit="10" stroke-dasharray="10,2"/></g><g id="e8STZrucUMR8" transform="matrix(1.30436 0 0 1.3 -19.47904 -8.8)"><rect id="e8STZrucUMR9" width="46" height="30" rx="6" ry="6" transform="matrix(1 0 0 1 41 41)" fill="rgb(255,233,142)" stroke="rgb(255,212,29)" stroke-width="3.1" stroke-linecap="round" stroke-linejoin="round"/><line id="e8STZrucUMR10" x1="41" y1="52" x2="87" y2="52" fill="none" stroke="rgb(255,212,29)" stroke-width="4"/><rect id="e8STZrucUMR11" width="2" height="2" rx="0" ry="0" transform="matrix(1 0 0 1 48 62)" fill="none" stroke="rgb(255,212,29)" stroke-width="4" stroke-linecap="round" stroke-linejoin="round"/><circle id="e8STZrucUMR12" r="1" transform="matrix(1 0 0 1 78 63)" fill="rgb(255,212,29)" stroke="rgb(255,212,29)" stroke-width="4" stroke-linecap="round" stroke-linejoin="round"/><circle id="e8STZrucUMR13" r="1" transform="matrix(1 0 0 1 73 63)" fill="rgb(255,212,29)" stroke="rgb(255,212,29)" stroke-width="4" stroke-linecap="round" stroke-linejoin="round"/></g></g></svg>