<svg id="eZDuT8y5lc71" xmlns="http://www.w3.org/2000/svg" xmlns:xlink="http://www.w3.org/1999/xlink" viewBox="0 0 128 128" shape-rendering="geometricPrecision" text-rendering="geometricPrecision"><style><![CDATA[#eZDuT8y5lc73_ts {animation: eZDuT8y5lc73_ts__ts 1000ms linear infinite normal forwards}@keyframes eZDuT8y5lc73_ts__ts { 0% {transform: translate(64px,64px) scale(1,1);animation-timing-function: cubic-bezier(0.215,0.61,0.355,1)} 50% {transform: translate(64px,64px) scale(1.2,1.2)} 100% {transform: translate(64px,64px) scale(1.2,1.2)}} #eZDuT8y5lc74_to {animation: eZDuT8y5lc74_to__to 1000ms linear infinite normal forwards}@keyframes eZDuT8y5lc74_to__to { 0% {transform: translate(70px,87px)} 50% {transform: translate(71.666666px,86.166667px)} 100% {transform: translate(71.666666px,86.166667px)}} #eZDuT8y5lc74_ts {animation: eZDuT8y5lc74_ts__ts 1000ms linear infinite normal forwards}@keyframes eZDuT8y5lc74_ts__ts { 0% {transform: scale(1,1)} 50% {transform: scale(0,1)} 100% {transform: scale(0,1)}} #eZDuT8y5lc74 {animation: eZDuT8y5lc74_c_o 1000ms linear infinite normal forwards}@keyframes eZDuT8y5lc74_c_o { 0% {opacity: 1;animation-timing-function: cubic-bezier(0,0,0.58,1)} 20% {opacity: 0} 100% {opacity: 0}} #eZDuT8y5lc75_tk {animation: eZDuT8y5lc75_tk__tk 1000ms linear infinite normal forwards}@keyframes eZDuT8y5lc75_tk__tk { 0% {transform: translate(70px,87px) skewX(0deg) skewY(0deg);animation-timing-function: cubic-bezier(0.215,0.61,0.355,1)} 50% {transform: translate(70px,87px) skewX(0deg) skewY(25deg)} 100% {transform: translate(70px,87px) skewX(0deg) skewY(25deg)}} #eZDuT8y5lc75 {animation: eZDuT8y5lc75_s_w 1000ms linear infinite normal forwards}@keyframes eZDuT8y5lc75_s_w { 0% {stroke-width: 4;animation-timing-function: cubic-bezier(0.215,0.61,0.355,1)} 50% {stroke-width: 3.33} 100% {stroke-width: 3.33}} #eZDuT8y5lc76 {animation-name: eZDuT8y5lc76__m, eZDuT8y5lc76_s_w;animation-duration: 1000ms;animation-fill-mode: forwards;animation-timing-function: linear;animation-direction: normal;animation-iteration-count: infinite;}@keyframes eZDuT8y5lc76__m { 0% {d: path('M82,67.3L64,49.3L46,67.3L46,85C46,86.104569,46.895431,87,48,87L58,87L58,73C58,71.895431,58.895431,71,60,71L68,71C69.104569,71,70,71.895431,70,73L70,87L80,87C81.104569,87,82,86.104569,82,85L82,67.3Z');animation-timing-function: cubic-bezier(0.215,0.61,0.355,1)} 50% {d: path('M82,67.3L64,49.3L46,67.3L46,85C46,86.104569,46.895431,87,48,87L55.166667,87L55.166667,69.333334C55.166667,68.228765,56.062098,67.333334,57.166667,67.333334L70.833333,67.333334C71.937902,67.333334,72.833333,68.228765,72.833333,69.333334L72.833333,87L80,87C81.104569,87,82,86.104569,82,85L82,67.3Z')} 100% {d: path('M82,67.3L64,49.3L46,67.3L46,85C46,86.104569,46.895431,87,48,87L55.166667,87L55.166667,69.333334C55.166667,68.228765,56.062098,67.333334,57.166667,67.333334L70.833333,67.333334C71.937902,67.333334,72.833333,68.228765,72.833333,69.333334L72.833333,87L80,87C81.104569,87,82,86.104569,82,85L82,67.3Z')}}@keyframes eZDuT8y5lc76_s_w { 0% {stroke-width: 4;animation-timing-function: cubic-bezier(0.215,0.61,0.355,1)} 50% {stroke-width: 3.33} 100% {stroke-width: 3.33}} #eZDuT8y5lc77_to {animation: eZDuT8y5lc77_to__to 1000ms linear infinite normal forwards}@keyframes eZDuT8y5lc77_to__to { 0% {transform: translate(64.000002px,96.222223px)} 30% {transform: translate(64.000002px,96.222223px);animation-timing-function: cubic-bezier(0.42,0,0.58,1)} 70% {transform: translate(64.000002px,78.999999px);animation-timing-function: cubic-bezier(0.42,0,0.58,1)} 100% {transform: translate(64.000002px,80.666665px)}} #eZDuT8y5lc77 {animation: eZDuT8y5lc77_c_o 1000ms linear infinite normal forwards}@keyframes eZDuT8y5lc77_c_o { 0% {opacity: 0} 30% {opacity: 0;animation-timing-function: cubic-bezier(0.42,0,0.58,1)} 60% {opacity: 1} 100% {opacity: 1}} #eZDuT8y5lc710 {animation: eZDuT8y5lc710_s_w 1000ms linear infinite normal forwards}@keyframes eZDuT8y5lc710_s_w { 0% {stroke-width: 4;animation-timing-function: cubic-bezier(0.215,0.61,0.355,1)} 50% {stroke-width: 3.33} 100% {stroke-width: 3.33}}]]></style><g id="eZDuT8y5lc72"><g id="eZDuT8y5lc73_ts" transform="translate(64,64) scale(1,1)"><g id="eZDuT8y5lc73" transform="translate(-64,-64)"><g id="eZDuT8y5lc74_to" transform="translate(70,87)"><g id="eZDuT8y5lc74_ts" transform="scale(1,1)"><g id="eZDuT8y5lc74" transform="translate(-70,-87)"><g id="eZDuT8y5lc75_tk" transform="translate(70,87) skewX(0) skewY(0)"><path id="eZDuT8y5lc75" d="M68,71L60,71C58.895431,71,58,71.895431,58,73L58,87L70,87L70,73C70,71.895431,69.104569,71,68,71Z" transform="translate(-70,-87)" fill="none" stroke="rgb(84,131,204)" stroke-width="4" stroke-linecap="round" stroke-linejoin="round"/></g></g></g></g><path id="eZDuT8y5lc76" d="M82,67.3L64,49.3L46,67.3L46,85C46,86.104569,46.895431,87,48,87L58,87L58,73C58,71.895431,58.895431,71,60,71L68,71C69.104569,71,70,71.895431,70,73L70,87L80,87C81.104569,87,82,86.104569,82,85L82,67.3Z" fill="none" stroke="rgb(84,131,204)" stroke-width="4" stroke-linecap="round" stroke-linejoin="round"/><g id="eZDuT8y5lc77_to" transform="translate(64.000002,96.222223)"><g id="eZDuT8y5lc77" transform="translate(-64.000002,-79.833332)" opacity="0"><path id="eZDuT8y5lc78" d="M0,6L0,0L6,0" transform="matrix(0.707107 0.707107 -0.707107 0.707107 64 73.166666)" fill="none" stroke="rgb(84,131,204)" stroke-width="3.33" stroke-linecap="round" stroke-linejoin="round"/><path id="eZDuT8y5lc79" d="M70,89.166667L70,101.666666" transform="matrix(1 0 0 1 -6 -15.166667)" fill="rgb(255,212,29)" stroke="rgb(84,131,204)" stroke-width="3.33" stroke-linecap="round" stroke-linejoin="round"/></g></g><path id="eZDuT8y5lc710" d="M88,63.33L88,63.33L66.8,42.13C66.049727,41.378892,65.031637,40.956853,63.97,40.956853C62.908363,40.956853,61.890273,41.378892,61.14,42.13L40,63.35L40,63.35C38.735051,64.748884,38.788941,66.893861,40.12254,68.22746C41.456139,69.561059,43.601116,69.614949,45,68.35L64,49.3L83,68.3C83.961356,69.239511,85.366058,69.565169,86.642747,69.144513C87.919437,68.723858,88.855424,67.626968,89.07,66.3C89.305166,65.187211,88.890826,64.037128,88,63.33Z" fill="none" stroke="rgb(84,131,204)" stroke-width="4" stroke-linecap="round" stroke-linejoin="round"/></g></g></g></svg>