<svg id="eVQcIzR9Edq1" xmlns="http://www.w3.org/2000/svg" xmlns:xlink="http://www.w3.org/1999/xlink" viewBox="0 0 128 128" shape-rendering="geometricPrecision" text-rendering="geometricPrecision"><g id="eVQcIzR9Edq2"><g id="eVQcIzR9Edq3" transform="matrix(1 0 0 1 0.000001 0)"><line id="eVQcIzR9Edq4" x1="76" y1="92" x2="66" y2="92" fill="none" stroke="rgb(84,131,204)" stroke-width="4" stroke-linecap="round" stroke-linejoin="round"/><line id="eVQcIzR9Edq5" x1="54" y1="92" x2="27" y2="92" fill="none" stroke="rgb(84,131,204)" stroke-width="4" stroke-linecap="round" stroke-linejoin="round" stroke-dashoffset="54" stroke-dasharray="10.8,16.3"/><line id="eVQcIzR9Edq6" x1="54" y1="92" x2="27" y2="92" opacity="0" fill="none" stroke="rgb(84,131,204)" stroke-width="4" stroke-linecap="round" stroke-linejoin="round" stroke-dashoffset="54" stroke-dasharray="10.8,16.3"/><g id="eVQcIzR9Edq7"><circle id="eVQcIzR9Edq8" r="6" transform="matrix(1 0 0 1 76 86)" fill="rgb(84,131,204)" stroke="none" stroke-width="4" stroke-linecap="round" stroke-linejoin="round"/><circle id="eVQcIzR9Edq9" r="6" transform="matrix(1 0 0 1 54 86)" fill="rgb(84,131,204)" stroke="none" stroke-width="4" stroke-linecap="round" stroke-linejoin="round"/><g id="eVQcIzR9Edq10" transform="matrix(1 0 0 1.03856 0.000005 -2.6992)"><path id="eVQcIzR9Edq11" d="M73.06,70L56.25,70C52.579401,69.999444,49.38012,67.501037,48.49,63.94L44,46L83.53,46C84.917048,45.999007,86.205604,46.716652,86.935052,47.896401C87.6645,49.076151,87.730704,50.549585,87.11,51.79L80.21,65.58C78.855098,68.287637,76.087715,69.998383,73.06,70Z" fill="rgb(169,193,229)" stroke="rgb(169,193,229)" stroke-width="4" stroke-linecap="round" stroke-linejoin="round"/><path id="eVQcIzR9Edq12" d="M77.789262,68.449361C76.442491,69.437602,74.793936,69.999074,73.06,70L56.25,70C52.579401,69.999444,49.38012,67.501037,48.49,63.94L44,46" fill="none" stroke="rgb(84,131,204)" stroke-width="4" stroke-linecap="round" stroke-linejoin="round"/><ellipse id="eVQcIzR9Edq13" rx="6.875" ry="6.875" transform="matrix(1 0 0 1 58.451563 -9.189857)" opacity="0" fill="rgb(84,131,204)" stroke="none" stroke-width="0"/><rect id="eVQcIzR9Edq14" width="14.025" height="14.025" rx="4" ry="4" transform="matrix(0.921048 0.389448 -0.389448 0.921048 68.038573 -18.379714)" opacity="0" fill="rgb(84,131,204)" stroke="none" stroke-width="0"/><ellipse id="eVQcIzR9Edq15" rx="6.875" ry="6.875" transform="matrix(0.761249 0 0 0.761249 66.576563 -9.189857)" opacity="0" fill="rgb(84,131,204)" stroke="none" stroke-width="0"/><path id="eVQcIzR9Edq16" d="M35.28,36.09C38.935676,36.108844,42.113535,38.603382,43,42.15L44,46" fill="none" stroke="rgb(84,131,204)" stroke-width="4" stroke-linecap="round" stroke-linejoin="round"/><line id="eVQcIzR9Edq17" x1="46" y1="54" x2="59" y2="54" fill="none" stroke="rgb(84,131,204)" stroke-width="4" stroke-linecap="round" stroke-linejoin="round"/></g></g></g></g></svg>