<svg id="ej651pAEGqt1" xmlns="http://www.w3.org/2000/svg" xmlns:xlink="http://www.w3.org/1999/xlink" viewBox="0 0 300 300" shape-rendering="geometricPrecision" text-rendering="geometricPrecision"><style><![CDATA[#ej651pAEGqt3 {animation-name: ej651pAEGqt3__m, ej651pAEGqt3_c_o;animation-duration: 3000ms;animation-fill-mode: forwards;animation-timing-function: linear;animation-direction: normal;animation-iteration-count: infinite;}@keyframes ej651pAEGqt3__m { 0% {d: path('M323.4,444.2C314.1,444.2,306.5,436.6,306.5,427.3L306.5,415.8L306.481181,415.778485C301.981181,415.778485,297.759186,413.129687,296.259186,408.829687C294.859186,404.529687,296.359186,399.829687,299.959186,397.129687L310.859186,389.029687L299.959186,380.929687C296.359186,378.229687,294.859186,373.529687,296.259186,369.229687C297.659186,364.929687,301.877748,361.792422,306.477748,361.792422L306.5,361.8L306.5,303.311368C303.7,300.211368,302.1,296.211368,302.1,292.011368L302.1,258.111368C302.1,248.811368,309.7,241.211368,319,241.211368L349.6,241.211368C346.2,234.311368,345.9,226.611368,348.9,218.611368C351.4,212.011368,361.6,194.711368,378.1,194.711368C380.8,194.711368,383.4,195.211368,386,196.111368C391.5,198.111368,395.7,201.811368,399,206.311368C402.3,201.811368,406.5,198.111368,412,196.111368C414.6,195.211368,417.2,194.711368,419.9,194.711368C436.4,194.711368,446.6,211.911368,449.1,218.611368C452.1,226.611368,451.8,234.311368,448.4,241.211368L479,241.211368C488.3,241.211368,495.9,248.811368,495.9,258.111368L495.9,292.011368C495.9,296.211368,494.3,300.211368,491.5,303.311368L491.5,361.8L491.491853,361.801391C495.991853,361.801391,500.091853,364.701391,501.491853,369.001391C502.891853,373.301391,501.391853,378.001391,497.791853,380.701391L486.891853,388.801391L497.791853,396.901391C501.391853,399.601391,502.891853,404.301391,501.491853,408.601391C500.091853,412.901391,496.091853,415.801391,491.491853,415.801391L491.5,415.8L491.5,427.3C491.5,436.6,483.9,444.2,474.6,444.2L323.4,444.2Z')} 6.666667% {d: path('M323.4,444.2C314.1,444.2,306.5,436.6,306.5,427.3L306.5,415.8L306.481181,415.778485C301.981181,415.778485,297.759186,413.129687,296.259186,408.829687C294.859186,404.529687,296.359186,399.829687,299.959186,397.129687L310.859186,389.029687L299.959186,380.929687C296.359186,378.229687,294.859186,373.529687,296.259186,369.229687C297.659186,364.929687,301.877748,361.792422,306.477748,361.792422L306.5,361.8L306.5,303.311368C303.7,300.211368,302.1,296.211368,302.1,292.011368L302.1,258.111368C302.1,248.811368,309.7,241.211368,319,241.211368L349.6,241.211368C346.2,234.311368,345.9,226.611368,348.9,218.611368C351.4,212.011368,361.6,194.711368,378.1,194.711368C380.8,194.711368,383.4,195.211368,386,196.111368C391.5,198.111368,395.7,201.811368,399,206.311368C402.3,201.811368,406.5,198.111368,412,196.111368C414.6,195.211368,417.2,194.711368,419.9,194.711368C436.4,194.711368,446.6,211.911368,449.1,218.611368C452.1,226.611368,451.8,234.311368,448.4,241.211368L479,241.211368C488.3,241.211368,495.9,248.811368,495.9,258.111368L495.9,292.011368C495.9,296.211368,494.3,300.211368,491.5,303.311368L491.5,361.8L491.491853,361.801391C495.991853,361.801391,500.091853,364.701391,501.491853,369.001391C502.891853,373.301391,501.391853,378.001391,497.791853,380.701391L486.891853,388.801391L497.791853,396.901391C501.391853,399.601391,502.891853,404.301391,501.491853,408.601391C500.091853,412.901391,496.091853,415.801391,491.491853,415.801391L491.5,415.8L491.5,427.3C491.5,436.6,483.9,444.2,474.6,444.2L323.4,444.2Z');animation-timing-function: cubic-bezier(0.68,-0.55,0.265,1.55)} 16.666667% {d: path('M323.4,444.2C314.1,444.2,306.5,436.6,306.5,427.3L306.5,415.8L306.481181,415.778485C301.981181,415.778485,297.759186,413.129687,296.259186,408.829687C294.859186,404.529687,296.359186,399.829687,299.959186,397.129687L310.859186,389.029687L299.959186,380.929687C296.359186,378.229687,294.859186,373.529687,296.259186,369.229687C297.659186,364.929687,301.877748,361.792422,306.477748,361.792422L306.5,361.8L306.5,341.8C303.7,338.7,302.1,334.7,302.1,330.5L302.1,296.6C302.1,287.3,309.7,279.7,319,279.7L349.6,279.7C346.2,272.8,345.9,265.1,348.9,257.1C351.4,250.5,361.6,233.2,378.1,233.2C380.8,233.2,383.4,233.7,386,234.6C391.5,236.6,395.7,240.3,399,244.8C402.3,240.3,406.5,236.6,412,234.6C414.6,233.7,417.2,233.2,419.9,233.2C436.4,233.2,446.6,250.4,449.1,257.1C452.1,265.1,451.8,272.8,448.4,279.7L479,279.7C488.3,279.7,495.9,287.3,495.9,296.6L495.9,330.5C495.9,334.7,494.3,338.7,491.5,341.8L491.5,361.8L491.491853,361.801391C495.991853,361.801391,500.091853,364.701391,501.491853,369.001391C502.891853,373.301391,501.391853,378.001391,497.791853,380.701391L486.891853,388.801391L497.791853,396.901391C501.391853,399.601391,502.891853,404.301391,501.491853,408.601391C500.091853,412.901391,496.091853,415.801391,491.491853,415.801391L491.5,415.8L491.5,427.3C491.5,436.6,483.9,444.2,474.6,444.2L323.4,444.2Z');animation-timing-function: cubic-bezier(0.68,-0.55,0.265,1.55)} 26.666667% {d: path('M323.4,444.2C314.1,444.2,306.5,436.6,306.5,427.3L306.5,415.8L290,415.8C285.5,415.8,281.5,412.9,280,408.6C278.6,404.3,280.1,399.6,283.7,396.9L294.6,388.8L283.7,380.7C280.1,378,278.6,373.3,280,369C281.4,364.7,285.4,361.8,290,361.8L306.5,361.8L306.5,341.8C303.7,338.7,302.1,334.7,302.1,330.5L302.1,296.6C302.1,287.3,309.7,279.7,319,279.7L349.6,279.7C346.2,272.8,345.9,265.1,348.9,257.1C351.4,250.5,361.6,233.2,378.1,233.2C380.8,233.2,383.4,233.7,386,234.6C391.5,236.6,395.7,240.3,399,244.8C402.3,240.3,406.5,236.6,412,234.6C414.6,233.7,417.2,233.2,419.9,233.2C436.4,233.2,446.6,250.4,449.1,257.1C452.1,265.1,451.8,272.8,448.4,279.7L479,279.7C488.3,279.7,495.9,287.3,495.9,296.6L495.9,330.5C495.9,334.7,494.3,338.7,491.5,341.8L491.5,361.8L508,361.8C512.5,361.8,516.6,364.7,518,369C519.4,373.3,517.9,378,514.3,380.7L503.4,388.8L514.3,396.9C517.9,399.6,519.4,404.3,518,408.6C516.6,412.9,512.6,415.8,508,415.8L491.5,415.8L491.5,427.3C491.5,436.6,483.9,444.2,474.6,444.2L323.4,444.2Z');animation-timing-function: cubic-bezier(0.68,-0.55,0.265,1.55)} 33.333333% {d: path('M323.4,444.2C314.1,444.2,306.5,436.6,306.5,427.3L306.5,415.8L290,415.8C285.5,415.8,281.5,412.9,280,408.6C278.6,404.3,280.1,399.6,283.7,396.9L294.6,388.8L283.7,380.7C280.1,378,278.6,373.3,280,369C281.4,364.7,285.4,361.8,290,361.8L306.5,361.8L306.5,341.8C303.7,338.7,302.1,334.7,302.1,330.5L302.1,296.6C302.1,287.3,309.7,279.7,319,279.7L349.6,279.7C346.2,272.8,345.9,265.1,348.9,257.1C351.4,250.5,361.6,233.2,378.1,233.2C380.8,233.2,383.4,233.7,386,234.6C391.5,236.6,395.7,240.3,399,244.8C402.3,240.3,406.5,236.6,412,234.6C414.6,233.7,417.2,233.2,419.9,233.2C436.4,233.2,446.6,250.4,449.1,257.1C452.1,265.1,451.8,272.8,448.4,279.7L479,279.7C488.3,279.7,495.9,287.3,495.9,296.6L495.9,330.5C495.9,334.7,494.3,338.7,491.5,341.8L491.5,361.8L508,361.8C512.5,361.8,516.6,364.7,518,369C519.4,373.3,517.9,378,514.3,380.7L503.4,388.8L514.3,396.9C517.9,399.6,519.4,404.3,518,408.6C516.6,412.9,512.6,415.8,508,415.8L491.5,415.8L491.5,427.3C491.5,436.6,483.9,444.2,474.6,444.2L323.4,444.2Z')} 100% {d: path('M323.4,444.2C314.1,444.2,306.5,436.6,306.5,427.3L306.5,415.8L290,415.8C285.5,415.8,281.5,412.9,280,408.6C278.6,404.3,280.1,399.6,283.7,396.9L294.6,388.8L283.7,380.7C280.1,378,278.6,373.3,280,369C281.4,364.7,285.4,361.8,290,361.8L306.5,361.8L306.5,341.8C303.7,338.7,302.1,334.7,302.1,330.5L302.1,296.6C302.1,287.3,309.7,279.7,319,279.7L349.6,279.7C346.2,272.8,345.9,265.1,348.9,257.1C351.4,250.5,361.6,233.2,378.1,233.2C380.8,233.2,383.4,233.7,386,234.6C391.5,236.6,395.7,240.3,399,244.8C402.3,240.3,406.5,236.6,412,234.6C414.6,233.7,417.2,233.2,419.9,233.2C436.4,233.2,446.6,250.4,449.1,257.1C452.1,265.1,451.8,272.8,448.4,279.7L479,279.7C488.3,279.7,495.9,287.3,495.9,296.6L495.9,330.5C495.9,334.7,494.3,338.7,491.5,341.8L491.5,361.8L508,361.8C512.5,361.8,516.6,364.7,518,369C519.4,373.3,517.9,378,514.3,380.7L503.4,388.8L514.3,396.9C517.9,399.6,519.4,404.3,518,408.6C516.6,412.9,512.6,415.8,508,415.8L491.5,415.8L491.5,427.3C491.5,436.6,483.9,444.2,474.6,444.2L323.4,444.2Z')}}@keyframes ej651pAEGqt3_c_o { 0% {opacity: 0;animation-timing-function: cubic-bezier(0.445,0.05,0.55,0.95)} 6.666667% {opacity: 1} 100% {opacity: 1}} #ej651pAEGqt3_ts {animation: ej651pAEGqt3_ts__ts 3000ms linear infinite normal forwards}@keyframes ej651pAEGqt3_ts__ts { 0% {transform: translate(399px,338.699997px) scale(0.687141,0.675524)} 3.333333% {transform: translate(399px,338.699997px) scale(0.687141,0.675524);animation-timing-function: cubic-bezier(0.68,-0.55,0.265,1.55)} 16.666667% {transform: translate(399px,338.699997px) scale(1,1)} 100% {transform: translate(399px,338.699997px) scale(1,1)}} #ej651pAEGqt4_to {animation: ej651pAEGqt4_to__to 3000ms linear infinite normal forwards}@keyframes ej651pAEGqt4_to__to { 0% {transform: translate(466.614777px,388.700012px)} 16.666667% {transform: translate(466.614777px,388.700012px);animation-timing-function: cubic-bezier(0.68,-0.55,0.265,1.55)} 26.666667% {transform: translate(486.614777px,388.700012px)} 100% {transform: translate(486.614777px,388.700012px)}} #ej651pAEGqt4_ts {animation: ej651pAEGqt4_ts__ts 3000ms linear infinite normal forwards}@keyframes ej651pAEGqt4_ts__ts { 0% {transform: scale(0.690532,0.690532)} 16.666667% {transform: scale(0.690532,0.690532);animation-timing-function: cubic-bezier(0.68,-0.55,0.265,1.55)} 26.666667% {transform: scale(1,1)} 100% {transform: scale(1,1)}} #ej651pAEGqt4 {animation: ej651pAEGqt4_c_o 3000ms linear infinite normal forwards}@keyframes ej651pAEGqt4_c_o { 0% {opacity: 0} 13.333333% {opacity: 0} 20% {opacity: 1} 100% {opacity: 1}} #ej651pAEGqt5_to {animation: ej651pAEGqt5_to__to 3000ms linear infinite normal forwards}@keyframes ej651pAEGqt5_to__to { 0% {transform: translate(331.385223px,388.700012px)} 16.666667% {transform: translate(331.385223px,388.700012px);animation-timing-function: cubic-bezier(0.68,-0.55,0.265,1.55)} 26.666667% {transform: translate(311.385223px,388.700012px)} 100% {transform: translate(311.385223px,388.700012px)}} #ej651pAEGqt5_ts {animation: ej651pAEGqt5_ts__ts 3000ms linear infinite normal forwards}@keyframes ej651pAEGqt5_ts__ts { 0% {transform: scale(0.690531,0.690531)} 16.666667% {transform: scale(0.690531,0.690531);animation-timing-function: cubic-bezier(0.68,-0.55,0.265,1.55)} 26.666667% {transform: scale(1,1)} 100% {transform: scale(1,1)}} #ej651pAEGqt5 {animation: ej651pAEGqt5_c_o 3000ms linear infinite normal forwards}@keyframes ej651pAEGqt5_c_o { 0% {opacity: 0} 13.333333% {opacity: 0} 20% {opacity: 1} 100% {opacity: 1}} #ej651pAEGqt6_ts {animation: ej651pAEGqt6_ts__ts 3000ms linear infinite normal forwards}@keyframes ej651pAEGqt6_ts__ts { 0% {transform: translate(399.75px,338.625656px) scale(0.687141,0.675524)} 3.333333% {transform: translate(399.75px,338.625656px) scale(0.687141,0.675524);animation-timing-function: cubic-bezier(0.68,-0.55,0.265,1.55)} 16.666667% {transform: translate(399.75px,338.625656px) scale(1,1)} 100% {transform: translate(399.75px,338.625656px) scale(1,1)}} #ej651pAEGqt6 {animation: ej651pAEGqt6_c_o 3000ms linear infinite normal forwards}@keyframes ej651pAEGqt6_c_o { 0% {opacity: 0;animation-timing-function: cubic-bezier(0.445,0.05,0.55,0.95)} 6.666667% {opacity: 1} 100% {opacity: 1}} #ej651pAEGqt10_to {animation: ej651pAEGqt10_to__to 3000ms linear infinite normal forwards}@keyframes ej651pAEGqt10_to__to { 0% {transform: translate(399.75px,256.050292px)} 6.666667% {transform: translate(399.75px,256.050292px);animation-timing-function: cubic-bezier(0.68,-0.55,0.265,1.55)} 16.666667% {transform: translate(399.75px,290.575653px)} 100% {transform: translate(399.75px,290.575653px)}} #ej651pAEGqt15_ts {animation: ej651pAEGqt15_ts__ts 3000ms linear infinite normal forwards}@keyframes ej651pAEGqt15_ts__ts { 0% {transform: translate(403.149994px,384.950012px) scale(0.269353,0.218167)} 26.666667% {transform: translate(403.149994px,384.950012px) scale(0.269353,0.218167);animation-timing-function: cubic-bezier(0.68,-0.55,0.265,1.55)} 36.666667% {transform: translate(403.149994px,384.950012px) scale(1,1)} 100% {transform: translate(403.149994px,384.950012px) scale(1,1)}} #ej651pAEGqt15 {animation: ej651pAEGqt15_c_o 3000ms linear infinite normal forwards}@keyframes ej651pAEGqt15_c_o { 0% {opacity: 0} 26.666667% {opacity: 0;animation-timing-function: cubic-bezier(0.445,0.05,0.55,0.95)} 30% {opacity: 1} 100% {opacity: 1}} #ej651pAEGqt22_ts {animation: ej651pAEGqt22_ts__ts 3000ms linear infinite normal forwards}@keyframes ej651pAEGqt22_ts__ts { 0% {transform: translate(399.699997px,354.959274px) scale(0.530074,0.429328)} 20% {transform: translate(399.699997px,354.959274px) scale(0.530074,0.429328);animation-timing-function: cubic-bezier(0.68,-0.55,0.265,1.55)} 30% {transform: translate(399.699997px,354.959274px) scale(1,1)} 100% {transform: translate(399.699997px,354.959274px) scale(1,1)}} #ej651pAEGqt22 {animation: ej651pAEGqt22_c_o 3000ms linear infinite normal forwards}@keyframes ej651pAEGqt22_c_o { 0% {opacity: 0} 20% {opacity: 0;animation-timing-function: cubic-bezier(0.445,0.05,0.55,0.95)} 23.333333% {opacity: 1} 100% {opacity: 1}}]]></style><g id="ej651pAEGqt2" transform="matrix(0.7 0 0 0.7 -129.299999 -87.090003)"><g id="ej651pAEGqt3_ts" transform="translate(399,338.699997) scale(0.687141,0.675524)"><path id="ej651pAEGqt3" d="M323.4,444.2C314.1,444.2,306.5,436.6,306.5,427.3L306.5,415.8L306.481181,415.778485C301.981181,415.778485,297.759186,413.129687,296.259186,408.829687C294.859186,404.529687,296.359186,399.829687,299.959186,397.129687L310.859186,389.029687L299.959186,380.929687C296.359186,378.229687,294.859186,373.529687,296.259186,369.229687C297.659186,364.929687,301.877748,361.792422,306.477748,361.792422L306.5,361.8L306.5,303.311368C303.7,300.211368,302.1,296.211368,302.1,292.011368L302.1,258.111368C302.1,248.811368,309.7,241.211368,319,241.211368L349.6,241.211368C346.2,234.311368,345.9,226.611368,348.9,218.611368C351.4,212.011368,361.6,194.711368,378.1,194.711368C380.8,194.711368,383.4,195.211368,386,196.111368C391.5,198.111368,395.7,201.811368,399,206.311368C402.3,201.811368,406.5,198.111368,412,196.111368C414.6,195.211368,417.2,194.711368,419.9,194.711368C436.4,194.711368,446.6,211.911368,449.1,218.611368C452.1,226.611368,451.8,234.311368,448.4,241.211368L479,241.211368C488.3,241.211368,495.9,248.811368,495.9,258.111368L495.9,292.011368C495.9,296.211368,494.3,300.211368,491.5,303.311368L491.5,361.8L491.491853,361.801391C495.991853,361.801391,500.091853,364.701391,501.491853,369.001391C502.891853,373.301391,501.391853,378.001391,497.791853,380.701391L486.891853,388.801391L497.791853,396.901391C501.391853,399.601391,502.891853,404.301391,501.491853,408.601391C500.091853,412.901391,496.091853,415.801391,491.491853,415.801391L491.5,415.8L491.5,427.3C491.5,436.6,483.9,444.2,474.6,444.2L323.4,444.2Z" transform="translate(-399,-338.699997)" opacity="0" fill="rgb(255,255,255)" stroke="none" stroke-width="1"/></g><g id="ej651pAEGqt4_to" transform="translate(466.614777,388.700012)"><g id="ej651pAEGqt4_ts" transform="scale(0.690532,0.690532)"><path id="ej651pAEGqt4" d="M465.2,406.5L508,406.5C509.2,406.5,509.7,404.9,508.8,404.2L489.3,389.7C488.6,389.2,488.6,388.2,489.3,387.7L508.8,373.2C509.8,372.5,509.3,370.9,508,370.9L465.2,370.9C464.5,370.9,463.9,371.5,463.9,372.2L463.9,405.3C463.9,405.9,464.5,406.5,465.2,406.5Z" transform="translate(-486.614777,-388.700012)" opacity="0" fill="rgb(255,255,255)" stroke="rgb(33,31,30)" stroke-width="2" stroke-miterlimit="10"/></g></g><g id="ej651pAEGqt5_to" transform="translate(331.385223,388.700012)"><g id="ej651pAEGqt5_ts" transform="scale(0.690531,0.690531)"><path id="ej651pAEGqt5" d="M332.7,406.5L290,406.5C288.8,406.5,288.3,404.9,289.2,404.2L308.7,389.7C309.4,389.2,309.4,388.2,308.7,387.7L289.2,373.2C288.2,372.5,288.7,370.9,290,370.9L332.8,370.9C333.5,370.9,334.1,371.5,334.1,372.2L334.1,405.3C334,405.9,333.4,406.5,332.7,406.5Z" transform="translate(-311.385223,-388.700012)" opacity="0" fill="rgb(255,255,255)" stroke="rgb(33,31,30)" stroke-width="2" stroke-miterlimit="10"/></g></g><g id="ej651pAEGqt6_ts" transform="translate(399.75,338.625656) scale(0.687141,0.675524)"><g id="ej651pAEGqt6" transform="translate(-399.75,-338.625656)" opacity="0"><path id="ej651pAEGqt7" d="M478.1,434.9L319.9,434.9C317.6,434.9,315.7,433,315.7,430.7L315.7,333.485774C315.7,331.185774,317.6,329.285774,319.9,329.285774L478.1,329.285774C480.4,329.285774,482.3,331.185774,482.3,333.485774L482.3,430.8C482.2,433.1,480.4,434.9,478.1,434.9Z" fill="rgb(33,31,30)" stroke="none" stroke-width="1"/><rect id="ej651pAEGqt8" width="35.6" height="64.1" rx="0" ry="0" transform="matrix(1 0 0 1 381.2 370.9)" fill="rgb(252,42,31)" stroke="none" stroke-width="1"/><path id="ej651pAEGqt9" d="M311.3,399.5L311.3,370.2C311.3,368.5,312.7,367,314.5,367L483.5,367C485.2,367,486.7,368.4,486.7,370.2L486.7,399.5C486.7,401.2,485.3,402.7,483.5,402.7L314.5,402.7C312.8,402.7,311.3,401.2,311.3,399.5Z" fill="rgb(255,255,255)" stroke="rgb(33,31,30)" stroke-width="2" stroke-miterlimit="10"/><g id="ej651pAEGqt10_to" transform="translate(399.75,256.050292)"><g id="ej651pAEGqt10" transform="translate(-399.75,-290.575653)"><path id="ej651pAEGqt11" d="M482.5,288.7L315.5,288.7C313.2,288.7,311.3,290.6,311.3,292.9L311.3,333.9C311.3,336.2,313.2,338.1,315.5,338.1L482.5,338.1C484.8,338.1,486.7,336.2,486.7,333.9L486.7,292.9C486.6,290.6,484.7,288.7,482.5,288.7Z" fill="rgb(33,31,30)" stroke="none" stroke-width="1"/><rect id="ej651pAEGqt12" width="40.1" height="49.3" rx="0" ry="0" transform="matrix(1 0 0 1 378.9 288.7)" fill="rgb(252,42,31)" stroke="none" stroke-width="1"/><line id="ej651pAEGqt13" x1="311.6" y1="338.9" x2="488.2" y2="338.9" fill="none" stroke="rgb(255,255,255)" stroke-width="2" stroke-linecap="round" stroke-linejoin="round" stroke-miterlimit="10"/><path id="ej651pAEGqt14" d="M440.4,260.2C438,253.9,427.9,238.5,415.1,243.1C406.3,246.3,401.4,257.7,399,268.6C396.6,257.7,391.7,246.3,382.9,243.1C370.1,238.5,360,253.8,357.6,260.2C353.4,271.2,358.5,279.9,368.2,285.8C373.9,289.3,388.3,293.5,395.7,292.3C396,291.7,396.9,291.1,398.8,291.1C391.1,290.9,376.8,283.9,373.5,272.4C371.4,265,377.1,253.1,382.1,258.6C389,266.3,393.8,280.4,396.2,289.7C396.5,290.7,401.5,290.7,401.8,289.7C404.2,280.4,409,266.3,416,258.6C421,253.1,426.7,265,424.6,272.4C421.2,284.1,406.8,291.1,399.1,291.2C399.1,291.2,399.1,291.2,399.1,291.2C399.1,291.2,399.1,291.2,399.1,291.2C401.1,291.2,402.1,291.7,402.4,292.4C409.8,293.6,424.1,289.3,429.9,285.9C439.5,279.9,444.6,271.2,440.4,260.2Z" fill="rgb(252,42,31)" stroke="none" stroke-width="1"/></g></g></g></g><g id="ej651pAEGqt15_ts" transform="translate(403.149994,384.950012) scale(0.269353,0.218167)"><g id="ej651pAEGqt15" transform="translate(-403.149994,-384.950012)" opacity="0"><path id="ej651pAEGqt16" d="M343.9,378.4L343.9,382.9L353.7,382.9L353.7,389.6L343.9,389.6L343.9,398.1L336,398.1L336,371.6L355.1,371.6L355.1,378.3L343.9,378.3Z" fill="rgb(33,31,30)" stroke="none" stroke-width="1"/><path id="ej651pAEGqt17" d="M367.7,391.5L365.5,391.5L365.5,398.2L357.6,398.2L357.6,371.7L368.9,371.7C371.1,371.7,373,372.1,374.6,372.9C376.2,373.7,377.5,374.9,378.3,376.4C379.2,377.9,379.6,379.7,379.6,381.7C379.6,383.6,379.2,385.2,378.5,386.7C377.7,388.1,376.6,389.2,375.2,390.1L380.1,398.3L371.6,398.3L367.7,391.5ZM370.8,379.4C370.3,378.9,369.5,378.6,368.4,378.6L365.5,378.6L365.5,384.8L368.4,384.8C369.5,384.8,370.3,384.5,370.8,384C371.3,383.5,371.6,382.7,371.6,381.7C371.6,380.7,371.4,379.9,370.8,379.4Z" fill="rgb(33,31,30)" stroke="none" stroke-width="1"/><path id="ej651pAEGqt18" d="M382.6,371.7L390.5,371.7L390.5,398.2L382.6,398.2L382.6,371.7Z" fill="rgb(33,31,30)" stroke="none" stroke-width="1"/><path id="ej651pAEGqt19" d="M394.4,371.7L406,371.7C408.6,371.7,410.9,372.2,412.9,373.3C414.9,374.4,416.5,375.9,417.6,377.9C418.7,379.9,419.3,382.2,419.3,384.9C419.3,387.6,418.7,389.9,417.6,391.9C416.5,393.9,414.9,395.4,412.9,396.5C410.9,397.6,408.6,398.1,406,398.1L394.4,398.1L394.4,371.7ZM405.7,391.2C407.4,391.2,408.8,390.7,409.8,389.6C410.8,388.5,411.3,387,411.3,385C411.3,383,410.8,381.5,409.8,380.4C408.8,379.3,407.4,378.8,405.7,378.8L402.4,378.8L402.4,391.3L405.7,391.3Z" fill="rgb(33,31,30)" stroke="none" stroke-width="1"/><path id="ej651pAEGqt20" d="M437.9,393.5L429,393.5L427.4,398.1L419.3,398.1L429.6,371.6L437.4,371.6L447.7,398.1L439.5,398.1L437.9,393.5ZM435.7,387.1L433.4,380.4L431.1,387.1L435.7,387.1Z" fill="rgb(33,31,30)" stroke="none" stroke-width="1"/><path id="ej651pAEGqt21" d="M461.4,388.5L461.4,398.1L453.5,398.1L453.5,388.4L444.6,371.7L453,371.7L457.8,380.8L462.6,371.7L470.3,371.7L461.4,388.5Z" fill="rgb(33,31,30)" stroke="none" stroke-width="1"/></g></g><g id="ej651pAEGqt22_ts" transform="translate(399.699997,354.959274) scale(0.530074,0.429328)"><g id="ej651pAEGqt22" transform="translate(-399.699997,-354.959274)" opacity="0"><path id="ej651pAEGqt23" d="M367.1,356.1C367.8,356.8,368.1,357.7,368.1,358.8C368.1,360.2,367.5,361.3,366.2,362.1C364.9,362.9,363,363.3,360.6,363.3L351.1,363.3L351.1,346.8L360,346.8C362.3,346.8,364,347.2,365.3,347.9C366.5,348.7,367.2,349.7,367.2,351C367.2,351.9,367,352.6,366.5,353.2C366,353.8,365.4,354.3,364.6,354.6C365.6,354.9,366.5,355.4,367.1,356.1ZM353.9,348.6L353.9,353.9L359.7,353.9C361.2,353.9,362.3,353.7,363.1,353.2C363.9,352.8,364.3,352.1,364.3,351.2C364.3,350.3,363.9,349.7,363.1,349.2C362.3,348.8,361.2,348.5,359.7,348.5L353.9,348.5ZM364.1,360.7C364.9,360.3,365.3,359.6,365.3,358.6C365.3,356.8,363.7,355.8,360.5,355.8L354,355.8L354,361.3L360.5,361.3C362,361.3,363.2,361.1,364.1,360.7Z" fill="rgb(255,255,255)" stroke="none" stroke-width="1"/><path id="ej651pAEGqt24" d="M372.5,346.7L375.3,346.7L375.3,361.2L386,361.2L386,363.3L372.4,363.3L372.4,346.7Z" fill="rgb(255,255,255)" stroke="none" stroke-width="1"/><path id="ej651pAEGqt25" d="M402.6,359.1L392.1,359.1L389.9,363.2L387,363.2L396,346.7L398.8,346.7L407.8,363.2L404.8,363.2L402.6,359.1ZM401.6,357.2L397.3,349.1L393,357.2L401.6,357.2Z" fill="rgb(255,255,255)" stroke="none" stroke-width="1"/><path id="ej651pAEGqt26" d="M413.9,362.3C412.3,361.6,411.1,360.6,410.1,359.3C409.2,358,408.7,356.6,408.7,355C408.7,353.4,409.2,351.9,410.1,350.7C411,349.4,412.3,348.4,413.9,347.7C415.5,347,417.3,346.6,419.3,346.6C420.8,346.6,422.3,346.8,423.5,347.2C424.8,347.6,425.9,348.3,426.8,349.1L425,350.6C423.5,349.3,421.6,348.6,419.4,348.6C417.9,348.6,416.6,348.9,415.4,349.4C414.2,350,413.3,350.7,412.6,351.7C411.9,352.7,411.6,353.8,411.6,354.9C411.6,356.1,411.9,357.2,412.6,358.1C413.3,359.1,414.2,359.8,415.4,360.4C416.6,361,417.9,361.2,419.4,361.2C421.6,361.2,423.5,360.5,425,359.2L426.8,360.7C425.9,361.6,424.8,362.2,423.5,362.6C422.2,363,420.8,363.3,419.2,363.3C417.3,363.4,415.5,363.1,413.9,362.3Z" fill="rgb(255,255,255)" stroke="none" stroke-width="1"/><path id="ej651pAEGqt27" d="M437.4,355.9L433.8,359L433.8,363.3L431,363.3L431,346.8L433.8,346.8L433.8,356L444.6,346.8L447.8,346.8L439.3,354.2L448.3,363.3L445,363.3L437.4,355.9Z" fill="rgb(255,255,255)" stroke="none" stroke-width="1"/></g></g></g></svg>