<svg id="eodUBsn87q91" xmlns="http://www.w3.org/2000/svg" xmlns:xlink="http://www.w3.org/1999/xlink" viewBox="0 0 128 128" shape-rendering="geometricPrecision" text-rendering="geometricPrecision"><g id="eodUBsn87q92"><g id="eodUBsn87q93"><path id="eodUBsn87q94" d="M42,56C42,43.849736,51.849736,34,64,34C76.150264,34,86,43.849736,86,56" fill="none" stroke="rgb(0,162,255)" stroke-width="4" stroke-linecap="round" stroke-linejoin="round"/><path id="eodUBsn87q95" d="M41,77C37.686292,77,35,74.313708,35,71L35,65C35,61.686292,37.686292,59,41,59L42,59C43.148752,59,44.08,59.931248,44.08,61.08L44.08,74.92C44.08,76.068752,43.148752,77,42,77Z" transform="matrix(1 0 0 1 0 -3)" fill="rgb(127,208,255)" stroke="rgb(0,162,255)" stroke-width="4" stroke-linecap="round" stroke-linejoin="round"/><path id="eodUBsn87q96" d="M87,77C90.313708,77,93,74.313708,93,71L93,65C93,61.686292,90.313708,59,87,59L86,59C84.851248,59,83.92,59.931248,83.92,61.08L83.92,74.92C83.92,76.068752,84.851248,77,86,77Z" transform="matrix(1 0 0 1 0 -3)" fill="rgb(127,208,255)" stroke="rgb(0,162,255)" stroke-width="4" stroke-linecap="round" stroke-linejoin="round"/><path id="eodUBsn87q97" d="M68,79C77.19,79,84.86,70.834828,86.62,60.011226" transform="matrix(1 0 0 1 0 14)" fill="none" stroke="rgb(0,162,255)" stroke-width="4" stroke-linecap="round" stroke-linejoin="round"/><line id="eodUBsn87q98" x1="68" y1="79" x2="64" y2="79" transform="matrix(1 0 0 1 0 14)" fill="none" stroke="rgb(0,162,255)" stroke-width="6" stroke-linecap="round" stroke-linejoin="round"/></g><g id="eodUBsn87q99"><circle id="eodUBsn87q910" r="20" transform="matrix(1 0 0 1 64 65)" fill="rgb(127,208,255)" stroke="rgb(0,162,255)" stroke-width="4" stroke-linecap="round" stroke-linejoin="round"/><g id="eodUBsn87q911" transform="matrix(1 0 0 1 0 0.000002)"><path id="eodUBsn87q912" d="M10.5,0C10.5,5.79899,5.79899,10.5,0,10.5" transform="matrix(0.707107 0.707107 -0.707107 0.707107 64 65)" opacity="0" fill="none" fill-opacity="0.5" stroke="rgb(0,162,255)" stroke-width="4" stroke-linecap="round" stroke-linejoin="round" stroke-dashoffset="24.75" stroke-dasharray="0,16.5"/><circle id="eodUBsn87q913" r="1" transform="matrix(1.5 0 0 0 56 62.00962)" opacity="0" fill="rgb(0,162,255)" fill-opacity="0.5" stroke="rgb(0,162,255)" stroke-width="2" stroke-linecap="round" stroke-linejoin="round"/><circle id="eodUBsn87q914" r="1" transform="matrix(1.5 0 0 0 72 62.00962)" opacity="0" fill="rgb(0,162,255)" fill-opacity="0.5" stroke="rgb(0,162,255)" stroke-width="2" stroke-linecap="round" stroke-linejoin="round"/></g></g></g></svg>