<svg id="eHnksvBYzhE1" xmlns="http://www.w3.org/2000/svg" xmlns:xlink="http://www.w3.org/1999/xlink" viewBox="0 0 128 128" shape-rendering="geometricPrecision" text-rendering="geometricPrecision"><g id="eHnksvBYzhE2"><g id="eHnksvBYzhE3" mask="url(#eHnksvBYzhE6)"><polygon id="eHnksvBYzhE4" points="0,-29.589155 8.610584,-12.142207 27.864435,-9.344458 13.932217,4.236097 17.221168,23.412149 0,14.358445 -17.221168,23.412149 -13.932217,4.236097 -27.864435,-9.344458 -8.610584,-12.142207 0,-29.589155" transform="matrix(0.9 0 0 0.9 64 64.85306)" fill="none" stroke="rgb(84,131,204)" stroke-width="4" stroke-linejoin="round"/><path id="eHnksvBYzhE5" d="M108.828,42.71175C99.383023,35.726942,90.059135,42.71175,90.059135,42.71175C90.059135,42.71175,79.887621,49.696557,70.442644,42.71175C60.997667,35.726942,51.67378,42.71175,51.67378,42.71175C51.67378,42.71175,41.502266,49.696557,32.057289,42.71175C22.612312,35.726942,13.288424,42.71175,13.288424,42.71175C13.288424,42.71175,3.116911,49.696557,-6.328066,42.71175C-15.773043,35.726942,-25.096931,42.71175,-25.096931,42.71175L-25.096931,80.38L128.44449,80.38L128.44449,42.71175C128.44449,42.71175,118.272977,49.691485,108.828,42.71175Z" transform="matrix(1.292474 0 0 1.292474 46.417751 31.504037)" fill="rgb(84,131,204)" stroke="none" stroke-width="1"/><mask id="eHnksvBYzhE6" mask-type="luminance"><polygon id="eHnksvBYzhE7" points="0,-29.589155 8.610584,-12.142207 27.864435,-9.344458 13.932217,4.236097 17.221168,23.412149 0,14.358445 -17.221168,23.412149 -13.932217,4.236097 -27.864435,-9.344458 -8.610584,-12.142207 0,-29.589155" transform="matrix(0.9 0 0 0.9 64 64.85306)" fill="rgb(255,255,255)" stroke="rgb(255,255,255)" stroke-width="4" stroke-linejoin="round"/></mask></g></g></svg>