<svg id="eP2JqKbLT1B1" xmlns="http://www.w3.org/2000/svg" xmlns:xlink="http://www.w3.org/1999/xlink" viewBox="0 0 128 128" shape-rendering="geometricPrecision" text-rendering="geometricPrecision"><g id="eP2JqKbLT1B2"><line id="eP2JqKbLT1B3" x1="94" y1="92" x2="30" y2="92" fill="none" stroke="rgb(84,131,204)" stroke-width="4" stroke-linecap="round" stroke-linejoin="round" stroke-dashoffset="304" stroke-dasharray="40,8,1,8,31,8"/><g id="eP2JqKbLT1B4"><g id="eP2JqKbLT1B5" transform="matrix(1 0 0 1 0.069927 1)"><path id="eP2JqKbLT1B6" d="M73,73L33,73L33,80C33,82.209139,34.790861,84,37,84L42.81,84C43.883393,82.149587,45.860794,81.010631,48,81.010631C50.139206,81.010631,52.116607,82.149587,53.19,84L75.81,84C76.883393,82.149587,78.860794,81.010631,81,81.010631C83.139206,81.010631,85.116607,82.149587,86.19,84L91,84C93.209139,84,95,82.209139,95,80L95,74L95,74C95.000789,73.377659,94.853392,72.764074,94.57,72.21L86.57,58.21C85.893356,56.85779,84.512056,56.002699,83,56L73,56Z" fill="rgb(169,193,229)" stroke="none" stroke-width="2" stroke-linecap="round" stroke-linejoin="round"/><path id="eP2JqKbLT1B7" d="M29,70L29,50C29,47.790861,30.790861,46,33,46L69,46C71.209139,46,73,47.790861,73,50L73,74L33,74C30.790861,74,29,72.209139,29,70Z" fill="rgb(84,131,204)" stroke="none" stroke-width="2" stroke-linecap="round" stroke-linejoin="round"/><path id="eP2JqKbLT1B8" d="M79,57C81.436203,57,82.245156,56.42258,83.988119,59.095124Q85.731082,61.767668,91,71L80.69,71L79,57Z" transform="matrix(1 0 0 1 0 2)" fill="rgb(84,131,204)" stroke="none" stroke-width="4" stroke-linecap="round" stroke-linejoin="round"/></g><path id="eP2JqKbLT1B9" d="M77,69L61,69" transform="matrix(1 0 0 1 -40 -1)" fill="none" stroke="rgb(169,193,229)" stroke-width="3" stroke-linecap="round" stroke-linejoin="round"/><path id="eP2JqKbLT1B10" d="M85,70L69,70" transform="matrix(1 0 0 1 -40 -9)" fill="none" stroke="rgb(169,193,229)" stroke-width="3" stroke-linecap="round" stroke-linejoin="round"/><path id="eP2JqKbLT1B11" d="M77,71L61,71" transform="matrix(1 0 0 1 -40 -17)" fill="none" stroke="rgb(169,193,229)" stroke-width="3" stroke-linecap="round" stroke-linejoin="round"/><circle id="eP2JqKbLT1B12" r="6" transform="matrix(1 0 0 1 47 86)" fill="rgb(84,131,204)" stroke="rgb(84,131,204)" stroke-width="3" stroke-linecap="round" stroke-linejoin="round"/><circle id="eP2JqKbLT1B13" r="6" transform="matrix(1 0 0 1 81 86)" fill="rgb(84,131,204)" stroke="rgb(84,131,204)" stroke-width="3" stroke-linecap="round" stroke-linejoin="round"/></g></g></svg>