<svg id="e9vAqmwJ6xc1" xmlns="http://www.w3.org/2000/svg" xmlns:xlink="http://www.w3.org/1999/xlink" viewBox="0 0 128 128" shape-rendering="geometricPrecision" text-rendering="geometricPrecision"><g id="e9vAqmwJ6xc2"><g id="e9vAqmwJ6xc3"><circle id="e9vAqmwJ6xc4" r="22" transform="matrix(1 0 0 1 64 65)" fill="rgb(84,131,204)" stroke="none" stroke-width="4" stroke-linecap="round" stroke-linejoin="round"/><g id="e9vAqmwJ6xc5" transform="matrix(1 0 0 1 0 0.000002)"><path id="e9vAqmwJ6xc6" d="M10.5,0C10.5,5.79899,5.79899,10.5,0,10.5" transform="matrix(0.707107 0.707107 -0.707107 0.707107 64 65)" opacity="0" fill="none" fill-opacity="0.5" stroke="rgb(255,255,255)" stroke-width="4" stroke-linecap="round" stroke-linejoin="round" stroke-dashoffset="24.75" stroke-dasharray="0,16.5"/><circle id="e9vAqmwJ6xc7" r="1.990378" transform="matrix(1.5 0 0 0 56 62.00962)" opacity="0" fill="rgb(255,255,255)" stroke="none" stroke-width="2" stroke-linecap="round" stroke-linejoin="round"/><circle id="e9vAqmwJ6xc8" r="1.990378" transform="matrix(1.5 0 0 0 72 62.00962)" opacity="0" fill="rgb(255,255,255)" stroke="none" stroke-width="2" stroke-linecap="round" stroke-linejoin="round"/></g></g><g id="e9vAqmwJ6xc9"><path id="e9vAqmwJ6xc10" d="M42,56C42,43.849736,51.849736,34,64,34C76.150264,34,86,43.849736,86,56" fill="none" stroke="rgb(84,131,204)" stroke-width="4" stroke-linecap="round" stroke-linejoin="round"/><path id="e9vAqmwJ6xc11" d="M41,77C37.686292,77,35,74.313708,35,71L35,65C35,61.686292,37.686292,59,41,59L41,59C42.148752,59,43.08,59.931248,43.08,61.08L43.08,74.92C43.08,76.068752,42.148752,77,41,77Z" transform="matrix(1 0 0 1 0 -3)" fill="rgb(169,193,229)" stroke="rgb(169,193,229)" stroke-width="2" stroke-linecap="round" stroke-linejoin="round"/><path id="e9vAqmwJ6xc12" d="M87,77C90.313708,77,93,74.313708,93,71L93,65C93,61.686292,90.313708,59,87,59L87,59C85.851248,59,84.92,59.931248,84.92,61.08L84.92,74.92C84.92,76.068752,85.851248,77,87,77Z" transform="matrix(1 0 0 1 0 -3)" fill="rgb(169,193,229)" stroke="rgb(169,193,229)" stroke-width="2" stroke-linecap="round" stroke-linejoin="round"/><path id="e9vAqmwJ6xc13" d="M68,79C77.19,79,84.86,70.834828,86.62,60.011226" transform="matrix(1 0 0 1 0 14)" fill="none" stroke="rgb(84,131,204)" stroke-width="4" stroke-linecap="round" stroke-linejoin="round"/><line id="e9vAqmwJ6xc14" x1="68" y1="79" x2="64" y2="79" transform="matrix(1 0 0 1 0 14)" fill="none" stroke="rgb(84,131,204)" stroke-width="6" stroke-linecap="round" stroke-linejoin="round"/></g></g></svg>