<svg id="e4L7wafTd3U1" xmlns="http://www.w3.org/2000/svg" xmlns:xlink="http://www.w3.org/1999/xlink" viewBox="0 0 128 128" shape-rendering="geometricPrecision" text-rendering="geometricPrecision"><g id="e4L7wafTd3U2"><path id="e4L7wafTd3U3" d="M39,47.13C39,47.13,59,63,59,63C59,63,59,89,59,89L69,85C69,85,69,63,69,63C69,63,89,47.13,89,47.13C90.329266,46.072289,90.845472,44.290353,90.287402,42.685903C89.729333,41.081454,88.218729,40.004495,86.52,40L41.52,40C39.813915,39.987402,38.287633,41.058336,37.71909,42.666951C37.150547,44.275566,37.664906,46.067735,39,47.13Z" transform="matrix(1 0 0 1 0 -0.499945)" fill="rgb(204,162,255)" stroke="rgb(154,71,255)" stroke-width="4" stroke-linecap="round" stroke-linejoin="round"/><line id="e4L7wafTd3U4" x1="-14" y1="0" x2="14" y2="0" transform="matrix(1 0 0 1 64 64)" opacity="0" fill="none" stroke="rgb(154,71,255)" stroke-width="4" stroke-linecap="round" stroke-dashoffset="14" stroke-dasharray="0,28"/><line id="e4L7wafTd3U5" x1="-14" y1="0" x2="14" y2="0" transform="matrix(1 0 0 1 64 77)" opacity="0" fill="none" stroke="rgb(154,71,255)" stroke-width="4" stroke-linecap="round" stroke-dashoffset="14" stroke-dasharray="0,28"/><line id="e4L7wafTd3U6" x1="-14" y1="0" x2="14" y2="0" transform="matrix(1 0 0 1 64 52)" opacity="0" fill="none" stroke="rgb(154,71,255)" stroke-width="4" stroke-linecap="round" stroke-dashoffset="14" stroke-dasharray="0,28"/><ellipse id="e4L7wafTd3U7" rx="1.484951" ry="1.484951" transform="matrix(0 0 0 0 75 52)" fill="rgb(204,162,255)" stroke="rgb(154,71,255)" stroke-width="3"/><ellipse id="e4L7wafTd3U8" rx="1.505304" ry="1.505304" transform="matrix(0 0 0 0 54 64)" fill="rgb(204,162,255)" stroke="rgb(154,71,255)" stroke-width="3"/><ellipse id="e4L7wafTd3U9" rx="1.505305" ry="1.505305" transform="matrix(0 0 0 0 74.979646 77)" fill="rgb(204,162,255)" stroke="rgb(154,71,255)" stroke-width="3"/></g></svg>