<svg id="eRies4Bwh0j1" xmlns="http://www.w3.org/2000/svg" xmlns:xlink="http://www.w3.org/1999/xlink" viewBox="0 0 128 128" shape-rendering="geometricPrecision" text-rendering="geometricPrecision"><g id="eRies4Bwh0j2"><g id="eRies4Bwh0j3" transform="matrix(1 0 0 1 0 -22)"><rect id="eRies4Bwh0j4" width="46" height="30" rx="6" ry="6" transform="matrix(1 0 0 1 41 71)" fill="rgb(255,255,255)" stroke="rgb(84,131,204)" stroke-width="4" stroke-linecap="round" stroke-linejoin="round"/><rect id="eRies4Bwh0j5" width="2" height="2" rx="0" ry="0" transform="matrix(1 0 0 1 48 78)" fill="none" stroke="rgb(84,131,204)" stroke-width="4" stroke-linecap="round" stroke-linejoin="round"/><line id="eRies4Bwh0j6" x1="45" y1="87" x2="83" y2="87" fill="none" stroke="rgb(84,131,204)" stroke-width="4" stroke-linejoin="round" stroke-dasharray="7,3.3"/><line id="eRies4Bwh0j7" x1="45" y1="94" x2="67" y2="94" transform="matrix(1 0 0 1 16 0)" fill="none" stroke="rgb(84,131,204)" stroke-width="4" stroke-miterlimit="10" stroke-dasharray="10,2"/></g><g id="eRies4Bwh0j8" transform="matrix(1.30436 0 0 1.3 -19.47904 -8.8)"><rect id="eRies4Bwh0j9" width="46" height="30" rx="6" ry="6" transform="matrix(1 0 0 1 41 41)" fill="rgb(255,255,255)" stroke="rgb(84,131,204)" stroke-width="3.1" stroke-linecap="round" stroke-linejoin="round"/><line id="eRies4Bwh0j10" x1="41" y1="52" x2="87" y2="52" fill="none" stroke="rgb(84,131,204)" stroke-width="4"/><rect id="eRies4Bwh0j11" width="2" height="2" rx="0" ry="0" transform="matrix(1 0 0 1 48 62)" fill="none" stroke="rgb(84,131,204)" stroke-width="4" stroke-linecap="round" stroke-linejoin="round"/><circle id="eRies4Bwh0j12" r="3" transform="matrix(1 0 0 1 78 63)" fill="rgb(84,131,204)" stroke="none" stroke-width="4" stroke-linecap="round" stroke-linejoin="round"/><circle id="eRies4Bwh0j13" r="3" transform="matrix(1 0 0 1 73 63)" fill="rgb(84,131,204)" stroke="none" stroke-width="4" stroke-linecap="round" stroke-linejoin="round"/></g></g></svg>