<svg id="eIMCNAXs3cq1" xmlns="http://www.w3.org/2000/svg" xmlns:xlink="http://www.w3.org/1999/xlink" viewBox="0 0 400 400" shape-rendering="geometricPrecision" text-rendering="geometricPrecision"><g id="eIMCNAXs3cq2"><g id="eIMCNAXs3cq3"><path id="eIMCNAXs3cq4" d="M45.500000,57.500000L354.500000,57.500000C356.200000,57.500000,357.600000,58.100000,358.700000,59.400000C359.800000,60.600000,360.200000,62.100000,360,63.800000L347.800000,153C349.700000,154.800000,350.900000,157.300000,350.900000,160.100000L350.900000,160.100000C350.900000,163.800000,348.800000,167.100000,345.700000,168.800000L322.800000,337.700000C322.400000,340.500000,320.100000,342.500000,317.300000,342.500000L82.600000,342.500000C79.800000,342.500000,77.500000,340.500000,77.100000,337.700000L54.300000,168.900000C51.100000,167.300000,49,164,49,160.200000L49,160.200000C49,157.400000,50.200000,154.800000,52.200000,153L40,63.700000C39.800000,62.100000,40.200000,60.600000,41.300000,59.300000C42.400000,58.100000,43.800000,57.500000,45.500000,57.500000L45.500000,57.500000Z" clip-rule="evenodd" fill="rgb(255,204,0)" fill-rule="evenodd" stroke="none" stroke-width="1"/><path id="eIMCNAXs3cq5" d="M69.100000,179.600000C67.600000,179.600000,66.300000,178.400000,66.300000,176.800000C66.300000,175.200000,67.500000,174,69.100000,174L330.800000,174C332.300000,174,333.600000,175.200000,333.600000,176.800000C333.600000,178.400000,332.400000,179.600000,330.800000,179.600000L69.100000,179.600000ZM336.100000,140.600000C337.600000,140.600000,338.900000,141.800000,338.900000,143.400000C338.900000,145,337.700000,146.200000,336.100000,146.200000L63.800000,146.200000C62.300000,146.200000,61,145,61,143.400000C61,141.800000,62.200000,140.600000,63.800000,140.600000L336.100000,140.600000Z" fill="rgb(232,186,0)" stroke="none" stroke-width="1"/></g><g id="eIMCNAXs3cq6"><g id="eIMCNAXs3cq7"><path id="eIMCNAXs3cq8" d="M42.100000,78.900000L40.100000,78.900000C37.300000,78.900000,35,81.200000,35,84L35,120.400000C35,123.200000,37.300000,125.500000,40.100000,125.500000L48.400000,125.500000L42.100000,78.900000L42.100000,78.900000Z" clip-rule="evenodd" fill="rgb(77,77,77)" fill-rule="evenodd" stroke="none" stroke-width="1"/><path id="eIMCNAXs3cq9" d="M30.100000,85.600000L35,85.600000L35,118.700000L30.100000,118.700000C27.300000,118.700000,25,116.400000,25,113.600000L25,90.600000C25,87.900000,27.300000,85.600000,30.100000,85.600000Z" clip-rule="evenodd" fill="rgb(102,102,102)" fill-rule="evenodd" stroke="none" stroke-width="1"/><path id="eIMCNAXs3cq10" d="M357.900000,78.900000L359.900000,78.900000C362.700000,78.900000,365,81.200000,365,84L365,120.400000C365,123.200000,362.700000,125.500000,359.900000,125.500000L351.600000,125.500000L357.900000,78.900000L357.900000,78.900000Z" clip-rule="evenodd" fill="rgb(77,77,77)" fill-rule="evenodd" stroke="none" stroke-width="1"/><path id="eIMCNAXs3cq11" d="M369.900000,85.600000L365,85.600000L365,118.700000L369.900000,118.700000C372.700000,118.700000,375,116.400000,375,113.600000L375,90.600000C375,87.900000,372.700000,85.600000,369.900000,85.600000Z" clip-rule="evenodd" fill="rgb(102,102,102)" fill-rule="evenodd" stroke="none" stroke-width="1"/></g><path id="eIMCNAXs3cq12" d="M27.300000,107.900000C27.200000,106.400000,28.300000,105.100000,29.900000,105C31.400000,104.900000,32.700000,106,32.800000,107.600000C35.800000,151.600000,55.600000,190.600000,85.600000,218.600000C115.600000,246.600000,155.900000,263.700000,200,263.700000C244.100000,263.700000,284.400000,246.600000,314.400000,218.600000C344.400000,190.600000,364.200000,151.500000,367.200000,107.600000C367.300000,106.100000,368.600000,104.900000,370.100000,105C371.600000,105.100000,372.800000,106.400000,372.700000,107.900000C369.600000,153.300000,349.200000,193.600000,318.200000,222.600000C287.200000,251.600000,245.600000,269.200000,200.100000,269.200000C154.600000,269.200000,113,251.600000,82,222.600000C51,193.600000,30.400000,153.300000,27.300000,107.900000L27.300000,107.900000Z" fill="rgb(51,51,51)" stroke="none" stroke-width="1"/><path id="eIMCNAXs3cq13" d="M85,232.600000C81.500000,229.700000,81.100000,224.500000,84,221C86.900000,217.500000,92.100000,217.100000,95.600000,220C110,232.100000,126.500000,241.800000,144.500000,248.300000C161.800000,254.600000,180.500000,258.100000,200.100000,258.100000C219.600000,258.100000,238.400000,254.700000,255.700000,248.300000C273.700000,241.700000,290.200000,232.100000,304.600000,220C308.100000,217.100000,313.300000,217.500000,316.200000,221C319.100000,224.500000,318.700000,229.700000,315.200000,232.600000C299.300000,246,281.100000,256.600000,261.400000,263.800000C242.200000,270.800000,221.600000,274.600000,200.200000,274.600000C178.800000,274.600000,158.200000,270.800000,139,263.800000C119,256.700000,100.800000,246,85,232.600000Z" fill="rgb(77,77,77)" stroke="none" stroke-width="1"/></g></g></svg>