<svg id="ejXaY6mPk7p1" xmlns="http://www.w3.org/2000/svg" xmlns:xlink="http://www.w3.org/1999/xlink" viewBox="0 0 400 400" shape-rendering="geometricPrecision" text-rendering="geometricPrecision"><g id="ejXaY6mPk7p2"><g id="ejXaY6mPk7p3"><path id="ejXaY6mPk7p4" d="M200,375L239.600000,347.600000C249.100000,341,252.600000,327.900000,252.600000,314L252.600000,257L200,257L147.500000,257L147.500000,314C147.500000,327.900000,151,341,160.500000,347.600000L200,375L200,375Z" clip-rule="evenodd" fill="rgb(77,77,77)" fill-rule="evenodd" stroke="none" stroke-width="1"/><path id="ejXaY6mPk7p5" d="M192.400000,240.700000L208,240.700000L209.600000,240.700000L209.600000,291.100000C209.600000,296.300000,205.400000,300.400000,200.300000,300.400000C195.200000,300.400000,191,296.200000,191,291.100000L191,240.700000L192.400000,240.700000Z" fill="rgb(51,51,51)" stroke="none" stroke-width="1"/></g><polygon id="ejXaY6mPk7p6" points="192.400000,240.700000 192.400000,117.400000 207.900000,117.400000 207.900000,240.700000" fill="rgb(255,204,153)" stroke="none" stroke-width="1"/><g id="ejXaY6mPk7p7"><polygon id="ejXaY6mPk7p8" points="229,49.300000 171.300000,49.300000 171.300000,30.600000 229,30.600000" fill="rgb(0,0,0)" stroke="none" stroke-width="1"/><path id="ejXaY6mPk7p9" d="M209.500000,99.700000L209.500000,117.500000L207.900000,117.500000L192.300000,117.500000L190.700000,117.500000L190.700000,99.700000C183.900000,98,177.900000,94.400000,173.100000,89.600000C166.200000,82.700000,161.900000,73.100000,161.900000,62.600000L161.900000,25L180.600000,25L180.600000,62.600000C180.600000,68,182.800000,72.800000,186.300000,76.400000C189.800000,79.900000,194.700000,82.100000,200.100000,82.100000C205.500000,82.100000,210.300000,79.900000,213.900000,76.400000C217.400000,72.900000,219.600000,68,219.600000,62.600000L219.600000,25L238.300000,25L238.300000,62.600000C238.300000,73.100000,234,82.700000,227.100000,89.600000C222.300000,94.400000,216.300000,97.900000,209.500000,99.700000L209.500000,99.700000Z" fill="rgb(255,153,102)" stroke="none" stroke-width="1"/></g></g></svg>