<svg id="eH9ur4JcYmv1" xmlns="http://www.w3.org/2000/svg" xmlns:xlink="http://www.w3.org/1999/xlink" viewBox="0 0 400 400" shape-rendering="geometricPrecision" text-rendering="geometricPrecision"><g id="eH9ur4JcYmv2"><g id="eH9ur4JcYmv3"><g id="eH9ur4JcYmv4"><polygon id="eH9ur4JcYmv5" points="48.200000,151.300000 39.100000,151.300000 33.300000,282.200000 35.900000,282.200000" clip-rule="evenodd" fill="rgb(217,169,134)" fill-rule="evenodd" stroke="none" stroke-width="1"/><polygon id="eH9ur4JcYmv6" points="57.300000,151.300000 48.200000,151.300000 35.900000,282.200000 38.600000,282.200000" clip-rule="evenodd" fill="rgb(237,200,173)" fill-rule="evenodd" stroke="none" stroke-width="1"/></g><g id="eH9ur4JcYmv7"><polygon id="eH9ur4JcYmv8" points="155.500000,151.300000 146.400000,151.300000 152.400000,282.200000 155.100000,282.200000" clip-rule="evenodd" fill="rgb(217,169,134)" fill-rule="evenodd" stroke="none" stroke-width="1"/><polygon id="eH9ur4JcYmv9" points="164.600000,151.300000 155.500000,151.300000 155.100000,282.200000 157.800000,282.200000" clip-rule="evenodd" fill="rgb(237,200,173)" fill-rule="evenodd" stroke="none" stroke-width="1"/></g><g id="eH9ur4JcYmv10"><polygon id="eH9ur4JcYmv11" points="258.300000,151.300000 249.200000,151.300000 261.600000,282.200000 264.200000,282.200000" clip-rule="evenodd" fill="rgb(194,147,113)" fill-rule="evenodd" stroke="none" stroke-width="1"/><polygon id="eH9ur4JcYmv12" points="267.400000,151.300000 258.300000,151.300000 264.200000,282.200000 266.900000,282.200000" clip-rule="evenodd" fill="rgb(217,169,134)" fill-rule="evenodd" stroke="none" stroke-width="1"/></g><g id="eH9ur4JcYmv13"><polygon id="eH9ur4JcYmv14" points="356.500000,151.300000 365.600000,151.300000 371.400000,282.200000 368.800000,282.200000" clip-rule="evenodd" fill="rgb(237,200,173)" fill-rule="evenodd" stroke="none" stroke-width="1"/><polygon id="eH9ur4JcYmv15" points="347.400000,151.300000 356.500000,151.300000 368.800000,282.200000 366.100000,282.200000" clip-rule="evenodd" fill="rgb(217,169,134)" fill-rule="evenodd" stroke="none" stroke-width="1"/></g></g><g id="eH9ur4JcYmv16"><g id="eH9ur4JcYmv17"><polygon id="eH9ur4JcYmv18" points="167.900000,117.800000 25,117.800000 25,124.600000 167.900000,124.600000" clip-rule="evenodd" fill="rgb(217,169,134)" fill-rule="evenodd" stroke="none" stroke-width="1"/><polygon id="eH9ur4JcYmv19" points="167.900000,117.800000 375,117.800000 375,124.600000 167.900000,124.600000" clip-rule="evenodd" fill="rgb(237,200,173)" fill-rule="evenodd" stroke="none" stroke-width="1"/><polygon id="eH9ur4JcYmv20" points="365.600000,124.600000 155.500000,124.600000 155.500000,151.300000 365.600000,151.300000" clip-rule="evenodd" fill="rgb(237,200,173)" fill-rule="evenodd" stroke="none" stroke-width="1"/><polygon id="eH9ur4JcYmv21" points="365.600000,124.600000 155.500000,124.600000 155.500000,128.200000 365.600000,128.200000" clip-rule="evenodd" fill="rgb(217,169,134)" fill-rule="evenodd" stroke="none" stroke-width="1"/><polygon id="eH9ur4JcYmv22" points="155.500000,151.300000 39.100000,151.300000 39.100000,124.600000 155.500000,124.600000" clip-rule="evenodd" fill="rgb(217,169,134)" fill-rule="evenodd" stroke="none" stroke-width="1"/><polygon id="eH9ur4JcYmv23" points="155.500000,128.200000 39.100000,128.200000 39.100000,124.600000 155.500000,124.600000" clip-rule="evenodd" fill="rgb(167,132,103)" fill-rule="evenodd" stroke="none" stroke-width="1"/></g><g id="eH9ur4JcYmv24"><g id="eH9ur4JcYmv25"><polygon id="eH9ur4JcYmv26" points="158.800000,130.600000 258.100000,130.600000 258.100000,148 158.800000,148" clip-rule="evenodd" fill="rgb(207,156,120)" fill-rule="evenodd" stroke="none" stroke-width="1"/><polygon id="eH9ur4JcYmv27" points="160.500000,130.600000 259.700000,130.600000 259.700000,148 160.500000,148" clip-rule="evenodd" fill="rgb(217,169,134)" fill-rule="evenodd" stroke="none" stroke-width="1"/></g><path id="eH9ur4JcYmv28" d="M210.100000,137.400000C209,137.400000,208.200000,138.300000,208.200000,139.300000C208.200000,140.400000,209.100000,141.200000,210.100000,141.200000C211.200000,141.200000,212,140.300000,212,139.300000C212,138.300000,211.100000,137.400000,210.100000,137.400000Z" clip-rule="evenodd" fill="rgb(151,107,78)" fill-rule="evenodd" stroke="none" stroke-width="1"/></g><g id="eH9ur4JcYmv29"><g id="eH9ur4JcYmv30"><polygon id="eH9ur4JcYmv31" points="263,130.600000 362.300000,130.600000 362.300000,148 263,148" clip-rule="evenodd" fill="rgb(207,156,120)" fill-rule="evenodd" stroke="none" stroke-width="1"/><polygon id="eH9ur4JcYmv32" points="264.700000,130.600000 363.900000,130.600000 363.900000,148 264.700000,148" clip-rule="evenodd" fill="rgb(217,169,134)" fill-rule="evenodd" stroke="none" stroke-width="1"/></g><path id="eH9ur4JcYmv33" d="M314.300000,137.400000C313.200000,137.400000,312.400000,138.300000,312.400000,139.300000C312.400000,140.400000,313.300000,141.200000,314.300000,141.200000C315.400000,141.200000,316.200000,140.300000,316.200000,139.300000C316.200000,138.300000,315.400000,137.400000,314.300000,137.400000Z" clip-rule="evenodd" fill="rgb(151,107,78)" fill-rule="evenodd" stroke="none" stroke-width="1"/></g></g></g></svg>