<svg id="e7Z1NvYHU4z1" xmlns="http://www.w3.org/2000/svg" xmlns:xlink="http://www.w3.org/1999/xlink" viewBox="0 0 400 400" shape-rendering="geometricPrecision" text-rendering="geometricPrecision"><g id="e7Z1NvYHU4z2"><g id="e7Z1NvYHU4z3"><path id="e7Z1NvYHU4z4" d="M213.900000,228.900000L186.100000,228.900000C173.100000,228.900000,167.700000,219.800000,170.300000,208C172.700000,196.800000,171.700000,180,167.100000,169.900000C162.400000,159.700000,158.300000,149.300000,158.300000,137.700000L158.300000,47.500000C158.300000,35.100000,168.400000,25,180.800000,25L219.300000,25C231.700000,25,241.800000,35.100000,241.800000,47.500000L241.800000,137.800000C241.800000,149.400000,237.700000,159.800000,233,170C228.400000,180.100000,227.400000,196.900000,229.800000,208.100000C232.300000,219.800000,226.900000,228.900000,213.900000,228.900000L213.900000,228.900000Z" clip-rule="evenodd" fill="rgb(153,204,204)" fill-rule="evenodd" stroke="none" stroke-width="1"/><path id="e7Z1NvYHU4z5" d="M170.400000,41.900000L170.400000,41.900000C171.900000,41.900000,173.100000,43.100000,173.100000,44.600000L173.100000,140.200000C173.100000,141.700000,171.900000,142.900000,170.400000,142.900000L170.400000,142.900000C168.900000,142.900000,167.700000,141.700000,167.700000,140.200000L167.700000,44.600000C167.700000,43.100000,168.900000,41.900000,170.400000,41.900000Z" clip-rule="evenodd" fill="rgb(102,153,153)" fill-rule="evenodd" stroke="none" stroke-width="1"/><path id="e7Z1NvYHU4z6" d="M185.200000,41.900000L185.200000,41.900000C186.700000,41.900000,187.900000,43.100000,187.900000,44.600000L187.900000,140.200000C187.900000,141.700000,186.700000,142.900000,185.200000,142.900000L185.200000,142.900000C183.700000,142.900000,182.500000,141.700000,182.500000,140.200000L182.500000,44.600000C182.500000,43.100000,183.700000,41.900000,185.200000,41.900000Z" clip-rule="evenodd" fill="rgb(102,153,153)" fill-rule="evenodd" stroke="none" stroke-width="1"/><path id="e7Z1NvYHU4z7" d="M200,41.900000L200,41.900000C201.500000,41.900000,202.700000,43.100000,202.700000,44.600000L202.700000,140.200000C202.700000,141.700000,201.500000,142.900000,200,142.900000L200,142.900000C198.500000,142.900000,197.300000,141.700000,197.300000,140.200000L197.300000,44.600000C197.300000,43.100000,198.500000,41.900000,200,41.900000Z" clip-rule="evenodd" fill="rgb(102,153,153)" fill-rule="evenodd" stroke="none" stroke-width="1"/><path id="e7Z1NvYHU4z8" d="M214.800000,41.900000L214.800000,41.900000C216.300000,41.900000,217.500000,43.100000,217.500000,44.600000L217.500000,140.200000C217.500000,141.700000,216.300000,142.900000,214.800000,142.900000L214.800000,142.900000C213.300000,142.900000,212.100000,141.700000,212.100000,140.200000L212.100000,44.600000C212.100000,43.100000,213.300000,41.900000,214.800000,41.900000Z" clip-rule="evenodd" fill="rgb(102,153,153)" fill-rule="evenodd" stroke="none" stroke-width="1"/><path id="e7Z1NvYHU4z9" d="M229.600000,41.900000L229.600000,41.900000C231.100000,41.900000,232.300000,43.100000,232.300000,44.600000L232.300000,140.200000C232.300000,141.700000,231.100000,142.900000,229.600000,142.900000L229.600000,142.900000C228.100000,142.900000,226.900000,141.700000,226.900000,140.200000L226.900000,44.600000C226.900000,43.100000,228.100000,41.900000,229.600000,41.900000Z" clip-rule="evenodd" fill="rgb(102,153,153)" fill-rule="evenodd" stroke="none" stroke-width="1"/></g><g id="e7Z1NvYHU4z10"><polygon id="e7Z1NvYHU4z11" points="209,228.900000 189.900000,228.900000 189.900000,317.700000 182.200000,336.800000 189.900000,375 209,375 216.700000,336.800000 209,317.700000" clip-rule="evenodd" fill="rgb(204,204,204)" fill-rule="evenodd" stroke="none" stroke-width="1"/><polygon id="e7Z1NvYHU4z12" points="209,228.900000 203.900000,228.900000 203.900000,317.700000 216.700000,336.800000 209,317.700000" clip-rule="evenodd" fill="rgb(179,179,179)" fill-rule="evenodd" stroke="none" stroke-width="1"/></g></g></svg>