<svg id="s1" xmlns="http://www.w3.org/2000/svg" xmlns:xlink="http://www.w3.org/1999/xlink" viewBox="0 0 100 100"><path id="s3" d="M64.680000,39.140000C64.719819,41.262786,64.131902,43.350065,62.990000,45.140000C61.829864,46.911460,60.226898,48.348958,58.340000,49.310000C60.485209,50.303887,62.330534,51.845682,63.690000,53.780000C65.037124,55.751040,65.736227,58.093035,65.690000,60.480000C65.862132,64.205512,64.313735,67.803693,61.490000,70.240000Q57.260000,73.820000,50,73.820000Q42.740000,73.820000,38.540000,70.220000C35.707072,67.796673,34.146993,64.204436,34.310000,60.480000C34.264254,58.086878,34.963130,55.738653,36.310000,53.760000C37.653630,51.825291,39.490492,50.285366,41.630000,49.300000C39.746413,48.341928,38.149234,46.903432,37,45.130000C35.869485,43.335937,35.288941,41.250151,35.330000,39.130000C35.171760,35.551508,36.620408,32.089421,39.280000,29.690000Q43.220000,26.180000,50,26.180000Q56.780000,26.180000,60.710000,29.670000C63.385301,32.072454,64.842302,35.547970,64.680000,39.140000ZM56.430000,59.810000C56.509545,58.037740,55.879788,56.306806,54.680000,55C53.448848,53.753736,51.750525,53.082391,50,53.150000C48.238979,53.072571,46.527580,53.744776,45.290000,55C44.077591,56.319202,43.446904,58.070709,43.540000,59.860000C43.459276,61.618002,44.077646,63.336495,45.260000,64.640000C46.522254,65.867037,48.242817,66.505896,50,66.400000C51.742274,66.498385,53.446340,65.863892,54.700000,64.650000C55.902045,63.333737,56.525325,61.589993,56.430000,59.810000ZM55.430000,39.590000C55.508985,38.012876,54.999364,36.462632,54,35.240000C52.977407,34.124960,51.511025,33.523743,50,33.600000C48.497818,33.516564,47.034965,34.098048,46,35.190000C44.987631,36.421107,44.476964,37.988818,44.570000,39.580000C44.499811,41.177334,45.007477,42.746484,46,44C47.006362,45.143131,48.478866,45.765264,50,45.690000C51.521134,45.765264,52.993638,45.143131,54,44C55.004178,42.753928,55.529176,41.189578,55.480000,39.590000ZM64.630000,39.140000C64.669819,41.262786,64.081902,43.350065,62.940000,45.140000C61.779864,46.911460,60.176898,48.348958,58.290000,49.310000C60.435209,50.303887,62.280534,51.845682,63.640000,53.780000C64.987124,55.751040,65.686227,58.093035,65.640000,60.480000C65.812132,64.205512,64.263735,67.803693,61.440000,70.240000Q57.260000,73.820000,50,73.820000Q42.740000,73.820000,38.540000,70.220000C35.707072,67.796673,34.146993,64.204436,34.310000,60.480000C34.264254,58.086878,34.963130,55.738653,36.310000,53.760000C37.653630,51.825291,39.490492,50.285366,41.630000,49.300000C39.746413,48.341928,38.149234,46.903432,37,45.130000C35.869485,43.335937,35.288941,41.250151,35.330000,39.130000C35.171760,35.551508,36.620408,32.089421,39.280000,29.690000Q43.220000,26.180000,50,26.180000Q56.780000,26.180000,60.710000,29.670000C63.385301,32.072454,64.842302,35.547970,64.680000,39.140000ZM56.430000,59.810000C56.509545,58.037740,55.879788,56.306806,54.680000,55C53.448848,53.753736,51.750525,53.082391,50,53.150000C48.238979,53.072571,46.527580,53.744776,45.290000,55C44.077591,56.319202,43.446904,58.070709,43.540000,59.860000C43.459276,61.618002,44.077646,63.336495,45.260000,64.640000C46.522254,65.867037,48.242817,66.505896,50,66.400000C51.742274,66.498385,53.446340,65.863892,54.700000,64.650000C55.902045,63.333737,56.525325,61.589993,56.430000,59.810000ZM55.430000,39.590000C55.508985,38.012876,54.999364,36.462632,54,35.240000C52.977407,34.124960,51.511025,33.523743,50,33.600000C48.497818,33.516564,47.034965,34.098048,46,35.190000C44.987631,36.421107,44.476964,37.988818,44.570000,39.580000C44.499811,41.177334,45.007477,42.746484,46,44C47.006362,45.143131,48.478866,45.765264,50,45.690000C51.521134,45.765264,52.993638,45.143131,54,44C55.004178,42.753928,55.529176,41.189578,55.480000,39.590000Z" fill="rgb(84,131,204)" stroke="none" stroke-width="1"/></svg>