<svg id="ejy03pxkzoi1" xmlns="http://www.w3.org/2000/svg" xmlns:xlink="http://www.w3.org/1999/xlink" viewBox="0 0 400 400" shape-rendering="geometricPrecision" text-rendering="geometricPrecision"><g id="ejy03pxkzoi2"><g id="ejy03pxkzoi3"><path id="ejy03pxkzoi4" d="M273.500000,50.500000L217.500000,50.500000C190.100000,50.500000,166.400000,43.200000,140.900000,25C121,58.800000,122.300000,97.600000,142.100000,133.800000C167.200000,109.100000,192.400000,94.500000,217.500000,89.400000L273.500000,89.400000L273.500000,50.500000L273.500000,50.500000Z" clip-rule="evenodd" fill="rgb(77,77,77)" fill-rule="evenodd" stroke="none" stroke-width="1"/><path id="ejy03pxkzoi5" d="M140.800000,25C149.100000,30.900000,157.400000,35.800000,165.600000,39.700000C156.200000,63.500000,156.200000,89,165.100000,114C157.400000,119.700000,149.700000,126.300000,142,133.900000C122.200000,97.600000,121,58.800000,140.800000,25Z" clip-rule="evenodd" fill="rgb(204,204,204)" fill-rule="evenodd" stroke="none" stroke-width="1"/></g><g id="ejy03pxkzoi6"><path id="ejy03pxkzoi7" d="M254.700000,89.500000C254.600000,127.400000,252.100000,151,249.300000,159.400000C243.100000,178,242.800000,198,242.800000,231.900000C242.800000,273.800000,242.800000,315.700000,242.800000,357.600000C242.800000,367.200000,235,375,225.400000,375L208,375C195.300000,375.200000,195.500000,369.600000,200,365C206,358.800000,208,356.600000,208,343.600000L208,91.800000C211.200000,90.900000,214.300000,90.100000,217.500000,89.400000L254.700000,89.500000L254.700000,89.500000ZM225.400000,349.900000C221.800000,349.900000,218.900000,352.800000,218.900000,356.400000C218.900000,360,221.800000,362.900000,225.400000,362.900000C229,362.900000,231.900000,360,231.900000,356.400000C231.900000,352.800000,229,349.900000,225.400000,349.900000Z" fill="rgb(255,153,102)" stroke="none" stroke-width="1"/><path id="ejy03pxkzoi8" d="M242.900000,251.600000L242.900000,357.600000C242.900000,367.200000,235.100000,375,225.500000,375L208,375C195.300000,375.200000,195.500000,369.600000,200,365C206,358.800000,208,356.600000,208,343.600000L208,251.600000L242.900000,251.600000ZM225.400000,349.900000C221.800000,349.900000,218.900000,352.800000,218.900000,356.400000C218.900000,360,221.800000,362.900000,225.400000,362.900000C229,362.900000,231.900000,360,231.900000,356.400000C231.900000,352.800000,229,349.900000,225.400000,349.900000Z" fill="rgb(26,26,26)" stroke="none" stroke-width="1"/></g></g></svg>