<svg id="s1" xmlns="http://www.w3.org/2000/svg" xmlns:xlink="http://www.w3.org/1999/xlink" viewBox="0 0 100 100"><path id="s3" d="M44.380000,45.920000L49.280000,45.920000Q52.780000,45.920000,54.470000,44.170000C55.631951,42.908033,56.240531,41.233536,56.160000,39.520000C56.253984,37.894483,55.645856,36.306794,54.490000,35.160000C53.216928,34.063248,51.567600,33.503911,49.890000,33.600000C48.288496,33.545454,46.719305,34.059071,45.460000,35.050000C44.302442,35.953329,43.641977,37.352179,43.680000,38.820000L34.480000,38.820000C34.462634,36.496151,35.160910,34.223264,36.480000,32.310000C37.854948,30.329282,39.751767,28.768213,41.960000,27.800000C44.393965,26.700315,47.039340,26.147346,49.710000,26.180000Q57.070000,26.180000,61.240000,29.700000C64.054188,32.115271,65.593539,35.696015,65.410000,39.400000C65.414329,41.511774,64.733603,43.567986,63.470000,45.260000C62.164106,47.053602,60.408446,48.471238,58.380000,49.370000C60.724752,50.111386,62.771043,51.583033,64.220000,53.570000C65.531291,55.524523,66.205475,57.837009,66.150000,60.190000C66.282640,64.014713,64.612886,67.680027,61.640000,70.090000Q57.130000,73.820000,49.720000,73.820000Q42.780000,73.820000,38.370000,70.160000C35.472063,67.796698,33.841474,64.217537,33.960000,60.480000L43.160000,60.480000C43.126606,62.136855,43.865775,63.714981,45.160000,64.750000C46.510916,65.871821,48.224795,66.462078,49.980000,66.410000C51.814557,66.483354,53.608621,65.857934,55,64.660000C56.254666,63.466857,56.932748,61.789880,56.860000,60.060000Q56.860000,53.120000,49.220000,53.120000L44.380000,53.120000ZM44.380000,45.920000L49.280000,45.920000Q52.780000,45.920000,54.470000,44.170000C55.631951,42.908033,56.240531,41.233536,56.160000,39.520000C56.253984,37.894483,55.645856,36.306794,54.490000,35.160000C53.216928,34.063248,51.567600,33.503911,49.890000,33.600000C48.288496,33.545454,46.719305,34.059071,45.460000,35.050000C44.302442,35.953329,43.641977,37.352179,43.680000,38.820000L34.480000,38.820000C34.462634,36.496151,35.160910,34.223264,36.480000,32.310000C37.854948,30.329282,39.751767,28.768213,41.960000,27.800000C44.393965,26.700315,47.039340,26.147346,49.710000,26.180000Q57.070000,26.180000,61.240000,29.700000C64.054188,32.115271,65.593539,35.696015,65.410000,39.400000C65.414329,41.511774,64.733603,43.567986,63.470000,45.260000C62.164106,47.053602,60.408446,48.471238,58.380000,49.370000C60.724752,50.111386,62.771043,51.583033,64.220000,53.570000C65.531291,55.524523,66.205475,57.837009,66.150000,60.190000C66.282640,64.014713,64.612886,67.680027,61.640000,70.090000Q57.130000,73.820000,49.720000,73.820000Q42.780000,73.820000,38.370000,70.160000C35.472063,67.796698,33.841474,64.217537,33.960000,60.480000L43.160000,60.480000C43.126606,62.136855,43.865775,63.714981,45.160000,64.750000C46.510916,65.871821,48.224795,66.462078,49.980000,66.410000C51.814557,66.483354,53.608621,65.857934,55,64.660000C56.254666,63.466857,56.932748,61.789880,56.860000,60.060000Q56.860000,53.120000,49.220000,53.120000L44.380000,53.120000Z" fill="rgb(84,131,204)" stroke="none" stroke-width="1"/></svg>