<svg id="eDq6KHf2PSe1" xmlns="http://www.w3.org/2000/svg" xmlns:xlink="http://www.w3.org/1999/xlink" viewBox="0 0 400 400" shape-rendering="geometricPrecision" text-rendering="geometricPrecision"><g id="eDq6KHf2PSe2"><g id="eDq6KHf2PSe3"><polygon id="eDq6KHf2PSe4" points="149.600000,166.700000 127.400000,166.700000 110.300000,286 115.500000,286" clip-rule="evenodd" fill="rgb(151,107,78)" fill-rule="evenodd" stroke="none" stroke-width="1"/><polygon id="eDq6KHf2PSe5" points="75.800000,166.700000 53.600000,166.700000 30.100000,286 35.200000,286" clip-rule="evenodd" fill="rgb(151,107,78)" fill-rule="evenodd" stroke="none" stroke-width="1"/><polygon id="eDq6KHf2PSe6" points="259.600000,166.700000 237.500000,166.700000 271.100000,286 276.200000,286" clip-rule="evenodd" fill="rgb(151,107,78)" fill-rule="evenodd" stroke="none" stroke-width="1"/><polygon id="eDq6KHf2PSe7" points="345.800000,166.700000 323.700000,166.700000 369.900000,286 375,286" clip-rule="evenodd" fill="rgb(151,107,78)" fill-rule="evenodd" stroke="none" stroke-width="1"/><g id="eDq6KHf2PSe8"><polygon id="eDq6KHf2PSe9" points="127.400000,166.700000 122.300000,166.700000 105.200000,286 110.300000,286" clip-rule="evenodd" fill="rgb(225,180,123)" fill-rule="evenodd" stroke="none" stroke-width="1"/><polygon id="eDq6KHf2PSe10" points="53.600000,166.700000 48.500000,166.700000 25,286 30.100000,286" clip-rule="evenodd" fill="rgb(225,180,123)" fill-rule="evenodd" stroke="none" stroke-width="1"/><polygon id="eDq6KHf2PSe11" points="237.500000,166.700000 232.300000,166.700000 265.900000,286 271.100000,286" clip-rule="evenodd" fill="rgb(181,145,116)" fill-rule="evenodd" stroke="none" stroke-width="1"/><polygon id="eDq6KHf2PSe12" points="323.700000,166.700000 318.500000,166.700000 364.800000,286 369.900000,286" clip-rule="evenodd" fill="rgb(181,145,116)" fill-rule="evenodd" stroke="none" stroke-width="1"/></g></g><g id="eDq6KHf2PSe13"><g id="eDq6KHf2PSe14"><polygon id="eDq6KHf2PSe15" points="149.600000,166.700000 127.400000,166.700000 125.800000,178 146.300000,178" clip-rule="evenodd" fill="rgb(135,94,66)" fill-rule="evenodd" stroke="none" stroke-width="1"/><polygon id="eDq6KHf2PSe16" points="75.800000,166.700000 53.600000,166.700000 51.400000,178 71.900000,178" clip-rule="evenodd" fill="rgb(135,94,66)" fill-rule="evenodd" stroke="none" stroke-width="1"/><polygon id="eDq6KHf2PSe17" points="259.600000,166.700000 237.500000,166.700000 240.700000,178 261.200000,178" clip-rule="evenodd" fill="rgb(135,94,66)" fill-rule="evenodd" stroke="none" stroke-width="1"/><polygon id="eDq6KHf2PSe18" points="345.800000,166.700000 323.700000,166.700000 328,178 348.600000,178" clip-rule="evenodd" fill="rgb(135,94,66)" fill-rule="evenodd" stroke="none" stroke-width="1"/></g><g id="eDq6KHf2PSe19"><polygon id="eDq6KHf2PSe20" points="127.400000,166.700000 122.300000,166.700000 120.700000,178 125.800000,178" clip-rule="evenodd" fill="rgb(189,151,102)" fill-rule="evenodd" stroke="none" stroke-width="1"/><polygon id="eDq6KHf2PSe21" points="53.600000,166.700000 48.500000,166.700000 46.300000,178 51.400000,178" clip-rule="evenodd" fill="rgb(189,151,102)" fill-rule="evenodd" stroke="none" stroke-width="1"/></g><g id="eDq6KHf2PSe22"><polygon id="eDq6KHf2PSe23" points="237.500000,166.700000 232.300000,166.700000 235.500000,178 240.700000,178" clip-rule="evenodd" fill="rgb(167,132,103)" fill-rule="evenodd" stroke="none" stroke-width="1"/><polygon id="eDq6KHf2PSe24" points="323.700000,166.700000 318.500000,166.700000 322.900000,178 328,178" clip-rule="evenodd" fill="rgb(167,132,103)" fill-rule="evenodd" stroke="none" stroke-width="1"/></g></g><g id="eDq6KHf2PSe25"><polygon id="eDq6KHf2PSe26" points="370.600000,114 105.500000,114 116.900000,166.700000 359.200000,166.700000" clip-rule="evenodd" fill="rgb(151,107,78)" fill-rule="evenodd" stroke="none" stroke-width="1"/><polygon id="eDq6KHf2PSe27" points="198.500000,120.900000 114,120.900000 122.400000,159.800000 198.500000,159.800000" clip-rule="evenodd" fill="rgb(107,76,56)" fill-rule="evenodd" stroke="none" stroke-width="1"/><polygon id="eDq6KHf2PSe28" points="198.500000,120.900000 145.800000,120.900000 145.800000,159.800000 198.500000,159.800000" clip-rule="evenodd" fill="rgb(151,107,78)" fill-rule="evenodd" stroke="none" stroke-width="1"/><polygon id="eDq6KHf2PSe29" points="362.100000,120.900000 205.300000,120.900000 205.300000,159.800000 353.700000,159.800000" clip-rule="evenodd" fill="rgb(107,76,56)" fill-rule="evenodd" stroke="none" stroke-width="1"/><polygon id="eDq6KHf2PSe30" points="362.100000,120.900000 317.700000,120.900000 317.800000,121 309.400000,159.800000 353.700000,159.800000 362.100000,121" clip-rule="evenodd" fill="rgb(151,107,78)" fill-rule="evenodd" stroke="none" stroke-width="1"/><polygon id="eDq6KHf2PSe31" points="105.500000,114 27.300000,114 38.700000,166.700000 116.900000,166.700000" clip-rule="evenodd" fill="rgb(206,169,116)" fill-rule="evenodd" stroke="none" stroke-width="1"/><polygon id="eDq6KHf2PSe32" points="198.500000,120.900000 145.800000,120.900000 145.800000,159.800000 158.200000,159.800000" clip-rule="evenodd" fill="rgb(115,82,60)" fill-rule="evenodd" stroke="none" stroke-width="1"/><polygon id="eDq6KHf2PSe33" points="362.100000,120.900000 317.800000,120.900000 309.400000,159.800000 321.800000,159.800000" clip-rule="evenodd" fill="rgb(115,82,60)" fill-rule="evenodd" stroke="none" stroke-width="1"/></g></g></svg>