<svg id="egfY6yWFAoE1" xmlns="http://www.w3.org/2000/svg" xmlns:xlink="http://www.w3.org/1999/xlink" viewBox="0 0 400 400" shape-rendering="geometricPrecision" text-rendering="geometricPrecision"><g id="egfY6yWFAoE2"><g id="egfY6yWFAoE3"><g id="egfY6yWFAoE4"><polygon id="egfY6yWFAoE5" points="50.700000,346.300000 25,346.300000 84,158.400000 109.700000,158.400000" clip-rule="evenodd" fill="rgb(217,169,134)" fill-rule="evenodd" stroke="none" stroke-width="1"/><polygon id="egfY6yWFAoE6" points="218.200000,346.300000 196.300000,346.300000 166.600000,172.600000 188.700000,175.300000" clip-rule="evenodd" fill="rgb(151,107,78)" fill-rule="evenodd" stroke="none" stroke-width="1"/><polygon id="egfY6yWFAoE7" points="57.700000,346.300000 50.700000,346.300000 109.700000,158.400000 195.500000,169.500000 226.200000,346.300000 218.200000,346.300000 188.700000,175.300000 114.200000,166.200000" clip-rule="evenodd" fill="rgb(207,156,120)" fill-rule="evenodd" stroke="none" stroke-width="1"/></g><polygon id="egfY6yWFAoE8" points="338.200000,272.400000 211.200000,272.400000 211.200000,259.700000 338.200000,259.700000" clip-rule="evenodd" fill="rgb(151,107,78)" fill-rule="evenodd" stroke="none" stroke-width="1"/><polygon id="egfY6yWFAoE9" points="80.700000,272.400000 211.200000,272.400000 211.200000,259.700000 84.700000,259.700000" clip-rule="evenodd" fill="rgb(217,169,134)" fill-rule="evenodd" stroke="none" stroke-width="1"/></g><g id="egfY6yWFAoE10"><path id="egfY6yWFAoE11" d="M319.500000,199.200000L198.800000,199.200000C185.700000,199.200000,175,209.900000,175,223L175,242.900000C175,256,185.700000,266.700000,198.800000,266.700000L319.500000,266.700000C332.600000,266.700000,343.300000,256,343.300000,242.900000L343.300000,223C343.300000,209.900000,332.600000,199.200000,319.500000,199.200000Z" clip-rule="evenodd" fill="rgb(117,173,117)" fill-rule="evenodd" stroke="none" stroke-width="1"/><path id="egfY6yWFAoE12" d="M198.900000,199.200000L49.900000,199.200000C36.700000,199.200000,26,209.900000,26,223L26,242.900000C26,256,36.700000,266.700000,49.800000,266.700000L198.800000,266.700000C185.700000,266.700000,175,256,175,242.900000L175,223C175,209.900000,185.800000,199.200000,198.900000,199.200000Z" clip-rule="evenodd" fill="rgb(102,153,102)" fill-rule="evenodd" stroke="none" stroke-width="1"/><path id="egfY6yWFAoE13" d="M198.800000,199.200000L49.800000,199.200000C42.100000,199.200000,35.200000,202.900000,30.800000,208.600000L179.700000,208.600000C184.100000,202.900000,191,199.200000,198.800000,199.200000Z" clip-rule="evenodd" fill="rgb(114,161,114)" fill-rule="evenodd" stroke="none" stroke-width="1"/><path id="egfY6yWFAoE14" d="M366.900000,53.700000L355.700000,53.700000C346.500000,53.700000,337.400000,61.200000,335.600000,70.400000L309.800000,199L319.500000,199C328.700000,199,336.800000,204.300000,340.700000,212L371.400000,59.200000C371.900000,56.200000,369.900000,53.700000,366.900000,53.700000L366.900000,53.700000Z" clip-rule="evenodd" fill="rgb(117,173,117)" fill-rule="evenodd" stroke="none" stroke-width="1"/><path id="egfY6yWFAoE15" d="M227.300000,53.700000C218.100000,53.700000,209,61.200000,207.200000,70.400000L181.300000,199L309.700000,199L335.500000,70.400000C337.400000,61.200000,346.400000,53.700000,355.600000,53.700000L227.300000,53.700000L227.300000,53.700000Z" clip-rule="evenodd" fill="rgb(102,153,102)" fill-rule="evenodd" stroke="none" stroke-width="1"/><path id="egfY6yWFAoE16" d="M227.300000,53.700000C220.600000,53.700000,213.900000,57.800000,210.100000,63.600000L338.500000,63.600000C342.300000,57.800000,348.900000,53.700000,355.700000,53.700000C355.700000,53.700000,227.300000,53.700000,227.300000,53.700000Z" clip-rule="evenodd" fill="rgb(114,161,114)" fill-rule="evenodd" stroke="none" stroke-width="1"/><path id="egfY6yWFAoE17" d="M198.800000,266.400000L49.800000,266.400000C42.100000,266.400000,35.200000,262.700000,30.800000,256.900000L179.700000,256.900000C184.100000,262.600000,191,266.400000,198.800000,266.400000Z" clip-rule="evenodd" fill="rgb(92,138,92)" fill-rule="evenodd" stroke="none" stroke-width="1"/></g><g id="egfY6yWFAoE18"><polygon id="egfY6yWFAoE19" points="199.500000,346.300000 173.800000,346.300000 232.700000,158.400000 258.500000,158.400000" clip-rule="evenodd" fill="rgb(217,169,134)" fill-rule="evenodd" stroke="none" stroke-width="1"/><polygon id="egfY6yWFAoE20" points="367,346.300000 345.100000,346.300000 315.300000,172.600000 337.500000,175.300000" clip-rule="evenodd" fill="rgb(151,107,78)" fill-rule="evenodd" stroke="none" stroke-width="1"/><polygon id="egfY6yWFAoE21" points="206.400000,346.300000 199.500000,346.300000 258.500000,158.400000 344.300000,169.500000 375,346.300000 367,346.300000 337.500000,175.300000 262.900000,166.200000" clip-rule="evenodd" fill="rgb(207,156,120)" fill-rule="evenodd" stroke="none" stroke-width="1"/></g></g></svg>