<svg id="eLITNsoMexD1" xmlns="http://www.w3.org/2000/svg" xmlns:xlink="http://www.w3.org/1999/xlink" viewBox="0 0 400 400" shape-rendering="geometricPrecision" text-rendering="geometricPrecision"><g id="eLITNsoMexD2"><g id="eLITNsoMexD3"><polygon id="eLITNsoMexD4" points="290.800000,144 25,144 25,148.200000 290.800000,148.200000" clip-rule="evenodd" fill="rgb(225,180,123)" fill-rule="evenodd" stroke="none" stroke-width="1"/><polygon id="eLITNsoMexD5" points="290.800000,206 25,206 25,210.200000 290.800000,210.200000" clip-rule="evenodd" fill="rgb(225,180,123)" fill-rule="evenodd" stroke="none" stroke-width="1"/><polygon id="eLITNsoMexD6" points="105.300000,148.200000 105.300000,206 109.400000,206 109.400000,148.200000" clip-rule="evenodd" fill="rgb(225,180,123)" fill-rule="evenodd" stroke="none" stroke-width="1"/><polygon id="eLITNsoMexD7" points="31,148.200000 31,206 35.100000,206 35.100000,148.200000" clip-rule="evenodd" fill="rgb(225,180,123)" fill-rule="evenodd" stroke="none" stroke-width="1"/><polygon id="eLITNsoMexD8" points="280.700000,148.200000 280.700000,206 284.900000,206 284.900000,148.200000" clip-rule="evenodd" fill="rgb(225,180,123)" fill-rule="evenodd" stroke="none" stroke-width="1"/><polygon id="eLITNsoMexD9" points="206.400000,148.200000 206.400000,206 210.600000,206 210.600000,148.200000" clip-rule="evenodd" fill="rgb(225,180,123)" fill-rule="evenodd" stroke="none" stroke-width="1"/><polygon id="eLITNsoMexD10" points="206.400000,148.200000 206.400000,206 109.400000,206 109.400000,148.200000" clip-rule="evenodd" fill="rgb(151,107,78)" fill-rule="evenodd" stroke="none" stroke-width="1"/><polygon id="eLITNsoMexD11" points="173.100000,206 109.400000,206 109.400000,148.200000" clip-rule="evenodd" fill="rgb(225,180,123)" fill-rule="evenodd" stroke="none" stroke-width="1"/><polygon id="eLITNsoMexD12" points="35.100000,148.200000 35.100000,206 105.300000,206 105.300000,148.200000" clip-rule="evenodd" fill="rgb(206,169,116)" fill-rule="evenodd" stroke="none" stroke-width="1"/><polygon id="eLITNsoMexD13" points="210.600000,179.200000 210.600000,206 280.700000,206 280.700000,179.200000" clip-rule="evenodd" fill="rgb(206,169,116)" fill-rule="evenodd" stroke="none" stroke-width="1"/><polygon id="eLITNsoMexD14" points="210.600000,175 210.600000,148.200000 280.700000,148.200000 280.700000,175" clip-rule="evenodd" fill="rgb(206,169,116)" fill-rule="evenodd" stroke="none" stroke-width="1"/><polygon id="eLITNsoMexD15" points="280.700000,175 210.600000,175 210.600000,179.200000 280.700000,179.200000" clip-rule="evenodd" fill="rgb(225,180,123)" fill-rule="evenodd" stroke="none" stroke-width="1"/><path id="eLITNsoMexD16" d="M245.600000,189.500000C247.300000,189.500000,248.700000,190.900000,248.700000,192.600000C248.700000,194.300000,247.300000,195.700000,245.600000,195.700000C243.900000,195.700000,242.500000,194.300000,242.500000,192.600000C242.600000,190.900000,243.900000,189.500000,245.600000,189.500000Z" clip-rule="evenodd" fill="rgb(151,107,78)" fill-rule="evenodd" stroke="none" stroke-width="1"/><path id="eLITNsoMexD17" d="M245.600000,158.500000C247.300000,158.500000,248.700000,159.900000,248.700000,161.600000C248.700000,163.300000,247.300000,164.700000,245.600000,164.700000C243.900000,164.700000,242.500000,163.300000,242.500000,161.600000C242.600000,159.900000,243.900000,158.500000,245.600000,158.500000Z" clip-rule="evenodd" fill="rgb(151,107,78)" fill-rule="evenodd" stroke="none" stroke-width="1"/><path id="eLITNsoMexD18" d="M94.200000,174C95.900000,174,97.300000,175.400000,97.300000,177.100000C97.300000,178.800000,95.900000,180.200000,94.200000,180.200000C92.500000,180.200000,91.100000,178.800000,91.100000,177.100000C91.200000,175.400000,92.500000,174,94.200000,174Z" clip-rule="evenodd" fill="rgb(151,107,78)" fill-rule="evenodd" stroke="none" stroke-width="1"/><polygon id="eLITNsoMexD19" points="290.800000,144 375,144 375,148.200000 290.800000,148.200000" clip-rule="evenodd" fill="rgb(181,145,116)" fill-rule="evenodd" stroke="none" stroke-width="1"/><polygon id="eLITNsoMexD20" points="290.800000,206 375,206 375,210.200000 290.800000,210.200000" clip-rule="evenodd" fill="rgb(181,145,116)" fill-rule="evenodd" stroke="none" stroke-width="1"/><polygon id="eLITNsoMexD21" points="370.500000,148.200000 370.500000,206 284.900000,206 284.900000,148.200000" clip-rule="evenodd" fill="rgb(181,145,116)" fill-rule="evenodd" stroke="none" stroke-width="1"/><polygon id="eLITNsoMexD22" points="348.500000,206 284.900000,206 284.900000,148.200000" clip-rule="evenodd" fill="rgb(206,169,116)" fill-rule="evenodd" stroke="none" stroke-width="1"/></g><g id="eLITNsoMexD23"><polygon id="eLITNsoMexD24" points="34.800000,210.200000 43.600000,210.200000 34.700000,256 31.900000,256" clip-rule="evenodd" fill="rgb(225,180,123)" fill-rule="evenodd" stroke="none" stroke-width="1"/><polygon id="eLITNsoMexD25" points="281,210.200000 272.200000,210.200000 281.100000,256 284,256" clip-rule="evenodd" fill="rgb(225,180,123)" fill-rule="evenodd" stroke="none" stroke-width="1"/><polygon id="eLITNsoMexD26" points="117.800000,210.200000 126.600000,210.200000 121.400000,256 118.600000,256" clip-rule="evenodd" fill="rgb(151,107,78)" fill-rule="evenodd" stroke="none" stroke-width="1"/><polygon id="eLITNsoMexD27" points="366.400000,210.200000 357.600000,210.200000 362.800000,256 365.600000,256" clip-rule="evenodd" fill="rgb(151,107,78)" fill-rule="evenodd" stroke="none" stroke-width="1"/></g></g></svg>