<svg id="s1" xmlns="http://www.w3.org/2000/svg" xmlns:xlink="http://www.w3.org/1999/xlink" viewBox="0 0 100 100"><path id="s3" d="M55.730000,26.770000L60.360000,36.150000C61.289428,38.037329,63.088272,39.346260,65.170000,39.650000L75.520000,41.150000C77.905572,41.513936,79.882643,43.190738,80.631150,45.484892C81.379657,47.779046,80.771913,50.299189,79.060000,52L71.570000,59.300000C70.049028,60.777090,69.359734,62.912405,69.730000,65L71.500000,75.310000C71.889704,77.699243,70.895797,80.103563,68.932789,81.520232C66.969781,82.936901,64.374766,83.122646,62.230000,82L53,77.180000C51.137654,76.200289,48.912346,76.200289,47.050000,77.180000L37.770000,82C35.616539,83.131654,33.007315,82.942382,31.039719,81.511789C29.072122,80.081196,28.087513,77.657475,28.500000,75.260000L30.270000,65C30.626342,62.925433,29.938135,60.808447,28.430000,59.340000L20.940000,52C19.197943,50.302462,18.570709,47.763108,19.322040,45.449690C20.073370,43.136272,22.072953,41.450031,24.480000,41.100000L34.830000,39.600000C36.911728,39.296260,38.710572,37.987329,39.640000,36.100000L44.270000,26.720000C45.355997,24.543681,47.583332,23.172597,50.015540,23.183209C52.447749,23.193821,54.663035,24.584288,55.730000,26.770000Z" fill="rgb(84,131,204)" stroke="none" stroke-width="1"/></svg>