<svg id="e9w7AyL8CnG1" xmlns="http://www.w3.org/2000/svg" xmlns:xlink="http://www.w3.org/1999/xlink" viewBox="0 0 400 400" shape-rendering="geometricPrecision" text-rendering="geometricPrecision"><g id="e9w7AyL8CnG2"><path id="e9w7AyL8CnG3" d="M219.700000,102.400000L219.700000,102.400000C227.500000,97.900000,230.200000,87.800000,225.700000,80L198.600000,33.100000C194.100000,25.300000,184,22.600000,176.200000,27.100000L162,35.300000L193.600000,90.100000L75.400000,158.400000C76.600000,166.800000,80.600000,173.600000,87.200000,178.900000C131.400000,153.400000,175.500000,127.900000,219.700000,102.400000L219.700000,102.400000Z" clip-rule="evenodd" fill="rgb(26,26,26)" fill-rule="evenodd" stroke="none" stroke-width="1"/><g id="e9w7AyL8CnG4"><path id="e9w7AyL8CnG5" d="M316.700000,372.900000L316.700000,372.900000C309.200000,377.200000,299.500000,374.600000,295.200000,367.100000L189.700000,184.400000C177.600000,188.900000,163.600000,184.100000,157,172.600000L112.300000,95.200000C104.900000,82.400000,109.300000,65.800000,122.200000,58.400000L145.600000,44.900000C204.600000,147.100000,263.600000,249.200000,322.500000,351.400000C326.800000,358.900000,324.200000,368.600000,316.700000,372.900000ZM304.300000,351.200000L304.300000,351.200000C299.900000,353.700000,298.400000,359.400000,300.900000,363.800000L300.900000,363.800000C303.400000,368.200000,309.100000,369.700000,313.500000,367.200000L313.500000,367.200000C317.900000,364.700000,319.400000,359,316.900000,354.600000L316.900000,354.600000C314.300000,350.200000,308.700000,348.700000,304.300000,351.200000Z" clip-rule="evenodd" fill="rgb(255,204,0)" fill-rule="evenodd" stroke="none" stroke-width="1"/><path id="e9w7AyL8CnG6" d="M192.900000,158.400000L192.900000,158.400000C188.500000,160.900000,187,166.600000,189.500000,171L280.300000,328.200000C282.800000,332.600000,288.500000,334.100000,292.900000,331.600000L292.900000,331.600000C297.300000,329.100000,298.800000,323.400000,296.300000,319L205.500000,161.700000C203,157.400000,197.300000,155.900000,192.900000,158.400000L192.900000,158.400000Z" clip-rule="evenodd" fill="rgb(255,153,102)" fill-rule="evenodd" stroke="none" stroke-width="1"/></g></g></svg>