<svg id="eJAEgD9IqtH1" xmlns="http://www.w3.org/2000/svg" xmlns:xlink="http://www.w3.org/1999/xlink" viewBox="0 0 400 400" shape-rendering="geometricPrecision" text-rendering="geometricPrecision"><g id="eJAEgD9IqtH2"><path id="eJAEgD9IqtH3" d="M295.500000,170.300000L67.500000,170.300000C59.600000,184,54.600000,193.700000,61.800000,206.300000L295.500000,206.300000C319,206.300000,319,170.300000,295.500000,170.300000Z" clip-rule="evenodd" fill="rgb(77,77,77)" fill-rule="evenodd" stroke="none" stroke-width="1"/><g id="eJAEgD9IqtH4"><polygon id="eJAEgD9IqtH5" points="44.300000,170.300000 230.400000,170.300000 211.100000,206.300000 25,206.300000" clip-rule="evenodd" fill="rgb(26,26,26)" fill-rule="evenodd" stroke="none" stroke-width="1"/><polygon id="eJAEgD9IqtH6" points="213.700000,201.500000 211.100000,206.300000 25,206.300000 27.600000,201.500000" clip-rule="evenodd" fill="rgb(204,204,204)" fill-rule="evenodd" stroke="none" stroke-width="1"/><path id="eJAEgD9IqtH7" d="M46.900000,197.100000C46.700000,197.500000,46.300000,197.600000,45.900000,197.400000C45.500000,197.200000,45.400000,196.800000,45.600000,196.400000L57.500000,174.200000C57.700000,173.800000,58.100000,173.700000,58.500000,173.900000C58.800000,174.100000,59,174.500000,58.800000,174.900000L46.900000,197.100000L46.900000,197.100000Z" fill="rgb(51,51,51)" stroke="none" stroke-width="1"/><path id="eJAEgD9IqtH8" d="M62.400000,197.100000C62.200000,197.500000,61.800000,197.600000,61.400000,197.400000C61,197.200000,60.900000,196.800000,61.100000,196.400000L73,174.300000C73.200000,173.900000,73.600000,173.800000,74,174C74.400000,174.200000,74.500000,174.600000,74.300000,175L62.400000,197.100000L62.400000,197.100000Z" fill="rgb(51,51,51)" stroke="none" stroke-width="1"/><path id="eJAEgD9IqtH9" d="M77.900000,197.100000C77.700000,197.500000,77.300000,197.600000,76.900000,197.400000C76.500000,197.200000,76.400000,196.800000,76.600000,196.400000L88.500000,174.200000C88.700000,173.800000,89.100000,173.700000,89.500000,173.900000C89.900000,174.100000,90,174.500000,89.800000,174.900000L77.900000,197.100000L77.900000,197.100000Z" fill="rgb(51,51,51)" stroke="none" stroke-width="1"/><path id="eJAEgD9IqtH10" d="M93.400000,197.100000C93.200000,197.500000,92.800000,197.600000,92.400000,197.400000C92,197.200000,91.900000,196.800000,92.100000,196.400000L104,174.200000C104.200000,173.800000,104.600000,173.700000,105,173.900000C105.400000,174.100000,105.500000,174.500000,105.300000,174.900000L93.400000,197.100000L93.400000,197.100000Z" fill="rgb(51,51,51)" stroke="none" stroke-width="1"/><path id="eJAEgD9IqtH11" d="M108.900000,197.100000C108.700000,197.500000,108.300000,197.600000,107.900000,197.400000C107.500000,197.200000,107.400000,196.800000,107.600000,196.400000L119.500000,174.200000C119.700000,173.800000,120.100000,173.700000,120.500000,173.900000C120.900000,174.100000,121,174.500000,120.800000,174.900000L108.900000,197.100000L108.900000,197.100000Z" fill="rgb(51,51,51)" stroke="none" stroke-width="1"/><path id="eJAEgD9IqtH12" d="M124.400000,197.100000C124.200000,197.500000,123.800000,197.600000,123.400000,197.400000C123,197.200000,122.900000,196.800000,123.100000,196.400000L135,174.200000C135.200000,173.800000,135.600000,173.700000,136,173.900000C136.400000,174.100000,136.500000,174.500000,136.300000,174.900000L124.400000,197.100000L124.400000,197.100000Z" fill="rgb(51,51,51)" stroke="none" stroke-width="1"/><path id="eJAEgD9IqtH13" d="M139.900000,197.100000C139.700000,197.500000,139.300000,197.600000,138.900000,197.400000C138.500000,197.200000,138.400000,196.800000,138.600000,196.400000L150.500000,174.200000C150.700000,173.800000,151.100000,173.700000,151.500000,173.900000C151.900000,174.100000,152,174.500000,151.800000,174.900000L139.900000,197.100000L139.900000,197.100000Z" fill="rgb(51,51,51)" stroke="none" stroke-width="1"/><path id="eJAEgD9IqtH14" d="M155.300000,197.100000C155.100000,197.500000,154.700000,197.600000,154.300000,197.400000C153.900000,197.200000,153.800000,196.800000,154,196.400000L165.900000,174.200000C166.100000,173.800000,166.500000,173.700000,166.900000,173.900000C167.200000,174.100000,167.400000,174.500000,167.200000,174.900000L155.300000,197.100000L155.300000,197.100000Z" fill="rgb(51,51,51)" stroke="none" stroke-width="1"/><path id="eJAEgD9IqtH15" d="M170.800000,197.100000C170.600000,197.500000,170.200000,197.600000,169.800000,197.400000C169.400000,197.200000,169.300000,196.800000,169.500000,196.400000L181.400000,174.200000C181.600000,173.800000,182,173.700000,182.400000,173.900000C182.800000,174.100000,182.900000,174.500000,182.700000,174.900000L170.800000,197.100000L170.800000,197.100000Z" fill="rgb(51,51,51)" stroke="none" stroke-width="1"/><path id="eJAEgD9IqtH16" d="M198.800000,181.600000C196.200000,181.600000,194.100000,183.700000,194.100000,186.300000C194.100000,188.900000,196.200000,191,198.800000,191C201.400000,191,203.500000,188.900000,203.500000,186.300000C203.500000,183.700000,201.400000,181.600000,198.800000,181.600000Z" clip-rule="evenodd" fill="rgb(51,51,51)" fill-rule="evenodd" stroke="none" stroke-width="1"/></g><g id="eJAEgD9IqtH17"><path id="eJAEgD9IqtH18" d="M88.200000,167.700000C85.900000,162.500000,88.900000,160,95.100000,160.200000C183.900000,162.800000,313.900000,144.600000,340.800000,174.700000C353.400000,188.800000,382.700000,212.600000,373.100000,227C369.600000,232.300000,352.200000,246.700000,338.800000,242.100000C287.200000,224.600000,225.600000,215.600000,173.900000,216.600000C153.600000,217,137.800000,217.800000,128.700000,224.300000C122.300000,228.800000,114.700000,226.900000,111.900000,220.500000L100.900000,196.100000L296.400000,196.100000C301.400000,196.100000,305.400000,192,305.400000,187.100000L305.400000,187.100000C305.400000,182.100000,301.300000,178.100000,296.400000,178.100000L92.800000,178.100000L88.200000,167.700000L88.200000,167.700000ZM324,223.100000C344,239.200000,369.500000,225.800000,362.900000,216.500000C361.300000,214.300000,358.700000,212.900000,356,213.200000C346.400000,213.200000,336.800000,213.200000,327.200000,213.200000C324.800000,213.200000,322.700000,214.800000,322,217C321.200000,219.300000,322,221.800000,324,223.100000L324,223.100000Z" clip-rule="evenodd" fill="rgb(255,204,0)" fill-rule="evenodd" stroke="none" stroke-width="1"/><path id="eJAEgD9IqtH19" d="M325,237.700000C276.500000,223.100000,221.100000,215.700000,173.900000,216.600000C153.900000,217,138.200000,217.800000,129.100000,224L122.400000,210.200000C120.600000,206.300000,123.700000,203.300000,127.700000,203.300000C177.300000,203.600000,224.600000,203.500000,269.600000,203.300000C277.500000,203.300000,286,206.100000,295.500000,212.100000C313.200000,223.100000,322.100000,228.400000,322.100000,228.400000C324.600000,230,325.800000,232.300000,325.400000,235.200000C325.300000,236,325.100000,236.800000,325,237.700000L325,237.700000Z" clip-rule="evenodd" fill="rgb(51,51,51)" fill-rule="evenodd" stroke="none" stroke-width="1"/><path id="eJAEgD9IqtH20" d="M99.600000,160.300000C173.800000,161.900000,274.100000,150.100000,320.400000,163.600000C320,167.200000,316.900000,170,313.200000,170L109.300000,170C106.600000,170,104.300000,168.700000,103,166.300000L99.600000,160.300000L99.600000,160.300000Z" clip-rule="evenodd" fill="rgb(51,51,51)" fill-rule="evenodd" stroke="none" stroke-width="1"/><path id="eJAEgD9IqtH21" d="M71.500000,166.300000L87.700000,166.300000L92.900000,177.900000L68.200000,177.900000C67.100000,177.900000,66.200000,177.400000,65.700000,176.500000C65.200000,175.600000,65.200000,174.500000,65.700000,173.600000L69,167.800000C69.500000,166.900000,70.400000,166.300000,71.500000,166.300000ZM107.300000,210.300000L65.800000,210.300000C64.700000,210.300000,63.800000,209.800000,63.300000,208.900000L55.800000,195.900000C55.300000,195,55.300000,193.900000,55.800000,193L55.800000,193C56.300000,192.100000,57.200000,191.500000,58.300000,191.500000L76.700000,191.500000C77,191.500000,77.300000,191.500000,77.600000,191.600000L90.300000,195.700000C90.600000,195.800000,90.900000,195.800000,91.200000,195.800000L100.800000,195.800000L107.300000,210.300000L107.300000,210.300000Z" clip-rule="evenodd" fill="rgb(230,230,230)" fill-rule="evenodd" stroke="none" stroke-width="1"/></g><g id="eJAEgD9IqtH22"><path id="eJAEgD9IqtH23" d="M248.500000,167.200000C260.200000,167.200000,269.600000,176.700000,269.600000,188.300000C269.600000,200,260.100000,209.400000,248.500000,209.400000C236.800000,209.400000,227.400000,199.900000,227.400000,188.300000C227.300000,176.600000,236.800000,167.200000,248.500000,167.200000Z" clip-rule="evenodd" fill="rgb(26,26,26)" fill-rule="evenodd" stroke="none" stroke-width="1"/><path id="eJAEgD9IqtH24" d="M248.500000,174.800000C256,174.800000,262,180.900000,262,188.300000C262,195.800000,255.900000,201.800000,248.500000,201.800000C241,201.800000,235,195.700000,235,188.300000C235,180.800000,241,174.800000,248.500000,174.800000Z" clip-rule="evenodd" fill="rgb(51,51,51)" fill-rule="evenodd" stroke="none" stroke-width="1"/><path id="eJAEgD9IqtH25" d="M248.500000,182.100000C251.900000,182.100000,254.700000,184.900000,254.700000,188.300000C254.700000,191.700000,251.900000,194.500000,248.500000,194.500000C245.100000,194.500000,242.300000,191.700000,242.300000,188.300000C242.200000,184.900000,245,182.100000,248.500000,182.100000Z" clip-rule="evenodd" fill="rgb(230,230,230)" fill-rule="evenodd" stroke="none" stroke-width="1"/></g></g></svg>