<svg id="s1" xmlns="http://www.w3.org/2000/svg" xmlns:xlink="http://www.w3.org/1999/xlink" viewBox="0 0 100 100"><path id="s3" d="M59,26.260000L59,33.840000L58.110000,33.840000Q51.870000,33.940000,48.110000,37.090000C45.510067,39.308275,43.871850,42.448489,43.540000,45.850000C45.989007,43.349561,49.371558,41.986390,52.870000,42.090000C56.578947,41.941330,60.141987,43.545069,62.490000,46.420000Q66,50.750000,66,57.820000C66.026905,60.670902,65.339317,63.483138,64,66C62.742821,68.395340,60.818586,70.375149,58.460000,71.700000C55.982645,73.066829,53.188834,73.756659,50.360000,73.700000C45.851887,73.868599,41.507290,71.999284,38.530000,68.610000Q34,63.550000,34,55L34,51.740000C33.905888,47.136011,34.881478,42.572991,36.850000,38.410000C38.631869,34.683567,41.478464,31.569017,45.030000,29.460000C48.788428,27.295168,53.063264,26.189309,57.400000,26.260000ZM50,49.510000C48.582713,49.502918,47.193604,49.905760,46,50.670000C44.825673,51.406409,43.896413,52.474884,43.330000,53.740000L43.330000,56.540000C43.183215,59.068589,43.814913,61.581423,45.140000,63.740000C46.272691,65.427631,48.198982,66.407807,50.230000,66.330000C52.102985,66.369266,53.879603,65.501442,55,64C56.280482,62.250233,56.926005,60.116126,56.830000,57.950000C56.943858,55.760024,56.297368,53.597992,55,51.830000C53.808197,50.291568,51.944282,49.426711,50,49.510000ZM59,26.260000L59,33.840000L58.110000,33.840000Q51.870000,33.940000,48.110000,37.090000C45.510067,39.308275,43.871850,42.448489,43.540000,45.850000C45.989007,43.349561,49.371558,41.986390,52.870000,42.090000C56.578947,41.941330,60.141987,43.545069,62.490000,46.420000Q66,50.750000,66,57.820000C66.026905,60.670902,65.339317,63.483138,64,66C62.742821,68.395340,60.818586,70.375149,58.460000,71.700000C55.982645,73.066829,53.188834,73.756659,50.360000,73.700000C45.851887,73.868599,41.507290,71.999284,38.530000,68.610000Q34,63.550000,34,55L34,51.740000C33.905888,47.136011,34.881478,42.572991,36.850000,38.410000C38.631869,34.683567,41.478464,31.569017,45.030000,29.460000C48.788428,27.295168,53.063264,26.189309,57.400000,26.260000ZM50,49.510000C48.582713,49.502918,47.193604,49.905760,46,50.670000C44.825673,51.406409,43.896413,52.474884,43.330000,53.740000L43.330000,56.540000C43.183215,59.068589,43.814913,61.581423,45.140000,63.740000C46.272691,65.427631,48.198982,66.407807,50.230000,66.330000C52.102985,66.369266,53.879603,65.501442,55,64C56.280482,62.250233,56.926005,60.116126,56.830000,57.950000C56.943858,55.760024,56.297368,53.597992,55,51.830000C53.808197,50.291568,51.944282,49.426711,50,49.510000Z" fill="rgb(84,131,204)" stroke="none" stroke-width="1"/></svg>