<svg id="s1" xmlns="http://www.w3.org/2000/svg" xmlns:xlink="http://www.w3.org/1999/xlink" viewBox="0 0 100 100"><path id="s3" d="M35.500000,50.060000L38.170000,26.500000L64.170000,26.500000L64.170000,34.170000L45.720000,34.170000L44.570000,44.170000C46.720170,43.010197,49.127002,42.408489,51.570000,42.420000Q58.190000,42.420000,61.950000,46.530000Q65.710000,50.640000,65.680000,58C65.721348,60.781940,65.071956,63.530691,63.790000,66C62.562507,68.331617,60.673416,70.248540,58.360000,71.510000C55.796617,72.878486,52.925242,73.567066,50.020000,73.510000C47.325530,73.534302,44.659982,72.953349,42.220000,71.810000C39.918754,70.757809,37.950555,69.094006,36.530000,67C35.138744,64.926183,34.371729,62.496725,34.320000,60L43.430000,60C43.508578,61.700695,44.222258,63.310043,45.430000,64.510000C46.690195,65.609461,48.330185,66.172871,50,66.080000C51.875682,66.177662,53.677643,65.338496,54.810000,63.840000C56.044790,61.961600,56.637731,59.733685,56.500000,57.490000C56.649274,55.299635,55.955196,53.135113,54.560000,51.440000C53.102438,49.960443,51.072189,49.189971,49,49.330000C47.077515,49.244819,45.188745,49.855474,43.680000,51.050000L42.790000,51.880000ZM35.500000,50.060000L38.170000,26.500000L64.170000,26.500000L64.170000,34.170000L45.720000,34.170000L44.570000,44.170000C46.720170,43.010197,49.127002,42.408489,51.570000,42.420000Q58.190000,42.420000,61.950000,46.530000Q65.710000,50.640000,65.680000,58C65.721348,60.781940,65.071956,63.530691,63.790000,66C62.562507,68.331617,60.673416,70.248540,58.360000,71.510000C55.796617,72.878486,52.925242,73.567066,50.020000,73.510000C47.325530,73.534302,44.659982,72.953349,42.220000,71.810000C39.918754,70.757809,37.950555,69.094006,36.530000,67C35.138744,64.926183,34.371729,62.496725,34.320000,60L43.430000,60C43.508578,61.700695,44.222258,63.310043,45.430000,64.510000C46.690195,65.609461,48.330185,66.172871,50,66.080000C51.875682,66.177662,53.677643,65.338496,54.810000,63.840000C56.044790,61.961600,56.637731,59.733685,56.500000,57.490000C56.649274,55.299635,55.955196,53.135113,54.560000,51.440000C53.102438,49.960443,51.072189,49.189971,49,49.330000C47.077515,49.244819,45.188745,49.855474,43.680000,51.050000L42.790000,51.880000Z" fill="rgb(84,131,204)" stroke="none" stroke-width="1"/></svg>