<svg id="s1" xmlns="http://www.w3.org/2000/svg" xmlns:xlink="http://www.w3.org/1999/xlink" viewBox="0 0 100 100"><g id="s3"><path id="s5" d="M49.330000,69C47.481753,68.938408,45.684227,69.610683,44.330000,70.870000C41.735722,73.485851,41.735722,77.704149,44.330000,80.320000C45.704783,81.589559,47.530656,82.255805,49.400000,82.170000C51.269344,82.255805,53.095217,81.589559,54.470000,80.320000C57.064278,77.704149,57.064278,73.485851,54.470000,70.870000C53.081173,69.575387,51.226037,68.900463,49.330000,69Z" fill="rgb(84,131,204)" stroke="none" stroke-width="1"/><path id="s7" d="M64.400000,22.310000Q59.350000,17.880000,50.200000,17.880000Q41.050000,17.880000,35.880000,22.550000Q30.640000,27.220000,30.550000,35.470000L43.070000,35.470000C43.009545,33.469495,43.726360,31.523343,45.070000,30.040000C46.420551,28.684632,48.278342,27.958933,50.190000,28.040000Q56.920000,28.040000,56.920000,35.350000C56.926952,36.989291,56.480503,38.598584,55.630000,40C54.170272,42.120869,52.419833,44.026154,50.430000,45.660000C48.123770,47.578229,46.284036,49.995872,45.050000,52.730000C43.956404,55.821864,43.457633,59.092714,43.580000,62.370000L54.640000,62.370000L54.810000,59.730000C55.132511,56.894251,56.467634,54.270166,58.570000,52.340000L62.070000,49C64.363995,46.914567,66.302745,44.469174,67.810000,41.760000C68.898542,39.609183,69.460636,37.230565,69.450000,34.820000Q69.450000,26.740000,64.400000,22.310000Z" fill="rgb(84,131,204)" stroke="none" stroke-width="1"/></g></svg>