<svg id="ejde7sI0YkM1" xmlns="http://www.w3.org/2000/svg" xmlns:xlink="http://www.w3.org/1999/xlink" viewBox="0 0 400 400" shape-rendering="geometricPrecision" text-rendering="geometricPrecision"><g id="ejde7sI0YkM2"><path id="ejde7sI0YkM3" d="M328.100000,27.800000L27.800000,328.100000C24.100000,331.800000,24.100000,337.900000,27.800000,341.600000L58.400000,372.200000C62.100000,375.900000,68.200000,375.900000,71.900000,372.200000L162.400000,281.700000L191.700000,252.400000L194.300000,249.800000C186.100000,241.200000,186.200000,227.400000,194.700000,218.900000L218.800000,194.800000C227.300000,186.300000,241,186.200000,249.700000,194.400000L252.300000,191.800000L299.700000,144.400000L372.200000,71.900000C375.900000,68.200000,375.900000,62.100000,372.200000,58.400000L341.600000,27.800000C337.900000,24.100000,331.800000,24.100000,328.100000,27.800000ZM144,238.900000L106.300000,276.600000C101.600000,281.300000,101.600000,289,106.300000,293.700000L106.300000,293.700000C111,298.400000,118.700000,298.400000,123.400000,293.700000L161.100000,256C165.800000,251.300000,165.800000,243.600000,161.100000,238.900000L161.100000,238.900000C156.400000,234.200000,148.700000,234.200000,144,238.900000ZM276.600000,106.300000L238.900000,144C234.200000,148.700000,234.200000,156.400000,238.900000,161.100000L238.900000,161.100000C243.600000,165.800000,251.300000,165.800000,256,161.100000L293.700000,123.400000C298.400000,118.700000,298.400000,111,293.700000,106.300000L293.700000,106.300000C289,101.600000,281.300000,101.600000,276.600000,106.300000ZM306.200000,65.900000C298.500000,73.600000,298.500000,86.100000,306.200000,93.700000C313.900000,101.400000,326.400000,101.400000,334,93.700000C341.700000,86,341.700000,73.500000,334,65.900000C326.400000,58.300000,313.900000,58.300000,306.200000,65.900000ZM65.900000,306.200000C58.200000,313.900000,58.200000,326.400000,65.900000,334C73.600000,341.700000,86.100000,341.700000,93.700000,334C101.400000,326.300000,101.400000,313.800000,93.700000,306.200000C86.100000,298.500000,73.600000,298.500000,65.900000,306.200000L65.900000,306.200000Z" clip-rule="evenodd" fill="rgb(255,204,0)" fill-rule="evenodd" stroke="none" stroke-width="1"/><g id="ejde7sI0YkM4"><polygon id="ejde7sI0YkM5" points="86.100000,301.500000 73.600000,301.500000 73.600000,338.800000 86.100000,338.800000" clip-rule="evenodd" fill="rgb(204,255,102)" fill-rule="evenodd" stroke="none" stroke-width="1"/><path id="ejde7sI0YkM6" d="M65.200000,305.500000C57.100000,313.600000,57.100000,326.700000,65.200000,334.900000C73.300000,343,86.400000,343,94.600000,334.900000C102.700000,326.800000,102.700000,313.700000,94.600000,305.500000C86.400000,297.300000,73.300000,297.300000,65.200000,305.500000ZM67,307.300000C59.900000,314.400000,59.900000,325.900000,67,333C74.100000,340.100000,85.600000,340.100000,92.700000,333C99.800000,325.900000,99.800000,314.400000,92.700000,307.300000C85.600000,300.200000,74.100000,300.200000,67,307.300000Z" clip-rule="evenodd" fill="rgb(0,0,0)" fill-rule="evenodd" stroke="none" stroke-width="1"/><path id="ejde7sI0YkM7" d="M75.600000,311.200000C75.600000,311.200000,75.700000,311.200000,75.600000,311.200000L75.600000,311.200000C75.700000,311.300000,75.700000,311.300000,75.700000,311.400000L75.700000,311.400000C75.700000,311.400000,75.700000,311.500000,75.800000,311.500000L75.800000,311.500000C75.800000,311.500000,75.800000,311.600000,75.900000,311.600000L75.900000,311.600000C75.900000,311.600000,75.900000,311.700000,76,311.700000L76,311.700000C76,311.700000,76,311.800000,76.100000,311.800000L76.100000,311.800000C76.100000,311.800000,76.200000,311.900000,76.200000,311.900000L76.200000,311.900000C76.200000,311.900000,76.300000,312,76.300000,312L76.300000,312C76.300000,312,76.400000,312.100000,76.400000,312.100000C76.400000,312.100000,76.500000,312.200000,76.500000,312.200000L76.500000,312.200000C76.500000,312.200000,76.600000,312.300000,76.600000,312.300000L76.600000,312.300000C76.600000,312.300000,76.700000,312.400000,76.700000,312.400000L76.700000,312.400000C76.700000,312.400000,76.800000,312.400000,76.800000,312.500000L76.800000,312.500000C76.800000,312.500000,76.900000,312.500000,76.900000,312.600000L76.900000,312.600000C76.900000,312.600000,77,312.600000,77,312.700000L77,312.700000C77,312.700000,77.100000,312.700000,77.100000,312.800000L77.100000,312.800000C77.100000,312.800000,77.100000,312.800000,77.200000,312.800000L77.200000,312.800000C77.200000,312.800000,77.200000,312.800000,77.300000,312.800000L77.300000,312.800000C79.200000,314,81.800000,313.800000,83.400000,312.100000C85.100000,310.400000,85.300000,307.900000,84.100000,306L84.100000,306C84.100000,306,84.100000,306,84.100000,305.900000L84.100000,305.900000C84.100000,305.900000,84.100000,305.900000,84.100000,305.800000L84.100000,305.800000C84.100000,305.800000,84.100000,305.700000,84,305.700000L84,305.700000C84,305.700000,84,305.600000,83.900000,305.600000L83.900000,305.600000C83.900000,305.600000,83.900000,305.500000,83.800000,305.500000L83.800000,305.500000C83.800000,305.500000,83.800000,305.400000,83.700000,305.400000L83.700000,305.400000C83.700000,305.400000,83.600000,305.300000,83.600000,305.300000L83.600000,305.300000C83.600000,305.300000,83.500000,305.200000,83.500000,305.200000L83.500000,305.200000C83.500000,305.200000,83.400000,305.100000,83.400000,305.100000C83.400000,305.100000,83.300000,305,83.300000,305L83.300000,305C83.300000,305,83.200000,304.900000,83.200000,304.900000L83.200000,304.900000C83.200000,304.900000,83.100000,304.800000,83.100000,304.800000L83.100000,304.800000C83.100000,304.800000,83,304.800000,83,304.700000L83,304.700000C83,304.700000,82.900000,304.700000,82.900000,304.600000L82.900000,304.600000C82.900000,304.600000,82.800000,304.600000,82.800000,304.500000L82.800000,304.500000C82.800000,304.500000,82.700000,304.500000,82.700000,304.400000L82.700000,304.400000C82.700000,304.400000,82.600000,304.400000,82.600000,304.300000L82.600000,304.300000C82.600000,304.300000,82.600000,304.300000,82.500000,304.300000L82.500000,304.300000C80.600000,303.100000,78,303.300000,76.400000,305C74.800000,306.700000,74.400000,309.300000,75.600000,311.200000L75.600000,311.200000L75.600000,311.200000Z" clip-rule="evenodd" fill="rgb(255,255,255)" fill-rule="evenodd" stroke="none" stroke-width="1"/></g><g id="ejde7sI0YkM8"><path id="ejde7sI0YkM9" d="M27.800000,341.600000L58.400000,372.200000C62.100000,375.900000,68.200000,375.900000,71.900000,372.200000L78.500000,365.600000L162.400000,281.700000L191.700000,252.400000L194.300000,249.800000C186.100000,241.200000,186.200000,227.400000,194.700000,218.900000L218.800000,194.800000C227.300000,186.300000,241,186.200000,249.700000,194.400000L252.300000,191.800000L299.700000,144.400000L365.600000,78.500000L372.200000,71.900000C375.900000,68.200000,375.900000,62.100000,372.200000,58.400000L341.600000,27.800000L328.300000,41.100000L364.200000,77L251.900000,189.400000C241.200000,180.600000,225.200000,181.100000,215.200000,191.100000L191.100000,215.200000C181.100000,225.200000,180.500000,241.200000,189.400000,251.900000L77.100000,364.200000L41.200000,328.300000L27.800000,341.600000L27.800000,341.600000Z" clip-rule="evenodd" fill="rgb(51,51,51)" fill-rule="evenodd" stroke="none" stroke-width="1"/><g id="ejde7sI0YkM10"><path id="ejde7sI0YkM11" d="M230.600000,188.700000L188.700000,230.600000C187.800000,235.700000,188.700000,241,191.300000,245.600000L245.600000,191.300000C241,188.700000,235.700000,187.800000,230.600000,188.700000Z" clip-rule="evenodd" fill="rgb(204,255,102)" fill-rule="evenodd" stroke="none" stroke-width="1"/><path id="ejde7sI0YkM12" d="M210,216.800000C210,216.800000,210,216.900000,210,216.800000L210,216.800000C210.100000,216.900000,210.100000,216.900000,210.100000,217L210.100000,217C210.100000,217,210.100000,217.100000,210.200000,217.100000L210.200000,217.100000C210.200000,217.100000,210.200000,217.200000,210.300000,217.200000L210.300000,217.200000C210.300000,217.200000,210.300000,217.300000,210.400000,217.300000L210.400000,217.300000C210.400000,217.300000,210.400000,217.400000,210.500000,217.400000L210.500000,217.400000C210.500000,217.400000,210.600000,217.500000,210.600000,217.500000L210.600000,217.500000C210.600000,217.500000,210.700000,217.600000,210.700000,217.600000L210.700000,217.600000C210.700000,217.600000,210.800000,217.700000,210.800000,217.700000C210.800000,217.700000,210.900000,217.800000,210.900000,217.800000L210.900000,217.800000C210.900000,217.800000,211,217.900000,211,217.900000L211,217.900000C211,217.900000,211.100000,218,211.100000,218L211.100000,218C211.100000,218,211.200000,218,211.200000,218.100000L211.200000,218.100000C211.200000,218.100000,211.300000,218.100000,211.300000,218.200000L211.300000,218.200000C211.300000,218.200000,211.400000,218.200000,211.400000,218.300000L211.400000,218.300000C211.400000,218.300000,211.500000,218.300000,211.500000,218.400000L211.500000,218.400000C211.500000,218.400000,211.500000,218.400000,211.600000,218.400000L211.600000,218.400000C211.600000,218.400000,211.600000,218.400000,211.700000,218.400000L211.700000,218.400000C213.600000,219.600000,216.200000,219.400000,217.800000,217.700000C219.500000,216,219.700000,213.500000,218.500000,211.600000L218.500000,211.600000C218.500000,211.600000,218.500000,211.600000,218.500000,211.500000L218.500000,211.500000C218.500000,211.500000,218.500000,211.500000,218.400000,211.400000L218.400000,211.400000C218.400000,211.400000,218.400000,211.300000,218.300000,211.300000L218.300000,211.300000C218.300000,211.300000,218.300000,211.200000,218.200000,211.200000L218.200000,211.200000C218.200000,211.200000,218.200000,211.100000,218.100000,211.100000L218.100000,211.100000C218.100000,211.100000,218.100000,211,218,211L218,211C218,211,217.900000,210.900000,217.900000,210.900000L217.900000,210.900000C217.900000,210.900000,217.800000,210.800000,217.800000,210.800000L217.800000,210.800000C217.800000,210.800000,217.700000,210.700000,217.700000,210.700000C217.700000,210.700000,217.600000,210.600000,217.600000,210.600000L217.600000,210.600000C217.600000,210.600000,217.500000,210.500000,217.500000,210.500000L217.500000,210.500000C217.500000,210.500000,217.400000,210.400000,217.400000,210.400000L217.400000,210.400000C217.400000,210.400000,217.300000,210.400000,217.300000,210.300000L217.300000,210.300000C217.300000,210.300000,217.200000,210.300000,217.200000,210.200000L217.200000,210.200000C217.200000,210.200000,217.100000,210.200000,217.100000,210.100000L217.100000,210.100000C217.100000,210.100000,217,210.100000,217,210L217,210C217,210,217,210,216.900000,209.900000L216.900000,209.900000C216.900000,209.900000,216.900000,209.900000,216.800000,209.900000L216.800000,209.900000C214.900000,208.700000,212.300000,208.900000,210.700000,210.600000C209,212.400000,208.800000,214.900000,210,216.800000L210,216.800000Z" clip-rule="evenodd" fill="rgb(255,255,255)" fill-rule="evenodd" stroke="none" stroke-width="1"/></g></g><g id="ejde7sI0YkM13"><polygon id="ejde7sI0YkM14" points="311.300000,62.300000 302.500000,71.100000 328.900000,97.500000 337.700000,88.700000" clip-rule="evenodd" fill="rgb(204,255,102)" fill-rule="evenodd" stroke="none" stroke-width="1"/><path id="ejde7sI0YkM15" d="M305.500000,65.200000C297.400000,73.300000,297.400000,86.400000,305.500000,94.600000C313.600000,102.700000,326.700000,102.700000,334.900000,94.600000C343,86.500000,343,73.400000,334.900000,65.200000C326.700000,57.100000,313.600000,57.100000,305.500000,65.200000ZM307.300000,67C300.200000,74.100000,300.200000,85.600000,307.300000,92.700000C314.400000,99.800000,325.900000,99.800000,333,92.700000C340.100000,85.600000,340.100000,74.100000,333,67C325.900000,60,314.400000,59.900000,307.300000,67Z" clip-rule="evenodd" fill="rgb(0,0,0)" fill-rule="evenodd" stroke="none" stroke-width="1"/><path id="ejde7sI0YkM16" d="M307.800000,74.400000C307.900000,74.400000,307.900000,74.400000,307.800000,74.400000L307.800000,74.400000C307.900000,74.500000,307.900000,74.500000,307.900000,74.600000L307.900000,74.600000C307.900000,74.600000,307.900000,74.700000,308,74.700000L308,74.700000C308,74.700000,308,74.800000,308.100000,74.800000L308.100000,74.800000C308.100000,74.800000,308.100000,74.900000,308.200000,74.900000L308.200000,74.900000C308.200000,74.900000,308.200000,75,308.300000,75L308.300000,75C308.300000,75,308.400000,75.100000,308.400000,75.100000L308.400000,75.100000C308.400000,75.100000,308.500000,75.200000,308.500000,75.200000L308.500000,75.200000C308.500000,75.200000,308.600000,75.300000,308.600000,75.300000C308.600000,75.300000,308.700000,75.400000,308.700000,75.400000L308.700000,75.400000C308.700000,75.400000,308.800000,75.500000,308.800000,75.500000L308.800000,75.500000C308.800000,75.500000,308.900000,75.600000,308.900000,75.600000L308.900000,75.600000C308.900000,75.600000,309,75.600000,309,75.700000L309,75.700000C309,75.700000,309.100000,75.700000,309.100000,75.800000L309.100000,75.800000C309.100000,75.800000,309.200000,75.800000,309.200000,75.900000L309.200000,75.900000C309.200000,75.900000,309.300000,75.900000,309.300000,76L309.300000,76C309.300000,76,309.300000,76,309.400000,76L309.400000,76C309.400000,76,309.400000,76,309.500000,76L309.500000,76C311.400000,77.200000,314,77,315.600000,75.300000C317.300000,73.600000,317.500000,71.100000,316.300000,69.200000L316.300000,69.200000C316.300000,69.200000,316.300000,69.200000,316.300000,69.100000L316.300000,69.100000C316.300000,69.100000,316.300000,69.100000,316.300000,69L316.300000,69C316.300000,69,316.300000,68.900000,316.200000,68.900000L316.200000,68.900000C316.200000,68.900000,316.200000,68.800000,316.100000,68.800000L316.100000,68.800000C316.100000,68.800000,316.100000,68.700000,316,68.700000L316,68.700000C316,68.700000,316,68.600000,315.900000,68.600000L315.900000,68.600000C315.900000,68.600000,315.800000,68.500000,315.800000,68.500000L315.800000,68.500000C315.800000,68.500000,315.700000,68.400000,315.700000,68.400000L315.700000,68.400000C315.700000,68.400000,315.600000,68.300000,315.600000,68.300000C315.600000,68.300000,315.500000,68.200000,315.500000,68.200000L315.500000,68.200000C315.500000,68.200000,315.400000,68.100000,315.400000,68.100000L315.400000,68.100000C315.400000,68.100000,315.300000,68,315.300000,68L315.300000,68C315.300000,68,315.200000,68,315.200000,67.900000L315.200000,67.900000C315.200000,67.900000,315.100000,67.900000,315.100000,67.800000L315.100000,67.800000C315.100000,67.800000,315,67.800000,315,67.700000L315,67.700000C315,67.700000,314.900000,67.700000,314.900000,67.600000L314.900000,67.600000C314.900000,67.600000,314.900000,67.600000,314.800000,67.500000L314.800000,67.500000C314.800000,67.500000,314.800000,67.500000,314.700000,67.500000L314.700000,67.500000C312.800000,66.300000,310.200000,66.500000,308.600000,68.200000C306.900000,69.900000,306.600000,72.500000,307.800000,74.400000L307.800000,74.400000Z" clip-rule="evenodd" fill="rgb(255,255,255)" fill-rule="evenodd" stroke="none" stroke-width="1"/></g></g></svg>