<svg id="ejXt2MDvGar1" xmlns="http://www.w3.org/2000/svg" xmlns:xlink="http://www.w3.org/1999/xlink" viewBox="0 0 400 400" shape-rendering="geometricPrecision" text-rendering="geometricPrecision"><defs><linearGradient id="ejXt2MDvGar5-fill" x1="208.401772" y1="25.013202" x2="208.401772" y2="40.021506" spreadMethod="pad" gradientUnits="userSpaceOnUse"><stop id="ejXt2MDvGar5-fill-0" offset="0%" stop-color="rgb(255,255,255)"/><stop id="ejXt2MDvGar5-fill-1" offset="100%" stop-color="rgb(204,204,204)"/></linearGradient><linearGradient id="ejXt2MDvGar6-fill" x1="208.401772" y1="110.439558" x2="208.401772" y2="78.753823" spreadMethod="pad" gradientUnits="userSpaceOnUse"><stop id="ejXt2MDvGar6-fill-0" offset="0%" stop-color="rgb(230,230,230)"/><stop id="ejXt2MDvGar6-fill-1" offset="100%" stop-color="rgb(204,204,204)"/></linearGradient></defs><g id="ejXt2MDvGar2"><g id="ejXt2MDvGar3"><path id="ejXt2MDvGar4" d="M328,25L88.900000,25C82.200000,25,76.700000,30.500000,76.700000,37.200000L76.700000,103.600000C76.700000,110.300000,82.200000,115.800000,88.900000,115.800000L328,115.800000C334.700000,115.800000,340.200000,110.300000,340.200000,103.600000L340.200000,37.200000C340.100000,30.500000,334.700000,25,328,25Z" clip-rule="evenodd" fill="rgb(204,204,204)" fill-rule="evenodd" stroke="none" stroke-width="1"/><path id="ejXt2MDvGar5" d="M328,25L88.900000,25C82.200000,25,76.700000,30.500000,76.700000,37.200000L76.700000,40L340.100000,40L340.100000,37.200000C340.100000,30.500000,334.700000,25,328,25L328,25Z" clip-rule="evenodd" fill="url(#ejXt2MDvGar5-fill)" fill-rule="evenodd" stroke="none" stroke-width="1"/><path id="ejXt2MDvGar6" d="M82.100000,78.700000L82.100000,102.100000C82.100000,106.700000,85.800000,110.400000,90.400000,110.400000L326.400000,110.400000C331,110.400000,334.700000,106.700000,334.700000,102.100000L334.700000,78.700000L82.100000,78.700000Z" clip-rule="evenodd" fill="url(#ejXt2MDvGar6-fill)" fill-rule="evenodd" stroke="none" stroke-width="1"/></g><path id="ejXt2MDvGar7" d="M76.700000,75.900000L76.700000,75.900000C75.100000,75.900000,73.600000,76.500000,72.600000,77.600000C71.600000,78.600000,70.900000,80.100000,70.900000,81.700000L70.900000,126C70.900000,127.300000,71.300000,128.500000,71.900000,129.400000C72.600000,130.300000,73.500000,131,74.700000,131.500000L202.500000,175.500000C205.900000,176.700000,208.800000,178.800000,210.700000,181.600000C212.700000,184.400000,213.800000,187.800000,213.800000,191.400000L213.800000,217.900000L202.700000,217.900000L202.700000,191.400000C202.700000,190.100000,202.300000,188.900000,201.700000,188C201,187.100000,200.100000,186.400000,198.900000,185.900000L71.100000,141.900000C67.700000,140.700000,64.800000,138.600000,62.900000,135.800000C60.900000,133,59.800000,129.600000,59.800000,126L59.800000,81.700000C59.800000,77.100000,61.700000,72.900000,64.700000,69.800000C67.700000,66.800000,71.900000,64.900000,76.600000,64.900000L76.700000,64.900000L76.700000,75.900000L76.700000,75.900000Z" fill="rgb(0,0,0)" stroke="none" stroke-width="1"/><g id="ejXt2MDvGar8"><path id="ejXt2MDvGar9" d="M225,217.800000L191.800000,217.800000C189.700000,217.800000,187.900000,219.500000,187.900000,221.700000L187.900000,238.900000C187.900000,241,189.600000,242.800000,191.800000,242.800000L225,242.800000C227.100000,242.800000,228.900000,241.100000,228.900000,238.900000L228.900000,221.700000C228.900000,219.600000,227.200000,217.800000,225,217.800000Z" clip-rule="evenodd" fill="rgb(247,169,61)" fill-rule="evenodd" stroke="none" stroke-width="1"/><path id="ejXt2MDvGar10" d="M225,242.700000L191.800000,242.700000L191.800000,369.800000C191.800000,372.600000,194.100000,375,197,375L219.900000,375C222.700000,375,225.100000,372.700000,225.100000,369.800000L225,242.700000L225,242.700000ZM208.400000,353.600000C204.800000,353.600000,201.900000,356.500000,201.900000,360.100000C201.900000,363.700000,204.800000,366.600000,208.400000,366.600000C212,366.600000,214.900000,363.700000,214.900000,360.100000C214.900000,356.500000,212,353.600000,208.400000,353.600000Z" clip-rule="evenodd" fill="rgb(255,204,0)" fill-rule="evenodd" stroke="none" stroke-width="1"/></g></g></svg>