<svg id="s1" xmlns="http://www.w3.org/2000/svg" xmlns:xlink="http://www.w3.org/1999/xlink" viewBox="0 0 100 100"><path id="s3" d="M61.690000,55.730000L66.940000,55.730000L66.940000,63.150000L61.690000,63.150000L61.690000,73.150000L52.490000,73.150000L52.490000,63.150000L33.490000,63.150000L33.080000,57.350000L52.390000,26.820000L61.690000,26.820000ZM42.230000,55.730000L52.480000,55.730000L52.480000,39.360000L51.870000,40.410000ZM61.690000,55.730000L66.940000,55.730000L66.940000,63.150000L61.690000,63.150000L61.690000,73.150000L52.490000,73.150000L52.490000,63.150000L33.490000,63.150000L33.080000,57.350000L52.390000,26.820000L61.690000,26.820000ZM42.230000,55.730000L52.480000,55.730000L52.480000,39.360000L51.870000,40.410000Z" fill="rgb(84,131,204)" stroke="none" stroke-width="1"/></svg>