<svg id="ekiXxQDUtzb1" xmlns="http://www.w3.org/2000/svg" xmlns:xlink="http://www.w3.org/1999/xlink" viewBox="0 0 400 400" shape-rendering="geometricPrecision" text-rendering="geometricPrecision"><g id="ekiXxQDUtzb2"><polygon id="ekiXxQDUtzb3" points="235.600000,172.500000 198.800000,135.700000 196.500000,138 233.300000,174.800000" clip-rule="evenodd" fill="rgb(255,204,0)" fill-rule="evenodd" stroke="none" stroke-width="1"/><g id="ekiXxQDUtzb4"><path id="ekiXxQDUtzb5" d="M368.200000,309.700000L336.600000,278.100000L337.500000,277.200000L329.800000,269.500000L328.900000,270.400000L323.700000,265.200000L324.600000,264.300000L316.900000,256.600000L316,257.500000L310.800000,252.300000L311.700000,251.400000L304,243.700000L303.100000,244.600000L297.900000,239.400000L298.800000,238.500000L291.100000,230.800000L290.200000,231.700000L285,226.500000L285.900000,225.600000L278.200000,217.900000L277.300000,218.800000L272.100000,213.600000L273,212.700000L265.300000,205L264.400000,205.900000L259.200000,200.700000L260.100000,199.800000L252.400000,192.100000L251.500000,193L246.300000,187.800000L247.200000,186.900000L239.500000,179.200000L238.600000,180.100000L191.400000,132.900000L192.300000,132L184.600000,124.300000L183.700000,125.200000L178.500000,120L179.400000,119.100000L171.700000,111.400000L170.800000,112.300000L165.600000,107.100000L166.500000,106.200000L158.800000,98.500000L157.900000,99.400000L152.700000,94.200000L153.600000,93.300000L145.900000,85.600000L145,86.500000L136.700000,78.200000L84.400000,130.500000L92.700000,138.800000L91.800000,139.700000L99.500000,147.400000L100.400000,146.500000L105.600000,151.700000L104.700000,152.600000L112.400000,160.300000L113.300000,159.400000L118.500000,164.600000L117.600000,165.500000L125.300000,173.200000L126.200000,172.300000L131.400000,177.500000L130.500000,178.400000L138.200000,186.100000L139.100000,185.200000L186.300000,232.400000L185.400000,233.300000L193.100000,241L194,240.100000L199.200000,245.300000L198.300000,246.200000L206,253.900000L206.900000,253L212.100000,258.200000L211.200000,259.100000L218.900000,266.800000L219.800000,265.900000L225,271.100000L224,272L231.700000,279.700000L232.600000,278.800000L237.800000,284L236.900000,284.900000L244.600000,292.600000L245.500000,291.700000L250.700000,296.900000L249.800000,297.800000L257.500000,305.500000L258.400000,304.600000L263.600000,309.800000L262.700000,310.700000L270.400000,318.400000L271.300000,317.500000L276.500000,322.700000L275.600000,323.600000L283.300000,331.300000L284.200000,330.400000L315.800000,362C324.800000,371,339.600000,371,348.600000,362L368.100000,342.500000C377.300000,333.500000,377.300000,318.800000,368.200000,309.700000L368.200000,309.700000Z" clip-rule="evenodd" fill="rgb(51,51,51)" fill-rule="evenodd" stroke="none" stroke-width="1"/><path id="ekiXxQDUtzb6" d="M368.200000,309.700000L336.600000,278.100000L337.500000,277.200000L329.800000,269.500000L328.900000,270.400000L323.700000,265.200000L324.600000,264.300000L316.900000,256.600000L316,257.500000L310.800000,252.300000L311.700000,251.400000L304,243.700000L303.100000,244.600000L297.900000,239.400000L298.800000,238.500000L291.100000,230.800000L290.200000,231.700000L285,226.500000L285.900000,225.600000L278.200000,217.900000L277.300000,218.800000L272.100000,213.600000L273,212.700000L265.300000,205L264.400000,205.900000L259.200000,200.700000L260.100000,199.800000L252.400000,192.100000L251.500000,193L246.300000,187.800000L247.200000,186.900000L239.500000,179.200000L238.600000,180.100000L191.400000,132.900000L192.300000,132L184.600000,124.300000L183.700000,125.200000L178.500000,120L179.400000,119.100000L171.700000,111.400000L170.800000,112.300000L165.600000,107.100000L166.500000,106.200000L158.800000,98.500000L157.900000,99.400000L152.700000,94.200000L153.600000,93.300000L145.900000,85.600000L145,86.500000L136.700000,78.200000L133.600000,81.300000L141,88.700000L125.300000,104.400000L126.200000,105.300000L141.900000,89.600000L142.800000,88.700000L150.500000,96.400000L149.600000,97.300000L153.900000,101.600000L138.200000,117.300000L139.100000,118.200000L154.800000,102.500000L155.700000,101.600000L163.400000,109.300000L162.500000,110.200000L166.800000,114.500000L151,130L151.900000,130.900000L167.600000,115.200000L168.500000,114.300000L176.200000,122L175.300000,122.900000L179.600000,127.200000L163.900000,143L164.800000,143.900000L180.500000,128.200000L181.400000,127.300000L189.100000,135L188.200000,135.900000L234.500000,182.200000L218.800000,197.900000L219.700000,198.800000L235.400000,183.100000L236.300000,182.200000L244,189.900000L243.100000,190.800000L247.400000,195.100000L231.700000,210.800000L232.600000,211.700000L248.300000,196L249.200000,195.100000L256.900000,202.800000L256,203.700000L260.300000,208L244.600000,223.700000L245.500000,224.600000L261.200000,208.900000L262.100000,208L269.800000,215.700000L268.900000,216.600000L273.200000,220.900000L257.500000,236.600000L258.400000,237.500000L274.100000,221.800000L275,220.900000L282.700000,228.600000L281.800000,229.500000L286.100000,233.800000L270.400000,249.500000L271.300000,250.400000L287,234.700000L287.900000,233.800000L295.600000,241.500000L294.700000,242.400000L299,246.700000L283.300000,262.400000L284.200000,263.300000L299.900000,247.600000L300.800000,246.700000L308.500000,254.400000L307.600000,255.300000L311.900000,259.600000L296.200000,275.300000L297.100000,276.200000L312.800000,260.500000L313.700000,259.600000L321.400000,267.300000L320.500000,268.200000L324.800000,272.500000L309.100000,288.200000L310,289.100000L325.700000,273.400000L325.700000,273.400000L326.600000,272.500000L334.300000,280.200000L333.400000,281.100000L365,312.700000C374,321.700000,374,336.500000,365,345.500000L368.100000,342.400000C377.300000,333.500000,377.300000,318.800000,368.200000,309.700000Z" clip-rule="evenodd" fill="rgb(77,77,77)" fill-rule="evenodd" stroke="none" stroke-width="1"/><path id="ekiXxQDUtzb7" d="M84.200000,130.400000L78,136.600000L86.300000,144.900000L85.400000,145.800000L93.100000,153.500000L94,152.600000L99.200000,157.800000L98.300000,158.700000L106,166.400000L106.900000,165.500000L112.100000,170.700000L111.200000,171.600000L118.900000,179.300000L119.800000,178.400000L125,183.600000L124.100000,184.500000L131.800000,192.200000L132.700000,191.300000L179.900000,238.500000L179,239.400000L186.700000,247.100000L187.600000,246.200000L192.800000,251.400000L191.900000,252.300000L199.600000,260L200.500000,259.100000L205.700000,264.300000L204.800000,265.200000L212.500000,272.900000L213.400000,272L218.600000,277.200000L217.700000,278.100000L225.400000,285.800000L226.300000,284.900000L231.500000,290.100000L230.600000,291L238.300000,298.700000L239.200000,297.800000L244.400000,303L243.500000,303.900000L251.200000,311.600000L252.100000,310.700000L257.300000,315.900000L256.400000,316.800000L264.100000,324.500000L265,323.600000L270.200000,328.800000L269.300000,329.700000L277,337.400000L277.900000,336.500000L309.500000,368.100000C318.500000,377.100000,333.300000,377.100000,342.300000,368.100000L348.500000,361.900000C339.500000,370.900000,324.700000,370.900000,315.700000,361.900000L285,331.200000L297.400000,318.800000L296.500000,317.900000L283.200000,331.200000L275.500000,323.500000L276.400000,322.600000L272.100000,318.300000L284.500000,305.900000L283.600000,305L271.200000,317.400000L270.300000,318.300000L262.600000,310.600000L263.500000,309.700000L259.200000,305.400000L271.600000,293L270.700000,292.100000L258.300000,304.500000L257.400000,305.400000L249.700000,297.700000L250.600000,296.800000L246.300000,292.500000L258.700000,280.100000L257.800000,279.200000L245.400000,291.600000L244.500000,292.500000L236.800000,284.800000L237.700000,283.900000L233.400000,279.600000L245.800000,267.200000L244.900000,266.300000L232.500000,278.700000L231.600000,279.600000L224,272L224.900000,271.100000L220.600000,266.800000L233,254.400000L232.100000,253.500000L219.700000,265.900000L218.800000,266.800000L211.100000,259.100000L212,258.200000L207.700000,253.900000L220.100000,241.500000L219.200000,240.600000L206.800000,253L205.900000,253.900000L198.200000,246.200000L199.100000,245.300000L194.800000,241L207.200000,228.600000L206.300000,227.700000L193.900000,240L193,240.900000L185.300000,233.200000L186.200000,232.300000L139.800000,186L152.200000,173.600000L151.300000,172.700000L138.900000,185.100000L138,186L130.300000,178.300000L131.200000,177.400000L126.900000,173.100000L139.300000,160.700000L138.400000,159.800000L126,172.200000L125.100000,173.100000L117.400000,165.400000L118.300000,164.500000L114,160.200000L126.400000,147.800000L125.500000,146.900000L113.100000,159.300000L112.200000,160.200000L104.500000,152.500000L105.400000,151.600000L101.100000,147.300000L113.500000,134.900000L112.600000,134L100.200000,146.400000L99.300000,147.300000L91.600000,139.600000L92.500000,138.700000L84.200000,130.400000L84.200000,130.400000Z" clip-rule="evenodd" fill="rgb(26,26,26)" fill-rule="evenodd" stroke="none" stroke-width="1"/></g><g id="ekiXxQDUtzb8"><polygon id="ekiXxQDUtzb9" points="144,52.500000 116.600000,25 25,116.600000 52.500000,144" clip-rule="evenodd" fill="rgb(51,51,51)" fill-rule="evenodd" stroke="none" stroke-width="1"/><polygon id="ekiXxQDUtzb10" points="144,52.500000 145.400000,69.200000 69.200000,145.400000 52.500000,144" clip-rule="evenodd" fill="rgb(26,26,26)" fill-rule="evenodd" stroke="none" stroke-width="1"/><path id="ekiXxQDUtzb11" d="M106.600000,35L35,106.600000C55.800000,79.600000,79.600000,55.800000,106.600000,35Z" clip-rule="evenodd" fill="rgb(255,204,0)" fill-rule="evenodd" stroke="none" stroke-width="1"/><polygon id="ekiXxQDUtzb12" points="144,52.500000 145.400000,69.200000 141.400000,73.200000 140,56.500000" clip-rule="evenodd" fill="rgb(51,51,51)" fill-rule="evenodd" stroke="none" stroke-width="1"/><polygon id="ekiXxQDUtzb13" points="52.500000,144 69.200000,145.400000 76.600000,137.900000 59.900000,136.600000" clip-rule="evenodd" fill="rgb(0,0,0)" fill-rule="evenodd" stroke="none" stroke-width="1"/><polygon id="ekiXxQDUtzb14" points="144,52.500000 116.600000,25 112.600000,29 140,56.500000" clip-rule="evenodd" fill="rgb(77,77,77)" fill-rule="evenodd" stroke="none" stroke-width="1"/><polygon id="ekiXxQDUtzb15" points="59.900000,136.600000 32.500000,109.100000 25,116.600000 52.500000,144" clip-rule="evenodd" fill="rgb(26,26,26)" fill-rule="evenodd" stroke="none" stroke-width="1"/></g></g></svg>