<svg id="edNtly0u6mX1" xmlns="http://www.w3.org/2000/svg" xmlns:xlink="http://www.w3.org/1999/xlink" viewBox="0 0 400 400" shape-rendering="geometricPrecision" text-rendering="geometricPrecision"><defs><linearGradient id="edNtly0u6mX11-fill" x1="237.603731" y1="210.068207" x2="237.603731" y2="25.016245" spreadMethod="pad" gradientUnits="userSpaceOnUse"><stop id="edNtly0u6mX11-fill-0" offset="0%" stop-color="rgb(204,51,0)"/><stop id="edNtly0u6mX11-fill-1" offset="100%" stop-color="rgb(255,102,102)"/></linearGradient></defs><g id="edNtly0u6mX2"><g id="edNtly0u6mX3"><path id="edNtly0u6mX4" d="M69.800000,372C69.500000,373.800000,67.800000,375.100000,65.900000,374.800000C64.100000,374.500000,62.800000,372.800000,63.100000,370.900000L82.700000,248C83.700000,241.600000,86.900000,236.200000,91.500000,232.300000C96.100000,228.400000,102,226.100000,108.400000,226.100000L166.600000,226.100000C173,226.100000,178.900000,228.400000,183.500000,232.300000C188.100000,236.200000,191.300000,241.700000,192.300000,248L211.800000,371C212.100000,372.800000,210.800000,374.600000,209,374.900000C207.200000,375.200000,205.400000,373.900000,205.100000,372.100000L185.500000,249.200000C184.800000,244.500000,182.400000,240.400000,179,237.600000C175.600000,234.700000,171.300000,233,166.500000,233L108.300000,233C103.500000,233,99.100000,234.700000,95.800000,237.600000C92.400000,240.500000,90.100000,244.500000,89.300000,249.200000L69.800000,372L69.800000,372Z" fill="rgb(153,153,153)" stroke="none" stroke-width="1"/><path id="edNtly0u6mX5" d="M192.900000,372.100000C192.600000,373.900000,190.900000,375.200000,189,374.900000C187.200000,374.600000,185.900000,372.900000,186.200000,371L205.800000,248C206.800000,241.600000,210,236.200000,214.600000,232.300000C219.200000,228.400000,225.100000,226.100000,231.500000,226.100000L289.600000,226.100000C296,226.100000,301.900000,228.400000,306.500000,232.300000C311.100000,236.200000,314.300000,241.700000,315.300000,248L334.900000,371C335.200000,372.800000,333.900000,374.600000,332.100000,374.900000C330.300000,375.200000,328.500000,373.900000,328.200000,372.100000L308.600000,249.100000C307.800000,244.400000,305.500000,240.300000,302.100000,237.400000C298.700000,234.500000,294.400000,232.800000,289.600000,232.800000L231.500000,232.800000C226.700000,232.800000,222.300000,234.500000,219,237.400000C215.600000,240.300000,213.300000,244.300000,212.500000,249.100000L192.900000,372.100000L192.900000,372.100000Z" fill="rgb(204,204,204)" stroke="none" stroke-width="1"/></g><g id="edNtly0u6mX6"><path id="edNtly0u6mX7" d="M200.600000,210.100000L65.300000,210.100000C63.100000,210.100000,61.300000,211.900000,61.300000,214.100000L61.300000,222.300000C61.300000,224.500000,63.100000,226.300000,65.300000,226.300000L200.600000,226.300000C202.800000,226.300000,204.600000,224.500000,204.600000,222.300000L204.600000,214C204.500000,211.800000,202.700000,210.100000,200.600000,210.100000Z" clip-rule="evenodd" fill="rgb(204,51,0)" fill-rule="evenodd" stroke="none" stroke-width="1"/><path id="edNtly0u6mX8" d="M325.600000,210.100000L200.600000,210.100000C202.800000,210.100000,204.600000,211.900000,204.600000,214.100000L204.600000,222.300000C204.600000,224.500000,202.800000,226.300000,200.600000,226.300000L325.700000,226.300000C327.900000,226.300000,329.700000,224.500000,329.700000,222.300000L329.700000,214C329.600000,211.800000,327.800000,210.100000,325.600000,210.100000Z" clip-rule="evenodd" fill="rgb(255,102,102)" fill-rule="evenodd" stroke="none" stroke-width="1"/><g id="edNtly0u6mX9"><path id="edNtly0u6mX10" d="M216,25L311.500000,25C322.700000,25,331.300000,33,331.900000,44.100000L338.600000,161.700000C338.800000,165.900000,338,169.700000,336,173.700000L317.900000,210.100000L172.300000,210.100000L161.300000,173.700000C160.100000,169.700000,160.100000,165.900000,161.200000,161.700000L191.700000,44.100000C194.600000,33,204.800000,25,216,25L216,25Z" clip-rule="evenodd" fill="rgb(255,102,102)" fill-rule="evenodd" stroke="none" stroke-width="1"/><path id="edNtly0u6mX11" d="M204.100000,25L299.600000,25C310.800000,25,319.400000,33,320,44.100000L326.700000,161.700000C326.900000,165.900000,326.100000,169.700000,324.100000,173.700000L306,210.100000L160.400000,210.100000L149.400000,173.700000C148.200000,169.700000,148.200000,165.900000,149.300000,161.700000L179.800000,44.100000C182.700000,33,192.900000,25,204.100000,25L204.100000,25Z" clip-rule="evenodd" fill="url(#edNtly0u6mX11-fill)" fill-rule="evenodd" stroke="none" stroke-width="1"/><path id="edNtly0u6mX12" d="M319.100000,183.700000L306,210.100000L160.400000,210.100000L152.500000,183.800000C176.900000,191.900000,204.700000,196.400000,234.500000,196.400000C264.400000,196.300000,293.100000,191.800000,319.100000,183.700000L319.100000,183.700000Z" clip-rule="evenodd" fill="rgb(158,61,29)" fill-rule="evenodd" stroke="none" stroke-width="1"/></g></g></g></svg>