<svg id="egAJUdci1xk1" xmlns="http://www.w3.org/2000/svg" xmlns:xlink="http://www.w3.org/1999/xlink" viewBox="0 0 400 400" shape-rendering="geometricPrecision" text-rendering="geometricPrecision"><defs><path id="egAJUdci1xk2" d="M197.200000,207.700000C222.900000,217.100000,236.100000,245.600000,226.600000,271.300000C217.200000,297,188.700000,310.200000,163,300.700000C137.300000,291.300000,124.100000,262.800000,133.600000,237.100000C143,211.400000,171.500000,198.200000,197.200000,207.700000L197.200000,207.700000Z"/><linearGradient id="egAJUdci1xk8-fill" x1="199.036071" y1="202.617733" x2="156.489200" y2="318.426909" spreadMethod="pad" gradientUnits="userSpaceOnUse"><stop id="egAJUdci1xk8-fill-0" offset="0%" stop-color="rgb(255,194,61)"/><stop id="egAJUdci1xk8-fill-1" offset="100%" stop-color="rgb(255,226,112)"/></linearGradient><linearGradient id="egAJUdci1xk10-fill" x1="104.564821" y1="226.439351" x2="127.313258" y2="234.796595" spreadMethod="pad" gradientUnits="userSpaceOnUse"><stop id="egAJUdci1xk10-fill-0" offset="0%" stop-color="rgb(255,204,0)"/><stop id="egAJUdci1xk10-fill-1" offset="100%" stop-color="rgb(255,226,112)"/></linearGradient><linearGradient id="egAJUdci1xk11-fill" x1="146.306393" y1="181.162403" x2="156.480932" y2="203.161764" spreadMethod="pad" gradientUnits="userSpaceOnUse"><stop id="egAJUdci1xk11-fill-0" offset="0%" stop-color="rgb(255,204,0)"/><stop id="egAJUdci1xk11-fill-1" offset="100%" stop-color="rgb(255,226,112)"/></linearGradient><linearGradient id="egAJUdci1xk12-fill" x1="253.115078" y1="220.407054" x2="231.119024" y2="230.579940" spreadMethod="pad" gradientUnits="userSpaceOnUse"><stop id="egAJUdci1xk12-fill-0" offset="0%" stop-color="rgb(255,204,0)"/><stop id="egAJUdci1xk12-fill-1" offset="100%" stop-color="rgb(255,226,112)"/></linearGradient><linearGradient id="egAJUdci1xk13-fill" x1="213.872080" y1="327.217393" x2="203.690927" y2="305.221339" spreadMethod="pad" gradientUnits="userSpaceOnUse"><stop id="egAJUdci1xk13-fill-0" offset="0%" stop-color="rgb(255,204,0)"/><stop id="egAJUdci1xk13-fill-1" offset="100%" stop-color="rgb(255,226,112)"/></linearGradient><linearGradient id="egAJUdci1xk14-fill" x1="107.061741" y1="287.976049" x2="129.057796" y2="277.796549" spreadMethod="pad" gradientUnits="userSpaceOnUse"><stop id="egAJUdci1xk14-fill-0" offset="0%" stop-color="rgb(255,204,0)"/><stop id="egAJUdci1xk14-fill-1" offset="100%" stop-color="rgb(255,226,112)"/></linearGradient><linearGradient id="egAJUdci1xk15-fill" x1="99.952958" y1="246.933945" x2="124.092065" y2="249.113377" spreadMethod="pad" gradientUnits="userSpaceOnUse"><stop id="egAJUdci1xk15-fill-0" offset="0%" stop-color="rgb(255,204,0)"/><stop id="egAJUdci1xk15-fill-1" offset="100%" stop-color="rgb(255,226,112)"/></linearGradient><linearGradient id="egAJUdci1xk16-fill" x1="100.809518" y1="267.921309" x2="124.685704" y2="263.780720" spreadMethod="pad" gradientUnits="userSpaceOnUse"><stop id="egAJUdci1xk16-fill-0" offset="0%" stop-color="rgb(255,204,0)"/><stop id="egAJUdci1xk16-fill-1" offset="100%" stop-color="rgb(255,226,112)"/></linearGradient><linearGradient id="egAJUdci1xk17-fill" x1="118.297886" y1="305.722377" x2="136.910695" y2="290.205088" spreadMethod="pad" gradientUnits="userSpaceOnUse"><stop id="egAJUdci1xk17-fill-0" offset="0%" stop-color="rgb(255,204,0)"/><stop id="egAJUdci1xk17-fill-1" offset="100%" stop-color="rgb(255,226,112)"/></linearGradient><linearGradient id="egAJUdci1xk18-fill" x1="133.739109" y1="319.956480" x2="147.698716" y2="300.149778" spreadMethod="pad" gradientUnits="userSpaceOnUse"><stop id="egAJUdci1xk18-fill-0" offset="0%" stop-color="rgb(255,204,0)"/><stop id="egAJUdci1xk18-fill-1" offset="100%" stop-color="rgb(255,226,112)"/></linearGradient><linearGradient id="egAJUdci1xk19-fill" x1="172.833284" y1="334.324523" x2="175.012715" y2="310.188723" spreadMethod="pad" gradientUnits="userSpaceOnUse"><stop id="egAJUdci1xk19-fill-0" offset="0%" stop-color="rgb(255,204,0)"/><stop id="egAJUdci1xk19-fill-1" offset="100%" stop-color="rgb(255,226,112)"/></linearGradient><linearGradient id="egAJUdci1xk20-fill" x1="193.820648" y1="333.472924" x2="189.686673" y2="309.591777" spreadMethod="pad" gradientUnits="userSpaceOnUse"><stop id="egAJUdci1xk20-fill-0" offset="0%" stop-color="rgb(255,204,0)"/><stop id="egAJUdci1xk20-fill-1" offset="100%" stop-color="rgb(255,226,112)"/></linearGradient><linearGradient id="egAJUdci1xk21-fill" x1="231.623369" y1="315.984556" x2="216.096159" y2="297.370094" spreadMethod="pad" gradientUnits="userSpaceOnUse"><stop id="egAJUdci1xk21-fill-0" offset="0%" stop-color="rgb(255,204,0)"/><stop id="egAJUdci1xk21-fill-1" offset="100%" stop-color="rgb(255,226,112)"/></linearGradient><linearGradient id="egAJUdci1xk22-fill" x1="245.857472" y1="300.540026" x2="226.044156" y2="286.582073" spreadMethod="pad" gradientUnits="userSpaceOnUse"><stop id="egAJUdci1xk22-fill-0" offset="0%" stop-color="rgb(255,204,0)"/><stop id="egAJUdci1xk22-fill-1" offset="100%" stop-color="rgb(255,226,112)"/></linearGradient><linearGradient id="egAJUdci1xk23-fill" x1="260.222208" y1="261.440890" x2="236.089716" y2="259.254844" spreadMethod="pad" gradientUnits="userSpaceOnUse"><stop id="egAJUdci1xk23-fill-0" offset="0%" stop-color="rgb(255,204,0)"/><stop id="egAJUdci1xk23-fill-1" offset="100%" stop-color="rgb(255,226,112)"/></linearGradient><linearGradient id="egAJUdci1xk24-fill" x1="259.363995" y1="240.453526" x2="235.491116" y2="244.587501" spreadMethod="pad" gradientUnits="userSpaceOnUse"><stop id="egAJUdci1xk24-fill-0" offset="0%" stop-color="rgb(255,204,0)"/><stop id="egAJUdci1xk24-fill-1" offset="100%" stop-color="rgb(255,226,112)"/></linearGradient><linearGradient id="egAJUdci1xk25-fill" x1="241.883895" y1="202.655766" x2="223.267779" y2="218.174708" spreadMethod="pad" gradientUnits="userSpaceOnUse"><stop id="egAJUdci1xk25-fill-0" offset="0%" stop-color="rgb(255,204,0)"/><stop id="egAJUdci1xk25-fill-1" offset="100%" stop-color="rgb(255,226,112)"/></linearGradient><linearGradient id="egAJUdci1xk26-fill" x1="226.439364" y1="188.420009" x2="212.479758" y2="208.228364" spreadMethod="pad" gradientUnits="userSpaceOnUse"><stop id="egAJUdci1xk26-fill-0" offset="0%" stop-color="rgb(255,204,0)"/><stop id="egAJUdci1xk26-fill-1" offset="100%" stop-color="rgb(255,226,112)"/></linearGradient><linearGradient id="egAJUdci1xk27-fill" x1="187.340229" y1="174.053619" x2="185.154183" y2="198.191073" spreadMethod="pad" gradientUnits="userSpaceOnUse"><stop id="egAJUdci1xk27-fill-0" offset="0%" stop-color="rgb(255,204,0)"/><stop id="egAJUdci1xk27-fill-1" offset="100%" stop-color="rgb(255,226,112)"/></linearGradient><linearGradient id="egAJUdci1xk28-fill" x1="166.352864" y1="174.910179" x2="170.486839" y2="198.789672" spreadMethod="pad" gradientUnits="userSpaceOnUse"><stop id="egAJUdci1xk28-fill-0" offset="0%" stop-color="rgb(255,204,0)"/><stop id="egAJUdci1xk28-fill-1" offset="100%" stop-color="rgb(255,226,112)"/></linearGradient><linearGradient id="egAJUdci1xk29-fill" x1="128.555104" y1="192.398547" x2="144.074046" y2="211.013010" spreadMethod="pad" gradientUnits="userSpaceOnUse"><stop id="egAJUdci1xk29-fill-0" offset="0%" stop-color="rgb(255,204,0)"/><stop id="egAJUdci1xk29-fill-1" offset="100%" stop-color="rgb(255,226,112)"/></linearGradient><linearGradient id="egAJUdci1xk30-fill" x1="114.317694" y1="207.839770" x2="134.126049" y2="221.805991" spreadMethod="pad" gradientUnits="userSpaceOnUse"><stop id="egAJUdci1xk30-fill-0" offset="0%" stop-color="rgb(255,204,0)"/><stop id="egAJUdci1xk30-fill-1" offset="100%" stop-color="rgb(255,226,112)"/></linearGradient><linearGradient id="egAJUdci1xk31-fill" x1="152.338689" y1="329.715968" x2="160.695933" y2="306.964223" spreadMethod="pad" gradientUnits="userSpaceOnUse"><stop id="egAJUdci1xk31-fill-0" offset="0%" stop-color="rgb(255,204,0)"/><stop id="egAJUdci1xk31-fill-1" offset="100%" stop-color="rgb(255,226,112)"/></linearGradient><linearGradient id="egAJUdci1xk32-fill" x1="255.615306" y1="281.935485" x2="232.866869" y2="273.573280" spreadMethod="pad" gradientUnits="userSpaceOnUse"><stop id="egAJUdci1xk32-fill-0" offset="0%" stop-color="rgb(255,204,0)"/><stop id="egAJUdci1xk32-fill-1" offset="100%" stop-color="rgb(255,226,112)"/></linearGradient><linearGradient id="egAJUdci1xk33-fill" x1="207.833170" y1="178.665482" x2="199.472619" y2="201.408959" spreadMethod="pad" gradientUnits="userSpaceOnUse"><stop id="egAJUdci1xk33-fill-0" offset="0%" stop-color="rgb(255,204,0)"/><stop id="egAJUdci1xk33-fill-1" offset="100%" stop-color="rgb(255,226,112)"/></linearGradient></defs><path id="egAJUdci1xk3" d="M325.500000,78.800000L182.800000,26.400000C170.800000,22,157.300000,28.200000,152.900000,40.200000L60.700000,291.200000C56.300000,303.200000,62.500000,316.700000,74.500000,321.100000L217.100000,373.500000C229.100000,377.900000,242.600000,371.700000,247,359.700000L339.200000,108.700000C343.700000,96.700000,337.500000,83.200000,325.500000,78.800000L325.500000,78.800000Z" clip-rule="evenodd" fill="rgb(250,215,77)" fill-rule="evenodd" stroke="none" stroke-width="1"/><path id="egAJUdci1xk4" d="M315.200000,93.400000L181.300000,44.200000C175.400000,42,168.700000,45.100000,166.500000,51.100000L140.600000,121.700000C138.400000,127.700000,141.500000,134.300000,147.500000,136.500000L281.400000,185.700000C287.300000,187.900000,294,184.800000,296.200000,178.800000L322.100000,108.200000C324.200000,102.200000,321.100000,95.600000,315.200000,93.400000L315.200000,93.400000Z" clip-rule="evenodd" fill="rgb(0,51,51)" fill-rule="evenodd" stroke="none" stroke-width="1"/><path id="egAJUdci1xk5" d="M156,88.300000C180.800000,97.900000,181.700000,104.800000,197.200000,81.600000C207.200000,66.600000,218,49.500000,199.600000,125.300000C191.600000,158.400000,208.900000,131.400000,224.400000,109C234.600000,94.200000,235.500000,100.600000,232.400000,129.100000C230.100000,150.300000,237,146.400000,265.300000,100C272.700000,88,275.100000,92.200000,268.200000,132C261,173.700000,286.400000,105.600000,288.600000,134.800000C289.100000,141.200000,295.900000,139.600000,305.800000,143.500000" fill="none" stroke="rgb(153,255,0)" stroke-width="5" stroke-miterlimit="379.095000"/><g id="egAJUdci1xk6"><path id="egAJUdci1xk7" d="M208.700000,176.400000C251.600000,192.200000,273.700000,239.800000,257.900000,282.700000C242.100000,325.600000,194.500000,347.700000,151.600000,331.900000C108.700000,316.100000,86.600000,268.500000,102.400000,225.600000C118.200000,182.700000,165.700000,160.600000,208.700000,176.400000L208.700000,176.400000Z" clip-rule="evenodd" fill="rgb(255,226,112)" fill-rule="evenodd" stroke="none" stroke-width="1"/><path id="egAJUdci1xk8" d="M232.100000,274.200000C242.700000,245.300000,227.900000,213.300000,199,202.600000C170.100000,192,138.100000,206.800000,127.500000,235.700000C96.400000,320.400000,201,358.800000,232.100000,274.200000Z" clip-rule="evenodd" fill="url(#egAJUdci1xk8-fill)" fill-rule="evenodd" stroke="none" stroke-width="1"/><g id="egAJUdci1xk9"><polygon id="egAJUdci1xk10" points="127.600000,234 105.300000,224.600000 103.900000,228.300000 127,235.600000" clip-rule="evenodd" fill="url(#egAJUdci1xk10-fill)" fill-rule="evenodd" stroke="none" stroke-width="1"/><polygon id="egAJUdci1xk11" points="157.300000,202.800000 148.100000,180.300000 144.500000,182 155.700000,203.500000" clip-rule="evenodd" fill="url(#egAJUdci1xk11-fill)" fill-rule="evenodd" stroke="none" stroke-width="1"/><polygon id="egAJUdci1xk12" points="231.500000,231.400000 254,222.200000 252.300000,218.600000 230.700000,229.800000" clip-rule="evenodd" fill="url(#egAJUdci1xk12-fill)" fill-rule="evenodd" stroke="none" stroke-width="1"/><polygon id="egAJUdci1xk13" points="202.900000,305.600000 212.100000,328.100000 215.700000,326.400000 204.500000,304.900000" clip-rule="evenodd" fill="url(#egAJUdci1xk13-fill)" fill-rule="evenodd" stroke="none" stroke-width="1"/><polygon id="egAJUdci1xk14" points="128.700000,277 106.200000,286.200000 107.900000,289.800000 129.400000,278.600000" clip-rule="evenodd" fill="url(#egAJUdci1xk14-fill)" fill-rule="evenodd" stroke="none" stroke-width="1"/><polygon id="egAJUdci1xk15" points="124.200000,248.200000 100.100000,244.900000 99.800000,248.900000 124,250" clip-rule="evenodd" fill="url(#egAJUdci1xk15-fill)" fill-rule="evenodd" stroke="none" stroke-width="1"/><polygon id="egAJUdci1xk16" points="124.500000,262.900000 100.500000,266 101.200000,269.900000 124.800000,264.700000" clip-rule="evenodd" fill="url(#egAJUdci1xk16-fill)" fill-rule="evenodd" stroke="none" stroke-width="1"/><polygon id="egAJUdci1xk17" points="136.300000,289.500000 117,304.200000 119.600000,307.300000 137.500000,290.900000" clip-rule="evenodd" fill="url(#egAJUdci1xk17-fill)" fill-rule="evenodd" stroke="none" stroke-width="1"/><polygon id="egAJUdci1xk18" points="147,299.600000 132.100000,318.800000 135.400000,321.100000 148.400000,300.700000" clip-rule="evenodd" fill="url(#egAJUdci1xk18-fill)" fill-rule="evenodd" stroke="none" stroke-width="1"/><polygon id="egAJUdci1xk19" points="174.100000,310.100000 170.800000,334.100000 174.800000,334.500000 175.900000,310.300000" clip-rule="evenodd" fill="url(#egAJUdci1xk19-fill)" fill-rule="evenodd" stroke="none" stroke-width="1"/><polygon id="egAJUdci1xk20" points="188.800000,309.800000 191.800000,333.800000 195.800000,333.100000 190.600000,309.400000" clip-rule="evenodd" fill="url(#egAJUdci1xk20-fill)" fill-rule="evenodd" stroke="none" stroke-width="1"/><polygon id="egAJUdci1xk21" points="215.400000,297.900000 230.100000,317.300000 233.200000,314.700000 216.800000,296.800000" clip-rule="evenodd" fill="url(#egAJUdci1xk21-fill)" fill-rule="evenodd" stroke="none" stroke-width="1"/><polygon id="egAJUdci1xk22" points="225.500000,287.300000 244.700000,302.200000 247,298.900000 226.600000,285.900000" clip-rule="evenodd" fill="url(#egAJUdci1xk22-fill)" fill-rule="evenodd" stroke="none" stroke-width="1"/><polygon id="egAJUdci1xk23" points="236,260.200000 260,263.400000 260.400000,259.500000 236.200000,258.400000" clip-rule="evenodd" fill="url(#egAJUdci1xk23-fill)" fill-rule="evenodd" stroke="none" stroke-width="1"/><polygon id="egAJUdci1xk24" points="235.600000,245.500000 259.700000,242.400000 259,238.500000 235.300000,243.700000" clip-rule="evenodd" fill="url(#egAJUdci1xk24-fill)" fill-rule="evenodd" stroke="none" stroke-width="1"/><polygon id="egAJUdci1xk25" points="223.800000,218.900000 243.200000,204.200000 240.600000,201.100000 222.700000,217.500000" clip-rule="evenodd" fill="url(#egAJUdci1xk25-fill)" fill-rule="evenodd" stroke="none" stroke-width="1"/><polygon id="egAJUdci1xk26" points="213.200000,208.700000 228.100000,189.600000 224.800000,187.300000 211.800000,207.700000" clip-rule="evenodd" fill="url(#egAJUdci1xk26-fill)" fill-rule="evenodd" stroke="none" stroke-width="1"/><polygon id="egAJUdci1xk27" points="186,198.300000 189.300000,174.200000 185.300000,173.900000 184.300000,198.100000" clip-rule="evenodd" fill="url(#egAJUdci1xk27-fill)" fill-rule="evenodd" stroke="none" stroke-width="1"/><polygon id="egAJUdci1xk28" points="171.400000,198.600000 168.300000,174.600000 164.400000,175.300000 169.600000,198.900000" clip-rule="evenodd" fill="url(#egAJUdci1xk28-fill)" fill-rule="evenodd" stroke="none" stroke-width="1"/><polygon id="egAJUdci1xk29" points="144.800000,210.400000 130.100000,191.100000 127,193.700000 143.400000,211.600000" clip-rule="evenodd" fill="url(#egAJUdci1xk29-fill)" fill-rule="evenodd" stroke="none" stroke-width="1"/><polygon id="egAJUdci1xk30" points="134.600000,221.100000 115.500000,206.200000 113.200000,209.500000 133.600000,222.500000" clip-rule="evenodd" fill="url(#egAJUdci1xk30-fill)" fill-rule="evenodd" stroke="none" stroke-width="1"/><polygon id="egAJUdci1xk31" points="159.900000,306.700000 150.500000,329 154.200000,330.400000 161.500000,307.300000" clip-rule="evenodd" fill="url(#egAJUdci1xk31-fill)" fill-rule="evenodd" stroke="none" stroke-width="1"/><polygon id="egAJUdci1xk32" points="233.200000,272.800000 256.300000,280.100000 254.900000,283.800000 232.600000,274.400000" clip-rule="evenodd" fill="url(#egAJUdci1xk32-fill)" fill-rule="evenodd" stroke="none" stroke-width="1"/><polygon id="egAJUdci1xk33" points="198.600000,201.100000 206,178 209.700000,179.400000 200.300000,201.700000" clip-rule="evenodd" fill="url(#egAJUdci1xk33-fill)" fill-rule="evenodd" stroke="none" stroke-width="1"/></g></g><g id="egAJUdci1xk34"><path id="egAJUdci1xk35" d="M203,207.800000C226.400000,219.300000,237.800000,246.900000,228.600000,272C218.700000,298.800000,189,312.600000,162.200000,302.700000C135.400000,292.800000,121.600000,263.100000,131.500000,236.300000C140.700000,211.200000,167.300000,197.600000,192.600000,204L189.400000,200.500000C188.800000,199.800000,188.800000,198.700000,189.500000,198.100000L204.100000,184.300000C204.600000,183.800000,205.200000,183.700000,205.900000,183.900000C206.500000,184.100000,206.900000,184.700000,207,185.300000L209.200000,205.200000C209.300000,206.100000,208.600000,207,207.700000,207.100000L203,207.800000L203,207.800000ZM201,197.400000C202.500000,197.900000,203.200000,199.500000,202.700000,201C202.200000,202.500000,200.600000,203.200000,199.100000,202.700000C197.700000,202.200000,196.900000,200.600000,197.400000,199.100000C197.900000,197.600000,199.500000,196.800000,201,197.400000Z" clip-rule="evenodd" fill="rgb(51,51,51)" fill-rule="evenodd" stroke="none" stroke-width="1"/><path id="egAJUdci1xk36" d="M197.200000,207.700000C222.900000,217.100000,236.100000,245.600000,226.600000,271.300000C217.200000,297,188.700000,310.200000,163,300.700000C137.300000,291.300000,124.100000,262.800000,133.600000,237.100000C143,211.400000,171.500000,198.200000,197.200000,207.700000L197.200000,207.700000Z" clip-rule="evenodd" fill="rgb(102,153,255)" fill-rule="evenodd" stroke="none" stroke-width="1"/><g id="egAJUdci1xk37"><g id="egAJUdci1xk38" style="" clip-path="url(#egAJUdci1xk44)"><g id="egAJUdci1xk39"><g id="egAJUdci1xk40"><rect id="egAJUdci1xk41" width="55.200000" height="116" rx="0" ry="0" transform="matrix(0.34490000000000 -0.93870000000000 0.93870000000000 0.34490000000000 106.66196999999994 285.98118999999997)" clip-rule="evenodd" fill="rgb(102,102,204)" fill-rule="evenodd" stroke="none" stroke-width="1"/><polygon id="egAJUdci1xk42" points="180.100000,254.200000 106.600000,285.900000 215.500000,326" clip-rule="evenodd" fill="rgb(0,51,153)" fill-rule="evenodd" stroke="none" stroke-width="1"/><polygon id="egAJUdci1xk43" points="180.100000,254.200000 144.700000,182.400000 253.500000,222.400000" clip-rule="evenodd" fill="rgb(153,153,255)" fill-rule="evenodd" stroke="none" stroke-width="1"/></g></g><clipPath id="egAJUdci1xk44"><use id="egAJUdci1xk45" width="99.165131" height="99.165131" xlink:href="#egAJUdci1xk2" fill="rgb(0,0,0)" stroke="none" stroke-width="1"/></clipPath></g></g><path id="egAJUdci1xk46" d="M197.200000,207.700000C222.900000,217.100000,236.100000,245.600000,226.600000,271.300000C217.200000,297,188.700000,310.200000,163,300.700000C137.300000,291.300000,124.100000,262.800000,133.600000,237.100000C143,211.400000,171.500000,198.200000,197.200000,207.700000L197.200000,207.700000Z" fill="none" stroke="none" stroke-width="1"/><path id="egAJUdci1xk47" d="M193.700000,217.300000C214.100000,224.800000,224.500000,247.400000,217.100000,267.800000C209.600000,288.200000,187,298.600000,166.600000,291.200000C146.200000,283.800000,135.700000,261.100000,143.200000,240.700000C150.700000,220.200000,173.300000,209.800000,193.700000,217.300000Z" clip-rule="evenodd" fill="rgb(102,153,255)" fill-rule="evenodd" stroke="none" stroke-width="1"/><path id="egAJUdci1xk48" d="M192.600000,220C211.500000,226.900000,221.100000,247.800000,214.200000,266.700000C212.800000,270.600000,210.700000,274.100000,208.200000,277.200000L180,254.200000L175.200000,218.100000C162.300000,219.900000,150.700000,228.500000,145.900000,241.600000C139,260.500000,148.600000,281.400000,167.500000,288.300000C180.700000,293.100000,194.800000,289.900000,204.500000,281.100000L180,254.200000L188.100000,218.700000C189.700000,219.100000,191.200000,219.500000,192.600000,220L192.600000,220Z" clip-rule="evenodd" fill="rgb(87,136,235)" fill-rule="evenodd" stroke="none" stroke-width="1"/></g></svg>