<svg id="elZ7aDTBX2r1" xmlns="http://www.w3.org/2000/svg" xmlns:xlink="http://www.w3.org/1999/xlink" viewBox="0 0 400 400" shape-rendering="geometricPrecision" text-rendering="geometricPrecision"><defs><linearGradient id="elZ7aDTBX2r9-fill" x1="59.911643" y1="207.805904" x2="59.911643" y2="140.392144" spreadMethod="pad" gradientUnits="userSpaceOnUse"><stop id="elZ7aDTBX2r9-fill-0" offset="0%" stop-color="rgb(231,228,209)"/><stop id="elZ7aDTBX2r9-fill-1" offset="100%" stop-color="rgb(242,240,227)"/></linearGradient><linearGradient id="elZ7aDTBX2r12-fill" x1="199.919844" y1="217.384869" x2="199.919844" y2="199.449210" spreadMethod="pad" gradientUnits="userSpaceOnUse"><stop id="elZ7aDTBX2r12-fill-0" offset="0%" stop-color="rgb(231,228,209)"/><stop id="elZ7aDTBX2r12-fill-1" offset="100%" stop-color="rgb(245,243,231)"/></linearGradient><linearGradient id="elZ7aDTBX2r13-fill" x1="199.919844" y1="131.119648" x2="199.919844" y2="178.124362" spreadMethod="pad" gradientUnits="userSpaceOnUse"><stop id="elZ7aDTBX2r13-fill-0" offset="0%" stop-color="rgb(245,243,231)"/><stop id="elZ7aDTBX2r13-fill-1" offset="100%" stop-color="rgb(231,228,209)"/></linearGradient><linearGradient id="elZ7aDTBX2r14-fill" x1="339.950128" y1="207.805904" x2="339.950128" y2="140.392144" spreadMethod="pad" gradientUnits="userSpaceOnUse"><stop id="elZ7aDTBX2r14-fill-0" offset="0%" stop-color="rgb(231,228,209)"/><stop id="elZ7aDTBX2r14-fill-1" offset="100%" stop-color="rgb(242,240,227)"/></linearGradient><linearGradient id="elZ7aDTBX2r15-fill" x1="199.918492" y1="131.119648" x2="199.918492" y2="195.917603" spreadMethod="pad" gradientUnits="userSpaceOnUse"><stop id="elZ7aDTBX2r15-fill-0" offset="0%" stop-color="rgb(245,243,231)"/><stop id="elZ7aDTBX2r15-fill-1" offset="100%" stop-color="rgb(231,228,209)"/></linearGradient></defs><g id="elZ7aDTBX2r2"><g id="elZ7aDTBX2r3"><path id="elZ7aDTBX2r4" d="M323.300000,217.300000C326.500000,217.300000,328.400000,215.500000,332.100000,208.600000L365.400000,147C375.400000,153.400000,377.600000,161.800000,372,172C351.300000,210.200000,340.900000,229.300000,340.900000,229.300000C338.500000,234.500000,334.600000,237,329.200000,236.800000C243.100000,236.800000,156.900000,236.800000,70.800000,236.800000C65.400000,237,61.500000,234.500000,59.100000,229.300000C59.100000,229.300000,48.700000,210.200000,28,172C22.400000,161.800000,24.600000,153.400000,34.600000,147L67.900000,208.600000C71.600000,215.500000,73.500000,217.300000,76.700000,217.300000C158.900000,217.300000,241.100000,217.300000,323.300000,217.300000L323.300000,217.300000Z" clip-rule="evenodd" fill="rgb(217,169,134)" fill-rule="evenodd" stroke="none" stroke-width="1"/><path id="elZ7aDTBX2r5" d="M323.300000,217.300000C326.500000,217.300000,328.400000,215.500000,332.100000,208.600000L365.400000,147C367.200000,148.100000,368.700000,149.300000,370,150.600000C369.500000,152,368.900000,153.500000,368.100000,155C347.900000,193.200000,337.700000,212.300000,337.700000,212.300000C335.400000,217.500000,331.500000,220,326.200000,219.800000C242,219.800000,157.900000,219.800000,73.700000,219.800000C68.400000,220,64.600000,217.500000,62.200000,212.300000C62.200000,212.300000,52.100000,193.200000,31.800000,155C31,153.500000,30.400000,152,29.900000,150.600000C31.200000,149.300000,32.700000,148.100000,34.500000,147L67.800000,208.600000C71.500000,215.500000,73.400000,217.300000,76.600000,217.300000C158.900000,217.300000,241.100000,217.300000,323.300000,217.300000L323.300000,217.300000Z" clip-rule="evenodd" fill="rgb(207,156,120)" fill-rule="evenodd" stroke="none" stroke-width="1"/></g><g id="elZ7aDTBX2r6"><path id="elZ7aDTBX2r7" d="M343.600000,142.200000L316.700000,192C313.900000,197.200000,315.900000,203.700000,321,206.500000L321,206.500000C326.200000,209.300000,332.700000,207.300000,335.500000,202.200000L362.400000,152.400000C365.200000,147.200000,363.200000,140.700000,358.100000,137.900000L358.100000,137.900000C352.900000,135,346.400000,137,343.600000,142.200000Z" clip-rule="evenodd" fill="rgb(245,243,231)" fill-rule="evenodd" stroke="none" stroke-width="1"/><path id="elZ7aDTBX2r8" d="M56.400000,142.200000L83.300000,192C86.100000,197.200000,84.100000,203.700000,79,206.500000L79,206.500000C73.800000,209.300000,67.300000,207.300000,64.500000,202.200000L37.600000,152.400000C34.800000,147.200000,36.800000,140.700000,41.900000,137.900000L41.900000,137.900000C47.100000,135,53.600000,137,56.400000,142.200000L56.400000,142.200000Z" clip-rule="evenodd" fill="rgb(245,243,231)" fill-rule="evenodd" stroke="none" stroke-width="1"/><path id="elZ7aDTBX2r9" d="M83.700000,201.200000C82.800000,203.400000,81.200000,205.300000,78.900000,206.500000L78.900000,206.500000C73.700000,209.300000,67.200000,207.300000,64.400000,202.200000L37.500000,152.400000C36.600000,150.700000,36.200000,148.800000,36.200000,146.900000C37.100000,144.700000,38.700000,142.800000,41,141.600000L41,141.600000C46.200000,138.800000,52.700000,140.800000,55.500000,145.900000L82.400000,195.700000C83.400000,197.500000,83.800000,199.400000,83.700000,201.200000L83.700000,201.200000Z" clip-rule="evenodd" fill="url(#elZ7aDTBX2r9-fill)" fill-rule="evenodd" stroke="none" stroke-width="1"/><path id="elZ7aDTBX2r10" d="M334.600000,129.100000L65.400000,129.100000C60,129.100000,55.700000,133.500000,55.700000,138.800000C55.700000,139.400000,56,140.700000,56.600000,142.400000L83.300000,192C84,193.300000,84.400000,194.600000,84.500000,195.900000L84.500000,195.900000L315.500000,195.900000L315.500000,195.900000C315.600000,194.600000,316,193.200000,316.700000,192L343.400000,142.500000C344,140.700000,344.300000,139.500000,344.300000,138.800000C344.300000,133.500000,339.900000,129.100000,334.600000,129.100000L334.600000,129.100000Z" clip-rule="evenodd" fill="rgb(231,228,209)" fill-rule="evenodd" stroke="none" stroke-width="1"/><path id="elZ7aDTBX2r11" d="M324.300000,195.900000L75.700000,195.900000C69.800000,195.900000,65,200.700000,65,206.600000L65,206.600000C65,212.500000,69.800000,217.300000,75.700000,217.300000L324.200000,217.300000C330.100000,217.300000,334.900000,212.500000,334.900000,206.600000L334.900000,206.600000C335,200.700000,330.200000,195.900000,324.300000,195.900000Z" clip-rule="evenodd" fill="rgb(245,243,231)" fill-rule="evenodd" stroke="none" stroke-width="1"/><path id="elZ7aDTBX2r12" d="M65.100000,208.400000C65.900000,213.500000,70.400000,217.400000,75.700000,217.400000L324.200000,217.400000C329.500000,217.400000,333.900000,213.500000,334.800000,208.400000C334,203.300000,329.500000,199.400000,324.200000,199.400000L75.700000,199.400000C70.400000,199.400000,66,203.300000,65.100000,208.400000Z" clip-rule="evenodd" fill="url(#elZ7aDTBX2r12-fill)" fill-rule="evenodd" stroke="none" stroke-width="1"/><path id="elZ7aDTBX2r13" d="M329.800000,131.100000L262,131.100000C264.500000,131.100000,266.500000,137,266.500000,144.300000C266.500000,152.500000,261.600000,169.300000,259.700000,178.100000L316.600000,178.100000L338.300000,144.300000C338.900000,142.600000,339.200000,141.300000,339.200000,140.700000C339.200000,135.400000,335,131.100000,329.800000,131.100000L329.800000,131.100000ZM137.900000,131.100000L70.200000,131.100000C65,131.100000,60.800000,135.400000,60.800000,140.700000C60.800000,141.300000,61.100000,142.500000,61.600000,144.200000L83.400000,178.100000L140.300000,178.100000C138.400000,169.400000,133.400000,152.400000,133.400000,144.300000C133.400000,137,135.500000,131.100000,137.900000,131.100000L137.900000,131.100000Z" clip-rule="evenodd" fill="url(#elZ7aDTBX2r13-fill)" fill-rule="evenodd" stroke="none" stroke-width="1"/><path id="elZ7aDTBX2r14" d="M316.300000,201.200000C317.200000,203.400000,318.800000,205.300000,321.100000,206.500000L321.100000,206.500000C326.300000,209.300000,332.800000,207.300000,335.600000,202.200000L362.500000,152.400000C363.400000,150.700000,363.800000,148.800000,363.800000,146.900000C362.900000,144.700000,361.300000,142.800000,359,141.600000L359,141.600000C353.800000,138.800000,347.300000,140.800000,344.500000,145.900000L317.600000,195.700000C316.600000,197.500000,316.200000,199.400000,316.300000,201.200000L316.300000,201.200000Z" clip-rule="evenodd" fill="url(#elZ7aDTBX2r14-fill)" fill-rule="evenodd" stroke="none" stroke-width="1"/><path id="elZ7aDTBX2r15" d="M260.100000,131.100000L139.900000,131.100000C137.500000,131.100000,135.500000,137,135.500000,144.300000C135.500000,151.900000,149.100000,188.300000,151.600000,195.900000L248.200000,195.900000C250.800000,188.300000,264.300000,152.100000,264.300000,144.300000C264.400000,137,262.500000,131.100000,260.100000,131.100000L260.100000,131.100000Z" clip-rule="evenodd" fill="url(#elZ7aDTBX2r15-fill)" fill-rule="evenodd" stroke="none" stroke-width="1"/></g><g id="elZ7aDTBX2r16"><polygon id="elZ7aDTBX2r17" points="83.800000,236.800000 70.800000,236.800000 55.300000,270.900000 62.700000,270.900000" clip-rule="evenodd" fill="rgb(207,156,120)" fill-rule="evenodd" stroke="none" stroke-width="1"/><polygon id="elZ7aDTBX2r18" points="108.100000,236.800000 95.100000,236.800000 79.600000,270.900000 87,270.900000" clip-rule="evenodd" fill="rgb(151,107,78)" fill-rule="evenodd" stroke="none" stroke-width="1"/><polygon id="elZ7aDTBX2r19" points="316.200000,236.800000 329.200000,236.800000 344.700000,270.900000 337.300000,270.900000" clip-rule="evenodd" fill="rgb(207,156,120)" fill-rule="evenodd" stroke="none" stroke-width="1"/><polygon id="elZ7aDTBX2r20" points="291.900000,236.800000 304.900000,236.800000 320.400000,270.900000 313,270.900000" clip-rule="evenodd" fill="rgb(151,107,78)" fill-rule="evenodd" stroke="none" stroke-width="1"/></g></g></svg>