<svg id="e91boicCY2V1" xmlns="http://www.w3.org/2000/svg" xmlns:xlink="http://www.w3.org/1999/xlink" viewBox="0 0 400 400" shape-rendering="geometricPrecision" text-rendering="geometricPrecision"><g id="e91boicCY2V2"><g id="e91boicCY2V3"><path id="e91boicCY2V4" d="M224.700000,187.600000L175.300000,187.600000C167.500000,187.600000,160.900000,181.900000,159.900000,174.100000L149.500000,95.700000C149,91.800000,149.800000,88.400000,151.900000,85.100000L187,32C190,27.500000,194.600000,25,200,25C205.400000,25,210,27.500000,213,32L248,85.200000C250.100000,88.500000,250.900000,91.900000,250.400000,95.800000L240,174.200000C239.100000,181.900000,232.500000,187.600000,224.700000,187.600000L224.700000,187.600000Z" clip-rule="evenodd" fill="rgb(77,77,77)" fill-rule="evenodd" stroke="none" stroke-width="1"/><path id="e91boicCY2V5" d="M192.200000,164.400000C192.200000,160.100000,195.700000,156.600000,200,156.600000C204.300000,156.600000,207.800000,160.100000,207.800000,164.400000L207.800000,254.500000C207.800000,258.800000,204.300000,262.300000,200,262.300000C195.700000,262.300000,192.200000,258.800000,192.200000,254.500000L192.200000,164.400000Z" fill="rgb(51,51,51)" stroke="none" stroke-width="1"/></g><path id="e91boicCY2V6" d="M179.300000,264.200000C179.300000,252.800000,188.600000,243.500000,200,243.500000C211.400000,243.500000,220.700000,252.800000,220.700000,264.200000L220.700000,354.300000C220.700000,365.700000,211.400000,375,200,375C188.600000,375,179.300000,365.700000,179.300000,354.300000L179.300000,264.200000L179.300000,264.200000ZM200,342.100000C193.300000,342.100000,187.800000,347.600000,187.800000,354.300000C187.800000,361,193.300000,366.500000,200,366.500000C206.700000,366.500000,212.200000,361,212.200000,354.300000C212.200000,347.600000,206.700000,342.100000,200,342.100000Z" fill="rgb(255,153,102)" stroke="none" stroke-width="1"/></g></svg>