<svg id="eAW45txPode1" xmlns="http://www.w3.org/2000/svg" xmlns:xlink="http://www.w3.org/1999/xlink" viewBox="0 0 400 400" shape-rendering="geometricPrecision" text-rendering="geometricPrecision"><g id="eAW45txPode2"><polygon id="eAW45txPode3" points="192.400000,165.200000 192.400000,285.100000 207.600000,285.100000 207.600000,165.200000" fill="rgb(255,204,153)" stroke="none" stroke-width="1"/><g id="eAW45txPode4"><polygon id="eAW45txPode5" points="228.100000,351.400000 171.900000,351.400000 171.900000,369.600000 228.100000,369.600000" fill="rgb(0,0,0)" stroke="none" stroke-width="1"/><path id="eAW45txPode6" d="M209.100000,302.400000L209.100000,285.100000L207.600000,285.100000L192.500000,285.100000L191,285.100000L191,302.400000C184.400000,304.100000,178.500000,307.500000,173.800000,312.200000C167.100000,318.900000,162.900000,328.200000,162.900000,338.500000L162.900000,375L181,375L181,338.400000C181,333.200000,183.100000,328.400000,186.600000,325C190,321.600000,194.800000,319.400000,200,319.400000C205.200000,319.400000,210,321.500000,213.400000,325C216.800000,328.400000,219,333.200000,219,338.400000L219,375L237.200000,375L237.200000,338.400000C237.200000,328.200000,233,318.900000,226.300000,312.100000C221.600000,307.500000,215.700000,304,209.100000,302.400000Z" fill="rgb(255,153,102)" stroke="none" stroke-width="1"/></g><g id="eAW45txPode7"><path id="eAW45txPode8" d="M242.300000,28.800000C242.300000,26.700000,244,25,246.100000,25C248.200000,25,249.900000,26.700000,249.900000,28.800000L249.900000,111.400000C249.900000,119,246.800000,125.800000,241.800000,130.800000C236.800000,135.800000,230,138.900000,222.400000,138.900000L215.400000,138.900000L184.700000,138.900000L177.700000,138.900000C170.100000,138.900000,163.300000,135.800000,158.300000,130.800000C153.300000,125.800000,150.200000,119,150.200000,111.400000L150.200000,28.800000C150.200000,26.700000,151.900000,25,154,25C156.100000,25,157.800000,26.700000,157.800000,28.800000L157.800000,111.400000C157.800000,116.900000,160,121.800000,163.600000,125.400000C167.200000,129,172.200000,131.200000,177.600000,131.200000L180.900000,131.200000L180.900000,28.800000C180.900000,26.700000,182.600000,25,184.700000,25C186.800000,25,188.500000,26.700000,188.500000,28.800000L188.500000,131.300000L211.600000,131.300000L211.600000,28.800000C211.600000,26.700000,213.300000,25,215.400000,25C217.500000,25,219.200000,26.700000,219.200000,28.800000L219.200000,131.300000L222.500000,131.300000C228,131.300000,232.900000,129.100000,236.500000,125.500000C240.100000,121.900000,242.300000,116.900000,242.300000,111.500000L242.300000,28.800000L242.300000,28.800000Z" fill="rgb(51,51,51)" stroke="none" stroke-width="1"/><polygon id="eAW45txPode9" points="192.400000,165.200000 207.600000,165.200000 209.100000,165.200000 209.100000,135.100000 190.900000,135.100000 190.900000,165.200000" fill="rgb(77,77,77)" stroke="none" stroke-width="1"/></g></g></svg>