<svg id="eelvk7wpM9Z1" xmlns="http://www.w3.org/2000/svg" xmlns:xlink="http://www.w3.org/1999/xlink" viewBox="0 0 400 400" shape-rendering="geometricPrecision" text-rendering="geometricPrecision"><g id="eelvk7wpM9Z2"><g id="eelvk7wpM9Z3"><polygon id="eelvk7wpM9Z4" points="325.300000,375 313.800000,375 274.500000,231.700000 196.700000,231.700000 157.500000,375 146,375 175.100000,224.400000 296.200000,224.400000" clip-rule="evenodd" fill="rgb(83,54,24)" fill-rule="evenodd" stroke="none" stroke-width="1"/><polygon id="eelvk7wpM9Z5" points="271.800000,375 260.300000,375 221.100000,231.700000 143.300000,231.700000 104,375 92.500000,375 121.600000,224.400000 242.700000,224.400000" clip-rule="evenodd" fill="rgb(105,71,33)" fill-rule="evenodd" stroke="none" stroke-width="1"/><polygon id="eelvk7wpM9Z6" points="263.800000,224.400000 64.100000,224.400000 64.100000,220 263.800000,220" clip-rule="evenodd" fill="rgb(99,72,41)" fill-rule="evenodd" stroke="none" stroke-width="1"/><polygon id="eelvk7wpM9Z7" points="329.700000,224.400000 263.800000,224.400000 263.800000,220 329.700000,220" clip-rule="evenodd" fill="rgb(83,54,24)" fill-rule="evenodd" stroke="none" stroke-width="1"/></g><g id="eelvk7wpM9Z8"><path id="eelvk7wpM9Z9" d="M186,25L321.200000,25C325.800000,25,329.300000,28.600000,329.200000,33.200000L325.500000,210.700000C325.400000,213.200000,324.500000,215.400000,322.600000,217.200000C320.700000,219,318.500000,219.900000,316,219.900000L156.800000,219.900000C154.300000,219.900000,152.200000,219,150.600000,217.100000C149,215.300000,148.400000,213,148.800000,210.500000L176.500000,33C177.300000,28.500000,181.400000,25,186,25L186,25Z" clip-rule="evenodd" fill="rgb(167,214,167)" fill-rule="evenodd" stroke="none" stroke-width="1"/><path id="eelvk7wpM9Z10" d="M321.200000,25L333,25C337.600000,25,341.100000,28.600000,341,33.200000L337.300000,210.700000C337.200000,213.200000,336.300000,215.400000,334.400000,217.200000C332.500000,219,330.300000,219.900000,327.800000,219.900000L316,219.900000C318.500000,219.900000,320.700000,219,322.600000,217.200000C324.500000,215.400000,325.400000,213.200000,325.500000,210.700000L329.200000,33.200000C329.300000,28.600000,325.800000,25,321.200000,25L321.200000,25Z" clip-rule="evenodd" fill="rgb(204,255,204)" fill-rule="evenodd" stroke="none" stroke-width="1"/><path id="eelvk7wpM9Z11" d="M59,220C57.900000,197.400000,74.400000,186.700000,108.500000,188C162.300000,188,216.200000,188,270,188L270,220C199.700000,220,129.300000,220,59,220L59,220Z" clip-rule="evenodd" fill="rgb(153,204,153)" fill-rule="evenodd" stroke="none" stroke-width="1"/><path id="eelvk7wpM9Z12" d="M332.600000,220C288.700000,220,241.300000,220,190.300000,220C189.200000,197.400000,205.700000,186.700000,239.800000,188L280.900000,188C312.400000,187.400000,329.600000,198.100000,332.600000,220Z" clip-rule="evenodd" fill="rgb(204,255,204)" fill-rule="evenodd" stroke="none" stroke-width="1"/><path id="eelvk7wpM9Z13" d="M186,25L321.200000,25C325.800000,25,329.300000,28.600000,329.200000,33.200000L325.900000,190.900000C315.200000,182.900000,299.800000,180.500000,284,180.800000L153.500000,180.800000L176.600000,33.200000C177.300000,28.500000,181.400000,25,186,25L186,25Z" clip-rule="evenodd" fill="rgb(153,204,153)" fill-rule="evenodd" stroke="none" stroke-width="1"/></g></g></svg>