<svg id="eJrA5Hsp9ez1" xmlns="http://www.w3.org/2000/svg" xmlns:xlink="http://www.w3.org/1999/xlink" viewBox="0 0 400 400" shape-rendering="geometricPrecision" text-rendering="geometricPrecision"><g id="eJrA5Hsp9ez2"><g id="eJrA5Hsp9ez3"><polygon id="eJrA5Hsp9ez4" points="285.300000,205.200000 231.300000,111.500000 25,279.600000 56.900000,334.900000 58.500000,336.100000 61.600000,334.300000 60.900000,329.700000 64.600000,332.600000 67.800000,330.800000 67.100000,326.200000 70.700000,329.100000 73.900000,327.300000 73.200000,322.600000 76.900000,325.500000 80,323.700000 79.300000,319.100000 83,322 86.100000,320.200000 85.400000,315.600000 89.100000,318.500000 92.200000,316.700000 91.500000,312 95.200000,314.900000 98.400000,313.100000 97.700000,308.500000 101.300000,311.400000 104.500000,309.600000 103.800000,305 107.500000,307.900000 110.600000,306.100000 109.900000,301.400000 113.600000,304.300000 116.700000,302.500000 116,297.900000 119.700000,300.800000 122.800000,299 122.100000,294.400000 125.800000,297.300000 129,295.500000 128.300000,290.800000 131.900000,293.700000 135.100000,291.900000 134.400000,287.300000 138.100000,290.200000 141.200000,288.400000 140.500000,283.800000 144.200000,286.700000 147.300000,284.900000 146.600000,280.200000 150.300000,283.100000 153.500000,281.300000 152.800000,276.700000 156.400000,279.600000 159.600000,277.800000 158.900000,273.100000 162.500000,276.100000 165.700000,274.300000 165,269.600000 168.700000,272.500000 171.800000,270.700000 171.100000,266.100000 174.800000,269 177.900000,267.200000 177.200000,262.500000 180.900000,265.500000 184.100000,263.700000 183.400000,259 187,261.900000 190.200000,260.100000 189.500000,255.500000 193.100000,258.400000 196.300000,256.600000 195.600000,251.900000 199.300000,254.900000 202.400000,253.100000 201.700000,248.400000 205.400000,251.300000 208.500000,249.500000 207.800000,244.900000 211.500000,247.800000 214.700000,246 214,241.300000 217.600000,244.300000 220.800000,242.400000 220.100000,237.800000 223.800000,240.700000 226.900000,238.900000 226.200000,234.300000 229.900000,237.200000 233,235.400000 232.300000,230.700000 236,233.700000 239.100000,231.800000 238.400000,227.200000 242.100000,230.100000 245.300000,228.300000 244.600000,223.700000 248.200000,226.600000 251.400000,224.800000 250.700000,220.100000 254.400000,223.100000 257.500000,221.200000 256.800000,216.600000 260.500000,219.500000 263.600000,217.700000 262.900000,213.100000 266.600000,216" clip-rule="evenodd" fill="rgb(26,26,26)" fill-rule="evenodd" stroke="none" stroke-width="1"/><polygon id="eJrA5Hsp9ez5" points="52,326.400000 56.900000,334.900000 58.500000,336.100000 61.600000,334.300000 60.900000,329.700000 64.600000,332.600000 67.800000,330.800000 67.100000,326.200000 70.700000,329.100000 73.900000,327.300000 73.200000,322.600000 76.900000,325.500000 80,323.700000 79.300000,319.100000 83,322 86.100000,320.200000 85.400000,315.600000 89.100000,318.500000 92.200000,316.700000 91.500000,312 95.200000,314.900000 98.400000,313.100000 97.700000,308.500000 101.300000,311.400000 104.500000,309.600000 103.800000,305 107.500000,307.900000 110.600000,306.100000 109.900000,301.400000 113.600000,304.300000 116.700000,302.500000 116,297.900000 119.700000,300.800000 122.800000,299 122.100000,294.400000 125.800000,297.300000 129,295.500000 128.300000,290.800000 131.900000,293.700000 135.100000,291.900000 134.400000,287.300000 138.100000,290.200000 141.200000,288.400000 140.500000,283.700000 144.200000,286.700000 147.300000,284.900000 146.600000,280.200000 150.300000,283.100000 153.500000,281.300000 152.800000,276.700000 156.400000,279.600000 159.600000,277.800000 158.900000,273.100000 162.500000,276.100000 165.700000,274.300000 165,269.600000 168.700000,272.500000 171.800000,270.700000 171.100000,266.100000 174.800000,269 177.900000,267.200000 177.200000,262.500000 180.900000,265.500000 184.100000,263.700000 183.400000,259 187,261.900000 190.200000,260.100000 189.500000,255.500000 193.100000,258.400000 196.300000,256.600000 195.600000,251.900000 199.300000,254.900000 202.400000,253.100000 201.700000,248.400000 205.400000,251.300000 208.500000,249.500000 207.800000,244.900000 211.500000,247.800000 214.700000,246 214,241.300000 217.600000,244.300000 220.800000,242.400000 220.100000,237.800000 223.800000,240.700000 226.900000,238.900000 226.200000,234.300000 229.900000,237.200000 233,235.400000 232.300000,230.700000 236,233.700000 239.100000,231.800000 238.400000,227.200000 242.100000,230.100000 245.300000,228.300000 244.600000,223.700000 248.200000,226.600000 251.400000,224.800000 250.700000,220.100000 254.400000,223.100000 257.500000,221.200000 256.800000,216.600000 260.500000,219.500000 263.600000,217.700000 262.900000,213.100000 266.600000,216 277.700000,209.600000 265.500000,203.200000" clip-rule="evenodd" fill="rgb(51,51,51)" fill-rule="evenodd" stroke="none" stroke-width="1"/></g><g id="eJrA5Hsp9ez6"><path id="eJrA5Hsp9ez7" d="M271.200000,66.400000L178.700000,143.900000C170.200000,151.100000,173.800000,157.400000,186.600000,164C251.200000,197,297.100000,204.600000,325,183.300000C336.900000,174.200000,351.400000,167.600000,366.600000,159.300000C380.200000,151.800000,377,138.600000,360,124.700000C341,109.200000,319.300000,96.300000,294.200000,88.200000C286.400000,85.700000,284,81.500000,285,72.800000C285.700000,65.800000,278.400000,60.400000,271.200000,66.400000L271.200000,66.400000ZM323.900000,139.300000L270.400000,104.800000C263.400000,100.300000,253.900000,102.300000,249.400000,109.300000L249.400000,109.300000C244.900000,116.300000,246.900000,125.800000,253.900000,130.300000L307.400000,164.800000C314.400000,169.300000,323.900000,167.300000,328.400000,160.300000L328.400000,160.300000C333,153.300000,330.900000,143.800000,323.900000,139.300000L323.900000,139.300000Z" clip-rule="evenodd" fill="rgb(255,204,0)" fill-rule="evenodd" stroke="none" stroke-width="1"/><g id="eJrA5Hsp9ez8"><path id="eJrA5Hsp9ez9" d="M206.400000,144.400000C203.600000,144.400000,201.300000,146.700000,201.300000,149.500000C201.300000,152.300000,203.600000,154.600000,206.400000,154.600000C209.200000,154.600000,211.500000,152.300000,211.500000,149.500000C211.400000,146.600000,209.200000,144.400000,206.400000,144.400000Z" clip-rule="evenodd" fill="rgb(255,153,51)" fill-rule="evenodd" stroke="none" stroke-width="1"/><path id="eJrA5Hsp9ez10" d="M230.500000,155.800000C227.700000,155.800000,225.400000,158.100000,225.400000,160.900000C225.400000,163.700000,227.700000,166,230.500000,166C233.300000,166,235.600000,163.700000,235.600000,160.900000C235.600000,158.100000,233.300000,155.800000,230.500000,155.800000Z" clip-rule="evenodd" fill="rgb(255,153,51)" fill-rule="evenodd" stroke="none" stroke-width="1"/><path id="eJrA5Hsp9ez11" d="M254.700000,166.100000C251.900000,166.100000,249.600000,168.400000,249.600000,171.200000C249.600000,174,251.900000,176.300000,254.700000,176.300000C257.500000,176.300000,259.800000,174,259.800000,171.200000C259.700000,168.300000,257.500000,166.100000,254.700000,166.100000Z" clip-rule="evenodd" fill="rgb(255,153,51)" fill-rule="evenodd" stroke="none" stroke-width="1"/></g></g></g></svg>