<svg id="eqQ5z4HCGDF1" xmlns="http://www.w3.org/2000/svg" xmlns:xlink="http://www.w3.org/1999/xlink" viewBox="0 0 400 400" shape-rendering="geometricPrecision" text-rendering="geometricPrecision"><g id="eqQ5z4HCGDF2"><g id="eqQ5z4HCGDF3"><path id="eqQ5z4HCGDF4" d="M211.600000,228.900000L188.400000,228.900000C177.600000,228.900000,173.100000,219.800000,175.200000,208C177.200000,196.800000,176.400000,180,172.500000,169.900000C168.600000,159.700000,165.200000,149.300000,165.200000,137.700000L165.200000,47.500000C165.200000,35.100000,173.600000,25,184,25L216.100000,25C226.400000,25,234.900000,35.100000,234.900000,47.500000L234.900000,137.800000C234.900000,149.400000,231.500000,159.800000,227.600000,170C223.700000,180.100000,222.900000,196.900000,224.900000,208.100000C226.900000,219.800000,222.400000,228.900000,211.600000,228.900000Z" clip-rule="evenodd" fill="rgb(153,204,204)" fill-rule="evenodd" stroke="none" stroke-width="1"/><g id="eqQ5z4HCGDF5"><path id="eqQ5z4HCGDF6" d="M211.600000,228.900000L188.400000,228.900000C187.900000,228.900000,187.400000,228.900000,186.900000,228.800000C188,213.400000,193.400000,201.600000,200,201.600000C206.600000,201.600000,212.100000,213.400000,213.100000,228.800000C212.600000,228.900000,212.100000,228.900000,211.600000,228.900000Z" clip-rule="evenodd" fill="rgb(153,204,204)" fill-rule="evenodd" stroke="none" stroke-width="1"/><path id="eqQ5z4HCGDF7" d="M224.600000,206.800000C224.700000,207.200000,224.700000,207.600000,224.800000,208.100000C226.400000,216.700000,224.300000,224,218.800000,227.200000C219.600000,218.600000,221.700000,211.400000,224.600000,206.800000L224.600000,206.800000Z" clip-rule="evenodd" fill="rgb(153,204,204)" fill-rule="evenodd" stroke="none" stroke-width="1"/><path id="eqQ5z4HCGDF8" d="M181.200000,227.200000C175.700000,224,173.600000,216.800000,175.200000,208.100000C175.300000,207.700000,175.300000,207.300000,175.400000,206.800000C178.300000,211.400000,180.400000,218.600000,181.200000,227.200000L181.200000,227.200000Z" clip-rule="evenodd" fill="rgb(153,204,204)" fill-rule="evenodd" stroke="none" stroke-width="1"/></g><path id="eqQ5z4HCGDF9" d="M230.100000,32.500000C233.100000,36.500000,234.900000,41.700000,234.900000,47.400000L234.900000,137.700000C234.900000,145.100000,233.500000,151.900000,231.500000,158.600000C224.300000,158.400000,218.500000,151.300000,218.500000,142.600000L218.500000,48.400000C218.500000,40.300000,223.500000,33.600000,230.100000,32.500000Z" clip-rule="evenodd" fill="rgb(102,153,153)" fill-rule="evenodd" stroke="none" stroke-width="1"/><path id="eqQ5z4HCGDF10" d="M168.500000,158.600000C166.500000,152,165.100000,145.100000,165.100000,137.700000L165.100000,47.500000C165.100000,41.800000,166.900000,36.500000,169.900000,32.600000C176.400000,33.600000,181.500000,40.400000,181.500000,48.400000L181.500000,142.700000C181.500000,151.300000,175.700000,158.400000,168.500000,158.600000L168.500000,158.600000Z" clip-rule="evenodd" fill="rgb(102,153,153)" fill-rule="evenodd" stroke="none" stroke-width="1"/><path id="eqQ5z4HCGDF11" d="M200,158.600000L200,158.600000C192.700000,158.600000,186.700000,151.400000,186.700000,142.600000L186.700000,48.400000C186.700000,39.600000,192.700000,32.400000,200,32.400000L200,32.400000C207.300000,32.400000,213.300000,39.600000,213.300000,48.400000L213.300000,142.700000C213.300000,151.400000,207.300000,158.600000,200,158.600000Z" clip-rule="evenodd" fill="rgb(102,153,153)" fill-rule="evenodd" stroke="none" stroke-width="1"/><g id="eqQ5z4HCGDF12"><path id="eqQ5z4HCGDF13" d="M211.600000,228.900000L188.400000,228.900000C187.900000,228.900000,187.400000,228.900000,186.900000,228.800000C188,213.400000,193.400000,201.600000,200,201.600000C206.600000,201.600000,212.100000,213.400000,213.100000,228.800000C212.600000,228.900000,212.100000,228.900000,211.600000,228.900000Z" clip-rule="evenodd" fill="rgb(102,153,153)" fill-rule="evenodd" stroke="none" stroke-width="1"/><path id="eqQ5z4HCGDF14" d="M224.600000,206.800000C224.700000,207.200000,224.700000,207.600000,224.800000,208.100000C226.400000,216.700000,224.300000,224,218.800000,227.200000C219.600000,218.600000,221.700000,211.400000,224.600000,206.800000L224.600000,206.800000Z" clip-rule="evenodd" fill="rgb(102,153,153)" fill-rule="evenodd" stroke="none" stroke-width="1"/><path id="eqQ5z4HCGDF15" d="M181.200000,227.200000C175.700000,224,173.600000,216.800000,175.200000,208.100000C175.300000,207.700000,175.300000,207.300000,175.400000,206.800000C178.300000,211.400000,180.400000,218.600000,181.200000,227.200000L181.200000,227.200000Z" clip-rule="evenodd" fill="rgb(102,153,153)" fill-rule="evenodd" stroke="none" stroke-width="1"/></g></g><g id="eqQ5z4HCGDF16"><polygon id="eqQ5z4HCGDF17" points="209,228.900000 189.900000,228.900000 189.900000,367.300000 199.500000,375 209,367.300000" clip-rule="evenodd" fill="rgb(204,204,204)" fill-rule="evenodd" stroke="none" stroke-width="1"/><polygon id="eqQ5z4HCGDF18" points="209,228.900000 203.900000,228.900000 203.900000,359.500000 209,367.300000" clip-rule="evenodd" fill="rgb(179,179,179)" fill-rule="evenodd" stroke="none" stroke-width="1"/><polygon id="eqQ5z4HCGDF19" points="198.800000,358.300000 193.800000,367.300000 198.800000,371.100000" clip-rule="evenodd" fill="rgb(179,179,179)" fill-rule="evenodd" stroke="none" stroke-width="1"/></g></g></svg>