<svg id="ewravFMqDng1" xmlns="http://www.w3.org/2000/svg" xmlns:xlink="http://www.w3.org/1999/xlink" viewBox="0 0 400 400" shape-rendering="geometricPrecision" text-rendering="geometricPrecision"><g id="ewravFMqDng2"><path id="ewravFMqDng3" d="M251.400000,155.300000L251.400000,91.500000C251.400000,83.100000,258.300000,76.200000,266.700000,76.200000C275.100000,76.200000,282,83.100000,282,91.500000L282,375L118,375L118,66.600000C118,58.200000,124.900000,51.300000,133.300000,51.300000C141.700000,51.300000,148.600000,58.200000,148.600000,66.600000L148.600000,155.300000C148.600000,159.100000,151.700000,162.300000,155.600000,162.300000C159.500000,162.300000,162.600000,159.200000,162.600000,155.300000L162.600000,40.300000C162.600000,31.900000,169.500000,25,177.900000,25C186.300000,25,193.200000,31.900000,193.200000,40.300000L193.200000,155.200000C193.100000,159.100000,196.300000,162.200000,200.200000,162.200000C204,162.200000,207.200000,159.100000,207.200000,155.200000L207.200000,54.300000C207.200000,45.900000,214.100000,39,222.500000,39C230.900000,39,237.800000,45.900000,237.800000,54.300000L237.800000,155.200000C237.800000,159,240.900000,162.200000,244.800000,162.200000C248.300000,162.200000,251.400000,159.100000,251.400000,155.300000L251.400000,155.300000Z" clip-rule="evenodd" fill="rgb(26,26,26)" fill-rule="evenodd" stroke="none" stroke-width="1"/><path id="ewravFMqDng4" d="M282,304.100000L243.500000,304.100000L243.500000,375L282,375L282,304.100000L282,304.100000ZM207,304.100000L230.300000,304.100000L230.300000,375L118,375L118,256.900000L197.300000,177.600000C221.400000,153.500000,251.100000,183.900000,227,207.900000L183.600000,251.300000C203.600000,258.700000,211.400000,286.700000,207,304.100000L207,304.100000Z" clip-rule="evenodd" fill="rgb(255,153,51)" fill-rule="evenodd" stroke="none" stroke-width="1"/></g></svg>