<svg id="er9RDdW258p1" xmlns="http://www.w3.org/2000/svg" xmlns:xlink="http://www.w3.org/1999/xlink" viewBox="0 0 400 400" shape-rendering="geometricPrecision" text-rendering="geometricPrecision"><g id="er9RDdW258p2"><g id="er9RDdW258p3"><path id="er9RDdW258p4" d="M360.600000,173.900000L240.500000,173.900000C232.600000,173.900000,226.100000,180.400000,226.100000,188.300000L226.100000,284.200000L360.600000,284.200000C368.500000,284.200000,375,277.700000,375,269.800000L375,188.300000C375,180.400000,368.500000,173.900000,360.600000,173.900000L360.600000,173.900000Z" clip-rule="evenodd" fill="rgb(113,177,221)" fill-rule="evenodd" stroke="none" stroke-width="1"/><path id="er9RDdW258p5" d="M331.100000,173.900000L360.100000,173.900000C368.300000,173.900000,374.900000,180.600000,374.900000,188.700000L374.900000,269.800000C374.900000,277.700000,368.400000,284.200000,360.500000,284.200000L331,284.200000C330.800000,284.200000,330.600000,284,330.600000,283.800000L330.600000,174.300000C330.700000,174.100000,330.900000,173.900000,331.100000,173.900000L331.100000,173.900000Z" clip-rule="evenodd" fill="rgb(153,203,238)" fill-rule="evenodd" stroke="none" stroke-width="1"/><path id="er9RDdW258p6" d="M57.800000,208.600000C57.700000,207.700000,70.200000,205.600000,68.500000,193.700000L58.600000,126.900000C57.700000,120.500000,52.200000,115.800000,45.700000,115.800000C100.600000,115.800000,155.600000,115.800000,210.500000,115.800000C217,115.800000,222.400000,120.500000,223.400000,126.900000L235.700000,208.600000C177.300000,208.600000,116.100000,208.600000,57.800000,208.600000L57.800000,208.600000Z" clip-rule="evenodd" fill="rgb(153,203,238)" fill-rule="evenodd" stroke="none" stroke-width="1"/><path id="er9RDdW258p7" d="M55.600000,208.600000L50.200000,208.600000C43.700000,208.600000,38.300000,203.900000,37.300000,197.500000L27.400000,130.700000C26.800000,126.800000,27.900000,123.300000,30.400000,120.300000C33,117.300000,36.300000,115.800000,40.200000,115.800000L45.600000,115.800000C52.100000,115.800000,57.500000,120.500000,58.500000,126.900000L68.400000,193.700000C69,197.600000,67.900000,201.100000,65.400000,204.100000C62.800000,207.100000,59.500000,208.600000,55.600000,208.600000L55.600000,208.600000Z" clip-rule="evenodd" fill="rgb(113,177,221)" fill-rule="evenodd" stroke="none" stroke-width="1"/><path id="er9RDdW258p8" d="M192.600000,173.900000L39.400000,173.900000C31.500000,173.900000,25,180.400000,25,188.300000L25,269.800000C25,277.700000,31.500000,284.200000,39.400000,284.200000L192.600000,284.200000L192.600000,173.900000Z" clip-rule="evenodd" fill="rgb(113,177,221)" fill-rule="evenodd" stroke="none" stroke-width="1"/><path id="er9RDdW258p9" d="M192.600000,173.900000L162.700000,173.900000C154.800000,173.900000,148.300000,180.400000,148.300000,188.300000L148.300000,284.200000L192.600000,284.200000L192.600000,173.900000Z" clip-rule="evenodd" fill="rgb(153,203,238)" fill-rule="evenodd" stroke="none" stroke-width="1"/><path id="er9RDdW258p10" d="M310.600000,246.400000L192.600000,246.400000L192.600000,208.600000L296,208.600000C304,208.600000,310.600000,215.200000,310.600000,223.200000L310.600000,246.400000Z" clip-rule="evenodd" fill="rgb(204,233,251)" fill-rule="evenodd" stroke="none" stroke-width="1"/><polygon id="er9RDdW258p11" points="310.600000,246.400000 192.600000,246.400000 192.600000,284.200000 246.600000,284.200000" clip-rule="evenodd" fill="rgb(86,153,198)" fill-rule="evenodd" stroke="none" stroke-width="1"/><path id="er9RDdW258p12" d="M192.600000,215.100000L192.600000,208.600000L296,208.600000C301,208.600000,305.500000,211.200000,308.100000,215.100000L192.600000,215.100000L192.600000,215.100000Z" clip-rule="evenodd" fill="rgb(226,242,252)" fill-rule="evenodd" stroke="none" stroke-width="1"/></g><g id="er9RDdW258p13"><path id="er9RDdW258p14" d="M226.100000,269.800000L226.100000,284.200000L360.600000,284.200000L360.600000,284.200000C360.700000,284.200000,360.800000,284.200000,361,284.200000L361,284.200000C361.100000,284.200000,361.200000,284.200000,361.400000,284.200000L361.400000,284.200000C361.500000,284.200000,361.600000,284.200000,361.800000,284.200000L361.800000,284.200000C361.900000,284.200000,362,284.200000,362.200000,284.200000C362.300000,284.200000,362.400000,284.200000,362.600000,284.200000L362.600000,284.200000C362.700000,284.200000,362.800000,284.200000,363,284.100000C363.100000,284.100000,363.200000,284.100000,363.400000,284C363.500000,284,363.600000,284,363.800000,283.900000L363.800000,283.900000C363.900000,283.900000,364,283.900000,364.100000,283.800000L364.100000,283.800000C364.200000,283.800000,364.300000,283.700000,364.400000,283.700000C364.500000,283.700000,364.600000,283.600000,364.700000,283.600000L364.700000,283.600000C364.800000,283.600000,364.900000,283.500000,365,283.500000L365,283.500000C365.100000,283.500000,365.200000,283.400000,365.300000,283.400000C365.400000,283.400000,365.500000,283.300000,365.600000,283.300000L365.600000,283.300000C365.700000,283.300000,365.800000,283.200000,365.900000,283.200000L365.900000,283.200000C366,283.200000,366.100000,283.100000,366.200000,283.100000C366.300000,283.100000,366.400000,283,366.500000,283C366.600000,283,366.700000,282.900000,366.800000,282.900000C366.900000,282.800000,367,282.800000,367.100000,282.700000L367.100000,282.700000C367.200000,282.600000,367.300000,282.600000,367.400000,282.500000C367.500000,282.400000,367.600000,282.400000,367.700000,282.300000C367.800000,282.200000,367.900000,282.200000,368,282.100000L368,282.100000C368.100000,282,368.200000,282,368.300000,281.900000L368.300000,281.900000C368.400000,281.800000,368.500000,281.800000,368.600000,281.700000C368.800000,281.600000,369,281.400000,369.200000,281.300000L369.200000,281.300000C369.300000,281.200000,369.400000,281.200000,369.500000,281.100000L369.500000,281.100000C369.800000,280.900000,370,280.700000,370.300000,280.400000C370.500000,280.200000,370.600000,280.100000,370.800000,279.900000L370.800000,279.900000C370.900000,279.800000,371,279.700000,371,279.700000C371.100000,279.600000,371.200000,279.500000,371.200000,279.400000L371.200000,279.400000C371.300000,279.300000,371.400000,279.200000,371.400000,279.100000C371.500000,279,371.500000,278.900000,371.600000,278.800000C371.800000,278.500000,372,278.300000,372.200000,278L372.200000,278C372.300000,277.900000,372.300000,277.800000,372.400000,277.700000L372.400000,277.700000C372.700000,277.300000,372.900000,276.900000,373.100000,276.500000L373.100000,276.500000C373.200000,276.300000,373.300000,276.100000,373.400000,275.900000L373.400000,275.900000C373.500000,275.700000,373.600000,275.500000,373.700000,275.300000L373.700000,275.300000C373.700000,275.200000,373.800000,275.100000,373.800000,275L373.800000,275C373.800000,274.900000,373.900000,274.800000,373.900000,274.700000L373.900000,274.700000C373.900000,274.600000,374,274.500000,374,274.400000L374,274.400000C374,274.300000,374.100000,274.200000,374.100000,274.100000L374.100000,274.100000C374.100000,274,374.200000,273.900000,374.200000,273.800000L374.200000,273.800000C374.300000,273.600000,374.300000,273.300000,374.400000,273.100000L374.400000,273.100000C374.400000,273,374.500000,272.900000,374.500000,272.800000L374.500000,272.800000C374.500000,272.700000,374.500000,272.600000,374.600000,272.400000L374.600000,272.400000C374.600000,272.300000,374.600000,272.200000,374.700000,272L374.700000,272C374.700000,271.900000,374.700000,271.800000,374.700000,271.600000L374.700000,271.600000C374.700000,271.500000,374.700000,271.400000,374.700000,271.200000L374.700000,271.200000C374.700000,271.100000,374.700000,271,374.700000,270.800000L374.700000,270.800000C374.700000,270.700000,374.700000,270.600000,374.700000,270.400000L374.700000,270.400000C374.700000,270.300000,374.700000,270.200000,374.700000,270L374.700000,270C374.700000,269.900000,374.700000,269.800000,374.700000,269.600000L374.700000,269.600000L226.100000,269.800000L226.100000,269.800000ZM373.300000,276.600000C373.400000,276.400000,373.500000,276.200000,373.600000,276L373.300000,276.600000ZM373.300000,276.600000C373.400000,276.400000,373.500000,276.200000,373.600000,276L373.300000,276.600000ZM373.800000,275C373.900000,274.800000,373.900000,274.500000,374,274.300000L373.800000,275Z" clip-rule="evenodd" fill="rgb(94,22,23)" fill-rule="evenodd" stroke="none" stroke-width="1"/><path id="er9RDdW258p15" d="M375,269.800000C375,269.900000,375,270,375,270.200000L375,270.200000C375,270.300000,375,270.400000,375,270.600000L375,270.600000C375,270.700000,375,270.800000,375,271L375,271C375,271.100000,375,271.200000,375,271.400000L375,271.400000C375,271.500000,375,271.600000,375,271.800000L375,271.800000C375,271.900000,375,272,375,272.200000L375,272.200000C375,272.300000,375,272.400000,374.900000,272.600000L374.900000,272.600000C374.900000,272.700000,374.900000,272.800000,374.800000,273L374.800000,273C374.800000,273.100000,374.800000,273.200000,374.700000,273.300000L374.700000,273.300000C374.600000,273.500000,374.600000,273.800000,374.500000,274L374.500000,274C374.500000,274.100000,374.400000,274.200000,374.400000,274.300000L374.400000,274.300000C374.400000,274.400000,374.300000,274.500000,374.300000,274.600000L374.300000,274.600000C374.300000,274.700000,374.200000,274.800000,374.200000,274.900000L374.200000,274.900000C374.200000,275,374.100000,275.100000,374.100000,275.200000L374.100000,275.200000C374.100000,275.300000,374,275.400000,374,275.500000L374,275.500000C373.900000,275.700000,373.800000,275.900000,373.700000,276.100000L373.700000,276.100000C373.600000,276.300000,373.500000,276.500000,373.400000,276.700000L373.400000,276.700000C373.200000,277.100000,372.900000,277.500000,372.700000,277.900000L372.700000,277.900000C372.600000,278,372.600000,278.100000,372.500000,278.200000L372.500000,278.200000C372.300000,278.500000,372.100000,278.800000,371.900000,279L371.900000,279C371.800000,279.100000,371.800000,279.200000,371.700000,279.300000L371.700000,279.300000C371.500000,279.500000,371.400000,279.600000,371.200000,279.800000L371.200000,279.800000C371,280.100000,370.700000,280.300000,370.500000,280.500000L370.500000,280.500000C370,281,369.400000,281.400000,368.900000,281.800000L368.900000,281.800000C368.600000,282,368.300000,282.200000,368,282.400000L368,282.400000C367.900000,282.500000,367.800000,282.500000,367.700000,282.600000L367.700000,282.600000C367.600000,282.700000,367.500000,282.700000,367.400000,282.800000L367.400000,282.800000C367.300000,282.900000,367.200000,282.900000,367.100000,283L367.100000,283C367,283,366.900000,283.100000,366.800000,283.100000L366.800000,283.100000C366.700000,283.100000,366.600000,283.200000,366.500000,283.200000L366.500000,283.200000C366.400000,283.200000,366.300000,283.300000,366.200000,283.300000L366.200000,283.300000C366.100000,283.300000,366,283.400000,365.900000,283.400000L365.900000,283.400000C365.800000,283.400000,365.700000,283.500000,365.600000,283.500000L365.600000,283.500000C365.500000,283.500000,365.400000,283.600000,365.300000,283.600000L365.300000,283.600000C365.200000,283.600000,365.100000,283.700000,365,283.700000L365,283.700000C364.900000,283.700000,364.800000,283.800000,364.700000,283.800000L364.700000,283.800000C364.600000,283.800000,364.500000,283.900000,364.400000,283.900000L364.400000,283.900000C364.300000,283.900000,364.200000,284,364.100000,284L364.100000,284C364,284,363.900000,284,363.700000,284.100000L363.700000,284.100000C363.600000,284.100000,363.500000,284.100000,363.300000,284.200000L363.300000,284.200000C363.200000,284.200000,363.100000,284.200000,362.900000,284.300000L362.900000,284.300000C362.800000,284.300000,362.700000,284.300000,362.500000,284.300000L362.500000,284.300000C362.400000,284.300000,362.300000,284.300000,362.100000,284.300000L362.100000,284.300000C362,284.300000,361.900000,284.300000,361.700000,284.300000L361.700000,284.300000C361.600000,284.300000,361.500000,284.300000,361.300000,284.300000L361.300000,284.300000C361.200000,284.300000,361.100000,284.300000,360.900000,284.300000L360.900000,284.300000L331.400000,284.300000C331.200000,284.300000,331,284.100000,331,283.900000L331,269.900000L375,269.800000L375,269.800000Z" clip-rule="evenodd" fill="rgb(128,45,45)" fill-rule="evenodd" stroke="none" stroke-width="1"/><path id="er9RDdW258p16" d="M25,269.800000C25,269.900000,25,270,25,270.200000C25,270.300000,25,270.400000,25,270.600000C25,270.700000,25,270.800000,25,271C25,271.100000,25,271.200000,25,271.400000C25,271.500000,25,271.600000,25,271.800000C25,271.900000,25,272,25.100000,272.200000C25.100000,272.300000,25.100000,272.400000,25.200000,272.600000C25.200000,272.700000,25.200000,272.800000,25.300000,273C25.300000,273.100000,25.400000,273.200000,25.400000,273.300000C25.400000,273.400000,25.500000,273.500000,25.500000,273.600000L25.500000,273.600000C25.500000,273.700000,25.600000,273.800000,25.600000,273.900000C25.600000,274,25.700000,274.100000,25.700000,274.200000C25.700000,274.300000,25.800000,274.400000,25.800000,274.500000C25.800000,274.600000,25.900000,274.700000,25.900000,274.800000C25.900000,274.900000,26,275,26,275.100000C26,275.200000,26.100000,275.300000,26.100000,275.400000C26.100000,275.500000,26.200000,275.600000,26.200000,275.700000L26.200000,275.700000C26.200000,275.800000,26.300000,275.900000,26.300000,276C26.400000,276.100000,26.400000,276.200000,26.500000,276.300000L26.500000,276.300000C26.600000,276.400000,26.600000,276.500000,26.700000,276.600000L26.700000,276.600000C26.800000,276.700000,26.800000,276.800000,26.900000,276.900000L26.900000,276.900000C27,277,27,277.100000,27.100000,277.200000L27.100000,277.200000C27.200000,277.300000,27.200000,277.400000,27.300000,277.500000L27.300000,277.500000C27.400000,277.600000,27.400000,277.700000,27.500000,277.800000C27.600000,277.900000,27.600000,278,27.700000,278.100000C27.800000,278.200000,27.800000,278.300000,27.900000,278.400000L27.900000,278.400000C28,278.500000,28,278.600000,28.100000,278.700000L28.100000,278.700000C28.200000,278.800000,28.200000,278.900000,28.300000,279C28.400000,279.100000,28.400000,279.200000,28.500000,279.300000C28.600000,279.400000,28.700000,279.500000,28.700000,279.600000L28.700000,279.600000C28.800000,279.700000,28.900000,279.800000,28.900000,279.900000C29,280,29.100000,280.100000,29.100000,280.100000L29.100000,280.100000C29.200000,280.200000,29.300000,280.300000,29.300000,280.300000L29.300000,280.300000C29.400000,280.400000,29.500000,280.500000,29.600000,280.500000C29.700000,280.600000,29.800000,280.700000,29.900000,280.700000L29.900000,280.700000C30,280.800000,30.100000,280.900000,30.200000,280.900000L30.200000,280.900000C30.300000,281,30.400000,281,30.500000,281.100000L30.500000,281.100000C30.600000,281.200000,30.700000,281.200000,30.800000,281.300000L30.800000,281.300000C30.900000,281.400000,31,281.400000,31.100000,281.500000L31.100000,281.500000C31.200000,281.600000,31.300000,281.600000,31.400000,281.700000C31.500000,281.800000,31.600000,281.800000,31.700000,281.900000L31.700000,281.900000C31.800000,282,31.900000,282,32,282.100000C32.100000,282.200000,32.200000,282.200000,32.300000,282.300000C32.400000,282.400000,32.500000,282.400000,32.600000,282.500000C32.700000,282.600000,32.800000,282.600000,32.900000,282.700000L32.900000,282.700000C33,282.800000,33.100000,282.800000,33.200000,282.900000C33.300000,282.900000,33.400000,283,33.500000,283C33.600000,283,33.700000,283.100000,33.800000,283.100000C33.900000,283.100000,34,283.200000,34.100000,283.200000C34.200000,283.200000,34.300000,283.300000,34.400000,283.300000C34.500000,283.300000,34.600000,283.400000,34.700000,283.400000C34.800000,283.400000,34.900000,283.500000,35,283.500000C35.100000,283.500000,35.200000,283.600000,35.300000,283.600000C35.400000,283.600000,35.500000,283.700000,35.600000,283.700000L35.600000,283.700000C35.700000,283.700000,35.800000,283.800000,35.900000,283.800000C36,283.800000,36.100000,283.900000,36.300000,283.900000C36.500000,283.900000,36.500000,283.900000,36.700000,284L36.700000,284C36.800000,284,36.900000,284,37.100000,284.100000L37.100000,284.100000C37.200000,284.100000,37.300000,284.100000,37.500000,284.200000C37.600000,284.200000,37.700000,284.200000,37.900000,284.200000L37.900000,284.200000C38,284.200000,38.100000,284.200000,38.300000,284.200000C38.400000,284.200000,38.500000,284.200000,38.700000,284.200000L38.700000,284.200000C38.800000,284.200000,38.900000,284.200000,39.100000,284.200000L39.100000,284.200000C39.200000,284.200000,39.300000,284.200000,39.500000,284.200000L39.500000,284.200000L192.700000,284.200000L192.700000,269.800000L25,269.800000L25,269.800000Z" clip-rule="evenodd" fill="rgb(94,22,23)" fill-rule="evenodd" stroke="none" stroke-width="1"/><polygon id="er9RDdW258p17" points="148.300000,269.800000 148.300000,284.200000 192.600000,284.200000 192.600000,269.800000" clip-rule="evenodd" fill="rgb(128,45,45)" fill-rule="evenodd" stroke="none" stroke-width="1"/><polygon id="er9RDdW258p18" points="192.600000,269.800000 192.600000,284.200000 246.600000,284.200000 271,269.800000" clip-rule="evenodd" fill="rgb(71,18,19)" fill-rule="evenodd" stroke="none" stroke-width="1"/></g></g></svg>