<svg id="s1" xmlns="http://www.w3.org/2000/svg" xmlns:xlink="http://www.w3.org/1999/xlink" viewBox="0 0 100 100"><path id="s3" d="M22.450000,39.730000C22.450000,32.010000,27.450000,27.590000,34.030000,27.590000C40.610000,27.590000,45.610000,32,45.610000,39.730000C45.610000,47.460000,40.630000,51.870000,34,51.870000C27.370000,51.870000,22.450000,47.510000,22.450000,39.730000ZM59.620000,28.210000L70.140000,28.210000L40.380000,71.790000L29.860000,71.790000ZM36.770000,39.730000C36.770000,35.560000,35.400000,34.310000,34.030000,34.310000C32.660000,34.310000,31.290000,35.550000,31.290000,39.730000C31.290000,43.910000,32.660000,45.150000,34.030000,45.150000C35.400000,45.150000,36.770000,43.900000,36.770000,39.730000ZM54.390000,60.270000C54.390000,52.550000,59.390000,48.130000,65.970000,48.130000C72.550000,48.130000,77.550000,52.550000,77.550000,60.270000C77.550000,67.990000,72.570000,72.420000,66,72.420000C59.430000,72.420000,54.390000,68.060000,54.390000,60.270000ZM68.710000,60.270000C68.710000,56.100000,67.340000,54.850000,65.970000,54.850000C64.600000,54.850000,63.230000,56.100000,63.230000,60.270000C63.230000,64.440000,64.600000,65.690000,66,65.690000C67.400000,65.690000,68.710000,64.450000,68.710000,60.270000ZM22.450000,39.730000C22.450000,32.010000,27.450000,27.590000,34.030000,27.590000C40.610000,27.590000,45.610000,32,45.610000,39.730000C45.610000,47.460000,40.630000,51.870000,34,51.870000C27.370000,51.870000,22.450000,47.510000,22.450000,39.730000ZM59.620000,28.210000L70.140000,28.210000L40.380000,71.790000L29.860000,71.790000ZM36.770000,39.730000C36.770000,35.560000,35.400000,34.310000,34.030000,34.310000C32.660000,34.310000,31.290000,35.550000,31.290000,39.730000C31.290000,43.910000,32.660000,45.150000,34.030000,45.150000C35.400000,45.150000,36.770000,43.900000,36.770000,39.730000ZM54.390000,60.270000C54.390000,52.550000,59.390000,48.130000,65.970000,48.130000C72.550000,48.130000,77.550000,52.550000,77.550000,60.270000C77.550000,67.990000,72.570000,72.420000,66,72.420000C59.430000,72.420000,54.390000,68.060000,54.390000,60.270000ZM68.710000,60.270000C68.710000,56.100000,67.340000,54.850000,65.970000,54.850000C64.600000,54.850000,63.230000,56.100000,63.230000,60.270000C63.230000,64.440000,64.600000,65.690000,66,65.690000C67.400000,65.690000,68.710000,64.450000,68.710000,60.270000Z" fill="rgb(84,131,204)" stroke="none" stroke-width="1"/></svg>