<svg id="erlzGSCOjty1" xmlns="http://www.w3.org/2000/svg" xmlns:xlink="http://www.w3.org/1999/xlink" viewBox="0 0 400 400" shape-rendering="geometricPrecision" text-rendering="geometricPrecision"><g id="erlzGSCOjty2"><path id="erlzGSCOjty3" d="M148.600000,155.300000L148.600000,91.500000C148.600000,83.100000,141.700000,76.200000,133.300000,76.200000C124.900000,76.200000,118,83.100000,118,91.500000L118,375L282,375L282,66.600000C282,58.200000,275.100000,51.300000,266.700000,51.300000C258.300000,51.300000,251.400000,58.200000,251.400000,66.600000L251.400000,155.300000C251.400000,159.100000,248.300000,162.300000,244.400000,162.300000C240.600000,162.300000,237.400000,159.200000,237.400000,155.300000L237.400000,155.300000L237.400000,40.300000C237.400000,31.900000,230.500000,25,222.100000,25C213.700000,25,207,31.900000,207,40.300000L207,155.300000C207,159.100000,203.900000,162.300000,200,162.300000C196.200000,162.300000,193,159.200000,193,155.300000L193,54.300000C193,45.900000,186.100000,39,177.700000,39C169.300000,39,162.400000,45.900000,162.400000,54.300000L162.400000,155.200000C162.400000,159,159.300000,162.200000,155.400000,162.200000C151.700000,162.200000,148.600000,159.100000,148.600000,155.300000L148.600000,155.300000Z" clip-rule="evenodd" fill="rgb(26,26,26)" fill-rule="evenodd" stroke="none" stroke-width="1"/><polygon id="erlzGSCOjty4" points="282,304.100000 169.800000,304.100000 169.800000,375 282,375" clip-rule="evenodd" fill="rgb(255,153,51)" fill-rule="evenodd" stroke="none" stroke-width="1"/><polygon id="erlzGSCOjty5" points="118,304.100000 156.500000,304.100000 156.500000,375 118,375" clip-rule="evenodd" fill="rgb(255,153,51)" fill-rule="evenodd" stroke="none" stroke-width="1"/></g></svg>