<svg id="s1" xmlns="http://www.w3.org/2000/svg" xmlns:xlink="http://www.w3.org/1999/xlink" viewBox="0 0 100 100"><path id="s3" d="M77.550000,54.690000C66.450000,60.300000,60.300000,66.450000,54.690000,77.550000C53.796486,79.316862,51.984942,80.430765,50.005000,80.430765C48.025058,80.430765,46.213514,79.316862,45.320000,77.550000C39.700000,66.450000,33.550000,60.300000,22.450000,54.690000C20.683138,53.796486,19.569235,51.984942,19.569235,50.005000C19.569235,48.025058,20.683138,46.213514,22.450000,45.320000C33.550000,39.700000,39.700000,33.550000,45.310000,22.450000C46.203514,20.683138,48.015058,19.569235,49.995000,19.569235C51.974942,19.569235,53.786486,20.683138,54.680000,22.450000C60.300000,33.550000,66.450000,39.700000,77.550000,45.310000C79.322319,46.201572,80.440678,48.016060,80.440678,50C80.440678,51.983940,79.322319,53.798428,77.550000,54.690000Z" fill="rgb(84,131,204)" stroke="none" stroke-width="1"/></svg>