<svg id="eMzJIhB6vOS1" xmlns="http://www.w3.org/2000/svg" xmlns:xlink="http://www.w3.org/1999/xlink" viewBox="0 0 400 400" shape-rendering="geometricPrecision" text-rendering="geometricPrecision"><defs><linearGradient id="eMzJIhB6vOS5-fill" x1="199.993221" y1="312.288750" x2="199.993221" y2="216.313725" spreadMethod="pad" gradientUnits="userSpaceOnUse"><stop id="eMzJIhB6vOS5-fill-0" offset="0%" stop-color="rgb(153,204,204)"/><stop id="eMzJIhB6vOS5-fill-1" offset="100%" stop-color="rgb(102,153,153)"/></linearGradient></defs><g id="eMzJIhB6vOS2"><g id="eMzJIhB6vOS3"><path id="eMzJIhB6vOS4" d="M200,375C182.600000,375,167.800000,360.700000,168.300000,343.300000L172.300000,216.300000L135.400000,216.300000C124.600000,216.300000,115.800000,207.500000,115.800000,196.700000L115.800000,177.100000L284.200000,177.100000L284.200000,196.700000C284.200000,207.500000,275.400000,216.300000,264.600000,216.300000L227.700000,216.300000L231.700000,343.300000C232.200000,360.700000,217.400000,375,200,375L200,375ZM200,327.700000C191.400000,327.700000,184.400000,334.700000,184.400000,343.300000C184.400000,351.900000,191.400000,358.900000,200,358.900000C208.600000,358.900000,215.600000,351.900000,215.600000,343.300000C215.600000,334.700000,208.600000,327.700000,200,327.700000Z" clip-rule="evenodd" fill="rgb(153,204,204)" fill-rule="evenodd" stroke="none" stroke-width="1"/><polygon id="eMzJIhB6vOS5" points="169.300000,312.300000 172.300000,216.300000 227.700000,216.300000 230.700000,312.300000" clip-rule="evenodd" fill="url(#eMzJIhB6vOS5-fill)" fill-rule="evenodd" stroke="none" stroke-width="1"/></g><g id="eMzJIhB6vOS6"><polygon id="eMzJIhB6vOS7" points="284.200000,177.200000 115.800000,177.200000 115.800000,121.700000 284.200000,121.700000" clip-rule="evenodd" fill="rgb(204,102,51)" fill-rule="evenodd" stroke="none" stroke-width="1"/><g id="eMzJIhB6vOS8"><polygon id="eMzJIhB6vOS9" points="284.200000,177.200000 115.800000,177.200000 115.800000,169.300000 284.200000,169.300000" clip-rule="evenodd" fill="rgb(153,102,51)" fill-rule="evenodd" stroke="none" stroke-width="1"/><polygon id="eMzJIhB6vOS10" points="284.200000,161.300000 115.800000,161.300000 115.800000,153.400000 284.200000,153.400000" clip-rule="evenodd" fill="rgb(153,102,51)" fill-rule="evenodd" stroke="none" stroke-width="1"/><polygon id="eMzJIhB6vOS11" points="284.200000,145.500000 115.800000,145.500000 115.800000,137.600000 284.200000,137.600000" clip-rule="evenodd" fill="rgb(153,102,51)" fill-rule="evenodd" stroke="none" stroke-width="1"/><polygon id="eMzJIhB6vOS12" points="284.200000,129.600000 115.800000,129.600000 115.800000,121.700000 284.200000,121.700000" clip-rule="evenodd" fill="rgb(153,102,51)" fill-rule="evenodd" stroke="none" stroke-width="1"/></g></g><polygon id="eMzJIhB6vOS13" points="284.200000,121.700000 115.800000,121.700000 115.800000,25 120.400000,25 123.400000,30.900000 126.300000,25 137.400000,25 143.500000,37 148.400000,27.400000 150.300000,31.300000 153.500000,25 167.200000,25 170.600000,31.700000 174,25 179.400000,25 185.200000,36.600000 191.100000,25 197.500000,25 204.100000,38.100000 210.800000,25 219.300000,25 224.800000,36 229.700000,26.400000 231.700000,30.300000 234.300000,25 241.100000,25 242.700000,28.200000 244.300000,25 252.400000,25 257.300000,34.800000 262.300000,25 273,25 276.200000,31.400000 279.500000,25 284.200000,25" clip-rule="evenodd" fill="rgb(230,230,230)" fill-rule="evenodd" stroke="none" stroke-width="1"/></g></svg>