<svg id="s1" xmlns="http://www.w3.org/2000/svg" xmlns:xlink="http://www.w3.org/1999/xlink" viewBox="0 0 100 100"><path id="s3" d="M83.140000,50C83.140000,52.790000,78.800000,55,78.140000,57.530000C77.480000,60.060000,80.080000,64.240000,78.730000,66.530000C77.380000,68.820000,72.520000,68.610000,70.600000,70.530000C68.680000,72.450000,68.960000,77.290000,66.600000,78.660000C64.240000,80.030000,60.220000,77.360000,57.600000,78.070000C54.980000,78.780000,52.850000,83.070000,50.070000,83.070000C47.290000,83.070000,45.070000,78.730000,42.540000,78.070000C40.010000,77.410000,35.830000,80.010000,33.540000,78.660000C31.250000,77.310000,31.460000,72.450000,29.540000,70.530000C27.620000,68.610000,22.780000,68.890000,21.410000,66.530000C20.040000,64.170000,22.710000,60.150000,22,57.530000C21.290000,54.910000,17,52.780000,17,50C17,47.220000,21.340000,45,22,42.470000C22.660000,39.940000,20.060000,35.760000,21.410000,33.470000C22.760000,31.180000,27.620000,31.390000,29.540000,29.470000C31.460000,27.550000,31.180000,22.710000,33.540000,21.340000C35.900000,19.970000,39.920000,22.640000,42.540000,21.930000C45.160000,21.220000,47.290000,16.930000,50.070000,16.930000C52.850000,16.930000,55.070000,21.270000,57.600000,21.930000C60.130000,22.590000,64.310000,19.990000,66.600000,21.340000C68.890000,22.690000,68.680000,27.550000,70.600000,29.470000C72.520000,31.390000,77.360000,31.110000,78.730000,33.470000C80.100000,35.830000,77.430000,39.850000,78.140000,42.470000C78.850000,45.090000,83.140000,47.210000,83.140000,50Z" fill="rgb(84,131,204)" stroke="none" stroke-width="1"/></svg>