<svg id="s1" xmlns="http://www.w3.org/2000/svg" xmlns:xlink="http://www.w3.org/1999/xlink" viewBox="0 0 100 100"><path id="s3" d="M56.300000,54.740000C54.094920,57.013671,51.057271,58.288689,47.890000,58.270000C44.141216,58.420444,40.525043,56.869606,38.050000,54.050000Q34.360000,49.830000,34.360000,42.670000C34.332057,39.761605,35.018838,36.890858,36.360000,34.310000C37.616131,31.850529,39.544066,29.797764,41.920000,28.390000C44.343466,26.967074,47.109909,26.233966,49.920000,26.270000C52.802067,26.220586,55.635452,27.016716,58.070000,28.560000C60.518190,30.171222,62.443433,32.461358,63.610000,35.150000C64.972418,38.249316,65.654415,41.604742,65.610000,44.990000L65.610000,48.400000Q65.610000,59.990000,59.850000,66.610000Q54.090000,73.230000,43.540000,73.690000L41.280000,73.690000L41.280000,66L43.280000,66Q55.320000,65.480000,56.300000,54.740000ZM50.150000,51.240000C51.522120,51.280705,52.871255,50.881221,54,50.100000C55.026709,49.389074,55.864299,48.438203,56.440000,47.330000L56.440000,43.540000Q56.440000,38.860000,54.660000,36.280000C53.626517,34.644301,51.814544,33.666290,49.880000,33.700000C48.028610,33.702606,46.309133,34.658711,45.330000,36.230000C44.086655,38.108185,43.464071,40.329200,43.550000,42.580000C43.457894,44.788267,44.066971,46.969042,45.290000,48.810000C46.390533,50.400017,48.227790,51.316759,50.160000,51.240000ZM56.300000,54.740000C54.094920,57.013671,51.057271,58.288689,47.890000,58.270000C44.141216,58.420444,40.525043,56.869606,38.050000,54.050000Q34.360000,49.830000,34.360000,42.670000C34.332057,39.761605,35.018838,36.890858,36.360000,34.310000C37.616131,31.850529,39.544066,29.797764,41.920000,28.390000C44.343466,26.967074,47.109909,26.233966,49.920000,26.270000C52.802067,26.220586,55.635452,27.016716,58.070000,28.560000C60.518190,30.171222,62.443433,32.461358,63.610000,35.150000C64.972418,38.249316,65.654415,41.604742,65.610000,44.990000L65.610000,48.400000Q65.610000,59.990000,59.850000,66.610000Q54.090000,73.230000,43.540000,73.690000L41.280000,73.690000L41.280000,66L43.280000,66Q55.320000,65.480000,56.300000,54.740000ZM50.150000,51.240000C51.522120,51.280705,52.871255,50.881221,54,50.100000C55.026709,49.389074,55.864299,48.438203,56.440000,47.330000L56.440000,43.540000Q56.440000,38.860000,54.660000,36.280000C53.626517,34.644301,51.814544,33.666290,49.880000,33.700000C48.028610,33.702606,46.309133,34.658711,45.330000,36.230000C44.086655,38.108185,43.464071,40.329200,43.550000,42.580000C43.457894,44.788267,44.066971,46.969042,45.290000,48.810000C46.390533,50.400017,48.227790,51.316759,50.160000,51.240000Z" fill="rgb(84,131,204)" stroke="none" stroke-width="1"/></svg>