<svg id="eBJoOgY0n971" xmlns="http://www.w3.org/2000/svg" xmlns:xlink="http://www.w3.org/1999/xlink" viewBox="0 0 400 400" shape-rendering="geometricPrecision" text-rendering="geometricPrecision"><g id="eBJoOgY0n972"><g id="eBJoOgY0n973"><path id="eBJoOgY0n974" d="M366.400000,184.400000L294.800000,184.400000C290.100000,184.400000,286.200000,188.300000,286.200000,193L286.200000,250.200000L366.500000,250.200000C371.200000,250.200000,375.100000,246.300000,375.100000,241.600000L375.100000,193C375,188.300000,371.100000,184.400000,366.400000,184.400000L366.400000,184.400000Z" clip-rule="evenodd" fill="rgb(113,177,221)" fill-rule="evenodd" stroke="none" stroke-width="1"/><path id="eBJoOgY0n975" d="M348.800000,184.400000L366.100000,184.400000C371,184.400000,374.900000,188.400000,374.900000,193.200000L374.900000,241.600000C374.900000,246.300000,371,250.200000,366.300000,250.200000L348.700000,250.200000C348.600000,250.200000,348.500000,250.100000,348.500000,250L348.500000,184.700000C348.600000,184.500000,348.700000,184.400000,348.800000,184.400000L348.800000,184.400000Z" clip-rule="evenodd" fill="rgb(153,203,238)" fill-rule="evenodd" stroke="none" stroke-width="1"/><path id="eBJoOgY0n976" d="M44.600000,205.200000C44.500000,204.700000,52,203.400000,51,196.300000L45,156.400000C44.400000,152.600000,41.200000,149.800000,37.300000,149.800000C70.100000,149.800000,241.200000,149.800000,274,149.800000C277.900000,149.800000,281.100000,152.600000,281.700000,156.400000L289.100000,205.200000C254.200000,205.200000,79.400000,205.200000,44.600000,205.200000L44.600000,205.200000Z" clip-rule="evenodd" fill="rgb(153,203,238)" fill-rule="evenodd" stroke="none" stroke-width="1"/><path id="eBJoOgY0n977" d="M43.200000,205.200000L40,205.200000C36.100000,205.200000,32.900000,202.400000,32.300000,198.600000L26.400000,158.700000C26.100000,156.400000,26.700000,154.300000,28.200000,152.500000C29.700000,150.700000,31.700000,149.800000,34.100000,149.800000L37.300000,149.800000C41.200000,149.800000,44.400000,152.600000,45,156.400000L50.900000,196.300000C51.200000,198.600000,50.600000,200.700000,49.100000,202.500000C47.600000,204.200000,45.600000,205.200000,43.200000,205.200000L43.200000,205.200000Z" clip-rule="evenodd" fill="rgb(113,177,221)" fill-rule="evenodd" stroke="none" stroke-width="1"/><path id="eBJoOgY0n978" d="M125,184.400000L33.600000,184.400000C28.900000,184.400000,25,188.300000,25,193L25,241.600000C25,246.300000,28.900000,250.200000,33.600000,250.200000L125,250.200000L125,184.400000L125,184.400000Z" clip-rule="evenodd" fill="rgb(113,177,221)" fill-rule="evenodd" stroke="none" stroke-width="1"/><path id="eBJoOgY0n979" d="M125,184.400000L107.200000,184.400000C102.500000,184.400000,98.600000,188.300000,98.600000,193L98.600000,250.200000L125,250.200000L125,184.400000L125,184.400000Z" clip-rule="evenodd" fill="rgb(153,203,238)" fill-rule="evenodd" stroke="none" stroke-width="1"/><path id="eBJoOgY0n9710" d="M336.600000,227.700000L125,227.700000L125,205.200000L327.800000,205.200000C332.600000,205.200000,336.500000,209.100000,336.500000,213.900000L336.500000,227.700000L336.600000,227.700000Z" clip-rule="evenodd" fill="rgb(204,233,251)" fill-rule="evenodd" stroke="none" stroke-width="1"/><path id="eBJoOgY0n9711" d="M125,209L125,205.100000L327.800000,205.100000C330.800000,205.100000,333.500000,206.600000,335,209L125,209Z" clip-rule="evenodd" fill="rgb(226,242,252)" fill-rule="evenodd" stroke="none" stroke-width="1"/><polygon id="eBJoOgY0n9712" points="336.600000,227.700000 125,227.700000 125,250.300000 298.400000,250.300000" clip-rule="evenodd" fill="rgb(86,153,198)" fill-rule="evenodd" stroke="none" stroke-width="1"/><line id="eBJoOgY0n9713" x1="202.800000" y1="156.400000" x2="210.200000" y2="205.200000" fill="none" stroke="rgb(204,233,251)" stroke-width="2" stroke-miterlimit="103.322000"/><line id="eBJoOgY0n9714" x1="123.900000" y1="156.400000" x2="131.300000" y2="205.200000" fill="none" stroke="rgb(204,233,251)" stroke-width="2" stroke-miterlimit="103.322000"/></g><g id="eBJoOgY0n9715"><path id="eBJoOgY0n9716" d="M286.100000,241.600000L286.100000,250.200000L366.400000,250.200000L366.400000,250.200000C366.500000,250.200000,366.500000,250.200000,366.600000,250.200000L366.600000,250.200000C366.700000,250.200000,366.700000,250.200000,366.800000,250.200000L366.800000,250.200000C366.900000,250.200000,366.900000,250.200000,367,250.200000L367,250.200000C367.100000,250.200000,367.100000,250.200000,367.200000,250.200000C367.300000,250.200000,367.300000,250.200000,367.400000,250.200000L367.400000,250.200000C367.500000,250.200000,367.500000,250.200000,367.600000,250.200000C367.700000,250.200000,367.700000,250.200000,367.800000,250.200000C367.900000,250.200000,367.900000,250.200000,368,250.200000L368,250.200000C368.100000,250.200000,368.100000,250.200000,368.200000,250.200000L368.200000,250.200000C368.300000,250.200000,368.300000,250.200000,368.400000,250.100000C368.500000,250.100000,368.500000,250.100000,368.600000,250L368.600000,250C368.700000,250,368.700000,250,368.800000,249.900000L368.800000,249.900000C368.900000,249.900000,368.900000,249.900000,369,249.800000C369.100000,249.800000,369.100000,249.800000,369.200000,249.700000L369.200000,249.700000C369.300000,249.700000,369.300000,249.600000,369.400000,249.600000L369.400000,249.600000C369.500000,249.600000,369.500000,249.500000,369.600000,249.500000C369.700000,249.500000,369.700000,249.400000,369.800000,249.400000C369.900000,249.400000,369.900000,249.300000,370,249.300000C370.100000,249.300000,370.100000,249.200000,370.200000,249.200000L370.200000,249.200000C370.300000,249.200000,370.300000,249.100000,370.400000,249.100000C370.500000,249.100000,370.500000,249,370.600000,249C370.700000,249,370.700000,248.900000,370.800000,248.900000L370.800000,248.900000C370.900000,248.900000,370.900000,248.800000,371,248.800000L371,248.800000C371.100000,248.800000,371.100000,248.700000,371.200000,248.700000C371.300000,248.600000,371.400000,248.500000,371.500000,248.500000L371.500000,248.500000C371.600000,248.500000,371.600000,248.400000,371.700000,248.400000L371.700000,248.400000C371.900000,248.300000,372,248.100000,372.200000,248C372.300000,247.900000,372.400000,247.800000,372.500000,247.700000L372.500000,247.700000C372.500000,247.700000,372.600000,247.600000,372.600000,247.600000C372.600000,247.500000,372.700000,247.500000,372.700000,247.400000L372.700000,247.400000C372.700000,247.300000,372.800000,247.300000,372.800000,247.200000C372.800000,247.100000,372.900000,247.100000,372.900000,247C373,246.800000,373.200000,246.700000,373.300000,246.500000L373.300000,246.500000C373.300000,246.400000,373.400000,246.400000,373.400000,246.300000L373.400000,246.300000C373.600000,246.100000,373.700000,245.800000,373.800000,245.600000L373.800000,245.600000C373.900000,245.500000,373.900000,245.400000,374,245.200000L374,245.200000C374.100000,245.100000,374.100000,244.900000,374.200000,244.800000L374.200000,244.800000C374.200000,244.700000,374.300000,244.700000,374.300000,244.600000L374.300000,244.600000C374.300000,244.500000,374.400000,244.500000,374.400000,244.400000L374.400000,244.400000C374.400000,244.300000,374.400000,244.300000,374.500000,244.200000L374.500000,244.200000C374.500000,244.100000,374.500000,244.100000,374.600000,244L374.600000,244C374.600000,243.900000,374.600000,243.900000,374.700000,243.800000L374.700000,243.800000C374.700000,243.700000,374.800000,243.500000,374.800000,243.400000L374.800000,243.400000C374.800000,243.300000,374.800000,243.300000,374.800000,243.200000L374.800000,243.200000C374.800000,243.100000,374.800000,243.100000,374.800000,243L374.800000,243C374.800000,242.900000,374.800000,242.900000,374.800000,242.800000L374.800000,242.800000C374.800000,242.700000,374.800000,242.700000,374.800000,242.600000L374.800000,242.600000C374.800000,242.500000,374.800000,242.500000,374.800000,242.400000L374.800000,242.400000C374.800000,242.300000,374.800000,242.300000,374.800000,242.200000L374.800000,242.200000C374.800000,242.100000,374.800000,242.100000,374.800000,242L374.800000,242C374.800000,241.900000,374.800000,241.900000,374.800000,241.800000L374.800000,241.800000C374.800000,241.700000,374.800000,241.700000,374.800000,241.600000L374.800000,241.600000L286.100000,241.600000L286.100000,241.600000ZM374,245.700000C374.100000,245.600000,374.100000,245.500000,374.200000,245.300000L374,245.700000ZM374,245.700000C374.100000,245.600000,374.100000,245.400000,374.200000,245.300000L374,245.700000ZM374.300000,244.700000C374.300000,244.600000,374.400000,244.400000,374.400000,244.300000L374.300000,244.700000Z" clip-rule="evenodd" fill="rgb(94,22,23)" fill-rule="evenodd" stroke="none" stroke-width="1"/><path id="eBJoOgY0n9717" d="M375,241.600000C375,241.700000,375,241.700000,375,241.800000L375,241.800000C375,241.900000,375,241.900000,375,242L375,242C375,242.100000,375,242.100000,375,242.200000L375,242.200000C375,242.300000,375,242.300000,375,242.400000L375,242.400000C375,242.500000,375,242.500000,375,242.600000L375,242.600000C375,242.700000,375,242.700000,375,242.800000L375,242.800000C375,242.900000,375,242.900000,375,243L375,243C375,243.100000,375,243.100000,375,243.200000L375,243.200000C375,243.300000,375,243.300000,375,243.400000L375,243.400000C375,243.500000,374.900000,243.700000,374.900000,243.800000L374.900000,243.800000C374.900000,243.900000,374.900000,243.900000,374.800000,244L374.800000,244C374.800000,244.100000,374.800000,244.100000,374.700000,244.200000L374.700000,244.200000C374.700000,244.300000,374.700000,244.300000,374.600000,244.400000L374.600000,244.400000C374.600000,244.500000,374.600000,244.500000,374.500000,244.600000L374.500000,244.600000C374.500000,244.700000,374.400000,244.700000,374.400000,244.800000L374.400000,244.800000C374.300000,244.900000,374.300000,245.100000,374.200000,245.200000L374.200000,245.200000C374.100000,245.300000,374.100000,245.400000,374,245.600000L374,245.600000C373.900000,245.800000,373.700000,246.100000,373.600000,246.300000L373.600000,246.300000C373.600000,246.400000,373.500000,246.400000,373.500000,246.500000L373.500000,246.500000C373.400000,246.700000,373.300000,246.800000,373.100000,247L373.100000,247C373.100000,247.100000,373,247.100000,373,247.200000L373,247.200000C372.900000,247.300000,372.800000,247.400000,372.700000,247.500000L372.700000,247.500000C372.600000,247.600000,372.400000,247.800000,372.300000,247.900000L372.300000,247.900000C372,248.200000,371.700000,248.400000,371.300000,248.700000L371.300000,248.700000C371.100000,248.800000,371,248.900000,370.800000,249L370.800000,249C370.700000,249,370.700000,249.100000,370.600000,249.100000L370.600000,249.100000C370.500000,249.100000,370.500000,249.200000,370.400000,249.200000L370.400000,249.200000C370.300000,249.200000,370.300000,249.300000,370.200000,249.300000L370.200000,249.300000C370.100000,249.300000,370.100000,249.400000,370,249.400000L370,249.400000C369.900000,249.400000,369.900000,249.500000,369.800000,249.500000L369.800000,249.500000C369.700000,249.500000,369.700000,249.600000,369.600000,249.600000L369.600000,249.600000C369.500000,249.600000,369.500000,249.700000,369.400000,249.700000L369.400000,249.700000C369.300000,249.700000,369.300000,249.700000,369.200000,249.800000L369.200000,249.800000C369.100000,249.800000,369.100000,249.800000,369,249.900000L369,249.900000C368.900000,249.900000,368.900000,249.900000,368.800000,250L368.800000,250C368.700000,250,368.700000,250,368.600000,250.100000L368.600000,250.100000C368.500000,250.100000,368.500000,250.100000,368.400000,250.200000L368.400000,250.200000C368.300000,250.200000,368.300000,250.200000,368.200000,250.200000L368.200000,250.200000C368.100000,250.200000,368.100000,250.200000,368,250.200000L368,250.200000C367.900000,250.200000,367.900000,250.200000,367.800000,250.200000L367.800000,250.200000C367.700000,250.200000,367.700000,250.200000,367.600000,250.200000L367.600000,250.200000C367.500000,250.200000,367.500000,250.200000,367.400000,250.200000L367.400000,250.200000C367.300000,250.200000,367.300000,250.200000,367.200000,250.200000L367.200000,250.200000C367.100000,250.200000,367.100000,250.200000,367,250.200000L367,250.200000C366.900000,250.200000,366.900000,250.200000,366.800000,250.200000L366.800000,250.200000C366.700000,250.200000,366.700000,250.200000,366.600000,250.200000L366.600000,250.200000L349,250.200000C348.900000,250.200000,348.800000,250.100000,348.800000,250L348.800000,241.600000L375,241.600000L375,241.600000Z" clip-rule="evenodd" fill="rgb(128,45,45)" fill-rule="evenodd" stroke="none" stroke-width="1"/><path id="eBJoOgY0n9718" d="M25,241.600000C25,241.700000,25,241.700000,25,241.800000C25,241.900000,25,241.900000,25,242C25,242.100000,25,242.100000,25,242.200000C25,242.300000,25,242.300000,25,242.400000C25,242.500000,25,242.500000,25,242.600000C25,242.700000,25,242.700000,25,242.800000C25,242.900000,25,242.900000,25,243C25,243.100000,25,243.100000,25,243.200000C25,243.300000,25,243.300000,25,243.400000C25,243.500000,25,243.500000,25.100000,243.600000L25.100000,243.600000C25.100000,243.700000,25.100000,243.700000,25.200000,243.800000C25.300000,243.900000,25.200000,243.900000,25.300000,244C25.300000,244.100000,25.300000,244.100000,25.400000,244.200000C25.400000,244.300000,25.400000,244.300000,25.500000,244.400000C25.500000,244.500000,25.600000,244.500000,25.600000,244.600000C25.600000,244.700000,25.700000,244.700000,25.700000,244.800000C25.700000,244.900000,25.800000,244.900000,25.800000,245L25.800000,245C25.800000,245.100000,25.900000,245.100000,25.900000,245.200000C25.900000,245.300000,26,245.300000,26,245.400000L26,245.400000C26,245.500000,26.100000,245.500000,26.100000,245.600000L26.100000,245.600000C26.100000,245.700000,26.200000,245.700000,26.200000,245.800000L26.200000,245.800000C26.200000,245.900000,26.300000,245.900000,26.300000,246L26.300000,246C26.300000,246.100000,26.400000,246.100000,26.400000,246.200000L26.400000,246.200000C26.400000,246.300000,26.500000,246.300000,26.500000,246.400000C26.500000,246.500000,26.600000,246.500000,26.600000,246.600000C26.600000,246.700000,26.700000,246.700000,26.700000,246.800000L26.700000,246.800000C26.700000,246.900000,26.800000,246.900000,26.800000,247L26.800000,247C26.800000,247.100000,26.900000,247.100000,26.900000,247.200000C26.900000,247.300000,27,247.300000,27,247.400000C27,247.500000,27.100000,247.500000,27.100000,247.600000L27.100000,247.600000C27.100000,247.700000,27.200000,247.700000,27.200000,247.800000C27.200000,247.900000,27.300000,247.900000,27.300000,247.900000L27.300000,247.900000C27.300000,247.900000,27.400000,248,27.400000,248L27.400000,248C27.500000,248,27.500000,248.100000,27.600000,248.100000C27.700000,248.100000,27.700000,248.200000,27.800000,248.200000L27.800000,248.200000C27.900000,248.200000,27.900000,248.300000,28,248.300000L28,248.300000C28.100000,248.300000,28.100000,248.400000,28.200000,248.400000L28.200000,248.400000C28.300000,248.400000,28.300000,248.500000,28.400000,248.500000L28.400000,248.500000C28.500000,248.500000,28.500000,248.600000,28.600000,248.600000L28.600000,248.600000C28.700000,248.600000,28.700000,248.700000,28.800000,248.700000C28.900000,248.700000,28.900000,248.800000,29,248.800000L29,248.800000C29.100000,248.800000,29.100000,248.900000,29.200000,248.900000C29.300000,248.900000,29.300000,249,29.400000,249C29.500000,249,29.500000,249.100000,29.600000,249.100000C29.700000,249.100000,29.700000,249.200000,29.800000,249.200000L29.800000,249.200000C29.900000,249.200000,29.900000,249.300000,30,249.300000C30.100000,249.300000,30.100000,249.400000,30.200000,249.400000C30.300000,249.400000,30.300000,249.500000,30.400000,249.500000C30.500000,249.500000,30.500000,249.600000,30.600000,249.600000C30.700000,249.600000,30.700000,249.700000,30.800000,249.700000C30.900000,249.700000,30.900000,249.700000,31,249.800000C31.100000,249.900000,31.100000,249.800000,31.200000,249.900000C31.300000,249.900000,31.300000,249.900000,31.400000,250C31.500000,250,31.500000,250,31.600000,250.100000L31.600000,250.100000C31.700000,250.100000,31.700000,250.100000,31.800000,250.200000C31.900000,250.200000,31.900000,250.200000,32,250.200000C32.100000,250.200000,32.100000,250.200000,32.200000,250.200000L32.200000,250.200000C32.300000,250.200000,32.300000,250.200000,32.400000,250.200000L32.400000,250.200000C32.500000,250.200000,32.500000,250.200000,32.600000,250.200000C32.700000,250.200000,32.700000,250.200000,32.800000,250.200000L32.800000,250.200000C32.900000,250.200000,32.900000,250.200000,33,250.200000C33.100000,250.200000,33.100000,250.200000,33.200000,250.200000L33.200000,250.200000C33.300000,250.200000,33.300000,250.200000,33.400000,250.200000L33.400000,250.200000C33.500000,250.200000,33.500000,250.200000,33.600000,250.200000L33.600000,250.200000L125,250.200000L125,241.600000L25,241.600000L25,241.600000Z" clip-rule="evenodd" fill="rgb(94,22,23)" fill-rule="evenodd" stroke="none" stroke-width="1"/><polygon id="eBJoOgY0n9719" points="98.600000,241.600000 98.600000,250.300000 125,250.300000 125,241.600000" clip-rule="evenodd" fill="rgb(128,45,45)" fill-rule="evenodd" stroke="none" stroke-width="1"/><polygon id="eBJoOgY0n9720" points="125,241.600000 125,250.300000 298.400000,250.300000 313,241.600000" clip-rule="evenodd" fill="rgb(71,18,19)" fill-rule="evenodd" stroke="none" stroke-width="1"/></g></g></svg>