<svg id="s1" xmlns="http://www.w3.org/2000/svg" xmlns:xlink="http://www.w3.org/1999/xlink" viewBox="0 0 100 100"><path id="s3" d="M66.350000,73.500000L34.570000,73.500000L34.570000,67.200000L49.570000,51.200000C51.287745,49.395531,52.818849,47.422183,54.140000,45.310000C55.053427,43.878388,55.564645,42.227291,55.620000,40.530000C55.722359,38.772386,55.166184,37.039687,54.060000,35.670000C52.911765,34.444286,51.276257,33.795217,49.600000,33.900000C47.714960,33.812938,45.896645,34.607526,44.680000,36.050000C43.422027,37.656624,42.783219,39.661773,42.880000,41.700000L33.650000,41.700000C33.613627,38.987704,34.304210,36.315148,35.650000,33.960000C36.998946,31.625756,38.982390,29.722065,41.370000,28.470000C43.951210,27.110591,46.833083,26.422794,49.750000,26.470000Q56.910000,26.470000,60.880000,29.910000Q64.850000,33.350000,64.880000,39.620000C64.842811,42.060501,64.233116,44.458177,63.100000,46.620000C61.449380,49.672807,59.397859,52.491127,57,55L46.420000,66.080000L66.350000,66.080000ZM66.350000,73.500000L34.570000,73.500000L34.570000,67.200000L49.570000,51.200000C51.287745,49.395531,52.818849,47.422183,54.140000,45.310000C55.053427,43.878388,55.564645,42.227291,55.620000,40.530000C55.722359,38.772386,55.166184,37.039687,54.060000,35.670000C52.911765,34.444286,51.276257,33.795217,49.600000,33.900000C47.714960,33.812938,45.896645,34.607526,44.680000,36.050000C43.422027,37.656624,42.783219,39.661773,42.880000,41.700000L33.650000,41.700000C33.613627,38.987704,34.304210,36.315148,35.650000,33.960000C36.998946,31.625756,38.982390,29.722065,41.370000,28.470000C43.951210,27.110591,46.833083,26.422794,49.750000,26.470000Q56.910000,26.470000,60.880000,29.910000Q64.850000,33.350000,64.880000,39.620000C64.842811,42.060501,64.233116,44.458177,63.100000,46.620000C61.449380,49.672807,59.397859,52.491127,57,55L46.420000,66.080000L66.350000,66.080000Z" fill="rgb(84,131,204)" stroke="none" stroke-width="1"/></svg>