<svg id="eR0LsU1GVFt1" xmlns="http://www.w3.org/2000/svg" xmlns:xlink="http://www.w3.org/1999/xlink" viewBox="0 0 400 400" shape-rendering="geometricPrecision" text-rendering="geometricPrecision"><g id="eR0LsU1GVFt2"><g id="eR0LsU1GVFt3"><path id="eR0LsU1GVFt4" d="M123.800000,98.900000C69.200000,98.900000,25,143.100000,25,197.700000L25,296.500000L123.800000,296.500000L222.600000,296.500000L222.600000,197.700000C222.700000,143.200000,178.400000,98.900000,123.800000,98.900000L123.800000,98.900000Z" clip-rule="evenodd" fill="rgb(51,51,51)" fill-rule="evenodd" stroke="none" stroke-width="1"/><path id="eR0LsU1GVFt5" d="M123.600000,120.700000C81.200000,120.700000,46.800000,155.100000,46.800000,197.500000L46.800000,197.500000L46.800000,274.300000L123.600000,274.300000L123.600000,274.300000C166,274.300000,200.400000,239.900000,200.400000,197.500000C200.400000,155.100000,166,120.700000,123.600000,120.700000L123.600000,120.700000Z" clip-rule="evenodd" fill="rgb(255,204,0)" fill-rule="evenodd" stroke="none" stroke-width="1"/><path id="eR0LsU1GVFt6" d="M56.700000,197.500000L56.700000,264.500000L123.700000,264.500000C160.600000,264.500000,190.600000,234.500000,190.600000,197.600000C190.600000,160.600000,160.600000,130.700000,123.700000,130.700000C86.600000,130.600000,56.700000,160.500000,56.700000,197.500000L56.700000,197.500000Z" clip-rule="evenodd" fill="rgb(77,77,77)" fill-rule="evenodd" stroke="none" stroke-width="1"/><polygon id="eR0LsU1GVFt7" points="222.700000,296.600000 25,296.600000 25,289 222.700000,289" clip-rule="evenodd" fill="rgb(77,77,77)" fill-rule="evenodd" stroke="none" stroke-width="1"/></g><g id="eR0LsU1GVFt8"><path id="eR0LsU1GVFt9" d="M203.400000,255.800000L203.400000,271.300000C203.400000,274.600000,200.700000,277.300000,197.400000,277.300000L181.900000,277.300000C179.300000,277.300000,177.100000,275.700000,176.300000,273.300000C175.500000,270.900000,176.200000,268.300000,178.200000,266.700000C183.600000,262.400000,188.500000,257.500000,192.700000,252.200000C194.300000,250.200000,196.900000,249.400000,199.300000,250.300000C201.800000,251,203.400000,253.300000,203.400000,255.800000L203.400000,255.800000Z" clip-rule="evenodd" fill="rgb(77,77,77)" fill-rule="evenodd" stroke="none" stroke-width="1"/><path id="eR0LsU1GVFt10" d="M200.400000,255.800000L200.400000,271.300000C200.400000,272.900000,199.100000,274.300000,197.400000,274.300000L181.900000,274.300000C180.600000,274.300000,179.500000,273.500000,179.100000,272.300000C178.700000,271.100000,179.100000,269.800000,180.100000,269C185.700000,264.600000,190.700000,259.500000,195.100000,254C195.900000,253,197.200000,252.600000,198.400000,253C199.600000,253.400000,200.400000,254.500000,200.400000,255.800000L200.400000,255.800000Z" clip-rule="evenodd" fill="rgb(255,204,0)" fill-rule="evenodd" stroke="none" stroke-width="1"/></g><g id="eR0LsU1GVFt11"><polygon id="eR0LsU1GVFt12" points="222.700000,292.200000 372.400000,292.200000 372.400000,283.300000 222.700000,283.300000" clip-rule="evenodd" fill="rgb(230,230,230)" fill-rule="evenodd" stroke="none" stroke-width="1"/><polygon id="eR0LsU1GVFt13" points="372.400000,281.200000 375,281.200000 375,301.100000 372.400000,301.100000 372.400000,292.200000 361.700000,292.200000 361.700000,290.100000 372.400000,290.100000" clip-rule="evenodd" fill="rgb(179,179,179)" fill-rule="evenodd" stroke="none" stroke-width="1"/></g></g></svg>