<svg id="s1" xmlns="http://www.w3.org/2000/svg" xmlns:xlink="http://www.w3.org/1999/xlink" viewBox="0 0 100 100"><path id="s3" d="M56.540000,61.300000C56.619774,59.769197,56.095515,58.268238,55.080000,57.120000C53.661254,55.818299,51.975291,54.842215,50.140000,54.260000C48.092354,53.503912,46.089149,52.632518,44.140000,51.650000C42.561388,50.855804,41.100761,49.846154,39.800000,48.650000C38.593671,47.525877,37.633469,46.163889,36.980000,44.650000C36.271826,42.936494,35.931150,41.093437,35.980000,39.240000C35.863668,35.936148,37.115476,32.730651,39.440000,30.380000C41.932297,28.005445,45.183936,26.588609,48.620000,26.380000L48.620000,19.560000L53.740000,19.560000L53.740000,26.500000C57.197884,26.860261,60.379457,28.553274,62.610000,31.220000C64.838767,34.124717,65.971872,37.722326,65.810000,41.380000L56.540000,41.380000Q56.540000,37.540000,54.960000,35.640000C53.920046,34.380442,52.352216,33.677877,50.720000,33.740000C49.214792,33.646543,47.739082,34.186791,46.650000,35.230000C45.642032,36.353692,45.123758,37.832935,45.210000,39.340000C45.143301,40.775683,45.650618,42.178901,46.620000,43.240000C48.150006,44.572910,49.926996,45.592216,51.850000,46.240000C54.002482,47.080697,56.102881,48.049085,58.140000,49.140000C59.665840,49.959926,61.066669,50.993710,62.300000,52.210000C63.413541,53.329123,64.293883,54.658134,64.890000,56.120000C65.514130,57.746326,65.816395,59.478406,65.780000,61.220000C65.913677,64.504496,64.687321,67.698809,62.390000,70.050000C59.842419,72.437895,56.536220,73.853826,53.050000,74.050000L53.050000,80.420000L48,80.420000L48,74.100000Q41.440000,73.390000,37.840000,69.440000Q34.240000,65.490000,34.240000,58.930000L43.490000,58.930000C43.349060,61.033671,43.994056,63.114764,45.300000,64.770000C46.653213,66.171441,48.556443,66.903452,50.500000,66.770000C52.119036,66.858751,53.710836,66.325766,54.950000,65.280000C56.030830,64.245834,56.610747,62.794218,56.540000,61.300000Z" fill="rgb(84,131,204)" stroke="none" stroke-width="1"/></svg>