<svg id="s1" xmlns="http://www.w3.org/2000/svg" xmlns:xlink="http://www.w3.org/1999/xlink" viewBox="0 0 100 100"><path id="s3" d="M65.670000,54Q65.670000,63.620000,61.670000,68.710000Q57.670000,73.800000,50,73.820000Q42.420000,73.820000,38.410000,68.820000Q34.400000,63.820000,34.330000,54.490000L34.330000,46Q34.330000,36.290000,38.330000,31.260000Q42.330000,26.230000,49.940000,26.260000Q57.520000,26.260000,61.530000,31.260000Q65.540000,36.260000,65.640000,45.570000ZM56.470000,44.620000Q56.470000,38.850000,54.890000,36.220000C53.878757,34.500359,51.991869,33.489388,50,33.600000C48.063181,33.480168,46.219227,34.442565,45.210000,36.100000Q43.670000,38.600000,43.570000,43.930000L43.570000,55.210000Q43.570000,60.880000,45.110000,63.640000C46.088602,65.463491,48.045507,66.543703,50.110000,66.400000C52.109776,66.535371,54.007600,65.502675,54.980000,63.750000Q56.480000,61.100000,56.540000,55.650000ZM65.670000,54Q65.670000,63.620000,61.670000,68.710000Q57.670000,73.800000,50,73.820000Q42.420000,73.820000,38.410000,68.820000Q34.400000,63.820000,34.330000,54.490000L34.330000,46Q34.330000,36.290000,38.330000,31.260000Q42.330000,26.230000,49.940000,26.260000Q57.520000,26.260000,61.530000,31.260000Q65.540000,36.260000,65.640000,45.570000ZM56.470000,44.620000Q56.470000,38.850000,54.890000,36.220000C53.878757,34.500359,51.991869,33.489388,50,33.600000C48.063181,33.480168,46.219227,34.442565,45.210000,36.100000Q43.670000,38.600000,43.570000,43.930000L43.570000,55.210000Q43.570000,60.880000,45.110000,63.640000C46.088602,65.463491,48.045507,66.543703,50.110000,66.400000C52.109776,66.535371,54.007600,65.502675,54.980000,63.750000Q56.480000,61.100000,56.540000,55.650000Z" fill="rgb(84,131,204)" stroke="none" stroke-width="1"/></svg>