<svg id="eIlMO30H7Jt1" xmlns="http://www.w3.org/2000/svg" xmlns:xlink="http://www.w3.org/1999/xlink" viewBox="0 0 400 400" shape-rendering="geometricPrecision" text-rendering="geometricPrecision"><g id="eIlMO30H7Jt2"><g id="eIlMO30H7Jt3"><polygon id="eIlMO30H7Jt4" points="351.700000,130.600000 138.900000,130.600000 138.900000,271.700000 162.200000,271.700000 162.200000,161 328.500000,161 328.500000,271.700000 351.700000,271.700000" clip-rule="evenodd" fill="rgb(53,100,128)" fill-rule="evenodd" stroke="none" stroke-width="1"/><polygon id="eIlMO30H7Jt5" points="185.400000,130.600000 48.300000,130.600000 48.300000,271.700000 71.500000,271.700000 71.500000,161 162.200000,161 162.200000,271.700000 185.400000,271.700000" clip-rule="evenodd" fill="rgb(64,121,157)" fill-rule="evenodd" stroke="none" stroke-width="1"/></g><g id="eIlMO30H7Jt6"><g id="eIlMO30H7Jt7"><path id="eIlMO30H7Jt8" d="M105.700000,231.500000L105.700000,233.100000L173.900000,233.100000C177.600000,233.100000,180.600000,236.100000,180.600000,239.800000L180.600000,239.800000C180.600000,243.500000,177.600000,246.500000,173.900000,246.500000L105.700000,246.500000L105.700000,248.100000L173.900000,248.100000C178.500000,248.100000,182.200000,244.400000,182.200000,239.800000C182.200000,235.200000,178.500000,231.500000,173.900000,231.500000L105.700000,231.500000Z" clip-rule="evenodd" fill="rgb(204,204,255)" fill-rule="evenodd" stroke="none" stroke-width="1"/><path id="eIlMO30H7Jt9" d="M107.300000,233.100000L173.900000,233.100000C177.600000,233.100000,180.600000,236.100000,180.600000,239.800000L180.600000,239.800000C180.600000,243.500000,177.600000,246.500000,173.900000,246.500000L107.300000,246.500000L107.300000,233.100000L107.300000,233.100000Z" clip-rule="evenodd" fill="rgb(230,230,230)" fill-rule="evenodd" stroke="none" stroke-width="1"/><path id="eIlMO30H7Jt10" d="M173.900000,248.100000L224.700000,248.100000C229.300000,248.100000,233,244.400000,233,239.800000C233,235.200000,229.300000,231.500000,224.700000,231.500000L173.900000,231.500000C178.500000,231.500000,182.200000,235.200000,182.200000,239.800000C182.100000,244.300000,178.400000,248.100000,173.900000,248.100000Z" clip-rule="evenodd" fill="rgb(153,153,255)" fill-rule="evenodd" stroke="none" stroke-width="1"/></g><g id="eIlMO30H7Jt11"><path id="eIlMO30H7Jt12" d="M220.500000,187.200000L220.500000,188.600000L172.400000,188.600000C169,188.600000,166.300000,191.400000,166.300000,194.700000L166.300000,194.700000C166.300000,198.100000,169.100000,200.800000,172.400000,200.800000L220.500000,200.800000L220.500000,202.200000L172.400000,202.200000C168.200000,202.200000,164.800000,198.800000,164.800000,194.600000C164.800000,190.400000,168.200000,187,172.400000,187L220.500000,187Z" clip-rule="evenodd" fill="rgb(153,204,102)" fill-rule="evenodd" stroke="none" stroke-width="1"/><path id="eIlMO30H7Jt13" d="M219,188.600000L172.400000,188.600000C169,188.600000,166.300000,191.400000,166.300000,194.700000L166.300000,194.700000C166.300000,198.100000,169.100000,200.800000,172.400000,200.800000L219,200.800000L219,188.600000Z" clip-rule="evenodd" fill="rgb(255,255,255)" fill-rule="evenodd" stroke="none" stroke-width="1"/><path id="eIlMO30H7Jt14" d="M172.400000,202.400000L125.800000,202.400000C121.600000,202.400000,118.200000,199,118.200000,194.800000C118.200000,190.600000,121.600000,187.200000,125.800000,187.200000L172.400000,187.200000C168.200000,187.200000,164.800000,190.600000,164.800000,194.800000C164.800000,199,168.200000,202.400000,172.400000,202.400000Z" clip-rule="evenodd" fill="rgb(102,153,102)" fill-rule="evenodd" stroke="none" stroke-width="1"/></g><g id="eIlMO30H7Jt15"><path id="eIlMO30H7Jt16" d="M214.100000,215.800000L214.100000,217.300000L164.300000,217.300000C160.800000,217.300000,157.900000,220.200000,157.900000,223.700000L157.900000,223.700000C157.900000,227.200000,160.800000,230.100000,164.300000,230.100000L214.100000,230.100000L214.100000,231.600000L164.300000,231.600000C160,231.600000,156.400000,228.100000,156.400000,223.700000C156.400000,219.300000,159.900000,215.800000,164.300000,215.800000L214.100000,215.800000Z" clip-rule="evenodd" fill="rgb(153,204,204)" fill-rule="evenodd" stroke="none" stroke-width="1"/><path id="eIlMO30H7Jt17" d="M212.600000,217.300000L164.300000,217.300000C160.800000,217.300000,157.900000,220.200000,157.900000,223.700000L157.900000,223.700000C157.900000,227.200000,160.800000,230.100000,164.300000,230.100000L212.600000,230.100000L212.600000,217.300000L212.600000,217.300000Z" clip-rule="evenodd" fill="rgb(255,255,255)" fill-rule="evenodd" stroke="none" stroke-width="1"/><path id="eIlMO30H7Jt18" d="M164.200000,231.500000L115.900000,231.500000C111.600000,231.500000,108,228,108,223.600000C108,219.200000,111.500000,215.700000,115.900000,215.700000L164.200000,215.700000C159.900000,215.700000,156.300000,219.200000,156.300000,223.600000C156.300000,228,159.900000,231.500000,164.200000,231.500000Z" clip-rule="evenodd" fill="rgb(102,153,153)" fill-rule="evenodd" stroke="none" stroke-width="1"/></g><g id="eIlMO30H7Jt19"><path id="eIlMO30H7Jt20" d="M128.400000,202.400000L128.400000,203.700000L170.800000,203.700000C173.800000,203.700000,176.200000,206.100000,176.200000,209.100000L176.200000,209.100000C176.200000,212.100000,173.800000,214.500000,170.800000,214.500000L128.400000,214.500000L128.400000,215.800000L170.800000,215.800000C174.500000,215.800000,177.500000,212.800000,177.500000,209.100000C177.500000,205.400000,174.500000,202.400000,170.800000,202.400000L128.400000,202.400000L128.400000,202.400000Z" clip-rule="evenodd" fill="rgb(255,204,0)" fill-rule="evenodd" stroke="none" stroke-width="1"/><path id="eIlMO30H7Jt21" d="M129.700000,203.700000L170.800000,203.700000C173.800000,203.700000,176.200000,206.100000,176.200000,209.100000L176.200000,209.100000C176.200000,212.100000,173.800000,214.500000,170.800000,214.500000L129.700000,214.500000L129.700000,203.700000L129.700000,203.700000Z" clip-rule="evenodd" fill="rgb(230,230,230)" fill-rule="evenodd" stroke="none" stroke-width="1"/><path id="eIlMO30H7Jt22" d="M170.900000,215.800000L212,215.800000C215.700000,215.800000,218.700000,212.800000,218.700000,209.100000C218.700000,205.400000,215.700000,202.400000,212,202.400000L170.900000,202.400000C174.600000,202.400000,177.600000,205.400000,177.600000,209.100000C177.600000,212.800000,174.600000,215.800000,170.900000,215.800000Z" clip-rule="evenodd" fill="rgb(255,153,102)" fill-rule="evenodd" stroke="none" stroke-width="1"/></g></g><g id="eIlMO30H7Jt23"><polygon id="eIlMO30H7Jt24" points="375,130.600000 237.800000,130.600000 237.800000,271.700000 261.100000,271.700000 261.100000,161 351.700000,161 351.700000,271.700000 375,271.700000" clip-rule="evenodd" fill="rgb(64,121,157)" fill-rule="evenodd" stroke="none" stroke-width="1"/><polygon id="eIlMO30H7Jt25" points="237.800000,130.600000 25,130.600000 25,271.700000 48.300000,271.700000 48.300000,161 214.600000,161 214.600000,271.700000 237.800000,271.700000" clip-rule="evenodd" fill="rgb(53,100,128)" fill-rule="evenodd" stroke="none" stroke-width="1"/></g><g id="eIlMO30H7Jt26"><polygon id="eIlMO30H7Jt27" points="214.600000,248.100000 55.800000,248.100000 55.800000,252.800000 214.600000,252.800000" clip-rule="evenodd" fill="rgb(153,153,153)" fill-rule="evenodd" stroke="none" stroke-width="1"/><polygon id="eIlMO30H7Jt28" points="261.100000,248.100000 344.100000,248.100000 344.100000,252.800000 261.100000,252.800000" clip-rule="evenodd" fill="rgb(230,230,230)" fill-rule="evenodd" stroke="none" stroke-width="1"/></g><g id="eIlMO30H7Jt29"><polygon id="eIlMO30H7Jt30" points="237.800000,128.300000 375,128.300000 375,130.600000 237.800000,130.600000" clip-rule="evenodd" fill="rgb(230,230,230)" fill-rule="evenodd" stroke="none" stroke-width="1"/><polygon id="eIlMO30H7Jt31" points="237.800000,128.300000 25,128.300000 25,130.600000 237.800000,130.600000" clip-rule="evenodd" fill="rgb(153,153,153)" fill-rule="evenodd" stroke="none" stroke-width="1"/></g></g></svg>