<svg id="s1" xmlns="http://www.w3.org/2000/svg" xmlns:xlink="http://www.w3.org/1999/xlink" viewBox="0 0 400 400"><defs><linearGradient id="s5-fill" x1="291.359922" y1="248.300000" x2="299.689922" y2="217.360000" spreadMethod="pad" gradientUnits="userSpaceOnUse"><stop id="s5-fill-0" offset="2%" stop-color="rgb(239,239,239)"/><stop id="s5-fill-1" offset="55%" stop-color="rgb(228,228,230)"/><stop id="s5-fill-2" offset="99%" stop-color="rgb(154,154,156)"/></linearGradient><linearGradient id="s7-fill" x1="292.649922" y1="240.840000" x2="271.189922" y2="309.150000" spreadMethod="pad" gradientUnits="userSpaceOnUse"><stop id="s7-fill-0" offset="0%" stop-color="rgb(208,208,210)"/><stop id="s7-fill-1" offset="14%" stop-color="rgb(230,230,230)"/><stop id="s7-fill-2" offset="66%" stop-color="rgb(168,168,168)"/><stop id="s7-fill-3" offset="85%" stop-color="rgb(157,157,158)"/><stop id="s7-fill-4" offset="100%" stop-color="rgb(183,183,186)"/></linearGradient><linearGradient id="s9-fill" x1="280.269922" y1="215.280000" x2="243.149922" y2="308.650000" spreadMethod="pad" gradientUnits="userSpaceOnUse"><stop id="s9-fill-0" offset="0%" stop-color="rgb(110,115,122)"/><stop id="s9-fill-1" offset="79%" stop-color="rgb(72,75,78)"/><stop id="s9-fill-2" offset="100%" stop-color="rgb(85,88,94)"/></linearGradient><linearGradient id="s11-fill" x1="283.759922" y1="252.500000" x2="259.599922" y2="328.370000" spreadMethod="pad" gradientUnits="userSpaceOnUse"><stop id="s11-fill-0" offset="0%" stop-color="rgb(208,208,210)"/><stop id="s11-fill-1" offset="19%" stop-color="rgb(207,207,207)"/><stop id="s11-fill-2" offset="44%" stop-color="rgb(149,149,150)"/><stop id="s11-fill-3" offset="81%" stop-color="rgb(168,168,168)"/><stop id="s11-fill-4" offset="100%" stop-color="rgb(154,154,156)"/></linearGradient><linearGradient id="s13-fill" x1="108.900000" y1="248.300000" x2="100.570000" y2="217.360000" spreadMethod="pad" gradientUnits="userSpaceOnUse"><stop id="s13-fill-0" offset="2%" stop-color="rgb(239,239,239)"/><stop id="s13-fill-1" offset="55%" stop-color="rgb(228,228,230)"/><stop id="s13-fill-2" offset="99%" stop-color="rgb(154,154,156)"/></linearGradient><linearGradient id="s15-fill" x1="107.610000" y1="240.840000" x2="129.080000" y2="309.150000" spreadMethod="pad" gradientUnits="userSpaceOnUse"><stop id="s15-fill-0" offset="0%" stop-color="rgb(208,208,210)"/><stop id="s15-fill-1" offset="14%" stop-color="rgb(230,230,230)"/><stop id="s15-fill-2" offset="66%" stop-color="rgb(168,168,168)"/><stop id="s15-fill-3" offset="85%" stop-color="rgb(157,157,158)"/><stop id="s15-fill-4" offset="100%" stop-color="rgb(183,183,186)"/></linearGradient><linearGradient id="s17-fill" x1="119.990000" y1="215.280000" x2="157.110000" y2="308.650000" spreadMethod="pad" gradientUnits="userSpaceOnUse"><stop id="s17-fill-0" offset="0%" stop-color="rgb(110,115,122)"/><stop id="s17-fill-1" offset="79%" stop-color="rgb(72,75,78)"/><stop id="s17-fill-2" offset="100%" stop-color="rgb(85,88,94)"/></linearGradient><linearGradient id="s19-fill" x1="116.510000" y1="252.500000" x2="140.660000" y2="328.370000" spreadMethod="pad" gradientUnits="userSpaceOnUse"><stop id="s19-fill-0" offset="0%" stop-color="rgb(208,208,210)"/><stop id="s19-fill-1" offset="19%" stop-color="rgb(207,207,207)"/><stop id="s19-fill-2" offset="44%" stop-color="rgb(149,149,150)"/><stop id="s19-fill-3" offset="81%" stop-color="rgb(168,168,168)"/><stop id="s19-fill-4" offset="100%" stop-color="rgb(154,154,156)"/></linearGradient><linearGradient id="s21-fill" x1="204.270000" y1="245.030000" x2="185.180000" y2="80.930000" spreadMethod="pad" gradientUnits="userSpaceOnUse"><stop id="s21-fill-0" offset="2%" stop-color="rgb(239,239,239)"/><stop id="s21-fill-1" offset="9%" stop-color="rgb(228,228,230)"/><stop id="s21-fill-2" offset="90%" stop-color="rgb(247,247,247)"/><stop id="s21-fill-3" offset="99%" stop-color="rgb(228,228,230)"/></linearGradient><linearGradient id="s23-fill" x1="200.010000" y1="94.080000" x2="200.190000" y2="150.280000" spreadMethod="pad" gradientUnits="userSpaceOnUse"><stop id="s23-fill-0" offset="2%" stop-color="rgb(239,239,239)"/><stop id="s23-fill-1" offset="20%" stop-color="rgb(228,228,230)"/><stop id="s23-fill-2" offset="99%" stop-color="rgb(212,212,214)"/></linearGradient></defs><g id="s3"><path id="s5" d="M297.060000,235.830000C301.085002,235.982295,304.476798,232.854157,304.650000,228.830000L305.650000,205.170000L309.970000,205.170000C310.480599,209.353971,310.737734,213.564989,310.740000,217.780000C310.757468,230.837462,308.297295,243.779673,303.490000,255.920000L280.080000,255.920000L280.080000,235.140000Z" fill="url(#s5-fill)" stroke="none" stroke-width="1"/><path id="s7" d="M255.390000,304.140000C264.583386,309.544503,274.799177,312.980414,285.390000,314.230000C286.452467,314.315012,287.453516,313.722391,287.890000,312.750000Q300.800000,279.870000,310.390000,245.870000C310.629379,244.830914,310.188857,243.753636,309.290000,243.180000C300.096614,237.775497,289.880823,234.339586,279.290000,233.090000C278.227533,233.004988,277.226484,233.597609,276.790000,234.570000Q263.880000,267.450000,254.290000,301.450000C254.050621,302.489086,254.491143,303.566364,255.390000,304.140000Z" fill="url(#s7-fill)" stroke="none" stroke-width="1"/><path id="s9" d="M238.510000,310.600000C242.309726,312.307851,246.264501,313.647317,250.320000,314.600000C254.320000,315.520000,258.850000,312.720000,260.210000,308.890000Q273.650000,270.770000,285.990000,232.270000C287.230000,228.390000,285.320000,223.430000,281.570000,221.740000C277.770274,220.032149,273.815499,218.692683,269.760000,217.740000C265.760000,216.820000,261.240000,219.620000,259.870000,223.450000Q246.430000,261.570000,234.090000,300.070000C232.860000,304,234.760000,308.910000,238.510000,310.600000Z" fill="url(#s9-fill)" stroke="none" stroke-width="1"/><path id="s11" d="M259.590000,312.400000C261.762811,314.269072,264.579325,315.216282,267.440000,315.040000C268.141180,314.955019,268.745543,314.506498,269.030000,313.860000Q282.820000,273.860000,296.030000,233.580000C296.192091,232.892210,295.979210,232.169933,295.470000,231.680000C293.297189,229.810928,290.480675,228.863718,287.620000,229.040000C286.918820,229.124981,286.314457,229.573502,286.030000,230.220000Q272.240000,270.220000,259.030000,310.500000C258.867909,311.187790,259.080790,311.910067,259.590000,312.400000Z" fill="url(#s11-fill)" stroke="none" stroke-width="1"/><path id="s13" d="M103.200000,235.830000C99.174998,235.982295,95.783202,232.854157,95.610000,228.830000L94.610000,205.170000L90.340000,205.170000C89.829401,209.353971,89.572266,213.564989,89.570000,217.780000C89.552532,230.837462,92.012705,243.779673,96.820000,255.920000L120.180000,255.920000L120.180000,235.140000Z" fill="url(#s13-fill)" stroke="none" stroke-width="1"/><path id="s15" d="M144.870000,304.140000C135.676614,309.544503,125.460823,312.980414,114.870000,314.230000C113.807533,314.315012,112.806484,313.722391,112.370000,312.750000Q99.460000,279.870000,89.870000,245.870000C89.630621,244.830914,90.071143,243.753636,90.970000,243.180000C100.163386,237.775497,110.379177,234.339586,120.970000,233.090000C122.032467,233.004988,123.033516,233.597609,123.470000,234.570000Q136.380000,267.450000,145.970000,301.450000C146.209379,302.489086,145.768857,303.566364,144.870000,304.140000Z" fill="url(#s15-fill)" stroke="none" stroke-width="1"/><path id="s17" d="M161.740000,310.600000C157.940274,312.307851,153.985499,313.647317,149.930000,314.600000C145.930000,315.520000,141.400000,312.720000,140.040000,308.890000Q126.600000,270.770000,114.260000,232.270000C113.020000,228.390000,114.930000,223.430000,118.680000,221.740000C122.479726,220.032149,126.434501,218.692683,130.490000,217.740000C134.490000,216.820000,139.010000,219.620000,140.380000,223.450000Q153.820000,261.570000,166.160000,300.070000C167.400000,304,165.500000,308.910000,161.740000,310.600000Z" fill="url(#s17-fill)" stroke="none" stroke-width="1"/><path id="s19" d="M140.670000,312.400000C138.497189,314.269072,135.680675,315.216282,132.820000,315.040000C132.118820,314.955019,131.514457,314.506498,131.230000,313.860000Q117.440000,273.860000,104.230000,233.580000C104.067909,232.892210,104.280790,232.169933,104.790000,231.680000C106.962811,229.810928,109.779325,228.863718,112.640000,229.040000C113.341180,229.124981,113.945543,229.573502,114.230000,230.220000Q128.020000,270.220000,141.230000,310.500000C141.392091,311.187790,141.179210,311.910067,140.670000,312.400000Z" fill="url(#s19-fill)" stroke="none" stroke-width="1"/><path id="s21" d="M100.870000,216.330000L100.870000,197.490000C100.870000,143.968085,144.258085,100.580000,197.780000,100.580000L202.210000,100.580000C255.731915,100.580000,299.120000,143.968085,299.120000,197.490000L299.120000,216.330000C299.125352,218.036608,300.014718,219.618544,301.470000,220.510000Q306.350000,223.510000,310.920000,226.970000C311.456909,227.371500,312.174580,227.435191,312.773805,227.134520C313.373030,226.833849,313.750948,226.220427,313.750000,225.550000L313.750000,197.490000C313.750000,136.140000,263.550000,85.940000,202.200000,85.940000L197.770000,85.940000C136.420000,85.940000,86.220000,136.140000,86.220000,197.490000L86.220000,225.550000C86.204493,226.229443,86.579386,226.857765,87.184677,227.166804C87.789969,227.475844,88.518756,227.411021,89.060000,227Q93.630000,223.570000,98.510000,220.540000C99.978222,219.645412,100.872961,218.049289,100.870000,216.330000Z" fill="url(#s21-fill)" stroke="none" stroke-width="1"/><path id="s23" d="M280.900000,144.730000C279.343833,144.714379,277.883669,143.975055,276.950000,142.730000C259.260225,119.583973,231.791884,106.006944,202.660000,106.010000L198.210000,106.010000C169.078116,106.006944,141.609775,119.583973,123.920000,142.730000C122.406232,144.692584,119.683149,145.249965,117.520000,144.040000L104.830000,136.840000C104.714647,136.771315,104.604364,136.694451,104.500000,136.610000C104.037518,136.289874,103.894566,135.670414,104.170000,135.180000C125.001772,103.815285,160.137562,84.945091,197.790000,84.900000L202.220000,84.900000C240.047102,84.932570,275.325108,103.974953,296.110000,135.580000C296.262415,135.810913,296.312349,136.094654,296.247922,136.363728C296.183496,136.632802,296.010469,136.863158,295.770000,137L283.360000,144C282.617465,144.453187,281.769541,144.704807,280.900000,144.730000Z" fill="url(#s23-fill)" stroke="none" stroke-width="1"/></g></svg>