<svg id="s1" xmlns="http://www.w3.org/2000/svg" xmlns:xlink="http://www.w3.org/1999/xlink" viewBox="0 0 100 100"><path id="s3" d="M50,18.430000C34.831390,18.429333,21.809259,29.223084,18.995988,44.128528C16.182717,59.033972,24.374682,73.831696,38.500000,79.360000C38.080120,76.351989,38.113828,73.298010,38.600000,70.300000C39.170000,67.830000,42.290000,54.620000,42.290000,54.620000C41.657304,53.145351,41.340502,51.554529,41.360000,49.950000C41.360000,45.560000,43.900000,42.290000,47.070000,42.290000C49.770000,42.290000,51.070000,44.290000,51.070000,46.730000C51.070000,49.430000,49.360000,53.480000,48.450000,57.240000C48.073149,58.660480,48.399266,60.175522,49.327189,61.315145C50.255111,62.454768,51.672623,63.081157,53.140000,63C58.750000,63,63.060000,57.080000,63.060000,48.560000C63.060000,41,57.630000,35.730000,49.870000,35.730000C40.870000,35.730000,35.620000,42.450000,35.620000,49.410000C35.644312,51.986953,36.476760,54.491294,38,56.570000C38.226392,56.814646,38.306294,57.160888,38.210000,57.480000C37.980000,58.480000,37.430000,60.620000,37.330000,61.060000C37.230000,61.500000,36.860000,61.760000,36.270000,61.480000C32.320000,59.640000,29.860000,53.900000,29.860000,49.250000C29.860000,39.310000,37.080000,30.170000,50.710000,30.170000C61.580000,30.160000,70.100000,38,70.100000,48.390000C70.100000,59.270000,63.240000,68,53.740000,68C50.550000,68,47.530000,66.340000,46.520000,64.370000L44.520000,71.870000C43.588663,74.792556,42.270288,77.577286,40.600000,80.150000C52.455671,83.831223,65.368285,80.222645,73.597808,70.928384C81.827330,61.634123,83.846004,48.379599,78.756469,37.056836C73.666933,25.734073,62.414028,18.445069,50,18.430000Z" fill="rgb(84,131,204)" stroke="none" stroke-width="1"/></svg>