<svg id="s1" xmlns="http://www.w3.org/2000/svg" xmlns:xlink="http://www.w3.org/1999/xlink" viewBox="0 0 400 400"><defs><linearGradient id="s7-fill" x1="11.780000" y1="-12.940000" x2="26.840000" y2="23.260000" spreadMethod="pad" gradientUnits="userSpaceOnUse"><stop id="s7-fill-0" offset="0%" stop-color="rgb(223,235,240)"/><stop id="s7-fill-1" offset="2%" stop-color="rgb(221,233,239)"/><stop id="s7-fill-2" offset="43%" stop-color="rgb(168,194,217)"/><stop id="s7-fill-3" offset="63%" stop-color="rgb(148,179,209)"/><stop id="s7-fill-4" offset="100%" stop-color="rgb(143,143,196)"/></linearGradient><linearGradient id="s9-fill" x1="129.980000" y1="105.770000" x2="272.220000" y2="360.880000" spreadMethod="pad" gradientUnits="userSpaceOnUse"><stop id="s9-fill-0" offset="0%" stop-color="rgb(223,235,240)"/><stop id="s9-fill-1" offset="2%" stop-color="rgb(221,233,239)"/><stop id="s9-fill-2" offset="43%" stop-color="rgb(168,194,217)"/><stop id="s9-fill-3" offset="63%" stop-color="rgb(148,179,209)"/><stop id="s9-fill-4" offset="100%" stop-color="rgb(143,143,196)"/></linearGradient><linearGradient id="s11-fill" x1="125.700000" y1="94.990000" x2="299.500000" y2="297.760000" spreadMethod="pad" gradientUnits="userSpaceOnUse"><stop id="s11-fill-0" offset="0%" stop-color="rgb(225,236,244)"/><stop id="s11-fill-1" offset="4%" stop-color="rgb(223,235,243)"/><stop id="s11-fill-2" offset="57%" stop-color="rgb(203,218,232)"/><stop id="s11-fill-3" offset="100%" stop-color="rgb(187,187,207)"/></linearGradient><linearGradient id="s13-fill" x1="203.210000" y1="92.440000" x2="245.210000" y2="193.440000" spreadMethod="pad" gradientUnits="userSpaceOnUse"><stop id="s13-fill-0" offset="0%" stop-color="rgb(223,235,240)"/><stop id="s13-fill-1" offset="2%" stop-color="rgb(221,233,239)"/><stop id="s13-fill-2" offset="43%" stop-color="rgb(168,194,217)"/><stop id="s13-fill-3" offset="63%" stop-color="rgb(148,179,209)"/><stop id="s13-fill-4" offset="100%" stop-color="rgb(143,143,196)"/></linearGradient><linearGradient id="s15-fill" x1="214.050000" y1="112.510000" x2="254.850000" y2="160.110000" spreadMethod="pad" gradientUnits="userSpaceOnUse"><stop id="s15-fill-0" offset="0%" stop-color="rgb(225,236,244)"/><stop id="s15-fill-1" offset="4%" stop-color="rgb(223,235,243)"/><stop id="s15-fill-2" offset="57%" stop-color="rgb(203,218,232)"/><stop id="s15-fill-3" offset="100%" stop-color="rgb(187,187,207)"/></linearGradient><linearGradient id="s17-fill" x1="14.110000" y1="18.360000" x2="4.930000" y2="-2.900000" spreadMethod="pad" gradientUnits="userSpaceOnUse"><stop id="s17-fill-0" offset="90%" stop-color="rgb(247,247,247)"/><stop id="s17-fill-1" offset="99%" stop-color="rgb(228,228,230)"/></linearGradient><linearGradient id="s19-fill" x1="1.620000" y1="3.750000" x2="-2.070000" y2="-4.810000" spreadMethod="pad" gradientUnits="userSpaceOnUse"><stop id="s19-fill-0" offset="90%" stop-color="rgb(247,247,247)"/><stop id="s19-fill-1" offset="99%" stop-color="rgb(228,228,230)"/></linearGradient><linearGradient id="s23-fill" x1="31.770000" y1="73.620000" x2="-40.700000" y2="-94.350000" spreadMethod="pad" gradientUnits="userSpaceOnUse"><stop id="s23-fill-0" offset="2%" stop-color="rgb(239,239,239)"/><stop id="s23-fill-1" offset="9%" stop-color="rgb(228,228,230)"/><stop id="s23-fill-2" offset="90%" stop-color="rgb(247,247,247)"/><stop id="s23-fill-3" offset="99%" stop-color="rgb(228,228,230)"/></linearGradient><linearGradient id="s25-fill" x1="30.340000" y1="90.800000" x2="-49.660000" y2="-148.700000" spreadMethod="pad" gradientUnits="userSpaceOnUse"><stop id="s25-fill-0" offset="0%" stop-color="rgb(183,205,223)"/><stop id="s25-fill-1" offset="27%" stop-color="rgb(168,194,217)"/><stop id="s25-fill-2" offset="71%" stop-color="rgb(148,179,209)"/></linearGradient><linearGradient id="s27-fill" x1="26.440000" y1="61.270000" x2="-33.870000" y2="-78.530000" spreadMethod="pad" gradientUnits="userSpaceOnUse"><stop id="s27-fill-0" offset="2%" stop-color="rgb(239,239,239)"/><stop id="s27-fill-1" offset="9%" stop-color="rgb(228,228,230)"/><stop id="s27-fill-2" offset="90%" stop-color="rgb(247,247,247)"/><stop id="s27-fill-3" offset="99%" stop-color="rgb(228,228,230)"/></linearGradient><linearGradient id="s29-fill" x1="-32.600000" y1="-51.410000" x2="39.070000" y2="61.590000" spreadMethod="pad" gradientUnits="userSpaceOnUse"><stop id="s29-fill-0" offset="0%" stop-color="rgb(71,73,89)"/><stop id="s29-fill-1" offset="100%" stop-color="rgb(46,48,56)"/></linearGradient><linearGradient id="s31-fill" x1="21.890000" y1="27.240000" x2="-20.140000" y2="-25.080000" spreadMethod="pad" gradientUnits="userSpaceOnUse"><stop id="s31-fill-0" offset="0%" stop-color="rgb(71,73,89)"/><stop id="s31-fill-1" offset="100%" stop-color="rgb(46,48,56)"/></linearGradient><linearGradient id="s33-fill" x1="-10.160000" y1="-15.170000" x2="12.180000" y2="18.160000" spreadMethod="pad" gradientUnits="userSpaceOnUse"><stop id="s33-fill-0" offset="0%" stop-color="rgb(71,73,89)"/><stop id="s33-fill-1" offset="100%" stop-color="rgb(46,48,56)"/></linearGradient><linearGradient id="s35-fill" x1="0" y1="3.560000" x2="0" y2="-4.110000" spreadMethod="pad" gradientUnits="userSpaceOnUse"><stop id="s35-fill-0" offset="2%" stop-color="rgb(234,211,207)"/><stop id="s35-fill-1" offset="14%" stop-color="rgb(234,211,207)"/><stop id="s35-fill-2" offset="90%" stop-color="rgb(242,218,214)"/></linearGradient><linearGradient id="s37-fill" x1="0" y1="8.950000" x2="0" y2="-10.300000" spreadMethod="pad" gradientUnits="userSpaceOnUse"><stop id="s37-fill-0" offset="2%" stop-color="rgb(234,211,207)"/><stop id="s37-fill-1" offset="14%" stop-color="rgb(234,211,207)"/><stop id="s37-fill-2" offset="90%" stop-color="rgb(242,218,214)"/></linearGradient></defs><g id="s3"><g id="s5"><rect id="s7" width="40.540000" height="14.940000" rx="3.910000" ry="3.910000" transform="translate(107.120000,141.870000)" fill="url(#s7-fill)" stroke="none" stroke-width="1"/><path id="s9" d="M105.800000,152.500000L294.200000,152.500000C303.180230,152.500000,311.792654,156.067383,318.142636,162.417364C324.492617,168.767346,328.060000,177.379770,328.060000,186.360000L328.060000,296.250000C328.060000,303.981986,321.791986,310.250000,314.060000,310.250000L105.800000,310.250000C96.819770,310.250000,88.207346,306.682617,81.857364,300.332636C75.507383,293.982654,71.940000,285.370230,71.940000,276.390000L71.940000,186.390000C71.932039,177.404573,75.495907,168.784440,81.846752,162.427969C88.197596,156.071497,96.814569,152.499996,105.800000,152.500000Z" fill="url(#s9-fill)" stroke="none" stroke-width="1"/><path id="s11" d="M71.940000,186.360000L71.940000,189.500000L132.790000,189.500000C147.020000,189.500000,142.940000,177.700000,161.200000,177.700000L326.940000,177.700000C323.003509,162.847804,309.565014,152.504186,294.200000,152.500000L105.800000,152.500000C96.819770,152.500000,88.207346,156.067383,81.857364,162.417364C75.507383,168.767346,71.940000,177.379770,71.940000,186.360000Z" fill="url(#s11-fill)" stroke="none" stroke-width="1"/><path id="s13" d="M250.090000,117.490000L211.930000,117.490000C199.760000,117.490000,189.330000,124.270000,187.150000,133.610000L179.380000,166.780000C179.380000,166.900000,179.470000,167.010000,179.630000,167.010000L282.390000,167.010000C282.550000,167.010000,282.670000,166.900000,282.640000,166.780000L274.870000,133.610000C272.680000,124.270000,262.250000,117.490000,250.090000,117.490000Z" fill="url(#s13-fill)" stroke="none" stroke-width="1"/><path id="s15" d="M257.300000,135.340000L257.300000,132.920000C257.300000,127.300000,253.300000,122.740000,248.380000,122.740000L213.230000,122.740000C208.300000,122.740000,204.310000,127.300000,204.310000,132.920000L204.310000,135.340000Z" fill="url(#s15-fill)" stroke="none" stroke-width="1"/><rect id="s17" width="20.190000" height="18.080000" rx="5.200000" ry="5.200000" transform="translate(121.150000,161.960000)" fill="url(#s17-fill)" stroke="none" stroke-width="1"/><circle id="s19" r="4.290000" transform="translate(314.560000,191.730000)" fill="url(#s19-fill)" stroke="none" stroke-width="1"/></g><g id="s21"><circle id="s23" r="84.220000" transform="translate(229.960000,232.300000)" fill="url(#s23-fill)" stroke="rgb(230,230,230)" stroke-width="1" stroke-miterlimit="10"/><circle id="s25" r="79.390000" transform="translate(229.960000,232.300000)" fill="url(#s25-fill)" stroke="none" stroke-width="1"/><circle id="s27" r="70.100000" transform="translate(229.960000,232.300000)" fill="url(#s27-fill)" stroke="rgb(230,230,230)" stroke-width="1" stroke-miterlimit="10"/><circle id="s29" r="54.590000" transform="translate(229.960000,232.300000)" fill="url(#s29-fill)" stroke="none" stroke-width="1"/><circle id="s31" r="25.930000" transform="translate(229.960000,232.300000)" fill="url(#s31-fill)" stroke="none" stroke-width="1"/><circle id="s33" r="13.210000" transform="translate(229.960000,232.300000)" fill="url(#s33-fill)" stroke="none" stroke-width="1"/><circle id="s35" r="4.130000" transform="translate(224.910000,228.520000)" fill="url(#s35-fill)" fill-opacity="0.3" stroke="none" stroke-width="1"/><circle id="s37" r="10.370000" transform="translate(203.690000,209.350000)" fill="url(#s37-fill)" fill-opacity="0.3" stroke="none" stroke-width="1"/></g></g></svg>