<svg id="eXp2NL6Fsdn1" xmlns="http://www.w3.org/2000/svg" xmlns:xlink="http://www.w3.org/1999/xlink" viewBox="0 0 400 400" shape-rendering="geometricPrecision" text-rendering="geometricPrecision"><defs><path id="eXp2NL6Fsdn2" d="M242.600000,151.100000L167.800000,151.100000C164.800000,151.100000,162.300000,153.600000,162.300000,156.600000L162.300000,175.400000C162.300000,178.400000,164.800000,180.900000,167.800000,180.900000L242.600000,180.900000C245.600000,180.900000,248.100000,178.400000,248.100000,175.400000L248.100000,156.600000C248.100000,153.500000,245.700000,151.100000,242.600000,151.100000Z"/><path id="eXp2NL6Fsdn3" d="M147.800000,151.100000L75.400000,151.100000C73,151.100000,71,152.500000,70.200000,154.800000L63.800000,173.600000C63.200000,175.300000,63.500000,177.100000,64.500000,178.600000C65.600000,180.100000,67.100000,180.900000,69,180.900000L147.800000,180.900000C150.800000,180.900000,153.300000,178.400000,153.300000,175.400000L153.300000,156.600000C153.300000,153.500000,150.800000,151.100000,147.800000,151.100000L147.800000,151.100000Z"/><path id="eXp2NL6Fsdn4" d="M267.100000,151.100000L316.100000,151.100000C318.500000,151.100000,321.100000,152.700000,322.200000,154.800000L331.700000,173.600000C333.300000,176.800000,332.700000,180.900000,326.500000,180.900000L267.100000,180.900000C264.100000,180.900000,261.600000,178.400000,261.600000,175.400000L261.600000,156.600000C261.700000,153.500000,264.100000,151.100000,267.100000,151.100000L267.100000,151.100000Z"/><path id="eXp2NL6Fsdn5" d="M251.600000,129.400000L87.500000,129.400000C86.200000,129.400000,85.100000,128.500000,84.800000,127.200000L83.600000,120.900000C83.400000,120.100000,83.600000,119.300000,84.200000,118.600000C84.700000,118,85.500000,117.600000,86.300000,117.600000L252.900000,117.600000C253.700000,117.600000,254.500000,117.900000,255,118.600000C255.500000,119.300000,255.700000,120,255.600000,120.900000L254.300000,127.200000C254,128.500000,252.900000,129.400000,251.600000,129.400000L251.600000,129.400000ZM218.400000,120.100000L213.500000,120.100000C212.400000,120.100000,211.400000,121,211.400000,122.200000L211.400000,122.200000C211.400000,123.300000,212.300000,124.300000,213.500000,124.300000L218.400000,124.300000C219.500000,124.300000,220.500000,123.400000,220.500000,122.200000L220.500000,122.200000C220.400000,121.100000,219.500000,120.100000,218.400000,120.100000ZM125.800000,120.100000L120.900000,120.100000C119.800000,120.100000,118.800000,121,118.800000,122.200000L118.800000,122.200000C118.800000,123.300000,119.700000,124.300000,120.900000,124.300000L125.800000,124.300000C126.900000,124.300000,127.900000,123.400000,127.900000,122.200000L127.900000,122.200000C127.900000,121.100000,127,120.100000,125.800000,120.100000ZM246.100000,127C248,127,249.500000,125.500000,249.500000,123.600000C249.500000,121.700000,248,120.200000,246.100000,120.200000L232.400000,120.200000C230.500000,120.200000,229,121.700000,229,123.600000C229,125.500000,230.500000,127,232.400000,127L246.100000,127ZM109.200000,127C111.100000,127,112.600000,125.500000,112.600000,123.600000C112.600000,121.700000,111.100000,120.200000,109.200000,120.200000L95.600000,120.200000C93.700000,120.200000,92.200000,121.700000,92.200000,123.600000C92.200000,125.500000,93.700000,127,95.600000,127L109.200000,127ZM138.800000,120.100000C136.900000,120.100000,135.400000,121.600000,135.400000,123.500000C135.400000,125.400000,136.900000,126.900000,138.800000,126.900000L159.300000,126.900000C161.200000,126.900000,162.700000,125.400000,162.700000,123.500000C162.700000,121.600000,161.200000,120.100000,159.300000,120.100000L138.800000,120.100000ZM179.900000,120.100000C178,120.100000,176.500000,121.600000,176.500000,123.500000C176.500000,125.400000,178,126.900000,179.900000,126.900000L200.400000,126.900000C202.300000,126.900000,203.800000,125.400000,203.800000,123.500000C203.800000,121.600000,202.300000,120.100000,200.400000,120.100000L179.900000,120.100000Z"/><linearGradient id="eXp2NL6Fsdn24-fill" x1="197.743134" y1="144.849654" x2="194.766790" y2="191.011437" spreadMethod="pad" gradientUnits="userSpaceOnUse"><stop id="eXp2NL6Fsdn24-fill-0" offset="0%" stop-color="rgb(255,167,79)"/><stop id="eXp2NL6Fsdn24-fill-1" offset="100%" stop-color="rgb(251,204,129)"/></linearGradient><linearGradient id="eXp2NL6Fsdn25-fill" x1="198.421717" y1="188.377084" x2="197.874140" y2="258.105758" spreadMethod="pad" gradientUnits="userSpaceOnUse"><stop id="eXp2NL6Fsdn25-fill-0" offset="0%" stop-color="rgb(255,158,84)"/><stop id="eXp2NL6Fsdn25-fill-1" offset="100%" stop-color="rgb(219,110,27)"/></linearGradient><linearGradient id="eXp2NL6Fsdn26-fill" x1="189.647734" y1="149.336249" x2="189.647734" y2="132.417311" spreadMethod="pad" gradientUnits="userSpaceOnUse"><stop id="eXp2NL6Fsdn26-fill-0" offset="0%" stop-color="rgb(230,161,58)"/><stop id="eXp2NL6Fsdn26-fill-1" offset="41.960000%" stop-color="rgb(253,214,141)"/><stop id="eXp2NL6Fsdn26-fill-2" offset="78.040000%" stop-color="rgb(255,217,146)"/><stop id="eXp2NL6Fsdn26-fill-3" offset="100%" stop-color="rgb(255,240,212)"/></linearGradient><linearGradient id="eXp2NL6Fsdn34-fill" x1="9.568305" y1="10.686520" x2="14.089246" y2="-0.979412" spreadMethod="pad" gradientUnits="userSpaceOnUse"><stop id="eXp2NL6Fsdn34-fill-0" offset="0%" stop-color="rgba(255,255,255,0)"/><stop id="eXp2NL6Fsdn34-fill-1" offset="100%" stop-color="rgb(255,255,255)"/></linearGradient><linearGradient id="eXp2NL6Fsdn40-fill" x1="9.465200" y1="9.867608" x2="6.565399" y2="-0.143328" spreadMethod="pad" gradientUnits="userSpaceOnUse"><stop id="eXp2NL6Fsdn40-fill-0" offset="0%" stop-color="rgba(255,255,255,0)"/><stop id="eXp2NL6Fsdn40-fill-1" offset="100%" stop-color="rgb(255,255,255)"/></linearGradient><linearGradient id="eXp2NL6Fsdn48-fill" x1="5.526821" y1="6.811905" x2="5.737314" y2="-0.034274" spreadMethod="pad" gradientUnits="userSpaceOnUse"><stop id="eXp2NL6Fsdn48-fill-0" offset="0%" stop-color="rgba(255,255,255,0)"/><stop id="eXp2NL6Fsdn48-fill-1" offset="100%" stop-color="rgb(255,255,255)"/></linearGradient><linearGradient id="eXp2NL6Fsdn74-fill" x1="3.974282" y1="58.479954" x2="61.155307" y2="27.963356" spreadMethod="pad" gradientUnits="userSpaceOnUse"><stop id="eXp2NL6Fsdn74-fill-0" offset="0%" stop-color="rgba(255,255,255,0)"/><stop id="eXp2NL6Fsdn74-fill-1" offset="100%" stop-color="rgba(255,255,255,0.2)"/></linearGradient><linearGradient id="eXp2NL6Fsdn78-fill" x1="3.967120" y1="58.525801" x2="61.148146" y2="28.010675" spreadMethod="pad" gradientUnits="userSpaceOnUse"><stop id="eXp2NL6Fsdn78-fill-0" offset="0%" stop-color="rgba(255,255,255,0)"/><stop id="eXp2NL6Fsdn78-fill-1" offset="100%" stop-color="rgba(255,255,255,0.2)"/></linearGradient><linearGradient id="eXp2NL6Fsdn82-fill" x1="4.002169" y1="58.483108" x2="61.183195" y2="27.967982" spreadMethod="pad" gradientUnits="userSpaceOnUse"><stop id="eXp2NL6Fsdn82-fill-0" offset="0%" stop-color="rgba(255,255,255,0)"/><stop id="eXp2NL6Fsdn82-fill-1" offset="100%" stop-color="rgba(255,255,255,0.2)"/></linearGradient><linearGradient id="eXp2NL6Fsdn95-fill" x1="3.938516" y1="58.479954" x2="61.121505" y2="27.963356" spreadMethod="pad" gradientUnits="userSpaceOnUse"><stop id="eXp2NL6Fsdn95-fill-0" offset="0%" stop-color="rgba(255,255,255,0)"/><stop id="eXp2NL6Fsdn95-fill-1" offset="100%" stop-color="rgba(255,255,255,0.2)"/></linearGradient><linearGradient id="eXp2NL6Fsdn99-fill" x1="3.933317" y1="58.525801" x2="61.114343" y2="28.010675" spreadMethod="pad" gradientUnits="userSpaceOnUse"><stop id="eXp2NL6Fsdn99-fill-0" offset="0%" stop-color="rgba(255,255,255,0)"/><stop id="eXp2NL6Fsdn99-fill-1" offset="100%" stop-color="rgba(255,255,255,0.2)"/></linearGradient><linearGradient id="eXp2NL6Fsdn103-fill" x1="4.005097" y1="58.483108" x2="61.186123" y2="27.967982" spreadMethod="pad" gradientUnits="userSpaceOnUse"><stop id="eXp2NL6Fsdn103-fill-0" offset="0%" stop-color="rgba(255,255,255,0)"/><stop id="eXp2NL6Fsdn103-fill-1" offset="100%" stop-color="rgba(255,255,255,0.2)"/></linearGradient><linearGradient id="eXp2NL6Fsdn116-fill" x1="4.005261" y1="58.533779" x2="61.188249" y2="28.017671" spreadMethod="pad" gradientUnits="userSpaceOnUse"><stop id="eXp2NL6Fsdn116-fill-0" offset="0%" stop-color="rgba(255,255,255,0)"/><stop id="eXp2NL6Fsdn116-fill-1" offset="100%" stop-color="rgba(255,255,255,0.2)"/></linearGradient><linearGradient id="eXp2NL6Fsdn120-fill" x1="4.008521" y1="58.525801" x2="61.190037" y2="28.010675" spreadMethod="pad" gradientUnits="userSpaceOnUse"><stop id="eXp2NL6Fsdn120-fill-0" offset="0%" stop-color="rgba(255,255,255,0)"/><stop id="eXp2NL6Fsdn120-fill-1" offset="100%" stop-color="rgba(255,255,255,0.2)"/></linearGradient><linearGradient id="eXp2NL6Fsdn124-fill" x1="4.018022" y1="58.483108" x2="61.199047" y2="27.967982" spreadMethod="pad" gradientUnits="userSpaceOnUse"><stop id="eXp2NL6Fsdn124-fill-0" offset="0%" stop-color="rgba(255,255,255,0)"/><stop id="eXp2NL6Fsdn124-fill-1" offset="100%" stop-color="rgba(255,255,255,0.2)"/></linearGradient><linearGradient id="eXp2NL6Fsdn140-fill" x1="85.990535" y1="11.782407" x2="85.924296" y2="-0.028761" spreadMethod="pad" gradientUnits="userSpaceOnUse"><stop id="eXp2NL6Fsdn140-fill-0" offset="0%" stop-color="rgba(255,255,255,0)"/><stop id="eXp2NL6Fsdn140-fill-1" offset="100%" stop-color="rgb(255,255,255)"/></linearGradient></defs><g id="eXp2NL6Fsdn6"><g id="eXp2NL6Fsdn7"><path id="eXp2NL6Fsdn8" d="M338.300000,260.800000L284.200000,260.800000C281.200000,263.600000,277.100000,264.900000,273.100000,264.900000L95,264.900000C82.200000,264.900000,66.200000,267.200000,58.700000,260.700000C46.700000,260.100000,37.700000,258.300000,37.700000,253C37.700000,252.500000,37.700000,252.100000,37.700000,251.600000L54.600000,251.600000C58.300000,251.800000,60.700000,250.700000,61.900000,248.300000C61.900000,248.300000,63.400000,245.700000,66.300000,240.500000C67.600000,237.800000,70.100000,236.500000,74,236.500000C86.500000,236.500000,99,236.500000,111.500000,236.500000C116.800000,236.400000,120.700000,237.900000,123,240.900000C123,240.900000,125.800000,245,131.500000,253.200000C133.300000,256.500000,135.800000,258.100000,138.900000,258L254.300000,258C256.500000,258.100000,258.300000,256.500000,259.800000,253.200000L269.700000,231.600000C271.800000,227.100000,276,225.200000,281.200000,225.200000C287.800000,225.200000,293.300000,225.200000,299.400000,225.200000C304.700000,225.200000,308.700000,227.400000,311.300000,231.900000C311.300000,231.900000,314.500000,238.900000,321,252.700000C323,256.800000,325.300000,258,328.100000,258L355.300000,258C350.900000,259.900000,344.500000,260.800000,338.300000,260.800000L338.300000,260.800000Z" clip-rule="evenodd" fill="rgb(0,0,0)" fill-rule="evenodd" stroke="rgb(0,0,0)" stroke-width="2.355100" stroke-miterlimit="112.486000"/><g id="eXp2NL6Fsdn9"><g id="eXp2NL6Fsdn10"><path id="eXp2NL6Fsdn11" d="M93.500000,230.900000C107.700000,230.900000,119.200000,242.400000,119.200000,256.600000C119.200000,270.800000,107.700000,282.300000,93.500000,282.300000C79.300000,282.300000,67.800000,270.800000,67.800000,256.600000C67.800000,242.400000,79.300000,230.900000,93.500000,230.900000ZM93.500000,239.200000C103.100000,239.200000,110.900000,247,110.900000,256.600000C110.900000,266.200000,103.100000,274,93.500000,274C83.900000,274,76.100000,266.200000,76.100000,256.600000C76.100000,247,83.900000,239.200000,93.500000,239.200000Z" clip-rule="evenodd" fill="rgb(26,26,26)" fill-rule="evenodd" stroke="none" stroke-width="1"/><path id="eXp2NL6Fsdn12" d="M93.500000,239.200000C103.100000,239.200000,110.900000,247,110.900000,256.600000C110.900000,266.200000,103.100000,274,93.500000,274C83.900000,274,76.100000,266.200000,76.100000,256.600000C76.100000,247,83.900000,239.200000,93.500000,239.200000Z" clip-rule="evenodd" fill="rgb(128,128,128)" fill-rule="evenodd" stroke="none" stroke-width="1"/><path id="eXp2NL6Fsdn13" d="M93.500000,241.800000C101.700000,241.800000,108.300000,248.400000,108.300000,256.600000C108.300000,264.800000,101.700000,271.400000,93.500000,271.400000C85.300000,271.400000,78.700000,264.800000,78.700000,256.600000C78.700000,248.400000,85.300000,241.800000,93.500000,241.800000Z" clip-rule="evenodd" fill="rgb(26,26,26)" fill-rule="evenodd" stroke="none" stroke-width="1"/><path id="eXp2NL6Fsdn14" d="M90.100000,246.200000L91.900000,251.800000C92.100000,252.400000,92.600000,252.700000,93.200000,252.600000C93.300000,252.600000,93.400000,252.600000,93.500000,252.600000C93.800000,252.600000,94,252.600000,94.300000,252.700000C94.900000,252.800000,95.400000,252.500000,95.700000,252L98.100000,246.700000C98.200000,246.400000,98.500000,246.100000,98.900000,246C99.200000,245.900000,99.600000,245.900000,99.900000,246.100000C101,246.700000,101.900000,247.500000,102.800000,248.400000C103,248.700000,103.200000,249,103.100000,249.400000C103.100000,249.800000,102.900000,250.100000,102.600000,250.300000L97.900000,253.700000C97.400000,254,97.300000,254.600000,97.500000,255.200000C97.600000,255.500000,97.700000,255.900000,97.800000,256.200000C97.900000,256.800000,98.300000,257.200000,98.900000,257.300000L104.700000,257.900000C105.100000,257.900000,105.400000,258.100000,105.600000,258.400000C105.800000,258.700000,105.900000,259,105.800000,259.400000C105.500000,260.600000,105.100000,261.800000,104.500000,262.900000C104.300000,263.200000,104,263.400000,103.700000,263.500000C103.300000,263.600000,103,263.500000,102.700000,263.300000L97.900000,259.800000C97.400000,259.500000,96.800000,259.500000,96.400000,259.900000C96.100000,260.100000,95.800000,260.300000,95.500000,260.500000C95,260.700000,94.700000,261.300000,94.800000,261.900000L96,267.700000C96.100000,268.100000,96,268.400000,95.800000,268.700000C95.600000,269,95.300000,269.200000,94.900000,269.200000C94.500000,269.200000,94.100000,269.300000,93.700000,269.300000C92.800000,269.300000,92,269.200000,91.200000,269C90.800000,268.900000,90.600000,268.700000,90.400000,268.400000C90.200000,268.100000,90.200000,267.700000,90.300000,267.400000L92.100000,261.800000C92.300000,261.200000,92.100000,260.700000,91.600000,260.400000C91.300000,260.200000,91,260,90.800000,259.700000C90.400000,259.300000,89.800000,259.200000,89.300000,259.500000L84.200000,262.500000C83.900000,262.700000,83.500000,262.700000,83.200000,262.600000C82.900000,262.500000,82.600000,262.300000,82.500000,261.900000C82,260.800000,81.700000,259.600000,81.500000,258.300000C81.500000,257.900000,81.600000,257.600000,81.800000,257.300000C82,257,82.400000,256.900000,82.700000,256.900000L88.600000,256.900000C89.200000,256.900000,89.700000,256.500000,89.800000,255.900000C89.900000,255.500000,90,255.200000,90.200000,254.900000C90.500000,254.400000,90.400000,253.800000,89.900000,253.400000L85.500000,249.500000C85.200000,249.300000,85.100000,248.900000,85.100000,248.600000C85.100000,248.200000,85.200000,247.900000,85.500000,247.700000C86.400000,246.900000,87.500000,246.200000,88.600000,245.700000C88.900000,245.600000,89.300000,245.500000,89.600000,245.700000C89.700000,245.600000,90,245.800000,90.100000,246.200000L90.100000,246.200000Z" clip-rule="evenodd" fill="rgb(179,179,179)" fill-rule="evenodd" stroke="none" stroke-width="1"/><path id="eXp2NL6Fsdn15" d="M93.500000,254.300000C94.800000,254.300000,95.800000,255.300000,95.800000,256.600000C95.800000,257.900000,94.800000,258.900000,93.500000,258.900000C92.200000,258.900000,91.200000,257.900000,91.200000,256.600000C91.200000,255.300000,92.200000,254.300000,93.500000,254.300000Z" clip-rule="evenodd" fill="rgb(26,26,26)" fill-rule="evenodd" stroke="none" stroke-width="1"/></g><g id="eXp2NL6Fsdn16"><path id="eXp2NL6Fsdn17" d="M290.300000,230.900000C304.500000,230.900000,316,242.400000,316,256.600000C316,270.800000,304.500000,282.300000,290.300000,282.300000C276.100000,282.300000,264.600000,270.800000,264.600000,256.600000C264.500000,242.400000,276.100000,230.900000,290.300000,230.900000ZM290.300000,239.200000C299.900000,239.200000,307.700000,247,307.700000,256.600000C307.700000,266.200000,299.900000,274,290.300000,274C280.700000,274,272.900000,266.200000,272.900000,256.600000C272.900000,247,280.700000,239.200000,290.300000,239.200000Z" clip-rule="evenodd" fill="rgb(26,26,26)" fill-rule="evenodd" stroke="none" stroke-width="1"/><path id="eXp2NL6Fsdn18" d="M290.300000,239.200000C299.900000,239.200000,307.700000,247,307.700000,256.600000C307.700000,266.200000,299.900000,274,290.300000,274C280.700000,274,272.900000,266.200000,272.900000,256.600000C272.900000,247,280.700000,239.200000,290.300000,239.200000Z" clip-rule="evenodd" fill="rgb(128,128,128)" fill-rule="evenodd" stroke="none" stroke-width="1"/><path id="eXp2NL6Fsdn19" d="M290.300000,241.800000C298.500000,241.800000,305.100000,248.400000,305.100000,256.600000C305.100000,264.800000,298.500000,271.400000,290.300000,271.400000C282.100000,271.400000,275.500000,264.800000,275.500000,256.600000C275.500000,248.400000,282.100000,241.800000,290.300000,241.800000Z" clip-rule="evenodd" fill="rgb(26,26,26)" fill-rule="evenodd" stroke="none" stroke-width="1"/><path id="eXp2NL6Fsdn20" d="M286.800000,246.200000L288.600000,251.800000C288.800000,252.400000,289.300000,252.700000,289.900000,252.600000C290,252.600000,290.100000,252.600000,290.200000,252.600000C290.500000,252.600000,290.700000,252.600000,291,252.700000C291.600000,252.800000,292.100000,252.500000,292.400000,252L294.800000,246.700000C294.900000,246.400000,295.200000,246.100000,295.600000,246C295.900000,245.900000,296.300000,245.900000,296.600000,246.100000C297.700000,246.700000,298.600000,247.500000,299.500000,248.400000C299.700000,248.700000,299.900000,249,299.800000,249.400000C299.800000,249.800000,299.600000,250.100000,299.300000,250.300000L294.600000,253.700000C294.100000,254,294,254.600000,294.200000,255.200000C294.300000,255.500000,294.400000,255.900000,294.500000,256.200000C294.600000,256.800000,295,257.200000,295.600000,257.300000L301.400000,257.900000C301.800000,257.900000,302.100000,258.100000,302.300000,258.400000C302.500000,258.700000,302.600000,259,302.500000,259.400000C302.200000,260.600000,301.800000,261.800000,301.200000,262.900000C301,263.200000,300.700000,263.400000,300.400000,263.500000C300,263.600000,299.700000,263.500000,299.400000,263.300000L294.600000,259.800000C294.100000,259.500000,293.500000,259.500000,293.100000,259.900000C292.800000,260.100000,292.500000,260.300000,292.200000,260.500000C291.700000,260.700000,291.400000,261.300000,291.500000,261.900000L292.700000,267.700000C292.800000,268.100000,292.700000,268.400000,292.500000,268.700000C292.300000,269,292,269.200000,291.600000,269.200000C291.200000,269.200000,290.800000,269.300000,290.400000,269.300000C289.500000,269.300000,288.700000,269.200000,287.900000,269C287.500000,268.900000,287.300000,268.700000,287.100000,268.400000C286.900000,268.100000,286.900000,267.700000,287,267.400000L288.800000,261.800000C289,261.200000,288.800000,260.700000,288.300000,260.400000C288,260.200000,287.700000,260,287.500000,259.700000C287.100000,259.300000,286.500000,259.200000,286,259.500000L280.900000,262.500000C280.600000,262.700000,280.200000,262.700000,279.900000,262.600000C279.600000,262.500000,279.300000,262.300000,279.200000,261.900000C278.700000,260.800000,278.400000,259.600000,278.200000,258.300000C278.200000,257.900000,278.300000,257.600000,278.500000,257.300000C278.700000,257,279.100000,256.900000,279.400000,256.900000L285.300000,256.900000C285.900000,256.900000,286.400000,256.500000,286.500000,255.900000C286.600000,255.500000,286.700000,255.200000,286.900000,254.900000C287.200000,254.400000,287.100000,253.800000,286.600000,253.400000L282.200000,249.500000C281.900000,249.300000,281.800000,248.900000,281.800000,248.600000C281.800000,248.200000,281.900000,247.900000,282.200000,247.700000C283.100000,246.900000,284.200000,246.200000,285.300000,245.700000C285.600000,245.600000,286,245.500000,286.300000,245.700000C286.500000,245.600000,286.700000,245.800000,286.800000,246.200000L286.800000,246.200000Z" clip-rule="evenodd" fill="rgb(179,179,179)" fill-rule="evenodd" stroke="none" stroke-width="1"/><path id="eXp2NL6Fsdn21" d="M290.300000,254.300000C291.600000,254.300000,292.600000,255.300000,292.600000,256.600000C292.600000,257.900000,291.600000,258.900000,290.300000,258.900000C289,258.900000,288,257.900000,288,256.600000C287.900000,255.300000,289,254.300000,290.300000,254.300000Z" clip-rule="evenodd" fill="rgb(26,26,26)" fill-rule="evenodd" stroke="none" stroke-width="1"/></g></g></g><g id="eXp2NL6Fsdn22"><g id="eXp2NL6Fsdn23"><path id="eXp2NL6Fsdn24" d="M323.100000,148.200000C326.900000,148.100000,329.200000,147.700000,330,147.200000C330.300000,147.500000,330.500000,147.900000,330.600000,148.400000C328.200000,148.900000,327.400000,150.100000,328.100000,152C328.100000,152,332.900000,161.200000,342.500000,179.700000C343.200000,181.100000,344.200000,181.900000,345.500000,182.200000C350.300000,183.400000,352,183.800000,355.100000,186.900000C355.900000,187.700000,356.100000,188.700000,355.100000,188.700000C255.900000,189.100000,149.800000,188.700000,35.700000,188.700000C34.100000,188.700000,34,186.100000,34.500000,185.100000C35.300000,183.600000,37.400000,183.300000,37.600000,182C40.800000,170,44.400000,159.200000,48.300000,149.600000C54.300000,148.300000,63.100000,148.400000,69.200000,148.400000C238.500000,148.200000,323.100000,148.200000,323.100000,148.200000L323.100000,148.200000Z" clip-rule="evenodd" fill="url(#eXp2NL6Fsdn24-fill)" fill-rule="evenodd" stroke="none" stroke-width="1"/><path id="eXp2NL6Fsdn25" d="M35.100000,188.400000L31.900000,209.600000C31.700000,212.100000,31.100000,213.700000,30.100000,214.300000C28.500000,215,27.700000,216.400000,27.600000,218.300000C27.600000,224,27.700000,229.600000,27.700000,235.300000C28,237.900000,28.500000,240,29.200000,241.500000C29.200000,241.500000,30.200000,243.900000,32.200000,248.600000C33.100000,250.900000,34.500000,251.900000,36.400000,251.700000C41.900000,251.700000,49.100000,251.700000,54.400000,251.700000C58.100000,251.900000,60.500000,250.800000,61.700000,248.400000C61.700000,248.400000,63.200000,245.800000,66.100000,240.600000C67.400000,237.900000,69.900000,236.600000,73.800000,236.600000C86.300000,236.600000,98.800000,236.600000,111.300000,236.600000C116.600000,236.500000,120.500000,238,122.800000,241C122.800000,241,125.600000,245.100000,131.300000,253.300000C133.100000,256.600000,135.600000,258.200000,138.700000,258.100000L254.100000,258.100000C256.300000,258.200000,258.100000,256.600000,259.600000,253.300000L269.500000,231.700000C271.600000,227.200000,275.800000,225.300000,281,225.300000C287.600000,225.300000,293.100000,225.300000,299.200000,225.300000C304.500000,225.300000,308.500000,227.500000,311.100000,232C311.100000,232,314.300000,239,320.800000,252.800000C322.800000,256.900000,325.100000,258.100000,327.900000,258.100000L359.700000,258.100000C364.800000,258.100000,367.300000,251.100000,367.100000,235.900000C367.100000,235,367.300000,234.100000,367.600000,233.400000C368.400000,232.200000,368.700000,230.800000,368.700000,229.200000C368.500000,222.300000,368,215.300000,367.200000,208.400000C366.900000,207.800000,366.200000,207.200000,364.900000,206.600000C363.600000,206,362.700000,204.600000,362.200000,202.400000C360.800000,196.400000,359,191.800000,356.700000,188.800000C356.600000,188.700000,356.500000,188.500000,356.400000,188.400000L35.100000,188.400000L35.100000,188.400000Z" clip-rule="evenodd" fill="url(#eXp2NL6Fsdn25-fill)" fill-rule="evenodd" stroke="none" stroke-width="1"/><path id="eXp2NL6Fsdn26" d="M69.300000,148.200000C172.100000,148.300000,258.100000,148.200000,327.300000,148.200000C331,148.200000,336.600000,141.500000,316.100000,137.800000C289.400000,133,270.400000,132.500000,255.100000,132.500000C123.500000,132.500000,76.200000,132.500000,69.400000,132.500000C56.800000,132.500000,49.900000,139,48.500000,149.400000C52.100000,148.500000,59.100000,148.200000,69.300000,148.200000L69.300000,148.200000Z" clip-rule="evenodd" fill="url(#eXp2NL6Fsdn26-fill)" fill-rule="evenodd" stroke="none" stroke-width="1"/></g><path id="eXp2NL6Fsdn27" d="M60.700000,217.600000C63.600000,217.600000,65.900000,219.900000,65.900000,222.800000C65.900000,225.700000,63.600000,228,60.700000,228C57.800000,228,55.500000,225.700000,55.500000,222.800000C55.500000,219.900000,57.900000,217.600000,60.700000,217.600000Z" clip-rule="evenodd" fill="rgb(26,26,26)" fill-rule="evenodd" stroke="none" stroke-width="1"/><path id="eXp2NL6Fsdn28" d="M62.400000,153.500000L57,153.500000C56.700000,153.500000,56.300000,153.700000,56,153.900000C55.800000,154.100000,55.700000,154.300000,55.800000,154.600000C55.900000,154.900000,56.100000,155,56.400000,155L63,155C63.200000,155,63.400000,154.900000,63.500000,154.700000C63.600000,154.500000,63.600000,154.300000,63.500000,154.100000C63.500000,154.100000,63.500000,154,63.400000,154C63.200000,153.700000,62.800000,153.500000,62.400000,153.500000L62.400000,153.500000ZM53.700000,157C53.600000,157.100000,53.500000,157.300000,53.500000,157.400000C53.400000,157.600000,53.400000,157.800000,53.500000,158C53.600000,158.200000,53.800000,158.300000,54,158.300000L62.100000,158.300000C62.400000,158.300000,62.600000,158.100000,62.700000,157.900000L62.800000,157.500000C62.900000,157.300000,62.800000,157.100000,62.700000,157C62.600000,156.800000,62.400000,156.700000,62.200000,156.700000L54.200000,156.700000C54,156.700000,53.900000,156.800000,53.700000,157ZM52.200000,160.300000C52.100000,160.400000,52.100000,160.600000,52,160.700000C51.900000,160.900000,51.900000,161.100000,52.100000,161.300000C52.200000,161.500000,52.400000,161.600000,52.600000,161.600000L61,161.600000C61.300000,161.600000,61.500000,161.400000,61.600000,161.200000L61.700000,160.800000C61.800000,160.600000,61.700000,160.400000,61.600000,160.300000C61.500000,160.100000,61.300000,160,61.100000,160L52.700000,160C52.500000,160,52.300000,160.100000,52.200000,160.300000ZM50.900000,163.700000C50.900000,163.800000,50.800000,164,50.800000,164.100000C50.700000,164.300000,50.800000,164.500000,50.900000,164.700000C51,164.900000,51.200000,165,51.400000,165L60,165C60.300000,165,60.500000,164.800000,60.600000,164.600000L60.700000,164.200000C60.800000,164,60.700000,163.800000,60.600000,163.700000C60.500000,163.500000,60.300000,163.400000,60.100000,163.400000L51.500000,163.400000C51.200000,163.200000,51,163.400000,50.900000,163.700000L50.900000,163.700000ZM49.800000,167C49.800000,167.100000,49.700000,167.300000,49.700000,167.400000C49.600000,167.600000,49.700000,167.800000,49.800000,167.900000C49.900000,168.100000,50.100000,168.100000,50.300000,168.100000L58.800000,168.100000C59.100000,168.100000,59.300000,167.900000,59.400000,167.700000L59.500000,167.300000C59.600000,167.100000,59.500000,166.900000,59.400000,166.800000C59.300000,166.600000,59.100000,166.500000,58.900000,166.500000L50.300000,166.500000C50.100000,166.500000,49.900000,166.700000,49.800000,167L49.800000,167ZM49,170.300000C49,170.400000,48.900000,170.600000,48.900000,170.700000C48.900000,170.900000,48.900000,171.100000,49,171.200000C49.100000,171.300000,49.300000,171.400000,49.500000,171.400000L57.800000,171.400000C58.100000,171.400000,58.300000,171.200000,58.400000,171L58.500000,170.600000C58.600000,170.400000,58.500000,170.200000,58.400000,170.100000C58.300000,169.900000,58.100000,169.800000,57.900000,169.800000L49.600000,169.800000C49.300000,169.800000,49,170,49,170.300000L49,170.300000ZM48.300000,173.600000C48.300000,173.700000,48.300000,173.900000,48.200000,174C48.200000,174.200000,48.200000,174.300000,48.300000,174.500000C48.400000,174.600000,48.600000,174.700000,48.800000,174.700000L56.600000,174.700000C56.900000,174.700000,57.100000,174.500000,57.200000,174.300000L57.300000,173.900000C57.400000,173.700000,57.300000,173.500000,57.200000,173.400000C57.100000,173.200000,56.900000,173.100000,56.700000,173.100000L48.800000,173.100000C48.600000,173.100000,48.400000,173.300000,48.300000,173.600000ZM48.300000,177.100000C48.400000,177.600000,48.700000,177.900000,49,177.900000L55.200000,177.900000C55.700000,177.900000,56,177.700000,56.300000,177.300000C56.400000,177.100000,56.400000,176.900000,56.300000,176.700000C56.200000,176.500000,56,176.400000,55.800000,176.400000L49,176.400000C48.800000,176.400000,48.600000,176.500000,48.500000,176.600000C48.300000,176.800000,48.200000,176.900000,48.300000,177.100000L48.300000,177.100000Z" clip-rule="evenodd" fill="rgb(0,51,51)" fill-rule="evenodd" stroke="none" stroke-width="1"/><g id="eXp2NL6Fsdn29"><path id="eXp2NL6Fsdn30" d="M44.600000,244.700000L30.600000,244.700000C27.500000,244.700000,24.900000,247.300000,24.900000,250.400000L24.900000,250.400000C24.900000,253.500000,27.500000,256.100000,30.600000,256.100000L44.600000,256.100000C47.700000,256.100000,50.300000,253.500000,50.300000,250.400000L50.300000,250.400000C50.300000,247.200000,47.800000,244.700000,44.600000,244.700000Z" clip-rule="evenodd" fill="rgb(77,77,77)" fill-rule="evenodd" stroke="none" stroke-width="1"/><g id="eXp2NL6Fsdn31" style="" clip-rule="evenodd" mask="url(#eXp2NL6Fsdn33)"><path id="eXp2NL6Fsdn32" d="M44.600000,244.700000L30.600000,244.700000C29.500000,244.700000,28.500000,245,27.600000,245.600000C27,246.500000,26.600000,247.600000,26.600000,248.800000L26.600000,248.800000C26.600000,251.900000,29.200000,254.500000,32.300000,254.500000L46.300000,254.500000C47.400000,254.500000,48.400000,254.200000,49.300000,253.600000C49.900000,252.700000,50.300000,251.600000,50.300000,250.400000L50.300000,250.400000C50.300000,247.200000,47.800000,244.700000,44.600000,244.700000Z" fill="rgb(128,128,128)" fill-rule="evenodd" stroke="none" stroke-width="1"/><mask id="eXp2NL6Fsdn33" mask-type="luminance"><rect id="eXp2NL6Fsdn34" width="23.700000" height="9.800000" rx="0" ry="0" transform="matrix(1 0 0 1 26.60000000000000 244.69999999999999)" clip-rule="evenodd" fill="url(#eXp2NL6Fsdn34-fill)" fill-rule="evenodd" stroke="none" stroke-width="1"/></mask></g></g><g id="eXp2NL6Fsdn35"><path id="eXp2NL6Fsdn36" d="M369.300000,244.700000L363,244.700000C359.900000,244.700000,357.300000,247.300000,357.300000,250.400000L357.300000,250.400000C357.300000,253.500000,359.900000,256.100000,363,256.100000L369.300000,256.100000C372.400000,256.100000,375,253.500000,375,250.400000L375,250.400000C375,247.200000,372.400000,244.700000,369.300000,244.700000Z" clip-rule="evenodd" fill="rgb(77,77,77)" fill-rule="evenodd" stroke="none" stroke-width="1"/><g id="eXp2NL6Fsdn37" style="" clip-rule="evenodd" mask="url(#eXp2NL6Fsdn39)"><path id="eXp2NL6Fsdn38" d="M369.300000,244.700000L363,244.700000C359.900000,244.700000,357.300000,247.300000,357.300000,250.400000L357.300000,250.400000C357.300000,251.600000,357.700000,252.700000,358.300000,253.600000C359.200000,254.200000,360.200000,254.500000,361.400000,254.500000L367.700000,254.500000C370.800000,254.500000,373.400000,251.900000,373.400000,248.800000L373.400000,248.800000C373.400000,247.600000,373,246.500000,372.400000,245.600000C371.500000,245,370.400000,244.700000,369.300000,244.700000L369.300000,244.700000Z" fill="rgb(128,128,128)" fill-rule="evenodd" stroke="none" stroke-width="1"/><mask id="eXp2NL6Fsdn39" mask-type="luminance"><rect id="eXp2NL6Fsdn40" width="16.100000" height="9.800000" rx="0" ry="0" transform="matrix(1 0 0 1 357.30000000000001 244.69999999999999)" clip-rule="evenodd" fill="url(#eXp2NL6Fsdn40-fill)" fill-rule="evenodd" stroke="none" stroke-width="1"/></mask></g></g><g id="eXp2NL6Fsdn41"><path id="eXp2NL6Fsdn42" d="M364.300000,221C365.500000,219.900000,366.200000,218.200000,366.100000,216.400000L366.100000,216.400000C366,214.500000,365.200000,212.900000,363.900000,211.900000L364.300000,221L364.300000,221Z" clip-rule="evenodd" fill="rgb(255,255,204)" fill-rule="evenodd" stroke="none" stroke-width="1"/><path id="eXp2NL6Fsdn43" d="M362.200000,223.100000C363,222.900000,363.800000,222.400000,364.400000,221.800000L364,211C363.300000,210.500000,362.600000,210.100000,361.700000,209.900000L362.200000,223.100000L362.200000,223.100000Z" clip-rule="evenodd" fill="rgb(51,51,51)" fill-rule="evenodd" stroke="none" stroke-width="1"/></g><g id="eXp2NL6Fsdn44"><g id="eXp2NL6Fsdn45" style="" clip-rule="evenodd" mask="url(#eXp2NL6Fsdn47)"><path id="eXp2NL6Fsdn46" d="M271,196.100000L266.600000,196.100000C264.700000,196.100000,263.200000,197.600000,263.200000,199.500000L263.200000,199.500000C263.200000,201.400000,264.700000,202.900000,266.600000,202.900000L271,202.900000C272.900000,202.900000,274.400000,201.400000,274.400000,199.500000L274.400000,199.500000C274.400000,197.600000,272.900000,196.100000,271,196.100000Z" fill="rgb(158,61,29)" fill-rule="evenodd" stroke="none" stroke-width="1"/><mask id="eXp2NL6Fsdn47" mask-type="luminance"><rect id="eXp2NL6Fsdn48" width="11.300000" height="6.900000" rx="0" ry="0" transform="matrix(1 0 0 1 263.10000000000002 196.09999999999999)" clip-rule="evenodd" fill="url(#eXp2NL6Fsdn48-fill)" fill-rule="evenodd" stroke="none" stroke-width="1"/></mask></g><path id="eXp2NL6Fsdn49" d="M271.500000,198.400000L263.800000,198.400000L261.100000,198.400000L260,198.400000C259.200000,198.400000,258.600000,199,258.600000,199.800000L258.600000,199.800000C258.600000,200.600000,259.200000,201.200000,260,201.200000L263.800000,201.200000C264.300000,201.200000,264.700000,201,264.900000,200.600000L271.500000,200.600000C272.100000,200.600000,272.600000,200.100000,272.600000,199.500000L272.600000,199.500000C272.600000,198.900000,272.100000,198.400000,271.500000,198.400000Z" clip-rule="evenodd" fill="rgb(77,77,77)" fill-rule="evenodd" stroke="none" stroke-width="1"/></g><path id="eXp2NL6Fsdn50" d="M34.900000,190L33.300000,189.900000C32.600000,189.900000,32,190.400000,31.900000,191.100000L30.900000,208.900000C30.900000,209.700000,31.200000,210.500000,31.700000,211.100000C31.800000,210.700000,31.800000,210.200000,31.900000,209.600000L34.900000,190L34.900000,190Z" clip-rule="evenodd" fill="rgb(153,0,0)" fill-rule="evenodd" stroke="none" stroke-width="1"/><g id="eXp2NL6Fsdn51"><path id="eXp2NL6Fsdn52" d="M363.200000,237.200000C363.700000,236.700000,364.100000,236,364.100000,235.200000L364.100000,235.200000C364.100000,234.400000,363.800000,233.600000,363.200000,233.200000L363.200000,237.200000L363.200000,237.200000Z" clip-rule="evenodd" fill="rgb(255,102,51)" fill-rule="evenodd" stroke="none" stroke-width="1"/><path id="eXp2NL6Fsdn53" d="M362.200000,238.100000C362.600000,238,362.900000,237.800000,363.200000,237.600000L363.200000,232.800000C362.900000,232.500000,362.600000,232.400000,362.200000,232.300000L362.200000,238.100000Z" clip-rule="evenodd" fill="rgb(51,51,51)" fill-rule="evenodd" stroke="none" stroke-width="1"/></g><g id="eXp2NL6Fsdn54"><polygon id="eXp2NL6Fsdn55" points="253,253.600000 139.800000,253.600000 139.800000,252.800000 253,252.800000" fill="rgb(220,111,28)" stroke="none" stroke-width="1"/><path id="eXp2NL6Fsdn56" d="M355.700000,187.400000C356,188,355.900000,188.500000,355.200000,188.500000C256,188.900000,149.900000,188.500000,35.800000,188.500000C34.600000,188.500000,34.200000,187,34.400000,185.800000C34.500000,186.700000,34.900000,187.500000,35.800000,187.500000C150,187.500000,256,187.900000,355.200000,187.500000C355.400000,187.500000,355.600000,187.400000,355.700000,187.400000Z" clip-rule="evenodd" fill="rgb(238,161,90)" fill-rule="evenodd" stroke="none" stroke-width="1"/><path id="eXp2NL6Fsdn57" d="M158.400000,148.200000L158.400000,181.300000L158.100000,181.400000C157.600000,181.500000,157.300000,182.100000,157,183.200000C156.700000,184.400000,156.600000,186.100000,156.700000,188.400000L155.900000,188.400000C155.800000,186.100000,155.900000,184.300000,156.200000,183C156.500000,181.800000,156.900000,181,157.500000,180.700000L157.500000,148.100000L158.400000,148.100000L158.400000,148.200000Z" fill="rgb(238,161,90)" stroke="none" stroke-width="1"/><path id="eXp2NL6Fsdn58" d="M346.400000,188.400000C345.500000,186.600000,344.400000,185.100000,343.200000,184C342,182.900000,340.700000,182,339.300000,181.600000L339.100000,181.500000L339,181.300000C337.200000,177,334.900000,171.800000,332.200000,166.300000C329.300000,160.300000,326,154,322.800000,148L258.900000,148L258.900000,181.300000L258.600000,181.400000C258.100000,181.500000,257.800000,182.100000,257.500000,183.200000C257.200000,184.400000,257.100000,186.100000,257.200000,188.400000L256.400000,188.400000C256.300000,186.100000,256.400000,184.300000,256.700000,183C257,181.800000,257.400000,181,258,180.700000L258,147.200000C279.700000,147.200000,301.500000,147.200000,323.200000,147.200000L323.300000,147.400000C326.500000,153.400000,329.900000,159.800000,332.800000,165.900000C335.400000,171.300000,337.800000,176.500000,339.600000,180.800000C341.100000,181.300000,342.400000,182.200000,343.600000,183.300000C344.800000,184.500000,345.900000,186.100000,346.900000,187.900000L346.400000,188.400000L346.400000,188.400000Z" fill="rgb(238,161,90)" stroke="none" stroke-width="1"/><path id="eXp2NL6Fsdn59" d="M257.300000,188.400000L257.300000,221.800000C260.900000,221.800000,270.300000,221.800000,279.700000,221.800000C289.400000,221.800000,299.100000,221.800000,302.100000,221.800000C304.800000,221.800000,307.200000,222.300000,309.300000,223.500000C311.300000,224.600000,313,226.400000,314.400000,228.700000L314.400000,228.700000C314.400000,228.700000,316.600000,233.700000,323.200000,247.500000C324.100000,249.500000,325.200000,250.800000,326.300000,251.600000C327.400000,252.400000,328.600000,252.600000,329.900000,252.600000L352.100000,252.700000C352.700000,252.700000,353.200000,252.500000,353.500000,252.200000C353.800000,251.800000,354,251.300000,354,250.500000C353.900000,237.500000,353.600000,224.900000,352.500000,214C351.400000,203.200000,349.500000,194.100000,346.400000,188.200000L347.100000,187.800000C350.300000,193.800000,352.200000,203,353.300000,213.900000C354.400000,224.800000,354.800000,237.500000,354.800000,250.500000L354.800000,250.500000C354.800000,251.400000,354.600000,252.200000,354.100000,252.700000C353.600000,253.200000,353,253.500000,352.100000,253.500000L329.900000,253.400000C328.400000,253.400000,327.100000,253.100000,325.800000,252.200000C324.600000,251.300000,323.400000,250,322.400000,247.800000C316.100000,234.500000,313.800000,229.400000,313.600000,229C312.300000,226.800000,310.700000,225.200000,308.800000,224.100000C306.900000,223,304.600000,222.500000,302,222.500000C298.900000,222.500000,289.300000,222.500000,279.600000,222.500000C269.900000,222.500000,260.100000,222.500000,256.800000,222.500000L256.400000,222.500000L256.400000,188.300000L257.300000,188.400000L257.300000,188.400000Z" fill="rgb(220,111,28)" stroke="none" stroke-width="1"/><polygon id="eXp2NL6Fsdn60" points="156.800000,188.400000 156.800000,253.200000 156,253.200000 156,188.400000" fill="rgb(220,111,28)" stroke="none" stroke-width="1"/><polygon id="eXp2NL6Fsdn61" points="253.400000,188.400000 253.400000,253.200000 252.600000,253.200000 252.600000,188.400000" fill="rgb(220,111,28)" stroke="none" stroke-width="1"/><path id="eXp2NL6Fsdn62" d="M63.800000,236.800000C64.500000,235.400000,65.600000,234.300000,67.100000,233.600000C68.500000,232.900000,70.300000,232.600000,72.400000,232.600000L112.500000,232.600000C115.400000,232.600000,117.900000,232.900000,120,233.600000C122.100000,234.400000,123.800000,235.500000,125.100000,237.100000L124.500000,237.600000C123.300000,236.100000,121.700000,235.100000,119.700000,234.400000C117.700000,233.700000,115.300000,233.400000,112.500000,233.400000C111.800000,233.600000,72.600000,233.500000,72.400000,233.400000C70.400000,233.400000,68.800000,233.700000,67.500000,234.300000C66.200000,234.900000,65.300000,235.900000,64.600000,237.100000L63.800000,236.800000Z" fill="rgb(220,111,28)" stroke="none" stroke-width="1"/><path id="eXp2NL6Fsdn63" d="M69.300000,148.200000C172.100000,148.300000,258.100000,148.200000,327.300000,148.200000C329.100000,148.200000,331.300000,146.700000,330.900000,144.700000C330.600000,146.200000,328.800000,147.300000,327.300000,147.300000C258.100000,147.300000,172.100000,147.400000,69.300000,147.300000C59.200000,147.300000,52.300000,147.600000,48.500000,148.400000C48.400000,148.700000,48.400000,149.100000,48.300000,149.400000C52.100000,148.500000,59.100000,148.200000,69.300000,148.200000Z" clip-rule="evenodd" fill="rgb(196,142,33)" fill-rule="evenodd" stroke="none" stroke-width="1"/></g></g><g id="eXp2NL6Fsdn64"><g id="eXp2NL6Fsdn65"><path id="eXp2NL6Fsdn66" d="M242.600000,151.100000L167.800000,151.100000C164.800000,151.100000,162.300000,153.600000,162.300000,156.600000L162.300000,175.400000C162.300000,178.400000,164.800000,180.900000,167.800000,180.900000L242.600000,180.900000C245.600000,180.900000,248.100000,178.400000,248.100000,175.400000L248.100000,156.600000C248.100000,153.500000,245.700000,151.100000,242.600000,151.100000Z" clip-rule="evenodd" fill="rgb(0,0,0)" fill-rule="evenodd" stroke="none" stroke-width="1"/><g id="eXp2NL6Fsdn67"><g id="eXp2NL6Fsdn68" style="" clip-path="url(#eXp2NL6Fsdn83)"><g id="eXp2NL6Fsdn69"><g id="eXp2NL6Fsdn70"><g id="eXp2NL6Fsdn71" style="" clip-rule="evenodd" mask="url(#eXp2NL6Fsdn73)"><polygon id="eXp2NL6Fsdn72" points="215.700000,118.600000 180.300000,103.900000 150.500000,175.700000 185.900000,190.400000" fill="rgb(255,255,255)" fill-rule="evenodd" stroke="none" stroke-width="1"/><mask id="eXp2NL6Fsdn73" mask-type="luminance"><rect id="eXp2NL6Fsdn74" width="65.200000" height="86.500000" rx="0" ry="0" transform="matrix(1 0 0 1 150.50000000000000 103.90000000000001)" clip-rule="evenodd" fill="url(#eXp2NL6Fsdn74-fill)" fill-rule="evenodd" stroke="none" stroke-width="1"/></mask></g><g id="eXp2NL6Fsdn75" style="" clip-rule="evenodd" mask="url(#eXp2NL6Fsdn77)"><polygon id="eXp2NL6Fsdn76" points="285.900000,134.900000 250.500000,120.300000 220.700000,192 256.100000,206.700000" fill="rgb(255,255,255)" fill-rule="evenodd" stroke="none" stroke-width="1"/><mask id="eXp2NL6Fsdn77" mask-type="luminance"><rect id="eXp2NL6Fsdn78" width="65.200000" height="86.500000" rx="0" ry="0" transform="matrix(1 0 0 1 220.69999999999999 120.20000000000000)" clip-rule="evenodd" fill="url(#eXp2NL6Fsdn78-fill)" fill-rule="evenodd" stroke="none" stroke-width="1"/></mask></g><g id="eXp2NL6Fsdn79" style="" clip-rule="evenodd" mask="url(#eXp2NL6Fsdn81)"><polygon id="eXp2NL6Fsdn80" points="220.800000,146.300000 185.400000,131.600000 155.600000,203.400000 191.100000,218.100000" fill="rgb(255,255,255)" fill-rule="evenodd" stroke="none" stroke-width="1"/><mask id="eXp2NL6Fsdn81" mask-type="luminance"><rect id="eXp2NL6Fsdn82" width="65.200000" height="86.500000" rx="0" ry="0" transform="matrix(1 0 0 1 155.59999999999999 131.59999999999999)" clip-rule="evenodd" fill="url(#eXp2NL6Fsdn82-fill)" fill-rule="evenodd" stroke="none" stroke-width="1"/></mask></g></g></g><clipPath id="eXp2NL6Fsdn83"><use id="eXp2NL6Fsdn84" width="85.800003" height="29.800003" xlink:href="#eXp2NL6Fsdn2" fill="rgb(0,0,0)" stroke="none" stroke-width="1"/></clipPath></g></g><path id="eXp2NL6Fsdn85" d="M242.600000,151.100000L167.800000,151.100000C164.800000,151.100000,162.300000,153.600000,162.300000,156.600000L162.300000,175.400000C162.300000,178.400000,164.800000,180.900000,167.800000,180.900000L242.600000,180.900000C245.600000,180.900000,248.100000,178.400000,248.100000,175.400000L248.100000,156.600000C248.100000,153.500000,245.700000,151.100000,242.600000,151.100000Z" fill="none" stroke="rgb(71,71,71)" stroke-width="2" stroke-miterlimit="112.486000"/></g><g id="eXp2NL6Fsdn86"><path id="eXp2NL6Fsdn87" d="M147.800000,151.100000L75.400000,151.100000C73,151.100000,71,152.500000,70.200000,154.800000L63.800000,173.600000C63.200000,175.300000,63.500000,177.100000,64.500000,178.600000C65.600000,180.100000,67.100000,180.900000,69,180.900000L147.800000,180.900000C150.800000,180.900000,153.300000,178.400000,153.300000,175.400000L153.300000,156.600000C153.300000,153.500000,150.800000,151.100000,147.800000,151.100000L147.800000,151.100000Z" clip-rule="evenodd" fill="rgb(0,0,0)" fill-rule="evenodd" stroke="none" stroke-width="1"/><g id="eXp2NL6Fsdn88"><g id="eXp2NL6Fsdn89" style="" clip-path="url(#eXp2NL6Fsdn104)"><g id="eXp2NL6Fsdn90"><g id="eXp2NL6Fsdn91"><g id="eXp2NL6Fsdn92" style="" clip-rule="evenodd" mask="url(#eXp2NL6Fsdn94)"><polygon id="eXp2NL6Fsdn93" points="107.400000,118.600000 72,103.900000 42.200000,175.700000 77.600000,190.400000" fill="rgb(255,255,255)" fill-rule="evenodd" stroke="none" stroke-width="1"/><mask id="eXp2NL6Fsdn94" mask-type="luminance"><rect id="eXp2NL6Fsdn95" width="65.200000" height="86.500000" rx="0" ry="0" transform="matrix(1 0 0 1 42.20000000000000 103.90000000000001)" clip-rule="evenodd" fill="url(#eXp2NL6Fsdn95-fill)" fill-rule="evenodd" stroke="none" stroke-width="1"/></mask></g><g id="eXp2NL6Fsdn96" style="" clip-rule="evenodd" mask="url(#eXp2NL6Fsdn98)"><polygon id="eXp2NL6Fsdn97" points="177.600000,134.900000 142.200000,120.300000 112.400000,192 147.800000,206.700000" fill="rgb(255,255,255)" fill-rule="evenodd" stroke="none" stroke-width="1"/><mask id="eXp2NL6Fsdn98" mask-type="luminance"><rect id="eXp2NL6Fsdn99" width="65.200000" height="86.500000" rx="0" ry="0" transform="matrix(1 0 0 1 112.40000000000001 120.20000000000000)" clip-rule="evenodd" fill="url(#eXp2NL6Fsdn99-fill)" fill-rule="evenodd" stroke="none" stroke-width="1"/></mask></g><g id="eXp2NL6Fsdn100" style="" clip-rule="evenodd" mask="url(#eXp2NL6Fsdn102)"><polygon id="eXp2NL6Fsdn101" points="148.200000,146.300000 112.800000,131.600000 83.100000,203.400000 118.500000,218.100000" fill="rgb(255,255,255)" fill-rule="evenodd" stroke="none" stroke-width="1"/><mask id="eXp2NL6Fsdn102" mask-type="luminance"><rect id="eXp2NL6Fsdn103" width="65.200000" height="86.500000" rx="0" ry="0" transform="matrix(1 0 0 1 83 131.59999999999999)" clip-rule="evenodd" fill="url(#eXp2NL6Fsdn103-fill)" fill-rule="evenodd" stroke="none" stroke-width="1"/></mask></g></g></g><clipPath id="eXp2NL6Fsdn104"><use id="eXp2NL6Fsdn105" width="89.807846" height="29.800003" xlink:href="#eXp2NL6Fsdn3" fill="rgb(0,0,0)" stroke="none" stroke-width="1"/></clipPath></g></g><path id="eXp2NL6Fsdn106" d="M147.800000,151.100000L75.400000,151.100000C73,151.100000,71,152.500000,70.200000,154.800000L63.800000,173.600000C63.200000,175.300000,63.500000,177.100000,64.500000,178.600000C65.600000,180.100000,67.100000,180.900000,69,180.900000L147.800000,180.900000C150.800000,180.900000,153.300000,178.400000,153.300000,175.400000L153.300000,156.600000C153.300000,153.500000,150.800000,151.100000,147.800000,151.100000L147.800000,151.100000Z" fill="none" stroke="rgb(71,71,71)" stroke-width="2" stroke-miterlimit="112.486000"/></g><g id="eXp2NL6Fsdn107"><path id="eXp2NL6Fsdn108" d="M267.100000,151.100000L316.100000,151.100000C318.500000,151.100000,321.100000,152.700000,322.200000,154.800000L331.700000,173.600000C333.300000,176.800000,332.700000,180.900000,326.500000,180.900000L267.100000,180.900000C264.100000,180.900000,261.600000,178.400000,261.600000,175.400000L261.600000,156.600000C261.700000,153.500000,264.100000,151.100000,267.100000,151.100000L267.100000,151.100000Z" clip-rule="evenodd" fill="rgb(0,0,0)" fill-rule="evenodd" stroke="none" stroke-width="1"/><g id="eXp2NL6Fsdn109"><g id="eXp2NL6Fsdn110" style="" clip-path="url(#eXp2NL6Fsdn125)"><g id="eXp2NL6Fsdn111"><g id="eXp2NL6Fsdn112"><g id="eXp2NL6Fsdn113" style="" clip-rule="evenodd" mask="url(#eXp2NL6Fsdn115)"><polygon id="eXp2NL6Fsdn114" points="359.900000,139.800000 324.500000,125.100000 294.800000,196.900000 330.200000,211.500000" fill="rgb(255,255,255)" fill-rule="evenodd" stroke="none" stroke-width="1"/><mask id="eXp2NL6Fsdn115" mask-type="luminance"><rect id="eXp2NL6Fsdn116" width="65.200000" height="86.500000" rx="0" ry="0" transform="matrix(1 0 0 1 294.69999999999999 125)" clip-rule="evenodd" fill="url(#eXp2NL6Fsdn116-fill)" fill-rule="evenodd" stroke="none" stroke-width="1"/></mask></g><g id="eXp2NL6Fsdn117" style="" clip-rule="evenodd" mask="url(#eXp2NL6Fsdn119)"><polygon id="eXp2NL6Fsdn118" points="311.500000,134.900000 276.100000,120.300000 246.400000,192 281.800000,206.700000" fill="rgb(255,255,255)" fill-rule="evenodd" stroke="none" stroke-width="1"/><mask id="eXp2NL6Fsdn119" mask-type="luminance"><rect id="eXp2NL6Fsdn120" width="65.200000" height="86.500000" rx="0" ry="0" transform="matrix(1 0 0 1 246.30000000000001 120.20000000000000)" clip-rule="evenodd" fill="url(#eXp2NL6Fsdn120-fill)" fill-rule="evenodd" stroke="none" stroke-width="1"/></mask></g><g id="eXp2NL6Fsdn121" style="" clip-rule="evenodd" mask="url(#eXp2NL6Fsdn123)"><polygon id="eXp2NL6Fsdn122" points="334.600000,146.300000 299.200000,131.600000 269.400000,203.400000 304.800000,218.100000" fill="rgb(255,255,255)" fill-rule="evenodd" stroke="none" stroke-width="1"/><mask id="eXp2NL6Fsdn123" mask-type="luminance"><rect id="eXp2NL6Fsdn124" width="65.200000" height="86.500000" rx="0" ry="0" transform="matrix(1 0 0 1 269.30000000000001 131.59999999999999)" clip-rule="evenodd" fill="url(#eXp2NL6Fsdn124-fill)" fill-rule="evenodd" stroke="none" stroke-width="1"/></mask></g></g></g><clipPath id="eXp2NL6Fsdn125"><use id="eXp2NL6Fsdn126" width="70.854370" height="29.800003" xlink:href="#eXp2NL6Fsdn4" fill="rgb(0,0,0)" stroke="none" stroke-width="1"/></clipPath></g></g><path id="eXp2NL6Fsdn127" d="M267.100000,151.100000L316.100000,151.100000C318.500000,151.100000,321.100000,152.700000,322.200000,154.800000L331.700000,173.600000C333.300000,176.800000,332.700000,180.900000,326.500000,180.900000L267.100000,180.900000C264.100000,180.900000,261.600000,178.400000,261.600000,175.400000L261.600000,156.600000C261.700000,153.500000,264.100000,151.100000,267.100000,151.100000L267.100000,151.100000Z" fill="none" stroke="rgb(71,71,71)" stroke-width="2" stroke-miterlimit="112.486000"/></g><path id="eXp2NL6Fsdn128" d="M330.300000,148.400000L349.300000,182.900000C348.300000,182.600000,347.100000,182.300000,345.600000,181.900000C344.300000,181.600000,343.300000,180.900000,342.600000,179.400000C333.100000,160.900000,328.200000,151.700000,328.200000,151.700000C327.500000,150.100000,328.200000,148.900000,330.300000,148.400000L330.300000,148.400000Z" clip-rule="evenodd" fill="rgb(0,0,0)" fill-rule="evenodd" stroke="none" stroke-width="1"/></g><g id="eXp2NL6Fsdn129"><path id="eXp2NL6Fsdn130" d="M219.800000,132.400000L211.800000,132.400000L214,126.800000C214.400000,125.900000,214.800000,125,215.800000,125C216.800000,125,217.300000,126,217.600000,126.800000L219.800000,132.400000Z" clip-rule="evenodd" fill="rgb(51,51,51)" fill-rule="evenodd" stroke="none" stroke-width="1"/><path id="eXp2NL6Fsdn131" d="M127.300000,132.400000L119.300000,132.400000L121.500000,126.800000C121.900000,125.900000,122.300000,125,123.300000,125C124.300000,125,124.800000,126,125.100000,126.800000L127.300000,132.400000Z" clip-rule="evenodd" fill="rgb(51,51,51)" fill-rule="evenodd" stroke="none" stroke-width="1"/><path id="eXp2NL6Fsdn132" d="M251.600000,129.400000L87.500000,129.400000C86.200000,129.400000,85.100000,128.500000,84.800000,127.200000L83.600000,120.900000C83.400000,120.100000,83.600000,119.300000,84.200000,118.600000C84.700000,118,85.500000,117.600000,86.300000,117.600000L252.900000,117.600000C253.700000,117.600000,254.500000,117.900000,255,118.600000C255.500000,119.300000,255.700000,120,255.600000,120.900000L254.300000,127.200000C254,128.500000,252.900000,129.400000,251.600000,129.400000L251.600000,129.400000ZM218.400000,120.100000L213.500000,120.100000C212.400000,120.100000,211.400000,121,211.400000,122.200000L211.400000,122.200000C211.400000,123.300000,212.300000,124.300000,213.500000,124.300000L218.400000,124.300000C219.500000,124.300000,220.500000,123.400000,220.500000,122.200000L220.500000,122.200000C220.400000,121.100000,219.500000,120.100000,218.400000,120.100000ZM125.800000,120.100000L120.900000,120.100000C119.800000,120.100000,118.800000,121,118.800000,122.200000L118.800000,122.200000C118.800000,123.300000,119.700000,124.300000,120.900000,124.300000L125.800000,124.300000C126.900000,124.300000,127.900000,123.400000,127.900000,122.200000L127.900000,122.200000C127.900000,121.100000,127,120.100000,125.800000,120.100000ZM246.100000,127C248,127,249.500000,125.500000,249.500000,123.600000C249.500000,121.700000,248,120.200000,246.100000,120.200000L232.400000,120.200000C230.500000,120.200000,229,121.700000,229,123.600000C229,125.500000,230.500000,127,232.400000,127L246.100000,127ZM109.200000,127C111.100000,127,112.600000,125.500000,112.600000,123.600000C112.600000,121.700000,111.100000,120.200000,109.200000,120.200000L95.600000,120.200000C93.700000,120.200000,92.200000,121.700000,92.200000,123.600000C92.200000,125.500000,93.700000,127,95.600000,127L109.200000,127ZM138.800000,120.100000C136.900000,120.100000,135.400000,121.600000,135.400000,123.500000C135.400000,125.400000,136.900000,126.900000,138.800000,126.900000L159.300000,126.900000C161.200000,126.900000,162.700000,125.400000,162.700000,123.500000C162.700000,121.600000,161.200000,120.100000,159.300000,120.100000L138.800000,120.100000ZM179.900000,120.100000C178,120.100000,176.500000,121.600000,176.500000,123.500000C176.500000,125.400000,178,126.900000,179.900000,126.900000L200.400000,126.900000C202.300000,126.900000,203.800000,125.400000,203.800000,123.500000C203.800000,121.600000,202.300000,120.100000,200.400000,120.100000L179.900000,120.100000Z" clip-rule="evenodd" fill="rgb(128,128,128)" fill-rule="evenodd" stroke="none" stroke-width="1"/><g id="eXp2NL6Fsdn133"><g id="eXp2NL6Fsdn134" style="" clip-path="url(#eXp2NL6Fsdn141)"><g id="eXp2NL6Fsdn135"><g id="eXp2NL6Fsdn136"><g id="eXp2NL6Fsdn137" style="" clip-rule="evenodd" mask="url(#eXp2NL6Fsdn139)"><path id="eXp2NL6Fsdn138" d="M251.600000,128.700000L87.500000,128.700000C86.200000,128.700000,85.100000,127.800000,84.800000,126.500000L83.600000,120.200000C83.400000,119.400000,83.600000,118.600000,84.200000,117.900000C84.700000,117.300000,85.500000,116.900000,86.300000,116.900000L252.900000,116.900000C253.700000,116.900000,254.500000,117.200000,255,117.900000C255.500000,118.600000,255.700000,119.300000,255.600000,120.200000L254.300000,126.500000C254,127.800000,252.900000,128.700000,251.600000,128.700000L251.600000,128.700000ZM218.400000,119.400000L213.500000,119.400000C212.400000,119.400000,211.400000,120.300000,211.400000,121.500000L211.400000,121.500000C211.400000,122.600000,212.300000,123.600000,213.500000,123.600000L218.400000,123.600000C219.500000,123.600000,220.500000,122.700000,220.500000,121.500000L220.500000,121.500000C220.400000,120.300000,219.500000,119.400000,218.400000,119.400000ZM125.800000,119.400000L120.900000,119.400000C119.800000,119.400000,118.800000,120.300000,118.800000,121.500000L118.800000,121.500000C118.800000,122.600000,119.700000,123.600000,120.900000,123.600000L125.800000,123.600000C126.900000,123.600000,127.900000,122.700000,127.900000,121.500000L127.900000,121.500000C127.900000,120.300000,127,119.400000,125.800000,119.400000ZM246.100000,126.200000C248,126.200000,249.500000,124.700000,249.500000,122.800000C249.500000,120.900000,248,119.400000,246.100000,119.400000L232.400000,119.400000C230.500000,119.400000,229,120.900000,229,122.800000C229,124.700000,230.500000,126.200000,232.400000,126.200000L246.100000,126.200000ZM109.200000,126.200000C111.100000,126.200000,112.600000,124.700000,112.600000,122.800000C112.600000,120.900000,111.100000,119.400000,109.200000,119.400000L95.600000,119.400000C93.700000,119.400000,92.200000,120.900000,92.200000,122.800000C92.200000,124.700000,93.700000,126.200000,95.600000,126.200000L109.200000,126.200000ZM138.800000,119.400000C136.900000,119.400000,135.400000,120.900000,135.400000,122.800000C135.400000,124.700000,136.900000,126.200000,138.800000,126.200000L159.300000,126.200000C161.200000,126.200000,162.700000,124.700000,162.700000,122.800000C162.700000,120.900000,161.200000,119.400000,159.300000,119.400000L138.800000,119.400000ZM179.900000,119.400000C178,119.400000,176.500000,120.900000,176.500000,122.800000C176.500000,124.700000,178,126.200000,179.900000,126.200000L200.400000,126.200000C202.300000,126.200000,203.800000,124.700000,203.800000,122.800000C203.800000,120.900000,202.300000,119.400000,200.400000,119.400000L179.900000,119.400000Z" fill="rgb(230,230,230)" fill-rule="evenodd" stroke="none" stroke-width="1"/><mask id="eXp2NL6Fsdn139" mask-type="luminance"><rect id="eXp2NL6Fsdn140" width="172.100000" height="11.800000" rx="0" ry="0" transform="matrix(1 0 0 1 83.59999999999999 116.90000000000001)" clip-rule="evenodd" fill="url(#eXp2NL6Fsdn140-fill)" fill-rule="evenodd" stroke="none" stroke-width="1"/></mask></g></g></g><clipPath id="eXp2NL6Fsdn141"><use id="eXp2NL6Fsdn142" width="172.100006" height="11.800003" xlink:href="#eXp2NL6Fsdn5" fill="rgb(0,0,0)" stroke="none" stroke-width="1"/></clipPath></g></g></g></g></svg>