<svg id="s1" xmlns="http://www.w3.org/2000/svg" xmlns:xlink="http://www.w3.org/1999/xlink" viewBox="0 0 100 100"><g id="s3"><path id="s5" d="M16,29.880000L84,29.880000C85.731401,29.879785,87.142691,31.268814,87.170000,33L87.170000,75.190000L12.830000,75.190000L12.830000,33C12.857309,31.268814,14.268599,29.879785,16,29.880000Z" fill="none" stroke="rgb(84,131,204)" stroke-width="4" stroke-linecap="round" stroke-linejoin="round"/><rect id="s7" width="31.320000" height="60.330000" rx="0" ry="0" transform="translate(102.530000,2.530000) rotate(90) translate(34.340000,22.370000)" fill="none" stroke="rgb(84,131,204)" stroke-width="4" stroke-linecap="round" stroke-linejoin="round"/><path id="s9" d="M5,75.190000L95,75.190000L95,76.850000C95,81.969680,90.849680,86.120000,85.730000,86.120000L15.270000,86.120000C9.598036,86.120000,5,81.521964,5,75.850000L5,75.190000Z" fill="none" stroke="rgb(84,131,204)" stroke-width="4" stroke-linecap="round" stroke-linejoin="round"/><path id="s11" d="M39.390000,75.190000C39.550832,78.484877,42.222433,81.099821,45.520000,81.190000L54.520000,81.190000C57.817567,81.099821,60.489168,78.484877,60.650000,75.190000" fill="none" stroke="rgb(84,131,204)" stroke-width="4" stroke-linecap="round" stroke-linejoin="round"/></g></svg>