<svg id="s1" xmlns="http://www.w3.org/2000/svg" xmlns:xlink="http://www.w3.org/1999/xlink" viewBox="0 0 100 100"><path id="s3" d="M41,82.610000L22.670000,51.070000C21.587998,49.073150,22.326022,46.577286,24.320000,45.490000L24.320000,45.490000C26.145768,44.365397,28.528084,44.821031,29.810000,46.540000L39.810000,60.710000C39.660000,22.080000,39.680000,31.710000,39.660000,22.080000C39.665501,19.481021,41.771021,17.375501,44.370000,17.370000L44.510000,17.370000C47.108979,17.375501,49.214499,19.481021,49.220000,22.080000L49.220000,36.140000C49.225501,33.541021,51.331021,31.435501,53.930000,31.430000L54,31.430000C56.598979,31.435501,58.704499,33.541021,58.710000,36.140000L58.710000,40C58.715501,37.401021,60.821021,35.295501,63.420000,35.290000L63.560000,35.290000C64.813552,35.284685,66.017729,35.778250,66.906942,36.661835C67.796155,37.545420,68.297355,38.746439,68.300000,40L68.300000,44.300000C68.294462,41.697106,70.397123,39.581023,73,39.570000L73.140000,39.570000C75.738979,39.575501,77.844499,41.681021,77.850000,44.280000C77.855501,46.878979,77.850000,57.380000,77.320000,62.960000C76.990000,66.440000,73.050000,79.210000,71.890000,82.620000L41,82.620000Z" fill="none" stroke="rgb(84,131,204)" stroke-width="6" stroke-linecap="round" stroke-linejoin="round"/></svg>