<svg id="s1" xmlns="http://www.w3.org/2000/svg" xmlns:xlink="http://www.w3.org/1999/xlink" viewBox="0 0 100 100"><path id="s3" d="M80.780000,40.820000C80.647787,40.097726,79.966112,39.610815,79.240000,39.720000L71.620000,40.850000C70.923673,39.216131,70.044752,37.666277,69,36.230000L73.790000,30.230000C74.245836,29.657045,74.166273,28.826051,73.610000,28.350000L67.610000,23.290000C67.043228,22.820257,66.205581,22.886737,65.720000,23.440000L60.610000,29.200000C59.018352,28.401835,57.340838,27.787865,55.610000,27.370000L55.400000,19.670000C55.378491,18.938424,54.781875,18.355065,54.050000,18.350000L46.060000,18.350000C45.328125,18.355065,44.731509,18.938424,44.710000,19.670000L44.500000,27.370000C42.769137,27.787781,41.091614,28.401755,39.500000,29.200000L34.390000,23.440000C33.904419,22.886737,33.066772,22.820257,32.500000,23.290000L26.500000,28.350000C25.943727,28.826051,25.864164,29.657045,26.320000,30.230000L31.110000,36.230000C30.047842,37.663871,29.152093,39.213818,28.440000,40.850000L20.820000,39.720000C20.093888,39.610815,19.412213,40.097726,19.280000,40.820000L17.910000,48.580000C17.787380,49.303516,18.260871,49.993838,18.980000,50.140000L26.530000,51.690000C26.635821,53.472593,26.944479,55.237316,27.450000,56.950000L20.890000,60.950000C20.266021,61.333849,20.058213,62.142976,20.420000,62.780000L24.360000,69.600000C24.730110,70.232671,25.535023,70.458224,26.180000,70.110000L32.960000,66.440000C34.171901,67.744902,35.527136,68.908928,37,69.910000L34.570000,77.220000C34.335296,77.917999,34.698786,78.676008,35.390000,78.930000L42.790000,81.620000C43.479823,81.865373,44.240094,81.520599,44.510000,80.840000L47.340000,73.680000C49.114030,73.886162,50.905970,73.886162,52.680000,73.680000L55.510000,80.840000C55.779906,81.520599,56.540177,81.865373,57.230000,81.620000L64.630000,78.930000C65.321214,78.676008,65.684704,77.917999,65.450000,77.220000L63,69.910000C64.484755,68.923862,65.853423,67.773241,67.080000,66.480000L73.860000,70.150000C74.504977,70.498224,75.309890,70.272671,75.680000,69.640000L79.620000,62.820000C79.978919,62.190342,79.780994,61.389844,79.170000,61L72.610000,57C73.115521,55.287316,73.424179,53.522593,73.530000,51.740000L81.080000,50.190000C81.799129,50.043838,82.272620,49.353516,82.150000,48.630000ZM50,63.370000C42.754024,63.370000,36.880000,57.495976,36.880000,50.250000C36.880000,43.004024,42.754024,37.130000,50,37.130000C57.245976,37.130000,63.120000,43.004024,63.120000,50.250000C63.120000,57.495976,57.245976,63.370000,50,63.370000Z" fill="rgb(84,131,204)" stroke="none" stroke-width="1"/></svg>