<svg id="s1" xmlns="http://www.w3.org/2000/svg" xmlns:xlink="http://www.w3.org/1999/xlink" viewBox="0 0 400 400"><defs><linearGradient id="s5-fill" x1="280.369774" y1="9.055562" x2="82.153601" y2="414.142895" spreadMethod="pad" gradientUnits="userSpaceOnUse"><stop id="s5-fill-0" offset="1%" stop-color="rgb(159,163,173)"/><stop id="s5-fill-1" offset="52%" stop-color="rgb(112,116,122)"/><stop id="s5-fill-2" offset="84%" stop-color="rgb(76,79,84)"/></linearGradient><linearGradient id="s7-fill" x1="153.620000" y1="334.210000" x2="97.620000" y2="192.540000" spreadMethod="pad" gradientUnits="userSpaceOnUse"><stop id="s7-fill-0" offset="17%" stop-color="rgb(250,160,150)"/><stop id="s7-fill-1" offset="56%" stop-color="rgb(255,172,163)"/><stop id="s7-fill-2" offset="100%" stop-color="rgb(255,191,168)"/></linearGradient><linearGradient id="s9-fill" x1="290.283411" y1="37.566108" x2="140.730327" y2="350.856838" spreadMethod="pad" gradientUnits="userSpaceOnUse"><stop id="s9-fill-0" offset="17%" stop-color="rgb(255,230,211)"/><stop id="s9-fill-1" offset="59%" stop-color="rgb(255,230,211)"/><stop id="s9-fill-2" offset="100%" stop-color="rgb(242,218,203)"/></linearGradient><linearGradient id="s29-fill" x1="-4.450003" y1="-16.769998" x2="-12.280003" y2="-33.769998" spreadMethod="pad" gradientUnits="userSpaceOnUse"><stop id="s29-fill-0" offset="52%" stop-color="rgb(112,116,122)"/><stop id="s29-fill-1" offset="84%" stop-color="rgb(76,79,84)"/></linearGradient><linearGradient id="s31-fill" x1="-6.950002" y1="-22.200000" x2="-14.780002" y2="-39.200000" spreadMethod="pad" gradientUnits="userSpaceOnUse"><stop id="s31-fill-0" offset="52%" stop-color="rgb(112,116,122)"/><stop id="s31-fill-1" offset="84%" stop-color="rgb(76,79,84)"/></linearGradient><linearGradient id="s33-fill" x1="-9.370002" y1="-27.430001" x2="-17.200002" y2="-44.430001" spreadMethod="pad" gradientUnits="userSpaceOnUse"><stop id="s33-fill-0" offset="52%" stop-color="rgb(112,116,122)"/><stop id="s33-fill-1" offset="84%" stop-color="rgb(76,79,84)"/></linearGradient><linearGradient id="s35-fill" x1="-11.820000" y1="-32.760003" x2="-19.650000" y2="-49.760003" spreadMethod="pad" gradientUnits="userSpaceOnUse"><stop id="s35-fill-0" offset="52%" stop-color="rgb(112,116,122)"/><stop id="s35-fill-1" offset="84%" stop-color="rgb(76,79,84)"/></linearGradient></defs><g id="s3"><path id="s5" d="M173.650000,208.800000C162.110000,218.690000,148.490000,205.850000,153.330000,192.910000C157.530000,181.660000,164.460000,173.910000,159.720000,169.630000C154.980000,165.350000,133.720000,173.340000,125.720000,192.500000C117.720000,211.660000,116.860000,224,86.160000,237.420000C55.460000,250.840000,0.860000,272,57.930000,337.350000C115,402.700000,147.560000,356.100000,154.360000,332.400000C161.160000,308.700000,166.100000,297.170000,187.530000,288.100000C208.960000,279.030000,216.860000,259.100000,207.100000,253.280000C200.920000,249.570000,189.590000,267.090000,176.610000,255.340000C173.730000,252.040000,172.440000,246.040000,183.020000,234.750000C193.860000,223.180000,315.650000,96.460000,319.150000,92.550000C322.650000,88.640000,332.790000,95.040000,336.700000,91.950000C340.610000,88.860000,353.180000,64.750000,362.040000,55.480000C365.340000,51.770000,373.370000,50.740000,376.260000,47.860000C379.150000,44.980000,374,31.580000,351.340000,43.940000C328.680000,56.300000,307,68.870000,302.510000,72.170000C298.020000,75.470000,305.090000,83.170000,300.030000,87.980000Z" fill="url(#s5-fill)" stroke="none" stroke-width="1"/><path id="s7" d="M85.540000,258.910000C64.670000,269.340000,59.060000,280.140000,68.370000,290.640000C76.910000,300.280000,88.840000,299.020000,98.320000,308.910000C107.800000,318.800000,108.380000,338.820000,120.040000,348.150000C133.230000,358.720000,145.270000,336.790000,148.670000,317.320000C151.260000,302.470000,156.670000,294.520000,174,286.320000C191.330000,278.120000,198.180000,274.610000,197,268.610000C194.940000,258.510000,165,277.940000,157.290000,252.610000C151.930000,235.070000,150.700000,221.290000,142.040000,214.610000C133.380000,207.930000,131.150000,229,118.780000,241.330000C110.130000,250,94.880000,254.240000,85.540000,258.910000Z" fill="url(#s7-fill)" stroke="none" stroke-width="1"/><path id="s9" d="M174.540000,208L141.320000,240.230000C141.037220,240.508214,140.877967,240.888304,140.877967,241.285000C140.877967,241.681696,141.037220,242.061786,141.320000,242.340000L157.730000,258.750000C158.008214,259.032780,158.388304,259.192033,158.785000,259.192033C159.181696,259.192033,159.561786,259.032780,159.840000,258.750000L192,225.450000L313.520000,98.450000L301.310000,86.230000Z" fill="url(#s9-fill)" stroke="none" stroke-width="1"/><rect id="s11" width="37.740000" height="8.740000" rx="1.700000" ry="1.700000" transform="translate(223.510000,-26.100000) rotate(45) scale(1,1) translate(124.400000,252.380000)" fill="rgb(255,255,255)" stroke="none" stroke-width="1"/><rect id="s13" width="37.740000" height="8.740000" rx="1.700000" ry="1.700000" transform="translate(231.620000,-6.530000) rotate(45) scale(1,1) translate(104.830000,271.950000)" fill="rgb(255,255,255)" stroke="none" stroke-width="1"/><rect id="s15" width="37.740000" height="8.740000" rx="1.700000" ry="1.700000" transform="translate(239.070000,11.460000) rotate(45) scale(1,1) translate(86.830000,289.950000)" fill="rgb(255,255,255)" stroke="none" stroke-width="1"/><circle id="s17" r="8.160000" transform="translate(-185.510000,183.040000) rotate(-45) scale(1,1) translate(128.190000,315.450000)" fill="rgb(255,255,255)" stroke="none" stroke-width="1"/><circle id="s19" r="5.830000" transform="translate(-200.920000,189.080000) rotate(-45) scale(1,1) translate(127.780000,337.080000)" fill="rgb(255,255,255)" stroke="none" stroke-width="1"/><polyline id="s21" points="97.660000,286.280000 319.840000,72.090000 312.940000,55.920000" fill="none" stroke="rgb(129,133,140)" stroke-width="2" stroke-linecap="round" stroke-miterlimit="10"/><polyline id="s23" points="103.020000,291.640000 330.810000,66.470000 323.930000,49.600000" fill="none" stroke="rgb(129,133,140)" stroke-width="2" stroke-linecap="round" stroke-miterlimit="10"/><polyline id="s25" points="108.380000,297 341.970000,60.190000 334.320000,42.890000" fill="none" stroke="rgb(129,133,140)" stroke-width="2" stroke-linecap="round" stroke-miterlimit="10"/><polyline id="s27" points="113.730000,302.360000 353.130000,53.910000 347.250000,39.130000" fill="none" stroke="rgb(129,133,140)" stroke-width="2" stroke-linecap="round" stroke-miterlimit="10"/><rect id="s29" width="9.920000" height="7.310000" rx="3.650000" ry="3.650000" transform="translate(13.100000,161.490000) rotate(-29.549995) scale(1,1) translate(307.710000,52.260000)" fill="url(#s29-fill)" stroke="none" stroke-width="1"/><rect id="s31" width="9.920000" height="7.310000" rx="3.650000" ry="3.650000" transform="translate(17.540000,166.460000) rotate(-29.549995) scale(1,1) translate(319.340000,46.320000)" fill="url(#s31-fill)" stroke="none" stroke-width="1"/><rect id="s33" width="9.920000" height="7.310000" rx="3.650000" ry="3.650000" transform="translate(21.710000,171.200000) rotate(-29.549995) scale(1,1) translate(330.420000,40.790000)" fill="url(#s33-fill)" stroke="none" stroke-width="1"/><rect id="s35" width="9.920000" height="7.310000" rx="3.650000" ry="3.650000" transform="translate(26.050000,176.060000) rotate(-29.549995) scale(1,1) translate(341.800000,34.990000)" fill="url(#s35-fill)" stroke="none" stroke-width="1"/><circle id="s37" r="2.590000" transform="translate(42.740000,247.290000) rotate(-45) scale(1,1) translate(319.870000,72.050000)" fill="rgb(255,255,255)" stroke="none" stroke-width="1"/><circle id="s39" r="2.590000" transform="translate(49.770000,252.800000) rotate(-45) scale(1,1) translate(330.040000,66.310000)" fill="rgb(255,255,255)" stroke="none" stroke-width="1"/><circle id="s41" r="2.590000" transform="translate(57.350000,259.170000) rotate(-45) scale(1,1) translate(341.520000,60.350000)" fill="rgb(255,255,255)" stroke="none" stroke-width="1"/><circle id="s43" r="2.590000" transform="translate(65.060000,265.230000) rotate(-45) scale(1,1) translate(352.700000,54.080000)" fill="rgb(255,255,255)" stroke="none" stroke-width="1"/></g></svg>