<svg id="s1" xmlns="http://www.w3.org/2000/svg" xmlns:xlink="http://www.w3.org/1999/xlink" viewBox="0 0 400 400"><defs><linearGradient id="s5-fill" x1="10.420000" y1="27.950000" x2="10.420000" y2="2.910000" spreadMethod="pad" gradientUnits="userSpaceOnUse"><stop id="s5-fill-0" offset="1%" stop-color="rgb(239,239,239)"/><stop id="s5-fill-1" offset="21%" stop-color="rgb(182,182,184)"/><stop id="s5-fill-2" offset="99%" stop-color="rgb(228,228,230)"/></linearGradient><linearGradient id="s7-fill" x1="194.830000" y1="72.500000" x2="194.830000" y2="132.080000" spreadMethod="pad" gradientUnits="userSpaceOnUse"><stop id="s7-fill-0" offset="0%" stop-color="rgb(208,208,210)"/><stop id="s7-fill-1" offset="24%" stop-color="rgb(228,228,230)"/><stop id="s7-fill-2" offset="86%" stop-color="rgb(144,144,145)"/></linearGradient><linearGradient id="s9-fill" x1="194.830000" y1="330.670000" x2="194.830000" y2="278" spreadMethod="pad" gradientUnits="userSpaceOnUse"><stop id="s9-fill-0" offset="0%" stop-color="rgb(208,208,210)"/><stop id="s9-fill-1" offset="30%" stop-color="rgb(228,228,230)"/><stop id="s9-fill-2" offset="86%" stop-color="rgb(144,144,145)"/></linearGradient><linearGradient id="s13-fill" x1="81.170000" y1="173.830000" x2="59.800000" y2="-9.820000" spreadMethod="pad" gradientUnits="userSpaceOnUse"><stop id="s13-fill-0" offset="2%" stop-color="rgb(239,239,239)"/><stop id="s13-fill-1" offset="9%" stop-color="rgb(228,228,230)"/><stop id="s13-fill-2" offset="90%" stop-color="rgb(247,247,247)"/><stop id="s13-fill-3" offset="99%" stop-color="rgb(228,228,230)"/></linearGradient><linearGradient id="s15-fill" x1="69.520000" y1="0.300000" x2="69.520000" y2="162.550000" spreadMethod="pad" gradientUnits="userSpaceOnUse"><stop id="s15-fill-0" offset="1%" stop-color="rgba(97,97,97,0.2)"/><stop id="s15-fill-1" offset="14%" stop-color="rgba(97,97,97,0)"/><stop id="s15-fill-2" offset="88%" stop-color="rgba(97,97,97,0)"/><stop id="s15-fill-3" offset="100%" stop-color="rgba(97,97,97,0.3)"/></linearGradient><linearGradient id="s17-fill" x1="-15.240000" y1="321.399987" x2="132.440000" y2="321.399987" spreadMethod="pad" gradientUnits="userSpaceOnUse"><stop id="s17-fill-0" offset="0%" stop-color="rgb(88,91,97)"/><stop id="s17-fill-1" offset="4%" stop-color="rgb(107,109,114)"/><stop id="s17-fill-2" offset="9%" stop-color="rgb(88,91,97)"/><stop id="s17-fill-3" offset="85%" stop-color="rgb(72,75,78)"/><stop id="s17-fill-4" offset="92%" stop-color="rgb(89,92,97)"/><stop id="s17-fill-5" offset="100%" stop-color="rgb(76,79,84)"/></linearGradient></defs><g id="s3"><rect id="s5" width="20.840000" height="31.480000" rx="7.300000" ry="7.300000" transform="translate(254.850000,154.800000)" fill="url(#s5-fill)" stroke="none" stroke-width="1"/><path id="s7" d="M233.720000,96.720000L233.720000,88.500000C233.708964,79.384067,226.315939,71.999993,217.200000,72L172.460000,72C163.344061,71.999993,155.951036,79.384067,155.940000,88.500000L155.940000,96.720000C155.909232,108.186258,149.197255,118.582399,138.760000,123.330000C140.410491,123.865576,142.134788,124.138899,143.870000,124.140000L245.790000,124.140000C247.525212,124.138899,249.249509,123.865576,250.900000,123.330000C240.462745,118.582399,233.750768,108.186258,233.720000,96.720000Z" fill="url(#s7-fill)" stroke="none" stroke-width="1"/><path id="s9" d="M155.940000,303.280000L155.940000,311.500000C155.951036,320.615933,163.344061,328.000007,172.460000,328L217.200000,328C226.323744,328,233.720000,320.603744,233.720000,311.480000L233.720000,303.260000C233.750768,291.793742,240.462745,281.397601,250.900000,276.650000C249.249509,276.114424,247.525212,275.841101,245.790000,275.840000L143.870000,275.840000C142.134788,275.841101,140.410491,276.114424,138.760000,276.650000C149.203828,281.400613,155.917048,291.806494,155.940000,303.280000Z" fill="url(#s9-fill)" stroke="none" stroke-width="1"/><g id="s11"><rect id="s13" width="141.030000" height="164.640000" rx="32.380000" ry="32.380000" transform="translate(124.310000,117.680000)" fill="url(#s13-fill)" stroke="rgb(223,223,223)" stroke-width="1" stroke-miterlimit="10"/><rect id="s15" width="139.040000" height="162.640000" rx="31.380000" ry="31.380000" transform="translate(125.310000,118.680000)" fill="url(#s15-fill)" stroke="none" stroke-width="1"/><rect id="s17" width="146.850000" height="123.240000" rx="23.490000" ry="23.490000" transform="translate(394.830000,5.170000) rotate(90) translate(121.400000,138.380000)" fill="url(#s17-fill)" stroke="none" stroke-width="1"/></g></g></svg>