<svg id="s1" xmlns="http://www.w3.org/2000/svg" xmlns:xlink="http://www.w3.org/1999/xlink" viewBox="0 0 100 100"><path id="s3" d="M18.650000,66.460000L18.650000,65.460000C19.009763,64.962352,19.534055,64.608100,20.130000,64.460000C25.270000,63.460000,28.710000,60.160000,31.310000,55.860000C33.490000,52.240000,33.140000,51.410000,29.120000,49.990000C28.890000,49.910000,28.650000,49.840000,28.430000,49.750000C27.553451,49.440892,26.732807,48.991733,26,48.420000C24.200000,46.860000,25.260000,44.600000,27.390000,44.090000C28.940000,43.720000,30.290000,44.710000,31.800000,44.900000C32.800000,45.030000,33.210000,44.690000,33.090000,43.610000C32.806067,40.849382,32.745871,38.070323,32.910000,35.300000C33.045833,30.323308,35.803381,25.789519,40.160000,23.380000C46.138870,19.557799,53.787877,19.534420,59.790000,23.320000C63.810416,25.514423,66.503151,29.536718,67,34.090000C67.308201,37.219096,67.308201,40.370904,67,43.500000C66.890000,44.860000,67.170000,45.110000,68.520000,44.800000C70.190000,44.410000,71.590000,43.550000,73.330000,44.310000C74.285516,44.688038,74.936347,45.584392,75,46.610000C74.944192,47.312279,74.600334,47.960179,74.050000,48.400000C73.197275,49.044252,72.244621,49.544227,71.230000,49.880000C70.470000,50.190000,69.690000,50.420000,68.950000,50.770000C67.430000,51.480000,66.950000,52.420000,67.710000,53.920000C70.170000,59.120000,73.790000,63.070000,79.640000,64.440000C80.316421,64.551530,80.928420,64.907344,81.360000,65.440000L81.360000,66.440000C80.796104,67.497689,79.836006,68.288781,78.690000,68.640000C77.573091,69.146980,76.386631,69.484043,75.170000,69.640000C74.442260,69.593532,73.727007,69.845620,73.189223,70.338117C72.651439,70.830614,72.337565,71.520990,72.320000,72.250000C72.070000,73.930000,71.570000,74.170000,69.860000,74.030000C69.450000,74.030000,69.050000,73.920000,68.650000,73.850000C65.300000,73.250000,62.150000,73.590000,59.390000,75.850000C58.836769,76.262578,58.262677,76.646419,57.670000,77C52.970000,80,48.160000,80.400000,43.260000,77.540000C41.920000,76.760000,40.660000,75.860000,39.360000,75.010000C38.295660,74.326675,37.093842,73.886236,35.840000,73.720000C33.832448,73.575485,31.814586,73.699920,29.840000,74.090000C28.840000,74.200000,27.840000,73.910000,27.780000,72.860000C27.640000,70.320000,26.090000,69.700000,23.960000,69.470000C22.952536,69.308197,21.972903,69.005218,21.050000,68.570000C20.007050,68.203820,19.146739,67.447463,18.650000,66.460000Z" fill="rgb(84,131,204)" stroke="none" stroke-width="1"/></svg>