<svg id="s1" xmlns="http://www.w3.org/2000/svg" xmlns:xlink="http://www.w3.org/1999/xlink" viewBox="0 0 100 100"><path id="s3" d="M52.630000,21.250000C40.522716,20.142462,29.019035,26.738677,23.859123,37.747232C18.699211,48.755786,20.988979,61.817245,29.585867,70.414133C38.182755,79.011021,51.244214,81.300789,62.252768,76.140877C73.261323,70.980965,79.857538,59.477284,78.750000,47.370000C77.469971,33.509077,66.490923,22.530029,52.630000,21.250000ZM69,35.770000C71.832681,39.535913,73.473102,44.063615,73.710000,48.770000C73.716795,48.908010,73.658365,49.041197,73.552214,49.129656C73.446063,49.218115,73.304523,49.251571,73.170000,49.220000C68.241439,48.158491,63.165813,47.962234,58.170000,48.640000C57.972472,48.670102,57.779459,48.563330,57.700000,48.380000Q56.890000,46.460000,56.050000,44.680000C55.999803,44.574239,55.994898,44.452583,56.036417,44.343124C56.077936,44.233665,56.162290,44.145865,56.270000,44.100000C60.764406,42.087375,64.849322,39.263528,68.320000,35.770000C68.403577,35.668254,68.528328,35.609285,68.660000,35.609285C68.791672,35.609285,68.916423,35.668254,69,35.770000ZM64.750000,32C61.652505,35.162076,57.980193,37.704185,53.930000,39.490000C53.716835,39.579711,53.470377,39.493235,53.360000,39.290000C51.074592,35.091851,48.463242,31.079533,45.550000,27.290000C45.451938,27.168277,45.425815,27.003667,45.481375,26.857565C45.536935,26.711463,45.665836,26.605806,45.820000,26.580000C52.509651,25.380133,59.392498,27.109950,64.720000,31.330000C64.819118,31.411014,64.879040,31.530408,64.884767,31.658294C64.890493,31.786180,64.841481,31.910452,64.750000,32ZM40.130000,28.790000C43.251353,32.605062,46.025709,36.691298,48.420000,41C48.486453,41.118595,48.495731,41.260876,48.445243,41.387097C48.394754,41.513318,48.289911,41.609950,48.160000,41.650000C41.417693,43.433805,34.483432,44.390834,27.510000,44.500000C27.368893,44.504299,27.233946,44.442130,27.145517,44.332085C27.057087,44.222039,27.025426,44.076874,27.060000,43.940000C28.831136,37.277115,33.401091,31.707824,39.590000,28.670000C39.775782,28.577702,40.000794,28.627705,40.130000,28.790000ZM26.700000,49.660000C34.930000,49.400000,43.150000,48.590000,50.700000,46.200000C50.909307,46.133695,51.135462,46.231837,51.230000,46.430000Q51.910000,47.860000,52.570000,49.430000C52.621467,49.544726,52.621391,49.675990,52.569791,49.790656C52.518191,49.905322,52.419998,49.992434,52.300000,50.030000C44.810000,52.460000,38.130000,57.410000,32.160000,64.910000C32.076401,65.008174,31.953946,65.064737,31.825000,65.064737C31.696054,65.064737,31.573599,65.008174,31.490000,64.910000C28.150000,61.270000,26.350000,55.910000,26.270000,50.120000C26.264320,49.875218,26.455391,49.670816,26.700000,49.660000ZM35.850000,68.470000C41.350000,61.420000,47.410000,56.870000,54.240000,54.750000C54.468540,54.683109,54.709628,54.805845,54.790000,55.030000C56.709968,60.402211,58.119530,65.943361,59,71.580000C59.033409,71.788837,58.916883,71.992758,58.720000,72.070000C51.114834,75.071413,42.499355,73.937300,35.930000,69.070000C35.752708,68.920495,35.718073,68.660734,35.850000,68.470000ZM63.700000,68.570000C62.815380,63.658608,61.548187,58.823881,59.910000,54.110000C59.866655,53.983320,59.883349,53.843796,59.955358,53.730918C60.027366,53.618040,60.146853,53.544090,60.280000,53.530000C64.498995,53.143534,68.752643,53.433863,72.880000,54.390000C73.122708,54.440145,73.279185,54.677096,73.230000,54.920000C72.043516,60.468363,68.911521,65.409324,64.400000,68.850000C64.276995,68.943197,64.114156,68.965139,63.970870,68.907825C63.827584,68.850510,63.724799,68.722318,63.700000,68.570000Z" fill="rgb(84,131,204)" stroke="none" stroke-width="1"/></svg>