<svg id="s1" xmlns="http://www.w3.org/2000/svg" xmlns:xlink="http://www.w3.org/1999/xlink" viewBox="0 0 100 100"><g id="s3"><rect id="s5" width="3.570000" height="3.570000" rx="0" ry="0" transform="translate(42.860000,62.500000)" fill="rgb(84,131,204)" stroke="none" stroke-width="1"/><rect id="s7" width="3.570000" height="3.570000" rx="0" ry="0" transform="translate(39.290000,66.070000)" fill="rgb(84,131,204)" stroke="none" stroke-width="1"/><rect id="s9" width="3.570000" height="3.570000" rx="0" ry="0" transform="translate(35.710000,69.640000)" fill="rgb(84,131,204)" stroke="none" stroke-width="1"/><polygon id="s11" points="32.140000,69.640000 32.140000,66.070000 32.140000,62.500000 32.140000,58.930000 32.140000,55.360000 32.140000,51.790000 32.140000,48.210000 32.140000,44.640000 32.140000,41.070000 32.140000,37.500000 32.140000,33.930000 32.140000,30.360000 32.140000,26.780000 32.140000,23.210000 35.710000,23.210000 35.710000,19.640000 32.140000,19.640000 32.140000,16.070000 28.570000,16.070000 28.570000,19.640000 28.570000,23.210000 28.570000,26.780000 28.570000,30.360000 28.570000,33.930000 28.570000,37.500000 28.570000,41.070000 28.570000,44.640000 28.570000,48.210000 28.570000,51.790000 28.570000,55.360000 28.570000,58.930000 28.570000,62.500000 28.570000,66.070000 28.570000,69.640000 28.570000,73.220000 28.570000,76.790000 32.140000,76.790000 35.710000,76.790000 35.710000,73.220000 32.140000,73.220000 32.140000,69.640000" fill="rgb(84,131,204)" stroke="none" stroke-width="1"/><rect id="s13" width="3.570000" height="3.570000" rx="0" ry="0" transform="translate(35.710000,23.210000)" fill="rgb(84,131,204)" stroke="none" stroke-width="1"/><rect id="s15" width="3.570000" height="3.570000" rx="0" ry="0" transform="translate(39.290000,26.780000)" fill="rgb(84,131,204)" stroke="none" stroke-width="1"/><rect id="s17" width="3.570000" height="3.570000" rx="0" ry="0" transform="translate(42.860000,30.360000)" fill="rgb(84,131,204)" stroke="none" stroke-width="1"/><rect id="s19" width="3.570000" height="3.570000" rx="0" ry="0" transform="translate(46.430000,33.930000)" fill="rgb(84,131,204)" stroke="none" stroke-width="1"/><rect id="s21" width="3.570000" height="3.570000" rx="0" ry="0" transform="translate(50,37.500000)" fill="rgb(84,131,204)" stroke="none" stroke-width="1"/><rect id="s23" width="3.570000" height="3.570000" rx="0" ry="0" transform="translate(53.570000,41.070000)" fill="rgb(84,131,204)" stroke="none" stroke-width="1"/><rect id="s25" width="3.570000" height="3.570000" rx="0" ry="0" transform="translate(57.140000,44.640000)" fill="rgb(84,131,204)" stroke="none" stroke-width="1"/><rect id="s27" width="3.570000" height="3.570000" rx="0" ry="0" transform="translate(60.710000,48.210000)" fill="rgb(84,131,204)" stroke="none" stroke-width="1"/><rect id="s29" width="3.570000" height="3.570000" rx="0" ry="0" transform="translate(64.290000,51.790000)" fill="rgb(84,131,204)" stroke="none" stroke-width="1"/><polygon id="s31" points="67.860000,55.360000 67.860000,58.930000 64.290000,58.930000 60.720000,58.930000 57.140000,58.930000 53.570000,58.930000 53.570000,62.500000 53.570000,66.070000 57.140000,66.070000 57.140000,62.500000 60.720000,62.500000 64.290000,62.500000 67.860000,62.500000 71.430000,62.500000 71.430000,58.930000 71.430000,55.360000 67.860000,55.360000" fill="rgb(84,131,204)" stroke="none" stroke-width="1"/><polygon id="s33" points="57.140000,73.220000 60.720000,73.220000 60.720000,69.640000 60.720000,66.070000 57.140000,66.070000 57.140000,69.640000 57.140000,73.220000" fill="rgb(84,131,204)" stroke="none" stroke-width="1"/><polygon id="s35" points="60.720000,80.360000 64.290000,80.360000 64.290000,76.790000 64.290000,73.220000 60.720000,73.220000 60.720000,76.790000 60.720000,80.360000" fill="rgb(84,131,204)" stroke="none" stroke-width="1"/><polygon id="s37" points="53.570000,80.360000 53.570000,83.930000 57.140000,83.930000 60.720000,83.930000 60.720000,80.360000 57.140000,80.360000 53.570000,80.360000" fill="rgb(84,131,204)" stroke="none" stroke-width="1"/><polygon id="s39" points="53.570000,73.220000 50,73.220000 50,76.790000 50,80.360000 53.570000,80.360000 53.570000,76.790000 53.570000,73.220000" fill="rgb(84,131,204)" stroke="none" stroke-width="1"/><polygon id="s41" points="50,66.070000 46.430000,66.070000 46.430000,69.640000 46.430000,73.220000 50,73.220000 50,69.640000 50,66.070000" fill="rgb(84,131,204)" stroke="none" stroke-width="1"/></g></svg>