<svg id="s1" xmlns="http://www.w3.org/2000/svg" xmlns:xlink="http://www.w3.org/1999/xlink" viewBox="0 0 400 400"><defs><linearGradient id="s5-fill" x1="119.250000" y1="310.050000" x2="119.250000" y2="307.440000" spreadMethod="pad" gradientUnits="userSpaceOnUse"><stop id="s5-fill-0" offset="3%" stop-color="rgb(159,159,161)"/><stop id="s5-fill-1" offset="100%" stop-color="rgb(129,129,130)"/></linearGradient><linearGradient id="s7-fill" x1="280.750000" y1="310.050000" x2="280.750000" y2="307.440000" spreadMethod="pad" gradientUnits="userSpaceOnUse"><stop id="s7-fill-0" offset="3%" stop-color="rgb(159,159,161)"/><stop id="s7-fill-1" offset="100%" stop-color="rgb(129,129,130)"/></linearGradient><linearGradient id="s9-fill" x1="107.080000" y1="324.660000" x2="107.080000" y2="321.670000" spreadMethod="pad" gradientUnits="userSpaceOnUse"><stop id="s9-fill-0" offset="3%" stop-color="rgb(184,184,186)"/><stop id="s9-fill-1" offset="100%" stop-color="rgb(157,157,158)"/></linearGradient><linearGradient id="s11-fill" x1="292.920000" y1="324.660000" x2="292.920000" y2="321.670000" spreadMethod="pad" gradientUnits="userSpaceOnUse"><stop id="s11-fill-0" offset="3%" stop-color="rgb(184,184,186)"/><stop id="s11-fill-1" offset="100%" stop-color="rgb(157,157,158)"/></linearGradient><linearGradient id="s13-fill" x1="200" y1="309.680000" x2="200" y2="293.580000" spreadMethod="pad" gradientUnits="userSpaceOnUse"><stop id="s13-fill-0" offset="3%" stop-color="rgb(184,184,186)"/><stop id="s13-fill-1" offset="100%" stop-color="rgb(157,157,158)"/></linearGradient><linearGradient id="s15-fill" x1="200" y1="324.670000" x2="200" y2="293.620000" spreadMethod="pad" gradientUnits="userSpaceOnUse"><stop id="s15-fill-0" offset="14%" stop-color="rgb(225,225,227)"/><stop id="s15-fill-1" offset="38%" stop-color="rgb(207,207,209)"/><stop id="s15-fill-2" offset="100%" stop-color="rgb(187,187,188)"/></linearGradient><linearGradient id="s17-fill" x1="177.050000" y1="212.650000" x2="149.350000" y2="-25.390000" spreadMethod="pad" gradientUnits="userSpaceOnUse"><stop id="s17-fill-0" offset="2%" stop-color="rgb(239,239,239)"/><stop id="s17-fill-1" offset="9%" stop-color="rgb(228,228,230)"/><stop id="s17-fill-2" offset="90%" stop-color="rgb(247,247,247)"/><stop id="s17-fill-3" offset="99%" stop-color="rgb(228,228,230)"/></linearGradient><linearGradient id="s19-fill" x1="14.410000" y1="369.529999" x2="274.130000" y2="266.289999" spreadMethod="pad" gradientUnits="userSpaceOnUse"><stop id="s19-fill-0" offset="0%" stop-color="rgb(88,91,97)"/><stop id="s19-fill-1" offset="85%" stop-color="rgb(72,75,78)"/><stop id="s19-fill-2" offset="100%" stop-color="rgb(76,79,84)"/></linearGradient></defs><g id="s3"><path id="s5" d="M115.240000,307.330000L114.660000,308.330000C114.460987,308.657876,114.454617,309.067685,114.643345,309.401588C114.832073,309.735491,115.186454,309.941396,115.570000,309.940000L119,309.940000C120.407640,309.939227,121.811544,309.795151,123.190000,309.510000L123.190000,309.510000C123.722002,309.383580,124.078001,308.882551,124.022338,308.338575C123.966676,307.794599,123.516581,307.376053,122.970000,307.360000Z" fill="url(#s5-fill)" stroke="none" stroke-width="1"/><path id="s7" d="M284.760000,307.330000L277.080000,307.330000C276.533419,307.346053,276.083324,307.764599,276.027662,308.308575C275.971999,308.852551,276.327998,309.353580,276.860000,309.480000L276.860000,309.480000C278.238456,309.765151,279.642360,309.909227,281.050000,309.910000L284.440000,309.910000C284.823546,309.911396,285.177927,309.705491,285.366655,309.371588C285.555383,309.037685,285.549013,308.627876,285.350000,308.300000Z" fill="url(#s7-fill)" stroke="none" stroke-width="1"/><path id="s9" d="M102.460000,321.540000L101.790000,322.650000C101.561384,323.020540,101.547564,323.484832,101.753737,323.868313C101.959910,324.251795,102.354823,324.496338,102.790000,324.510000L106.690000,324.510000C108.309127,324.510562,109.924110,324.346383,111.510000,324.020000L111.510000,324.020000C112.152732,323.904643,112.598371,323.313996,112.532876,322.664287C112.467381,322.014577,111.912824,321.524757,111.260000,321.540000Z" fill="url(#s9-fill)" stroke="none" stroke-width="1"/><path id="s11" d="M297.540000,321.540000L288.700000,321.540000C288.047176,321.524757,287.492619,322.014577,287.427124,322.664287C287.361629,323.313996,287.807268,323.904643,288.450000,324.020000L288.450000,324.020000C290.035890,324.346383,291.650873,324.510562,293.270000,324.510000L297.170000,324.510000C297.605177,324.496338,298.000090,324.251795,298.206263,323.868313C298.412436,323.484832,298.398616,323.020540,298.170000,322.650000Z" fill="url(#s11-fill)" stroke="none" stroke-width="1"/><path id="s13" d="M285.790000,307.360000L284.890000,305.790000C284.491960,305.098370,283.799391,304.626833,283.010000,304.510000L203.090000,292.920000L196.920000,292.920000L117,304.510000C116.210609,304.626833,115.518040,305.098370,115.120000,305.790000L114.220000,307.360000C114.017953,307.691225,114.025732,308.109427,114.239958,308.432908C114.454184,308.756390,114.836188,308.926761,115.220000,308.870000L200.050000,301.870000L284.880000,308.870000C285.248194,308.888649,285.596785,308.703202,285.787076,308.387443C285.977368,308.071685,285.978492,307.676837,285.790000,307.360000Z" fill="url(#s13-fill)" stroke="none" stroke-width="1"/><path id="s15" d="M298.210000,321.170000L296.350000,318.100000C295.592132,316.844569,294.352160,315.955259,292.920000,315.640000L210.850000,297.700000C208.870060,297.266730,207.151635,296.046504,206.090000,294.320000L205.190000,292.860000C204.975233,292.510986,204.599589,292.293113,204.190000,292.280000L201.100000,292.280000C200.656006,292.282695,200.249150,292.528344,200.040000,292.920000C199.830850,292.528344,199.423994,292.282695,198.980000,292.280000L195.890000,292.280000C195.480411,292.293113,195.104767,292.510986,194.890000,292.860000L193.990000,294.320000C192.928365,296.046504,191.209940,297.266730,189.230000,297.700000L107.160000,315.640000C105.727840,315.955259,104.487868,316.844569,103.730000,318.100000L101.870000,321.170000C101.641384,321.540540,101.627564,322.004832,101.833737,322.388313C102.039910,322.771795,102.434823,323.016338,102.870000,323.030000L106.770000,323.030000C108.389127,323.030562,110.004110,322.866383,111.590000,322.540000L200,304.310000L288.450000,322.530000C290.035890,322.856383,291.650873,323.020562,293.270000,323.020000L297.170000,323.020000C297.609165,323.018293,298.013523,322.780679,298.228732,322.397855C298.443942,322.015031,298.436787,321.546081,298.210000,321.170000Z" fill="url(#s15-fill)" stroke="none" stroke-width="1"/><rect id="s17" width="326.500000" height="188.090000" rx="2.730000" ry="2.730000" transform="translate(36.750000,105.490000)" fill="url(#s17-fill)" stroke="rgb(230,230,230)" stroke-width="1" stroke-miterlimit="10"/><rect id="s19" width="172.510000" height="310.930000" rx="1.420000" ry="1.420000" transform="translate(399.530000,-0.470000) rotate(90) translate(113.740000,44.070000)" fill="url(#s19-fill)" stroke="none" stroke-width="1"/></g></svg>