<svg id="s1" xmlns="http://www.w3.org/2000/svg" xmlns:xlink="http://www.w3.org/1999/xlink" viewBox="0 0 400 400"><defs><linearGradient id="s9-fill" x1="172.040000" y1="167.330000" x2="228.450000" y2="167.330000" spreadMethod="pad" gradientUnits="userSpaceOnUse"><stop id="s9-fill-0" offset="0%" stop-color="rgb(195,195,196)"/><stop id="s9-fill-1" offset="5%" stop-color="rgb(157,157,158)"/><stop id="s9-fill-2" offset="13%" stop-color="rgb(230,230,232)"/><stop id="s9-fill-3" offset="86%" stop-color="rgb(230,230,232)"/><stop id="s9-fill-4" offset="94%" stop-color="rgb(160,160,161)"/><stop id="s9-fill-5" offset="100%" stop-color="rgb(157,157,158)"/></linearGradient><linearGradient id="s13-fill" x1="3.910000" y1="-1.350000" x2="8.440000" y2="10.040000" spreadMethod="pad" gradientUnits="userSpaceOnUse"><stop id="s13-fill-0" offset="0%" stop-color="rgb(88,91,97)"/><stop id="s13-fill-1" offset="85%" stop-color="rgb(72,75,78)"/><stop id="s13-fill-2" offset="100%" stop-color="rgb(76,79,84)"/></linearGradient><linearGradient id="s15-fill" x1="3.910000" y1="-1.350000" x2="8.440000" y2="10.040000" spreadMethod="pad" gradientUnits="userSpaceOnUse"><stop id="s15-fill-0" offset="0%" stop-color="rgb(88,91,97)"/><stop id="s15-fill-1" offset="85%" stop-color="rgb(72,75,78)"/><stop id="s15-fill-2" offset="100%" stop-color="rgb(76,79,84)"/></linearGradient><linearGradient id="s19-fill" x1="153.770000" y1="279.910000" x2="241.270000" y2="279.910000" spreadMethod="pad" gradientUnits="userSpaceOnUse"><stop id="s19-fill-0" offset="2%" stop-color="rgb(69,72,77)"/><stop id="s19-fill-1" offset="14%" stop-color="rgb(99,102,110)"/><stop id="s19-fill-2" offset="26%" stop-color="rgb(69,72,77)"/><stop id="s19-fill-3" offset="90%" stop-color="rgb(69,72,77)"/><stop id="s19-fill-4" offset="100%" stop-color="rgb(99,102,110)"/></linearGradient><linearGradient id="s21-fill" x1="169.890000" y1="194.990000" x2="206.700000" y2="194.990000" spreadMethod="pad" gradientUnits="userSpaceOnUse"><stop id="s21-fill-0" offset="4%" stop-color="rgb(121,126,133)"/><stop id="s21-fill-1" offset="54%" stop-color="rgba(121,126,133,0.4)"/></linearGradient><linearGradient id="s41-fill" x1="153.770000" y1="74.570000" x2="241.270000" y2="74.570000" spreadMethod="pad" gradientUnits="userSpaceOnUse"><stop id="s41-fill-0" offset="2%" stop-color="rgb(69,72,77)"/><stop id="s41-fill-1" offset="14%" stop-color="rgb(99,102,110)"/><stop id="s41-fill-2" offset="26%" stop-color="rgb(69,72,77)"/><stop id="s41-fill-3" offset="90%" stop-color="rgb(69,72,77)"/><stop id="s41-fill-4" offset="100%" stop-color="rgb(99,102,110)"/></linearGradient><linearGradient id="s43-fill" x1="176.480000" y1="93.450000" x2="212.110000" y2="118.250000" spreadMethod="pad" gradientUnits="userSpaceOnUse"><stop id="s43-fill-0" offset="10%" stop-color="rgba(64,67,69,0.5)"/><stop id="s43-fill-1" offset="100%" stop-color="rgb(56,58,60)"/></linearGradient></defs><g id="s3"><g id="s5"><g id="s7"><path id="s9" d="M175.360000,138.790000L224.630000,138.790000C225.635158,138.790000,226.450000,139.604842,226.450000,140.610000L226.450000,195.870000L173.550000,195.870000L173.550000,140.600000C173.550000,139.594842,174.364842,138.780000,175.370000,138.780000Z" fill="url(#s9-fill)" stroke="none" stroke-width="1"/><path id="s11" d="M201.850000,138.790000L201.850000,146.690000C201.850000,146.886260,201.772036,147.074482,201.633259,147.213259C201.494482,147.352036,201.306260,147.430000,201.110000,147.430000L196.320000,147.430000C196.123740,147.430000,195.935518,147.507964,195.796741,147.646741C195.657964,147.785518,195.580000,147.973740,195.580000,148.170000L195.580000,157.630000C195.580000,157.826260,195.657964,158.014482,195.796741,158.153259C195.935518,158.292036,196.123740,158.370000,196.320000,158.370000L201.110000,158.370000C201.306260,158.370000,201.494482,158.447964,201.633259,158.586741C201.772036,158.725518,201.850000,158.913740,201.850000,159.110000L201.850000,175.640000C201.850000,175.836260,201.772036,176.024482,201.633259,176.163259C201.494482,176.302036,201.306260,176.380000,201.110000,176.380000L196.320000,176.380000C196.123740,176.380000,195.935518,176.457964,195.796741,176.596741C195.657964,176.735518,195.580000,176.923740,195.580000,177.120000L195.580000,186.580000C195.580000,186.776260,195.657964,186.964482,195.796741,187.103259C195.935518,187.242036,196.123740,187.320000,196.320000,187.320000L201.110000,187.320000C201.306260,187.320000,201.494482,187.397964,201.633259,187.536741C201.772036,187.675518,201.850000,187.863740,201.850000,188.060000L201.850000,195.880000" fill="none" stroke="rgb(209,209,210)" stroke-width="1" stroke-miterlimit="10"/><rect id="s13" width="12.360000" height="8.700000" rx="0.660000" ry="0.660000" transform="translate(180.510000,158.630000)" fill="url(#s13-fill)" stroke="none" stroke-width="1"/><rect id="s15" width="12.360000" height="8.700000" rx="0.660000" ry="0.660000" transform="translate(207.140000,158.630000)" fill="url(#s15-fill)" stroke="none" stroke-width="1"/></g><g id="s17"><path id="s19" d="M163.890000,192.740000C163.144742,192.740000,162.430007,193.036053,161.903030,193.563030C161.376053,194.090007,161.080000,194.804742,161.080000,195.550000L161.080000,346.550000L161.080000,346.550000C161.080000,354.320000,162.700000,367.060000,200,367.060000C237.300000,367.060000,238.920000,354.320000,238.920000,346.550000L238.920000,195.550000C238.920000,194.804742,238.623947,194.090007,238.096970,193.563030C237.569993,193.036053,236.855258,192.740000,236.110000,192.740000Z" fill="url(#s19-fill)" stroke="none" stroke-width="1"/><path id="s21" d="M238.920000,195.550000L238.920000,197.250000C238.920000,196.504742,238.623947,195.790007,238.096970,195.263030C237.569993,194.736053,236.855258,194.440000,236.110000,194.440000L163.890000,194.440000C163.144742,194.440000,162.430007,194.736053,161.903030,195.263030C161.376053,195.790007,161.080000,196.504742,161.080000,197.250000L161.080000,195.550000C161.080000,194.804742,161.376053,194.090007,161.903030,193.563030C162.430007,193.036053,163.144742,192.740000,163.890000,192.740000L236.110000,192.740000C236.855258,192.740000,237.569993,193.036053,238.096970,193.563030C238.623947,194.090007,238.920000,194.804742,238.920000,195.550000Z" fill="url(#s21-fill)" stroke="none" stroke-width="1"/></g><g id="s23"><circle id="s25" r="6.780000" transform="translate(200,279.910000)" fill="rgb(121,126,133)" stroke="none" stroke-width="1"/><line id="s27" x1="200" y1="273.940000" x2="200" y2="230.940000" fill="none" stroke="rgb(121,126,133)" stroke-width="3" stroke-miterlimit="10"/><path id="s29" d="M199.310000,221.750000L193.860000,231.200000C193.715753,231.445630,193.714911,231.749895,193.857796,231.996320C194.000681,232.242745,194.265164,232.393166,194.550000,232.390000L205.460000,232.390000C205.744836,232.393166,206.009319,232.242745,206.152204,231.996320C206.295089,231.749895,206.294247,231.445630,206.150000,231.200000L200.700000,221.750000C200.562029,221.494702,200.295195,221.335600,200.005000,221.335600C199.714805,221.335600,199.447971,221.494702,199.310000,221.750000Z" fill="rgb(121,126,133)" stroke="none" stroke-width="1"/><rect id="s31" width="8.090000" height="8.090000" rx="0.940000" ry="0.940000" transform="translate(207.580000,236.670000)" fill="rgb(121,126,133)" stroke="none" stroke-width="1"/><circle id="s33" r="5.240000" transform="translate(188.610000,245.960000)" fill="rgb(121,126,133)" stroke="none" stroke-width="1"/><path id="s35" d="M188.560000,247.460000L188.560000,258.590000C188.570988,262.589504,191.810496,265.829012,195.810000,265.840000L200.180000,265.840000" fill="none" stroke="rgb(121,126,133)" stroke-width="3" stroke-miterlimit="10"/><path id="s37" d="M211.630000,240.340000L211.630000,251.470000C211.619012,255.469504,208.379504,258.709012,204.380000,258.720000L200,258.720000" fill="none" stroke="rgb(121,126,133)" stroke-width="3" stroke-miterlimit="10"/></g></g><g id="s39"><path id="s41" d="M236.110000,113.200000C236.855258,113.200000,237.569993,112.903947,238.096970,112.376970C238.623947,111.849993,238.920000,111.135258,238.920000,110.390000L238.920000,56.390000L238.920000,56.390000C238.920000,48.620000,237.300000,35.880000,200,35.880000C162.700000,35.880000,161.080000,48.620000,161.080000,56.390000L161.080000,110.390000C161.080000,111.135258,161.376053,111.849993,161.903030,112.376970C162.430007,112.903947,163.144742,113.200000,163.890000,113.200000Z" fill="url(#s41-fill)" stroke="none" stroke-width="1"/><path id="s43" d="M238.920000,107.780000L238.920000,110.390000C238.920000,111.135258,238.623947,111.849993,238.096970,112.376970C237.569993,112.903947,236.855258,113.200000,236.110000,113.200000L163.890000,113.200000C163.144742,113.200000,162.430007,112.903947,161.903030,112.376970C161.376053,111.849993,161.080000,111.135258,161.080000,110.390000L161.080000,107.780000C161.080000,108.525258,161.376053,109.239993,161.903030,109.766970C162.430007,110.293947,163.144742,110.590000,163.890000,110.590000L236.110000,110.590000C236.855258,110.590000,237.569993,110.293947,238.096970,109.766970C238.623947,109.239993,238.920000,108.525258,238.920000,107.780000Z" fill="url(#s43-fill)" stroke="none" stroke-width="1"/></g></g></svg>