<svg id="s1" xmlns="http://www.w3.org/2000/svg" xmlns:xlink="http://www.w3.org/1999/xlink" viewBox="0 0 100 100"><path id="s3" d="M72.580000,31.310000C71.214996,29.970559,69.361408,29.247913,67.450000,29.310000C61.210000,29.110000,56.800000,32.430000,54.330000,39.180000C54.199024,39.533042,54.277473,39.929728,54.532970,40.206341C54.788467,40.482953,55.177690,40.592589,55.540000,40.490000C56.220540,40.300194,56.923491,40.202656,57.630000,40.200000C58.640065,40.113734,59.636351,40.480015,60.350000,41.200000C60.836100,42.026789,60.906433,43.033659,60.540000,43.920000C59.574217,46.199814,58.388616,48.380113,57,50.430000C54.780000,53.910000,53.560000,55.430000,53.210000,55.430000C52.040000,55.430000,47.810000,36.690000,47.700000,36.280000C46.490000,31.990000,45.880000,29.830000,41.940000,29.830000C38.940000,29.830000,32.240000,35.320000,26.730000,40.090000L25.890000,40.820000C25.358867,41.275618,25.279605,42.068229,25.710000,42.620000L26.710000,43.940000C27.141491,44.490782,27.929642,44.605262,28.500000,44.200000L28.560000,44.200000C30.340000,42.930000,32.020000,41.740000,33.290000,41.670000C34.560000,41.600000,35.870000,43.760000,37.290000,48.880000C40.010000,58.880000,44.140000,70.710000,48.370000,70.710000C52.800000,70.710000,58.080000,66.960000,64.910000,58.070000C71.090000,50.070000,74.400000,43.650000,74.610000,39.010000L74.610000,39.010000C74.750000,35.520000,74.070000,32.930000,72.580000,31.310000Z" fill="rgb(84,131,204)" stroke="none" stroke-width="1"/></svg>