<svg id="s1" xmlns="http://www.w3.org/2000/svg" xmlns:xlink="http://www.w3.org/1999/xlink" viewBox="0 0 400 400"><defs><clipPath id="s3"><path id="s5" d="M91.260000,250.660000L272.350000,260.240000C274.676364,260.449682,276.837926,259.020740,277.556421,256.798196C278.274915,254.575653,277.358871,252.151795,275.350000,250.960000L275.090000,250.790000C258.090000,239.640000,229.500000,224.790000,178.270000,224.220000L176.660000,224.220000C141.430000,224.220000,112.530000,236.380000,91.440000,245.220000L90.440000,245.660000C89.300763,246.104494,88.627652,247.285249,88.825561,248.492008C89.023469,249.698767,90.038465,250.602672,91.260000,250.660000Z" fill="none" stroke="none" stroke-width="1"/></clipPath></defs><g id="s7"><g id="s9"><path id="s11" d="M66.390000,246C57.390000,248,31.690000,247.870000,30.840000,254C29.990000,260.130000,33.370000,260,32.260000,275.150000C31.470000,285.820000,26.940000,306.690000,37.560000,312.890000C53.340000,322.090000,97.860000,324.050000,145.260000,324.460000C223.600000,325.150000,369.680000,325.300000,379.510000,323C382.250000,322.360000,385.260000,314.410000,386.010000,307.500000C387.300000,295.660000,385.600000,292.640000,380.740000,291.370000L382.110000,282.970000C382.346825,281.513511,381.743505,280.047752,380.550000,279.180000C375,275.130000,356.830000,263.980000,317.610000,257.590000C305.390000,255.590000,297.980000,256.200000,279.490000,244.100000C261,232,231.400000,216.790000,178.370000,216.230000C125.340000,215.670000,86,241.590000,66.390000,246Z" fill="rgb(199,70,71)" stroke="none" stroke-width="1"/><path id="s13" d="M108.640000,255.380000C103.640000,263.820000,103.580000,270.850000,118.780000,285.810000C131.150000,297.990000,140.450000,307.750000,144.780000,312.350000C146.498328,314.183563,148.887416,315.240969,151.400000,315.280000L267.620000,317.170000C270.412451,317.206166,272.959223,315.579063,274.100000,313.030000C278.380000,303.340000,287.590000,279.110000,280.620000,263.520000" fill="none" stroke="rgb(161,47,47)" stroke-width="3" stroke-linecap="round" stroke-miterlimit="10"/><path id="s15" d="M191,315.150000C193.310000,297.720000,192.130000,277.070000,190.440000,259" fill="none" stroke="rgb(161,47,47)" stroke-width="3" stroke-linecap="round" stroke-miterlimit="10"/><path id="s17" d="M32.070000,277.220000L44.600000,276.640000C48.456394,276.477039,51.912466,274.211392,53.600000,270.740000L55.870000,266.080000C56.519307,264.748207,56.435435,263.175635,55.648154,261.920461C54.860873,260.665287,53.481638,259.905204,52,259.910000C46,259.910000,37.400000,259.910000,31.390000,259.910000C32.070000,262.620000,32.960000,266.250000,32.300000,275.120000C32.200000,275.800000,32.140000,276.500000,32.070000,277.220000Z" fill="rgb(224,222,190)" stroke="none" stroke-width="1"/><g id="s19"><path id="s21" d="M91.260000,250.660000L272.350000,260.240000C274.676364,260.449682,276.837926,259.020740,277.556421,256.798196C278.274915,254.575653,277.358871,252.151795,275.350000,250.960000L275.090000,250.790000C258.090000,239.640000,229.500000,224.790000,178.270000,224.220000L176.660000,224.220000C141.430000,224.220000,112.530000,236.380000,91.440000,245.220000L90.440000,245.660000C89.300763,246.104494,88.627652,247.285249,88.825561,248.492008C89.023469,249.698767,90.038465,250.602672,91.260000,250.660000Z" fill="rgb(110,210,230)" stroke="none" stroke-width="1"/><g id="s23"><g id="s25" clip-path="url(#s3)"><g id="s27"><polygon id="s29" points="202.570000,296.950000 223.570000,296.950000 277.290000,169.820000 256.290000,169.820000 202.570000,296.950000" fill="rgb(151,236,252)" stroke="none" stroke-width="1"/><polygon id="s31" points="187.870000,296.950000 195.870000,296.950000 249.600000,169.820000 241.600000,169.820000 187.870000,296.950000" fill="rgb(151,236,252)" stroke="none" stroke-width="1"/><polygon id="s33" points="148.210000,296.140000 153.210000,296.140000 206.930000,169.010000 201.930000,169.010000 148.210000,296.140000" fill="rgb(151,236,252)" stroke="none" stroke-width="1"/><polygon id="s35" points="116.280000,296.140000 141.280000,296.140000 195,169.010000 170,169.010000 116.280000,296.140000" fill="rgb(151,236,252)" stroke="none" stroke-width="1"/><polygon id="s37" points="102.620000,296.140000 110.620000,296.140000 164.340000,169.010000 156.340000,169.010000 102.620000,296.140000" fill="rgb(151,236,252)" stroke="none" stroke-width="1"/></g></g></g></g><path id="s39" d="M189.110000,224.570000C187.110000,224.460000,185.110000,224.370000,183.020000,224.310000C183.010650,224.446507,183.010650,224.583493,183.020000,224.720000C183.020000,224.990000,185.330000,238.170000,187.100000,255.720000L193.200000,256.040000C191.670000,240.340000,189.680000,228,189.110000,224.570000Z" fill="rgb(199,70,71)" stroke="none" stroke-width="1"/><path id="s41" d="M124.900000,232.570000C112.230000,236.510000,101.030000,241.220000,91.450000,245.250000L90.450000,245.690000C89.307099,246.137503,88.635237,247.325762,88.840942,248.535790C89.046647,249.745818,90.073425,250.645308,91.300000,250.690000L111.040000,251.690000L111.040000,251.690000C111.510000,250.950000,120.480000,238.630000,124.900000,232.570000Z" fill="rgb(79,170,189)" stroke="none" stroke-width="1"/><path id="s43" d="M277.050000,261.420000L270.770000,262.900000C269.553913,263.181490,268.275879,262.890811,267.301167,262.111041C266.326455,261.331272,265.762322,260.148217,265.770000,258.900000L265.770000,253.900000C265.770476,252.734598,266.269292,251.625025,267.140641,250.851129C268.011990,250.077234,269.172691,249.712894,270.330000,249.850000L276.240000,250.550000C279.085826,250.870461,281.237640,253.276189,281.240000,256.140000L281.240000,256.140000C281.259392,258.666549,279.514886,260.864876,277.050000,261.420000Z" fill="rgb(161,47,47)" stroke="none" stroke-width="1"/><path id="s45" d="M381.850000,284.470000C372.090000,278.800000,351.330000,272.410000,350,276C347.940000,281.540000,371.790000,289.070000,380.730000,291.370000" fill="rgb(224,222,190)" stroke="none" stroke-width="1"/><path id="s47" d="M117.590000,259.380000L133.590000,260.310000C134.124965,260.329231,134.601349,260.653956,134.814791,261.144873C135.028233,261.635791,134.940801,262.205653,134.590000,262.610000C130.180000,267.610000,118.920000,266.520000,116.240000,261.350000C116.028116,260.905636,116.068998,260.382048,116.347284,259.975956C116.625571,259.569864,117.099115,259.342771,117.590000,259.380000Z" fill="rgb(161,47,47)" stroke="none" stroke-width="1"/><path id="s49" d="M200.590000,263.450000L216.590000,264.380000C217.124965,264.399231,217.601349,264.723956,217.814791,265.214873C218.028233,265.705791,217.940801,266.275653,217.590000,266.680000C213.180000,271.680000,201.920000,270.590000,199.240000,265.420000C199.028116,264.975636,199.068998,264.452048,199.347284,264.045956C199.625571,263.639864,200.099115,263.412771,200.590000,263.450000Z" fill="rgb(161,47,47)" stroke="none" stroke-width="1"/><path id="s51" d="M355.120000,303.620000L351.400000,316C351.160197,316.798756,351.316545,317.664015,351.820719,318.328338C352.324893,318.992661,353.116178,319.376048,353.950000,319.360000C366.260000,319.110000,374.490000,318.770000,376.440000,318.360000C378.770000,317.820000,381.320000,311.070000,381.960000,305.210000C382.070000,304.210000,382.160000,303.210000,382.210000,302.340000C382.259235,301.635887,382.021192,300.941852,381.550161,300.416182C381.079130,299.890511,380.415276,299.578028,379.710000,299.550000L361.900000,298.820000C358.810706,298.689619,356.023460,300.662890,355.120000,303.620000Z" fill="rgb(161,47,47)" stroke="none" stroke-width="1"/></g><g id="s53"><circle id="s55" r="28.200000" transform="translate(318.420000,314.020000)" fill="rgb(64,57,69)" stroke="none" stroke-width="1"/><circle id="s57" r="19.240000" transform="translate(318.420000,314.020000)" fill="rgb(168,168,168)" stroke="none" stroke-width="1"/><circle id="s59" r="14.870000" transform="translate(318.420000,314.020000)" fill="rgb(224,224,224)" stroke="none" stroke-width="1"/><line id="s61" x1="318.420000" y1="296.800000" x2="318.420000" y2="310.350000" fill="none" stroke="rgb(168,168,168)" stroke-width="2.518940" stroke-miterlimit="10"/><line id="s63" x1="328.530000" y1="300.090000" x2="320.570000" y2="311.050000" fill="none" stroke="rgb(168,168,168)" stroke-width="2.518940" stroke-miterlimit="10"/><line id="s65" x1="334.790000" y1="308.700000" x2="321.900000" y2="312.880000" fill="none" stroke="rgb(168,168,168)" stroke-width="2.518940" stroke-miterlimit="10"/><line id="s67" x1="334.790000" y1="319.340000" x2="321.900000" y2="315.150000" fill="none" stroke="rgb(168,168,168)" stroke-width="2.518940" stroke-miterlimit="10"/><line id="s69" x1="328.530000" y1="327.940000" x2="320.570000" y2="316.980000" fill="none" stroke="rgb(168,168,168)" stroke-width="2.518940" stroke-miterlimit="10"/><line id="s71" x1="318.420000" y1="331.230000" x2="318.420000" y2="317.680000" fill="none" stroke="rgb(168,168,168)" stroke-width="2.518940" stroke-miterlimit="10"/><line id="s73" x1="308.300000" y1="327.940000" x2="316.260000" y2="316.980000" fill="none" stroke="rgb(168,168,168)" stroke-width="2.518940" stroke-miterlimit="10"/><line id="s75" x1="302.050000" y1="319.340000" x2="314.930000" y2="315.150000" fill="none" stroke="rgb(168,168,168)" stroke-width="2.518940" stroke-miterlimit="10"/><line id="s77" x1="302.050000" y1="308.700000" x2="314.930000" y2="312.880000" fill="none" stroke="rgb(168,168,168)" stroke-width="2.518940" stroke-miterlimit="10"/><line id="s79" x1="308.300000" y1="300.090000" x2="316.260000" y2="311.050000" fill="none" stroke="rgb(168,168,168)" stroke-width="2.518940" stroke-miterlimit="10"/><circle id="s81" r="4.910000" transform="translate(318.420000,314.020000)" fill="rgb(69,62,74)" stroke="none" stroke-width="1"/></g><g id="s83"><circle id="s85" r="28.200000" transform="translate(96.130000,314.020000)" fill="rgb(64,57,69)" stroke="none" stroke-width="1"/><circle id="s87" r="19.240000" transform="translate(96.130000,314.020000)" fill="rgb(168,168,168)" stroke="none" stroke-width="1"/><circle id="s89" r="14.870000" transform="translate(96.130000,314.020000)" fill="rgb(224,224,224)" stroke="none" stroke-width="1"/><line id="s91" x1="96.130000" y1="296.800000" x2="96.130000" y2="310.350000" fill="none" stroke="rgb(168,168,168)" stroke-width="2.518940" stroke-miterlimit="10"/><line id="s93" x1="106.250000" y1="300.090000" x2="98.290000" y2="311.050000" fill="none" stroke="rgb(168,168,168)" stroke-width="2.518940" stroke-miterlimit="10"/><line id="s95" x1="112.500000" y1="308.700000" x2="99.620000" y2="312.880000" fill="none" stroke="rgb(168,168,168)" stroke-width="2.518940" stroke-miterlimit="10"/><line id="s97" x1="112.500000" y1="319.340000" x2="99.620000" y2="315.150000" fill="none" stroke="rgb(168,168,168)" stroke-width="2.518940" stroke-miterlimit="10"/><line id="s99" x1="106.250000" y1="327.940000" x2="98.290000" y2="316.980000" fill="none" stroke="rgb(168,168,168)" stroke-width="2.518940" stroke-miterlimit="10"/><line id="s101" x1="96.130000" y1="331.230000" x2="96.130000" y2="317.680000" fill="none" stroke="rgb(168,168,168)" stroke-width="2.518940" stroke-miterlimit="10"/><line id="s103" x1="86.010000" y1="327.940000" x2="93.970000" y2="316.980000" fill="none" stroke="rgb(168,168,168)" stroke-width="2.518940" stroke-miterlimit="10"/><line id="s105" x1="79.760000" y1="319.340000" x2="92.640000" y2="315.150000" fill="none" stroke="rgb(168,168,168)" stroke-width="2.518940" stroke-miterlimit="10"/><line id="s107" x1="79.760000" y1="308.700000" x2="92.640000" y2="312.880000" fill="none" stroke="rgb(168,168,168)" stroke-width="2.518940" stroke-miterlimit="10"/><line id="s109" x1="86.010000" y1="300.090000" x2="93.970000" y2="311.050000" fill="none" stroke="rgb(168,168,168)" stroke-width="2.518940" stroke-miterlimit="10"/><circle id="s111" r="4.910000" transform="translate(96.130000,314.020000)" fill="rgb(69,62,74)" stroke="none" stroke-width="1"/></g></g></svg>