<svg id="s1" xmlns="http://www.w3.org/2000/svg" xmlns:xlink="http://www.w3.org/1999/xlink" viewBox="0 0 100 100"><g id="s3"><rect id="s5" width="3.330000" height="3.330000" rx="0" ry="0" transform="translate(32.400000,83.560000)" fill="rgb(84,131,204)" stroke="none" stroke-width="1"/><rect id="s7" width="3.330000" height="3.330000" rx="0" ry="0" transform="translate(35.730000,80.230000)" fill="rgb(84,131,204)" stroke="none" stroke-width="1"/><rect id="s9" width="3.330000" height="3.330000" rx="0" ry="0" transform="translate(39.060000,76.900000)" fill="rgb(84,131,204)" stroke="none" stroke-width="1"/><rect id="s11" width="3.330000" height="3.330000" rx="0" ry="0" transform="translate(42.390000,73.570000)" fill="rgb(84,131,204)" stroke="none" stroke-width="1"/><rect id="s13" width="3.330000" height="3.330000" rx="0" ry="0" transform="translate(45.710000,70.250000)" fill="rgb(84,131,204)" stroke="none" stroke-width="1"/><rect id="s15" width="3.330000" height="3.330000" rx="0" ry="0" transform="translate(49.040000,66.920000)" fill="rgb(84,131,204)" stroke="none" stroke-width="1"/><rect id="s17" width="3.330000" height="3.330000" rx="0" ry="0" transform="translate(52.370000,63.590000)" fill="rgb(84,131,204)" stroke="none" stroke-width="1"/><rect id="s19" width="3.330000" height="3.330000" rx="0" ry="0" transform="translate(55.700000,63.590000)" fill="rgb(84,131,204)" stroke="none" stroke-width="1"/><rect id="s21" width="3.330000" height="3.330000" rx="0" ry="0" transform="translate(59.020000,63.590000)" fill="rgb(84,131,204)" stroke="none" stroke-width="1"/><rect id="s23" width="3.330000" height="3.330000" rx="0" ry="0" transform="translate(62.350000,63.590000)" fill="rgb(84,131,204)" stroke="none" stroke-width="1"/><rect id="s25" width="3.330000" height="3.330000" rx="0" ry="0" transform="translate(65.680000,63.590000)" fill="rgb(84,131,204)" stroke="none" stroke-width="1"/><rect id="s27" width="3.330000" height="3.330000" rx="0" ry="0" transform="translate(69.010000,63.590000)" fill="rgb(84,131,204)" stroke="none" stroke-width="1"/><rect id="s29" width="3.330000" height="3.330000" rx="0" ry="0" transform="translate(72.330000,63.590000)" fill="rgb(84,131,204)" stroke="none" stroke-width="1"/><rect id="s31" width="3.330000" height="3.330000" rx="0" ry="0" transform="translate(75.660000,63.590000)" fill="rgb(84,131,204)" stroke="none" stroke-width="1"/><rect id="s33" width="3.330000" height="3.330000" rx="0" ry="0" transform="translate(78.990000,63.590000)" fill="rgb(84,131,204)" stroke="none" stroke-width="1"/><rect id="s35" width="3.330000" height="3.330000" rx="0" ry="0" transform="translate(75.660000,60.260000)" fill="rgb(84,131,204)" stroke="none" stroke-width="1"/><rect id="s37" width="3.330000" height="3.330000" rx="0" ry="0" transform="translate(72.330000,56.940000)" fill="rgb(84,131,204)" stroke="none" stroke-width="1"/><rect id="s39" width="3.330000" height="3.330000" rx="0" ry="0" transform="translate(69.010000,53.610000)" fill="rgb(84,131,204)" stroke="none" stroke-width="1"/><rect id="s41" width="3.330000" height="3.330000" rx="0" ry="0" transform="translate(65.680000,50.280000)" fill="rgb(84,131,204)" stroke="none" stroke-width="1"/><rect id="s43" width="3.330000" height="3.330000" rx="0" ry="0" transform="translate(62.350000,46.950000)" fill="rgb(84,131,204)" stroke="none" stroke-width="1"/><rect id="s45" width="3.330000" height="3.330000" rx="0" ry="0" transform="translate(59.020000,43.630000)" fill="rgb(84,131,204)" stroke="none" stroke-width="1"/><rect id="s47" width="3.330000" height="3.330000" rx="0" ry="0" transform="translate(55.700000,40.300000)" fill="rgb(84,131,204)" stroke="none" stroke-width="1"/><rect id="s49" width="3.330000" height="3.330000" rx="0" ry="0" transform="translate(52.370000,36.970000)" fill="rgb(84,131,204)" stroke="none" stroke-width="1"/><rect id="s51" width="3.330000" height="3.330000" rx="0" ry="0" transform="translate(49.040000,33.650000)" fill="rgb(84,131,204)" stroke="none" stroke-width="1"/><rect id="s53" width="3.330000" height="3.330000" rx="0" ry="0" transform="translate(45.710000,30.320000)" fill="rgb(84,131,204)" stroke="none" stroke-width="1"/><rect id="s55" width="3.330000" height="3.330000" rx="0" ry="0" transform="translate(42.390000,26.990000)" fill="rgb(84,131,204)" stroke="none" stroke-width="1"/><rect id="s57" width="3.330000" height="3.330000" rx="0" ry="0" transform="translate(39.060000,23.660000)" fill="rgb(84,131,204)" stroke="none" stroke-width="1"/><rect id="s59" width="3.330000" height="3.330000" rx="0" ry="0" transform="translate(35.730000,20.340000)" fill="rgb(84,131,204)" stroke="none" stroke-width="1"/><rect id="s61" width="3.330000" height="3.330000" rx="0" ry="0" transform="translate(32.400000,17.010000)" fill="rgb(84,131,204)" stroke="none" stroke-width="1"/><rect id="s63" width="3.330000" height="3.330000" rx="0" ry="0" transform="translate(32.400000,20.340000)" fill="rgb(84,131,204)" stroke="none" stroke-width="1"/><rect id="s65" width="3.330000" height="3.330000" rx="0" ry="0" transform="translate(32.400000,23.660000)" fill="rgb(84,131,204)" stroke="none" stroke-width="1"/><rect id="s67" width="3.330000" height="3.330000" rx="0" ry="0" transform="translate(32.400000,26.990000)" fill="rgb(84,131,204)" stroke="none" stroke-width="1"/><rect id="s69" width="3.330000" height="3.330000" rx="0" ry="0" transform="translate(32.400000,30.320000)" fill="rgb(84,131,204)" stroke="none" stroke-width="1"/><rect id="s71" width="3.330000" height="3.330000" rx="0" ry="0" transform="translate(32.400000,33.650000)" fill="rgb(84,131,204)" stroke="none" stroke-width="1"/><rect id="s73" width="3.330000" height="3.330000" rx="0" ry="0" transform="translate(32.400000,36.970000)" fill="rgb(84,131,204)" stroke="none" stroke-width="1"/><rect id="s75" width="3.330000" height="3.330000" rx="0" ry="0" transform="translate(32.400000,40.300000)" fill="rgb(84,131,204)" stroke="none" stroke-width="1"/><rect id="s77" width="3.330000" height="3.330000" rx="0" ry="0" transform="translate(32.400000,43.630000)" fill="rgb(84,131,204)" stroke="none" stroke-width="1"/><rect id="s79" width="3.330000" height="3.330000" rx="0" ry="0" transform="translate(32.400000,46.950000)" fill="rgb(84,131,204)" stroke="none" stroke-width="1"/><rect id="s81" width="3.330000" height="3.330000" rx="0" ry="0" transform="translate(32.400000,50.280000)" fill="rgb(84,131,204)" stroke="none" stroke-width="1"/><rect id="s83" width="3.330000" height="3.330000" rx="0" ry="0" transform="translate(32.400000,53.610000)" fill="rgb(84,131,204)" stroke="none" stroke-width="1"/><rect id="s85" width="3.330000" height="3.330000" rx="0" ry="0" transform="translate(32.400000,56.940000)" fill="rgb(84,131,204)" stroke="none" stroke-width="1"/><rect id="s87" width="3.330000" height="3.330000" rx="0" ry="0" transform="translate(32.400000,60.260000)" fill="rgb(84,131,204)" stroke="none" stroke-width="1"/><rect id="s89" width="3.330000" height="3.330000" rx="0" ry="0" transform="translate(32.400000,63.590000)" fill="rgb(84,131,204)" stroke="none" stroke-width="1"/><rect id="s91" width="3.330000" height="3.330000" rx="0" ry="0" transform="translate(32.400000,66.920000)" fill="rgb(84,131,204)" stroke="none" stroke-width="1"/><rect id="s93" width="3.330000" height="3.330000" rx="0" ry="0" transform="translate(32.400000,70.250000)" fill="rgb(84,131,204)" stroke="none" stroke-width="1"/><rect id="s95" width="3.330000" height="3.330000" rx="0" ry="0" transform="translate(32.400000,73.570000)" fill="rgb(84,131,204)" stroke="none" stroke-width="1"/><rect id="s97" width="3.330000" height="3.330000" rx="0" ry="0" transform="translate(32.400000,76.900000)" fill="rgb(84,131,204)" stroke="none" stroke-width="1"/><rect id="s99" width="3.330000" height="3.330000" rx="0" ry="0" transform="translate(32.400000,80.230000)" fill="rgb(84,131,204)" stroke="none" stroke-width="1"/></g></svg>