<svg id="eHjPNh2b90y1" xmlns="http://www.w3.org/2000/svg" xmlns:xlink="http://www.w3.org/1999/xlink" viewBox="0 0 400 400" shape-rendering="geometricPrecision" text-rendering="geometricPrecision"><defs><linearGradient id="eHjPNh2b90y10-fill" x1="106.362201" y1="198.919750" x2="200.614308" y2="198.919750" spreadMethod="pad" gradientUnits="userSpaceOnUse"><stop id="eHjPNh2b90y10-fill-0" offset="0%" stop-color="rgb(230,230,230)"/><stop id="eHjPNh2b90y10-fill-1" offset="100%" stop-color="rgb(255,255,255)"/></linearGradient></defs><g id="eHjPNh2b90y2"><path id="eHjPNh2b90y3" d="M268.500000,369.100000C270.200000,252.900000,273.100000,142.900000,290.900000,33.400000C262.900000,40.700000,201.600000,56.900000,167.600000,61.500000C152.100000,160.200000,175.100000,252.500000,170.100000,369.100000L268.500000,369.100000Z" clip-rule="evenodd" fill="rgb(230,230,230)" fill-rule="evenodd" stroke="none" stroke-width="1"/><path id="eHjPNh2b90y4" d="M249.100000,44.200000C276.600000,50.200000,277,75.300000,266.300000,204.900000C269.300000,91.500000,267.800000,55.500000,249.100000,44.200000L249.100000,44.200000Z" clip-rule="evenodd" fill="rgb(204,204,204)" fill-rule="evenodd" stroke="none" stroke-width="1"/><path id="eHjPNh2b90y5" d="M267,369.100000C267.800000,311,269,254.400000,272.100000,198.700000C275.300000,142.900000,280.400000,88.700000,289.300000,33.800000L292.600000,32.800000C283.700000,87.500000,278.400000,143.100000,275.200000,198.800000C272,254.500000,270.900000,311.100000,270.100000,369.100000L267,369.100000L267,369.100000Z" fill="rgb(179,179,179)" stroke="none" stroke-width="1"/></g><path id="eHjPNh2b90y6" d="M236.500000,369.100000C223.300000,183.100000,212.200000,73.500000,216.500000,39.200000C279.100000,38.900000,269.800000,48.600000,261.800000,369.100000L236.500000,369.100000Z" clip-rule="evenodd" fill="rgb(26,26,26)" fill-rule="evenodd" stroke="none" stroke-width="1"/><g id="eHjPNh2b90y7"><path id="eHjPNh2b90y8" d="M107.400000,369.100000C126.900000,223.100000,137.700000,133.200000,114.200000,51C136,42.400000,188.200000,29.900000,223.300000,25.400000C211.600000,115,241,252.700000,238.900000,369.100000L107.400000,369.100000Z" clip-rule="evenodd" fill="rgb(255,255,255)" fill-rule="evenodd" stroke="none" stroke-width="1"/><path id="eHjPNh2b90y9" d="M224.900000,25C218.500000,74.500000,224.500000,139.200000,230.900000,206.400000C236.100000,260.700000,241.400000,317,240.500000,369.100000L237.400000,369.100000C238.300000,317.200000,233,261,227.800000,206.700000C221.400000,139.300000,215.200000,75.300000,221.700000,25.500000L224.900000,25L224.900000,25Z" fill="rgb(204,204,204)" stroke="none" stroke-width="1"/><path id="eHjPNh2b90y10" d="M107.400000,369.100000C126.900000,223.100000,137.700000,133.200000,114.200000,51C193.700000,56.300000,231.900000,122.100000,173.300000,192.600000C112.400000,265.800000,114.500000,353.200000,122.300000,369.100000L107.400000,369.100000Z" clip-rule="evenodd" fill="url(#eHjPNh2b90y10-fill)" fill-rule="evenodd" stroke="none" stroke-width="1"/></g><path id="eHjPNh2b90y11" d="M266.200000,369.100000L229.300000,369.100000C205.200000,339.600000,128.400000,318.300000,112.400000,375L266.200000,375L266.200000,369.100000Z" clip-rule="evenodd" fill="rgb(26,26,26)" fill-rule="evenodd" stroke="none" stroke-width="1"/></svg>