<svg id="s1" xmlns="http://www.w3.org/2000/svg" xmlns:xlink="http://www.w3.org/1999/xlink" viewBox="0 0 100 100"><path id="s3" d="M82.340000,33.650000C81.556368,30.721233,79.268767,28.433632,76.340000,27.650000C71.110000,26.220000,50,26.220000,50,26.220000C50,26.220000,28.890000,26.220000,23.630000,27.640000C20.701233,28.423632,18.413632,30.711233,17.630000,33.640000C16.250000,38.950000,16.250000,50,16.250000,50C16.250000,50,16.250000,61.050000,17.660000,66.350000C18.443632,69.278767,20.731233,71.566368,23.660000,72.350000C28.890000,73.780000,50,73.780000,50,73.780000C50,73.780000,71.110000,73.780000,76.370000,72.360000C79.298767,71.576368,81.586368,69.288767,82.370000,66.360000C83.750000,61.050000,83.750000,50,83.750000,50C83.750000,50,83.750000,38.950000,82.340000,33.650000ZM43.100000,60L43.100000,40L60.740000,50Z" fill="rgb(84,131,204)" stroke="none" stroke-width="1"/></svg>