<svg id="s1" xmlns="http://www.w3.org/2000/svg" xmlns:xlink="http://www.w3.org/1999/xlink" viewBox="0 0 100 100"><g id="s3"><path id="s5" d="M34.290000,66.560000L34.290000,36C34.295482,27.321016,41.321042,20.282040,50,20.260000L50,20.260000C58.678958,20.282040,65.704518,27.321016,65.710000,36L65.710000,48.860000" fill="none" stroke="rgb(84,131,204)" stroke-width="7" stroke-linecap="round" stroke-linejoin="round"/><path id="s7" d="M24.750000,44.590000L24.750000,76.190000C24.750000,77.128866,25.122963,78.029279,25.786842,78.693158C26.450721,79.357037,27.351134,79.730000,28.290000,79.730000L71.710000,79.730000C72.648866,79.730000,73.549279,79.357037,74.213158,78.693158C74.877037,78.029279,75.250000,77.128866,75.250000,76.190000L75.250000,44.590000C75.250000,43.651134,74.877037,42.750721,74.213158,42.086842C73.549279,41.422963,72.648866,41.050000,71.710000,41.050000L28.290000,41.050000C26.334912,41.050000,24.750000,42.634912,24.750000,44.590000ZM43,70.310000L46.790000,60.430000C44.515565,59.014679,43.454905,56.263100,44.190887,53.687344C44.926869,51.111588,47.281159,49.335778,49.960000,49.335778C52.638841,49.335778,54.993131,51.111588,55.729113,53.687344C56.465095,56.263100,55.404435,59.014679,53.130000,60.430000L57,70.310000C57.137963,70.672223,57.089237,71.079102,56.869647,71.398507C56.650056,71.717912,56.287606,71.909106,55.900000,71.910000L44.140000,71.910000C43.745360,71.922549,43.370596,71.736886,43.141480,71.415320C42.912365,71.093755,42.859264,70.678906,43,70.310000Z" fill="rgb(84,131,204)" stroke="none" stroke-width="1"/></g></svg>