<svg id="eZuVdKUF6fp1" xmlns="http://www.w3.org/2000/svg" xmlns:xlink="http://www.w3.org/1999/xlink" viewBox="0 0 400 400" shape-rendering="geometricPrecision" text-rendering="geometricPrecision"><defs><linearGradient id="eZuVdKUF6fp7-fill" x1="169.863864" y1="207.054787" x2="207.024517" y2="209.421194" spreadMethod="pad" gradientUnits="userSpaceOnUse"><stop id="eZuVdKUF6fp7-fill-0" offset="0%" stop-color="rgb(255,159,70)"/><stop id="eZuVdKUF6fp7-fill-1" offset="100%" stop-color="rgb(234,115,35)"/></linearGradient></defs><path id="eZuVdKUF6fp2" d="M200,298.400000C172.100000,298.400000,149.400000,310.100000,149.400000,319.200000C149.400000,328.300000,172.100000,331.300000,200,331.300000C227.900000,331.300000,250.600000,328.200000,250.600000,319.200000C250.600000,310.200000,227.900000,298.400000,200,298.400000Z" clip-rule="evenodd" fill="rgb(222,110,36)" fill-rule="evenodd" stroke="none" stroke-width="1"/><path id="eZuVdKUF6fp3" d="M33.500000,170.600000C20.400000,160.600000,23.300000,148.600000,36.200000,148.600000C173.700000,148.600000,233.200000,148.600000,363.700000,148.600000C376.600000,148.600000,379.500000,160.600000,366.400000,170.600000C303.300000,214,100.100000,216.400000,33.500000,170.600000L33.500000,170.600000Z" clip-rule="evenodd" fill="rgb(222,110,36)" fill-rule="evenodd" stroke="none" stroke-width="1"/><path id="eZuVdKUF6fp4" d="M195.300000,44.500000C180.200000,46.300000,170.400000,46.100000,165.800000,43.900000C165.500000,43.800000,165.300000,43.500000,165.300000,43.300000C165.300000,43,165.400000,42.800000,165.600000,42.600000C170.100000,38.700000,180.100000,38.300000,195.600000,41.500000C196.200000,40.700000,197.100000,40.200000,198.200000,40.200000L198.500000,40.200000L198.500000,39.200000C198.500000,38.400000,199.200000,37.700000,200,37.700000L200,37.700000C200.800000,37.700000,201.500000,38.400000,201.500000,39.200000L201.500000,40.200000L201.800000,40.200000C203,40.200000,204.100000,40.900000,204.600000,41.900000C219.700000,40.100000,229.600000,40.300000,234.200000,42.500000C234.500000,42.600000,234.700000,42.900000,234.700000,43.100000C234.700000,43.400000,234.600000,43.600000,234.400000,43.800000C229.900000,47.700000,219.900000,48.100000,204.500000,45C203.900000,45.900000,202.900000,46.500000,201.800000,46.500000L201.500000,46.500000L201.500000,56.500000C201.500000,57.300000,200.800000,58,200,58L200,58C199.200000,58,198.500000,57.300000,198.500000,56.500000L198.500000,46.500000L198.200000,46.500000C196.900000,46.400000,195.800000,45.600000,195.300000,44.500000L195.300000,44.500000Z" clip-rule="evenodd" fill="rgb(51,51,51)" fill-rule="evenodd" stroke="none" stroke-width="1"/><g id="eZuVdKUF6fp5"><path id="eZuVdKUF6fp6" d="M200,362.500000C230.900000,156.500000,230.900000,54.100000,200,55.400000C169.100000,54.200000,169.100000,156.500000,200,362.500000Z" clip-rule="evenodd" fill="rgb(234,115,35)" fill-rule="evenodd" stroke="none" stroke-width="1"/><path id="eZuVdKUF6fp7" d="M200,55.400000L200,362.500000C169.100000,156.500000,169.100000,54.200000,200,55.400000L200,55.400000Z" clip-rule="evenodd" fill="url(#eZuVdKUF6fp7-fill)" fill-rule="evenodd" stroke="none" stroke-width="1"/></g><path id="eZuVdKUF6fp8" d="M200,138.400000C193.200000,138.400000,187.200000,145,187.600000,153L190.200000,202.900000C190.600000,210.900000,193.200000,217.500000,200,217.500000C206.800000,217.500000,209.400000,210.900000,209.800000,202.900000L212.400000,153C212.800000,145,206.800000,138.400000,200,138.400000L200,138.400000Z" clip-rule="evenodd" fill="rgb(51,51,51)" fill-rule="evenodd" stroke="none" stroke-width="1"/></svg>