<svg id="s1" xmlns="http://www.w3.org/2000/svg" xmlns:xlink="http://www.w3.org/1999/xlink" viewBox="0 0 100 100"><g id="s3"><path id="s5" d="M80.390000,54.350000C60.453334,49.231117,39.546666,49.231117,19.610000,54.350000L19.610000,36.810000C39.546666,31.691117,60.453334,31.691117,80.390000,36.810000Q80.390000,45.580000,80.390000,54.350000Z" fill="none" stroke="rgb(84,131,204)" stroke-width="4" stroke-linecap="round" stroke-linejoin="round"/><path id="s7" d="M28.260000,52.460000L28.260000,62.870000C20.637715,63.772026,13.079534,65.151402,5.630000,67Q8.930000,61.790000,12.260000,56.710000Q8.930000,53,5.630000,49.490000Q12.580000,47.760000,19.630000,46.580000" fill="none" stroke="rgb(84,131,204)" stroke-width="4" stroke-linecap="round" stroke-linejoin="round"/><path id="s9" d="M71.740000,52.460000L71.740000,62.870000C79.365645,63.771613,86.927179,65.150991,94.380000,67Q91.080000,61.790000,87.750000,56.710000Q91.080000,53.020000,94.380000,49.460000Q87.430000,47.730000,80.380000,46.550000" fill="none" stroke="rgb(84,131,204)" stroke-width="4" stroke-linecap="round" stroke-linejoin="round"/><line id="s11" x1="19.610000" y1="54.350000" x2="28.260000" y2="62.870000" fill="none" stroke="rgb(84,131,204)" stroke-width="4" stroke-linecap="round" stroke-linejoin="round"/><line id="s13" x1="80.390000" y1="54.350000" x2="71.740000" y2="62.870000" fill="none" stroke="rgb(84,131,204)" stroke-width="4" stroke-linecap="round" stroke-linejoin="round"/></g></svg>