<svg id="s1" xmlns="http://www.w3.org/2000/svg" xmlns:xlink="http://www.w3.org/1999/xlink" viewBox="0 0 400 400"><defs><linearGradient id="s9-fill" x1="170.750000" y1="143.030000" x2="239.370000" y2="329.270000" spreadMethod="pad" gradientUnits="userSpaceOnUse"><stop id="s9-fill-0" offset="0%" stop-color="rgb(179,187,232)"/><stop id="s9-fill-1" offset="99%" stop-color="rgb(126,144,189)"/></linearGradient><linearGradient id="s11-fill" x1="102.920000" y1="-45.840000" x2="171.590000" y2="140.560000" spreadMethod="pad" gradientUnits="userSpaceOnUse"><stop id="s11-fill-0" offset="0%" stop-color="rgb(222,226,244)"/><stop id="s11-fill-1" offset="100%" stop-color="rgb(170,184,221)"/></linearGradient><linearGradient id="s17-fill" x1="313.920000" y1="275.010000" x2="320.170000" y2="291.950000" spreadMethod="pad" gradientUnits="userSpaceOnUse"><stop id="s17-fill-0" offset="0%" stop-color="rgb(179,187,232)"/><stop id="s17-fill-1" offset="99%" stop-color="rgb(126,144,189)"/></linearGradient><linearGradient id="s23-fill" x1="203.540000" y1="253.470000" x2="223.010000" y2="306.310000" spreadMethod="pad" gradientUnits="userSpaceOnUse"><stop id="s23-fill-0" offset="0%" stop-color="rgb(179,187,232)"/><stop id="s23-fill-1" offset="99%" stop-color="rgb(126,144,189)"/></linearGradient><linearGradient id="s29-fill" x1="106.710000" y1="274.270000" x2="113.400000" y2="292.440000" spreadMethod="pad" gradientUnits="userSpaceOnUse"><stop id="s29-fill-0" offset="0%" stop-color="rgb(179,187,232)"/><stop id="s29-fill-1" offset="99%" stop-color="rgb(126,144,189)"/></linearGradient><linearGradient id="s35-fill" x1="312.480000" y1="242.950000" x2="319.060000" y2="260.790000" spreadMethod="pad" gradientUnits="userSpaceOnUse"><stop id="s35-fill-0" offset="0%" stop-color="rgb(179,187,232)"/><stop id="s35-fill-1" offset="99%" stop-color="rgb(126,144,189)"/></linearGradient><linearGradient id="s41-fill" x1="272.550000" y1="244.460000" x2="278.200000" y2="259.790000" spreadMethod="pad" gradientUnits="userSpaceOnUse"><stop id="s41-fill-0" offset="0%" stop-color="rgb(179,187,232)"/><stop id="s41-fill-1" offset="99%" stop-color="rgb(126,144,189)"/></linearGradient><linearGradient id="s47-fill" x1="236.910000" y1="244.460000" x2="242.560000" y2="259.790000" spreadMethod="pad" gradientUnits="userSpaceOnUse"><stop id="s47-fill-0" offset="0%" stop-color="rgb(179,187,232)"/><stop id="s47-fill-1" offset="99%" stop-color="rgb(126,144,189)"/></linearGradient><linearGradient id="s53-fill" x1="201.270000" y1="244.460000" x2="206.920000" y2="259.790000" spreadMethod="pad" gradientUnits="userSpaceOnUse"><stop id="s53-fill-0" offset="0%" stop-color="rgb(179,187,232)"/><stop id="s53-fill-1" offset="99%" stop-color="rgb(126,144,189)"/></linearGradient><linearGradient id="s59-fill" x1="165.620000" y1="244.460000" x2="171.270000" y2="259.790000" spreadMethod="pad" gradientUnits="userSpaceOnUse"><stop id="s59-fill-0" offset="0%" stop-color="rgb(179,187,232)"/><stop id="s59-fill-1" offset="99%" stop-color="rgb(126,144,189)"/></linearGradient><linearGradient id="s65-fill" x1="113.710000" y1="239.760000" x2="122.240000" y2="262.920000" spreadMethod="pad" gradientUnits="userSpaceOnUse"><stop id="s65-fill-0" offset="0%" stop-color="rgb(179,187,232)"/><stop id="s65-fill-1" offset="99%" stop-color="rgb(126,144,189)"/></linearGradient><linearGradient id="s71-fill" x1="321.980000" y1="214.540000" x2="326.700000" y2="227.370000" spreadMethod="pad" gradientUnits="userSpaceOnUse"><stop id="s71-fill-0" offset="0%" stop-color="rgb(179,187,232)"/><stop id="s71-fill-1" offset="99%" stop-color="rgb(126,144,189)"/></linearGradient><linearGradient id="s77-fill" x1="289.710000" y1="213.040000" x2="295.360000" y2="228.370000" spreadMethod="pad" gradientUnits="userSpaceOnUse"><stop id="s77-fill-0" offset="0%" stop-color="rgb(179,187,232)"/><stop id="s77-fill-1" offset="99%" stop-color="rgb(126,144,189)"/></linearGradient><linearGradient id="s83-fill" x1="254.060000" y1="213.040000" x2="259.710000" y2="228.370000" spreadMethod="pad" gradientUnits="userSpaceOnUse"><stop id="s83-fill-0" offset="0%" stop-color="rgb(179,187,232)"/><stop id="s83-fill-1" offset="99%" stop-color="rgb(126,144,189)"/></linearGradient><linearGradient id="s89-fill" x1="218.420000" y1="213.040000" x2="224.070000" y2="228.370000" spreadMethod="pad" gradientUnits="userSpaceOnUse"><stop id="s89-fill-0" offset="0%" stop-color="rgb(179,187,232)"/><stop id="s89-fill-1" offset="99%" stop-color="rgb(126,144,189)"/></linearGradient><linearGradient id="s95-fill" x1="182.780000" y1="213.040000" x2="188.430000" y2="228.370000" spreadMethod="pad" gradientUnits="userSpaceOnUse"><stop id="s95-fill-0" offset="0%" stop-color="rgb(179,187,232)"/><stop id="s95-fill-1" offset="99%" stop-color="rgb(126,144,189)"/></linearGradient><linearGradient id="s101-fill" x1="147.140000" y1="213.040000" x2="152.790000" y2="228.370000" spreadMethod="pad" gradientUnits="userSpaceOnUse"><stop id="s101-fill-0" offset="0%" stop-color="rgb(179,187,232)"/><stop id="s101-fill-1" offset="99%" stop-color="rgb(126,144,189)"/></linearGradient><linearGradient id="s107-fill" x1="105.970000" y1="211.540000" x2="112.550000" y2="229.380000" spreadMethod="pad" gradientUnits="userSpaceOnUse"><stop id="s107-fill-0" offset="0%" stop-color="rgb(179,187,232)"/><stop id="s107-fill-1" offset="99%" stop-color="rgb(126,144,189)"/></linearGradient></defs><g id="s3"><path id="s5" d="M43.940000,114.560000L43.940000,131C43.972939,141.546010,52.513990,150.087061,63.060000,150.120000L188.730000,150.120000C199.276010,150.152939,207.817061,158.693990,207.850000,169.240000L207.850000,185.630000" fill="none" stroke="rgb(189,199,233)" stroke-width="6" stroke-linecap="round" stroke-miterlimit="10"/><g id="s7"><path id="s9" d="M341.330000,320.820000L80.280000,320.820000C73.960000,320.820000,67.840000,314.710000,67.840000,307.240000L67.840000,202.440000C67.861968,194.949091,73.929091,188.881968,81.420000,188.860000L342.480000,188.860000C349.970909,188.881968,356.038032,194.949091,356.060000,202.440000L356.060000,307.240000C356.060000,314.710000,350,320.820000,341.330000,320.820000Z" fill="url(#s9-fill)" stroke="none" stroke-width="1"/><rect id="s11" width="288.220000" height="131.960000" rx="13.580000" ry="13.580000" transform="translate(67.840000,182.860000)" fill="url(#s11-fill)" stroke="none" stroke-width="1"/></g><g id="s13"><rect id="s15" width="34.150000" height="24.590000" rx="6.370000" ry="6.370000" transform="translate(300.060000,266.870000)" fill="rgb(255,255,255)" stroke="none" stroke-width="1"/><path id="s17" d="M327.830000,287.580000L306.430000,287.580000C304.740571,287.580000,303.120337,286.908877,301.925730,285.714270C300.731123,284.519663,300.060000,282.899429,300.060000,281.210000L300.060000,285.080000C300.060000,286.769429,300.731123,288.389663,301.925730,289.584270C303.120337,290.778877,304.740571,291.450000,306.430000,291.450000L327.830000,291.450000C329.519429,291.450000,331.139663,290.778877,332.334270,289.584270C333.528877,288.389663,334.200000,286.769429,334.200000,285.080000L334.200000,281.210000C334.200000,282.899429,333.528877,284.519663,332.334270,285.714270C331.139663,286.908877,329.519429,287.580000,327.830000,287.580000Z" fill="url(#s17-fill)" stroke="none" stroke-width="1"/></g><g id="s19"><rect id="s21" width="154.360000" height="24.590000" rx="6.370000" ry="6.370000" transform="translate(137.510000,266.870000)" fill="rgb(255,255,255)" stroke="none" stroke-width="1"/><path id="s23" d="M285.490000,287.580000L143.880000,287.580000C142.190571,287.580000,140.570337,286.908877,139.375730,285.714270C138.181123,284.519663,137.510000,282.899429,137.510000,281.210000L137.510000,285.080000C137.510000,286.769429,138.181123,288.389663,139.375730,289.584270C140.570337,290.778877,142.190571,291.450000,143.880000,291.450000L285.490000,291.450000C287.179429,291.450000,288.799663,290.778877,289.994270,289.584270C291.188877,288.389663,291.860000,286.769429,291.860000,285.080000L291.860000,281.210000C291.860000,282.899429,291.188877,284.519663,289.994270,285.714270C288.799663,286.908877,287.179429,287.580000,285.490000,287.580000Z" fill="url(#s23-fill)" stroke="none" stroke-width="1"/></g><g id="s25"><rect id="s27" width="38.250000" height="24.590000" rx="6.370000" ry="6.370000" transform="translate(91.060000,266.870000)" fill="rgb(255,255,255)" stroke="none" stroke-width="1"/><path id="s29" d="M122.940000,287.580000L97.440000,287.580000C95.750571,287.580000,94.130337,286.908877,92.935730,285.714270C91.741123,284.519663,91.070000,282.899429,91.070000,281.210000L91.070000,285.080000C91.070000,286.769429,91.741123,288.389663,92.935730,289.584270C94.130337,290.778877,95.750571,291.450000,97.440000,291.450000L122.940000,291.450000C124.629429,291.450000,126.249663,290.778877,127.444270,289.584270C128.638877,288.389663,129.310000,286.769429,129.310000,285.080000L129.310000,281.210000C129.310000,282.899429,128.638877,284.519663,127.444270,285.714270C126.249663,286.908877,124.629429,287.580000,122.940000,287.580000Z" fill="url(#s29-fill)" stroke="none" stroke-width="1"/></g><g id="s31"><path id="s33" d="M334.210000,253.660000L334.210000,241.820000C334.210000,240.130571,333.538877,238.510337,332.344270,237.315730C331.149663,236.121123,329.529429,235.450000,327.840000,235.450000L303.950000,235.450000C302.260571,235.450000,300.640337,236.121123,299.445730,237.315730C298.251123,238.510337,297.580000,240.130571,297.580000,241.820000L297.580000,253.660000C297.580000,257.178054,300.431946,260.030000,303.950000,260.030000L327.830000,260.030000C329.521161,260.032655,331.143966,259.362704,332.340736,258.167809C333.537506,256.972915,334.210002,255.351163,334.210000,253.660000Z" fill="rgb(255,255,255)" stroke="none" stroke-width="1"/><path id="s35" d="M327.830000,256L303.950000,256C302.260571,256,300.640337,255.328877,299.445730,254.134270C298.251123,252.939663,297.580000,251.319429,297.580000,249.630000L297.580000,253.690000C297.580000,255.379429,298.251123,256.999663,299.445730,258.194270C300.640337,259.388877,302.260571,260.060000,303.950000,260.060000L327.830000,260.060000C329.519429,260.060000,331.139663,259.388877,332.334270,258.194270C333.528877,256.999663,334.200000,255.379429,334.200000,253.690000L334.200000,249.600000C334.207981,251.294621,333.540383,252.922573,332.344910,254.123676C331.149437,255.324779,329.524640,256.000019,327.830000,256Z" fill="url(#s35-fill)" stroke="none" stroke-width="1"/></g><g id="s37"><rect id="s39" width="24.590000" height="28.250000" rx="6.370000" ry="6.370000" transform="translate(523.140000,-27.660000) rotate(90) translate(263.110000,233.620000)" fill="rgb(255,255,255)" stroke="none" stroke-width="1"/><path id="s41" d="M283.150000,256L267.650000,256C265.960571,256,264.340337,255.328877,263.145730,254.134270C261.951123,252.939663,261.280000,251.319429,261.280000,249.630000L261.280000,253.690000C261.280000,255.379429,261.951123,256.999663,263.145730,258.194270C264.340337,259.388877,265.960571,260.060000,267.650000,260.060000L283.150000,260.060000C284.839429,260.060000,286.459663,259.388877,287.654270,258.194270C288.848877,256.999663,289.520000,255.379429,289.520000,253.690000L289.520000,249.600000C289.527981,251.294621,288.860383,252.922573,287.664910,254.123676C286.469437,255.324779,284.844640,256.000019,283.150000,256Z" fill="url(#s41-fill)" stroke="none" stroke-width="1"/></g><g id="s43"><rect id="s45" width="24.590000" height="28.250000" rx="6.370000" ry="6.370000" transform="translate(487.500000,7.980000) rotate(90) translate(227.470000,233.620000)" fill="rgb(255,255,255)" stroke="none" stroke-width="1"/><path id="s47" d="M247.510000,256L232,256C230.310571,256,228.690337,255.328877,227.495730,254.134270C226.301123,252.939663,225.630000,251.319429,225.630000,249.630000L225.630000,253.690000C225.662918,257.184600,228.505245,260.000155,232,260L247.500000,260C249.189429,260,250.809663,259.328877,252.004270,258.134270C253.198877,256.939663,253.870000,255.319429,253.870000,253.630000L253.870000,249.600000C253.877975,251.292889,253.211747,252.919322,252.018439,254.120136C250.825130,255.320949,249.202906,255.997361,247.510000,256Z" fill="url(#s47-fill)" stroke="none" stroke-width="1"/></g><g id="s49"><rect id="s51" width="24.590000" height="28.250000" rx="6.370000" ry="6.370000" transform="translate(451.860000,43.620000) rotate(90) translate(191.830000,233.620000)" fill="rgb(255,255,255)" stroke="none" stroke-width="1"/><path id="s53" d="M211.870000,256L196.370000,256C194.675360,256.000019,193.050563,255.324779,191.855090,254.123676C190.659617,252.922573,189.992019,251.294621,190,249.600000L190,253.660000C190,257.178054,192.851946,260.030000,196.370000,260.030000L211.870000,260.030000C213.559429,260.030000,215.179663,259.358877,216.374270,258.164270C217.568877,256.969663,218.240000,255.349429,218.240000,253.660000L218.240000,249.600000C218.247981,251.294621,217.580383,252.922573,216.384910,254.123676C215.189437,255.324779,213.564640,256.000019,211.870000,256Z" fill="url(#s53-fill)" stroke="none" stroke-width="1"/></g><g id="s55"><rect id="s57" width="24.590000" height="28.250000" rx="6.370000" ry="6.370000" transform="translate(416.220000,79.260000) rotate(90) translate(156.180000,233.620000)" fill="rgb(255,255,255)" stroke="none" stroke-width="1"/><path id="s59" d="M176.230000,256L160.730000,256C159.040571,256,157.420337,255.328877,156.225730,254.134270C155.031123,252.939663,154.360000,251.319429,154.360000,249.630000L154.360000,253.690000C154.360000,255.379429,155.031123,256.999663,156.225730,258.194270C157.420337,259.388877,159.040571,260.060000,160.730000,260.060000L176.230000,260.060000C177.919429,260.060000,179.539663,259.388877,180.734270,258.194270C181.928877,256.999663,182.600000,255.379429,182.600000,253.690000L182.600000,249.600000C182.607981,251.294621,181.940383,252.922573,180.744910,254.123676C179.549437,255.324779,177.924640,256.000019,176.230000,256Z" fill="url(#s59-fill)" stroke="none" stroke-width="1"/></g><g id="s61"><rect id="s63" width="54.450000" height="24.590000" rx="6.370000" ry="6.370000" transform="translate(91.060000,235.450000)" fill="rgb(255,255,255)" stroke="none" stroke-width="1"/><path id="s65" d="M139.140000,256L97.440000,256C95.750571,256,94.130337,255.328877,92.935730,254.134270C91.741123,252.939663,91.070000,251.319429,91.070000,249.630000L91.070000,253.690000C91.102918,257.184600,93.945245,260.000155,97.440000,260L139.140000,260C140.829429,260,142.449663,259.328877,143.644270,258.134270C144.838877,256.939663,145.510000,255.319429,145.510000,253.630000L145.510000,249.600000C145.517981,251.294621,144.850383,252.922573,143.654910,254.123676C142.459437,255.324779,140.834640,256.000019,139.140000,256Z" fill="url(#s65-fill)" stroke="none" stroke-width="1"/></g><g id="s67"><path id="s69" d="M334.210000,222.240000L334.210000,210.410000C334.210000,208.720571,333.538877,207.100337,332.344270,205.905730C331.149663,204.711123,329.529429,204.040000,327.840000,204.040000L320.730000,204.040000C319.040571,204.040000,317.420337,204.711123,316.225730,205.905730C315.031123,207.100337,314.360000,208.720571,314.360000,210.410000L314.360000,222.250000C314.360000,223.939429,315.031123,225.559663,316.225730,226.754270C317.420337,227.948877,319.040571,228.620000,320.730000,228.620000L327.840000,228.620000C329.531163,228.620002,331.152915,227.947506,332.347809,226.750736C333.542704,225.553966,334.212655,223.931161,334.210000,222.240000Z" fill="rgb(255,255,255)" stroke="none" stroke-width="1"/><path id="s71" d="M327.830000,224.560000L320.720000,224.560000C319.030571,224.560000,317.410337,223.888877,316.215730,222.694270C315.021123,221.499663,314.350000,219.879429,314.350000,218.190000L314.350000,222.250000C314.350000,223.939429,315.021123,225.559663,316.215730,226.754270C317.410337,227.948877,319.030571,228.620000,320.720000,228.620000L327.830000,228.620000C329.519429,228.620000,331.139663,227.948877,332.334270,226.754270C333.528877,225.559663,334.200000,223.939429,334.200000,222.250000L334.200000,218.190000C334.200000,219.879429,333.528877,221.499663,332.334270,222.694270C331.139663,223.888877,329.519429,224.560000,327.830000,224.560000Z" fill="url(#s71-fill)" stroke="none" stroke-width="1"/></g><g id="s73"><rect id="s75" width="24.590000" height="28.250000" rx="6.370000" ry="6.370000" transform="translate(508.880000,-76.230000) rotate(90) translate(280.270000,202.200000)" fill="rgb(255,255,255)" stroke="none" stroke-width="1"/><path id="s77" d="M300.310000,224.560000L284.810000,224.560000C283.120571,224.560000,281.500337,223.888877,280.305730,222.694270C279.111123,221.499663,278.440000,219.879429,278.440000,218.190000L278.440000,222.250000C278.440000,223.939429,279.111123,225.559663,280.305730,226.754270C281.500337,227.948877,283.120571,228.620000,284.810000,228.620000L300.310000,228.620000C301.999429,228.620000,303.619663,227.948877,304.814270,226.754270C306.008877,225.559663,306.680000,223.939429,306.680000,222.250000L306.680000,218.190000C306.680000,219.879429,306.008877,221.499663,304.814270,222.694270C303.619663,223.888877,301.999429,224.560000,300.310000,224.560000Z" fill="url(#s77-fill)" stroke="none" stroke-width="1"/></g><g id="s79"><rect id="s81" width="24.590000" height="28.250000" rx="6.370000" ry="6.370000" transform="translate(473.240000,-40.590000) rotate(90) translate(244.620000,202.200000)" fill="rgb(255,255,255)" stroke="none" stroke-width="1"/><path id="s83" d="M264.670000,224.560000L249.170000,224.560000C247.480571,224.560000,245.860337,223.888877,244.665730,222.694270C243.471123,221.499663,242.800000,219.879429,242.800000,218.190000L242.800000,222.250000C242.800000,223.939429,243.471123,225.559663,244.665730,226.754270C245.860337,227.948877,247.480571,228.620000,249.170000,228.620000L264.670000,228.620000C266.359429,228.620000,267.979663,227.948877,269.174270,226.754270C270.368877,225.559663,271.040000,223.939429,271.040000,222.250000L271.040000,218.190000C271.040000,219.879429,270.368877,221.499663,269.174270,222.694270C267.979663,223.888877,266.359429,224.560000,264.670000,224.560000Z" fill="url(#s83-fill)" stroke="none" stroke-width="1"/></g><g id="s85"><rect id="s87" width="24.590000" height="28.250000" rx="6.370000" ry="6.370000" transform="translate(437.600000,-4.950000) rotate(90) translate(208.980000,202.200000)" fill="rgb(255,255,255)" stroke="none" stroke-width="1"/><path id="s89" d="M229,224.560000L213.500000,224.560000C211.810571,224.560000,210.190337,223.888877,208.995730,222.694270C207.801123,221.499663,207.130000,219.879429,207.130000,218.190000L207.130000,222.250000C207.130000,223.939429,207.801123,225.559663,208.995730,226.754270C210.190337,227.948877,211.810571,228.620000,213.500000,228.620000L229,228.620000C230.689429,228.620000,232.309663,227.948877,233.504270,226.754270C234.698877,225.559663,235.370000,223.939429,235.370000,222.250000L235.370000,218.190000C235.370000,219.879429,234.698877,221.499663,233.504270,222.694270C232.309663,223.888877,230.689429,224.560000,229,224.560000Z" fill="url(#s89-fill)" stroke="none" stroke-width="1"/></g><g id="s91"><rect id="s93" width="24.590000" height="28.250000" rx="6.370000" ry="6.370000" transform="translate(401.960000,30.690000) rotate(90) translate(173.340000,202.200000)" fill="rgb(255,255,255)" stroke="none" stroke-width="1"/><path id="s95" d="M193.380000,224.560000L177.880000,224.560000C176.190571,224.560000,174.570337,223.888877,173.375730,222.694270C172.181123,221.499663,171.510000,219.879429,171.510000,218.190000L171.510000,222.250000C171.510000,223.939429,172.181123,225.559663,173.375730,226.754270C174.570337,227.948877,176.190571,228.620000,177.880000,228.620000L193.380000,228.620000C195.069429,228.620000,196.689663,227.948877,197.884270,226.754270C199.078877,225.559663,199.750000,223.939429,199.750000,222.250000L199.750000,218.190000C199.750000,219.879429,199.078877,221.499663,197.884270,222.694270C196.689663,223.888877,195.069429,224.560000,193.380000,224.560000Z" fill="url(#s95-fill)" stroke="none" stroke-width="1"/></g><g id="s97"><rect id="s99" width="24.590000" height="28.250000" rx="6.370000" ry="6.370000" transform="translate(366.320000,66.330000) rotate(90) translate(137.700000,202.200000)" fill="rgb(255,255,255)" stroke="none" stroke-width="1"/><path id="s101" d="M164.120000,218.180000L164.120000,222.240000C164.120000,223.929429,163.448877,225.549663,162.254270,226.744270C161.059663,227.938877,159.439429,228.610000,157.750000,228.610000L142.250000,228.610000C140.560571,228.610000,138.940337,227.938877,137.745730,226.744270C136.551123,225.549663,135.880000,223.929429,135.880000,222.240000L135.880000,218.180000C135.880000,219.869429,136.551123,221.489663,137.745730,222.684270C138.940337,223.878877,140.560571,224.550000,142.250000,224.550000L157.750000,224.550000C159.439429,224.550000,161.059663,223.878877,162.254270,222.684270C163.448877,221.489663,164.120000,219.869429,164.120000,218.180000Z" fill="url(#s101-fill)" stroke="none" stroke-width="1"/></g><g id="s103"><rect id="s105" width="36.630000" height="24.590000" rx="6.370000" ry="6.370000" transform="translate(91.060000,204.030000)" fill="rgb(255,255,255)" stroke="none" stroke-width="1"/><path id="s107" d="M121.320000,224.560000L97.440000,224.560000C95.750571,224.560000,94.130337,223.888877,92.935730,222.694270C91.741123,221.499663,91.070000,219.879429,91.070000,218.190000L91.070000,222.250000C91.070000,223.939429,91.741123,225.559663,92.935730,226.754270C94.130337,227.948877,95.750571,228.620000,97.440000,228.620000L121.320000,228.620000C123.009429,228.620000,124.629663,227.948877,125.824270,226.754270C127.018877,225.559663,127.690000,223.939429,127.690000,222.250000L127.690000,218.190000C127.690000,219.879429,127.018877,221.499663,125.824270,222.694270C124.629663,223.888877,123.009429,224.560000,121.320000,224.560000Z" fill="url(#s107-fill)" stroke="none" stroke-width="1"/></g></g></svg>