<svg id="s1" xmlns="http://www.w3.org/2000/svg" xmlns:xlink="http://www.w3.org/1999/xlink" viewBox="0 0 100 100"><g id="s3"><path id="s5" d="M82.870000,51.500000L74.580000,47.220000C74.388636,45.688668,74.053832,44.178700,73.580000,42.710000L79.190000,35.270000C79.412095,34.761462,79.305483,34.169174,78.920000,33.770000L72.710000,26C72.405103,25.538896,71.852961,25.306207,71.310000,25.410000L62.810000,29.220000C61.485610,28.424383,60.089491,27.754782,58.640000,27.220000L56.320000,18.220000C56.074350,17.722878,55.553258,17.422856,55,17.460000L45,17.460000C44.446617,17.409033,43.917267,17.697410,43.660000,18.190000L41.340000,27.190000C39.890509,27.724782,38.494390,28.394383,37.170000,29.190000L28.670000,25.380000C28.127039,25.276207,27.574897,25.508896,27.270000,25.970000L21.100000,33.770000C20.714517,34.169174,20.607905,34.761462,20.830000,35.270000L26.440000,42.710000C25.966168,44.178700,25.631364,45.688668,25.440000,47.220000L17.130000,51.500000C16.695319,51.866484,16.532172,52.463363,16.720000,53L18.930000,62.680000C19.070000,63.300000,19.520000,63.810000,19.930000,63.820000L29.250000,64.080000C30.096145,65.369916,31.060288,66.578442,32.130000,67.690000L30.310000,76.840000C30.230000,77.250000,30.630000,77.840000,31.200000,78.080000L40.150000,82.390000C40.624240,82.676045,41.224057,82.648422,41.670000,82.320000L47.670000,75.200000C48.430000,75.270000,49.200000,75.310000,49.980000,75.310000C50.760000,75.310000,51.530000,75.310000,52.290000,75.200000L58.290000,82.320000C58.735943,82.648422,59.335760,82.676045,59.810000,82.390000L68.790000,78C69.360000,77.730000,69.790000,77.170000,69.680000,76.760000L67.860000,67.610000C68.929712,66.498442,69.893855,65.289916,70.740000,64L80.060000,63.740000C80.480000,63.740000,80.930000,63.210000,81.060000,62.600000L83.280000,53C83.467828,52.463363,83.304681,51.866484,82.870000,51.500000ZM50,65.430000C41.715729,65.430000,35,58.714271,35,50.430000C35,42.145729,41.715729,35.430000,50,35.430000C58.284271,35.430000,65,42.145729,65,50.430000C65,58.714271,58.284271,65.430000,50,65.430000Z" fill="rgb(84,131,204)" stroke="none" stroke-width="1"/><circle id="s7" r="7.080000" transform="translate(50,50.460000)" fill="rgb(84,131,204)" stroke="none" stroke-width="1"/></g></svg>