<svg id="s1" xmlns="http://www.w3.org/2000/svg" xmlns:xlink="http://www.w3.org/1999/xlink" viewBox="0 0 400 400"><defs><linearGradient id="s7-fill" x1="102.870000" y1="89.890000" x2="128.490000" y2="188.930000" spreadMethod="pad" gradientUnits="userSpaceOnUse"><stop id="s7-fill-0" offset="0%" stop-color="rgb(121,125,132)"/><stop id="s7-fill-1" offset="100%" stop-color="rgb(74,76,79)"/></linearGradient><linearGradient id="s9-fill" x1="108.020000" y1="142.410000" x2="134.020000" y2="242.910000" spreadMethod="pad" gradientUnits="userSpaceOnUse"><stop id="s9-fill-0" offset="0%" stop-color="rgb(121,125,132)"/><stop id="s9-fill-1" offset="100%" stop-color="rgb(74,76,79)"/></linearGradient><linearGradient id="s11-fill" x1="116.303195" y1="216.851723" x2="136.679643" y2="271.702843" spreadMethod="pad" gradientUnits="userSpaceOnUse"><stop id="s11-fill-0" offset="0%" stop-color="rgb(121,125,132)"/><stop id="s11-fill-1" offset="100%" stop-color="rgb(74,76,79)"/></linearGradient><linearGradient id="s15-fill" x1="266.159996" y1="206.889993" x2="291.779996" y2="107.859993" spreadMethod="pad" gradientUnits="userSpaceOnUse"><stop id="s15-fill-0" offset="0%" stop-color="rgb(121,125,132)"/><stop id="s15-fill-1" offset="100%" stop-color="rgb(74,76,79)"/></linearGradient><linearGradient id="s17-fill" x1="260.340005" y1="260.809994" x2="286.340005" y2="160.309994" spreadMethod="pad" gradientUnits="userSpaceOnUse"><stop id="s17-fill-0" offset="0%" stop-color="rgb(121,125,132)"/><stop id="s17-fill-1" offset="100%" stop-color="rgb(74,76,79)"/></linearGradient><linearGradient id="s19-fill" x1="284.842608" y1="216.134902" x2="264.663208" y2="270.762303" spreadMethod="pad" gradientUnits="userSpaceOnUse"><stop id="s19-fill-0" offset="0%" stop-color="rgb(121,125,132)"/><stop id="s19-fill-1" offset="100%" stop-color="rgb(74,76,79)"/></linearGradient><linearGradient id="s25-fill" x1="7.070000" y1="-2.300000" x2="11.440000" y2="14.600000" spreadMethod="pad" gradientUnits="userSpaceOnUse"><stop id="s25-fill-0" offset="0%" stop-color="rgb(121,125,132)"/><stop id="s25-fill-1" offset="100%" stop-color="rgb(74,76,79)"/></linearGradient><linearGradient id="s27-fill" x1="7.070000" y1="-2.300000" x2="11.440000" y2="14.600000" spreadMethod="pad" gradientUnits="userSpaceOnUse"><stop id="s27-fill-0" offset="0%" stop-color="rgb(121,125,132)"/><stop id="s27-fill-1" offset="100%" stop-color="rgb(74,76,79)"/></linearGradient><linearGradient id="s29-fill" x1="146.060000" y1="12.910000" x2="190.940000" y2="138.470000" spreadMethod="pad" gradientUnits="userSpaceOnUse"><stop id="s29-fill-0" offset="0%" stop-color="rgb(208,208,210)"/><stop id="s29-fill-1" offset="25%" stop-color="rgb(192,192,193)"/><stop id="s29-fill-2" offset="62%" stop-color="rgb(172,172,173)"/><stop id="s29-fill-3" offset="100%" stop-color="rgb(168,168,168)"/></linearGradient><linearGradient id="s31-fill" x1="65.220000" y1="-47.350000" x2="159.800000" y2="101.780000" spreadMethod="pad" gradientUnits="userSpaceOnUse"><stop id="s31-fill-0" offset="0%" stop-color="rgb(86,89,94)"/><stop id="s31-fill-1" offset="100%" stop-color="rgb(57,59,61)"/></linearGradient><linearGradient id="s33-fill" x1="-1.890000" y1="-5.110000" x2="1.260000" y2="3.420000" spreadMethod="pad" gradientUnits="userSpaceOnUse"><stop id="s33-fill-0" offset="0%" stop-color="rgb(143,235,227)"/><stop id="s33-fill-1" offset="100%" stop-color="rgb(113,235,225)"/></linearGradient><linearGradient id="s37-fill" x1="8.590000" y1="-2.640000" x2="12.750000" y2="8.670000" spreadMethod="pad" gradientUnits="userSpaceOnUse"><stop id="s37-fill-0" offset="0%" stop-color="rgb(143,235,227)"/><stop id="s37-fill-1" offset="100%" stop-color="rgb(113,235,225)"/></linearGradient><linearGradient id="s39-fill" x1="8.580000" y1="-2.640000" x2="12.750000" y2="8.670000" spreadMethod="pad" gradientUnits="userSpaceOnUse"><stop id="s39-fill-0" offset="0%" stop-color="rgb(143,235,227)"/><stop id="s39-fill-1" offset="100%" stop-color="rgb(113,235,225)"/></linearGradient><linearGradient id="s41-fill" x1="8.580000" y1="-2.640000" x2="12.750000" y2="8.670000" spreadMethod="pad" gradientUnits="userSpaceOnUse"><stop id="s41-fill-0" offset="0%" stop-color="rgb(143,235,227)"/><stop id="s41-fill-1" offset="100%" stop-color="rgb(113,235,225)"/></linearGradient><linearGradient id="s43-fill" x1="8.590000" y1="-2.640000" x2="12.750000" y2="8.670000" spreadMethod="pad" gradientUnits="userSpaceOnUse"><stop id="s43-fill-0" offset="0%" stop-color="rgb(143,235,227)"/><stop id="s43-fill-1" offset="100%" stop-color="rgb(113,235,225)"/></linearGradient></defs><g id="s3"><g id="s5"><path id="s7" d="M118,97.640000L118.750000,97.640000C119.577475,97.640000,120.371060,97.968713,120.956173,98.553827C121.541287,99.138940,121.870000,99.932525,121.870000,100.760000L121.870000,199.140000L114.870000,199.140000L114.870000,100.770000C114.867332,99.939057,115.196243,99.141379,115.783811,98.553811C116.371379,97.966243,117.169057,97.637332,118,97.640000Z" transform="translate(-14.580000,12.910000) rotate(-5.879980) scale(1,1)" fill="url(#s7-fill)" stroke="none" stroke-width="1"/><path id="s9" d="M121.260000,150.860000L126.430000,150.860000C128.871099,150.860000,130.850000,152.838901,130.850000,155.280000L130.850000,252.360000L116.850000,252.360000L116.850000,155.280000C116.850000,152.838901,118.828901,150.860000,121.270000,150.860000Z" transform="translate(-20.010000,13.750000) rotate(-5.879980) scale(1,1)" fill="url(#s9-fill)" stroke="none" stroke-width="1"/><path id="s11" d="M141.450000,274.940000L136.310000,225C136.193919,223.856658,135.628081,222.806360,134.737132,222.080471C133.846183,221.354582,132.703213,221.012651,131.560000,221.130000L120.290000,222.290000C119.146658,222.406081,118.096360,222.971919,117.370471,223.862868C116.644582,224.753817,116.302651,225.896787,116.420000,227.040000L121.560000,276.940000Z" fill="url(#s11-fill)" stroke="none" stroke-width="1"/></g><g id="s13"><path id="s15" d="M278.140000,97.640000L285.140000,97.640000L285.140000,196C285.140000,196.827475,284.811287,197.621060,284.226173,198.206173C283.641060,198.791287,282.847475,199.120000,282.020000,199.120000L281.270000,199.120000C280.442525,199.120000,279.648940,198.791287,279.063827,198.206173C278.478713,197.621060,278.150000,196.827475,278.150000,196L278.150000,97.640000Z" transform="translate(546.600000,324.870000) rotate(185.879980) scale(1,1)" fill="url(#s15-fill)" stroke="none" stroke-width="1"/><path id="s17" d="M269.160000,150.860000L283.160000,150.860000L283.160000,247.940000C283.160000,249.112257,282.694323,250.236501,281.865412,251.065412C281.036501,251.894323,279.912257,252.360000,278.740000,252.360000L273.570000,252.360000C272.397743,252.360000,271.273499,251.894323,270.444588,251.065412C269.615677,250.236501,269.150000,249.112257,269.150000,247.940000L269.150000,150.860000Z" transform="translate(530.210000,430.460000) rotate(185.879980) scale(1,1)" fill="url(#s17-fill)" stroke="none" stroke-width="1"/><path id="s19" d="M258.550000,274.940000L263.690000,225.040000C263.806081,223.896658,264.371919,222.846360,265.262868,222.120471C266.153817,221.394582,267.296787,221.052651,268.440000,221.170000L279.710000,222.330000C280.853342,222.446081,281.903640,223.011919,282.629529,223.902868C283.355418,224.793817,283.697349,225.936787,283.580000,227.080000L278.450000,277Z" fill="url(#s19-fill)" stroke="none" stroke-width="1"/></g><g id="s21"><g id="s23"><rect id="s25" width="19.330000" height="15.500000" rx="6.630000" ry="6.630000" transform="translate(86.830000,303.650000)" fill="url(#s25-fill)" stroke="none" stroke-width="1"/><rect id="s27" width="19.330000" height="15.500000" rx="6.630000" ry="6.630000" transform="translate(293.830000,303.650000)" fill="url(#s27-fill)" stroke="none" stroke-width="1"/></g><rect id="s29" width="306.670000" height="66.500000" rx="19.920000" ry="19.920000" transform="translate(46.670000,244.990000)" fill="url(#s29-fill)" stroke="none" stroke-width="1"/><rect id="s31" width="216.500000" height="41" rx="8.500000" ry="8.500000" transform="translate(91.750000,257.740000)" fill="url(#s31-fill)" stroke="none" stroke-width="1"/><circle id="s33" r="4.940000" transform="translate(292.500000,270.960000)" fill="url(#s33-fill)" stroke="none" stroke-width="1"/><g id="s35"><rect id="s37" width="22.170000" height="8.290000" rx="4.150000" ry="4.150000" transform="translate(105.330000,266.820000)" fill="url(#s37-fill)" stroke="none" stroke-width="1"/><rect id="s39" width="22.170000" height="8.290000" rx="4.150000" ry="4.150000" transform="translate(136,266.820000)" fill="url(#s39-fill)" stroke="none" stroke-width="1"/><rect id="s41" width="22.170000" height="8.290000" rx="4.150000" ry="4.150000" transform="translate(166.670000,266.820000)" fill="url(#s41-fill)" stroke="none" stroke-width="1"/><rect id="s43" width="22.170000" height="8.290000" rx="4.150000" ry="4.150000" transform="translate(197.330000,266.820000)" fill="url(#s43-fill)" stroke="none" stroke-width="1"/></g></g></g></svg>