<svg id="s1" xmlns="http://www.w3.org/2000/svg" xmlns:xlink="http://www.w3.org/1999/xlink" viewBox="0 0 400 400"><defs><clipPath id="s3"><rect id="s5" width="101.890000" height="40.270000" rx="8.370000" ry="8.370000" transform="translate(85.230000,193.170000)" fill="none" stroke="none" stroke-width="1"/></clipPath><clipPath id="s7"><rect id="s9" width="41.050000" height="42.600000" rx="2.600000" ry="2.600000" transform="translate(470.520000,-37.620000) rotate(90) translate(233.550000,195.150000)" fill="none" stroke="none" stroke-width="1"/></clipPath></defs><g id="s11"><line id="s13" x1="296.880000" y1="316.640000" x2="361.090000" y2="316.640000" fill="none" stroke="rgb(131,180,194)" stroke-width="8" stroke-linecap="round" stroke-miterlimit="10"/><g id="s15"><path id="s17" d="M90.190000,162.550000L288.900000,162.550000C300.304680,162.550000,309.550000,171.795320,309.550000,183.200000L309.550000,308.750000C309.550000,313.919069,307.496595,318.876427,303.841511,322.531511C300.186427,326.186595,295.229069,328.240000,290.060000,328.240000L74.750000,328.240000C62.254356,328.240217,51.653609,319.066248,49.860000,306.700000L39.500000,235.360000C37.812450,223.828259,39.733604,212.056824,45,201.660000L53.420000,185.090000C60.451187,171.249149,74.665614,162.535708,90.190000,162.550000Z" fill="rgb(204,227,235)" stroke="none" stroke-width="1"/><polygon id="s19" points="46.150000,281.140000 309.550000,281.140000 309.550000,242.640000 40.560000,242.640000 46.150000,281.140000" fill="rgb(131,180,194)" stroke="none" stroke-width="1"/><path id="s21" d="M55.470000,180.890000L308.930000,180.890000C307.754276,170.450826,298.925174,162.560166,288.420000,162.560000L89.720000,162.560000C75.957648,162.562963,63.106468,169.440690,55.470000,180.890000Z" fill="rgb(131,180,194)" stroke="none" stroke-width="1"/><line id="s23" x1="283.920000" y1="247.890000" x2="306.500000" y2="247.890000" fill="none" stroke="rgb(97,147,161)" stroke-width="2.579350" stroke-linecap="round" stroke-miterlimit="10"/><line id="s25" x1="48.250000" y1="247.890000" x2="222.760000" y2="247.890000" fill="none" stroke="rgb(97,147,161)" stroke-width="2.579350" stroke-linecap="round" stroke-miterlimit="10"/><line id="s27" x1="283.090000" y1="275.880000" x2="306.500000" y2="275.880000" fill="none" stroke="rgb(97,147,161)" stroke-width="2.579350" stroke-linecap="round" stroke-miterlimit="10"/><line id="s29" x1="51.590000" y1="275.880000" x2="222.750000" y2="275.880000" fill="none" stroke="rgb(97,147,161)" stroke-width="2.579350" stroke-linecap="round" stroke-miterlimit="10"/></g><g id="s31"><path id="s33" d="M216.780000,321.390000C214.507365,304.029570,199.713552,291.046177,182.205000,291.046177C164.696448,291.046177,149.902635,304.029570,147.630000,321.390000" fill="none" stroke="rgb(131,180,194)" stroke-width="8" stroke-linecap="round" stroke-miterlimit="10"/><circle id="s35" r="31.880000" transform="translate(182.200000,325.910000)" fill="rgb(64,57,69)" stroke="none" stroke-width="1"/><circle id="s37" r="18.080000" transform="translate(182.200000,325.910000)" fill="rgb(224,224,224)" stroke="none" stroke-width="1"/><circle id="s39" r="12.010000" transform="translate(182.200000,325.910000)" fill="rgb(168,168,168)" stroke="none" stroke-width="1"/><circle id="s41" r="4.910000" transform="translate(182.200000,325.910000)" fill="rgb(69,62,74)" stroke="none" stroke-width="1"/></g><g id="s43"><rect id="s45" width="101.890000" height="40.270000" rx="8.370000" ry="8.370000" transform="translate(85.230000,193.170000)" fill="rgb(81,184,204)" stroke="none" stroke-width="1"/><g id="s47" clip-path="url(#s3)"><polygon id="s49" points="140.180000,276.880000 161.180000,276.880000 214.900000,149.750000 193.900000,149.750000 140.180000,276.880000" fill="rgb(110,210,230)" stroke="none" stroke-width="1"/><polygon id="s51" points="125.480000,276.880000 133.480000,276.880000 187.200000,149.750000 179.200000,149.750000 125.480000,276.880000" fill="rgb(110,210,230)" stroke="none" stroke-width="1"/><polygon id="s53" points="79.520000,276.880000 84.520000,276.880000 138.240000,149.750000 133.240000,149.750000 79.520000,276.880000" fill="rgb(110,210,230)" stroke="none" stroke-width="1"/><polygon id="s55" points="58.890000,276.880000 72.890000,276.880000 126.610000,149.750000 112.610000,149.750000 58.890000,276.880000" fill="rgb(110,210,230)" stroke="none" stroke-width="1"/></g><line id="s57" x1="127.910000" y1="193.170000" x2="127.910000" y2="233.450000" fill="none" stroke="rgb(204,227,235)" stroke-width="3" stroke-linecap="round" stroke-miterlimit="10"/></g><g id="s59"><rect id="s61" width="44.060000" height="16.870000" rx="3.770000" ry="3.770000" transform="translate(78.190000,297.780000)" fill="rgb(131,180,194)" stroke="none" stroke-width="1"/><line id="s63" x1="84.090000" y1="303.390000" x2="84.090000" y2="309.430000" fill="none" stroke="rgb(204,227,235)" stroke-width="3" stroke-linecap="round" stroke-miterlimit="10"/><line id="s65" x1="90.590000" y1="303.390000" x2="90.590000" y2="309.430000" fill="none" stroke="rgb(204,227,235)" stroke-width="3" stroke-linecap="round" stroke-miterlimit="10"/><line id="s67" x1="97.090000" y1="303.390000" x2="97.090000" y2="309.430000" fill="none" stroke="rgb(204,227,235)" stroke-width="3" stroke-linecap="round" stroke-miterlimit="10"/><line id="s69" x1="103.590000" y1="303.390000" x2="103.590000" y2="309.430000" fill="none" stroke="rgb(204,227,235)" stroke-width="3" stroke-linecap="round" stroke-miterlimit="10"/><line id="s71" x1="110.090000" y1="303.390000" x2="110.090000" y2="309.430000" fill="none" stroke="rgb(204,227,235)" stroke-width="3" stroke-linecap="round" stroke-miterlimit="10"/><line id="s73" x1="116.590000" y1="303.390000" x2="116.590000" y2="309.430000" fill="none" stroke="rgb(204,227,235)" stroke-width="3" stroke-linecap="round" stroke-miterlimit="10"/></g><g id="s75"><rect id="s77" width="50.600000" height="128.050000" rx="4.390000" ry="4.390000" transform="translate(228.770000,191.930000)" fill="rgb(229,249,255)" stroke="none" stroke-width="1"/><rect id="s79" width="41.050000" height="42.600000" rx="2.600000" ry="2.600000" transform="translate(470.520000,-37.620000) rotate(90) translate(233.550000,195.150000)" fill="rgb(81,184,204)" stroke="none" stroke-width="1"/><rect id="s81" width="5.320000" height="12.870000" rx="1.980000" ry="1.980000" transform="translate(232.770000,241.890000)" fill="rgb(172,204,214)" stroke="none" stroke-width="1"/><g id="s83" clip-path="url(#s7)"><polygon id="s85" points="231.470000,272.880000 252.470000,272.880000 306.190000,145.750000 285.190000,145.750000 231.470000,272.880000" fill="rgb(110,210,230)" stroke="none" stroke-width="1"/><polygon id="s87" points="216.780000,272.880000 224.780000,272.880000 278.500000,145.750000 270.500000,145.750000 216.780000,272.880000" fill="rgb(110,210,230)" stroke="none" stroke-width="1"/></g><rect id="s89" width="10.070000" height="3" rx="1.500000" ry="1.500000" transform="translate(234.990000,244.140000)" fill="rgb(204,227,235)" stroke="none" stroke-width="1"/></g></g></svg>