<svg id="s1" xmlns="http://www.w3.org/2000/svg" xmlns:xlink="http://www.w3.org/1999/xlink" viewBox="0 0 400 400"><defs><linearGradient id="s5-fill" x1="5.380000" y1="-5.160000" x2="19.760000" y2="23.690000" spreadMethod="pad" gradientUnits="userSpaceOnUse"><stop id="s5-fill-0" offset="0%" stop-color="rgb(175,175,177)"/><stop id="s5-fill-1" offset="25%" stop-color="rgb(159,159,160)"/><stop id="s5-fill-2" offset="62%" stop-color="rgb(139,139,140)"/><stop id="s5-fill-3" offset="100%" stop-color="rgb(135,135,135)"/></linearGradient><linearGradient id="s7-fill" x1="5.380000" y1="-5.160000" x2="19.750000" y2="23.690000" spreadMethod="pad" gradientUnits="userSpaceOnUse"><stop id="s7-fill-0" offset="0%" stop-color="rgb(175,175,177)"/><stop id="s7-fill-1" offset="25%" stop-color="rgb(159,159,160)"/><stop id="s7-fill-2" offset="62%" stop-color="rgb(139,139,140)"/><stop id="s7-fill-3" offset="100%" stop-color="rgb(135,135,135)"/></linearGradient><linearGradient id="s9-fill" x1="40.400000" y1="-74.060000" x2="274.400000" y2="270.610000" spreadMethod="pad" gradientUnits="userSpaceOnUse"><stop id="s9-fill-0" offset="5%" stop-color="rgb(230,230,232)"/><stop id="s9-fill-1" offset="100%" stop-color="rgb(195,195,196)"/></linearGradient><linearGradient id="s11-fill" x1="235.820000" y1="298.030000" x2="135.550000" y2="44.380000" spreadMethod="pad" gradientUnits="userSpaceOnUse"><stop id="s11-fill-0" offset="17%" stop-color="rgb(168,89,80)"/><stop id="s11-fill-1" offset="61%" stop-color="rgb(216,135,126)"/><stop id="s11-fill-2" offset="100%" stop-color="rgb(255,191,168)"/></linearGradient><linearGradient id="s13-fill" x1="28.500000" y1="160.620000" x2="-47.270000" y2="-31.050000" spreadMethod="pad" gradientUnits="userSpaceOnUse"><stop id="s13-fill-0" offset="6%" stop-color="rgb(153,77,69)"/><stop id="s13-fill-1" offset="87%" stop-color="rgb(153,77,69)"/></linearGradient><linearGradient id="s15-fill" x1="-15.830000" y1="-31.670000" x2="10.500000" y2="21" spreadMethod="pad" gradientUnits="userSpaceOnUse"><stop id="s15-fill-0" offset="5%" stop-color="rgb(245,245,247)"/><stop id="s15-fill-1" offset="100%" stop-color="rgb(159,159,166)"/></linearGradient><linearGradient id="s19-fill" x1="22.690000" y1="21.310000" x2="1.940000" y2="-12.440000" spreadMethod="pad" gradientUnits="userSpaceOnUse"><stop id="s19-fill-0" offset="40%" stop-color="rgb(206,134,119)"/><stop id="s19-fill-1" offset="90%" stop-color="rgb(224,155,137)"/></linearGradient><linearGradient id="s21-fill" x1="22.690000" y1="21.300000" x2="1.940000" y2="-12.450000" spreadMethod="pad" gradientUnits="userSpaceOnUse"><stop id="s21-fill-0" offset="40%" stop-color="rgb(206,134,119)"/><stop id="s21-fill-1" offset="90%" stop-color="rgb(224,155,137)"/></linearGradient><linearGradient id="s23-fill" x1="22.690000" y1="21.300000" x2="1.940000" y2="-12.450000" spreadMethod="pad" gradientUnits="userSpaceOnUse"><stop id="s23-fill-0" offset="40%" stop-color="rgb(206,134,119)"/><stop id="s23-fill-1" offset="90%" stop-color="rgb(240,172,153)"/></linearGradient><linearGradient id="s25-fill" x1="22.690000" y1="21.310000" x2="1.940000" y2="-12.440000" spreadMethod="pad" gradientUnits="userSpaceOnUse"><stop id="s25-fill-0" offset="40%" stop-color="rgb(206,134,119)"/><stop id="s25-fill-1" offset="90%" stop-color="rgb(240,172,153)"/></linearGradient><linearGradient id="s27-fill" x1="226.910000" y1="136.710000" x2="289.910000" y2="299.710000" spreadMethod="pad" gradientUnits="userSpaceOnUse"><stop id="s27-fill-0" offset="5%" stop-color="rgb(245,245,247)"/><stop id="s27-fill-1" offset="100%" stop-color="rgb(195,195,196)"/></linearGradient><linearGradient id="s29-fill" x1="-44.330001" y1="376.670009" x2="76.999999" y2="259.340009" spreadMethod="pad" gradientUnits="userSpaceOnUse"><stop id="s29-fill-0" offset="8%" stop-color="rgb(168,89,80)"/><stop id="s29-fill-1" offset="90%" stop-color="rgb(224,155,137)"/></linearGradient><linearGradient id="s31-fill" x1="24.960000" y1="-25.950000" x2="136.590000" y2="150.060000" spreadMethod="pad" gradientUnits="userSpaceOnUse"><stop id="s31-fill-0" offset="0%" stop-color="rgb(75,80,89)"/><stop id="s31-fill-1" offset="100%" stop-color="rgb(55,59,61)"/></linearGradient></defs><g id="s3"><rect id="s5" width="23.750000" height="15.750000" rx="1.560000" ry="1.560000" transform="translate(85.890000,289.160000)" fill="url(#s5-fill)" stroke="none" stroke-width="1"/><rect id="s7" width="23.750000" height="15.750000" rx="1.560000" ry="1.560000" transform="translate(288.020000,289.160000)" fill="url(#s7-fill)" stroke="none" stroke-width="1"/><rect id="s9" width="304" height="180.630000" rx="3.170000" ry="3.170000" transform="translate(46.830000,116.140000)" fill="url(#s9-fill)" stroke="none" stroke-width="1"/><path id="s11" d="M82.210000,132.660000L331,132.660000C331.692215,132.660000,332.356079,132.934981,332.845549,133.424451C333.335019,133.913921,333.610000,134.577785,333.610000,135.270000L333.610000,262C333.610000,265.776683,332.109719,269.398683,329.439201,272.069201C326.768683,274.739719,323.146683,276.240000,319.370000,276.240000L66.690000,276.240000C65.997785,276.240000,65.333921,275.965019,64.844451,275.475549C64.354981,274.986079,64.080000,274.322215,64.080000,273.630000L64.080000,150.780000C64.085521,140.770983,72.200981,132.659998,82.210000,132.660000Z" fill="url(#s11-fill)" stroke="none" stroke-width="1"/><rect id="s13" width="1.420000" height="180.630000" rx="0" ry="0" transform="translate(275.790000,116.140000)" fill="url(#s13-fill)" stroke="none" stroke-width="1"/><circle id="s15" r="15.250000" transform="translate(306.330000,247.660000)" fill="url(#s15-fill)" stroke="none" stroke-width="1"/><g id="s17"><rect id="s19" width="24.670000" height="8.920000" rx="1.330000" ry="1.330000" transform="translate(294,210.320000)" fill="url(#s19-fill)" stroke="none" stroke-width="1"/><rect id="s21" width="24.670000" height="8.920000" rx="1.330000" ry="1.330000" transform="translate(294,194.160000)" fill="url(#s21-fill)" stroke="none" stroke-width="1"/><rect id="s23" width="24.670000" height="8.920000" rx="1.330000" ry="1.330000" transform="translate(294,177.990000)" fill="url(#s23-fill)" stroke="none" stroke-width="1"/><rect id="s25" width="24.670000" height="8.920000" rx="1.330000" ry="1.330000" transform="translate(294,161.820000)" fill="url(#s25-fill)" stroke="none" stroke-width="1"/></g><path id="s27" d="M246.540000,150.510000L256.830000,150.510000C258.400082,150.510000,259.905857,151.133712,261.016072,152.243928C262.126288,153.354143,262.750000,154.859918,262.750000,156.430000L262.750000,252.490000C262.750000,254.060082,262.126288,255.565857,261.016072,256.676072C259.905857,257.786288,258.400082,258.410000,256.830000,258.410000L246.540000,258.410000C246.065262,258.410000,245.609969,258.221411,245.274279,257.885721C244.938589,257.550031,244.750000,257.094738,244.750000,256.620000L244.750000,152.300000C244.750000,151.311410,245.551410,150.510000,246.540000,150.510000Z" fill="url(#s27-fill)" stroke="none" stroke-width="1"/><rect id="s29" width="112.250000" height="155.500000" rx="5.250000" ry="5.250000" transform="translate(361.040000,47.880000) rotate(90) translate(100.460000,126.710000)" fill="url(#s29-fill)" stroke="none" stroke-width="1"/><rect id="s31" width="151.500000" height="108.250000" rx="3.250000" ry="3.250000" transform="translate(80.830000,150.330000)" fill="url(#s31-fill)" stroke="none" stroke-width="1"/></g></svg>