<svg id="s1" xmlns="http://www.w3.org/2000/svg" xmlns:xlink="http://www.w3.org/1999/xlink" viewBox="0 0 400 400"><defs><clipPath id="s3"><path id="s5" d="M265.900000,247L231.360000,226.680000C224.724681,222.765176,217.164097,220.693783,209.460000,220.680000L208.590000,220.680000L87.930000,223.160000C87.088085,223.179315,86.290258,223.540323,85.720000,224.160000L81.610000,228.580000C81.202310,229.010751,81.006828,229.600231,81.076350,230.189234C81.145871,230.778237,81.473225,231.306005,81.970000,231.630000C82.466775,231.953995,100.790000,244.060000,104.600000,246.560000C105.033299,246.846005,105.540822,246.998958,106.060000,247Z" fill="none" stroke="none" stroke-width="1"/></clipPath></defs><g id="s7"><g id="s9"><path id="s11" d="M358.490000,327.190000L45.590000,327.190000C43.411458,327.188982,41.391166,326.051857,40.260000,324.190000L25.260000,299.600000C24.720193,298.713685,24.634618,297.623316,25.029546,296.663640C25.424474,295.703965,26.252717,294.989652,27.260000,294.740000L29.520000,294.160000C31.126585,293.746602,32.226473,292.267587,32.160000,290.610000L30.900000,260.180000C30.758585,256.568852,32.330314,253.102894,35.140000,250.830000L62.340000,226.400000C62.924834,225.925998,63.277522,225.223336,63.308145,224.471159C63.338768,223.718981,63.044367,222.989974,62.500000,222.470000L62.500000,222.470000C61.678629,221.684394,61.411398,220.481348,61.822927,219.421881C62.234456,218.362413,63.243693,217.655185,64.380000,217.630000L208.470000,214.720000C217.577534,214.535525,226.557531,216.882648,234.410000,221.500000L287,252.420000C287.646107,252.801450,288.353121,253.068694,289.090000,253.210000L359.090000,264.850000C362.632016,265.519249,365.740374,267.621642,367.680000,270.660000L376.270000,284.120000C376.941119,285.170897,377.333457,286.375441,377.410000,287.620000L378.060000,298.200000C378.195815,300.395349,377.765393,302.588781,376.810000,304.570000L369.090000,320.570000C367.118581,324.626864,363.000495,327.198726,358.490000,327.190000Z" fill="rgb(5,125,159)" stroke="none" stroke-width="1"/><path id="s13" d="M264.100000,250.240000C272.490000,261.690000,268.190000,255.760000,272.490000,261.690000C274.286764,264.166872,275.076607,267.233320,274.700000,270.270000C272.090000,291.270000,269.700000,315.200000,269.700000,315.200000" fill="none" stroke="rgb(18,140,176)" stroke-width="3" stroke-linecap="round" stroke-miterlimit="10"/><path id="s15" d="M27.260000,294.760000L29.520000,294.180000C30.333088,293.968500,31.042970,293.471583,31.520000,292.780000L90.380000,298.370000L105,327.190000L45.590000,327.190000C43.411458,327.188982,41.391166,326.051857,40.260000,324.190000L25.260000,299.600000C24.728548,298.715041,24.647634,297.630669,25.041862,296.676637C25.436090,295.722605,26.258871,295.011661,27.260000,294.760000Z" fill="rgb(14,85,105)" stroke="none" stroke-width="1"/><line id="s17" x1="163.890000" y1="247" x2="180.110000" y2="318.510000" fill="none" stroke="rgb(18,140,176)" stroke-width="3" stroke-linecap="round" stroke-miterlimit="10"/><path id="s19" d="M84.380000,238.760000L76.650000,250.650000C75.105675,253.028021,74.789842,256.000565,75.800000,258.650000L96.140000,310" fill="none" stroke="rgb(18,140,176)" stroke-width="3" stroke-linecap="round" stroke-miterlimit="10"/><path id="s21" d="M374.260000,309.830000L369.080000,320.550000C367.115848,324.611397,363.001411,327.191176,358.490000,327.190000L45.590000,327.190000C43.411458,327.188982,41.391166,326.051857,40.260000,324.190000L31.500000,309.820000Z" fill="rgb(14,85,105)" stroke="none" stroke-width="1"/><path id="s23" d="M73,229L83.930000,217.230000L208.440000,214.710000C217.547596,214.524999,226.527734,216.872159,234.380000,221.490000L287,252.420000C287.276268,252.577488,287.563704,252.714522,287.860000,252.830000L287.970000,252.990000L105.270000,252.990000C104.043689,253.002217,102.840717,252.654537,101.810000,251.990000L73.520000,233.230000C72.829827,232.782662,72.373161,232.052677,72.272809,231.236357C72.172458,230.420036,72.438723,229.601180,73,229Z" fill="rgb(14,85,105)" stroke="none" stroke-width="1"/><g id="s25"><path id="s27" d="M265.900000,247L231.360000,226.680000C224.724681,222.765176,217.164097,220.693783,209.460000,220.680000L208.590000,220.680000L87.930000,223.160000C87.088085,223.179315,86.290258,223.540323,85.720000,224.160000L81.610000,228.580000C81.202310,229.010751,81.006828,229.600231,81.076350,230.189234C81.145871,230.778237,81.473225,231.306005,81.970000,231.630000C82.466775,231.953995,100.790000,244.060000,104.600000,246.560000C105.033299,246.846005,105.540822,246.998958,106.060000,247Z" fill="rgb(81,184,204)" stroke="none" stroke-width="1"/><g id="s29"><g id="s31" clip-path="url(#s3)"><g id="s33"><polygon id="s35" points="186.690000,305.650000 207.690000,305.650000 261.420000,178.520000 240.420000,178.520000 186.690000,305.650000" fill="rgb(110,210,230)" stroke="none" stroke-width="1"/><polygon id="s37" points="172,305.650000 180,305.650000 233.720000,178.520000 225.720000,178.520000 172,305.650000" fill="rgb(110,210,230)" stroke="none" stroke-width="1"/><polygon id="s39" points="131,305.650000 136,305.650000 189.720000,178.520000 184.720000,178.520000 131,305.650000" fill="rgb(110,210,230)" stroke="none" stroke-width="1"/><polygon id="s41" points="89.590000,302.330000 114.590000,302.330000 168.320000,175.200000 143.320000,175.200000 89.590000,302.330000" fill="rgb(110,210,230)" stroke="none" stroke-width="1"/><polygon id="s43" points="75.940000,302.330000 83.940000,302.330000 137.660000,175.200000 129.660000,175.200000 75.940000,302.330000" fill="rgb(110,210,230)" stroke="none" stroke-width="1"/></g></g></g></g><polygon id="s45" points="253.710000,237.160000 253.710000,249.910000 274.490000,249.430000 253.710000,237.160000" fill="rgb(14,85,105)" stroke="none" stroke-width="1"/><polygon id="s47" points="160.160000,248.740000 154.220000,219.120000 162.380000,219.120000 168.320000,248.740000 160.160000,248.740000" fill="rgb(14,85,105)" stroke="none" stroke-width="1"/><line id="s49" x1="158.300000" y1="219.120000" x2="163.890000" y2="247" fill="none" stroke="rgb(4,57,71)" stroke-width="2" stroke-linecap="round" stroke-miterlimit="10"/><path id="s51" d="M353.470000,280.090000C351.157312,280.090000,348.939346,279.171288,347.304029,277.535971C345.668712,275.900654,344.750000,273.682688,344.750000,271.370000C344.755505,270.197541,345.707528,269.249987,346.880000,269.250000L366.620000,269.250000C367.004850,269.695458,367.358999,270.166542,367.680000,270.660000L373.680000,280.090000Z" fill="rgb(224,222,190)" stroke="none" stroke-width="1"/><path id="s53" d="M31.840000,282.270000L30.890000,260.180000C30.890000,260.030000,30.890000,259.870000,30.890000,259.720000C31.251569,259.619105,31.624655,259.565327,32,259.560000L54.500000,259.560000C55.970473,259.559156,57.343709,260.294588,58.157988,261.519023C58.972268,262.743457,59.119432,264.294257,58.550000,265.650000L51.860000,279.650000C51.178213,281.284542,49.581034,282.349328,47.810000,282.350000L32.620000,282.350000C32.358134,282.346652,32.097093,282.319879,31.840000,282.270000Z" fill="rgb(227,104,104)" stroke="none" stroke-width="1"/><path id="s55" d="M181.210000,264.660000L187.580000,264.660000C190.588730,264.643597,193.136127,262.435853,193.580000,259.460000L193.580000,259.330000C193.629102,258.986948,193.527499,258.639418,193.301338,258.376840C193.075176,258.114263,192.746541,257.962280,192.400000,257.960000L176.340000,257.960000C175.993459,257.962280,175.664824,258.114263,175.438662,258.376840C175.212501,258.639418,175.110898,258.986948,175.160000,259.330000L175.160000,259.460000C175.606701,262.454581,178.182297,264.668316,181.210000,264.660000Z" fill="rgb(9,53,66)" stroke="none" stroke-width="1"/><path id="s57" d="M81.610000,228.580000L85.720000,224.160000C86.290258,223.540323,87.088085,223.179315,87.930000,223.160000L96.370000,222.990000L86.760000,233.340000C86.487706,233.626038,86.279723,233.966994,86.150000,234.340000L82,231.630000C81.498809,231.311012,81.165373,230.785718,81.090020,230.196424C81.014668,229.607129,81.205200,229.014836,81.610000,228.580000Z" fill="rgb(9,53,66)" stroke="none" stroke-width="1"/><rect id="s59" width="20.160000" height="14.810000" rx="7.400000" ry="7.400000" transform="translate(498.080000,487.070000) rotate(180) translate(238.960000,236.130000)" fill="rgb(9,53,66)" stroke="none" stroke-width="1"/><path id="s61" d="M31.620000,276.580000L31.380000,270.580000L46.460000,270.580000C48.116854,270.580000,49.460000,271.923146,49.460000,273.580000C49.460000,275.236854,48.116854,276.580000,46.460000,276.580000Z" fill="rgb(224,222,190)" stroke="none" stroke-width="1"/><path id="s63" d="M369.110000,288.240000L360.850000,288.240000C360.041090,288.240000,359.265310,288.561338,358.693324,289.133324C358.121338,289.705310,357.800000,290.481090,357.800000,291.290000L357.800000,302.590000C357.800000,303.398910,358.121338,304.174690,358.693324,304.746676C359.265310,305.318662,360.041090,305.640000,360.850000,305.640000L366.850000,305.640000C368.134375,305.640838,369.322476,304.959204,369.970000,303.850000L371.780000,300.750000C372.501824,299.514686,372.819958,298.084831,372.690000,296.660000L372.180000,291.010000C372.034248,289.428038,370.698570,288.222882,369.110000,288.240000Z" fill="rgb(14,85,105)" stroke="none" stroke-width="1"/><path id="s65" d="M42.430000,253L33.100000,253C33.670689,252.196732,34.342939,251.470702,35.100000,250.840000L62.300000,226.410000C62.883936,225.957104,63.247563,225.277121,63.300000,224.540000L63.300000,224.540000L65.670000,230.040000C66.440002,231.840003,65.963652,233.931099,64.490000,235.220000L45.400000,251.880000C44.577950,252.600100,43.522843,252.997986,42.430000,253Z" fill="rgb(14,85,105)" stroke="none" stroke-width="1"/></g><g id="s67"><circle id="s69" r="31.880000" transform="translate(319.820000,320.120000)" fill="rgb(64,57,69)" stroke="none" stroke-width="1"/><circle id="s71" r="21.750000" transform="translate(319.820000,320.120000)" fill="rgb(168,168,168)" stroke="none" stroke-width="1"/><circle id="s73" r="18.080000" transform="translate(319.820000,320.120000)" fill="rgb(224,224,224)" stroke="none" stroke-width="1"/><circle id="s75" r="12.010000" transform="translate(319.820000,320.120000)" fill="rgb(168,168,168)" stroke="none" stroke-width="1"/><line id="s77" x1="319.820000" y1="299.150000" x2="319.820000" y2="315.650000" fill="none" stroke="rgb(168,168,168)" stroke-width="3.068390" stroke-miterlimit="10"/><line id="s79" x1="332.140000" y1="303.150000" x2="322.440000" y2="316.500000" fill="none" stroke="rgb(168,168,168)" stroke-width="3.068390" stroke-miterlimit="10"/><line id="s81" x1="339.760000" y1="313.640000" x2="324.060000" y2="318.740000" fill="none" stroke="rgb(168,168,168)" stroke-width="3.068390" stroke-miterlimit="10"/><line id="s83" x1="339.760000" y1="326.600000" x2="324.060000" y2="321.500000" fill="none" stroke="rgb(168,168,168)" stroke-width="3.068390" stroke-miterlimit="10"/><line id="s85" x1="332.140000" y1="337.080000" x2="322.440000" y2="323.730000" fill="none" stroke="rgb(168,168,168)" stroke-width="3.068390" stroke-miterlimit="10"/><line id="s87" x1="319.820000" y1="341.090000" x2="319.820000" y2="324.590000" fill="none" stroke="rgb(168,168,168)" stroke-width="3.068390" stroke-miterlimit="10"/><line id="s89" x1="307.490000" y1="337.080000" x2="317.190000" y2="323.730000" fill="none" stroke="rgb(168,168,168)" stroke-width="3.068390" stroke-miterlimit="10"/><line id="s91" x1="299.870000" y1="326.600000" x2="315.570000" y2="321.500000" fill="none" stroke="rgb(168,168,168)" stroke-width="3.068390" stroke-miterlimit="10"/><line id="s93" x1="299.870000" y1="313.640000" x2="315.570000" y2="318.740000" fill="none" stroke="rgb(168,168,168)" stroke-width="3.068390" stroke-miterlimit="10"/><line id="s95" x1="307.490000" y1="303.150000" x2="317.190000" y2="316.500000" fill="none" stroke="rgb(168,168,168)" stroke-width="3.068390" stroke-miterlimit="10"/><circle id="s97" r="4.910000" transform="translate(319.820000,320.120000)" fill="rgb(69,62,74)" stroke="none" stroke-width="1"/></g><g id="s99"><circle id="s101" r="31.880000" transform="translate(85.050000,320.120000)" fill="rgb(64,57,69)" stroke="none" stroke-width="1"/><circle id="s103" r="21.750000" transform="translate(85.050000,320.120000)" fill="rgb(168,168,168)" stroke="none" stroke-width="1"/><circle id="s105" r="18.080000" transform="translate(85.050000,320.120000)" fill="rgb(224,224,224)" stroke="none" stroke-width="1"/><circle id="s107" r="12.010000" transform="translate(85.050000,320.120000)" fill="rgb(168,168,168)" stroke="none" stroke-width="1"/><line id="s109" x1="85.050000" y1="299.150000" x2="85.050000" y2="315.650000" fill="none" stroke="rgb(168,168,168)" stroke-width="3.068390" stroke-miterlimit="10"/><line id="s111" x1="97.370000" y1="303.150000" x2="87.680000" y2="316.500000" fill="none" stroke="rgb(168,168,168)" stroke-width="3.068390" stroke-miterlimit="10"/><line id="s113" x1="104.990000" y1="313.640000" x2="89.300000" y2="318.740000" fill="none" stroke="rgb(168,168,168)" stroke-width="3.068390" stroke-miterlimit="10"/><line id="s115" x1="104.990000" y1="326.600000" x2="89.300000" y2="321.500000" fill="none" stroke="rgb(168,168,168)" stroke-width="3.068390" stroke-miterlimit="10"/><line id="s117" x1="97.370000" y1="337.080000" x2="87.680000" y2="323.730000" fill="none" stroke="rgb(168,168,168)" stroke-width="3.068390" stroke-miterlimit="10"/><line id="s119" x1="85.050000" y1="341.090000" x2="85.050000" y2="324.590000" fill="none" stroke="rgb(168,168,168)" stroke-width="3.068390" stroke-miterlimit="10"/><line id="s121" x1="72.720000" y1="337.080000" x2="82.420000" y2="323.730000" fill="none" stroke="rgb(168,168,168)" stroke-width="3.068390" stroke-miterlimit="10"/><line id="s123" x1="65.110000" y1="326.600000" x2="80.800000" y2="321.500000" fill="none" stroke="rgb(168,168,168)" stroke-width="3.068390" stroke-miterlimit="10"/><line id="s125" x1="65.110000" y1="313.640000" x2="80.800000" y2="318.740000" fill="none" stroke="rgb(168,168,168)" stroke-width="3.068390" stroke-miterlimit="10"/><line id="s127" x1="72.720000" y1="303.150000" x2="82.420000" y2="316.500000" fill="none" stroke="rgb(168,168,168)" stroke-width="3.068390" stroke-miterlimit="10"/><circle id="s129" r="4.910000" transform="translate(85.050000,320.120000)" fill="rgb(69,62,74)" stroke="none" stroke-width="1"/></g></g></svg>