<svg id="s1" xmlns="http://www.w3.org/2000/svg" xmlns:xlink="http://www.w3.org/1999/xlink" viewBox="0 0 400 400"><defs><radialGradient id="s5-fill" cx="32.080000" cy="37.710000" r="107.940000" spreadMethod="pad" gradientUnits="userSpaceOnUse"><stop id="s5-fill-0" offset="0%" stop-color="rgb(222,226,244)"/><stop id="s5-fill-1" offset="100%" stop-color="rgb(170,184,221)"/></radialGradient><linearGradient id="s7-fill" x1="188.220000" y1="233.100000" x2="214.090000" y2="303.340000" spreadMethod="pad" gradientUnits="userSpaceOnUse"><stop id="s7-fill-0" offset="0%" stop-color="rgb(179,187,232)"/><stop id="s7-fill-1" offset="99%" stop-color="rgb(126,144,189)"/></linearGradient><linearGradient id="s9-fill" x1="-7.080000" y1="0.060000" x2="7.460000" y2="39.530000" spreadMethod="pad" gradientUnits="userSpaceOnUse"><stop id="s9-fill-0" offset="0%" stop-color="rgb(179,187,232)"/><stop id="s9-fill-1" offset="99%" stop-color="rgb(126,144,189)"/></linearGradient><linearGradient id="s11-fill" x1="0.030000" y1="0.080000" x2="13.850000" y2="37.580000" spreadMethod="pad" gradientUnits="userSpaceOnUse"><stop id="s11-fill-0" offset="0%" stop-color="rgb(179,187,232)"/><stop id="s11-fill-1" offset="99%" stop-color="rgb(126,144,189)"/></linearGradient></defs><g id="s3"><rect id="s5" width="114.110000" height="175.920000" rx="44.380000" ry="44.380000" transform="translate(142.950000,136.440000)" fill="url(#s5-fill)" stroke="none" stroke-width="1"/><path id="s7" d="M212.680000,298.690000L187.320000,298.690000C162.839237,298.618603,143.011397,278.790763,142.940000,254.310000L142.940000,268C143.011397,292.480763,162.839237,312.308603,187.320000,312.380000L212.680000,312.380000C237.156857,312.303115,256.978631,292.476874,257.050000,268L257.050000,254.310000C256.978631,278.786874,237.156857,298.613115,212.680000,298.690000Z" fill="url(#s7-fill)" stroke="none" stroke-width="1"/><rect id="s9" width="3.270000" height="47.480000" rx="0" ry="0" transform="translate(198.360000,136.440000)" fill="url(#s9-fill)" stroke="none" stroke-width="1"/><rect id="s11" width="16.640000" height="45.170000" rx="8.320000" ry="8.320000" transform="translate(191.680000,171.250000)" fill="url(#s11-fill)" stroke="none" stroke-width="1"/></g></svg>