<svg id="ejMcteH6iTk1" xmlns="http://www.w3.org/2000/svg" xmlns:xlink="http://www.w3.org/1999/xlink" viewBox="0 0 400 400" shape-rendering="geometricPrecision" text-rendering="geometricPrecision"><g id="ejMcteH6iTk2"><g id="ejMcteH6iTk3"><path id="ejMcteH6iTk4" d="M339.600000,294.200000L310,294.200000L310,296.800000C310,298.200000,311.200000,299.400000,312.600000,299.400000L336.900000,299.400000C338.300000,299.400000,339.500000,298.200000,339.500000,296.800000L339.500000,294.200000Z" clip-rule="evenodd" fill="rgb(0,0,0)" fill-rule="evenodd" stroke="none" stroke-width="1"/><path id="ejMcteH6iTk5" d="M60.400000,294.200000L90,294.200000L90,296.800000C90,298.200000,88.800000,299.400000,87.400000,299.400000L63.100000,299.400000C61.700000,299.400000,60.500000,298.200000,60.500000,296.800000L60.500000,294.200000Z" clip-rule="evenodd" fill="rgb(0,0,0)" fill-rule="evenodd" stroke="none" stroke-width="1"/></g><path id="ejMcteH6iTk6" d="M353.500000,100.500000L46.500000,100.500000C34.700000,100.500000,25,110.200000,25,122L25,272.600000C25,284.400000,34.700000,294.100000,46.500000,294.100000L353.500000,294.100000C365.300000,294.100000,375,284.400000,375,272.600000L375,122C375,110.200000,365.300000,100.500000,353.500000,100.500000Z" clip-rule="evenodd" fill="rgb(102,102,102)" fill-rule="evenodd" stroke="none" stroke-width="1"/><g id="ejMcteH6iTk7"><polygon id="ejMcteH6iTk8" points="296,185.900000 310.300000,185.900000 310.300000,200.100000 296,200.100000" clip-rule="evenodd" fill="rgb(51,51,51)" fill-rule="evenodd" stroke="none" stroke-width="1"/><polygon id="ejMcteH6iTk9" points="326.100000,185.900000 311.900000,185.900000 311.900000,200.100000 326.100000,200.100000" clip-rule="evenodd" fill="rgb(51,51,51)" fill-rule="evenodd" stroke="none" stroke-width="1"/><polygon id="ejMcteH6iTk10" points="327.700000,185.900000 341.900000,185.900000 341.900000,200.100000 327.700000,200.100000" clip-rule="evenodd" fill="rgb(51,51,51)" fill-rule="evenodd" stroke="none" stroke-width="1"/><polygon id="ejMcteH6iTk11" points="296,216 310.300000,216 310.300000,201.700000 296,201.700000" clip-rule="evenodd" fill="rgb(51,51,51)" fill-rule="evenodd" stroke="none" stroke-width="1"/><polygon id="ejMcteH6iTk12" points="326.100000,216 311.900000,216 311.900000,201.700000 326.100000,201.700000" clip-rule="evenodd" fill="rgb(51,51,51)" fill-rule="evenodd" stroke="none" stroke-width="1"/><path id="ejMcteH6iTk13" d="M327.700000,216L334.800000,216C338.700000,216,341.900000,212.800000,341.900000,208.900000L341.900000,201.800000L327.700000,201.800000L327.700000,216Z" clip-rule="evenodd" fill="rgb(51,51,51)" fill-rule="evenodd" stroke="none" stroke-width="1"/><polygon id="ejMcteH6iTk14" points="296,217.500000 310.300000,217.500000 310.300000,231.800000 296,231.800000" clip-rule="evenodd" fill="rgb(51,51,51)" fill-rule="evenodd" stroke="none" stroke-width="1"/><polygon id="ejMcteH6iTk15" points="326.100000,217.500000 311.900000,217.500000 311.900000,231.800000 326.100000,231.800000" clip-rule="evenodd" fill="rgb(51,51,51)" fill-rule="evenodd" stroke="none" stroke-width="1"/><path id="ejMcteH6iTk16" d="M327.700000,217.500000L334.800000,217.500000C338.700000,217.500000,341.900000,220.700000,341.900000,224.600000L341.900000,224.600000C341.900000,228.500000,338.700000,231.700000,334.800000,231.700000L327.700000,231.700000L327.700000,217.500000Z" clip-rule="evenodd" fill="rgb(51,51,51)" fill-rule="evenodd" stroke="none" stroke-width="1"/><polygon id="ejMcteH6iTk17" points="357.800000,185.900000 343.500000,185.900000 343.500000,200.100000 357.800000,200.100000" clip-rule="evenodd" fill="rgb(51,51,51)" fill-rule="evenodd" stroke="none" stroke-width="1"/><path id="ejMcteH6iTk18" d="M350.600000,216L350.600000,216C346.700000,216,343.500000,212.800000,343.500000,208.900000L343.500000,201.800000L357.700000,201.800000L357.700000,208.900000C357.800000,212.800000,354.500000,216,350.600000,216Z" clip-rule="evenodd" fill="rgb(51,51,51)" fill-rule="evenodd" stroke="none" stroke-width="1"/><path id="ejMcteH6iTk19" d="M350.600000,217.500000L350.600000,217.500000C346.700000,217.500000,343.500000,220.700000,343.500000,224.600000L343.500000,224.600000C343.500000,228.500000,346.700000,231.700000,350.600000,231.700000L350.600000,231.700000C354.500000,231.700000,357.700000,228.500000,357.700000,224.600000L357.700000,224.600000C357.800000,220.700000,354.500000,217.500000,350.600000,217.500000Z" clip-rule="evenodd" fill="rgb(255,102,102)" fill-rule="evenodd" stroke="none" stroke-width="1"/></g><path id="ejMcteH6iTk20" d="M361.900000,242.600000L292,242.600000L292,272.700000L346.900000,272.700000C355.200000,272.700000,361.900000,265.900000,361.900000,257.700000L361.900000,242.600000Z" clip-rule="evenodd" fill="rgb(77,77,77)" fill-rule="evenodd" stroke="none" stroke-width="1"/><path id="ejMcteH6iTk21" d="M276.900000,122L57.300000,122C51.400000,122,46.500000,126.800000,46.500000,132.800000L46.500000,261.900000C46.500000,267.800000,51.300000,272.700000,57.300000,272.700000L276.900000,272.700000L276.900000,122L276.900000,122Z" clip-rule="evenodd" fill="rgb(26,26,26)" fill-rule="evenodd" stroke="none" stroke-width="1"/><polygon id="ejMcteH6iTk22" points="248.200000,135.400000 61.500000,135.400000 61.500000,259.300000 248.200000,259.300000" clip-rule="evenodd" fill="rgb(0,0,0)" fill-rule="evenodd" stroke="none" stroke-width="1"/><path id="ejMcteH6iTk23" d="M334.900000,122L355.800000,122C359.100000,122,361.900000,124.700000,361.900000,128.100000L361.900000,134.200000L334.900000,134.200000L334.900000,122L334.900000,122Z" clip-rule="evenodd" fill="rgb(77,77,77)" fill-rule="evenodd" stroke="none" stroke-width="1"/><g id="ejMcteH6iTk24"><polygon id="ejMcteH6iTk25" points="283.500000,100.500000 280.400000,100.500000 280.400000,294.200000 283.500000,294.200000" clip-rule="evenodd" fill="rgb(77,77,77)" fill-rule="evenodd" stroke="none" stroke-width="1"/><path id="ejMcteH6iTk26" d="M282,110.800000L282,110.800000C282.200000,110.800000,282.400000,111,282.400000,111.200000L282.400000,283.400000C282.400000,283.600000,282.200000,283.800000,282,283.800000L282,283.800000C281.800000,283.800000,281.600000,283.600000,281.600000,283.400000L281.600000,111.200000C281.500000,111,281.700000,110.800000,282,110.800000Z" clip-rule="evenodd" fill="rgb(26,26,26)" fill-rule="evenodd" stroke="none" stroke-width="1"/></g><g id="ejMcteH6iTk27"><polygon id="ejMcteH6iTk28" points="361.900000,145 291.900000,145 291.900000,175.100000 361.900000,175.100000" clip-rule="evenodd" fill="rgb(0,0,0)" fill-rule="evenodd" stroke="none" stroke-width="1"/><polygon id="ejMcteH6iTk29" points="359.200000,147.100000 294.600000,147.100000 294.600000,168.600000 359.200000,168.600000" clip-rule="evenodd" fill="rgb(51,51,51)" fill-rule="evenodd" stroke="none" stroke-width="1"/><g id="ejMcteH6iTk30"><path id="ejMcteH6iTk31" d="M354.400000,172.800000L343.600000,172.800000C342.900000,172.800000,342.400000,172.200000,342.400000,171.600000L342.400000,171.600000C342.400000,170.900000,343,170.400000,343.600000,170.400000L354.400000,170.400000C355.100000,170.400000,355.600000,171,355.600000,171.600000L355.600000,171.600000C355.600000,172.300000,355.100000,172.800000,354.400000,172.800000Z" clip-rule="evenodd" fill="rgb(255,102,102)" fill-rule="evenodd" stroke="none" stroke-width="1"/><path id="ejMcteH6iTk32" d="M328.800000,172.800000L339.600000,172.800000C340.300000,172.800000,340.800000,172.200000,340.800000,171.600000L340.800000,171.600000C340.800000,170.900000,340.200000,170.400000,339.600000,170.400000L328.800000,170.400000C328.100000,170.400000,327.600000,171,327.600000,171.600000L327.600000,171.600000C327.600000,172.300000,328.200000,172.800000,328.800000,172.800000Z" clip-rule="evenodd" fill="rgb(77,77,77)" fill-rule="evenodd" stroke="none" stroke-width="1"/><path id="ejMcteH6iTk33" d="M299.400000,172.800000L310.200000,172.800000C310.900000,172.800000,311.400000,172.200000,311.400000,171.600000L311.400000,171.600000C311.400000,170.900000,310.800000,170.400000,310.200000,170.400000L299.400000,170.400000C298.700000,170.400000,298.200000,171,298.200000,171.600000L298.200000,171.600000C298.200000,172.300000,298.700000,172.800000,299.400000,172.800000Z" clip-rule="evenodd" fill="rgb(77,77,77)" fill-rule="evenodd" stroke="none" stroke-width="1"/><path id="ejMcteH6iTk34" d="M325,172.800000L314.200000,172.800000C313.500000,172.800000,313,172.200000,313,171.600000L313,171.600000C313,170.900000,313.600000,170.400000,314.200000,170.400000L325,170.400000C325.700000,170.400000,326.200000,171,326.200000,171.600000L326.200000,171.600000C326.200000,172.300000,325.600000,172.800000,325,172.800000Z" clip-rule="evenodd" fill="rgb(77,77,77)" fill-rule="evenodd" stroke="none" stroke-width="1"/></g><g id="ejMcteH6iTk35"><g id="ejMcteH6iTk36"><g id="ejMcteH6iTk37"><path id="ejMcteH6iTk38" d="M319.300000,158.300000L319.300000,158.300000C319,158.300000,318.800000,158.500000,318.800000,158.800000L318.300000,164C318.300000,164.300000,318.500000,164.500000,318.700000,164.500000L318.700000,164.500000C319,164.500000,319.200000,164.300000,319.200000,164L319.700000,158.800000C319.800000,158.500000,319.600000,158.300000,319.300000,158.300000Z" clip-rule="evenodd" fill="rgb(153,255,0)" fill-rule="evenodd" stroke="none" stroke-width="1"/><path id="ejMcteH6iTk39" d="M312,165L312,165C312,165.300000,312.200000,165.500000,312.400000,165.500000L317.600000,165.500000C317.900000,165.500000,318.100000,165.300000,318.100000,165L318.100000,165C318.100000,164.700000,317.900000,164.500000,317.700000,164.500000L312.500000,164.500000C312.300000,164.500000,312.100000,164.700000,312,165Z" clip-rule="evenodd" fill="rgb(153,255,0)" fill-rule="evenodd" stroke="none" stroke-width="1"/><path id="ejMcteH6iTk40" d="M311.600000,164.500000L311.600000,164.500000C311.900000,164.500000,312.100000,164.300000,312.100000,164L312.600000,158.800000C312.600000,158.500000,312.400000,158.300000,312.200000,158.300000L312.200000,158.300000C311.900000,158.300000,311.700000,158.500000,311.700000,158.800000L311.200000,164C311.200000,164.300000,311.300000,164.500000,311.600000,164.500000Z" clip-rule="evenodd" fill="rgb(153,255,0)" fill-rule="evenodd" stroke="none" stroke-width="1"/><path id="ejMcteH6iTk41" d="M318.900000,157.800000L318.900000,157.800000C318.900000,157.500000,318.700000,157.300000,318.500000,157.300000L313.300000,157.300000C313,157.300000,312.800000,157.500000,312.800000,157.800000L312.800000,157.800000C312.800000,158.100000,313,158.300000,313.200000,158.300000L318.400000,158.300000C318.600000,158.300000,318.900000,158.100000,318.900000,157.800000L318.900000,157.800000Z" clip-rule="evenodd" fill="rgb(26,26,26)" fill-rule="evenodd" stroke="none" stroke-width="1"/><path id="ejMcteH6iTk42" d="M320,151.200000L320,151.200000C319.700000,151.200000,319.500000,151.400000,319.500000,151.700000L319,156.900000C319,157.200000,319.200000,157.400000,319.400000,157.400000L319.400000,157.400000C319.700000,157.400000,319.900000,157.200000,319.900000,156.900000L320.400000,151.700000C320.500000,151.400000,320.300000,151.200000,320,151.200000Z" clip-rule="evenodd" fill="rgb(153,255,0)" fill-rule="evenodd" stroke="none" stroke-width="1"/><path id="ejMcteH6iTk43" d="M312.300000,157.400000L312.300000,157.400000C312.600000,157.400000,312.800000,157.200000,312.800000,156.900000L313.300000,151.700000C313.300000,151.400000,313.100000,151.200000,312.900000,151.200000L312.900000,151.200000C312.600000,151.200000,312.400000,151.400000,312.400000,151.700000L311.900000,156.900000C311.800000,157.100000,312,157.400000,312.300000,157.400000Z" clip-rule="evenodd" fill="rgb(153,255,0)" fill-rule="evenodd" stroke="none" stroke-width="1"/><path id="ejMcteH6iTk44" d="M319.600000,150.700000L319.600000,150.700000C319.600000,150.400000,319.400000,150.200000,319.200000,150.200000L314,150.200000C313.700000,150.200000,313.500000,150.400000,313.500000,150.700000L313.500000,150.700000C313.500000,151,313.700000,151.200000,313.900000,151.200000L319.100000,151.200000C319.300000,151.200000,319.600000,151,319.600000,150.700000Z" clip-rule="evenodd" fill="rgb(153,255,0)" fill-rule="evenodd" stroke="none" stroke-width="1"/></g><g id="ejMcteH6iTk45"><path id="ejMcteH6iTk46" d="M329.700000,158.300000L329.700000,158.300000C329.400000,158.300000,329.200000,158.500000,329.200000,158.800000L328.700000,164C328.700000,164.300000,328.900000,164.500000,329.100000,164.500000L329.100000,164.500000C329.400000,164.500000,329.600000,164.300000,329.600000,164L330.100000,158.800000C330.200000,158.500000,330,158.300000,329.700000,158.300000Z" clip-rule="evenodd" fill="rgb(153,255,0)" fill-rule="evenodd" stroke="none" stroke-width="1"/><path id="ejMcteH6iTk47" d="M322.400000,165L322.400000,165C322.400000,165.300000,322.600000,165.500000,322.800000,165.500000L328,165.500000C328.300000,165.500000,328.500000,165.300000,328.500000,165L328.500000,165C328.500000,164.700000,328.300000,164.500000,328.100000,164.500000L322.900000,164.500000C322.700000,164.500000,322.400000,164.700000,322.400000,165Z" clip-rule="evenodd" fill="rgb(153,255,0)" fill-rule="evenodd" stroke="none" stroke-width="1"/><path id="ejMcteH6iTk48" d="M322,164.500000L322,164.500000C322.300000,164.500000,322.500000,164.300000,322.500000,164L323,158.800000C323,158.500000,322.800000,158.300000,322.600000,158.300000L322.600000,158.300000C322.300000,158.300000,322.100000,158.500000,322.100000,158.800000L321.600000,164C321.500000,164.300000,321.700000,164.500000,322,164.500000Z" clip-rule="evenodd" fill="rgb(153,255,0)" fill-rule="evenodd" stroke="none" stroke-width="1"/><path id="ejMcteH6iTk49" d="M329.300000,157.800000L329.300000,157.800000C329.300000,157.500000,329.100000,157.300000,328.900000,157.300000L323.700000,157.300000C323.400000,157.300000,323.200000,157.500000,323.200000,157.800000L323.200000,157.800000C323.200000,158.100000,323.400000,158.300000,323.600000,158.300000L328.800000,158.300000C329,158.300000,329.200000,158.100000,329.300000,157.800000L329.300000,157.800000Z" clip-rule="evenodd" fill="rgb(26,26,26)" fill-rule="evenodd" stroke="none" stroke-width="1"/><path id="ejMcteH6iTk50" d="M330.400000,151.200000L330.400000,151.200000C330.100000,151.200000,329.900000,151.400000,329.900000,151.700000L329.400000,156.900000C329.400000,157.200000,329.600000,157.400000,329.800000,157.400000L329.800000,157.400000C330.100000,157.400000,330.300000,157.200000,330.300000,156.900000L330.800000,151.700000C330.900000,151.400000,330.700000,151.200000,330.400000,151.200000Z" clip-rule="evenodd" fill="rgb(153,255,0)" fill-rule="evenodd" stroke="none" stroke-width="1"/><path id="ejMcteH6iTk51" d="M322.700000,157.400000L322.700000,157.400000C323,157.400000,323.200000,157.200000,323.200000,156.900000L323.700000,151.700000C323.700000,151.400000,323.500000,151.200000,323.300000,151.200000L323.300000,151.200000C323,151.200000,322.800000,151.400000,322.800000,151.700000L322.300000,156.900000C322.200000,157.100000,322.400000,157.400000,322.700000,157.400000Z" clip-rule="evenodd" fill="rgb(153,255,0)" fill-rule="evenodd" stroke="none" stroke-width="1"/><path id="ejMcteH6iTk52" d="M330,150.700000L330,150.700000C330,150.400000,329.800000,150.200000,329.600000,150.200000L324.400000,150.200000C324.100000,150.200000,323.900000,150.400000,323.900000,150.700000L323.900000,150.700000C323.900000,151,324.100000,151.200000,324.300000,151.200000L329.500000,151.200000C329.700000,151.200000,329.900000,151,330,150.700000Z" clip-rule="evenodd" fill="rgb(153,255,0)" fill-rule="evenodd" stroke="none" stroke-width="1"/></g><g id="ejMcteH6iTk53"><path id="ejMcteH6iTk54" d="M342.900000,158.300000L342.900000,158.300000C342.600000,158.300000,342.400000,158.500000,342.400000,158.800000L341.900000,164C341.900000,164.300000,342.100000,164.500000,342.300000,164.500000L342.300000,164.500000C342.600000,164.500000,342.800000,164.300000,342.800000,164L343.300000,158.800000C343.400000,158.500000,343.200000,158.300000,342.900000,158.300000Z" clip-rule="evenodd" fill="rgb(26,26,26)" fill-rule="evenodd" stroke="none" stroke-width="1"/><path id="ejMcteH6iTk55" d="M335.600000,165L335.600000,165C335.600000,165.300000,335.800000,165.500000,336,165.500000L341.200000,165.500000C341.500000,165.500000,341.700000,165.300000,341.700000,165L341.700000,165C341.700000,164.700000,341.500000,164.500000,341.300000,164.500000L336.100000,164.500000C335.900000,164.500000,335.700000,164.700000,335.600000,165L335.600000,165Z" clip-rule="evenodd" fill="rgb(153,255,0)" fill-rule="evenodd" stroke="none" stroke-width="1"/><path id="ejMcteH6iTk56" d="M335.200000,164.500000L335.200000,164.500000C335.500000,164.500000,335.700000,164.300000,335.700000,164L336.200000,158.800000C336.200000,158.500000,336,158.300000,335.800000,158.300000L335.800000,158.300000C335.500000,158.300000,335.300000,158.500000,335.300000,158.800000L334.800000,164C334.800000,164.300000,334.900000,164.500000,335.200000,164.500000Z" clip-rule="evenodd" fill="rgb(153,255,0)" fill-rule="evenodd" stroke="none" stroke-width="1"/><path id="ejMcteH6iTk57" d="M342.500000,157.800000L342.500000,157.800000C342.500000,157.500000,342.300000,157.300000,342.100000,157.300000L336.900000,157.300000C336.600000,157.300000,336.400000,157.500000,336.400000,157.800000L336.400000,157.800000C336.400000,158.100000,336.600000,158.300000,336.800000,158.300000L342,158.300000C342.200000,158.300000,342.500000,158.100000,342.500000,157.800000Z" clip-rule="evenodd" fill="rgb(153,255,0)" fill-rule="evenodd" stroke="none" stroke-width="1"/><path id="ejMcteH6iTk58" d="M343.600000,151.200000L343.600000,151.200000C343.300000,151.200000,343.100000,151.400000,343.100000,151.700000L342.600000,156.900000C342.600000,157.200000,342.800000,157.400000,343,157.400000L343,157.400000C343.300000,157.400000,343.500000,157.200000,343.500000,156.900000L344,151.700000C344.100000,151.400000,343.900000,151.200000,343.600000,151.200000Z" clip-rule="evenodd" fill="rgb(153,255,0)" fill-rule="evenodd" stroke="none" stroke-width="1"/><path id="ejMcteH6iTk59" d="M335.900000,157.400000L335.900000,157.400000C336.200000,157.400000,336.400000,157.200000,336.400000,156.900000L336.900000,151.700000C336.900000,151.400000,336.700000,151.200000,336.500000,151.200000L336.500000,151.200000C336.200000,151.200000,336,151.400000,336,151.700000L335.500000,156.900000C335.400000,157.100000,335.600000,157.400000,335.900000,157.400000Z" clip-rule="evenodd" fill="rgb(26,26,26)" fill-rule="evenodd" stroke="none" stroke-width="1"/><path id="ejMcteH6iTk60" d="M343.200000,150.700000L343.200000,150.700000C343.200000,150.400000,343,150.200000,342.800000,150.200000L337.600000,150.200000C337.300000,150.200000,337.100000,150.400000,337.100000,150.700000L337.100000,150.700000C337.100000,151,337.300000,151.200000,337.500000,151.200000L342.700000,151.200000C342.900000,151.200000,343.200000,151,343.200000,150.700000L343.200000,150.700000Z" clip-rule="evenodd" fill="rgb(153,255,0)" fill-rule="evenodd" stroke="none" stroke-width="1"/></g><g id="ejMcteH6iTk61"><path id="ejMcteH6iTk62" d="M353.300000,158.300000L353.300000,158.300000C353,158.300000,352.800000,158.500000,352.800000,158.800000L352.300000,164C352.300000,164.300000,352.500000,164.500000,352.700000,164.500000L352.700000,164.500000C353,164.500000,353.200000,164.300000,353.200000,164L353.700000,158.800000C353.800000,158.500000,353.600000,158.300000,353.300000,158.300000Z" clip-rule="evenodd" fill="rgb(153,255,0)" fill-rule="evenodd" stroke="none" stroke-width="1"/><path id="ejMcteH6iTk63" d="M346,165L346,165C346,165.300000,346.200000,165.500000,346.400000,165.500000L351.600000,165.500000C351.900000,165.500000,352.100000,165.300000,352.100000,165L352.100000,165C352.100000,164.700000,351.900000,164.500000,351.700000,164.500000L346.500000,164.500000C346.300000,164.500000,346,164.700000,346,165Z" clip-rule="evenodd" fill="rgb(153,255,0)" fill-rule="evenodd" stroke="none" stroke-width="1"/><path id="ejMcteH6iTk64" d="M345.600000,164.500000L345.600000,164.500000C345.900000,164.500000,346.100000,164.300000,346.100000,164L346.600000,158.800000C346.600000,158.500000,346.400000,158.300000,346.200000,158.300000L346.200000,158.300000C345.900000,158.300000,345.700000,158.500000,345.700000,158.800000L345.200000,164C345.100000,164.300000,345.300000,164.500000,345.600000,164.500000Z" clip-rule="evenodd" fill="rgb(153,255,0)" fill-rule="evenodd" stroke="none" stroke-width="1"/><path id="ejMcteH6iTk65" d="M352.900000,157.800000L352.900000,157.800000C352.900000,157.500000,352.700000,157.300000,352.500000,157.300000L347.300000,157.300000C347,157.300000,346.800000,157.500000,346.800000,157.800000L346.800000,157.800000C346.800000,158.100000,347,158.300000,347.200000,158.300000L352.400000,158.300000C352.600000,158.300000,352.800000,158.100000,352.900000,157.800000L352.900000,157.800000Z" clip-rule="evenodd" fill="rgb(26,26,26)" fill-rule="evenodd" stroke="none" stroke-width="1"/><path id="ejMcteH6iTk66" d="M354,151.200000L354,151.200000C353.700000,151.200000,353.500000,151.400000,353.500000,151.700000L353,156.900000C353,157.200000,353.200000,157.400000,353.400000,157.400000L353.400000,157.400000C353.700000,157.400000,353.900000,157.200000,353.900000,156.900000L354.400000,151.700000C354.500000,151.400000,354.300000,151.200000,354,151.200000Z" clip-rule="evenodd" fill="rgb(153,255,0)" fill-rule="evenodd" stroke="none" stroke-width="1"/><path id="ejMcteH6iTk67" d="M346.300000,157.400000L346.300000,157.400000C346.600000,157.400000,346.800000,157.200000,346.800000,156.900000L347.300000,151.700000C347.300000,151.400000,347.100000,151.200000,346.900000,151.200000L346.900000,151.200000C346.600000,151.200000,346.400000,151.400000,346.400000,151.700000L345.900000,156.900000C345.800000,157.100000,346,157.400000,346.300000,157.400000Z" clip-rule="evenodd" fill="rgb(153,255,0)" fill-rule="evenodd" stroke="none" stroke-width="1"/><path id="ejMcteH6iTk68" d="M353.600000,150.700000L353.600000,150.700000C353.600000,150.400000,353.400000,150.200000,353.200000,150.200000L348,150.200000C347.700000,150.200000,347.500000,150.400000,347.500000,150.700000L347.500000,150.700000C347.500000,151,347.700000,151.200000,347.900000,151.200000L353.100000,151.200000C353.300000,151.200000,353.500000,151,353.600000,150.700000L353.600000,150.700000Z" clip-rule="evenodd" fill="rgb(153,255,0)" fill-rule="evenodd" stroke="none" stroke-width="1"/></g><g id="ejMcteH6iTk69"><path id="ejMcteH6iTk70" d="M333,155.500000L333,155.500000C333.300000,155.500000,333.500000,155.300000,333.500000,155L333.600000,153.600000C333.600000,153.300000,333.400000,153.100000,333.200000,153.100000L333.200000,153.100000C332.900000,153.100000,332.700000,153.300000,332.700000,153.600000L332.600000,155C332.600000,155.300000,332.800000,155.500000,333,155.500000Z" clip-rule="evenodd" fill="rgb(153,255,0)" fill-rule="evenodd" stroke="none" stroke-width="1"/><path id="ejMcteH6iTk71" d="M332.400000,162.500000L332.400000,162.500000C332.700000,162.500000,332.900000,162.300000,332.900000,162L333,160.600000C333,160.300000,332.800000,160.100000,332.600000,160.100000L332.600000,160.100000C332.300000,160.100000,332.100000,160.300000,332.100000,160.600000L332,162C331.900000,162.200000,332.100000,162.500000,332.400000,162.500000Z" clip-rule="evenodd" fill="rgb(153,255,0)" fill-rule="evenodd" stroke="none" stroke-width="1"/></g></g><path id="ejMcteH6iTk72" d="M302.200000,155C300.600000,155,299.400000,156.300000,299.400000,157.800000C299.400000,159.400000,300.700000,160.600000,302.200000,160.600000C303.700000,160.600000,305,159.300000,305,157.800000C305,156.300000,303.700000,155,302.200000,155Z" clip-rule="evenodd" fill="rgb(153,255,0)" fill-rule="evenodd" stroke="none" stroke-width="1"/></g></g></g></svg>