<svg id="efN0WMrmKi81" xmlns="http://www.w3.org/2000/svg" xmlns:xlink="http://www.w3.org/1999/xlink" viewBox="0 0 400 400" shape-rendering="geometricPrecision" text-rendering="geometricPrecision"><g id="efN0WMrmKi82"><g id="efN0WMrmKi83"><g id="efN0WMrmKi84"><path id="efN0WMrmKi85" d="M180.700000,329.100000C184.100000,297.400000,166.900000,244.700000,166.600000,243.600000C162,226.300000,118.600000,215.700000,95.100000,213.500000C97.800000,200.200000,101.500000,196.600000,106.100000,183.800000C155.800000,166.200000,244.400000,166,294,183.600000C298.600000,196.600000,302.300000,200.200000,305.100000,213.600000C281.700000,215.700000,238.100000,226.300000,233.600000,243.600000C233.300000,244.600000,216.100000,297.400000,219.500000,329.100000L180.700000,329.100000Z" clip-rule="evenodd" fill="rgb(204,204,204)" fill-rule="evenodd" stroke="none" stroke-width="1"/><path id="efN0WMrmKi86" d="M184.800000,328.500000L215.200000,328.500000C214.700000,318.600000,215.700000,308.100000,217.200000,298.600000C219,286.600000,221.700000,274.600000,224.800000,262.900000C225.900000,258.900000,227,254.900000,228.200000,250.900000C228.700000,249.200000,229.300000,247.500000,229.700000,245.900000C235,226,278.800000,216.200000,300.200000,213.600000C299.300000,210.200000,298.200000,206.900000,296.700000,203.500000C295.700000,201.300000,294.700000,199.100000,293.700000,196.800000C292.700000,194.500000,291.800000,192.200000,290.900000,189.900000C242.300000,173.300000,157.600000,173.500000,108.900000,190.100000C108,192.400000,107.100000,194.700000,106.100000,197C105.100000,199.200000,104.100000,201.400000,103.100000,203.600000C101.600000,207,100.500000,210.200000,99.600000,213.600000C121,216.300000,164.800000,226.100000,170,246C170.500000,247.700000,171,249.400000,171.600000,251.100000C172.800000,255.100000,173.900000,259.100000,175,263.100000C178.100000,274.800000,180.800000,286.800000,182.600000,298.800000C184.300000,308.100000,185.300000,318.600000,184.800000,328.500000L184.800000,328.500000Z" clip-rule="evenodd" fill="rgb(179,179,179)" fill-rule="evenodd" stroke="none" stroke-width="1"/></g><g id="efN0WMrmKi87"><path id="efN0WMrmKi88" d="M200,164.600000C226.200000,164.600000,247.500000,185.900000,247.500000,212.100000C247.500000,238.300000,226.200000,259.600000,200,259.600000C173.800000,259.600000,152.500000,238.300000,152.500000,212.100000C152.500000,185.900000,173.800000,164.600000,200,164.600000L200,164.600000Z" clip-rule="evenodd" fill="rgb(128,128,128)" fill-rule="evenodd" stroke="none" stroke-width="1"/><path id="efN0WMrmKi89" d="M200,170.200000C224.300000,170.200000,244,189.900000,244,214.200000C244,238.500000,224.300000,258.200000,200,258.200000C175.700000,258.200000,156,238.500000,156,214.200000C156,189.900000,175.700000,170.200000,200,170.200000L200,170.200000Z" clip-rule="evenodd" fill="rgb(153,153,153)" fill-rule="evenodd" stroke="none" stroke-width="1"/><g id="efN0WMrmKi810"><path id="efN0WMrmKi811" d="M200,185.300000C214.800000,185.300000,226.700000,197.300000,226.700000,212C226.700000,226.700000,214.700000,238.700000,200,238.700000C185.300000,238.700000,173.300000,226.700000,173.300000,212C173.300000,197.300000,185.200000,185.300000,200,185.300000L200,185.300000Z" clip-rule="evenodd" fill="rgb(204,51,0)" fill-rule="evenodd" stroke="none" stroke-width="1"/><path id="efN0WMrmKi812" d="M200,185.300000C214.300000,185.300000,225.900000,196.500000,226.700000,210.500000C225.900000,224.600000,214.300000,235.700000,200,235.700000C185.700000,235.700000,174.100000,224.500000,173.300000,210.500000C174.100000,196.500000,185.700000,185.300000,200,185.300000Z" clip-rule="evenodd" fill="rgb(255,0,0)" fill-rule="evenodd" stroke="none" stroke-width="1"/></g></g></g><g id="efN0WMrmKi813"><path id="efN0WMrmKi814" d="M214.200000,37.600000C304.200000,44.800000,375,120.200000,375,212C375,274.900000,341.800000,330.100000,291.900000,360.900000C290.300000,361.900000,288.700000,362.300000,286.900000,362.300000L113.100000,362.300000C111.300000,362.300000,109.700000,361.800000,108.100000,360.900000C58.200000,330.100000,25,275,25,212C25,120.100000,95.800000,44.800000,185.800000,37.600000L189.200000,39.100000L210.700000,39.100000L214.200000,37.600000ZM269.200000,328.600000L229.700000,328.600000C225.300000,328.600000,221.600000,325.700000,220.500000,321.500000C219.400000,317.300000,215.700000,314.400000,211.300000,314.400000L188.700000,314.400000C184.300000,314.400000,180.600000,317.300000,179.500000,321.500000C178.400000,325.800000,174.700000,328.600000,170.300000,328.600000L130.800000,328.600000C128.900000,328.600000,127.200000,328.100000,125.600000,327.100000C97.900000,309.100000,77.100000,281.400000,68,248.800000C67.700000,247.700000,67.600000,246.700000,67.700000,245.600000C69.100000,224.200000,86.600000,217.200000,106.500000,217.400000C111,217.400000,114.800000,214.400000,115.900000,210.100000C117.200000,204.500000,118.700000,199,120.300000,193.500000C121.300000,190.200000,120.500000,186.900000,118.200000,184.400000C115.900000,181.900000,112.700000,180.800000,109.300000,181.500000C102.700000,182.800000,96.100000,184.200000,89.500000,185.800000C88.800000,186,62,195.600000,70.700000,167.200000C70.800000,166.800000,70.900000,166.500000,71.100000,166.100000C75.300000,156.500000,82.200000,148,95.200000,141.900000C101.100000,139.100000,105,135.200000,102.900000,127.800000C101.400000,122.500000,102.400000,117.700000,105.500000,113.300000C105.900000,112.700000,106.300000,112.300000,106.800000,111.800000C127.700000,92.400000,154.600000,79.400000,184.500000,76L189.300000,73.900000L200,63.900000L210.700000,73.900000L215.500000,76C245.400000,79.400000,272.300000,92.300000,293.200000,111.800000C293.700000,112.300000,294.100000,112.700000,294.500000,113.300000C297.600000,117.700000,298.600000,122.600000,297.100000,127.800000C295,135.200000,298.900000,139.100000,304.800000,141.900000C317.800000,148,324.700000,156.500000,328.900000,166.100000C329.100000,166.500000,329.200000,166.800000,329.300000,167.200000C334.400000,183.900000,328.100000,190.200000,310.500000,185.800000C303.900000,184.200000,297.300000,182.700000,290.700000,181.400000C287.300000,180.700000,284.100000,181.800000,281.800000,184.300000C279.500000,186.800000,278.700000,190.100000,279.700000,193.400000C281.400000,199,282.900000,204.600000,284.200000,210.300000C285.200000,214.700000,289,217.700000,293.500000,217.600000C313.400000,217.500000,330.700000,224.700000,332,246.500000C332.100000,247.600000,332,248.600000,331.700000,249.600000C322.500000,281.800000,301.800000,309.200000,274.300000,327C272.800000,328.100000,271.100000,328.600000,269.200000,328.600000L269.200000,328.600000Z" clip-rule="evenodd" fill="rgb(26,26,26)" fill-rule="evenodd" stroke="none" stroke-width="1"/><g id="efN0WMrmKi815"><path id="efN0WMrmKi816" d="M200,38.100000C203.700000,38.100000,207.500000,38.200000,211.100000,38.500000L211.100000,74.600000C207.400000,74.300000,203.700000,74.100000,200,74.100000C196.200000,74.100000,192.500000,74.300000,188.900000,74.600000L188.900000,38.400000C192.500000,38.200000,196.300000,38.100000,200,38.100000L200,38.100000Z" clip-rule="evenodd" fill="rgb(230,230,230)" fill-rule="evenodd" stroke="none" stroke-width="1"/><path id="efN0WMrmKi817" d="M200,38.100000C202.900000,38.100000,205.700000,38.200000,208.600000,38.300000L208.600000,74.400000C205.800000,74.200000,202.900000,74.100000,200,74.100000C197.100000,74.100000,194.300000,74.200000,191.400000,74.400000L191.400000,38.300000C194.300000,38.100000,197.100000,38.100000,200,38.100000Z" clip-rule="evenodd" fill="rgb(204,51,0)" fill-rule="evenodd" stroke="none" stroke-width="1"/></g></g></g></svg>