<svg id="s1" xmlns="http://www.w3.org/2000/svg" xmlns:xlink="http://www.w3.org/1999/xlink" viewBox="0 0 400 400"><defs><linearGradient id="s5-fill" x1="112.390000" y1="117.550000" x2="121.560000" y2="144.800000" spreadMethod="pad" gradientUnits="userSpaceOnUse"><stop id="s5-fill-0" offset="0%" stop-color="rgb(208,208,210)"/><stop id="s5-fill-1" offset="62%" stop-color="rgb(172,172,173)"/><stop id="s5-fill-2" offset="100%" stop-color="rgb(168,168,168)"/></linearGradient><linearGradient id="s7-fill" x1="279.530000" y1="113.400000" x2="290.400000" y2="145.700000" spreadMethod="pad" gradientUnits="userSpaceOnUse"><stop id="s7-fill-0" offset="0%" stop-color="rgb(208,208,210)"/><stop id="s7-fill-1" offset="62%" stop-color="rgb(172,172,173)"/><stop id="s7-fill-2" offset="100%" stop-color="rgb(168,168,168)"/></linearGradient><linearGradient id="s9-fill" x1="201.680000" y1="143.050000" x2="199.680000" y2="271.050000" spreadMethod="pad" gradientUnits="userSpaceOnUse"><stop id="s9-fill-0" offset="4%" stop-color="rgb(239,239,239)"/><stop id="s9-fill-1" offset="18%" stop-color="rgb(228,228,230)"/><stop id="s9-fill-2" offset="99%" stop-color="rgb(212,212,214)"/></linearGradient><linearGradient id="s11-fill" x1="182.500000" y1="133.250000" x2="226.200000" y2="263.170000" spreadMethod="pad" gradientUnits="userSpaceOnUse"><stop id="s11-fill-0" offset="0%" stop-color="rgb(208,208,210)"/><stop id="s11-fill-1" offset="62%" stop-color="rgb(172,172,173)"/><stop id="s11-fill-2" offset="100%" stop-color="rgb(168,168,168)"/></linearGradient><linearGradient id="s13-fill" x1="105.840000" y1="156.500000" x2="134.160000" y2="201.150000" spreadMethod="pad" gradientUnits="userSpaceOnUse"><stop id="s13-fill-0" offset="0%" stop-color="rgb(86,89,94)"/><stop id="s13-fill-1" offset="100%" stop-color="rgb(57,59,61)"/></linearGradient><linearGradient id="s15-fill" x1="108.370000" y1="160.480000" x2="131.140000" y2="196.390000" spreadMethod="pad" gradientUnits="userSpaceOnUse"><stop id="s15-fill-0" offset="0%" stop-color="rgb(86,89,94)"/><stop id="s15-fill-1" offset="100%" stop-color="rgb(57,59,61)"/></linearGradient><linearGradient id="s17-fill" x1="-17.740000" y1="-27.980000" x2="21.260000" y2="33.520000" spreadMethod="pad" gradientUnits="userSpaceOnUse"><stop id="s17-fill-0" offset="0%" stop-color="rgb(110,113,120)"/><stop id="s17-fill-1" offset="100%" stop-color="rgb(81,84,87)"/></linearGradient><linearGradient id="s19-fill" x1="-11.260000" y1="-17.760000" x2="13.490000" y2="21.270000" spreadMethod="pad" gradientUnits="userSpaceOnUse"><stop id="s19-fill-0" offset="0%" stop-color="rgb(86,89,94)"/><stop id="s19-fill-1" offset="100%" stop-color="rgb(57,59,61)"/></linearGradient><linearGradient id="s21-fill" x1="-17.750000" y1="-27.980000" x2="21.260000" y2="33.520000" spreadMethod="pad" gradientUnits="userSpaceOnUse"><stop id="s21-fill-0" offset="0%" stop-color="rgb(110,113,120)"/><stop id="s21-fill-1" offset="100%" stop-color="rgb(81,84,87)"/></linearGradient><linearGradient id="s23-fill" x1="-11.260000" y1="-17.760000" x2="13.490000" y2="21.270000" spreadMethod="pad" gradientUnits="userSpaceOnUse"><stop id="s23-fill-0" offset="0%" stop-color="rgb(86,89,94)"/><stop id="s23-fill-1" offset="100%" stop-color="rgb(57,59,61)"/></linearGradient><linearGradient id="s25-fill" x1="9.480000" y1="17.270000" x2="-6.020000" y2="-10.980000" spreadMethod="pad" gradientUnits="userSpaceOnUse"><stop id="s25-fill-0" offset="0%" stop-color="rgb(217,124,30)"/><stop id="s25-fill-1" offset="100%" stop-color="rgb(242,182,19)"/></linearGradient><linearGradient id="s27-fill" x1="-5.270000" y1="-11.980000" x2="6.730000" y2="15.270000" spreadMethod="pad" gradientUnits="userSpaceOnUse"><stop id="s27-fill-0" offset="0%" stop-color="rgb(83,171,108)"/><stop id="s27-fill-1" offset="100%" stop-color="rgb(53,153,58)"/></linearGradient><linearGradient id="s29-fill" x1="9.470000" y1="17.260000" x2="-6.030000" y2="-10.990000" spreadMethod="pad" gradientUnits="userSpaceOnUse"><stop id="s29-fill-0" offset="0%" stop-color="rgb(50,84,140)"/><stop id="s29-fill-1" offset="100%" stop-color="rgb(55,106,184)"/></linearGradient><linearGradient id="s31-fill" x1="-5.160000" y1="-12.810000" x2="5.170000" y2="12.860000" spreadMethod="pad" gradientUnits="userSpaceOnUse"><stop id="s31-fill-0" offset="0%" stop-color="rgb(243,100,104)"/><stop id="s31-fill-1" offset="100%" stop-color="rgb(181,24,29)"/></linearGradient><linearGradient id="s33-fill" x1="68.180000" y1="205.880000" x2="105.180000" y2="315.880000" spreadMethod="pad" gradientUnits="userSpaceOnUse"><stop id="s33-fill-0" offset="0%" stop-color="rgb(208,208,210)"/><stop id="s33-fill-1" offset="62%" stop-color="rgb(172,172,173)"/><stop id="s33-fill-2" offset="100%" stop-color="rgb(168,168,168)"/></linearGradient><linearGradient id="s35-fill" x1="308.970000" y1="210.610000" x2="343.590000" y2="313.520000" spreadMethod="pad" gradientUnits="userSpaceOnUse"><stop id="s35-fill-0" offset="0%" stop-color="rgb(208,208,210)"/><stop id="s35-fill-1" offset="62%" stop-color="rgb(172,172,173)"/><stop id="s35-fill-2" offset="100%" stop-color="rgb(168,168,168)"/></linearGradient></defs><g id="s3"><path id="s5" d="M135.580000,117.840000C135.219476,115.684660,133.279877,114.156360,131.100000,114.310000C121.848473,114.973986,112.651448,116.253485,103.570000,118.140000C101.038776,118.678936,98.652073,119.752952,96.570000,121.290000C95.473602,122.087158,94.829355,123.364479,94.840000,124.720000L94.840000,133.360000C94.850952,135.813117,96.836883,137.799048,99.290000,137.810000L131.210000,137.810000C133.663117,137.799048,135.649048,135.813117,135.660000,133.360000L135.660000,118.360000C135.643706,118.185229,135.616992,118.011587,135.580000,117.840000Z" fill="url(#s5-fill)" stroke="none" stroke-width="1"/><path id="s7" d="M264.420000,117.840000C264.780524,115.684660,266.720123,114.156360,268.900000,114.310000C278.151527,114.973986,287.348552,116.253485,296.430000,118.140000C298.961224,118.678936,301.347927,119.752952,303.430000,121.290000C304.526398,122.087158,305.170645,123.364479,305.160000,124.720000L305.160000,133.360000C305.149048,135.813117,303.163117,137.799048,300.710000,137.810000L268.840000,137.810000C266.386883,137.799048,264.400952,135.813117,264.390000,133.360000L264.390000,118.360000C264.389746,118.186227,264.399764,118.012591,264.420000,117.840000Z" fill="url(#s7-fill)" stroke="none" stroke-width="1"/><path id="s9" d="M295.370000,126.600000C246.640000,117.180000,254.550000,127.900000,240.910000,128.730000C234.800000,129.100000,209.460000,128.730000,200,128.730000C190.540000,128.730000,165.200000,129.100000,159.090000,128.730000C145.450000,127.890000,153.360000,117.180000,104.630000,126.600000C82.390000,130.900000,62.320000,214.180000,65.010000,259.600000C68.390000,316.600000,88.950000,323.600000,112.330000,287.710000C135.710000,251.820000,135.150000,241.780000,162.710000,241.780000L237.300000,241.780000C264.860000,241.780000,264.300000,251.780000,287.680000,287.710000C311.060000,323.640000,331.620000,316.600000,335,259.600000C337.680000,214.180000,317.610000,130.900000,295.370000,126.600000Z" fill="url(#s9-fill)" stroke="rgb(230,230,230)" stroke-width="1" stroke-miterlimit="10"/><path id="s11" d="M240,128.780000C232.630000,129.080000,209,128.780000,200,128.780000C191,128.780000,167.360000,129.120000,160,128.780000L160,241.780000C160.880000,241.780000,161.780000,241.780000,162.710000,241.780000L237.300000,241.780000C238.240000,241.780000,239.140000,241.780000,240.010000,241.780000Z" fill="url(#s11-fill)" stroke="none" stroke-width="1"/><path id="s13" d="M124.620000,198.510000C120.770631,199.635841,116.679369,199.635841,112.830000,198.510000C111.401919,197.967478,110.434385,196.626303,110.370000,195.100000L110.370000,158.530000C110.434385,157.003697,111.401919,155.662522,112.830000,155.120000C116.679369,153.994159,120.770631,153.994159,124.620000,155.120000C126.048081,155.662522,127.015615,157.003697,127.080000,158.530000L127.080000,195.100000C127.015615,196.626303,126.048081,197.967478,124.620000,198.510000Z" fill="url(#s13-fill)" stroke="none" stroke-width="1"/><path id="s15" d="M140.420000,170.920000C141.545841,174.769369,141.545841,178.860631,140.420000,182.710000C139.877478,184.138081,138.536303,185.105615,137.010000,185.170000L100.440000,185.170000C98.902616,185.117426,97.546762,184.147833,97,182.710000C95.874159,178.860631,95.874159,174.769369,97,170.920000C97.542522,169.491919,98.883697,168.524385,100.410000,168.460000L137,168.460000C138.529999,168.520462,139.876057,169.488679,140.420000,170.920000Z" fill="url(#s15-fill)" stroke="none" stroke-width="1"/><circle id="s17" r="29.710000" transform="translate(159.990000,218.150000)" fill="url(#s17-fill)" stroke="none" stroke-width="1"/><circle id="s19" r="18.860000" transform="translate(159.990000,218.150000)" fill="url(#s19-fill)" stroke="none" stroke-width="1"/><circle id="s21" r="29.710000" transform="translate(240.010000,218.150000)" fill="url(#s21-fill)" stroke="none" stroke-width="1"/><circle id="s23" r="18.860000" transform="translate(240.010000,218.150000)" fill="url(#s23-fill)" stroke="none" stroke-width="1"/><circle id="s25" r="9.460000" transform="translate(281.270000,156.100000)" fill="url(#s25-fill)" stroke="none" stroke-width="1"/><circle id="s27" r="9.460000" transform="translate(281.270000,197.530000)" fill="url(#s27-fill)" stroke="none" stroke-width="1"/><circle id="s29" r="9.460000" transform="translate(260.560000,176.820000)" fill="url(#s29-fill)" stroke="none" stroke-width="1"/><circle id="s31" r="9.460000" transform="translate(301.990000,176.820000)" fill="url(#s31-fill)" stroke="none" stroke-width="1"/><path id="s33" d="M82.940000,309.180000L100.940000,245.180000C106.928819,223.548797,94.339207,201.138485,72.750000,195L72.750000,195C72.280000,194.870000,71.810000,194.760000,71.340000,194.640000C66.480000,217.370000,63.930000,241.490000,65.010000,259.580000C66.810000,290,73.520000,306.170000,82.940000,309.180000Z" fill="url(#s33-fill)" stroke="none" stroke-width="1"/><path id="s35" d="M299.070000,245.200000L317.070000,309.200000C326.490000,306.200000,333.190000,290.010000,335,259.570000C336.070000,241.480000,333.520000,217.370000,328.670000,194.630000C328.200000,194.740000,327.730000,194.860000,327.260000,194.990000L327.260000,194.990000C305.655755,201.128178,293.062051,223.559178,299.070000,245.200000Z" fill="url(#s35-fill)" stroke="none" stroke-width="1"/></g></svg>