<svg id="s1" xmlns="http://www.w3.org/2000/svg" xmlns:xlink="http://www.w3.org/1999/xlink" viewBox="0 0 400 400"><defs><linearGradient id="s5-fill" x1="-5.460000" y1="-22.740000" x2="26.230000" y2="40.890000" spreadMethod="pad" gradientUnits="userSpaceOnUse"><stop id="s5-fill-0" offset="0%" stop-color="rgb(208,208,210)"/><stop id="s5-fill-1" offset="25%" stop-color="rgb(192,192,193)"/><stop id="s5-fill-2" offset="62%" stop-color="rgb(172,172,173)"/><stop id="s5-fill-3" offset="100%" stop-color="rgb(168,168,168)"/></linearGradient><linearGradient id="s7-fill" x1="-5.470000" y1="-22.740000" x2="26.230000" y2="40.890000" spreadMethod="pad" gradientUnits="userSpaceOnUse"><stop id="s7-fill-0" offset="0%" stop-color="rgb(208,208,210)"/><stop id="s7-fill-1" offset="25%" stop-color="rgb(192,192,193)"/><stop id="s7-fill-2" offset="62%" stop-color="rgb(172,172,173)"/><stop id="s7-fill-3" offset="100%" stop-color="rgb(168,168,168)"/></linearGradient><linearGradient id="s9-fill" x1="121.860000" y1="76.250000" x2="317.650000" y2="387.770000" spreadMethod="pad" gradientUnits="userSpaceOnUse"><stop id="s9-fill-0" offset="5%" stop-color="rgb(233,233,235)"/><stop id="s9-fill-1" offset="100%" stop-color="rgb(195,195,196)"/></linearGradient><radialGradient id="s13-fill" cx="0" cy="0" r="88.620000" spreadMethod="pad" gradientUnits="userSpaceOnUse"><stop id="s13-fill-0" offset="68%" stop-color="rgb(247,247,247)"/><stop id="s13-fill-1" offset="84%" stop-color="rgb(227,227,227)"/><stop id="s13-fill-2" offset="100%" stop-color="rgb(237,237,237)"/></radialGradient><radialGradient id="s17-fill" cx="0" cy="0" r="61.450000" spreadMethod="pad" gradientUnits="userSpaceOnUse"><stop id="s17-fill-0" offset="83%" stop-color="rgb(208,208,210)"/><stop id="s17-fill-1" offset="100%" stop-color="rgb(192,192,193)"/></radialGradient><linearGradient id="s27-fill" x1="187.790000" y1="182.740000" x2="231.790000" y2="266.740000" spreadMethod="pad" gradientUnits="userSpaceOnUse"><stop id="s27-fill-0" offset="7%" stop-color="rgb(126,166,214)"/><stop id="s27-fill-1" offset="100%" stop-color="rgb(56,92,133)"/></linearGradient><radialGradient id="s45-fill" cx="200.630000" cy="195.160000" r="46.230000" spreadMethod="pad" gradientUnits="userSpaceOnUse"><stop id="s45-fill-0" offset="21%" stop-color="rgba(255,255,255,0.3)"/><stop id="s45-fill-1" offset="66%" stop-color="rgba(255,255,255,0.8)"/><stop id="s45-fill-2" offset="100%" stop-color="rgba(255,255,255,0.3)"/></radialGradient><linearGradient id="s51-fill" x1="10.500000" y1="7.160000" x2="55.020000" y2="7.160000" spreadMethod="pad" gradientUnits="userSpaceOnUse"><stop id="s51-fill-0" offset="0%" stop-color="rgb(208,208,210)"/><stop id="s51-fill-1" offset="14%" stop-color="rgb(192,192,193)"/><stop id="s51-fill-2" offset="34%" stop-color="rgb(172,172,173)"/><stop id="s51-fill-3" offset="69%" stop-color="rgb(172,172,173)"/><stop id="s51-fill-4" offset="100%" stop-color="rgb(208,208,210)"/></linearGradient><linearGradient id="s61-fill" x1="3.690000" y1="-1.500000" x2="6.280000" y2="5.550000" spreadMethod="pad" gradientUnits="userSpaceOnUse"><stop id="s61-fill-0" offset="0%" stop-color="rgb(143,235,227)"/><stop id="s61-fill-1" offset="100%" stop-color="rgb(113,235,225)"/></linearGradient><linearGradient id="s63-fill" x1="3.680000" y1="-1.500000" x2="6.280000" y2="5.550000" spreadMethod="pad" gradientUnits="userSpaceOnUse"><stop id="s63-fill-0" offset="0%" stop-color="rgb(143,235,227)"/><stop id="s63-fill-1" offset="100%" stop-color="rgb(113,235,225)"/></linearGradient><linearGradient id="s65-fill" x1="3.680000" y1="-1.500000" x2="6.280000" y2="5.550000" spreadMethod="pad" gradientUnits="userSpaceOnUse"><stop id="s65-fill-0" offset="0%" stop-color="rgb(143,235,227)"/><stop id="s65-fill-1" offset="100%" stop-color="rgb(113,235,225)"/></linearGradient><linearGradient id="s67-fill" x1="3.690000" y1="-1.500000" x2="6.290000" y2="5.550000" spreadMethod="pad" gradientUnits="userSpaceOnUse"><stop id="s67-fill-0" offset="0%" stop-color="rgb(143,235,227)"/><stop id="s67-fill-1" offset="100%" stop-color="rgb(113,235,225)"/></linearGradient><linearGradient id="s79-fill" x1="111.570000" y1="87.170000" x2="139.100000" y2="87.170000" spreadMethod="pad" gradientUnits="userSpaceOnUse"><stop id="s79-fill-0" offset="0%" stop-color="rgb(172,172,173)"/><stop id="s79-fill-1" offset="30%" stop-color="rgb(152,152,153)"/><stop id="s79-fill-2" offset="65%" stop-color="rgb(152,152,153)"/><stop id="s79-fill-3" offset="95%" stop-color="rgb(172,172,173)"/></linearGradient><linearGradient id="s85-fill" x1="197.390000" y1="66.230000" x2="204.460000" y2="81.230000" spreadMethod="pad" gradientUnits="userSpaceOnUse"><stop id="s85-fill-0" offset="45%" stop-color="rgb(185,185,187)"/><stop id="s85-fill-1" offset="90%" stop-color="rgb(205,205,207)"/></linearGradient></defs><g id="s3"><rect id="s5" width="25.720000" height="28.110000" rx="3.720000" ry="3.720000" transform="translate(106.950000,329.720000)" fill="url(#s5-fill)" stroke="none" stroke-width="1"/><rect id="s7" width="25.720000" height="28.110000" rx="3.720000" ry="3.720000" transform="translate(267.330000,329.720000)" fill="url(#s7-fill)" stroke="none" stroke-width="1"/><path id="s9" d="M85.170000,59.820000L314.830000,59.820000C316.149961,59.820000,317.220000,60.890039,317.220000,62.210000L317.220000,335.400000C317.192452,343.471439,310.641486,350.000047,302.570000,350L97.430000,350C89.358514,350.000047,82.807548,343.471439,82.780000,335.400000L82.780000,62.220000C82.777341,61.584402,83.027969,60.973924,83.476469,60.523547C83.924970,60.073170,84.534396,59.819994,85.170000,59.820000Z" fill="url(#s9-fill)" stroke="none" stroke-width="1"/><g id="s11"><circle id="s13" r="88.620000" transform="translate(200,195.020000)" fill="url(#s13-fill)" stroke="none" stroke-width="1"/><circle id="s15" r="71.310000" transform="translate(200,195.020000)" fill="none" stroke="rgb(206,206,208)" stroke-width="2" stroke-linecap="round" stroke-miterlimit="10"/><circle id="s17" r="61.450000" transform="translate(200,195.020000)" fill="url(#s17-fill)" stroke="none" stroke-width="1"/><circle id="s19" r="47.820000" transform="translate(200,195.020000)" fill="rgb(72,83,125)" stroke="none" stroke-width="1"/><line id="s21" x1="261.760000" y1="159.360000" x2="276.760000" y2="150.700000" fill="none" stroke="rgb(206,206,208)" stroke-width="2" stroke-linecap="round" stroke-miterlimit="10"/><line id="s23" x1="261.770000" y1="230.690000" x2="276.770000" y2="239.340000" fill="none" stroke="rgb(206,206,208)" stroke-width="2" stroke-linecap="round" stroke-miterlimit="10"/><g id="s25"><path id="s27" d="M247,203.770000C243.580000,200.700000,236.870000,201.160000,230.680000,208.960000C225.330000,215.720000,209.490000,221.050000,193.180000,204.820000C177.240000,188.960000,159.180000,189.820000,152.420000,199.940000C154.863604,223.583322,174.301951,241.842950,198.051750,242.804694C221.801548,243.766438,242.652667,227.138324,247,203.770000Z" fill="url(#s27-fill)" stroke="none" stroke-width="1"/><circle id="s29" r="5.780000" transform="translate(166.350000,204.810000)" fill="rgb(155,187,227)" stroke="none" stroke-width="1"/><circle id="s31" r="3.670000" transform="translate(179.760000,204.410000)" fill="rgb(155,187,227)" stroke="none" stroke-width="1"/><circle id="s33" r="6.410000" transform="translate(188.360000,216.180000)" fill="rgb(155,187,227)" stroke="none" stroke-width="1"/><circle id="s35" r="2.450000" transform="translate(173.640000,218.590000)" fill="rgb(155,187,227)" stroke="none" stroke-width="1"/><circle id="s37" r="2.990000" transform="translate(225.790000,226.990000)" fill="rgb(155,187,227)" stroke="none" stroke-width="1"/><circle id="s39" r="5.380000" transform="translate(208.550000,228.080000)" fill="rgb(155,187,227)" stroke="none" stroke-width="1"/><circle id="s41" r="3.800000" transform="translate(194.770000,231.880000)" fill="rgb(155,187,227)" stroke="none" stroke-width="1"/><circle id="s43" r="3.490000" transform="translate(239.440000,210.280000)" fill="rgb(155,187,227)" stroke="none" stroke-width="1"/></g><path id="s45" d="M200,195L243.540000,214.770000C237.777173,227.466574,226.757839,237.013985,213.370000,240.910000ZM200,195L186.630000,149.090000C173.242161,152.986015,162.222827,162.533426,156.460000,175.230000Z" fill="url(#s45-fill)" fill-opacity="0.2" stroke="none" stroke-width="1"/></g><rect id="s47" width="60.330000" height="39.500000" rx="4.620000" ry="4.620000" transform="translate(245.300000,300.160000)" fill="none" stroke="rgb(192,192,194)" stroke-width="2" stroke-linecap="round" stroke-miterlimit="10"/><path id="s49" d="M82.780000,108.660000L165.310000,108.660000C187.578635,99.750811,212.421365,99.750811,234.690000,108.660000L317.210000,108.660000" fill="none" stroke="rgb(192,192,194)" stroke-width="2" stroke-linecap="round" stroke-linejoin="round"/><rect id="s51" width="63.500000" height="14.320000" rx="0.820000" ry="0.820000" transform="translate(92.960000,85.690000)" fill="url(#s51-fill)" stroke="none" stroke-width="1"/><rect id="s53" width="10" height="10" rx="0.920000" ry="0.920000" transform="translate(295.630000,70.660000)" fill="rgb(206,206,208)" stroke="none" stroke-width="1"/><rect id="s55" width="10" height="14.380000" rx="0.920000" ry="0.920000" transform="translate(295.630000,84.660000)" fill="rgb(206,206,208)" stroke="none" stroke-width="1"/><g id="s57"><rect id="s59" width="55.660000" height="28.380000" rx="3.020000" ry="3.020000" transform="translate(232.970000,70.660000)" fill="rgb(64,75,120)" stroke="none" stroke-width="1"/><rect id="s61" width="10.480000" height="5.450000" rx="1.020000" ry="1.020000" transform="translate(236.480000,90.120000)" fill="url(#s61-fill)" stroke="none" stroke-width="1"/><rect id="s63" width="10.480000" height="5.450000" rx="1.020000" ry="1.020000" transform="translate(249.200000,90.120000)" fill="url(#s63-fill)" stroke="none" stroke-width="1"/><rect id="s65" width="10.480000" height="5.450000" rx="1.020000" ry="1.020000" transform="translate(261.910000,90.120000)" fill="url(#s65-fill)" stroke="none" stroke-width="1"/><rect id="s67" width="10.480000" height="5.450000" rx="1.020000" ry="1.020000" transform="translate(274.620000,90.120000)" fill="url(#s67-fill)" stroke="none" stroke-width="1"/><rect id="s69" width="5" height="2.060000" rx="0.430000" ry="0.430000" transform="translate(236.480000,73.960000)" fill="rgb(81,93,143)" stroke="none" stroke-width="1"/><rect id="s71" width="5" height="2.060000" rx="0.430000" ry="0.430000" transform="translate(242.550000,73.960000)" fill="rgb(81,93,143)" stroke="none" stroke-width="1"/><rect id="s73" width="5" height="2.060000" rx="0.430000" ry="0.430000" transform="translate(248.610000,73.960000)" fill="rgb(81,93,143)" stroke="none" stroke-width="1"/><rect id="s75" width="5" height="2.060000" rx="0.430000" ry="0.430000" transform="translate(254.680000,73.960000)" fill="rgb(81,93,143)" stroke="none" stroke-width="1"/></g><line id="s77" x1="164.630000" y1="64.660000" x2="164.630000" y2="108.660000" fill="none" stroke="rgb(192,192,194)" stroke-width="2" stroke-linecap="round" stroke-linejoin="round"/><path id="s79" d="M105.080000,85.690000C106.859865,87.592398,109.344836,88.677537,111.950000,88.690000L137.470000,88.690000C140.075164,88.677537,142.560135,87.592398,144.340000,85.690000Z" fill="url(#s79-fill)" stroke="none" stroke-width="1"/><g id="s81"><circle id="s83" r="12.290000" transform="translate(200,81.950000)" fill="rgb(206,206,208)" stroke="none" stroke-width="1"/><path id="s85" d="M200,69.660000C197.543549,69.655428,195.142647,70.390682,193.110000,71.770000C194.415147,74.376342,197.080137,76.022280,199.995000,76.022280C202.909863,76.022280,205.574853,74.376342,206.880000,71.770000C204.850172,70.392601,202.453043,69.657436,200,69.660000Z" fill="url(#s85-fill)" stroke="none" stroke-width="1"/><line id="s87" x1="200" y1="63.740000" x2="200" y2="67.240000" fill="none" stroke="rgb(192,192,194)" stroke-width="2" stroke-linecap="round" stroke-linejoin="round"/><line id="s89" x1="187.130000" y1="69.070000" x2="189.600000" y2="71.550000" fill="none" stroke="rgb(192,192,194)" stroke-width="2" stroke-linecap="round" stroke-linejoin="round"/><line id="s91" x1="181.790000" y1="81.950000" x2="185.290000" y2="81.950000" fill="none" stroke="rgb(192,192,194)" stroke-width="2" stroke-linecap="round" stroke-linejoin="round"/><line id="s93" x1="218.210000" y1="81.950000" x2="214.710000" y2="81.950000" fill="none" stroke="rgb(192,192,194)" stroke-width="2" stroke-linecap="round" stroke-linejoin="round"/><line id="s95" x1="212.870000" y1="69.070000" x2="210.400000" y2="71.550000" fill="none" stroke="rgb(192,192,194)" stroke-width="2" stroke-linecap="round" stroke-linejoin="round"/></g></g></svg>