<svg id="s1" xmlns="http://www.w3.org/2000/svg" xmlns:xlink="http://www.w3.org/1999/xlink" viewBox="0 0 400 400"><defs><linearGradient id="s5-fill" x1="151.100000" y1="81.860000" x2="245.010000" y2="318.120000" spreadMethod="pad" gradientUnits="userSpaceOnUse"><stop id="s5-fill-0" offset="0%" stop-color="rgb(88,91,97)"/><stop id="s5-fill-1" offset="85%" stop-color="rgb(72,75,78)"/><stop id="s5-fill-2" offset="100%" stop-color="rgb(76,79,84)"/></linearGradient><linearGradient id="s7-fill" x1="37.140000" y1="-30" x2="87.420000" y2="60.180000" spreadMethod="pad" gradientUnits="userSpaceOnUse"><stop id="s7-fill-0" offset="0%" stop-color="rgb(223,235,240)"/><stop id="s7-fill-1" offset="2%" stop-color="rgb(221,233,239)"/><stop id="s7-fill-2" offset="43%" stop-color="rgb(168,194,217)"/><stop id="s7-fill-3" offset="63%" stop-color="rgb(148,179,209)"/><stop id="s7-fill-4" offset="100%" stop-color="rgb(143,143,196)"/></linearGradient><linearGradient id="s9-fill" x1="0.680000" y1="-2.250000" x2="16.680000" y2="32.750000" spreadMethod="pad" gradientUnits="userSpaceOnUse"><stop id="s9-fill-0" offset="10%" stop-color="rgb(255,246,214)"/><stop id="s9-fill-1" offset="38%" stop-color="rgb(235,221,166)"/><stop id="s9-fill-2" offset="69%" stop-color="rgb(204,171,115)"/><stop id="s9-fill-3" offset="100%" stop-color="rgb(224,203,147)"/></linearGradient><linearGradient id="s11-fill" x1="0.680000" y1="-2.250000" x2="16.680000" y2="32.750000" spreadMethod="pad" gradientUnits="userSpaceOnUse"><stop id="s11-fill-0" offset="10%" stop-color="rgb(255,246,214)"/><stop id="s11-fill-1" offset="38%" stop-color="rgb(235,221,166)"/><stop id="s11-fill-2" offset="69%" stop-color="rgb(204,171,115)"/><stop id="s11-fill-3" offset="100%" stop-color="rgb(224,203,147)"/></linearGradient><linearGradient id="s13-fill" x1="0.690000" y1="-2.250000" x2="16.690000" y2="32.750000" spreadMethod="pad" gradientUnits="userSpaceOnUse"><stop id="s13-fill-0" offset="10%" stop-color="rgb(255,246,214)"/><stop id="s13-fill-1" offset="38%" stop-color="rgb(235,221,166)"/><stop id="s13-fill-2" offset="69%" stop-color="rgb(204,171,115)"/><stop id="s13-fill-3" offset="100%" stop-color="rgb(224,203,147)"/></linearGradient><linearGradient id="s15-fill" x1="0.680000" y1="-2.250000" x2="16.680000" y2="32.750000" spreadMethod="pad" gradientUnits="userSpaceOnUse"><stop id="s15-fill-0" offset="10%" stop-color="rgb(255,246,214)"/><stop id="s15-fill-1" offset="38%" stop-color="rgb(235,221,166)"/><stop id="s15-fill-2" offset="69%" stop-color="rgb(204,171,115)"/><stop id="s15-fill-3" offset="100%" stop-color="rgb(224,203,147)"/></linearGradient></defs><g id="s3"><path id="s5" d="M281,128.770000L281,110.200000C281,104.401010,276.298990,99.700000,270.500000,99.700000L145.500000,99.700000C139.701010,99.700000,135,104.401010,135,110.200000L135,128C134.999776,129.903546,134.252968,131.731073,132.920000,133.090000L124.360000,141.810000C122.635077,143.569729,121.669237,145.935856,121.670000,148.400000L121.670000,306.430000C121.670000,312.228990,126.371010,316.930000,132.170000,316.930000L270.530000,316.930000C276.328990,316.930000,281.030000,312.228990,281.030000,306.430000L281.030000,156.430000C281.030000,154.497003,279.462997,152.930000,277.530000,152.930000L275.200000,152.930000C273.267003,152.930000,271.700000,151.362997,271.700000,149.430000L271.700000,135.770000C271.700000,133.837003,273.267003,132.270000,275.200000,132.270000L277.530000,132.270000C279.451271,132.253531,281.000071,130.691341,281,128.770000Z" fill="url(#s5-fill)" stroke="none" stroke-width="1"/><rect id="s7" width="125" height="31" rx="1.750000" ry="1.750000" transform="translate(138.860000,262.600000)" fill="url(#s7-fill)" stroke="none" stroke-width="1"/><rect id="s9" width="15" height="25.330000" rx="2.130000" ry="2.130000" transform="translate(150.700000,116.270000)" fill="url(#s9-fill)" stroke="none" stroke-width="1"/><rect id="s11" width="15" height="25.330000" rx="2.130000" ry="2.130000" transform="translate(180.030000,116.270000)" fill="url(#s11-fill)" stroke="none" stroke-width="1"/><rect id="s13" width="15" height="25.330000" rx="2.130000" ry="2.130000" transform="translate(209.360000,116.270000)" fill="url(#s13-fill)" stroke="none" stroke-width="1"/><rect id="s15" width="15" height="25.330000" rx="2.130000" ry="2.130000" transform="translate(238.700000,116.270000)" fill="url(#s15-fill)" stroke="none" stroke-width="1"/></g></svg>