<svg id="s1" xmlns="http://www.w3.org/2000/svg" xmlns:xlink="http://www.w3.org/1999/xlink" viewBox="0 0 400 400"><defs><linearGradient id="s9-fill" x1="147.940000" y1="177.860000" x2="213.400000" y2="376.080000" spreadMethod="pad" gradientUnits="userSpaceOnUse"><stop id="s9-fill-0" offset="0%" stop-color="rgb(187,201,231)"/><stop id="s9-fill-1" offset="100%" stop-color="rgb(130,141,184)"/></linearGradient><linearGradient id="s11-fill" x1="142.010000" y1="169.200000" x2="209.680000" y2="352.870000" spreadMethod="pad" gradientUnits="userSpaceOnUse"><stop id="s11-fill-0" offset="1%" stop-color="rgb(232,238,250)"/><stop id="s11-fill-1" offset="100%" stop-color="rgb(172,184,222)"/></linearGradient><linearGradient id="s17-fill" x1="107.490000" y1="320.680000" x2="202.790000" y2="283" spreadMethod="pad" gradientUnits="userSpaceOnUse"><stop id="s17-fill-0" offset="0%" stop-color="rgb(128,136,172)"/><stop id="s17-fill-1" offset="100%" stop-color="rgb(78,90,138)"/></linearGradient><linearGradient id="s19-fill" x1="106.480000" y1="318.130000" x2="201.780000" y2="280.450000" spreadMethod="pad" gradientUnits="userSpaceOnUse"><stop id="s19-fill-0" offset="18%" stop-color="rgb(111,118,149)"/><stop id="s19-fill-1" offset="100%" stop-color="rgb(65,75,115)"/></linearGradient><linearGradient id="s21-fill" x1="206.190000" y1="-1.200000" x2="304.830000" y2="297.500000" spreadMethod="pad" gradientUnits="userSpaceOnUse"><stop id="s21-fill-0" offset="0%" stop-color="rgb(211,219,240)"/><stop id="s21-fill-1" offset="100%" stop-color="rgb(177,178,221)"/></linearGradient><linearGradient id="s23-fill" x1="193.730000" y1="-4.820000" x2="295.800000" y2="272.220000" spreadMethod="pad" gradientUnits="userSpaceOnUse"><stop id="s23-fill-0" offset="1%" stop-color="rgb(232,238,250)"/><stop id="s23-fill-1" offset="100%" stop-color="rgb(237,239,255)"/></linearGradient><linearGradient id="s27-fill" x1="282.050000" y1="217.660000" x2="182.680000" y2="11.170000" spreadMethod="pad" gradientUnits="userSpaceOnUse"><stop id="s27-fill-0" offset="29%" stop-color="rgba(245,255,255,0.1)"/><stop id="s27-fill-1" offset="81%" stop-color="rgba(245,255,255,0.5)"/></linearGradient></defs><g id="s3" style="isolation:isolate"><g id="s5"><g id="s7"><path id="s9" d="M220.110000,378.340000L28.160000,264C25.690000,262.530000,24.670000,260.870000,24.680000,258.690000C24.680000,257.970000,24.680000,255.860000,24.680000,254.340000C24.896584,252.934441,25.605387,251.651509,26.680000,250.720000L129.580000,191.430000C133.720000,188.860000,140.680000,188.930000,145.110000,191.570000L336.110000,302.910000C337.480000,303.730000,339.880000,304.610000,340.440000,305.630000C340.850000,306.370000,340.570000,310.190000,340.550000,310.950000C340.550000,312.540000,339.550000,314.100000,337.550000,315.300000L235.640000,378.480000C231.500000,381,224.540000,381,220.110000,378.340000Z" fill="url(#s9-fill)" stroke="none" stroke-width="1"/><path id="s11" d="M220.110000,372.760000L28.110000,258.460000C23.670000,255.820000,23.430000,251.600000,27.580000,249.030000L129.520000,185.880000C133.660000,183.310000,140.620000,183.380000,145.050000,186.020000L337.050000,300.320000C341.490000,302.960000,341.730000,307.180000,337.580000,309.750000L235.640000,372.900000C231.500000,375.460000,224.540000,375.400000,220.110000,372.760000Z" fill="url(#s11-fill)" stroke="none" stroke-width="1"/><path id="s13" d="M302.170000,314.180000L289,306.320000C288.540000,306.050000,288.520000,305.610000,288.950000,305.320000L298.580000,299.320000C299.079551,299.051543,299.680449,299.051543,300.180000,299.320000L313.390000,307.180000C313.850000,307.450000,313.870000,307.890000,313.440000,308.180000L303.810000,314.180000C303.299965,314.463020,302.680035,314.463020,302.170000,314.180000ZM281.530000,301.890000L268.330000,294C267.870000,293.730000,267.850000,293.290000,268.280000,293L277.910000,287C278.409551,286.731543,279.010449,286.731543,279.510000,287L292.710000,295C293.170000,295.270000,293.190000,295.710000,292.760000,296L283.130000,302C282.614902,302.231242,282.018348,302.189971,281.540000,301.890000ZM260.900000,289.600000L247.690000,281.740000C247.230000,281.470000,247.210000,281.030000,247.640000,280.740000L257.270000,274.740000C257.769551,274.471543,258.370449,274.471543,258.870000,274.740000L272.080000,282.600000C272.540000,282.870000,272.560000,283.310000,272.130000,283.600000L262.500000,289.600000C262.000449,289.868457,261.399551,289.868457,260.900000,289.600000ZM240.260000,277.310000L227.050000,269.450000C226.590000,269.180000,226.570000,268.740000,227,268.450000L236.630000,262.450000C237.129551,262.181543,237.730449,262.181543,238.230000,262.450000L251.440000,270.310000C251.900000,270.580000,251.920000,271.020000,251.490000,271.310000L241.860000,277.310000C241.360449,277.578457,240.759551,277.578457,240.260000,277.310000ZM219.620000,265L206.410000,257.140000C205.950000,256.870000,205.930000,256.430000,206.360000,256.140000L215.990000,250.140000C216.489551,249.871543,217.090449,249.871543,217.590000,250.140000L230.800000,258C231.260000,258.270000,231.280000,258.710000,230.850000,259L221.220000,265C220.720449,265.268457,220.119551,265.268457,219.620000,265ZM199,252.740000L185.790000,244.880000C185.330000,244.610000,185.310000,244.170000,185.740000,243.880000L195.370000,237.880000C195.869551,237.611543,196.470449,237.611543,196.970000,237.880000L210.180000,245.740000C210.640000,246.010000,210.660000,246.450000,210.230000,246.740000L200.600000,252.740000C200.100449,253.008457,199.499551,253.008457,199,252.740000ZM178.360000,240.450000L165.150000,232.590000C164.690000,232.320000,164.670000,231.880000,165.100000,231.590000L174.730000,225.590000C175.229551,225.321543,175.830449,225.321543,176.330000,225.590000L189.540000,233.450000C190,233.720000,190.020000,234.160000,189.590000,234.450000L179.960000,240.450000C179.457812,240.722054,178.852188,240.722054,178.350000,240.450000ZM157.720000,228.160000L144.510000,220.300000C144.050000,220.030000,144.030000,219.590000,144.460000,219.300000L154.090000,213.300000C154.589551,213.031543,155.190449,213.031543,155.690000,213.300000L168.900000,221.160000C169.360000,221.430000,169.380000,221.870000,168.950000,222.160000L159.320000,228.160000C158.817812,228.432054,158.212188,228.432054,157.710000,228.160000ZM137.080000,215.870000L123.870000,208C123.410000,207.730000,123.390000,207.290000,123.820000,207L133.450000,201C133.949551,200.731543,134.550449,200.731543,135.050000,201L148.260000,208.860000C148.720000,209.130000,148.740000,209.570000,148.310000,209.860000L138.680000,215.860000C138.182129,216.131585,137.581227,216.135341,137.080000,215.870000ZM307.080000,299.130000L293.870000,291.270000C293.410000,291,293.390000,290.560000,293.820000,290.270000L296.130000,288.840000C296.629551,288.571543,297.230449,288.571543,297.730000,288.840000L310.940000,296.700000C311.400000,296.970000,311.420000,297.410000,310.990000,297.700000L308.680000,299.130000C308.159659,299.428056,307.520341,299.428056,307,299.130000ZM286.400000,286.840000L273.190000,279C272.730000,278.730000,272.710000,278.290000,273.140000,278L275.450000,276.570000C275.949551,276.301543,276.550449,276.301543,277.050000,276.570000L290.260000,284.430000C290.720000,284.700000,290.740000,285.140000,290.310000,285.430000L288,286.860000C287.497099,287.122237,286.896189,287.114725,286.400000,286.840000ZM265.760000,274.550000L252.550000,266.690000C252.090000,266.420000,252.070000,265.980000,252.500000,265.690000L254.810000,264.260000C255.309551,263.991543,255.910449,263.991543,256.410000,264.260000L269.620000,272.120000C270.080000,272.390000,270.100000,272.830000,269.670000,273.120000L267.360000,274.550000C266.860449,274.818457,266.259551,274.818457,265.760000,274.550000ZM245.120000,262.260000L231.910000,254.400000C231.450000,254.130000,231.430000,253.690000,231.860000,253.400000L234.170000,251.970000C234.669551,251.701543,235.270449,251.701543,235.770000,251.970000L249,259.880000C249.460000,260.150000,249.480000,260.590000,249.050000,260.880000L246.740000,262.310000C246.229396,262.566609,245.623697,262.547798,245.130000,262.260000ZM224.490000,250L211.280000,242.140000C210.820000,241.870000,210.800000,241.430000,211.230000,241.140000L213.540000,239.710000C214.039551,239.441543,214.640449,239.441543,215.140000,239.710000L228.350000,247.570000C228.810000,247.840000,228.830000,248.280000,228.400000,248.570000L226.090000,250C225.590449,250.268457,224.989551,250.268457,224.490000,250ZM203.850000,237.710000L190.640000,229.850000C190.180000,229.580000,190.160000,229.140000,190.590000,228.850000L192.900000,227.420000C193.399551,227.151543,194.000449,227.151543,194.500000,227.420000L207.710000,235.280000C208.170000,235.550000,208.190000,235.990000,207.760000,236.280000L205.450000,237.710000C204.947099,237.972237,204.346189,237.964725,203.850000,237.690000ZM183.220000,225.400000L170,217.530000C169.540000,217.260000,169.520000,216.820000,169.950000,216.530000L172.260000,215.100000C172.759551,214.831543,173.360449,214.831543,173.860000,215.100000L187.070000,223C187.530000,223.270000,187.550000,223.710000,187.120000,224L184.810000,225.430000C184.308112,225.685567,183.711890,225.674318,183.220000,225.400000ZM162.580000,213.110000L149.370000,205.250000C148.910000,204.980000,148.890000,204.540000,149.320000,204.250000L151.630000,202.820000C152.129551,202.551543,152.730449,202.551543,153.230000,202.820000L166.440000,210.680000C166.900000,210.950000,166.920000,211.390000,166.490000,211.680000L164.180000,213.110000C163.680449,213.378457,163.079551,213.378457,162.580000,213.110000ZM145.190000,201.820000L147.500000,200.390000C147.930000,200.130000,147.900000,199.690000,147.450000,199.390000L142.450000,196.440000C141.950449,196.171543,141.349551,196.171543,140.850000,196.440000L138.540000,197.870000C138.110000,198.130000,138.140000,198.570000,138.590000,198.870000L143.590000,201.820000C144.089551,202.088457,144.690449,202.088457,145.190000,201.820000ZM318,304.720000L320.310000,303.290000C320.740000,303.030000,320.710000,302.590000,320.260000,302.290000L315.260000,299.340000C314.760449,299.071543,314.159551,299.071543,313.660000,299.340000L311.350000,300.770000C310.920000,301.030000,310.950000,301.470000,311.400000,301.770000L316.400000,304.720000C316.899551,304.988457,317.500449,304.988457,318,304.720000ZM258.190000,307.340000L245,299.470000C244.540000,299.200000,244.520000,298.760000,244.950000,298.470000L254.580000,292.470000C255.079551,292.201543,255.680449,292.201543,256.180000,292.470000L269.390000,300.330000C269.850000,300.600000,269.870000,301.040000,269.440000,301.330000L259.810000,307.330000C259.302569,307.609336,258.687431,307.609336,258.180000,307.330000ZM237.540000,295L224.330000,287.140000C223.870000,286.870000,223.850000,286.430000,224.280000,286.140000L233.910000,280.140000C234.409551,279.871543,235.010449,279.871543,235.510000,280.140000L248.720000,288C249.180000,288.270000,249.200000,288.710000,248.770000,289L239.140000,295C238.640449,295.268457,238.039551,295.268457,237.540000,295ZM216.900000,282.760000L203.690000,274.900000C203.230000,274.630000,203.210000,274.190000,203.640000,273.900000L213.270000,267.900000C213.769551,267.631543,214.370449,267.631543,214.870000,267.900000L228.080000,275.760000C228.540000,276.030000,228.560000,276.470000,228.130000,276.760000L218.500000,282.760000C218.000449,283.028457,217.399551,283.028457,216.900000,282.760000ZM196.260000,270.470000L183.050000,262.610000C182.590000,262.340000,182.570000,261.900000,183,261.610000L192.630000,255.610000C193.129551,255.341543,193.730449,255.341543,194.230000,255.610000L207.440000,263.470000C207.900000,263.740000,207.920000,264.180000,207.490000,264.470000L197.860000,270.470000C197.363097,270.734889,196.766903,270.734889,196.270000,270.470000ZM175.620000,258.180000L162.410000,250.320000C161.950000,250.050000,161.930000,249.610000,162.360000,249.320000L171.990000,243.320000C172.489551,243.051543,173.090449,243.051543,173.590000,243.320000L186.800000,251.180000C187.260000,251.450000,187.280000,251.890000,186.850000,252.180000L177.220000,258.180000C176.723097,258.444889,176.126903,258.444889,175.630000,258.180000ZM155,245.890000L141.790000,238C141.330000,237.730000,141.310000,237.290000,141.740000,237L151.370000,231C151.869551,230.731543,152.470449,230.731543,152.970000,231L166.170000,239C166.630000,239.270000,166.650000,239.710000,166.220000,240L156.590000,246C156.074902,246.231242,155.478348,246.189971,155,245.890000ZM135.130000,233.120000L144.760000,227.120000C145.190000,226.860000,145.160000,226.420000,144.710000,226.120000L119.120000,211C118.620449,210.731543,118.019551,210.731543,117.520000,211L107.890000,217C107.460000,217.260000,107.490000,217.700000,107.940000,218L133.530000,233.240000C134.047875,233.474845,134.649136,233.433509,135.130000,233.130000ZM109.600000,256.620000L119.230000,250.620000C119.660000,250.360000,119.630000,249.920000,119.180000,249.620000L106.390000,242C105.890449,241.731543,105.289551,241.731543,104.790000,242L95.160000,248C94.730000,248.260000,94.760000,248.700000,95.210000,249L108,256.620000C108.497871,256.891585,109.098773,256.895341,109.600000,256.630000ZM127.130000,268L114.340000,260.380000C113.880000,260.110000,113.860000,259.670000,114.290000,259.380000L123.920000,253.380000C124.419551,253.111543,125.020449,253.111543,125.520000,253.380000L138.310000,261C138.770000,261.270000,138.790000,261.710000,138.360000,262L128.730000,268C128.230449,268.268457,127.629551,268.268457,127.130000,268ZM256,343.800000L265.630000,337.800000C266.060000,337.540000,266.030000,337.100000,265.580000,336.800000L247.200000,325.920000C246.700449,325.651543,246.099551,325.651543,245.600000,325.920000L235.970000,331.920000C235.540000,332.180000,235.570000,332.620000,236.020000,332.920000L254.390000,343.860000C254.902281,344.113556,255.508013,344.090982,256,343.800000ZM230.270000,328.480000L239.900000,322.480000C240.330000,322.220000,240.300000,321.780000,239.850000,321.480000L223.130000,311.480000C222.630449,311.211543,222.029551,311.211543,221.530000,311.480000L211.900000,317.480000C211.470000,317.740000,211.500000,318.180000,211.950000,318.480000L228.670000,328.480000C229.166903,328.744889,229.763097,328.744889,230.260000,328.480000ZM89.650000,244.750000L99.280000,238.750000C99.710000,238.490000,99.680000,238.050000,99.230000,237.750000L87.230000,230.620000C86.730449,230.351543,86.129551,230.351543,85.630000,230.620000L76,236.620000C75.570000,236.880000,75.600000,237.320000,76.050000,237.620000L88.050000,244.750000C88.549551,245.018457,89.150449,245.018457,89.650000,244.750000ZM287.840000,324.060000L297.470000,318.060000C297.900000,317.800000,297.870000,317.360000,297.420000,317.060000L276.420000,304.570000C275.920449,304.301543,275.319551,304.301543,274.820000,304.570000L265.190000,310.570000C264.760000,310.830000,264.790000,311.270000,265.240000,311.570000L286.240000,324.060000C286.739551,324.328457,287.340449,324.328457,287.840000,324.060000ZM270.320000,333.910000L257.110000,326.050000C256.650000,325.780000,256.630000,325.340000,257.060000,325.050000L266.690000,319.050000C267.189551,318.781543,267.790449,318.781543,268.290000,319.050000L281.490000,327C281.950000,327.270000,281.970000,327.710000,281.540000,328L271.910000,334C271.398197,334.237250,270.801762,334.203489,270.320000,333.910000ZM249.680000,321.620000L236.470000,313.760000C236.010000,313.490000,235.990000,313.050000,236.420000,312.760000L246.050000,306.760000C246.549551,306.491543,247.150449,306.491543,247.650000,306.760000L260.860000,314.620000C261.320000,314.890000,261.340000,315.330000,260.910000,315.620000L251.280000,321.620000C250.782129,321.891585,250.181227,321.895341,249.680000,321.630000ZM229,309.340000L215.790000,301.480000C215.330000,301.210000,215.310000,300.770000,215.740000,300.480000L225.370000,294.480000C225.869551,294.211543,226.470449,294.211543,226.970000,294.480000L240.180000,302.340000C240.640000,302.610000,240.660000,303.050000,240.230000,303.340000L230.600000,309.340000C230.100449,309.608457,229.499551,309.608457,229,309.340000ZM208.410000,297L195.200000,289.140000C194.740000,288.870000,194.720000,288.430000,195.150000,288.140000L204.780000,282.140000C205.279551,281.871543,205.880449,281.871543,206.380000,282.140000L219.590000,290C220.050000,290.270000,220.070000,290.710000,219.640000,291L210.010000,297C209.510449,297.268457,208.909551,297.268457,208.410000,297ZM187.770000,284.710000L174.560000,276.850000C174.100000,276.580000,174.080000,276.140000,174.510000,275.850000L184.140000,269.850000C184.639551,269.581543,185.240449,269.581543,185.740000,269.850000L198.950000,277.710000C199.410000,277.980000,199.430000,278.420000,199,278.710000L189.370000,284.710000C188.878881,284.994216,188.277907,285.012996,187.770000,284.760000ZM167.130000,272.420000L153.920000,264.560000C153.460000,264.290000,153.440000,263.850000,153.870000,263.560000L163.500000,257.560000C163.999551,257.291543,164.600449,257.291543,165.100000,257.560000L178.310000,265.420000C178.770000,265.690000,178.790000,266.130000,178.360000,266.420000L168.730000,272.420000C168.238881,272.704216,167.637907,272.722996,167.130000,272.470000ZM146.500000,260.180000L133.290000,252.320000C132.830000,252.050000,132.810000,251.610000,133.240000,251.320000L142.870000,245.320000C143.369551,245.051543,143.970449,245.051543,144.470000,245.320000L157.680000,253.180000C158.140000,253.450000,158.160000,253.890000,157.730000,254.180000L148.100000,260.180000C147.600449,260.448457,146.999551,260.448457,146.500000,260.180000ZM125.800000,246.930000L135.430000,240.930000C135.860000,240.670000,135.830000,240.230000,135.380000,239.930000L103.190000,220.760000C102.690449,220.491543,102.089551,220.491543,101.590000,220.760000L91.960000,226.760000C91.530000,227.020000,91.560000,227.460000,92.010000,227.760000L124.200000,246.930000C124.699551,247.198457,125.300449,247.198457,125.800000,246.930000ZM205.630000,313.820000L215.260000,307.820000C215.690000,307.560000,215.660000,307.120000,215.210000,306.820000L144.630000,264.820000C144.130449,264.551543,143.529551,264.551543,143.030000,264.820000L133.400000,270.820000C132.970000,271.080000,133,271.520000,133.450000,271.820000L204.030000,313.820000C204.531227,314.085341,205.132129,314.081585,205.630000,313.810000Z" fill="rgb(63,71,110)" stroke="none" stroke-width="1"/><path id="s15" d="M195.140000,288.220000L195.250000,288.150000L208.410000,296C208.909551,296.268457,209.510449,296.268457,210.010000,296L219.540000,290.100000L219.590000,290.100000C220.050000,290.370000,220.070000,290.810000,219.640000,291.100000L210.010000,297.100000C209.510449,297.368457,208.909551,297.368457,208.410000,297.100000L195.200000,289.240000C194.740000,288.910000,194.720000,288.480000,195.140000,288.220000ZM215.830000,301.480000L229,309.340000C229.499551,309.608457,230.100449,309.608457,230.600000,309.340000L240.230000,303.340000C240.660000,303.080000,240.630000,302.640000,240.180000,302.340000L240.130000,302.340000L230.600000,308.240000C230.100449,308.508457,229.499551,308.508457,229,308.240000L215.840000,300.410000L215.730000,300.480000C215.350000,300.770000,215.380000,301.200000,215.830000,301.470000ZM153.920000,264.610000L167.130000,272.470000C167.629551,272.738457,168.230449,272.738457,168.730000,272.470000L178.360000,266.470000C178.790000,266.210000,178.760000,265.770000,178.310000,265.470000L178.260000,265.470000L168.730000,271.370000C168.230449,271.638457,167.629551,271.638457,167.130000,271.370000L154,263.570000L153.890000,263.640000C153.440000,263.900000,153.470000,264.340000,153.920000,264.610000ZM248.710000,288.130000L248.660000,288.130000L239.130000,294.030000C238.630449,294.298457,238.029551,294.298457,237.530000,294.030000L224.370000,286.200000L224.260000,286.270000C223.830000,286.530000,223.860000,286.970000,224.310000,287.270000L237.540000,295C238.039551,295.268457,238.640449,295.268457,239.140000,295L248.770000,289C249.200000,288.830000,249.170000,288.390000,248.720000,288.120000ZM162.420000,250.320000L175.630000,258.180000C176.129551,258.448457,176.730449,258.448457,177.230000,258.180000L186.860000,252.180000C187.290000,251.920000,187.260000,251.480000,186.810000,251.180000L186.760000,251.180000L177.230000,257.080000C176.730449,257.348457,176.129551,257.348457,175.630000,257.080000L162.470000,249.250000L162.360000,249.320000C161.940000,249.610000,162,250,162.420000,250.320000ZM174.560000,276.900000L187.770000,284.760000C188.269551,285.028457,188.870449,285.028457,189.370000,284.760000L199,278.760000C199.430000,278.500000,199.400000,278.060000,198.950000,277.760000L198.900000,277.760000L189.370000,283.660000C188.870449,283.928457,188.269551,283.928457,187.770000,283.660000L174.610000,275.830000L174.500000,275.900000C174.080000,276.190000,174.110000,276.620000,174.560000,276.900000ZM260.850000,314.710000L260.800000,314.710000L251.270000,320.610000C250.770449,320.878457,250.169551,320.878457,249.670000,320.610000L236.510000,312.780000L236.400000,312.850000C235.970000,313.110000,236,313.550000,236.450000,313.850000L249.660000,321.710000C250.159551,321.978457,250.760449,321.978457,251.260000,321.710000L260.890000,315.710000C261.330000,315.410000,261.310000,315,260.850000,314.700000ZM269.350000,300.420000L269.300000,300.420000L259.770000,306.320000C259.270449,306.588457,258.669551,306.588457,258.170000,306.320000L245,298.440000L244.890000,298.510000C244.460000,298.770000,244.490000,299.210000,244.940000,299.510000L258.150000,307.370000C258.649551,307.638457,259.250449,307.638457,259.750000,307.370000L269.380000,301.370000C269.830000,301.120000,269.810000,300.680000,269.350000,300.410000ZM141.790000,238L155,245.890000C155.499551,246.158457,156.100449,246.158457,156.600000,245.890000L166.230000,239.890000C166.660000,239.630000,166.630000,239.190000,166.180000,238.890000L166.130000,238.890000L156.600000,244.790000C156.100449,245.058457,155.499551,245.058457,155,244.790000L141.840000,237L141.730000,237.070000C141.310000,237.320000,141.330000,237.760000,141.790000,238ZM133.290000,252.290000L146.500000,260.150000C146.999551,260.418457,147.600449,260.418457,148.100000,260.150000L157.730000,254.150000C158.160000,253.890000,158.130000,253.450000,157.680000,253.150000L157.630000,253.150000L148.100000,259.050000C147.600449,259.318457,146.999551,259.318457,146.500000,259.050000L133.340000,251.220000L133.230000,251.290000C132.810000,251.610000,132.830000,252,133.290000,252.320000ZM219.620000,264L206.460000,256.170000L206.350000,256.240000C205.920000,256.500000,205.950000,256.940000,206.400000,257.240000L219.620000,265C220.119551,265.268457,220.720449,265.268457,221.220000,265L230.850000,259C231.280000,258.740000,231.250000,258.300000,230.800000,258L230.750000,258L221.220000,263.900000C220.737415,264.200265,220.136217,264.237840,219.620000,264ZM144.510000,220.300000L157.720000,228.160000C158.219551,228.428457,158.820449,228.428457,159.320000,228.160000L168.950000,222.160000C169.380000,221.900000,169.350000,221.460000,168.900000,221.160000L168.850000,221.160000L159.320000,227.060000C158.820449,227.328457,158.219551,227.328457,157.720000,227.060000L144.560000,219.230000L144.450000,219.300000C144,219.590000,144.050000,220,144.510000,220.300000ZM228.080000,275.840000L228.030000,275.840000L218.500000,281.740000C218.000449,282.008457,217.399551,282.008457,216.900000,281.740000L203.740000,273.910000L203.630000,273.980000C203.200000,274.240000,203.230000,274.680000,203.680000,274.980000L216.890000,282.840000C217.389551,283.108457,217.990449,283.108457,218.490000,282.840000L228.120000,276.840000C228.560000,276.540000,228.540000,276.110000,228.080000,275.830000ZM293.830000,291.270000L307,299.130000C307.499551,299.398457,308.100449,299.398457,308.600000,299.130000L310.910000,297.700000C311.340000,297.440000,311.310000,297,310.860000,296.700000L310.810000,296.700000L308.600000,298.070000C308.100449,298.338457,307.499551,298.338457,307,298.070000L293.840000,290.240000L293.730000,290.310000C293.350000,290.560000,293.370000,291,293.830000,291.270000ZM199,251.670000L185.840000,243.840000L185.730000,243.910000C185.300000,244.170000,185.330000,244.610000,185.780000,244.910000L199,252.740000C199.499551,253.008457,200.100449,253.008457,200.600000,252.740000L210.230000,246.740000C210.660000,246.480000,210.630000,246.040000,210.180000,245.740000L210.130000,245.740000L200.600000,251.640000C200.105497,251.917877,199.504572,251.929144,199,251.670000ZM178.360000,239.380000L165.200000,231.550000L165.090000,231.620000C164.660000,231.880000,164.690000,232.320000,165.140000,232.620000L178.350000,240.480000C178.849551,240.748457,179.450449,240.748457,179.950000,240.480000L189.580000,234.480000C190.010000,234.220000,189.980000,233.780000,189.530000,233.480000L189.480000,233.480000L179.950000,239.380000C179.450449,239.648457,178.849551,239.648457,178.350000,239.380000ZM260.910000,288.530000L247.750000,280.700000L247.640000,280.770000C247.210000,281.030000,247.240000,281.470000,247.690000,281.770000L260.900000,289.630000C261.399551,289.898457,262.000449,289.898457,262.500000,289.630000L272.130000,283.630000C272.560000,283.370000,272.530000,282.930000,272.080000,282.630000L272.030000,282.630000L262.500000,288.530000C262.002129,288.801585,261.401227,288.805341,260.900000,288.540000ZM292.710000,295L292.660000,295L283.130000,300.900000C282.630449,301.168457,282.029551,301.168457,281.530000,300.900000L268.380000,293L268.270000,293.070000C267.840000,293.330000,267.870000,293.770000,268.320000,294.070000L281.530000,301.930000C282.029551,302.198457,282.630449,302.198457,283.130000,301.930000L292.760000,295.930000C293.190000,295.670000,293.170000,295.240000,292.710000,295ZM183.060000,262.600000L196.270000,270.460000C196.769551,270.728457,197.370449,270.728457,197.870000,270.460000L207.500000,264.460000C207.930000,264.200000,207.900000,263.760000,207.450000,263.460000L207.400000,263.460000L197.870000,269.360000C197.370449,269.628457,196.769551,269.628457,196.270000,269.360000L183.110000,261.530000L183,261.600000C182.580000,261.900000,182.600000,262.330000,183.060000,262.600000ZM240.260000,276.240000L227.100000,268.410000L226.990000,268.480000C226.560000,268.740000,226.590000,269.180000,227.040000,269.480000L240.250000,277.340000C240.749551,277.608457,241.350449,277.608457,241.850000,277.340000L251.480000,271.340000C251.910000,271.080000,251.880000,270.640000,251.430000,270.340000L251.380000,270.340000L241.850000,276.240000C241.354765,276.508020,240.758567,276.511770,240.260000,276.250000ZM239.830000,321.530000L239.780000,321.530000L230.250000,327.430000C229.750449,327.698457,229.149551,327.698457,228.650000,327.430000L212,317.470000L211.890000,317.540000C211.460000,317.800000,211.490000,318.240000,211.940000,318.540000L228.660000,328.540000C229.159551,328.808457,229.760449,328.808457,230.260000,328.540000L239.890000,322.540000C240.320000,322.240000,240.290000,321.810000,239.840000,321.540000ZM215.200000,306.870000L215.150000,306.870000L205.620000,312.770000C205.120449,313.038457,204.519551,313.038457,204.020000,312.770000L133.490000,270.770000L133.380000,270.840000C132.950000,271.100000,132.980000,271.540000,133.430000,271.840000L204.010000,313.840000C204.509551,314.108457,205.110449,314.108457,205.610000,313.840000L215.240000,307.840000C215.690000,307.580000,215.670000,307.150000,215.210000,306.880000ZM138.290000,261.070000L138.240000,261.070000L128.710000,266.970000C128.210449,267.238457,127.609551,267.238457,127.110000,266.970000L114.370000,259.380000L114.260000,259.450000C113.830000,259.710000,113.860000,260.150000,114.310000,260.450000L127.130000,268C127.629551,268.268457,128.230449,268.268457,128.730000,268L138.360000,262C138.780000,261.790000,138.760000,261.350000,138.300000,261.080000ZM119.170000,249.680000L119.120000,249.680000L109.590000,255.580000C109.090449,255.848457,108.489551,255.848457,107.990000,255.580000L95.260000,248L95.150000,248.070000C94.720000,248.330000,94.750000,248.770000,95.200000,249.070000L108,256.620000C108.499551,256.888457,109.100449,256.888457,109.600000,256.620000L119.230000,250.620000C119.660000,250.400000,119.640000,250,119.180000,249.690000ZM265.550000,336.850000L265.500000,336.850000L255.970000,342.750000C255.470449,343.018457,254.869551,343.018457,254.370000,342.750000L236.060000,331.840000L235.950000,331.910000C235.520000,332.170000,235.550000,332.610000,236,332.910000L254.370000,343.850000C254.869551,344.118457,255.470449,344.118457,255.970000,343.850000L265.600000,337.850000C266,337.560000,266,337.130000,265.560000,336.860000ZM99.220000,237.850000L99.170000,237.850000L89.640000,243.750000C89.140449,244.018457,88.539551,244.018457,88.040000,243.750000L76.120000,236.650000L76.010000,236.720000C75.580000,236.980000,75.610000,237.420000,76.060000,237.720000L88.060000,244.850000C88.559551,245.118457,89.160449,245.118457,89.660000,244.850000L99.290000,238.850000C99.710000,238.520000,99.690000,238.090000,99.230000,237.810000ZM313.340000,307.290000L313.290000,307.290000L303.760000,313.190000C303.260449,313.458457,302.659551,313.458457,302.160000,313.190000L289,305.280000L288.890000,305.350000C288.460000,305.610000,288.490000,306.050000,288.940000,306.350000L302.150000,314.210000C302.649551,314.478457,303.250449,314.478457,303.750000,314.210000L313.380000,308.210000C313.830000,308,313.800000,307.530000,313.350000,307.260000ZM281.490000,327L281.440000,327L271.910000,332.900000C271.410449,333.168457,270.809551,333.168457,270.310000,332.900000L257.160000,325L257.050000,325.070000C256.620000,325.330000,256.650000,325.770000,257.100000,326.070000L270.310000,333.930000C270.809551,334.198457,271.410449,334.198457,271.910000,333.930000L281.540000,327.930000C282,327.700000,281.950000,327.260000,281.490000,327ZM92,227.740000L124.190000,246.910000C124.689551,247.178457,125.290449,247.178457,125.790000,246.910000L135.420000,240.910000C135.850000,240.650000,135.820000,240.210000,135.370000,239.910000L135.320000,239.910000L125.790000,245.810000C125.290449,246.078457,124.689551,246.078457,124.190000,245.810000L92.070000,226.710000L91.960000,226.780000C91.530000,227,91.560000,227.470000,92,227.740000ZM273.190000,279L286.400000,286.860000C286.899551,287.128457,287.500449,287.128457,288,286.860000L290.310000,285.430000C290.740000,285.170000,290.710000,284.730000,290.260000,284.430000L290.210000,284.430000L288,285.790000C287.500449,286.058457,286.899551,286.058457,286.400000,285.790000L273.240000,277.960000L273.130000,278.030000C272.710000,278.270000,272.740000,278.710000,273.190000,279ZM297.420000,317.150000L297.370000,317.150000L287.840000,323.050000C287.340449,323.318457,286.739551,323.318457,286.240000,323.050000L265.310000,310.590000L265.200000,310.660000C264.770000,310.920000,264.800000,311.360000,265.250000,311.660000L286.250000,324.150000C286.749551,324.418457,287.350449,324.418457,287.850000,324.150000L297.480000,318.150000C297.900000,317.830000,297.880000,317.400000,297.420000,317.120000ZM320.250000,302.340000L320.200000,302.340000L318,303.650000C317.500449,303.918457,316.899551,303.918457,316.400000,303.650000L311.500000,300.730000L311.390000,300.800000C310.960000,301.060000,310.990000,301.500000,311.440000,301.800000L316.440000,304.750000C316.939551,305.018457,317.540449,305.018457,318.040000,304.750000L320.350000,303.320000C320.730000,303,320.700000,302.590000,320.250000,302.310000ZM231.920000,254.400000L245.130000,262.260000C245.629551,262.528457,246.230449,262.528457,246.730000,262.260000L249.040000,260.830000C249.470000,260.570000,249.440000,260.130000,248.990000,259.830000L248.940000,259.830000L246.730000,261.200000C246.230449,261.468457,245.629551,261.468457,245.130000,261.200000L232,253.370000L231.890000,253.440000C231.440000,253.690000,231.460000,254.130000,231.920000,254.400000ZM211.280000,242.110000L224.490000,250C224.989551,250.268457,225.590449,250.268457,226.090000,250L228.400000,248.570000C228.830000,248.310000,228.800000,247.870000,228.350000,247.570000L228.300000,247.570000L226.090000,248.940000C225.590449,249.208457,224.989551,249.208457,224.490000,248.940000L211.330000,241.110000L211.220000,241.180000C210.800000,241.410000,210.830000,241.840000,211.280000,242.110000ZM190.640000,229.820000L203.850000,237.680000C204.349551,237.948457,204.950449,237.948457,205.450000,237.680000L207.760000,236.250000C208.190000,235.990000,208.160000,235.550000,207.710000,235.250000L207.660000,235.250000L205.450000,236.620000C204.950449,236.888457,204.349551,236.888457,203.850000,236.620000L190.690000,228.790000L190.580000,228.860000C190.170000,229.120000,190.190000,229.550000,190.650000,229.820000ZM252.550000,266.690000L265.760000,274.550000C266.259551,274.818457,266.860449,274.818457,267.360000,274.550000L269.670000,273.120000C270.100000,272.860000,270.070000,272.420000,269.620000,272.120000L269.570000,272.120000L267.360000,273.490000C266.860449,273.758457,266.259551,273.758457,265.760000,273.490000L252.600000,265.660000L252.490000,265.730000C252.080000,266,252.100000,266.420000,252.560000,266.690000ZM149.370000,205.250000L162.580000,213.110000C163.079551,213.378457,163.680449,213.378457,164.180000,213.110000L166.490000,211.680000C166.920000,211.420000,166.890000,210.980000,166.440000,210.680000L166.390000,210.680000L164.180000,212.050000C163.680449,212.318457,163.079551,212.318457,162.580000,212.050000L149.420000,204.220000L149.310000,204.290000C148.890000,204.540000,148.920000,205,149.370000,205.250000ZM123.870000,208L137.080000,215.860000C137.579551,216.128457,138.180449,216.128457,138.680000,215.860000L148.310000,209.860000C148.740000,209.600000,148.710000,209.160000,148.260000,208.860000L148.210000,208.860000L138.680000,214.760000C138.180449,215.028457,137.579551,215.028457,137.080000,214.760000L123.920000,207L123.810000,207.070000C123.390000,207.300000,123.410000,207.740000,123.870000,208ZM138.640000,198.850000L143.640000,201.800000C144.139551,202.068457,144.740449,202.068457,145.240000,201.800000L147.550000,200.370000C147.980000,200.110000,147.950000,199.670000,147.500000,199.370000L147.450000,199.370000L145.240000,200.740000C144.740449,201.008457,144.139551,201.008457,143.640000,200.740000L138.740000,197.820000L138.630000,197.890000C138.160000,198.150000,138.190000,198.580000,138.640000,198.860000ZM107.940000,217.850000L133.530000,233.090000C134.029551,233.358457,134.630449,233.358457,135.130000,233.090000L144.760000,227.090000C145.190000,226.830000,145.160000,226.390000,144.710000,226.090000L144.660000,226.090000L135.130000,231.990000C134.630449,232.258457,134.029551,232.258457,133.530000,231.990000L108,216.840000L107.890000,216.910000C107.460000,217.170000,107.490000,217.600000,107.940000,217.870000ZM170.010000,217.510000L183.220000,225.370000C183.719551,225.638457,184.320449,225.638457,184.820000,225.370000L187.130000,223.940000C187.560000,223.680000,187.530000,223.240000,187.080000,222.940000L187.030000,222.940000L184.820000,224.310000C184.320449,224.578457,183.719551,224.578457,183.220000,224.310000L170.060000,216.480000L169.950000,216.550000C169.530000,216.830000,169.550000,217.260000,170,217.530000Z" fill="rgb(43,50,82)" stroke="none" stroke-width="1"/><path id="s17" d="M151.440000,323.260000L117.520000,303.090000C117.050000,302.810000,117.030000,302.370000,117.460000,302.090000L144.150000,285.560000C144.658841,285.286205,145.271159,285.286205,145.780000,285.560000L179.700000,305.730000C180.170000,306.010000,180.190000,306.450000,179.760000,306.730000L153.070000,323.260000C152.561159,323.533795,151.948841,323.533795,151.440000,323.260000Z" fill="url(#s17-fill)" stroke="none" stroke-width="1"/><path id="s19" d="M117.520000,303.090000L117.890000,303.310000L144.150000,287C144.658841,286.726205,145.271159,286.726205,145.780000,287L179.330000,307L179.760000,306.730000C180.190000,306.460000,180.170000,306.020000,179.700000,305.730000L145.780000,285.560000C145.271159,285.286205,144.658841,285.286205,144.150000,285.560000L117.470000,302.100000C117,302.370000,117.060000,302.810000,117.520000,303.090000Z" fill="url(#s19-fill)" stroke="none" stroke-width="1"/><path id="s21" d="M338.170000,298.320000L149.140000,185C144.770000,182.380000,142.140000,175.520000,143.220000,169.680000L170.220000,25.910000C170.740000,23.140000,167.740000,23.340000,169.400000,22.240000C171.240000,21.010000,177.820000,18.700000,180.120000,20.080000L369.120000,133.410000C373.490000,136.030000,376.120000,142.890000,375.040000,148.730000L348.040000,292.500000C347.400000,295.900000,342.630000,300.860000,338.530000,301.410000C336.870000,301.620000,340,299.410000,338.170000,298.320000Z" fill="url(#s21-fill)" stroke="none" stroke-width="1"/><path id="s23" d="M334,300.510000L145,187.180000C140.630000,184.560000,138,177.700000,139.080000,171.860000L166,28.090000C167.100000,22.250000,171.530000,19.630000,175.900000,22.250000L365,135.580000C369.370000,138.200000,372,145.060000,370.920000,150.900000L343.920000,294.670000C342.780000,300.510000,338.350000,303.130000,334,300.510000Z" fill="url(#s23-fill)" stroke="none" stroke-width="1"/><path id="s25" d="M146.380000,179.570000C145.052323,178.570216,144.408534,176.902570,144.720000,175.270000L171.720000,31.500000C172.030000,29.860000,173.270000,29.130000,174.500000,29.860000L363.500000,143.190000C364.827677,144.189784,365.471466,145.857430,365.160000,147.490000L338.160000,291.260000C337.850000,292.900000,336.610000,293.630000,335.380000,292.900000Z" fill="rgb(60,71,110)" stroke="none" stroke-width="1"/><path id="s27" style="mix-blend-mode:soft-light" d="M338.190000,291.260000L365.190000,147.490000C365.501466,145.857430,364.857677,144.189784,363.530000,143.190000L243.530000,71.270000L146.530000,165.270000L144.640000,175.320000C144.328534,176.952570,144.972323,178.620216,146.300000,179.620000L335.300000,292.950000C336.630000,293.630000,337.880000,292.900000,338.190000,291.260000Z" fill="url(#s27-fill)" stroke="none" stroke-width="1"/></g></g></g></svg>