<svg id="edw3ArnqCja1" xmlns="http://www.w3.org/2000/svg" xmlns:xlink="http://www.w3.org/1999/xlink" viewBox="0 0 400 400" shape-rendering="geometricPrecision" text-rendering="geometricPrecision"><defs><linearGradient id="edw3ArnqCja9-fill" x1="214.737040" y1="134.946169" x2="185.817989" y2="229.864123" spreadMethod="pad" gradientUnits="userSpaceOnUse"><stop id="edw3ArnqCja9-fill-0" offset="0%" stop-color="rgb(255,102,102)"/><stop id="edw3ArnqCja9-fill-1" offset="100%" stop-color="rgb(204,51,0)"/></linearGradient></defs><g id="edw3ArnqCja2"><g id="edw3ArnqCja3"><path id="edw3ArnqCja4" d="M50.700000,237.200000C86.700000,252.800000,127.600000,252.800000,163.600000,237.200000L150.400000,237.200000L137,211.600000C133.400000,204.700000,126.700000,200.700000,119,200.700000L107.800000,200.700000L96.600000,200.700000C88.800000,200.700000,82.200000,204.700000,78.600000,211.600000L65.200000,237.200000L50.700000,237.200000Z" clip-rule="evenodd" fill="rgb(0,0,0)" fill-rule="evenodd" stroke="none" stroke-width="1"/><path id="edw3ArnqCja5" d="M255.100000,237.200000C291.100000,252.800000,332,252.800000,368,237.200000L354.800000,237.200000L341.400000,211.600000C337.800000,204.700000,331.100000,200.700000,323.400000,200.700000L312.200000,200.700000L301,200.700000C293.200000,200.700000,286.600000,204.700000,283,211.600000L269.600000,237.200000L255.100000,237.200000L255.100000,237.200000Z" clip-rule="evenodd" fill="rgb(0,0,0)" fill-rule="evenodd" stroke="none" stroke-width="1"/></g><path id="edw3ArnqCja6" d="M37.700000,172.500000L284.700000,172.500000C284.800000,172.500000,284.900000,172.500000,285,172.500000L357.300000,179.100000C359,179.300000,360.400000,180.300000,361.200000,181.800000L366.500000,191.600000C366.800000,192.200000,366.900000,192.800000,366.900000,193.400000C366.900000,198.900000,366.900000,211.100000,366.900000,216.500000L370,216.500000C372.200000,217.200000,373.700000,219.300000,373.700000,221.700000L373.700000,231.700000C373.700000,234.700000,371.300000,237.100000,368.300000,237.100000L354.800000,237.100000L341.400000,211.500000C337.800000,204.600000,331.100000,200.600000,323.400000,200.600000L312.200000,200.600000L301,200.600000C293.200000,200.600000,286.600000,204.600000,283,211.500000L269.600000,237.100000L150.400000,237.100000L137,211.500000C133.400000,204.600000,126.700000,200.600000,119,200.600000L107.800000,200.600000L96.600000,200.600000C88.800000,200.600000,82.200000,204.600000,78.600000,211.500000L65.200000,237.100000L27.700000,234.800000L27.700000,220.300000C27.700000,218.500000,29.200000,216.900000,31.100000,216.900000L31.800000,216.900000L31.800000,183.700000C31.800000,183.400000,31.800000,183.100000,31.900000,182.800000L33.300000,175.900000C33.700000,174,35.500000,172.500000,37.700000,172.500000L37.700000,172.500000Z" clip-rule="evenodd" fill="rgb(204,51,0)" fill-rule="evenodd" stroke="none" stroke-width="1"/><g id="edw3ArnqCja7"><path id="edw3ArnqCja8" d="M27.700000,222.300000L27.700000,220.400000C27.700000,218.600000,29.200000,217,31.100000,217L31.800000,217L51.600000,217C40.100000,217,32.700000,220.400000,27.700000,222.300000L27.700000,222.300000Z" clip-rule="evenodd" fill="rgb(255,102,102)" fill-rule="evenodd" stroke="none" stroke-width="1"/><path id="edw3ArnqCja9" d="M37.700000,172.500000L288.500000,172.700000L288.500000,172.700000L357.300000,179.100000C359,179.300000,360.400000,180.300000,361.200000,181.800000L366.500000,191.600000C325.400000,184,213.900000,181.100000,31.900000,183L33.300000,176.100000C33.700000,174,35.500000,172.500000,37.700000,172.500000L37.700000,172.500000Z" clip-rule="evenodd" fill="url(#edw3ArnqCja9-fill)" fill-rule="evenodd" stroke="none" stroke-width="1"/><path id="edw3ArnqCja10" d="M369.900000,216.600000C372.100000,217.300000,373.600000,219.400000,373.600000,221.800000C368.600000,219.900000,361.500000,216.500000,350.100000,216.600000L369.900000,216.600000L369.900000,216.600000Z" clip-rule="evenodd" fill="rgb(255,102,102)" fill-rule="evenodd" stroke="none" stroke-width="1"/></g><path id="edw3ArnqCja11" d="M171.600000,172.800000L182.600000,129C182.900000,127.800000,183.600000,126.800000,184.900000,126.800000L244.400000,126.800000C245.100000,126.800000,245.700000,127.100000,246.100000,127.600000L288.500000,172.800000C289.300000,173.700000,286.100000,177.500000,283.500000,177.500000C253.300000,177.500000,223,177.500000,192.800000,177.500000C189.700000,177.500000,177.100000,175.700000,173.600000,175.200000C172.400000,174.900000,171.300000,173.900000,171.600000,172.800000L171.600000,172.800000ZM269.300000,172.100000C275.100000,172.100000,274.900000,167.300000,272.900000,164.900000L245.800000,132.900000C245.400000,132.400000,244.800000,132.100000,244.100000,132.100000L197,132.100000C194.500000,132.100000,192.400000,134.200000,192.400000,136.700000L192.400000,169.800000C192.400000,171.100000,193.400000,172.100000,194.700000,172.100000L269.300000,172.100000L269.300000,172.100000Z" fill="rgb(204,51,0)" stroke="none" stroke-width="1"/><path id="edw3ArnqCja12" d="M370.500000,232.600000C373,232.600000,375,234.600000,375,237.100000C375,239.600000,373,241.600000,370.500000,241.600000L357.800000,241.600000C356.100000,241.600000,354.400000,241.100000,352.900000,240.200000C351.400000,239.300000,350.200000,238.100000,349.400000,236.500000L337.400000,213.600000C336,210.900000,334,208.800000,331.600000,207.400000C329.200000,206,326.400000,205.200000,323.400000,205.200000L301,205.200000C298,205.200000,295.100000,206,292.800000,207.400000C290.400000,208.800000,288.400000,211,287,213.600000L275,236.500000C274.200000,238.100000,273,239.400000,271.500000,240.200000L271,240.400000C269.600000,241.100000,268.100000,241.500000,266.500000,241.500000L153.400000,241.500000C151.600000,241.500000,150,241,148.500000,240.100000C147,239.200000,145.800000,238,145,236.400000L133,213.500000C131.600000,210.800000,129.600000,208.700000,127.200000,207.300000C124.800000,205.900000,122,205.100000,119,205.100000L96.600000,205.100000C93.600000,205.100000,90.700000,205.900000,88.400000,207.300000C86,208.700000,84,210.900000,82.600000,213.500000L70.600000,236.400000C69.800000,238,68.500000,239.300000,67.100000,240.200000L66.600000,240.400000C65.200000,241.200000,63.600000,241.500000,61.900000,241.400000L29.300000,239.100000C26.800000,238.900000,24.900000,236.800000,25.100000,234.300000C25.300000,231.800000,27.400000,229.900000,29.900000,230.100000L62.400000,232.400000L62.600000,232.200000L74.600000,209.300000C76.800000,205.100000,79.900000,201.800000,83.700000,199.500000C87.500000,197.200000,91.900000,196,96.600000,196L118.900000,196C123.600000,196,128,197.200000,131.800000,199.500000C135.600000,201.800000,138.700000,205.100000,140.900000,209.300000C143.300000,213.800000,150.600000,229.500000,153.100000,232.400000C153.100000,232.400000,153.200000,232.400000,153.400000,232.400000C163.600000,232.400000,266.400000,232.900000,267,232.200000L279,209.300000C281.200000,205.100000,284.300000,201.800000,288.100000,199.500000C291.900000,197.200000,296.300000,196,301,196L323.300000,196C328,196,332.400000,197.200000,336.200000,199.500000C340,201.800000,343.100000,205.100000,345.300000,209.300000L357.300000,232.200000L357.400000,232.400000C357.400000,232.400000,357.500000,232.500000,357.700000,232.500000L370.500000,232.600000L370.500000,232.600000Z" fill="rgb(230,230,230)" stroke="none" stroke-width="1"/><rect id="edw3ArnqCja13" width="4.400000" height="12.100000" rx="0" ry="0" transform="matrix(1 0 0 1 362.39999999999998 193.40000000000001)" clip-rule="evenodd" fill="rgb(255,204,0)" fill-rule="evenodd" stroke="none" stroke-width="1"/><rect id="edw3ArnqCja14" width="6.900000" height="18.600000" rx="0" ry="0" transform="matrix(1 0 0 1 31.70000000000000 193.40000000000001)" clip-rule="evenodd" fill="rgb(153,0,0)" fill-rule="evenodd" stroke="none" stroke-width="1"/><g id="edw3ArnqCja15"><path id="edw3ArnqCja16" d="M269.300000,172.100000C275.100000,172.100000,274.900000,167.300000,272.900000,164.900000L245.800000,132.900000C245.400000,132.400000,244.800000,132.100000,244.100000,132.100000L197,132.100000C194.500000,132.100000,192.500000,134.100000,192.500000,136.600000L192.500000,169.800000C192.500000,171.100000,193.500000,172.100000,194.800000,172.100000L269.300000,172.100000L269.300000,172.100000Z" fill="rgb(149,199,198)" stroke="none" stroke-width="1"/><path id="edw3ArnqCja17" d="M197,132.100000C222.400000,132.100000,237.800000,132.100000,243.100000,132.100000C244.500000,132.100000,245.700000,132.600000,246.500000,133.700000C250,137.900000,260.600000,150.300000,278.100000,171C278.700000,171.800000,279.100000,172.600000,279.200000,173.600000C280.500000,193.100000,275.900000,208.200000,265.300000,222.700000C264.400000,223.900000,263.100000,224.600000,261.700000,224.600000C241.600000,224.600000,220,224.600000,197.100000,224.600000C194.600000,224.600000,192.600000,222.600000,192.600000,220.100000C192.600000,182.500000,192.600000,155.700000,192.600000,136.700000C192.500000,134.100000,194.600000,132.100000,197,132.100000Z" fill="none" stroke="rgb(194,34,19)" stroke-width="1.003400" stroke-miterlimit="24.734100"/><g id="edw3ArnqCja18"><polygon id="edw3ArnqCja19" points="278.100000,171 279,172.700000 262.600000,172.700000 266.800000,157.600000 275.300000,167.600000" clip-rule="evenodd" fill="rgb(99,107,110)" fill-rule="evenodd" stroke="none" stroke-width="1"/><path id="edw3ArnqCja20" d="M264.100000,175L261.800000,175C261.600000,175,261.500000,174.900000,261.300000,174.800000C261.200000,174.700000,261.100000,174.500000,261.100000,174.300000L262.700000,155.300000C262.700000,155.100000,262.800000,154.900000,263,154.800000C263.200000,154.700000,263.300000,154.700000,263.500000,154.700000L265.600000,155.200000C268,155.800000,270.100000,157.200000,270.100000,159.700000C270.100000,164.100000,268.100000,175,264.100000,175L264.100000,175Z" clip-rule="evenodd" fill="rgb(77,84,87)" fill-rule="evenodd" stroke="none" stroke-width="1"/></g></g></g><g id="edw3ArnqCja21"><circle id="edw3ArnqCja22" r="32.600000" transform="matrix(1 0 0 1 107.70000000000000 240.59999999999999)" clip-rule="evenodd" fill="rgb(26,26,26)" fill-rule="evenodd" stroke="none" stroke-width="1"/><path id="edw3ArnqCja23" d="M107.700000,216.500000C121,216.500000,131.800000,227.300000,131.800000,240.600000C131.800000,253.900000,121,264.700000,107.700000,264.700000C94.400000,264.700000,83.600000,253.900000,83.600000,240.600000C83.600000,227.300000,94.400000,216.500000,107.700000,216.500000ZM109.600000,221.700000L105.900000,221.700000C105.700000,221.700000,105.500000,221.800000,105.300000,222C105.200000,222.200000,105.100000,222.400000,105.200000,222.600000L107,230.700000C107.100000,231,107.400000,231.300000,107.700000,231.300000C108,231.300000,108.300000,231.100000,108.400000,230.700000L110.200000,222.600000C110.300000,222.400000,110.200000,222.200000,110.100000,222C110,221.800000,109.800000,221.700000,109.600000,221.700000ZM99.900000,223.300000L96.700000,225.200000C96.500000,225.300000,96.400000,225.500000,96.400000,225.700000C96.400000,225.900000,96.400000,226.100000,96.600000,226.300000L102.200000,232.400000C102.400000,232.600000,102.800000,232.700000,103.100000,232.500000C103.400000,232.300000,103.500000,232,103.400000,231.700000L101,223.800000C100.900000,223.600000,100.800000,223.400000,100.600000,223.300000C100.300000,223.200000,100.100000,223.200000,99.900000,223.300000L99.900000,223.300000ZM92.300000,229.600000L90.500000,232.800000C90.400000,233,90.400000,233.200000,90.500000,233.400000C90.600000,233.600000,90.700000,233.800000,91,233.800000L98.900000,236.200000C99.200000,236.300000,99.600000,236.200000,99.700000,235.900000C99.900000,235.600000,99.800000,235.200000,99.600000,235L93.500000,229.400000C93.300000,229.200000,93.100000,229.200000,92.900000,229.200000C92.600000,229.200000,92.400000,229.400000,92.300000,229.600000L92.300000,229.600000ZM88.800000,238.800000L88.800000,242.500000C88.800000,242.700000,88.900000,242.900000,89.100000,243.100000C89.300000,243.200000,89.500000,243.300000,89.700000,243.200000L97.800000,241.400000C98.100000,241.300000,98.400000,241,98.400000,240.700000C98.400000,240.400000,98.200000,240.100000,97.800000,240L89.700000,238.100000C89.500000,238.100000,89.300000,238.100000,89.100000,238.200000C88.900000,238.300000,88.800000,238.500000,88.800000,238.800000L88.800000,238.800000ZM90.400000,248.500000L92.300000,251.700000C92.400000,251.900000,92.600000,252,92.800000,252C93,252,93.200000,252,93.400000,251.800000L99.500000,246.200000C99.700000,246,99.800000,245.600000,99.600000,245.300000C99.400000,245,99.100000,244.900000,98.800000,245L90.900000,247.400000C90.700000,247.500000,90.500000,247.600000,90.400000,247.800000C90.300000,248.100000,90.300000,248.300000,90.400000,248.500000L90.400000,248.500000ZM96.700000,256.100000L99.900000,257.900000C100.100000,258,100.300000,258,100.500000,257.900000C100.700000,257.800000,100.900000,257.700000,100.900000,257.400000L103.300000,249.500000C103.400000,249.200000,103.300000,248.800000,103,248.700000C102.700000,248.500000,102.300000,248.600000,102.100000,248.800000L96.500000,254.900000C96.300000,255.100000,96.300000,255.300000,96.300000,255.500000C96.400000,255.800000,96.500000,256,96.700000,256.100000ZM105.900000,259.500000L109.600000,259.500000C109.800000,259.500000,110,259.400000,110.200000,259.200000C110.300000,259,110.400000,258.800000,110.300000,258.600000L108.500000,250.500000C108.400000,250.200000,108.100000,249.900000,107.800000,249.900000C107.500000,249.900000,107.200000,250.100000,107.100000,250.500000L105.200000,258.600000C105.200000,258.800000,105.200000,259,105.300000,259.200000C105.500000,259.400000,105.700000,259.500000,105.900000,259.500000L105.900000,259.500000ZM115.600000,257.900000L118.800000,256C119,255.900000,119.100000,255.700000,119.100000,255.500000C119.100000,255.300000,119.100000,255.100000,118.900000,254.900000L113.300000,248.800000C113.100000,248.600000,112.700000,248.500000,112.400000,248.700000C112.100000,248.900000,112,249.200000,112.100000,249.500000L114.500000,257.400000C114.600000,257.600000,114.700000,257.800000,114.900000,257.900000C115.200000,258.100000,115.400000,258,115.600000,257.900000L115.600000,257.900000ZM123.200000,251.700000L125,248.500000C125.100000,248.300000,125.100000,248.100000,125,247.900000C124.900000,247.700000,124.800000,247.500000,124.500000,247.500000L116.600000,245.100000C116.300000,245,115.900000,245.100000,115.800000,245.400000C115.600000,245.700000,115.700000,246.100000,115.900000,246.300000L122,251.900000C122.200000,252.100000,122.400000,252.100000,122.600000,252.100000C122.900000,252,123.100000,251.900000,123.200000,251.700000L123.200000,251.700000ZM126.700000,242.500000L126.700000,238.800000C126.700000,238.600000,126.600000,238.400000,126.400000,238.200000C126.200000,238.100000,126,238,125.800000,238.100000L117.700000,239.900000C117.400000,240,117.100000,240.300000,117.100000,240.600000C117.100000,240.900000,117.300000,241.200000,117.700000,241.300000L125.800000,243.200000C126,243.200000,126.200000,243.200000,126.400000,243.100000C126.600000,242.900000,126.700000,242.700000,126.700000,242.500000ZM125.100000,232.800000L123.200000,229.600000C123.100000,229.400000,122.900000,229.300000,122.700000,229.300000C122.500000,229.300000,122.300000,229.300000,122.100000,229.500000L116,235C115.800000,235.200000,115.700000,235.600000,115.900000,235.900000C116.100000,236.200000,116.400000,236.300000,116.700000,236.200000L124.600000,233.800000C124.800000,233.700000,125,233.600000,125.100000,233.400000C125.200000,233.200000,125.200000,232.900000,125.100000,232.800000L125.100000,232.800000ZM118.800000,225.200000L115.600000,223.400000C115.400000,223.300000,115.200000,223.300000,115,223.400000C114.800000,223.500000,114.600000,223.600000,114.600000,223.900000L112.200000,231.800000C112.100000,232.100000,112.200000,232.500000,112.500000,232.600000C112.800000,232.800000,113.200000,232.700000,113.400000,232.500000L119,226.400000C119.200000,226.200000,119.200000,226,119.200000,225.800000C119.100000,225.400000,119,225.300000,118.800000,225.200000Z" clip-rule="evenodd" fill="rgb(179,179,179)" fill-rule="evenodd" stroke="none" stroke-width="1"/></g><g id="edw3ArnqCja24"><circle id="edw3ArnqCja25" r="32.600000" transform="matrix(1 0 0 1 312.19999999999999 240.59999999999999)" clip-rule="evenodd" fill="rgb(26,26,26)" fill-rule="evenodd" stroke="none" stroke-width="1"/><path id="edw3ArnqCja26" d="M312.200000,216.500000C325.500000,216.500000,336.300000,227.300000,336.300000,240.600000C336.300000,253.900000,325.500000,264.700000,312.200000,264.700000C298.900000,264.700000,288.100000,253.900000,288.100000,240.600000C288.100000,227.300000,298.900000,216.500000,312.200000,216.500000ZM314,221.700000L310.300000,221.700000C310.100000,221.700000,309.900000,221.800000,309.700000,222C309.600000,222.200000,309.500000,222.400000,309.600000,222.600000L311.400000,230.700000C311.500000,231,311.800000,231.300000,312.100000,231.300000C312.400000,231.300000,312.700000,231.100000,312.800000,230.700000L314.600000,222.600000C314.700000,222.400000,314.600000,222.200000,314.500000,222C314.400000,221.800000,314.200000,221.700000,314,221.700000L314,221.700000ZM304.300000,223.300000L301.100000,225.200000C300.900000,225.300000,300.800000,225.500000,300.800000,225.700000C300.800000,225.900000,300.800000,226.100000,301,226.300000L306.600000,232.400000C306.800000,232.600000,307.200000,232.700000,307.500000,232.500000C307.800000,232.300000,307.900000,232,307.800000,231.700000L305.400000,223.800000C305.300000,223.600000,305.200000,223.400000,305,223.300000C304.700000,223.200000,304.500000,223.200000,304.300000,223.300000L304.300000,223.300000ZM296.700000,229.600000L294.900000,232.800000C294.800000,233,294.800000,233.200000,294.900000,233.400000C295,233.600000,295.100000,233.800000,295.400000,233.800000L303.300000,236.200000C303.600000,236.300000,304,236.200000,304.100000,235.900000C304.300000,235.600000,304.200000,235.200000,304,235L297.900000,229.400000C297.700000,229.200000,297.500000,229.200000,297.300000,229.200000C297,229.200000,296.800000,229.400000,296.700000,229.600000ZM293.200000,238.800000L293.200000,242.500000C293.200000,242.700000,293.300000,242.900000,293.500000,243.100000C293.700000,243.200000,293.900000,243.300000,294.100000,243.200000L302.200000,241.400000C302.500000,241.300000,302.800000,241,302.800000,240.700000C302.800000,240.400000,302.600000,240.100000,302.200000,240L294.100000,238.100000C293.900000,238.100000,293.700000,238.100000,293.500000,238.200000C293.300000,238.300000,293.200000,238.500000,293.200000,238.800000L293.200000,238.800000ZM294.800000,248.500000L296.700000,251.700000C296.800000,251.900000,297,252,297.200000,252C297.400000,252,297.600000,252,297.800000,251.800000L303.900000,246.200000C304.100000,246,304.200000,245.600000,304,245.300000C303.800000,245,303.500000,244.900000,303.200000,245L295.300000,247.400000C295.100000,247.500000,294.900000,247.600000,294.800000,247.800000C294.700000,248.100000,294.700000,248.300000,294.800000,248.500000ZM301.100000,256.100000L304.300000,257.900000C304.500000,258,304.700000,258,304.900000,257.900000C305.100000,257.800000,305.300000,257.700000,305.300000,257.400000L307.700000,249.500000C307.800000,249.200000,307.700000,248.800000,307.400000,248.700000C307.100000,248.500000,306.700000,248.600000,306.500000,248.800000L300.900000,254.900000C300.700000,255.100000,300.700000,255.300000,300.700000,255.500000C300.800000,255.800000,300.900000,256,301.100000,256.100000L301.100000,256.100000ZM310.300000,259.500000L314,259.500000C314.200000,259.500000,314.400000,259.400000,314.600000,259.200000C314.700000,259,314.800000,258.800000,314.700000,258.600000L312.900000,250.500000C312.800000,250.200000,312.500000,249.900000,312.200000,249.900000C311.900000,249.900000,311.600000,250.100000,311.500000,250.500000L309.600000,258.600000C309.600000,258.800000,309.600000,259,309.700000,259.200000C309.900000,259.400000,310.100000,259.500000,310.300000,259.500000L310.300000,259.500000ZM320,257.900000L323.200000,256C323.400000,255.900000,323.500000,255.700000,323.500000,255.500000C323.500000,255.300000,323.500000,255.100000,323.300000,254.900000L317.700000,248.800000C317.500000,248.600000,317.100000,248.500000,316.800000,248.700000C316.500000,248.900000,316.400000,249.200000,316.500000,249.500000L318.900000,257.400000C319,257.600000,319.100000,257.800000,319.300000,257.900000C319.600000,258.100000,319.800000,258,320,257.900000L320,257.900000ZM327.600000,251.700000L329.400000,248.500000C329.500000,248.300000,329.500000,248.100000,329.400000,247.900000C329.300000,247.700000,329.200000,247.500000,328.900000,247.500000L321,245.100000C320.700000,245,320.300000,245.100000,320.200000,245.400000C320,245.700000,320.100000,246.100000,320.300000,246.300000L326.400000,251.900000C326.600000,252.100000,326.800000,252.100000,327,252.100000C327.300000,252,327.500000,251.900000,327.600000,251.700000L327.600000,251.700000ZM331.100000,242.500000L331.100000,238.800000C331.100000,238.600000,331,238.400000,330.800000,238.200000C330.600000,238.100000,330.400000,238,330.200000,238.100000L322.100000,239.900000C321.800000,240,321.500000,240.300000,321.500000,240.600000C321.500000,240.900000,321.700000,241.200000,322.100000,241.300000L330.200000,243.200000C330.400000,243.200000,330.600000,243.200000,330.800000,243.100000C331,242.900000,331.100000,242.700000,331.100000,242.500000L331.100000,242.500000ZM329.500000,232.800000L327.600000,229.600000C327.500000,229.400000,327.300000,229.300000,327.100000,229.300000C326.900000,229.300000,326.700000,229.300000,326.500000,229.500000L320.400000,235.100000C320.200000,235.300000,320.100000,235.700000,320.300000,236C320.500000,236.300000,320.800000,236.400000,321.100000,236.300000L329,233.900000C329.200000,233.800000,329.400000,233.700000,329.500000,233.500000C329.600000,233.200000,329.600000,232.900000,329.500000,232.800000L329.500000,232.800000ZM323.200000,225.200000L320,223.400000C319.800000,223.300000,319.600000,223.300000,319.400000,223.400000C319.200000,223.500000,319,223.600000,319,223.900000L316.600000,231.800000C316.500000,232.100000,316.600000,232.500000,316.900000,232.600000C317.200000,232.800000,317.600000,232.700000,317.800000,232.500000L323.400000,226.400000C323.600000,226.200000,323.600000,226,323.600000,225.800000C323.500000,225.400000,323.400000,225.300000,323.200000,225.200000Z" clip-rule="evenodd" fill="rgb(179,179,179)" fill-rule="evenodd" stroke="none" stroke-width="1"/></g></svg>