<svg id="s1" xmlns="http://www.w3.org/2000/svg" xmlns:xlink="http://www.w3.org/1999/xlink" viewBox="0 0 400 400"><defs><linearGradient id="s5-fill" x1="166.560000" y1="131.900000" x2="243.890000" y2="78.650000" spreadMethod="pad" gradientUnits="userSpaceOnUse"><stop id="s5-fill-0" offset="38%" stop-color="rgb(235,221,166)"/><stop id="s5-fill-1" offset="69%" stop-color="rgb(204,171,115)"/><stop id="s5-fill-2" offset="100%" stop-color="rgb(224,203,147)"/></linearGradient><linearGradient id="s7-fill" x1="85.940000" y1="223.770000" x2="136.410000" y2="171.450000" spreadMethod="pad" gradientUnits="userSpaceOnUse"><stop id="s7-fill-0" offset="38%" stop-color="rgb(235,221,166)"/><stop id="s7-fill-1" offset="69%" stop-color="rgb(204,171,115)"/><stop id="s7-fill-2" offset="100%" stop-color="rgb(224,203,147)"/></linearGradient><linearGradient id="s9-fill" x1="217.340000" y1="332.540000" x2="184" y2="252.910000" spreadMethod="pad" gradientUnits="userSpaceOnUse"><stop id="s9-fill-0" offset="38%" stop-color="rgb(235,221,166)"/><stop id="s9-fill-1" offset="69%" stop-color="rgb(204,171,115)"/><stop id="s9-fill-2" offset="100%" stop-color="rgb(224,203,147)"/></linearGradient><linearGradient id="s11-fill" x1="258.970000" y1="116.390000" x2="292.300000" y2="203.060000" spreadMethod="pad" gradientUnits="userSpaceOnUse"><stop id="s11-fill-0" offset="10%" stop-color="rgb(255,246,214)"/><stop id="s11-fill-1" offset="38%" stop-color="rgb(235,221,166)"/><stop id="s11-fill-2" offset="69%" stop-color="rgb(204,171,115)"/><stop id="s11-fill-3" offset="100%" stop-color="rgb(224,203,147)"/></linearGradient><linearGradient id="s15-fill" x1="39.160000" y1="-23.020000" x2="114.460000" y2="166.390000" spreadMethod="pad" gradientUnits="userSpaceOnUse"><stop id="s15-fill-0" offset="37%" stop-color="rgb(71,74,78)"/><stop id="s15-fill-1" offset="100%" stop-color="rgb(67,71,77)"/></linearGradient><linearGradient id="s17-fill" x1="174.840000" y1="271.720000" x2="-16.230000" y2="374.820000" spreadMethod="pad" gradientUnits="userSpaceOnUse"><stop id="s17-fill-0" offset="2%" stop-color="rgb(77,80,87)"/><stop id="s17-fill-1" offset="100%" stop-color="rgb(103,106,115)"/></linearGradient></defs><g id="s3"><path id="s5" d="M140.590000,129.510000L140,129.510000C137.176856,129.499036,134.890964,127.213144,134.880000,124.390000L134.880000,93.390000C134.874685,92.026784,135.411129,90.717292,136.371318,89.749602C137.331506,88.781912,138.636784,88.235294,140,88.230000L140.640000,88.230000C143.463144,88.240964,145.749036,90.526856,145.760000,93.350000L145.760000,124.350000C145.765362,125.721889,145.222066,127.038993,144.251048,128.008133C143.280030,128.977274,141.961877,129.518018,140.590000,129.510000ZM162.780000,124.390000L162.780000,93.390000C162.769036,90.566856,160.483144,88.280964,157.660000,88.270000L157,88.270000C154.176856,88.280964,151.890964,90.566856,151.880000,93.390000L151.880000,124.390000C151.890964,127.213144,154.176856,129.499036,157,129.510000L157.640000,129.510000C160.470951,129.510021,162.768985,127.220930,162.780000,124.390000ZM179.850000,124.390000L179.850000,93.390000C179.839036,90.566856,177.553144,88.280964,174.730000,88.270000L174.090000,88.270000C171.294022,88.297011,169.032509,90.554081,169,93.350000L169,124.350000C169.010964,127.173144,171.296856,129.459036,174.120000,129.470000L174.760000,129.470000C177.552073,129.437594,179.807594,127.182073,179.840000,124.390000ZM196.920000,124.390000L196.920000,93.390000C196.909036,90.566856,194.623144,88.280964,191.800000,88.270000L191.160000,88.270000C188.336735,88.258822,186.032935,90.526905,186,93.350000L186,124.350000C186.010964,127.173144,188.296856,129.459036,191.120000,129.470000L191.760000,129.470000C194.579371,129.475677,196.877095,127.209185,196.910000,124.390000ZM213.990000,124.390000L213.990000,93.390000C213.979036,90.566856,211.693144,88.280964,208.870000,88.270000L208.230000,88.270000C205.406856,88.280964,203.120964,90.566856,203.110000,93.390000L203.110000,124.390000C203.120964,127.213144,205.406856,129.499036,208.230000,129.510000L208.870000,129.510000C211.697049,129.504521,213.989005,127.217032,214,124.390000ZM231.060000,124.390000L231.060000,93.390000C231.049036,90.566856,228.763144,88.280964,225.940000,88.270000L225.300000,88.270000C222.476856,88.280964,220.190964,90.566856,220.180000,93.390000L220.180000,124.390000C220.190964,127.213144,222.476856,129.499036,225.300000,129.510000L225.940000,129.510000C228.739685,129.466440,230.989444,127.190004,231,124.390000ZM248.130000,124.390000L248.130000,93.390000C248.135314,92.025056,247.597499,90.714051,246.635149,89.746073C245.672798,88.778095,244.364951,88.232645,243,88.230000L242.360000,88.230000C239.536856,88.240964,237.250964,90.526856,237.240000,93.350000L237.240000,124.350000C237.250964,127.173144,239.536856,129.459036,242.360000,129.470000L243,129.470000C245.799880,129.448400,248.067399,127.189774,248.100000,124.390000ZM248.130000,124.390000L248.130000,93.390000C248.135314,92.025056,247.597499,90.714051,246.635149,89.746073C245.672798,88.778095,244.364951,88.232645,243,88.230000L242.360000,88.230000C239.536856,88.240964,237.250964,90.526856,237.240000,93.350000L237.240000,124.350000C237.250964,127.173144,239.536856,129.459036,242.360000,129.470000L243,129.470000C245.799880,129.448400,248.067399,127.189774,248.100000,124.390000ZM265.200000,124.390000L265.200000,93.390000C265.205453,92.012864,264.658052,90.691138,263.680509,89.721115C262.702967,88.751092,261.377053,88.213914,260,88.230000L259.360000,88.230000C256.536856,88.240964,254.250964,90.526856,254.240000,93.350000L254.240000,124.350000C254.250964,127.173144,256.536856,129.459036,259.360000,129.470000L260,129.470000C262.827156,129.486693,265.137047,127.217014,265.170000,124.390000Z" fill="url(#s5-fill)" stroke="none" stroke-width="1"/><path id="s7" d="M129.510000,259.410000L129.510000,260C129.499036,262.823144,127.213144,265.109036,124.390000,265.120000L93.390000,265.120000C92.026784,265.125315,90.717292,264.588871,89.749602,263.628682C88.781912,262.668494,88.235294,261.363216,88.230000,260L88.230000,259.360000C88.240964,256.536856,90.526856,254.250964,93.350000,254.240000L124.350000,254.240000C125.721889,254.234638,127.038993,254.777934,128.008133,255.748952C128.977274,256.719970,129.518018,258.038123,129.510000,259.410000ZM124.390000,237.220000L93.390000,237.220000C90.566856,237.230964,88.280964,239.516856,88.270000,242.340000L88.270000,243C88.280964,245.823144,90.566856,248.109036,93.390000,248.120000L124.390000,248.120000C127.213144,248.109036,129.499036,245.823144,129.510000,243L129.510000,242.360000C129.510021,239.529049,127.220930,237.231015,124.390000,237.220000ZM124.390000,220.150000L93.390000,220.150000C90.566856,220.160964,88.280964,222.446856,88.270000,225.270000L88.270000,225.910000C88.297011,228.705978,90.554081,230.967491,93.350000,231L124.350000,231C127.173144,230.989036,129.459036,228.703144,129.470000,225.880000L129.470000,225.240000C129.437594,222.447927,127.182073,220.192406,124.390000,220.160000ZM124.390000,203.080000L93.390000,203.080000C90.566856,203.090964,88.280964,205.376856,88.270000,208.200000L88.270000,208.840000C88.258822,211.663265,90.526905,213.967065,93.350000,214L124.350000,214C127.173144,213.989036,129.459036,211.703144,129.470000,208.880000L129.470000,208.240000C129.475677,205.420629,127.209185,203.122905,124.390000,203.090000ZM124.390000,186.010000L93.390000,186.010000C90.566856,186.020964,88.280964,188.306856,88.270000,191.130000L88.270000,191.770000C88.280964,194.593144,90.566856,196.879036,93.390000,196.890000L124.390000,196.890000C127.213144,196.879036,129.499036,194.593144,129.510000,191.770000L129.510000,191.130000C129.504521,188.302951,127.217032,186.010995,124.390000,186ZM124.390000,168.940000L93.390000,168.940000C90.566856,168.950964,88.280964,171.236856,88.270000,174.060000L88.270000,174.700000C88.280964,177.523144,90.566856,179.809036,93.390000,179.820000L124.390000,179.820000C127.213144,179.809036,129.499036,177.523144,129.510000,174.700000L129.510000,174.060000C129.466440,171.260315,127.190004,169.010556,124.390000,169ZM124.390000,151.870000L93.390000,151.870000C92.025056,151.864686,90.714051,152.402501,89.746073,153.364851C88.778095,154.327202,88.232645,155.635049,88.230000,157L88.230000,157.640000C88.240964,160.463144,90.526856,162.749036,93.350000,162.760000L124.350000,162.760000C127.173144,162.749036,129.459036,160.463144,129.470000,157.640000L129.470000,157C129.448400,154.200120,127.189774,151.932601,124.390000,151.900000ZM124.390000,151.870000L93.390000,151.870000C92.025056,151.864686,90.714051,152.402501,89.746073,153.364851C88.778095,154.327202,88.232645,155.635049,88.230000,157L88.230000,157.640000C88.240964,160.463144,90.526856,162.749036,93.350000,162.760000L124.350000,162.760000C127.173144,162.749036,129.459036,160.463144,129.470000,157.640000L129.470000,157C129.448400,154.200120,127.189774,151.932601,124.390000,151.900000ZM124.390000,134.800000L93.390000,134.800000C92.012864,134.794547,90.691138,135.341948,89.721115,136.319491C88.751092,137.297033,88.213914,138.622947,88.230000,140L88.230000,140.640000C88.240964,143.463144,90.526856,145.749036,93.350000,145.760000L124.350000,145.760000C127.173144,145.749036,129.459036,143.463144,129.470000,140.640000L129.470000,140C129.486693,137.172844,127.217014,134.862953,124.390000,134.830000Z" fill="url(#s7-fill)" stroke="none" stroke-width="1"/><path id="s9" d="M259.410000,270.490000L260,270.490000C262.823144,270.500964,265.109036,272.786856,265.120000,275.610000L265.120000,306.610000C265.109036,309.433144,262.823144,311.719036,260,311.730000L259.360000,311.730000C256.536856,311.719036,254.250964,309.433144,254.240000,306.610000L254.240000,275.610000C254.245288,274.245043,254.793280,272.938242,255.763136,271.977766C256.732992,271.017290,258.045056,270.482023,259.410000,270.490000ZM237.220000,275.610000L237.220000,306.610000C237.230964,309.433144,239.516856,311.719036,242.340000,311.730000L243,311.730000C245.823144,311.719036,248.109036,309.433144,248.120000,306.610000L248.120000,275.610000C248.109036,272.786856,245.823144,270.500964,243,270.490000L242.360000,270.490000C239.529049,270.489979,237.231015,272.779070,237.220000,275.610000ZM220.150000,275.610000L220.150000,306.610000C220.160964,309.433144,222.446856,311.719036,225.270000,311.730000L225.910000,311.730000C228.733144,311.719036,231.019036,309.433144,231.030000,306.610000L231.030000,275.610000C231.019036,272.786856,228.733144,270.500964,225.910000,270.490000L225.270000,270.490000C222.450762,270.506434,220.170922,272.790735,220.160000,275.610000ZM203.080000,275.610000L203.080000,306.610000C203.090964,309.433144,205.376856,311.719036,208.200000,311.730000L208.840000,311.730000C211.663144,311.719036,213.949036,309.433144,213.960000,306.610000L213.960000,275.610000C213.949036,272.786856,211.663144,270.500964,208.840000,270.490000L208.200000,270.490000C205.380762,270.506434,203.100922,272.790735,203.090000,275.610000ZM186.010000,275.610000L186.010000,306.610000C186.020964,309.433144,188.306856,311.719036,191.130000,311.730000L191.770000,311.730000C194.593144,311.719036,196.879036,309.433144,196.890000,306.610000L196.890000,275.610000C196.879036,272.786856,194.593144,270.500964,191.770000,270.490000L191.130000,270.490000C188.302951,270.495479,186.010995,272.782968,186,275.610000ZM168.940000,275.610000L168.940000,306.610000C168.950964,309.433144,171.236856,311.719036,174.060000,311.730000L174.700000,311.730000C177.523144,311.719036,179.809036,309.433144,179.820000,306.610000L179.820000,275.610000C179.809036,272.786856,177.523144,270.500964,174.700000,270.490000L174.060000,270.490000C171.260315,270.533560,169.010556,272.809996,169,275.610000ZM151.870000,275.610000L151.870000,306.610000C151.880964,309.433144,154.166856,311.719036,156.990000,311.730000L157.630000,311.730000C160.453144,311.719036,162.739036,309.433144,162.750000,306.610000L162.750000,275.610000C162.739036,272.786856,160.453144,270.500964,157.630000,270.490000L157,270.490000C154.184669,270.511889,151.910870,272.794605,151.900000,275.610000ZM151.870000,275.610000L151.870000,306.610000C151.880964,309.433144,154.166856,311.719036,156.990000,311.730000L157.630000,311.730000C160.453144,311.719036,162.739036,309.433144,162.750000,306.610000L162.750000,275.610000C162.739036,272.786856,160.453144,270.500964,157.630000,270.490000L157,270.490000C154.184669,270.511889,151.910870,272.794605,151.900000,275.610000ZM134.800000,275.610000L134.800000,306.610000C134.810964,309.433144,137.096856,311.719036,139.920000,311.730000L140.560000,311.730000C143.383144,311.719036,145.669036,309.433144,145.680000,306.610000L145.680000,275.610000C145.669036,272.786856,143.383144,270.500964,140.560000,270.490000L140,270.490000C138.635056,270.482023,137.322992,271.017290,136.353136,271.977766C135.383280,272.938242,134.835288,274.245043,134.830000,275.610000Z" fill="url(#s9-fill)" stroke="none" stroke-width="1"/><path id="s11" d="M270.490000,140.590000L270.490000,140C270.500964,137.176856,272.786856,134.890964,275.610000,134.880000L306.610000,134.880000C309.433144,134.890964,311.719036,137.176856,311.730000,140L311.730000,140.640000C311.719036,143.463144,309.433144,145.749036,306.610000,145.760000L275.610000,145.760000C274.245043,145.754712,272.938242,145.206720,271.977766,144.236864C271.017290,143.267008,270.482023,141.954944,270.490000,140.590000ZM275.610000,162.780000L306.610000,162.780000C309.433144,162.769036,311.719036,160.483144,311.730000,157.660000L311.730000,157C311.719036,154.176856,309.433144,151.890964,306.610000,151.880000L275.610000,151.880000C272.786856,151.890964,270.500964,154.176856,270.490000,157L270.490000,157.640000C270.489979,160.470951,272.779070,162.768985,275.610000,162.780000ZM275.610000,179.850000L306.610000,179.850000C309.433144,179.839036,311.719036,177.553144,311.730000,174.730000L311.730000,174.090000C311.719036,171.266856,309.433144,168.980964,306.610000,168.970000L275.610000,168.970000C272.786856,168.980964,270.500964,171.266856,270.490000,174.090000L270.490000,174.730000C270.506434,177.549238,272.790735,179.829078,275.610000,179.840000ZM275.610000,196.920000L306.610000,196.920000C309.433144,196.909036,311.719036,194.623144,311.730000,191.800000L311.730000,191.160000C311.719036,188.336856,309.433144,186.050964,306.610000,186.040000L275.610000,186.040000C272.786856,186.050964,270.500964,188.336856,270.490000,191.160000L270.490000,191.800000C270.506434,194.619238,272.790735,196.899078,275.610000,196.910000ZM275.610000,213.990000L306.610000,213.990000C309.433144,213.979036,311.719036,211.693144,311.730000,208.870000L311.730000,208.230000C311.719036,205.406856,309.433144,203.120964,306.610000,203.110000L275.610000,203.110000C272.786856,203.120964,270.500964,205.406856,270.490000,208.230000L270.490000,208.870000C270.495479,211.697049,272.782968,213.989005,275.610000,214ZM275.610000,231.060000L306.610000,231.060000C309.433144,231.049036,311.719036,228.763144,311.730000,225.940000L311.730000,225.300000C311.719036,222.476856,309.433144,220.190964,306.610000,220.180000L275.610000,220.180000C272.786856,220.190964,270.500964,222.476856,270.490000,225.300000L270.490000,225.940000C270.533560,228.739685,272.809996,230.989444,275.610000,231ZM275.610000,248.130000L306.610000,248.130000C309.433144,248.119036,311.719036,245.833144,311.730000,243.010000L311.730000,242.370000C311.719036,239.546856,309.433144,237.260964,306.610000,237.250000L275.610000,237.250000C272.786856,237.260964,270.500964,239.546856,270.490000,242.370000L270.490000,243C270.511889,245.815331,272.794605,248.089130,275.610000,248.100000ZM275.610000,248.130000L306.610000,248.130000C309.433144,248.119036,311.719036,245.833144,311.730000,243.010000L311.730000,242.370000C311.719036,239.546856,309.433144,237.260964,306.610000,237.250000L275.610000,237.250000C272.786856,237.260964,270.500964,239.546856,270.490000,242.370000L270.490000,243C270.511889,245.815331,272.794605,248.089130,275.610000,248.100000ZM275.610000,265.200000L306.610000,265.200000C309.433144,265.189036,311.719036,262.903144,311.730000,260.080000L311.730000,259.440000C311.719036,256.616856,309.433144,254.330964,306.610000,254.320000L275.610000,254.320000C272.786856,254.330964,270.500964,256.616856,270.490000,259.440000L270.490000,260C270.482023,261.364944,271.017290,262.677008,271.977766,263.646864C272.938242,264.616720,274.245043,265.164712,275.610000,265.170000Z" fill="url(#s11-fill)" stroke="none" stroke-width="1"/><g id="s13"><rect id="s15" width="160.380000" height="160.380000" rx="13.730000" ry="13.730000" transform="translate(119.810000,119.810000)" fill="url(#s15-fill)" stroke="none" stroke-width="1"/><rect id="s17" width="147.410000" height="147.410000" rx="7.250000" ry="7.250000" transform="translate(400,0) rotate(90) translate(126.290000,126.290000)" fill="url(#s17-fill)" stroke="none" stroke-width="1"/><path id="s19" d="M123.520000,170.620000L146.840000,170.620000C148.022866,170.620000,149.157284,170.150108,149.993696,169.313696C150.830108,168.477284,151.300000,167.342866,151.300000,166.160000L151.300000,155.740000C151.300000,154.557134,151.769892,153.422716,152.606304,152.586304C153.442716,151.749892,154.577134,151.280000,155.760000,151.280000L176.930000,151.280000C178.112866,151.280000,179.247284,150.810108,180.083696,149.973696C180.920108,149.137284,181.390000,148.002866,181.390000,146.820000L181.390000,123.520000" fill="none" stroke="rgb(71,74,78)" stroke-width="5" stroke-linecap="round" stroke-miterlimit="10"/><path id="s21" d="M208.250000,123.520000L208.250000,153.200000C208.251289,154.341770,207.814639,155.440553,207.030000,156.270000L185.440000,179.100000" fill="none" stroke="rgb(71,74,78)" stroke-width="5" stroke-linecap="round" stroke-miterlimit="10"/><circle id="s23" r="10.650000" transform="translate(178.670000,187.320000)" fill="none" stroke="rgb(71,74,78)" stroke-width="5" stroke-linecap="round" stroke-miterlimit="10"/><circle id="s25" r="4.870000" transform="translate(258.800000,215.400000)" fill="none" stroke="rgb(71,74,78)" stroke-width="5" stroke-linecap="round" stroke-miterlimit="10"/><path id="s27" d="M123.520000,200.430000L141.740000,200.430000C142.922866,200.430000,144.057284,200.899892,144.893696,201.736304C145.730108,202.572716,146.200000,203.707134,146.200000,204.890000L146.200000,213.950000C146.200000,215.132866,146.669892,216.267284,147.506304,217.103696C148.342716,217.940108,149.477134,218.410000,150.660000,218.410000L215.120000,218.410000C216.302866,218.410000,217.437284,217.940108,218.273696,217.103696C219.110108,216.267284,219.580000,215.132866,219.580000,213.950000L219.580000,166.230000C219.580000,165.047134,220.049892,163.912716,220.886304,163.076304C221.722716,162.239892,222.857134,161.770000,224.040000,161.770000L252.040000,161.770000C254.503190,161.770000,256.500000,159.773190,256.500000,157.310000L256.500000,123.520000" fill="none" stroke="rgb(71,74,78)" stroke-width="5" stroke-linecap="round" stroke-miterlimit="10"/><path id="s29" d="M276.480000,191.550000L261.680000,191.550000C260.494419,191.549306,259.357350,192.020686,258.520000,192.860000L240.920000,210.460000C240.080686,211.297350,239.609306,212.434419,239.610000,213.620000L239.610000,225.160000C239.610694,226.345581,239.139314,227.482650,238.300000,228.320000L208.420000,258.200000C207.582650,259.039314,206.445581,259.510694,205.260000,259.510000L187.260000,259.510000C184.796810,259.510000,182.800000,261.506810,182.800000,263.970000L182.800000,277.970000" fill="none" stroke="rgb(71,74,78)" stroke-width="5" stroke-linecap="round" stroke-miterlimit="10"/><line id="s31" x1="129.510000" y1="275.610000" x2="160.170000" y2="244.950000" fill="none" stroke="rgb(71,74,78)" stroke-width="5" stroke-linecap="round" stroke-miterlimit="10"/><circle id="s33" r="8.100000" transform="translate(166.090000,239.430000)" fill="none" stroke="rgb(71,74,78)" stroke-width="5" stroke-linecap="round" stroke-miterlimit="10"/><path id="s35" d="M248.100000,275.610000L248.100000,255.680000C248.099306,254.494419,248.570686,253.357350,249.410000,252.520000L257.490000,244.440000C258.329314,243.602650,258.800694,242.465581,258.800000,241.280000L258.800000,221.420000" fill="none" stroke="rgb(71,74,78)" stroke-width="5" stroke-linecap="round" stroke-miterlimit="10"/></g></g></svg>