<svg id="s1" xmlns="http://www.w3.org/2000/svg" xmlns:xlink="http://www.w3.org/1999/xlink" viewBox="0 0 100 100"><path id="s3" d="M49.370000,66.670000L52.890000,66.670000C53.481170,66.611012,54.041514,66.377825,54.500000,66C54.835883,65.542648,55.011619,64.987321,55,64.420000C54.988381,63.852679,54.930000,59.690000,57.130000,59C59.330000,58.310000,62,63.560000,65,65.580000C66.106597,66.463798,67.508294,66.892889,68.920000,66.780000L76.790000,66.670000C78.950000,63.180000,80.910000,66.420000,78.950000,63.180000C78.790000,62.910000,77.810000,60.790000,73.100000,56.410000C68.170000,51.830000,68.830000,52.570000,74.770000,44.650000C78.390000,39.830000,79.840000,36.880000,79.390000,35.650000C78.940000,34.420000,76.300000,34.770000,76.300000,34.770000L67.440000,34.830000C67.048594,34.782852,66.651983,34.852433,66.300000,35.030000C65.957069,35.289432,65.688131,35.634224,65.520000,36.030000C64.604097,38.411765,63.511038,40.721562,62.250000,42.940000C58.310000,49.640000,56.730000,49.990000,56.080000,49.580000C54.580000,48.580000,54.960000,45.680000,54.960000,43.580000C54.960000,37.090000,55.960000,34.380000,53.040000,33.680000C51.688982,33.352621,50.299014,33.214634,48.910000,33.270000C45.750000,33.270000,43.070000,33.270000,41.550000,34.020000C40.550000,34.510000,39.760000,35.610000,40.240000,35.680000C41.248993,35.772295,42.185365,36.244055,42.860000,37C43.770000,38.230000,43.740000,41,43.740000,41C43.740000,41,44.260000,48.640000,42.520000,49.590000C41.320000,50.240000,39.690000,48.910000,36.170000,42.830000C34.971266,40.694218,33.912375,38.482906,33,36.210000C32.839712,35.823324,32.589444,35.480492,32.270000,35.210000C31.858174,34.937250,31.395652,34.750201,30.910000,34.660000L22.490000,34.710000C20.760000,35.300000,21.220000,34.710000,20.760000,35.300000C20.300000,35.890000,20.760000,36.800000,20.760000,36.800000C20.760000,36.800000,27.290000,52.240000,34.750000,60C41.590000,67.130000,49.370000,66.660000,49.370000,66.660000ZM49.370000,66.670000" fill="rgb(84,131,204)" stroke="none" stroke-width="1"/></svg>