<svg id="eVgkJ0mxXua1" xmlns="http://www.w3.org/2000/svg" xmlns:xlink="http://www.w3.org/1999/xlink" viewBox="0 0 400 400" shape-rendering="geometricPrecision" text-rendering="geometricPrecision"><defs><linearGradient id="eVgkJ0mxXua16-fill" x1="186.164042" y1="256.723036" x2="202.831415" y2="165.368727" spreadMethod="pad" gradientUnits="userSpaceOnUse"><stop id="eVgkJ0mxXua16-fill-0" offset="0%" stop-color="rgb(174,197,219)"/><stop id="eVgkJ0mxXua16-fill-1" offset="100%" stop-color="rgb(217,227,239)"/></linearGradient><linearGradient id="eVgkJ0mxXua17-fill" x1="188.270031" y1="167.140013" x2="188.270031" y2="258.467952" spreadMethod="pad" gradientUnits="userSpaceOnUse"><stop id="eVgkJ0mxXua17-fill-0" offset="0%" stop-color="rgb(123,156,192)"/><stop id="eVgkJ0mxXua17-fill-1" offset="100%" stop-color="rgb(184,204,223)"/></linearGradient><linearGradient id="eVgkJ0mxXua20-fill" x1="321.603742" y1="185.549868" x2="347.560022" y2="177.179871" spreadMethod="pad" gradientUnits="userSpaceOnUse"><stop id="eVgkJ0mxXua20-fill-0" offset="0%" stop-color="rgb(181,223,255)"/><stop id="eVgkJ0mxXua20-fill-1" offset="100%" stop-color="rgb(185,234,250)"/></linearGradient><linearGradient id="eVgkJ0mxXua21-fill" x1="336.010554" y1="172.742325" x2="336.010554" y2="202.797392" spreadMethod="pad" gradientUnits="userSpaceOnUse"><stop id="eVgkJ0mxXua21-fill-0" offset="0%" stop-color="rgb(123,156,192)"/><stop id="eVgkJ0mxXua21-fill-1" offset="100%" stop-color="rgb(185,234,250)"/></linearGradient></defs><g id="eVgkJ0mxXua2"><path id="eVgkJ0mxXua3" d="M360.400000,267.500000C361.800000,263.300000,362.500000,258.900000,362.500000,254.200000C362.500000,230.700000,343.400000,211.600000,319.900000,211.600000C296.400000,211.600000,277.300000,230.700000,277.300000,254.200000C277.300000,258.900000,278.100000,263.500000,279.500000,267.700000L360.400000,267.500000L360.400000,267.500000ZM116.400000,270.300000C118.400000,265.400000,119.500000,259.900000,119.500000,254.300000C119.500000,230.800000,100.400000,211.700000,76.900000,211.700000C53.400000,211.700000,34.300000,230.800000,34.300000,254.300000C34.300000,254.600000,34.400000,257.300000,34.400000,257.300000C55.700000,263.800000,77.400000,270.900000,116.400000,270.300000L116.400000,270.300000Z" clip-rule="evenodd" fill="rgb(0,0,0)" fill-rule="evenodd" stroke="none" stroke-width="1"/><path id="eVgkJ0mxXua4" d="M53,172.200000C56,147.600000,119.600000,119.700000,90.300000,114C124.700000,107.800000,161.800000,105.500000,201.200000,110.100000C219.100000,112.200000,253.200000,129.700000,289.600000,160.400000C316.600000,161.800000,335.200000,166.500000,345.400000,174.500000C344.500000,174.400000,343.600000,174.200000,342.800000,174.100000L342.800000,174.100000C313.500000,169.400000,317.200000,182.900000,333.900000,192.300000C334.900000,192.900000,336,193.400000,337.100000,194C339.900000,195.300000,342.100000,196.500000,344.100000,197.600000L344.400000,197.700000L344.900000,198L345.100000,198.100000L345.300000,198.200000L345.500000,198.300000L345.600000,198.300000L345.800000,198.400000L346,198.500000L346.200000,198.600000L346.400000,198.700000C348.800000,200.200000,351,201.800000,353.700000,203.900000L353.700000,203.800000C378,223,383.300000,251.800000,360.400000,267.200000C361.800000,263,362.500000,258.600000,362.500000,253.900000C362.500000,230.400000,343.400000,211.300000,319.900000,211.300000C296.400000,211.300000,277.300000,230.400000,277.300000,253.900000C277.300000,258.600000,278.100000,263.200000,279.500000,267.400000L116.500000,269.900000C118.500000,265,119.600000,259.500000,119.600000,253.900000C119.600000,230.400000,100.500000,211.300000,77,211.300000C53.500000,211.300000,34.400000,230.400000,34.400000,253.900000C34.400000,254.900000,34.400000,255.900000,34.500000,256.900000L34.500000,256.900000C28.200000,255.500000,25.100000,251.700000,25.200000,245.300000C25.800000,228,34,213,49.700000,200.500000L53,172.200000L53,172.200000Z" clip-rule="evenodd" fill="rgb(217,227,239)" fill-rule="evenodd" stroke="none" stroke-width="1"/><path id="eVgkJ0mxXua5" d="M53.600000,169.300000C54.300000,153.500000,58.600000,142.400000,64.200000,134.100000C68.700000,127.400000,53.500000,129.500000,52.900000,125.600000C52.100000,120.700000,73.100000,115.400000,90.200000,114C118.500000,119.500000,60.800000,145.400000,53.600000,169.300000L53.600000,169.300000L53.600000,169.300000Z" clip-rule="evenodd" fill="rgb(51,51,51)" fill-rule="evenodd" stroke="none" stroke-width="1"/><path id="eVgkJ0mxXua6" d="M220.300000,126.800000C243.800000,139.800000,264.300000,156.400000,270,170.600000C207.500000,166.900000,152.900000,161.500000,106.400000,154.400000C109.400000,145.900000,112.700000,137.900000,116.600000,130.600000C122.900000,118.800000,131,116.200000,156.800000,116.400000C185.900000,116.800000,203.600000,117.600000,220.300000,126.800000L220.300000,126.800000Z" clip-rule="evenodd" fill="rgb(40,96,156)" fill-rule="evenodd" stroke="none" stroke-width="1"/><g id="eVgkJ0mxXua7"><path id="eVgkJ0mxXua8" d="M155.100000,116.500000C151.400000,122.500000,148.400000,128.900000,146,135.800000C143.500000,143.100000,141.700000,150.900000,140.600000,159.200000L134.400000,158.400000C135.600000,149.600000,137.500000,141.400000,140.100000,133.800000C142.200000,127.700000,144.800000,122,147.800000,116.600000C150,116.500000,152.500000,116.500000,155.100000,116.500000L155.100000,116.500000Z" clip-rule="evenodd" fill="rgb(51,51,51)" fill-rule="evenodd" stroke="none" stroke-width="1"/><g id="eVgkJ0mxXua9"><path id="eVgkJ0mxXua10" d="M109.600000,145.900000C116.500000,143,124.400000,146.100000,127.500000,152.800000C130.600000,159.600000,127.800000,167.600000,121.100000,170.900000C114.400000,174.200000,106.300000,171.600000,102.800000,165.100000C105.300000,157.400000,107.600000,151,109.600000,145.900000L109.600000,145.900000Z" clip-rule="evenodd" fill="rgb(51,51,51)" fill-rule="evenodd" stroke="none" stroke-width="1"/><path id="eVgkJ0mxXua11" d="M115.300000,147.400000C117.100000,154.900000,114.200000,162.700000,108,167.100000C111.300000,169.800000,115.900000,170.400000,119.900000,168.400000C125.300000,165.700000,127.600000,159.300000,125.100000,153.800000C123.300000,150,119.400000,147.600000,115.300000,147.400000L115.300000,147.400000Z" clip-rule="evenodd" fill="rgb(26,26,26)" fill-rule="evenodd" stroke="none" stroke-width="1"/></g><path id="eVgkJ0mxXua12" d="M270,170.700000C264.900000,157.800000,247.400000,142.900000,226.700000,130.500000C251.900000,142.700000,266.900000,152.100000,282.200000,166.800000C288.700000,173.100000,276.100000,171,270,170.700000L270,170.700000Z" clip-rule="evenodd" fill="rgb(51,51,51)" fill-rule="evenodd" stroke="none" stroke-width="1"/></g><g id="eVgkJ0mxXua13"><path id="eVgkJ0mxXua14" d="M52.200000,179L59.900000,179C64.700000,179,68.700000,183,68.700000,187.800000L68.700000,187.800000C68.700000,192.600000,64.700000,196.600000,59.900000,196.600000L50,196.600000L52.200000,179L52.200000,179Z" clip-rule="evenodd" fill="rgb(204,51,0)" fill-rule="evenodd" stroke="none" stroke-width="1"/><path id="eVgkJ0mxXua15" d="M52.700000,181.400000L53.700000,181.400000L52.900000,193.600000L51.200000,193.600000L52.700000,181.400000L52.700000,181.400000ZM56.400000,181.400000L58.100000,181.400000C61.500000,181.400000,64.200000,184.100000,64.200000,187.500000L64.200000,187.500000C64.200000,190.900000,61.500000,193.600000,58.100000,193.600000L55.600000,193.600000L56.400000,181.400000Z" clip-rule="evenodd" fill="rgb(255,102,51)" fill-rule="evenodd" stroke="none" stroke-width="1"/></g><path id="eVgkJ0mxXua16" d="M260,206.400000C228.900000,188.600000,141.700000,192.600000,70,171C204.800000,195.500000,298.800000,177.500000,328.700000,196.700000C303.100000,197.700000,288.700000,198.500000,280.600000,211.500000C274.800000,220.900000,274.200000,233.900000,262.800000,252.800000C275.400000,219.800000,269.400000,211.800000,260,206.400000L260,206.400000ZM215.300000,248.700000C179.500000,243.900000,152.100000,233.400000,133.300000,217.200000C143.900000,240.800000,171.200000,251.200000,215.300000,248.700000Z" clip-rule="evenodd" fill="url(#eVgkJ0mxXua16-fill)" fill-rule="evenodd" stroke="none" stroke-width="1"/><path id="eVgkJ0mxXua17" d="M102.800000,167.800000C102.200000,171,102.100000,174.300000,102.500000,177.700000C102.900000,181.100000,104,184.700000,105.600000,188.500000C109.500000,197.400000,114,206,119.100000,214.500000C124.200000,223,129.900000,231.400000,136.200000,239.900000C143.200000,249.200000,156.400000,254.200000,176.800000,256.300000C197.300000,258.400000,225,257.600000,261,255.300000C267.600000,239.900000,271.900000,225.300000,273.500000,211.400000C275.100000,197.500000,274.100000,184.400000,269.900000,172.200000C269.800000,171.900000,270,171.600000,270.200000,171.500000C270.500000,171.400000,270.800000,171.600000,270.900000,171.800000C275.100000,184.100000,276.200000,197.400000,274.500000,211.500000C272.900000,225.600000,268.500000,240.400000,261.800000,256C261.700000,256.200000,261.500000,256.300000,261.300000,256.400000C225.100000,258.700000,197.200000,259.500000,176.600000,257.400000C155.800000,255.300000,142.400000,250.200000,135.200000,240.600000C128.800000,232.100000,123.100000,223.700000,118,215.100000C112.900000,206.600000,108.400000,197.900000,104.500000,189C102.800000,185.200000,101.800000,181.500000,101.300000,177.900000C100.800000,174.300000,101,170.900000,101.600000,167.700000C101.700000,167.400000,101.900000,167.200000,102.200000,167.300000C102.600000,167.200000,102.800000,167.500000,102.800000,167.800000L102.800000,167.800000Z" fill="url(#eVgkJ0mxXua17-fill)" stroke="none" stroke-width="1"/><g id="eVgkJ0mxXua18"><path id="eVgkJ0mxXua19" d="M342.700000,174.100000C311.600000,169.100000,317.600000,184.600000,337,193.900000C344.800000,197.600000,348,199.800000,353.700000,204.200000C352.800000,191.500000,351.500000,179.700000,342.700000,174.100000Z" clip-rule="evenodd" fill="rgb(185,234,250)" fill-rule="evenodd" stroke="none" stroke-width="1"/><path id="eVgkJ0mxXua20" d="M333.500000,192.100000C323.200000,175.500000,329.900000,178.200000,348.900000,181C347.400000,178.200000,345.400000,175.900000,342.700000,174.100000C313.600000,169.400000,317.100000,182.700000,333.500000,192.100000L333.500000,192.100000Z" clip-rule="evenodd" fill="url(#eVgkJ0mxXua20-fill)" fill-rule="evenodd" stroke="none" stroke-width="1"/><path id="eVgkJ0mxXua21" d="M338.300000,195.100000C336.900000,194.400000,335.400000,193.700000,333.400000,192.600000C327.300000,189.400000,322.900000,185.600000,321.200000,182.200000C320.400000,180.600000,320.100000,179.100000,320.500000,177.700000C320.900000,176.300000,321.900000,175.100000,323.700000,174.300000C327.100000,172.700000,333.200000,172.100000,342.700000,173.500000L343.700000,173.600000C344,173.600000,344.200000,173.900000,344.200000,174.200000C344.200000,174.500000,343.900000,174.700000,343.600000,174.700000L342.600000,174.600000C333.300000,173.300000,327.400000,173.700000,324.200000,175.300000C322.700000,176,321.900000,177,321.600000,178C321.300000,179.100000,321.500000,180.400000,322.200000,181.700000C323.900000,184.900000,328.100000,188.600000,334,191.700000C335.900000,192.700000,337.500000,193.500000,338.900000,194.200000C343.100000,196.300000,345.400000,197.400000,351.500000,201.800000C351.700000,202,351.800000,202.300000,351.600000,202.500000C351.400000,202.700000,351.100000,202.800000,350.900000,202.600000C344.800000,198.300000,342.400000,197.200000,338.300000,195.100000Z" fill="url(#eVgkJ0mxXua21-fill)" stroke="none" stroke-width="1"/></g></g><g id="eVgkJ0mxXua22"><circle id="eVgkJ0mxXua23" r="38.100000" transform="matrix(1 0 0 1 319.80000000000001 254.19999999999999)" clip-rule="evenodd" fill="rgb(26,26,26)" fill-rule="evenodd" stroke="none" stroke-width="1"/><circle id="eVgkJ0mxXua24" r="21.900000" transform="matrix(1 0 0 1 319.80000000000001 254.19999999999999)" clip-rule="evenodd" fill="rgb(217,227,239)" fill-rule="evenodd" stroke="none" stroke-width="1"/><circle id="eVgkJ0mxXua25" r="7.500000" transform="matrix(1 0 0 1 319.80000000000001 254.19999999999999)" clip-rule="evenodd" fill="rgb(174,197,219)" fill-rule="evenodd" stroke="none" stroke-width="1"/></g><g id="eVgkJ0mxXua26"><circle id="eVgkJ0mxXua27" r="38.100000" transform="matrix(1 0 0 1 76.90000000000001 254.19999999999999)" clip-rule="evenodd" fill="rgb(26,26,26)" fill-rule="evenodd" stroke="none" stroke-width="1"/><circle id="eVgkJ0mxXua28" r="21.900000" transform="matrix(1 0 0 1 76.90000000000001 254.19999999999999)" clip-rule="evenodd" fill="rgb(217,227,239)" fill-rule="evenodd" stroke="none" stroke-width="1"/><circle id="eVgkJ0mxXua29" r="7.500000" transform="matrix(1 0 0 1 76.90000000000001 254.19999999999999)" clip-rule="evenodd" fill="rgb(174,197,219)" fill-rule="evenodd" stroke="none" stroke-width="1"/></g></svg>