<svg id="s1" xmlns="http://www.w3.org/2000/svg" xmlns:xlink="http://www.w3.org/1999/xlink" viewBox="0 0 100 100"><path id="s3" d="M38.840000,74.440000C61.530000,74.440000,73.940000,55.640000,73.940000,39.340000Q73.940000,38.540000,73.940000,37.750000C76.353036,36.001925,78.435537,33.838156,80.090000,31.360000C77.836466,32.354230,75.446543,33.004802,73,33.290000C75.577016,31.750210,77.506748,29.326496,78.430000,26.470000C76.009881,27.908590,73.361794,28.923183,70.600000,29.470000C66.770232,25.432483,60.713209,24.455036,55.807817,27.082925C50.902425,29.710814,48.360482,35.294849,49.600000,40.720000C39.658832,40.238419,30.392841,35.547238,24.120000,27.820000C20.846867,33.457754,22.519341,40.668656,27.940000,44.290000C25.980277,44.231400,24.063247,43.703273,22.350000,42.750000C22.350000,42.800000,22.350000,42.850000,22.350000,42.910000C22.353028,48.782212,26.493726,53.838882,32.250000,55C30.433757,55.494603,28.528329,55.566442,26.680000,55.210000C28.294374,60.234710,32.923300,63.678277,38.200000,63.780000C33.830110,67.208528,28.434339,69.068167,22.880000,69.060000C21.897519,69.060876,20.915832,69.004112,19.940000,68.890000C25.581045,72.513170,32.145620,74.436372,38.850000,74.430000" fill="rgb(84,131,204)" stroke="none" stroke-width="1"/></svg>