<svg id="ezDfwn3WM1s1" xmlns="http://www.w3.org/2000/svg" xmlns:xlink="http://www.w3.org/1999/xlink" viewBox="0 0 400 400" shape-rendering="geometricPrecision" text-rendering="geometricPrecision"><g id="ezDfwn3WM1s2"><path id="ezDfwn3WM1s3" d="M200,25C103.400000,25,25,103.300000,25,200C25,296.700000,103.300000,375,200,375C296.700000,375,375,296.600000,375,200C375,103.400000,296.600000,25,200,25L200,25Z" clip-rule="evenodd" fill="rgb(245,245,243)" fill-rule="evenodd" stroke="none" stroke-width="1"/><g id="ezDfwn3WM1s4"><path id="ezDfwn3WM1s5" d="M301.800000,301.800000C327.900000,275.800000,344,239.800000,344,200C344,173.800000,337,149.200000,324.700000,128" fill="none" stroke="rgb(255,102,51)" stroke-width="30" stroke-linecap="round" stroke-linejoin="round" stroke-miterlimit="20.898600"/><path id="ezDfwn3WM1s6" d="M75.300000,128C63,149.200000,56,173.800000,56,200C56,239.800000,72.100000,275.800000,98.200000,301.800000" fill="none" stroke="rgb(51,204,102)" stroke-width="30" stroke-linecap="round" stroke-linejoin="round" stroke-miterlimit="20.898600"/><path id="ezDfwn3WM1s7" d="M324.700000,128C299.800000,85,253.300000,56,200,56C146.700000,56,100.200000,85,75.300000,128" fill="none" stroke="rgb(255,255,204)" stroke-width="30" stroke-linejoin="round" stroke-miterlimit="20.898600"/></g><path id="ezDfwn3WM1s8" d="M207.100000,175.200000C218.100000,178.300000,225.800000,188.400000,225.800000,200C225.800000,214.200000,214.300000,225.700000,200.100000,225.700000C185.900000,225.700000,174.400000,214.200000,174.400000,200C174.400000,188.500000,182.100000,178.400000,193.100000,175.200000L197.300000,57C197.400000,55.600000,198.500000,54.400000,200,54.400000C201.500000,54.400000,202.600000,55.500000,202.700000,57L207.100000,175.200000L207.100000,175.200000Z" clip-rule="evenodd" fill="rgb(51,51,51)" fill-rule="evenodd" stroke="none" stroke-width="1"/><path id="ezDfwn3WM1s9" d="M250.200000,289.600000L249.300000,289.600000C249.100000,289.600000,248.900000,289.800000,248.900000,290L248.900000,308.800000C248.900000,309,248.700000,309.200000,248.500000,309.200000L218,309.200000C217.800000,309.200000,217.600000,309,217.600000,308.800000L217.600000,278.300000C217.600000,278.100000,217.400000,277.900000,217.200000,277.900000L216.300000,277.900000C216.100000,277.900000,215.900000,278.100000,215.900000,278.300000L215.900000,308.800000C215.900000,309,215.700000,309.200000,215.500000,309.200000L185,309.200000C184.800000,309.200000,184.600000,309,184.600000,308.800000L184.600000,278.300000C184.600000,278.100000,184.400000,277.900000,184.200000,277.900000L183,277.900000C182.800000,277.900000,182.600000,278.100000,182.600000,278.300000L182.600000,308.800000C182.600000,309,182.400000,309.200000,182.200000,309.200000L151.700000,309.200000C151.500000,309.200000,151.300000,309,151.300000,308.800000L151.300000,290C151.300000,289.800000,151.100000,289.600000,150.900000,289.600000L150,289.600000C149.800000,289.600000,149.600000,289.800000,149.600000,290L149.600000,309.200000L149.600000,310.500000C149.600000,310.700000,149.800000,310.900000,150,310.900000L151.300000,310.900000L182.700000,310.900000L184.400000,310.900000L215.800000,310.900000L217.500000,310.900000L248.900000,310.900000L250.200000,310.900000C250.400000,310.900000,250.600000,310.700000,250.600000,310.500000L250.600000,309.200000L250.600000,290C250.600000,289.800000,250.400000,289.600000,250.200000,289.600000L250.200000,289.600000Z" clip-rule="evenodd" fill="rgb(204,204,204)" fill-rule="evenodd" stroke="none" stroke-width="1"/></g></svg>