<svg id="s1" xmlns="http://www.w3.org/2000/svg" xmlns:xlink="http://www.w3.org/1999/xlink" viewBox="0 0 100 100"><path id="s3" d="M54.060000,34.250000L64.350000,34.250000C64.639086,34.250000,64.916332,34.364839,65.120746,34.569254C65.325161,34.773668,65.440000,35.050914,65.440000,35.340000L65.440000,42.920000C65.434513,43.518081,64.948107,44.000025,64.350000,44L54.070000,44C53.780898,44.005256,53.505731,44.125167,53.305057,44.333343C53.104382,44.541519,52.994647,44.820900,53,45.110000L53,59.290000C53.012228,60.763223,53.156134,62.232404,53.430000,63.680000C53.557574,64.039088,53.739710,64.376378,53.970000,64.680000C55.822237,66.480683,58.537769,67.070341,60.970000,66.200000C61.970000,65.880000,63.170000,65.550000,64.410000,65.200000C64.733390,65.104554,65.082692,65.162699,65.357725,65.357758C65.632758,65.552817,65.803138,65.863241,65.820000,66.200000L65.820000,75.420000C65.827449,75.925701,65.489112,76.371317,65,76.500000C62.247835,77.321216,59.400717,77.781730,56.530000,77.870000C54.137035,77.888723,51.752392,77.586018,49.440000,76.970000C43.900000,75.620000,40.760000,72.050000,40.020000,66.100000C40.020000,66.050000,40.020000,58.100000,39.920000,45.100000C39.920392,44.507771,39.451837,44.021535,38.860000,44L35.290000,44C35.000914,44,34.723668,43.885161,34.519254,43.680746C34.314839,43.476332,34.200000,43.199086,34.200000,42.910000L34.200000,35.360000C34.198059,34.791474,34.633412,34.316939,35.200000,34.270000C36.019682,34.245074,36.825850,34.054587,37.570000,33.710000C41.570000,32,44.630000,24.570000,44.870000,23.090000C44.916939,22.523412,45.391474,22.088059,45.960000,22.090000L51.830000,22.090000C52.139766,22.066960,52.444647,22.177175,52.668076,22.392965C52.891505,22.608756,53.012255,22.909620,53,23.220000L53,33.150000C52.994323,33.744346,53.465852,34.233668,54.060000,34.250000Z" fill="rgb(84,131,204)" stroke="none" stroke-width="1"/></svg>