<svg id="s1" xmlns="http://www.w3.org/2000/svg" xmlns:xlink="http://www.w3.org/1999/xlink" viewBox="0 0 100 100"><path id="s3" d="M50,21.150000C39.438994,21.146663,29.720814,26.916105,24.667160,36.189478C19.613506,45.462850,20.032741,56.756818,25.760000,65.630000L21.380000,75.280000C20.967635,76.177469,21.117568,77.233100,21.763522,77.980254C22.409477,78.727408,23.432357,79.028331,24.380000,78.750000L36.450000,75.440000C47.045719,81.088096,60.032285,79.580445,69.052222,71.655106C78.072158,63.729767,81.238069,51.045094,77.000107,39.810775C72.762144,28.576456,62.007090,21.143239,50,21.150000ZM50,73.800000C45.783493,73.802979,41.642013,72.684780,38,70.560000C37.413373,70.218855,36.713950,70.128723,36.060000,70.310000L28.170000,72.470000L30.920000,66.420000C31.295427,65.596084,31.199991,64.634093,30.670000,63.900000C24.254696,54.973835,24.787021,42.815411,31.957898,34.484081C39.128776,26.152751,51.072446,23.816212,60.854242,28.831090C70.636038,33.845969,75.710875,44.907464,73.132230,55.593115C70.553585,66.278766,60.992386,73.808315,50,73.810000ZM64.400000,57.200000C64.518223,57.876674,64.431151,58.573247,64.150000,59.200000C63.150202,61.333450,61.157178,62.831965,58.830000,63.200000C56.700000,63.600000,54.940000,62.930000,52.970000,62.270000C51.217633,61.662393,49.540160,60.857205,47.970000,59.870000C44.817923,57.914830,42.074119,55.367983,39.890000,52.370000C39.210610,51.457148,38.579738,50.509170,38,49.530000C37.209549,48.254063,36.609875,46.869422,36.220000,45.420000C36.076976,44.810242,36.003176,44.186299,36,43.560000C35.921729,41.319750,36.863153,39.164772,38.560000,37.700000C39.558160,36.812528,40.987184,36.600530,42.200000,37.160000C43.440000,37.860000,44.080000,39.620000,44.650000,40.850000C45.215331,41.861634,45.482317,43.012797,45.420000,44.170000C45.098344,45.249658,44.498252,46.225669,43.680000,47C43.219805,47.408164,43.154257,48.102974,43.530000,48.590000C45.686296,52.277844,49.022491,55.131400,53,56.690000C53.455234,56.969382,54.049663,56.841690,54.350000,56.400000C55.060000,55.530000,55.750000,53.820000,56.850000,53.400000C58.270000,52.820000,59.850000,53.620000,61.050000,54.350000C62.250000,55.080000,64.100000,55.820000,64.400000,57.210000Z" fill="rgb(84,131,204)" stroke="none" stroke-width="1"/></svg>