<svg id="s1" xmlns="http://www.w3.org/2000/svg" xmlns:xlink="http://www.w3.org/1999/xlink" viewBox="0 0 100 100"><path id="s3" d="M75.190000,55.450000L75.190000,73.260000C75.190000,73.701828,74.831828,74.060000,74.390000,74.060000L65.200000,74.060000C64.758172,74.060000,64.400000,73.701828,64.400000,73.260000L64.400000,56.700000C64.400000,52.340000,62.840000,49.360000,58.940000,49.360000C56.449917,49.374756,54.237185,50.951278,53.410000,53.300000C53.132242,54.147752,53.010274,55.038790,53.050000,55.930000L53.050000,73.260000C53.050000,73.701828,52.691828,74.060000,52.250000,74.060000L43.060000,74.060000C42.847007,74.062714,42.641943,73.979300,42.491322,73.828678C42.340700,73.678057,42.257286,73.472993,42.260000,73.260000C42.260000,68.850000,42.370000,47.450000,42.260000,42.420000C42.254544,42.205289,42.336746,41.997612,42.487672,41.844799C42.638598,41.691987,42.845238,41.607212,43.060000,41.610000L52.230000,41.610000C52.671828,41.610000,53.030000,41.968172,53.030000,42.410000L53.030000,46.210000L52.960000,46.320000L53.030000,46.320000L53.030000,46.210000C55.019135,42.752757,58.764687,40.687308,62.750000,40.850000C69.850000,40.850000,75.170000,45.490000,75.170000,55.450000ZM26.310000,74.060000L35.500000,74.060000C35.941828,74.060000,36.300000,73.701828,36.300000,73.260000L36.300000,42.410000C36.300000,41.968172,35.941828,41.610000,35.500000,41.610000L26.310000,41.610000C25.868172,41.610000,25.510000,41.968172,25.510000,42.410000L25.510000,73.260000C25.510000,73.701828,25.868172,74.060000,26.310000,74.060000ZM30.580000,25.940000C27.393317,25.940000,24.810000,28.523317,24.810000,31.710000C24.810000,34.896683,27.393317,37.480000,30.580000,37.480000C33.766683,37.480000,36.350000,34.896683,36.350000,31.710000C36.350000,30.179701,35.742091,28.712079,34.660006,27.629994C33.577921,26.547909,32.110299,25.940000,30.580000,25.940000Z" fill="rgb(84,131,204)" stroke="none" stroke-width="1"/></svg>