<svg id="s1" xmlns="http://www.w3.org/2000/svg" xmlns:xlink="http://www.w3.org/1999/xlink" viewBox="0 0 400 400"><defs><radialGradient id="s7-fill" cx="431.850004" cy="-171.620002" r="69.570000" spreadMethod="pad" gradientUnits="userSpaceOnUse"><stop id="s7-fill-0" offset="0%" stop-color="rgb(96,99,106)"/><stop id="s7-fill-1" offset="72%" stop-color="rgb(72,75,78)"/><stop id="s7-fill-2" offset="100%" stop-color="rgb(76,79,84)"/></radialGradient><linearGradient id="s9-fill" x1="40.880003" y1="-29.980000" x2="80.790003" y2="41.600000" spreadMethod="pad" gradientUnits="userSpaceOnUse"><stop id="s9-fill-0" offset="0%" stop-color="rgb(223,235,240)"/><stop id="s9-fill-1" offset="2%" stop-color="rgb(221,233,239)"/><stop id="s9-fill-2" offset="43%" stop-color="rgb(168,194,217)"/><stop id="s9-fill-3" offset="63%" stop-color="rgb(148,179,209)"/><stop id="s9-fill-4" offset="100%" stop-color="rgb(143,143,196)"/></linearGradient><linearGradient id="s13-fill" x1="4.379999" y1="-5.830000" x2="29.819999" y2="23.850000" spreadMethod="pad" gradientUnits="userSpaceOnUse"><stop id="s13-fill-0" offset="0%" stop-color="rgb(245,252,255)"/><stop id="s13-fill-1" offset="30%" stop-color="rgb(223,234,243)"/><stop id="s13-fill-2" offset="64%" stop-color="rgb(203,218,232)"/><stop id="s13-fill-3" offset="100%" stop-color="rgb(187,187,207)"/></linearGradient><linearGradient id="s15-fill" x1="191.230000" y1="134.270000" x2="274.280000" y2="231.160000" spreadMethod="pad" gradientUnits="userSpaceOnUse"><stop id="s15-fill-0" offset="0%" stop-color="rgb(225,236,244)"/><stop id="s15-fill-1" offset="4%" stop-color="rgb(223,235,243)"/><stop id="s15-fill-2" offset="57%" stop-color="rgb(203,218,232)"/><stop id="s15-fill-3" offset="100%" stop-color="rgb(187,187,207)"/></linearGradient><linearGradient id="s17-fill" x1="218.730000" y1="112.160000" x2="269.060000" y2="213.210000" spreadMethod="pad" gradientUnits="userSpaceOnUse"><stop id="s17-fill-0" offset="0%" stop-color="rgb(223,235,240)"/><stop id="s17-fill-1" offset="2%" stop-color="rgb(221,233,239)"/><stop id="s17-fill-2" offset="43%" stop-color="rgb(168,194,217)"/><stop id="s17-fill-3" offset="63%" stop-color="rgb(148,179,209)"/><stop id="s17-fill-4" offset="100%" stop-color="rgb(143,143,196)"/></linearGradient><linearGradient id="s19-fill" x1="112.570000" y1="191.520000" x2="173.070000" y2="300.020000" spreadMethod="pad" gradientUnits="userSpaceOnUse"><stop id="s19-fill-0" offset="0%" stop-color="rgb(223,235,240)"/><stop id="s19-fill-1" offset="2%" stop-color="rgb(221,233,239)"/><stop id="s19-fill-2" offset="43%" stop-color="rgb(168,194,217)"/><stop id="s19-fill-3" offset="63%" stop-color="rgb(148,179,209)"/><stop id="s19-fill-4" offset="100%" stop-color="rgb(143,143,196)"/></linearGradient><linearGradient id="s21-fill" x1="-64.880428" y1="187.924886" x2="19.265279" y2="224.694438" spreadMethod="pad" gradientUnits="userSpaceOnUse"><stop id="s21-fill-0" offset="37%" stop-color="rgb(148,179,209)"/><stop id="s21-fill-1" offset="100%" stop-color="rgb(143,143,196)"/></linearGradient><linearGradient id="s23-fill" x1="-89.867797" y1="206.588181" x2="-62.856318" y2="208.667075" spreadMethod="pad" gradientUnits="userSpaceOnUse"><stop id="s23-fill-0" offset="0%" stop-color="rgb(245,252,255)"/><stop id="s23-fill-1" offset="30%" stop-color="rgb(223,234,243)"/><stop id="s23-fill-2" offset="64%" stop-color="rgb(203,218,232)"/><stop id="s23-fill-3" offset="100%" stop-color="rgb(187,187,207)"/></linearGradient></defs><g id="s3"><g id="s5"><ellipse id="s7" rx="61.820000" ry="58.510000" transform="translate(-6.800000,231.500000) rotate(-45) scale(1,1) translate(276.040000,123.960000)" fill="url(#s7-fill)" stroke="none" stroke-width="1"/><rect id="s9" width="122.030000" height="12.270000" rx="1.850000" ry="1.850000" transform="translate(167.430000,-161.470000) rotate(45) scale(1,1) translate(217.610000,115.240000)" fill="url(#s9-fill)" stroke="none" stroke-width="1"/></g><g id="s11"><rect id="s13" width="29.370000" height="12.380000" rx="4.200000" ry="4.200000" transform="translate(251.660000,41.870000) rotate(45) scale(1,1) translate(60.600000,318.520000)" fill="url(#s13-fill)" stroke="none" stroke-width="1"/><path id="s15" d="M238.150000,211L189,161.850000C188.401842,161.249987,188.329707,160.303751,188.830000,159.620000L207,135C207.298290,134.601051,207.754888,134.351016,208.251687,134.314572C208.748485,134.278127,209.236684,134.458853,209.590000,134.810000L265.170000,190.390000C265.530474,190.740955,265.719219,191.232142,265.686519,191.734179C265.653819,192.236217,265.402953,192.698770,265,193L240.400000,211.150000C239.717267,211.667193,238.758037,211.603244,238.150000,211Z" fill="url(#s15-fill)" stroke="none" stroke-width="1"/><path id="s17" d="M265.350000,190.560000L209.440000,134.650000C208.716566,133.952997,208.622418,132.827506,209.220000,132.020000L213.740000,125.670000C214.078818,125.166566,214.627881,124.844189,215.232603,124.793633C215.837324,124.743078,216.432294,124.969812,216.850000,125.410000L274.580000,183.140000C275.020188,183.557706,275.246922,184.152676,275.196367,184.757397C275.145811,185.362119,274.823434,185.911182,274.320000,186.250000L268,190.780000C267.188758,191.389532,266.049623,191.294963,265.350000,190.560000Z" fill="url(#s17-fill)" stroke="none" stroke-width="1"/><path id="s19" d="M85.180000,333.410000L66.590000,314.820000C64.452126,312.678161,64.304556,309.258023,66.250000,306.940000L188.440000,161.260000L238.740000,211.560000L93.060000,333.760000C90.739439,335.702770,87.319181,335.550855,85.180000,333.410000Z" fill="url(#s19-fill)" stroke="none" stroke-width="1"/><rect id="s21" width="43.640000" height="14.330000" rx="1.370000" ry="1.370000" transform="translate(189.080000,-109.210000) rotate(45) scale(1,1) translate(204.540000,166.470000)" fill="url(#s21-fill)" stroke="none" stroke-width="1"/><rect id="s23" width="13.730000" height="61.170000" rx="6.860000" ry="6.860000" transform="translate(209.350000,-60.270000) rotate(45) scale(1,1) translate(170.570000,191.980000)" fill="url(#s23-fill)" stroke="none" stroke-width="1"/></g></g></svg>