<svg id="e8BhD1JYyMk1" xmlns="http://www.w3.org/2000/svg" xmlns:xlink="http://www.w3.org/1999/xlink" viewBox="0 0 400 400" shape-rendering="geometricPrecision" text-rendering="geometricPrecision"><g id="e8BhD1JYyMk2"><g id="e8BhD1JYyMk3"><path id="e8BhD1JYyMk4" d="M132.200000,287.600000C132.200000,317.200000,108.200000,341.200000,78.600000,341.200000C49,341.200000,25,317.200000,25,287.600000C25,258,49,234,78.600000,234C108.200000,234,132.200000,258,132.200000,287.600000ZM106.600000,287.600000C106.600000,303.100000,94.100000,315.600000,78.600000,315.600000C63.100000,315.600000,50.600000,303.100000,50.600000,287.600000C50.600000,272.100000,63.100000,259.600000,78.600000,259.600000C94.100000,259.600000,106.600000,272.200000,106.600000,287.600000Z" clip-rule="evenodd" fill="rgb(26,26,26)" fill-rule="evenodd" stroke="none" stroke-width="1"/><path id="e8BhD1JYyMk5" d="M106.600000,287.600000C106.600000,303.100000,94.100000,315.600000,78.600000,315.600000C63.100000,315.600000,50.600000,303.100000,50.600000,287.600000C50.600000,272.100000,63.100000,259.600000,78.600000,259.600000C94.100000,259.600000,106.600000,272.200000,106.600000,287.600000ZM67.500000,298.700000C69.200000,300.400000,69.200000,303.100000,67.500000,304.700000C65.800000,306.400000,63.100000,306.400000,61.500000,304.700000C59.800000,303,59.800000,300.300000,61.500000,298.700000C63.100000,297.100000,65.800000,297.100000,67.500000,298.700000ZM78.600000,303.400000C81,303.400000,82.900000,305.300000,82.900000,307.700000C82.900000,310.100000,81,312,78.600000,312C76.200000,312,74.300000,310.100000,74.300000,307.700000C74.400000,305.300000,76.300000,303.400000,78.600000,303.400000ZM89.700000,298.700000C91.400000,297,94.100000,297,95.700000,298.700000C97.400000,300.400000,97.400000,303.100000,95.700000,304.700000C94,306.400000,91.300000,306.400000,89.700000,304.700000C88.100000,303.100000,88.100000,300.400000,89.700000,298.700000ZM94.300000,287.600000C94.300000,285.200000,96.200000,283.300000,98.600000,283.300000C101,283.300000,102.900000,285.200000,102.900000,287.600000C102.900000,290,101,291.900000,98.600000,291.900000C96.300000,291.900000,94.300000,290,94.300000,287.600000ZM89.700000,276.500000C88,274.800000,88,272.100000,89.700000,270.500000C91.400000,268.800000,94.100000,268.800000,95.700000,270.500000C97.400000,272.200000,97.400000,274.900000,95.700000,276.500000C94.100000,278.200000,91.400000,278.200000,89.700000,276.500000ZM78.600000,271.900000C76.200000,271.900000,74.300000,270,74.300000,267.600000C74.300000,265.200000,76.200000,263.300000,78.600000,263.300000C81,263.300000,82.900000,265.200000,82.900000,267.600000C82.900000,270,81,271.900000,78.600000,271.900000ZM67.500000,276.500000C65.800000,278.200000,63.100000,278.200000,61.500000,276.500000C59.800000,274.800000,59.800000,272.100000,61.500000,270.500000C63.200000,268.800000,65.900000,268.800000,67.500000,270.500000C69.200000,272.100000,69.200000,274.800000,67.500000,276.500000ZM62.900000,287.600000C62.900000,290,61,291.900000,58.600000,291.900000C56.200000,291.900000,54.300000,290,54.300000,287.600000C54.300000,285.200000,56.200000,283.300000,58.600000,283.300000C61,283.400000,62.900000,285.300000,62.900000,287.600000Z" clip-rule="evenodd" fill="rgb(179,179,179)" fill-rule="evenodd" stroke="none" stroke-width="1"/></g><g id="e8BhD1JYyMk6"><path id="e8BhD1JYyMk7" d="M168.400000,257.200000C172,256.200000,175.800000,258.400000,176.800000,262C177.800000,265.600000,175.600000,269.400000,172,270.400000L78,295.600000C74.400000,296.600000,70.600000,294.400000,69.600000,290.800000C68.600000,287.200000,70.800000,283.400000,74.400000,282.400000L168.400000,257.200000Z" fill="rgb(0,0,0)" stroke="none" stroke-width="1"/><g id="e8BhD1JYyMk8"><path id="e8BhD1JYyMk9" d="M100.400000,227.800000C100.600000,225.900000,102.200000,224.500000,104.100000,224.700000C106,224.900000,107.400000,226.500000,107.200000,228.400000L102.100000,283.200000C101.900000,285.100000,100.300000,286.500000,98.400000,286.300000C96.500000,286.100000,95.100000,284.500000,95.300000,282.600000L100.400000,227.800000Z" fill="rgb(128,128,128)" stroke="none" stroke-width="1"/><path id="e8BhD1JYyMk10" d="M101.800000,198C102,195.400000,104.400000,193.400000,107,193.700000C109.600000,193.900000,111.600000,196.300000,111.300000,198.900000L107.100000,244C106.900000,246.600000,104.500000,248.600000,101.900000,248.300000C99.300000,248.100000,97.300000,245.700000,97.600000,243.100000L101.800000,198Z" fill="rgb(0,0,0)" stroke="none" stroke-width="1"/></g></g></g><g id="e8BhD1JYyMk11"><path id="e8BhD1JYyMk12" d="M155.200000,286.400000L220.600000,286.400000C235.100000,286.400000,244.300000,278.500000,248.200000,265L251.800000,252.500000C257,234.200000,231.600000,198.400000,197.100000,198.400000L106.600000,198.400000C146.700000,220.900000,154.300000,258.100000,155.200000,286.400000L155.200000,286.400000Z" clip-rule="evenodd" fill="rgb(26,26,26)" fill-rule="evenodd" stroke="none" stroke-width="1"/><path id="e8BhD1JYyMk13" d="M220.600000,281.300000C226.600000,281.300000,231.400000,279.800000,235,277C242.900000,270.800000,245.500000,255.600000,248.200000,246.100000C246.900000,226.500000,225,207.600000,206.600000,203.700000L123.300000,203.700000C148,223.300000,158.200000,250.600000,160,281.400000L220.600000,281.400000ZM57.100000,197.500000C72.300000,192.500000,97.100000,193.400000,106.500000,193.400000L279,193.400000C281.800000,193.400000,284.100000,195.700000,284.100000,198.500000C284.100000,201.100000,282.200000,203.200000,279.700000,203.600000C276.800000,204.300000,274.300000,205.800000,272.300000,207.700000C260.100000,219.800000,260.700000,270,241.200000,285.100000C235.700000,289.300000,228.800000,291.600000,220.500000,291.600000L155.100000,291.600000C152.100000,291.600000,149.900000,289.200000,150,286.200000C148.900000,252.300000,133.300000,209.200000,95.600000,202.100000C83.300000,199.800000,70.400000,200.400000,59.200000,204C50.900000,206.600000,43.600000,210.900000,38.100000,216.700000C36.800000,218.100000,34.700000,218.100000,33.300000,216.800000C31.900000,215.500000,31.900000,213.400000,33.200000,212C39.400000,205.300000,47.800000,200.400000,57.100000,197.500000L57.100000,197.500000ZM227.800000,203.600000C238.200000,210.100000,247.300000,220.100000,252.500000,231.200000C254.900000,222.800000,257.300000,210.500000,262.400000,203.600000L227.800000,203.600000L227.800000,203.600000Z" fill="rgb(0,0,0)" stroke="none" stroke-width="1"/><path id="e8BhD1JYyMk14" d="M221,243C211.600000,243,203.900000,250.700000,203.900000,260.100000C203.900000,269.500000,211.600000,277.200000,221,277.200000C230.400000,277.200000,238.100000,269.500000,238.100000,260.100000C238.100000,250.700000,230.400000,243,221,243L221,243Z" clip-rule="evenodd" fill="rgb(102,102,102)" fill-rule="evenodd" stroke="none" stroke-width="1"/></g><g id="e8BhD1JYyMk15"><path id="e8BhD1JYyMk16" d="M224.200000,149.100000C239.600000,146.400000,248,157,251.400000,173L253.600000,183.200000C255.200000,190.600000,247.400000,196.900000,239.900000,196.900000L159.400000,196.900000C158.100000,196.900000,156.900000,195.800000,157.100000,194.600000L159.600000,174.800000C161.300000,161.700000,170.600000,158.600000,183.500000,156.300000L224.200000,149.100000L224.200000,149.100000Z" clip-rule="evenodd" fill="rgb(153,153,255)" fill-rule="evenodd" stroke="none" stroke-width="1"/><g id="e8BhD1JYyMk17"><polygon id="e8BhD1JYyMk18" points="203.500000,151.700000 222.800000,148.200000 222.300000,145.200000 203,148.700000" clip-rule="evenodd" fill="rgb(77,77,77)" fill-rule="evenodd" stroke="none" stroke-width="1"/><polygon id="e8BhD1JYyMk19" points="205.200000,152.600000 221.500000,149.700000 221.300000,148.500000 205,151.400000" clip-rule="evenodd" fill="rgb(26,26,26)" fill-rule="evenodd" stroke="none" stroke-width="1"/></g></g><path id="e8BhD1JYyMk20" d="M92.500000,196.900000C79.900000,196.900000,69.100000,187.500000,62.600000,177.500000C59.500000,172.800000,58.100000,167.800000,62.900000,164.700000C67.600000,161.600000,71.200000,161.600000,74.300000,166.300000C76.700000,170,81.500000,176.400000,92.600000,176.400000L147.400000,176.400000C156.300000,176.400000,158,196.900000,149.900000,196.900000L92.500000,196.900000Z" fill="rgb(102,51,51)" stroke="none" stroke-width="1"/><g id="e8BhD1JYyMk21"><g id="e8BhD1JYyMk22"><path id="e8BhD1JYyMk23" d="M321.400000,234C351,234,375,258,375,287.600000C375,317.200000,351,341.200000,321.400000,341.200000C291.800000,341.200000,267.800000,317.200000,267.800000,287.600000C267.800000,258,291.800000,234,321.400000,234L321.400000,234ZM321.400000,259.600000C336.900000,259.600000,349.400000,272.100000,349.400000,287.600000C349.400000,303.100000,336.900000,315.600000,321.400000,315.600000C305.900000,315.600000,293.400000,303.100000,293.400000,287.600000C293.400000,272.200000,305.900000,259.600000,321.400000,259.600000L321.400000,259.600000Z" clip-rule="evenodd" fill="rgb(26,26,26)" fill-rule="evenodd" stroke="none" stroke-width="1"/><path id="e8BhD1JYyMk24" d="M321.400000,259.600000C336.900000,259.600000,349.400000,272.100000,349.400000,287.600000C349.400000,303.100000,336.900000,315.600000,321.400000,315.600000C305.900000,315.600000,293.400000,303.100000,293.400000,287.600000C293.400000,272.100000,305.900000,259.600000,321.400000,259.600000L321.400000,259.600000ZM310.300000,298.700000C312,300.400000,312,303.100000,310.300000,304.700000C308.600000,306.400000,305.900000,306.400000,304.300000,304.700000C302.600000,303,302.600000,300.300000,304.300000,298.700000C305.900000,297.100000,308.600000,297.100000,310.300000,298.700000ZM321.400000,303.400000C323.800000,303.400000,325.700000,305.300000,325.700000,307.700000C325.700000,310.100000,323.800000,312,321.400000,312C319,312,317.100000,310.100000,317.100000,307.700000C317.100000,305.300000,319,303.400000,321.400000,303.400000ZM332.500000,298.700000C334.200000,297,336.900000,297,338.500000,298.700000C340.200000,300.400000,340.200000,303.100000,338.500000,304.700000C336.800000,306.400000,334.100000,306.400000,332.500000,304.700000C330.800000,303.100000,330.800000,300.400000,332.500000,298.700000ZM341.400000,291.900000C339,291.900000,337.100000,290,337.100000,287.600000C337.100000,285.200000,339,283.300000,341.400000,283.300000C343.800000,283.300000,345.700000,285.200000,345.700000,287.600000C345.700000,290,343.700000,291.900000,341.400000,291.900000L341.400000,291.900000ZM332.500000,276.500000C330.800000,274.800000,330.800000,272.100000,332.500000,270.500000C334.200000,268.800000,336.900000,268.800000,338.500000,270.500000C340.200000,272.200000,340.200000,274.900000,338.500000,276.500000C336.900000,278.200000,334.200000,278.200000,332.500000,276.500000ZM321.400000,271.900000C319,271.900000,317.100000,270,317.100000,267.600000C317.100000,265.200000,319,263.300000,321.400000,263.300000C323.800000,263.300000,325.700000,265.200000,325.700000,267.600000C325.600000,270,323.700000,271.900000,321.400000,271.900000ZM310.300000,276.500000C308.600000,278.200000,305.900000,278.200000,304.300000,276.500000C302.600000,274.800000,302.600000,272.100000,304.300000,270.500000C306,268.800000,308.700000,268.800000,310.300000,270.500000C311.900000,272.100000,311.900000,274.800000,310.300000,276.500000ZM305.700000,287.600000C305.700000,290,303.800000,291.900000,301.400000,291.900000C299,291.900000,297.100000,290,297.100000,287.600000C297.100000,285.200000,299,283.300000,301.400000,283.300000C303.700000,283.400000,305.700000,285.300000,305.700000,287.600000Z" clip-rule="evenodd" fill="rgb(179,179,179)" fill-rule="evenodd" stroke="none" stroke-width="1"/></g><g id="e8BhD1JYyMk25"><path id="e8BhD1JYyMk26" d="M294.700000,219.900000L326,286.400000C327.200000,289,326.100000,292,323.600000,293.200000C321,294.400000,318,293.300000,316.800000,290.800000L285.500000,224.300000C284.300000,221.700000,285.400000,218.700000,287.900000,217.500000C290.400000,216.200000,293.500000,217.300000,294.700000,219.900000L294.700000,219.900000Z" fill="rgb(102,102,102)" stroke="none" stroke-width="1"/><path id="e8BhD1JYyMk27" d="M323.600000,277.200000L327.600000,285.600000C329.200000,289,327.700000,293.100000,324.300000,294.700000C320.900000,296.300000,316.800000,294.800000,315.200000,291.400000L311.200000,283C309.600000,279.600000,311.100000,275.500000,314.500000,273.900000C317.900000,272.300000,322,273.800000,323.600000,277.200000L323.600000,277.200000Z" fill="rgb(0,0,0)" stroke="none" stroke-width="1"/></g><path id="e8BhD1JYyMk28" d="M308.800000,245.700000C310.400000,249.100000,308.900000,253.200000,305.500000,254.800000C302.100000,256.400000,298,254.900000,296.400000,251.500000L256.200000,166.200000C254.600000,162.800000,256.100000,158.700000,259.500000,157.100000C262.900000,155.500000,267,157,268.600000,160.400000L308.800000,245.700000Z" fill="rgb(0,0,0)" stroke="none" stroke-width="1"/><g id="e8BhD1JYyMk29"><path id="e8BhD1JYyMk30" d="M267.300000,173.300000C272.500000,170.500000,276.500000,166.300000,279.200000,161.300000C281.800000,156.300000,283.100000,150.600000,282.500000,144.700000C282,138.900000,279.700000,133.400000,276.200000,129L276.200000,129C272.900000,124.900000,268.500000,121.700000,263.400000,119.800000L263.400000,121.100000C263.400000,122.500000,262.200000,123.700000,260.700000,123.700000L256.500000,123.700000C255,123.700000,253.800000,122.500000,253.800000,121.100000L253.800000,119.600000L233,119.600000C231.100000,119.600000,229.600000,118.100000,229.600000,116.200000C229.600000,114.300000,231.100000,112.800000,233,112.800000L253.700000,112.800000L253.700000,111.300000C253.700000,109.900000,254.900000,108.700000,256.400000,108.700000L260.600000,108.700000C262.100000,108.700000,263.300000,109.900000,263.300000,111.300000L263.300000,112.800000C263.600000,112.800000,264,112.900000,264.300000,113C271.200000,115.200000,277.100000,119.400000,281.400000,124.800000L281.400000,124.800000C285.700000,130.200000,288.500000,136.900000,289.200000,144.100000C289.900000,151.300000,288.400000,158.300000,285.100000,164.500000C281.800000,170.600000,276.800000,175.800000,270.500000,179.300000C268.800000,180.200000,266.800000,179.600000,265.900000,177.900000C265,176.300000,265.700000,174.200000,267.300000,173.300000L267.300000,173.300000Z" fill="rgb(0,0,0)" stroke="none" stroke-width="1"/><path id="e8BhD1JYyMk31" d="M257.300000,58.800000L254.100000,94.700000C257.300000,95,260.500000,89.800000,262.100000,82.500000C264,87.200000,264.800000,92.200000,264.400000,97.100000C264,103.500000,261.600000,109.800000,257.500000,115.200000C256.900000,115.900000,257.100000,117,257.800000,117.600000C258.500000,118.200000,259.600000,118,260.200000,117.300000C264.800000,111.400000,267.300000,104.500000,267.800000,97.400000C268.300000,90.300000,266.700000,83.100000,262.900000,76.600000L262.900000,76.500000C263.500000,66.900000,261.100000,59.100000,257.300000,58.800000L257.300000,58.800000Z" clip-rule="evenodd" fill="rgb(0,0,0)" fill-rule="evenodd" stroke="none" stroke-width="1"/></g></g><g id="e8BhD1JYyMk32"><path id="e8BhD1JYyMk33" d="M299.500000,163L299.500000,193.900000C298.900000,193.900000,298.200000,194,297.400000,194C283.700000,194,272.600000,187.100000,272.600000,178.500000C272.600000,169.900000,283.700000,163,297.400000,163C298.200000,162.900000,298.900000,162.900000,299.500000,163Z" clip-rule="evenodd" fill="rgb(26,26,26)" fill-rule="evenodd" stroke="none" stroke-width="1"/><path id="e8BhD1JYyMk34" d="M299.500000,193.900000L299.500000,163C301,163.100000,302.300000,163.300000,303.400000,163.500000L303.400000,193.300000C302.300000,193.600000,301,193.800000,299.500000,193.900000L299.500000,193.900000Z" clip-rule="evenodd" fill="rgb(153,153,255)" fill-rule="evenodd" stroke="none" stroke-width="1"/><path id="e8BhD1JYyMk35" d="M303.400000,190.800000C304.400000,190.800000,305.300000,185.300000,305.300000,178.400000C305.300000,171.600000,304.500000,166,303.400000,166L303.400000,190.800000Z" clip-rule="evenodd" fill="rgb(255,204,0)" fill-rule="evenodd" stroke="none" stroke-width="1"/></g></svg>