<svg id="s1" xmlns="http://www.w3.org/2000/svg" xmlns:xlink="http://www.w3.org/1999/xlink" viewBox="0 0 400 400"><g id="s3"><g id="s5"><path id="s7" d="M355.480000,312C354.870000,287.650000,334.890000,271.830000,310.400000,271.830000C285.910000,271.830000,265.930000,287.650000,265.320000,312Z" fill="rgb(72,92,48)" stroke="none" stroke-width="1"/><path id="s9" d="M134.190000,312C133.252243,288.602329,114.011455,270.117248,90.595000,270.117248C67.178545,270.117248,47.937757,288.602329,47,312Z" fill="rgb(72,92,48)" stroke="none" stroke-width="1"/></g><g id="s11"><circle id="s13" r="35.110000" transform="translate(310.400000,313.140000)" fill="rgb(64,57,69)" stroke="none" stroke-width="1"/><circle id="s15" r="19.970000" transform="translate(310.400000,313.140000)" fill="rgb(224,224,224)" stroke="none" stroke-width="1"/><circle id="s17" r="7.770000" transform="translate(310.400000,313.140000)" fill="rgb(168,168,168)" stroke="none" stroke-width="1"/><circle id="s19" r="2.430000" transform="translate(310.400000,299.670000)" fill="rgb(168,168,168)" stroke="none" stroke-width="1"/><circle id="s21" r="2.430000" transform="translate(-113.310000,382.110000) rotate(-54.000012) skewX(0) scale(1,1) translate(318.320000,302.240000)" fill="rgb(168,168,168)" stroke="none" stroke-width="1"/><circle id="s23" r="2.430000" transform="translate(-79.660000,115) rotate(-17.999992) scale(1,1) translate(323.210000,308.980000)" fill="rgb(168,168,168)" stroke="none" stroke-width="1"/><circle id="s25" r="2.430000" transform="translate(-78.440000,526.640000) rotate(-72.000008) scale(1,1) translate(323.210000,317.300000)" fill="rgb(168,168,168)" stroke="none" stroke-width="1"/><circle id="s27" r="2.430000" transform="translate(-129.670000,248.990000) rotate(-35.999988) skewX(-0) scale(1,1) translate(318.320000,324.030000)" fill="rgb(168,168,168)" stroke="none" stroke-width="1"/><circle id="s29" r="2.430000" transform="translate(310.400000,326.600000)" fill="rgb(168,168,168)" stroke="none" stroke-width="1"/><circle id="s31" r="2.430000" transform="translate(-137.460000,378.290000) rotate(-54.000012) skewX(0) scale(1,1) translate(302.490000,324.030000)" fill="rgb(168,168,168)" stroke="none" stroke-width="1"/><circle id="s33" r="2.430000" transform="translate(-83.490000,107.490000) rotate(-18.072322) scale(0.999300,0.999300) translate(297.590000,317.300000)" fill="rgb(168,168,168)" stroke="none" stroke-width="1"/><circle id="s35" r="2.430000" transform="translate(-88.220000,496.530000) rotate(-72.000008) scale(1,1) translate(297.590000,308.980000)" fill="rgb(168,168,168)" stroke="none" stroke-width="1"/><circle id="s37" r="2.430000" transform="translate(-119.880000,235.520000) rotate(-35.999988) skewX(-0) scale(1,1) translate(302.490000,302.240000)" fill="rgb(168,168,168)" stroke="none" stroke-width="1"/></g><g id="s39"><circle id="s41" r="35.110000" transform="translate(90.570000,313.140000)" fill="rgb(64,57,69)" stroke="none" stroke-width="1"/><circle id="s43" r="19.970000" transform="translate(90.570000,313.140000)" fill="rgb(224,224,224)" stroke="none" stroke-width="1"/><circle id="s45" r="7.770000" transform="translate(90.570000,313.140000)" fill="rgb(168,168,168)" stroke="none" stroke-width="1"/><circle id="s47" r="2.430000" transform="translate(90.570000,299.670000)" fill="rgb(168,168,168)" stroke="none" stroke-width="1"/><circle id="s49" r="2.430000" transform="translate(-203.920000,204.270000) rotate(-54.000012) skewX(0) scale(1,1) translate(98.490000,302.240000)" fill="rgb(168,168,168)" stroke="none" stroke-width="1"/><circle id="s51" r="2.430000" transform="translate(-90.420000,47.070000) rotate(-17.999992) scale(1,1) translate(103.380000,308.980000)" fill="rgb(168,168,168)" stroke="none" stroke-width="1"/><circle id="s53" r="2.430000" transform="translate(-230.340000,317.570000) rotate(-72.000008) scale(1,1) translate(103.380000,317.300000)" fill="rgb(168,168,168)" stroke="none" stroke-width="1"/><circle id="s55" r="2.430000" transform="translate(-171.650000,119.770000) rotate(-36.069410) skewX(-0) scale(1.002098,1.002098) translate(98.490000,324.030000)" fill="rgb(168,168,168)" stroke="none" stroke-width="1"/><circle id="s57" r="2.430000" transform="translate(90.570000,326.600000)" fill="rgb(168,168,168)" stroke="none" stroke-width="1"/><circle id="s59" r="2.430000" transform="translate(-228.070000,200.440000) rotate(-54.000012) skewX(0) scale(1,1) translate(82.660000,324.030000)" fill="rgb(168,168,168)" stroke="none" stroke-width="1"/><circle id="s61" r="2.430000" transform="translate(-94.240000,39.560000) rotate(-18.072322) scale(0.999300,0.999300) translate(77.770000,317.300000)" fill="rgb(168,168,168)" stroke="none" stroke-width="1"/><circle id="s63" r="2.430000" transform="translate(-240.120000,287.460000) rotate(-72.000008) scale(1,1) translate(77.770000,308.980000)" fill="rgb(168,168,168)" stroke="none" stroke-width="1"/><circle id="s65" r="2.430000" transform="translate(-161.870000,106.310000) rotate(-35.999988) skewX(-0) scale(1,1) translate(82.660000,302.240000)" fill="rgb(168,168,168)" stroke="none" stroke-width="1"/></g><g id="s67"><rect id="s69" width="22.450000" height="18.790000" rx="5.950000" ry="5.950000" transform="translate(730.240000,562.460000) rotate(180) translate(353.900000,271.830000)" fill="rgb(245,236,213)" stroke="none" stroke-width="1"/><path id="s71" d="M29.610000,275.770000L37.150000,275.770000C40.463708,275.770000,43.150000,278.456292,43.150000,281.770000L43.150000,288.650000C43.150000,291.963708,40.463708,294.650000,37.150000,294.650000L26.610000,294.650000C24.953146,294.650000,23.610000,293.306854,23.610000,291.650000L23.610000,281.770000C23.610000,278.456292,26.296292,275.770000,29.610000,275.770000Z" transform="translate(66.760000,570.330000) rotate(180)" fill="rgb(219,126,86)" stroke="none" stroke-width="1"/><path id="s73" d="M255,256.500000L273,256.500000C273.018300,256.498023,273.034680,256.487756,273.044435,256.472147C273.054191,256.456538,273.056242,256.437316,273.050000,256.420000L240.800000,174.420000C240.414236,173.442796,239.470590,172.800483,238.420000,172.800000L234.850000,172.800000C234.063277,172.808811,233.324301,173.178887,232.846014,173.803589C232.367727,174.428290,232.203258,175.238224,232.400000,176L254.930000,256.450000C254.932441,256.466017,254.941257,256.480366,254.954441,256.489783C254.967625,256.499200,254.984057,256.502885,255,256.500000Z" fill="rgb(128,158,90)" stroke="none" stroke-width="1"/><g id="s75"><rect id="s77" width="6.650000" height="41.440000" rx="3.220000" ry="3.220000" transform="translate(291.790000,535.390000) rotate(209.900006) scale(1,1) translate(214.050000,208.020000)" fill="rgb(64,57,69)" stroke="none" stroke-width="1"/><rect id="s79" width="5.310000" height="44.870000" rx="2.380000" ry="2.380000" transform="translate(558.150000,154.230000) rotate(119.900006) scale(1,1) translate(231.810000,216.130000)" fill="rgb(64,57,69)" stroke="none" stroke-width="1"/></g><path id="s81" d="M210.480000,285.160000L206.240000,264.740000L164.880000,260.500000C149.280000,225.630000,149.200000,225,149.280000,225.630000C149.360000,226.260000,148.700000,284.260000,148.700000,284.260000Z" fill="rgb(96,96,96)" stroke="none" stroke-width="1"/><line id="s83" x1="130.970000" y1="170.880000" x2="147.110000" y2="240.480000" fill="none" stroke="rgb(96,96,96)" stroke-width="8.841000" stroke-linecap="round" stroke-miterlimit="10"/><line id="s85" x1="134.380000" y1="188.800000" x2="73.130000" y2="238.710000" fill="none" stroke="rgb(96,96,96)" stroke-width="8.841000" stroke-linecap="round" stroke-miterlimit="10"/><path id="s87" d="M351.790000,263.090000L351.790000,249.900000C351.768020,241.591713,345.038287,234.861980,336.730000,234.840000L248.440000,234.840000C246.418638,234.840000,244.780000,236.478638,244.780000,238.500000L244.780000,269.430000C244.763503,276.696746,238.876746,282.583503,231.610000,282.600000L163.140000,282.600000C155.888861,282.567073,150.021899,276.691180,150,269.440000L150,238.510000C150,236.488638,148.361362,234.850000,146.340000,234.850000L39.200000,234.850000C35.476637,234.860983,32.460983,237.876637,32.450000,241.600000L32.450000,302.420000L48.290000,302.420000C53.191794,283.065074,70.609010,269.509023,90.575000,269.509023C110.540990,269.509023,127.958206,283.065074,132.860000,302.420000L266.650000,302.420000C271.550000,283.590000,289.290000,271.840000,310.400000,271.840000C331.510000,271.840000,349.250000,283.590000,354.150000,302.420000L358.050000,302.420000L358.050000,294.610000L366.460000,294.610000C367.989829,294.610000,369.230000,293.369829,369.230000,291.840000L369.230000,283.580000C369.195448,273.409378,361.824420,264.749265,351.790000,263.090000Z" fill="rgb(128,158,90)" stroke="none" stroke-width="1"/><path id="s89" d="M133.420000,291.920000L251.940000,291.920000C253.293098,291.920000,254.390000,293.016902,254.390000,294.370000L254.390000,294.560000C254.390000,295.913098,253.293098,297.010000,251.940000,297.010000L247.220000,297.010000L247.220000,304.480000C247.214549,305.278544,246.568544,305.924549,245.770000,305.930000L135,305.930000C134.201456,305.924549,133.555451,305.278544,133.550000,304.480000L133.550000,297L133.390000,297C132.036902,297,130.940000,295.903098,130.940000,294.550000L130.940000,294.360000C130.942617,293.706724,131.206030,293.081547,131.671710,292.623378C132.137390,292.165208,132.766767,291.911995,133.420000,291.920000Z" fill="rgb(154,181,118)" stroke="none" stroke-width="1"/><path id="s91" d="M47.940000,301.210000L29.590000,301.210000C27.592649,301.124305,25.709230,302.141060,24.684993,303.857945C23.660756,305.574830,23.660756,307.715170,24.684993,309.432055C25.709230,311.148940,27.592649,312.165695,29.590000,312.080000L47.940000,312.080000Z" fill="rgb(89,112,60)" stroke="none" stroke-width="1"/><rect id="s93" width="134.330000" height="10.870000" rx="0" ry="0" transform="translate(132.440000,301.210000)" fill="rgb(89,112,60)" stroke="none" stroke-width="1"/><path id="s95" d="M367.280000,301.210000L354.600000,301.210000L354.600000,312.080000L367.280000,312.080000C369.277351,312.165695,371.160770,311.148940,372.185007,309.432055C373.209244,307.715170,373.209244,305.574830,372.185007,303.857945C371.160770,302.141060,369.277351,301.124305,367.280000,301.210000Z" fill="rgb(89,112,60)" stroke="none" stroke-width="1"/><path id="s97" d="M262.910000,312.080000L262.910000,303.250000C263.489746,287.406833,276.476303,274.848452,292.330000,274.800000L328.470000,274.800000C344.323697,274.848452,357.310254,287.406833,357.890000,303.250000L357.890000,312.080000" fill="none" stroke="rgb(89,112,60)" stroke-width="13" stroke-linecap="round" stroke-miterlimit="10"/><rect id="s99" width="7.470000" height="20.060000" rx="2.970000" ry="2.970000" transform="translate(742.490000,613.300000) rotate(180) translate(367.510000,296.620000)" fill="rgb(89,112,60)" stroke="none" stroke-width="1"/><path id="s101" d="M135.510000,313.140000C135.510000,288.320323,115.389677,268.200000,90.570000,268.200000C65.750323,268.200000,45.630000,288.320323,45.630000,313.140000" fill="none" stroke="rgb(89,112,60)" stroke-width="13" stroke-linecap="round" stroke-miterlimit="10"/><path id="s103" d="M160.430000,263.920000C161.112058,265.677246,162.805032,266.833714,164.690000,266.830000L207.160000,266.830000C211.160000,266.830000,217.890000,254.500000,204.510000,249C191.130000,243.500000,176.600000,255,172.300000,251.400000C168,247.800000,172.140000,233.970000,163.420000,219.750000C154.700000,205.530000,151.560000,198.380000,150.420000,190.030000C149.090000,179.860000,138.960000,180.250000,140.500000,193.890000C142.250000,209,154,247.150000,160.430000,263.920000Z" fill="rgb(64,57,69)" stroke="none" stroke-width="1"/><path id="s105" d="M348.220000,256.500000L271.350000,256.500000C270.477438,256.500000,269.640613,256.153376,269.023619,255.536381C268.406624,254.919387,268.060000,254.082562,268.060000,253.210000L268.060000,238.570000" fill="none" stroke="rgb(154,181,118)" stroke-width="2.579350" stroke-linecap="round" stroke-miterlimit="10"/><path id="s107" d="M105.810000,237.600000L105.810000,243.790000C105.810000,244.894569,104.914569,245.790000,103.810000,245.790000L34.810000,245.790000" fill="none" stroke="rgb(154,181,118)" stroke-width="2.579350" stroke-linecap="round" stroke-miterlimit="10"/></g></g></svg>