<svg id="edzS5BeiL181" xmlns="http://www.w3.org/2000/svg" xmlns:xlink="http://www.w3.org/1999/xlink" viewBox="0 0 400 400" shape-rendering="geometricPrecision" text-rendering="geometricPrecision"><g id="edzS5BeiL182"><circle id="edzS5BeiL183" r="42.200000" transform="matrix(1 0 0 1 332.80000000000001 320.69999999999999)" clip-rule="evenodd" fill="rgb(51,51,51)" fill-rule="evenodd" stroke="none" stroke-width="1"/><circle id="edzS5BeiL184" r="25.600000" transform="matrix(1 0 0 1 332.80000000000001 320.69999999999999)" clip-rule="evenodd" fill="rgb(77,77,77)" fill-rule="evenodd" stroke="none" stroke-width="1"/><circle id="edzS5BeiL185" r="19.400000" transform="matrix(1 0 0 1 332.80000000000001 320.69999999999999)" clip-rule="evenodd" fill="rgb(26,26,26)" fill-rule="evenodd" stroke="none" stroke-width="1"/></g><g id="edzS5BeiL186"><circle id="edzS5BeiL187" r="42.200000" transform="matrix(1 0 0 1 72.59999999999999 320.69999999999999)" clip-rule="evenodd" fill="rgb(51,51,51)" fill-rule="evenodd" stroke="none" stroke-width="1"/><circle id="edzS5BeiL188" r="25.600000" transform="matrix(1 0 0 1 72.59999999999999 320.69999999999999)" clip-rule="evenodd" fill="rgb(77,77,77)" fill-rule="evenodd" stroke="none" stroke-width="1"/><circle id="edzS5BeiL189" r="19.400000" transform="matrix(1 0 0 1 72.59999999999999 320.69999999999999)" clip-rule="evenodd" fill="rgb(26,26,26)" fill-rule="evenodd" stroke="none" stroke-width="1"/></g><path id="edzS5BeiL1810" d="M311.400000,273.200000L309.600000,265.200000L276,325C274.700000,327.400000,272.200000,328.700000,269.600000,328.700000L72.600000,328.700000C68.600000,328.700000,65.300000,325.400000,65.300000,321.400000C65.300000,317.400000,68.600000,314.100000,72.600000,314.100000L94,314.100000C92.600000,298.300000,100.900000,300,96.600000,294.900000C92.300000,289.700000,84.100000,286.100000,76.400000,284.800000C42,283,41.900000,309.500000,25,308.700000C32.600000,286.900000,54,273.100000,77,275.200000C98.800000,277.200000,116.700000,293,121.500000,314.100000L265.400000,314.100000L304.700000,244L302.400000,234.100000C302.300000,233.600000,302.400000,233.200000,302.600000,232.800000C302.900000,232.400000,303.200000,232.100000,303.700000,232L320.200000,228.200000C321.100000,228,322.100000,228.600000,322.300000,229.500000L331.300000,268.500000C331.400000,269,331.300000,269.400000,331.100000,269.800000C330.800000,270.200000,330.500000,270.500000,330,270.600000L313.500000,274.400000C312.500000,274.700000,311.600000,274.100000,311.400000,273.200000L311.400000,273.200000Z" fill="rgb(26,26,26)" stroke="none" stroke-width="1"/><path id="edzS5BeiL1811" d="M265.300000,312.500000C266.300000,312.500000,267,313.300000,267,314.200000C267,315.200000,266.200000,315.900000,265.300000,315.900000L124.400000,315.900000C123.400000,315.900000,122.700000,315.100000,122.700000,314.200000C122.700000,313.200000,123.500000,312.500000,124.400000,312.500000L265.300000,312.500000Z" fill="rgb(51,51,51)" stroke="none" stroke-width="1"/><g id="edzS5BeiL1812"><g id="edzS5BeiL1813"><path id="edzS5BeiL1814" d="M283.200000,125.200000L269.200000,64.200000C268.800000,62.500000,269.500000,60.800000,270.800000,59.800000L287.100000,45.800000C288.900000,44.200000,291.700000,44.400000,293.300000,46.200000C294.900000,48,294.700000,50.800000,292.900000,52.400000L278.500000,64.800000L292,123.200000L283.200000,125.200000L283.200000,125.200000Z" fill="rgb(179,179,179)" stroke="none" stroke-width="1"/><path id="edzS5BeiL1815" d="M339.900000,319.100000C340.800000,323,338.300000,326.900000,334.400000,327.800000C330.500000,328.700000,326.600000,326.200000,325.700000,322.300000L280.400000,125.800000L294.600000,122.500000L339.900000,319.100000L339.900000,319.100000Z" fill="rgb(26,26,26)" stroke="none" stroke-width="1"/></g><g id="edzS5BeiL1816"><circle id="edzS5BeiL1817" r="12.100000" transform="matrix(1 0 0 1 290.30000000000001 49.20000000000000)" clip-rule="evenodd" fill="rgb(26,26,26)" fill-rule="evenodd" stroke="none" stroke-width="1"/><circle id="edzS5BeiL1818" r="7.800000" transform="matrix(1 0 0 1 290.30000000000001 49.20000000000000)" clip-rule="evenodd" fill="rgb(77,77,77)" fill-rule="evenodd" stroke="none" stroke-width="1"/></g></g></svg>