<svg id="eqLCHwKnEgM1" xmlns="http://www.w3.org/2000/svg" xmlns:xlink="http://www.w3.org/1999/xlink" viewBox="0 0 400 400" shape-rendering="geometricPrecision" text-rendering="geometricPrecision"><defs><linearGradient id="eqLCHwKnEgM6-fill" x1="299.313300" y1="142.301875" x2="213.206500" y2="51.605222" spreadMethod="pad" gradientUnits="userSpaceOnUse"><stop id="eqLCHwKnEgM6-fill-0" offset="0%" stop-color="rgb(212,212,212)"/><stop id="eqLCHwKnEgM6-fill-1" offset="100%" stop-color="rgb(204,204,204)"/></linearGradient><linearGradient id="eqLCHwKnEgM11-fill" x1="188.232600" y1="221.671146" x2="101.977340" y2="70.372138" spreadMethod="pad" gradientUnits="userSpaceOnUse"><stop id="eqLCHwKnEgM11-fill-0" offset="0%" stop-color="rgb(212,212,212)"/><stop id="eqLCHwKnEgM11-fill-1" offset="100%" stop-color="rgb(204,204,204)"/></linearGradient></defs><g id="eqLCHwKnEgM2"><polygon id="eqLCHwKnEgM3" points="97.900000,27.500000 302.100000,27.500000 302.100000,375 97.900000,375" clip-rule="evenodd" fill="rgb(51,51,51)" fill-rule="evenodd" stroke="none" stroke-width="1"/><g id="eqLCHwKnEgM4"><polygon id="eqLCHwKnEgM5" points="307.600000,25 203.700000,25 203.700000,365.400000 307.600000,365.400000" clip-rule="evenodd" fill="rgb(204,204,204)" fill-rule="evenodd" stroke="none" stroke-width="1"/><polygon id="eqLCHwKnEgM6" points="307.600000,25 203.700000,25 203.700000,166.400000 307.600000,77.700000" clip-rule="evenodd" fill="url(#eqLCHwKnEgM6-fill)" fill-rule="evenodd" stroke="none" stroke-width="1"/><polygon id="eqLCHwKnEgM7" points="217.700000,40 222.500000,40 222.500000,350.400000 217.700000,350.400000" clip-rule="evenodd" fill="rgb(77,77,77)" fill-rule="evenodd" stroke="none" stroke-width="1"/><polygon id="eqLCHwKnEgM8" points="214.600000,52.100000 225.600000,52.100000 225.600000,338.300000 214.600000,338.300000" clip-rule="evenodd" fill="rgb(230,230,230)" fill-rule="evenodd" stroke="none" stroke-width="1"/></g><g id="eqLCHwKnEgM9"><polygon id="eqLCHwKnEgM10" points="92.400000,25 196.300000,25 196.300000,365.400000 92.400000,365.400000" clip-rule="evenodd" fill="rgb(204,204,204)" fill-rule="evenodd" stroke="none" stroke-width="1"/><polygon id="eqLCHwKnEgM11" points="92.400000,25 196.300000,25 196.300000,172.700000 92.400000,261.500000" clip-rule="evenodd" fill="url(#eqLCHwKnEgM11-fill)" fill-rule="evenodd" stroke="none" stroke-width="1"/><polygon id="eqLCHwKnEgM12" points="177.500000,40 182.200000,40 182.200000,350.400000 177.500000,350.400000" clip-rule="evenodd" fill="rgb(77,77,77)" fill-rule="evenodd" stroke="none" stroke-width="1"/><polygon id="eqLCHwKnEgM13" points="174.400000,52.100000 185.400000,52.100000 185.400000,338.300000 174.400000,338.300000" clip-rule="evenodd" fill="rgb(230,230,230)" fill-rule="evenodd" stroke="none" stroke-width="1"/><g id="eqLCHwKnEgM14"><polygon id="eqLCHwKnEgM15" points="104.200000,135.900000 165.700000,135.900000 165.700000,223.700000 104.200000,223.700000" clip-rule="evenodd" fill="rgb(179,179,179)" fill-rule="evenodd" stroke="none" stroke-width="1"/><polygon id="eqLCHwKnEgM16" points="109.800000,172.700000 160.100000,172.700000 160.100000,217.300000 109.800000,217.300000" clip-rule="evenodd" fill="rgb(77,77,77)" fill-rule="evenodd" stroke="none" stroke-width="1"/><polygon id="eqLCHwKnEgM17" points="115.200000,179.700000 154.700000,179.700000 160.100000,172.700000 109.800000,172.700000" clip-rule="evenodd" fill="rgb(51,51,51)" fill-rule="evenodd" stroke="none" stroke-width="1"/><polygon id="eqLCHwKnEgM18" points="109.800000,165.200000 160.100000,165.200000 160.100000,144.900000 109.800000,144.900000" clip-rule="evenodd" fill="rgb(230,230,230)" fill-rule="evenodd" stroke="none" stroke-width="1"/><polygon id="eqLCHwKnEgM19" points="127.300000,177.600000 142.600000,177.600000 142.600000,181.600000 127.300000,181.600000" clip-rule="evenodd" fill="rgb(128,128,128)" fill-rule="evenodd" stroke="none" stroke-width="1"/><polygon id="eqLCHwKnEgM20" points="129.600000,177.600000 140.200000,177.600000 140.200000,174 129.600000,174" clip-rule="evenodd" fill="rgb(153,153,153)" fill-rule="evenodd" stroke="none" stroke-width="1"/><path id="eqLCHwKnEgM21" d="M115.200000,179.700000L109.800000,172.700000L109.800000,217.400000L115.200000,216.800000L115.200000,179.700000L115.200000,179.700000ZM154.700000,179.700000L160.100000,172.700000L160.100000,217.400000L154.700000,216.800000L154.700000,179.700000L154.700000,179.700000Z" clip-rule="evenodd" fill="rgb(102,102,102)" fill-rule="evenodd" stroke="none" stroke-width="1"/><polygon id="eqLCHwKnEgM22" points="115.200000,216.700000 154.700000,216.700000 160.100000,217.300000 109.800000,217.300000" clip-rule="evenodd" fill="rgb(51,51,51)" fill-rule="evenodd" stroke="none" stroke-width="1"/></g></g></g></svg>