<svg id="e05cFHyEmj11" xmlns="http://www.w3.org/2000/svg" xmlns:xlink="http://www.w3.org/1999/xlink" viewBox="0 0 400 400" shape-rendering="geometricPrecision" text-rendering="geometricPrecision"><defs><linearGradient id="e05cFHyEmj111-fill" x1="200.005159" y1="313.025560" x2="200.005159" y2="234.783844" spreadMethod="pad" gradientUnits="userSpaceOnUse"><stop id="e05cFHyEmj111-fill-0" offset="0%" stop-color="rgb(51,51,51)"/><stop id="e05cFHyEmj111-fill-1" offset="100%" stop-color="rgb(0,0,0)"/></linearGradient><linearGradient id="e05cFHyEmj117-fill" x1="200.005067" y1="242.338455" x2="200.005067" y2="296.049380" spreadMethod="pad" gradientUnits="userSpaceOnUse"><stop id="e05cFHyEmj117-fill-0" offset="0%" stop-color="rgb(179,179,179)"/><stop id="e05cFHyEmj117-fill-1" offset="100%" stop-color="rgb(204,204,204)"/></linearGradient><linearGradient id="e05cFHyEmj119-fill" x1="200.005159" y1="97.550486" x2="200.005159" y2="270.742453" spreadMethod="pad" gradientUnits="userSpaceOnUse"><stop id="e05cFHyEmj119-fill-0" offset="0%" stop-color="rgb(255,255,255)"/><stop id="e05cFHyEmj119-fill-1" offset="100%" stop-color="rgb(230,230,230)"/></linearGradient></defs><g id="e05cFHyEmj12"><g id="e05cFHyEmj13"><path id="e05cFHyEmj14" d="M146.100000,120.600000L65.600000,100.300000L67,92.600000L121.200000,103.600000L124.700000,101.100000L151.700000,106.500000C165.100000,108.600000,173.500000,116.500000,176.800000,130.300000C176.800000,130.300000,171.800000,134.600000,161.800000,143.300000C160.500000,130.600000,155.200000,123.100000,146.100000,120.600000L146.100000,120.600000Z" clip-rule="evenodd" fill="rgb(0,0,0)" fill-rule="evenodd" stroke="none" stroke-width="1"/><path id="e05cFHyEmj15" d="M253.900000,120.600000L334.400000,100.300000L333,92.600000L278.800000,103.600000L275.300000,101.100000L248.300000,106.500000C234.900000,108.600000,226.500000,116.500000,223.200000,130.300000C223.200000,130.300000,228.200000,134.600000,238.200000,143.300000C239.500000,130.600000,244.800000,123.100000,253.900000,120.600000L253.900000,120.600000Z" clip-rule="evenodd" fill="rgb(0,0,0)" fill-rule="evenodd" stroke="none" stroke-width="1"/></g><g id="e05cFHyEmj16"><polygon id="e05cFHyEmj17" points="158.200000,251.700000 70.800000,302.200000 73.700000,309.400000 123.500000,283.400000 127.300000,284.900000 164,266" clip-rule="evenodd" fill="rgb(0,0,0)" fill-rule="evenodd" stroke="none" stroke-width="1"/><polygon id="e05cFHyEmj18" points="241.800000,251.700000 329.200000,302.200000 326.300000,309.400000 276.500000,283.400000 272.700000,284.900000 236,266" clip-rule="evenodd" fill="rgb(0,0,0)" fill-rule="evenodd" stroke="none" stroke-width="1"/></g><g id="e05cFHyEmj19"><g id="e05cFHyEmj110"><path id="e05cFHyEmj111" d="M173.500000,306.100000C167.800000,300.200000,161.300000,294.600000,156.900000,286.900000L140,257.100000C123.200000,227.400000,276.800000,227.400000,260,257.100000L243.100000,286.900000C238.700000,294.600000,232.200000,300.200000,226.500000,306.100000C217.400000,315.400000,182.600000,315.400000,173.500000,306.100000L173.500000,306.100000Z" clip-rule="evenodd" fill="url(#e05cFHyEmj111-fill)" fill-rule="evenodd" stroke="none" stroke-width="1"/><g id="e05cFHyEmj112"><path id="e05cFHyEmj113" d="M235.400000,227.600000C236.500000,212.700000,238.100000,197.700000,240.200000,182.700000L238.800000,184.700000C237.600000,186.400000,236.900000,188.100000,236.500000,190.100000L232.500000,214.300000L234.300000,224.700000C234.500000,225.600000,234.900000,226.600000,235.400000,227.600000L235.400000,227.600000Z" clip-rule="evenodd" fill="rgb(26,26,26)" fill-rule="evenodd" stroke="none" stroke-width="1"/><path id="e05cFHyEmj114" d="M164.600000,227.600000C163.500000,212.700000,161.900000,197.700000,159.800000,182.700000L161.200000,184.700000C162.400000,186.400000,163.100000,188.100000,163.500000,190.100000L167.500000,214.300000L165.700000,224.700000C165.500000,225.600000,165.100000,226.600000,164.600000,227.600000L164.600000,227.600000Z" clip-rule="evenodd" fill="rgb(26,26,26)" fill-rule="evenodd" stroke="none" stroke-width="1"/></g></g><g id="e05cFHyEmj115"><path id="e05cFHyEmj116" d="M175.400000,304.200000C169.700000,298.400000,163.300000,294.200000,162.100000,286.400000L155.600000,243.600000C155.200000,241.100000,156.300000,238.800000,157.900000,236.700000C160.500000,233.300000,164.900000,228.600000,165.600000,224.600000L167.400000,214.200000L232.500000,214.200000L234.300000,224.600000C235,228.700000,239.400000,233.300000,242,236.700000C243.600000,238.800000,244.700000,241,244.300000,243.600000L237.800000,286.400000C236.600000,294.200000,230.200000,298.300000,224.500000,304.200000C216.600000,312.500000,183.400000,312.500000,175.400000,304.200000Z" clip-rule="evenodd" fill="rgb(204,204,204)" fill-rule="evenodd" stroke="none" stroke-width="1"/><path id="e05cFHyEmj117" d="M172.100000,242.300000L176,266.100000C177,272.400000,182.400000,277,188.900000,277C198.200000,277,201.800000,277,211.100000,277C217.500000,277,222.900000,272.400000,224,266.100000L227.900000,242.300000C228.500000,243,229.100000,243.700000,229.500000,244.300000C230.600000,245.800000,231.400000,247.300000,231.100000,249.100000L226.600000,279.200000C225.800000,284.600000,221.300000,287.600000,217.300000,291.700000C211.700000,297.500000,188.400000,297.500000,182.800000,291.700000C178.800000,287.600000,174.300000,284.700000,173.500000,279.200000L169,249.100000C168.700000,247.300000,169.500000,245.700000,170.600000,244.300000C171,243.800000,171.500000,243.100000,172.100000,242.300000Z" clip-rule="evenodd" fill="url(#e05cFHyEmj117-fill)" fill-rule="evenodd" stroke="none" stroke-width="1"/><path id="e05cFHyEmj118" d="M177,91.300000C173.200000,91.700000,170.200000,93.500000,167.900000,96.500000L156.300000,112.200000C154.600000,114.500000,153.800000,116.900000,153.800000,119.700000L152.800000,168.500000C152.700000,171.400000,153.500000,174,155.200000,176.300000L161.200000,184.600000C162.400000,186.300000,163.100000,188,163.500000,190L176.100000,266C177.100000,272.300000,182.500000,276.900000,189,276.900000C198.300000,276.900000,201.900000,276.900000,211.200000,276.900000C217.600000,276.900000,223,272.300000,224.100000,266L236.700000,190C237,187.900000,237.700000,186.200000,239,184.600000L245,176.300000C246.700000,173.900000,247.500000,171.400000,247.400000,168.500000L246.400000,119.700000C246.300000,116.900000,245.500000,114.500000,243.900000,112.200000L232.300000,96.500000C230.100000,93.500000,227,91.700000,223.200000,91.300000C205.900000,89.500000,194.100000,89.500000,177,91.300000L177,91.300000Z" clip-rule="evenodd" fill="rgb(230,230,230)" fill-rule="evenodd" stroke="none" stroke-width="1"/><path id="e05cFHyEmj119" d="M169.700000,97.600000L158.600000,112.700000C157,114.900000,156.200000,117.200000,156.200000,119.900000L155.300000,166.700000C155.200000,169.500000,156,171.900000,157.600000,174.200000L163.300000,182.200000C164.500000,183.800000,165.100000,185.500000,165.500000,187.400000L177.600000,260.400000C178.500000,266,182.900000,270.100000,188.400000,270.800000C183.500000,225.300000,180.400000,203.100000,170.700000,159.600000C170.400000,158.400000,169.900000,157.300000,168.900000,156.300000L164,151.200000C162.600000,149.800000,162,148.200000,162,146.400000L162.800000,116.800000C162.700000,115.800000,168.800000,100.100000,169.700000,97.600000L169.700000,97.600000ZM230.300000,97.600000L241.400000,112.700000C243,114.900000,243.800000,117.200000,243.800000,119.900000L244.700000,166.700000C244.800000,169.500000,244,171.900000,242.400000,174.200000L236.700000,182.200000C235.500000,183.800000,234.900000,185.500000,234.500000,187.400000L222.400000,260.400000C221.500000,266,217.100000,270.100000,211.600000,270.800000C216.500000,225.300000,219.600000,203.100000,229.300000,159.600000C229.600000,158.400000,230.100000,157.300000,231.100000,156.300000L236,151.200000C237.400000,149.800000,238,148.200000,238,146.400000L237.200000,116.800000C237.300000,115.800000,231.200000,100.100000,230.300000,97.600000L230.300000,97.600000Z" clip-rule="evenodd" fill="url(#e05cFHyEmj119-fill)" fill-rule="evenodd" stroke="none" stroke-width="1"/></g></g><g id="e05cFHyEmj120"><g id="e05cFHyEmj121"><path id="e05cFHyEmj122" d="M329.200000,293.400000C336,293.400000,341.600000,298.900000,341.600000,305.800000C341.600000,312.600000,336.100000,318.200000,329.200000,318.200000C322.400000,318.200000,316.800000,312.700000,316.800000,305.800000C316.800000,299,322.400000,293.400000,329.200000,293.400000Z" clip-rule="evenodd" fill="rgb(0,0,0)" fill-rule="evenodd" stroke="rgb(0,0,0)" stroke-width="1.996400" stroke-miterlimit="20.898600"/><g id="e05cFHyEmj123"><g id="e05cFHyEmj124"><path id="e05cFHyEmj125" d="M371.100000,241.800000L362.300000,239.800000L328.700000,298C326.200000,298.200000,323.800000,299.500000,322.400000,301.900000C321.300000,303.700000,321.100000,305.800000,321.600000,307.700000C316.500000,309.200000,310.600000,308.600000,307.200000,314.400000C303.400000,321,296.200000,352.600000,287.300000,369.800000L296.100000,371.800000L329.700000,313.600000C332.200000,313.400000,334.600000,312.100000,336,309.700000C337.100000,307.900000,337.300000,305.800000,336.800000,303.900000C341.900000,302.400000,347.800000,303,351.200000,297.200000C355,290.600000,362.200000,259,371.100000,241.800000L371.100000,241.800000Z" clip-rule="evenodd" fill="rgb(26,26,26)" fill-rule="evenodd" stroke="none" stroke-width="1"/><polygon id="e05cFHyEmj126" points="368.900000,242.100000 362.400000,240.800000 358.800000,247 367.200000,246.700000" clip-rule="evenodd" fill="rgb(255,255,255)" fill-rule="evenodd" stroke="none" stroke-width="1"/><polygon id="e05cFHyEmj127" points="289.500000,369.500000 296,370.800000 299.600000,364.600000 291.200000,364.900000" clip-rule="evenodd" fill="rgb(255,255,255)" fill-rule="evenodd" stroke="none" stroke-width="1"/></g><path id="e05cFHyEmj128" d="M332.100000,300.800000C334.900000,302.400000,335.800000,306,334.200000,308.700000C332.600000,311.500000,329,312.400000,326.300000,310.800000C323.500000,309.200000,322.600000,305.600000,324.200000,302.900000C325.800000,300.100000,329.300000,299.200000,332.100000,300.800000Z" clip-rule="evenodd" fill="rgb(153,153,153)" fill-rule="evenodd" stroke="rgb(0,0,0)" stroke-width="1.996400" stroke-miterlimit="20.898600"/></g></g><g id="e05cFHyEmj129"><path id="e05cFHyEmj130" d="M323.700000,90.300000C327.100000,84.400000,334.700000,82.400000,340.600000,85.800000C346.500000,89.200000,348.500000,96.800000,345.100000,102.700000C341.700000,108.600000,334.100000,110.600000,328.200000,107.200000C322.300000,103.800000,320.300000,96.200000,323.700000,90.300000Z" clip-rule="evenodd" fill="rgb(0,0,0)" fill-rule="evenodd" stroke="rgb(0,0,0)" stroke-width="1.996400" stroke-miterlimit="20.898600"/><g id="e05cFHyEmj131"><g id="e05cFHyEmj132"><path id="e05cFHyEmj133" d="M299.900000,28.200000L293.800000,34.800000L327.400000,93C326.300000,95.300000,326.300000,98.100000,327.600000,100.400000C328.700000,102.200000,330.400000,103.500000,332.300000,104C331.100000,109.200000,327.500000,114,330.900000,119.800000C334.700000,126.400000,358.500000,148.500000,368.900000,164.800000L375,158.200000L341.400000,100C342.500000,97.700000,342.500000,94.900000,341.200000,92.600000C340.100000,90.800000,338.400000,89.500000,336.500000,89C337.700000,83.800000,341.300000,79,337.900000,73.200000C334.100000,66.600000,310.300000,44.400000,299.900000,28.200000Z" clip-rule="evenodd" fill="rgb(26,26,26)" fill-rule="evenodd" stroke="none" stroke-width="1"/><polygon id="e05cFHyEmj134" points="299.100000,30.300000 294.700000,35.200000 298.300000,41.400000 302.200000,34" clip-rule="evenodd" fill="rgb(255,255,255)" fill-rule="evenodd" stroke="none" stroke-width="1"/><polygon id="e05cFHyEmj135" points="369.700000,162.700000 374,157.700000 370.500000,151.500000 366.500000,158.900000" clip-rule="evenodd" fill="rgb(255,255,255)" fill-rule="evenodd" stroke="none" stroke-width="1"/></g><path id="e05cFHyEmj136" d="M331.500000,91.400000C334.300000,89.800000,337.800000,90.700000,339.400000,93.500000C341,96.300000,340.100000,99.800000,337.300000,101.400000C334.500000,103,331,102.100000,329.400000,99.300000C327.700000,96.600000,328.700000,93,331.500000,91.400000L331.500000,91.400000Z" clip-rule="evenodd" fill="rgb(153,153,153)" fill-rule="evenodd" stroke="rgb(0,0,0)" stroke-width="1.996400" stroke-miterlimit="20.898600"/></g></g><g id="e05cFHyEmj137"><path id="e05cFHyEmj138" d="M70.800000,293.400000C64,293.400000,58.400000,298.900000,58.400000,305.800000C58.400000,312.600000,63.900000,318.200000,70.800000,318.200000C77.600000,318.200000,83.200000,312.700000,83.200000,305.800000C83.200000,299,77.600000,293.400000,70.800000,293.400000Z" clip-rule="evenodd" fill="rgb(0,0,0)" fill-rule="evenodd" stroke="rgb(0,0,0)" stroke-width="1.996400" stroke-miterlimit="20.898600"/><g id="e05cFHyEmj139"><g id="e05cFHyEmj140"><path id="e05cFHyEmj141" d="M28.900000,241.800000L37.700000,239.800000L71.300000,298C73.800000,298.200000,76.200000,299.500000,77.600000,301.900000C78.700000,303.700000,78.900000,305.800000,78.400000,307.700000C83.500000,309.200000,89.400000,308.600000,92.800000,314.400000C96.600000,321,103.800000,352.600000,112.700000,369.800000L103.900000,371.800000L70.300000,313.600000C67.800000,313.400000,65.400000,312.100000,64,309.700000C62.900000,307.900000,62.700000,305.800000,63.200000,303.900000C58.100000,302.400000,52.200000,303,48.800000,297.200000C45,290.600000,37.800000,259,28.900000,241.800000L28.900000,241.800000Z" clip-rule="evenodd" fill="rgb(26,26,26)" fill-rule="evenodd" stroke="none" stroke-width="1"/><polygon id="e05cFHyEmj142" points="31.100000,242.100000 37.600000,240.800000 41.200000,247 32.800000,246.700000" clip-rule="evenodd" fill="rgb(255,255,255)" fill-rule="evenodd" stroke="none" stroke-width="1"/><polygon id="e05cFHyEmj143" points="110.500000,369.500000 104,370.800000 100.400000,364.600000 108.800000,364.900000" clip-rule="evenodd" fill="rgb(255,255,255)" fill-rule="evenodd" stroke="none" stroke-width="1"/></g><path id="e05cFHyEmj144" d="M67.900000,300.800000C65.100000,302.400000,64.200000,306,65.800000,308.700000C67.400000,311.500000,71,312.400000,73.700000,310.800000C76.500000,309.200000,77.400000,305.600000,75.800000,302.900000C74.200000,300.100000,70.700000,299.200000,67.900000,300.800000L67.900000,300.800000Z" clip-rule="evenodd" fill="rgb(153,153,153)" fill-rule="evenodd" stroke="rgb(0,0,0)" stroke-width="1.996400" stroke-miterlimit="20.898600"/></g></g><g id="e05cFHyEmj145"><path id="e05cFHyEmj146" d="M76.300000,90.300000C72.900000,84.400000,65.300000,82.400000,59.400000,85.800000C53.500000,89.200000,51.500000,96.800000,54.900000,102.700000C58.300000,108.600000,65.900000,110.600000,71.800000,107.200000C77.700000,103.800000,79.700000,96.200000,76.300000,90.300000Z" clip-rule="evenodd" fill="rgb(0,0,0)" fill-rule="evenodd" stroke="rgb(0,0,0)" stroke-width="1.996400" stroke-miterlimit="20.898600"/><g id="e05cFHyEmj147"><g id="e05cFHyEmj148"><path id="e05cFHyEmj149" d="M100.100000,28.200000L106.200000,34.800000L72.600000,93C73.700000,95.300000,73.700000,98.100000,72.400000,100.400000C71.300000,102.200000,69.600000,103.500000,67.700000,104C68.900000,109.200000,72.500000,114,69.100000,119.800000C65.300000,126.400000,41.500000,148.500000,31.100000,164.800000L25,158.200000L58.600000,100C57.500000,97.700000,57.500000,94.900000,58.800000,92.600000C59.900000,90.800000,61.600000,89.500000,63.500000,89C62.300000,83.800000,58.700000,79,62.100000,73.200000C65.900000,66.600000,89.700000,44.400000,100.100000,28.200000Z" clip-rule="evenodd" fill="rgb(26,26,26)" fill-rule="evenodd" stroke="none" stroke-width="1"/><polygon id="e05cFHyEmj150" points="100.900000,30.300000 105.300000,35.200000 101.700000,41.400000 97.800000,34" clip-rule="evenodd" fill="rgb(255,255,255)" fill-rule="evenodd" stroke="none" stroke-width="1"/><polygon id="e05cFHyEmj151" points="30.300000,162.700000 26,157.700000 29.500000,151.500000 33.500000,158.900000" clip-rule="evenodd" fill="rgb(255,255,255)" fill-rule="evenodd" stroke="none" stroke-width="1"/></g><path id="e05cFHyEmj152" d="M68.500000,91.400000C65.700000,89.800000,62.200000,90.700000,60.600000,93.500000C59,96.300000,59.900000,99.800000,62.700000,101.400000C65.500000,103,69,102.100000,70.600000,99.300000C72.300000,96.600000,71.300000,93,68.500000,91.400000L68.500000,91.400000Z" clip-rule="evenodd" fill="rgb(153,153,153)" fill-rule="evenodd" stroke="rgb(0,0,0)" stroke-width="1.996400" stroke-miterlimit="20.898600"/></g></g></g></g></svg>