<svg id="enFu8sHwqQh1" xmlns="http://www.w3.org/2000/svg" xmlns:xlink="http://www.w3.org/1999/xlink" viewBox="0 0 400 400" shape-rendering="geometricPrecision" text-rendering="geometricPrecision"><defs><path id="enFu8sHwqQh2" d="M51.300000,195.500000L42.100000,195.500000C39.100000,195.500000,36.600000,198,36.600000,201L36.600000,228.500000C36.600000,231.500000,39.100000,234,42.100000,234L51.300000,234C54.300000,234,56.800000,231.500000,56.800000,228.500000L56.800000,201C56.900000,197.900000,54.400000,195.500000,51.300000,195.500000Z"/><path id="enFu8sHwqQh3" d="M175.400000,234L175.400000,195.500000L147.200000,195.500000C144.200000,195.500000,141.700000,198,141.700000,201L141.700000,228.500000C141.700000,231.500000,144.200000,234,147.200000,234L175.400000,234ZM178.200000,234L178.200000,195.500000L210.900000,195.500000L210.900000,234L178.200000,234ZM213.700000,234L213.700000,195.500000L241.900000,195.500000C244.900000,195.500000,247.400000,198,247.400000,201L247.400000,228.500000C247.400000,231.500000,244.900000,234,241.900000,234L213.700000,234Z"/><linearGradient id="enFu8sHwqQh55-fill" x1="25.089891" y1="40.782052" x2="30.309042" y2="0.068067" spreadMethod="pad" gradientUnits="userSpaceOnUse"><stop id="enFu8sHwqQh55-fill-0" offset="0%" stop-color="rgba(255,255,255,0)"/><stop id="enFu8sHwqQh55-fill-1" offset="100%" stop-color="rgb(255,255,255)"/></linearGradient></defs><g id="enFu8sHwqQh4"><g id="enFu8sHwqQh5"><g id="enFu8sHwqQh6"><path id="enFu8sHwqQh7" d="M290.400000,277.600000L330.800000,277.600000C331.600000,277.600000,332.300000,278.300000,332.300000,279.100000L332.300000,281.900000C332.300000,282.700000,331.600000,283.400000,330.800000,283.400000L290.300000,283.400000C289.100000,289.900000,284,294.800000,277.900000,294.800000L269.800000,294.800000C265.500000,294.800000,261.600000,292.300000,259.300000,288.500000C257,292.300000,253.200000,294.800000,248.800000,294.800000L240.700000,294.800000C233.700000,294.800000,228,288.300000,228,280.400000C228,272.500000,233.700000,266,240.700000,266L248.800000,266C253.100000,266,257,268.500000,259.300000,272.300000C261.600000,268.500000,265.400000,266,269.800000,266L277.900000,266C284.100000,266,289.200000,271,290.400000,277.600000L290.400000,277.600000ZM47.800000,293.900000L49.400000,293.900000L49.400000,283.500000L54.500000,283.500000L54.500000,293.900000L56,293.900000L56,294.900000L54.400000,294.900000L49.300000,294.900000L47.700000,294.900000L47.700000,293.900000ZM112.400000,283.500000L114.400000,283.500000L117.400000,283.500000L117.400000,293.900000L119,293.900000L119,294.900000L117.400000,294.900000L116,294.900000L114.400000,294.900000L112.400000,294.900000L110.800000,294.900000L109.400000,294.900000L107.800000,294.900000L107.800000,293.900000L109.400000,293.900000L109.400000,283.500000L112.400000,283.500000Z" clip-rule="evenodd" fill="rgb(41,35,46)" fill-rule="evenodd" stroke="none" stroke-width="1"/><path id="enFu8sHwqQh8" d="M39.400000,277.600000L169.300000,277.600000L169.300000,277.500000C169.300000,270.200000,175.300000,264.200000,182.600000,264.200000L208.900000,264.200000C215.200000,264.200000,220.500000,268.700000,221.900000,274.600000L221.900000,274.600000C222.400000,276.600000,223.600000,277.600000,225.600000,277.600000L274.200000,277.600000C275,277.600000,275.700000,278.300000,275.700000,279.100000L275.700000,281.900000C275.700000,282.700000,275,283.400000,274.200000,283.400000L51.400000,283.400000L51.400000,293.800000L53,293.800000L53,294.800000L51.400000,294.800000L46.300000,294.800000L44.700000,294.800000L44.700000,293.800000L46.300000,293.800000L46.300000,283.400000L39.300000,283.400000C38.500000,283.400000,37.800000,282.700000,37.800000,281.900000L37.800000,279.100000C37.800000,278.300000,38.500000,277.600000,39.400000,277.600000L39.400000,277.600000Z" clip-rule="evenodd" fill="rgb(47,43,51)" fill-rule="evenodd" stroke="none" stroke-width="1"/><path id="enFu8sHwqQh9" d="M163,275.300000C164.100000,269,169.600000,264.100000,176.200000,264.100000L182.600000,264.100000C175.200000,264.100000,169.200000,270.100000,169.200000,277.500000L164.800000,277.500000C163.600000,277.400000,163,276.700000,163,275.300000Z" clip-rule="evenodd" fill="rgb(41,35,46)" fill-rule="evenodd" stroke="none" stroke-width="1"/><g id="enFu8sHwqQh10"><g id="enFu8sHwqQh11"><path id="enFu8sHwqQh12" d="M177.700000,269.300000C174.900000,271.900000,173.100000,275.900000,173.100000,280.400000C173.100000,284.900000,174.900000,288.900000,177.700000,291.500000L177.700000,294.800000L185.800000,294.800000C192.800000,294.800000,198.500000,288.300000,198.500000,280.400000C198.500000,272.400000,192.800000,266,185.800000,266L177.700000,266L177.700000,269.300000L177.700000,269.300000Z" clip-rule="evenodd" fill="rgb(41,35,46)" fill-rule="evenodd" stroke="none" stroke-width="1"/><path id="enFu8sHwqQh13" d="M177.700000,266C170.700000,266,165,272.500000,165,280.400000C165,288.400000,170.700000,294.800000,177.700000,294.800000C184.700000,294.800000,190.400000,288.300000,190.400000,280.400000C190.400000,272.500000,184.700000,266,177.700000,266Z" clip-rule="evenodd" fill="rgb(65,60,71)" fill-rule="evenodd" stroke="none" stroke-width="1"/><path id="enFu8sHwqQh14" d="M177.700000,270.600000C172.900000,270.600000,169.100000,275,169.100000,280.400000C169.100000,285.800000,173,290.200000,177.700000,290.200000C182.500000,290.200000,186.300000,285.800000,186.300000,280.400000C186.300000,275,182.400000,270.600000,177.700000,270.600000Z" clip-rule="evenodd" fill="rgb(209,227,255)" fill-rule="evenodd" stroke="none" stroke-width="1"/><path id="enFu8sHwqQh15" d="M183.500000,287.700000C185.200000,285.900000,186.300000,283.300000,186.300000,280.400000C186.300000,277.500000,185.200000,274.900000,183.500000,273.100000C182.100000,271.900000,180.400000,271.100000,178.500000,271.100000C174,271.100000,170.400000,275.300000,170.400000,280.400000C170.400000,285.500000,174,289.700000,178.500000,289.700000C180.300000,289.700000,182.100000,288.900000,183.500000,287.700000Z" clip-rule="evenodd" fill="rgb(119,111,128)" fill-rule="evenodd" stroke="none" stroke-width="1"/><path id="enFu8sHwqQh16" d="M176.600000,274.300000C173.600000,274.300000,171.300000,277,171.300000,280.400000C171.300000,283.800000,173.700000,286.500000,176.600000,286.500000C179.500000,286.500000,181.900000,283.800000,181.900000,280.400000C182,277,179.600000,274.300000,176.600000,274.300000Z" clip-rule="evenodd" fill="rgb(151,139,166)" fill-rule="evenodd" stroke="none" stroke-width="1"/><path id="enFu8sHwqQh17" d="M175.500000,274.400000C173.400000,274.900000,171.800000,276.800000,171.300000,279.200000C172.100000,279.500000,173.400000,278.900000,174.400000,277.700000C175.500000,276.600000,175.900000,275.200000,175.500000,274.400000Z" clip-rule="evenodd" fill="rgb(209,227,255)" fill-rule="evenodd" stroke="none" stroke-width="1"/></g><g id="enFu8sHwqQh18"><path id="enFu8sHwqQh19" d="M206.800000,269.300000C204,271.900000,202.200000,275.900000,202.200000,280.400000C202.200000,284.900000,204,288.900000,206.800000,291.500000L206.800000,294.800000L214.900000,294.800000C221.900000,294.800000,227.600000,288.300000,227.600000,280.400000C227.600000,272.400000,221.900000,266,214.900000,266L206.800000,266L206.800000,269.300000L206.800000,269.300000Z" clip-rule="evenodd" fill="rgb(41,35,46)" fill-rule="evenodd" stroke="none" stroke-width="1"/><path id="enFu8sHwqQh20" d="M206.800000,266C199.800000,266,194.100000,272.500000,194.100000,280.400000C194.100000,288.400000,199.800000,294.800000,206.800000,294.800000C213.800000,294.800000,219.500000,288.300000,219.500000,280.400000C219.500000,272.500000,213.800000,266,206.800000,266Z" clip-rule="evenodd" fill="rgb(65,60,71)" fill-rule="evenodd" stroke="none" stroke-width="1"/><path id="enFu8sHwqQh21" d="M206.800000,270.600000C202,270.600000,198.200000,275,198.200000,280.400000C198.200000,285.800000,202.100000,290.200000,206.800000,290.200000C211.600000,290.200000,215.400000,285.800000,215.400000,280.400000C215.500000,275,211.600000,270.600000,206.800000,270.600000Z" clip-rule="evenodd" fill="rgb(209,227,255)" fill-rule="evenodd" stroke="none" stroke-width="1"/><path id="enFu8sHwqQh22" d="M212.600000,287.700000C214.300000,285.900000,215.400000,283.300000,215.400000,280.400000C215.400000,277.500000,214.300000,274.900000,212.600000,273.100000C211.200000,271.900000,209.500000,271.100000,207.600000,271.100000C203.100000,271.100000,199.500000,275.300000,199.500000,280.400000C199.500000,285.500000,203.100000,289.700000,207.600000,289.700000C209.500000,289.700000,211.200000,288.900000,212.600000,287.700000Z" clip-rule="evenodd" fill="rgb(119,111,128)" fill-rule="evenodd" stroke="none" stroke-width="1"/><path id="enFu8sHwqQh23" d="M205.800000,274.300000C202.800000,274.300000,200.500000,277,200.500000,280.400000C200.500000,283.800000,202.900000,286.500000,205.800000,286.500000C208.800000,286.500000,211.100000,283.800000,211.100000,280.400000C211.100000,277,208.700000,274.300000,205.800000,274.300000Z" clip-rule="evenodd" fill="rgb(151,139,166)" fill-rule="evenodd" stroke="none" stroke-width="1"/><path id="enFu8sHwqQh24" d="M204.700000,274.400000C202.600000,274.900000,201,276.800000,200.500000,279.200000C201.300000,279.500000,202.600000,278.900000,203.600000,277.700000C204.600000,276.600000,205,275.200000,204.700000,274.400000L204.700000,274.400000Z" clip-rule="evenodd" fill="rgb(209,227,255)" fill-rule="evenodd" stroke="none" stroke-width="1"/></g></g></g><g id="enFu8sHwqQh25"><g id="enFu8sHwqQh26"><path id="enFu8sHwqQh27" d="M272.100000,176.500000L32.500000,176.500000C29.500000,176.500000,27.800000,179.100000,27,182L26.900000,182.300000L26.800000,182.600000C25,189.100000,25,189.400000,25,193.700000L25,237.700000C25,244.700000,25,244.800000,27.100000,252.500000L32.300000,272C33.100000,274.900000,34.800000,277.500000,37.800000,277.500000L164.800000,277.500000C163.600000,277.400000,162.900000,276.600000,163,275.300000C164.100000,269,169.600000,264.100000,176.200000,264.100000L182.500000,264.100000L182.600000,264.100000L208.800000,264.100000C215.100000,264.100000,220.400000,268.600000,221.800000,274.500000L221.800000,274.500000C222.300000,276.500000,223.500000,277.500000,225.500000,277.500000L266.700000,277.500000C269.700000,277.500000,271.400000,274.900000,272.200000,272L277.400000,252.500000C279.500000,244.800000,279.500000,244.700000,279.500000,237.700000L279.500000,237.400000L279.500000,193.900000L279.500000,193.700000C279.500000,189.400000,279.500000,189.200000,277.700000,182.600000L277.600000,182.300000L277.500000,182C276.800000,179,275.100000,176.500000,272.100000,176.500000L272.100000,176.500000Z" clip-rule="evenodd" fill="rgb(255,106,84)" fill-rule="evenodd" stroke="none" stroke-width="1"/><path id="enFu8sHwqQh28" d="M29.700000,262.300000L32.300000,272C33.100000,274.900000,34.800000,277.500000,37.800000,277.500000L164.800000,277.500000C163.600000,277.400000,162.900000,276.600000,163,275.300000C164.100000,269,169.600000,264.100000,176.200000,264.100000L182.500000,264.100000L182.600000,264.100000L208.800000,264.100000C215.100000,264.100000,220.400000,268.600000,221.800000,274.500000L221.800000,274.500000C222.300000,276.500000,223.500000,277.500000,225.500000,277.500000L266.700000,277.500000C269.700000,277.500000,271.400000,274.900000,272.200000,272L274.800000,262.300000L29.700000,262.300000L29.700000,262.300000Z" clip-rule="evenodd" fill="rgb(255,255,240)" fill-rule="evenodd" stroke="none" stroke-width="1"/></g><g id="enFu8sHwqQh29"><path id="enFu8sHwqQh30" d="M337.700000,176.500000C340.700000,176.500000,343.900000,179,344.700000,182L344.800000,182.300000L344.900000,182.600000C346.600000,189.100000,346.700000,189.400000,346.700000,193.700000L346.700000,193.900000L346.700000,237.400000L346.700000,237.700000C346.700000,244.700000,346.700000,244.800000,344.600000,252.500000L339.400000,272C338.600000,275,335.400000,277.500000,332.400000,277.500000C310.500000,277.500000,288.700000,277.500000,266.800000,277.500000C269.800000,277.500000,271.500000,274.900000,272.300000,272L277.500000,252.500000C279.600000,244.800000,279.600000,244.700000,279.600000,237.700000L279.600000,237.400000L279.600000,193.900000L279.600000,193.700000C279.600000,189.400000,279.600000,189.200000,277.800000,182.600000L277.700000,182.300000L277.600000,182C276.800000,179.100000,275.100000,176.500000,272.100000,176.500000C294,176.500000,315.800000,176.500000,337.700000,176.500000Z" clip-rule="evenodd" fill="rgb(234,69,95)" fill-rule="evenodd" stroke="none" stroke-width="1"/><path id="enFu8sHwqQh31" d="M341.900000,262.300000L339.300000,272C338.500000,275,335.300000,277.500000,332.300000,277.500000C310.400000,277.500000,288.600000,277.500000,266.700000,277.500000C269.700000,277.500000,271.400000,274.900000,272.200000,272L274.800000,262.300000L341.900000,262.300000L341.900000,262.300000Z" clip-rule="evenodd" fill="rgb(255,206,161)" fill-rule="evenodd" stroke="none" stroke-width="1"/></g></g><g id="enFu8sHwqQh32"><path id="enFu8sHwqQh33" d="M294.700000,193.600000L331.500000,193.600000C335.600000,193.600000,338.900000,196.900000,338.900000,201L338.900000,228.500000C338.900000,232.600000,335.600000,235.900000,331.500000,235.900000L294.700000,235.900000C290.600000,235.900000,287.300000,232.600000,287.300000,228.500000L287.300000,201C287.400000,196.900000,290.700000,193.600000,294.700000,193.600000Z" clip-rule="evenodd" fill="rgb(179,179,179)" fill-rule="evenodd" stroke="none" stroke-width="1"/><path id="enFu8sHwqQh34" d="M294.700000,195.500000L331.500000,195.500000C334.500000,195.500000,337,198,337,201L337,228.500000C337,231.500000,334.500000,234,331.500000,234L294.700000,234C291.700000,234,289.200000,231.500000,289.200000,228.500000L289.200000,201C289.200000,197.900000,291.700000,195.500000,294.700000,195.500000Z" clip-rule="evenodd" fill="rgb(209,227,255)" fill-rule="evenodd" stroke="none" stroke-width="1"/><path id="enFu8sHwqQh35" d="M328.900000,195.500000L331.500000,195.500000C334.500000,195.500000,337,198,337,201L337,228.500000C337,231.500000,334.500000,234,331.500000,234L328.900000,234C331.900000,234,334.400000,231.500000,334.400000,228.500000L334.400000,201C334.400000,197.900000,331.900000,195.500000,328.900000,195.500000Z" clip-rule="evenodd" fill="rgb(51,51,51)" fill-rule="evenodd" stroke="none" stroke-width="1"/></g><g id="enFu8sHwqQh36"><path id="enFu8sHwqQh37" d="M51.300000,193.600000C55.400000,193.600000,58.700000,196.900000,58.700000,201L58.700000,228.500000C58.700000,232.600000,55.400000,235.900000,51.300000,235.900000L42.100000,235.900000C38,235.900000,34.700000,232.600000,34.700000,228.500000L34.700000,201C34.700000,196.900000,38,193.600000,42.100000,193.600000L51.300000,193.600000Z" clip-rule="evenodd" fill="rgb(255,255,255)" fill-rule="evenodd" stroke="none" stroke-width="1"/><g id="enFu8sHwqQh38"><g id="enFu8sHwqQh39" style="" clip-path="url(#enFu8sHwqQh42)" clip-rule="evenodd"><path id="enFu8sHwqQh40" d="M51.300000,195.500000L42.100000,195.500000C39.100000,195.500000,36.600000,198,36.600000,201L36.600000,228.500000C36.600000,231.500000,39.100000,234,42.100000,234L51.300000,234C54.300000,234,56.800000,231.500000,56.800000,228.500000L56.800000,201C56.900000,197.900000,54.400000,195.500000,51.300000,195.500000Z" fill="rgb(209,227,255)" fill-rule="evenodd" stroke="none" stroke-width="1"/><path id="enFu8sHwqQh41" d="M43.900000,195.500000L42.100000,195.500000C39.100000,195.500000,36.600000,198,36.600000,201L36.600000,228.500000C36.600000,231.500000,39.100000,234,42.100000,234L43.900000,234C40.900000,234,38.400000,231.500000,38.400000,228.500000L38.400000,201C38.400000,197.900000,40.900000,195.500000,43.900000,195.500000Z" fill="rgb(84,78,92)" fill-rule="evenodd" stroke="none" stroke-width="1"/><clipPath id="enFu8sHwqQh42"><use id="enFu8sHwqQh43" width="20.202900" height="38.500000" xlink:href="#enFu8sHwqQh2" fill="rgb(0,0,0)" stroke="none" stroke-width="1"/></clipPath></g></g></g><g id="enFu8sHwqQh44"><path id="enFu8sHwqQh45" d="M114.500000,193.600000C118.600000,193.600000,121.900000,196.900000,121.900000,201C121.900000,225.400000,121.900000,249.800000,121.900000,274.200000C121.900000,275.200000,121.100000,276,120.100000,276C106.300000,276,92.500000,276,78.700000,276C77.700000,276,76.900000,275.200000,76.900000,274.200000C76.900000,249.800000,76.900000,225.400000,76.900000,201C76.900000,196.900000,80.200000,193.600000,84.300000,193.600000L114.500000,193.600000L114.500000,193.600000Z" clip-rule="evenodd" fill="rgb(255,255,255)" fill-rule="evenodd" stroke="none" stroke-width="1"/><path id="enFu8sHwqQh46" d="M91,195.500000L84.100000,195.500000C81.100000,195.500000,78.600000,198,78.600000,201C78.600000,225.400000,78.600000,249.800000,78.600000,274.200000L85.500000,274.200000C85.500000,249.800000,85.500000,225.400000,85.500000,201C85.500000,197.900000,88,195.500000,91,195.500000Z" clip-rule="evenodd" fill="rgb(65,60,71)" fill-rule="evenodd" stroke="none" stroke-width="1"/></g><g id="enFu8sHwqQh47"><g id="enFu8sHwqQh48"><path id="enFu8sHwqQh49" d="M342.300000,180.300000L341.300000,180.300000L337.500000,180.300000L287,180.300000L287,187.500000L339.600000,187.500000L341.400000,187.500000L342.400000,187.500000C343.400000,187.500000,344.200000,186.700000,344.200000,185.700000L344.200000,182C344.100000,181.100000,343.300000,180.300000,342.300000,180.300000L342.300000,180.300000Z" clip-rule="evenodd" fill="rgb(235,145,93)" fill-rule="evenodd" stroke="none" stroke-width="1"/><path id="enFu8sHwqQh50" d="M288.500000,180.300000L283.700000,180.300000C283.900000,180.800000,284.100000,181.400000,284.300000,181.900000C284.800000,183.700000,285.300000,185.600000,285.700000,187.500000L288.500000,187.500000C289.500000,187.500000,290.300000,186.700000,290.300000,185.700000L290.300000,182C290.300000,181.100000,289.500000,180.300000,288.500000,180.300000L288.500000,180.300000Z" clip-rule="evenodd" fill="rgb(255,204,102)" fill-rule="evenodd" stroke="none" stroke-width="1"/></g><g id="enFu8sHwqQh51"><g id="enFu8sHwqQh52" style="" clip-rule="evenodd" mask="url(#enFu8sHwqQh54)"><path id="enFu8sHwqQh53" d="M343,184.100000L291.100000,183.900000C292.100000,185.100000,293.700000,187.500000,292.200000,187.500000L294.100000,193.600000C294.500000,193.700000,294.800000,194,294.900000,194.300000L295.200000,195.400000L294.700000,195.400000L304,224.600000L346.600000,224.600000L346.600000,193.600000L343,184.100000L343,184.100000Z" fill="rgb(41,35,46)" fill-rule="evenodd" stroke="none" stroke-width="1"/><mask id="enFu8sHwqQh54" mask-type="luminance"><rect id="enFu8sHwqQh55" width="55.500000" height="40.800000" rx="0" ry="0" transform="matrix(1 0 0 1 291.19999999999999 183.90000000000001)" clip-rule="evenodd" fill="url(#enFu8sHwqQh55-fill)" fill-rule="evenodd" stroke="none" stroke-width="1"/></mask></g><path id="enFu8sHwqQh56" d="M339.700000,227.400000C339.500000,227.500000,339.300000,227.500000,339.200000,227.400000C339.100000,227.200000,339.100000,227,339.200000,226.900000L373.200000,196C373.400000,195.900000,373.600000,195.900000,373.700000,196C373.800000,196.200000,373.800000,196.400000,373.700000,196.500000L339.700000,227.400000Z" clip-rule="evenodd" fill="rgb(65,60,71)" fill-rule="evenodd" stroke="none" stroke-width="1"/><path id="enFu8sHwqQh57" d="M321.700000,195.500000L373.600000,195.500000C359,193.500000,348.800000,189.600000,343,184L291.100000,184C297,189.600000,307.200000,193.400000,321.700000,195.500000L321.700000,195.500000Z" clip-rule="evenodd" fill="rgb(255,204,102)" fill-rule="evenodd" stroke="none" stroke-width="1"/><path id="enFu8sHwqQh58" d="M288,227.400000C287.800000,227.500000,287.600000,227.500000,287.500000,227.400000C287.400000,227.200000,287.400000,227,287.500000,226.900000L321.500000,196C321.700000,195.900000,321.900000,195.900000,322,196C322.100000,196.200000,322.100000,196.400000,322,196.500000L288,227.400000Z" clip-rule="evenodd" fill="rgb(255,245,188)" fill-rule="evenodd" stroke="none" stroke-width="1"/><path id="enFu8sHwqQh59" d="M374.500000,194.700000C374.800000,194.700000,375,195,375,195.400000C375,195.800000,374.800000,196.100000,374.500000,196.100000L320.800000,196.100000C320.500000,196.100000,320.300000,195.800000,320.300000,195.400000C320.300000,195,320.500000,194.700000,320.800000,194.700000L374.500000,194.700000Z" clip-rule="evenodd" fill="rgb(255,245,188)" fill-rule="evenodd" stroke="none" stroke-width="1"/><path id="enFu8sHwqQh60" d="M321.700000,196.200000L327.500000,196.200000L333.300000,196.200000L339.100000,196.200000L344.900000,196.200000L350.700000,196.200000L356.500000,196.200000L362.300000,196.200000L368.100000,196.200000L373.900000,196.200000L373.900000,203C373.900000,204.600000,372.600000,205.900000,371,205.900000L371,205.900000C369.400000,205.900000,368.100000,204.600000,368.100000,203C368.100000,204.600000,366.800000,205.900000,365.200000,205.900000L365.200000,205.900000C363.600000,205.900000,362.300000,204.600000,362.300000,203C362.300000,204.600000,361,205.900000,359.400000,205.900000L359.400000,205.900000C357.800000,205.900000,356.500000,204.600000,356.500000,203C356.500000,204.600000,355.200000,205.900000,353.600000,205.900000L353.600000,205.900000C352,205.900000,350.700000,204.600000,350.700000,203C350.700000,204.600000,349.400000,205.900000,347.800000,205.900000L347.800000,205.900000C346.200000,205.900000,344.900000,204.600000,344.900000,203C344.900000,204.600000,343.600000,205.900000,342,205.900000L342,205.900000C340.400000,205.900000,339.100000,204.600000,339.100000,203C339.100000,204.600000,337.800000,205.900000,336.200000,205.900000L336.200000,205.900000C334.600000,205.900000,333.300000,204.600000,333.300000,203C333.300000,204.600000,332,205.900000,330.400000,205.900000L330.400000,205.900000C328.800000,205.900000,327.500000,204.600000,327.500000,203C327.500000,204.600000,326.200000,205.900000,324.600000,205.900000L324.600000,205.900000C323,205.900000,321.700000,204.600000,321.700000,203L321.700000,196.200000L321.700000,196.200000Z" clip-rule="evenodd" fill="rgb(235,145,93)" fill-rule="evenodd" stroke="none" stroke-width="1"/></g></g><path id="enFu8sHwqQh61" d="M162.800000,275C164,267.800000,170.300000,262.300000,177.800000,262.300000L210.300000,262.300000C218.700000,262.300000,225.600000,269.200000,225.600000,277.600000L225.500000,277.600000C223.500000,277.600000,222.300000,276.600000,221.800000,274.600000L221.800000,274.600000C220.400000,268.700000,215.100000,264.200000,208.800000,264.200000L182.600000,264.200000L182.500000,264.200000L176.200000,264.200000C169.600000,264.200000,164,269.100000,163,275.400000C163,276.700000,163.600000,277.400000,164.700000,277.600000C163.500000,277.400000,162.600000,276.600000,162.800000,275L162.800000,275Z" clip-rule="evenodd" fill="rgb(255,206,161)" fill-rule="evenodd" stroke="none" stroke-width="1"/><g id="enFu8sHwqQh62"><g id="enFu8sHwqQh63"><g id="enFu8sHwqQh64" style="" clip-path="url(#enFu8sHwqQh69)"><g id="enFu8sHwqQh65"><g id="enFu8sHwqQh66"><rect id="enFu8sHwqQh67" width="36.300000" height="27.400000" rx="0" ry="0" transform="matrix(1 0 0 1 140.40000000000001 193.69999999999999)" clip-rule="evenodd" fill="rgb(119,111,128)" fill-rule="evenodd" stroke="rgb(84,78,92)" stroke-width="41.656600" stroke-miterlimit="112.486000"/><rect id="enFu8sHwqQh68" width="37.500000" height="27.400000" rx="0" ry="0" transform="matrix(1 0 0 1 212.19999999999999 193.69999999999999)" clip-rule="evenodd" fill="rgb(119,111,128)" fill-rule="evenodd" stroke="rgb(84,78,92)" stroke-width="41.656600" stroke-miterlimit="112.486000"/></g></g><clipPath id="enFu8sHwqQh69"><use id="enFu8sHwqQh70" width="105.699997" height="38.500000" xlink:href="#enFu8sHwqQh3" fill="rgb(0,0,0)" stroke="none" stroke-width="1"/></clipPath></g></g><path id="enFu8sHwqQh71" d="M241.900000,193.600000C246,193.600000,249.300000,196.900000,249.300000,201L249.300000,228.500000C249.300000,232.600000,246,235.900000,241.900000,235.900000L147.200000,235.900000C143.100000,235.900000,139.800000,232.600000,139.800000,228.500000L139.800000,201C139.800000,196.900000,143.100000,193.600000,147.200000,193.600000L241.900000,193.600000ZM178.200000,234L178.200000,195.500000L210.900000,195.500000L210.900000,234L178.200000,234ZM213.700000,234L213.700000,195.500000L241.900000,195.500000C244.900000,195.500000,247.400000,198,247.400000,201L247.400000,228.500000C247.400000,231.500000,244.900000,234,241.900000,234L213.700000,234ZM175.400000,234L175.400000,195.500000L147.200000,195.500000C144.200000,195.500000,141.700000,198,141.700000,201L141.700000,228.500000C141.700000,231.500000,144.200000,234,147.200000,234L175.400000,234Z" clip-rule="evenodd" fill="rgb(255,255,255)" fill-rule="evenodd" stroke="none" stroke-width="1"/><g id="enFu8sHwqQh72"><path id="enFu8sHwqQh73" d="M149,195.500000L147.200000,195.500000C144.200000,195.500000,141.700000,198,141.700000,201L141.700000,228.500000C141.700000,231.500000,144.200000,234,147.200000,234L149,234C146,234,143.500000,231.500000,143.500000,228.500000L143.500000,201C143.500000,197.900000,146,195.500000,149,195.500000Z" clip-rule="evenodd" fill="rgb(84,78,92)" fill-rule="evenodd" stroke="none" stroke-width="1"/><g id="enFu8sHwqQh74"><polygon id="enFu8sHwqQh75" points="178.200000,195.500000 176.500000,195.500000 176.500000,234 178.200000,234" clip-rule="evenodd" fill="rgb(84,78,92)" fill-rule="evenodd" stroke="none" stroke-width="1"/><polygon id="enFu8sHwqQh76" points="213.700000,195.500000 212,195.500000 212,234 213.700000,234" clip-rule="evenodd" fill="rgb(84,78,92)" fill-rule="evenodd" stroke="none" stroke-width="1"/></g></g><g id="enFu8sHwqQh77"><path id="enFu8sHwqQh78" d="M186.300000,195.500000L184.500000,195.500000L184.500000,234L186.300000,234L186.300000,218.400000L186.300000,218.400000C186.800000,218.400000,187.200000,218,187.200000,217.500000L187.200000,212C187.200000,211.500000,186.800000,211.100000,186.300000,211.100000L186.300000,211.100000L186.300000,195.500000Z" clip-rule="evenodd" fill="rgb(84,78,92)" fill-rule="evenodd" stroke="none" stroke-width="1"/><polygon id="enFu8sHwqQh79" points="183.400000,195.500000 184.500000,195.500000 184.500000,234 183.400000,234" clip-rule="evenodd" fill="rgb(255,255,255)" fill-rule="evenodd" stroke="none" stroke-width="1"/></g></g><path id="enFu8sHwqQh80" d="M114.500000,195.500000L91,195.500000C88,195.500000,85.500000,198,85.500000,201C85.500000,225.400000,85.500000,249.800000,85.500000,274.200000L120,274.200000C120,249.800000,120,225.400000,120,201C120,197.900000,117.500000,195.500000,114.500000,195.500000ZM210.900000,195.500000L186.300000,195.500000L186.300000,234L210.900000,234L210.900000,195.500000Z" clip-rule="evenodd" fill="rgb(41,35,46)" fill-rule="evenodd" stroke="none" stroke-width="1"/><g id="enFu8sHwqQh81"><path id="enFu8sHwqQh82" d="M76.800000,276L76.800000,274.200000L71.300000,274.200000C65,280.500000,58.800000,286.800000,52.600000,293L52.600000,294.800000L58.100000,294.800000C64.300000,288.600000,70.500000,282.300000,76.800000,276L76.800000,276Z" clip-rule="evenodd" fill="rgb(119,111,128)" fill-rule="evenodd" stroke="none" stroke-width="1"/><path id="enFu8sHwqQh83" d="M78.600000,276L78.600000,274.200000L73.100000,274.200000C66.800000,280.500000,60.600000,286.800000,54.400000,293L54.400000,294.800000L59.900000,294.800000C66.200000,288.600000,72.400000,282.300000,78.600000,276Z" clip-rule="evenodd" fill="rgb(65,60,71)" fill-rule="evenodd" stroke="none" stroke-width="1"/><polygon id="enFu8sHwqQh84" points="120,274.200000 78.600000,274.200000 78.600000,276 120,276" clip-rule="evenodd" fill="rgb(102,102,102)" fill-rule="evenodd" stroke="none" stroke-width="1"/><polygon id="enFu8sHwqQh85" points="114.500000,274.200000 73.100000,274.200000 73.100000,276 114.500000,276" clip-rule="evenodd" fill="rgb(151,139,166)" fill-rule="evenodd" stroke="none" stroke-width="1"/><polygon id="enFu8sHwqQh86" points="112.600000,281.500000 71.300000,281.500000 71.300000,283.400000 112.600000,283.400000" clip-rule="evenodd" fill="rgb(102,102,102)" fill-rule="evenodd" stroke="none" stroke-width="1"/><polygon id="enFu8sHwqQh87" points="107.100000,281.500000 65.700000,281.500000 65.700000,283.400000 107.100000,283.400000" clip-rule="evenodd" fill="rgb(151,139,166)" fill-rule="evenodd" stroke="none" stroke-width="1"/><polygon id="enFu8sHwqQh88" points="105.300000,288.900000 63.900000,288.900000 63.900000,290.700000 105.300000,290.700000" clip-rule="evenodd" fill="rgb(102,102,102)" fill-rule="evenodd" stroke="none" stroke-width="1"/><polygon id="enFu8sHwqQh89" points="99.700000,288.900000 58.400000,288.900000 58.400000,290.700000 99.700000,290.700000" clip-rule="evenodd" fill="rgb(151,139,166)" fill-rule="evenodd" stroke="none" stroke-width="1"/><path id="enFu8sHwqQh90" d="M120,276L120,274.200000L114.500000,274.200000C108.200000,280.500000,102,286.800000,95.800000,293L95.800000,294.800000L101.300000,294.800000C107.500000,288.600000,113.700000,282.300000,120,276Z" clip-rule="evenodd" fill="rgb(119,111,128)" fill-rule="evenodd" stroke="none" stroke-width="1"/><path id="enFu8sHwqQh91" d="M121.800000,276L121.800000,274.200000L116.300000,274.200000C110,280.500000,103.800000,286.800000,97.600000,293L97.600000,294.800000L103.100000,294.800000C109.400000,288.600000,115.600000,282.300000,121.800000,276Z" clip-rule="evenodd" fill="rgb(65,60,71)" fill-rule="evenodd" stroke="none" stroke-width="1"/></g></g><g id="enFu8sHwqQh92"><path id="enFu8sHwqQh93" d="M148.800000,169C147.900000,169.900000,146.500000,170,145.600000,169.100000C144.700000,168.200000,144.600000,166.800000,145.500000,165.900000L157.200000,153.400000L147.500000,143C146.600000,142.100000,146.700000,140.600000,147.600000,139.800000C148.500000,138.900000,150,139,150.800000,139.900000L162,151.800000L162,151.800000C162.800000,152.700000,162.800000,154,162,154.900000L148.800000,169L148.800000,169Z" fill="rgb(65,60,71)" stroke="none" stroke-width="1"/><path id="enFu8sHwqQh94" d="M133.800000,176.500000C133.800000,169.100000,139.800000,163.100000,147.200000,163.100000C154.600000,163.100000,160.600000,169.100000,160.600000,176.500000L133.800000,176.500000L133.800000,176.500000Z" clip-rule="evenodd" fill="rgb(84,78,92)" fill-rule="evenodd" stroke="none" stroke-width="1"/></g><g id="enFu8sHwqQh95"><path id="enFu8sHwqQh96" d="M151.900000,144C169,127,169,111,164.600000,106.300000C164.400000,130.800000,130.200000,145.400000,114.200000,156.700000C119,161,134.900000,161,151.900000,144L151.900000,144Z" clip-rule="evenodd" fill="rgb(237,83,66)" fill-rule="evenodd" stroke="none" stroke-width="1"/><path id="enFu8sHwqQh97" d="M131.800000,123.900000C117.900000,137.800000,110,152.500000,114.300000,156.800000C118.500000,161,133.300000,153.200000,147.200000,139.300000C161.100000,125.400000,169,110.700000,164.700000,106.400000C160.400000,102.100000,145.700000,109.900000,131.800000,123.900000L131.800000,123.900000Z" clip-rule="evenodd" fill="rgb(230,230,230)" fill-rule="evenodd" stroke="none" stroke-width="1"/><polygon id="enFu8sHwqQh98" points="127.100000,119.100000 146.400000,139.800000 147.900000,138.400000" clip-rule="evenodd" fill="rgb(41,35,46)" fill-rule="evenodd" stroke="none" stroke-width="1"/><path id="enFu8sHwqQh99" d="M130.100000,122.100000C127.600000,124.600000,126.200000,127.300000,126.900000,128C127.700000,128.800000,130.300000,127.300000,132.800000,124.800000C135.300000,122.300000,136.700000,119.600000,136,118.900000C135.300000,118.100000,132.600000,119.600000,130.100000,122.100000Z" clip-rule="evenodd" fill="rgb(237,135,124)" fill-rule="evenodd" stroke="none" stroke-width="1"/><polygon id="enFu8sHwqQh100" points="127.100000,119.100000 131.300000,123.600000 131.600000,123.300000" clip-rule="evenodd" fill="rgb(41,35,46)" fill-rule="evenodd" stroke="none" stroke-width="1"/><path id="enFu8sHwqQh101" d="M126.300000,118.300000C124.800000,119.800000,124,121.400000,124.400000,121.800000C124.900000,122.300000,126.400000,121.400000,127.900000,119.900000C129.400000,118.400000,130.200000,116.800000,129.800000,116.400000C129.400000,116,127.800000,116.800000,126.300000,118.300000Z" clip-rule="evenodd" fill="rgb(237,135,124)" fill-rule="evenodd" stroke="none" stroke-width="1"/></g></g></svg>