<svg id="s1" xmlns="http://www.w3.org/2000/svg" xmlns:xlink="http://www.w3.org/1999/xlink" viewBox="0 0 100 100"><path id="s3" d="M50,34.680000C41.538998,34.680000,34.680000,41.538998,34.680000,50C34.680000,58.461002,41.538998,65.320000,50,65.320000C58.461002,65.320000,65.320000,58.461002,65.320000,50C65.320000,41.538998,58.461002,34.680000,50,34.680000ZM50,59.950000C44.504767,59.950000,40.050000,55.495233,40.050000,50C40.050000,44.504767,44.504767,40.050000,50,40.050000C55.495233,40.050000,59.950000,44.504767,59.950000,50C59.950000,52.638904,58.901699,55.169726,57.035712,57.035712C55.169726,58.901699,52.638904,59.950000,50,59.950000ZM65.930000,37.650000C64.482025,37.650000,63.176627,36.777761,62.622511,35.440007C62.068395,34.102252,62.374685,32.562431,63.398558,31.538558C64.422431,30.514685,65.962252,30.208395,67.300007,30.762511C68.637761,31.316627,69.510000,32.622025,69.510000,34.070000C69.510000,36.047179,67.907179,37.650000,65.930000,37.650000ZM79.660000,37.650000C79.609308,35.175439,79.139311,32.727395,78.270000,30.410000C76.719635,26.400195,73.549805,23.230365,69.540000,21.680000C67.222447,20.811248,64.774500,20.341269,62.300000,20.290000C59.120000,20.140000,58.100000,20.110000,50,20.110000C41.900000,20.110000,40.880000,20.110000,37.700000,20.290000C35.225479,20.341077,32.777500,20.811062,30.460000,21.680000C26.450890,23.231432,23.281432,26.400890,21.730000,30.410000C20.860875,32.727448,20.390884,35.175459,20.340000,37.650000C20.190000,40.830000,20.160000,41.850000,20.160000,49.950000C20.160000,58.050000,20.160000,59.070000,20.340000,62.250000C20.390692,64.724561,20.860689,67.172605,21.730000,69.490000C23.280365,73.499805,26.450195,76.669635,30.460000,78.220000C32.777500,79.088938,35.225479,79.558923,37.700000,79.610000C40.880000,79.760000,41.900000,79.790000,50,79.790000C58.100000,79.790000,59.120000,79.790000,62.300000,79.610000C64.774521,79.558923,67.222500,79.088938,69.540000,78.220000C73.549805,76.669635,76.719635,73.499805,78.270000,69.490000C79.139311,67.172605,79.609308,64.724561,79.660000,62.250000C79.810000,59.070000,79.840000,58.050000,79.840000,49.950000C79.840000,41.850000,79.810000,40.880000,79.660000,37.700000ZM74.290000,62.060000C74.275886,63.950261,73.937649,65.824096,73.290000,67.600000C72.286298,70.200663,70.230663,72.256298,67.630000,73.260000C65.854303,73.908417,63.980335,74.246678,62.090000,74.260000C58.940000,74.400000,58,74.430000,50.030000,74.430000C42.060000,74.430000,41.120000,74.430000,37.970000,74.260000C36.079665,74.246678,34.205697,73.908417,32.430000,73.260000C29.829337,72.256298,27.773702,70.200663,26.770000,67.600000C26.122160,65.824148,25.783916,63.950279,25.770000,62.060000C25.630000,58.910000,25.600000,57.970000,25.600000,50C25.600000,42.030000,25.600000,41.090000,25.770000,37.940000C25.783916,36.049721,26.122160,34.175852,26.770000,32.400000C27.774772,29.800033,29.830033,27.744772,32.430000,26.740000C34.205852,26.092160,36.079721,25.753916,37.970000,25.740000C41.120000,25.600000,42.060000,25.570000,50.030000,25.570000C58,25.570000,58.940000,25.570000,62.090000,25.740000C63.980298,25.753718,65.854199,26.091968,67.630000,26.740000C70.230663,27.743702,72.286298,29.799337,73.290000,32.400000C73.938417,34.175697,74.276678,36.049665,74.290000,37.940000C74.430000,41.090000,74.460000,42.030000,74.460000,50C74.460000,57.970000,74.440000,58.910000,74.290000,62.060000Z" fill="rgb(84,131,204)" stroke="none" stroke-width="1"/></svg>