<svg id="s1" xmlns="http://www.w3.org/2000/svg" xmlns:xlink="http://www.w3.org/1999/xlink" viewBox="0 0 400 400"><defs><linearGradient id="s11-fill" x1="236.409200" y1="343.732400" x2="251.691600" y2="380.061400" spreadMethod="pad" gradientUnits="userSpaceOnUse"><stop id="s11-fill-0" offset="3%" stop-color="rgb(112,116,122)"/><stop id="s11-fill-1" offset="100%" stop-color="rgb(51,53,56)"/></linearGradient><linearGradient id="s13-fill" x1="268.755000" y1="279.350000" x2="302.159800" y2="350.450600" spreadMethod="pad" gradientUnits="userSpaceOnUse"><stop id="s13-fill-0" offset="14%" stop-color="rgb(225,225,227)"/><stop id="s13-fill-1" offset="38%" stop-color="rgb(207,207,209)"/><stop id="s13-fill-2" offset="100%" stop-color="rgb(187,187,188)"/></linearGradient><linearGradient id="s19-fill" x1="230.060800" y1="272.410800" x2="268.759000" y2="344.075800" spreadMethod="pad" gradientUnits="userSpaceOnUse"><stop id="s19-fill-0" offset="4%" stop-color="rgb(82,130,186)"/><stop id="s19-fill-1" offset="68%" stop-color="rgb(56,92,133)"/></linearGradient><linearGradient id="s21-fill" x1="285.021714" y1="363.147800" x2="230.608511" y2="320.715000" spreadMethod="pad" gradientUnits="userSpaceOnUse"><stop id="s21-fill-0" offset="11%" stop-color="rgb(112,116,122)"/><stop id="s21-fill-1" offset="85%" stop-color="rgb(142,147,156)"/></linearGradient><linearGradient id="s23-fill" x1="265.285813" y1="341.484000" x2="244.982312" y2="325.654600" spreadMethod="pad" gradientUnits="userSpaceOnUse"><stop id="s23-fill-0" offset="11%" stop-color="rgb(95,99,105)"/><stop id="s23-fill-1" offset="86%" stop-color="rgb(116,120,128)"/></linearGradient><linearGradient id="s25-fill" x1="350.538000" y1="315.879600" x2="314.072800" y2="288.837800" spreadMethod="pad" gradientUnits="userSpaceOnUse"><stop id="s25-fill-0" offset="11%" stop-color="rgb(133,136,140)"/><stop id="s25-fill-1" offset="85%" stop-color="rgb(153,158,168)"/></linearGradient><linearGradient id="s27-fill" x1="239.253200" y1="279.850000" x2="264.206800" y2="326.049600" spreadMethod="pad" gradientUnits="userSpaceOnUse"><stop id="s27-fill-0" offset="23%" stop-color="rgba(115,167,227,0.2)"/><stop id="s27-fill-1" offset="85%" stop-color="rgba(115,167,227,0.4)"/></linearGradient><linearGradient id="s31-fill" x1="288.505403" y1="-168.121898" x2="282.388703" y2="-122.475099" spreadMethod="pad" gradientUnits="userSpaceOnUse"><stop id="s31-fill-0" offset="0%" stop-color="rgb(64,67,69)"/><stop id="s31-fill-1" offset="100%" stop-color="rgb(43,44,46)"/></linearGradient><linearGradient id="s33-fill" x1="260.647868" y1="-150.067535" x2="313.493237" y2="-107.639479" spreadMethod="pad" gradientUnits="userSpaceOnUse"><stop id="s33-fill-0" offset="0%" stop-color="rgb(208,208,210)"/><stop id="s33-fill-1" offset="32%" stop-color="rgb(172,172,173)"/><stop id="s33-fill-2" offset="62%" stop-color="rgb(172,172,173)"/><stop id="s33-fill-3" offset="99%" stop-color="rgb(209,209,209)"/></linearGradient><linearGradient id="s35-fill" x1="259.956504" y1="-151.445499" x2="311.834302" y2="-109.544199" spreadMethod="pad" gradientUnits="userSpaceOnUse"><stop id="s35-fill-0" offset="0%" stop-color="rgb(208,208,210)"/><stop id="s35-fill-1" offset="14%" stop-color="rgb(230,230,230)"/><stop id="s35-fill-2" offset="66%" stop-color="rgb(168,168,168)"/><stop id="s35-fill-3" offset="85%" stop-color="rgb(157,157,158)"/><stop id="s35-fill-4" offset="100%" stop-color="rgb(183,183,186)"/></linearGradient><linearGradient id="s37-fill" x1="309.085200" y1="288.557400" x2="348.147600" y2="381.433600" spreadMethod="pad" gradientUnits="userSpaceOnUse"><stop id="s37-fill-0" offset="3%" stop-color="rgb(112,116,122)"/><stop id="s37-fill-1" offset="100%" stop-color="rgb(51,53,56)"/></linearGradient><linearGradient id="s53-fill" x1="-6.900000" y1="-17.380000" x2="6.300000" y2="15.870000" spreadMethod="pad" gradientUnits="userSpaceOnUse"><stop id="s53-fill-0" offset="3%" stop-color="rgb(112,116,122)"/><stop id="s53-fill-1" offset="100%" stop-color="rgb(51,53,56)"/></linearGradient><linearGradient id="s55-fill" x1="-6.900000" y1="-17.380000" x2="6.300000" y2="15.870000" spreadMethod="pad" gradientUnits="userSpaceOnUse"><stop id="s55-fill-0" offset="3%" stop-color="rgb(112,116,122)"/><stop id="s55-fill-1" offset="100%" stop-color="rgb(51,53,56)"/></linearGradient><linearGradient id="s57-fill" x1="-3.780000" y1="-9.510000" x2="3.450000" y2="8.690000" spreadMethod="pad" gradientUnits="userSpaceOnUse"><stop id="s57-fill-0" offset="3%" stop-color="rgb(112,116,122)"/><stop id="s57-fill-1" offset="100%" stop-color="rgb(51,53,56)"/></linearGradient></defs><g id="s3"><path id="s5" d="M209.390000,33.540000C243.920000,15.540000,292.030000,37.600000,297,101.270000C301.970000,164.940000,237,223.270000,198.330000,191.270000C174.490000,171.540000,190.180000,120.980000,241.330000,121.940000C271.550000,122.510000,298.760000,146.940000,304.050000,177.370000C314.120000,235.240000,221.400000,240.850000,241.900000,290.080000" fill="none" stroke="rgb(168,168,168)" stroke-width="11" stroke-miterlimit="10"/><g id="s7"><g id="s9"><path id="s11" d="M255.270000,361.270000L251.540000,357.950000L227.920000,358.390000L230.920000,362.280000C232.620559,364.479249,235.153164,365.879418,237.920000,366.150000L250.560000,367.360000C251.481612,369.049242,253.433319,369.896095,255.296558,369.415211C257.159797,368.934327,258.457901,367.248728,258.446902,365.324465C258.435903,363.400202,257.118614,361.729553,255.250000,361.270000Z" fill="url(#s11-fill)" stroke="none" stroke-width="1"/><path id="s13" d="M211.680000,332L214,321.660000C214.045769,321.454542,213.995250,321.239428,213.862807,321.075823C213.730365,320.912217,213.530485,320.818014,213.320000,320.820000L213.320000,320.820000C213.079945,320.821240,212.856500,320.697623,212.730004,320.493598C212.603508,320.289572,212.592145,320.034464,212.700000,319.820000L217.700000,310.320000C218.645359,308.508599,220.135373,307.039572,221.960000,306.120000L223.500000,305.350000C223.737399,305.230679,223.885195,304.985648,223.880000,304.720000L223.880000,304.720000C223.849524,303.026165,224.873992,301.491456,226.450000,300.870000L255.250000,289.500000C256.246301,289.103163,257.375874,289.238712,258.250000,289.860000L261.090000,291.860000C261.232331,291.960415,261.407375,292.003283,261.580000,291.980000L330.140000,282.760000C331.626838,282.561430,333.138076,282.653124,334.590000,283.030000L347.820000,286.480000C348.017265,286.530857,348.181974,286.666285,348.270000,286.850000L349.480000,289.440000C349.623239,289.744404,349.526069,290.107736,349.250000,290.300000L347.590000,291.440000C347.301692,291.638028,347.207160,292.020453,347.370000,292.330000L348.290000,294.060000C348.398809,294.262446,348.601277,294.397424,348.830000,294.420000L361.440000,295.600000C361.785978,295.635181,362.051704,295.922337,362.060000,296.270000L362.290000,308.880000C362.313973,310.186839,361.408299,311.327317,360.130000,311.600000L359.480000,311.740000C358.930771,311.847364,358.451648,312.179928,358.158987,312.656928C357.866325,313.133928,357.786900,313.711725,357.940000,314.250000L359.940000,321.690000C360.004790,321.923083,360.186917,322.105210,360.420000,322.170000L363.310000,322.970000C364.387851,323.263762,365.049921,324.346751,364.820000,325.440000L359.750000,349.630000C358.746544,354.422990,354.546589,357.874437,349.650000,357.930000L231.650000,359.320000C225.026743,359.403412,218.888094,355.858342,215.650000,350.080000L213.650000,346.500000C213.609909,346.428682,213.582820,346.350803,213.570000,346.270000L211.640000,334.500000C211.492430,333.671849,211.506012,332.823006,211.680000,332Z" fill="url(#s13-fill)" stroke="none" stroke-width="1"/><path id="s15" d="M347.550000,291.450000L349.210000,290.310000C349.486069,290.117736,349.583239,289.754404,349.440000,289.450000L348.230000,286.860000C348.141974,286.676285,347.977265,286.540857,347.780000,286.490000L344.950000,285.750000L291.260000,291.070000L290.470000,304.580000L347.320000,292.300000C347.178094,291.998580,347.275464,291.638736,347.550000,291.450000Z" fill="rgb(255,255,255)" fill-opacity="0.2" stroke="none" stroke-width="1"/><rect id="s17" width="16.650000" height="11.100000" rx="3.390000" ry="3.390000" transform="translate(-91.380000,110.950000) rotate(-21.679969) scale(1,1) translate(235.760000,288.570000)" fill="rgb(62,62,66)" stroke="none" stroke-width="1"/><path id="s19" d="M294.220000,303.450000L292.460000,291L290.460000,288.160000L261.270000,292L257.490000,289.310000C257.072121,289.016802,256.534972,288.952946,256.060000,289.140000L225.760000,301.140000C224.369188,301.621522,223.548745,303.057297,223.840000,304.500000C223.926918,304.861214,223.747001,305.233600,223.410000,305.390000L221.480000,306.390000C219.960052,307.152398,218.718193,308.373267,217.930000,309.880000L212.730000,319.880000C212.627469,320.077706,212.626669,320.312746,212.727853,320.511145C212.829037,320.709545,213.019761,320.846907,213.240000,320.880000C213.474966,320.906837,213.688511,321.029250,213.830407,321.218445C213.972303,321.407640,214.030027,321.646918,213.990000,321.880000L211.590000,332.480000C211.465288,333.031553,211.448311,333.602006,211.540000,334.160000L212.330000,338.950000L280.170000,328.340000Z" fill="url(#s19-fill)" stroke="none" stroke-width="1"/><path id="s21" d="M206,336.630000L207.830000,345.910000C207.975884,346.763215,208.714406,347.387793,209.580000,347.390000L288.900000,345.910000C289.896112,345.861438,290.665262,345.016268,290.620000,344.020000L290.330000,328.330000C290.336703,327.827609,290.133123,327.345281,289.768478,326.999628C289.403833,326.653975,288.911315,326.476460,288.410000,326.510000L207.550000,334.400000C207.038036,334.468660,206.578510,334.749357,206.283695,335.173510C205.988880,335.597663,205.885931,336.126205,206,336.630000Z" fill="url(#s21-fill)" stroke="none" stroke-width="1"/><path id="s23" d="M238.880000,339.260000L258.500000,338.890000C264,338.790000,268.440000,334.150000,268.730000,328.430000L234.600000,331.760000L234.660000,334.950000C234.643282,337.302217,236.527954,339.227084,238.880000,339.260000Z" fill="url(#s23-fill)" stroke="none" stroke-width="1"/><polygon id="s25" points="294.020000,303.810000 347.550000,291.450000 361.410000,295.620000 294.020000,303.810000" fill="url(#s25-fill)" stroke="none" stroke-width="1"/><path id="s27" d="M217.930000,309.840000L212.730000,319.840000C212.627469,320.037706,212.626669,320.272746,212.727853,320.471145C212.829037,320.669545,213.019761,320.806907,213.240000,320.840000C213.494126,320.872344,213.722849,321.010304,213.870000,321.220000L294,303.810000L294.200000,303.450000L292.460000,291L292.340000,290.830000C278.070000,294.040000,235.250000,303.690000,220.270000,307.100000C219.294407,307.826312,218.494671,308.762755,217.930000,309.840000Z" fill="url(#s27-fill)" stroke="none" stroke-width="1"/></g><g id="s29"><circle id="s31" r="33.850000" transform="translate(-6.220000,6.180000) rotate(-1.070003) scale(1,1) translate(328.810000,337.560000)" fill="url(#s31-fill)" stroke="none" stroke-width="1"/><circle id="s33" r="29.630000" transform="translate(-6.220000,6.180000) rotate(-1.070003) scale(1,1) translate(328.810000,337.560000)" fill="url(#s33-fill)" stroke="none" stroke-width="1"/><circle id="s35" r="26.600000" transform="translate(-6.220000,6.180000) rotate(-1.070003) scale(1,1) translate(328.810000,337.560000)" fill="url(#s35-fill)" stroke="none" stroke-width="1"/><path id="s37" d="M338.780000,312.900000L331.310000,326.420000C330.770207,327.393995,329.752216,328.006457,328.638835,328.027075C327.525454,328.047693,326.485485,327.473341,325.910000,326.520000L317.910000,313.290000C324.518771,310.334476,332.045324,310.193691,338.760000,312.900000ZM308.440000,320.470000C304.298523,325.383585,302.084371,331.635098,302.210000,338.060000C302.210000,338.850000,302.280000,339.640000,302.360000,340.410000L317.360000,336.920000C318.445253,336.666980,319.313169,335.854351,319.636970,334.788074C319.960772,333.721797,319.691295,332.563771,318.930000,331.750000ZM320.240000,345.120000L306.240000,351.660000C310.077292,357.797148,316.247409,362.107926,323.330000,363.600000L324.660000,348.210000C324.755976,347.101353,324.254209,346.025509,323.343155,345.386534C322.432101,344.747559,321.249684,344.642190,320.240000,345.110000ZM351.880000,350.810000L337.650000,344.810000C336.623151,344.376291,335.442921,344.523353,334.553903,345.195789C333.664885,345.868225,333.202146,346.963872,333.340000,348.070000L335.240000,363.400000C342.268356,361.641606,348.276890,357.095486,351.880000,350.810000ZM355.410000,337.070000C355.297494,330.643515,352.852268,324.477139,348.530000,319.720000L338.420000,331.380000C337.688304,332.222729,337.462471,333.392108,337.827756,334.446687C338.193041,335.501267,339.093804,336.280416,340.190000,336.490000L355.350000,339.420000C355.400000,338.650000,355.420000,337.860000,355.410000,337.070000Z" fill="url(#s37-fill)" stroke="none" stroke-width="1"/></g></g><g id="s39"><line id="s41" x1="149.820000" y1="83.250000" x2="84.010000" y2="344.070000" fill="none" stroke="rgb(118,122,128)" stroke-width="11" stroke-miterlimit="10"/><path id="s43" d="M212,32.270000C168.580000,50.270000,179.790000,45.160000,168.580000,50.270000C161.244067,53.751381,155.882139,60.371045,154,68.270000L147.570000,92.170000" fill="none" stroke="rgb(38,38,41)" stroke-width="15" stroke-miterlimit="10"/><rect id="s45" width="16.950000" height="20.890000" rx="1.020000" ry="1.020000" transform="translate(86.910000,-10.440000) rotate(14.319993) scale(0.999999,0.999999) translate(76.550000,330.280000)" fill="rgb(38,38,41)" stroke="none" stroke-width="1"/><line id="s47" x1="119.720000" y1="203.530000" x2="113.870000" y2="226.550000" fill="none" stroke="rgb(38,38,41)" stroke-width="15" stroke-miterlimit="10"/></g><g id="s49"><path id="s51" d="M89.820000,356.230000C94.320000,352.230000,91.750000,345.670000,91.750000,345.670000C87.949454,342.255135,83.611095,339.491289,78.910000,337.490000C72.580000,337.680000,68.300000,342.550000,66.730000,348.310000C35.390000,352.820000,27.730000,354.180000,26.870000,365.490000C26.833790,365.978866,27.003106,366.460684,27.337176,366.819429C27.671245,367.178175,28.139797,367.381339,28.630000,367.380000L90.420000,367.380000C91.011249,367.381823,91.570364,367.111138,91.935652,366.646227C92.300940,366.181315,92.431657,365.574031,92.290000,365C91.740000,362.840000,90.900000,359.700000,89.820000,356.230000Z" fill="rgb(38,38,41)" stroke="none" stroke-width="1"/><circle id="s53" r="9.450000" transform="translate(88.270000,359.790000)" fill="url(#s53-fill)" stroke="none" stroke-width="1"/><circle id="s55" r="9.450000" transform="translate(88.270000,359.790000)" fill="url(#s55-fill)" stroke="none" stroke-width="1"/><circle id="s57" r="5.170000" transform="translate(88.270000,359.790000)" fill="url(#s57-fill)" stroke="none" stroke-width="1"/></g></g></svg>