<svg id="s1" xmlns="http://www.w3.org/2000/svg" xmlns:xlink="http://www.w3.org/1999/xlink" viewBox="0 0 100 100"><path id="s3" d="M50,19.180000C32.630000,19.180000,19.180000,31.900000,19.180000,49.080000C19.070866,57.503239,22.598615,65.564583,28.860000,71.200000C29.364884,71.649094,29.664657,72.284758,29.690000,72.960000L29.860000,78.440000C29.887303,79.258786,30.318804,80.010759,31.011938,80.447474C31.705073,80.884189,32.569642,80.948815,33.320000,80.620000L39.440000,77.920000C39.956718,77.693066,40.535752,77.650697,41.080000,77.800000C43.985868,78.599177,46.986241,79.002814,50,79C67.370000,79,80.820000,66.280000,80.820000,49.100000C80.820000,31.920000,67.370000,19.180000,50,19.180000ZM68.510000,42.180000L59.510000,56.540000C58.819579,57.631668,57.704521,58.385296,56.434141,58.618864C55.163761,58.852432,53.853565,58.544702,52.820000,57.770000L45.620000,52.370000C44.960194,51.871649,44.049806,51.871649,43.390000,52.370000L33.660000,59.760000C33.097053,60.199016,32.299191,60.166558,31.773765,59.683266C31.248339,59.199973,31.149458,58.407596,31.540000,57.810000L40.590000,43.450000C41.280421,42.358332,42.395479,41.604704,43.665859,41.371136C44.936239,41.137568,46.246435,41.445298,47.280000,42.220000L54.480000,47.620000C55.139806,48.118351,56.050194,48.118351,56.710000,47.620000L66.430000,40.240000C66.995240,39.853286,67.753313,39.911444,68.252950,40.379854C68.752587,40.848263,68.859481,41.601012,68.510000,42.190000Z" fill="rgb(84,131,204)" stroke="none" stroke-width="1"/></svg>