<svg id="s1" xmlns="http://www.w3.org/2000/svg" xmlns:xlink="http://www.w3.org/1999/xlink" viewBox="0 0 100 100"><g id="s3"><path id="s5" d="M68,46.640000L53.590000,21.640000C52.875704,20.401518,51.554705,19.638443,50.125000,19.638443C48.695295,19.638443,47.374296,20.401518,46.660000,21.640000L40.450000,32.450000" fill="none" stroke="rgb(84,131,204)" stroke-width="4" stroke-linecap="round" stroke-linejoin="round"/><path id="s7" d="M55.590000,40.520000L67.590000,47.350000C67.846673,47.495825,68.161484,47.494344,68.416774,47.346111C68.672064,47.197878,68.829408,46.925204,68.830000,46.630000L68.760000,32.860000" fill="none" stroke="rgb(84,131,204)" stroke-width="4" stroke-linecap="round" stroke-linejoin="round"/><path id="s9" d="M47.070000,72.810000L75.890000,72.810000C77.318330,72.808536,78.637496,72.045562,79.351026,70.808225C80.064557,69.570889,80.064166,68.046970,79.350000,66.810000L73.110000,56" fill="none" stroke="rgb(84,131,204)" stroke-width="4" stroke-linecap="round" stroke-linejoin="round"/><path id="s11" d="M58.570000,65.110000L46.690000,72.110000C46.436875,72.259225,46.281515,72.531163,46.281515,72.825000C46.281515,73.118837,46.436875,73.390775,46.690000,73.540000L58.690000,80.350000" fill="none" stroke="rgb(84,131,204)" stroke-width="4" stroke-linecap="round" stroke-linejoin="round"/><path id="s13" d="M35.180000,41.850000L20.660000,66.740000C19.947584,67.973881,19.945275,69.493569,20.653938,70.729609C21.362601,71.965649,22.675246,72.731430,24.100000,72.740000L36.530000,72.800000" fill="none" stroke="rgb(84,131,204)" stroke-width="4" stroke-linecap="round" stroke-linejoin="round"/><path id="s15" d="M36,55.670000L36,41.890000C35.995892,41.596584,35.837157,41.327145,35.582502,41.181334C35.327847,41.035524,35.015126,41.035017,34.760000,41.180000L22.850000,48.070000" fill="none" stroke="rgb(84,131,204)" stroke-width="4" stroke-linecap="round" stroke-linejoin="round"/></g></svg>