<svg id="s1" xmlns="http://www.w3.org/2000/svg" xmlns:xlink="http://www.w3.org/1999/xlink" viewBox="0 0 100 100"><g id="s3"><path id="s5" d="M70.560000,39.360000L70.560000,39.360000C70.983698,40.100433,71.210903,40.936960,71.220000,41.790000C71.220000,44.551424,68.981424,46.790000,66.220000,46.790000C63.458576,46.790000,61.220000,44.551424,61.220000,41.790000C61.229097,40.936960,61.456302,40.100433,61.880000,39.360000L61.880000,39.360000L50,24.420000L38.180000,39.360000L38.180000,39.360000C38.603698,40.100433,38.830903,40.936960,38.840000,41.790000C38.840000,44.551424,36.601424,46.790000,33.840000,46.790000C31.078576,46.790000,28.840000,44.551424,28.840000,41.790000C28.849097,40.936960,29.076302,40.100433,29.500000,39.360000L29.500000,39.360000L22,30.520000L22,75.580000L78,75.580000L78,30.520000Z" fill="none" stroke="rgb(84,131,204)" stroke-width="4" stroke-linecap="round" stroke-linejoin="round"/><line id="s7" x1="21.960000" y1="64.360000" x2="78.040000" y2="64.360000" fill="none" stroke="rgb(84,131,204)" stroke-width="4" stroke-linecap="round" stroke-linejoin="round"/><circle id="s9" r="4.420000" transform="translate(50,50.950000)" fill="none" stroke="rgb(84,131,204)" stroke-width="4" stroke-linecap="round" stroke-linejoin="round"/></g></svg>