<svg id="eZiCondvrm61" xmlns="http://www.w3.org/2000/svg" xmlns:xlink="http://www.w3.org/1999/xlink" viewBox="0 0 400 400" shape-rendering="geometricPrecision" text-rendering="geometricPrecision"><g id="eZiCondvrm62"><g id="eZiCondvrm63"><polygon id="eZiCondvrm64" points="300.600000,375 93.300000,375 93.300000,356.900000 300.600000,356.900000" fill="rgb(0,0,0)" stroke="none" stroke-width="1"/><polygon id="eZiCondvrm65" points="282.100000,356.900000 111.900000,356.900000 111.900000,338.700000 282.100000,338.700000" fill="rgb(26,26,26)" stroke="none" stroke-width="1"/></g><g id="eZiCondvrm66"><path id="eZiCondvrm67" d="M206,276.500000L206,338.700000L187.800000,338.700000L187.800000,258.800000L196.900000,258.800000C247.500000,258.800000,288.500000,217.800000,288.500000,167.200000C288.500000,116.600000,247.500000,75.600000,196.900000,75.600000L187.800000,75.600000L187.800000,57.500000L196.900000,57.500000C257.500000,57.500000,306.600000,106.600000,306.600000,167.200000C306.700000,224.300000,262.900000,271.900000,206,276.500000L206,276.500000Z" fill="rgb(204,204,204)" stroke="none" stroke-width="1"/><g id="eZiCondvrm68"><polygon id="eZiCondvrm69" points="187.900000,276.900000 111.900000,276.900000 111.900000,258.800000 187.900000,258.800000" fill="rgb(26,26,26)" stroke="none" stroke-width="1"/><path id="eZiCondvrm610" d="M196.600000,263.900000C198.800000,263.900000,200.600000,265.700000,200.600000,267.900000C200.600000,270.100000,198.800000,271.900000,196.600000,271.900000C194.400000,271.900000,192.600000,270.100000,192.600000,267.900000C192.600000,265.600000,194.400000,263.900000,196.600000,263.900000Z" clip-rule="evenodd" fill="rgb(26,26,26)" fill-rule="evenodd" stroke="none" stroke-width="1"/></g><g id="eZiCondvrm611"><path id="eZiCondvrm612" d="M197,54.400000C203.700000,54.400000,209.100000,59.800000,209.100000,66.500000C209.100000,73.200000,203.700000,78.600000,197,78.600000L187.900000,78.600000L187.900000,201.700000L117.400000,201.700000L117.400000,45.700000L187.900000,45.700000L187.900000,54.400000L197,54.400000Z" fill="rgb(0,0,0)" stroke="none" stroke-width="1"/><path id="eZiCondvrm613" d="M197,62.500000C199.200000,62.500000,201,64.300000,201,66.500000C201,68.700000,199.200000,70.500000,197,70.500000C194.800000,70.500000,193,68.700000,193,66.500000C193,64.300000,194.800000,62.500000,197,62.500000Z" clip-rule="evenodd" fill="rgb(255,255,255)" fill-rule="evenodd" stroke="none" stroke-width="1"/><polygon id="eZiCondvrm614" points="175.600000,201.700000 129.700000,201.700000 129.700000,205.600000 175.600000,205.600000" clip-rule="evenodd" fill="rgb(179,179,179)" fill-rule="evenodd" stroke="none" stroke-width="1"/><polygon id="eZiCondvrm615" points="175.600000,37.900000 129.700000,37.900000 129.700000,45.700000 175.600000,45.700000" clip-rule="evenodd" fill="rgb(179,179,179)" fill-rule="evenodd" stroke="none" stroke-width="1"/><polygon id="eZiCondvrm616" points="166.700000,25 138.600000,25 138.600000,37.900000 166.700000,37.900000" clip-rule="evenodd" fill="rgb(51,51,51)" fill-rule="evenodd" stroke="none" stroke-width="1"/><polygon id="eZiCondvrm617" points="178.600000,223 126.700000,223 126.700000,205.600000 178.600000,205.600000" clip-rule="evenodd" fill="rgb(51,51,51)" fill-rule="evenodd" stroke="none" stroke-width="1"/></g></g></g></svg>