<svg id="s1" xmlns="http://www.w3.org/2000/svg" xmlns:xlink="http://www.w3.org/1999/xlink" viewBox="0 0 400 400"><defs><linearGradient id="s5-fill" x1="200" y1="84.500000" x2="200" y2="306.500000" spreadMethod="pad" gradientUnits="userSpaceOnUse"><stop id="s5-fill-0" offset="2%" stop-color="rgb(239,239,239)"/><stop id="s5-fill-1" offset="9%" stop-color="rgb(228,228,230)"/><stop id="s5-fill-2" offset="90%" stop-color="rgb(247,247,247)"/><stop id="s5-fill-3" offset="99%" stop-color="rgb(228,228,230)"/></linearGradient><linearGradient id="s9-fill" x1="97.260000" y1="-68.140000" x2="172.190000" y2="172.280000" spreadMethod="pad" gradientUnits="userSpaceOnUse"><stop id="s9-fill-0" offset="0%" stop-color="rgb(97,100,107)"/><stop id="s9-fill-1" offset="100%" stop-color="rgb(72,75,78)"/></linearGradient><linearGradient id="s11-fill" x1="0" y1="-6.620000" x2="0" y2="1.800000" spreadMethod="pad" gradientUnits="userSpaceOnUse"><stop id="s11-fill-0" offset="29%" stop-color="rgb(229,220,220)"/><stop id="s11-fill-1" offset="67%" stop-color="rgb(202,207,222)"/></linearGradient><linearGradient id="s13-fill" x1="200.110000" y1="316.250000" x2="200.110000" y2="303.160000" spreadMethod="pad" gradientUnits="userSpaceOnUse"><stop id="s13-fill-0" offset="0%" stop-color="rgb(231,233,240)"/><stop id="s13-fill-1" offset="62%" stop-color="rgb(184,187,196)"/></linearGradient><linearGradient id="s15-fill" x1="193.500000" y1="7.920000" x2="193.500000" y2="1.170000" spreadMethod="pad" gradientUnits="userSpaceOnUse"><stop id="s15-fill-0" offset="0%" stop-color="rgb(239,239,239)"/><stop id="s15-fill-1" offset="14%" stop-color="rgb(184,187,196)"/><stop id="s15-fill-2" offset="35%" stop-color="rgb(247,247,247)"/></linearGradient><linearGradient id="s17-fill" x1="200" y1="311.240000" x2="200" y2="295.880000" spreadMethod="pad" gradientUnits="userSpaceOnUse"><stop id="s17-fill-0" offset="36%" stop-color="rgb(226,226,226)"/><stop id="s17-fill-1" offset="74%" stop-color="rgb(208,211,219)"/><stop id="s17-fill-2" offset="94%" stop-color="rgb(226,226,226)"/></linearGradient></defs><g id="s3"><path id="s5" d="M53.920000,89.690000L346.080000,89.690000C351.740919,89.690000,356.330000,94.279081,356.330000,99.940000L356.330000,304.350000L43.670000,304.350000L43.670000,99.940000C43.670000,94.279081,48.259081,89.690000,53.920000,89.690000Z" fill="url(#s5-fill)" stroke="rgb(230,230,230)" stroke-width="1" stroke-miterlimit="10"/><path id="s7" d="M102.910000,41.690000L306.330000,41.690000L306.330000,352.350000L102.910000,352.350000C97.801366,352.350000,93.660000,348.208634,93.660000,343.100000L93.660000,50.940000C93.660000,45.831366,97.801366,41.690000,102.910000,41.690000Z" transform="translate(397.020000,-2.980000) rotate(90)" fill="none" stroke="rgb(246,246,247)" stroke-width="1" stroke-miterlimit="10"/><rect id="s9" width="294.670000" height="185" rx="1.670000" ry="1.670000" transform="translate(52.670000,104.020000)" fill="url(#s9-fill)" stroke="none" stroke-width="1"/><circle id="s11" r="1.710000" transform="translate(200,97.710000)" fill="url(#s11-fill)" stroke="none" stroke-width="1"/><path id="s13" d="M392.130000,306L8.100000,306L8.100000,307C16.160900,309.208989,24.481908,310.325632,32.840000,310.320000L367.160000,310.320000C375.608341,310.326479,384.018461,309.186066,392.160000,306.930000Z" fill="url(#s13-fill)" stroke="none" stroke-width="1"/><rect id="s15" width="387" height="7" rx="2" ry="2" transform="translate(6.500000,300.020000)" fill="url(#s15-fill)" stroke="none" stroke-width="1"/><path id="s17" d="M167.920000,300C168.638539,302.636714,171.078993,304.430800,173.810000,304.330000L226.180000,304.330000C228.911007,304.430800,231.351461,302.636714,232.070000,300Z" fill="url(#s17-fill)" stroke="none" stroke-width="1"/></g></svg>