<svg id="s1" xmlns="http://www.w3.org/2000/svg" xmlns:xlink="http://www.w3.org/1999/xlink" viewBox="0 0 100 100"><path id="s3" d="M72.400000,37.610000L58.470000,37.610000L58.470000,34.150000L72.400000,34.150000L72.400000,37.610000ZM49.210000,51.790000C50.143920,53.308882,50.613186,55.067760,50.560000,56.850000C50.584989,58.802174,50.043087,60.719673,49,62.370000C48.366169,63.426021,47.534254,64.349617,46.550000,65.090000C45.399802,65.959991,44.065740,66.555188,42.650000,66.830000C41.043519,67.152006,39.408408,67.309485,37.770000,67.300000L22.220000,67.300000L22.220000,32.710000L38.920000,32.710000C43.130000,32.780000,46.110000,34,47.920000,36.390000C48.998431,37.935422,49.552269,39.786224,49.500000,41.670000C49.590332,43.503131,49.022910,45.308242,47.900000,46.760000C47.169082,47.599242,46.274025,48.279894,45.270000,48.760000C46.882888,49.305346,48.268836,50.371190,49.210000,51.790000ZM30.210000,46.350000L37.530000,46.350000C38.802581,46.404216,40.065487,46.106655,41.180000,45.490000C42.155794,44.817557,42.691412,43.669805,42.580000,42.490000C42.733407,41.132399,41.977049,39.835204,40.720000,39.300000C39.397087,38.905497,38.019992,38.723234,36.640000,38.760000L30.190000,38.760000ZM43.290000,56.350000C43.420278,54.773815,42.537019,53.288333,41.090000,52.650000C39.989030,52.219219,38.811515,52.018429,37.630000,52.060000L30.190000,52.060000L30.190000,61.270000L37.500000,61.270000C38.697391,61.327516,39.892664,61.119197,41,60.660000C42.510000,59.920000,43.270000,58.490000,43.270000,56.360000ZM77.580000,50.730000C77.774250,52.362335,77.844451,54.007050,77.790000,55.650000L59.790000,55.650000Q59.940000,59.380000,62.380000,60.880000C63.455654,61.527219,64.695284,61.850148,65.950000,61.810000C67.996109,61.961220,69.926941,60.847126,70.820000,59L77.430000,59C77.123912,60.707569,76.271062,62.269372,75,63.450000Q71.680000,67.060000,65.690000,67.070000C62.523176,67.096025,59.447706,66.009524,57,64Q53.230000,61,53.220000,54.090000Q53.220000,47.650000,56.630000,44.220000C58.981720,41.900307,62.189352,40.658526,65.490000,40.790000C67.490269,40.760018,69.474078,41.155416,71.310000,41.950000C73.055459,42.739114,74.537547,44.012947,75.580000,45.620000C76.618353,47.151466,77.295376,48.898732,77.560000,50.730000ZM71.080000,51.380000C71.064668,49.894412,70.439077,48.480504,69.350000,47.470000C68.281200,46.561303,66.912107,46.083547,65.510000,46.130000C64.081599,46.044259,62.682304,46.559025,61.650000,47.550000C60.675694,48.606896,60.068896,49.950269,59.920000,51.380000L71.060000,51.380000Z" fill="rgb(84,131,204)" stroke="none" stroke-width="1"/></svg>