<svg id="s1" xmlns="http://www.w3.org/2000/svg" xmlns:xlink="http://www.w3.org/1999/xlink" viewBox="0 0 400 400"><defs><linearGradient id="s7-fill" x1="200" y1="74.810000" x2="200" y2="329.740000" spreadMethod="pad" gradientUnits="userSpaceOnUse"><stop id="s7-fill-0" offset="0%" stop-color="rgb(210,210,212)"/><stop id="s7-fill-1" offset="100%" stop-color="rgb(218,218,219)"/></linearGradient><linearGradient id="s9-fill" x1="192.320000" y1="59.020000" x2="206.150000" y2="145.850000" spreadMethod="pad" gradientUnits="userSpaceOnUse"><stop id="s9-fill-0" offset="1%" stop-color="rgba(253,253,255,0.5)"/><stop id="s9-fill-1" offset="85%" stop-color="rgba(253,253,255,0.2)"/></linearGradient><linearGradient id="s15-fill" x1="3.250000" y1="-5.960000" x2="139.010000" y2="164.120000" spreadMethod="pad" gradientUnits="userSpaceOnUse"><stop id="s15-fill-0" offset="20%" stop-color="rgb(235,221,166)"/><stop id="s15-fill-1" offset="65%" stop-color="rgb(204,171,115)"/><stop id="s15-fill-2" offset="100%" stop-color="rgb(224,203,147)"/></linearGradient></defs><g id="s3"><g id="s5"><path id="s7" d="M231.730000,75.840000L139.130000,75.840000C131.259942,75.840000,124.880000,82.219942,124.880000,90.090000L124.880000,309.910000C124.880000,317.780058,131.259942,324.160000,139.130000,324.160000L260.870000,324.160000C268.740058,324.160000,275.120000,317.780058,275.120000,309.910000L275.120000,119.240000C275.118307,114.344751,273.172310,109.650617,269.710000,106.190000L244.780000,81.250000C241.319383,77.787690,236.625249,75.841693,231.730000,75.840000Z" fill="url(#s7-fill)" stroke="none" stroke-width="1"/><path id="s9" d="M269.720000,107.840000L244.780000,82.910000C241.319383,79.447690,236.625249,77.501693,231.730000,77.500000L139.130000,77.500000C131.259942,77.500000,124.880000,83.879942,124.880000,91.750000L124.880000,95.080000C124.880000,87.209942,131.259942,80.830000,139.130000,80.830000L231.730000,80.830000C236.625249,80.831693,241.319383,82.777690,244.780000,86.240000L269.720000,111.180000C273.182310,114.640617,275.128307,119.334751,275.130000,124.230000L275.130000,120.900000C275.130960,116.001286,273.184761,111.303067,269.720000,107.840000Z" fill="url(#s9-fill)" stroke="none" stroke-width="1"/></g><g id="s11"><rect id="s13" width="128.070000" height="119.060000" rx="14.640000" ry="14.640000" transform="translate(442.840000,42.840000) rotate(90) translate(135.960000,183.310000)" fill="rgb(107,79,33)" stroke="none" stroke-width="1"/><rect id="s15" width="114.980000" height="124" rx="12.600000" ry="12.600000" transform="translate(142.510000,180.840000)" fill="url(#s15-fill)" stroke="none" stroke-width="1"/><path id="s17" d="M228,180.840000L228,216.100000C227.983512,222.588027,222.728027,227.843512,216.240000,227.860000L183.740000,227.860000C177.259785,227.832539,172.016431,222.580252,172,216.100000L172,180.840000" fill="none" stroke="rgb(107,79,33)" stroke-width="2" stroke-miterlimit="10"/><path id="s19" d="M172,304.840000L172,270.370000C172.016488,263.881973,177.271973,258.626488,183.760000,258.610000L216.290000,258.610000C222.758492,258.653872,227.983689,263.901380,228,270.370000L228,304.830000" fill="none" stroke="rgb(107,79,33)" stroke-width="2" stroke-miterlimit="10"/><line id="s21" x1="200" y1="180.840000" x2="200" y2="304.840000" fill="none" stroke="rgb(107,79,33)" stroke-width="2" stroke-miterlimit="10"/><line id="s23" x1="142.510000" y1="214.490000" x2="171.980000" y2="214.490000" fill="none" stroke="rgb(107,79,33)" stroke-width="2" stroke-miterlimit="10"/><line id="s25" x1="142.510000" y1="270.530000" x2="171.980000" y2="270.530000" fill="none" stroke="rgb(107,79,33)" stroke-width="2" stroke-miterlimit="10"/><line id="s27" x1="228.020000" y1="214.490000" x2="257.490000" y2="214.490000" fill="none" stroke="rgb(107,79,33)" stroke-width="2" stroke-miterlimit="10"/><line id="s29" x1="228.020000" y1="270.530000" x2="257.490000" y2="270.530000" fill="none" stroke="rgb(107,79,33)" stroke-width="2" stroke-miterlimit="10"/></g></g></svg>