<svg id="s1" xmlns="http://www.w3.org/2000/svg" xmlns:xlink="http://www.w3.org/1999/xlink" viewBox="0 0 400 400"><defs><linearGradient id="s5-fill" x1="200" y1="68.520000" x2="200" y2="316.610000" spreadMethod="pad" gradientUnits="userSpaceOnUse"><stop id="s5-fill-0" offset="0%" stop-color="rgb(208,208,210)"/><stop id="s5-fill-1" offset="10%" stop-color="rgb(239,239,239)"/><stop id="s5-fill-2" offset="29%" stop-color="rgb(144,144,145)"/><stop id="s5-fill-3" offset="77%" stop-color="rgb(102,102,102)"/><stop id="s5-fill-4" offset="88%" stop-color="rgb(144,144,144)"/><stop id="s5-fill-5" offset="100%" stop-color="rgb(154,154,156)"/></linearGradient><linearGradient id="s7-fill" x1="200" y1="67.160000" x2="200" y2="336.830000" spreadMethod="pad" gradientUnits="userSpaceOnUse"><stop id="s7-fill-0" offset="0%" stop-color="rgb(208,208,210)"/><stop id="s7-fill-1" offset="6%" stop-color="rgb(230,230,230)"/><stop id="s7-fill-2" offset="21%" stop-color="rgb(144,144,145)"/><stop id="s7-fill-3" offset="82%" stop-color="rgb(168,168,168)"/><stop id="s7-fill-4" offset="93%" stop-color="rgb(209,209,209)"/><stop id="s7-fill-5" offset="100%" stop-color="rgb(154,154,156)"/></linearGradient><linearGradient id="s11-fill" x1="95.240000" y1="200.989988" x2="126.340000" y2="195.119988" spreadMethod="pad" gradientUnits="userSpaceOnUse"><stop id="s11-fill-0" offset="0%" stop-color="rgb(208,208,210)"/><stop id="s11-fill-1" offset="66%" stop-color="rgb(144,144,145)"/></linearGradient><linearGradient id="s13-fill" x1="100.640000" y1="201.379988" x2="137.040000" y2="194.509988" spreadMethod="pad" gradientUnits="userSpaceOnUse"><stop id="s13-fill-0" offset="0%" stop-color="rgb(208,208,210)"/><stop id="s13-fill-1" offset="66%" stop-color="rgb(144,144,145)"/></linearGradient><linearGradient id="s17-fill" x1="284.333799" y1="135.015407" x2="256.436400" y2="149.718808" spreadMethod="pad" gradientUnits="userSpaceOnUse"><stop id="s17-fill-0" offset="0%" stop-color="rgb(208,208,210)"/><stop id="s17-fill-1" offset="66%" stop-color="rgb(144,144,145)"/></linearGradient><linearGradient id="s19-fill" x1="280.355800" y1="138.673807" x2="247.712201" y2="155.877008" spreadMethod="pad" gradientUnits="userSpaceOnUse"><stop id="s19-fill-0" offset="0%" stop-color="rgb(208,208,210)"/><stop id="s19-fill-1" offset="66%" stop-color="rgb(144,144,145)"/></linearGradient><linearGradient id="s23-fill" x1="304.759988" y1="200.989988" x2="273.659988" y2="195.119988" spreadMethod="pad" gradientUnits="userSpaceOnUse"><stop id="s23-fill-0" offset="0%" stop-color="rgb(208,208,210)"/><stop id="s23-fill-1" offset="66%" stop-color="rgb(144,144,145)"/></linearGradient><linearGradient id="s25-fill" x1="299.349988" y1="201.379988" x2="262.959988" y2="194.509988" spreadMethod="pad" gradientUnits="userSpaceOnUse"><stop id="s25-fill-0" offset="0%" stop-color="rgb(208,208,210)"/><stop id="s25-fill-1" offset="66%" stop-color="rgb(144,144,145)"/></linearGradient><linearGradient id="s29-fill" x1="-29.470000" y1="-94.360000" x2="32.660000" y2="104.570000" spreadMethod="pad" gradientUnits="userSpaceOnUse"><stop id="s29-fill-0" offset="0%" stop-color="rgb(228,228,230)"/><stop id="s29-fill-1" offset="83%" stop-color="rgb(247,247,247)"/><stop id="s29-fill-2" offset="99%" stop-color="rgb(197,197,199)"/></linearGradient><linearGradient id="s31-fill" x1="164.640000" y1="92.780000" x2="230.970000" y2="291.440000" spreadMethod="pad" gradientUnits="userSpaceOnUse"><stop id="s31-fill-0" offset="13%" stop-color="rgba(88,91,97,0)"/><stop id="s31-fill-1" offset="88%" stop-color="rgba(88,91,97,0)"/><stop id="s31-fill-2" offset="100%" stop-color="rgba(88,91,97,0.3)"/></linearGradient><linearGradient id="s33-fill" x1="-34.570000" y1="-86.970000" x2="28.870000" y2="72.640000" spreadMethod="pad" gradientUnits="userSpaceOnUse"><stop id="s33-fill-0" offset="0%" stop-color="rgb(88,91,97)"/><stop id="s33-fill-1" offset="85%" stop-color="rgb(72,75,78)"/><stop id="s33-fill-2" offset="100%" stop-color="rgb(76,79,84)"/></linearGradient><linearGradient id="s35-fill" x1="0" y1="-107.570000" x2="0" y2="13.120000" spreadMethod="pad" gradientUnits="userSpaceOnUse"><stop id="s35-fill-0" offset="0%" stop-color="rgb(107,109,114)"/><stop id="s35-fill-1" offset="66%" stop-color="rgba(107,109,114,0)"/></linearGradient></defs><g id="s3"><path id="s5" d="M149.120000,110.140000C147.360786,111.151554,146.232096,112.983794,146.120000,115.010000C144.700000,142.380000,143.970000,170.390000,143.970000,198.680000C143.970000,226.970000,144.700000,254.980000,146.130000,282.350000C146.242096,284.376206,147.370786,286.208446,149.130000,287.220000C180.635688,305.305615,219.374312,305.305615,250.880000,287.220000C252.639214,286.208446,253.767904,284.376206,253.880000,282.350000C255.310000,255,256,227,256,198.680000C256,170.360000,255.270000,142.380000,253.850000,115.010000C253.737904,112.983794,252.609214,111.151554,250.850000,110.140000C219.341762,92.050558,180.598238,92.050558,149.090000,110.140000Z" fill="url(#s5-fill)" stroke="none" stroke-width="1"/><path id="s7" d="M161.650000,77.430000C159.692830,78.028908,158.298306,79.760177,158.130000,81.800000C155.360000,118.690000,153.870000,157.950000,153.870000,198.670000C153.870000,240.400000,155.440000,280.580000,158.340000,318.260000C158.509816,320.302475,159.908901,322.034488,161.870000,322.630000C186.727093,330.218335,213.282907,330.218335,238.140000,322.630000C240.101099,322.034488,241.500184,320.302475,241.670000,318.260000C244.570000,280.580000,246.140000,240.400000,246.140000,198.670000C246.140000,157.950000,244.650000,118.670000,241.880000,81.800000C241.711694,79.760177,240.317170,78.028908,238.360000,77.430000C213.370148,69.749576,186.649852,69.749576,161.660000,77.430000Z" fill="url(#s7-fill)" stroke="none" stroke-width="1"/><g id="s9"><path id="s11" d="M117.350000,187.330000L117.350000,210C117.350000,210.690356,116.790356,211.250000,116.100000,211.250000L99,211.250000C98.665824,211.252663,98.344278,211.122460,98.106105,210.888037C97.867931,210.653615,97.732642,210.334176,97.730000,210C96.754702,202.474802,96.754702,194.855198,97.730000,187.330000C97.840000,186.490000,98.290000,186.080000,98.980000,186.080000L116.100000,186.080000C116.431521,186.080000,116.749463,186.211696,116.983883,186.446117C117.218304,186.680537,117.350000,186.998479,117.350000,187.330000Z" fill="url(#s11-fill)" stroke="none" stroke-width="1"/><path id="s13" d="M126.850000,210C126.850000,211.794925,125.394925,213.250000,123.600000,213.250000L106.480000,213.250000C104.782212,213.254309,103.370890,211.943484,103.250000,210.250000C102.755436,206.379585,102.504941,202.481882,102.500000,198.580000C102.500955,194.734478,102.751481,190.893072,103.250000,187.080000C103.356373,185.379601,104.776386,184.060704,106.480000,184.080000L123.600000,184.080000C125.394925,184.080000,126.850000,185.535075,126.850000,187.330000Z" fill="url(#s13-fill)" stroke="none" stroke-width="1"/></g><g id="s15"><path id="s17" d="M257.510000,138.240000L271.650000,156C271.856472,156.260490,272.158192,156.428017,272.488460,156.465548C272.818729,156.503078,273.150345,156.407521,273.410000,156.200000L286.790000,145.510000C287.327365,145.077079,287.416527,144.292454,286.990000,143.750000C283.060772,137.249060,278.308099,131.283011,272.850000,126C272.648536,125.732344,272.345874,125.559308,272.013013,125.521483C271.680152,125.483658,271.346382,125.584372,271.090000,125.800000L257.710000,136.490000C257.173865,136.919317,257.084554,137.700788,257.510000,138.240000Z" fill="url(#s17-fill)" stroke="none" stroke-width="1"/><path id="s19" d="M264.230000,161.880000C264.768149,162.554003,265.552139,162.986454,266.409305,163.082112C267.266470,163.177769,268.126507,162.928787,268.800000,162.390000L282.180000,151.700000C283.512155,150.646263,283.800595,148.740805,282.840000,147.340000C280.810136,144.005894,278.572377,140.802892,276.140000,137.750000C273.740369,134.745119,271.148255,131.899139,268.380000,129.230000C267.234037,127.974045,265.305983,127.833503,263.990000,128.910000L250.600000,139.600000C249.925997,140.138149,249.493546,140.922139,249.397888,141.779305C249.302231,142.636470,249.551213,143.496507,250.090000,144.170000Z" fill="url(#s19-fill)" stroke="none" stroke-width="1"/></g><g id="s21"><path id="s23" d="M282.650000,187.330000L282.650000,210C282.650000,210.690356,283.209644,211.250000,283.900000,211.250000L301,211.250000C301.688090,211.244560,302.244560,210.688090,302.250000,210C303.225298,202.474802,303.225298,194.855198,302.250000,187.330000C302.140000,186.490000,301.690000,186.080000,301,186.080000L283.900000,186.080000C283.568479,186.080000,283.250537,186.211696,283.016117,186.446117C282.781696,186.680537,282.650000,186.998479,282.650000,187.330000Z" fill="url(#s23-fill)" stroke="none" stroke-width="1"/><path id="s25" d="M273.150000,210C273.150000,211.794925,274.605075,213.250000,276.400000,213.250000L293.530000,213.250000C295.227788,213.254309,296.639110,211.943484,296.760000,210.250000C297.254564,206.379585,297.505059,202.481882,297.510000,198.580000C297.509045,194.734478,297.258519,190.893072,296.760000,187.080000C296.653627,185.379601,295.233614,184.060704,293.530000,184.080000L276.400000,184.080000C274.605075,184.080000,273.150000,185.535075,273.150000,187.330000Z" fill="url(#s25-fill)" stroke="none" stroke-width="1"/></g><g id="s27"><circle id="s29" r="92.820000" transform="translate(200,198.680000)" fill="url(#s29-fill)" stroke="rgb(222,222,223)" stroke-width="1" stroke-miterlimit="10"/><path id="s31" d="M200,290.500000C149.289214,290.500000,108.180000,249.390786,108.180000,198.680000C108.180000,147.969214,149.289214,106.860000,200,106.860000C250.710786,106.860000,291.820000,147.969214,291.820000,198.680000C291.759388,249.365658,250.685658,290.439388,200,290.500000Z" fill="url(#s31-fill)" stroke="none" stroke-width="1"/><circle id="s33" r="84.270000" transform="translate(200,198.680000)" fill="url(#s33-fill)" stroke="none" stroke-width="1"/><circle id="s35" r="82.180000" transform="translate(200,198.680000)" fill="url(#s35-fill)" stroke="none" stroke-width="1"/></g></g></svg>