<svg id="s1" xmlns="http://www.w3.org/2000/svg" xmlns:xlink="http://www.w3.org/1999/xlink" viewBox="0 0 100 100"><path id="s3" d="M63.450000,59L57.360000,65.100000C56.250585,66.192808,54.469415,66.192808,53.360000,65.100000L34.900000,46.670000C33.807192,45.560585,33.807192,43.779415,34.900000,42.670000L41,36.550000C41.738001,35.806642,41.842979,34.643483,41.250000,33.780000C38.412691,29.582545,35.940312,25.149660,33.860000,20.530000C33.441442,19.585469,32.583762,18.908315,31.567890,18.720339C30.552018,18.532363,29.508823,18.857779,28.780000,19.590000L22.530000,25.840000C19.119204,29.259148,17.846132,34.267078,19.210000,38.900000C25.086619,59.110711,40.889289,74.913381,61.100000,80.790000C65.732922,82.153868,70.740852,80.880796,74.160000,77.470000L80.410000,71.220000C81.142221,70.491177,81.467637,69.447982,81.279661,68.432110C81.091685,67.416238,80.414531,66.558558,79.470000,66.140000C74.850340,64.059688,70.417455,61.587309,66.220000,58.750000C65.356517,58.157021,64.193358,58.261999,63.450000,59Z" fill="rgb(84,131,204)" stroke="none" stroke-width="1"/></svg>