<svg id="ebTVOLld8iz1" xmlns="http://www.w3.org/2000/svg" xmlns:xlink="http://www.w3.org/1999/xlink" viewBox="0 0 400 400" shape-rendering="geometricPrecision" text-rendering="geometricPrecision"><defs><linearGradient id="ebTVOLld8iz9-fill" x1="200.003338" y1="272.366207" x2="200.003338" y2="234.843347" spreadMethod="pad" gradientUnits="userSpaceOnUse"><stop id="ebTVOLld8iz9-fill-0" offset="0%" stop-color="rgb(63,95,116)"/><stop id="ebTVOLld8iz9-fill-1" offset="100%" stop-color="rgb(154,187,204)"/></linearGradient><linearGradient id="ebTVOLld8iz15-fill" x1="0.003773" y1="-14.950449" x2="0.003773" y2="15.079592" spreadMethod="pad" gradientUnits="userSpaceOnUse"><stop id="ebTVOLld8iz15-fill-0" offset="0%" stop-color="rgb(215,223,224)"/><stop id="ebTVOLld8iz15-fill-1" offset="100%" stop-color="rgb(154,187,204)"/></linearGradient><linearGradient id="ebTVOLld8iz16-fill" x1="200.003773" y1="217.989836" x2="200.003773" y2="198.538021" spreadMethod="pad" gradientUnits="userSpaceOnUse"><stop id="ebTVOLld8iz16-fill-0" offset="0%" stop-color="rgb(63,95,116)"/><stop id="ebTVOLld8iz16-fill-1" offset="100%" stop-color="rgb(55,125,171)"/></linearGradient></defs><path id="ebTVOLld8iz2" d="M154.100000,258L133.100000,276.200000L133.100000,290.400000L137.400000,290.400000L137.400000,286.800000C137.400000,285.100000,138.800000,283.800000,140.400000,283.800000L140.400000,283.800000C142.100000,283.800000,143.400000,285.200000,143.400000,286.800000L143.400000,297.300000C143.400000,299,142,300.300000,140.400000,300.300000L140.400000,300.300000C138.700000,300.300000,137.400000,298.900000,137.400000,297.300000L137.400000,293.700000L133.100000,293.700000C133.100000,294.400000,132.500000,295,131.700000,295L131.700000,295C131,295,130.400000,294.400000,130.300000,293.700000L126.200000,293.700000L126.200000,297.300000C126.200000,299,124.800000,300.300000,123.200000,300.300000L123.200000,300.300000C121.500000,300.300000,120.200000,298.900000,120.200000,297.300000L120.200000,286.800000C120.200000,285.100000,121.600000,283.800000,123.200000,283.800000L123.200000,283.800000C124.900000,283.800000,126.200000,285.200000,126.200000,286.800000L126.200000,290.400000L130.300000,290.400000L130.300000,252.700000C131.200000,252.900000,132.100000,253,133,253.200000L133,274.100000L152.100000,257.500000C152.900000,257.700000,153.500000,257.800000,154.100000,258ZM245.900000,258L266.900000,276.200000L266.900000,290.400000L262.600000,290.400000L262.600000,286.800000C262.600000,285.100000,261.200000,283.800000,259.600000,283.800000L259.600000,283.800000C257.900000,283.800000,256.600000,285.200000,256.600000,286.800000L256.600000,297.300000C256.600000,299,258,300.300000,259.600000,300.300000L259.600000,300.300000C261.300000,300.300000,262.600000,298.900000,262.600000,297.300000L262.600000,293.700000L266.900000,293.700000C266.900000,294.400000,267.500000,295,268.300000,295L268.300000,295C269,295,269.600000,294.400000,269.700000,293.700000L273.800000,293.700000L273.800000,297.300000C273.800000,299,275.200000,300.300000,276.800000,300.300000L276.800000,300.300000C278.500000,300.300000,279.800000,298.900000,279.800000,297.300000L279.800000,286.800000C279.800000,285.100000,278.400000,283.800000,276.800000,283.800000L276.800000,283.800000C275.100000,283.800000,273.800000,285.200000,273.800000,286.800000L273.800000,290.400000L269.700000,290.400000L269.700000,252.700000C268.800000,252.900000,267.900000,253,267,253.200000L267,274.100000L247.900000,257.500000C247.100000,257.700000,246.500000,257.800000,245.900000,258L245.900000,258Z" clip-rule="evenodd" fill="rgb(26,26,26)" fill-rule="evenodd" stroke="none" stroke-width="1"/><g id="ebTVOLld8iz3"><path id="ebTVOLld8iz4" d="M205.600000,189.200000L194.500000,189.200000C194.100000,189.200000,193.800000,189.100000,193.500000,188.800000C193.200000,188.500000,193.100000,188.200000,193.100000,187.800000L198.400000,101C198.400000,100.300000,199,99.700000,199.800000,99.700000L200.400000,99.700000C201.100000,99.700000,201.700000,100.300000,201.800000,101L207.100000,187.800000C207.100000,188.200000,207,188.500000,206.700000,188.800000C206.300000,189.100000,206,189.200000,205.600000,189.200000Z" clip-rule="evenodd" fill="rgb(63,95,116)" fill-rule="evenodd" stroke="none" stroke-width="1"/><g id="ebTVOLld8iz5"><path id="ebTVOLld8iz6" d="M177.900000,216.700000L174.300000,227.400000C174.200000,227.800000,173.900000,228.100000,173.500000,228.300000C173.100000,228.500000,172.600000,228.500000,172.200000,228.400000L70.500000,200.800000C69.700000,200.600000,69.200000,199.800000,69.400000,199.100000L69.600000,198.600000C69.800000,197.900000,70.700000,197.500000,71.600000,197.600000L176.600000,215C177.100000,215.100000,177.400000,215.300000,177.700000,215.600000C178,215.900000,178.100000,216.300000,177.900000,216.700000L177.900000,216.700000Z" clip-rule="evenodd" fill="rgb(63,95,116)" fill-rule="evenodd" stroke="none" stroke-width="1"/><path id="ebTVOLld8iz7" d="M222.100000,216.700000L225.700000,227.400000C225.800000,227.800000,226.100000,228.100000,226.500000,228.300000C226.900000,228.500000,227.400000,228.500000,227.800000,228.400000L329.500000,200.800000C330.300000,200.600000,330.800000,199.800000,330.600000,199.100000L330.400000,198.600000C330.200000,197.900000,329.300000,197.500000,328.400000,197.600000L223.400000,215C222.900000,215.100000,222.600000,215.300000,222.300000,215.600000C222,215.900000,221.900000,216.300000,222.100000,216.700000L222.100000,216.700000Z" clip-rule="evenodd" fill="rgb(63,95,116)" fill-rule="evenodd" stroke="none" stroke-width="1"/></g></g><g id="ebTVOLld8iz8"><path id="ebTVOLld8iz9" d="M256.700000,234.800000C245.300000,257.300000,224.100000,272.300000,200,272.300000C175.900000,272.300000,154.700000,257.200000,143.300000,234.800000L256.700000,234.800000L256.700000,234.800000Z" clip-rule="evenodd" fill="url(#ebTVOLld8iz9-fill)" fill-rule="evenodd" stroke="none" stroke-width="1"/><g id="ebTVOLld8iz10"><path id="ebTVOLld8iz11" d="M167.500000,262.400000C145.300000,253.400000,98.600000,246,27.500000,240.200000C26.100000,240.100000,25,238.900000,25,237.500000C25,236.100000,26.100000,234.900000,27.500000,234.800000L143.300000,234.800000C149.100000,246.300000,157.500000,255.800000,167.500000,262.400000L167.500000,262.400000Z" clip-rule="evenodd" fill="rgb(154,187,204)" fill-rule="evenodd" stroke="none" stroke-width="1"/><path id="ebTVOLld8iz12" d="M232.500000,262.400000C254.700000,253.400000,301.400000,246,372.500000,240.200000C373.900000,240.100000,375,238.900000,375,237.500000C375,236.100000,373.900000,234.900000,372.500000,234.800000L256.700000,234.800000C250.900000,246.300000,242.500000,255.800000,232.500000,262.400000L232.500000,262.400000Z" clip-rule="evenodd" fill="rgb(154,187,204)" fill-rule="evenodd" stroke="none" stroke-width="1"/></g></g><g id="ebTVOLld8iz13"><ellipse id="ebTVOLld8iz14" rx="39.400000" ry="45.500000" transform="matrix(1 0 0 1 200 226.80000000000001)" clip-rule="evenodd" fill="rgb(154,187,204)" fill-rule="evenodd" stroke="none" stroke-width="1"/><ellipse id="ebTVOLld8iz15" rx="16.700000" ry="15" transform="matrix(1 0 0 1 200 232.69999999999999)" clip-rule="evenodd" fill="url(#ebTVOLld8iz15-fill)" fill-rule="evenodd" stroke="none" stroke-width="1"/><path id="ebTVOLld8iz16" d="M185.100000,216.700000C177.800000,221.800000,170,210.700000,177.300000,205.600000C190.700000,196.200000,209.200000,196.200000,222.600000,205.600000C229.900000,210.700000,222.100000,221.800000,214.800000,216.700000C206.200000,210.600000,193.800000,210.600000,185.100000,216.700000Z" fill="url(#ebTVOLld8iz16-fill)" stroke="none" stroke-width="1"/></g><g id="ebTVOLld8iz17"><circle id="ebTVOLld8iz18" r="20.900000" transform="matrix(1 0 0 1 78.20000000000000 259.30000000000001)" clip-rule="evenodd" fill="rgb(63,95,116)" fill-rule="evenodd" stroke="none" stroke-width="1"/><circle id="ebTVOLld8iz19" r="16.200000" transform="matrix(1 0 0 1 78.20000000000000 259.30000000000001)" clip-rule="evenodd" fill="rgb(26,26,26)" fill-rule="evenodd" stroke="none" stroke-width="1"/><circle id="ebTVOLld8iz20" r="20.900000" transform="matrix(1 0 0 1 321.80000000000001 259.30000000000001)" clip-rule="evenodd" fill="rgb(63,95,116)" fill-rule="evenodd" stroke="none" stroke-width="1"/><circle id="ebTVOLld8iz21" r="16.200000" transform="matrix(1 0 0 1 321.80000000000001 259.30000000000001)" clip-rule="evenodd" fill="rgb(26,26,26)" fill-rule="evenodd" stroke="none" stroke-width="1"/></g></svg>