<svg id="s1" xmlns="http://www.w3.org/2000/svg" xmlns:xlink="http://www.w3.org/1999/xlink" viewBox="0 0 400 400"><defs><linearGradient id="s5-fill" x1="-0.570000" y1="20.840000" x2="33.850000" y2="20.840000" spreadMethod="pad" gradientUnits="userSpaceOnUse"><stop id="s5-fill-0" offset="10%" stop-color="rgb(255,246,214)"/><stop id="s5-fill-1" offset="38%" stop-color="rgb(235,221,166)"/><stop id="s5-fill-2" offset="69%" stop-color="rgb(204,171,115)"/><stop id="s5-fill-3" offset="100%" stop-color="rgb(235,221,166)"/></linearGradient><linearGradient id="s7-fill" x1="-1.860000" y1="119.350000" x2="109.800000" y2="119.350000" spreadMethod="pad" gradientUnits="userSpaceOnUse"><stop id="s7-fill-0" offset="10%" stop-color="rgb(255,246,214)"/><stop id="s7-fill-1" offset="38%" stop-color="rgb(235,221,166)"/><stop id="s7-fill-2" offset="69%" stop-color="rgb(204,171,115)"/><stop id="s7-fill-3" offset="100%" stop-color="rgb(235,221,166)"/></linearGradient><linearGradient id="s9-fill" x1="167.710000" y1="137.290000" x2="258.160000" y2="137.290000" spreadMethod="pad" gradientUnits="userSpaceOnUse"><stop id="s9-fill-0" offset="0%" stop-color="rgb(112,116,122)"/><stop id="s9-fill-1" offset="65%" stop-color="rgb(76,79,84)"/><stop id="s9-fill-2" offset="99%" stop-color="rgb(112,116,122)"/></linearGradient><linearGradient id="s11-fill" x1="184.120000" y1="137.290000" x2="220.180000" y2="137.290000" spreadMethod="pad" gradientUnits="userSpaceOnUse"><stop id="s11-fill-0" offset="10%" stop-color="rgb(255,246,214)"/><stop id="s11-fill-1" offset="38%" stop-color="rgb(235,221,166)"/><stop id="s11-fill-2" offset="69%" stop-color="rgb(204,171,115)"/><stop id="s11-fill-3" offset="100%" stop-color="rgb(235,221,166)"/></linearGradient></defs><g id="s3"><rect id="s5" width="29.180000" height="41.690000" rx="4.070000" ry="4.070000" transform="translate(185.410000,85.300000)" fill="url(#s5-fill)" stroke="none" stroke-width="1"/><rect id="s7" width="94.660000" height="238.700000" rx="7.380000" ry="7.380000" transform="translate(152.670000,98.960000)" fill="url(#s7-fill)" stroke="none" stroke-width="1"/><path id="s9" d="M240,99L160,99C155.924139,99,152.620000,102.304139,152.620000,106.380000L152.620000,175.660000L247.280000,175.660000L247.280000,106.340000C247.258571,102.318460,244.021229,99.054436,240,99Z" fill="url(#s9-fill)" stroke="none" stroke-width="1"/><path id="s11" d="M215.290000,142.390000L205.100000,142.390000L205.100000,152.580000L194.900000,152.580000L194.900000,142.390000L184.710000,142.390000L184.710000,132.200000L194.900000,132.200000L194.900000,122L205.100000,122L205.100000,132.200000L215.290000,132.200000Z" fill="url(#s11-fill)" stroke="none" stroke-width="1"/><rect id="s13" width="10.190000" height="30.570000" rx="0" ry="0" transform="translate(-107.870000,507.870000) rotate(-90) translate(194.900000,292.580000)" fill="rgb(98,102,107)" stroke="none" stroke-width="1"/></g></svg>