<svg id="eLUvpk8IOTe1" xmlns="http://www.w3.org/2000/svg" xmlns:xlink="http://www.w3.org/1999/xlink" viewBox="0 0 400 400" shape-rendering="geometricPrecision" text-rendering="geometricPrecision"><g id="eLUvpk8IOTe2"><g id="eLUvpk8IOTe3"><polygon id="eLUvpk8IOTe4" points="71.300000,104.300000 329.900000,35 330.700000,37.900000 72,107.200000" fill="rgb(204,204,204)" stroke="none" stroke-width="1"/><polygon id="eLUvpk8IOTe5" points="70.900000,102.900000 251.500000,54.500000 253.100000,60.300000 72.400000,108.700000" fill="rgb(179,179,179)" stroke="none" stroke-width="1"/><polygon id="eLUvpk8IOTe6" points="331.800000,30.500000 334.600000,40.900000 328.800000,42.500000 326,32.100000" fill="rgb(153,153,153)" stroke="none" stroke-width="1"/><polygon id="eLUvpk8IOTe7" points="70.500000,101.400000 161.700000,77 164.100000,85.700000 72.800000,110.200000" fill="rgb(153,153,153)" stroke="none" stroke-width="1"/><path id="eLUvpk8IOTe8" d="M71.700000,121.700000C67.300000,121.700000,63.700000,118.100000,63.700000,113.700000L63.700000,105.700000C63.700000,101.300000,67.300000,97.700000,71.700000,97.700000C76.100000,97.700000,79.700000,101.300000,79.700000,105.700000L79.700000,113.700000C79.700000,118.200000,76.100000,121.700000,71.700000,121.700000Z" fill="rgb(128,128,128)" stroke="none" stroke-width="1"/><path id="eLUvpk8IOTe9" d="M71.700000,102.500000C69.900000,102.500000,68.400000,104,68.400000,105.800000C68.400000,107.600000,69.900000,109.100000,71.700000,109.100000C73.500000,109.100000,75,107.600000,75,105.800000C75,103.900000,73.500000,102.500000,71.700000,102.500000Z" clip-rule="evenodd" fill="rgb(102,102,102)" fill-rule="evenodd" stroke="rgb(128,128,128)" stroke-width="1" stroke-miterlimit="20.898600"/></g><g id="eLUvpk8IOTe10"><g id="eLUvpk8IOTe11"><path id="eLUvpk8IOTe12" d="M367.800000,113L32.200000,113C28.200000,113,25,116.200000,25,120.200000L25,349.400000C25,353.400000,28.200000,356.600000,32.200000,356.600000L367.700000,356.600000C371.700000,356.600000,374.900000,353.400000,374.900000,349.400000L374.900000,120.300000C375,116.300000,371.800000,113,367.800000,113Z" clip-rule="evenodd" fill="rgb(204,153,51)" fill-rule="evenodd" stroke="none" stroke-width="1"/><path id="eLUvpk8IOTe13" d="M27.800000,114.500000C26.100000,115.800000,25,117.900000,25,120.200000L25,349.400000C25,353.400000,28.200000,356.600000,32.200000,356.600000L367.700000,356.600000C371.700000,356.600000,374.900000,353.400000,374.900000,349.400000L374.900000,120.300000C374.900000,118,373.800000,115.900000,372.100000,114.600000C372.400000,115.100000,372.600000,115.700000,372.600000,116.400000L372.600000,347.600000C372.600000,348.600000,372.200000,349.400000,371.600000,350.100000C371,350.700000,370.100000,351.100000,369.100000,351.100000L30.800000,351.100000C29.800000,351.100000,29,350.700000,28.300000,350.100000C27.700000,349.500000,27.300000,348.600000,27.300000,347.600000L27.300000,116.300000C27.300000,115.700000,27.500000,115.100000,27.800000,114.500000L27.800000,114.500000Z" clip-rule="evenodd" fill="rgb(153,102,51)" fill-rule="evenodd" stroke="none" stroke-width="1"/></g><g id="eLUvpk8IOTe14"><polygon id="eLUvpk8IOTe15" points="356.900000,356.700000 313.600000,356.700000 328.100000,369.500000 356.900000,369.500000" clip-rule="evenodd" fill="rgb(102,51,0)" fill-rule="evenodd" stroke="none" stroke-width="1"/><polygon id="eLUvpk8IOTe16" points="43.100000,356.700000 86.400000,356.700000 71.900000,369.500000 43.100000,369.500000" clip-rule="evenodd" fill="rgb(102,51,0)" fill-rule="evenodd" stroke="none" stroke-width="1"/></g></g><g id="eLUvpk8IOTe17"><path id="eLUvpk8IOTe18" d="M353.300000,131.100000L46.700000,131.100000C44.700000,131.100000,43.100000,132.700000,43.100000,134.700000L43.100000,134.700000C43.100000,136.700000,44.700000,138.300000,46.700000,138.300000L353.300000,138.300000C355.300000,138.300000,356.900000,136.700000,356.900000,134.700000L356.900000,134.700000C356.900000,132.700000,355.300000,131.100000,353.300000,131.100000Z" clip-rule="evenodd" fill="rgb(255,204,153)" fill-rule="evenodd" stroke="none" stroke-width="1"/><path id="eLUvpk8IOTe19" d="M353.300000,148.600000L46.700000,148.600000C44.700000,148.600000,43.100000,150.200000,43.100000,152.200000L43.100000,152.200000C43.100000,154.200000,44.700000,155.800000,46.700000,155.800000L353.300000,155.800000C355.300000,155.800000,356.900000,154.200000,356.900000,152.200000L356.900000,152.200000C356.900000,150.200000,355.300000,148.600000,353.300000,148.600000Z" clip-rule="evenodd" fill="rgb(255,204,153)" fill-rule="evenodd" stroke="none" stroke-width="1"/><path id="eLUvpk8IOTe20" d="M353.300000,166L46.700000,166C44.700000,166,43.100000,167.600000,43.100000,169.600000L43.100000,169.600000C43.100000,171.600000,44.700000,173.200000,46.700000,173.200000L353.300000,173.200000C355.300000,173.200000,356.900000,171.600000,356.900000,169.600000L356.900000,169.600000C356.900000,167.600000,355.300000,166,353.300000,166Z" clip-rule="evenodd" fill="rgb(255,204,153)" fill-rule="evenodd" stroke="none" stroke-width="1"/><path id="eLUvpk8IOTe21" d="M353.300000,183.400000L46.700000,183.400000C44.700000,183.400000,43.100000,185,43.100000,187L43.100000,187C43.100000,189,44.700000,190.600000,46.700000,190.600000L353.300000,190.600000C355.300000,190.600000,356.900000,189,356.900000,187L356.900000,187C356.900000,185.100000,355.300000,183.400000,353.300000,183.400000Z" clip-rule="evenodd" fill="rgb(255,204,153)" fill-rule="evenodd" stroke="none" stroke-width="1"/><path id="eLUvpk8IOTe22" d="M353.300000,200.900000L46.700000,200.900000C44.700000,200.900000,43.100000,202.500000,43.100000,204.500000L43.100000,204.500000C43.100000,206.500000,44.700000,208.100000,46.700000,208.100000L353.300000,208.100000C355.300000,208.100000,356.900000,206.500000,356.900000,204.500000L356.900000,204.500000C356.900000,202.500000,355.300000,200.900000,353.300000,200.900000Z" clip-rule="evenodd" fill="rgb(255,204,153)" fill-rule="evenodd" stroke="none" stroke-width="1"/><path id="eLUvpk8IOTe23" d="M353.300000,218.300000L46.700000,218.300000C44.700000,218.300000,43.100000,219.900000,43.100000,221.900000L43.100000,221.900000C43.100000,223.900000,44.700000,225.500000,46.700000,225.500000L353.300000,225.500000C355.300000,225.500000,356.900000,223.900000,356.900000,221.900000L356.900000,221.900000C356.900000,220,355.300000,218.300000,353.300000,218.300000Z" clip-rule="evenodd" fill="rgb(255,204,153)" fill-rule="evenodd" stroke="none" stroke-width="1"/><path id="eLUvpk8IOTe24" d="M353.300000,235.800000L46.700000,235.800000C44.700000,235.800000,43.100000,237.400000,43.100000,239.400000L43.100000,239.400000C43.100000,241.400000,44.700000,243,46.700000,243L353.300000,243C355.300000,243,356.900000,241.400000,356.900000,239.400000L356.900000,239.400000C356.900000,237.400000,355.300000,235.800000,353.300000,235.800000Z" clip-rule="evenodd" fill="rgb(255,204,153)" fill-rule="evenodd" stroke="none" stroke-width="1"/><path id="eLUvpk8IOTe25" d="M353.300000,253.200000L46.700000,253.200000C44.700000,253.200000,43.100000,254.800000,43.100000,256.800000L43.100000,256.800000C43.100000,258.800000,44.700000,260.400000,46.700000,260.400000L353.300000,260.400000C355.300000,260.400000,356.900000,258.800000,356.900000,256.800000L356.900000,256.800000C356.900000,254.800000,355.300000,253.200000,353.300000,253.200000Z" clip-rule="evenodd" fill="rgb(255,204,153)" fill-rule="evenodd" stroke="none" stroke-width="1"/></g><g id="eLUvpk8IOTe26"><path id="eLUvpk8IOTe27" d="M353.300000,270.700000L46.700000,270.700000C44.700000,270.700000,43.100000,272.300000,43.100000,274.300000L43.100000,335C43.100000,337,44.700000,338.600000,46.700000,338.600000L353.300000,338.600000C355.300000,338.600000,356.900000,337,356.900000,335L356.900000,274.300000C356.900000,272.300000,355.300000,270.700000,353.300000,270.700000Z" clip-rule="evenodd" fill="rgb(255,255,255)" fill-rule="evenodd" stroke="none" stroke-width="1"/><g id="eLUvpk8IOTe28"><path id="eLUvpk8IOTe29" d="M323,285.200000C312.300000,285.200000,303.600000,293.900000,303.600000,304.600000C303.600000,315.300000,312.300000,324,323,324C333.700000,324,342.400000,315.300000,342.400000,304.600000C342.500000,293.900000,333.800000,285.200000,323,285.200000Z" clip-rule="evenodd" fill="rgb(153,204,204)" fill-rule="evenodd" stroke="none" stroke-width="1"/><path id="eLUvpk8IOTe30" d="M320.400000,292.500000C314.800000,293.700000,310.600000,298.700000,310.600000,304.600000C310.600000,311.400000,316.100000,317,323,317C329.800000,317,335.400000,311.500000,335.400000,304.600000C335.400000,298.600000,331.200000,293.700000,325.600000,292.500000L323,287.400000L320.400000,292.500000L320.400000,292.500000Z" clip-rule="evenodd" fill="rgb(255,255,255)" fill-rule="evenodd" stroke="none" stroke-width="1"/></g><g id="eLUvpk8IOTe31"><path id="eLUvpk8IOTe32" d="M288.500000,299.600000C285.700000,289.200000,275.100000,283.100000,264.700000,285.900000C254.300000,288.700000,248.200000,299.300000,251,309.700000C253.800000,320.100000,264.400000,326.200000,274.800000,323.400000C285.100000,320.700000,291.200000,310,288.500000,299.600000Z" clip-rule="evenodd" fill="rgb(153,204,204)" fill-rule="evenodd" stroke="none" stroke-width="1"/><path id="eLUvpk8IOTe33" d="M280.700000,299C278.100000,293.900000,272.200000,291.100000,266.500000,292.700000C259.900000,294.500000,256,301.300000,257.700000,307.900000C259.500000,314.500000,266.300000,318.400000,272.900000,316.700000C278.700000,315.200000,282.400000,309.800000,282.100000,304.100000L286.400000,300.300000L280.700000,299L280.700000,299Z" clip-rule="evenodd" fill="rgb(255,255,255)" fill-rule="evenodd" stroke="none" stroke-width="1"/></g><g id="eLUvpk8IOTe34"><path id="eLUvpk8IOTe35" d="M62.200000,310.300000L177.800000,310.300000C180.400000,310.300000,182.500000,312.400000,182.500000,315L182.500000,315C182.500000,317.600000,180.400000,319.700000,177.800000,319.700000L62.200000,319.700000C59.600000,319.700000,57.500000,317.600000,57.500000,315L57.500000,315C57.500000,312.400000,59.600000,310.300000,62.200000,310.300000Z" clip-rule="evenodd" fill="rgb(153,204,204)" fill-rule="evenodd" stroke="none" stroke-width="1"/><path id="eLUvpk8IOTe36" d="M145.800000,305.800000L145.800000,305.800000C143.600000,305.800000,141.800000,307.600000,141.800000,309.800000L141.800000,320.100000C141.800000,322.300000,143.600000,324.100000,145.800000,324.100000L145.800000,324.100000C148,324.100000,149.800000,322.300000,149.800000,320.100000L149.800000,309.800000C149.700000,307.600000,148,305.800000,145.800000,305.800000Z" clip-rule="evenodd" fill="rgb(51,51,51)" fill-rule="evenodd" stroke="none" stroke-width="1"/></g><g id="eLUvpk8IOTe37"><path id="eLUvpk8IOTe38" d="M230.100000,318.400000C237.700000,310.800000,237.700000,298.500000,230.100000,290.900000C222.500000,283.300000,210.200000,283.300000,202.600000,290.900000C195,298.500000,195,310.800000,202.600000,318.400000C210.200000,326,222.500000,326,230.100000,318.400000Z" clip-rule="evenodd" fill="rgb(153,204,204)" fill-rule="evenodd" stroke="none" stroke-width="1"/><path id="eLUvpk8IOTe39" d="M226.700000,311.400000C229.800000,306.600000,229.300000,300.100000,225.100000,295.900000C220.300000,291.100000,212.400000,291.100000,207.600000,295.900000C202.800000,300.700000,202.800000,308.600000,207.600000,313.400000C211.800000,317.600000,218.300000,318.200000,223.100000,315L228.600000,316.800000L226.700000,311.400000Z" clip-rule="evenodd" fill="rgb(255,255,255)" fill-rule="evenodd" stroke="none" stroke-width="1"/></g><g id="eLUvpk8IOTe40"><polygon id="eLUvpk8IOTe41" points="175.200000,285.200000 172.900000,285.200000 172.900000,295 175.200000,295" clip-rule="evenodd" fill="rgb(230,230,230)" fill-rule="evenodd" stroke="none" stroke-width="1"/><polygon id="eLUvpk8IOTe42" points="166.200000,285.200000 163.900000,285.200000 163.900000,295 166.200000,295" clip-rule="evenodd" fill="rgb(230,230,230)" fill-rule="evenodd" stroke="none" stroke-width="1"/><polygon id="eLUvpk8IOTe43" points="157.200000,285.200000 154.900000,285.200000 154.900000,295 157.200000,295" clip-rule="evenodd" fill="rgb(230,230,230)" fill-rule="evenodd" stroke="none" stroke-width="1"/><polygon id="eLUvpk8IOTe44" points="148.200000,285.200000 145.900000,285.200000 145.900000,295 148.200000,295" clip-rule="evenodd" fill="rgb(230,230,230)" fill-rule="evenodd" stroke="none" stroke-width="1"/><polygon id="eLUvpk8IOTe45" points="139.200000,285.200000 136.800000,285.200000 136.800000,295 139.200000,295" clip-rule="evenodd" fill="rgb(230,230,230)" fill-rule="evenodd" stroke="none" stroke-width="1"/><polygon id="eLUvpk8IOTe46" points="130.200000,285.200000 127.800000,285.200000 127.800000,295 130.200000,295" clip-rule="evenodd" fill="rgb(230,230,230)" fill-rule="evenodd" stroke="none" stroke-width="1"/><polygon id="eLUvpk8IOTe47" points="121.200000,285.200000 118.800000,285.200000 118.800000,295 121.200000,295" clip-rule="evenodd" fill="rgb(230,230,230)" fill-rule="evenodd" stroke="none" stroke-width="1"/><polygon id="eLUvpk8IOTe48" points="112.200000,285.200000 109.800000,285.200000 109.800000,295 112.200000,295" clip-rule="evenodd" fill="rgb(230,230,230)" fill-rule="evenodd" stroke="none" stroke-width="1"/><polygon id="eLUvpk8IOTe49" points="103.200000,285.200000 100.800000,285.200000 100.800000,295 103.200000,295" clip-rule="evenodd" fill="rgb(230,230,230)" fill-rule="evenodd" stroke="none" stroke-width="1"/><polygon id="eLUvpk8IOTe50" points="94.200000,285.200000 91.800000,285.200000 91.800000,295 94.200000,295" clip-rule="evenodd" fill="rgb(230,230,230)" fill-rule="evenodd" stroke="none" stroke-width="1"/><polygon id="eLUvpk8IOTe51" points="85.100000,285.200000 82.800000,285.200000 82.800000,295 85.100000,295" clip-rule="evenodd" fill="rgb(230,230,230)" fill-rule="evenodd" stroke="none" stroke-width="1"/><polygon id="eLUvpk8IOTe52" points="76.100000,285.200000 73.800000,285.200000 73.800000,295 76.100000,295" clip-rule="evenodd" fill="rgb(230,230,230)" fill-rule="evenodd" stroke="none" stroke-width="1"/><polygon id="eLUvpk8IOTe53" points="67.100000,285.200000 64.800000,285.200000 64.800000,295 67.100000,295" clip-rule="evenodd" fill="rgb(230,230,230)" fill-rule="evenodd" stroke="none" stroke-width="1"/></g></g></g></svg>