<svg id="e36EVfdgsJr1" xmlns="http://www.w3.org/2000/svg" xmlns:xlink="http://www.w3.org/1999/xlink" viewBox="0 0 400 400" shape-rendering="geometricPrecision" text-rendering="geometricPrecision"><g id="e36EVfdgsJr2"><path id="e36EVfdgsJr3" d="M375,79.800000L254.500000,79.800000L254.500000,354.500000L284,354.500000L284,346.200000C284,340.200000,288.900000,335.300000,294.900000,335.300000L327.800000,335.300000C333.800000,335.300000,338.700000,340.200000,338.700000,346.200000L338.700000,354.500000L375,354.500000L375,79.800000L375,79.800000ZM335.600000,102L287.100000,102C276.900000,102,268.500000,110.400000,268.500000,120.600000L268.500000,274C268.500000,284.200000,276.900000,292.600000,287.100000,292.600000L335.600000,292.600000C345.800000,292.600000,354.200000,284.200000,354.200000,274L354.200000,120.600000C354.200000,110.400000,345.800000,102,335.600000,102L335.600000,102Z" clip-rule="evenodd" fill="rgb(174,144,17)" fill-rule="evenodd" stroke="none" stroke-width="1"/><path id="e36EVfdgsJr4" d="M254.500000,79.800000L43.400000,79.800000L43.400000,354.500000L101.400000,354.500000L101.400000,349.600000C101.400000,341.300000,108.200000,334.600000,116.400000,334.600000L181.500000,334.600000C189.800000,334.600000,196.500000,341.300000,196.500000,349.600000L196.500000,354.500000L254.500000,354.500000L254.500000,79.800000L254.500000,79.800000Z" clip-rule="evenodd" fill="rgb(133,112,24)" fill-rule="evenodd" stroke="none" stroke-width="1"/></g><g id="e36EVfdgsJr5"><path id="e36EVfdgsJr6" d="M282.300000,267.800000L116.200000,267.800000C114.600000,267.800000,113.300000,269.100000,113.300000,270.700000L113.300000,270.700000C113.300000,272.300000,114.600000,273.600000,116.200000,273.600000L282.300000,273.600000C283.900000,273.600000,285.200000,272.300000,285.200000,270.700000L285.200000,270.700000C285.300000,269.100000,283.900000,267.800000,282.300000,267.800000Z" clip-rule="evenodd" fill="rgb(204,233,251)" fill-rule="evenodd" stroke="none" stroke-width="1"/><g id="e36EVfdgsJr7"><polygon id="e36EVfdgsJr8" points="282.300000,273.600000 183.300000,273.600000 183.300000,295.900000 282.300000,295.900000" clip-rule="evenodd" fill="rgb(181,216,210)" fill-rule="evenodd" stroke="none" stroke-width="1"/><polygon id="e36EVfdgsJr9" points="282.300000,273.600000 183.300000,273.600000 183.300000,276.100000 282.300000,276.100000" clip-rule="evenodd" fill="rgb(144,187,178)" fill-rule="evenodd" stroke="none" stroke-width="1"/><polygon id="e36EVfdgsJr10" points="116.200000,273.600000 183.300000,273.600000 183.300000,295.900000 116.200000,295.900000" clip-rule="evenodd" fill="rgb(144,187,178)" fill-rule="evenodd" stroke="none" stroke-width="1"/><polygon id="e36EVfdgsJr11" points="116.200000,273.600000 183.300000,273.600000 183.300000,276.100000 116.200000,276.100000" clip-rule="evenodd" fill="rgb(102,153,153)" fill-rule="evenodd" stroke="none" stroke-width="1"/></g><path id="e36EVfdgsJr12" d="M282.300000,267.800000L182.500000,267.800000C180.900000,267.800000,179.600000,269.100000,179.600000,270.700000L179.600000,270.700000C179.600000,272.300000,180.900000,273.600000,182.500000,273.600000L282.300000,273.600000C283.900000,273.600000,285.200000,272.300000,285.200000,270.700000L285.200000,270.700000C285.300000,269.100000,283.900000,267.800000,282.300000,267.800000Z" clip-rule="evenodd" fill="rgb(226,242,252)" fill-rule="evenodd" stroke="none" stroke-width="1"/></g><g id="e36EVfdgsJr13"><polygon id="e36EVfdgsJr14" points="103.400000,94.500000 75.100000,94.500000 75.100000,309.100000 103.400000,309.100000" clip-rule="evenodd" fill="rgb(46,91,118)" fill-rule="evenodd" stroke="none" stroke-width="1"/><polygon id="e36EVfdgsJr15" points="103.400000,94.500000 106.600000,94.500000 106.600000,309.100000 103.400000,309.100000" clip-rule="evenodd" fill="rgb(64,121,157)" fill-rule="evenodd" stroke="none" stroke-width="1"/></g><g id="e36EVfdgsJr16"><polygon id="e36EVfdgsJr17" points="316.400000,94.500000 288.100000,94.500000 288.100000,309.100000 316.400000,309.100000" clip-rule="evenodd" fill="rgb(46,91,118)" fill-rule="evenodd" stroke="none" stroke-width="1"/><polygon id="e36EVfdgsJr18" points="316.400000,94.500000 319.700000,94.500000 319.700000,309.100000 316.400000,309.100000" clip-rule="evenodd" fill="rgb(64,121,157)" fill-rule="evenodd" stroke="none" stroke-width="1"/><g id="e36EVfdgsJr19"><path id="e36EVfdgsJr20" d="M302.900000,122.900000C307.600000,122.900000,311.400000,129.700000,311.400000,138.100000C311.400000,146.500000,307.600000,153.300000,302.900000,153.300000L300.200000,153.300000C300.200000,145.800000,300.200000,131.900000,300.200000,122.800000L302.900000,122.800000Z" clip-rule="evenodd" fill="rgb(255,204,0)" fill-rule="evenodd" stroke="none" stroke-width="1"/><path id="e36EVfdgsJr21" d="M300.100000,122.900000C304.800000,122.900000,308.600000,129.700000,308.600000,138.100000C308.600000,146.500000,304.800000,153.300000,300.100000,153.300000C295.400000,153.300000,291.600000,146.500000,291.600000,138.100000C291.600000,129.700000,295.500000,122.900000,300.100000,122.900000Z" clip-rule="evenodd" fill="rgb(133,112,24)" fill-rule="evenodd" stroke="none" stroke-width="1"/></g></g><path id="e36EVfdgsJr22" d="M299.500000,132.900000C301.100000,132.900000,302.400000,135.300000,302.400000,138.200000C302.400000,141.100000,301.100000,143.500000,299.500000,143.500000L236.300000,143.500000C236.300000,140.900000,236.300000,136.100000,236.300000,133L299.500000,133Z" clip-rule="evenodd" fill="rgb(230,230,230)" fill-rule="evenodd" stroke="none" stroke-width="1"/><g id="e36EVfdgsJr23"><path id="e36EVfdgsJr24" d="M157.300000,79.800000C157.400000,63.400000,166,52.800000,176.900000,48.200000C181.100000,46.400000,185.700000,45.500000,190.300000,45.500000C194.900000,45.500000,199.500000,46.400000,203.700000,48.200000C214.600000,52.900000,223,63.400000,223,79.800000L223,150.800000L216.500000,150.800000L216.500000,79.800000C216.500000,66.400000,209.800000,57.900000,201.100000,54.200000C197.700000,52.700000,194,52,190.200000,52C186.500000,52,182.700000,52.700000,179.300000,54.200000C170.600000,57.900000,163.700000,66.500000,163.600000,79.800000L157.300000,79.800000Z" fill="rgb(204,51,0)" stroke="none" stroke-width="1"/><path id="e36EVfdgsJr25" d="M136.700000,79.800000C136.800000,63.400000,145.400000,52.800000,156.300000,48.200000C160.500000,46.400000,165.100000,45.500000,169.700000,45.500000C174.300000,45.500000,178.900000,46.400000,183.100000,48.200000C194,52.900000,202.400000,63.400000,202.400000,79.800000L202.400000,150.800000L196,150.800000L196,79.800000C196,66.400000,189.300000,57.900000,180.600000,54.200000C177.200000,52.700000,173.500000,52,169.700000,52C166,52,162.200000,52.700000,158.800000,54.200000C150.100000,57.900000,143.200000,66.500000,143.100000,79.800000L136.700000,79.800000L136.700000,79.800000Z" fill="rgb(255,102,102)" stroke="none" stroke-width="1"/></g><g id="e36EVfdgsJr26"><g id="e36EVfdgsJr27"><polygon id="e36EVfdgsJr28" points="236.300000,150.300000 196,150.300000 196,123 236.300000,123" clip-rule="evenodd" fill="rgb(64,121,157)" fill-rule="evenodd" stroke="none" stroke-width="1"/><polygon id="e36EVfdgsJr29" points="178.500000,150.300000 196,150.300000 196,123 178.500000,123" clip-rule="evenodd" fill="rgb(55,99,126)" fill-rule="evenodd" stroke="none" stroke-width="1"/><polygon id="e36EVfdgsJr30" points="241,150.300000 197.500000,150.300000 197.500000,166.300000 241,166.300000" clip-rule="evenodd" fill="rgb(76,143,185)" fill-rule="evenodd" stroke="none" stroke-width="1"/><polygon id="e36EVfdgsJr31" points="175.200000,150.300000 197.500000,150.300000 197.500000,166.300000 175.200000,166.300000" clip-rule="evenodd" fill="rgb(46,91,118)" fill-rule="evenodd" stroke="none" stroke-width="1"/><polygon id="e36EVfdgsJr32" points="232.900000,172.600000 200.800000,172.600000 200.800000,166.300000 232.900000,166.300000" clip-rule="evenodd" fill="rgb(19,119,176)" fill-rule="evenodd" stroke="none" stroke-width="1"/><polygon id="e36EVfdgsJr33" points="183.900000,172.600000 200.800000,172.600000 200.800000,166.300000 183.900000,166.300000" clip-rule="evenodd" fill="rgb(18,84,122)" fill-rule="evenodd" stroke="none" stroke-width="1"/></g><g id="e36EVfdgsJr34"><polygon id="e36EVfdgsJr35" points="213.800000,172.600000 202.300000,172.600000 202.300000,204.600000 213.800000,204.600000" clip-rule="evenodd" fill="rgb(19,135,201)" fill-rule="evenodd" stroke="none" stroke-width="1"/><polygon id="e36EVfdgsJr36" points="208.100000,217.100000 202.300000,204.600000 213.800000,204.600000" clip-rule="evenodd" fill="rgb(102,255,204)" fill-rule="evenodd" stroke="none" stroke-width="1"/><polygon id="e36EVfdgsJr37" points="203.400000,172.600000 202.300000,172.600000 202.300000,204.600000 203.400000,204.600000" clip-rule="evenodd" fill="rgb(21,117,173)" fill-rule="evenodd" stroke="none" stroke-width="1"/><polygon id="e36EVfdgsJr38" points="212.400000,172.600000 211.300000,172.600000 211.300000,204.600000 212.400000,204.600000" clip-rule="evenodd" fill="rgb(70,163,217)" fill-rule="evenodd" stroke="none" stroke-width="1"/></g><g id="e36EVfdgsJr39"><path id="e36EVfdgsJr40" d="M205.400000,128.800000L226.900000,128.800000C228,128.800000,228.800000,129.700000,228.800000,130.700000L228.800000,142.600000C228.800000,143.700000,227.900000,144.500000,226.900000,144.500000L205.400000,144.500000C204.300000,144.500000,203.500000,143.600000,203.500000,142.600000L203.500000,130.700000C203.500000,129.600000,204.400000,128.800000,205.400000,128.800000L205.400000,128.800000Z" clip-rule="evenodd" fill="rgb(230,230,230)" fill-rule="evenodd" stroke="none" stroke-width="1"/><g id="e36EVfdgsJr41"><path id="e36EVfdgsJr42" d="M205.400000,129.900000C205,129.900000,204.700000,130.200000,204.700000,130.600000C204.700000,131,205,131.300000,205.400000,131.300000C205.800000,131.300000,206.100000,131,206.100000,130.600000C206.200000,130.300000,205.800000,129.900000,205.400000,129.900000Z" clip-rule="evenodd" fill="rgb(179,179,179)" fill-rule="evenodd" stroke="none" stroke-width="1"/><path id="e36EVfdgsJr43" d="M226.900000,129.900000C226.500000,129.900000,226.200000,130.200000,226.200000,130.600000C226.200000,131,226.500000,131.300000,226.900000,131.300000C227.300000,131.300000,227.600000,131,227.600000,130.600000C227.600000,130.300000,227.300000,129.900000,226.900000,129.900000Z" clip-rule="evenodd" fill="rgb(179,179,179)" fill-rule="evenodd" stroke="none" stroke-width="1"/><path id="e36EVfdgsJr44" d="M205.400000,141.900000C205,141.900000,204.700000,142.200000,204.700000,142.600000C204.700000,143,205,143.300000,205.400000,143.300000C205.800000,143.300000,206.100000,143,206.100000,142.600000C206.200000,142.200000,205.800000,141.900000,205.400000,141.900000Z" clip-rule="evenodd" fill="rgb(179,179,179)" fill-rule="evenodd" stroke="none" stroke-width="1"/><path id="e36EVfdgsJr45" d="M226.900000,141.900000C226.500000,141.900000,226.200000,142.200000,226.200000,142.600000C226.200000,143,226.500000,143.300000,226.900000,143.300000C227.300000,143.300000,227.600000,143,227.600000,142.600000C227.600000,142.200000,227.300000,141.900000,226.900000,141.900000Z" clip-rule="evenodd" fill="rgb(179,179,179)" fill-rule="evenodd" stroke="none" stroke-width="1"/></g><g id="e36EVfdgsJr46"><path id="e36EVfdgsJr47" d="M210.200000,132.900000L222.100000,132.900000C222.500000,132.900000,222.700000,133.200000,222.700000,133.500000L222.700000,134.500000C222.700000,134.900000,222.400000,135.100000,222.100000,135.100000L210.200000,135.100000C209.800000,135.100000,209.600000,134.800000,209.600000,134.500000L209.600000,133.500000C209.600000,133.200000,209.800000,132.900000,210.200000,132.900000Z" clip-rule="evenodd" fill="rgb(179,179,179)" fill-rule="evenodd" stroke="none" stroke-width="1"/><path id="e36EVfdgsJr48" d="M209.900000,136.200000L218.300000,136.200000C218.500000,136.200000,218.600000,136.300000,218.600000,136.500000L218.600000,137C218.600000,137.200000,218.500000,137.300000,218.300000,137.300000L209.900000,137.300000C209.700000,137.300000,209.600000,137.200000,209.600000,137L209.600000,136.500000C209.600000,136.400000,209.700000,136.200000,209.900000,136.200000Z" clip-rule="evenodd" fill="rgb(204,204,204)" fill-rule="evenodd" stroke="none" stroke-width="1"/><path id="e36EVfdgsJr49" d="M209.900000,137.700000L216.500000,137.700000C216.700000,137.700000,216.800000,137.800000,216.800000,138L216.800000,138.500000C216.800000,138.700000,216.700000,138.800000,216.500000,138.800000L209.900000,138.800000C209.700000,138.800000,209.600000,138.700000,209.600000,138.500000L209.600000,138C209.600000,137.900000,209.700000,137.700000,209.900000,137.700000Z" clip-rule="evenodd" fill="rgb(204,204,204)" fill-rule="evenodd" stroke="none" stroke-width="1"/><path id="e36EVfdgsJr50" d="M209.900000,139.200000L217.200000,139.200000C217.400000,139.200000,217.500000,139.300000,217.500000,139.500000L217.500000,140C217.500000,140.200000,217.400000,140.300000,217.200000,140.300000L209.900000,140.300000C209.700000,140.300000,209.600000,140.200000,209.600000,140L209.600000,139.500000C209.600000,139.400000,209.700000,139.200000,209.900000,139.200000Z" clip-rule="evenodd" fill="rgb(204,204,204)" fill-rule="evenodd" stroke="none" stroke-width="1"/></g></g></g><path id="e36EVfdgsJr51" d="M185.300000,132.900000C186.900000,132.900000,188.200000,135.300000,188.200000,138.200000C188.200000,141.100000,186.900000,143.500000,185.300000,143.500000L106.600000,143.500000C106.600000,140.900000,106.600000,136.100000,106.600000,133L185.300000,133Z" clip-rule="evenodd" fill="rgb(230,230,230)" fill-rule="evenodd" stroke="none" stroke-width="1"/><g id="e36EVfdgsJr52"><path id="e36EVfdgsJr53" d="M153,79.800000L43.400000,79.800000L43.400000,354.500000L72.900000,354.500000L72.900000,346.200000C72.900000,340.200000,77.800000,335.300000,83.800000,335.300000L105.800000,335.300000C111.800000,335.300000,116.700000,340.200000,116.700000,346.200000L116.700000,354.500000L153,354.500000L153,79.800000L153,79.800000ZM113.600000,102L76,102C65.800000,102,57.400000,110.400000,57.400000,120.600000L57.400000,274C57.400000,284.200000,65.800000,292.600000,76,292.600000L113.700000,292.600000C123.900000,292.600000,132.300000,284.200000,132.300000,274L132.300000,120.600000C132.200000,110.400000,123.800000,102,113.600000,102L113.600000,102Z" clip-rule="evenodd" fill="rgb(215,175,8)" fill-rule="evenodd" stroke="none" stroke-width="1"/><path id="e36EVfdgsJr54" d="M375,79.800000L153,79.800000L153,354.500000L211,354.500000L211,349.600000C211,341.300000,217.800000,334.600000,226,334.600000L302,334.600000C310.300000,334.600000,317,341.300000,317,349.600000L317,354.500000L375,354.500000L375,79.800000L375,79.800000ZM327.700000,102L200.300000,102C186.500000,102,175.200000,113.300000,175.200000,127.100000L175.200000,267.400000C175.200000,281.200000,186.500000,292.500000,200.300000,292.500000L327.600000,292.500000C341.400000,292.500000,352.700000,281.200000,352.700000,267.400000L352.700000,127.200000C352.800000,113.300000,341.500000,102,327.700000,102L327.700000,102Z" clip-rule="evenodd" fill="rgb(255,204,0)" fill-rule="evenodd" stroke="none" stroke-width="1"/></g><g id="e36EVfdgsJr55"><polygon id="e36EVfdgsJr56" points="118.400000,354.500000 67.600000,354.500000 67.600000,334.300000 103.100000,296.300000 118.400000,296.300000" clip-rule="evenodd" fill="rgb(255,204,0)" fill-rule="evenodd" stroke="none" stroke-width="1"/><polygon id="e36EVfdgsJr57" points="25,334.300000 60.400000,296.300000 103.100000,296.300000 67.600000,334.300000" clip-rule="evenodd" fill="rgb(255,218,71)" fill-rule="evenodd" stroke="none" stroke-width="1"/><polygon id="e36EVfdgsJr58" points="56.800000,304.700000 90.900000,304.700000 79.300000,317.100000 45.200000,317.100000" clip-rule="evenodd" fill="rgb(77,77,77)" fill-rule="evenodd" stroke="none" stroke-width="1"/><g id="e36EVfdgsJr59"><polygon id="e36EVfdgsJr60" points="37.300000,324.400000 46.100000,324.400000 41.900000,328.900000 33.100000,328.900000" clip-rule="evenodd" fill="rgb(255,255,255)" fill-rule="evenodd" stroke="none" stroke-width="1"/><polygon id="e36EVfdgsJr61" points="42.300000,329.700000 46.500000,325.200000 46.100000,324.400000 41.900000,328.900000" clip-rule="evenodd" fill="rgb(230,230,230)" fill-rule="evenodd" stroke="none" stroke-width="1"/><polygon id="e36EVfdgsJr62" points="33.500000,329.700000 42.300000,329.700000 41.900000,328.900000 33.100000,328.900000" clip-rule="evenodd" fill="rgb(153,153,153)" fill-rule="evenodd" stroke="none" stroke-width="1"/></g><g id="e36EVfdgsJr63"><polygon id="e36EVfdgsJr64" points="50,324.400000 58.800000,324.400000 54.600000,328.900000 45.800000,328.900000" clip-rule="evenodd" fill="rgb(255,255,255)" fill-rule="evenodd" stroke="none" stroke-width="1"/><polygon id="e36EVfdgsJr65" points="55,329.700000 59.200000,325.200000 58.800000,324.400000 54.600000,328.900000" clip-rule="evenodd" fill="rgb(230,230,230)" fill-rule="evenodd" stroke="none" stroke-width="1"/><polygon id="e36EVfdgsJr66" points="46.200000,329.700000 55,329.700000 54.600000,328.900000 45.800000,328.900000" clip-rule="evenodd" fill="rgb(153,153,153)" fill-rule="evenodd" stroke="none" stroke-width="1"/></g><g id="e36EVfdgsJr67"><polygon id="e36EVfdgsJr68" points="62.700000,324.400000 71.400000,324.400000 67.200000,328.900000 58.500000,328.900000" clip-rule="evenodd" fill="rgb(255,255,255)" fill-rule="evenodd" stroke="none" stroke-width="1"/><polygon id="e36EVfdgsJr69" points="67.700000,329.700000 71.900000,325.200000 71.400000,324.400000 67.200000,328.900000" clip-rule="evenodd" fill="rgb(230,230,230)" fill-rule="evenodd" stroke="none" stroke-width="1"/><polygon id="e36EVfdgsJr70" points="58.900000,329.700000 67.700000,329.700000 67.200000,328.900000 58.500000,328.900000" clip-rule="evenodd" fill="rgb(153,153,153)" fill-rule="evenodd" stroke="none" stroke-width="1"/></g><polygon id="e36EVfdgsJr71" points="56.800000,304.700000 90.900000,304.700000 90.600000,305.100000 57.100000,305.100000 45.900000,317.100000 45.200000,317.100000" clip-rule="evenodd" fill="rgb(51,51,51)" fill-rule="evenodd" stroke="none" stroke-width="1"/><polygon id="e36EVfdgsJr72" points="25,334.300000 67.600000,334.300000 67.600000,354.500000 25,354.500000" clip-rule="evenodd" fill="rgb(215,175,8)" fill-rule="evenodd" stroke="none" stroke-width="1"/></g></svg>