<svg id="s1" xmlns="http://www.w3.org/2000/svg" xmlns:xlink="http://www.w3.org/1999/xlink" viewBox="0 0 400 400"><g id="s3"><g id="s5"><path id="s7" d="M69.530000,203C68.691709,203.015972,68.015972,203.691709,68,204.530000Q68,205.080000,68,205.630000C68,230.410000,72.750000,250.500000,78.610000,250.500000C84.470000,250.500000,89.220000,230.410000,89.220000,205.630000Q89.220000,205.080000,89.220000,204.530000C89.212252,204.110883,89.036155,203.712520,88.731399,203.424695C88.426644,203.136870,88.018876,202.983806,87.600000,203Z" fill="rgb(186,216,227)" stroke="none" stroke-width="1"/><path id="s9" d="M115.740000,174.910000C115.326260,174.907339,114.928409,175.069150,114.633975,175.359833C114.339541,175.650516,114.172644,176.046260,114.170000,176.460000Q114.170000,177.010000,114.170000,177.560000C114.170000,202.340000,118.920000,222.430000,124.780000,222.430000C130.640000,222.430000,135.390000,202.340000,135.390000,177.560000Q135.390000,177.010000,135.390000,176.460000C135.387356,176.046260,135.220459,175.650516,134.926025,175.359833C134.631591,175.069150,134.233740,174.907339,133.820000,174.910000Z" fill="rgb(186,216,227)" stroke="none" stroke-width="1"/><path id="s11" d="M178.930000,155L14.490000,261.850000C13.921496,262.219538,13.578940,262.851949,13.580000,263.530000L13.580000,270.290000C13.584628,270.891450,13.859690,271.458882,14.328979,271.835089C14.798267,272.211295,15.411948,272.356326,16,272.230000L180.650000,232.160000Z" fill="rgb(145,181,194)" stroke="none" stroke-width="1"/></g><g id="s13"><path id="s15" d="M330.470000,203C330.883740,202.997339,331.281591,203.159150,331.576025,203.449833C331.870459,203.740516,332.037356,204.136260,332.040000,204.550000Q332.040000,205.100000,332.040000,205.650000C332.040000,230.430000,327.290000,250.520000,321.430000,250.520000C315.570000,250.520000,310.820000,230.430000,310.820000,205.650000Q310.820000,205.100000,310.820000,204.550000C310.822629,204.134510,310.990901,203.737236,311.287505,203.446263C311.584109,203.155291,311.984536,202.994665,312.400000,203Z" fill="rgb(186,216,227)" stroke="none" stroke-width="1"/><path id="s17" d="M284.260000,174.910000C284.673740,174.907339,285.071591,175.069150,285.366025,175.359833C285.660459,175.650516,285.827356,176.046260,285.830000,176.460000Q285.830000,177.010000,285.830000,177.560000C285.830000,202.340000,281.080000,222.430000,275.220000,222.430000C269.360000,222.430000,264.610000,202.340000,264.610000,177.560000Q264.610000,177.010000,264.610000,176.460000C264.612644,176.046260,264.779541,175.650516,265.073975,175.359833C265.368409,175.069150,265.766260,174.907339,266.180000,174.910000Z" fill="rgb(186,216,227)" stroke="none" stroke-width="1"/><path id="s19" d="M221.070000,155L385.510000,261.850000C386.078504,262.219538,386.421060,262.851949,386.420000,263.530000L386.420000,270.290000C386.418778,270.902446,386.137012,271.480571,385.655366,271.858868C385.173720,272.237165,384.545296,272.373926,383.950000,272.230000L219.310000,232.160000Z" fill="rgb(145,181,194)" stroke="none" stroke-width="1"/></g><g id="s21"><path id="s23" d="M249.760000,356.390000L216.450000,326.700000C224.530000,99,224.530000,133.790000,224.530000,99C224.530000,64.210000,212.530000,44.910000,200,44.910000C187.470000,44.910000,175.470000,64.230000,175.470000,99C175.470000,133.770000,183.550000,326.690000,183.550000,326.690000L150.240000,356.380000C149.974515,356.618424,149.815972,356.953527,149.800000,357.310000L149.100000,373.100000C149.078987,373.545763,149.282931,373.972355,149.643051,374.235907C150.003172,374.499459,150.471466,374.564840,150.890000,374.410000L192.750000,358.820000C196.935710,362.358463,203.064290,362.358463,207.250000,358.820000L249.110000,374.410000C249.528534,374.564840,249.996828,374.499459,250.356949,374.235907C250.717069,373.972355,250.921013,373.545763,250.900000,373.100000L250.200000,357.310000C250.181401,356.957052,250.023082,356.626021,249.760000,356.390000Z" fill="rgb(186,216,227)" stroke="none" stroke-width="1"/><path id="s25" d="M190.060000,76.760000C188.563048,77.638915,187.159185,78.667521,185.870000,79.830000C185.364659,80.451320,184.451320,80.545341,183.830000,80.040000C183.208680,79.534659,183.114659,78.621320,183.620000,78C184.922384,75.825137,186.476426,73.811261,188.250000,72ZM208.350000,69.170000C203.369580,65.557003,196.630420,65.557003,191.650000,69.170000L193.860000,75C197.827678,73.565637,202.172322,73.565637,206.140000,75ZM216.350000,78.030000C215.047539,75.855190,213.493504,73.841322,211.720000,72.030000L209.910000,76.790000C211.406952,77.668915,212.810815,78.697521,214.100000,79.860000C214.432257,80.267283,214.956558,80.466371,215.475404,80.382269C215.994249,80.298167,216.428815,79.943653,216.615404,79.452269C216.801992,78.960885,216.712257,78.407283,216.380000,78Z" fill="rgb(145,181,194)" stroke="none" stroke-width="1"/></g></g></svg>