<svg id="ebawyrjdXOq1" xmlns="http://www.w3.org/2000/svg" xmlns:xlink="http://www.w3.org/1999/xlink" viewBox="0 0 400 400" shape-rendering="geometricPrecision" text-rendering="geometricPrecision"><defs><linearGradient id="ebawyrjdXOq5-fill" x1="34.253081" y1="219.420695" x2="374.291276" y2="219.420695" spreadMethod="pad" gradientUnits="userSpaceOnUse"><stop id="ebawyrjdXOq5-fill-0" offset="0%" stop-color="rgb(255,204,0)"/><stop id="ebawyrjdXOq5-fill-1" offset="100%" stop-color="rgb(204,51,0)"/></linearGradient><linearGradient id="ebawyrjdXOq8-fill" x1="145.231721" y1="240.318487" x2="145.231721" y2="125.735107" spreadMethod="pad" gradientUnits="userSpaceOnUse"><stop id="ebawyrjdXOq8-fill-0" offset="0%" stop-color="rgb(153,255,255)"/><stop id="ebawyrjdXOq8-fill-1" offset="100%" stop-color="rgb(255,255,255)"/></linearGradient><linearGradient id="ebawyrjdXOq9-fill" x1="166.268806" y1="240.334987" x2="166.268806" y2="144.164924" spreadMethod="pad" gradientUnits="userSpaceOnUse"><stop id="ebawyrjdXOq9-fill-0" offset="0%" stop-color="rgb(26,26,26)"/><stop id="ebawyrjdXOq9-fill-1" offset="100%" stop-color="rgb(26,26,26)"/></linearGradient></defs><g id="ebawyrjdXOq2"><g id="ebawyrjdXOq3"><path id="ebawyrjdXOq4" d="M226.300000,62.600000C120,62.600000,83.100000,162.500000,38.200000,240.300000C37.500000,241.500000,36.700000,242.400000,35.600000,243.300000L31.900000,246.200000C30,247.700000,28.800000,249.500000,28.200000,251.900000C20.900000,282.400000,26.800000,307.400000,36.900000,331.200000C38.600000,335.200000,42.400000,337.600000,46.800000,337.400000L319.600000,324.400000C322.100000,324.300000,324.100000,323.400000,325.900000,321.800000C356,294.600000,374.900000,255.200000,374.900000,211.400000C375,129.200000,308.400000,62.600000,226.300000,62.600000L226.300000,62.600000Z" clip-rule="evenodd" fill="rgb(204,51,0)" fill-rule="evenodd" stroke="none" stroke-width="1"/><path id="ebawyrjdXOq5" d="M356.900000,140.200000C348.900000,125.600000,338.600000,112.500000,326.400000,101.400000C301.500000,108.200000,277.500000,115.500000,254.400000,123.100000C265.700000,139.200000,272.500000,148.700000,281.400000,163.700000C290.600000,160.400000,334,147.100000,356.900000,140.200000L356.900000,140.200000ZM34.300000,324.400000C35.200000,326.700000,36.100000,328.900000,37,331.100000C38.700000,335.100000,42.500000,337.500000,46.900000,337.300000C96.700000,334.900000,146.600000,332.500000,196.400000,330.200000L357.900000,280.700000C362.700000,271.600000,366.400000,262.300000,369.300000,252.500000L337.500000,208.700000L374.400000,196.800000C372.900000,181.800000,369.200000,167.200000,363.300000,153.300000L260.100000,183.300000L301.100000,247.200000L34.300000,324.400000L34.300000,324.400000Z" clip-rule="evenodd" fill="url(#ebawyrjdXOq5-fill)" fill-rule="evenodd" stroke="none" stroke-width="1"/><path id="ebawyrjdXOq6" d="M54,300.200000C54,290.400000,50.400000,275.900000,43.300000,256.700000C56.900000,278.100000,60.400000,292.700000,54,300.200000Z" clip-rule="evenodd" fill="rgb(153,0,0)" fill-rule="evenodd" stroke="none" stroke-width="1"/></g><g id="ebawyrjdXOq7"><path id="ebawyrjdXOq8" d="M100.800000,126.600000C78.700000,158.100000,57.200000,201.300000,38,235C37.600000,235.600000,37.600000,236.400000,38,237C38.400000,237.600000,39,238,39.700000,238L187.800000,240.200000C187.800000,240.200000,187.800000,240.200000,187.800000,240.200000C208.300000,240.200000,225,232.700000,235.700000,214.200000L249.500000,190C254.600000,181.200000,256.300000,161.100000,236,155.600000C236,155.600000,235.900000,155.600000,235.900000,155.600000L102.900000,125.600000C102.100000,125.600000,101.200000,125.900000,100.800000,126.600000L100.800000,126.600000Z" clip-rule="evenodd" fill="url(#ebawyrjdXOq8-fill)" fill-rule="evenodd" stroke="none" stroke-width="1"/><path id="ebawyrjdXOq9" d="M187.800000,240.300000C208.100000,240.800000,225.500000,232.100000,235.700000,214.300000L249.500000,190.100000C254.600000,181.300000,256.300000,161.200000,236,155.700000C219.600000,151.300000,201.200000,147.900000,184.500000,144.100000C199.400000,147.900000,202.500000,157.600000,193.800000,173.300000C186.600000,185.700000,177.500000,201.200000,166.300000,220.900000C155,241,101.700000,232.700000,79.700000,238.600000L187.800000,240.300000L187.800000,240.300000Z" clip-rule="evenodd" fill="url(#ebawyrjdXOq9-fill)" fill-rule="evenodd" stroke="none" stroke-width="1"/><g id="ebawyrjdXOq10"><path id="ebawyrjdXOq11" d="M228.900000,161.800000C220.100000,161.800000,213,168.900000,213,177.700000C213,186.500000,220.100000,193.600000,228.900000,193.600000C237.700000,193.600000,244.800000,186.500000,244.800000,177.700000C244.900000,169,237.700000,161.800000,228.900000,161.800000Z" clip-rule="evenodd" fill="rgb(255,255,255)" fill-rule="evenodd" stroke="none" stroke-width="1"/></g></g></g></svg>