<svg id="eP5M7xuhGni1" xmlns="http://www.w3.org/2000/svg" xmlns:xlink="http://www.w3.org/1999/xlink" viewBox="0 0 400 400" shape-rendering="geometricPrecision" text-rendering="geometricPrecision"><defs><linearGradient id="eP5M7xuhGni16-fill" x1="171.449783" y1="183.618959" x2="166.720113" y2="291.001724" spreadMethod="pad" gradientUnits="userSpaceOnUse"><stop id="eP5M7xuhGni16-fill-0" offset="0%" stop-color="rgb(252,167,55)"/><stop id="eP5M7xuhGni16-fill-1" offset="100%" stop-color="rgb(255,204,0)"/></linearGradient><linearGradient id="eP5M7xuhGni19-fill" x1="51.199294" y1="227.257153" x2="156.233872" y2="227.257153" spreadMethod="pad" gradientUnits="userSpaceOnUse"><stop id="eP5M7xuhGni19-fill-0" offset="0%" stop-color="rgb(255,204,0)"/><stop id="eP5M7xuhGni19-fill-1" offset="100%" stop-color="rgb(255,153,51)"/></linearGradient></defs><g id="eP5M7xuhGni2"><circle id="eP5M7xuhGni3" r="18.900000" transform="matrix(1 0 0 1 94 267.69999999999999)" clip-rule="evenodd" fill="rgb(128,128,128)" fill-rule="evenodd" stroke="none" stroke-width="1"/><path id="eP5M7xuhGni4" d="M94,215.600000C122.800000,215.600000,146.100000,238.900000,146.100000,267.700000C146.100000,296.500000,122.800000,319.800000,94,319.800000C65.200000,319.800000,41.900000,296.500000,41.900000,267.700000C41.900000,238.900000,65.200000,215.600000,94,215.600000L94,215.600000ZM94,234.400000C112.400000,234.400000,127.300000,249.300000,127.300000,267.700000C127.300000,286.100000,112.400000,301,94,301C75.600000,301,60.700000,286.100000,60.700000,267.700000C60.700000,249.300000,75.500000,234.400000,94,234.400000L94,234.400000Z" clip-rule="evenodd" fill="rgb(26,26,26)" fill-rule="evenodd" stroke="none" stroke-width="1"/></g><g id="eP5M7xuhGni5"><circle id="eP5M7xuhGni6" r="18.900000" transform="matrix(1 0 0 1 322.89999999999998 267.69999999999999)" clip-rule="evenodd" fill="rgb(128,128,128)" fill-rule="evenodd" stroke="none" stroke-width="1"/><path id="eP5M7xuhGni7" d="M322.900000,215.600000C351.700000,215.600000,375,238.900000,375,267.700000C375,296.500000,351.700000,319.800000,322.900000,319.800000C294.100000,319.800000,270.800000,296.500000,270.800000,267.700000C270.800000,238.900000,294.100000,215.600000,322.900000,215.600000L322.900000,215.600000ZM322.900000,234.400000C341.300000,234.400000,356.200000,249.300000,356.200000,267.700000C356.200000,286.100000,341.300000,301,322.900000,301C304.500000,301,289.600000,286.100000,289.600000,267.700000C289.600000,249.300000,304.400000,234.400000,322.900000,234.400000Z" clip-rule="evenodd" fill="rgb(26,26,26)" fill-rule="evenodd" stroke="none" stroke-width="1"/></g><g id="eP5M7xuhGni8"><path id="eP5M7xuhGni9" d="M328.700000,265.600000C329.800000,268.800000,328.100000,272.400000,324.900000,273.500000C321.700000,274.600000,318.100000,272.900000,317,269.700000L298.400000,217C297.300000,213.800000,299,210.200000,302.200000,209.100000C305.400000,208,309,209.700000,310.100000,212.900000L328.700000,265.600000Z" fill="rgb(51,51,51)" stroke="none" stroke-width="1"/><path id="eP5M7xuhGni10" d="M325.800000,234.400000L325.800000,234.400000L325.400000,234.600000L325,234.800000L324.400000,235.100000L324.300000,235.200000L323.900000,235.400000L323.500000,235.600000L323.100000,235.800000L323,235.800000L322.700000,235.900000L322.300000,236.100000L321.900000,236.300000L321.600000,236.400000L321.500000,236.400000L321.100000,236.600000L320.700000,236.800000L320.300000,237L320.200000,237.100000L319.900000,237.200000L319.500000,237.400000L318.800000,237.700000L318.700000,237.700000L318,238L317.800000,238.100000L316.500000,238.600000L316.400000,238.600000L316.400000,238.600000L316.300000,238.600000L315.200000,239L315,239.100000L314.800000,239.200000L314.400000,239.300000L314,239.400000L313.600000,239.500000L313.600000,239.500000L313.200000,239.600000L312.800000,239.700000L312.400000,239.800000L312.200000,239.900000L312,240L311.600000,240.100000L311.200000,240.200000L310.800000,240.300000L310.800000,240.300000L310.500000,240.400000L309.700000,240.600000L309.400000,240.700000L309.300000,240.700000L308.500000,240.900000L308.100000,241L308,241L307.700000,241.100000L306.900000,241.300000L306.600000,241.400000L306.500000,241.400000L305.300000,241.700000L305.200000,241.700000L304.900000,241.800000L304.100000,242L303.800000,242.100000L303.700000,242.100000L303.300000,242.200000L302.900000,242.300000L302.500000,242.400000L302.300000,242.400000L300.900000,242.700000L300.900000,242.700000L300.900000,242.700000C290.900000,235.800000,277.700000,235.300000,267.300000,241.500000C270.200000,223,283.100000,207.600000,300.900000,201.600000C318.700000,195.600000,338.300000,200,351.800000,213.100000C339.300000,213.300000,328.600000,222.100000,325.800000,234.400000L325.800000,234.400000Z" clip-rule="evenodd" fill="rgb(252,167,55)" fill-rule="evenodd" stroke="none" stroke-width="1"/><g id="eP5M7xuhGni11"><path id="eP5M7xuhGni12" d="M288,83.100000L276.600000,83.100000C270.300000,83.100000,265.200000,88.200000,265.200000,94.500000L265.200000,108.300000C265.200000,114.600000,270.300000,119.700000,276.600000,119.700000L288,119.700000L288,83.100000L288,83.100000Z" clip-rule="evenodd" fill="rgb(255,153,51)" fill-rule="evenodd" stroke="none" stroke-width="1"/><path id="eP5M7xuhGni13" d="M285.100000,83.100000C285.100000,81.500000,286.400000,80.200000,288,80.200000C289.600000,80.200000,290.900000,81.500000,290.900000,83.100000L290.900000,119.700000C290.900000,121.300000,289.600000,122.600000,288,122.600000C286.400000,122.600000,285.100000,121.300000,285.100000,119.700000L285.100000,83.100000L285.100000,83.100000Z" fill="rgb(26,26,26)" stroke="none" stroke-width="1"/></g><g id="eP5M7xuhGni14"><path id="eP5M7xuhGni15" d="M101,162.200000L170,160.300000C174.400000,216.700000,176.600000,244.800000,176.600000,244.800000C178,256.900000,185.200000,263.500000,198.300000,263.800000C218.200000,264.300000,227.200000,263,231.800000,258.900000C286.200000,210.100000,289.500000,159.800000,252,91.600000C247.700000,83.700000,260.300000,77.400000,269.100000,90.800000C342.600000,203,315,193.900000,281,233.900000C251.400000,268.700000,235.600000,293.800000,211.200000,293.200000C179.900000,292.500000,164.300000,292,164.300000,292C149.700000,292.800000,114.500000,284.600000,58,269.500000C22.600000,260.100000,14.300000,232.900000,39.800000,189.200000C52.900000,166.700000,75.100000,162.900000,101,162.200000L101,162.200000Z" clip-rule="evenodd" fill="rgb(255,204,0)" fill-rule="evenodd" stroke="none" stroke-width="1"/><path id="eP5M7xuhGni16" d="M33,208.500000C22.800000,233.800000,24.300000,258.100000,58.600000,267.300000C81.400000,273.400000,104.300000,279.500000,127.300000,284.500000C137.600000,286.700000,153.500000,290.300000,164.300000,289.700000C179.900000,290.200000,195.600000,290.500000,211.200000,290.900000C213.900000,291,216.600000,290.700000,219.300000,290C230,287.400000,239,278.900000,246.300000,271.100000C257.800000,258.900000,268.200000,245.200000,279.100000,232.400000C285.200000,225.200000,291.800000,219,298.500000,212.400000C303.100000,207.900000,308.100000,202.800000,310.800000,196.900000C312.700000,192.800000,313.300000,188.400000,313.100000,184.100000L278.300000,187.100000C274.400000,212.700000,260.300000,236.900000,233.600000,260.800000C226.100000,267.500000,207.600000,266.600000,198.300000,266.400000C184.600000,266,175.800000,259.100000,174.200000,245.100000L170.400000,196.500000L153.500000,198C157,202.400000,158.800000,207.600000,158.800000,213.400000L158.800000,241.200000C158.800000,248.900000,155.600000,255.600000,149.600000,260.500000C143.600000,265.400000,136.400000,267.100000,128.800000,265.500000L68.200000,252.800000C60.900000,251.300000,55.200000,247.100000,51.600000,240.500000C48,234,47.400000,226.900000,50,219.900000L54.900000,206.500000L33,208.500000L33,208.500000Z" clip-rule="evenodd" fill="url(#eP5M7xuhGni16-fill)" fill-rule="evenodd" stroke="none" stroke-width="1"/></g><g id="eP5M7xuhGni17"><path id="eP5M7xuhGni18" d="M78.100000,186.900000L133.500000,185.800000C137.300000,185.700000,140.900000,186.300000,144.200000,187.700000C147.500000,189,150.600000,191,153.300000,193.700000C156,196.400000,158.100000,199.400000,159.500000,202.700000C160.900000,206,161.600000,209.600000,161.600000,213.400000L161.600000,241.200000C161.600000,245.500000,160.700000,249.500000,159,253.100000C157.300000,256.700000,154.800000,259.900000,151.400000,262.600000C148.100000,265.300000,144.400000,267.100000,140.600000,268.100000C136.700000,269,132.600000,269.100000,128.500000,268.200000L67.900000,255.500000C63.900000,254.700000,60.300000,253.100000,57.200000,250.800000C54.100000,248.500000,51.500000,245.500000,49.500000,241.900000C47.500000,238.300000,46.300000,234.500000,46,230.700000C45.700000,226.900000,46.300000,223,47.700000,219.100000L52.900000,205C54.900000,199.600000,58.300000,195.100000,62.700000,192C67,188.800000,72.300000,187.100000,78.100000,186.900000L78.100000,186.900000Z" fill="rgb(255,153,51)" stroke="none" stroke-width="1"/><path id="eP5M7xuhGni19" d="M133.600000,191.100000L78.200000,192.200000C73.500000,192.300000,69.200000,193.700000,65.700000,196.200000C62.200000,198.700000,59.400000,202.300000,57.800000,206.700000L52.600000,220.800000C51.400000,223.900000,51,227.100000,51.200000,230.200000C51.400000,233.300000,52.400000,236.300000,54,239.200000C55.600000,242.100000,57.700000,244.500000,60.200000,246.400000C62.700000,248.200000,65.600000,249.500000,68.900000,250.200000L129.500000,262.900000C132.900000,263.600000,136.200000,263.600000,139.300000,262.800000C142.400000,262,145.300000,260.600000,148,258.400000C150.700000,256.200000,152.700000,253.600000,154.100000,250.700000C155.500000,247.800000,156.200000,244.600000,156.200000,241.100000L156.200000,213.300000C156.200000,210.200000,155.600000,207.300000,154.500000,204.700000C153.400000,202.100000,151.700000,199.600000,149.500000,197.500000C147.300000,195.300000,144.800000,193.700000,142.200000,192.600000C139.600000,191.600000,136.700000,191.100000,133.600000,191.100000L133.600000,191.100000Z" fill="url(#eP5M7xuhGni19-fill)" stroke="none" stroke-width="1"/><circle id="eP5M7xuhGni20" r="9.700000" transform="matrix(1 0 0 1 81.09999999999999 219.59999999999999)" clip-rule="evenodd" fill="rgb(255,102,51)" fill-rule="evenodd" stroke="none" stroke-width="1"/></g><path id="eP5M7xuhGni21" d="M102,137.800000L174.100000,137.800000C181,137.800000,186.600000,143.400000,186.600000,150.300000L186.600000,150.300000C186.600000,157.200000,181,162.800000,174.100000,162.800000L89.500000,162.800000L89.500000,150.300000C89.500000,143.400000,95.200000,137.800000,102,137.800000L102,137.800000Z" clip-rule="evenodd" fill="rgb(26,26,26)" fill-rule="evenodd" stroke="none" stroke-width="1"/><path id="eP5M7xuhGni22" d="M240.100000,89C239,87.800000,239.100000,86,240.200000,84.900000C241.400000,83.800000,243.200000,83.900000,244.300000,85L244.800000,85.600000C245.100000,85.900000,245.300000,86.100000,245.600000,86.200000L245.700000,86.200000C246,86.300000,246.300000,86.300000,246.600000,86.200000L261.800000,83.800000C263.800000,83.500000,265.900000,84,267.500000,85.100000C269.100000,86.200000,270.300000,87.900000,270.800000,89.900000L272.400000,96.900000C272.800000,98.500000,271.800000,100,270.200000,100.400000C268.600000,100.800000,267.100000,99.800000,266.700000,98.200000L265.100000,91.200000C265,90.700000,264.700000,90.200000,264.200000,90C263.800000,89.700000,263.200000,89.600000,262.700000,89.700000L247.500000,92.100000C246.300000,92.300000,245.100000,92.200000,244,91.900000L243.800000,91.800000C242.600000,91.400000,241.500000,90.700000,240.600000,89.700000L240.100000,89L240.100000,89Z" fill="rgb(0,0,0)" stroke="none" stroke-width="1"/><path id="eP5M7xuhGni23" d="M263.600000,91.300000C267.700000,90.700000,271.400000,93.500000,272,97.600000C272.600000,101.700000,269.800000,105.400000,265.700000,106L242.400000,109.300000C238.300000,109.900000,234.600000,107.100000,234,103C233.400000,98.900000,236.200000,95.200000,240.300000,94.600000L263.600000,91.300000L263.600000,91.300000Z" fill="rgb(26,26,26)" stroke="none" stroke-width="1"/></g></svg>