<svg id="e5sAUJnI4611" xmlns="http://www.w3.org/2000/svg" xmlns:xlink="http://www.w3.org/1999/xlink" viewBox="0 0 400 400" shape-rendering="geometricPrecision" text-rendering="geometricPrecision"><g id="e5sAUJnI4612"><circle id="e5sAUJnI4613" r="23.800000" transform="matrix(1 0 0 1 319.50000000000000 234.50000000000000)" clip-rule="evenodd" fill="rgb(142,143,117)" fill-rule="evenodd" stroke="none" stroke-width="1"/><path id="e5sAUJnI4614" d="M319.500000,179.100000C350.100000,179.100000,375,203.900000,375,234.600000C375,265.200000,350.200000,290.100000,319.500000,290.100000C288.900000,290.100000,264,265.300000,264,234.600000C264.100000,203.900000,288.900000,179.100000,319.500000,179.100000L319.500000,179.100000ZM319.500000,190.900000C343.600000,190.900000,363.100000,210.400000,363.100000,234.500000C363.100000,258.600000,343.600000,278.100000,319.500000,278.100000C295.400000,278.100000,275.900000,258.600000,275.900000,234.500000C275.900000,210.400000,295.500000,190.900000,319.500000,190.900000L319.500000,190.900000Z" clip-rule="evenodd" fill="rgb(26,26,26)" fill-rule="evenodd" stroke="none" stroke-width="1"/><circle id="e5sAUJnI4615" r="19.100000" transform="matrix(1 0 0 1 319.50000000000000 234.50000000000000)" clip-rule="evenodd" fill="rgb(26,26,26)" fill-rule="evenodd" stroke="none" stroke-width="1"/></g><g id="e5sAUJnI4616"><circle id="e5sAUJnI4617" r="23.800000" transform="matrix(1 0 0 1 80.50000000000000 234.50000000000000)" clip-rule="evenodd" fill="rgb(142,143,117)" fill-rule="evenodd" stroke="none" stroke-width="1"/><path id="e5sAUJnI4618" d="M80.500000,179.100000C111.100000,179.100000,136,203.900000,136,234.600000C136,265.200000,111.200000,290.100000,80.500000,290.100000C49.800000,290.100000,25,265.200000,25,234.500000C25,203.900000,49.800000,179.100000,80.500000,179.100000L80.500000,179.100000ZM80.500000,198C100.700000,198,117,214.400000,117,234.500000C117,254.700000,100.600000,271,80.500000,271C60.400000,271,44,254.600000,44,234.500000C43.900000,214.400000,60.300000,198,80.500000,198L80.500000,198Z" clip-rule="evenodd" fill="rgb(26,26,26)" fill-rule="evenodd" stroke="none" stroke-width="1"/></g><g id="e5sAUJnI4619"><path id="e5sAUJnI46110" d="M319.500000,174.400000C323.700000,174.400000,327.700000,174.800000,331.600000,175.600000C329.200000,177.700000,326.900000,179.800000,324.600000,181.700000C320.600000,185.100000,316.400000,187,311.300000,187.900000C302,189.500000,293.700000,193.900000,287.100000,200.100000L279.400000,189.700000C290,180.200000,304.100000,174.400000,319.500000,174.400000L319.500000,174.400000Z" clip-rule="evenodd" fill="rgb(186,38,24)" fill-rule="evenodd" stroke="none" stroke-width="1"/><path id="e5sAUJnI46111" d="M80.500000,249.600000C72.200000,249.600000,65.500000,242.900000,65.500000,234.600000C65.500000,226.300000,72.200000,219.600000,80.500000,219.600000L249.700000,219.600000C252.400000,219.600000,233.700000,249.700000,211.700000,249.700000L80.500000,249.700000L80.500000,249.600000Z" fill="rgb(51,51,51)" stroke="none" stroke-width="1"/><path id="e5sAUJnI46112" d="M264.700000,172.600000C263,170,263.800000,166.500000,266.400000,164.800000C269,163.100000,272.500000,163.900000,274.200000,166.500000L312.800000,226.600000C313.100000,227.100000,313.500000,227.500000,313.900000,227.800000C314.300000,228.100000,314.800000,228.200000,315.400000,228.300000L320.200000,229C323.300000,229.400000,325.400000,232.300000,325,235.400000C324.600000,238.500000,321.700000,240.600000,318.600000,240.200000L313.800000,239.500000C311.600000,239.200000,309.600000,238.400000,307.800000,237.300000C306,236.200000,304.500000,234.600000,303.300000,232.800000L264.700000,172.600000L264.700000,172.600000Z" fill="rgb(0,0,0)" stroke="none" stroke-width="1"/><path id="e5sAUJnI46113" d="M173.100000,219.500000L248.500000,219.500000C255.600000,207.600000,260.100000,194.600000,261.800000,186C217,191.300000,189,203,173.100000,219.500000Z" clip-rule="evenodd" fill="rgb(77,77,77)" fill-rule="evenodd" stroke="none" stroke-width="1"/><circle id="e5sAUJnI46114" r="14.700000" transform="matrix(1 0 0 1 221.30000000000001 218.50000000000000)" clip-rule="evenodd" fill="rgb(204,204,204)" fill-rule="evenodd" stroke="none" stroke-width="1"/><path id="e5sAUJnI46115" d="M310.100000,143.300000C309.900000,142.800000,309.700000,142.300000,309.500000,141.900000C309.700000,142.400000,309.900000,142.800000,310.100000,143.300000L310.100000,143.300000ZM309.400000,141.600000C303.700000,128.100000,292.900000,115.800000,286.900000,110C280.400000,111.200000,272.200000,111.700000,262.200000,111.400000C281.600000,130.300000,297.100000,143.600000,309.400000,141.600000Z" clip-rule="evenodd" fill="rgb(230,230,230)" fill-rule="evenodd" stroke="none" stroke-width="1"/><circle id="e5sAUJnI46116" r="3.900000" transform="matrix(1 0 0 1 176.59999999999999 234.50000000000000)" clip-rule="evenodd" fill="rgb(77,77,77)" fill-rule="evenodd" stroke="none" stroke-width="1"/><path id="e5sAUJnI46117" d="M72.700000,155C70.500000,158.800000,71,160.300000,75.300000,160.300000C108.500000,159.900000,132.700000,180.100000,148.100000,220.900000C149.200000,216.700000,151.200000,212.700000,153.700000,208.900000C177.200000,170.600000,254,140.700000,282.700000,150.400000C287.600000,152.100000,287.900000,146.100000,286.900000,145C284.900000,142.900000,282.900000,140.800000,280.800000,138.600000L280.800000,138.600000C256.900000,126,238.400000,124.100000,224.700000,130.900000C215.200000,135.700000,204.600000,148.100000,191.200000,168.200000C184.500000,178.400000,175.100000,181.300000,165.600000,178.700000C151,174.700000,142.600000,164.700000,140.500000,148.500000C121.800000,143,103.300000,139.700000,91.500000,141.500000C79.700000,143.300000,76.400000,148.800000,72.700000,155L72.700000,155Z" clip-rule="evenodd" fill="rgb(194,34,19)" fill-rule="evenodd" stroke="none" stroke-width="1"/><path id="e5sAUJnI46118" d="M72.700000,155C72.200000,155.800000,71.900000,156.400000,71.700000,157L81.500000,157.100000C84.600000,157.100000,87.100000,154.600000,87.100000,151.500000C87.100000,148.400000,84.600000,145.900000,81.500000,145.900000L79.900000,145.900000C76.700000,148.400000,74.800000,151.600000,72.700000,155Z" clip-rule="evenodd" fill="rgb(255,0,0)" fill-rule="evenodd" stroke="none" stroke-width="1"/><path id="e5sAUJnI46119" d="M272.900000,188.500000C264.900000,218.400000,241.200000,258.900000,206,258.900000L151.600000,258.900000C150.600000,258.900000,149.900000,258.200000,149.700000,257.300000L146.900000,235.200000C140.700000,185.700000,247.600000,138.600000,282.600000,150.400000C287.500000,152.100000,287.800000,146.100000,286.800000,145C278.500000,136.100000,268.300000,126.200000,259.100000,118C253.700000,113.300000,256.400000,111.200000,262.200000,111.400000C281.600000,130.200000,297.100000,143.600000,309.400000,141.600000C312.300000,148.400000,316.500000,161,305.900000,163.400000C299.100000,165,290.500000,166,283.500000,167.100000C282.900000,167.200000,282.500000,167.500000,282.200000,168C278.400000,174.700000,274.800000,181.300000,272.900000,188.500000L272.900000,188.500000ZM261.200000,188.600000C256.200000,209.700000,237.500000,249.600000,206,249.600000L159.700000,249.600000C159.100000,249.600000,158.600000,249.400000,158.200000,248.900000C157.800000,248.400000,157.700000,247.900000,157.900000,247.300000C165.300000,216.600000,194.100000,194.500000,259.100000,186.300000C259.700000,186.200000,260.300000,186.400000,260.700000,186.900000C261.200000,187.400000,261.300000,188,261.200000,188.600000L261.200000,188.600000Z" clip-rule="evenodd" fill="rgb(255,0,0)" fill-rule="evenodd" stroke="none" stroke-width="1"/><path id="e5sAUJnI46120" d="M284.900000,146.500000C284.400000,146.400000,284.100000,145.800000,284.200000,145.400000C284.300000,145,284.900000,144.600000,285.300000,144.700000L288.800000,145.700000C289.300000,145.800000,289.800000,146.200000,290,146.700000C290.100000,146.900000,290.200000,147.100000,290.200000,147.400000L290.200000,147.500000C290.200000,147.700000,290.200000,148,290.200000,148.200000L290.200000,148.300000C290.100000,148.600000,289.800000,148.900000,289.500000,149.100000L285.500000,151.300000L285.400000,151.400000C285.300000,151.500000,285.300000,151.700000,285.300000,152C285.300000,152.500000,284.800000,152.900000,284.300000,152.900000C283.800000,152.900000,283.400000,152.400000,283.400000,151.900000C283.400000,151.300000,283.500000,150.900000,283.700000,150.600000L283.700000,150.500000C283.900000,150.100000,284.200000,149.800000,284.600000,149.600000L288.300000,147.600000L284.900000,146.500000L284.900000,146.500000Z" fill="rgb(77,77,77)" stroke="none" stroke-width="1"/><g id="e5sAUJnI46121"><path id="e5sAUJnI46122" d="M281.200000,142.700000C283,141.700000,285.300000,142.300000,286.300000,144.100000C287.300000,145.900000,286.700000,148.200000,284.900000,149.200000L280.400000,151.800000C278.600000,152.800000,276.300000,152.200000,275.300000,150.400000C274.300000,148.600000,274.900000,146.300000,276.700000,145.300000L281.200000,142.700000L281.200000,142.700000Z" fill="rgb(0,0,0)" stroke="none" stroke-width="1"/><circle id="e5sAUJnI46123" r="3.100000" transform="matrix(1 0 0 1 278.50000000000000 148.50000000000000)" clip-rule="evenodd" fill="rgb(77,77,77)" fill-rule="evenodd" stroke="none" stroke-width="1"/></g><g id="e5sAUJnI46124"><path id="e5sAUJnI46125" d="M306.700000,149.500000C310.500000,152.200000,311.800000,157,310.100000,159.600000C309.900000,159.900000,309.500000,160.100000,309.200000,160C304.400000,159.200000,300,155.100000,296,147.700000C295.600000,147,296.200000,146.300000,296.900000,146.300000C298.300000,146.500000,303.600000,147.300000,306.700000,149.500000Z" clip-rule="evenodd" fill="rgb(255,255,255)" fill-rule="evenodd" stroke="none" stroke-width="1"/><ellipse id="e5sAUJnI46126" rx="1.500000" ry="3.700000" transform="matrix(1 0 0 1 307 154.80000000000001)" clip-rule="evenodd" fill="rgb(230,230,230)" fill-rule="evenodd" stroke="none" stroke-width="1"/><ellipse id="e5sAUJnI46127" rx="1" ry="2.400000" transform="matrix(1 0 0 1 302.50000000000000 151.09999999999999)" clip-rule="evenodd" fill="rgb(230,230,230)" fill-rule="evenodd" stroke="none" stroke-width="1"/></g><path id="e5sAUJnI46128" d="M140.400000,148.600000C146.200000,146.600000,152,149.500000,155.100000,157.400000C158.100000,164.700000,175.200000,168.400000,185,167C192.700000,158.200000,193.700000,156.300000,200.700000,154.500000C197.600000,158.600000,194.400000,163.200000,191.100000,168.300000C184.400000,178.500000,175,181.400000,165.500000,178.800000C150.900000,174.800000,142.500000,164.700000,140.400000,148.600000L140.400000,148.600000Z" clip-rule="evenodd" fill="rgb(26,26,26)" fill-rule="evenodd" stroke="none" stroke-width="1"/></g></svg>