<svg id="s1" xmlns="http://www.w3.org/2000/svg" xmlns:xlink="http://www.w3.org/1999/xlink" viewBox="0 0 400 400"><defs><linearGradient id="s5-fill" x1="-0.780000" y1="6.340000" x2="9.660000" y2="6.340000" spreadMethod="pad" gradientUnits="userSpaceOnUse"><stop id="s5-fill-0" offset="4%" stop-color="rgb(239,239,239)"/><stop id="s5-fill-1" offset="21%" stop-color="rgb(216,219,230)"/><stop id="s5-fill-2" offset="45%" stop-color="rgb(247,247,247)"/></linearGradient><linearGradient id="s7-fill" x1="-0.780000" y1="11.270000" x2="9.660000" y2="11.270000" spreadMethod="pad" gradientUnits="userSpaceOnUse"><stop id="s7-fill-0" offset="4%" stop-color="rgb(239,239,239)"/><stop id="s7-fill-1" offset="21%" stop-color="rgb(216,219,230)"/><stop id="s7-fill-2" offset="45%" stop-color="rgb(247,247,247)"/></linearGradient><linearGradient id="s9-fill" x1="-0.780000" y1="11.270000" x2="9.660000" y2="11.270000" spreadMethod="pad" gradientUnits="userSpaceOnUse"><stop id="s9-fill-0" offset="4%" stop-color="rgb(239,239,239)"/><stop id="s9-fill-1" offset="21%" stop-color="rgb(216,219,230)"/><stop id="s9-fill-2" offset="45%" stop-color="rgb(247,247,247)"/></linearGradient><linearGradient id="s11-fill" x1="-122.350000" y1="320.119985" x2="157.460000" y2="232.919985" spreadMethod="pad" gradientUnits="userSpaceOnUse"><stop id="s11-fill-0" offset="0%" stop-color="rgb(97,100,107)"/><stop id="s11-fill-1" offset="100%" stop-color="rgb(72,75,78)"/></linearGradient><linearGradient id="s13-fill" x1="113.470000" y1="203.250000" x2="293.470000" y2="203.250000" spreadMethod="pad" gradientUnits="userSpaceOnUse"><stop id="s13-fill-0" offset="2%" stop-color="rgb(239,239,239)"/><stop id="s13-fill-1" offset="5%" stop-color="rgb(216,219,230)"/><stop id="s13-fill-2" offset="11%" stop-color="rgb(247,247,247)"/><stop id="s13-fill-3" offset="89%" stop-color="rgb(239,239,239)"/><stop id="s13-fill-4" offset="94%" stop-color="rgb(209,212,222)"/><stop id="s13-fill-5" offset="100%" stop-color="rgb(239,239,239)"/></linearGradient><linearGradient id="s15-fill" x1="201.800000" y1="359.170000" x2="201.800000" y2="342.160000" spreadMethod="pad" gradientUnits="userSpaceOnUse"><stop id="s15-fill-0" offset="16%" stop-color="rgba(216,219,230,0)"/><stop id="s15-fill-1" offset="32%" stop-color="rgba(216,219,230,0.7)"/><stop id="s15-fill-2" offset="52%" stop-color="rgba(216,219,230,0)"/></linearGradient><linearGradient id="s17-fill" x1="0" y1="-5.260000" x2="0" y2="3.010000" spreadMethod="pad" gradientUnits="userSpaceOnUse"><stop id="s17-fill-0" offset="20%" stop-color="rgb(179,179,179)"/><stop id="s17-fill-1" offset="100%" stop-color="rgb(237,237,237)"/></linearGradient><linearGradient id="s19-fill" x1="9.560000" y1="-2.640000" x2="9.560000" y2="3.530000" spreadMethod="pad" gradientUnits="userSpaceOnUse"><stop id="s19-fill-0" offset="20%" stop-color="rgb(179,179,179)"/><stop id="s19-fill-1" offset="100%" stop-color="rgb(237,237,237)"/></linearGradient></defs><g id="s3"><rect id="s5" width="8.700000" height="12.680000" rx="1.470000" ry="1.470000" transform="translate(123.200000,92.420000)" fill="url(#s5-fill)" stroke="none" stroke-width="1"/><rect id="s7" width="8.700000" height="22.550000" rx="1.970000" ry="1.970000" transform="translate(123.200000,115.270000)" fill="url(#s7-fill)" stroke="none" stroke-width="1"/><rect id="s9" width="8.700000" height="22.550000" rx="1.970000" ry="1.970000" transform="translate(123.200000,142.980000)" fill="url(#s9-fill)" stroke="none" stroke-width="1"/><rect id="s11" width="286.500000" height="132" rx="12.270000" ry="12.270000" transform="translate(405.110000,1.390000) rotate(90) translate(58.610000,137.250000)" fill="url(#s11-fill)" stroke="none" stroke-width="1"/><path id="s13" d="M255.530000,51L148.070000,51C136.336583,51.032959,126.832959,60.536583,126.800000,72.270000L126.800000,334.270000C126.832959,346.003417,136.336583,355.507041,148.070000,355.540000L255.530000,355.540000C267.263417,355.507041,276.767041,346.003417,276.800000,334.270000L276.800000,72.270000C276.767041,60.536583,267.263417,51.032959,255.530000,51ZM267.800000,334.230000C267.800000,341.006534,262.306534,346.500000,255.530000,346.500000L148.070000,346.500000C141.293466,346.500000,135.800000,341.006534,135.800000,334.230000L135.800000,72.230000C135.822041,65.469092,141.309056,59.999964,148.070000,60L163.800000,60C164.352285,60,164.800000,60.447715,164.800000,61L164.800000,62.110000C164.810996,66.739107,168.560893,70.489004,173.190000,70.500000L230.420000,70.500000C235.049107,70.489004,238.799004,66.739107,238.810000,62.110000L238.810000,61C238.810000,60.447715,239.257715,60,239.810000,60L255.540000,60C262.312628,60.005520,267.800002,65.497369,267.800000,72.270000Z" fill="url(#s13-fill)" stroke="none" stroke-width="1"/><path id="s15" d="M255.530000,351L148.070000,351C136.336583,350.967041,126.832959,341.463417,126.800000,329.730000L126.800000,334.230000C126.832959,345.963417,136.336583,355.467041,148.070000,355.500000L255.530000,355.500000C267.263417,355.467041,276.767041,345.963417,276.800000,334.230000L276.800000,329.730000C276.767041,341.463417,267.263417,350.967041,255.530000,351Z" fill="url(#s15-fill)" stroke="none" stroke-width="1"/><circle id="s17" r="1.720000" transform="translate(217.710000,62.590000)" fill="url(#s17-fill)" stroke="none" stroke-width="1"/><rect id="s19" width="19.130000" height="2.560000" rx="1.280000" ry="1.280000" transform="translate(192.240000,61.310000)" fill="url(#s19-fill)" stroke="none" stroke-width="1"/></g></svg>