<svg id="s1" xmlns="http://www.w3.org/2000/svg" xmlns:xlink="http://www.w3.org/1999/xlink" viewBox="0 0 100 100"><g id="s3"><line id="s5" x1="50.060000" y1="77.950000" x2="50.060000" y2="47.300000" fill="none" stroke="rgb(84,131,204)" stroke-width="4" stroke-linecap="round" stroke-linejoin="round"/><polyline id="s7" points="37.760000,60.460000 50.060000,45.740000 62.360000,60.460000" fill="none" stroke="rgb(84,131,204)" stroke-width="4" stroke-linecap="round" stroke-linejoin="round"/><path id="s9" d="M59.280000,69.330000L78,69.330000C82.543252,69.351069,86.426187,66.062764,87.153701,61.578089C87.881215,57.093415,85.236923,52.746248,80.920000,51.330000C79.804036,50.922685,78.615436,50.752399,77.430000,50.830000C77.038724,50.862704,76.654819,50.709659,76.393353,50.416739C76.131887,50.123818,76.023249,49.725066,76.100000,49.340000C78.065539,38.144277,71.557751,27.191810,60.784911,23.565037C50.012071,19.938264,38.205524,24.725047,33,34.830000L32.870000,34.830000C29.747217,34.805368,26.814774,36.328327,25.038865,38.897088C23.262957,41.465848,22.873944,44.747204,24,47.660000C24.143940,48.048400,24.084440,48.483023,23.841409,48.818446C23.598377,49.153869,23.203912,49.345793,22.790000,49.330000C21.645697,49.319451,20.509509,49.522948,19.440000,49.930000C15.400720,51.353331,12.696495,55.167290,12.690000,59.450000C12.759893,64.696081,16.872258,68.996166,22.110000,69.300000L22.110000,69.300000L40.720000,69.300000" fill="none" stroke="rgb(84,131,204)" stroke-width="4" stroke-linecap="round" stroke-linejoin="round"/></g></svg>