<svg id="s1" xmlns="http://www.w3.org/2000/svg" xmlns:xlink="http://www.w3.org/1999/xlink" viewBox="0 0 400 400"><g id="s3"><path id="s5" d="M196.070000,48.820000L242.500000,59.820000C244.040020,60.147225,245.178865,61.452204,245.294657,63.022341C245.410449,64.592478,244.475358,66.050402,243,66.600000L196.070000,85.650000Z" fill="rgb(245,124,74)" stroke="none" stroke-width="1"/><path id="s7" d="M196.620000,91.080000C236.620000,119.080000,296.060000,206.660000,304.560000,265.530000C304.857064,267.531050,304.006496,269.529599,302.358478,270.702836C300.710460,271.876073,298.543599,272.025655,296.750000,271.090000C275,259.770000,240.160000,266.510000,225.400000,270.170000C223.769372,270.571787,222.044747,270.181554,220.745929,269.116916C219.447111,268.052279,218.726022,266.437769,218.800000,264.760000C221.140000,211.710000,218.290000,135,196.620000,91.080000Z" fill="rgb(255,232,187)" stroke="none" stroke-width="1"/><path id="s9" d="M196.940000,80.940000C196.940000,112.050000,142.940000,225.780000,100.940000,275.420000L196.940000,275.420000Z" fill="rgb(255,232,187)" stroke="none" stroke-width="1"/><line id="s11" x1="195.880000" y1="39.240000" x2="195.880000" y2="289.770000" fill="none" stroke="rgb(194,111,88)" stroke-width="6" stroke-linecap="round" stroke-miterlimit="10"/><line id="s13" x1="92.120000" y1="275.430000" x2="195.880000" y2="275.430000" fill="none" stroke="rgb(194,111,88)" stroke-width="6" stroke-linecap="round" stroke-miterlimit="10"/><path id="s15" d="M67.220000,307.610000L86,342.060000C87.227846,344.304064,89.581987,345.699679,92.140000,345.700000L297.560000,345.700000C300.295015,345.699263,302.779108,344.105694,303.920000,341.620000L332.850000,278.620000C333.254815,277.740726,333.169412,276.713644,332.624936,275.913305C332.080459,275.112965,331.156499,274.656359,330.190000,274.710000L148.280000,284.500000C146.509041,284.592644,144.931270,285.648330,144.170000,287.250000L138.420000,299.380000L69.310000,303.800000C68.432457,303.859560,67.645715,304.362079,67.222692,305.133235C66.799670,305.904391,66.798655,306.837926,67.220000,307.610000Z" fill="rgb(194,111,88)" fill-rule="evenodd" stroke="none" stroke-width="1"/><path id="s17" d="M332.850000,278.580000C333.254815,277.700726,333.169412,276.673644,332.624936,275.873305C332.080459,275.072965,331.156499,274.616359,330.190000,274.670000L148.280000,284.500000C146.506813,284.594552,144.928498,285.654443,144.170000,287.260000L138.420000,299.390000L327.320000,290.630000Z" fill="rgb(163,91,72)" fill-rule="evenodd" stroke="none" stroke-width="1"/><circle id="s19" r="11.590000" transform="translate(277.140000,317.350000)" fill="rgb(163,91,72)" stroke="none" stroke-width="1"/></g></svg>