<svg id="eRZ9Gc1KOeX1" xmlns="http://www.w3.org/2000/svg" xmlns:xlink="http://www.w3.org/1999/xlink" viewBox="0 0 400 400" shape-rendering="geometricPrecision" text-rendering="geometricPrecision"><defs><linearGradient id="eRZ9Gc1KOeX11-fill" x1="200.357321" y1="262.761026" x2="200.357321" y2="249.261450" spreadMethod="pad" gradientUnits="userSpaceOnUse"><stop id="eRZ9Gc1KOeX11-fill-0" offset="0%" stop-color="rgb(188,195,196)"/><stop id="eRZ9Gc1KOeX11-fill-1" offset="100%" stop-color="rgb(206,213,214)"/></linearGradient><linearGradient id="eRZ9Gc1KOeX12-fill" x1="151.106276" y1="268.962170" x2="248.143904" y2="142.370590" spreadMethod="pad" gradientUnits="userSpaceOnUse"><stop id="eRZ9Gc1KOeX12-fill-0" offset="0%" stop-color="rgb(228,234,235)"/><stop id="eRZ9Gc1KOeX12-fill-1" offset="100%" stop-color="rgb(210,216,217)"/></linearGradient></defs><path id="eRZ9Gc1KOeX2" d="M202,144.700000C251.600000,142.300000,275.800000,196.200000,247.200000,196.200000L152.600000,196.300000C177,202.500000,203.800000,202.400000,252.900000,202.800000C284.400000,203.100000,298.100000,238.500000,293.200000,264.800000L312.600000,264.800000C295.100000,221.400000,263.600000,136.300000,201.700000,135.300000L202,144.700000L202,144.700000Z" fill="rgb(152,157,158)" stroke="none" stroke-width="1"/><path id="eRZ9Gc1KOeX3" d="M362.200000,264.800000C351.600000,250.400000,341.200000,237.300000,331,225.400000C315.300000,211.300000,299.200000,204.600000,282.700000,205.100000L122.800000,204.400000C98.500000,204.400000,79.700000,212.600000,65.600000,229.100000C56.500000,240,47.300000,251.800000,37.900000,264.800000L25,264.800000C85,182.200000,144.600000,135.300000,199.500000,135.300000C254.400000,135.300000,314.200000,182.300000,375,264.900000L362.200000,264.800000L362.200000,264.800000ZM292.400000,196.100000C296.100000,196.100000,297,191.400000,294.300000,187.800000C261.600000,159,230.500000,144.600000,199.500000,144.600000C169,144.600000,138.400000,158.600000,106.500000,186.500000C102.100000,190.800000,102,196.200000,108.300000,196.200000C169.700000,196.300000,231,196.200000,292.400000,196.100000L292.400000,196.100000Z" fill="rgb(210,216,217)" stroke="none" stroke-width="1"/><g id="eRZ9Gc1KOeX4"><path id="eRZ9Gc1KOeX5" d="M142.600000,215.100000L135.600000,198.100000C178.600000,198.100000,221.700000,198.100000,264.700000,198.100000L257.700000,215.100000C219.300000,215.100000,180.900000,215.100000,142.600000,215.100000L142.600000,215.100000Z" fill="rgb(152,157,158)" stroke="none" stroke-width="1"/><polygon id="eRZ9Gc1KOeX6" points="255.600000,219.400000 218.100000,226.600000 218.100000,244.700000 200.400000,244.700000 182.700000,244.700000 182.700000,226.600000 145.100000,219.400000 145.100000,218.700000 255.600000,218.700000" fill="rgb(210,216,217)" stroke="none" stroke-width="1"/><polygon id="eRZ9Gc1KOeX7" points="147.700000,218.700000 253,218.700000 253,215.100000 147.700000,215.100000" clip-rule="evenodd" fill="rgb(154,187,204)" fill-rule="evenodd" stroke="none" stroke-width="1"/></g><g id="eRZ9Gc1KOeX8"><polygon id="eRZ9Gc1KOeX9" points="321.700000,244.700000 79.100000,244.700000 79.100000,247.200000 321.700000,247.200000" clip-rule="evenodd" fill="rgb(188,195,196)" fill-rule="evenodd" stroke="none" stroke-width="1"/><polygon id="eRZ9Gc1KOeX10" points="319.200000,264.800000 81.600000,264.800000 81.600000,247.200000 319.200000,247.200000" clip-rule="evenodd" fill="rgb(206,213,214)" fill-rule="evenodd" stroke="none" stroke-width="1"/><path id="eRZ9Gc1KOeX11" d="M313.100000,262.800000L316.100000,262.800000L316.100000,249.300000L313.100000,249.300000L313.100000,262.800000ZM84.600000,262.800000L87.600000,262.800000L87.600000,249.300000L84.600000,249.300000L84.600000,262.800000ZM99.600000,262.800000L96.600000,262.800000L96.600000,249.300000L99.600000,249.300000L99.600000,262.800000ZM93.600000,262.800000L90.600000,262.800000L90.600000,249.300000L93.600000,249.300000L93.600000,262.800000ZM102.600000,262.800000L105.600000,262.800000L105.600000,249.300000L102.600000,249.300000L102.600000,262.800000ZM108.600000,262.800000L111.600000,262.800000L111.600000,249.300000L108.600000,249.300000L108.600000,262.800000ZM123.700000,262.800000L120.700000,262.800000L120.700000,249.300000L123.700000,249.300000L123.700000,262.800000ZM117.700000,262.800000L114.700000,262.800000L114.700000,249.300000L117.700000,249.300000L117.700000,262.800000ZM138.700000,262.800000L141.700000,262.800000L141.700000,249.300000L138.700000,249.300000L138.700000,262.800000ZM144.700000,262.800000L147.700000,262.800000L147.700000,249.300000L144.700000,249.300000L144.700000,262.800000ZM135.700000,262.800000L132.700000,262.800000L132.700000,249.300000L135.700000,249.300000L135.700000,262.800000ZM129.700000,262.800000L126.700000,262.800000L126.700000,249.300000L129.700000,249.300000L129.700000,262.800000ZM159.700000,262.800000L156.700000,262.800000L156.700000,249.300000L159.700000,249.300000L159.700000,262.800000ZM153.800000,262.800000L150.800000,262.800000L150.800000,249.300000L153.800000,249.300000L153.800000,262.800000ZM162.800000,262.800000L165.800000,262.800000L165.800000,249.300000L162.800000,249.300000L162.800000,262.800000ZM168.800000,262.800000L171.800000,262.800000L171.800000,249.300000L168.800000,249.300000L168.800000,262.800000ZM186.800000,262.800000L189.800000,262.800000L189.800000,249.300000L186.800000,249.300000L186.800000,262.800000ZM192.900000,262.800000L195.900000,262.800000L195.900000,249.300000L192.900000,249.300000L192.900000,262.800000ZM183.800000,262.800000L180.800000,262.800000L180.800000,249.300000L183.800000,249.300000L183.800000,262.800000ZM177.800000,262.800000L174.800000,262.800000L174.800000,249.300000L177.800000,249.300000L177.800000,262.800000ZM207.900000,262.800000L204.900000,262.800000L204.900000,249.300000L207.900000,249.300000L207.900000,262.800000ZM201.900000,262.800000L198.900000,262.800000L198.900000,249.300000L201.900000,249.300000L201.900000,262.800000ZM210.900000,262.800000L213.900000,262.800000L213.900000,249.300000L210.900000,249.300000L210.900000,262.800000ZM216.900000,262.800000L219.900000,262.800000L219.900000,249.300000L216.900000,249.300000L216.900000,262.800000ZM234.900000,262.800000L237.900000,262.800000L237.900000,249.300000L234.900000,249.300000L234.900000,262.800000L234.900000,262.800000ZM241,262.800000L244,262.800000L244,249.300000L241,249.300000L241,262.800000ZM231.900000,262.800000L228.900000,262.800000L228.900000,249.300000L231.900000,249.300000L231.900000,262.800000ZM225.900000,262.800000L222.900000,262.800000L222.900000,249.300000L225.900000,249.300000L225.900000,262.800000ZM256,262.800000L253,262.800000L253,249.300000L256,249.300000L256,262.800000ZM250,262.800000L247,262.800000L247,249.300000L250,249.300000L250,262.800000ZM259,262.800000L262,262.800000L262,249.300000L259,249.300000L259,262.800000ZM265,262.800000L268,262.800000L268,249.300000L265,249.300000L265,262.800000ZM283.100000,262.800000L286.100000,262.800000L286.100000,249.300000L283.100000,249.300000L283.100000,262.800000ZM289.100000,262.800000L292.100000,262.800000L292.100000,249.300000L289.100000,249.300000L289.100000,262.800000ZM280.100000,262.800000L277.100000,262.800000L277.100000,249.300000L280.100000,249.300000L280.100000,262.800000ZM274,262.800000L271,262.800000L271,249.300000L274,249.300000L274,262.800000ZM304.100000,262.800000L301.100000,262.800000L301.100000,249.300000L304.100000,249.300000L304.100000,262.800000ZM298.100000,262.800000L295.100000,262.800000L295.100000,249.300000L298.100000,249.300000L298.100000,262.800000ZM307.100000,262.800000L310.100000,262.800000L310.100000,249.300000L307.100000,249.300000L307.100000,262.800000Z" clip-rule="evenodd" fill="url(#eRZ9Gc1KOeX11-fill)" fill-rule="evenodd" stroke="none" stroke-width="1"/></g><path id="eRZ9Gc1KOeX12" d="M202.500000,144.700000C180.600000,143.300000,161.100000,161.500000,144.800000,186.100000C140.800000,193.200000,142.500000,196.200000,149.600000,196.200000L292.300000,196.100000C281.400000,202.100000,198.300000,202.300000,149.200000,202.800000C140,202.900000,133.100000,205.500000,128.600000,214.100000C119.700000,231.500000,112.300000,249.500000,106.500000,264.700000L91.800000,264.700000C109.300000,221.400000,145.800000,131.400000,202.700000,135.300000L202.500000,144.700000L202.500000,144.700000Z" fill="url(#eRZ9Gc1KOeX12-fill)" stroke="none" stroke-width="1"/></svg>