<svg id="s1" xmlns="http://www.w3.org/2000/svg" xmlns:xlink="http://www.w3.org/1999/xlink" viewBox="0 0 400 400"><g id="s3"><line id="s5" x1="156.210000" y1="250.070000" x2="177.850000" y2="314.730000" fill="none" stroke="rgb(255,232,187)" stroke-width="5" stroke-linecap="round" stroke-miterlimit="10"/><line id="s7" x1="243.790000" y1="250.070000" x2="222.150000" y2="314.730000" fill="none" stroke="rgb(255,232,187)" stroke-width="5" stroke-linecap="round" stroke-miterlimit="10"/><line id="s9" x1="200" y1="252.730000" x2="200" y2="314.730000" fill="none" stroke="rgb(255,232,187)" stroke-width="5.342690" stroke-linecap="round" stroke-miterlimit="10"/><path id="s11" d="M222.370000,344.320000L177.630000,344.320000C176.151517,344.363033,174.852540,343.345712,174.540000,341.900000L168.640000,309.100000C168.530808,308.226541,168.810741,307.349199,169.405640,306.700394C170.000539,306.051588,170.850369,305.696794,171.730000,305.730000L228.280000,305.730000C229.159631,305.696794,230.009461,306.051588,230.604360,306.700394C231.199259,307.349199,231.479192,308.226541,231.370000,309.100000L225.470000,341.900000C225.156791,343.349521,223.852199,344.367944,222.370000,344.320000Z" fill="rgb(240,139,19)" stroke="none" stroke-width="1"/><g id="s13"><path id="s15" d="M200.530000,50L200.530000,50L199.460000,50L199.460000,50C135.880000,50.680000,89,84.680000,89,144.190000C89,182.780000,121.870000,237.490000,155,263.090000L245,263.090000C278.170000,237.490000,311,182.780000,311,144.190000C311,84.680000,264.120000,50.680000,200.530000,50Z" fill="rgb(128,158,90)" stroke="none" stroke-width="1"/><path id="s17" d="M196.670000,50.270000C195.480000,50.180000,194.310000,50.030000,193.100000,50L193.100000,50L192.470000,50L192.470000,50C154.830000,50.670000,127.080000,84.680000,127.080000,144.180000C127.080000,182.770000,146.530000,237.480000,166.170000,263.080000L186,263.080000C176.790000,237.480000,167.670000,182.770000,167.670000,144.180000C167.680000,86.600000,179.880000,53,196.670000,50.270000Z" fill="rgb(182,212,114)" stroke="none" stroke-width="1"/><path id="s19" d="M203.330000,50.270000C204.520000,50.180000,205.690000,50.030000,206.900000,50L206.900000,50L207.530000,50L207.530000,50C245.170000,50.670000,272.920000,84.680000,272.920000,144.180000C272.920000,182.770000,253.470000,237.480000,233.830000,263.080000L214,263.080000C223.210000,237.480000,232.330000,182.770000,232.330000,144.180000C232.320000,86.600000,220.120000,53,203.330000,50.270000Z" fill="rgb(182,212,114)" stroke="none" stroke-width="1"/></g><line id="s21" x1="155.030000" y1="263.090000" x2="244.970000" y2="263.090000" fill="none" stroke="rgb(240,139,19)" stroke-width="10" stroke-linecap="round" stroke-miterlimit="10"/></g></svg>