<svg id="ek2ho07mpxv1" xmlns="http://www.w3.org/2000/svg" xmlns:xlink="http://www.w3.org/1999/xlink" viewBox="0 0 400 400" shape-rendering="geometricPrecision" text-rendering="geometricPrecision"><defs><path id="ek2ho07mpxv2" d="M253.800000,329.700000C255.700000,329.900000,257.100000,331.700000,256.900000,333.600000C256.700000,335.600000,254.900000,336.900000,253,336.700000L50.800000,313.500000C48.900000,313.300000,47.500000,311.500000,47.700000,309.600000C47.900000,307.600000,49.700000,306.300000,51.600000,306.500000L253.800000,329.700000L253.800000,329.700000Z"/><path id="ek2ho07mpxv3" d="M332.500000,286.200000C334.400000,286.400000,335.800000,288.100000,335.600000,290.100000C335.400000,292.100000,333.600000,293.500000,331.700000,293.300000L129.400000,273.600000C127.500000,273.400000,126.100000,271.700000,126.300000,269.700000C126.500000,267.700000,128.300000,266.300000,130.200000,266.500000L332.500000,286.200000L332.500000,286.200000Z"/><path id="ek2ho07mpxv4" d="M341.800000,46.600000C286,43.700000,238.300000,42.400000,198.700000,41.700000C187.100000,164.600000,147.200000,245,94.600000,246.300000C204.200000,255.300000,201.100000,257.600000,255.500000,262.100000C293.700000,261.700000,331.500000,177.700000,341.800000,46.600000L341.800000,46.600000Z"/><path id="ek2ho07mpxv5" d="M362.400000,45C364.400000,45.100000,365.900000,46.700000,365.800000,48.700000C365.700000,50.700000,364.100000,52.200000,362.100000,52.100000L191.500000,46.600000C189.500000,46.500000,188,44.900000,188.100000,42.900000C188.200000,40.900000,189.800000,39.400000,191.800000,39.500000L362.400000,45L362.400000,45Z"/><path id="ek2ho07mpxv6" d="M233.700000,232.600000C235.700000,232.800000,237.100000,234.500000,236.900000,236.400000C236.700000,238.300000,235,239.800000,233.100000,239.600000L52.800000,224.600000C50.800000,224.400000,49.400000,222.700000,49.600000,220.800000C49.800000,218.800000,51.500000,217.400000,53.400000,217.600000L233.700000,232.600000Z"/><linearGradient id="ek2ho07mpxv44-fill" x1="211.767592" y1="40.557417" x2="225.127773" y2="259.961924" spreadMethod="pad" gradientUnits="userSpaceOnUse"><stop id="ek2ho07mpxv44-fill-0" offset="0%" stop-color="rgb(161,89,255)"/><stop id="ek2ho07mpxv44-fill-1" offset="100%" stop-color="rgb(235,145,255)"/></linearGradient><linearGradient id="ek2ho07mpxv64-fill" x1="269.593345" y1="50.156690" x2="269.701290" y2="41.127074" spreadMethod="pad" gradientUnits="userSpaceOnUse"><stop id="ek2ho07mpxv64-fill-0" offset="0%" stop-color="rgb(161,89,255)"/><stop id="ek2ho07mpxv64-fill-1" offset="100%" stop-color="rgb(235,145,255)"/></linearGradient><linearGradient id="ek2ho07mpxv78-fill" x1="156.493271" y1="255.583765" x2="158.623717" y2="224.219306" spreadMethod="pad" gradientUnits="userSpaceOnUse"><stop id="ek2ho07mpxv78-fill-0" offset="0%" stop-color="rgb(103,45,179)"/><stop id="ek2ho07mpxv78-fill-1" offset="100%" stop-color="rgb(166,98,181)"/></linearGradient><linearGradient id="ek2ho07mpxv79-fill" x1="135.741297" y1="236.815530" x2="135.993005" y2="219.726332" spreadMethod="pad" gradientUnits="userSpaceOnUse"><stop id="ek2ho07mpxv79-fill-0" offset="0%" stop-color="rgb(115,63,184)"/><stop id="ek2ho07mpxv79-fill-1" offset="100%" stop-color="rgb(235,145,255)"/></linearGradient></defs><g id="ek2ho07mpxv7"><g id="ek2ho07mpxv8"><g id="ek2ho07mpxv9"><path id="ek2ho07mpxv10" d="M183.100000,295C184.300000,298.400000,182.500000,302.100000,179.100000,303.300000C175.700000,304.500000,172,302.700000,170.800000,299.300000L120.100000,152.800000C118.900000,149.400000,120.700000,145.700000,124.100000,144.500000C127.500000,143.300000,131.200000,145.100000,132.400000,148.500000L183.100000,295Z" fill="rgb(222,201,182)" stroke="none" stroke-width="1"/><path id="ek2ho07mpxv11" d="M185.400000,295.100000C186.600000,298.500000,184.800000,302.200000,181.400000,303.400000C178,304.600000,174.300000,302.800000,173.100000,299.400000L122.400000,152.900000C121.200000,149.500000,123,145.800000,126.400000,144.600000C129.800000,143.400000,133.500000,145.200000,134.700000,148.600000L185.400000,295.100000Z" fill="rgb(194,154,119)" stroke="none" stroke-width="1"/></g><g id="ek2ho07mpxv12"><path id="ek2ho07mpxv13" d="M187,32.500000C189.400000,28,194.900000,26.300000,199.400000,28.700000C203.900000,31.100000,205.600000,36.600000,203.200000,41.100000L42.300000,346.600000C39.900000,351.100000,34.400000,352.800000,29.900000,350.400000C25.400000,348,23.700000,342.500000,26.100000,338L187,32.500000L187,32.500000Z" fill="rgb(222,201,182)" stroke="none" stroke-width="1"/><path id="ek2ho07mpxv14" d="M189.200000,32.600000C191.600000,28.100000,197.100000,26.400000,201.600000,28.800000C206.100000,31.200000,207.800000,36.700000,205.400000,41.200000L44.500000,346.700000C42.100000,351.200000,36.600000,352.900000,32.100000,350.500000C27.600000,348.100000,25.900000,342.600000,28.300000,338.100000L189.200000,32.600000L189.200000,32.600000Z" fill="rgb(204,159,120)" stroke="none" stroke-width="1"/></g><g id="ek2ho07mpxv15"><path id="ek2ho07mpxv16" d="M181.600000,289.300000C185.900000,291.900000,187.300000,297.500000,184.700000,301.900000C182.100000,306.200000,176.500000,307.600000,172.100000,305L46,228.900000C41.700000,226.300000,40.300000,220.700000,42.900000,216.300000C45.500000,212,51.200000,210.600000,55.500000,213.200000L181.600000,289.300000Z" fill="rgb(222,201,182)" stroke="none" stroke-width="1"/><path id="ek2ho07mpxv17" d="M183.900000,289.400000C188.200000,292,189.600000,297.600000,187,302C184.400000,306.300000,178.800000,307.700000,174.400000,305.100000L48.300000,229C44,226.400000,42.600000,220.800000,45.200000,216.400000C47.800000,212,53.400000,210.700000,57.800000,213.300000L183.900000,289.400000Z" fill="rgb(209,168,132)" stroke="none" stroke-width="1"/></g></g><g id="ek2ho07mpxv18"><polygon id="ek2ho07mpxv19" points="358.100000,284 170.200000,271.200000 165.800000,254.600000 353.700000,267.300000" fill="rgb(169,130,101)" stroke="none" stroke-width="1"/><polygon id="ek2ho07mpxv20" points="353.700000,267.300000 165.800000,254.600000 168.100000,253.500000 356,266.300000" fill="rgb(255,228,199)" stroke="none" stroke-width="1"/></g><g id="ek2ho07mpxv21"><path id="ek2ho07mpxv22" d="M253.800000,329.700000C255.700000,329.900000,257.100000,331.700000,256.900000,333.600000C256.700000,335.600000,254.900000,336.900000,253,336.700000L50.800000,313.500000C48.900000,313.300000,47.500000,311.500000,47.700000,309.600000C47.900000,307.600000,49.700000,306.300000,51.600000,306.500000L253.800000,329.700000L253.800000,329.700000Z" fill="rgb(169,130,101)" stroke="none" stroke-width="1"/><path id="ek2ho07mpxv23" d="M253.800000,329.700000C255.700000,329.900000,257.100000,331.700000,256.900000,333.600000C256.700000,335.600000,254.900000,336.900000,253,336.700000L50.800000,313.500000C48.900000,313.300000,47.500000,311.500000,47.700000,309.600000C47.900000,307.600000,49.700000,306.300000,51.600000,306.500000L253.800000,329.700000L253.800000,329.700000Z" fill="rgb(169,130,101)" stroke="none" stroke-width="1"/><g id="ek2ho07mpxv24"><g id="ek2ho07mpxv25" style="" clip-path="url(#ek2ho07mpxv29)"><g id="ek2ho07mpxv26"><g id="ek2ho07mpxv27"><path id="ek2ho07mpxv28" d="M255.500000,324.400000C257.500000,324.600000,258.800000,326.400000,258.600000,328.300000C258.400000,330.200000,256.600000,331.600000,254.700000,331.400000L52.500000,308.200000C50.600000,308,49.200000,306.200000,49.400000,304.300000C49.600000,302.400000,51.400000,301,53.300000,301.200000L255.500000,324.400000L255.500000,324.400000Z" fill="rgb(194,154,119)" stroke="none" stroke-width="1"/></g></g><clipPath id="ek2ho07mpxv29"><use id="ek2ho07mpxv30" width="209.238068" height="30.240479" xlink:href="#ek2ho07mpxv2" fill="rgb(0,0,0)" stroke="none" stroke-width="1"/></clipPath></g></g><path id="ek2ho07mpxv31" d="M253.800000,329.700000C255.700000,329.900000,257.100000,331.700000,256.900000,333.600000C256.700000,335.600000,254.900000,336.900000,253,336.700000L50.800000,313.500000C48.900000,313.300000,47.500000,311.500000,47.700000,309.600000C47.900000,307.600000,49.700000,306.300000,51.600000,306.500000L253.800000,329.700000L253.800000,329.700000Z" fill="none" stroke="none" stroke-width="1"/></g><g id="ek2ho07mpxv32"><path id="ek2ho07mpxv33" d="M332.500000,286.200000C334.400000,286.400000,335.800000,288.100000,335.600000,290.100000C335.400000,292.100000,333.600000,293.500000,331.700000,293.300000L129.400000,273.600000C127.500000,273.400000,126.100000,271.700000,126.300000,269.700000C126.500000,267.700000,128.300000,266.300000,130.200000,266.500000L332.500000,286.200000L332.500000,286.200000Z" fill="rgb(169,130,101)" stroke="none" stroke-width="1"/><g id="ek2ho07mpxv34"><g id="ek2ho07mpxv35" style="" clip-path="url(#ek2ho07mpxv39)"><g id="ek2ho07mpxv36"><g id="ek2ho07mpxv37"><path id="ek2ho07mpxv38" d="M334.200000,280.800000C336.200000,281,337.600000,282.700000,337.300000,284.700000C337.100000,286.700000,335.300000,288.100000,333.400000,287.900000L131.100000,268.200000C129.200000,268,127.700000,266.300000,128,264.300000C128.200000,262.300000,130,260.900000,131.900000,261.100000L334.200000,280.800000L334.200000,280.800000Z" fill="rgb(194,154,119)" stroke="none" stroke-width="1"/></g></g><clipPath id="ek2ho07mpxv39"><use id="ek2ho07mpxv40" width="209.338043" height="26.838043" xlink:href="#ek2ho07mpxv3" fill="rgb(0,0,0)" stroke="none" stroke-width="1"/></clipPath></g></g><path id="ek2ho07mpxv41" d="M332.500000,286.200000C334.400000,286.400000,335.800000,288.100000,335.600000,290.100000C335.400000,292.100000,333.600000,293.500000,331.700000,293.300000L129.400000,273.600000C127.500000,273.400000,126.100000,271.700000,126.300000,269.700000C126.500000,267.700000,128.300000,266.300000,130.200000,266.500000L332.500000,286.200000L332.500000,286.200000Z" fill="none" stroke="none" stroke-width="1"/></g><g id="ek2ho07mpxv42"><g id="ek2ho07mpxv43"><path id="ek2ho07mpxv44" d="M341.800000,46.600000C286,43.700000,238.300000,42.400000,198.700000,41.700000C187.100000,164.600000,147.200000,245,94.600000,246.300000C204.200000,255.300000,201.100000,257.600000,255.500000,262.100000C293.700000,261.700000,331.500000,177.700000,341.800000,46.600000L341.800000,46.600000Z" clip-rule="evenodd" fill="url(#ek2ho07mpxv44-fill)" fill-rule="evenodd" stroke="none" stroke-width="1"/><g id="ek2ho07mpxv45"><g id="ek2ho07mpxv46" style="" clip-path="url(#ek2ho07mpxv50)"><g id="ek2ho07mpxv47"><g id="ek2ho07mpxv48"><path id="ek2ho07mpxv49" d="M230.900000,42.600000C224.900000,105.600000,211.600000,157.800000,192.900000,194.500000C184.700000,210.500000,175.500000,223.700000,165.300000,233.700000C181.600000,227.100000,196.400000,210.500000,209,185.900000C226.600000,151.200000,239.300000,101.400000,245,40.800000L263.800000,42.600000C257.800000,105.600000,244.500000,157.800000,225.800000,194.500000C217.500000,210.700000,208.200000,224.100000,197.800000,234.100000C214.500000,227.700000,229.700000,211,242.500000,185.900000C260.100000,151.200000,272.800000,101.400000,278.500000,40.800000L297.300000,42.600000C291.300000,105.600000,278,157.800000,259.300000,194.500000C251.100000,210.500000,241.900000,223.700000,231.700000,233.700000C248,227.100000,262.800000,210.500000,275.400000,185.900000C293,151.200000,305.700000,101.400000,311.400000,40.800000L330.200000,42.600000C324.200000,105.600000,310.900000,157.800000,292.200000,194.500000C272.600000,233,246.800000,255.100000,216.800000,255.800000L216.600000,245.700000C206.400000,252.100000,195.400000,255.500000,183.900000,255.800000L183.700000,245.300000C173.300000,251.900000,162.200000,255.500000,150.400000,255.800000L150.200000,245.700000C140,252.100000,129,255.500000,117.500000,255.800000L117.100000,236.900000C139.500000,236.300000,159.700000,218,176,185.900000C193.600000,151.200000,206.300000,101.400000,212,40.800000L230.900000,42.600000L230.900000,42.600000Z" fill="rgb(255,255,255)" stroke="none" stroke-width="1"/></g></g><clipPath id="ek2ho07mpxv50"><use id="ek2ho07mpxv51" width="247.199982" height="220.400009" xlink:href="#ek2ho07mpxv4" fill="rgb(0,0,0)" stroke="none" stroke-width="1"/></clipPath></g></g><g id="ek2ho07mpxv52"><path id="ek2ho07mpxv53" d="M344,52.100000C341.800000,51.600000,340.200000,50.100000,340.400000,47.900000C340.600000,45.700000,342.500000,43.900000,344.700000,43.800000C346.800000,45.100000,346.400000,51.800000,344,52.100000L344,52.100000Z" clip-rule="evenodd" fill="rgb(153,0,0)" fill-rule="evenodd" stroke="none" stroke-width="1"/><g id="ek2ho07mpxv54"><path id="ek2ho07mpxv55" d="M362.400000,45C364.400000,45.100000,365.900000,46.700000,365.800000,48.700000C365.700000,50.700000,364.100000,52.200000,362.100000,52.100000L191.500000,46.600000C189.500000,46.500000,188,44.900000,188.100000,42.900000C188.200000,40.900000,189.800000,39.400000,191.800000,39.500000L362.400000,45L362.400000,45Z" fill="rgb(169,130,101)" stroke="none" stroke-width="1"/><g id="ek2ho07mpxv56"><g id="ek2ho07mpxv57" style="" clip-path="url(#ek2ho07mpxv61)"><g id="ek2ho07mpxv58"><g id="ek2ho07mpxv59"><path id="ek2ho07mpxv60" d="M363.600000,39.700000C365.600000,39.800000,367.100000,41.400000,367,43.400000C366.900000,45.400000,365.300000,46.900000,363.300000,46.800000L192.700000,41.300000C190.700000,41.200000,189.200000,39.600000,189.300000,37.600000C189.400000,35.600000,191,34.100000,193,34.200000L363.600000,39.700000L363.600000,39.700000Z" fill="rgb(194,154,119)" stroke="none" stroke-width="1"/></g></g><clipPath id="ek2ho07mpxv61"><use id="ek2ho07mpxv62" width="177.709457" height="12.609447" xlink:href="#ek2ho07mpxv5" fill="rgb(0,0,0)" stroke="none" stroke-width="1"/></clipPath></g></g><path id="ek2ho07mpxv63" d="M362.400000,45C364.400000,45.100000,365.900000,46.700000,365.800000,48.700000C365.700000,50.700000,364.100000,52.200000,362.100000,52.100000L191.500000,46.600000C189.500000,46.500000,188,44.900000,188.100000,42.900000C188.200000,40.900000,189.800000,39.400000,191.800000,39.500000L362.400000,45L362.400000,45Z" fill="none" stroke="none" stroke-width="1"/></g><path id="ek2ho07mpxv64" d="M344.700000,43.900000L196.800000,39.100000C194.100000,40,193.900000,46.600000,196.400000,47.600000L344,52.100000C341.500000,50.700000,341.500000,44.500000,344.700000,43.900000L344.700000,43.900000Z" clip-rule="evenodd" fill="url(#ek2ho07mpxv64-fill)" fill-rule="evenodd" stroke="none" stroke-width="1"/></g></g><g id="ek2ho07mpxv65"><path id="ek2ho07mpxv66" d="M216.400000,239.300000C214.200000,238.800000,212.800000,236.700000,213,234.400000C213.200000,232.200000,215.100000,230.400000,217.300000,230.300000C219.400000,231.700000,218.800000,239,216.400000,239.300000Z" clip-rule="evenodd" fill="rgb(153,0,0)" fill-rule="evenodd" stroke="none" stroke-width="1"/><g id="ek2ho07mpxv67"><path id="ek2ho07mpxv68" d="M233.700000,232.600000C235.700000,232.800000,237.100000,234.500000,236.900000,236.400000C236.700000,238.300000,235,239.800000,233.100000,239.600000L52.800000,224.600000C50.800000,224.400000,49.400000,222.700000,49.600000,220.800000C49.800000,218.800000,51.500000,217.400000,53.400000,217.600000L233.700000,232.600000Z" fill="rgb(169,130,101)" stroke="none" stroke-width="1"/><path id="ek2ho07mpxv69" d="M233.700000,232.600000C235.700000,232.800000,237.100000,234.500000,236.900000,236.400000C236.700000,238.300000,235,239.800000,233.100000,239.600000L52.800000,224.600000C50.800000,224.400000,49.400000,222.700000,49.600000,220.800000C49.800000,218.800000,51.500000,217.400000,53.400000,217.600000L233.700000,232.600000Z" fill="none" stroke="none" stroke-width="1"/><g id="ek2ho07mpxv70"><g id="ek2ho07mpxv71" style="" clip-path="url(#ek2ho07mpxv75)"><g id="ek2ho07mpxv72"><g id="ek2ho07mpxv73"><path id="ek2ho07mpxv74" d="M234.500000,227.200000C236.500000,227.400000,237.900000,229.100000,237.700000,231C237.500000,233,235.800000,234.400000,233.900000,234.200000L53.600000,219.200000C51.600000,219,50.200000,217.300000,50.400000,215.400000C50.600000,213.400000,52.300000,212,54.200000,212.200000L234.500000,227.200000Z" fill="rgb(194,154,119)" stroke="none" stroke-width="1"/></g></g><clipPath id="ek2ho07mpxv75"><use id="ek2ho07mpxv76" width="187.338013" height="22.036911" xlink:href="#ek2ho07mpxv6" fill="rgb(0,0,0)" stroke="none" stroke-width="1"/></clipPath></g></g></g><g id="ek2ho07mpxv77"><path id="ek2ho07mpxv78" d="M59.600000,217.700000C111.100000,222.200000,163.400000,227.600000,209.500000,230.600000C214.700000,246.900000,232.100000,259.500000,255.500000,262C150.900000,252.100000,114.300000,248.600000,94.600000,246.200000C83.900000,245,57.100000,233.300000,59.600000,217.700000L59.600000,217.700000Z" clip-rule="evenodd" fill="url(#ek2ho07mpxv78-fill)" fill-rule="evenodd" stroke="none" stroke-width="1"/><path id="ek2ho07mpxv79" d="M217.300000,230.400000C169.200000,226.600000,115.500000,222.700000,56.600000,217.300000C53.900000,218.200000,53.700000,224.800000,56.200000,225.800000C163,234.800000,216.400000,239.300000,216.400000,239.300000C214.600000,238.600000,214.600000,231.100000,217.300000,230.400000Z" clip-rule="evenodd" fill="url(#ek2ho07mpxv79-fill)" fill-rule="evenodd" stroke="none" stroke-width="1"/></g></g></g><g id="ek2ho07mpxv80"><g id="ek2ho07mpxv81"><g id="ek2ho07mpxv82"><path id="ek2ho07mpxv83" d="M365.900000,301.200000C370.300000,303.700000,371.900000,309.300000,369.400000,313.700000C366.900000,318.100000,361.300000,319.700000,356.900000,317.200000L226.600000,244C222.200000,241.500000,220.600000,235.900000,223.100000,231.500000C225.600000,227.100000,231.200000,225.500000,235.600000,228L365.900000,301.200000L365.900000,301.200000Z" fill="rgb(169,130,101)" stroke="none" stroke-width="1"/><path id="ek2ho07mpxv84" d="M368.200000,301.300000C372.600000,303.800000,374.200000,309.400000,371.700000,313.800000C369.200000,318.200000,363.600000,319.800000,359.200000,317.300000L228.900000,244.100000C224.500000,241.600000,222.900000,236,225.400000,231.600000C227.900000,227.200000,233.500000,225.600000,237.900000,228.100000L368.200000,301.300000Z" fill="rgb(169,130,101)" stroke="none" stroke-width="1"/></g><g id="ek2ho07mpxv85"><path id="ek2ho07mpxv86" d="M355,38.900000C356.800000,34.200000,362.100000,31.800000,366.800000,33.600000C371.500000,35.400000,373.900000,40.700000,372.100000,45.400000L249.400000,366.400000C247.600000,371.100000,242.300000,373.500000,237.600000,371.700000C232.900000,369.900000,230.500000,364.600000,232.300000,359.900000L355,38.900000L355,38.900000Z" fill="rgb(169,130,101)" stroke="none" stroke-width="1"/><path id="ek2ho07mpxv87" d="M357.300000,39C359.100000,34.300000,364.400000,31.900000,369.100000,33.700000C373.800000,35.500000,376.200000,40.800000,374.400000,45.500000L251.700000,366.500000C249.900000,371.200000,244.600000,373.600000,239.900000,371.800000C235.200000,370,232.800000,364.700000,234.600000,360L357.300000,39L357.300000,39Z" fill="rgb(169,130,101)" stroke="none" stroke-width="1"/></g><g id="ek2ho07mpxv88"><path id="ek2ho07mpxv89" d="M370.100000,307.900000C370.900000,311.400000,368.700000,314.900000,365.100000,315.700000C361.600000,316.500000,358.100000,314.300000,357.300000,310.700000L321.100000,149.100000C320.300000,145.600000,322.500000,142.100000,326.100000,141.300000C329.600000,140.500000,333.100000,142.700000,333.900000,146.300000L370.100000,307.900000L370.100000,307.900000Z" fill="rgb(169,130,101)" stroke="none" stroke-width="1"/><path id="ek2ho07mpxv90" d="M372.400000,308C373.200000,311.500000,371,315,367.400000,315.800000C363.900000,316.600000,360.400000,314.400000,359.600000,310.800000L323.400000,149.200000C322.600000,145.700000,324.800000,142.200000,328.400000,141.400000C331.900000,140.600000,335.400000,142.800000,336.200000,146.400000L372.400000,308L372.400000,308Z" fill="rgb(169,130,101)" stroke="none" stroke-width="1"/></g><g id="ek2ho07mpxv91"><path id="ek2ho07mpxv92" d="M281.500000,259.800000C280.400000,259.800000,279.600000,261.200000,279.600000,262.800000C279.700000,264.400000,280.600000,265.700000,281.700000,265.700000C282.800000,265.700000,283.600000,264.300000,283.600000,262.700000C283.600000,261,282.600000,259.700000,281.500000,259.800000Z" fill="rgb(169,130,101)" stroke="none" stroke-width="1"/><path id="ek2ho07mpxv93" d="M281.900000,260C280.900000,260,280.100000,261.300000,280.200000,262.800000C280.300000,264.300000,281.100000,265.500000,282.100000,265.400000C283.100000,265.400000,283.900000,264.100000,283.800000,262.600000C283.700000,261.200000,282.900000,260,281.900000,260Z" fill="rgb(169,130,101)" stroke="none" stroke-width="1"/><path id="ek2ho07mpxv94" d="M366.200000,303.400000C365.100000,303.400000,364.300000,304.800000,364.300000,306.400000C364.400000,308,365.300000,309.300000,366.400000,309.300000C367.500000,309.300000,368.300000,307.900000,368.300000,306.300000C368.200000,304.700000,367.300000,303.400000,366.200000,303.400000Z" fill="rgb(169,130,101)" stroke="none" stroke-width="1"/><path id="ek2ho07mpxv95" d="M366.500000,303.700000C365.500000,303.700000,364.700000,305,364.800000,306.500000C364.900000,308,365.700000,309.200000,366.700000,309.100000C367.700000,309.100000,368.500000,307.800000,368.400000,306.300000C368.400000,304.800000,367.500000,303.700000,366.500000,303.700000L366.500000,303.700000Z" fill="rgb(169,130,101)" stroke="none" stroke-width="1"/><path id="ek2ho07mpxv96" d="M330,146.100000C328.900000,146.100000,328.100000,147.500000,328.100000,149.100000C328.200000,150.700000,329.100000,152,330.200000,152C331.300000,152,332.100000,150.600000,332.100000,149C332,147.300000,331.100000,146,330,146.100000Z" fill="rgb(169,130,101)" stroke="none" stroke-width="1"/><path id="ek2ho07mpxv97" d="M330.300000,146.400000C329.300000,146.400000,328.500000,147.700000,328.600000,149.200000C328.600000,150.700000,329.500000,151.900000,330.500000,151.800000C331.500000,151.800000,332.300000,150.500000,332.200000,149C332.200000,147.500000,331.300000,146.300000,330.300000,146.400000Z" fill="rgb(169,130,101)" stroke="none" stroke-width="1"/></g></g><g id="ek2ho07mpxv98"><g id="ek2ho07mpxv99"><path id="ek2ho07mpxv100" d="M365.900000,301.200000C370.300000,303.700000,371.900000,309.300000,369.400000,313.700000C366.900000,318.100000,361.300000,319.700000,356.900000,317.200000L226.600000,244C222.200000,241.500000,220.600000,235.900000,223.100000,231.500000C225.600000,227.100000,231.200000,225.500000,235.600000,228L365.900000,301.200000L365.900000,301.200000Z" fill="rgb(255,228,199)" stroke="none" stroke-width="1"/><path id="ek2ho07mpxv101" d="M368.200000,301.300000C372.600000,303.800000,374.200000,309.400000,371.700000,313.800000C369.200000,318.200000,363.600000,319.800000,359.200000,317.300000L228.900000,244.100000C224.500000,241.600000,222.900000,236,225.400000,231.600000C227.900000,227.200000,233.500000,225.600000,237.900000,228.100000L368.200000,301.300000Z" fill="rgb(234,191,156)" stroke="none" stroke-width="1"/></g><g id="ek2ho07mpxv102"><path id="ek2ho07mpxv103" d="M355,38.900000C356.800000,34.200000,362.100000,31.800000,366.800000,33.600000C371.500000,35.400000,373.900000,40.700000,372.100000,45.400000L249.400000,366.400000C247.600000,371.100000,242.300000,373.500000,237.600000,371.700000C232.900000,369.900000,230.500000,364.600000,232.300000,359.900000L355,38.900000L355,38.900000Z" fill="rgb(255,228,199)" stroke="none" stroke-width="1"/><path id="ek2ho07mpxv104" d="M357.300000,39C359.100000,34.300000,364.400000,31.900000,369.100000,33.700000C373.800000,35.500000,376.200000,40.800000,374.400000,45.500000L251.700000,366.500000C249.900000,371.200000,244.600000,373.600000,239.900000,371.800000C235.200000,370,232.800000,364.700000,234.600000,360L357.300000,39L357.300000,39Z" fill="rgb(252,206,157)" stroke="none" stroke-width="1"/></g><g id="ek2ho07mpxv105"><path id="ek2ho07mpxv106" d="M370.100000,307.900000C370.900000,311.400000,368.700000,314.900000,365.100000,315.700000C361.600000,316.500000,358.100000,314.300000,357.300000,310.700000L321.100000,149.100000C320.300000,145.600000,322.500000,142.100000,326.100000,141.300000C329.600000,140.500000,333.100000,142.700000,333.900000,146.300000L370.100000,307.900000L370.100000,307.900000Z" fill="rgb(255,228,199)" stroke="none" stroke-width="1"/><path id="ek2ho07mpxv107" d="M372.400000,308C373.200000,311.500000,371,315,367.400000,315.800000C363.900000,316.600000,360.400000,314.400000,359.600000,310.800000L323.400000,149.200000C322.600000,145.700000,324.800000,142.200000,328.400000,141.400000C331.900000,140.600000,335.400000,142.800000,336.200000,146.400000L372.400000,308L372.400000,308Z" fill="rgb(234,191,156)" stroke="none" stroke-width="1"/></g><g id="ek2ho07mpxv108"><path id="ek2ho07mpxv109" d="M281.500000,259.800000C280.400000,259.800000,279.600000,261.200000,279.600000,262.800000C279.700000,264.400000,280.600000,265.700000,281.700000,265.700000C282.800000,265.700000,283.600000,264.300000,283.600000,262.700000C283.600000,261,282.600000,259.700000,281.500000,259.800000Z" clip-rule="evenodd" fill="rgb(102,102,102)" fill-rule="evenodd" stroke="none" stroke-width="1"/><path id="ek2ho07mpxv110" d="M281.900000,260C280.900000,260,280.100000,261.300000,280.200000,262.800000C280.300000,264.300000,281.100000,265.500000,282.100000,265.400000C283.100000,265.400000,283.900000,264.100000,283.800000,262.600000C283.700000,261.200000,282.900000,260,281.900000,260Z" clip-rule="evenodd" fill="rgb(128,128,128)" fill-rule="evenodd" stroke="none" stroke-width="1"/><path id="ek2ho07mpxv111" d="M366.200000,303.400000C365.100000,303.400000,364.300000,304.800000,364.300000,306.400000C364.400000,308,365.300000,309.300000,366.400000,309.300000C367.500000,309.300000,368.300000,307.900000,368.300000,306.300000C368.200000,304.700000,367.300000,303.400000,366.200000,303.400000Z" clip-rule="evenodd" fill="rgb(102,102,102)" fill-rule="evenodd" stroke="none" stroke-width="1"/><path id="ek2ho07mpxv112" d="M366.500000,303.700000C365.500000,303.700000,364.700000,305,364.800000,306.500000C364.900000,308,365.700000,309.200000,366.700000,309.100000C367.700000,309.100000,368.500000,307.800000,368.400000,306.300000C368.400000,304.800000,367.500000,303.700000,366.500000,303.700000L366.500000,303.700000Z" clip-rule="evenodd" fill="rgb(128,128,128)" fill-rule="evenodd" stroke="none" stroke-width="1"/><path id="ek2ho07mpxv113" d="M330,146.100000C328.900000,146.100000,328.100000,147.500000,328.100000,149.100000C328.200000,150.700000,329.100000,152,330.200000,152C331.300000,152,332.100000,150.600000,332.100000,149C332,147.300000,331.100000,146,330,146.100000Z" clip-rule="evenodd" fill="rgb(102,102,102)" fill-rule="evenodd" stroke="none" stroke-width="1"/><path id="ek2ho07mpxv114" d="M330.300000,146.400000C329.300000,146.400000,328.500000,147.700000,328.600000,149.200000C328.600000,150.700000,329.500000,151.900000,330.500000,151.800000C331.500000,151.800000,332.300000,150.500000,332.200000,149C332.200000,147.500000,331.300000,146.300000,330.300000,146.400000Z" clip-rule="evenodd" fill="rgb(128,128,128)" fill-rule="evenodd" stroke="none" stroke-width="1"/></g></g></g></g></svg>