<svg id="ecpRyF92Xvi1" xmlns="http://www.w3.org/2000/svg" xmlns:xlink="http://www.w3.org/1999/xlink" viewBox="0 0 400 400" shape-rendering="geometricPrecision" text-rendering="geometricPrecision"><g id="ecpRyF92Xvi2"><path id="ecpRyF92Xvi3" d="M346.300000,107L53.700000,107C40.800000,107,30.200000,117.600000,30.200000,130.500000L30.200000,292.500000C30.200000,305.400000,40.800000,316,53.700000,316L346.200000,316C359.100000,316,369.700000,305.400000,369.700000,292.500000L369.700000,130.500000C369.800000,117.600000,359.200000,107,346.300000,107L346.300000,107Z" clip-rule="evenodd" fill="rgb(178,104,79)" fill-rule="evenodd" stroke="none" stroke-width="1"/><path id="ecpRyF92Xvi4" d="M346.300000,107L53.700000,107C40.800000,107,30.200000,117.600000,30.200000,130.500000L30.200000,292.500000C30.200000,294.200000,30.400000,295.900000,30.700000,297.500000C217,317.100000,322.100000,253.600000,346.300000,107L346.300000,107Z" clip-rule="evenodd" fill="rgb(181,113,90)" fill-rule="evenodd" stroke="none" stroke-width="1"/></g><g id="ecpRyF92Xvi5"><path id="ecpRyF92Xvi6" d="M328.800000,101.800000L351.500000,101.800000C364.400000,101.800000,375,112.400000,375,125.300000L375,148C349.500000,148,328.800000,127.300000,328.800000,101.800000L328.800000,101.800000Z" clip-rule="evenodd" fill="rgb(128,128,128)" fill-rule="evenodd" stroke="none" stroke-width="1"/><path id="ecpRyF92Xvi7" d="M375,127.900000L375,148C350.300000,148,330.200000,128.700000,328.800000,104.400000L351.500000,104.400000C364.400000,104.400000,375,115,375,127.900000L375,127.900000Z" clip-rule="evenodd" fill="rgb(102,102,102)" fill-rule="evenodd" stroke="none" stroke-width="1"/><path id="ecpRyF92Xvi8" d="M71.200000,101.800000L48.500000,101.800000C35.600000,101.800000,25,112.400000,25,125.300000L25,148C50.500000,148,71.200000,127.300000,71.200000,101.800000Z" clip-rule="evenodd" fill="rgb(128,128,128)" fill-rule="evenodd" stroke="none" stroke-width="1"/><path id="ecpRyF92Xvi9" d="M25,127.900000L25,148C49.700000,148,69.800000,128.700000,71.200000,104.400000L48.500000,104.400000C35.600000,104.400000,25,115,25,127.900000L25,127.900000Z" clip-rule="evenodd" fill="rgb(102,102,102)" fill-rule="evenodd" stroke="none" stroke-width="1"/><path id="ecpRyF92Xvi10" d="M328.800000,321.200000L351.500000,321.200000C364.400000,321.200000,375,310.600000,375,297.700000L375,275C349.500000,275,328.800000,295.700000,328.800000,321.200000L328.800000,321.200000Z" clip-rule="evenodd" fill="rgb(77,77,77)" fill-rule="evenodd" stroke="none" stroke-width="1"/><path id="ecpRyF92Xvi11" d="M375,295.100000L375,275C350.300000,275,330.200000,294.300000,328.800000,318.600000L351.500000,318.600000C364.400000,318.600000,375,308,375,295.100000L375,295.100000Z" clip-rule="evenodd" fill="rgb(102,102,102)" fill-rule="evenodd" stroke="none" stroke-width="1"/><path id="ecpRyF92Xvi12" d="M71.200000,321.200000L48.500000,321.200000C35.600000,321.200000,25,310.600000,25,297.700000L25,275C50.500000,275,71.200000,295.700000,71.200000,321.200000L71.200000,321.200000Z" clip-rule="evenodd" fill="rgb(77,77,77)" fill-rule="evenodd" stroke="none" stroke-width="1"/><path id="ecpRyF92Xvi13" d="M25,295.100000L25,275C49.700000,275,69.800000,294.300000,71.200000,318.600000L48.500000,318.600000C35.600000,318.600000,25,308,25,295.100000L25,295.100000Z" clip-rule="evenodd" fill="rgb(102,102,102)" fill-rule="evenodd" stroke="none" stroke-width="1"/></g><g id="ecpRyF92Xvi14"><g id="ecpRyF92Xvi15"><polygon id="ecpRyF92Xvi16" points="274.100000,270.900000 274.100000,321.200000 290.800000,321.200000 290.800000,270.900000 282.400000,281.400000" clip-rule="evenodd" fill="rgb(151,83,62)" fill-rule="evenodd" stroke="none" stroke-width="1"/><polygon id="ecpRyF92Xvi17" points="274.100000,267.100000 274.100000,270.900000 282.400000,281.400000 290.800000,270.900000 290.800000,267.100000 282.400000,277.500000" clip-rule="evenodd" fill="rgb(125,66,48)" fill-rule="evenodd" stroke="none" stroke-width="1"/><path id="ecpRyF92Xvi18" d="M290.800000,101.800000L274.100000,101.800000L274.100000,267L282.500000,277.400000L290.900000,267L290.900000,101.800000L290.800000,101.800000ZM282.400000,234.500000C280.900000,234.500000,279.600000,235.700000,279.600000,237.300000C279.600000,238.800000,280.800000,240.100000,282.400000,240.100000C283.900000,240.100000,285.200000,238.900000,285.200000,237.300000C285.200000,235.700000,284,234.500000,282.400000,234.500000ZM282.400000,215.600000C280.900000,215.600000,279.600000,216.800000,279.600000,218.400000C279.600000,220,280.800000,221.200000,282.400000,221.200000C283.900000,221.200000,285.200000,220,285.200000,218.400000C285.200000,216.800000,284,215.600000,282.400000,215.600000ZM282.400000,196.800000C280.900000,196.800000,279.600000,198,279.600000,199.600000C279.600000,201.100000,280.800000,202.400000,282.400000,202.400000C283.900000,202.400000,285.200000,201.200000,285.200000,199.600000C285.200000,198,284,196.800000,282.400000,196.800000ZM282.400000,177.900000C280.900000,177.900000,279.600000,179.100000,279.600000,180.700000C279.600000,182.200000,280.800000,183.500000,282.400000,183.500000C283.900000,183.500000,285.200000,182.300000,285.200000,180.700000C285.200000,179.100000,284,177.900000,282.400000,177.900000ZM282.400000,253.400000C280.900000,253.400000,279.600000,254.600000,279.600000,256.200000C279.600000,257.700000,280.800000,259,282.400000,259C283.900000,259,285.200000,257.800000,285.200000,256.200000C285.200000,254.600000,284,253.400000,282.400000,253.400000Z" clip-rule="evenodd" fill="rgb(151,83,62)" fill-rule="evenodd" stroke="none" stroke-width="1"/><rect id="ecpRyF92Xvi19" width="18.900000" height="8.400000" rx="0" ry="0" transform="matrix(1 0 0 1 273 223)" clip-rule="evenodd" fill="rgb(179,179,179)" fill-rule="evenodd" stroke="none" stroke-width="1"/><path id="ecpRyF92Xvi20" d="M282.400000,159.400000C273.600000,166.500000,272,164.700000,272,176.100000L272,189.900000L276.100000,189.900000L276.100000,172.300000L288.900000,172.300000L288.900000,189.900000L293,189.900000L293,176.100000C292.900000,164.700000,291.300000,166.500000,282.400000,159.400000Z" clip-rule="evenodd" fill="rgb(179,179,179)" fill-rule="evenodd" stroke="none" stroke-width="1"/><rect id="ecpRyF92Xvi21" width="2.600000" height="12.300000" rx="0" ry="0" transform="matrix(1 0 0 1 281.10000000000002 168.30000000000001)" clip-rule="evenodd" fill="rgb(179,179,179)" fill-rule="evenodd" stroke="none" stroke-width="1"/></g><g id="ecpRyF92Xvi22"><polygon id="ecpRyF92Xvi23" points="109.200000,270.900000 109.200000,321.200000 125.900000,321.200000 125.900000,270.900000 117.600000,281.400000" clip-rule="evenodd" fill="rgb(151,83,62)" fill-rule="evenodd" stroke="none" stroke-width="1"/><polygon id="ecpRyF92Xvi24" points="109.200000,267.100000 109.200000,270.900000 117.600000,281.400000 125.900000,270.900000 125.900000,267.100000 117.600000,277.500000" clip-rule="evenodd" fill="rgb(125,66,48)" fill-rule="evenodd" stroke="none" stroke-width="1"/><path id="ecpRyF92Xvi25" d="M125.900000,101.800000L109.200000,101.800000L109.200000,267L117.600000,277.400000L126,267L126,101.800000L125.900000,101.800000ZM117.600000,234.500000C116.100000,234.500000,114.800000,235.700000,114.800000,237.300000C114.800000,238.800000,116,240.100000,117.600000,240.100000C119.100000,240.100000,120.400000,238.900000,120.400000,237.300000C120.400000,235.700000,119.100000,234.500000,117.600000,234.500000ZM117.600000,215.600000C116.100000,215.600000,114.800000,216.800000,114.800000,218.400000C114.800000,220,116,221.200000,117.600000,221.200000C119.100000,221.200000,120.400000,220,120.400000,218.400000C120.400000,216.800000,119.100000,215.600000,117.600000,215.600000ZM117.600000,196.800000C116.100000,196.800000,114.800000,198,114.800000,199.600000C114.800000,201.100000,116,202.400000,117.600000,202.400000C119.100000,202.400000,120.400000,201.200000,120.400000,199.600000C120.300000,198,119.100000,196.800000,117.600000,196.800000ZM117.600000,177.900000C116.100000,177.900000,114.800000,179.100000,114.800000,180.700000C114.800000,182.200000,116,183.500000,117.600000,183.500000C119.100000,183.500000,120.400000,182.300000,120.400000,180.700000C120.300000,179.100000,119.100000,177.900000,117.600000,177.900000ZM117.600000,253.400000C116.100000,253.400000,114.800000,254.600000,114.800000,256.200000C114.800000,257.700000,116,259,117.600000,259C119.100000,259,120.400000,257.800000,120.400000,256.200000C120.300000,254.600000,119.100000,253.400000,117.600000,253.400000Z" clip-rule="evenodd" fill="rgb(151,83,62)" fill-rule="evenodd" stroke="none" stroke-width="1"/><rect id="ecpRyF92Xvi26" width="18.900000" height="8.400000" rx="0" ry="0" transform="matrix(1 0 0 1 108.09999999999999 223)" clip-rule="evenodd" fill="rgb(179,179,179)" fill-rule="evenodd" stroke="none" stroke-width="1"/><path id="ecpRyF92Xvi27" d="M117.600000,159.400000C108.800000,166.500000,107.200000,164.700000,107.200000,176.100000L107.200000,189.900000L111.300000,189.900000L111.300000,172.300000L124.100000,172.300000L124.100000,189.900000L128.200000,189.900000L128.200000,176.100000C128,164.700000,126.400000,166.500000,117.600000,159.400000Z" clip-rule="evenodd" fill="rgb(179,179,179)" fill-rule="evenodd" stroke="none" stroke-width="1"/><rect id="ecpRyF92Xvi28" width="2.600000" height="12.300000" rx="0" ry="0" transform="matrix(1 0 0 1 116.30000000000000 168.30000000000001)" clip-rule="evenodd" fill="rgb(179,179,179)" fill-rule="evenodd" stroke="none" stroke-width="1"/></g></g><g id="ecpRyF92Xvi29"><path id="ecpRyF92Xvi30" d="M256.200000,107L250.200000,107C245.300000,107,241.100000,105.100000,237.800000,101.500000C220.100000,81.800000,178.600000,83.900000,162.200000,101.700000C158.900000,105.300000,154.800000,107.100000,149.900000,107.100000L143.800000,107.100000C143.800000,105,144.700000,104.700000,147,104.600000C151.400000,104.400000,155.300000,101.100000,158.400000,97.800000C180.600000,73.700000,219.500000,73.700000,241.600000,97.800000C244.700000,101.100000,248.500000,104.400000,253,104.600000C255.300000,104.600000,256.200000,105,256.200000,107Z" fill="rgb(211,135,103)" stroke="none" stroke-width="1"/><g id="ecpRyF92Xvi31"><polygon id="ecpRyF92Xvi32" points="155,107 138.900000,107 139.600000,104 152.400000,100.900000" clip-rule="evenodd" fill="rgb(153,153,153)" fill-rule="evenodd" stroke="none" stroke-width="1"/><polygon id="ecpRyF92Xvi33" points="245,107 261.100000,107 260.400000,104 247.600000,100.900000" clip-rule="evenodd" fill="rgb(153,153,153)" fill-rule="evenodd" stroke="none" stroke-width="1"/></g><path id="ecpRyF92Xvi34" d="M231.900000,97.300000C223,90.800000,211.300000,88.300000,200.500000,88.300000C189.500000,88.300000,177.200000,91.200000,168.100000,97.600000C167.100000,98.300000,166,98.400000,164.800000,98C163.700000,97.600000,162.900000,96.700000,162.700000,95.500000L162.600000,94.900000C162.300000,93.600000,162.800000,92.300000,163.800000,91.500000C184.700000,74.600000,215.300000,74.500000,236.200000,91.500000C237.200000,92.300000,237.700000,93.600000,237.400000,94.900000L237.300000,95.200000C237,96.400000,236.300000,97.300000,235.100000,97.700000C234.100000,98.200000,232.900000,98,231.900000,97.300000L231.900000,97.300000Z" fill="rgb(151,83,62)" stroke="none" stroke-width="1"/></g></svg>