<svg id="ekAMGnWBd9p1" xmlns="http://www.w3.org/2000/svg" xmlns:xlink="http://www.w3.org/1999/xlink" viewBox="0 0 400 400" shape-rendering="geometricPrecision" text-rendering="geometricPrecision"><defs><linearGradient id="ekAMGnWBd9p6-fill" x1="202.458463" y1="220.984978" x2="194.433287" y2="147.840224" spreadMethod="pad" gradientUnits="userSpaceOnUse"><stop id="ekAMGnWBd9p6-fill-0" offset="0%" stop-color="rgb(102,153,153)"/><stop id="ekAMGnWBd9p6-fill-1" offset="100%" stop-color="rgb(124,214,187)"/></linearGradient><linearGradient id="ekAMGnWBd9p7-fill" x1="24.992768" y1="227.271836" x2="271.513058" y2="227.271836" spreadMethod="pad" gradientUnits="userSpaceOnUse"><stop id="ekAMGnWBd9p7-fill-0" offset="0%" stop-color="rgb(102,102,102)"/><stop id="ekAMGnWBd9p7-fill-1" offset="100%" stop-color="rgb(230,230,230)"/></linearGradient></defs><path id="ekAMGnWBd9p2" d="M149.600000,200.900000L150.100000,198.200000C150.100000,198,150,197.900000,149.900000,197.800000L149.300000,197.700000C149.200000,197.700000,149.100000,197.700000,149.100000,197.700000C149,197.700000,149,197.800000,149,197.900000L148.500000,200.900000L146,201L148.100000,189.800000C148.200000,189.200000,148.800000,188.800000,149.400000,188.900000C150,189,150.400000,189.600000,150.300000,190.200000L149.200000,196.300000C149.200000,196.500000,149.300000,196.600000,149.400000,196.700000L150,196.800000C150.100000,196.800000,150.200000,196.800000,150.200000,196.800000C150.300000,196.800000,150.300000,196.700000,150.300000,196.600000L150.900000,193.600000C150.900000,193.500000,151,193.400000,151,193.400000C151.100000,193.400000,151.100000,193.300000,151.200000,193.400000L159.800000,195.200000L162.100000,200.700000L149.600000,200.900000L149.600000,200.900000Z" clip-rule="evenodd" fill="rgb(102,102,102)" fill-rule="evenodd" stroke="none" stroke-width="1"/><path id="ekAMGnWBd9p3" d="M194.600000,199.800000C202.100000,194,213.200000,190.300000,219.200000,190L373.400000,184.400000C374,184.400000,374.500000,184.700000,374.800000,185.200000C375.100000,185.700000,375,186.300000,374.700000,186.800000L368.700000,195.300000L364.600000,195.400000L369,189.200000C369.300000,188.700000,369.400000,188.100000,369.100000,187.600000C368.800000,187.100000,368.300000,186.800000,367.700000,186.800000L354.500000,187.300000C354,187.300000,353.600000,187.500000,353.300000,187.900000L347.600000,195.800000L344.900000,195.900000L349.200000,189.900000C349.500000,189.400000,349.600000,188.800000,349.300000,188.300000C349,187.800000,348.500000,187.500000,347.900000,187.500000L334.800000,188C334.300000,188,333.900000,188.200000,333.600000,188.600000L328.100000,196.300000L325.400000,196.400000L329.500000,190.600000C329.800000,190.100000,329.900000,189.500000,329.600000,189C329.300000,188.500000,328.800000,188.200000,328.200000,188.200000L315.100000,188.700000C314.600000,188.700000,314.200000,188.900000,313.900000,189.300000L308.500000,196.800000L305.800000,196.900000L309.800000,191.400000C310.100000,190.900000,310.200000,190.300000,309.900000,189.800000C309.600000,189.300000,309.100000,189,308.500000,189L295.400000,189.500000C294.900000,189.500000,294.500000,189.700000,294.200000,190.100000L289,197.400000L286.300000,197.500000L290.100000,192.200000C290.400000,191.700000,290.500000,191.100000,290.200000,190.600000C289.900000,190.100000,289.400000,189.800000,288.800000,189.800000L275.700000,190.300000C275.200000,190.300000,274.800000,190.500000,274.500000,190.900000L269.400000,198L266.700000,198.100000L270.400000,193C270.700000,192.500000,270.800000,191.900000,270.500000,191.400000C270.200000,190.900000,269.700000,190.600000,269.100000,190.600000L256,191.100000C255.500000,191.100000,255.100000,191.300000,254.800000,191.700000L249.900000,198.600000L247.200000,198.700000L250.700000,193.800000C251,193.300000,251.100000,192.700000,250.800000,192.200000C250.500000,191.700000,250,191.400000,249.400000,191.400000L236.300000,191.900000C235.800000,191.900000,235.400000,192.100000,235.100000,192.500000L230.400000,199.100000L227.700000,199.200000L231,194.500000C231.300000,194,231.400000,193.400000,231.100000,192.900000C230.800000,192.400000,230.300000,192.100000,229.700000,192.100000L219.800000,192.500000C214.100000,192.700000,205.500000,196.100000,199.200000,200L194.600000,199.800000L194.600000,199.800000Z" clip-rule="evenodd" fill="rgb(204,204,204)" fill-rule="evenodd" stroke="none" stroke-width="1"/><g id="ekAMGnWBd9p4"><path id="ekAMGnWBd9p5" d="M371.800000,195.300000L28.700000,204C28.200000,204,27.700000,204.300000,27.400000,204.700000C27.100000,205.100000,27.100000,205.700000,27.300000,206.100000L45,246.500000C45.200000,247.100000,45.800000,247.400000,46.400000,247.400000L238.700000,247.400000C296.400000,247.400000,351.500000,226.600000,373,197.600000C373.400000,197.100000,373.400000,196.500000,373.100000,196C372.900000,195.600000,372.400000,195.300000,371.800000,195.300000Z" clip-rule="evenodd" fill="rgb(230,230,230)" fill-rule="evenodd" stroke="none" stroke-width="1"/><path id="ekAMGnWBd9p6" d="M371.800000,195.300000L191,199.900000L156.400000,154.800000C156,154.300000,155.500000,153.900000,154.800000,153.800000L146.700000,152.500000C145.800000,152.300000,144.900000,152.700000,144.300000,153.400000C143.700000,154.200000,143.600000,155.100000,143.900000,156L162.300000,200.600000L28.700000,204C28.200000,204,27.700000,204.300000,27.400000,204.700000C27.100000,205.100000,27.100000,205.700000,27.300000,206.100000L31.200000,215C31.500000,215.600000,32,215.900000,32.600000,215.900000L358.700000,211.700000C359.100000,211.700000,359.400000,211.600000,359.700000,211.400000C365,207.100000,369.500000,202.500000,373.100000,197.700000C373.500000,197.200000,373.500000,196.600000,373.200000,196.100000C372.900000,195.600000,372.400000,195.300000,371.800000,195.300000L371.800000,195.300000Z" clip-rule="evenodd" fill="url(#ekAMGnWBd9p6-fill)" fill-rule="evenodd" stroke="none" stroke-width="1"/><path id="ekAMGnWBd9p7" d="M44.700000,245.900000L37.400000,244.200000C37.300000,244.200000,37.200000,244.100000,37.200000,244L25,216.100000C25,216,25,215.900000,25,215.800000L28.400000,208.600000L35.900000,225.800000L35.700000,225.400000L271.400000,221.600000C267.600000,229.700000,113.600000,230.100000,39,233L38.900000,232.800000L44.700000,245.900000L44.700000,245.900000Z" clip-rule="evenodd" fill="url(#ekAMGnWBd9p7-fill)" fill-rule="evenodd" stroke="none" stroke-width="1"/></g></svg>