<svg id="eMmJxHcUupT1" xmlns="http://www.w3.org/2000/svg" xmlns:xlink="http://www.w3.org/1999/xlink" viewBox="0 0 400 400" shape-rendering="geometricPrecision" text-rendering="geometricPrecision"><defs><linearGradient id="eMmJxHcUupT3-fill" x1="270.809901" y1="106.078682" x2="262.844036" y2="197.596094" spreadMethod="pad" gradientUnits="userSpaceOnUse"><stop id="eMmJxHcUupT3-fill-0" offset="0%" stop-color="rgb(51,102,102)"/><stop id="eMmJxHcUupT3-fill-1" offset="100%" stop-color="rgb(102,153,153)"/></linearGradient><linearGradient id="eMmJxHcUupT4-fill" x1="162.959889" y1="246.717539" x2="165.956349" y2="103.770127" spreadMethod="pad" gradientUnits="userSpaceOnUse"><stop id="eMmJxHcUupT4-fill-0" offset="0%" stop-color="rgb(255,181,181)"/><stop id="eMmJxHcUupT4-fill-1" offset="100%" stop-color="rgb(207,75,75)"/></linearGradient><linearGradient id="eMmJxHcUupT6-fill" x1="351.872821" y1="291.532461" x2="355.782400" y2="302.547778" spreadMethod="pad" gradientUnits="userSpaceOnUse"><stop id="eMmJxHcUupT6-fill-0" offset="0%" stop-color="rgb(171,155,130)"/><stop id="eMmJxHcUupT6-fill-1" offset="100%" stop-color="rgb(243,216,174)"/></linearGradient><linearGradient id="eMmJxHcUupT7-fill" x1="331.188067" y1="274.515881" x2="335.097646" y2="285.530217" spreadMethod="pad" gradientUnits="userSpaceOnUse"><stop id="eMmJxHcUupT7-fill-0" offset="0%" stop-color="rgb(171,155,130)"/><stop id="eMmJxHcUupT7-fill-1" offset="100%" stop-color="rgb(243,216,174)"/></linearGradient><linearGradient id="eMmJxHcUupT8-fill" x1="310.502823" y1="257.498811" x2="314.413874" y2="268.514128" spreadMethod="pad" gradientUnits="userSpaceOnUse"><stop id="eMmJxHcUupT8-fill-0" offset="0%" stop-color="rgb(171,155,130)"/><stop id="eMmJxHcUupT8-fill-1" offset="100%" stop-color="rgb(243,216,174)"/></linearGradient><linearGradient id="eMmJxHcUupT9-fill" x1="329.863285" y1="305.704194" x2="327.049350" y2="234.524147" spreadMethod="pad" gradientUnits="userSpaceOnUse"><stop id="eMmJxHcUupT9-fill-0" offset="0%" stop-color="rgb(222,201,171)"/><stop id="eMmJxHcUupT9-fill-1" offset="27.060000%" stop-color="rgb(215,200,173)"/><stop id="eMmJxHcUupT9-fill-2" offset="69.020000%" stop-color="rgb(144,195,195)"/><stop id="eMmJxHcUupT9-fill-3" offset="100%" stop-color="rgb(73,153,153)"/></linearGradient><linearGradient id="eMmJxHcUupT11-fill" x1="167.009796" y1="289.581106" x2="153.605947" y2="230.527722" spreadMethod="pad" gradientUnits="userSpaceOnUse"><stop id="eMmJxHcUupT11-fill-0" offset="0%" stop-color="rgb(153,204,204)"/><stop id="eMmJxHcUupT11-fill-1" offset="100%" stop-color="rgb(51,102,102)"/></linearGradient><linearGradient id="eMmJxHcUupT12-fill" x1="171.462536" y1="238.235500" x2="172.467408" y2="255.205957" spreadMethod="pad" gradientUnits="userSpaceOnUse"><stop id="eMmJxHcUupT12-fill-0" offset="0%" stop-color="rgb(171,155,130)"/><stop id="eMmJxHcUupT12-fill-1" offset="100%" stop-color="rgb(243,216,174)"/></linearGradient><linearGradient id="eMmJxHcUupT13-fill" x1="159.155802" y1="199.880117" x2="158.992903" y2="193.111953" spreadMethod="pad" gradientUnits="userSpaceOnUse"><stop id="eMmJxHcUupT13-fill-0" offset="0%" stop-color="rgb(153,204,204)"/><stop id="eMmJxHcUupT13-fill-1" offset="100%" stop-color="rgb(51,102,102)"/></linearGradient><linearGradient id="eMmJxHcUupT14-fill" x1="159.074352" y1="197.865957" x2="159.074352" y2="305.724311" spreadMethod="pad" gradientUnits="userSpaceOnUse"><stop id="eMmJxHcUupT14-fill-0" offset="0%" stop-color="rgb(102,153,153)"/><stop id="eMmJxHcUupT14-fill-1" offset="100%" stop-color="rgb(222,201,171)"/></linearGradient><linearGradient id="eMmJxHcUupT15-fill" x1="164.385256" y1="148.617923" x2="162.443715" y2="93.812182" spreadMethod="pad" gradientUnits="userSpaceOnUse"><stop id="eMmJxHcUupT15-fill-0" offset="0%" stop-color="rgb(191,80,65)"/><stop id="eMmJxHcUupT15-fill-1" offset="100%" stop-color="rgb(219,197,155)"/></linearGradient></defs><g id="eMmJxHcUupT2"><polygon id="eMmJxHcUupT3" points="278.700000,197.900000 278.700000,149.600000 248.100000,118.900000 252.200000,114.800000 278.700000,141.400000 278.700000,105.700000 284.600000,105.700000 284.600000,197.900000" fill="url(#eMmJxHcUupT3-fill)" stroke="none" stroke-width="1"/><path id="eMmJxHcUupT4" d="M39.200000,142.900000L39.200000,246.800000L185.700000,246.800000L185.700000,129.500000L291.800000,113.200000L291.800000,103.900000L39.200000,142.900000L39.200000,142.900000ZM174.400000,131.100000L50.600000,151L50.600000,185.400000L174.400000,185.400000L174.400000,131.100000Z" clip-rule="evenodd" fill="url(#eMmJxHcUupT4-fill)" fill-rule="evenodd" stroke="none" stroke-width="1"/><g id="eMmJxHcUupT5"><polygon id="eMmJxHcUupT6" points="370.500000,295.100000 337.300000,295.100000 337.300000,299 370.500000,299" clip-rule="evenodd" fill="url(#eMmJxHcUupT6-fill)" fill-rule="evenodd" stroke="none" stroke-width="1"/><polygon id="eMmJxHcUupT7" points="349.800000,278.100000 316.600000,278.100000 316.600000,282 349.800000,282" clip-rule="evenodd" fill="url(#eMmJxHcUupT7-fill)" fill-rule="evenodd" stroke="none" stroke-width="1"/><polygon id="eMmJxHcUupT8" points="329.100000,261.100000 296,261.100000 296,265 329.100000,265" clip-rule="evenodd" fill="url(#eMmJxHcUupT8-fill)" fill-rule="evenodd" stroke="none" stroke-width="1"/><polygon id="eMmJxHcUupT9" points="284.700000,234.500000 282.600000,249.400000 356.500000,305.700000 375,305.700000" clip-rule="evenodd" fill="url(#eMmJxHcUupT9-fill)" fill-rule="evenodd" stroke="none" stroke-width="1"/></g><g id="eMmJxHcUupT10"><path id="eMmJxHcUupT11" d="M284.700000,248L33.700000,248L33.700000,251.600000L59,251.600000L62.200000,253.600000L35.700000,270.200000L37.200000,272.700000L64.900000,255.400000L69.300000,255.400000L97,272.700000L97.800000,271.500000L98.600000,272.700000L126.300000,255.400000L130.700000,255.400000L158.400000,272.700000L159.200000,271.500000L160,272.700000L187.700000,255.400000L192.100000,255.400000L219.800000,272.700000L221,270.700000L222.200000,272.700000L249.900000,255.400000L254.300000,255.400000L282,272.700000L283.500000,270.200000L257,253.700000L260.200000,251.700000L284.700000,251.700000L284.700000,248ZM75.200000,251.700000L120.300000,251.700000L123.500000,253.700000L97.800000,269.800000L72,253.700000L75.200000,251.700000L75.200000,251.700000ZM136.600000,251.700000L181.700000,251.700000L184.900000,253.700000L159.200000,269.800000L133.500000,253.700000L136.600000,251.700000L136.600000,251.700000ZM197.900000,251.700000L243.900000,251.700000L247.100000,253.700000L220.900000,270L194.700000,253.600000L197.900000,251.700000L197.900000,251.700000Z" clip-rule="evenodd" fill="url(#eMmJxHcUupT11-fill)" fill-rule="evenodd" stroke="none" stroke-width="1"/><polygon id="eMmJxHcUupT12" points="308.400000,244.100000 35.700000,244.100000 35.700000,249.400000 308.400000,249.400000" clip-rule="evenodd" fill="url(#eMmJxHcUupT12-fill)" fill-rule="evenodd" stroke="none" stroke-width="1"/><polygon id="eMmJxHcUupT13" points="288.700000,195.200000 29.600000,195.200000 29.600000,197.900000 288.700000,197.900000" clip-rule="evenodd" fill="url(#eMmJxHcUupT13-fill)" fill-rule="evenodd" stroke="none" stroke-width="1"/><path id="eMmJxHcUupT14" d="M39.200000,197.900000L33.600000,197.900000L33.600000,197.900000L33.600000,305.800000L39.200000,305.800000L39.200000,241.200000L95,241.200000L95,305.800000L100.600000,305.800000L100.600000,241.200000L156.400000,241.200000L156.400000,305.800000L162,305.800000L162,241.200000L217.800000,241.200000L217.800000,305.800000L223.400000,305.800000L223.400000,241.200000L279,241.200000L279,305.800000L284.600000,305.800000L284.600000,197.900000L284.200000,197.900000L279,197.900000L223.200000,197.900000L217.600000,197.900000L161.800000,197.900000L156.200000,197.900000L100.400000,197.900000L95,197.900000L39.200000,197.900000L39.200000,197.900000ZM39.200000,232.900000L39.200000,206.400000L62.200000,219.700000L39.200000,232.900000L39.200000,232.900000ZM279,206.400000L256,219.700000L279,233L279,206.400000ZM44,235.800000L90.200000,235.800000L67.100000,222.500000L44,235.800000L44,235.800000ZM90.500000,203.300000L67.100000,216.800000L43.700000,203.300000L90.500000,203.300000L90.500000,203.300000ZM72,219.600000L95,206.300000L95,232.800000L72,219.600000ZM100.600000,206.400000L123.600000,219.700000L100.600000,233L100.600000,206.400000ZM105.400000,235.800000L151.600000,235.800000L128.500000,222.500000L105.400000,235.800000ZM151.900000,203.300000L128.500000,216.800000L105.100000,203.300000L151.900000,203.300000L151.900000,203.300000ZM133.400000,219.600000L156.400000,206.300000L156.400000,232.800000L133.400000,219.600000L133.400000,219.600000ZM161.900000,206.400000L184.900000,219.700000L161.900000,233L161.900000,206.400000ZM166.700000,235.800000L212.900000,235.800000L189.800000,222.500000L166.700000,235.800000L166.700000,235.800000ZM213.200000,203.300000L189.800000,216.800000L166.400000,203.300000L213.200000,203.300000L213.200000,203.300000ZM194.700000,219.600000L217.700000,206.300000L217.700000,232.800000L194.700000,219.600000ZM223.300000,206.400000L246.300000,219.700000L223.300000,233L223.300000,206.400000ZM274.300000,235.800000L251.200000,222.500000L228.100000,235.800000L274.300000,235.800000ZM274.600000,203.300000L227.800000,203.300000L251.200000,216.800000L274.600000,203.300000L274.600000,203.300000Z" clip-rule="evenodd" fill="url(#eMmJxHcUupT14-fill)" fill-rule="evenodd" stroke="none" stroke-width="1"/></g><polygon id="eMmJxHcUupT15" points="25,137.100000 302,94.200000 301.900000,105.400000 25,148.200000" fill="url(#eMmJxHcUupT15-fill)" stroke="none" stroke-width="1"/></g></svg>