<svg id="e5altMxqvmD1" xmlns="http://www.w3.org/2000/svg" xmlns:xlink="http://www.w3.org/1999/xlink" viewBox="0 0 400 400" shape-rendering="geometricPrecision" text-rendering="geometricPrecision"><defs><linearGradient id="e5altMxqvmD2-fill" x1="199.996806" y1="153.838163" x2="199.996806" y2="360.332842" spreadMethod="pad" gradientUnits="userSpaceOnUse"><stop id="e5altMxqvmD2-fill-0" offset="0%" stop-color="rgb(91,130,140)"/><stop id="e5altMxqvmD2-fill-1" offset="100%" stop-color="rgb(44,72,87)"/></linearGradient><linearGradient id="e5altMxqvmD7-fill" x1="199.996806" y1="359.763106" x2="199.996806" y2="153.836225" spreadMethod="pad" gradientUnits="userSpaceOnUse"><stop id="e5altMxqvmD7-fill-0" offset="0%" stop-color="rgb(101,168,167)"/><stop id="e5altMxqvmD7-fill-1" offset="100%" stop-color="rgb(132,167,186)"/></linearGradient><linearGradient id="e5altMxqvmD11-fill" x1="199.996806" y1="318.774037" x2="199.996806" y2="375.000656" spreadMethod="pad" gradientUnits="userSpaceOnUse"><stop id="e5altMxqvmD11-fill-0" offset="0%" stop-color="rgb(67,108,130)"/><stop id="e5altMxqvmD11-fill-1" offset="100%" stop-color="rgb(46,74,89)"/></linearGradient></defs><path id="e5altMxqvmD2" d="M193.700000,160.100000C193.700000,156.600000,196.500000,153.800000,199.900000,153.800000C203.400000,153.800000,206.200000,156.600000,206.200000,160.100000L206.200000,354C206.200000,357.500000,203.400000,360.300000,199.900000,360.300000C196.500000,360.300000,193.700000,357.500000,193.700000,354L193.700000,160.100000L193.700000,160.100000Z" fill="url(#e5altMxqvmD2-fill)" stroke="none" stroke-width="1"/><circle id="e5altMxqvmD3" r="17.300000" transform="matrix(1 0 0 1 200 160.80000000000001)" clip-rule="evenodd" fill="rgb(46,83,92)" fill-rule="evenodd" stroke="none" stroke-width="1"/><g id="e5altMxqvmD4"><path id="e5altMxqvmD5" d="M200,64.400000C202,64.400000,203.900000,64.500000,205.800000,64.600000L200,51.400000L194.300000,64.600000C196.100000,64.500000,198,64.400000,200,64.400000ZM184.100000,68.900000L199,153.600000L191.500000,68C189.100000,68.200000,186.600000,68.500000,184.100000,68.900000ZM200,157.200000L207.900000,67.900000C205.300000,67.700000,202.700000,67.500000,200,67.500000C197.400000,67.500000,194.800000,67.700000,192.200000,67.900000L200,157.200000ZM208.500000,68L201,153.700000L215.900000,69C213.400000,68.500000,210.900000,68.200000,208.500000,68L208.500000,68ZM200.900000,157.300000L231.600000,73.100000C226.700000,71.300000,221.700000,70,216.500000,69L200.900000,157.300000L200.900000,157.300000ZM232.200000,73.300000L202.800000,154.200000L239.200000,76.200000C236.900000,75.100000,234.500000,74.200000,232.200000,73.300000ZM201.800000,157.600000L253.200000,84.200000C248.900000,81.200000,244.400000,78.600000,239.700000,76.300000L201.800000,157.600000L201.800000,157.600000ZM253.700000,84.600000L204.400000,155L259.600000,89.200000C257.800000,87.600000,255.700000,86.100000,253.700000,84.600000ZM202.500000,158.200000L271.200000,100.600000C269.500000,98.600000,267.800000,96.700000,265.900000,94.800000C264.100000,93,262.200000,91.200000,260.200000,89.500000L202.500000,158.200000L202.500000,158.200000ZM271.600000,101.100000L205.700000,156.400000L276.200000,107C274.700000,105,273.200000,103,271.600000,101.100000ZM203.100000,158.900000L284.300000,121C282.100000,116.300000,279.500000,111.700000,276.500000,107.500000L203.100000,158.900000L203.100000,158.900000ZM284.600000,121.600000L206.600000,158L287.400000,128.600000C286.600000,126.200000,285.600000,123.900000,284.600000,121.600000ZM203.500000,159.800000L291.800000,144.200000C290.900000,139,289.500000,134,287.700000,129.100000L203.500000,159.800000ZM291.800000,144.900000L207.100000,159.800000L292.800000,152.300000C292.600000,149.800000,292.200000,147.300000,291.800000,144.900000L291.800000,144.900000ZM203.600000,160.800000L292.900000,168.600000C293.100000,166.100000,293.200000,163.500000,293.200000,160.800000C293.200000,158.100000,293.100000,155.500000,292.900000,153L203.600000,160.800000ZM292.800000,169.200000L207.100000,161.700000L291.800000,176.600000C292.200000,174.200000,292.600000,171.700000,292.800000,169.200000L292.800000,169.200000ZM203.500000,161.700000L287.700000,192.300000C289.500000,187.500000,290.800000,182.400000,291.800000,177.200000L203.500000,161.700000L203.500000,161.700000ZM287.500000,192.900000L206.700000,163.500000L284.700000,199.900000C285.600000,197.600000,286.600000,195.300000,287.500000,192.900000L287.500000,192.900000ZM203.100000,162.500000L276.500000,213.900000C279.500000,209.600000,282.100000,205.100000,284.300000,200.400000L203.100000,162.500000L203.100000,162.500000ZM276.200000,214.500000L205.700000,165.100000L271.600000,220.400000C273.200000,218.500000,274.700000,216.500000,276.200000,214.500000L276.200000,214.500000ZM202.500000,163.300000L260.100000,231.900000C262.100000,230.200000,264,228.500000,265.800000,226.600000C267.700000,224.700000,269.400000,222.800000,271.100000,220.800000L202.500000,163.300000L202.500000,163.300000ZM259.600000,232.300000L204.300000,166.400000L253.700000,236.900000C255.700000,235.400000,257.800000,233.900000,259.600000,232.300000ZM201.800000,163.900000L239.700000,245.100000C244.400000,242.900000,249,240.300000,253.200000,237.300000L201.800000,163.900000L201.800000,163.900000ZM239.100000,245.400000L202.700000,167.400000L232.100000,248.200000C234.500000,247.400000,236.900000,246.400000,239.100000,245.400000ZM200.900000,164.200000L216.500000,252.400000C221.600000,251.500000,226.700000,250.200000,231.600000,248.400000L200.900000,164.200000L200.900000,164.200000ZM215.900000,252.600000L201,167.900000L208.500000,253.600000C210.900000,253.300000,213.400000,253,215.900000,252.600000L215.900000,252.600000ZM200,164.300000L192.200000,253.600000C194.800000,253.800000,197.400000,253.900000,200,253.900000C202.700000,253.900000,205.300000,253.800000,207.900000,253.600000L200,164.300000L200,164.300000ZM191.500000,253.500000L199,167.800000L184.100000,252.500000C186.600000,253,189.100000,253.300000,191.500000,253.500000ZM199.100000,164.200000L168.400000,248.400000C173.300000,250.200000,178.300000,251.500000,183.500000,252.400000L199.100000,164.200000L199.100000,164.200000ZM167.800000,248.200000L197.200000,167.300000L160.800000,245.300000C163.100000,246.400000,165.500000,247.400000,167.800000,248.200000ZM198.200000,163.900000L146.800000,237.300000C151.100000,240.300000,155.600000,242.900000,160.300000,245.100000L198.200000,163.900000L198.200000,163.900000ZM146.300000,236.900000L195.600000,166.500000L140.400000,232.300000C142.200000,233.900000,144.300000,235.400000,146.300000,236.900000ZM197.500000,163.300000L128.800000,220.900000C130.500000,222.900000,132.200000,224.800000,134.100000,226.700000C135.900000,228.500000,137.800000,230.300000,139.800000,232L197.500000,163.300000L197.500000,163.300000ZM128.400000,220.400000L194.300000,165.100000L123.800000,214.500000C125.300000,216.500000,126.800000,218.500000,128.400000,220.400000ZM196.900000,162.600000L115.700000,200.500000C117.900000,205.200000,120.500000,209.800000,123.500000,214L196.900000,162.600000L196.900000,162.600000ZM115.400000,199.900000L193.400000,163.500000L112.500000,193C113.400000,195.300000,114.400000,197.600000,115.400000,199.900000ZM196.500000,161.700000L108.200000,177.300000C109.100000,182.500000,110.500000,187.500000,112.300000,192.400000L196.500000,161.700000ZM108.200000,176.600000L192.900000,161.700000L107.200000,169.200000C107.400000,171.700000,107.800000,174.200000,108.200000,176.600000L108.200000,176.600000ZM196.400000,160.800000L107.100000,153C106.900000,155.500000,106.800000,158.100000,106.800000,160.800000C106.800000,163.500000,106.900000,166.100000,107.100000,168.600000L196.400000,160.800000ZM107.200000,152.300000L192.900000,159.800000L108.200000,144.900000C107.800000,147.300000,107.400000,149.800000,107.200000,152.300000L107.200000,152.300000ZM196.500000,159.800000L112.200000,129.200000C110.500000,134,109.100000,139.100000,108.200000,144.300000L196.500000,159.800000L196.500000,159.800000ZM112.500000,128.600000L193.300000,158L115.300000,121.600000C114.400000,123.900000,113.400000,126.200000,112.500000,128.600000ZM196.900000,158.900000L123.500000,107.500000C120.500000,111.800000,117.900000,116.300000,115.700000,121L196.900000,158.900000ZM123.800000,107L194.300000,156.400000L128.400000,101.100000C126.800000,103,125.300000,105,123.800000,107ZM197.500000,158.200000L139.900000,89.500000C137.900000,91.200000,136,93,134.200000,94.800000C132.300000,96.700000,130.600000,98.500000,128.900000,100.600000L197.500000,158.200000L197.500000,158.200000ZM140.300000,89.200000L195.600000,155L146.300000,84.600000C144.300000,86.100000,142.200000,87.600000,140.300000,89.200000ZM198.200000,157.600000L160.300000,76.400000C155.600000,78.600000,151,81.300000,146.800000,84.300000L198.200000,157.600000ZM160.900000,76.100000L197.300000,154.100000L167.900000,73.300000C165.500000,74.200000,163.100000,75.100000,160.900000,76.100000ZM199.100000,157.300000L183.500000,69C178.400000,69.900000,173.300000,71.300000,168.400000,73.100000L199.100000,157.300000L199.100000,157.300000ZM210,64.900000C211.700000,65.100000,213.400000,65.300000,215.100000,65.600000L230.700000,46L234.400000,70.800000C236,71.400000,237.600000,72.100000,239.200000,72.800000L259.300000,57.900000L256.500000,82.800000C257.900000,83.800000,259.300000,84.900000,260.600000,85.900000L283.900000,76.700000L274.700000,100.100000C275.800000,101.400000,276.800000,102.800000,277.800000,104.200000L302.700000,101.400000L288,121.500000C288.700000,123.100000,289.400000,124.700000,290,126.300000L314.800000,130L295.200000,145.600000C295.500000,147.300000,295.700000,149,295.800000,150.700000L318.800000,160.700000L295.800000,170.700000C295.600000,172.400000,295.400000,174.100000,295.200000,175.800000L314.800000,191.400000L290,195.100000C289.400000,196.700000,288.800000,198.300000,288,199.800000L302.900000,220L278,217.200000C277,218.600000,276,220,274.900000,221.300000L284.100000,244.700000L260.800000,235.500000C259.400000,236.500000,258.100000,237.600000,256.700000,238.600000L259.500000,263.500000L239.400000,248.700000C237.800000,249.400000,236.200000,250.100000,234.600000,250.700000L230.900000,275.500000L215.300000,255.900000C213.600000,256.200000,211.900000,256.400000,210.200000,256.600000L200.200000,279.500000L190.200000,256.600000C188.500000,256.400000,186.800000,256.200000,185.100000,255.900000L169.400000,275.500000L165.700000,250.700000C164.100000,250.100000,162.500000,249.400000,160.900000,248.700000L140.800000,263.500000L143.600000,238.600000C142.200000,237.600000,140.800000,236.500000,139.500000,235.500000L116.200000,244.700000L125.400000,221.300000C124.300000,220,123.300000,218.600000,122.300000,217.200000L97.400000,220L112,200C111.300000,198.400000,110.600000,196.900000,110,195.300000L85.200000,191.600000L104.800000,176C104.500000,174.300000,104.300000,172.600000,104.200000,170.900000L81.200000,160.900000L104.200000,150.900000C104.400000,149.200000,104.600000,147.500000,104.800000,145.800000L85.300000,130L110.100000,126.300000C110.700000,124.700000,111.300000,123.100000,112.100000,121.500000L97.200000,101.400000L122.100000,104.200000C123.100000,102.800000,124.100000,101.400000,125.200000,100.100000L116,76.800000L139.300000,86C140.700000,85,142,83.900000,143.400000,82.900000L140.600000,58L160.700000,72.900000C162.300000,72.200000,163.900000,71.500000,165.500000,70.900000L169.200000,46.100000L184.900000,65.700000C186.600000,65.400000,188.300000,65.200000,190,65L200,42L210,64.900000L210,64.900000ZM219.300000,66.400000C223.100000,67.200000,226.800000,68.200000,230.400000,69.400000L228.300000,55.100000C228.300000,55.100000,219.300000,66.400000,219.300000,66.400000ZM243.100000,74.600000C246.500000,76.400000,249.900000,78.300000,253.100000,80.400000L254.700000,66.100000L243.100000,74.600000ZM263.900000,88.700000C265.400000,90,266.800000,91.300000,268.100000,92.700000C269.500000,94.100000,270.800000,95.500000,272.100000,96.900000L277.400000,83.500000C277.300000,83.400000,263.900000,88.700000,263.900000,88.700000ZM280.400000,107.700000C282.500000,110.900000,284.500000,114.200000,286.200000,117.600000L294.800000,106.100000L280.400000,107.700000L280.400000,107.700000ZM291.400000,130.300000C292.600000,133.900000,293.600000,137.600000,294.400000,141.400000L305.700000,132.500000L291.400000,130.300000ZM296.100000,155C296.200000,156.900000,296.300000,158.800000,296.300000,160.800000C296.300000,162.700000,296.200000,164.600000,296.100000,166.600000L309.300000,160.800000L296.100000,155ZM294.400000,180.100000C293.600000,183.900000,292.600000,187.600000,291.400000,191.200000L305.700000,189.100000L294.400000,180.100000L294.400000,180.100000ZM286.200000,203.800000C284.500000,207.300000,282.600000,210.600000,280.400000,213.800000L294.800000,215.400000L286.200000,203.800000L286.200000,203.800000ZM272.100000,224.700000C270.800000,226.100000,269.500000,227.500000,268.100000,228.900000C266.700000,230.300000,265.300000,231.600000,263.900000,232.900000L277.300000,238.200000L272.100000,224.700000ZM253.100000,241.200000C249.900000,243.300000,246.500000,245.200000,243.100000,247L254.700000,255.500000L253.100000,241.200000ZM230.500000,252.100000C226.900000,253.300000,223.200000,254.300000,219.400000,255.100000L228.400000,266.300000L230.500000,252.100000ZM205.700000,256.900000C203.800000,257,201.900000,257.100000,199.900000,257.100000C198,257.100000,196.100000,257,194.200000,256.900000L199.900000,270.100000L205.700000,256.900000ZM180.700000,255.200000C176.900000,254.400000,173.200000,253.400000,169.600000,252.200000L171.700000,266.500000L180.700000,255.200000ZM156.900000,246.900000C153.500000,245.100000,150.100000,243.200000,146.900000,241.100000L145.300000,255.400000L156.900000,246.900000ZM136.100000,232.800000C134.600000,231.500000,133.200000,230.200000,131.900000,228.800000C130.500000,227.400000,129.200000,226,127.900000,224.600000L122.600000,238C122.700000,238.100000,136.100000,232.800000,136.100000,232.800000ZM119.600000,213.800000C117.500000,210.600000,115.500000,207.300000,113.800000,203.800000L105.200000,215.400000C105.300000,215.400000,119.600000,213.800000,119.600000,213.800000ZM108.600000,191.200000C107.400000,187.600000,106.400000,183.900000,105.600000,180.100000L94.300000,189.100000L108.600000,191.200000ZM103.900000,166.500000C103.800000,164.600000,103.700000,162.700000,103.700000,160.700000C103.700000,158.700000,103.800000,156.900000,103.900000,154.900000L90.700000,160.700000L103.900000,166.500000ZM105.600000,141.400000C106.400000,137.600000,107.400000,133.900000,108.600000,130.300000L94.300000,132.500000L105.600000,141.400000ZM113.800000,117.600000C115.500000,114.200000,117.400000,110.800000,119.600000,107.700000L105.200000,106.100000C105.300000,106.100000,113.800000,117.600000,113.800000,117.600000ZM127.900000,96.800000C129.100000,95.400000,130.500000,94,131.900000,92.600000C133.300000,91.200000,134.700000,89.900000,136.100000,88.600000L122.700000,83.300000C122.700000,83.400000,127.900000,96.800000,127.900000,96.800000ZM146.900000,80.300000C150.100000,78.200000,153.500000,76.300000,156.900000,74.500000L145.300000,66L146.900000,80.300000ZM169.500000,69.400000C173.100000,68.200000,176.800000,67.200000,180.600000,66.400000L171.600000,55.200000L169.500000,69.400000Z" fill="rgb(230,230,230)" stroke="none" stroke-width="1"/><path id="e5altMxqvmD6" d="M206.700000,40.500000C212.800000,40.800000,218.800000,41.600000,224.500000,42.800000C223.500000,40.800000,223.100000,38.500000,223.800000,36.100000C225.100000,31.200000,230.100000,28.300000,235.100000,29.600000C240,30.900000,243,35.900000,241.600000,40.900000C241,43.200000,239.500000,45.100000,237.600000,46.300000C243.300000,48.200000,248.900000,50.500000,254.200000,53.200000C253.700000,51,254,48.700000,255.200000,46.600000C257.700000,42.200000,263.400000,40.700000,267.800000,43.200000C272.200000,45.700000,273.700000,51.400000,271.200000,55.800000C270,57.900000,268.100000,59.300000,265.900000,60C270.900000,63.300000,275.700000,67,280.200000,71C280.300000,68.800000,281.200000,66.500000,282.900000,64.800000C286.500000,61.200000,292.400000,61.200000,296,64.800000C299.600000,68.400000,299.600000,74.300000,296,77.900000C294.300000,79.600000,292,80.500000,289.800000,80.600000C293.800000,85.100000,297.500000,89.800000,300.800000,94.900000C301.500000,92.800000,302.900000,90.800000,305,89.600000C309.400000,87.100000,315,88.600000,317.600000,93C320.100000,97.400000,318.600000,103,314.200000,105.600000C312.100000,106.800000,309.700000,107.100000,307.500000,106.600000C310.200000,111.900000,312.500000,117.400000,314.400000,123.100000C315.600000,121.200000,317.500000,119.800000,319.800000,119.100000C324.700000,117.800000,329.800000,120.700000,331.100000,125.600000C332.500000,130.500000,329.500000,135.600000,324.600000,136.900000C322.300000,137.500000,319.900000,137.200000,317.900000,136.100000C319.100000,141.900000,319.900000,147.900000,320.200000,153.900000C321.800000,152.400000,324,151.500000,326.400000,151.500000C331.500000,151.500000,335.600000,155.600000,335.600000,160.700000C335.600000,165.800000,331.500000,169.900000,326.400000,169.900000C324,169.900000,321.800000,169,320.200000,167.500000C319.800000,173.600000,319.100000,179.500000,317.900000,185.300000C319.900000,184.300000,322.200000,183.900000,324.600000,184.500000C329.500000,185.900000,332.500000,190.900000,331.100000,195.800000C329.800000,200.700000,324.800000,203.700000,319.800000,202.400000C317.500000,201.800000,315.600000,200.300000,314.400000,198.400000C312.500000,204.100000,310.200000,209.600000,307.500000,214.900000C309.700000,214.400000,312.100000,214.700000,314.200000,215.900000C318.600000,218.400000,320.100000,224.100000,317.600000,228.500000C315.100000,232.900000,309.400000,234.400000,305,231.900000C302.900000,230.700000,301.500000,228.800000,300.800000,226.600000C297.500000,231.600000,293.800000,236.400000,289.800000,240.900000C292,241,294.300000,241.900000,296,243.600000C299.600000,247.200000,299.600000,253,296,256.600000C292.400000,260.200000,286.600000,260.200000,282.900000,256.600000C281.200000,254.900000,280.300000,252.700000,280.200000,250.500000C275.800000,254.500000,271,258.100000,265.900000,261.400000C268,262.100000,270,263.500000,271.200000,265.600000C273.700000,270,272.200000,275.600000,267.800000,278.200000C263.400000,280.700000,257.800000,279.200000,255.200000,274.800000C254,272.700000,253.700000,270.400000,254.200000,268.200000C248.900000,270.900000,243.300000,273.200000,237.600000,275.100000C239.500000,276.300000,240.900000,278.200000,241.600000,280.500000C243,285.400000,240,290.500000,235.100000,291.800000C230.200000,293.100000,225.100000,290.200000,223.800000,285.300000C223.200000,283,223.500000,280.600000,224.500000,278.600000C218.700000,279.800000,212.700000,280.600000,206.700000,280.900000C208.300000,282.600000,209.200000,284.700000,209.200000,287.200000C209.200000,292.300000,205,296.400000,199.900000,296.400000C194.900000,296.400000,190.700000,292.300000,190.700000,287.200000C190.700000,284.800000,191.600000,282.600000,193.200000,280.900000C187.100000,280.600000,181.100000,279.800000,175.400000,278.600000C176.400000,280.600000,176.800000,283,176.100000,285.300000C174.800000,290.200000,169.800000,293.100000,164.800000,291.800000C159.800000,290.500000,156.900000,285.400000,158.300000,280.500000C158.900000,278.200000,160.400000,276.300000,162.300000,275.100000C156.600000,273.200000,151,270.900000,145.700000,268.200000C146.200000,270.400000,145.900000,272.700000,144.700000,274.800000C142.200000,279.200000,136.500000,280.700000,132.100000,278.200000C127.700000,275.700000,126.200000,270,128.800000,265.600000C130,263.500000,131.900000,262.100000,134.100000,261.400000C129.100000,258.100000,124.300000,254.400000,119.800000,250.500000C119.700000,252.700000,118.900000,255,117.100000,256.600000C113.500000,260.200000,107.600000,260.200000,104,256.600000C100.400000,253,100.400000,247.200000,104,243.600000C105.700000,241.900000,108,241,110.200000,240.900000C106.200000,236.400000,102.500000,231.600000,99.200000,226.600000C98.500000,228.700000,97.100000,230.700000,95,231.900000C90.600000,234.400000,85,232.900000,82.400000,228.500000C79.900000,224.100000,81.400000,218.500000,85.800000,215.900000C87.900000,214.700000,90.300000,214.400000,92.500000,214.900000C89.800000,209.600000,87.500000,204.100000,85.600000,198.400000C84.400000,200.300000,82.500000,201.700000,80.200000,202.400000C75.300000,203.700000,70.200000,200.800000,68.900000,195.800000C67.600000,190.900000,70.500000,185.900000,75.500000,184.500000C77.800000,183.900000,80.200000,184.200000,82.200000,185.300000C81,179.500000,80.200000,173.500000,79.900000,167.500000C78.300000,169,76.100000,169.900000,73.700000,169.900000C68.600000,169.900000,64.500000,165.800000,64.500000,160.700000C64.500000,155.600000,68.600000,151.500000,73.700000,151.500000C76.100000,151.500000,78.300000,152.400000,79.900000,153.900000C80.300000,147.800000,81,141.900000,82.200000,136.100000C80.200000,137.100000,77.900000,137.500000,75.500000,136.900000C70.600000,135.500000,67.600000,130.500000,68.900000,125.600000C70.300000,120.700000,75.300000,117.800000,80.200000,119.100000C82.500000,119.700000,84.400000,121.200000,85.600000,123.100000C87.500000,117.400000,89.800000,111.900000,92.500000,106.600000C90.300000,107.100000,87.900000,106.800000,85.800000,105.600000C81.400000,103.100000,79.900000,97.400000,82.400000,93C84.900000,88.600000,90.600000,87.100000,95,89.600000C97.100000,90.800000,98.500000,92.700000,99.200000,94.900000C102.500000,89.900000,106.200000,85.100000,110.200000,80.600000C108,80.500000,105.700000,79.600000,104,77.900000C100.400000,74.300000,100.400000,68.500000,104,64.800000C107.600000,61.200000,113.400000,61.200000,117.100000,64.800000C118.800000,66.500000,119.700000,68.800000,119.800000,71C124.300000,67,129.100000,63.400000,134.100000,60C131.900000,59.400000,130,57.900000,128.800000,55.800000C126.300000,51.400000,127.800000,45.800000,132.100000,43.200000C136.500000,40.700000,142.200000,42.200000,144.700000,46.600000C145.900000,48.700000,146.200000,51,145.700000,53.200000C151,50.500000,156.600000,48.200000,162.300000,46.300000C160.400000,45.100000,159,43.200000,158.300000,40.900000C156.900000,36,159.900000,30.900000,164.800000,29.600000C169.700000,28.300000,174.800000,31.200000,176.100000,36.100000C176.700000,38.400000,176.400000,40.800000,175.400000,42.800000C181.200000,41.600000,187.200000,40.800000,193.200000,40.500000C191.600000,38.800000,190.700000,36.700000,190.700000,34.200000C190.700000,29.100000,194.900000,25,199.900000,25C205,25,209.200000,29.100000,209.200000,34.200000C209.200000,36.700000,208.300000,38.800000,206.700000,40.500000L206.700000,40.500000ZM280.800000,80C260,59.400000,231.500000,46.600000,200,46.600000C168.500000,46.600000,140,59.400000,119.300000,80C98.700000,100.600000,85.900000,129.200000,85.900000,160.700000C85.900000,192.200000,98.700000,220.800000,119.300000,241.400000C140,262,168.500000,274.800000,200,274.800000C231.600000,274.800000,260.100000,262,280.800000,241.400000C301.400000,220.800000,314.200000,192.200000,314.200000,160.700000C314.200000,129.200000,301.400000,100.700000,280.800000,80L280.800000,80Z" clip-rule="evenodd" fill="rgb(44,72,87)" fill-rule="evenodd" stroke="none" stroke-width="1"/></g><path id="e5altMxqvmD7" d="M257.900000,351.900000C258.800000,355.200000,256.800000,358.700000,253.500000,359.600000C250.100000,360.500000,246.700000,358.500000,245.800000,355.100000L200,184.400000L154.300000,355.100000C153.400000,358.500000,150,360.500000,146.600000,359.600000C143.300000,358.700000,141.300000,355.200000,142.200000,351.900000L194,158.600000C194.500000,156.500000,196.200000,154.700000,198.400000,154.100000C201.800000,153.200000,205.200000,155.200000,206.100000,158.600000L257.900000,351.900000L257.900000,351.900000Z" fill="url(#e5altMxqvmD7-fill)" stroke="none" stroke-width="1"/><g id="e5altMxqvmD8"><circle id="e5altMxqvmD9" r="12.200000" transform="matrix(1 0 0 1 200 160.80000000000001)" clip-rule="evenodd" fill="rgb(78,118,128)" fill-rule="evenodd" stroke="none" stroke-width="1"/><circle id="e5altMxqvmD10" r="10.200000" transform="matrix(1 0 0 1 200 160.80000000000001)" clip-rule="evenodd" fill="rgb(129,170,166)" fill-rule="evenodd" stroke="none" stroke-width="1"/></g><path id="e5altMxqvmD11" d="M340,318.800000L60,318.800000L62.900000,329.400000L82,329.400000L82,354.400000L69.500000,354.400000L75,375L325,375L330.600000,354.300000L318.200000,354.300000L318.200000,329.300000L337.300000,329.300000L340,318.800000L340,318.800000ZM92.500000,354.300000L92.500000,329.300000L122,329.300000L122,354.300000L92.500000,354.300000ZM132.600000,354.300000L132.600000,329.300000L168.400000,329.300000L168.400000,354.300000L132.600000,354.300000ZM179,354.300000L179,329.300000L221,329.300000L221,354.300000L179,354.300000ZM231.600000,354.300000L231.600000,329.300000L267.400000,329.300000L267.400000,354.300000L231.600000,354.300000ZM278,354.300000L278,329.300000L307.500000,329.300000L307.500000,354.300000L278,354.300000Z" clip-rule="evenodd" fill="url(#e5altMxqvmD11-fill)" fill-rule="evenodd" stroke="none" stroke-width="1"/></svg>