<svg id="s1" xmlns="http://www.w3.org/2000/svg" xmlns:xlink="http://www.w3.org/1999/xlink" viewBox="0 0 400 400"><g id="s3"><line id="s5" x1="200" y1="53.390000" x2="200" y2="90.400000" fill="none" stroke="rgb(81,184,204)" stroke-width="10" stroke-linecap="round" stroke-miterlimit="10"/><path id="s7" d="M215.190000,103.420000L215.190000,86.560000C215.331615,81.042015,212.468742,75.881487,207.712233,73.080802C202.955724,70.280117,197.054276,70.280117,192.297767,73.080802C187.541258,75.881487,184.678385,81.042015,184.820000,86.560000L184.820000,103.420000Z" fill="rgb(154,225,240)" stroke="none" stroke-width="1"/><path id="s9" d="M252.230000,356.800000L251.390000,353.920000C243.910000,328.310000,223.260000,311.100000,200,311.100000C176.740000,311.100000,156.090000,328.310000,148.610000,353.920000L147.770000,356.800000L89.940000,356.800000L98.820000,349.680000C123.550000,329.850000,144.700000,296.180000,159.960000,252.300000C175.710000,207.060000,184,154,184,98.870000L184,94.870000L216,94.870000L216,98.870000C216,154,224.300000,207.060000,240,252.300000C255.270000,296.180000,276.410000,329.860000,301.140000,349.680000L310.020000,356.800000ZM200,280.110000C206.153747,280.109099,212.286120,280.834109,218.270000,282.270000C215.620000,275.870000,213.110000,269.270000,210.760000,262.490000C206.760000,250.920000,203.140000,238.790000,200.010000,226.270000C196.880000,238.790000,193.280000,250.920000,189.260000,262.490000C186.910000,269.250000,184.390000,275.870000,181.750000,282.270000C187.727375,280.835670,193.852942,280.110671,200,280.110000Z" fill="rgb(154,225,240)" stroke="none" stroke-width="1"/><rect id="s11" width="137.460000" height="27.360000" rx="3.570000" ry="3.570000" transform="translate(131.270000,268.330000)" fill="rgb(81,184,204)" stroke="none" stroke-width="1"/><rect id="s13" width="92.140000" height="27.360000" rx="3.570000" ry="3.570000" transform="translate(153.930000,192)" fill="rgb(81,184,204)" stroke="none" stroke-width="1"/><rect id="s15" width="65.670000" height="18.980000" rx="3.570000" ry="3.570000" transform="translate(86.330000,344.660000)" fill="rgb(81,184,204)" stroke="none" stroke-width="1"/><rect id="s17" width="65.670000" height="18.980000" rx="3.570000" ry="3.570000" transform="translate(248,344.660000)" fill="rgb(81,184,204)" stroke="none" stroke-width="1"/><rect id="s19" width="49.640000" height="18.980000" rx="3.570000" ry="3.570000" transform="translate(175.180000,94.890000)" fill="rgb(81,184,204)" stroke="none" stroke-width="1"/></g></svg>