<svg id="s1" xmlns="http://www.w3.org/2000/svg" xmlns:xlink="http://www.w3.org/1999/xlink" viewBox="0 0 400 400"><g id="s3"><ellipse id="s5" rx="116" ry="35.110000" transform="translate(200,316.410000)" fill="rgb(103,200,219)" stroke="none" stroke-width="1"/><ellipse id="s7" rx="48.240000" ry="14.600000" transform="translate(200,313.830000)" fill="rgb(81,184,204)" stroke="none" stroke-width="1"/><path id="s9" d="M200,86.630000C153.608081,86.630000,116,124.238081,116,170.630000C116,208.570000,172.190000,284.630000,192.650000,311.120000C194.405168,313.395366,197.116342,314.728083,199.990000,314.728083C202.863658,314.728083,205.574832,313.395366,207.330000,311.120000C227.810000,284.650000,284,208.560000,284,170.620000C283.994478,124.231986,246.388014,86.630000,200,86.630000ZM204.830000,206C189.031857,208.086630,173.660010,199.876444,166.608977,185.585948C159.557945,171.295451,162.394917,154.100904,173.662911,142.832911C184.930904,131.564917,202.125451,128.727945,216.415948,135.778977C230.706444,142.830010,238.916630,158.201857,236.830000,174C234.624148,190.674319,221.504319,203.794148,204.830000,206Z" fill="rgb(217,92,38)" stroke="none" stroke-width="1"/></g></svg>