<svg id="engcTA1Czx61" xmlns="http://www.w3.org/2000/svg" xmlns:xlink="http://www.w3.org/1999/xlink" viewBox="0 0 400 400" shape-rendering="geometricPrecision" text-rendering="geometricPrecision"><g id="engcTA1Czx62"><polygon id="engcTA1Czx63" points="375.200000,305.400000 375.200000,321.500000 25.200000,321.500000 25.200000,305.400000 375.200000,305.400000" clip-rule="evenodd" fill="rgb(141,97,60)" fill-rule="evenodd" stroke="none" stroke-width="1"/><path id="engcTA1Czx64" d="M208.300000,317.900000L202.900000,317.900000L202.900000,311.400000C202.900000,309.900000,204.100000,308.700000,205.600000,308.700000L205.600000,308.700000C207.100000,308.700000,208.300000,309.900000,208.300000,311.400000L208.300000,317.900000L208.300000,317.900000Z" clip-rule="evenodd" fill="rgb(196,153,108)" fill-rule="evenodd" stroke="none" stroke-width="1"/><path id="engcTA1Czx65" d="M219.200000,317.900000L213.800000,317.900000L213.800000,311.400000C213.800000,309.900000,215,308.700000,216.500000,308.700000L216.500000,308.700000C218,308.700000,219.200000,309.900000,219.200000,311.400000L219.200000,317.900000L219.200000,317.900000Z" clip-rule="evenodd" fill="rgb(196,153,108)" fill-rule="evenodd" stroke="none" stroke-width="1"/><path id="engcTA1Czx66" d="M230,317.900000L224.600000,317.900000L224.600000,311.400000C224.600000,309.900000,225.800000,308.700000,227.300000,308.700000L227.300000,308.700000C228.800000,308.700000,230,309.900000,230,311.400000L230,317.900000L230,317.900000Z" clip-rule="evenodd" fill="rgb(196,153,108)" fill-rule="evenodd" stroke="none" stroke-width="1"/><path id="engcTA1Czx67" d="M240.800000,317.900000L235.400000,317.900000L235.400000,311.400000C235.400000,309.900000,236.600000,308.700000,238.100000,308.700000L238.100000,308.700000C239.600000,308.700000,240.800000,309.900000,240.800000,311.400000L240.800000,317.900000L240.800000,317.900000Z" clip-rule="evenodd" fill="rgb(196,153,108)" fill-rule="evenodd" stroke="none" stroke-width="1"/><path id="engcTA1Czx68" d="M251.600000,317.900000L246.200000,317.900000L246.200000,311.400000C246.200000,309.900000,247.400000,308.700000,248.900000,308.700000L248.900000,308.700000C250.400000,308.700000,251.600000,309.900000,251.600000,311.400000L251.600000,317.900000L251.600000,317.900000Z" clip-rule="evenodd" fill="rgb(196,153,108)" fill-rule="evenodd" stroke="none" stroke-width="1"/><path id="engcTA1Czx69" d="M262.500000,317.900000L257,317.900000L257,311.400000C257,309.900000,258.200000,308.700000,259.700000,308.700000L259.700000,308.700000C261.200000,308.700000,262.400000,309.900000,262.400000,311.400000L262.400000,317.900000L262.500000,317.900000Z" clip-rule="evenodd" fill="rgb(196,153,108)" fill-rule="evenodd" stroke="none" stroke-width="1"/><path id="engcTA1Czx610" d="M273.300000,317.900000L267.900000,317.900000L267.900000,311.400000C267.900000,309.900000,269.100000,308.700000,270.600000,308.700000L270.600000,308.700000C272.100000,308.700000,273.300000,309.900000,273.300000,311.400000L273.300000,317.900000L273.300000,317.900000Z" clip-rule="evenodd" fill="rgb(196,153,108)" fill-rule="evenodd" stroke="none" stroke-width="1"/><path id="engcTA1Czx611" d="M284.100000,317.900000L278.700000,317.900000L278.700000,311.400000C278.700000,309.900000,279.900000,308.700000,281.400000,308.700000L281.400000,308.700000C282.900000,308.700000,284.100000,309.900000,284.100000,311.400000L284.100000,317.900000L284.100000,317.900000Z" clip-rule="evenodd" fill="rgb(196,153,108)" fill-rule="evenodd" stroke="none" stroke-width="1"/><path id="engcTA1Czx612" d="M294.900000,317.900000L289.500000,317.900000L289.500000,311.400000C289.500000,309.900000,290.700000,308.700000,292.200000,308.700000L292.200000,308.700000C293.700000,308.700000,294.900000,309.900000,294.900000,311.400000L294.900000,317.900000L294.900000,317.900000Z" clip-rule="evenodd" fill="rgb(196,153,108)" fill-rule="evenodd" stroke="none" stroke-width="1"/><path id="engcTA1Czx613" d="M305.700000,317.900000L300.300000,317.900000L300.300000,311.400000C300.300000,309.900000,301.500000,308.700000,303,308.700000L303,308.700000C304.500000,308.700000,305.700000,309.900000,305.700000,311.400000L305.700000,317.900000L305.700000,317.900000Z" clip-rule="evenodd" fill="rgb(196,153,108)" fill-rule="evenodd" stroke="none" stroke-width="1"/><path id="engcTA1Czx614" d="M316.600000,317.900000L311.200000,317.900000L311.200000,311.400000C311.200000,309.900000,312.400000,308.700000,313.900000,308.700000L313.900000,308.700000C315.400000,308.700000,316.600000,309.900000,316.600000,311.400000L316.600000,317.900000L316.600000,317.900000Z" clip-rule="evenodd" fill="rgb(196,153,108)" fill-rule="evenodd" stroke="none" stroke-width="1"/><path id="engcTA1Czx615" d="M327.400000,317.900000L322,317.900000L322,311.400000C322,309.900000,323.200000,308.700000,324.700000,308.700000L324.700000,308.700000C326.200000,308.700000,327.400000,309.900000,327.400000,311.400000L327.400000,317.900000L327.400000,317.900000Z" clip-rule="evenodd" fill="rgb(196,153,108)" fill-rule="evenodd" stroke="none" stroke-width="1"/><path id="engcTA1Czx616" d="M338.200000,317.900000L332.800000,317.900000L332.800000,311.400000C332.800000,309.900000,334,308.700000,335.500000,308.700000L335.500000,308.700000C337,308.700000,338.200000,309.900000,338.200000,311.400000L338.200000,317.900000L338.200000,317.900000Z" clip-rule="evenodd" fill="rgb(196,153,108)" fill-rule="evenodd" stroke="none" stroke-width="1"/><path id="engcTA1Czx617" d="M349,317.900000L343.600000,317.900000L343.600000,311.400000C343.600000,309.900000,344.800000,308.700000,346.300000,308.700000L346.300000,308.700000C347.800000,308.700000,349,309.900000,349,311.400000L349,317.900000L349,317.900000Z" clip-rule="evenodd" fill="rgb(196,153,108)" fill-rule="evenodd" stroke="none" stroke-width="1"/><path id="engcTA1Czx618" d="M359.900000,317.900000L354.500000,317.900000L354.500000,311.400000C354.500000,309.900000,355.700000,308.700000,357.200000,308.700000L357.200000,308.700000C358.700000,308.700000,359.900000,309.900000,359.900000,311.400000L359.900000,317.900000L359.900000,317.900000Z" clip-rule="evenodd" fill="rgb(196,153,108)" fill-rule="evenodd" stroke="none" stroke-width="1"/><path id="engcTA1Czx619" d="M370.700000,317.900000L365.300000,317.900000L365.300000,311.400000C365.300000,309.900000,366.500000,308.700000,368,308.700000L368,308.700000C369.500000,308.700000,370.700000,309.900000,370.700000,311.400000L370.700000,317.900000L370.700000,317.900000Z" clip-rule="evenodd" fill="rgb(196,153,108)" fill-rule="evenodd" stroke="none" stroke-width="1"/><path id="engcTA1Czx620" d="M192.100000,317.900000L197.500000,317.900000L197.500000,311.400000C197.500000,309.900000,196.300000,308.700000,194.800000,308.700000L194.800000,308.700000C193.300000,308.700000,192.100000,309.900000,192.100000,311.400000L192.100000,317.900000L192.100000,317.900000Z" clip-rule="evenodd" fill="rgb(196,153,108)" fill-rule="evenodd" stroke="none" stroke-width="1"/><path id="engcTA1Czx621" d="M181.300000,317.900000L186.700000,317.900000L186.700000,311.400000C186.700000,309.900000,185.500000,308.700000,184,308.700000L184,308.700000C182.500000,308.700000,181.300000,309.900000,181.300000,311.400000L181.300000,317.900000L181.300000,317.900000Z" clip-rule="evenodd" fill="rgb(196,153,108)" fill-rule="evenodd" stroke="none" stroke-width="1"/><path id="engcTA1Czx622" d="M170.400000,317.900000L175.800000,317.900000L175.800000,311.400000C175.800000,309.900000,174.600000,308.700000,173.100000,308.700000L173.100000,308.700000C171.600000,308.700000,170.400000,309.900000,170.400000,311.400000L170.400000,317.900000L170.400000,317.900000Z" clip-rule="evenodd" fill="rgb(196,153,108)" fill-rule="evenodd" stroke="none" stroke-width="1"/><path id="engcTA1Czx623" d="M159.600000,317.900000L165,317.900000L165,311.400000C165,309.900000,163.800000,308.700000,162.300000,308.700000L162.300000,308.700000C160.800000,308.700000,159.600000,309.900000,159.600000,311.400000L159.600000,317.900000L159.600000,317.900000Z" clip-rule="evenodd" fill="rgb(196,153,108)" fill-rule="evenodd" stroke="none" stroke-width="1"/><path id="engcTA1Czx624" d="M148.800000,317.900000L154.200000,317.900000L154.200000,311.400000C154.200000,309.900000,153,308.700000,151.500000,308.700000L151.500000,308.700000C150,308.700000,148.800000,309.900000,148.800000,311.400000L148.800000,317.900000L148.800000,317.900000Z" clip-rule="evenodd" fill="rgb(196,153,108)" fill-rule="evenodd" stroke="none" stroke-width="1"/><path id="engcTA1Czx625" d="M138,317.900000L143.400000,317.900000L143.400000,311.400000C143.400000,309.900000,142.200000,308.700000,140.700000,308.700000L140.700000,308.700000C139.200000,308.700000,138,309.900000,138,311.400000L138,317.900000L138,317.900000Z" clip-rule="evenodd" fill="rgb(196,153,108)" fill-rule="evenodd" stroke="none" stroke-width="1"/><path id="engcTA1Czx626" d="M127.100000,317.900000L132.500000,317.900000L132.500000,311.400000C132.500000,309.900000,131.300000,308.700000,129.800000,308.700000L129.800000,308.700000C128.300000,308.700000,127.100000,309.900000,127.100000,311.400000L127.100000,317.900000L127.100000,317.900000Z" clip-rule="evenodd" fill="rgb(196,153,108)" fill-rule="evenodd" stroke="none" stroke-width="1"/><path id="engcTA1Czx627" d="M116.300000,317.900000L121.700000,317.900000L121.700000,311.400000C121.700000,309.900000,120.500000,308.700000,119,308.700000L119,308.700000C117.500000,308.700000,116.300000,309.900000,116.300000,311.400000L116.300000,317.900000L116.300000,317.900000Z" clip-rule="evenodd" fill="rgb(196,153,108)" fill-rule="evenodd" stroke="none" stroke-width="1"/><path id="engcTA1Czx628" d="M105.500000,317.900000L110.900000,317.900000L110.900000,311.400000C110.900000,309.900000,109.700000,308.700000,108.200000,308.700000L108.200000,308.700000C106.700000,308.700000,105.500000,309.900000,105.500000,311.400000L105.500000,317.900000L105.500000,317.900000Z" clip-rule="evenodd" fill="rgb(196,153,108)" fill-rule="evenodd" stroke="none" stroke-width="1"/><path id="engcTA1Czx629" d="M94.700000,317.900000L100.100000,317.900000L100.100000,311.400000C100.100000,309.900000,98.900000,308.700000,97.400000,308.700000L97.400000,308.700000C95.900000,308.700000,94.700000,309.900000,94.700000,311.400000L94.700000,317.900000L94.700000,317.900000Z" clip-rule="evenodd" fill="rgb(196,153,108)" fill-rule="evenodd" stroke="none" stroke-width="1"/><path id="engcTA1Czx630" d="M83.900000,317.900000L89.300000,317.900000L89.300000,311.400000C89.300000,309.900000,88.100000,308.700000,86.600000,308.700000L86.600000,308.700000C85.100000,308.700000,83.900000,309.900000,83.900000,311.400000L83.900000,317.900000L83.900000,317.900000Z" clip-rule="evenodd" fill="rgb(196,153,108)" fill-rule="evenodd" stroke="none" stroke-width="1"/><path id="engcTA1Czx631" d="M73,317.900000L78.400000,317.900000L78.400000,311.400000C78.400000,309.900000,77.200000,308.700000,75.700000,308.700000L75.700000,308.700000C74.200000,308.700000,73,309.900000,73,311.400000L73,317.900000L73,317.900000Z" clip-rule="evenodd" fill="rgb(196,153,108)" fill-rule="evenodd" stroke="none" stroke-width="1"/><path id="engcTA1Czx632" d="M62.200000,317.900000L67.600000,317.900000L67.600000,311.400000C67.600000,309.900000,66.400000,308.700000,64.900000,308.700000L64.900000,308.700000C63.400000,308.700000,62.200000,309.900000,62.200000,311.400000L62.200000,317.900000L62.200000,317.900000Z" clip-rule="evenodd" fill="rgb(196,153,108)" fill-rule="evenodd" stroke="none" stroke-width="1"/><path id="engcTA1Czx633" d="M51.400000,317.900000L56.800000,317.900000L56.800000,311.400000C56.800000,309.900000,55.600000,308.700000,54.100000,308.700000L54.100000,308.700000C52.600000,308.700000,51.400000,309.900000,51.400000,311.400000L51.400000,317.900000L51.400000,317.900000Z" clip-rule="evenodd" fill="rgb(196,153,108)" fill-rule="evenodd" stroke="none" stroke-width="1"/><path id="engcTA1Czx634" d="M40.600000,317.900000L46,317.900000L46,311.400000C46,309.900000,44.800000,308.700000,43.300000,308.700000L43.300000,308.700000C41.800000,308.700000,40.600000,309.900000,40.600000,311.400000L40.600000,317.900000L40.600000,317.900000Z" clip-rule="evenodd" fill="rgb(196,153,108)" fill-rule="evenodd" stroke="none" stroke-width="1"/><path id="engcTA1Czx635" d="M29.700000,317.900000L35.100000,317.900000L35.100000,311.400000C35.100000,309.900000,33.900000,308.700000,32.400000,308.700000L32.400000,308.700000C30.900000,308.700000,29.700000,309.900000,29.700000,311.400000L29.700000,317.900000L29.700000,317.900000Z" clip-rule="evenodd" fill="rgb(196,153,108)" fill-rule="evenodd" stroke="none" stroke-width="1"/></g><g id="engcTA1Czx636"><polygon id="engcTA1Czx637" points="348.600000,305.400000 319.500000,305.400000 323.500000,182.800000 344.600000,182.800000 348.600000,305.400000" clip-rule="evenodd" fill="rgb(225,192,151)" fill-rule="evenodd" stroke="none" stroke-width="1"/><polygon id="engcTA1Czx638" points="349.700000,289.400000 318.500000,289.400000 318.500000,288.200000 349.700000,288.200000 349.700000,289.400000" clip-rule="evenodd" fill="rgb(141,97,60)" fill-rule="evenodd" stroke="none" stroke-width="1"/><polygon id="engcTA1Czx639" points="346.800000,182.800000 321.300000,182.800000 321.300000,181.700000 346.800000,181.700000 346.800000,182.800000" clip-rule="evenodd" fill="rgb(141,97,60)" fill-rule="evenodd" stroke="none" stroke-width="1"/><path id="engcTA1Czx640" d="M325.600000,181.700000L325.600000,153.400000L342.600000,153.400000L342.600000,181.700000L325.600000,181.700000L325.600000,181.700000ZM339.400000,179.200000L328.700000,179.200000L328.700000,162.900000C328.700000,159.900000,331.100000,157.500000,334.100000,157.500000L334.100000,157.500000C337.100000,157.500000,339.500000,159.900000,339.500000,162.900000L339.500000,179.200000L339.400000,179.200000Z" clip-rule="evenodd" fill="rgb(140,109,78)" fill-rule="evenodd" stroke="none" stroke-width="1"/><polygon id="engcTA1Czx641" points="343.400000,153.400000 324.700000,153.400000 324.700000,151.300000 343.400000,151.300000 343.400000,153.400000" clip-rule="evenodd" fill="rgb(141,97,60)" fill-rule="evenodd" stroke="none" stroke-width="1"/><path id="engcTA1Czx642" d="M335.600000,135C334.500000,135,333.500000,135,332.400000,135C328.600000,139.500000,321.100000,144.800000,326.100000,151.300000C331.300000,151.300000,336.600000,151.300000,341.800000,151.300000C346.900000,144.700000,339.400000,139.400000,335.600000,135L335.600000,135Z" clip-rule="evenodd" fill="rgb(225,192,151)" fill-rule="evenodd" stroke="none" stroke-width="1"/><g id="engcTA1Czx643"><path id="engcTA1Czx644" d="M336.200000,135L331.900000,135C331.600000,135,331.300000,134.700000,331.300000,134.400000L331.300000,134.400000C331.300000,134.100000,331.600000,133.800000,331.900000,133.800000L336.200000,133.800000C336.500000,133.800000,336.800000,134.100000,336.800000,134.400000L336.800000,134.400000C336.800000,134.700000,336.600000,135,336.200000,135L336.200000,135Z" clip-rule="evenodd" fill="rgb(194,151,98)" fill-rule="evenodd" stroke="none" stroke-width="1"/><path id="engcTA1Czx645" d="M334.300000,133.700000L333.900000,133.700000L333.900000,127.400000C333.900000,127.300000,334,127.200000,334.100000,127.200000L334.100000,127.200000C334.200000,127.200000,334.300000,127.300000,334.300000,127.400000L334.300000,133.700000L334.300000,133.700000Z" clip-rule="evenodd" fill="rgb(194,151,98)" fill-rule="evenodd" stroke="none" stroke-width="1"/><path id="engcTA1Czx646" d="M334.100000,128.400000C333.700000,128.400000,333.300000,128.800000,333.300000,129.200000C333.300000,129.600000,333.700000,130,334.100000,130C334.500000,130,334.900000,129.600000,334.900000,129.200000C334.900000,128.800000,334.500000,128.400000,334.100000,128.400000L334.100000,128.400000Z" clip-rule="evenodd" fill="rgb(194,151,98)" fill-rule="evenodd" stroke="none" stroke-width="1"/></g></g><g id="engcTA1Czx647"><g id="engcTA1Czx648"><polygon id="engcTA1Czx649" points="247.900000,238.500000 303.700000,238.500000 303.700000,305.400000 247.900000,305.400000 247.900000,238.500000" clip-rule="evenodd" fill="rgb(219,180,125)" fill-rule="evenodd" stroke="none" stroke-width="1"/><path id="engcTA1Czx650" d="M286.200000,245.500000C281.800000,248.200000,279,253,278.900000,258.100000C278.900000,262.100000,278.900000,266.100000,278.900000,270.300000C283.800000,270.300000,286.200000,270.300000,286.200000,270.300000C286.200000,270.300000,288.600000,270.300000,293.500000,270.300000C293.500000,266.100000,293.500000,262,293.500000,258.100000C293.400000,253,290.600000,248.200000,286.200000,245.500000L286.200000,245.500000Z" clip-rule="evenodd" fill="rgb(140,109,78)" fill-rule="evenodd" stroke="none" stroke-width="1"/><path id="engcTA1Czx651" d="M288.600000,270.400000L283.800000,270.400000L283.800000,258.300000C283.800000,257,284.900000,255.900000,286.200000,255.900000L286.200000,255.900000C287.500000,255.900000,288.600000,257,288.600000,258.300000L288.600000,270.400000L288.600000,270.400000Z" clip-rule="evenodd" fill="rgb(141,97,60)" fill-rule="evenodd" stroke="none" stroke-width="1"/><path id="engcTA1Czx652" d="M265.400000,245.500000C261,248.200000,258.200000,253,258.100000,258.100000C258.100000,262.100000,258.100000,266.100000,258.100000,270.300000C263,270.300000,265.400000,270.300000,265.400000,270.300000C265.400000,270.300000,267.800000,270.300000,272.700000,270.300000C272.700000,266.100000,272.700000,262,272.700000,258.100000C272.600000,253,269.800000,248.200000,265.400000,245.500000L265.400000,245.500000Z" clip-rule="evenodd" fill="rgb(140,109,78)" fill-rule="evenodd" stroke="none" stroke-width="1"/><path id="engcTA1Czx653" d="M267.800000,270.400000L263,270.400000L263,258.300000C263,257,264.100000,255.900000,265.400000,255.900000L265.400000,255.900000C266.700000,255.900000,267.800000,257,267.800000,258.300000L267.800000,270.400000L267.800000,270.400000Z" clip-rule="evenodd" fill="rgb(141,97,60)" fill-rule="evenodd" stroke="none" stroke-width="1"/><path id="engcTA1Czx654" d="M286.200000,280.500000C281.800000,283.200000,279,288,278.900000,293.200000C278.900000,297.200000,278.900000,301.200000,278.900000,305.400000C283.800000,305.400000,286.200000,305.400000,286.200000,305.400000C286.200000,305.400000,288.600000,305.400000,293.500000,305.400000C293.500000,301.200000,293.500000,297.100000,293.500000,293.200000C293.400000,288,290.600000,283.200000,286.200000,280.500000L286.200000,280.500000Z" clip-rule="evenodd" fill="rgb(140,109,78)" fill-rule="evenodd" stroke="none" stroke-width="1"/><path id="engcTA1Czx655" d="M288.600000,305.400000L283.800000,305.400000L283.800000,293.300000C283.800000,292,284.900000,290.900000,286.200000,290.900000L286.200000,290.900000C287.500000,290.900000,288.600000,292,288.600000,293.300000L288.600000,305.400000L288.600000,305.400000Z" clip-rule="evenodd" fill="rgb(141,97,60)" fill-rule="evenodd" stroke="none" stroke-width="1"/><path id="engcTA1Czx656" d="M265.400000,280.500000C261,283.200000,258.200000,288,258.100000,293.200000C258.100000,297.200000,258.100000,301.200000,258.100000,305.400000C263,305.400000,265.400000,305.400000,265.400000,305.400000C265.400000,305.400000,267.800000,305.400000,272.700000,305.400000C272.700000,301.200000,272.700000,297.100000,272.700000,293.200000C272.600000,288,269.800000,283.200000,265.400000,280.500000L265.400000,280.500000Z" clip-rule="evenodd" fill="rgb(140,109,78)" fill-rule="evenodd" stroke="none" stroke-width="1"/><path id="engcTA1Czx657" d="M267.800000,305.400000L263,305.400000L263,293.300000C263,292,264.100000,290.900000,265.400000,290.900000L265.400000,290.900000C266.700000,290.900000,267.800000,292,267.800000,293.300000L267.800000,305.400000L267.800000,305.400000Z" clip-rule="evenodd" fill="rgb(141,97,60)" fill-rule="evenodd" stroke="none" stroke-width="1"/><polygon id="engcTA1Czx658" points="247.900000,273 303.700000,273 303.700000,275.400000 247.900000,275.400000 247.900000,273" clip-rule="evenodd" fill="rgb(196,153,108)" fill-rule="evenodd" stroke="none" stroke-width="1"/></g><g id="engcTA1Czx659"><path id="engcTA1Czx660" d="M296.600000,238.500000L294,238.500000L294,225.200000C294,222.800000,292,220.800000,289.600000,220.800000L289.600000,220.800000C287.200000,220.800000,285.200000,222.800000,285.200000,225.200000L285.200000,238.500000L281.900000,238.500000L281.900000,225.200000C281.900000,222.800000,279.900000,220.800000,277.500000,220.800000L277.500000,220.800000C275.100000,220.800000,273.100000,222.800000,273.100000,225.200000L273.100000,238.500000L269.800000,238.500000L269.800000,225.200000C269.800000,222.800000,267.800000,220.800000,265.400000,220.800000L265.400000,220.800000C263,220.800000,261,222.800000,261,225.200000L261,238.500000L258.300000,238.500000L258.300000,217.500000L296.400000,217.500000L296.400000,238.500000L296.600000,238.500000Z" clip-rule="evenodd" fill="rgb(140,109,78)" fill-rule="evenodd" stroke="none" stroke-width="1"/><polygon id="engcTA1Czx661" points="298.900000,217.500000 256.200000,217.500000 256.200000,214.300000 298.900000,214.300000 298.900000,217.500000" clip-rule="evenodd" fill="rgb(141,97,60)" fill-rule="evenodd" stroke="none" stroke-width="1"/><path id="engcTA1Czx662" d="M281.200000,177C278.800000,177,276.400000,177,273.900000,177C265.300000,187.200000,248.200000,199.300000,259.600000,214.300000C271.500000,214.300000,283.500000,214.300000,295.400000,214.300000C306.900000,199.300000,289.800000,187.200000,281.200000,177L281.200000,177Z" clip-rule="evenodd" fill="rgb(237,198,157)" fill-rule="evenodd" stroke="none" stroke-width="1"/><g id="engcTA1Czx663"><path id="engcTA1Czx664" d="M282.500000,177L272.600000,177C271.800000,177,271.200000,176.400000,271.200000,175.600000L271.200000,175.600000C271.200000,174.800000,271.800000,174.200000,272.600000,174.200000L282.500000,174.200000C283.300000,174.200000,283.900000,174.800000,283.900000,175.600000L283.900000,175.600000C283.900000,176.400000,283.300000,177,282.500000,177L282.500000,177Z" clip-rule="evenodd" fill="rgb(194,151,98)" fill-rule="evenodd" stroke="none" stroke-width="1"/><path id="engcTA1Czx665" d="M278,174.200000L277.100000,174.200000L277.100000,159.800000C277.100000,159.600000,277.300000,159.400000,277.500000,159.400000L277.500000,159.400000C277.700000,159.400000,277.900000,159.600000,277.900000,159.800000L277.900000,174.200000L278,174.200000Z" clip-rule="evenodd" fill="rgb(194,151,98)" fill-rule="evenodd" stroke="none" stroke-width="1"/><path id="engcTA1Czx666" d="M277.600000,162C276.600000,162,275.700000,162.800000,275.700000,163.900000C275.700000,164.900000,276.500000,165.700000,277.600000,165.700000C278.700000,165.700000,279.400000,164.900000,279.400000,163.900000C279.400000,162.800000,278.600000,162,277.600000,162L277.600000,162Z" clip-rule="evenodd" fill="rgb(194,151,98)" fill-rule="evenodd" stroke="none" stroke-width="1"/></g></g><g id="engcTA1Czx667"><polygon id="engcTA1Czx668" points="303.700000,305.400000 309.300000,305.400000 309.300000,233.800000 303.700000,233.800000 303.700000,305.400000" clip-rule="evenodd" fill="rgb(195,160,120)" fill-rule="evenodd" stroke="none" stroke-width="1"/><polygon id="engcTA1Czx669" points="310.400000,233.800000 302.500000,233.800000 302.500000,232.900000 310.400000,232.900000 310.400000,233.800000" clip-rule="evenodd" fill="rgb(140,109,78)" fill-rule="evenodd" stroke="none" stroke-width="1"/><path id="engcTA1Czx670" d="M306.500000,226C304.900000,227.900000,301,230.100000,303.200000,232.900000C305.400000,232.900000,307.600000,232.900000,309.900000,232.900000C311.900000,230.100000,308.100000,227.800000,306.500000,226L306.500000,226Z" clip-rule="evenodd" fill="rgb(237,198,157)" fill-rule="evenodd" stroke="none" stroke-width="1"/><polygon id="engcTA1Czx671" points="310.200000,278.100000 303.700000,278.100000 303.700000,277.200000 310.200000,277.200000 310.200000,278.100000" clip-rule="evenodd" fill="rgb(140,109,78)" fill-rule="evenodd" stroke="none" stroke-width="1"/><polygon id="engcTA1Czx672" points="310.200000,293.200000 303.700000,293.200000 303.700000,292.300000 310.200000,292.300000 310.200000,293.200000" clip-rule="evenodd" fill="rgb(140,109,78)" fill-rule="evenodd" stroke="none" stroke-width="1"/><polygon id="engcTA1Czx673" points="310.200000,263 303.700000,263 303.700000,262.200000 310.200000,262.200000 310.200000,263" clip-rule="evenodd" fill="rgb(140,109,78)" fill-rule="evenodd" stroke="none" stroke-width="1"/><polygon id="engcTA1Czx674" points="310.200000,248 303.700000,248 303.700000,247.100000 310.200000,247.100000 310.200000,248" clip-rule="evenodd" fill="rgb(140,109,78)" fill-rule="evenodd" stroke="none" stroke-width="1"/></g></g><g id="engcTA1Czx675"><polygon id="engcTA1Czx676" points="51.800000,305.400000 80.900000,305.400000 76.900000,182.800000 55.800000,182.800000 51.800000,305.400000" clip-rule="evenodd" fill="rgb(225,192,151)" fill-rule="evenodd" stroke="none" stroke-width="1"/><polygon id="engcTA1Czx677" points="50.800000,289.400000 82,289.400000 82,288.200000 50.800000,288.200000 50.800000,289.400000" clip-rule="evenodd" fill="rgb(141,97,60)" fill-rule="evenodd" stroke="none" stroke-width="1"/><polygon id="engcTA1Czx678" points="53.600000,182.800000 79.100000,182.800000 79.100000,181.700000 53.600000,181.700000 53.600000,182.800000" clip-rule="evenodd" fill="rgb(141,97,60)" fill-rule="evenodd" stroke="none" stroke-width="1"/><path id="engcTA1Czx679" d="M74.900000,181.700000L74.900000,153.400000L57.900000,153.400000L57.900000,181.700000L74.900000,181.700000L74.900000,181.700000ZM61,179.200000L71.700000,179.200000L71.700000,162.900000C71.700000,159.900000,69.300000,157.500000,66.300000,157.500000L66.300000,157.500000C63.300000,157.500000,60.900000,159.900000,60.900000,162.900000L60.900000,179.200000L61,179.200000Z" clip-rule="evenodd" fill="rgb(140,109,78)" fill-rule="evenodd" stroke="none" stroke-width="1"/><polygon id="engcTA1Czx680" points="57,153.400000 75.700000,153.400000 75.700000,151.300000 57,151.300000 57,153.400000" clip-rule="evenodd" fill="rgb(141,97,60)" fill-rule="evenodd" stroke="none" stroke-width="1"/><path id="engcTA1Czx681" d="M64.800000,135C65.900000,135,66.900000,135,68,135C71.800000,139.500000,79.300000,144.800000,74.300000,151.300000C69.100000,151.300000,63.800000,151.300000,58.600000,151.300000C53.500000,144.700000,61,139.400000,64.800000,135L64.800000,135Z" clip-rule="evenodd" fill="rgb(225,192,151)" fill-rule="evenodd" stroke="none" stroke-width="1"/><g id="engcTA1Czx682"><path id="engcTA1Czx683" d="M64.200000,135L68.500000,135C68.800000,135,69.100000,134.700000,69.100000,134.400000L69.100000,134.400000C69.100000,134.100000,68.800000,133.800000,68.500000,133.800000L64.200000,133.800000C63.900000,133.800000,63.600000,134.100000,63.600000,134.400000L63.600000,134.400000C63.600000,134.700000,63.900000,135,64.200000,135L64.200000,135Z" clip-rule="evenodd" fill="rgb(194,151,98)" fill-rule="evenodd" stroke="none" stroke-width="1"/><path id="engcTA1Czx684" d="M66.200000,133.700000L66.600000,133.700000L66.600000,127.400000C66.600000,127.300000,66.500000,127.200000,66.400000,127.200000L66.400000,127.200000C66.300000,127.200000,66.200000,127.300000,66.200000,127.400000L66.200000,133.700000L66.200000,133.700000Z" clip-rule="evenodd" fill="rgb(194,151,98)" fill-rule="evenodd" stroke="none" stroke-width="1"/><path id="engcTA1Czx685" d="M66.400000,128.400000C66.800000,128.400000,67.200000,128.800000,67.200000,129.200000C67.200000,129.600000,66.800000,130,66.400000,130C66,130,65.600000,129.600000,65.600000,129.200000C65.600000,128.800000,65.900000,128.400000,66.400000,128.400000L66.400000,128.400000Z" clip-rule="evenodd" fill="rgb(194,151,98)" fill-rule="evenodd" stroke="none" stroke-width="1"/></g></g><g id="engcTA1Czx686"><g id="engcTA1Czx687"><polygon id="engcTA1Czx688" points="152.500000,238.500000 96.800000,238.500000 96.800000,305.400000 152.500000,305.400000 152.500000,238.500000" clip-rule="evenodd" fill="rgb(219,180,125)" fill-rule="evenodd" stroke="none" stroke-width="1"/><path id="engcTA1Czx689" d="M114.200000,245.500000C118.600000,248.200000,121.400000,253,121.500000,258.100000C121.500000,262.100000,121.500000,266.100000,121.500000,270.300000C116.600000,270.300000,114.200000,270.300000,114.200000,270.300000C114.200000,270.300000,111.800000,270.300000,106.900000,270.300000C106.900000,266.100000,106.900000,262,106.900000,258.100000C107.100000,253,109.800000,248.200000,114.200000,245.500000L114.200000,245.500000Z" clip-rule="evenodd" fill="rgb(140,109,78)" fill-rule="evenodd" stroke="none" stroke-width="1"/><path id="engcTA1Czx690" d="M111.800000,270.400000L116.600000,270.400000L116.600000,258.300000C116.600000,257,115.500000,255.900000,114.200000,255.900000L114.200000,255.900000C112.900000,255.900000,111.800000,257,111.800000,258.300000L111.800000,270.400000L111.800000,270.400000Z" clip-rule="evenodd" fill="rgb(141,97,60)" fill-rule="evenodd" stroke="none" stroke-width="1"/><path id="engcTA1Czx691" d="M135,245.500000C139.400000,248.200000,142.200000,253,142.300000,258.100000C142.300000,262.100000,142.300000,266.100000,142.300000,270.300000C137.400000,270.300000,135,270.300000,135,270.300000C135,270.300000,132.600000,270.300000,127.700000,270.300000C127.700000,266.100000,127.700000,262,127.700000,258.100000C127.900000,253,130.600000,248.200000,135,245.500000L135,245.500000Z" clip-rule="evenodd" fill="rgb(140,109,78)" fill-rule="evenodd" stroke="none" stroke-width="1"/><path id="engcTA1Czx692" d="M132.600000,270.400000L137.400000,270.400000L137.400000,258.300000C137.400000,257,136.300000,255.900000,135,255.900000L135,255.900000C133.700000,255.900000,132.600000,257,132.600000,258.300000L132.600000,270.400000L132.600000,270.400000Z" clip-rule="evenodd" fill="rgb(141,97,60)" fill-rule="evenodd" stroke="none" stroke-width="1"/><path id="engcTA1Czx693" d="M114.200000,280.500000C118.600000,283.200000,121.400000,288,121.500000,293.200000C121.500000,297.200000,121.500000,301.200000,121.500000,305.400000C116.600000,305.400000,114.200000,305.400000,114.200000,305.400000C114.200000,305.400000,111.800000,305.400000,106.900000,305.400000C106.900000,301.200000,106.900000,297.100000,106.900000,293.200000C107.100000,288,109.800000,283.200000,114.200000,280.500000L114.200000,280.500000Z" clip-rule="evenodd" fill="rgb(140,109,78)" fill-rule="evenodd" stroke="none" stroke-width="1"/><path id="engcTA1Czx694" d="M111.800000,305.400000L116.600000,305.400000L116.600000,293.300000C116.600000,292,115.500000,290.900000,114.200000,290.900000L114.200000,290.900000C112.900000,290.900000,111.800000,292,111.800000,293.300000L111.800000,305.400000L111.800000,305.400000Z" clip-rule="evenodd" fill="rgb(141,97,60)" fill-rule="evenodd" stroke="none" stroke-width="1"/><path id="engcTA1Czx695" d="M135,280.500000C139.400000,283.200000,142.200000,288,142.300000,293.200000C142.300000,297.200000,142.300000,301.200000,142.300000,305.400000C137.400000,305.400000,135,305.400000,135,305.400000C135,305.400000,132.600000,305.400000,127.700000,305.400000C127.700000,301.200000,127.700000,297.100000,127.700000,293.200000C127.900000,288,130.600000,283.200000,135,280.500000L135,280.500000Z" clip-rule="evenodd" fill="rgb(140,109,78)" fill-rule="evenodd" stroke="none" stroke-width="1"/><path id="engcTA1Czx696" d="M132.600000,305.400000L137.400000,305.400000L137.400000,293.300000C137.400000,292,136.300000,290.900000,135,290.900000L135,290.900000C133.700000,290.900000,132.600000,292,132.600000,293.300000L132.600000,305.400000L132.600000,305.400000Z" clip-rule="evenodd" fill="rgb(141,97,60)" fill-rule="evenodd" stroke="none" stroke-width="1"/><polygon id="engcTA1Czx697" points="152.500000,273 96.800000,273 96.800000,275.400000 152.500000,275.400000 152.500000,273" clip-rule="evenodd" fill="rgb(196,153,108)" fill-rule="evenodd" stroke="none" stroke-width="1"/></g><g id="engcTA1Czx698"><path id="engcTA1Czx699" d="M103.800000,238.500000L106.500000,238.500000L106.500000,225.200000C106.500000,222.800000,108.500000,220.800000,110.900000,220.800000L110.900000,220.800000C113.300000,220.800000,115.300000,222.800000,115.300000,225.200000L115.300000,238.500000L118.600000,238.500000L118.600000,225.200000C118.600000,222.800000,120.600000,220.800000,123,220.800000L123,220.800000C125.400000,220.800000,127.400000,222.800000,127.400000,225.200000L127.400000,238.500000L130.700000,238.500000L130.700000,225.200000C130.700000,222.800000,132.700000,220.800000,135.100000,220.800000L135.100000,220.800000C137.500000,220.800000,139.500000,222.800000,139.500000,225.200000L139.500000,238.500000L142.200000,238.500000L142.200000,217.500000L104.100000,217.500000L104.100000,238.500000L103.800000,238.500000Z" clip-rule="evenodd" fill="rgb(140,109,78)" fill-rule="evenodd" stroke="none" stroke-width="1"/><polygon id="engcTA1Czx6100" points="101.500000,217.500000 144.200000,217.500000 144.200000,214.300000 101.500000,214.300000 101.500000,217.500000" clip-rule="evenodd" fill="rgb(141,97,60)" fill-rule="evenodd" stroke="none" stroke-width="1"/><path id="engcTA1Czx6101" d="M119.200000,177C121.600000,177,124,177,126.500000,177C135.100000,187.200000,152.200000,199.300000,140.800000,214.300000C128.900000,214.300000,116.900000,214.300000,105,214.300000C93.500000,199.300000,110.600000,187.200000,119.200000,177L119.200000,177Z" clip-rule="evenodd" fill="rgb(237,198,157)" fill-rule="evenodd" stroke="none" stroke-width="1"/><g id="engcTA1Czx6102"><path id="engcTA1Czx6103" d="M117.900000,177L127.800000,177C128.600000,177,129.200000,176.400000,129.200000,175.600000L129.200000,175.600000C129.200000,174.800000,128.600000,174.200000,127.800000,174.200000L117.900000,174.200000C117.100000,174.200000,116.500000,174.800000,116.500000,175.600000L116.500000,175.600000C116.500000,176.400000,117.100000,177,117.900000,177L117.900000,177Z" clip-rule="evenodd" fill="rgb(194,151,98)" fill-rule="evenodd" stroke="none" stroke-width="1"/><path id="engcTA1Czx6104" d="M122.400000,174.200000L123.300000,174.200000L123.300000,159.800000C123.300000,159.600000,123.100000,159.400000,122.900000,159.400000L122.900000,159.400000C122.700000,159.400000,122.500000,159.600000,122.500000,159.800000L122.500000,174.200000L122.400000,174.200000Z" clip-rule="evenodd" fill="rgb(194,151,98)" fill-rule="evenodd" stroke="none" stroke-width="1"/><path id="engcTA1Czx6105" d="M122.900000,162C123.900000,162,124.700000,162.800000,124.700000,163.900000C124.700000,164.900000,123.900000,165.700000,122.900000,165.700000C121.900000,165.700000,121.100000,164.900000,121.100000,163.900000C121,162.800000,121.800000,162,122.900000,162L122.900000,162Z" clip-rule="evenodd" fill="rgb(194,151,98)" fill-rule="evenodd" stroke="none" stroke-width="1"/></g></g><g id="engcTA1Czx6106"><polygon id="engcTA1Czx6107" points="96.800000,305.400000 91.200000,305.400000 91.200000,233.800000 96.800000,233.800000 96.800000,305.400000" clip-rule="evenodd" fill="rgb(195,160,120)" fill-rule="evenodd" stroke="none" stroke-width="1"/><polygon id="engcTA1Czx6108" points="90,233.800000 97.900000,233.800000 97.900000,232.900000 90,232.900000 90,233.800000" clip-rule="evenodd" fill="rgb(140,109,78)" fill-rule="evenodd" stroke="none" stroke-width="1"/><path id="engcTA1Czx6109" d="M94,226C95.600000,227.900000,99.500000,230.100000,97.300000,232.900000C95.100000,232.900000,92.900000,232.900000,90.600000,232.900000C88.500000,230.100000,92.400000,227.800000,94,226L94,226Z" clip-rule="evenodd" fill="rgb(237,198,157)" fill-rule="evenodd" stroke="none" stroke-width="1"/><polygon id="engcTA1Czx6110" points="90.200000,278.100000 96.800000,278.100000 96.800000,277.200000 90.200000,277.200000 90.200000,278.100000" clip-rule="evenodd" fill="rgb(140,109,78)" fill-rule="evenodd" stroke="none" stroke-width="1"/><polygon id="engcTA1Czx6111" points="90.200000,293.200000 96.800000,293.200000 96.800000,292.300000 90.200000,292.300000 90.200000,293.200000" clip-rule="evenodd" fill="rgb(140,109,78)" fill-rule="evenodd" stroke="none" stroke-width="1"/><polygon id="engcTA1Czx6112" points="90.200000,263 96.800000,263 96.800000,262.200000 90.200000,262.200000 90.200000,263" clip-rule="evenodd" fill="rgb(140,109,78)" fill-rule="evenodd" stroke="none" stroke-width="1"/><polygon id="engcTA1Czx6113" points="90.200000,248 96.800000,248 96.800000,247.100000 90.200000,247.100000 90.200000,248" clip-rule="evenodd" fill="rgb(140,109,78)" fill-rule="evenodd" stroke="none" stroke-width="1"/></g></g><g id="engcTA1Czx6114"><g id="engcTA1Czx6115"><polygon id="engcTA1Czx6116" points="247.900000,214 247.900000,305.400000 152.500000,305.400000 152.500000,214 247.900000,214" clip-rule="evenodd" fill="rgb(237,198,157)" fill-rule="evenodd" stroke="none" stroke-width="1"/><polygon id="engcTA1Czx6117" points="240.300000,220.300000 240.300000,305.400000 160.200000,305.400000 160.200000,220.300000 240.300000,220.300000" clip-rule="evenodd" fill="rgb(219,180,125)" fill-rule="evenodd" stroke="none" stroke-width="1"/><polygon id="engcTA1Czx6118" points="167.800000,273.400000 232.600000,273.400000 232.600000,305.400000 167.800000,305.400000 167.800000,273.400000" clip-rule="evenodd" fill="rgb(165,131,93)" fill-rule="evenodd" stroke="none" stroke-width="1"/><polygon id="engcTA1Czx6119" points="247.900000,209.300000 152.500000,209.300000 152.500000,196 247.900000,196 247.900000,209.300000" clip-rule="evenodd" fill="rgb(237,198,157)" fill-rule="evenodd" stroke="none" stroke-width="1"/><polygon id="engcTA1Czx6120" points="244.900000,207.100000 155.500000,207.100000 155.500000,198.200000 244.900000,198.200000 244.900000,207.100000" clip-rule="evenodd" fill="rgb(219,180,125)" fill-rule="evenodd" stroke="none" stroke-width="1"/><path id="engcTA1Czx6121" d="M149.700000,214L250.700000,214C252,214,253,212.900000,253,211.700000L253,211.700000C253,210.400000,251.900000,209.400000,250.700000,209.400000L149.700000,209.400000C148.400000,209.400000,147.400000,210.500000,147.400000,211.700000L147.400000,211.700000C147.400000,212.900000,148.400000,214,149.700000,214L149.700000,214Z" clip-rule="evenodd" fill="rgb(194,151,98)" fill-rule="evenodd" stroke="none" stroke-width="1"/><path id="engcTA1Czx6122" d="M149.700000,196L200.200000,196L250.700000,196C252,196,253,194.900000,253,193.700000L253,193.700000C253,192.400000,251.900000,191.400000,250.700000,191.400000L200.200000,191.400000L149.700000,191.400000C148.400000,191.400000,147.400000,192.500000,147.400000,193.700000L147.400000,193.700000C147.400000,194.900000,148.400000,196,149.700000,196L149.700000,196Z" clip-rule="evenodd" fill="rgb(194,151,98)" fill-rule="evenodd" stroke="none" stroke-width="1"/><polygon id="engcTA1Czx6123" points="167.800000,226.700000 232.600000,226.700000 232.600000,267.100000 167.800000,267.100000 167.800000,226.700000" clip-rule="evenodd" fill="rgb(194,151,98)" fill-rule="evenodd" stroke="none" stroke-width="1"/><path id="engcTA1Czx6124" d="M192.700000,305.400000L207.800000,305.400000L207.800000,290.900000C207.800000,282.600000,192.700000,282.600000,192.700000,290.900000L192.700000,305.400000L192.700000,305.400000Z" clip-rule="evenodd" fill="rgb(141,97,60)" fill-rule="evenodd" stroke="none" stroke-width="1"/><path id="engcTA1Czx6125" d="M232.600000,251.800000C232.600000,262,232.600000,267.100000,232.600000,267.100000C211,267.100000,189.400000,267.100000,167.800000,267.100000C167.800000,267.100000,167.800000,262,167.800000,251.800000C180.200000,229.700000,220.200000,229.700000,232.600000,251.800000L232.600000,251.800000Z" clip-rule="evenodd" fill="rgb(165,131,93)" fill-rule="evenodd" stroke="none" stroke-width="1"/><path id="engcTA1Czx6126" d="M207.700000,267.100000L192.600000,267.100000L192.600000,252.600000C192.600000,244.300000,207.700000,244.300000,207.700000,252.600000L207.700000,267.100000L207.700000,267.100000Z" clip-rule="evenodd" fill="rgb(141,97,60)" fill-rule="evenodd" stroke="none" stroke-width="1"/></g><g id="engcTA1Czx6127"><path id="engcTA1Czx6128" d="M152.500000,191.300000C135.900000,165.600000,147.700000,139.400000,187.800000,112.700000C196.100000,112.700000,204.400000,112.700000,212.600000,112.700000C252.700000,139.400000,264.400000,165.600000,247.900000,191.300000C209.200000,191.300000,190.900000,191.300000,152.500000,191.300000L152.500000,191.300000Z" clip-rule="evenodd" fill="rgb(237,198,157)" fill-rule="evenodd" stroke="none" stroke-width="1"/><path id="engcTA1Czx6129" d="M254.700000,174.200000C254.900000,173.100000,255,171.900000,255.100000,170.800000C218.500000,170.800000,181.900000,170.800000,145.300000,170.800000C145.400000,171.900000,145.500000,173.100000,145.700000,174.200000C182,174.200000,218.400000,174.200000,254.700000,174.200000L254.700000,174.200000Z" clip-rule="evenodd" fill="rgb(219,180,125)" fill-rule="evenodd" stroke="none" stroke-width="1"/><path id="engcTA1Czx6130" d="M149.800000,186.700000C148.400000,184,147.400000,181.300000,146.600000,178.600000C182.300000,178.600000,218,178.600000,253.800000,178.600000C253,181.300000,252,184,250.600000,186.700000C217,186.700000,183.400000,186.700000,149.800000,186.700000L149.800000,186.700000Z" clip-rule="evenodd" fill="rgb(194,151,98)" fill-rule="evenodd" stroke="none" stroke-width="1"/></g><g id="engcTA1Czx6131"><path id="engcTA1Czx6132" d="M208.600000,112.700000C203,112.700000,197.400000,112.700000,191.800000,112.700000L191.800000,108.900000C191.800000,106.800000,193.500000,105.100000,195.600000,105.100000L197.600000,105.100000L197.600000,97.700000C197.600000,96.800000,198.400000,96,199.300000,96C200,96,200.700000,96,201.300000,96C202.200000,96,203,96.800000,203,97.700000L203,105.100000L205,105.100000C207.100000,105.100000,208.800000,106.800000,208.800000,108.900000L208.800000,112.700000L208.600000,112.700000Z" clip-rule="evenodd" fill="rgb(194,151,98)" fill-rule="evenodd" stroke="none" stroke-width="1"/><path id="engcTA1Czx6133" d="M200.700000,96.100000L199.800000,96.100000L199.800000,78.700000C199.800000,78.500000,200,78.300000,200.200000,78.300000L200.200000,78.300000C200.400000,78.300000,200.600000,78.500000,200.600000,78.700000L200.600000,96.100000L200.700000,96.100000Z" clip-rule="evenodd" fill="rgb(194,151,98)" fill-rule="evenodd" stroke="none" stroke-width="1"/><path id="engcTA1Czx6134" d="M200.200000,80.200000C199.200000,80.200000,198.400000,81,198.400000,82C198.400000,83,199.200000,83.800000,200.200000,83.800000C201.200000,83.800000,202.100000,83,202.100000,82C202.100000,81,201.200000,80.200000,200.200000,80.200000L200.200000,80.200000Z" clip-rule="evenodd" fill="rgb(194,151,98)" fill-rule="evenodd" stroke="none" stroke-width="1"/></g></g></svg>