<svg id="s1" xmlns="http://www.w3.org/2000/svg" xmlns:xlink="http://www.w3.org/1999/xlink" viewBox="0 0 400 400"><g id="s3"><path id="s5" d="M119.350000,331.140000L114.750000,332.630000L110.500000,330L107.500000,324.370000L107.040000,319.080000L108.420000,317.820000L107.850000,316.440000L109.110000,314.030000L110.600000,311.160000L109.680000,310.240000L108.760000,312.420000L107.960000,311.620000L108.300000,307.830000L110.300000,306.830000L109.840000,303.610000L112.140000,296.480000C112.030000,290.730000,112.030000,291.080000,112.030000,290.730000C112.030000,290.380000,113.290000,286.940000,113.290000,286.940000L113.060000,280.390000L107.850000,277L105.850000,275.390000L105.050000,272.170000L100.680000,264.700000L102.980000,258.700000L104.700000,256.700000L105.040000,253.250000L104.120000,252.100000L104.690000,251.180000L106.300000,251.410000L108.600000,248.080000L112.280000,247.280000L112.510000,248.430000L110.440000,249.580000L112.280000,251.190000L112.620000,249.700000L113.880000,248.210000L115.030000,248.320000L116.290000,249.320000L119.620000,249.780000L120,248L123.560000,249L123.670000,251.410000L125.280000,250.720000L127.120000,254.050000L131,254.050000L134.100000,256.120000L135.820000,260.830000L140.420000,261.830000L142.140000,263.210000L147.310000,264.360000L150.530000,267.360000C150.990000,270,150.990000,269.660000,150.990000,270C150.990000,270.340000,147.770000,275.060000,147.770000,275.060000C147.770000,275.060000,146.050000,275.060000,145.930000,275.400000C145.810000,275.740000,146.270000,280,146.270000,280L143.270000,286.320000L140.270000,286.090000L136.940000,288.620000L136.370000,292.530000L130.620000,300.230000L127.980000,300.570000L125.800000,299.570000L125.460000,300.720000L127.070000,303.020000L126.070000,305.430000L123.070000,306.430000L121.770000,305L121.660000,308.220000L120.050000,309.140000L119.250000,308.340000L119.020000,313.280000L115.920000,316.040000L116.030000,318.040000L117.520000,319.040000L116.140000,321.680000L114.650000,323.860000L115.450000,328.460000L118.090000,329.840000L120.160000,330.180000Z" fill="rgb(109,139,165)" stroke="none" stroke-width="1"/><g id="s7"><path id="s9" d="M182.430000,220.050000L181.800000,220.450000L181.400000,222L178.300000,224.470000L178.070000,227.470000L173.700000,229.940000L173.300000,231.660000L170.370000,237.660000L171,238.810000L171.570000,242.200000L170.570000,247.780000L174.310000,251.400000L174.540000,252.890000L181.270000,256.220000L182.590000,255.130000L185.460000,255.820000L192.300000,253.820000L193.970000,254.280000L195.230000,256.280000L198.330000,255.820000L199.480000,257.030000L197.990000,262.260000L203.990000,269.790000L203.930000,273.870000L202.210000,274.270000L201.290000,279.960000C204.570000,285.960000,204.510000,285.820000,204.570000,285.960000C204.630000,286.100000,204.680000,290.160000,204.680000,290.160000L206.350000,292.630000C207.100000,294.990000,206.980000,294.810000,207.100000,294.990000C207.220000,295.170000,208.100000,295.990000,208.100000,296.140000C208.100000,296.290000,207.810000,298.380000,207.810000,298.380000L208.270000,299.930000L209.650000,300.160000L211.550000,299.590000L217.360000,298.730000L221.500000,295.050000L221.440000,293.210000L223.160000,291.430000L223.680000,288.840000L225.750000,287.460000L226.210000,282.400000L228.050000,279.870000L230.180000,279.010000L231.850000,277.010000L230.760000,265.280000L235.420000,259.470000L240.540000,254.990000L243,250.300000L242.600000,248.460000L236.390000,249.720000L234,248.510000L233.830000,247.360000L230.960000,244.360000L230.440000,241.830000L228.600000,240.450000L228.140000,237L226.590000,235.330000L224.460000,229.930000L225.210000,229.410000L224.580000,225.730000L223.720000,226.070000L222.720000,225.320000L220.420000,225.490000L219.620000,226.290000L217.150000,225.200000L215.020000,224.970000L212.890000,224.170000L211.400000,223.940000C210.938735,224.214969,210.497621,224.522412,210.080000,224.860000C210.005607,225.373124,209.985496,225.892660,210.020000,226.410000L208.300000,226.980000C207.836298,226.555755,207.337891,226.171078,206.810000,225.830000L205.260000,225.890000L204.860000,224.400000L203.370000,223.770000L201.990000,224.170000L198.540000,222.270000L200.210000,220.490000L199.690000,218.940000L198.690000,217.680000L197.940000,218.770000L190.010000,219L186.910000,220.720000L183.630000,220.890000Z" fill="rgb(52,107,153)" stroke="none" stroke-width="1"/><path id="s11" d="M240.840000,273.470000C240.780000,273.700000,240.380000,275.190000,240.380000,275.190000L239.460000,275.250000L239.230000,276.630000L237.330000,278.300000L236.330000,278.590000L235.470000,279.970000L235.870000,281.520000L234.870000,284.160000L235.390000,286.160000L235.100000,286.910000L236.770000,288.980000L238.770000,288.230000L241.410000,278.860000L242.560000,277.770000L242.330000,275.070000L241.580000,273.230000Z" fill="rgb(52,107,153)" stroke="none" stroke-width="1"/></g><g id="s13"><path id="s15" d="M323.850000,275.400000C323.286976,275.799635,322.749277,276.233802,322.240000,276.700000L321.550000,278.700000L320.630000,279.620000L320.020000,278.620000L318.560000,281.300000L311,284.830000L311,286.520000L309.700000,287.440000L312.770000,295.870000L312.540000,298.400000L311.540000,298.550000L311.770000,299.930000L314.610000,300.770000L317.140000,299.010000L321.590000,298.930000L323.050000,297.630000L328.720000,296.480000L333.470000,300.160000L335.540000,298.320000L337,300L336.620000,301.300000L335.090000,302.680000L338.310000,302.370000L338.390000,304.750000L342.390000,306.050000L343.690000,304.520000L346.140000,305.360000L347.750000,303.980000L349.280000,304.210000L350.430000,298.210000L351.730000,297.210000L352.730000,292L351.730000,288.320000L348.200000,284.320000L346.740000,281.320000L345.050000,281.090000L343.590000,277.330000L341,272.490000L339.390000,274.250000L339.850000,278.470000L338.240000,280.160000L333.490000,276.480000L334.790000,275.020000L334.640000,273.560000L330.500000,273.250000L329.500000,274.250000L328.500000,273.870000L327.500000,277.090000L325.810000,277.400000L325.580000,276.170000Z" fill="rgb(72,119,138)" stroke="none" stroke-width="1"/><polygon id="s17" points="342.710000,309.060000 343.470000,308.440000 345.240000,308.830000 346.390000,308.440000 346.770000,306.990000 347.380000,307.060000 347.920000,308.900000 346.920000,312.350000 345.620000,312.660000 344.470000,312.430000 343.700000,310.130000 342.710000,309.060000" fill="rgb(72,119,138)" stroke="none" stroke-width="1"/><polygon id="s19" points="348.760000,270.650000 346.230000,268.430000 345.310000,265.740000 339.550000,263.730000 339.200000,269.960000 341.250000,270.340000 341.630000,269.650000 344.390000,269.190000 348.070000,272.260000 350.070000,272.110000 350.140000,270.730000 348.760000,270.650000" fill="rgb(72,119,138)" stroke="none" stroke-width="1"/><path id="s21" d="M367,314.880000C367,315.110000,367,316.340000,367.230000,316.340000C367.460000,316.340000,370.070000,317.260000,370.070000,317.260000L371.070000,315.260000L373.980000,312.260000L374.750000,309.810000L374.210000,308.280000L372.980000,308.130000C372.416939,308.831992,371.905595,309.573943,371.450000,310.350000L371.450000,311.350000Z" fill="rgb(72,119,138)" stroke="none" stroke-width="1"/><path id="s23" d="M373.600000,301C373.680000,301.230000,375.670000,304.530000,375.670000,304.530000L375.360000,306.140000L374.520000,305.600000L374.750000,306.830000L376.280000,307.440000L376.360000,309.440000C377.510000,309.130000,377.510000,309.440000,377.510000,309.130000C377.510000,308.820000,378.580000,305.990000,378.580000,305.990000L379.730000,305.840000L380.110000,304L378.730000,303.850000L378.040000,304.390000L377.350000,304.390000L375.590000,301.480000L373.900000,299.870000Z" fill="rgb(72,119,138)" stroke="none" stroke-width="1"/></g><g id="s25"><path id="s27" d="M162.170000,167.390000C162.732717,166.443753,163.375040,165.547177,164.090000,164.710000C164.717015,164.901721,165.331529,165.132164,165.930000,165.400000L166.080000,167.010000L168.990000,165.630000L172.130000,165.550000L173.360000,166.620000L174.130000,168.840000L172.210000,171.520000L171.370000,170.980000L169.370000,173.050000L166.920000,173.510000L165.770000,172.280000L163.770000,171.740000L164.540000,170.130000L162.930000,169.590000L162.930000,168.900000L164.160000,168.360000Z" fill="rgb(93,119,161)" stroke="none" stroke-width="1"/><polygon id="s29" points="181.790000,192.760000 182.480000,191.920000 181.490000,190.080000 180.110000,189.930000 179.190000,190.840000 179.190000,192.070000 177.960000,191.310000 176.890000,192.460000 177.120000,193.680000 178.420000,194.140000 176.810000,195.830000 177.730000,197.060000 179.650000,196.520000 181.950000,195.290000 181.790000,192.760000" fill="rgb(93,119,161)" stroke="none" stroke-width="1"/><polygon id="s31" points="182.560000,183.030000 181.870000,184.560000 181.640000,187.160000 183.250000,190.460000 184.710000,191.070000 185.320000,192.690000 183.860000,193.220000 182.710000,196.130000 183.560000,196.590000 182.100000,197.970000 182.330000,199.350000 187.540000,198.050000 189.770000,196.590000 190.230000,194.680000 188.690000,193.300000 187.930000,190.690000 186.700000,189.620000 185.630000,188.310000 185.010000,187.630000 186.320000,185.320000 184.250000,185.170000 184.630000,183.560000 182.560000,183.030000" fill="rgb(93,119,161)" stroke="none" stroke-width="1"/><path id="s33" d="M178.340000,209.470000L180.340000,208.630000L182.100000,209.170000L186.320000,209.480000L187.090000,208.410000L187,205L185.240000,203L182.710000,201.540000L183.250000,201L185.400000,200.690000L186.700000,201.380000L186.620000,200.540000L185.620000,199.770000L187.080000,199.230000L188.150000,199.610000L189.530000,199.230000L190.680000,197.080000L193.520000,194.400000L194.360000,192.640000L198.120000,192.330000L198.200000,190.720000L199.430000,190.340000L200.580000,191.640000L202.730000,190.640000L203.800000,191.020000L204.110000,192.170000L205.410000,191.860000L207.170000,190.400000L209.010000,191.240000L210.700000,189.860000L211.160000,184.950000L214.380000,186.560000L214.690000,184.340000L213.690000,183.500000L211.470000,183.880000L212.240000,181.880000L215.840000,181.040000L218.370000,181.650000L219.440000,180.120000L218.210000,179L212.770000,180.760000L211.230000,179L212,177.310000L211.080000,174.310000L212.610000,171.630000L214.070000,170.100000L215.680000,168.490000L213.760000,166.570000L211.080000,168.410000C211.080000,170.860000,211.310000,170.790000,211.080000,170.860000C209.838480,171.693897,208.658750,172.616293,207.550000,173.620000C207.470000,173.850000,206.940000,178.620000,206.940000,178.620000L208.550000,179.460000L208.470000,182.140000L206.780000,183.060000C206.470000,185.970000,206.550000,185.740000,206.470000,185.970000C206.390000,186.200000,204.320000,189.040000,204.320000,189.040000L202.480000,189.120000L201.330000,188.120000L202.170000,187.120000L200.170000,184.120000L200.170000,181.360000L197.330000,184.500000L194.570000,183.660000L194.490000,175.150000L197.490000,172.390000L199.790000,171.470000L199.410000,170.400000C200.480000,168.400000,200.410000,168.640000,200.480000,168.400000C200.550000,168.160000,205.160000,160.270000,205.160000,160.270000L202.250000,160.350000L203.090000,159.350000L204.850000,159.040000L204.310000,157.430000L205.840000,156.430000L206.530000,157.660000L207.760000,155.660000L209.370000,152.980000L211.440000,153.130000L214.970000,150.830000L216.580000,151.140000L217.270000,151.980000L221.180000,153.670000C220.490000,154.670000,220.260000,154.590000,220.490000,154.670000C220.720000,154.750000,222.330000,155.820000,222.330000,155.820000L223.170000,155.360000L224.780000,156.280000L224.860000,157.200000L227.160000,157.580000L232.160000,162.640000C232.620000,164.170000,233,163.940000,232.620000,164.170000C232.240000,164.400000,230.860000,165.470000,230.860000,165.470000L228.410000,166.080000L223,162.710000L222,163.090000L225.760000,166.090000L225.680000,170.230000L227.980000,172.150000L229.740000,171.080000L227.670000,167.940000L229.510000,168.090000L230.890000,169.160000L231.580000,168.700000C231.120000,166.700000,230.810000,167.010000,231.120000,166.700000C231.430000,166.390000,234.030000,164.780000,234.030000,164.780000L235.640000,165.160000L235.720000,163.630000L235.180000,161.480000L235.790000,160.020000L234.330000,158.330000L235.400000,158.020000L238.470000,159.320000L237.090000,162.080000L237.930000,164.300000L239.310000,163.610000L239.920000,161.390000L246.440000,158.320000L246.290000,159.930000L250.510000,158.780000L251.050000,157.400000L251.970000,158.240000L251.890000,159.930000L252.890000,160.010000L254.040000,158.170000L252.480000,156L251.330000,155L251.480000,152.930000L254.090000,155.150000L257.090000,155.460000L260,158L259.770000,160.760000L253.400000,168L252.940000,181.880000L254.700000,185.790000L252.400000,194.380000L244,196.210000L241.900000,199L243.900000,203.450000L240.680000,206.450000L240.680000,210L242.980000,213L233.320000,211.080000L229.260000,207.630000L226.260000,208.090000L225.260000,209.090000L224.170000,208.920000L224.060000,207.980000L223.060000,207.600000L223.370000,206.830000L224.290000,206.730000L226.210000,207.060000L228.590000,206.290000L230.200000,203.760000L227.750000,204.220000L225,205.330000L221.470000,204.720000L220.240000,206.330000L218.630000,208.940000L218.400000,212.240000L216.400000,213.390000L214.020000,213.010000L213.020000,214.310000L213.940000,216.610000L215.940000,217.680000L216.170000,218.370000L213.330000,217.600000L213,220L211,218.770000L211.230000,217.010000L209.160000,214.250000L209.160000,211.410000L202.570000,206.500000L201.800000,208L203.180000,210.680000L205.790000,211.750000L208.170000,214.280000L207.480000,214.970000L206.560000,214.200000L206.870000,215.500000L205.720000,217.110000L204.800000,217.420000L204.420000,219.030000L201.420000,217.110000L203.570000,217.030000L204.570000,216.110000L205.260000,215.960000L205.410000,214.500000L202,212.310000L199.700000,210.390000L199.160000,208.390000L197.470000,208.010000L195.170000,210.310000L192.950000,209.620000L191.950000,209.850000L192.260000,211.690000L189.880000,213.070000L189.340000,212.690000L188.270000,214.380000L188.420000,216.450000L186.470000,219L183.330000,218.770000L182.410000,219.690000L181.410000,218.540000L178.960000,218.390000L178.650000,216.780000L177.730000,215.480000L178.880000,214.100000L178.960000,210.730000Z" fill="rgb(93,119,161)" stroke="none" stroke-width="1"/><path id="s35" d="M198.510000,185.170000C197.827912,186.062441,197.086218,186.907705,196.290000,187.700000L197.360000,190.080000L199.360000,189.310000L199.900000,187.550000L199.130000,186.550000L199.510000,185.320000Z" fill="rgb(93,119,161)" stroke="none" stroke-width="1"/><polygon id="s37" points="197.510000,210.320000 197.430000,212 198.280000,212.310000 198.890000,211.390000 198.430000,209.930000 197.510000,210.320000" fill="rgb(93,119,161)" stroke="none" stroke-width="1"/><path id="s39" d="M197.590000,213.230000C197.505820,213.552541,197.377971,213.862069,197.210000,214.150000L197.590000,216.220000L198.890000,215.610000L199.040000,214.080000L198.730000,212.930000Z" fill="rgb(93,119,161)" stroke="none" stroke-width="1"/><polygon id="s41" points="190.990000,214.380000 191.840000,213.840000 193.140000,213.920000 193.600000,214.610000 192.290000,214.840000 192.060000,215.680000 191.380000,215.610000 190.990000,214.380000" fill="rgb(93,119,161)" stroke="none" stroke-width="1"/><path id="s43" d="M242.740000,148.760000L244.350000,147.460000L245.580000,144.010000L246.420000,140.710000L248.260000,139.180000L248.180000,136.420000L253.850000,131.280000L258.530000,130.280000L260.290000,127.980000L261.980000,129.980000L259.680000,132.660000L254.160000,135.340000L253.780000,137.340000C248.340000,146.230000,248.340000,146,248.340000,146.230000C248.340000,146.460000,248.030000,148.300000,248.030000,148.300000L249.640000,152.210000L246.640000,152.820000L244.880000,151.820000Z" fill="rgb(93,119,161)" stroke="none" stroke-width="1"/><path id="s45" d="M201.190000,112.800000L199.580000,114L200.880000,118.910000C202.260000,122.050000,202.030000,122.210000,202.260000,122.050000C202.490000,121.890000,204.180000,121.820000,204.260000,121.440000C204.340000,121.060000,204.870000,118.910000,204.870000,118.910000C205.065158,119.611129,205.295449,120.302002,205.560000,120.980000C205.560000,120.750000,207.090000,121.060000,207.090000,121.060000L205,122L202.550000,123.230000L203.240000,124.690000L205.690000,123.310000L206.840000,123.690000L204.840000,124.840000L205.070000,125.530000L202.920000,126.140000L203.380000,127.060000L204.990000,128.060000L205.680000,130.440000L207.140000,130.360000L207.450000,127.600000L207.220000,125.910000L208.600000,125.220000L209.140000,122.220000L209.290000,119.840000L211.740000,118.540000L210.440000,117.470000L209.060000,116.700000L206,111.580000C204.470000,112.350000,204.240000,112.270000,204.470000,112.350000C205.010615,112.947122,205.499069,113.589472,205.930000,114.270000L205.780000,116.490000L203.480000,112.960000L203.170000,114.800000L201.940000,114.570000Z" fill="rgb(93,119,161)" stroke="none" stroke-width="1"/><polygon id="s47" points="210.540000,121.160000 212.610000,119.550000 212.920000,122 213.910000,122.920000 215.140000,124.990000 212.690000,127.220000 210.540000,125.450000 211.380000,123.770000 211.770000,122.230000 210.540000,121.160000" fill="rgb(93,119,161)" stroke="none" stroke-width="1"/><polygon id="s49" points="207.930000,109.580000 209.160000,109.350000 210.850000,108.510000 212.690000,111.350000 212.840000,108.890000 213.990000,109.200000 214.370000,110.660000 215.750000,110.430000 217.900000,110.960000 218.050000,112.880000 216.290000,113.950000 215.910000,115.640000 212.230000,116.020000 209.770000,114.720000 211.080000,113.570000 212.530000,113.110000 210.690000,112.500000 209.310000,113.190000 208.090000,112.420000 207.780000,111.350000 209.470000,110.730000 207.930000,109.580000" fill="rgb(93,119,161)" stroke="none" stroke-width="1"/><polygon id="s51" points="238.750000,109.050000 241.440000,107.820000 242.050000,105.670000 243.660000,106.980000 243.510000,108.660000 241.670000,109.580000 239.980000,111.420000 238.140000,110.500000 238.750000,109.050000" fill="rgb(93,119,161)" stroke="none" stroke-width="1"/><path id="s53" d="M234.770000,107.280000C235,107.130000,237.450000,105.210000,237.450000,105.210000L239.060000,105.820000L238.520000,106.890000L237.450000,107.350000L236.610000,108.420000Z" fill="rgb(93,119,161)" stroke="none" stroke-width="1"/><path id="s55" d="M245.810000,106.210000C246.363415,105.687549,246.874984,105.122481,247.340000,104.520000L250.710000,105.520000L250.100000,107.520000L248.800000,106.370000L247,107.440000Z" fill="rgb(93,119,161)" stroke="none" stroke-width="1"/><polygon id="s57" points="248.950000,101.990000 250.330000,102.990000 251.320000,102.680000 250.330000,100.460000 248.950000,101.990000" fill="rgb(93,119,161)" stroke="none" stroke-width="1"/><polygon id="s59" points="252.250000,106.130000 251.780000,107.740000 253.700000,109.120000 255,108.200000 255,106.750000 253.160000,106.750000 252.250000,106.130000" fill="rgb(93,119,161)" stroke="none" stroke-width="1"/><polygon id="s61" points="246.800000,110.660000 249.640000,109.280000 251.090000,110.500000 249.560000,112.340000 247.800000,112.500000 246.800000,110.660000" fill="rgb(93,119,161)" stroke="none" stroke-width="1"/><polygon id="s63" points="186.970000,178.310000 186.390000,179.520000 186.740000,181.070000 187.770000,180.550000 187.940000,178.940000 186.970000,178.310000" fill="rgb(93,119,161)" stroke="none" stroke-width="1"/><polygon id="s65" points="180.300000,175.550000 181.040000,177.330000 181.970000,177.050000 181.620000,174.980000 180.870000,174.520000 180.300000,175.550000" fill="rgb(93,119,161)" stroke="none" stroke-width="1"/><polygon id="s67" points="184.380000,181.930000 184.960000,181.300000 186.280000,181.300000 185.760000,183.140000 184.380000,181.930000" fill="rgb(93,119,161)" stroke="none" stroke-width="1"/><path id="s69" d="M209.220000,184.350000L207.840000,185.210000L208.130000,187.050000C209.130000,187.050000,209.130000,187.220000,209.130000,187.050000C209.130000,186.880000,208.960000,185.610000,208.960000,185.610000L209.960000,184.810000Z" fill="rgb(93,119,161)" stroke="none" stroke-width="1"/><polygon id="s71" points="189.560000,215.110000 189.380000,216.030000 190.130000,216.320000 190.530000,215.680000 189.560000,215.110000" fill="rgb(93,119,161)" stroke="none" stroke-width="1"/><polygon id="s73" points="240.610000,156.060000 239.580000,157.610000 240.550000,158.470000 241.880000,158.360000 242.390000,157.150000 241.590000,156.120000 240.610000,156.060000" fill="rgb(93,119,161)" stroke="none" stroke-width="1"/></g><g id="s75"><path id="s77" d="M233.310000,211.080000L232.850000,212.340000L228.080000,212.450000L226.080000,211.450000L223.380000,211.560000L221.770000,213.110000L220.910000,212.590000L218.670000,214.140000L217.350000,214.030000L216.350000,214.890000L218.710000,218.890000L220.150000,219.410000L222.450000,218.610000L223.770000,219.530000L225.550000,219.420000L225.950000,218.560000L226.950000,219.130000L227.240000,221.600000L226,223L224.620000,225.640000L225.250000,229.320000L225.940000,229.030000L227.940000,231.440000C228.055106,232.223309,228.246001,232.993590,228.510000,233.740000C228.680000,233.800000,230.640000,235.290000,230.640000,235.290000C230.640000,235.290000,231.390000,237.880000,231.500000,238.050000L234.660000,242.590000L235.660000,246.330000L243.310000,244.260000L244.310000,242.590000C247.130000,241.590000,246.950000,241.730000,247.130000,241.590000C247.310000,241.450000,251.040000,238.590000,251.040000,238.590000L252.400000,237L252,235.330000L249.760000,235.220000L248.500000,232.810000L246.370000,234.130000L243.370000,234.130000L243.480000,232.520000L239.230000,228C240.030000,227.370000,239.860000,227.480000,240.030000,227.370000C240.801827,227.380869,241.571305,227.457816,242.330000,227.600000L245.610000,230.990000L248.020000,231.990000L248.420000,230.670000L249.570000,230.100000L250.090000,232.100000L255.900000,233.020000L260.330000,232.330000L262.400000,237.040000L264.760000,238.710000L266.370000,237.040000L266.430000,239.450000L267.180000,243.590000L271.610000,252.330000L273.790000,250.030000L273.850000,246.030000L273.790000,243.330000L277.010000,242.930000L279.600000,239.420000L281.380000,239.080000L282.130000,237.300000L287.250000,236.150000L287.820000,238.450000C289.720000,241.380000,289.720000,241.210000,289.720000,241.380000C289.720000,241.550000,289.320000,243.680000,289.320000,243.680000L290.870000,243.850000L292.360000,242.410000L293.740000,247.240000L293.110000,252.360000L295.640000,254.430000L296.900000,257.760000L299.770000,260L300.920000,259.710000L299.200000,257.470000L298.970000,254.250000L295.750000,252.640000L296.040000,251.780000L294.830000,250.630000L295.630000,245.800000L301.210000,250.690000L304.660000,248.690000L304.830000,244.260000L301.550000,240.470000L302.990000,237.880000L304.830000,237.250000L305.830000,238.920000L305.030000,239.550000L305.260000,240.640000L306.520000,240.980000L307.380000,239.080000L307.270000,237.590000L314.170000,235.810000L318.250000,230.350000L319.110000,228.170000L317.620000,226.850000L317.160000,226.050000L318.710000,225.250000L316.710000,221.340000L317.710000,219.040000L319.320000,218.700000L319.550000,217.550000L317.370000,216.920000L316.050000,218.070000L315.820000,217.150000L312.950000,216.690000L313.870000,215.250000L316.280000,215.480000L318.060000,213.070000L318.810000,213.640000L317.810000,215.080000L318.730000,215.770000L321.490000,214.450000L322.350000,215.140000L322.410000,217.380000L323.670000,217.610000L323.960000,222.550000L326.960000,220.550000L326.960000,217.730000L325.060000,215.140000L325.400000,214.450000L327.700000,211.350000L329.600000,209.510000L332.070000,210.030000L338.160000,201.810000L339.650000,196.460000L340.400000,202.210000L339.600000,206.290000L340.750000,206.460000L340.860000,204.620000L341.720000,205.080000L342.580000,204.450000L341.370000,202.670000L341.660000,200.670000L343.330000,201.240000L342,196.080000L341.890000,191.480000L341.030000,191.650000L340.110000,194.350000L338.330000,191.650000L336.800000,191.650000L336.570000,192.910000L333.470000,191.010000L341.580000,181.290000L351.470000,182.090000L353.470000,181.800000L356.920000,176.220000L359.680000,175.930000L360.020000,178.400000L362.430000,177.020000L363.870000,174.890000L364.670000,174.430000L363.980000,177.650000L358.400000,183.800000L355.640000,185.800000L354.490000,188.730000L355.580000,197.640000L357.710000,196.640000L358.170000,194.640000L359.950000,193.840000L360.290000,191.770000L361.670000,191.140000L361.780000,188.900000L363.040000,187.640000L362.040000,183.390000L364.450000,179.830000L367.040000,180.290000L368.710000,179.200000L371.010000,180.520000L371.640000,179.140000L378.190000,173.970000L380.370000,175.180000L380.940000,174.260000L380.080000,172.540000L379.970000,171.330000L378.880000,171.040000L378.310000,170.040000L380.030000,169.870000L382.030000,168.430000L381.570000,166.940000L381.800000,165.500000L383.520000,167.860000L384.900000,167.630000L385.240000,169.410000L387.940000,170.850000L389.490000,169.470000L389.780000,167.060000L391.220000,167.170000L392.020000,166.020000L390.530000,163.490000L387.770000,162.490000L386.970000,164.490000L386.340000,162.190000L377.890000,155.190000L370.670000,154L370.840000,156.870000L370.150000,158.080000L368,156.810000L368.860000,156.640000L369.490000,154.860000L368.230000,154.460000L366.930000,156L362.220000,156.170000L359.920000,155.170000L359.060000,152.070000L355.060000,150.980000L351.870000,152L351.300000,150.510000L348.890000,149.510000L348.660000,147.270000L339.290000,144.800000L337.160000,147.210000L338.310000,148.760000L332.100000,150.020000L330.100000,149.160000L329.100000,152.840000L326.170000,149.450000C327.170000,144.790000,327.170000,144.620000,327.170000,144.790000C327.170000,144.960000,324.760000,142.150000,324.760000,142.150000L323.900000,143.240000L322.750000,142.240000L320.110000,141.720000L319.710000,144.650000L315.230000,143.900000L315.060000,142.350000L308.390000,141.660000L303.620000,144.660000L302.180000,144.090000L301.890000,142.650000L306.090000,140.290000L306.200000,139.290000L309.820000,136.530000L310.620000,133.660000L308.150000,129.180000L304.240000,128.780000L302.240000,129.700000L303.400000,128L300.400000,127.480000L302.530000,125.700000L299,124.210000L296.530000,127.540000L296.870000,130.470000L295.320000,130.410000L294.800000,131.410000L293.310000,131.810000L291.990000,132.380000L291.070000,131.290000L288.430000,132.440000L288.200000,133.530000L283.830000,134.160000L280.440000,138.530000L282.280000,141.980000L281.710000,142.780000L279.580000,141.400000C274.520000,142.260000,274.520000,142.090000,274.520000,142.260000C274.520000,142.430000,274.690000,146.110000,274.690000,146.110000L276.690000,147.600000L277.030000,151.390000L278.290000,153.460000L277.140000,154.780000L275.140000,148.460000C272.780000,146.050000,272.960000,146.160000,272.780000,146.050000C272.206148,146.009685,271.629648,146.029796,271.060000,146.110000L270.600000,149.500000L272.270000,151.110000L269.050000,150.650000L269.160000,148.930000L269.960000,147.210000L268.350000,143.820000L267.830000,144.740000L268.580000,147.500000L267.320000,148.500000L267.090000,149.650000L268.010000,152.240000L267.550000,155L267.890000,157.760000L270.300000,157.130000L271.220000,160.130000L268.520000,158.580000L268,159.790000L268.520000,161.340000L266.220000,166.230000L263,165.080000L265,163.930000L266.780000,160.370000L265.980000,157.840000L266.090000,151.400000L265.340000,150.480000L265.800000,149.330000L266.260000,146.460000L264.710000,145.140000L262.810000,145.310000L262.060000,149.390000L260.220000,150.940000L260.390000,155.940000L262.690000,158.300000L262,159.680000L260,158L259.770000,160.760000L253.400000,168L252.940000,181.880000L254.700000,185.790000L252.400000,194.380000L244,196.210000L241.900000,199L243.900000,203.450000C244.900270,203.649078,245.880813,203.936882,246.830000,204.310000C246.770000,204.480000,246.720000,206.210000,246.720000,206.210000L244.720000,207.470000L248,212.360000L246.850000,213.620000L248,215.400000L247.890000,219.600000L245.360000,219.710000L242.260000,217.810000L243,213Z" fill="rgb(42,85,125)" stroke="none" stroke-width="1"/><path id="s79" d="M296.860000,115.330000C296.780000,115.560000,294.860000,122.080000,294.860000,122.080000L295,124L298.220000,121.850000L300.900000,121.080000L301.130000,119.080000L299.290000,116.320000L298.520000,117.160000L297.830000,114.940000Z" fill="rgb(42,85,125)" stroke="none" stroke-width="1"/><path id="s81" d="M293.340000,111.650000C292.800000,110.580000,293.030000,110.420000,292.800000,110.580000C292.570000,110.740000,290.190000,111.810000,290.190000,111.810000L288.810000,114.190000L290.730000,117.560000L293.410000,118.400000L294.790000,117.860000L294.790000,115.860000L295.860000,113.100000L294.630000,111.640000Z" fill="rgb(42,85,125)" stroke="none" stroke-width="1"/><polygon id="s83" points="288.510000,104.370000 287.430000,106.670000 288.050000,107.970000 286.280000,109.510000 288.970000,111.500000 290.500000,109.970000 292.950000,109.580000 292.570000,108.050000 293.570000,107.360000 292.950000,106.130000 291.270000,103.370000 289.580000,104.600000 288.510000,104.370000" fill="rgb(42,85,125)" stroke="none" stroke-width="1"/><path id="s85" d="M336.880000,131.430000C336.730000,131.660000,334.960000,133.580000,334.960000,133.580000L335.500000,134.880000L334.350000,136.490000L336.960000,137.790000L340.260000,137.330000L341.180000,137.870000L343.330000,137.260000L344.100000,134.810000L342.480000,133L341.870000,134.760000L340.870000,134.760000L340.870000,132.610000L339.490000,131.770000L339.110000,133.770000L338.420000,133.690000Z" fill="rgb(42,85,125)" stroke="none" stroke-width="1"/><path id="s87" d="M327.070000,222.580000L330.900000,219.580000L334.120000,220.040000L335.190000,218.200000L337.570000,216.970000L338.570000,213.670000L337.650000,210.370000L339.650000,209.220000L340.260000,207.380000C343.790000,208.910000,343.710000,209.140000,343.790000,208.910000C344.335281,208.354257,344.923794,207.842652,345.550000,207.380000L345.010000,209.600000L342.790000,210.440000L341.720000,211.900000L340.340000,210.830000L339.420000,211.140000L341.030000,215.360000L339.650000,216.740000L339.110000,221.190000C336.580000,221.880000,336.810000,221.880000,336.580000,221.880000C336.350000,221.880000,334.740000,222.030000,334.740000,222.030000L333.130000,223.790000L332.130000,223.020000L331,224L329.700000,223.160000L329.700000,224.690000L328.320000,227.530000L326.790000,226.990000Z" fill="rgb(42,85,125)" stroke="none" stroke-width="1"/><polygon id="s89" points="289.350000,255.090000 290.500000,254.400000 291.420000,255.240000 292.650000,254.930000 296.100000,258.540000 299.850000,260.910000 300.240000,262.060000 301.690000,262.680000 301.850000,266.430000 300.700000,267.510000 296.710000,264.440000 294.180000,259.070000 289.350000,255.090000" fill="rgb(42,85,125)" stroke="none" stroke-width="1"/><path id="s91" d="M301.690000,268.270000L303.070000,267.580000L306.830000,267.890000L307.980000,267.280000C309.630089,268.056233,311.318984,268.747145,313.040000,269.350000C313.350000,269.270000,320.940000,268.970000,320.940000,268.970000L321.400000,270.120000L313.730000,271.500000L310.280000,270.430000L308.060000,270.970000L306.450000,269.820000Z" fill="rgb(42,85,125)" stroke="none" stroke-width="1"/><polygon id="s93" points="304.680000,259.150000 306.140000,262.140000 308.820000,264.360000 311.050000,264.060000 311.890000,264.750000 313.040000,262.600000 314.570000,261.140000 313.880000,257.080000 315.110000,255.470000 313.120000,253.940000 309.590000,257.540000 307.750000,257.690000 307.130000,259.230000 305.990000,258.380000 304.680000,259.150000" fill="rgb(42,85,125)" stroke="none" stroke-width="1"/><path id="s95" d="M317.330000,240.220000C317.330000,240.450000,316.640000,244.130000,316.640000,244.130000C316.640000,244.130000,317.480000,247.270000,317.710000,246.970000C317.940000,246.670000,319.470000,245.360000,319.470000,245.360000L318.240000,243.750000L319.010000,243.140000L319.470000,242.830000L318.930000,240.760000Z" fill="rgb(42,85,125)" stroke="none" stroke-width="1"/><path id="s97" d="M320.400000,245.660000C320.550000,247.040000,320.320000,247.040000,320.550000,247.040000C320.780000,247.040000,321.470000,247.810000,321.470000,247.810000L321.160000,248.730000L319.860000,248.120000L319.400000,246.660000L317.940000,247.660000L319.090000,250.730000L321.090000,251.040000L323.090000,249.660000L322.780000,247.360000L321.250000,245.440000Z" fill="rgb(42,85,125)" stroke="none" stroke-width="1"/><polygon id="s99" points="320.320000,253.250000 323.230000,250.950000 324.080000,252.410000 322.930000,253.170000 323.230000,254.930000 320.320000,253.250000" fill="rgb(42,85,125)" stroke="none" stroke-width="1"/><path id="s101" d="M316.330000,259.760000C316.330000,260.070000,316.020000,264.760000,316.020000,264.760000L317.630000,267.670000L318.320000,266.750000L317.780000,263.910000L319.240000,266.360000L320.770000,266.590000L320.690000,265.060000L319,264L318.920000,262.390000L320.760000,262.160000L320.380000,261.390000L317.620000,262L318.390000,260.540000L321.920000,260.620000L323.070000,259.010000L322,258.090000L321,259.240000L318.090000,258.930000Z" fill="rgb(42,85,125)" stroke="none" stroke-width="1"/><polygon id="s103" points="262.670000,143.700000 264.050000,142.240000 265.740000,143.080000 264.970000,144.230000 263.360000,144.540000 262.670000,143.700000" fill="rgb(42,85,125)" stroke="none" stroke-width="1"/><polygon id="s105" points="338.820000,142.150000 340.080000,141.220000 341.350000,141.220000 341.750000,142.320000 342.500000,142.600000 341.630000,144.440000 339.560000,143.530000 338.820000,142.150000" fill="rgb(42,85,125)" stroke="none" stroke-width="1"/><path id="s107" d="M345.080000,134.840000L344.910000,136.510000L346.750000,137.080000L348.750000,138C349.125291,137.633262,349.460510,137.227647,349.750000,136.790000C349.674825,136.421286,349.577990,136.057322,349.460000,135.700000L347.790000,135.240000L346.990000,135.990000L346.300000,134.990000Z" fill="rgb(42,85,125)" stroke="none" stroke-width="1"/><path id="s109" d="M379.520000,150.600000C379.520000,150.770000,379.750000,152.320000,379.750000,152.320000L380.440000,152.840000C380.960000,151.980000,380.780000,151.980000,380.960000,151.980000L383.370000,152.090000L384.060000,150.600000L382.740000,149.600000L380.960000,149.710000Z" fill="rgb(42,85,125)" stroke="none" stroke-width="1"/><path id="s111" d="M318.060000,233C318,233.170000,316.740000,234.840000,316.740000,234.840000L316.970000,236.390000L318.290000,236.790000L318.290000,235.300000L319.550000,233.060000Z" fill="rgb(42,85,125)" stroke="none" stroke-width="1"/><polygon id="s113" points="322.720000,264.040000 323.640000,265.300000 325.300000,265.700000 327.140000,264.670000 328.470000,264.960000 328.410000,263.980000 326.860000,263.520000 324.900000,264.320000 323.810000,263.580000 322.720000,264.040000" fill="rgb(42,85,125)" stroke="none" stroke-width="1"/><polygon id="s115" points="325.250000,258.400000 324.040000,261.110000 324.790000,262.030000 324.730000,263.350000 326.280000,262.660000 326.280000,261.340000 325.480000,260.820000 326.400000,260.300000 325.880000,258.060000 325.250000,258.400000" fill="rgb(42,85,125)" stroke="none" stroke-width="1"/><polygon id="s117" points="223.450000,220.860000 223.020000,221.660000 223.760000,222.210000 225.060000,221.630000 225.490000,220.660000 224.690000,220.480000 223.450000,220.860000" fill="rgb(42,85,125)" stroke="none" stroke-width="1"/><polygon id="s119" points="339.550000,263.730000 335.880000,262.450000 333.970000,263.900000 332.280000,263.600000 332.200000,261.300000 328.680000,261.140000 328.520000,262.140000 330.440000,263.210000 329.830000,263.670000 330.520000,264.670000 331.970000,265.280000 336.270000,266.890000 335.580000,268.810000 335.810000,269.880000 337.950000,269.730000 339.200000,269.960000 339.550000,263.730000" fill="rgb(42,85,125)" stroke="none" stroke-width="1"/></g><g id="s121"><path id="s123" d="M66,143.770000L61.710000,147.770000L61.710000,150.530000L64.160000,149.760000L61.860000,151.450000L62.470000,152.680000L66.150000,152.530000L68.300000,152.840000L67.990000,154.370000L64.730000,154L62.890000,154.310000L64,156.500000L67.220000,157.270000L67.220000,158.340000L70.130000,159.110000L72.860000,158L74.090000,155.700000L76.240000,158.610000L79.460000,158.500000L79,155.660000L80.380000,155.890000L80.610000,153.890000L76.240000,151.480000L75.440000,145.620000L76.440000,142.170000C74.370000,141.830000,74.440000,141.480000,74.370000,141.830000C73.886956,142.538111,73.348608,143.206867,72.760000,143.830000L72.990000,149.460000L71.840000,149.350000L70.840000,144.520000L68.840000,145.520000Z" fill="rgb(42,86,123)" stroke="none" stroke-width="1"/><polygon id="s125" points="54.380000,140.020000 58.750000,138.750000 60.130000,140.940000 63.120000,140.020000 64.840000,142.780000 60.590000,145.770000 60.360000,147.610000 59.210000,150.480000 56.340000,151.520000 53.460000,146.340000 55.410000,142.780000 54.380000,140.020000" fill="rgb(42,86,123)" stroke="none" stroke-width="1"/><polygon id="s127" points="80.250000,142.090000 83.590000,140.590000 84.050000,143.580000 83.240000,144.160000 84.510000,145.770000 84.510000,149.220000 82.210000,151.170000 78.640000,146.690000 78.530000,144.620000 80.250000,144.850000 80.830000,143.700000 80.250000,142.090000" fill="rgb(42,86,123)" stroke="none" stroke-width="1"/><path id="s129" d="M105.510000,146L105.510000,148.180000L104.900000,149.330000L104.360000,147.640000L103.210000,146.640000L102.060000,149.020000C101.600000,147.100000,101.600000,147.330000,101.600000,147.100000C101.948220,146.403602,102.349399,145.734970,102.800000,145.100000L102.140000,144.660000L100.140000,142.050000L99.010000,142.050000L97.010000,145.300000L97.780000,146.830000L96.940000,148.210000L98.540000,150L97.470000,151L96,149.140000L96.080000,144.540000C97.640000,142.020000,97.250000,142.710000,97.640000,142.020000L94.320000,141.930000L91.710000,149L93.400000,153.450000L97.540000,155.900000L96.160000,159.430000L95.390000,162.190000L93.700000,158.190000L89.870000,154.660000L89.410000,152.660000L87.410000,148.370000L87.870000,145.610000L90.630000,144.840000L91.550000,141.160000L86.490000,140.700000L86.030000,147.600000L84.960000,151.600000L85.420000,155.600000L87.570000,157.440000L87.880000,160.510000L86,162.790000L80.630000,161.100000L78.480000,162.170000L75.110000,160.170000L72.500000,161.550000L70.050000,160.630000L66.220000,162.160000L63.310000,161.850000L66.070000,159.850000L64.540000,158.320000L57.180000,155.410000L54.880000,157.100000L54,154.200000L52.470000,153.130000L50.780000,155.280000L48.940000,153.590000L42.190000,156.660000L41.420000,158.190000L38.820000,156L25.480000,152.630000L20,151.290000L13.410000,156.350000L9.530000,160L13.820000,163.530000L15.820000,164.910000L14.590000,166.440000L11.060000,164.910000L8,166.770000L11.070000,170.770000L14.600000,170.310000L16,169.070000L16,172.290000L10.630000,174.440000L12.160000,179.650000L13.230000,181.490000L14.610000,181.180000L15.220000,183.630000L19.670000,183.320000L19.670000,185.620000L12.620000,190.220000L14.150000,190.990000L20,187.630000L25.520000,182.420000L23.220000,181.190000L25.520000,180.270000L27,177.350000L33,180.110000L41.890000,183.640000L45.890000,191.150000L49.110000,191.460000L51.870000,197.130000L51.870000,199.580000C55.240000,203.260000,55.240000,202.800000,55.240000,203.260000C55.240000,203.720000,55.700000,213.690000,55.700000,213.690000L61.220000,222.580000L63.220000,224.580000L66,230.250000L66.150000,231.780000L69.520000,235.920000L71.210000,236.380000L70.440000,234.080000L66.150000,227.490000L65,225L67,225.610000L68.690000,229.290000L75,235.920000L75.610000,239.920000L84.810000,244.210000L88.180000,243.290000L92.320000,247.290000C94.930000,246.980000,94.770000,246.520000,94.930000,246.980000C95.570339,247.814613,96.290401,248.584912,97.080000,249.280000L96.310000,251.120000L101.980000,253.420000L103.210000,252.040000L104.210000,252.150000L104.780000,251.230000L103.710000,250.230000L101.490000,250.920000L99.340000,249.540000L99.420000,244.540000L98.420000,243.160000L93.630000,243.160000L95,239.530000L95.540000,238.920000L95.540000,237.160000L91.250000,237.390000L91.250000,239.080000L90.250000,241.610000C87.570000,240.840000,87.800000,240.840000,87.570000,240.840000C86.780944,240.503183,86.012887,240.119155,85.270000,239.690000L83.510000,235.780000L84.350000,232.780000L84.200000,230.330000L87.110000,227.720000L92.860000,228.180000L93.090000,226.420000L96.540000,226.570000L97.150000,227.720000L98.450000,227.260000L99.520000,227.800000L99.440000,229.950000L101.050000,232.860000L102.660000,232.860000L103.120000,230.710000L102.050000,224.880000L108.110000,220.360000L107.340000,217.980000L109.720000,213.380000L113.400000,212.610000L113.250000,210.390000L115.320000,208.240000L117.160000,207.550000L119.230000,204.940000L119.610000,200.880000C118.230000,199.880000,118.460000,199.810000,118.230000,199.880000C118,199.950000,116.010000,201.030000,115.780000,201.180000C115.550000,201.330000,111.780000,205.090000,111.780000,205.090000L110.860000,204.550000L117.680000,198.110000L124.960000,198.490000L125.730000,196.730000L127.570000,196.580000L129.100000,195.510000L128.720000,193.440000L127.060000,192L125.300000,193.300000L123.190000,192.650000L126.560000,190.890000L124.150000,190.350000L122.620000,188.240000L123.310000,186.550000L119.630000,180.720000L117.480000,180.410000L117.020000,183.320000L114.410000,183.170000L112.720000,178.420000L106.280000,174.890000L104.440000,182.890000L106.440000,187.340000L106.130000,188.870000L103.370000,191L104.290000,195.910000L100.920000,194.380000L100,189.170000L96,189.630000L87.110000,182.730000L88.030000,176.730000L92.630000,171.210000L94.470000,167.380000L101.060000,164.310000L101.370000,158.640000L101.370000,155.730000L105.510000,154.810000L106.580000,158.490000L109.490000,161.250000L114.240000,164.160000L113.010000,166.160000L110.710000,163.860000L108,165.700000L109.070000,167.700000L106.310000,168.620000L105.390000,171.380000L108.610000,171.380000L110.140000,171.230000L112.590000,175.230000L119.340000,177.840000L119.650000,172.630000L115.820000,166.500000L116.740000,164.970000L119.350000,168.650000L122.880000,164.510000L120.120000,162.670000L117.210000,159.300000L115.520000,156.390000L116.520000,155.930000L116.600000,154.700000L115.760000,154.090000L114.570000,155.200000L113.570000,155.430000L113.680000,154.320000L114.830000,153.630000L114.830000,152.830000L112.720000,151.450000L112.110000,152.180000L112.190000,153.870000L110.810000,153.030000L111.540000,151.030000L111.080000,149.650000L110.080000,149.110000L109.810000,151.110000L108.580000,150.340000L109.190000,148.500000L108.810000,147.430000L107.660000,148.430000L107.470000,149.270000L106.670000,148.890000L106.670000,148.090000C107.129053,147.836582,107.564169,147.542041,107.970000,147.210000C107.970000,147.100000,107.660000,146.140000,107.660000,146.140000L106.740000,145.570000Z" fill="rgb(42,86,123)" stroke="none" stroke-width="1"/><path id="s131" d="M86,127.060000C85.290000,127.540000,84.470000,128.130000,84.470000,128.130000L84.850000,129.660000L86.920000,131.270000L88.610000,131.580000L89.610000,133.270000L89.340000,137L90.340000,138.690000L96.700000,139.300000L99.770000,138.460000L101.230000,139.070000L103.610000,138.230000L103.300000,134.400000L99.760000,133L96.160000,135L92.560000,134.080000L91.950000,132.390000L92.870000,129.860000L95.630000,131.320000L99.230000,131.090000L101.530000,130.710000L102.070000,131.860000L103.140000,132.010000L105.140000,129.790000L105.060000,128.260000L101.380000,125.960000L98.540000,126.730000L96.780000,126.580000L95.480000,123.360000L93.100000,124.660000L93.250000,125.890000L94.860000,126.890000L94.320000,127.430000L92.250000,127.970000L89.870000,130.120000L88.640000,129.810000L88.260000,128.740000Z" fill="rgb(42,86,123)" stroke="none" stroke-width="1"/><polygon id="s133" points="69.160000,133.980000 67.720000,131.620000 66.400000,131.910000 66.050000,130.650000 64.960000,130.530000 62.600000,134.610000 64.100000,136.510000 68.870000,135.650000 69.160000,136.680000 65.590000,138.520000 67.140000,140.080000 70.770000,137.090000 73.760000,137.140000 75.420000,136.050000 75.770000,133.060000 74.220000,131.450000 73.760000,132.890000 72.840000,132.140000 72.200000,129.610000 70.590000,127.940000 70.190000,130.420000 71.280000,132.200000 70.540000,132.890000 71.630000,134.100000 69.160000,133.980000" fill="rgb(42,86,123)" stroke="none" stroke-width="1"/><path id="s135" d="M57.310000,131.510000C58.860000,130.300000,58.690000,130.510000,58.860000,130.300000C59.030000,130.090000,61.100000,126.300000,61.100000,126.300000L62.940000,126.870000L63.170000,125.610000L64.780000,126.180000L64.440000,129.800000L63.180000,130.490000L63.120000,131.490000L62.120000,131.780000L61.550000,129.310000C60.750000,129.770000,60.750000,129.540000,60.750000,129.770000C60.750000,130,61.150000,132.070000,61.150000,132.070000L59.540000,133.910000L57.470000,132.910000Z" fill="rgb(42,86,123)" stroke="none" stroke-width="1"/><path id="s137" d="M76.230000,129.840000C76.400000,129.840000,77.840000,129.730000,77.840000,129.900000C77.840000,130.070000,78.640000,132.310000,78.640000,132.310000L79.560000,132.250000L79,131L79.520000,129.390000L83.140000,129.730000L84,133.180000L83.710000,136.690000L80.890000,137.030000L80.370000,136.460000L80.430000,134.970000L81.350000,133.970000L78.350000,134.970000L76.680000,132.210000L77.080000,131.520000Z" fill="rgb(42,86,123)" stroke="none" stroke-width="1"/><polygon id="s139" points="85.490000,134.790000 86.750000,133.690000 88.420000,135.530000 88.250000,138.240000 86.980000,138.290000 85.260000,137.320000 84.970000,136.340000 85.950000,135.820000 85.490000,134.790000" fill="rgb(42,86,123)" stroke="none" stroke-width="1"/><path id="s141" d="M87.330000,103L86.930000,104L88.190000,104.170000C87.850000,105.550000,88.020000,105.610000,87.850000,105.550000C87.680000,105.490000,86.990000,105.150000,86.850000,105.260000C86.583816,105.793821,86.372726,106.353378,86.220000,106.930000L87.770000,107.270000L87.940000,108.420000L86.390000,108.360000L85.590000,107.560000L84.840000,108.130000L85.360000,109.510000L84.840000,110.030000L85.130000,110.890000L85.990000,111.230000L87.140000,110.540000L86.800000,112.260000L84.900000,112.150000L85.130000,113.870000L86.740000,113.980000L86.220000,114.840000L85.590000,115.180000L86.280000,116.440000L87.950000,116.500000L89.440000,115.240000L89.780000,116.450000L88.110000,118.060000L89.260000,120.880000L91.260000,122.430000L92.520000,121.630000L93.840000,122.030000L94.640000,117.830000L97.340000,115.700000L96.480000,114.320000L95,113.630000L94.660000,109.260000L93.740000,108.860000L93.740000,111.390000L92.130000,110.240000L92.880000,108.980000L91.390000,108.180000L90,103.910000L88.220000,102.650000L86.960000,103.170000" fill="rgb(42,86,123)" stroke="none" stroke-width="1"/><path id="s143" d="M75.710000,116.330000C75.650000,116.500000,75.020000,118.110000,75.020000,118.110000L77.090000,118.450000C77.660000,119.890000,77.780000,119.710000,77.660000,119.890000C77.540000,120.070000,75.990000,120.520000,75.940000,120.690000C76.113253,121.230106,76.344607,121.749815,76.630000,122.240000L79.960000,122.130000L82.090000,125.290000L82.950000,124.140000L81.800000,121.730000L82.030000,118.910000C81.214375,118.183736,80.348928,117.515437,79.440000,116.910000C79.270000,116.970000,78.290000,117.480000,78.290000,117.480000L77.540000,115.700000Z" fill="rgb(42,86,123)" stroke="none" stroke-width="1"/><polygon id="s145" points="71.510000,122.480000 68.930000,122.710000 67.320000,123.520000 67.030000,125.240000 68.120000,127.370000 70.770000,126.330000 70.940000,124.900000 69.500000,124.320000 69.730000,123.750000 70.940000,123.460000 71.510000,122.480000" fill="rgb(42,86,123)" stroke="none" stroke-width="1"/><polygon id="s147" points="74.500000,124.030000 74.960000,126.740000 76.750000,127.770000 78.070000,127.250000 75.650000,123.290000 74.500000,124.030000" fill="rgb(42,86,123)" stroke="none" stroke-width="1"/><path id="s149" d="M83.820000,118.800000C83.820000,118.970000,83.300000,121.440000,83.300000,121.440000L84.680000,122.070000L83.880000,123.070000L84.400000,124.160000L87,123.110000L87.750000,121.900000Z" fill="rgb(42,86,123)" stroke="none" stroke-width="1"/><path id="s151" d="M100.670000,119.200000L98.430000,118.450000C97.727161,118.505119,97.032776,118.639300,96.360000,118.850000C96.300000,119.020000,94.920000,121.210000,94.920000,121.210000L95.920000,122.820000L97.530000,121.900000L97.240000,123.680000L98.040000,125.290000L99.710000,124.200000L99.710000,122.650000L100.710000,122.760000L100.770000,124.430000L102.440000,125.430000L102.900000,124.630000L104.050000,126.180000L105.600000,125.180000L105.080000,123L106.080000,123.110000L107.860000,121.330000L108.260000,119.330000L107.460000,117.720000L106.200000,117.550000L105.200000,119.450000L104.450000,118.650000L105.200000,116.650000L106.060000,116.250000L108.470000,117.510000L109.220000,116.710000L107.440000,115.390000L109.680000,115.050000L109.850000,113.840000L108,112.710000L109.090000,112.140000L111.160000,113.230000L111.270000,114.150000L113.270000,113.150000L112.580000,111.940000L113.440000,111.310000L112.290000,109.410000L114.530000,109.470000L115.330000,107.290000L117.860000,104.190000L119.760000,103.190000L119.470000,101.520000C118.210000,101.520000,118.380000,101.350000,118.210000,101.520000L115,104.830000L113.390000,104.660000L113.160000,103.660000L116.260000,101.760000L116.090000,100.760000L118.090000,100.420000L118.660000,99.100000L119.980000,99.790000L122.740000,96.230000L122.970000,94.390000L121.710000,92.320000L120.500000,92.720000C120.160000,91.460000,120.390000,91.460000,120.160000,91.460000C119.428817,91.151819,118.680985,90.884736,117.920000,90.660000C117.750000,90.770000,115.680000,93.190000,115.680000,93.190000L114.880000,92.960000L116.780000,90.260000L114.880000,89.690000L113.730000,90.320000L113.500000,89.170000L111.140000,89.280000L109.930000,90.200000L110.330000,92.440000C109.864932,91.644389,109.325880,90.894402,108.720000,90.200000C108.550000,90.260000,106.130000,90.200000,106.130000,90.200000L108.130000,92.330000L107.130000,93.650000L106.210000,91.470000L104.430000,90.840000L101.900000,91.070000L102.010000,92.160000L104.080000,92.620000L103.450000,93.770000L100.860000,93.140000L100.230000,94.860000L103.330000,97.160000L104.080000,99.160000L102.700000,99.330000L101.320000,96.690000L97.760000,94.280000L96.320000,94.680000L97.240000,95.770000L95.690000,96.290000L97.500000,98L94.220000,97.540000C92.620000,99,92.790000,98.910000,92.620000,99C92.450000,99.090000,90.620000,99,90.620000,99L89.870000,100.670000L91,101.780000L93.070000,100.520000L93.640000,101.040000L91.920000,102.940000L92.320000,103.940000L94.450000,102.790000L92.450000,105.260000L94.450000,105.370000L95.710000,105.140000L97.490000,103.930000L97.830000,104.730000L96.050000,106.220000L93.520000,105.760000L93.120000,106.450000L93.980000,107.660000L96.980000,108.290000L99.450000,108.230000L102.090000,107.310000L103.530000,105.700000L103.240000,104.150000L104.790000,103.400000L105.310000,105.870000L106.460000,106.330000L104.740000,108.330000L104.340000,109.130000L99.630000,109.650000L100.550000,112.120000L102.160000,112.230000L102.220000,113.950000L101.420000,114.950000L99.010000,110.120000L96.010000,109.320000L96.120000,111.850000L98,114.600000L99,117.930000L101.530000,117.760000L101.930000,118.850000Z" fill="rgb(42,86,123)" stroke="none" stroke-width="1"/><path id="s153" d="M134,159.180000L131.390000,160.180000L130.700000,162.790000C133,169.300000,133,169,133,169.300000C133,169.600000,133.380000,172.830000,133.380000,172.830000L138.440000,179.420000C140.050000,179.110000,139.970000,178.880000,140.050000,179.110000C140.329557,179.587508,140.636746,180.048291,140.970000,180.490000L142.660000,180.260000L144.580000,173.510000L144.430000,168.140000L146.880000,167.070000L151.880000,164.390000L153.110000,160.710000C158.860000,159.250000,158.550000,159.250000,158.860000,159.250000C160.325527,158.202421,161.734190,157.077492,163.080000,155.880000L164.150000,154.350000L161.550000,153L158.250000,155L157.710000,153.620000L160.710000,152.010000L160.940000,149.940000C162.170000,149.860000,162.090000,149.630000,162.170000,149.860000C162.250000,150.090000,163.400000,152.080000,163.400000,152.080000L165.320000,152L165.470000,149.620000L160.790000,145.940000L161.250000,141.650000L164.850000,142.880000L166.610000,142.040000L165.610000,138.360000L167.830000,133.680000L167.060000,131.230000L163.760000,129.470000L164.450000,127.320000L166.750000,127.400000L168.050000,126.100000L164.450000,123.340000L167.290000,112.910000L169.440000,111.840000C168.600000,110.460000,168.830000,110.380000,168.600000,110.460000C168.370000,110.540000,166.380000,111.690000,166.380000,111.690000L166.300000,109.930000L167.450000,109.320000L170.450000,109.700000L171.290000,108.400000L170.060000,107.790000C166.840000,107.640000,166.610000,107.710000,166.840000,107.640000C167.070000,107.570000,172.210000,105.260000,172.210000,105.260000L174.130000,102.500000L174.900000,100.200000L169.530000,98.590000L168.230000,102.500000C164.010000,106.180000,164.230000,105.950000,164.010000,106.180000C163.790000,106.410000,161.400000,108.330000,161.400000,108.330000L165,100.590000L164.310000,97.220000L161.780000,98.140000L156.490000,99.060000L152.430000,100.520000L156.880000,97.450000L159.950000,96.450000L163,96.450000L165,95.450000L166.070000,93.690000L163.920000,90.850000L160.700000,91.920000L161.700000,89.310000L159.630000,89.620000L158.330000,90L154.650000,90.380000L152.890000,89.840000L155.730000,88.230000L158.180000,87.310000L160.560000,87.620000L159.870000,84.550000L154.810000,84.860000L150.060000,85.170000L146.690000,86.630000L147.230000,88.320000L147.080000,90.850000L145.080000,90.390000L142.550000,87.550000L140.100000,88.240000L140.330000,90.310000L143.170000,91.540000L143.400000,92.310000L140.560000,92.160000L141.400000,94.840000L140.400000,97.220000L140.090000,100.520000L138.710000,97.380000L136.410000,95.690000L135.490000,93.770000L133.490000,94.920000L135,99.080000L134.230000,100.690000L132.160000,98.160000L131.240000,101.380000L130.240000,101.610000L130.240000,97.930000L129.240000,95.480000L125.560000,97.400000L125.220000,99L126.980000,102.910000L124.220000,99.690000C122.690000,100.690000,122.690000,100.460000,122.690000,100.690000C122.690000,100.920000,123.300000,102.990000,123.300000,102.990000L123.070000,105.210000L120.690000,104.440000L116.630000,109.730000L118.470000,111.490000L120.160000,111.410000L118.700000,112.790000L119.160000,115.240000L117.630000,117.690000L115.020000,117.540000L113.950000,119.300000L110.420000,120.220000L111.720000,124.590000L114.480000,125.890000L117.320000,124.740000L117.780000,126.270000L112.340000,126.730000L112.190000,129.260000L114.800000,129.800000L114.110000,131.410000L117.110000,133.100000L120.870000,130.800000L125.780000,133.870000L125.700000,136.550000L128.230000,139.310000L129.760000,146.820000L128.210000,150L129.740000,151.230000L131.200000,150.850000L131.740000,148.780000L133.270000,150.390000L133,152L134,153.200000L130.550000,152.590000L129.940000,153.740000L132,155.200000L134.610000,155.200000Z" fill="rgb(42,86,123)" stroke="none" stroke-width="1"/><path id="s155" d="M129.360000,196.520000L127.600000,198.520000C125.380000,202.660000,125.150000,202.660000,125.380000,202.660000L128.600000,202.660000L128.520000,204.270000L130.740000,202.510000L131.120000,200.360000L130.430000,199.060000L129.050000,199.600000L128.970000,198.910000L129.740000,197.530000Z" fill="rgb(42,86,123)" stroke="none" stroke-width="1"/><path id="s157" d="M117.400000,208.320000L119.810000,206.940000L120.670000,204.070000L122.340000,203.960000C122.340000,205.450000,122.110000,205.570000,122.340000,205.450000C122.777004,205.138671,123.197568,204.804890,123.600000,204.450000L124.860000,205.770000L122.960000,207.770000L121.350000,207.940000L120.430000,209.660000L118.430000,210.230000L117.050000,209.710000Z" fill="rgb(42,86,123)" stroke="none" stroke-width="1"/><path id="s159" d="M129.870000,204.530000L131.310000,203.150000L132.310000,203.440000L132.310000,205L131.160000,206.150000Z" fill="rgb(42,86,123)" stroke="none" stroke-width="1"/><polygon id="s161" points="97.540000,237.150000 98.380000,236.310000 100.990000,235.230000 104.670000,236.530000 108.810000,238.680000 108.660000,240.140000 105.210000,239.990000 103.830000,238.150000 100.990000,237.070000 99.920000,237.910000 97.540000,237.150000" fill="rgb(42,86,123)" stroke="none" stroke-width="1"/><path id="s163" d="M109.810000,240.910000C110.088316,240.387850,110.423700,239.898188,110.810000,239.450000L115.100000,239.530000L115.100000,240.910000L113.260000,240.830000L111.570000,241.520000Z" fill="rgb(42,86,123)" stroke="none" stroke-width="1"/><polygon id="s165" points="116.710000,240.520000 119.470000,239.990000 119.930000,240.830000 118.550000,241.980000 116.940000,241.750000 116.710000,240.520000" fill="rgb(42,86,123)" stroke="none" stroke-width="1"/><polygon id="s167" points="104.480000,240.790000 105.860000,240.600000 107.200000,241.290000 106.930000,242.020000 105.740000,241.670000 104.360000,241.940000 104.480000,240.790000" fill="rgb(42,86,123)" stroke="none" stroke-width="1"/><path id="s169" d="M104.440000,231.360000C104.742055,231.465430,105.036145,231.592424,105.320000,231.740000L105.820000,232.200000L106.430000,232.010000C106.301532,231.483251,106.120629,230.970693,105.890000,230.480000L104.360000,230.400000Z" fill="rgb(42,86,123)" stroke="none" stroke-width="1"/><path id="s171" d="M104.520000,233L105.780000,233L105.630000,234L106.050000,234.800000L105.050000,234.990000Z" fill="rgb(42,86,123)" stroke="none" stroke-width="1"/><polygon id="s173" points="108.470000,234.200000 107.660000,235.040000 108.160000,235.920000 109.420000,236.110000 109.650000,235.350000 108.960000,235.120000 108.770000,234.120000 108.470000,234.200000" fill="rgb(42,86,123)" stroke="none" stroke-width="1"/><polygon id="s175" points="121.110000,241.630000 122.150000,241.590000 122.110000,242.630000 120.810000,243.010000 121.110000,241.630000" fill="rgb(42,86,123)" stroke="none" stroke-width="1"/><polygon id="s177" points="122.300000,244.010000 123.070000,243.400000 123.420000,245.310000 122.500000,244.970000 122.300000,244.010000" fill="rgb(42,86,123)" stroke="none" stroke-width="1"/><polygon id="s179" points="122.840000,246.390000 123.530000,245.970000 124.030000,246 124.220000,246.920000 123.220000,247.080000 122.840000,246.390000" fill="rgb(42,86,123)" stroke="none" stroke-width="1"/><path id="s181" d="M96.930000,166.640000C96.870000,166.870000,96.300000,168.250000,96.300000,168.250000L96.820000,169.110000C96.550756,169.480433,96.300435,169.864257,96.070000,170.260000C96.010000,170.430000,94.750000,172.790000,94.750000,172.790000L96.880000,172.100000L97.110000,173.650000L98.660000,172.900000L99.180000,171.230000L99.980000,171.460000L100.040000,172.260000L101.530000,172.660000L102.390000,171.910000L101.820000,170.300000L100.560000,169.780000L99.810000,168.230000L98.490000,168.340000L98,166.640000Z" fill="rgb(42,86,123)" stroke="none" stroke-width="1"/><polygon id="s183" points="102.500000,141.740000 103.020000,143.990000 105.150000,144.850000 107.330000,144.910000 106.360000,142.090000 104.860000,141.110000 102.500000,141.740000" fill="rgb(42,86,123)" stroke="none" stroke-width="1"/><polygon id="s185" points="81.400000,156.810000 82.670000,156.920000 82.730000,155.720000 83.760000,154.850000 84.910000,157.270000 85.830000,158.070000 85.720000,159.280000 81.630000,158.240000 81.400000,156.810000" fill="rgb(42,86,123)" stroke="none" stroke-width="1"/><polygon id="s187" points="106.130000,159.680000 105.150000,161.640000 105.950000,162.960000 107.330000,163.020000 107.910000,161.920000 107.910000,160.600000 106.130000,159.680000" fill="rgb(42,86,123)" stroke="none" stroke-width="1"/></g></g></svg>