<svg id="eAh2KE1Og7t1" xmlns="http://www.w3.org/2000/svg" xmlns:xlink="http://www.w3.org/1999/xlink" viewBox="0 0 400 400" shape-rendering="geometricPrecision" text-rendering="geometricPrecision"><defs><linearGradient id="eAh2KE1Og7t3-fill" x1="199.497297" y1="275.163054" x2="199.497297" y2="233.218281" spreadMethod="pad" gradientUnits="userSpaceOnUse"><stop id="eAh2KE1Og7t3-fill-0" offset="0%" stop-color="rgb(204,204,204)"/><stop id="eAh2KE1Og7t3-fill-1" offset="100%" stop-color="rgb(255,255,255)"/></linearGradient><linearGradient id="eAh2KE1Og7t4-fill" x1="199.497297" y1="275.280465" x2="199.497297" y2="227.201991" spreadMethod="pad" gradientUnits="userSpaceOnUse"><stop id="eAh2KE1Og7t4-fill-0" offset="0%" stop-color="rgb(26,26,26)"/><stop id="eAh2KE1Og7t4-fill-1" offset="100%" stop-color="rgb(74,74,74)"/></linearGradient><linearGradient id="eAh2KE1Og7t8-fill" x1="199.497297" y1="274.686176" x2="199.497297" y2="163.708930" spreadMethod="pad" gradientUnits="userSpaceOnUse"><stop id="eAh2KE1Og7t8-fill-0" offset="0%" stop-color="rgb(204,204,204)"/><stop id="eAh2KE1Og7t8-fill-1" offset="100%" stop-color="rgb(255,255,255)"/></linearGradient><linearGradient id="eAh2KE1Og7t14-fill" x1="199.493830" y1="249.528145" x2="199.493830" y2="117.325302" spreadMethod="pad" gradientUnits="userSpaceOnUse"><stop id="eAh2KE1Og7t14-fill-0" offset="0%" stop-color="rgb(179,179,179)"/><stop id="eAh2KE1Og7t14-fill-1" offset="100%" stop-color="rgb(255,255,255)"/></linearGradient></defs><g id="eAh2KE1Og7t2"><path id="eAh2KE1Og7t3" d="M262.800000,273.800000C271.200000,263.800000,280.100000,255.400000,289.500000,248.500000C298.400000,241.900000,307.600000,236.800000,317.200000,233.200000C297.700000,236,281.600000,241.400000,268.700000,249.500000C266.200000,258.500000,264.100000,266.600000,262.500000,273.800000L262.800000,273.800000ZM69.600000,273.800000C69.200000,264,70.500000,255.200000,73.500000,247.500000C61.400000,240.600000,48.900000,239.300000,34.600000,240.900000C45.700000,247.400000,55,258.400000,62.500000,273.900000L69.600000,273.800000L69.600000,273.800000ZM329.400000,273.800000C329.800000,264,328.500000,255.200000,325.500000,247.500000C337.600000,240.600000,350.100000,239.300000,364.400000,240.900000C353.300000,247.400000,344,258.400000,336.500000,273.900000L329.400000,273.800000L329.400000,273.800000ZM136.200000,273.800000C127.800000,263.800000,118.900000,255.400000,109.500000,248.500000C100.600000,241.900000,91.400000,236.800000,81.800000,233.200000C101.300000,236,117.400000,241.400000,130.300000,249.500000C132.800000,258.500000,134.900000,266.600000,136.500000,273.800000L136.200000,273.800000L136.200000,273.800000Z" clip-rule="evenodd" fill="url(#eAh2KE1Og7t3-fill)" fill-rule="evenodd" stroke="none" stroke-width="1"/><path id="eAh2KE1Og7t4" d="M62.400000,273.800000C54.600000,258,45.300000,247,34.500000,240.800000C43.500000,250,49.200000,261,51.700000,273.800000L62.400000,273.800000L62.400000,273.800000ZM199.500000,227.200000C170.400000,244.100000,154.600000,259.600000,151.900000,273.800000L247.100000,273.800000C244.400000,259.600000,228.600000,244.100000,199.500000,227.200000ZM136.200000,273.800000C119.400000,254.100000,101.300000,240.500000,81.900000,233.200000C73,243.800000,68.900000,257.400000,69.600000,273.800000L136.200000,273.800000ZM262.800000,273.800000C279.600000,254.100000,297.700000,240.500000,317.100000,233.200000C326,243.800000,330.100000,257.400000,329.400000,273.800000L262.800000,273.800000L262.800000,273.800000ZM336.600000,273.800000C344.400000,258,353.700000,247,364.500000,240.800000C355.500000,250,349.800000,261,347.300000,273.800000L336.600000,273.800000L336.600000,273.800000Z" clip-rule="evenodd" fill="url(#eAh2KE1Og7t4-fill)" fill-rule="evenodd" stroke="none" stroke-width="1"/><path id="eAh2KE1Og7t5" d="M238.500000,269.200000C238.900000,269.600000,238.900000,270.100000,238.500000,270.500000C238.100000,270.900000,237.600000,270.900000,237.200000,270.500000C224.600000,258.400000,212.100000,252.300000,199.600000,252.300000C187.100000,252.300000,174.600000,258.400000,162,270.500000C161.600000,270.900000,161,270.800000,160.700000,270.500000C160.400000,270.200000,160.400000,269.600000,160.700000,269.200000C173.600000,256.700000,186.600000,250.500000,199.600000,250.500000C212.600000,250.500000,225.600000,256.700000,238.500000,269.200000Z" fill="rgb(255,255,255)" stroke="none" stroke-width="1"/><path id="eAh2KE1Og7t6" d="M310,269.300000C310.300000,269.700000,310.300000,270.300000,309.900000,270.600000C309.500000,270.900000,308.900000,270.900000,308.600000,270.500000C305.700000,266.900000,302.400000,264,298.700000,261.800000C295,259.600000,290.900000,258.200000,286.500000,257.500000C286,257.400000,285.700000,256.900000,285.700000,256.400000C285.800000,255.900000,286.300000,255.500000,286.700000,255.600000C291.400000,256.400000,295.700000,257.900000,299.600000,260.200000C303.500000,262.400000,306.900000,265.500000,310,269.300000Z" fill="rgb(255,255,255)" stroke="none" stroke-width="1"/></g><g id="eAh2KE1Og7t7"><path id="eAh2KE1Og7t8" d="M199.500000,227.200000C209.400000,192.700000,218.400000,171.600000,226.600000,163.700000C253.400000,191.800000,267.400000,220.400000,268.700000,249.500000C281.500000,241.400000,297.700000,236,317.200000,233.200000C320.300000,236.900000,322.800000,241,324.700000,245.400000C317.900000,210.800000,299.500000,184.800000,269.300000,167.400000C272.100000,195,271.900000,222.400000,268.700000,249.500000C266.200000,258.500000,264.100000,266.600000,262.500000,273.800000L247.200000,273.800000C244.400000,259.600000,228.600000,244.100000,199.500000,227.200000ZM81.900000,233.200000C78.800000,236.900000,76.300000,241,74.400000,245.400000C81.200000,210.800000,99.600000,184.800000,129.800000,167.400000C127,195,127.200000,222.400000,130.400000,249.500000C132.900000,258.500000,135,266.600000,136.600000,273.800000L151.900000,273.800000C154.600000,259.600000,170.400000,244.100000,199.500000,227.200000C189.600000,192.700000,180.600000,171.600000,172.400000,163.700000C145.600000,191.800000,131.600000,220.400000,130.300000,249.500000C117.500000,241.400000,101.400000,236,81.900000,233.200000L81.900000,233.200000Z" clip-rule="evenodd" fill="url(#eAh2KE1Og7t8-fill)" fill-rule="evenodd" stroke="none" stroke-width="1"/><path id="eAh2KE1Og7t9" d="M225.900000,164.400000C226.100000,164.200000,226.300000,163.900000,226.600000,163.700000C228.400000,165.600000,230.100000,167.400000,231.800000,169.300000C238.100000,179,243,191.300000,246.700000,206.300000C251.200000,224.600000,253.800000,246.800000,254.600000,272.900000L252.800000,273C252.100000,247,249.500000,224.900000,245,206.800000C240.400000,188.700000,234.100000,174.600000,225.900000,164.400000L225.900000,164.400000Z" clip-rule="evenodd" fill="rgb(204,204,204)" fill-rule="evenodd" stroke="none" stroke-width="1"/><path id="eAh2KE1Og7t10" d="M84.800000,233.700000C84.200000,233.600000,83.600000,233.500000,83,233.400000C85.300000,224.900000,88.400000,216.700000,92.300000,208.900000C98.500000,196.500000,106.700000,185.200000,117.400000,175.500000C121.300000,172.600000,125.400000,169.900000,129.700000,167.400000L129.600000,168.100000C113.500000,179.200000,101.900000,193.500000,93.900000,209.700000C90.100000,217.300000,87.100000,225.300000,84.800000,233.700000Z" clip-rule="evenodd" fill="rgb(204,204,204)" fill-rule="evenodd" stroke="none" stroke-width="1"/><path id="eAh2KE1Og7t11" d="M314.200000,233.700000C314.800000,233.600000,315.400000,233.500000,316,233.400000C313.700000,224.900000,310.600000,216.700000,306.700000,208.900000C300.500000,196.500000,292.300000,185.200000,281.600000,175.500000C277.700000,172.600000,273.600000,169.900000,269.300000,167.400000L269.400000,168.100000C285.500000,179.200000,297.100000,193.500000,305.100000,209.700000C308.900000,217.300000,311.900000,225.300000,314.200000,233.700000Z" clip-rule="evenodd" fill="rgb(204,204,204)" fill-rule="evenodd" stroke="none" stroke-width="1"/><path id="eAh2KE1Og7t12" d="M173.100000,164.400000C172.900000,164.200000,172.700000,163.900000,172.400000,163.700000C170.600000,165.600000,168.900000,167.400000,167.200000,169.300000C160.900000,179,156,191.300000,152.300000,206.300000C147.800000,224.600000,145.100000,246.800000,144.400000,272.900000L146.200000,273C146.900000,247,149.500000,224.900000,154,206.800000C158.600000,188.700000,164.900000,174.600000,173.100000,164.400000L173.100000,164.400000Z" clip-rule="evenodd" fill="rgb(204,204,204)" fill-rule="evenodd" stroke="none" stroke-width="1"/></g><g id="eAh2KE1Og7t13"><path id="eAh2KE1Og7t14" d="M127.800000,200.500000C139.900000,161.700000,159.600000,134.500000,186.800000,118.900000C174.200000,131.100000,166.100000,149.800000,162.500000,174.900000C142.200000,199.400000,131.500000,224.300000,130.400000,249.500000C128.400000,233.300000,127.600000,216.900000,127.800000,200.500000L127.800000,200.500000ZM199.500000,227.200000C199.500000,166.700000,200.800000,130,203.400000,117.300000C220.100000,128.900000,231,148,236.200000,174.500000C233.200000,170.900000,230,167.300000,226.600000,163.700000C218.400000,171.600000,209.400000,192.700000,199.500000,227.200000ZM271.200000,200.500000C259.100000,161.700000,239.400000,134.500000,212.200000,118.900000C224.800000,131.100000,232.900000,149.800000,236.500000,174.900000C256.800000,199.400000,267.500000,224.300000,268.600000,249.500000C270.600000,233.300000,271.400000,216.900000,271.200000,200.500000ZM199.500000,227.200000C199.500000,166.700000,198.200000,130,195.600000,117.300000C178.900000,128.900000,168,148,162.800000,174.500000C165.800000,170.900000,169,167.300000,172.400000,163.700000C180.600000,171.600000,189.600000,192.700000,199.500000,227.200000Z" clip-rule="evenodd" fill="url(#eAh2KE1Og7t14-fill)" fill-rule="evenodd" stroke="none" stroke-width="1"/><path id="eAh2KE1Og7t15" d="M205.100000,118.500000C209.900000,127.900000,213.900000,138.500000,217.200000,150.300000C218.900000,156.500000,220.400000,163.100000,221.600000,170C221.100000,170.700000,220.600000,171.500000,220.100000,172.400000C218.800000,164.800000,217.200000,157.600000,215.300000,150.900000C212,139,208,128.400000,203.100000,118.900000C203.200000,118.400000,203.300000,117.900000,203.400000,117.400000C204,117.700000,204.600000,118.100000,205.100000,118.500000L205.100000,118.500000Z" clip-rule="evenodd" fill="rgb(204,204,204)" fill-rule="evenodd" stroke="none" stroke-width="1"/><path id="eAh2KE1Og7t16" d="M193.900000,118.500000C189.100000,127.900000,185.100000,138.500000,181.800000,150.300000C180.100000,156.500000,178.600000,163.100000,177.400000,170C177.900000,170.700000,178.400000,171.500000,178.900000,172.400000C180.200000,164.800000,181.800000,157.600000,183.700000,150.900000C187,139,191,128.400000,195.900000,118.900000C195.800000,118.400000,195.700000,117.900000,195.600000,117.400000C195,117.700000,194.400000,118.100000,193.900000,118.500000L193.900000,118.500000Z" clip-rule="evenodd" fill="rgb(204,204,204)" fill-rule="evenodd" stroke="none" stroke-width="1"/></g><g id="eAh2KE1Og7t17"><rect id="eAh2KE1Og7t18" width="320.600000" height="4.900000" rx="0" ry="0" transform="matrix(1 0 0 1 39.19999999999999 273.80000000000001)" clip-rule="evenodd" fill="rgb(230,230,230)" fill-rule="evenodd" stroke="none" stroke-width="1"/><rect id="eAh2KE1Og7t19" width="350" height="4.900000" rx="0" ry="0" transform="matrix(1 0 0 1 24.50000000000000 278.69999999999999)" clip-rule="evenodd" fill="rgb(204,204,204)" fill-rule="evenodd" stroke="none" stroke-width="1"/></g></svg>