<svg id="efCDwkpHLeO1" xmlns="http://www.w3.org/2000/svg" xmlns:xlink="http://www.w3.org/1999/xlink" viewBox="0 0 400 400" shape-rendering="geometricPrecision" text-rendering="geometricPrecision"><defs><linearGradient id="efCDwkpHLeO14-fill" x1="200.068300" y1="155.319400" x2="200.068300" y2="105.634400" spreadMethod="pad" gradientUnits="userSpaceOnUse"><stop id="efCDwkpHLeO14-fill-0" offset="0%" stop-color="rgb(175,175,175)"/><stop id="efCDwkpHLeO14-fill-1" offset="100%" stop-color="rgb(221,221,221)"/></linearGradient></defs><g id="efCDwkpHLeO2"><polygon id="efCDwkpHLeO3" points="209.700000,100.300000 190.300000,100.300000 190.300000,75.100000 209.700000,75.100000 209.700000,100.300000" clip-rule="evenodd" fill="rgb(230,230,230)" fill-rule="evenodd" stroke="none" stroke-width="1"/><polygon id="efCDwkpHLeO4" points="212.300000,100.300000 187.700000,100.300000 187.700000,107.100000 212.300000,107.100000 212.300000,100.300000" clip-rule="evenodd" fill="rgb(179,179,179)" fill-rule="evenodd" stroke="none" stroke-width="1"/><polygon id="efCDwkpHLeO5" points="211.700000,71.800000 188.300000,71.800000 190.300000,75.100000 209.700000,75.100000 211.700000,71.800000" clip-rule="evenodd" fill="rgb(204,204,204)" fill-rule="evenodd" stroke="none" stroke-width="1"/><g id="efCDwkpHLeO6"><polygon id="efCDwkpHLeO7" points="207.500000,55.600000 192.500000,55.600000 193.700000,51.700000 206.300000,51.700000 207.500000,55.600000" clip-rule="evenodd" fill="rgb(204,204,204)" fill-rule="evenodd" stroke="none" stroke-width="1"/><polygon id="efCDwkpHLeO8" points="200.500000,51.700000 199.500000,51.700000 199.500000,24.800000 200.500000,24.800000 200.500000,51.700000" clip-rule="evenodd" fill="rgb(225,232,237)" fill-rule="evenodd" stroke="none" stroke-width="1"/><path id="efCDwkpHLeO9" d="M200,29.100000C201.300000,29.100000,202.400000,30.200000,202.400000,31.500000C202.400000,32.800000,201.300000,33.900000,200,33.900000C198.700000,33.900000,197.600000,32.800000,197.600000,31.500000C197.600000,30.200000,198.700000,29.100000,200,29.100000L200,29.100000Z" clip-rule="evenodd" fill="rgb(179,179,179)" fill-rule="evenodd" stroke="none" stroke-width="1"/></g><polygon id="efCDwkpHLeO10" points="206.300000,71.800000 193.700000,71.800000 193.700000,55.500000 206.300000,55.500000 206.300000,71.800000" clip-rule="evenodd" fill="rgb(230,230,230)" fill-rule="evenodd" stroke="none" stroke-width="1"/><g id="efCDwkpHLeO11"><polygon id="efCDwkpHLeO12" points="204.100000,98 195.900000,98 195.900000,84.700000 204.100000,84.700000 204.100000,98" clip-rule="evenodd" fill="rgb(51,51,51)" fill-rule="evenodd" stroke="none" stroke-width="1"/><polygon id="efCDwkpHLeO13" points="202.100000,70.700000 198,70.700000 198,62.700000 202.100000,62.700000 202.100000,70.700000" clip-rule="evenodd" fill="rgb(51,51,51)" fill-rule="evenodd" stroke="none" stroke-width="1"/></g></g><path id="efCDwkpHLeO14" d="M147.600000,155.300000C182.600000,155.300000,217.600000,155.300000,252.600000,155.300000C251.100000,127.400000,228,105.600000,200.100000,105.600000C172.200000,105.600000,149.100000,127.400000,147.600000,155.300000L147.600000,155.300000Z" clip-rule="evenodd" fill="url(#efCDwkpHLeO14-fill)" fill-rule="evenodd" stroke="none" stroke-width="1"/><g id="efCDwkpHLeO15"><polygon id="efCDwkpHLeO16" points="252.500000,160.500000 147.700000,160.500000 147.700000,184.400000 252.500000,184.400000 252.500000,160.500000" clip-rule="evenodd" fill="rgb(230,230,230)" fill-rule="evenodd" stroke="none" stroke-width="1"/><g id="efCDwkpHLeO17"><polygon id="efCDwkpHLeO18" points="151,160.500000 151,184.400000 153.700000,184.400000 153.700000,160.500000 151,160.500000" clip-rule="evenodd" fill="rgb(204,204,204)" fill-rule="evenodd" stroke="none" stroke-width="1"/><polygon id="efCDwkpHLeO19" points="159.700000,160.500000 159.700000,184.400000 162.400000,184.400000 162.400000,160.500000 159.700000,160.500000" clip-rule="evenodd" fill="rgb(204,204,204)" fill-rule="evenodd" stroke="none" stroke-width="1"/><polygon id="efCDwkpHLeO20" points="168.400000,160.500000 168.400000,184.400000 171,184.400000 171,160.500000 168.400000,160.500000" clip-rule="evenodd" fill="rgb(204,204,204)" fill-rule="evenodd" stroke="none" stroke-width="1"/><polygon id="efCDwkpHLeO21" points="177,160.500000 177,184.400000 179.700000,184.400000 179.700000,160.500000 177,160.500000" clip-rule="evenodd" fill="rgb(204,204,204)" fill-rule="evenodd" stroke="none" stroke-width="1"/><polygon id="efCDwkpHLeO22" points="185.700000,160.500000 185.700000,184.400000 188.400000,184.400000 188.400000,160.500000 185.700000,160.500000" clip-rule="evenodd" fill="rgb(204,204,204)" fill-rule="evenodd" stroke="none" stroke-width="1"/><polygon id="efCDwkpHLeO23" points="194.400000,160.500000 194.400000,184.400000 197.100000,184.400000 197.100000,160.500000 194.400000,160.500000" clip-rule="evenodd" fill="rgb(204,204,204)" fill-rule="evenodd" stroke="none" stroke-width="1"/><polygon id="efCDwkpHLeO24" points="203.100000,160.500000 203.100000,184.400000 205.700000,184.400000 205.700000,160.500000 203.100000,160.500000" clip-rule="evenodd" fill="rgb(204,204,204)" fill-rule="evenodd" stroke="none" stroke-width="1"/><polygon id="efCDwkpHLeO25" points="211.700000,160.500000 211.700000,184.400000 214.400000,184.400000 214.400000,160.500000 211.700000,160.500000" clip-rule="evenodd" fill="rgb(204,204,204)" fill-rule="evenodd" stroke="none" stroke-width="1"/><polygon id="efCDwkpHLeO26" points="220.400000,160.500000 220.400000,184.400000 223.100000,184.400000 223.100000,160.500000 220.400000,160.500000" clip-rule="evenodd" fill="rgb(204,204,204)" fill-rule="evenodd" stroke="none" stroke-width="1"/><polygon id="efCDwkpHLeO27" points="229.100000,160.500000 229.100000,184.400000 231.700000,184.400000 231.700000,160.500000 229.100000,160.500000" clip-rule="evenodd" fill="rgb(204,204,204)" fill-rule="evenodd" stroke="none" stroke-width="1"/><polygon id="efCDwkpHLeO28" points="237.700000,160.500000 237.700000,184.400000 240.400000,184.400000 240.400000,160.500000 237.700000,160.500000" clip-rule="evenodd" fill="rgb(204,204,204)" fill-rule="evenodd" stroke="none" stroke-width="1"/><polygon id="efCDwkpHLeO29" points="246.400000,160.500000 246.400000,184.400000 249.100000,184.400000 249.100000,160.500000 246.400000,160.500000" clip-rule="evenodd" fill="rgb(204,204,204)" fill-rule="evenodd" stroke="none" stroke-width="1"/></g><g id="efCDwkpHLeO30"><polygon id="efCDwkpHLeO31" points="151,160.500000 151,164.700000 153.700000,164.700000 153.700000,160.500000 151,160.500000" clip-rule="evenodd" fill="rgb(179,179,179)" fill-rule="evenodd" stroke="none" stroke-width="1"/><polygon id="efCDwkpHLeO32" points="159.700000,160.500000 159.700000,164.700000 162.400000,164.700000 162.400000,160.500000 159.700000,160.500000" clip-rule="evenodd" fill="rgb(179,179,179)" fill-rule="evenodd" stroke="none" stroke-width="1"/><polygon id="efCDwkpHLeO33" points="168.400000,160.500000 168.400000,164.700000 171,164.700000 171,160.500000 168.400000,160.500000" clip-rule="evenodd" fill="rgb(179,179,179)" fill-rule="evenodd" stroke="none" stroke-width="1"/><polygon id="efCDwkpHLeO34" points="177,160.500000 177,164.700000 179.700000,164.700000 179.700000,160.500000 177,160.500000" clip-rule="evenodd" fill="rgb(179,179,179)" fill-rule="evenodd" stroke="none" stroke-width="1"/><polygon id="efCDwkpHLeO35" points="185.700000,160.500000 185.700000,164.700000 188.400000,164.700000 188.400000,160.500000 185.700000,160.500000" clip-rule="evenodd" fill="rgb(179,179,179)" fill-rule="evenodd" stroke="none" stroke-width="1"/><polygon id="efCDwkpHLeO36" points="194.400000,160.500000 194.400000,164.700000 197.100000,164.700000 197.100000,160.500000 194.400000,160.500000" clip-rule="evenodd" fill="rgb(179,179,179)" fill-rule="evenodd" stroke="none" stroke-width="1"/><polygon id="efCDwkpHLeO37" points="203.100000,160.500000 203.100000,164.700000 205.700000,164.700000 205.700000,160.500000 203.100000,160.500000" clip-rule="evenodd" fill="rgb(179,179,179)" fill-rule="evenodd" stroke="none" stroke-width="1"/><polygon id="efCDwkpHLeO38" points="211.700000,160.500000 211.700000,164.700000 214.400000,164.700000 214.400000,160.500000 211.700000,160.500000" clip-rule="evenodd" fill="rgb(179,179,179)" fill-rule="evenodd" stroke="none" stroke-width="1"/><polygon id="efCDwkpHLeO39" points="220.400000,160.500000 220.400000,164.700000 223.100000,164.700000 223.100000,160.500000 220.400000,160.500000" clip-rule="evenodd" fill="rgb(179,179,179)" fill-rule="evenodd" stroke="none" stroke-width="1"/><polygon id="efCDwkpHLeO40" points="229.100000,160.500000 229.100000,164.700000 231.700000,164.700000 231.700000,160.500000 229.100000,160.500000" clip-rule="evenodd" fill="rgb(179,179,179)" fill-rule="evenodd" stroke="none" stroke-width="1"/><polygon id="efCDwkpHLeO41" points="237.700000,160.500000 237.700000,164.700000 240.400000,164.700000 240.400000,160.500000 237.700000,160.500000" clip-rule="evenodd" fill="rgb(179,179,179)" fill-rule="evenodd" stroke="none" stroke-width="1"/><polygon id="efCDwkpHLeO42" points="246.400000,160.500000 246.400000,164.700000 249.100000,164.700000 249.100000,160.500000 246.400000,160.500000" clip-rule="evenodd" fill="rgb(179,179,179)" fill-rule="evenodd" stroke="none" stroke-width="1"/></g><polygon id="efCDwkpHLeO43" points="254.900000,160.500000 145.200000,160.500000 145.200000,155.300000 254.900000,155.300000 254.900000,160.500000" clip-rule="evenodd" fill="rgb(204,204,204)" fill-rule="evenodd" stroke="none" stroke-width="1"/></g><g id="efCDwkpHLeO44"><polygon id="efCDwkpHLeO45" points="293.700000,250.800000 106.400000,250.800000 106.400000,230.900000 293.700000,230.900000 293.700000,250.800000" clip-rule="evenodd" fill="rgb(204,204,204)" fill-rule="evenodd" stroke="none" stroke-width="1"/><polygon id="efCDwkpHLeO46" points="269.500000,192.400000 130.700000,192.400000 130.700000,230.900000 269.500000,230.900000 269.500000,192.400000" clip-rule="evenodd" fill="rgb(230,230,230)" fill-rule="evenodd" stroke="none" stroke-width="1"/><polygon id="efCDwkpHLeO47" points="217.300000,230.900000 183.300000,230.900000 183.300000,201.300000 217.300000,201.300000 217.300000,230.900000" clip-rule="evenodd" fill="rgb(51,51,51)" fill-rule="evenodd" stroke="none" stroke-width="1"/><g id="efCDwkpHLeO48"><polygon id="efCDwkpHLeO49" points="148.300000,192.400000 148.300000,230.900000 151.100000,230.900000 151.100000,192.400000 148.300000,192.400000" clip-rule="evenodd" fill="rgb(204,204,204)" fill-rule="evenodd" stroke="none" stroke-width="1"/><polygon id="efCDwkpHLeO50" points="159.500000,192.400000 159.500000,230.900000 162.300000,230.900000 162.300000,192.400000 159.500000,192.400000" clip-rule="evenodd" fill="rgb(204,204,204)" fill-rule="evenodd" stroke="none" stroke-width="1"/><polygon id="efCDwkpHLeO51" points="170.700000,192.400000 170.700000,230.900000 173.500000,230.900000 173.500000,192.400000 170.700000,192.400000" clip-rule="evenodd" fill="rgb(204,204,204)" fill-rule="evenodd" stroke="none" stroke-width="1"/><polygon id="efCDwkpHLeO52" points="181.900000,192.400000 181.900000,230.900000 184.700000,230.900000 184.700000,192.400000 181.900000,192.400000" clip-rule="evenodd" fill="rgb(204,204,204)" fill-rule="evenodd" stroke="none" stroke-width="1"/><polygon id="efCDwkpHLeO53" points="193.100000,192.400000 193.100000,230.900000 195.900000,230.900000 195.900000,192.400000 193.100000,192.400000" clip-rule="evenodd" fill="rgb(204,204,204)" fill-rule="evenodd" stroke="none" stroke-width="1"/><polygon id="efCDwkpHLeO54" points="204.300000,192.400000 204.300000,230.900000 207.100000,230.900000 207.100000,192.400000 204.300000,192.400000" clip-rule="evenodd" fill="rgb(204,204,204)" fill-rule="evenodd" stroke="none" stroke-width="1"/><polygon id="efCDwkpHLeO55" points="215.400000,192.400000 215.400000,230.900000 218.300000,230.900000 218.300000,192.400000 215.400000,192.400000" clip-rule="evenodd" fill="rgb(204,204,204)" fill-rule="evenodd" stroke="none" stroke-width="1"/><polygon id="efCDwkpHLeO56" points="226.600000,192.400000 226.600000,230.900000 229.500000,230.900000 229.500000,192.400000 226.600000,192.400000" clip-rule="evenodd" fill="rgb(204,204,204)" fill-rule="evenodd" stroke="none" stroke-width="1"/><polygon id="efCDwkpHLeO57" points="237.800000,192.400000 237.800000,230.900000 240.700000,230.900000 240.700000,192.400000 237.800000,192.400000" clip-rule="evenodd" fill="rgb(204,204,204)" fill-rule="evenodd" stroke="none" stroke-width="1"/><polygon id="efCDwkpHLeO58" points="249,192.400000 249,230.900000 251.900000,230.900000 251.900000,192.400000 249,192.400000" clip-rule="evenodd" fill="rgb(204,204,204)" fill-rule="evenodd" stroke="none" stroke-width="1"/><polygon id="efCDwkpHLeO59" points="260.200000,192.400000 260.200000,230.900000 263.100000,230.900000 263.100000,192.400000 260.200000,192.400000" clip-rule="evenodd" fill="rgb(204,204,204)" fill-rule="evenodd" stroke="none" stroke-width="1"/><polygon id="efCDwkpHLeO60" points="137.100000,192.400000 137.100000,230.900000 139.900000,230.900000 139.900000,192.400000 137.100000,192.400000" clip-rule="evenodd" fill="rgb(204,204,204)" fill-rule="evenodd" stroke="none" stroke-width="1"/><g id="efCDwkpHLeO61"><polygon id="efCDwkpHLeO62" points="148.300000,192.400000 148.300000,197.300000 151.100000,197.300000 151.100000,192.400000 148.300000,192.400000" clip-rule="evenodd" fill="rgb(179,179,179)" fill-rule="evenodd" stroke="none" stroke-width="1"/><polygon id="efCDwkpHLeO63" points="159.500000,192.400000 159.500000,197.300000 162.300000,197.300000 162.300000,192.400000 159.500000,192.400000" clip-rule="evenodd" fill="rgb(179,179,179)" fill-rule="evenodd" stroke="none" stroke-width="1"/><polygon id="efCDwkpHLeO64" points="170.700000,192.400000 170.700000,197.300000 173.500000,197.300000 173.500000,192.400000 170.700000,192.400000" clip-rule="evenodd" fill="rgb(179,179,179)" fill-rule="evenodd" stroke="none" stroke-width="1"/><polygon id="efCDwkpHLeO65" points="181.900000,192.400000 181.900000,197.300000 184.700000,197.300000 184.700000,192.400000 181.900000,192.400000" clip-rule="evenodd" fill="rgb(179,179,179)" fill-rule="evenodd" stroke="none" stroke-width="1"/><polygon id="efCDwkpHLeO66" points="193.100000,192.400000 193.100000,197.300000 195.900000,197.300000 195.900000,192.400000 193.100000,192.400000" clip-rule="evenodd" fill="rgb(179,179,179)" fill-rule="evenodd" stroke="none" stroke-width="1"/><polygon id="efCDwkpHLeO67" points="204.300000,192.400000 204.300000,197.300000 207.100000,197.300000 207.100000,192.400000 204.300000,192.400000" clip-rule="evenodd" fill="rgb(179,179,179)" fill-rule="evenodd" stroke="none" stroke-width="1"/><polygon id="efCDwkpHLeO68" points="215.400000,192.400000 215.400000,197.300000 218.300000,197.300000 218.300000,192.400000 215.400000,192.400000" clip-rule="evenodd" fill="rgb(179,179,179)" fill-rule="evenodd" stroke="none" stroke-width="1"/><polygon id="efCDwkpHLeO69" points="226.600000,192.400000 226.600000,197.300000 229.500000,197.300000 229.500000,192.400000 226.600000,192.400000" clip-rule="evenodd" fill="rgb(179,179,179)" fill-rule="evenodd" stroke="none" stroke-width="1"/><polygon id="efCDwkpHLeO70" points="237.800000,192.400000 237.800000,197.300000 240.700000,197.300000 240.700000,192.400000 237.800000,192.400000" clip-rule="evenodd" fill="rgb(179,179,179)" fill-rule="evenodd" stroke="none" stroke-width="1"/><polygon id="efCDwkpHLeO71" points="249,192.400000 249,197.300000 251.900000,197.300000 251.900000,192.400000 249,192.400000" clip-rule="evenodd" fill="rgb(179,179,179)" fill-rule="evenodd" stroke="none" stroke-width="1"/><polygon id="efCDwkpHLeO72" points="260.200000,192.400000 260.200000,197.300000 263.100000,197.300000 263.100000,192.400000 260.200000,192.400000" clip-rule="evenodd" fill="rgb(179,179,179)" fill-rule="evenodd" stroke="none" stroke-width="1"/><polygon id="efCDwkpHLeO73" points="137.100000,192.400000 137.100000,197.300000 139.900000,197.300000 139.900000,192.400000 137.100000,192.400000" clip-rule="evenodd" fill="rgb(179,179,179)" fill-rule="evenodd" stroke="none" stroke-width="1"/></g></g><polygon id="efCDwkpHLeO74" points="276.400000,192.400000 123.700000,192.400000 123.700000,184.400000 276.400000,184.400000 276.400000,192.400000" clip-rule="evenodd" fill="rgb(204,204,204)" fill-rule="evenodd" stroke="none" stroke-width="1"/></g><g id="efCDwkpHLeO75"><g id="efCDwkpHLeO76"><polygon id="efCDwkpHLeO77" points="297.200000,226 257,226 257,234.600000 297.200000,234.600000 297.200000,226" clip-rule="evenodd" fill="rgb(153,153,153)" fill-rule="evenodd" stroke="none" stroke-width="1"/><polygon id="efCDwkpHLeO78" points="297.200000,258.600000 293.700000,258.600000 293.700000,234.600000 260.500000,234.600000 260.500000,258.600000 257,258.600000 257,267.200000 297.200000,267.200000 297.200000,258.600000" clip-rule="evenodd" fill="rgb(153,153,153)" fill-rule="evenodd" stroke="none" stroke-width="1"/><polygon id="efCDwkpHLeO79" points="285.200000,258.600000 269.100000,258.600000 269.100000,234.600000 285.200000,234.600000 285.200000,258.600000" clip-rule="evenodd" fill="rgb(179,179,179)" fill-rule="evenodd" stroke="none" stroke-width="1"/></g><g id="efCDwkpHLeO80"><polygon id="efCDwkpHLeO81" points="264.300000,226 289.900000,226 289.900000,201.400000 264.300000,201.400000 264.300000,226" clip-rule="evenodd" fill="rgb(230,230,230)" fill-rule="evenodd" stroke="none" stroke-width="1"/><polygon id="efCDwkpHLeO82" points="287.300000,226 288.700000,226 288.700000,201.400000 287.300000,201.400000 287.300000,226" clip-rule="evenodd" fill="rgb(204,204,204)" fill-rule="evenodd" stroke="none" stroke-width="1"/><polygon id="efCDwkpHLeO83" points="283.700000,226 285.100000,226 285.100000,201.400000 283.700000,201.400000 283.700000,226" clip-rule="evenodd" fill="rgb(204,204,204)" fill-rule="evenodd" stroke="none" stroke-width="1"/><polygon id="efCDwkpHLeO84" points="280,226 281.500000,226 281.500000,201.400000 280,201.400000 280,226" clip-rule="evenodd" fill="rgb(204,204,204)" fill-rule="evenodd" stroke="none" stroke-width="1"/><polygon id="efCDwkpHLeO85" points="276.400000,226 277.900000,226 277.900000,201.400000 276.400000,201.400000 276.400000,226" clip-rule="evenodd" fill="rgb(204,204,204)" fill-rule="evenodd" stroke="none" stroke-width="1"/><polygon id="efCDwkpHLeO86" points="272.800000,226 274.200000,226 274.200000,201.400000 272.800000,201.400000 272.800000,226" clip-rule="evenodd" fill="rgb(204,204,204)" fill-rule="evenodd" stroke="none" stroke-width="1"/><polygon id="efCDwkpHLeO87" points="269.100000,226 270.600000,226 270.600000,201.400000 269.100000,201.400000 269.100000,226" clip-rule="evenodd" fill="rgb(204,204,204)" fill-rule="evenodd" stroke="none" stroke-width="1"/><polygon id="efCDwkpHLeO88" points="265.500000,226 267,226 267,201.400000 265.500000,201.400000 265.500000,226" clip-rule="evenodd" fill="rgb(204,204,204)" fill-rule="evenodd" stroke="none" stroke-width="1"/></g><polygon id="efCDwkpHLeO89" points="262.500000,197.100000 291.800000,197.100000 291.800000,201.400000 262.500000,201.400000 262.500000,197.100000" clip-rule="evenodd" fill="rgb(153,153,153)" fill-rule="evenodd" stroke="none" stroke-width="1"/><g id="efCDwkpHLeO90"><polygon id="efCDwkpHLeO91" points="268.400000,197.100000 285.800000,197.100000 285.800000,180.300000 268.400000,180.300000 268.400000,197.100000" clip-rule="evenodd" fill="rgb(230,230,230)" fill-rule="evenodd" stroke="none" stroke-width="1"/><polygon id="efCDwkpHLeO92" points="284.100000,197.100000 285,197.100000 285,180.300000 284.100000,180.300000 284.100000,197.100000" clip-rule="evenodd" fill="rgb(204,204,204)" fill-rule="evenodd" stroke="none" stroke-width="1"/><polygon id="efCDwkpHLeO93" points="281.600000,197.100000 282.600000,197.100000 282.600000,180.300000 281.600000,180.300000 281.600000,197.100000" clip-rule="evenodd" fill="rgb(204,204,204)" fill-rule="evenodd" stroke="none" stroke-width="1"/><polygon id="efCDwkpHLeO94" points="279.100000,197.100000 280.100000,197.100000 280.100000,180.300000 279.100000,180.300000 279.100000,197.100000" clip-rule="evenodd" fill="rgb(204,204,204)" fill-rule="evenodd" stroke="none" stroke-width="1"/><polygon id="efCDwkpHLeO95" points="276.600000,197.100000 277.600000,197.100000 277.600000,180.300000 276.600000,180.300000 276.600000,197.100000" clip-rule="evenodd" fill="rgb(204,204,204)" fill-rule="evenodd" stroke="none" stroke-width="1"/><polygon id="efCDwkpHLeO96" points="274.200000,197.100000 275.200000,197.100000 275.200000,180.300000 274.200000,180.300000 274.200000,197.100000" clip-rule="evenodd" fill="rgb(204,204,204)" fill-rule="evenodd" stroke="none" stroke-width="1"/><polygon id="efCDwkpHLeO97" points="271.700000,197.100000 272.700000,197.100000 272.700000,180.300000 271.700000,180.300000 271.700000,197.100000" clip-rule="evenodd" fill="rgb(204,204,204)" fill-rule="evenodd" stroke="none" stroke-width="1"/><polygon id="efCDwkpHLeO98" points="269.200000,197.100000 270.200000,197.100000 270.200000,180.300000 269.200000,180.300000 269.200000,197.100000" clip-rule="evenodd" fill="rgb(204,204,204)" fill-rule="evenodd" stroke="none" stroke-width="1"/></g><polygon id="efCDwkpHLeO99" points="266.500000,178.200000 271.500000,176 271.500000,169.700000 276.900000,167.500000 276.900000,156.700000 277.400000,158.900000 277.400000,167.500000 282.700000,169.700000 282.700000,176 287.800000,178.200000 287.800000,180.300000 266.500000,180.300000 266.500000,178.200000" clip-rule="evenodd" fill="rgb(153,153,153)" fill-rule="evenodd" stroke="none" stroke-width="1"/></g><g id="efCDwkpHLeO100"><g id="efCDwkpHLeO101"><polygon id="efCDwkpHLeO102" points="143.100000,226 102.900000,226 102.900000,234.600000 143.100000,234.600000 143.100000,226" clip-rule="evenodd" fill="rgb(153,153,153)" fill-rule="evenodd" stroke="none" stroke-width="1"/><polygon id="efCDwkpHLeO103" points="143.100000,258.600000 139.600000,258.600000 139.600000,234.600000 106.400000,234.600000 106.400000,258.600000 102.900000,258.600000 102.900000,267.200000 143.100000,267.200000 143.100000,258.600000" clip-rule="evenodd" fill="rgb(153,153,153)" fill-rule="evenodd" stroke="none" stroke-width="1"/><polygon id="efCDwkpHLeO104" points="131.100000,258.600000 114.900000,258.600000 114.900000,234.600000 131.100000,234.600000 131.100000,258.600000" clip-rule="evenodd" fill="rgb(179,179,179)" fill-rule="evenodd" stroke="none" stroke-width="1"/></g><g id="efCDwkpHLeO105"><polygon id="efCDwkpHLeO106" points="135.800000,226 110.200000,226 110.200000,201.400000 135.800000,201.400000 135.800000,226" clip-rule="evenodd" fill="rgb(230,230,230)" fill-rule="evenodd" stroke="none" stroke-width="1"/><polygon id="efCDwkpHLeO107" points="112.800000,226 111.400000,226 111.400000,201.400000 112.800000,201.400000 112.800000,226" clip-rule="evenodd" fill="rgb(204,204,204)" fill-rule="evenodd" stroke="none" stroke-width="1"/><polygon id="efCDwkpHLeO108" points="116.500000,226 115,226 115,201.400000 116.500000,201.400000 116.500000,226" clip-rule="evenodd" fill="rgb(204,204,204)" fill-rule="evenodd" stroke="none" stroke-width="1"/><polygon id="efCDwkpHLeO109" points="120.100000,226 118.700000,226 118.700000,201.400000 120.100000,201.400000 120.100000,226" clip-rule="evenodd" fill="rgb(204,204,204)" fill-rule="evenodd" stroke="none" stroke-width="1"/><polygon id="efCDwkpHLeO110" points="123.700000,226 122.300000,226 122.300000,201.400000 123.700000,201.400000 123.700000,226" clip-rule="evenodd" fill="rgb(204,204,204)" fill-rule="evenodd" stroke="none" stroke-width="1"/><polygon id="efCDwkpHLeO111" points="127.400000,226 125.900000,226 125.900000,201.400000 127.400000,201.400000 127.400000,226" clip-rule="evenodd" fill="rgb(204,204,204)" fill-rule="evenodd" stroke="none" stroke-width="1"/><polygon id="efCDwkpHLeO112" points="131,226 129.600000,226 129.600000,201.400000 131,201.400000 131,226" clip-rule="evenodd" fill="rgb(204,204,204)" fill-rule="evenodd" stroke="none" stroke-width="1"/><polygon id="efCDwkpHLeO113" points="134.600000,226 133.200000,226 133.200000,201.400000 134.600000,201.400000 134.600000,226" clip-rule="evenodd" fill="rgb(204,204,204)" fill-rule="evenodd" stroke="none" stroke-width="1"/></g><polygon id="efCDwkpHLeO114" points="137.600000,197.100000 108.400000,197.100000 108.400000,201.400000 137.600000,201.400000 137.600000,197.100000" clip-rule="evenodd" fill="rgb(153,153,153)" fill-rule="evenodd" stroke="none" stroke-width="1"/><g id="efCDwkpHLeO115"><polygon id="efCDwkpHLeO116" points="131.700000,197.100000 114.300000,197.100000 114.300000,180.300000 131.700000,180.300000 131.700000,197.100000" clip-rule="evenodd" fill="rgb(230,230,230)" fill-rule="evenodd" stroke="none" stroke-width="1"/><polygon id="efCDwkpHLeO117" points="116.100000,197.100000 115.100000,197.100000 115.100000,180.300000 116.100000,180.300000 116.100000,197.100000" clip-rule="evenodd" fill="rgb(204,204,204)" fill-rule="evenodd" stroke="none" stroke-width="1"/><polygon id="efCDwkpHLeO118" points="118.600000,197.100000 117.600000,197.100000 117.600000,180.300000 118.600000,180.300000 118.600000,197.100000" clip-rule="evenodd" fill="rgb(204,204,204)" fill-rule="evenodd" stroke="none" stroke-width="1"/><polygon id="efCDwkpHLeO119" points="121,197.100000 120,197.100000 120,180.300000 121,180.300000 121,197.100000" clip-rule="evenodd" fill="rgb(204,204,204)" fill-rule="evenodd" stroke="none" stroke-width="1"/><polygon id="efCDwkpHLeO120" points="123.500000,197.100000 122.500000,197.100000 122.500000,180.300000 123.500000,180.300000 123.500000,197.100000" clip-rule="evenodd" fill="rgb(204,204,204)" fill-rule="evenodd" stroke="none" stroke-width="1"/><polygon id="efCDwkpHLeO121" points="126,197.100000 125,197.100000 125,180.300000 126,180.300000 126,197.100000" clip-rule="evenodd" fill="rgb(204,204,204)" fill-rule="evenodd" stroke="none" stroke-width="1"/><polygon id="efCDwkpHLeO122" points="128.400000,197.100000 127.500000,197.100000 127.500000,180.300000 128.400000,180.300000 128.400000,197.100000" clip-rule="evenodd" fill="rgb(204,204,204)" fill-rule="evenodd" stroke="none" stroke-width="1"/><polygon id="efCDwkpHLeO123" points="130.900000,197.100000 129.900000,197.100000 129.900000,180.300000 130.900000,180.300000 130.900000,197.100000" clip-rule="evenodd" fill="rgb(204,204,204)" fill-rule="evenodd" stroke="none" stroke-width="1"/></g><polygon id="efCDwkpHLeO124" points="133.700000,178.200000 128.600000,176 128.600000,169.700000 123.300000,167.500000 123.300000,156.700000 122.700000,158.900000 122.700000,167.500000 117.400000,169.700000 117.400000,176 112.300000,178.200000 112.300000,180.300000 133.700000,180.300000 133.700000,178.200000" clip-rule="evenodd" fill="rgb(153,153,153)" fill-rule="evenodd" stroke="none" stroke-width="1"/></g><polygon id="efCDwkpHLeO125" points="77.500000,321 77.500000,271.500000 322.700000,271.500000 322.700000,321 335.800000,321 335.800000,370.500000 64.300000,370.500000 64.300000,321 77.500000,321" clip-rule="evenodd" fill="rgb(230,230,230)" fill-rule="evenodd" stroke="none" stroke-width="1"/><g id="efCDwkpHLeO126"><polygon id="efCDwkpHLeO127" points="80.300000,270.700000 319.800000,270.700000 319.800000,281.100000 80.300000,281.100000 80.300000,270.700000" clip-rule="evenodd" fill="rgb(204,204,204)" fill-rule="evenodd" stroke="none" stroke-width="1"/><g id="efCDwkpHLeO128"><polygon id="efCDwkpHLeO129" points="77.500000,275.700000 77.500000,316.700000 86,316.700000 86,275.700000 77.500000,275.700000" clip-rule="evenodd" fill="rgb(153,153,153)" fill-rule="evenodd" stroke="none" stroke-width="1"/><polygon id="efCDwkpHLeO130" points="80.400000,275.700000 80.400000,316.700000 83.100000,316.700000 83.100000,275.700000 80.400000,275.700000" clip-rule="evenodd" fill="rgb(179,179,179)" fill-rule="evenodd" stroke="none" stroke-width="1"/><polygon id="efCDwkpHLeO131" points="99,275.700000 99,316.700000 107.500000,316.700000 107.500000,275.700000 99,275.700000" clip-rule="evenodd" fill="rgb(153,153,153)" fill-rule="evenodd" stroke="none" stroke-width="1"/><polygon id="efCDwkpHLeO132" points="101.900000,275.700000 101.900000,316.700000 104.600000,316.700000 104.600000,275.700000 101.900000,275.700000" clip-rule="evenodd" fill="rgb(179,179,179)" fill-rule="evenodd" stroke="none" stroke-width="1"/><polygon id="efCDwkpHLeO133" points="120.500000,275.700000 120.500000,316.700000 129,316.700000 129,275.700000 120.500000,275.700000" clip-rule="evenodd" fill="rgb(153,153,153)" fill-rule="evenodd" stroke="none" stroke-width="1"/><polygon id="efCDwkpHLeO134" points="123.400000,275.700000 123.400000,316.700000 126.100000,316.700000 126.100000,275.700000 123.400000,275.700000" clip-rule="evenodd" fill="rgb(179,179,179)" fill-rule="evenodd" stroke="none" stroke-width="1"/><polygon id="efCDwkpHLeO135" points="142,275.700000 142,316.700000 150.600000,316.700000 150.600000,275.700000 142,275.700000" clip-rule="evenodd" fill="rgb(153,153,153)" fill-rule="evenodd" stroke="none" stroke-width="1"/><polygon id="efCDwkpHLeO136" points="144.900000,275.700000 144.900000,316.700000 147.600000,316.700000 147.600000,275.700000 144.900000,275.700000" clip-rule="evenodd" fill="rgb(179,179,179)" fill-rule="evenodd" stroke="none" stroke-width="1"/><polygon id="efCDwkpHLeO137" points="163.500000,275.700000 163.500000,316.700000 172.100000,316.700000 172.100000,275.700000 163.500000,275.700000" clip-rule="evenodd" fill="rgb(153,153,153)" fill-rule="evenodd" stroke="none" stroke-width="1"/><polygon id="efCDwkpHLeO138" points="166.500000,275.700000 166.500000,316.700000 169.100000,316.700000 169.100000,275.700000 166.500000,275.700000" clip-rule="evenodd" fill="rgb(179,179,179)" fill-rule="evenodd" stroke="none" stroke-width="1"/><polygon id="efCDwkpHLeO139" points="185,275.700000 185,316.700000 193.600000,316.700000 193.600000,275.700000 185,275.700000" clip-rule="evenodd" fill="rgb(153,153,153)" fill-rule="evenodd" stroke="none" stroke-width="1"/><polygon id="efCDwkpHLeO140" points="188,275.700000 188,316.700000 190.600000,316.700000 190.600000,275.700000 188,275.700000" clip-rule="evenodd" fill="rgb(179,179,179)" fill-rule="evenodd" stroke="none" stroke-width="1"/><polygon id="efCDwkpHLeO141" points="206.500000,275.700000 206.500000,316.700000 215.100000,316.700000 215.100000,275.700000 206.500000,275.700000" clip-rule="evenodd" fill="rgb(153,153,153)" fill-rule="evenodd" stroke="none" stroke-width="1"/><polygon id="efCDwkpHLeO142" points="209.500000,275.700000 209.500000,316.700000 212.200000,316.700000 212.200000,275.700000 209.500000,275.700000" clip-rule="evenodd" fill="rgb(179,179,179)" fill-rule="evenodd" stroke="none" stroke-width="1"/><polygon id="efCDwkpHLeO143" points="228.100000,275.700000 228.100000,316.700000 236.600000,316.700000 236.600000,275.700000 228.100000,275.700000" clip-rule="evenodd" fill="rgb(153,153,153)" fill-rule="evenodd" stroke="none" stroke-width="1"/><polygon id="efCDwkpHLeO144" points="231,275.700000 231,316.700000 233.700000,316.700000 233.700000,275.700000 231,275.700000" clip-rule="evenodd" fill="rgb(179,179,179)" fill-rule="evenodd" stroke="none" stroke-width="1"/><polygon id="efCDwkpHLeO145" points="249.600000,275.700000 249.600000,316.700000 258.100000,316.700000 258.100000,275.700000 249.600000,275.700000" clip-rule="evenodd" fill="rgb(153,153,153)" fill-rule="evenodd" stroke="none" stroke-width="1"/><polygon id="efCDwkpHLeO146" points="252.500000,275.700000 252.500000,316.700000 255.200000,316.700000 255.200000,275.700000 252.500000,275.700000" clip-rule="evenodd" fill="rgb(179,179,179)" fill-rule="evenodd" stroke="none" stroke-width="1"/><polygon id="efCDwkpHLeO147" points="271.100000,275.700000 271.100000,316.700000 279.600000,316.700000 279.600000,275.700000 271.100000,275.700000" clip-rule="evenodd" fill="rgb(153,153,153)" fill-rule="evenodd" stroke="none" stroke-width="1"/><polygon id="efCDwkpHLeO148" points="274,275.700000 274,316.700000 276.700000,316.700000 276.700000,275.700000 274,275.700000" clip-rule="evenodd" fill="rgb(179,179,179)" fill-rule="evenodd" stroke="none" stroke-width="1"/><polygon id="efCDwkpHLeO149" points="292.600000,275.700000 292.600000,316.700000 301.100000,316.700000 301.100000,275.700000 292.600000,275.700000" clip-rule="evenodd" fill="rgb(153,153,153)" fill-rule="evenodd" stroke="none" stroke-width="1"/><polygon id="efCDwkpHLeO150" points="295.500000,275.700000 295.500000,316.700000 298.200000,316.700000 298.200000,275.700000 295.500000,275.700000" clip-rule="evenodd" fill="rgb(179,179,179)" fill-rule="evenodd" stroke="none" stroke-width="1"/><polygon id="efCDwkpHLeO151" points="314.100000,275.700000 314.100000,316.700000 322.700000,316.700000 322.700000,275.700000 314.100000,275.700000" clip-rule="evenodd" fill="rgb(153,153,153)" fill-rule="evenodd" stroke="none" stroke-width="1"/><polygon id="efCDwkpHLeO152" points="317.100000,275.700000 317.100000,316.700000 319.700000,316.700000 319.700000,275.700000 317.100000,275.700000" clip-rule="evenodd" fill="rgb(179,179,179)" fill-rule="evenodd" stroke="none" stroke-width="1"/></g><g id="efCDwkpHLeO153"><g id="efCDwkpHLeO154"><polygon id="efCDwkpHLeO155" points="193.600000,286.700000 206.600000,286.700000 206.600000,316.700000 193.600000,316.700000 193.600000,286.700000" clip-rule="evenodd" fill="rgb(51,51,51)" fill-rule="evenodd" stroke="none" stroke-width="1"/><path id="efCDwkpHLeO156" d="M157,286.700000L157,286.700000C159.100000,286.700000,160.700000,288.400000,160.700000,290.400000L160.700000,305.600000L153.200000,305.600000L153.200000,290.400000C153.300000,288.400000,155,286.700000,157,286.700000L157,286.700000Z" clip-rule="evenodd" fill="rgb(51,51,51)" fill-rule="evenodd" stroke="none" stroke-width="1"/><path id="efCDwkpHLeO157" d="M243.100000,286.700000L243.100000,286.700000C245.200000,286.700000,246.800000,288.400000,246.800000,290.400000L246.800000,305.600000L239.300000,305.600000L239.300000,290.400000C239.300000,288.400000,241,286.700000,243.100000,286.700000L243.100000,286.700000Z" clip-rule="evenodd" fill="rgb(51,51,51)" fill-rule="evenodd" stroke="none" stroke-width="1"/></g><g id="efCDwkpHLeO158"><polygon id="efCDwkpHLeO159" points="109.800000,288.300000 118.300000,288.300000 118.300000,308.400000 109.800000,308.400000 109.800000,288.300000" clip-rule="evenodd" fill="rgb(128,128,128)" fill-rule="evenodd" stroke="none" stroke-width="1"/><polygon id="efCDwkpHLeO160" points="110.800000,289.400000 117.300000,289.400000 117.300000,307.300000 110.800000,307.300000 110.800000,289.400000" clip-rule="evenodd" fill="rgb(51,51,51)" fill-rule="evenodd" stroke="none" stroke-width="1"/><polygon id="efCDwkpHLeO161" points="109,307.300000 119,307.300000 119,308.500000 109,308.500000 109,307.300000" clip-rule="evenodd" fill="rgb(179,179,179)" fill-rule="evenodd" stroke="none" stroke-width="1"/><polygon id="efCDwkpHLeO162" points="109,287.100000 119,287.100000 119,288.300000 109,288.300000 109,287.100000" clip-rule="evenodd" fill="rgb(179,179,179)" fill-rule="evenodd" stroke="none" stroke-width="1"/><polygon id="efCDwkpHLeO163" points="109.800000,287.100000 118.300000,287.100000 114,283.900000 109.800000,287.100000" clip-rule="evenodd" fill="rgb(153,153,153)" fill-rule="evenodd" stroke="none" stroke-width="1"/></g><g id="efCDwkpHLeO164"><polygon id="efCDwkpHLeO165" points="281.900000,288.300000 290.400000,288.300000 290.400000,308.400000 281.900000,308.400000 281.900000,288.300000" clip-rule="evenodd" fill="rgb(128,128,128)" fill-rule="evenodd" stroke="none" stroke-width="1"/><polygon id="efCDwkpHLeO166" points="282.900000,289.400000 289.400000,289.400000 289.400000,307.300000 282.900000,307.300000 282.900000,289.400000" clip-rule="evenodd" fill="rgb(51,51,51)" fill-rule="evenodd" stroke="none" stroke-width="1"/><polygon id="efCDwkpHLeO167" points="281.100000,307.300000 291.100000,307.300000 291.100000,308.500000 281.100000,308.500000 281.100000,307.300000" clip-rule="evenodd" fill="rgb(179,179,179)" fill-rule="evenodd" stroke="none" stroke-width="1"/><polygon id="efCDwkpHLeO168" points="281.100000,287.100000 291.100000,287.100000 291.100000,288.300000 281.100000,288.300000 281.100000,287.100000" clip-rule="evenodd" fill="rgb(179,179,179)" fill-rule="evenodd" stroke="none" stroke-width="1"/><polygon id="efCDwkpHLeO169" points="281.900000,287.100000 290.400000,287.100000 286.100000,283.900000 281.900000,287.100000" clip-rule="evenodd" fill="rgb(153,153,153)" fill-rule="evenodd" stroke="none" stroke-width="1"/></g></g><g id="efCDwkpHLeO170"><polygon id="efCDwkpHLeO171" points="327.800000,267.300000 72.300000,267.300000 72.300000,250.700000 327.800000,250.700000 327.800000,267.300000" clip-rule="evenodd" fill="rgb(219,219,219)" fill-rule="evenodd" stroke="none" stroke-width="1"/><polygon id="efCDwkpHLeO172" points="328.100000,267.200000 72.100000,267.200000 72.100000,275.700000 328.100000,275.700000 328.100000,267.200000" clip-rule="evenodd" fill="rgb(153,153,153)" fill-rule="evenodd" stroke="none" stroke-width="1"/><polygon id="efCDwkpHLeO173" points="328.100000,267.200000 322.900000,267.200000 328.100000,246.600000 328.100000,267.200000" clip-rule="evenodd" fill="rgb(153,153,153)" fill-rule="evenodd" stroke="none" stroke-width="1"/><polygon id="efCDwkpHLeO174" points="72.100000,267.200000 77.300000,267.200000 72.100000,246.600000 72.100000,267.200000" clip-rule="evenodd" fill="rgb(153,153,153)" fill-rule="evenodd" stroke="none" stroke-width="1"/><g id="efCDwkpHLeO175"><polygon id="efCDwkpHLeO176" points="243.800000,267.200000 156.300000,267.200000 196.500000,249.500000 200.100000,238.300000 203.600000,249.500000 243.800000,267.200000" clip-rule="evenodd" fill="rgb(153,153,153)" fill-rule="evenodd" stroke="none" stroke-width="1"/><polygon id="efCDwkpHLeO177" points="234.200000,265.200000 200.100000,250.100000 165.900000,265.200000 234.200000,265.200000" clip-rule="evenodd" fill="rgb(230,230,230)" fill-rule="evenodd" stroke="none" stroke-width="1"/><polygon id="efCDwkpHLeO178" points="156.300000,267.200000 160,267.200000 156.300000,255.400000 156.300000,267.200000" clip-rule="evenodd" fill="rgb(153,153,153)" fill-rule="evenodd" stroke="none" stroke-width="1"/><polygon id="efCDwkpHLeO179" points="243.800000,267.200000 240.100000,267.200000 243.800000,255.400000 243.800000,267.200000" clip-rule="evenodd" fill="rgb(153,153,153)" fill-rule="evenodd" stroke="none" stroke-width="1"/></g></g></g><g id="efCDwkpHLeO180"><polygon id="efCDwkpHLeO181" points="70.900000,321 329.200000,321 329.200000,331.400000 70.900000,331.400000 70.900000,321" clip-rule="evenodd" fill="rgb(204,204,204)" fill-rule="evenodd" stroke="none" stroke-width="1"/><polygon id="efCDwkpHLeO182" points="342,366.200000 58.100000,366.200000 58.100000,374.800000 342,374.800000 342,366.200000" clip-rule="evenodd" fill="rgb(128,128,128)" fill-rule="evenodd" stroke="none" stroke-width="1"/><polygon id="efCDwkpHLeO183" points="342,316.700000 58.100000,316.700000 58.100000,325.300000 342,325.300000 342,316.700000" clip-rule="evenodd" fill="rgb(153,153,153)" fill-rule="evenodd" stroke="none" stroke-width="1"/><g id="efCDwkpHLeO184"><polygon id="efCDwkpHLeO185" points="64.300000,325.300000 64.300000,366.200000 72.800000,366.200000 72.800000,325.300000 64.300000,325.300000" clip-rule="evenodd" fill="rgb(153,153,153)" fill-rule="evenodd" stroke="none" stroke-width="1"/><polygon id="efCDwkpHLeO186" points="67.200000,325.300000 67.200000,366.200000 69.900000,366.200000 69.900000,325.300000 67.200000,325.300000" clip-rule="evenodd" fill="rgb(179,179,179)" fill-rule="evenodd" stroke="none" stroke-width="1"/><polygon id="efCDwkpHLeO187" points="88.200000,325.300000 88.200000,366.200000 96.800000,366.200000 96.800000,325.300000 88.200000,325.300000" clip-rule="evenodd" fill="rgb(153,153,153)" fill-rule="evenodd" stroke="none" stroke-width="1"/><polygon id="efCDwkpHLeO188" points="91.100000,325.300000 91.100000,366.200000 93.800000,366.200000 93.800000,325.300000 91.100000,325.300000" clip-rule="evenodd" fill="rgb(179,179,179)" fill-rule="evenodd" stroke="none" stroke-width="1"/><polygon id="efCDwkpHLeO189" points="112.100000,325.300000 112.100000,366.200000 120.700000,366.200000 120.700000,325.300000 112.100000,325.300000" clip-rule="evenodd" fill="rgb(153,153,153)" fill-rule="evenodd" stroke="none" stroke-width="1"/><polygon id="efCDwkpHLeO190" points="115.100000,325.300000 115.100000,366.200000 117.700000,366.200000 117.700000,325.300000 115.100000,325.300000" clip-rule="evenodd" fill="rgb(179,179,179)" fill-rule="evenodd" stroke="none" stroke-width="1"/><polygon id="efCDwkpHLeO191" points="136,325.300000 136,366.200000 144.600000,366.200000 144.600000,325.300000 136,325.300000" clip-rule="evenodd" fill="rgb(153,153,153)" fill-rule="evenodd" stroke="none" stroke-width="1"/><polygon id="efCDwkpHLeO192" points="139,325.300000 139,366.200000 141.600000,366.200000 141.600000,325.300000 139,325.300000" clip-rule="evenodd" fill="rgb(179,179,179)" fill-rule="evenodd" stroke="none" stroke-width="1"/><polygon id="efCDwkpHLeO193" points="159.900000,325.300000 159.900000,366.200000 168.500000,366.200000 168.500000,325.300000 159.900000,325.300000" clip-rule="evenodd" fill="rgb(153,153,153)" fill-rule="evenodd" stroke="none" stroke-width="1"/><polygon id="efCDwkpHLeO194" points="162.900000,325.300000 162.900000,366.200000 165.500000,366.200000 165.500000,325.300000 162.900000,325.300000" clip-rule="evenodd" fill="rgb(179,179,179)" fill-rule="evenodd" stroke="none" stroke-width="1"/><polygon id="efCDwkpHLeO195" points="183.800000,325.300000 183.800000,366.200000 192.400000,366.200000 192.400000,325.300000 183.800000,325.300000" clip-rule="evenodd" fill="rgb(153,153,153)" fill-rule="evenodd" stroke="none" stroke-width="1"/><polygon id="efCDwkpHLeO196" points="186.800000,325.300000 186.800000,366.200000 189.500000,366.200000 189.500000,325.300000 186.800000,325.300000" clip-rule="evenodd" fill="rgb(179,179,179)" fill-rule="evenodd" stroke="none" stroke-width="1"/><polygon id="efCDwkpHLeO197" points="207.700000,325.300000 207.700000,366.200000 216.300000,366.200000 216.300000,325.300000 207.700000,325.300000" clip-rule="evenodd" fill="rgb(153,153,153)" fill-rule="evenodd" stroke="none" stroke-width="1"/><polygon id="efCDwkpHLeO198" points="210.700000,325.300000 210.700000,366.200000 213.400000,366.200000 213.400000,325.300000 210.700000,325.300000" clip-rule="evenodd" fill="rgb(179,179,179)" fill-rule="evenodd" stroke="none" stroke-width="1"/><polygon id="efCDwkpHLeO199" points="231.700000,325.300000 231.700000,366.200000 240.200000,366.200000 240.200000,325.300000 231.700000,325.300000" clip-rule="evenodd" fill="rgb(153,153,153)" fill-rule="evenodd" stroke="none" stroke-width="1"/><polygon id="efCDwkpHLeO200" points="234.600000,325.300000 234.600000,366.200000 237.300000,366.200000 237.300000,325.300000 234.600000,325.300000" clip-rule="evenodd" fill="rgb(179,179,179)" fill-rule="evenodd" stroke="none" stroke-width="1"/><polygon id="efCDwkpHLeO201" points="255.600000,325.300000 255.600000,366.200000 264.100000,366.200000 264.100000,325.300000 255.600000,325.300000" clip-rule="evenodd" fill="rgb(153,153,153)" fill-rule="evenodd" stroke="none" stroke-width="1"/><polygon id="efCDwkpHLeO202" points="258.500000,325.300000 258.500000,366.200000 261.200000,366.200000 261.200000,325.300000 258.500000,325.300000" clip-rule="evenodd" fill="rgb(179,179,179)" fill-rule="evenodd" stroke="none" stroke-width="1"/><polygon id="efCDwkpHLeO203" points="279.500000,325.300000 279.500000,366.200000 288,366.200000 288,325.300000 279.500000,325.300000" clip-rule="evenodd" fill="rgb(153,153,153)" fill-rule="evenodd" stroke="none" stroke-width="1"/><polygon id="efCDwkpHLeO204" points="282.400000,325.300000 282.400000,366.200000 285.100000,366.200000 285.100000,325.300000 282.400000,325.300000" clip-rule="evenodd" fill="rgb(179,179,179)" fill-rule="evenodd" stroke="none" stroke-width="1"/><polygon id="efCDwkpHLeO205" points="303.400000,325.300000 303.400000,366.200000 311.900000,366.200000 311.900000,325.300000 303.400000,325.300000" clip-rule="evenodd" fill="rgb(153,153,153)" fill-rule="evenodd" stroke="none" stroke-width="1"/><polygon id="efCDwkpHLeO206" points="306.300000,325.300000 306.300000,366.200000 309,366.200000 309,325.300000 306.300000,325.300000" clip-rule="evenodd" fill="rgb(179,179,179)" fill-rule="evenodd" stroke="none" stroke-width="1"/><polygon id="efCDwkpHLeO207" points="327.300000,325.300000 327.300000,366.200000 335.800000,366.200000 335.800000,325.300000 327.300000,325.300000" clip-rule="evenodd" fill="rgb(153,153,153)" fill-rule="evenodd" stroke="none" stroke-width="1"/><polygon id="efCDwkpHLeO208" points="330.200000,325.300000 330.200000,366.200000 332.900000,366.200000 332.900000,325.300000 330.200000,325.300000" clip-rule="evenodd" fill="rgb(179,179,179)" fill-rule="evenodd" stroke="none" stroke-width="1"/></g><g id="efCDwkpHLeO209"><path id="efCDwkpHLeO210" d="M128.300000,335L128.300000,335C130.400000,335,132,336.700000,132,338.700000L132,353.900000L124.500000,353.900000L124.500000,338.700000C124.600000,336.700000,126.300000,335,128.300000,335L128.300000,335Z" clip-rule="evenodd" fill="rgb(51,51,51)" fill-rule="evenodd" stroke="none" stroke-width="1"/><path id="efCDwkpHLeO211" d="M271.800000,335L271.800000,335C273.900000,335,275.500000,336.700000,275.500000,338.700000L275.500000,353.900000L268,353.900000L268,338.700000C268,336.700000,269.700000,335,271.800000,335L271.800000,335Z" clip-rule="evenodd" fill="rgb(51,51,51)" fill-rule="evenodd" stroke="none" stroke-width="1"/><path id="efCDwkpHLeO212" d="M295.700000,328.100000L295.700000,328.100000C298.500000,328.100000,300.800000,330.400000,300.800000,333.200000L300.800000,353.900000L290.600000,353.900000L290.600000,333.200000C290.600000,330.400000,292.900000,328.100000,295.700000,328.100000L295.700000,328.100000Z" clip-rule="evenodd" fill="rgb(51,51,51)" fill-rule="evenodd" stroke="none" stroke-width="1"/><path id="efCDwkpHLeO213" d="M104.400000,328.100000L104.400000,328.100000C107.200000,328.100000,109.500000,330.400000,109.500000,333.200000L109.500000,353.900000L99.300000,353.900000L99.300000,333.200000C99.300000,330.400000,101.600000,328.100000,104.400000,328.100000L104.400000,328.100000Z" clip-rule="evenodd" fill="rgb(51,51,51)" fill-rule="evenodd" stroke="none" stroke-width="1"/></g></g></svg>