<svg id="s1" xmlns="http://www.w3.org/2000/svg" xmlns:xlink="http://www.w3.org/1999/xlink" viewBox="0 0 400 400"><g id="s3"><g id="s5"><path id="s7" d="M321.250000,254.350000C322.280588,256.510558,324.461232,257.886412,326.855000,257.886412C329.248768,257.886412,331.429412,256.510558,332.460000,254.350000L333,253C334.575568,249.738773,337.878120,247.666531,341.500000,247.666531C345.121880,247.666531,348.424432,249.738773,350,253L370,295C371.393167,297.924388,371.189616,301.358867,369.460778,304.098224C367.731939,306.837581,364.719284,308.499203,361.480000,308.500000L164.720000,308.500000C161.480716,308.499203,158.468061,306.837581,156.739222,304.098224C155.010384,301.358867,154.806833,297.924388,156.200000,295L239.890000,119.380000C241.465568,116.118773,244.768120,114.046531,248.390000,114.046531C252.011880,114.046531,255.314432,116.118773,256.890000,119.380000Z" fill="rgb(189,202,227)" stroke="none" stroke-width="1"/><path id="s9" d="M232,191.260000C235.631181,187.714709,241.352565,187.481711,245.260000,190.720000L267.490000,209.130000C270.789591,211.864478,275.472091,212.170998,279.100000,209.890000L285.660000,205.770000C288.432547,204.027541,291.886380,203.765604,294.890000,205.070000L298.520000,206.650000L256.930000,119.360000C255.354432,116.098773,252.051880,114.026531,248.430000,114.026531C244.808120,114.026531,241.505568,116.098773,239.930000,119.360000L182.830000,239.090000Z" fill="rgb(225,231,245)" stroke="none" stroke-width="1"/><path id="s11" d="M350.070000,253C348.494432,249.738773,345.191880,247.666531,341.570000,247.666531C337.948120,247.666531,334.645568,249.738773,333.070000,253L332.490000,254.350000C331.786349,255.856824,330.496190,257.009655,328.920000,257.540000L337.330000,264.750000C338.658190,265.884575,340.592832,265.955001,342,264.920000L346.860000,261.340000C348.154295,260.388563,349.910071,260.364456,351.230000,261.280000L353.320000,262.730000C353.833012,263.088357,354.427938,263.311884,355.050000,263.380000Z" fill="rgb(225,231,245)" stroke="none" stroke-width="1"/></g><g id="s13"><path id="s15" d="M69.210000,308.480000L265.590000,308.480000C268.846642,308.463060,271.864567,306.768698,273.574677,303.997141C275.284786,301.225584,275.445543,297.768289,274,294.850000L175.810000,96.850000C174.215592,93.639083,170.939986,91.608401,167.355000,91.608401C163.770014,91.608401,160.494408,93.639083,158.900000,96.850000L135.550000,144C133.550000,148.100000,130.850000,150.170000,126.630000,150.170000L104.890000,150.170000C101.241787,150.141176,97.912204,152.243659,96.370000,155.550000L29.930000,295C28.536833,297.924388,28.740384,301.358867,30.469222,304.098224C32.198061,306.837581,35.210716,308.499203,38.450000,308.500000Z" fill="rgb(94,145,186)" stroke="none" stroke-width="1"/><path id="s17" d="M175.850000,96.830000C174.255592,93.619083,170.979986,91.588401,167.395000,91.588401C163.810014,91.588401,160.534408,93.619083,158.940000,96.830000L135.550000,144C133.550000,148.100000,130.850000,150.170000,126.630000,150.170000L104.890000,150.170000C101.241787,150.141176,97.912204,152.243659,96.370000,155.550000L88.100000,172.920000L107.250000,168.470000C112.500134,167.249910,118.018191,168.087281,122.670000,170.810000L148.790000,186.090000C156.797671,190.771748,166.924248,189.671827,173.740000,183.380000L186.680000,171.430000C190.867442,167.565635,196.440365,165.560104,202.130000,165.870000L210.310000,166.320000Z" fill="rgb(150,188,222)" stroke="none" stroke-width="1"/><path id="s19" d="M150,195.640000L162.660000,215.640000C165.789273,220.584473,170.352321,224.456784,175.740000,226.740000L175.740000,226.740000C180.585422,228.794563,184.774167,232.139333,187.850000,236.410000L194.660000,245.870000" fill="none" stroke="rgb(75,126,168)" stroke-width="5" stroke-linecap="round" stroke-linejoin="round"/><line id="s21" x1="126.930000" y1="184.330000" x2="139.430000" y2="204.870000" fill="none" stroke="rgb(75,126,168)" stroke-width="5" stroke-linecap="round" stroke-linejoin="round"/></g><g id="s23"><path id="s25" d="M115.500000,302.710000L167.300000,262C170.313392,259.632773,174.459644,259.324472,177.790000,261.220000L184.720000,265.170000C187.472316,266.735227,190.935897,266.232781,193.130000,263.950000L232.780000,222.700000C233.818298,221.621347,235.260415,221.026121,236.757249,221.058414C238.254082,221.090706,239.669188,221.747572,240.660000,222.870000L285.940000,274.280000C290.043531,278.942797,295.831272,281.784510,302.030000,282.180000L305.750000,282.420000C309.706761,282.670489,313.478545,284.184812,316.510000,286.740000L336.390000,303.490000C338.442875,305.220417,339.566146,307.812899,339.424722,310.494062C339.283298,313.175226,337.893526,315.635151,335.670000,317.140000L316.800000,329.920000C310.276135,334.337169,302.578591,336.698678,294.700000,336.700000L219.380000,336.700000C215.543114,336.700464,211.727772,337.273439,208.060000,338.400000L181.230000,346.640000C177.617049,347.747993,173.859030,348.310854,170.080000,348.310000L163,348.310000C157.032607,348.310064,151.555278,345.007500,148.770000,339.730000L143.660000,330C141.133341,325.212270,137.048102,321.430425,132.080000,319.280000L116.790000,312.660000C114.915431,311.829509,113.610025,310.081114,113.346413,308.047832C113.082802,306.014550,113.899190,303.991068,115.500000,302.710000Z" fill="rgb(104,191,219)" stroke="none" stroke-width="1"/><path id="s27" d="M161,338.060000L183.900000,291.400000C185.623384,287.891605,189.462645,285.949535,193.310000,286.640000L202.070000,288.210000C206.057846,288.924590,210.015450,286.811386,211.640000,283.100000L233.310000,233.550000" fill="none" stroke="rgb(154,222,245)" stroke-width="5" stroke-linecap="round" stroke-linejoin="round"/><line id="s29" x1="240.150000" y1="250.920000" x2="233.600000" y2="272.210000" fill="none" stroke="rgb(154,222,245)" stroke-width="5" stroke-linecap="round" stroke-linejoin="round"/></g></g></svg>