<svg id="s1" xmlns="http://www.w3.org/2000/svg" xmlns:xlink="http://www.w3.org/1999/xlink" viewBox="0 0 400 400"><g id="s3"><g id="s5"><path id="s7" d="M148.660000,175.740000C104.610000,142.060000,45.660000,145.150000,17,182.640000L176.530000,304.640000C205.190000,267.110000,192.710000,209.420000,148.660000,175.740000Z" fill="rgb(204,227,235)" stroke="none" stroke-width="1"/><path id="s9" d="M174.170000,164.070000C143.620000,117.800000,86.930000,101.360000,47.550000,127.360000L158.190000,294.940000C197.570000,268.940000,204.730000,210.350000,174.170000,164.070000Z" fill="rgb(180,200,215)" stroke="none" stroke-width="1"/><path id="s11" d="M218.890000,163.230000C211.190000,108.320000,167.070000,69.110000,120.340000,75.660000L148.220000,274.520000C194.950000,268,226.590000,218.150000,218.890000,163.230000Z" fill="rgb(204,227,235)" stroke="none" stroke-width="1"/><path id="s13" d="M204.730000,171.670000C225.350000,133.940000,268.100000,117.580000,300.210000,135.130000L225.520000,271.770000C193.410000,254.210000,184.100000,209.400000,204.730000,171.670000Z" fill="rgb(180,200,215)" stroke="none" stroke-width="1"/><polygon id="s15" points="217.250000,154 140.870000,223.820000 293.620000,223.820000 217.250000,154" fill="rgb(144,161,180)" stroke="none" stroke-width="1"/></g><g id="s17"><path id="s19" d="M321.130000,205.870000C316.190000,170.620000,287.870000,145.460000,257.880000,149.670000L275.760000,277.300000C305.760000,273.100000,326.070000,241.110000,321.130000,205.870000Z" fill="rgb(204,227,235)" stroke="none" stroke-width="1"/><path id="s21" d="M312.490000,201C325.730000,176.780000,353.160000,166.280000,373.770000,177.550000L325.830000,265.250000C305.230000,254,299.260000,225.200000,312.490000,201Z" fill="rgb(204,227,235)" stroke="none" stroke-width="1"/><polygon id="s23" points="318.040000,192.620000 280.460000,223.820000 341.740000,223.820000 318.040000,192.620000" fill="rgb(180,200,215)" stroke="none" stroke-width="1"/></g><rect id="s25" width="293.340000" height="30.840000" rx="5.240000" ry="5.240000" transform="translate(60.190000,223.390000)" fill="rgb(199,127,107)" stroke="none" stroke-width="1"/><rect id="s27" width="352.290000" height="30.840000" rx="14" ry="14" transform="translate(30.710000,250.580000)" fill="rgb(112,192,223)" stroke="none" stroke-width="1"/><rect id="s29" width="121.520000" height="30.840000" rx="14" ry="14" transform="translate(109.430000,277.940000)" fill="rgb(90,173,205)" stroke="none" stroke-width="1"/><rect id="s31" width="121.520000" height="30.840000" rx="14" ry="14" transform="translate(260.070000,292.920000)" fill="rgb(90,173,205)" stroke="none" stroke-width="1"/></g></svg>