<svg id="s1" xmlns="http://www.w3.org/2000/svg" xmlns:xlink="http://www.w3.org/1999/xlink" viewBox="0 0 400 400"><g id="s3"><rect id="s5" width="208.350000" height="27.520000" rx="13.760000" ry="13.760000" transform="translate(77.760000,312.180000)" fill="rgb(48,135,96)" stroke="none" stroke-width="1"/><g id="s7"><path id="s9" d="M245.110000,266.240000L284.050000,70.890000C284.490000,68.680000,283.600000,66.620000,282.050000,66.310000L214.800000,52.900000C213.270000,52.590000,211.650000,54.150000,211.210000,56.370000L172.270000,251.720000Z" fill="rgb(255,232,187)" stroke="none" stroke-width="1"/><path id="s11" d="M233.080000,114L238.310000,87.760000C239.607869,81.245801,235.379199,74.912869,228.865000,73.615000C222.350801,72.317131,216.017869,76.545801,214.720000,83.060000L209.490000,109.300000Z" fill="rgb(250,213,135)" stroke="none" stroke-width="1"/><path id="s13" d="M265.340000,120.460000L270.570000,94.220000C271.870630,87.711324,267.648676,81.380631,261.140000,80.080000C254.631324,78.779370,248.300631,83.001324,247,89.510000L241.770000,115.750000Z" fill="rgb(250,213,135)" stroke="none" stroke-width="1"/><path id="s15" d="M244.220000,358.570000L287.200000,143C287.635311,140.781116,286.196489,138.627350,283.980000,138.180000L186.920000,118.830000C184.701116,118.394689,182.547350,119.833511,182.100000,122.050000L139.100000,337.640000Z" fill="rgb(255,232,187)" stroke="none" stroke-width="1"/><path id="s17" d="M204,179.680000L209.230000,153.440000C210.527869,146.925801,206.299199,140.592869,199.785000,139.295000C193.270801,137.997131,186.937869,142.225801,185.640000,148.740000L180.360000,175Z" fill="rgb(250,213,135)" stroke="none" stroke-width="1"/><path id="s19" d="M236.220000,186.120000L241.450000,159.880000C242.747869,153.365801,238.519199,147.032869,232.005000,145.735000C225.490801,144.437131,219.157869,148.665801,217.860000,155.180000L212.630000,181.420000Z" fill="rgb(250,213,135)" stroke="none" stroke-width="1"/><path id="s21" d="M268.490000,192.550000L273.720000,166.310000C275.017869,159.795801,270.789199,153.462869,264.275000,152.165000C257.760801,150.867131,251.427869,155.095801,250.130000,161.610000L244.900000,187.850000Z" fill="rgb(250,213,135)" stroke="none" stroke-width="1"/><rect id="s23" width="123.340000" height="14.740000" rx="2.950000" ry="2.950000" transform="translate(30,-43.440000) rotate(11.270020) skewX(-0) scale(1,1) translate(173.420000,122.900000)" fill="rgb(232,180,107)" stroke="none" stroke-width="1"/><path id="s25" d="M190.210000,248.630000L195.440000,222.390000C196.737869,215.875801,192.509199,209.542869,185.995000,208.245000C179.480801,206.947131,173.147869,211.175801,171.850000,217.690000L166.620000,243.930000Z" fill="rgb(250,213,135)" stroke="none" stroke-width="1"/><path id="s27" d="M222.480000,255.060000L227.710000,228.820000C229.007869,222.305801,224.779199,215.972869,218.265000,214.675000C211.750801,213.377131,205.417869,217.605801,204.120000,224.120000L198.890000,250.360000Z" fill="rgb(250,213,135)" stroke="none" stroke-width="1"/><path id="s29" d="M254.750000,261.490000L260,235.250000C261.297869,228.735801,257.069199,222.402869,250.555000,221.105000C244.040801,219.807131,237.707869,224.035801,236.410000,230.550000L231.180000,256.790000Z" fill="rgb(250,213,135)" stroke="none" stroke-width="1"/><rect id="s31" width="123.340000" height="14.740000" rx="2.950000" ry="2.950000" transform="translate(43.210000,-39.430000) rotate(11.270020) skewX(-0) scale(1,1) translate(159.680000,191.850000)" fill="rgb(232,180,107)" stroke="none" stroke-width="1"/><path id="s33" d="M171.280000,343.600000L181.700000,291.340000C182.997869,284.825801,178.769199,278.492869,172.255000,277.195000C165.740801,275.897131,159.407869,280.125801,158.110000,286.640000L147.690000,338.900000Z" fill="rgb(250,213,135)" stroke="none" stroke-width="1"/><path id="s35" d="M203.550000,350L214,297.770000C215.297869,291.255801,211.069199,284.922869,204.555000,283.625000C198.040801,282.327131,191.707869,286.555801,190.410000,293.070000L180,345.330000Z" fill="rgb(250,213,135)" stroke="none" stroke-width="1"/><path id="s37" d="M235.820000,356.460000L246.240000,304.200000C247.537869,297.685801,243.309199,291.352869,236.795000,290.055000C230.280801,288.757131,223.947869,292.985801,222.650000,299.500000L212.230000,351.760000Z" fill="rgb(250,213,135)" stroke="none" stroke-width="1"/><rect id="s39" width="123.340000" height="14.740000" rx="2.950000" ry="2.950000" transform="translate(56.430000,-35.410000) rotate(11.270020) skewX(-0) scale(1,1) translate(145.930000,260.790000)" fill="rgb(232,180,107)" stroke="none" stroke-width="1"/><rect id="s41" width="92.960000" height="14.740000" rx="2.950000" ry="2.950000" transform="translate(16.490000,-47.550000) rotate(11.270020) skewX(-0) scale(1,1) translate(202.660000,52.380000)" fill="rgb(232,180,107)" stroke="none" stroke-width="1"/></g><rect id="s43" width="208.350000" height="27.520000" rx="13.760000" ry="13.760000" transform="translate(113.890000,325.940000)" fill="rgb(84,166,91)" stroke="none" stroke-width="1"/><rect id="s45" width="163.320000" height="27.520000" rx="13.760000" ry="13.760000" transform="translate(91.680000,347.070000)" fill="rgb(107,199,115)" stroke="none" stroke-width="1"/></g></svg>