<svg id="s1" xmlns="http://www.w3.org/2000/svg" xmlns:xlink="http://www.w3.org/1999/xlink" viewBox="0 0 400 400"><g id="s3"><g id="s5"><path id="s7" d="M249.230000,336.460000L344.850000,298.830000C346.556701,298.159895,347.679396,296.513540,347.680000,294.680000L347.680000,72.680000C347.679514,71.205351,346.950150,69.826269,345.731543,68.995856C344.512937,68.165442,342.962637,67.991059,341.590000,68.530000L249.230000,104.870000Z" fill="rgb(255,226,196)" stroke="none" stroke-width="1"/><polygon id="s9" points="249.220000,317.290000 329.840000,285.570000 329.840000,92.330000 249.220000,124.050000 249.220000,317.290000" fill="rgb(103,200,219)" stroke="none" stroke-width="1"/><path id="s11" d="M249.220000,124.050000L249.220000,124.050000L249.220000,161.820000C251.920000,166.010000,254.100000,171.460000,255.610000,178.720000C262.330000,210.960000,295.020000,246.070000,329.830000,213.250000L329.830000,92.330000Z" fill="rgb(71,150,77)" stroke="none" stroke-width="1"/></g><g id="s13"><polygon id="s15" points="249.220000,336.460000 150.780000,297.720000 150.780000,66.140000 249.220000,104.890000 249.220000,336.460000" fill="rgb(245,202,159)" stroke="none" stroke-width="1"/><polygon id="s17" points="150.780000,278.550000 249.220000,317.290000 249.220000,317.290000 249.220000,124.050000 249.220000,124.050000 150.780000,85.310000 150.780000,278.550000" fill="rgb(81,184,204)" stroke="none" stroke-width="1"/><path id="s19" d="M155.600000,218.340000L150.770000,219.270000L150.770000,278.560000L234.480000,311.500000C242.370000,241.450000,205.830000,208.360000,155.600000,218.340000Z" fill="rgb(40,133,70)" stroke="none" stroke-width="1"/><path id="s21" d="M183.750000,98.290000C183.850000,113.100000,189.200000,128.290000,197.470000,134.810000C215.870000,149.270000,237.470000,143.540000,249.220000,161.810000L249.220000,124.050000L249.220000,124.050000Z" fill="rgb(40,133,70)" stroke="none" stroke-width="1"/></g><g id="s23"><path id="s25" d="M58.420000,334.060000L150.780000,297.720000L150.780000,66.140000L55.150000,103.770000C53.443299,104.440105,52.320604,106.086460,52.320000,107.920000L52.320000,329.920000C52.322490,331.395478,53.054544,332.774232,54.275401,333.602814C55.496259,334.431396,57.047894,334.602555,58.420000,334.060000Z" fill="rgb(255,226,196)" stroke="none" stroke-width="1"/><polygon id="s27" points="150.780000,85.310000 150.770000,85.310000 70.160000,117.030000 70.160000,310.270000 150.770000,278.550000 150.780000,278.550000 150.780000,85.310000" fill="rgb(103,200,219)" stroke="none" stroke-width="1"/><path id="s29" d="M150.770000,278.550000L150.770000,219.260000C131.770000,222.810000,110.380000,224.710000,103,203.720000C97.550000,188.210000,84.300000,182.190000,70.150000,186.920000L70.150000,310.270000L150.770000,278.550000Z" fill="rgb(71,150,77)" stroke="none" stroke-width="1"/></g></g></svg>