<svg id="s1" xmlns="http://www.w3.org/2000/svg" xmlns:xlink="http://www.w3.org/1999/xlink" viewBox="0 0 400 400"><g id="s3"><path id="s5" d="M266.500000,128.580000L244.160000,128.580000C239.205302,128.541906,235.198094,124.534698,235.160000,119.580000L235.160000,105.580000C235.143522,99.798895,230.461105,95.116478,224.680000,95.100000L175.370000,95.100000C169.588895,95.116478,164.906478,99.798895,164.890000,105.580000L164.890000,119.580000C164.851906,124.534698,160.844698,128.541906,155.890000,128.580000L133.500000,128.580000" fill="none" stroke="rgb(153,101,63)" stroke-width="15" stroke-linecap="round" stroke-miterlimit="10"/><rect id="s7" width="282" height="201" rx="25.500000" ry="25.500000" transform="translate(59,135.820000)" fill="rgb(255,165,61)" stroke="none" stroke-width="1"/><rect id="s9" width="179" height="260" rx="14.500000" ry="14.500000" transform="translate(436.320000,36.320000) rotate(90) translate(110.500000,106.320000)" fill="rgb(153,101,63)" stroke="none" stroke-width="1"/><path id="s11" d="M84.500000,135.820000C70.434971,135.863919,59.043919,147.254971,59,161.320000L59,186.820000L82,186.820000C96.065029,186.776081,107.456081,175.385029,107.500000,161.320000L107.500000,135.820000Z" fill="rgb(240,139,19)" stroke="none" stroke-width="1"/><path id="s13" d="M315.500000,135.820000L292.500000,135.820000L292.500000,161.320000C292.543919,175.385029,303.934971,186.776081,318,186.820000L341,186.820000L341,161.320000C340.956081,147.254971,329.565029,135.863919,315.500000,135.820000Z" fill="rgb(240,139,19)" stroke="none" stroke-width="1"/><path id="s15" d="M82,285.820000L59,285.820000L59,311.320000C59.043919,325.385029,70.434971,336.776081,84.500000,336.820000L107.500000,336.820000L107.500000,311.320000C107.456081,297.254971,96.065029,285.863919,82,285.820000Z" fill="rgb(240,139,19)" stroke="none" stroke-width="1"/><path id="s17" d="M318,285.820000C303.934971,285.863919,292.543919,297.254971,292.500000,311.320000L292.500000,336.820000L315.500000,336.820000C329.565029,336.776081,340.956081,325.385029,341,311.320000L341,285.820000Z" fill="rgb(240,139,19)" stroke="none" stroke-width="1"/><circle id="s19" r="21.500000" transform="translate(112,235.820000)" fill="rgb(255,130,166)" stroke="none" stroke-width="1"/><rect id="s21" width="53.290000" height="40.290000" rx="2.170000" ry="2.170000" transform="translate(52.090000,-45.580000) rotate(14.139993) scale(1,1) translate(183.140000,167.010000)" fill="rgb(154,225,240)" stroke="none" stroke-width="1"/><rect id="s23" width="45.210000" height="34.180000" rx="1.840000" ry="1.840000" transform="translate(31.510000,-24.470000) rotate(6.239981) scale(1,1) translate(217.490000,259.590000)" fill="rgb(81,184,204)" stroke="none" stroke-width="1"/><rect id="s25" width="67.290000" height="50.880000" rx="2.740000" ry="2.740000" transform="translate(-53.410000,65.400000) rotate(-16.430016) scale(1,1) translate(166.220000,192.290000)" fill="rgb(81,171,88)" stroke="none" stroke-width="1"/><rect id="s27" width="21" height="216" rx="3.830000" ry="3.830000" transform="translate(123.500000,128.320000)" fill="rgb(159,201,67)" stroke="none" stroke-width="1"/><rect id="s29" width="21" height="216" rx="3.830000" ry="3.830000" transform="translate(532,472.640000) rotate(180) translate(255.500000,128.320000)" fill="rgb(159,201,67)" stroke="none" stroke-width="1"/></g></svg>