<svg id="s1" xmlns="http://www.w3.org/2000/svg" xmlns:xlink="http://www.w3.org/1999/xlink" viewBox="0 0 400 400"><g id="s3"><circle id="s5" r="127" transform="translate(200,200)" fill="rgb(81,184,204)" stroke="none" stroke-width="1"/><path id="s7" d="M100.290000,230.780000L99.760000,229.780000L100.760000,229.190000L101.450000,229.240000L101.720000,230.520000ZM159.520000,126.680000L161.120000,128.390000L164.540000,127.750000L167.310000,124.870000L168.480000,125.620000L171.150000,121.880000L170.080000,118.790000L168.370000,117.300000L163.990000,117.410000L160,119.310000L159.790000,117.070000C158.958281,116.683782,158.103289,116.349801,157.230000,116.070000C156.910000,116.070000,154.560000,119.810000,154.560000,119.810000L157.330000,121.200000L155.620000,121.950000L155.620000,122.950000L157.860000,123.700000L156.790000,125.940000ZM190.150000,138.180000L190.390000,135.940000L189,135L188.200000,136.680000L188.680000,138.840000ZM110.750000,168.730000L111.280000,165.730000L110.280000,163.920000L108.360000,164.670000L108.250000,163.670000L109.320000,161.750000L108.790000,160.360000L106.340000,163.130000C103.250000,168.890000,102.930000,168.890000,103.250000,168.890000L107.730000,168.890000L107.620000,171.130000ZM91.540000,223.360000L93.780000,223.680000L95.700000,222.080000L95.060000,220.910000L91.220000,221.660000ZM96.930000,225.120000L98.740000,224.590000L98.790000,223.150000L97.350000,223.200000ZM100.830000,171.390000C100.268989,171.900528,99.681510,172.381192,99.070000,172.830000C98.750000,172.990000,99.070000,170.750000,99.070000,170.750000L96.750000,170.910000L95.550000,174.910000L92.190000,176.830000L91.790000,178.750000L93.710000,179.470000L96.430000,178.670000L97.710000,176.270000L99.950000,176.030000L102.590000,173.230000ZM115.240000,108.390000L111.610000,109.780000L110.610000,113.410000C113.920000,122.480000,113.920000,122.050000,113.920000,122.480000C113.920000,122.910000,114.450000,127.390000,114.450000,127.390000L121.450000,136.570000C123.690000,136.140000,123.580000,135.820000,123.690000,136.140000C124.079017,136.804315,124.506408,137.445402,124.970000,138.060000L127.320000,137.740000L129.990000,128.350000L129.780000,120.880000L133.200000,119.390000L140.140000,115.650000L141.850000,110.530000C149.850000,108.530000,149.430000,108.530000,149.850000,108.530000C150.270000,108.530000,155.720000,103.830000,155.720000,103.830000L157.210000,101.700000L153.580000,99.780000L148.990000,102.550000L148.240000,100.630000L152.400000,98.390000L152.720000,95.510000C154.430000,95.400000,154.320000,95.080000,154.430000,95.400000C154.540000,95.720000,156.140000,98.490000,156.140000,98.490000L158.810000,98.380000L159.020000,95.070000L152.590000,90L153.230000,84L158.230000,85.710000L160.680000,84.540000L159.360000,79.660000C143.308649,85.088399,128.507427,93.677392,115.830000,104.920000ZM117.090000,296.160000L118.600000,294.160000L119.400000,288.720000L124,285.200000L128.160000,285.520000L132.320000,276.720000C131.840000,270.320000,131.680000,270.800000,131.840000,270.320000C132,269.840000,134.400000,269.840000,134.400000,269.840000C134.400000,269.840000,138.880000,263.280000,138.880000,262.840000C138.880000,262.400000,138.240000,259.160000,138.240000,259.160000L133.760000,255L126.560000,253.400000L124.160000,251.480000L117.800000,250L115.400000,243.440000L111.080000,240.560000L105.800000,240.560000L103.240000,235.920000L101,236.920000L100.840000,233.560000L95.840000,232.120000L95.360000,234.680000L90.740000,234L89,232.540000L87.400000,232.380000L85.640000,234.460000L85.160000,236.540000L82.600000,234.300000L85.480000,232.700000L85.160000,231.100000L80,232.220000L77.930000,235.220000C84.784021,258.916006,98.387358,280.104552,117.080000,296.200000ZM256.430000,285.090000L256.030000,286.090000L258.350000,288.970000L261.150000,287.970000L264.830000,274.970000L266.430000,273.450000L266.110000,269.690000L265.110000,267.130000L264.110000,267.530000C264.030000,267.850000,263.470000,269.930000,263.470000,269.930000L262.190000,270.010000L261.870000,271.930000L259.230000,274.250000L257.790000,274.650000L256.590000,276.570000L257.150000,278.730000L255.790000,282.410000ZM188.070000,139.210000L186.230000,139.210000L185.430000,140.090000L187.350000,141.770000ZM296.280000,117.210000C316.132456,140.220564,327.037359,169.609135,327,200C327.007412,205.402354,326.673413,210.799777,326,216.160000L321.520000,217.160000L320.520000,219.640000L318.040000,220.120000L314.440000,225L309.960000,225.560000L310.040000,229.320000L309.960000,234.920000L306.960000,238.120000L300.690000,226L299.690000,220.240000L299.610000,216.880000L297.370000,219.200000L294,216.850000L291.120000,210.290000L284.960000,211.290000L276.920000,210L276.200000,207.200000L274.600000,208L274.040000,209.840000L270.680000,208.480000L266.120000,203.760000C265.064404,203.562323,263.993838,203.455266,262.920000,203.440000C262.680000,203.600000,261.800000,204.320000,261.800000,204.320000L267.720000,210.480000L267.560000,212.720000L271.720000,212.720000L274.720000,210.880000L276.480000,214.240000L279.600000,214.400000L280.160000,216.720000L278.160000,219.120000C272.720000,223.280000,272.960000,223.120000,272.720000,223.280000C272.480000,223.440000,268.800000,224.640000,268.800000,224.640000L267.440000,226.960000L256.790000,229.840000L255.350000,224.640000C250.950000,218.320000,251.110000,218.560000,250.950000,218.320000C250.790000,218.080000,249.750000,214.480000,249.750000,214.480000C249.750000,214.480000,247.030000,212.400000,246.750000,212.320000C246.380237,211.281787,246.112310,210.210077,245.950000,209.120000L243.230000,205.760000L242.230000,206.160000L241.230000,206.880000L244.230000,214.400000L246.390000,216.720000L247.030000,221.520000L249.590000,223.440000L250.310000,226.960000L254.310000,231.200000L254.550000,232.800000L257.830000,234.480000L266.470000,232.720000L267.030000,235.280000L263.630000,242L256.510000,248.240000L250,256.310000L251.520000,272.640000L249.200000,275.360000L246.200000,276.560000L243.640000,280.080000L243,287.080000L240.180000,289L239.460000,292.600000L237.060000,295.080000L237.140000,297.640000L231.380000,302.760000L223.300000,303.960000L220.660000,304.760000L218.740000,304.440000L218.100000,302.280000C218.500000,299.160000,218.500000,299.400000,218.500000,299.160000C218.500000,298.920000,217.220000,297.800000,217.060000,297.560000C216.900000,297.320000,216.060000,294.280000,216.060000,294.280000L213.740000,290.840000C213.580000,285,213.660000,285.240000,213.580000,285C213.500000,284.760000,209.020000,276.600000,209.020000,276.600000L210.300000,268.680000L212.700000,268.120000L212.780000,262.440000L204.320000,252L206.400000,244.720000L204.800000,243L200.480000,243.640000L198.720000,240.920000L196.400000,240.280000L186.870000,243L182.870000,242L181,243.580000L171.640000,238.940000L171.320000,236.860000L166.120000,231.860000L167.560000,224.100000L166.760000,219.380000L165.880000,217.780000L169.960000,209.380000L170.520000,206.980000L176.600000,203.540000L176.920000,199.380000L181.240000,195.940000L181.800000,193.780000L182.680000,193.220000L184.200000,194.340000L188.760000,194.100000L193.080000,191.700000L204.080000,191.380000L205.080000,189.860000L206.520000,191.620000L207.240000,193.780000L205,196.200000L209.800000,198.840000L211.720000,198.280000L213.800000,199.160000L214.360000,201.240000L216.520000,201.160000C217.256823,201.634277,217.952592,202.169484,218.600000,202.760000L221,201.960000C220.950614,201.239190,220.977429,200.515182,221.080000,199.800000C221.662197,199.330231,222.277083,198.902484,222.920000,198.520000L225,198.840000L228,199.960000L231,200.280000L234.440000,201.800000L235.560000,200.680000L238.760000,200.440000L240.200000,201.440000L241.400000,200.960000L243.320000,197.280000L245.160000,195.280000L244.760000,191.840000L243.320000,191.040000L242.760000,192.240000L240.280000,192.400000L238.440000,191.120000L235.240000,192.240000L233.240000,191.520000L229.930000,186L231.370000,184.800000L233.210000,184.960000L236.330000,182.800000L237.530000,183.520000L239.770000,181.360000L243.530000,181.200000L246.250000,182.560000L252.890000,182.400000L253.530000,180.640000L247.870000,175.840000L243.760000,176.480000L242.420000,178L240.900000,177.760000L240.740000,176.450000L239.350000,175.920000L239.780000,174.850000L241.060000,174.720000L243.730000,175.170000L247.040000,174.100000L249.280000,170.580000L245.870000,171.220000L242,172.670000L237.090000,171.820000L235.380000,174.060000L233.140000,177.690000L232.820000,182.280000L230.050000,183.880000L226.740000,183.350000L225.350000,185.160000L226.630000,188.360000L229.400000,189.850000L229.720000,190.850000L225.770000,189.780000L225.240000,193.090000L222.470000,191.380000L222.790000,188.930000L219.930000,185L219.930000,181.100000L210.750000,174.270000L209.680000,176.400000L211.600000,180.140000L215.230000,181.630000L218.540000,185.150000L217.540000,186.150000L216.300000,185L216.730000,186.810000L215.130000,189.050000L213.850000,189.480000L213.320000,191.720000L209.160000,189.050000L212.160000,188.940000L213.550000,187.660000L214.550000,187.450000L214.760000,185.450000L209.960000,182.360000L206.760000,179.690000L206.010000,176.920000L203.660000,176.390000L200.460000,179.590000L197.370000,178.590000L195.980000,178.910000L196.410000,181.470000L193,183.450000L192.250000,182.920000L190.760000,185.270000L190.970000,188.150000L188.300000,191.670000L183.920000,191.350000L182.640000,192.630000L181.250000,191.030000L177.830000,190.820000L177.400000,188.580000L176.120000,186.770000L177.720000,184.850000L177.830000,180.150000L176.980000,178.440000L179.750000,177.270000L182.200000,178.020000L188.070000,178.450000L189.140000,176.960000L189.030000,172.160000L186.580000,169.490000L183.060000,167.490000L183.810000,166.740000L186.810000,166.310000L188.620000,167.310000L188.510000,166.140000L187.160000,165L189.160000,164.250000L190.650000,164.780000L192.570000,164.250000L194.170000,161.250000L198.120000,157.510000L199.290000,155.060000L204.520000,154.630000L204.630000,152.390000L206.340000,151.860000L207.940000,153.670000L210.940000,152.280000L212.430000,152.810000L212.860000,154.410000L214.670000,153.980000L217.120000,151.980000L219.680000,153.150000L222.030000,151.230000L222.670000,144.400000L227.150000,146.640000L227.580000,143.550000L226.190000,142.380000L223.100000,142.910000L224.170000,140.140000L229.170000,138.970000L232.690000,139.820000L234.180000,137.690000L232.470000,136.090000L224.890000,138.540000L222.760000,136.090000L223.830000,133.740000L222.550000,129.580000L224.680000,125.840000L226.680000,123.710000L228.920000,121.470000L226.250000,118.800000L222.510000,121.360000C222.510000,124.780000,222.830000,124.670000,222.510000,124.780000C220.783187,125.940353,219.142268,127.223679,217.600000,128.620000C217.490000,128.940000,216.750000,135.560000,216.750000,135.560000L218.990000,136.730000L218.880000,140.470000L216.530000,141.750000C216.100000,145.810000,216.210000,145.490000,216.100000,145.810000C215.990000,146.130000,213.100000,150.080000,213.100000,150.080000L210.540000,150.190000L208.940000,148.800000L210.110000,147.410000L207.340000,143.250000L207.340000,139.410000L203.390000,143.790000L199.550000,142.620000L199.440000,130.770000L203.600000,126.930000L206.800000,125.650000L206.270000,124.160000C207.760000,121.390000,207.660000,121.710000,207.760000,121.390000C207.860000,121.070000,214.380000,110,214.380000,110L210.320000,110.110000L211.490000,108.720000L213.940000,108.290000L213.190000,106.050000L215.320000,104.660000L216.320000,106.370000L218.030000,103.600000L220.270000,99.860000L223.150000,100.070000L228,96.900000L230.240000,97.330000L231.240000,98.500000L236.680000,100.850000C235.680000,102.240000,235.400000,102.130000,235.680000,102.240000C235.960000,102.350000,238.240000,103.840000,238.240000,103.840000L239.410000,103.200000L241.650000,104.480000L241.760000,105.760000L244.960000,106.290000L251.900000,113.290000C252.540000,115.420000,253.070000,115.100000,252.540000,115.420000C252.010000,115.740000,250.090000,117.230000,250.090000,117.230000L246.680000,118.080000L239.100000,113.280000L237.710000,113.810000L243,118L242.890000,123.760000L246.090000,126.430000L248.540000,124.940000L245.660000,120.560000L248.220000,120.770000L250.140000,122.260000L251.140000,121.620000C250.500000,118.850000,250.070000,119.270000,250.500000,118.850000C250.930000,118.430000,254.560000,116.180000,254.560000,116.180000L256.800000,116.710000L256.910000,114.580000L256.160000,111.580000L257.010000,109.580000L255.010000,107.230000L256.500000,106.800000L260.770000,108.610000L258.850000,112.450000L260.020000,115.540000L261.940000,114.540000L262.790000,111.450000L271.860000,107.180000L271.650000,109.420000L277.520000,107.820000L278.270000,105.900000L279.550000,107.070000L279.440000,109.420000L280.830000,109.530000L282.430000,106.970000L280.300000,103.880000L278.700000,102.490000L278.860000,100.330000C284.881947,105.101346,290.461221,110.406174,295.530000,116.180000L294.840000,116.580000ZM272.430000,184.300000L274.030000,182.540000L269.470000,175.740000L272.190000,173.980000C272.350000,171.340000,272.270000,171.580000,272.350000,171.340000C272.430000,171.100000,268.270000,170.140000,268.270000,170.140000L263.790000,174.300000L263.790000,179.210000L266.990000,183.370000L265.990000,190.070000L270.310000,192.710000L273.830000,192.550000L273.990000,186.710000ZM103.820000,160.720000L106.380000,160.510000L108.510000,159.020000L107.980000,156.140000L105.630000,154.140000L103.180000,155.950000L100.250000,155.040000L104.950000,152.590000L101.590000,151.840000L99.460000,148.910000L100.460000,146.560000L95.340000,138.450000L92.340000,138.020000L91.650000,142L88,141.830000L87.620000,140.770000C78.256115,158.499021,73.244791,178.201544,73,198.250000L79.250000,193.580000L78.180000,190.270000L81.490000,183.870000L86.610000,182.800000L86.400000,179.710000L89.280000,176.710000L91.840000,175.710000L94.720000,172.080000L95.250000,166.420000C93.330000,165.030000,93.650000,164.930000,93.330000,165.030000C93.010000,165.130000,90.240000,166.630000,89.910000,166.840000C89.580000,167.050000,84.360000,172.280000,84.360000,172.280000L83.080000,171.530000L92.580000,162.530000L102.720000,163.060000ZM189.820000,162.530000L192.910000,160.530000L193.550000,157.860000L191.420000,155.940000L190.350000,152.310000L188.640000,150.820000L187.160000,149L186.310000,148L188.120000,144.800000L185.240000,144.590000L185.770000,142.350000L182.890000,141.600000L181.890000,143.730000L181.570000,147.360000L183.810000,151.950000L185.810000,152.800000L186.660000,155.040000L184.660000,155.790000L183.060000,159.850000L184.230000,160.490000L182.230000,162.410000L182.550000,164.330000ZM181.580000,130.410000L180.580000,129.770000L179.780000,131.210000L180.780000,133.690000L182.060000,133.290000ZM181.390000,151.410000L179.470000,151.200000L178.190000,152.480000L178.190000,154.190000L176.480000,153.120000L174.990000,154.720000L175.310000,156.430000L177.120000,157.070000L174.880000,159.420000L176.160000,161.130000L178.830000,160.380000L182.030000,158.670000L181.820000,155.150000L182.820000,153.980000ZM99,226.510000L99.270000,227.840000L100.550000,228.320000L100.070000,225.650000ZM242,195.360000L242.600000,194L241.480000,193.760000L239.760000,194.280000L239.160000,195.400000L240.160000,196.160000ZM205.630000,181.100000L204.990000,179.100000L203.710000,179.630000L203.600000,182L204.770000,182.430000ZM205.100000,144.600000C204.150526,145.841647,203.118171,147.017663,202.010000,148.120000L203.500000,151.430000L206.270000,150.360000L207.020000,147.910000L205.950000,146.520000L206.480000,144.810000ZM203.820000,187.820000L205.630000,186.970000L205.840000,184.840000L205.410000,183.240000L203.810000,183.670000C203.692376,184.118788,203.514065,184.549426,203.280000,184.950000ZM220,143.450000L218.080000,144.650000L218.480000,147.210000C219.840000,147.210000,219.840000,147.450000,219.840000,147.210000C219.840000,146.970000,219.600000,145.210000,219.600000,145.210000L221.040000,144.090000ZM262.260000,106.230000L263.620000,107.430000L265.460000,107.270000L266.180000,105.590000L265.060000,104.150000L263.700000,104.070000ZM196.450000,185.900000L198.260000,185.580000L197.620000,184.580000L195.810000,184.470000L194.640000,185.220000L195.170000,186.930000L196.170000,187.040000ZM266.670000,93.900000L269.670000,98.170000L272.120000,99.560000L276.280000,98.710000L276.120000,98.330000Q272.210000,95.400000,268.120000,92.770000ZM76.180000,207.670000L74,207.570000L74.110000,208.900000C74.532205,209.046876,74.943271,209.224002,75.340000,209.430000L76.030000,210.070000L76.880000,209.800000C76.717791,209.068568,76.483306,208.355063,76.180000,207.670000ZM80.240000,219.090000L74.480000,216.090000L74,215.920000C74.170000,217.300000,74.370000,218.680000,74.590000,220.050000L75.220000,220.890000L80.020000,221.100000ZM74.240000,211.090000L74.990000,213.810000L76.380000,213.540000L75.790000,212.420000L76,211.090000ZM194,187.080000L192.640000,186.280000L192.400000,187.560000L193.400000,187.960000ZM76.120000,221.760000L74.890000,221.930000C74.980000,222.420000,75.070000,222.930000,75.160000,223.410000L75.960000,223.250000L77.610000,223.730000L77.980000,222.730000ZM95.210000,128.240000Q93.520000,130.700000,91.950000,133.240000L94.850000,134.360000ZM113,172.190000L113,170L111.560000,169.600000L109.560000,171.520000L111.400000,173.760000ZM81.620000,222.190000L84.070000,223.040000L86.420000,222.040000L88.980000,222.150000L88.980000,220.230000L82.980000,220.120000C82.450796,220.757054,81.994619,221.451383,81.620000,222.190000ZM81.410000,214.450000L80.410000,214.130000L80.140000,212.740000L79.710000,212.850000L78.630000,214L79.320000,215.230000L81.080000,215.500000Z" fill="rgb(40,133,70)" stroke="none" stroke-width="1"/></g></svg>