<svg id="ex8ObTIGaXq1" xmlns="http://www.w3.org/2000/svg" xmlns:xlink="http://www.w3.org/1999/xlink" viewBox="0 0 400 400" shape-rendering="geometricPrecision" text-rendering="geometricPrecision"><path id="ex8ObTIGaXq2" d="M352,168L344.300000,168L344.300000,170L328.800000,170L328.800000,168L71.200000,168L71.200000,170L55.700000,170L55.700000,168L48,168C35.400000,168,25,178.300000,25,191L25,307.900000C25,320.500000,35.300000,330.900000,48,330.900000L352,330.900000C364.600000,330.900000,375,320.600000,375,307.900000L375,190.900000C375,178.300000,364.700000,168,352,168L352,168Z" clip-rule="evenodd" fill="rgb(97,115,199)" fill-rule="evenodd" stroke="none" stroke-width="1"/><g id="ex8ObTIGaXq3"><path id="ex8ObTIGaXq4" d="M125.500000,218.700000L274.400000,218.700000C278.200000,218.700000,281.400000,222.500000,281.400000,227.100000L281.400000,303.800000C281.400000,308.400000,278.300000,312.200000,274.400000,312.200000L125.500000,312.200000C121.700000,312.200000,118.500000,308.400000,118.500000,303.800000L118.500000,227.100000C118.600000,222.500000,121.700000,218.700000,125.500000,218.700000Z" clip-rule="evenodd" fill="rgb(115,140,232)" fill-rule="evenodd" stroke="none" stroke-width="1"/><path id="ex8ObTIGaXq5" d="M273,219.900000L127,219.900000C122.400000,219.900000,118.600000,223.600000,118.600000,228.200000L118.600000,240.300000L119.800000,240.900000L185.400000,274.100000C194.900000,278.900000,205.100000,278.900000,214.600000,274.100000L280.200000,240.900000L281.400000,240.300000L281.400000,228.200000C281.400000,223.600000,277.600000,219.900000,273,219.900000L273,219.900000Z" clip-rule="evenodd" fill="rgb(83,96,166)" fill-rule="evenodd" stroke="none" stroke-width="1"/><path id="ex8ObTIGaXq6" d="M280.200000,184.400000L119.800000,184.400000C115.400000,184.400000,111.700000,188.100000,111.700000,192.700000L111.700000,227.600000C111.700000,232.100000,115.800000,233.800000,119.800000,235.900000L185.400000,269.100000C194.900000,273.900000,205.100000,273.900000,214.600000,269.100000L280.200000,235.900000C284.200000,233.900000,288.300000,232.200000,288.300000,227.600000L288.300000,192.700000C288.300000,188.100000,284.600000,184.400000,280.200000,184.400000L280.200000,184.400000Z" clip-rule="evenodd" fill="rgb(115,139,235)" fill-rule="evenodd" stroke="none" stroke-width="1"/><ellipse id="ex8ObTIGaXq7" rx="6.900000" ry="6.700000" transform="matrix(1 0 0 1 200 257.19999999999999)" clip-rule="evenodd" fill="rgb(250,179,71)" fill-rule="evenodd" stroke="none" stroke-width="1"/></g><g id="ex8ObTIGaXq8"><path id="ex8ObTIGaXq9" d="M137.800000,182.500000C135.700000,184.400000,132.500000,184.300000,130.500000,182.300000C128.500000,180.300000,128.700000,177,130.700000,175C150.500000,156.400000,152,139.700000,153.300000,125.200000C155.300000,103.600000,156.900000,86.200000,201.200000,73.500000C202,73.300000,202.800000,73.100000,203.600000,72.900000C225.500000,68,248.200000,81.400000,266.800000,101.700000C284.900000,121.300000,299.400000,147.600000,305.600000,169.200000C306.100000,170.900000,306.500000,172.600000,306.900000,174.400000C307.500000,177.200000,305.800000,179.900000,303,180.600000C300.200000,181.200000,297.500000,179.500000,296.800000,176.700000C296.500000,175.200000,296.100000,173.700000,295.600000,172C289.800000,151.800000,276.200000,127.100000,259.200000,108.600000C242.900000,90.800000,223.600000,78.900000,205.800000,82.900000L204.100000,83.400000C166.500000,94.100000,165.200000,108.400000,163.600000,126.100000C162.100000,142.400000,160.400000,161.300000,137.800000,182.500000L137.800000,182.500000Z" fill="rgb(83,96,166)" stroke="none" stroke-width="1"/><path id="ex8ObTIGaXq10" d="M289.600000,169.400000C291.700000,171.300000,291.800000,174.600000,289.800000,176.700000C287.900000,178.800000,284.600000,178.900000,282.500000,176.900000C261.600000,157.300000,256.700000,136.600000,252.500000,119.200000C247.300000,97.500000,243.400000,81.700000,202.900000,83.600000L199.100000,83.800000C167.500000,86,145.500000,97,131.900000,112.900000C118.300000,128.800000,112.700000,149.900000,113.800000,172.500000L114,175.200000C114.200000,178,112.100000,180.500000,109.200000,180.700000C106.400000,180.900000,103.900000,178.800000,103.700000,175.900000L103.500000,173C102.300000,147.900000,108.700000,124.300000,124.100000,106.300000C139.500000,88.300000,163.800000,76,198.500000,73.600000L202.500000,73.400000C251.500000,71.100000,256.200000,90.400000,262.600000,116.800000C266.400000,132.800000,271,151.800000,289.600000,169.400000L289.600000,169.400000Z" fill="rgb(97,115,199)" stroke="none" stroke-width="1"/><path id="ex8ObTIGaXq11" d="M194.200000,82.200000L193.900000,75.600000C193.800000,72.800000,195.900000,70.400000,198.700000,70.200000L214.100000,69.200000C215.500000,69.100000,216.800000,69.500000,217.900000,70.500000C219,71.500000,219.500000,72.700000,219.600000,74.100000L219.900000,80.700000C220,83.500000,217.900000,85.900000,215.100000,86.100000L199.700000,87.100000C198.300000,87.200000,197,86.800000,195.900000,85.800000C194.800000,84.900000,194.200000,83.700000,194.200000,82.200000Z" fill="rgb(67,79,148)" stroke="none" stroke-width="1"/></g><g id="ex8ObTIGaXq12"><polygon id="ex8ObTIGaXq13" points="344.300000,169.900000 344.300000,286.500000 328.800000,286.500000 328.800000,169.900000" fill="rgb(115,140,232)" stroke="none" stroke-width="1"/><polygon id="ex8ObTIGaXq14" points="341.700000,168 341.700000,286.500000 331.400000,286.500000 331.400000,168" fill="rgb(83,96,166)" stroke="none" stroke-width="1"/><polygon id="ex8ObTIGaXq15" points="327.200000,285.300000 345.900000,285.300000 345.900000,287.800000 327.200000,287.800000" fill="rgb(83,96,166)" stroke="none" stroke-width="1"/></g><g id="ex8ObTIGaXq16"><polygon id="ex8ObTIGaXq17" points="71.200000,169.900000 71.200000,286.500000 55.700000,286.500000 55.700000,169.900000" fill="rgb(115,140,232)" stroke="none" stroke-width="1"/><polygon id="ex8ObTIGaXq18" points="68.600000,168 68.600000,286.500000 58.300000,286.500000 58.300000,168" fill="rgb(83,96,166)" stroke="none" stroke-width="1"/><polygon id="ex8ObTIGaXq19" points="54.100000,285.300000 72.800000,285.300000 72.800000,287.800000 54.100000,287.800000" fill="rgb(83,96,166)" stroke="none" stroke-width="1"/></g></svg>