<svg id="e2z4DFi5AY61" xmlns="http://www.w3.org/2000/svg" xmlns:xlink="http://www.w3.org/1999/xlink" viewBox="0 0 400 400" shape-rendering="geometricPrecision" text-rendering="geometricPrecision"><defs><linearGradient id="e2z4DFi5AY64-fill" x1="199.110359" y1="185.779699" x2="199.110359" y2="375.994334" spreadMethod="pad" gradientUnits="userSpaceOnUse"><stop id="e2z4DFi5AY64-fill-0" offset="0%" stop-color="rgb(255,220,184)"/><stop id="e2z4DFi5AY64-fill-1" offset="100%" stop-color="rgb(255,227,199)"/></linearGradient><linearGradient id="e2z4DFi5AY65-fill" x1="199.110359" y1="185.779699" x2="199.110359" y2="375.994334" spreadMethod="pad" gradientUnits="userSpaceOnUse"><stop id="e2z4DFi5AY65-fill-0" offset="0%" stop-color="rgb(219,181,143)"/><stop id="e2z4DFi5AY65-fill-1" offset="100%" stop-color="rgb(255,220,184)"/></linearGradient><linearGradient id="e2z4DFi5AY615-fill" x1="147.065147" y1="182.863063" x2="147.065147" y2="193.899769" spreadMethod="pad" gradientUnits="userSpaceOnUse"><stop id="e2z4DFi5AY615-fill-0" offset="0%" stop-color="rgb(54,29,6)"/><stop id="e2z4DFi5AY615-fill-1" offset="100%" stop-color="rgb(122,97,72)"/></linearGradient><linearGradient id="e2z4DFi5AY616-fill" x1="138.454769" y1="193.899769" x2="138.454769" y2="182.863063" spreadMethod="pad" gradientUnits="userSpaceOnUse"><stop id="e2z4DFi5AY616-fill-0" offset="0%" stop-color="rgb(140,109,78)"/><stop id="e2z4DFi5AY616-fill-1" offset="100%" stop-color="rgb(87,57,29)"/></linearGradient><linearGradient id="e2z4DFi5AY617-fill" x1="259.765950" y1="193.899769" x2="259.765950" y2="182.863063" spreadMethod="pad" gradientUnits="userSpaceOnUse"><stop id="e2z4DFi5AY617-fill-0" offset="0%" stop-color="rgb(140,109,78)"/><stop id="e2z4DFi5AY617-fill-1" offset="100%" stop-color="rgb(87,57,29)"/></linearGradient><linearGradient id="e2z4DFi5AY618-fill" x1="251.155572" y1="182.863063" x2="251.155572" y2="193.899769" spreadMethod="pad" gradientUnits="userSpaceOnUse"><stop id="e2z4DFi5AY618-fill-0" offset="0%" stop-color="rgb(54,29,6)"/><stop id="e2z4DFi5AY618-fill-1" offset="100%" stop-color="rgb(122,97,72)"/></linearGradient><linearGradient id="e2z4DFi5AY621-fill" x1="107.281540" y1="141.096058" x2="199.122095" y2="141.096058" spreadMethod="pad" gradientUnits="userSpaceOnUse"><stop id="e2z4DFi5AY621-fill-0" offset="0%" stop-color="rgb(255,102,102)"/><stop id="e2z4DFi5AY621-fill-1" offset="100%" stop-color="rgb(204,51,0)"/></linearGradient><linearGradient id="e2z4DFi5AY622-fill" x1="199.122095" y1="141.096058" x2="290.939613" y2="141.096058" spreadMethod="pad" gradientUnits="userSpaceOnUse"><stop id="e2z4DFi5AY622-fill-0" offset="0%" stop-color="rgb(255,102,102)"/><stop id="e2z4DFi5AY622-fill-1" offset="100%" stop-color="rgb(204,51,0)"/></linearGradient><linearGradient id="e2z4DFi5AY625-fill" x1="199.110359" y1="100.729124" x2="199.110359" y2="108.825722" spreadMethod="pad" gradientUnits="userSpaceOnUse"><stop id="e2z4DFi5AY625-fill-0" offset="0%" stop-color="rgb(255,102,102)"/><stop id="e2z4DFi5AY625-fill-1" offset="100%" stop-color="rgb(204,51,0)"/></linearGradient><linearGradient id="e2z4DFi5AY636-fill" x1="132.764504" y1="301.024625" x2="137.384611" y2="284.924883" spreadMethod="pad" gradientUnits="userSpaceOnUse"><stop id="e2z4DFi5AY636-fill-0" offset="0%" stop-color="rgb(255,102,102)"/><stop id="e2z4DFi5AY636-fill-1" offset="100%" stop-color="rgb(204,51,0)"/></linearGradient><linearGradient id="e2z4DFi5AY637-fill" x1="260.842193" y1="301.024625" x2="265.462300" y2="284.924883" spreadMethod="pad" gradientUnits="userSpaceOnUse"><stop id="e2z4DFi5AY637-fill-0" offset="0%" stop-color="rgb(255,102,102)"/><stop id="e2z4DFi5AY637-fill-1" offset="100%" stop-color="rgb(204,51,0)"/></linearGradient><linearGradient id="e2z4DFi5AY639-fill" x1="149.168515" y1="262.851471" x2="134.281502" y2="228.807682" spreadMethod="pad" gradientUnits="userSpaceOnUse"><stop id="e2z4DFi5AY639-fill-0" offset="0%" stop-color="rgb(225,192,151)"/><stop id="e2z4DFi5AY639-fill-1" offset="100%" stop-color="rgb(174,140,95)"/></linearGradient><linearGradient id="e2z4DFi5AY641-fill" x1="249.053942" y1="262.852341" x2="263.940955" y2="228.808552" spreadMethod="pad" gradientUnits="userSpaceOnUse"><stop id="e2z4DFi5AY641-fill-0" offset="0%" stop-color="rgb(225,192,151)"/><stop id="e2z4DFi5AY641-fill-1" offset="100%" stop-color="rgb(174,140,95)"/></linearGradient></defs><g id="e2z4DFi5AY62"><g id="e2z4DFi5AY63"><polygon id="e2z4DFi5AY64" points="120.400000,376 277.800000,376 269.700000,185.800000 128.500000,185.800000" clip-rule="evenodd" fill="url(#e2z4DFi5AY64-fill)" fill-rule="evenodd" stroke="none" stroke-width="1"/><polygon id="e2z4DFi5AY65" points="158.500000,376 239.800000,376 235.600000,185.800000 162.600000,185.800000" clip-rule="evenodd" fill="url(#e2z4DFi5AY65-fill)" fill-rule="evenodd" stroke="none" stroke-width="1"/></g><g id="e2z4DFi5AY66"><path id="e2z4DFi5AY67" d="M220,376L178.200000,376L178.200000,326.500000C178.200000,315,187.600000,305.600000,199.100000,305.600000L199.100000,305.600000C210.600000,305.600000,220,315,220,326.500000L220,376Z" clip-rule="evenodd" fill="rgb(229,182,140)" fill-rule="evenodd" stroke="none" stroke-width="1"/><path id="e2z4DFi5AY68" d="M216.700000,376L181.500000,376L181.500000,327.400000C181.500000,317.700000,189.400000,309.800000,199.100000,309.800000L199.100000,309.800000C208.800000,309.800000,216.700000,317.700000,216.700000,327.400000L216.700000,376Z" clip-rule="evenodd" fill="rgb(54,29,6)" fill-rule="evenodd" stroke="none" stroke-width="1"/></g><g id="e2z4DFi5AY69"><polygon id="e2z4DFi5AY610" points="120.400000,180 277.800000,180 269.700000,185.800000 128.500000,185.800000" clip-rule="evenodd" fill="rgb(54,29,6)" fill-rule="evenodd" stroke="none" stroke-width="1"/><g id="e2z4DFi5AY611"><polygon id="e2z4DFi5AY612" points="270.400000,202.300000 269.700000,185.800000 128.500000,185.800000 127.800000,202.300000" clip-rule="evenodd" fill="rgb(230,199,168)" fill-rule="evenodd" stroke="none" stroke-width="1"/><polygon id="e2z4DFi5AY613" points="235.900000,202.300000 235.600000,185.800000 162.600000,185.800000 162.300000,202.300000" clip-rule="evenodd" fill="rgb(199,169,139)" fill-rule="evenodd" stroke="none" stroke-width="1"/></g><g id="e2z4DFi5AY614"><polygon id="e2z4DFi5AY615" points="143,182.900000 150.900000,182.900000 151.100000,191.800000 148.600000,193.900000" clip-rule="evenodd" fill="url(#e2z4DFi5AY615-fill)" fill-rule="evenodd" stroke="none" stroke-width="1"/><polygon id="e2z4DFi5AY616" points="128.300000,182.900000 143,182.900000 148.600000,193.900000 135.400000,193.900000" clip-rule="evenodd" fill="url(#e2z4DFi5AY616-fill)" fill-rule="evenodd" stroke="none" stroke-width="1"/><polygon id="e2z4DFi5AY617" points="255.200000,182.900000 269.900000,182.900000 262.800000,193.900000 249.600000,193.900000" clip-rule="evenodd" fill="url(#e2z4DFi5AY617-fill)" fill-rule="evenodd" stroke="none" stroke-width="1"/><polygon id="e2z4DFi5AY618" points="255.200000,182.900000 247.400000,182.900000 247.100000,191.800000 249.600000,193.900000" clip-rule="evenodd" fill="url(#e2z4DFi5AY618-fill)" fill-rule="evenodd" stroke="none" stroke-width="1"/></g></g><g id="e2z4DFi5AY619"><polygon id="e2z4DFi5AY620" points="107.300000,180 290.900000,180 199.100000,102.300000" clip-rule="evenodd" fill="rgb(204,51,0)" fill-rule="evenodd" stroke="none" stroke-width="1"/><polygon id="e2z4DFi5AY621" points="107.300000,180 149.700000,180 199.100000,102.300000" clip-rule="evenodd" fill="url(#e2z4DFi5AY621-fill)" fill-rule="evenodd" stroke="none" stroke-width="1"/><polygon id="e2z4DFi5AY622" points="290.900000,180 248.600000,180 199.100000,102.300000" clip-rule="evenodd" fill="url(#e2z4DFi5AY622-fill)" fill-rule="evenodd" stroke="none" stroke-width="1"/></g><g id="e2z4DFi5AY623"><path id="e2z4DFi5AY624" d="M199.100000,56.600000L199.100000,56.600000C199.400000,56.600000,199.700000,56.800000,199.700000,57L199.700000,102.600000C199.700000,102.800000,199.400000,103,199.100000,103L199.100000,103C198.800000,103,198.500000,102.800000,198.500000,102.600000L198.500000,57C198.500000,56.700000,198.800000,56.600000,199.100000,56.600000Z" clip-rule="evenodd" fill="rgb(204,51,0)" fill-rule="evenodd" stroke="none" stroke-width="1"/><path id="e2z4DFi5AY625" d="M189.800000,100.700000L208.400000,100.700000C210.600000,100.700000,212.500000,102.500000,212.500000,104.700000L212.500000,104.700000C212.500000,106.900000,210.700000,108.700000,208.400000,108.700000L189.800000,108.700000C187.600000,108.700000,185.700000,106.900000,185.700000,104.700000L185.700000,104.700000C185.800000,102.600000,187.600000,100.700000,189.800000,100.700000Z" clip-rule="evenodd" fill="url(#e2z4DFi5AY625-fill)" fill-rule="evenodd" stroke="none" stroke-width="1"/><path id="e2z4DFi5AY626" d="M197.400000,62.100000L200.800000,62.100000C201.200000,62.100000,201.500000,63.900000,201.500000,66.100000L201.500000,66.100000C201.500000,68.300000,201.200000,70.100000,200.800000,70.100000L197.400000,70.100000C197,70.100000,196.700000,68.300000,196.700000,66.100000L196.700000,66.100000C196.700000,63.900000,197,62.100000,197.400000,62.100000Z" clip-rule="evenodd" fill="rgb(255,102,102)" fill-rule="evenodd" stroke="none" stroke-width="1"/></g><g id="e2z4DFi5AY627"><g id="e2z4DFi5AY628"><polygon id="e2z4DFi5AY629" points="191.800000,298.400000 206.500000,298.400000 205.700000,301.500000 192.500000,301.500000" clip-rule="evenodd" fill="rgb(140,109,78)" fill-rule="evenodd" stroke="none" stroke-width="1"/><polygon id="e2z4DFi5AY630" points="136.200000,298.400000 150.900000,298.400000 153.500000,301.500000 140.300000,301.500000" clip-rule="evenodd" fill="rgb(87,57,29)" fill-rule="evenodd" stroke="none" stroke-width="1"/><polygon id="e2z4DFi5AY631" points="262.100000,298.400000 247.400000,298.400000 244.700000,301.500000 257.900000,301.500000" clip-rule="evenodd" fill="rgb(87,57,29)" fill-rule="evenodd" stroke="none" stroke-width="1"/><polygon id="e2z4DFi5AY632" points="128.300000,298.400000 143,298.400000 148.600000,301.500000 135.400000,301.500000" clip-rule="evenodd" fill="rgb(140,109,78)" fill-rule="evenodd" stroke="none" stroke-width="1"/><polygon id="e2z4DFi5AY633" points="255.200000,298.400000 269.900000,298.400000 262.800000,301.500000 249.600000,301.500000" clip-rule="evenodd" fill="rgb(140,109,78)" fill-rule="evenodd" stroke="none" stroke-width="1"/></g><g id="e2z4DFi5AY634"><polygon id="e2z4DFi5AY635" points="111.300000,298.400000 286.900000,298.400000 277.900000,287.600000 120.400000,287.600000" clip-rule="evenodd" fill="rgb(204,51,0)" fill-rule="evenodd" stroke="none" stroke-width="1"/><polygon id="e2z4DFi5AY636" points="111.300000,298.400000 151.900000,298.400000 158.800000,287.600000 120.400000,287.600000" clip-rule="evenodd" fill="url(#e2z4DFi5AY636-fill)" fill-rule="evenodd" stroke="none" stroke-width="1"/><polygon id="e2z4DFi5AY637" points="286.900000,298.400000 246.400000,298.400000 239.400000,287.600000 277.900000,287.600000" clip-rule="evenodd" fill="url(#e2z4DFi5AY637-fill)" fill-rule="evenodd" stroke="none" stroke-width="1"/></g></g><g id="e2z4DFi5AY638"><path id="e2z4DFi5AY639" d="M149,265.700000L135,265.700000L136.300000,231.900000C136.400000,228.100000,139.700000,224.900000,143.500000,224.900000L143.500000,224.900000C147.400000,224.900000,150.400000,228,150.200000,231.900000L149,265.700000L149,265.700000Z" clip-rule="evenodd" fill="url(#e2z4DFi5AY639-fill)" fill-rule="evenodd" stroke="none" stroke-width="1"/><path id="e2z4DFi5AY640" d="M149,265.700000L142.700000,265.700000L144,231.900000C144.100000,229.500000,145.400000,227.300000,147.300000,226.100000C149.100000,227.400000,150.300000,229.500000,150.200000,231.900000L149,265.700000L149,265.700000Z" clip-rule="evenodd" fill="rgb(54,29,6)" fill-rule="evenodd" stroke="none" stroke-width="1"/><path id="e2z4DFi5AY641" d="M249.200000,265.700000L263.200000,265.700000L262,231.900000C261.900000,228.100000,258.600000,224.900000,254.800000,224.900000L254.800000,224.900000C251,224.900000,247.900000,228,248.100000,231.900000L249.200000,265.700000L249.200000,265.700000Z" clip-rule="evenodd" fill="url(#e2z4DFi5AY641-fill)" fill-rule="evenodd" stroke="none" stroke-width="1"/><path id="e2z4DFi5AY642" d="M249.200000,265.700000L255.500000,265.700000L254.300000,231.900000C254.200000,229.500000,252.900000,227.300000,250.900000,226.100000C249.100000,227.400000,247.900000,229.500000,248,231.900000L249.200000,265.700000L249.200000,265.700000Z" clip-rule="evenodd" fill="rgb(54,29,6)" fill-rule="evenodd" stroke="none" stroke-width="1"/></g><g id="e2z4DFi5AY643"><polygon id="e2z4DFi5AY644" points="184.800000,182.900000 213.400000,182.900000 211.900000,204.300000 186.300000,204.300000" clip-rule="evenodd" fill="rgb(140,109,78)" fill-rule="evenodd" stroke="none" stroke-width="1"/><path id="e2z4DFi5AY645" d="M212.700000,193.200000L212.500000,195.900000C209.100000,199.300000,204.400000,201.400000,199.200000,201.400000C194,201.400000,189.300000,199.300000,185.800000,195.900000L185.600000,193.200000C189,196.700000,193.800000,198.900000,199.200000,198.900000C204.400000,198.900000,209.200000,196.700000,212.700000,193.200000Z" clip-rule="evenodd" fill="rgb(122,96,71)" fill-rule="evenodd" stroke="none" stroke-width="1"/><circle id="e2z4DFi5AY646" r="18.900000" transform="matrix(1 0 0 1 199.09999999999999 180)" clip-rule="evenodd" fill="rgb(195,160,120)" fill-rule="evenodd" stroke="none" stroke-width="1"/></g></g><g id="e2z4DFi5AY647"><g id="e2z4DFi5AY648"><polygon id="e2z4DFi5AY649" points="198.400000,178.700000 339.700000,97.100000 341.200000,99.600000 199.900000,181.200000" fill="rgb(122,96,71)" stroke="none" stroke-width="1"/><rect id="e2z4DFi5AY650" width="25.500000" height="42.200000" rx="0" ry="0" transform="matrix(0.86600000000000 -0.50000000000000 0.50000000000000 0.86600000000000 307.83859999999999 92.79059999999998)" clip-rule="evenodd" fill="rgb(194,151,98)" fill-rule="evenodd" stroke="none" stroke-width="1"/><rect id="e2z4DFi5AY651" width="25.500000" height="42.200000" rx="0" ry="0" transform="matrix(0.86600000000000 -0.50000000000000 0.50000000000000 0.86600000000000 263.65569999999997 118.31859999999998)" clip-rule="evenodd" fill="rgb(194,151,98)" fill-rule="evenodd" stroke="none" stroke-width="1"/><rect id="e2z4DFi5AY652" width="25.500000" height="42.200000" rx="0" ry="0" transform="matrix(0.86600000000000 -0.50000000000000 0.50000000000000 0.86600000000000 219.55909999999994 143.79559999999998)" clip-rule="evenodd" fill="rgb(194,151,98)" fill-rule="evenodd" stroke="none" stroke-width="1"/><path id="e2z4DFi5AY653" d="M329.300000,82.100000L221.500000,144.300000L241.100000,178.300000L349,116.100000L329.300000,82.100000L329.300000,82.100000ZM218.800000,142.500000L330.400000,78C337.900000,91.100000,345.500000,104.100000,353,117.200000C315.400000,138.900000,277.700000,160.700000,240.100000,182.400000L217.500000,143.200000L218.800000,142.500000L218.800000,142.500000Z" fill="rgb(174,140,95)" stroke="none" stroke-width="1"/></g><g id="e2z4DFi5AY654"><polygon id="e2z4DFi5AY655" points="197.800000,180.700000 116.200000,39.400000 118.800000,37.900000 200.400000,179.200000" fill="rgb(122,96,71)" stroke="none" stroke-width="1"/><rect id="e2z4DFi5AY656" width="42.200000" height="25.500000" rx="0" ry="0" transform="matrix(0.86600000000000 -0.50000000000000 0.50000000000000 0.86600000000000 99.25179999999999 49.14519999999999)" clip-rule="evenodd" fill="rgb(194,151,98)" fill-rule="evenodd" stroke="none" stroke-width="1"/><rect id="e2z4DFi5AY657" width="42.200000" height="25.500000" rx="0" ry="0" transform="matrix(0.86600000000000 -0.50000000000000 0.50000000000000 0.86600000000000 124.64229999999996 93.29169999999999)" clip-rule="evenodd" fill="rgb(194,151,98)" fill-rule="evenodd" stroke="none" stroke-width="1"/><rect id="e2z4DFi5AY658" width="42.200000" height="25.500000" rx="0" ry="0" transform="matrix(0.86600000000000 -0.50000000000000 0.50000000000000 0.86600000000000 150.16939999999997 137.47420000000000)" clip-rule="evenodd" fill="rgb(194,151,98)" fill-rule="evenodd" stroke="none" stroke-width="1"/><path id="e2z4DFi5AY659" d="M101.300000,49.700000L163.500000,157.500000L197.500000,137.900000L135.200000,30.100000L101.300000,49.700000L101.300000,49.700000ZM161.600000,160.300000L97.200000,48.600000L136.300000,26C158,63.600000,179.800000,101.300000,201.500000,138.900000L162.300000,161.500000L161.600000,160.300000L161.600000,160.300000Z" fill="rgb(174,140,95)" stroke="none" stroke-width="1"/></g><g id="e2z4DFi5AY660"><polygon id="e2z4DFi5AY661" points="199.800000,181.200000 58.500000,262.900000 57,260.300000 198.400000,178.700000" fill="rgb(122,96,71)" stroke="none" stroke-width="1"/><rect id="e2z4DFi5AY662" width="25.500000" height="42.200000" rx="0" ry="0" transform="matrix(0.86600000000000 -0.50000000000000 0.50000000000000 0.86600000000000 47.25560000000000 243.26969999999997)" clip-rule="evenodd" fill="rgb(194,151,98)" fill-rule="evenodd" stroke="none" stroke-width="1"/><rect id="e2z4DFi5AY663" width="25.500000" height="42.200000" rx="0" ry="0" transform="matrix(0.86600000000000 -0.50000000000000 0.50000000000000 0.86600000000000 91.35209999999998 217.79269999999997)" clip-rule="evenodd" fill="rgb(194,151,98)" fill-rule="evenodd" stroke="none" stroke-width="1"/><rect id="e2z4DFi5AY664" width="25.500000" height="42.200000" rx="0" ry="0" transform="matrix(0.86600000000000 -0.50000000000000 0.50000000000000 0.86600000000000 135.44860000000000 192.31559999999996)" clip-rule="evenodd" fill="rgb(194,151,98)" fill-rule="evenodd" stroke="none" stroke-width="1"/><path id="e2z4DFi5AY665" d="M68.900000,277.800000L176.700000,215.600000L157.100000,181.600000L49.300000,243.800000L68.900000,277.800000ZM179.400000,217.400000L67.800000,281.900000L45.200000,242.700000L158.100000,177.500000C165.600000,190.500000,173.200000,203.600000,180.700000,216.700000L179.400000,217.400000L179.400000,217.400000Z" fill="rgb(174,140,95)" stroke="none" stroke-width="1"/></g><g id="e2z4DFi5AY666"><polygon id="e2z4DFi5AY667" points="200.400000,179.200000 282,320.500000 279.400000,322.100000 197.800000,180.700000" fill="rgb(122,96,71)" stroke="none" stroke-width="1"/><rect id="e2z4DFi5AY668" width="42.200000" height="25.500000" rx="0" ry="0" transform="matrix(0.86600000000000 -0.50000000000000 0.50000000000000 0.86600000000000 249.64319999999998 309.77800000000002)" clip-rule="evenodd" fill="rgb(194,151,98)" fill-rule="evenodd" stroke="none" stroke-width="1"/><rect id="e2z4DFi5AY669" width="42.200000" height="25.500000" rx="0" ry="0" transform="matrix(0.86600000000000 -0.50000000000000 0.50000000000000 0.86600000000000 224.16649999999998 265.68139999999994)" clip-rule="evenodd" fill="rgb(194,151,98)" fill-rule="evenodd" stroke="none" stroke-width="1"/><rect id="e2z4DFi5AY670" width="42.200000" height="25.500000" rx="0" ry="0" transform="matrix(0.86600000000000 -0.50000000000000 0.50000000000000 0.86600000000000 198.72599999999997 221.44919999999993)" clip-rule="evenodd" fill="rgb(194,151,98)" fill-rule="evenodd" stroke="none" stroke-width="1"/><path id="e2z4DFi5AY671" d="M297,310.200000L234.800000,202.400000L200.800000,222L263,329.800000L297,310.200000L297,310.200000ZM236.600000,199.600000L301,311.300000L261.800000,333.900000C240.100000,296.300000,218.300000,258.600000,196.600000,221L235.800000,198.400000L236.600000,199.600000L236.600000,199.600000Z" fill="rgb(174,140,95)" stroke="none" stroke-width="1"/></g><g id="e2z4DFi5AY672"><circle id="e2z4DFi5AY673" r="8.900000" transform="matrix(1 0 0 1 199.09999999999999 180)" clip-rule="evenodd" fill="rgb(130,85,48)" fill-rule="evenodd" stroke="none" stroke-width="1"/><path id="e2z4DFi5AY674" d="M195.400000,173.500000L195.400000,173.500000C193.600000,174.500000,192.400000,176.200000,191.900000,178C191.400000,179.800000,191.600000,181.900000,192.600000,183.600000L192.600000,183.600000C193.600000,185.400000,195.300000,186.600000,197.100000,187.100000C198.900000,187.600000,201,187.400000,202.700000,186.400000L202.700000,186.400000C204.500000,185.400000,205.700000,183.700000,206.200000,181.900000C206.700000,180.100000,206.500000,178,205.500000,176.300000L205.500000,176.300000C204.500000,174.500000,202.800000,173.300000,201,172.800000C199.200000,172.300000,197.200000,172.500000,195.400000,173.500000L195.400000,173.500000ZM194.300000,170.700000C196.700000,169.400000,199.400000,169.200000,201.800000,169.900000C204.400000,170.600000,206.700000,172.300000,208.100000,174.800000L208.300000,175.200000L208.300000,175.200000C209.600000,177.600000,209.800000,180.300000,209.100000,182.800000C208.400000,185.400000,206.700000,187.700000,204.200000,189.100000L203.800000,189.300000L203.800000,189.300000C201.400000,190.600000,198.700000,190.800000,196.200000,190.100000C193.600000,189.400000,191.300000,187.700000,189.900000,185.200000L189.900000,185.200000C188.500000,182.700000,188.100000,179.800000,188.800000,177.300000C189.500000,174.700000,191.200000,172.400000,193.700000,171L194.300000,170.700000L194.300000,170.700000L194.300000,170.700000Z" fill="rgb(141,97,60)" stroke="none" stroke-width="1"/></g></g></svg>