<svg id="eY6cQCDPaSt1" xmlns="http://www.w3.org/2000/svg" xmlns:xlink="http://www.w3.org/1999/xlink" viewBox="0 0 400 400" shape-rendering="geometricPrecision" text-rendering="geometricPrecision"><defs><linearGradient id="eY6cQCDPaSt7-fill" x1="70.575671" y1="198.548857" x2="70.575671" y2="274.626588" spreadMethod="pad" gradientUnits="userSpaceOnUse"><stop id="eY6cQCDPaSt7-fill-0" offset="0%" stop-color="rgb(230,230,230)"/><stop id="eY6cQCDPaSt7-fill-1" offset="100%" stop-color="rgb(204,204,204)"/></linearGradient><linearGradient id="eY6cQCDPaSt14-fill" x1="107.516838" y1="198.548857" x2="107.516838" y2="274.626588" spreadMethod="pad" gradientUnits="userSpaceOnUse"><stop id="eY6cQCDPaSt14-fill-0" offset="0%" stop-color="rgb(230,230,230)"/><stop id="eY6cQCDPaSt14-fill-1" offset="100%" stop-color="rgb(204,204,204)"/></linearGradient><linearGradient id="eY6cQCDPaSt21-fill" x1="181.399020" y1="198.548857" x2="181.399020" y2="274.626588" spreadMethod="pad" gradientUnits="userSpaceOnUse"><stop id="eY6cQCDPaSt21-fill-0" offset="0%" stop-color="rgb(230,230,230)"/><stop id="eY6cQCDPaSt21-fill-1" offset="100%" stop-color="rgb(204,204,204)"/></linearGradient><linearGradient id="eY6cQCDPaSt28-fill" x1="218.340111" y1="198.548857" x2="218.340111" y2="274.626588" spreadMethod="pad" gradientUnits="userSpaceOnUse"><stop id="eY6cQCDPaSt28-fill-0" offset="0%" stop-color="rgb(230,230,230)"/><stop id="eY6cQCDPaSt28-fill-1" offset="100%" stop-color="rgb(204,204,204)"/></linearGradient><linearGradient id="eY6cQCDPaSt35-fill" x1="292.222293" y1="198.548857" x2="292.222293" y2="274.626588" spreadMethod="pad" gradientUnits="userSpaceOnUse"><stop id="eY6cQCDPaSt35-fill-0" offset="0%" stop-color="rgb(230,230,230)"/><stop id="eY6cQCDPaSt35-fill-1" offset="100%" stop-color="rgb(204,204,204)"/></linearGradient><linearGradient id="eY6cQCDPaSt42-fill" x1="329.165192" y1="198.531979" x2="329.165192" y2="274.609709" spreadMethod="pad" gradientUnits="userSpaceOnUse"><stop id="eY6cQCDPaSt42-fill-0" offset="0%" stop-color="rgb(230,230,230)"/><stop id="eY6cQCDPaSt42-fill-1" offset="100%" stop-color="rgb(204,204,204)"/></linearGradient><linearGradient id="eY6cQCDPaSt49-fill" x1="144.457853" y1="198.548857" x2="144.457853" y2="274.626588" spreadMethod="pad" gradientUnits="userSpaceOnUse"><stop id="eY6cQCDPaSt49-fill-0" offset="0%" stop-color="rgb(230,230,230)"/><stop id="eY6cQCDPaSt49-fill-1" offset="100%" stop-color="rgb(204,204,204)"/></linearGradient><linearGradient id="eY6cQCDPaSt56-fill" x1="255.281126" y1="198.548857" x2="255.281126" y2="274.626588" spreadMethod="pad" gradientUnits="userSpaceOnUse"><stop id="eY6cQCDPaSt56-fill-0" offset="0%" stop-color="rgb(230,230,230)"/><stop id="eY6cQCDPaSt56-fill-1" offset="100%" stop-color="rgb(204,204,204)"/></linearGradient><linearGradient id="eY6cQCDPaSt66-fill" x1="199.997208" y1="84.024694" x2="199.997208" y2="141.088379" spreadMethod="pad" gradientUnits="userSpaceOnUse"><stop id="eY6cQCDPaSt66-fill-0" offset="0%" stop-color="rgb(230,230,230)"/><stop id="eY6cQCDPaSt66-fill-1" offset="100%" stop-color="rgb(204,204,204)"/></linearGradient></defs><g id="eY6cQCDPaSt2"><rect id="eY6cQCDPaSt3" width="325.300000" height="13.600000" rx="0" ry="0" transform="matrix(1 0 0 1 37.19999999999999 311.10000000000002)" clip-rule="evenodd" fill="rgb(153,153,153)" fill-rule="evenodd" stroke="none" stroke-width="1"/><rect id="eY6cQCDPaSt4" width="298.200000" height="13.600000" rx="0" ry="0" transform="matrix(1 0 0 1 50.80000000000001 297.50000000000000)" clip-rule="evenodd" fill="rgb(179,179,179)" fill-rule="evenodd" stroke="none" stroke-width="1"/></g><g id="eY6cQCDPaSt5"><g id="eY6cQCDPaSt6"><polygon id="eY6cQCDPaSt7" points="76.600000,198.500000 64.500000,198.500000 63.300000,274.600000 77.800000,274.600000" clip-rule="evenodd" fill="url(#eY6cQCDPaSt7-fill)" fill-rule="evenodd" stroke="none" stroke-width="1"/><polygon id="eY6cQCDPaSt8" points="79.500000,274.600000 61.600000,274.600000 60.900000,294.200000 80.300000,294.200000" clip-rule="evenodd" fill="rgb(230,230,230)" fill-rule="evenodd" stroke="none" stroke-width="1"/><rect id="eY6cQCDPaSt9" width="19.400000" height="13.800000" rx="0" ry="0" transform="matrix(1 0 0 1 60.90000000000000 168.19999999999999)" clip-rule="evenodd" fill="rgb(153,153,153)" fill-rule="evenodd" stroke="none" stroke-width="1"/><path id="eY6cQCDPaSt10" d="M58.900000,182L82.200000,182C82.500000,182,82.700000,182.800000,82.700000,183.700000L82.700000,183.700000C82.700000,184.600000,82.500000,185.400000,82.200000,185.400000L58.900000,185.400000C58.600000,185.400000,58.400000,184.600000,58.400000,183.700000L58.400000,183.700000C58.500000,182.800000,58.700000,182,58.900000,182Z" clip-rule="evenodd" fill="rgb(230,230,230)" fill-rule="evenodd" stroke="none" stroke-width="1"/><polygon id="eY6cQCDPaSt11" points="76.600000,198.500000 64.500000,198.500000 60.900000,185.400000 80.300000,185.400000" clip-rule="evenodd" fill="rgb(204,204,204)" fill-rule="evenodd" stroke="none" stroke-width="1"/><polygon id="eY6cQCDPaSt12" points="81.500000,294.200000 59.700000,294.200000 58.700000,297.500000 82.500000,297.500000" clip-rule="evenodd" fill="rgb(204,204,204)" fill-rule="evenodd" stroke="none" stroke-width="1"/></g><g id="eY6cQCDPaSt13"><polygon id="eY6cQCDPaSt14" points="113.600000,198.500000 101.500000,198.500000 100.300000,274.600000 114.800000,274.600000" clip-rule="evenodd" fill="url(#eY6cQCDPaSt14-fill)" fill-rule="evenodd" stroke="none" stroke-width="1"/><polygon id="eY6cQCDPaSt15" points="116.500000,274.600000 98.600000,274.600000 97.800000,294.200000 117.200000,294.200000" clip-rule="evenodd" fill="rgb(230,230,230)" fill-rule="evenodd" stroke="none" stroke-width="1"/><rect id="eY6cQCDPaSt16" width="19.400000" height="13.800000" rx="0" ry="0" transform="matrix(1 0 0 1 97.80000000000000 168.19999999999999)" clip-rule="evenodd" fill="rgb(153,153,153)" fill-rule="evenodd" stroke="none" stroke-width="1"/><path id="eY6cQCDPaSt17" d="M95.900000,182L119.200000,182C119.500000,182,119.700000,182.800000,119.700000,183.700000L119.700000,183.700000C119.700000,184.600000,119.500000,185.400000,119.200000,185.400000L95.900000,185.400000C95.600000,185.400000,95.400000,184.600000,95.400000,183.700000L95.400000,183.700000C95.400000,182.800000,95.600000,182,95.900000,182Z" clip-rule="evenodd" fill="rgb(230,230,230)" fill-rule="evenodd" stroke="none" stroke-width="1"/><polygon id="eY6cQCDPaSt18" points="113.600000,198.500000 101.500000,198.500000 97.800000,185.400000 117.200000,185.400000" clip-rule="evenodd" fill="rgb(204,204,204)" fill-rule="evenodd" stroke="none" stroke-width="1"/><polygon id="eY6cQCDPaSt19" points="118.400000,294.200000 96.600000,294.200000 95.600000,297.500000 119.400000,297.500000" clip-rule="evenodd" fill="rgb(204,204,204)" fill-rule="evenodd" stroke="none" stroke-width="1"/></g><g id="eY6cQCDPaSt20"><polygon id="eY6cQCDPaSt21" points="187.500000,198.500000 175.300000,198.500000 174.200000,274.600000 188.600000,274.600000" clip-rule="evenodd" fill="url(#eY6cQCDPaSt21-fill)" fill-rule="evenodd" stroke="none" stroke-width="1"/><polygon id="eY6cQCDPaSt22" points="190.300000,274.600000 172.500000,274.600000 171.700000,294.200000 191.100000,294.200000" clip-rule="evenodd" fill="rgb(230,230,230)" fill-rule="evenodd" stroke="none" stroke-width="1"/><rect id="eY6cQCDPaSt23" width="19.400000" height="13.800000" rx="0" ry="0" transform="matrix(1 0 0 1 171.69999999999999 168.19999999999999)" clip-rule="evenodd" fill="rgb(153,153,153)" fill-rule="evenodd" stroke="none" stroke-width="1"/><path id="eY6cQCDPaSt24" d="M169.800000,182L193,182C193.300000,182,193.500000,182.800000,193.500000,183.700000L193.500000,183.700000C193.500000,184.600000,193.300000,185.400000,193,185.400000L169.700000,185.400000C169.400000,185.400000,169.200000,184.600000,169.200000,183.700000L169.200000,183.700000C169.300000,182.800000,169.500000,182,169.800000,182Z" clip-rule="evenodd" fill="rgb(230,230,230)" fill-rule="evenodd" stroke="none" stroke-width="1"/><polygon id="eY6cQCDPaSt25" points="187.500000,198.500000 175.300000,198.500000 171.700000,185.400000 191.100000,185.400000" clip-rule="evenodd" fill="rgb(204,204,204)" fill-rule="evenodd" stroke="none" stroke-width="1"/><polygon id="eY6cQCDPaSt26" points="192.300000,294.200000 170.500000,294.200000 169.500000,297.500000 193.300000,297.500000" clip-rule="evenodd" fill="rgb(204,204,204)" fill-rule="evenodd" stroke="none" stroke-width="1"/></g><g id="eY6cQCDPaSt27"><polygon id="eY6cQCDPaSt28" points="224.400000,198.500000 212.300000,198.500000 211.100000,274.600000 225.600000,274.600000" clip-rule="evenodd" fill="url(#eY6cQCDPaSt28-fill)" fill-rule="evenodd" stroke="none" stroke-width="1"/><polygon id="eY6cQCDPaSt29" points="227.300000,274.600000 209.400000,274.600000 208.600000,294.200000 228.100000,294.200000" clip-rule="evenodd" fill="rgb(230,230,230)" fill-rule="evenodd" stroke="none" stroke-width="1"/><rect id="eY6cQCDPaSt30" width="19.400000" height="13.800000" rx="0" ry="0" transform="matrix(1 0 0 1 208.59999999999999 168.19999999999999)" clip-rule="evenodd" fill="rgb(153,153,153)" fill-rule="evenodd" stroke="none" stroke-width="1"/><path id="eY6cQCDPaSt31" d="M206.700000,182L230,182C230.300000,182,230.500000,182.800000,230.500000,183.700000L230.500000,183.700000C230.500000,184.600000,230.300000,185.400000,230,185.400000L206.700000,185.400000C206.400000,185.400000,206.200000,184.600000,206.200000,183.700000L206.200000,183.700000C206.200000,182.800000,206.400000,182,206.700000,182Z" clip-rule="evenodd" fill="rgb(230,230,230)" fill-rule="evenodd" stroke="none" stroke-width="1"/><polygon id="eY6cQCDPaSt32" points="224.400000,198.500000 212.300000,198.500000 208.600000,185.400000 228.100000,185.400000" clip-rule="evenodd" fill="rgb(204,204,204)" fill-rule="evenodd" stroke="none" stroke-width="1"/><polygon id="eY6cQCDPaSt33" points="229.300000,294.200000 207.400000,294.200000 206.500000,297.500000 230.200000,297.500000" clip-rule="evenodd" fill="rgb(204,204,204)" fill-rule="evenodd" stroke="none" stroke-width="1"/></g><g id="eY6cQCDPaSt34"><polygon id="eY6cQCDPaSt35" points="298.300000,198.500000 286.200000,198.500000 285,274.600000 299.500000,274.600000" clip-rule="evenodd" fill="url(#eY6cQCDPaSt35-fill)" fill-rule="evenodd" stroke="none" stroke-width="1"/><polygon id="eY6cQCDPaSt36" points="301.200000,274.600000 283.300000,274.600000 282.500000,294.200000 302,294.200000" clip-rule="evenodd" fill="rgb(230,230,230)" fill-rule="evenodd" stroke="none" stroke-width="1"/><rect id="eY6cQCDPaSt37" width="19.400000" height="13.800000" rx="0" ry="0" transform="matrix(1 0 0 1 282.50000000000000 168.19999999999999)" clip-rule="evenodd" fill="rgb(153,153,153)" fill-rule="evenodd" stroke="none" stroke-width="1"/><path id="eY6cQCDPaSt38" d="M280.600000,182L303.900000,182C304.200000,182,304.400000,182.800000,304.400000,183.700000L304.400000,183.700000C304.400000,184.600000,304.200000,185.400000,303.900000,185.400000L280.600000,185.400000C280.300000,185.400000,280.100000,184.600000,280.100000,183.700000L280.100000,183.700000C280.100000,182.800000,280.300000,182,280.600000,182Z" clip-rule="evenodd" fill="rgb(230,230,230)" fill-rule="evenodd" stroke="none" stroke-width="1"/><polygon id="eY6cQCDPaSt39" points="298.300000,198.500000 286.200000,198.500000 282.500000,185.400000 302,185.400000" clip-rule="evenodd" fill="rgb(204,204,204)" fill-rule="evenodd" stroke="none" stroke-width="1"/><polygon id="eY6cQCDPaSt40" points="303.200000,294.200000 281.300000,294.200000 280.300000,297.500000 304.100000,297.500000" clip-rule="evenodd" fill="rgb(204,204,204)" fill-rule="evenodd" stroke="none" stroke-width="1"/></g><g id="eY6cQCDPaSt41"><polygon id="eY6cQCDPaSt42" points="335.200000,198.500000 323.100000,198.500000 321.900000,274.600000 336.400000,274.600000" clip-rule="evenodd" fill="url(#eY6cQCDPaSt42-fill)" fill-rule="evenodd" stroke="none" stroke-width="1"/><polygon id="eY6cQCDPaSt43" points="338.100000,274.600000 320.200000,274.600000 319.400000,294.200000 338.900000,294.200000" clip-rule="evenodd" fill="rgb(230,230,230)" fill-rule="evenodd" stroke="none" stroke-width="1"/><rect id="eY6cQCDPaSt44" width="19.400000" height="13.800000" rx="0" ry="0" transform="matrix(1 0 0 1 319.39999999999998 168.19999999999999)" clip-rule="evenodd" fill="rgb(153,153,153)" fill-rule="evenodd" stroke="none" stroke-width="1"/><path id="eY6cQCDPaSt45" d="M317.500000,182L340.800000,182C341.100000,182,341.300000,182.800000,341.300000,183.700000L341.300000,183.700000C341.300000,184.600000,341.100000,185.400000,340.800000,185.400000L317.500000,185.400000C317.200000,185.400000,317,184.600000,317,183.700000L317,183.700000C317,182.700000,317.300000,182,317.500000,182Z" clip-rule="evenodd" fill="rgb(230,230,230)" fill-rule="evenodd" stroke="none" stroke-width="1"/><polygon id="eY6cQCDPaSt46" points="335.200000,198.500000 323.100000,198.500000 319.400000,185.400000 338.900000,185.400000" clip-rule="evenodd" fill="rgb(204,204,204)" fill-rule="evenodd" stroke="none" stroke-width="1"/><polygon id="eY6cQCDPaSt47" points="340.100000,294.200000 318.200000,294.200000 317.300000,297.500000 341.100000,297.500000" clip-rule="evenodd" fill="rgb(204,204,204)" fill-rule="evenodd" stroke="none" stroke-width="1"/></g><g id="eY6cQCDPaSt48"><polygon id="eY6cQCDPaSt49" points="150.500000,198.500000 138.400000,198.500000 137.200000,274.600000 151.700000,274.600000" clip-rule="evenodd" fill="url(#eY6cQCDPaSt49-fill)" fill-rule="evenodd" stroke="none" stroke-width="1"/><polygon id="eY6cQCDPaSt50" points="153.400000,274.600000 135.500000,274.600000 134.700000,294.200000 154.200000,294.200000" clip-rule="evenodd" fill="rgb(230,230,230)" fill-rule="evenodd" stroke="none" stroke-width="1"/><rect id="eY6cQCDPaSt51" width="19.400000" height="13.800000" rx="0" ry="0" transform="matrix(1 0 0 1 134.69999999999999 168.19999999999999)" clip-rule="evenodd" fill="rgb(153,153,153)" fill-rule="evenodd" stroke="none" stroke-width="1"/><path id="eY6cQCDPaSt52" d="M132.800000,182L156.100000,182C156.400000,182,156.600000,182.800000,156.600000,183.700000L156.600000,183.700000C156.600000,184.600000,156.400000,185.400000,156.100000,185.400000L132.800000,185.400000C132.500000,185.400000,132.300000,184.600000,132.300000,183.700000L132.300000,183.700000C132.300000,182.800000,132.600000,182,132.800000,182Z" clip-rule="evenodd" fill="rgb(230,230,230)" fill-rule="evenodd" stroke="none" stroke-width="1"/><polygon id="eY6cQCDPaSt53" points="150.500000,198.500000 138.400000,198.500000 134.700000,185.400000 154.200000,185.400000" clip-rule="evenodd" fill="rgb(204,204,204)" fill-rule="evenodd" stroke="none" stroke-width="1"/><polygon id="eY6cQCDPaSt54" points="155.400000,294.200000 133.500000,294.200000 132.600000,297.500000 156.400000,297.500000" clip-rule="evenodd" fill="rgb(204,204,204)" fill-rule="evenodd" stroke="none" stroke-width="1"/></g><g id="eY6cQCDPaSt55"><polygon id="eY6cQCDPaSt56" points="261.300000,198.500000 249.200000,198.500000 248,274.600000 262.500000,274.600000" clip-rule="evenodd" fill="url(#eY6cQCDPaSt56-fill)" fill-rule="evenodd" stroke="none" stroke-width="1"/><polygon id="eY6cQCDPaSt57" points="264.200000,274.600000 246.400000,274.600000 245.600000,294.200000 265,294.200000" clip-rule="evenodd" fill="rgb(230,230,230)" fill-rule="evenodd" stroke="none" stroke-width="1"/><rect id="eY6cQCDPaSt58" width="19.400000" height="13.800000" rx="0" ry="0" transform="matrix(1 0 0 1 245.59999999999999 168.19999999999999)" clip-rule="evenodd" fill="rgb(153,153,153)" fill-rule="evenodd" stroke="none" stroke-width="1"/><path id="eY6cQCDPaSt59" d="M243.700000,182L267,182C267.300000,182,267.500000,182.800000,267.500000,183.700000L267.500000,183.700000C267.500000,184.600000,267.300000,185.400000,267,185.400000L243.700000,185.400000C243.400000,185.400000,243.200000,184.600000,243.200000,183.700000L243.200000,183.700000C243.200000,182.800000,243.400000,182,243.700000,182Z" clip-rule="evenodd" fill="rgb(230,230,230)" fill-rule="evenodd" stroke="none" stroke-width="1"/><polygon id="eY6cQCDPaSt60" points="261.300000,198.500000 249.200000,198.500000 245.600000,185.400000 265,185.400000" clip-rule="evenodd" fill="rgb(204,204,204)" fill-rule="evenodd" stroke="none" stroke-width="1"/><polygon id="eY6cQCDPaSt61" points="266.200000,294.200000 244.400000,294.200000 243.400000,297.500000 267.200000,297.500000" clip-rule="evenodd" fill="rgb(204,204,204)" fill-rule="evenodd" stroke="none" stroke-width="1"/></g></g><g id="eY6cQCDPaSt62"><polygon id="eY6cQCDPaSt63" points="375,148.900000 25,148.900000 200,75.400000" clip-rule="evenodd" fill="rgb(204,204,204)" fill-rule="evenodd" stroke="none" stroke-width="1"/><rect id="eY6cQCDPaSt64" width="298.200000" height="6.400000" rx="0" ry="0" transform="matrix(1 0 0 1 50.80000000000001 161.90000000000001)" clip-rule="evenodd" fill="rgb(204,204,204)" fill-rule="evenodd" stroke="none" stroke-width="1"/><polygon id="eY6cQCDPaSt65" points="362.300000,148.900000 36.900000,148.900000 40.900000,161.900000 358.300000,161.900000" clip-rule="evenodd" fill="rgb(153,153,153)" fill-rule="evenodd" stroke="none" stroke-width="1"/><polygon id="eY6cQCDPaSt66" points="335.800000,141.100000 64.200000,141.100000 200,84" clip-rule="evenodd" fill="url(#eY6cQCDPaSt66-fill)" fill-rule="evenodd" stroke="none" stroke-width="1"/><polygon id="eY6cQCDPaSt67" points="239.100000,108.900000 160.900000,108.900000 200,92.500000" clip-rule="evenodd" fill="rgb(179,179,179)" fill-rule="evenodd" stroke="none" stroke-width="1"/></g></svg>