<svg id="s1" xmlns="http://www.w3.org/2000/svg" xmlns:xlink="http://www.w3.org/1999/xlink" viewBox="0 0 400 400"><g id="s3"><g id="s5"><line id="s7" x1="77.510000" y1="184.380000" x2="77.510000" y2="234.080000" fill="none" stroke="rgb(240,208,158)" stroke-width="10" stroke-linecap="round" stroke-miterlimit="10"/><line id="s9" x1="104.520000" y1="184.380000" x2="104.520000" y2="234.080000" fill="none" stroke="rgb(240,208,158)" stroke-width="10" stroke-linecap="round" stroke-miterlimit="10"/><path id="s11" d="M52,229.280000L52,318.720000L131.890000,318.720000L131.890000,225.910000L55.400000,225.910000C54.501838,225.904681,53.638494,226.257066,53.000579,226.889352C52.362663,227.521639,52.002642,228.381827,52,229.280000Z" fill="rgb(240,208,158)" stroke="none" stroke-width="1"/><line id="s13" x1="91.020000" y1="144.420000" x2="91.020000" y2="169.360000" fill="none" stroke="rgb(240,208,158)" stroke-width="10" stroke-linecap="round" stroke-miterlimit="10"/><path id="s15" d="M91,156.890000C71.490000,163.520000,66.250000,178.200000,66.250000,190.580000L115.740000,190.580000C115.760000,178.200000,110.530000,163.520000,91,156.890000Z" fill="rgb(250,236,205)" stroke="none" stroke-width="1"/><rect id="s17" width="59.400000" height="10.980000" rx="2" ry="2" transform="translate(61.320000,188.950000)" fill="rgb(240,208,158)" stroke="none" stroke-width="1"/><path id="s19" d="M117,264.270000L117,250.880000C117,245.081010,112.298990,240.380000,106.500000,240.380000C100.701010,240.380000,96,245.081010,96,250.880000L96,264.270000Z" fill="rgb(217,177,113)" stroke="none" stroke-width="1"/><path id="s21" d="M117,304.450000L117,291.050000C117,285.251010,112.298990,280.550000,106.500000,280.550000C100.701010,280.550000,96,285.251010,96,291.050000L96,304.440000Z" fill="rgb(217,177,113)" stroke="none" stroke-width="1"/><path id="s23" d="M83.690000,264.270000L83.690000,250.880000C83.690000,245.081010,78.988990,240.380000,73.190000,240.380000C67.391010,240.380000,62.690000,245.081010,62.690000,250.880000L62.690000,264.270000Z" fill="rgb(217,177,113)" stroke="none" stroke-width="1"/><path id="s25" d="M83.690000,304.450000L83.690000,291.050000C83.690000,285.251010,78.988990,280.550000,73.190000,280.550000C67.391010,280.550000,62.690000,285.251010,62.690000,291.050000L62.690000,304.440000Z" fill="rgb(217,177,113)" stroke="none" stroke-width="1"/></g><g id="s27"><line id="s29" x1="322.490000" y1="184.380000" x2="322.490000" y2="234.080000" fill="none" stroke="rgb(240,208,158)" stroke-width="10" stroke-linecap="round" stroke-miterlimit="10"/><line id="s31" x1="295.480000" y1="184.380000" x2="295.480000" y2="234.080000" fill="none" stroke="rgb(240,208,158)" stroke-width="10" stroke-linecap="round" stroke-miterlimit="10"/><path id="s33" d="M348,229.280000L348,318.720000L268.080000,318.720000L268.080000,225.910000L344.600000,225.910000C345.498162,225.904681,346.361506,226.257066,346.999421,226.889352C347.637337,227.521639,347.997358,228.381827,348,229.280000Z" fill="rgb(240,208,158)" stroke="none" stroke-width="1"/><line id="s35" x1="308.980000" y1="144.420000" x2="308.980000" y2="169.360000" fill="none" stroke="rgb(240,208,158)" stroke-width="10" stroke-linecap="round" stroke-miterlimit="10"/><path id="s37" d="M309,156.890000C328.510000,163.520000,333.750000,178.200000,333.750000,190.580000L284.240000,190.580000C284.240000,178.200000,289.470000,163.520000,309,156.890000Z" fill="rgb(250,236,205)" stroke="none" stroke-width="1"/><rect id="s39" width="59.400000" height="10.980000" rx="2" ry="2" transform="translate(617.960000,388.880000) rotate(180) translate(279.280000,188.950000)" fill="rgb(240,208,158)" stroke="none" stroke-width="1"/><path id="s41" d="M283,264.270000L283,250.880000C283,245.081010,287.701010,240.380000,293.500000,240.380000C299.298990,240.380000,304,245.081010,304,250.880000L304,264.270000Z" fill="rgb(217,177,113)" stroke="none" stroke-width="1"/><path id="s43" d="M283,304.450000L283,291.050000C283,285.251010,287.701010,280.550000,293.500000,280.550000C299.298990,280.550000,304,285.251010,304,291.050000L304,304.440000Z" fill="rgb(217,177,113)" stroke="none" stroke-width="1"/><path id="s45" d="M316.310000,264.270000L316.310000,250.880000C316.310000,245.081010,321.011010,240.380000,326.810000,240.380000C332.608990,240.380000,337.310000,245.081010,337.310000,250.880000L337.310000,264.270000Z" fill="rgb(217,177,113)" stroke="none" stroke-width="1"/><path id="s47" d="M316.310000,304.450000L316.310000,291.050000C316.310000,285.251010,321.011010,280.550000,326.810000,280.550000C332.608990,280.550000,337.310000,285.251010,337.310000,291.050000L337.310000,304.440000Z" fill="rgb(217,177,113)" stroke="none" stroke-width="1"/></g><g id="s49"><line id="s51" x1="200" y1="21.960000" x2="200" y2="48.050000" fill="none" stroke="rgb(240,208,158)" stroke-width="10" stroke-linecap="round" stroke-miterlimit="10"/><path id="s53" d="M129.120000,187.730000L270.880000,187.730000C272.536854,187.730000,273.880000,189.073146,273.880000,190.730000L273.880000,318.730000L126.120000,318.730000L126.120000,190.730000C126.120000,189.934351,126.436071,189.171289,126.998680,188.608680C127.561289,188.046071,128.324351,187.730000,129.120000,187.730000Z" fill="rgb(250,236,205)" stroke="none" stroke-width="1"/><polyline id="s55" points="141.870000,318.720000 141.870000,203.480000 258.130000,203.480000 258.130000,318.720000" fill="none" stroke="rgb(240,208,158)" stroke-width="10" stroke-linecap="round" stroke-linejoin="round"/><rect id="s57" width="102.270000" height="21.430000" rx="0" ry="0" transform="translate(148.860000,166.340000)" fill="rgb(217,177,113)" stroke="none" stroke-width="1"/><path id="s59" d="M200,42.660000C180.120000,54.980000,122,94.330000,122,129.260000C122,157.460000,137.750000,171.670000,155,171.670000L245,171.670000C262.270000,171.670000,278,157.450000,278,129.260000C278,94.330000,219.880000,55,200,42.660000Z" fill="rgb(250,236,205)" stroke="none" stroke-width="1"/><path id="s61" d="M239.250000,318.720000L239.250000,261.460000C239.250000,231.640000,211.960000,227.800000,200,217.720000C188,227.800000,160.750000,231.650000,160.750000,261.460000L160.750000,318.720000" fill="rgb(217,177,113)" stroke="none" stroke-width="1"/><path id="s63" d="M125.800000,150.680000L274.200000,150.680000C276.279456,145.421362,277.508177,139.865113,277.840000,134.220000L122.160000,134.220000C122.491823,139.865113,123.720544,145.421362,125.800000,150.680000Z" fill="rgb(240,208,158)" stroke="none" stroke-width="1"/></g><rect id="s65" width="324.440000" height="30.960000" rx="13.760000" ry="13.760000" transform="translate(37.780000,312.160000)" fill="rgb(107,199,115)" stroke="none" stroke-width="1"/><rect id="s67" width="113.910000" height="26.490000" rx="11.770000" ry="11.770000" transform="translate(143.040000,321.610000)" fill="rgb(66,162,199)" stroke="none" stroke-width="1"/><rect id="s69" width="133.160000" height="26.490000" rx="11.770000" ry="11.770000" transform="translate(133.420000,341.790000)" fill="rgb(66,162,199)" stroke="none" stroke-width="1"/></g></svg>