<svg id="eNEwzaovX5j1" xmlns="http://www.w3.org/2000/svg" xmlns:xlink="http://www.w3.org/1999/xlink" viewBox="0 0 400 400" shape-rendering="geometricPrecision" text-rendering="geometricPrecision"><defs><linearGradient id="eNEwzaovX5j2-fill" x1="200.000004" y1="373.350377" x2="200.000004" y2="34.059893" spreadMethod="pad" gradientUnits="userSpaceOnUse"><stop id="eNEwzaovX5j2-fill-0" offset="0%" stop-color="rgb(229,182,140)"/><stop id="eNEwzaovX5j2-fill-1" offset="100%" stop-color="rgb(225,192,151)"/></linearGradient><linearGradient id="eNEwzaovX5j3-fill" x1="313.096492" y1="373.350377" x2="313.096492" y2="124.677363" spreadMethod="pad" gradientUnits="userSpaceOnUse"><stop id="eNEwzaovX5j3-fill-0" offset="0%" stop-color="rgb(225,192,151)"/><stop id="eNEwzaovX5j3-fill-1" offset="100%" stop-color="rgb(227,181,141)"/></linearGradient><linearGradient id="eNEwzaovX5j4-fill" x1="86.902495" y1="373.350377" x2="86.902495" y2="124.677363" spreadMethod="pad" gradientUnits="userSpaceOnUse"><stop id="eNEwzaovX5j4-fill-0" offset="0%" stop-color="rgb(225,192,151)"/><stop id="eNEwzaovX5j4-fill-1" offset="100%" stop-color="rgb(227,181,141)"/></linearGradient><linearGradient id="eNEwzaovX5j8-fill" x1="156.300514" y1="35.177204" x2="156.300514" y2="0.027054" spreadMethod="pad" gradientUnits="userSpaceOnUse"><stop id="eNEwzaovX5j8-fill-0" offset="0%" stop-color="rgb(225,192,151)"/><stop id="eNEwzaovX5j8-fill-1" offset="100%" stop-color="rgb(229,182,140)"/></linearGradient><linearGradient id="eNEwzaovX5j10-fill" x1="1.405170" y1="0.006638" x2="1.405170" y2="23.995581" spreadMethod="pad" gradientUnits="userSpaceOnUse"><stop id="eNEwzaovX5j10-fill-0" offset="0%" stop-color="rgb(195,160,120)"/><stop id="eNEwzaovX5j10-fill-1" offset="100%" stop-color="rgb(225,192,151)"/></linearGradient><linearGradient id="eNEwzaovX5j11-fill" x1="1.402673" y1="0.006638" x2="1.402673" y2="23.995581" spreadMethod="pad" gradientUnits="userSpaceOnUse"><stop id="eNEwzaovX5j11-fill-0" offset="0%" stop-color="rgb(195,160,120)"/><stop id="eNEwzaovX5j11-fill-1" offset="100%" stop-color="rgb(225,192,151)"/></linearGradient><linearGradient id="eNEwzaovX5j12-fill" x1="1.399157" y1="0.006638" x2="1.399157" y2="23.995581" spreadMethod="pad" gradientUnits="userSpaceOnUse"><stop id="eNEwzaovX5j12-fill-0" offset="0%" stop-color="rgb(195,160,120)"/><stop id="eNEwzaovX5j12-fill-1" offset="100%" stop-color="rgb(225,192,151)"/></linearGradient><linearGradient id="eNEwzaovX5j13-fill" x1="1.397171" y1="0.006638" x2="1.397171" y2="23.995581" spreadMethod="pad" gradientUnits="userSpaceOnUse"><stop id="eNEwzaovX5j13-fill-0" offset="0%" stop-color="rgb(195,160,120)"/><stop id="eNEwzaovX5j13-fill-1" offset="100%" stop-color="rgb(225,192,151)"/></linearGradient><linearGradient id="eNEwzaovX5j14-fill" x1="1.394675" y1="0.006638" x2="1.394675" y2="23.995581" spreadMethod="pad" gradientUnits="userSpaceOnUse"><stop id="eNEwzaovX5j14-fill-0" offset="0%" stop-color="rgb(195,160,120)"/><stop id="eNEwzaovX5j14-fill-1" offset="100%" stop-color="rgb(225,192,151)"/></linearGradient><linearGradient id="eNEwzaovX5j15-fill" x1="1.391158" y1="0.006638" x2="1.391158" y2="23.995581" spreadMethod="pad" gradientUnits="userSpaceOnUse"><stop id="eNEwzaovX5j15-fill-0" offset="0%" stop-color="rgb(195,160,120)"/><stop id="eNEwzaovX5j15-fill-1" offset="100%" stop-color="rgb(225,192,151)"/></linearGradient><linearGradient id="eNEwzaovX5j16-fill" x1="1.388662" y1="0.006638" x2="1.388662" y2="23.995581" spreadMethod="pad" gradientUnits="userSpaceOnUse"><stop id="eNEwzaovX5j16-fill-0" offset="0%" stop-color="rgb(195,160,120)"/><stop id="eNEwzaovX5j16-fill-1" offset="100%" stop-color="rgb(225,192,151)"/></linearGradient><linearGradient id="eNEwzaovX5j17-fill" x1="1.394838" y1="0.006638" x2="1.394838" y2="23.995581" spreadMethod="pad" gradientUnits="userSpaceOnUse"><stop id="eNEwzaovX5j17-fill-0" offset="0%" stop-color="rgb(195,160,120)"/><stop id="eNEwzaovX5j17-fill-1" offset="100%" stop-color="rgb(225,192,151)"/></linearGradient><linearGradient id="eNEwzaovX5j19-fill" x1="87.571760" y1="328.243390" x2="87.571760" y2="247.185891" spreadMethod="pad" gradientUnits="userSpaceOnUse"><stop id="eNEwzaovX5j19-fill-0" offset="0%" stop-color="rgb(140,109,78)"/><stop id="eNEwzaovX5j19-fill-1" offset="100%" stop-color="rgb(99,82,65)"/></linearGradient><linearGradient id="eNEwzaovX5j20-fill" x1="313.766266" y1="328.242370" x2="313.766266" y2="247.184871" spreadMethod="pad" gradientUnits="userSpaceOnUse"><stop id="eNEwzaovX5j20-fill-0" offset="0%" stop-color="rgb(140,109,78)"/><stop id="eNEwzaovX5j20-fill-1" offset="100%" stop-color="rgb(99,82,65)"/></linearGradient><linearGradient id="eNEwzaovX5j21-fill" x1="0.003922" y1="7.657095" x2="0.003922" y2="-7.652836" spreadMethod="pad" gradientUnits="userSpaceOnUse"><stop id="eNEwzaovX5j21-fill-0" offset="0%" stop-color="rgb(140,109,78)"/><stop id="eNEwzaovX5j21-fill-1" offset="100%" stop-color="rgb(99,82,65)"/></linearGradient><linearGradient id="eNEwzaovX5j22-fill" x1="0.000405" y1="7.657095" x2="0.000405" y2="-7.652836" spreadMethod="pad" gradientUnits="userSpaceOnUse"><stop id="eNEwzaovX5j22-fill-0" offset="0%" stop-color="rgb(140,109,78)"/><stop id="eNEwzaovX5j22-fill-1" offset="100%" stop-color="rgb(99,82,65)"/></linearGradient><linearGradient id="eNEwzaovX5j23-fill" x1="-0.002091" y1="7.657095" x2="-0.002091" y2="-7.652836" spreadMethod="pad" gradientUnits="userSpaceOnUse"><stop id="eNEwzaovX5j23-fill-0" offset="0%" stop-color="rgb(140,109,78)"/><stop id="eNEwzaovX5j23-fill-1" offset="100%" stop-color="rgb(99,82,65)"/></linearGradient><linearGradient id="eNEwzaovX5j24-fill" x1="-0.004077" y1="7.657095" x2="-0.004077" y2="-7.652836" spreadMethod="pad" gradientUnits="userSpaceOnUse"><stop id="eNEwzaovX5j24-fill-0" offset="0%" stop-color="rgb(140,109,78)"/><stop id="eNEwzaovX5j24-fill-1" offset="100%" stop-color="rgb(99,82,65)"/></linearGradient><linearGradient id="eNEwzaovX5j25-fill" x1="-0.006573" y1="7.657095" x2="-0.006573" y2="-7.652836" spreadMethod="pad" gradientUnits="userSpaceOnUse"><stop id="eNEwzaovX5j25-fill-0" offset="0%" stop-color="rgb(140,109,78)"/><stop id="eNEwzaovX5j25-fill-1" offset="100%" stop-color="rgb(99,82,65)"/></linearGradient><linearGradient id="eNEwzaovX5j26-fill" x1="-0.010090" y1="7.657095" x2="-0.010090" y2="-7.652836" spreadMethod="pad" gradientUnits="userSpaceOnUse"><stop id="eNEwzaovX5j26-fill-0" offset="0%" stop-color="rgb(140,109,78)"/><stop id="eNEwzaovX5j26-fill-1" offset="100%" stop-color="rgb(99,82,65)"/></linearGradient><linearGradient id="eNEwzaovX5j27-fill" x1="-0.012586" y1="7.657095" x2="-0.012586" y2="-7.652836" spreadMethod="pad" gradientUnits="userSpaceOnUse"><stop id="eNEwzaovX5j27-fill-0" offset="0%" stop-color="rgb(140,109,78)"/><stop id="eNEwzaovX5j27-fill-1" offset="100%" stop-color="rgb(99,82,65)"/></linearGradient><linearGradient id="eNEwzaovX5j29-fill" x1="55.805680" y1="34.059893" x2="55.805680" y2="26.649015" spreadMethod="pad" gradientUnits="userSpaceOnUse"><stop id="eNEwzaovX5j29-fill-0" offset="0%" stop-color="rgb(196,153,108)"/><stop id="eNEwzaovX5j29-fill-1" offset="100%" stop-color="rgb(225,192,151)"/></linearGradient><linearGradient id="eNEwzaovX5j30-fill" x1="97.002673" y1="34.059893" x2="97.002673" y2="26.649015" spreadMethod="pad" gradientUnits="userSpaceOnUse"><stop id="eNEwzaovX5j30-fill-0" offset="0%" stop-color="rgb(196,153,108)"/><stop id="eNEwzaovX5j30-fill-1" offset="100%" stop-color="rgb(225,192,151)"/></linearGradient><linearGradient id="eNEwzaovX5j31-fill" x1="138.199157" y1="34.059893" x2="138.199157" y2="26.649015" spreadMethod="pad" gradientUnits="userSpaceOnUse"><stop id="eNEwzaovX5j31-fill-0" offset="0%" stop-color="rgb(196,153,108)"/><stop id="eNEwzaovX5j31-fill-1" offset="100%" stop-color="rgb(225,192,151)"/></linearGradient><linearGradient id="eNEwzaovX5j32-fill" x1="179.396661" y1="34.059893" x2="179.396661" y2="26.649015" spreadMethod="pad" gradientUnits="userSpaceOnUse"><stop id="eNEwzaovX5j32-fill-0" offset="0%" stop-color="rgb(196,153,108)"/><stop id="eNEwzaovX5j32-fill-1" offset="100%" stop-color="rgb(225,192,151)"/></linearGradient><linearGradient id="eNEwzaovX5j33-fill" x1="220.594165" y1="34.059893" x2="220.594165" y2="26.649015" spreadMethod="pad" gradientUnits="userSpaceOnUse"><stop id="eNEwzaovX5j33-fill-0" offset="0%" stop-color="rgb(196,153,108)"/><stop id="eNEwzaovX5j33-fill-1" offset="100%" stop-color="rgb(225,192,151)"/></linearGradient><linearGradient id="eNEwzaovX5j34-fill" x1="261.791158" y1="34.059893" x2="261.791158" y2="26.649015" spreadMethod="pad" gradientUnits="userSpaceOnUse"><stop id="eNEwzaovX5j34-fill-0" offset="0%" stop-color="rgb(196,153,108)"/><stop id="eNEwzaovX5j34-fill-1" offset="100%" stop-color="rgb(225,192,151)"/></linearGradient><linearGradient id="eNEwzaovX5j35-fill" x1="302.988152" y1="34.059893" x2="302.988152" y2="26.649015" spreadMethod="pad" gradientUnits="userSpaceOnUse"><stop id="eNEwzaovX5j35-fill-0" offset="0%" stop-color="rgb(196,153,108)"/><stop id="eNEwzaovX5j35-fill-1" offset="100%" stop-color="rgb(225,192,151)"/></linearGradient><linearGradient id="eNEwzaovX5j36-fill" x1="344.194838" y1="34.059893" x2="344.194838" y2="26.649015" spreadMethod="pad" gradientUnits="userSpaceOnUse"><stop id="eNEwzaovX5j36-fill-0" offset="0%" stop-color="rgb(196,153,108)"/><stop id="eNEwzaovX5j36-fill-1" offset="100%" stop-color="rgb(225,192,151)"/></linearGradient><linearGradient id="eNEwzaovX5j39-fill" x1="31.302495" y1="0.006330" x2="31.302495" y2="11.357808" spreadMethod="pad" gradientUnits="userSpaceOnUse"><stop id="eNEwzaovX5j39-fill-0" offset="0%" stop-color="rgb(195,160,120)"/><stop id="eNEwzaovX5j39-fill-1" offset="100%" stop-color="rgb(225,191,150)"/></linearGradient><linearGradient id="eNEwzaovX5j40-fill" x1="31.296492" y1="0.006330" x2="31.296492" y2="11.357808" spreadMethod="pad" gradientUnits="userSpaceOnUse"><stop id="eNEwzaovX5j40-fill-0" offset="0%" stop-color="rgb(195,160,120)"/><stop id="eNEwzaovX5j40-fill-1" offset="100%" stop-color="rgb(225,191,150)"/></linearGradient><linearGradient id="eNEwzaovX5j43-fill" x1="199.998984" y1="139.088481" x2="199.998984" y2="373.350377" spreadMethod="pad" gradientUnits="userSpaceOnUse"><stop id="eNEwzaovX5j43-fill-0" offset="0%" stop-color="rgb(195,160,120)"/><stop id="eNEwzaovX5j43-fill-1" offset="100%" stop-color="rgb(140,109,78)"/></linearGradient></defs><path id="eNEwzaovX5j2" d="M358.600000,34.100000L41.400000,34.100000L30.300000,56.100000L30.300000,62.800000L37,62.800000L37,97.900000L30.300000,97.900000L30.300000,373.400000L143.400000,373.400000L143.400000,211.200000C143.400000,180.100000,168.800000,154.700000,199.900000,154.700000C231,154.700000,256.400000,180.100000,256.400000,211.200000L256.400000,373.400000L369.500000,373.400000L369.500000,97.900000L363,97.900000L363,62.700000L369.700000,62.700000L369.700000,56L358.600000,34.100000L358.600000,34.100000Z" clip-rule="evenodd" fill="url(#eNEwzaovX5j2-fill)" fill-rule="evenodd" stroke="none" stroke-width="1"/><path id="eNEwzaovX5j3" d="M266.600000,373.400000L359.500000,373.400000L359.500000,124.700000L266.600000,124.700000L266.600000,373.400000ZM276.100000,191.800000L350.100000,191.800000L350.100000,140.800000L276.100000,140.800000L276.100000,191.800000ZM279.400000,144L346.900000,144L346.900000,188.400000L279.400000,188.400000L279.400000,144Z" clip-rule="evenodd" fill="url(#eNEwzaovX5j3-fill)" fill-rule="evenodd" stroke="none" stroke-width="1"/><path id="eNEwzaovX5j4" d="M40.400000,373.400000L133.300000,373.400000L133.300000,124.700000L40.400000,124.700000L40.400000,373.400000L40.400000,373.400000ZM49.900000,191.800000L123.900000,191.800000L123.900000,140.800000L49.900000,140.800000L49.900000,191.800000L49.900000,191.800000ZM53.200000,144L120.700000,144L120.700000,188.400000L53.200000,188.400000L53.200000,144L53.200000,144Z" clip-rule="evenodd" fill="url(#eNEwzaovX5j4-fill)" fill-rule="evenodd" stroke="none" stroke-width="1"/><g id="eNEwzaovX5j5"><rect id="eNEwzaovX5j6" width="350" height="4.100000" rx="0" ry="0" transform="matrix(1 0 0 1 25 56.10000000000000)" clip-rule="evenodd" fill="rgb(196,153,108)" fill-rule="evenodd" stroke="none" stroke-width="1"/><rect id="eNEwzaovX5j7" width="350" height="12.400000" rx="0" ry="0" transform="matrix(1 0 0 1 25 100.40000000000001)" clip-rule="evenodd" fill="rgb(196,153,108)" fill-rule="evenodd" stroke="none" stroke-width="1"/><rect id="eNEwzaovX5j8" width="312.500000" height="35.100000" rx="0" ry="0" transform="matrix(1 0 0 1 43.69999999999999 62.70000000000000)" clip-rule="evenodd" fill="url(#eNEwzaovX5j8-fill)" fill-rule="evenodd" stroke="none" stroke-width="1"/><g id="eNEwzaovX5j9"><rect id="eNEwzaovX5j10" width="2.800000" height="24" rx="0" ry="0" transform="matrix(1 0 0 1 54.40000000000000 68.30000000000000)" clip-rule="evenodd" fill="url(#eNEwzaovX5j10-fill)" fill-rule="evenodd" stroke="none" stroke-width="1"/><rect id="eNEwzaovX5j11" width="2.800000" height="24" rx="0" ry="0" transform="matrix(1 0 0 1 95.59999999999999 68.30000000000000)" clip-rule="evenodd" fill="url(#eNEwzaovX5j11-fill)" fill-rule="evenodd" stroke="none" stroke-width="1"/><rect id="eNEwzaovX5j12" width="2.800000" height="24" rx="0" ry="0" transform="matrix(1 0 0 1 136.80000000000001 68.30000000000000)" clip-rule="evenodd" fill="url(#eNEwzaovX5j12-fill)" fill-rule="evenodd" stroke="none" stroke-width="1"/><rect id="eNEwzaovX5j13" width="2.800000" height="24" rx="0" ry="0" transform="matrix(1 0 0 1 178 68.30000000000000)" clip-rule="evenodd" fill="url(#eNEwzaovX5j13-fill)" fill-rule="evenodd" stroke="none" stroke-width="1"/><rect id="eNEwzaovX5j14" width="2.800000" height="24" rx="0" ry="0" transform="matrix(1 0 0 1 219.19999999999999 68.30000000000000)" clip-rule="evenodd" fill="url(#eNEwzaovX5j14-fill)" fill-rule="evenodd" stroke="none" stroke-width="1"/><rect id="eNEwzaovX5j15" width="2.800000" height="24" rx="0" ry="0" transform="matrix(1 0 0 1 260.39999999999998 68.30000000000000)" clip-rule="evenodd" fill="url(#eNEwzaovX5j15-fill)" fill-rule="evenodd" stroke="none" stroke-width="1"/><rect id="eNEwzaovX5j16" width="2.800000" height="24" rx="0" ry="0" transform="matrix(1 0 0 1 301.60000000000002 68.30000000000000)" clip-rule="evenodd" fill="url(#eNEwzaovX5j16-fill)" fill-rule="evenodd" stroke="none" stroke-width="1"/><rect id="eNEwzaovX5j17" width="2.800000" height="24" rx="0" ry="0" transform="matrix(1 0 0 1 342.80000000000001 68.30000000000000)" clip-rule="evenodd" fill="url(#eNEwzaovX5j17-fill)" fill-rule="evenodd" stroke="none" stroke-width="1"/></g></g><g id="eNEwzaovX5j18"><path id="eNEwzaovX5j19" d="M59.900000,328.200000L115.200000,328.200000L115.200000,274.800000C115.200000,259.600000,102.800000,247.200000,87.600000,247.200000C72.400000,247.200000,60,259.600000,60,274.800000L59.900000,328.200000L59.900000,328.200000Z" clip-rule="evenodd" fill="url(#eNEwzaovX5j19-fill)" fill-rule="evenodd" stroke="none" stroke-width="1"/><path id="eNEwzaovX5j20" d="M286.100000,328.200000L341.400000,328.200000L341.400000,274.800000C341.400000,259.600000,329,247.200000,313.800000,247.200000C298.600000,247.200000,286.200000,259.600000,286.200000,274.800000L286.100000,328.200000L286.100000,328.200000Z" clip-rule="evenodd" fill="url(#eNEwzaovX5j20-fill)" fill-rule="evenodd" stroke="none" stroke-width="1"/><circle id="eNEwzaovX5j21" r="7.700000" transform="matrix(1 0 0 1 76.40000000000001 80.30000000000000)" clip-rule="evenodd" fill="url(#eNEwzaovX5j21-fill)" fill-rule="evenodd" stroke="none" stroke-width="1"/><circle id="eNEwzaovX5j22" r="7.700000" transform="matrix(1 0 0 1 117.59999999999999 80.30000000000000)" clip-rule="evenodd" fill="url(#eNEwzaovX5j22-fill)" fill-rule="evenodd" stroke="none" stroke-width="1"/><circle id="eNEwzaovX5j23" r="7.700000" transform="matrix(1 0 0 1 158.80000000000001 80.30000000000000)" clip-rule="evenodd" fill="url(#eNEwzaovX5j23-fill)" fill-rule="evenodd" stroke="none" stroke-width="1"/><circle id="eNEwzaovX5j24" r="7.700000" transform="matrix(1 0 0 1 200 80.30000000000000)" clip-rule="evenodd" fill="url(#eNEwzaovX5j24-fill)" fill-rule="evenodd" stroke="none" stroke-width="1"/><circle id="eNEwzaovX5j25" r="7.700000" transform="matrix(1 0 0 1 241.19999999999999 80.30000000000000)" clip-rule="evenodd" fill="url(#eNEwzaovX5j25-fill)" fill-rule="evenodd" stroke="none" stroke-width="1"/><circle id="eNEwzaovX5j26" r="7.700000" transform="matrix(1 0 0 1 282.39999999999998 80.30000000000000)" clip-rule="evenodd" fill="url(#eNEwzaovX5j26-fill)" fill-rule="evenodd" stroke="none" stroke-width="1"/><circle id="eNEwzaovX5j27" r="7.700000" transform="matrix(1 0 0 1 323.60000000000002 80.30000000000000)" clip-rule="evenodd" fill="url(#eNEwzaovX5j27-fill)" fill-rule="evenodd" stroke="none" stroke-width="1"/></g><g id="eNEwzaovX5j28"><path id="eNEwzaovX5j29" d="M55.800000,26.600000C51.700000,26.600000,48.400000,29.900000,48.400000,34L63.200000,34C63.200000,30,59.900000,26.600000,55.800000,26.600000Z" clip-rule="evenodd" fill="url(#eNEwzaovX5j29-fill)" fill-rule="evenodd" stroke="none" stroke-width="1"/><path id="eNEwzaovX5j30" d="M97,26.600000C92.900000,26.600000,89.600000,29.900000,89.600000,34L104.400000,34C104.400000,30,101.100000,26.600000,97,26.600000Z" clip-rule="evenodd" fill="url(#eNEwzaovX5j30-fill)" fill-rule="evenodd" stroke="none" stroke-width="1"/><path id="eNEwzaovX5j31" d="M138.200000,26.600000C134.100000,26.600000,130.800000,29.900000,130.800000,34L145.600000,34C145.600000,30,142.300000,26.600000,138.200000,26.600000Z" clip-rule="evenodd" fill="url(#eNEwzaovX5j31-fill)" fill-rule="evenodd" stroke="none" stroke-width="1"/><path id="eNEwzaovX5j32" d="M179.400000,26.600000C175.300000,26.600000,172,29.900000,172,34L186.800000,34C186.800000,30,183.500000,26.600000,179.400000,26.600000L179.400000,26.600000Z" clip-rule="evenodd" fill="url(#eNEwzaovX5j32-fill)" fill-rule="evenodd" stroke="none" stroke-width="1"/><path id="eNEwzaovX5j33" d="M220.600000,26.600000C216.500000,26.600000,213.200000,29.900000,213.200000,34L228,34C228,30,224.700000,26.600000,220.600000,26.600000Z" clip-rule="evenodd" fill="url(#eNEwzaovX5j33-fill)" fill-rule="evenodd" stroke="none" stroke-width="1"/><path id="eNEwzaovX5j34" d="M261.800000,26.600000C257.700000,26.600000,254.400000,29.900000,254.400000,34L269.200000,34C269.200000,30,265.900000,26.600000,261.800000,26.600000L261.800000,26.600000Z" clip-rule="evenodd" fill="url(#eNEwzaovX5j34-fill)" fill-rule="evenodd" stroke="none" stroke-width="1"/><path id="eNEwzaovX5j35" d="M303,26.600000C298.900000,26.600000,295.600000,29.900000,295.600000,34L310.400000,34C310.400000,30,307.100000,26.600000,303,26.600000L303,26.600000Z" clip-rule="evenodd" fill="url(#eNEwzaovX5j35-fill)" fill-rule="evenodd" stroke="none" stroke-width="1"/><path id="eNEwzaovX5j36" d="M344.200000,26.600000C340.100000,26.600000,336.800000,29.900000,336.800000,34L351.600000,34C351.600000,30,348.300000,26.600000,344.200000,26.600000L344.200000,26.600000Z" clip-rule="evenodd" fill="url(#eNEwzaovX5j36-fill)" fill-rule="evenodd" stroke="none" stroke-width="1"/></g><g id="eNEwzaovX5j37"><g id="eNEwzaovX5j38"><rect id="eNEwzaovX5j39" width="62.600000" height="11.400000" rx="0" ry="0" transform="matrix(1 0 0 1 55.60000000000000 346.60000000000002)" clip-rule="evenodd" fill="url(#eNEwzaovX5j39-fill)" fill-rule="evenodd" stroke="none" stroke-width="1"/><rect id="eNEwzaovX5j40" width="62.600000" height="11.400000" rx="0" ry="0" transform="matrix(1 0 0 1 281.80000000000001 346.60000000000002)" clip-rule="evenodd" fill="url(#eNEwzaovX5j40-fill)" fill-rule="evenodd" stroke="none" stroke-width="1"/></g><rect id="eNEwzaovX5j41" width="72.500000" height="2.300000" rx="0" ry="0" transform="matrix(1 0 0 1 276.89999999999998 344.30000000000001)" clip-rule="evenodd" fill="rgb(140,109,78)" fill-rule="evenodd" stroke="none" stroke-width="1"/><rect id="eNEwzaovX5j42" width="72.500000" height="2.300000" rx="0" ry="0" transform="matrix(1 0 0 1 50.70000000000000 344.30000000000001)" clip-rule="evenodd" fill="rgb(140,109,78)" fill-rule="evenodd" stroke="none" stroke-width="1"/></g><path id="eNEwzaovX5j43" d="M136.900000,373.400000L143.500000,373.400000C143.500000,319.300000,143.500000,265.300000,143.500000,211.200000C143.500000,180.100000,168.900000,154.700000,200,154.700000C231.100000,154.700000,256.500000,180.100000,256.500000,211.200000C256.500000,265.300000,256.500000,319.300000,256.500000,373.400000L263.100000,373.400000L263.100000,340.700000L375,340.700000L375,328.300000L263.100000,328.300000L263.100000,223.600000L375,223.600000L375,211.200000L263.100000,211.200000C263.100000,179.500000,239.500000,152.700000,208.200000,148.600000L210.700000,139.100000L189.400000,139.100000L191.900000,148.600000C160.600000,152.700000,137,179.500000,137,211.200000L25,211.200000L25,223.600000L136.900000,223.600000L136.900000,328.200000L25,328.200000L25,340.600000L136.900000,340.600000L136.900000,373.400000L136.900000,373.400000Z" clip-rule="evenodd" fill="url(#eNEwzaovX5j43-fill)" fill-rule="evenodd" stroke="none" stroke-width="1"/></svg>