<svg id="eRYgwb2CmJ91" xmlns="http://www.w3.org/2000/svg" xmlns:xlink="http://www.w3.org/1999/xlink" viewBox="0 0 400 400" shape-rendering="geometricPrecision" text-rendering="geometricPrecision"><defs><linearGradient id="eRYgwb2CmJ912-fill" x1="159.055180" y1="244.729818" x2="107.729551" y2="303.632063" spreadMethod="pad" gradientUnits="userSpaceOnUse"><stop id="eRYgwb2CmJ912-fill-0" offset="0%" stop-color="rgb(124,214,187)"/><stop id="eRYgwb2CmJ912-fill-1" offset="100%" stop-color="rgb(104,173,152)"/></linearGradient><linearGradient id="eRYgwb2CmJ913-fill" x1="63.547806" y1="279.795836" x2="58.648564" y2="326.247530" spreadMethod="pad" gradientUnits="userSpaceOnUse"><stop id="eRYgwb2CmJ913-fill-0" offset="0%" stop-color="rgb(215,223,224)"/><stop id="eRYgwb2CmJ913-fill-1" offset="100%" stop-color="rgb(159,168,171)"/></linearGradient><linearGradient id="eRYgwb2CmJ917-fill" x1="60.008382" y1="122.219296" x2="64.330647" y2="74.279610" spreadMethod="pad" gradientUnits="userSpaceOnUse"><stop id="eRYgwb2CmJ917-fill-0" offset="0%" stop-color="rgb(124,214,187)"/><stop id="eRYgwb2CmJ917-fill-1" offset="100%" stop-color="rgb(104,173,152)"/></linearGradient><linearGradient id="eRYgwb2CmJ918-fill" x1="39.492808" y1="122.247006" x2="42.347325" y2="93.509513" spreadMethod="pad" gradientUnits="userSpaceOnUse"><stop id="eRYgwb2CmJ918-fill-0" offset="0%" stop-color="rgb(124,214,187)"/><stop id="eRYgwb2CmJ918-fill-1" offset="100%" stop-color="rgb(104,173,152)"/></linearGradient><linearGradient id="eRYgwb2CmJ919-fill" x1="80.518895" y1="122.247006" x2="83.373412" y2="93.509513" spreadMethod="pad" gradientUnits="userSpaceOnUse"><stop id="eRYgwb2CmJ919-fill-0" offset="0%" stop-color="rgb(124,214,187)"/><stop id="eRYgwb2CmJ919-fill-1" offset="100%" stop-color="rgb(104,173,152)"/></linearGradient><linearGradient id="eRYgwb2CmJ953-fill" x1="286.508470" y1="247.395172" x2="235.177653" y2="306.297544" spreadMethod="pad" gradientUnits="userSpaceOnUse"><stop id="eRYgwb2CmJ953-fill-0" offset="0%" stop-color="rgb(124,214,187)"/><stop id="eRYgwb2CmJ953-fill-1" offset="100%" stop-color="rgb(104,173,152)"/></linearGradient><linearGradient id="eRYgwb2CmJ957-fill" x1="340.006619" y1="122.218917" x2="344.323823" y2="74.279230" spreadMethod="pad" gradientUnits="userSpaceOnUse"><stop id="eRYgwb2CmJ957-fill-0" offset="0%" stop-color="rgb(124,214,187)"/><stop id="eRYgwb2CmJ957-fill-1" offset="100%" stop-color="rgb(104,173,152)"/></linearGradient><linearGradient id="eRYgwb2CmJ958-fill" x1="360.517005" y1="122.247513" x2="363.376583" y2="93.510019" spreadMethod="pad" gradientUnits="userSpaceOnUse"><stop id="eRYgwb2CmJ958-fill-0" offset="0%" stop-color="rgb(124,214,187)"/><stop id="eRYgwb2CmJ958-fill-1" offset="100%" stop-color="rgb(104,173,152)"/></linearGradient><linearGradient id="eRYgwb2CmJ959-fill" x1="319.493449" y1="122.247766" x2="322.353027" y2="93.510272" spreadMethod="pad" gradientUnits="userSpaceOnUse"><stop id="eRYgwb2CmJ959-fill-0" offset="0%" stop-color="rgb(124,214,187)"/><stop id="eRYgwb2CmJ959-fill-1" offset="100%" stop-color="rgb(104,173,152)"/></linearGradient><linearGradient id="eRYgwb2CmJ961-fill" x1="343.543639" y1="279.795709" x2="338.649458" y2="326.247403" spreadMethod="pad" gradientUnits="userSpaceOnUse"><stop id="eRYgwb2CmJ961-fill-0" offset="0%" stop-color="rgb(215,223,224)"/><stop id="eRYgwb2CmJ961-fill-1" offset="100%" stop-color="rgb(159,168,171)"/></linearGradient></defs><g id="eRYgwb2CmJ92"><rect id="eRYgwb2CmJ93" width="224.900000" height="12.100000" rx="0" ry="0" transform="matrix(1 0 0 1 87.59999999999999 162.30000000000001)" clip-rule="evenodd" fill="rgb(104,173,152)" fill-rule="evenodd" stroke="none" stroke-width="1"/><rect id="eRYgwb2CmJ94" width="224.900000" height="4.200000" rx="0" ry="0" transform="matrix(1 0 0 1 87.59999999999999 155.30000000000001)" clip-rule="evenodd" fill="rgb(124,214,187)" fill-rule="evenodd" stroke="none" stroke-width="1"/></g><g id="eRYgwb2CmJ95"><path id="eRYgwb2CmJ96" d="M212.500000,144.800000C204.200000,138.200000,195.800000,138.200000,187.500000,144.800000L187.500000,171.600000L212.500000,171.600000L212.500000,144.800000Z" clip-rule="evenodd" fill="rgb(215,223,224)" fill-rule="evenodd" stroke="none" stroke-width="1"/><path id="eRYgwb2CmJ97" d="M182.600000,140L182.600000,140C181.700000,140,181,140.700000,181,141.600000L181,171.600000L184.200000,171.600000L184.200000,141.600000C184.200000,140.700000,183.500000,140,182.600000,140Z" clip-rule="evenodd" fill="rgb(77,84,87)" fill-rule="evenodd" stroke="none" stroke-width="1"/><path id="eRYgwb2CmJ98" d="M217.400000,140L217.400000,140C216.500000,140,215.800000,140.700000,215.800000,141.600000L215.800000,171.600000L219,171.600000L219,141.600000C219,140.700000,218.300000,140,217.400000,140Z" clip-rule="evenodd" fill="rgb(77,84,87)" fill-rule="evenodd" stroke="none" stroke-width="1"/></g><g id="eRYgwb2CmJ99"><g id="eRYgwb2CmJ910"><polygon id="eRYgwb2CmJ911" points="84.600000,283.400000 82.800000,276.600000 190,247.900000 191.800000,254.600000" fill="rgb(99,107,110)" stroke="none" stroke-width="1"/><path id="eRYgwb2CmJ912" d="M88.800000,282.300000L99.700000,293.200000L103.700000,278.300000L106,277.700000L101.800000,293.300000L117.400000,286.200000L108.200000,277L110.500000,276.400000L118.600000,284.500000L121.800000,273.400000L124.200000,272.800000L120.800000,284.700000L133.100000,279.100000L126.200000,272.300000L128.500000,271.700000L134.300000,277.500000L136.400000,269.600000L138.700000,269L136.400000,277.700000L148.400000,272.200000L141.500000,268.200000L144.400000,267.400000L150.100000,270.600000L151.500000,265.500000L153.800000,264.900000L152.300000,270.400000L163.700000,265.200000L158.300000,263.700000L162.300000,262.600000L166.200000,263.700000L167.600000,261.200000L170.400000,260.500000L169.200000,262.800000L179.500000,258.100000L190.700000,255.100000L190.700000,255.100000C156.800000,270.500000,123,286.100000,89.100000,301.400000L84.300000,283.600000L87.700000,282.700000L87.700000,282.700000L88.800000,282.300000L88.800000,282.300000ZM98.400000,294.800000L86.700000,283.200000L90.700000,298.300000L98.400000,294.800000L98.400000,294.800000Z" fill="url(#eRYgwb2CmJ912-fill)" stroke="none" stroke-width="1"/></g><polygon id="eRYgwb2CmJ913" points="27.200000,279.700000 92.800000,279.700000 95,326.100000 25,326.100000" clip-rule="evenodd" fill="url(#eRYgwb2CmJ913-fill)" fill-rule="evenodd" stroke="none" stroke-width="1"/><g id="eRYgwb2CmJ914"><rect id="eRYgwb2CmJ915" width="41" height="37.700000" rx="0" ry="0" transform="matrix(1 0 0 1 39.50000000000000 111)" clip-rule="evenodd" fill="rgb(104,173,152)" fill-rule="evenodd" stroke="none" stroke-width="1"/><g id="eRYgwb2CmJ916"><polygon id="eRYgwb2CmJ917" points="70.700000,122.200000 49.300000,122.200000 60,73.900000" clip-rule="evenodd" fill="url(#eRYgwb2CmJ917-fill)" fill-rule="evenodd" stroke="none" stroke-width="1"/><polygon id="eRYgwb2CmJ918" points="46.500000,122.200000 32.400000,122.200000 39.500000,93.300000" clip-rule="evenodd" fill="url(#eRYgwb2CmJ918-fill)" fill-rule="evenodd" stroke="none" stroke-width="1"/><polygon id="eRYgwb2CmJ919" points="87.600000,122.200000 73.500000,122.200000 80.500000,93.300000" clip-rule="evenodd" fill="url(#eRYgwb2CmJ919-fill)" fill-rule="evenodd" stroke="none" stroke-width="1"/></g><path id="eRYgwb2CmJ920" d="M73.500000,123.400000C72.900000,123.400000,72.400000,122.900000,72.400000,122.300000C72.400000,121.700000,72.900000,121.200000,73.500000,121.200000L87.600000,121.200000C88.200000,121.200000,88.700000,121.700000,88.700000,122.300000C88.700000,122.900000,88.200000,123.400000,87.600000,123.400000L73.500000,123.400000ZM32.400000,123.400000C31.800000,123.400000,31.300000,122.900000,31.300000,122.300000C31.300000,121.700000,31.800000,121.200000,32.400000,121.200000L46.500000,121.200000C47.100000,121.200000,47.600000,121.700000,47.600000,122.300000C47.600000,122.900000,47.100000,123.400000,46.500000,123.400000C46.500000,123.400000,32.400000,123.400000,32.400000,123.400000ZM49.300000,123.400000C48.700000,123.400000,48.200000,122.900000,48.200000,122.300000C48.200000,121.700000,48.700000,121.200000,49.300000,121.200000L51.100000,121.200000C51.300000,119.200000,52.300000,117.300000,53.700000,116C55.300000,114.400000,57.600000,113.400000,60.100000,113.400000C62.600000,113.400000,64.800000,114.400000,66.500000,116C67.900000,117.400000,68.800000,119.200000,69.100000,121.200000L70.900000,121.200000C71.500000,121.200000,72,121.700000,72,122.300000C72,122.900000,71.500000,123.400000,70.900000,123.400000L68.100000,123.400000C67.500000,123.400000,67,122.900000,67,122.300000C67,120.400000,66.200000,118.700000,65,117.500000C63.800000,116.300000,62.100000,115.500000,60.200000,115.500000C58.300000,115.500000,56.600000,116.300000,55.400000,117.500000C54.200000,118.700000,53.400000,120.400000,53.400000,122.300000C53.400000,122.900000,52.900000,123.400000,52.300000,123.400000L49.300000,123.400000L49.300000,123.400000Z" fill="rgb(188,195,196)" stroke="none" stroke-width="1"/></g><g id="eRYgwb2CmJ921"><rect id="eRYgwb2CmJ922" width="49.400000" height="8.600000" rx="0" ry="0" transform="matrix(1 0 0 1 35.30000000000000 271.10000000000002)" clip-rule="evenodd" fill="rgb(188,195,196)" fill-rule="evenodd" stroke="none" stroke-width="1"/><path id="eRYgwb2CmJ923" d="M84.700000,186L84.700000,271.100000L35.300000,271.100000L35.300000,186L33.900000,186L32.500000,177.400000C32.500000,159,32.500000,140.700000,32.500000,122.300000L46.600000,122.300000L46.600000,146.400000L49.400000,146.400000L49.400000,122.300000L52.200000,122.300000C52.200000,117.900000,55.700000,114.400000,60.100000,114.400000C64.400000,114.400000,68,117.900000,68,122.300000L70.800000,122.300000L70.800000,146.400000L73.600000,146.400000L73.600000,122.300000L87.700000,122.300000C87.700000,140.700000,87.700000,159,87.700000,177.400000L86.300000,186L84.700000,186Z" clip-rule="evenodd" fill="rgb(228,234,235)" fill-rule="evenodd" stroke="none" stroke-width="1"/><rect id="eRYgwb2CmJ924" width="49.400000" height="8.600000" rx="0" ry="0" transform="matrix(1 0 0 1 35.30000000000000 239.80000000000001)" clip-rule="evenodd" fill="rgb(215,223,224)" fill-rule="evenodd" stroke="none" stroke-width="1"/><rect id="eRYgwb2CmJ925" width="49.400000" height="8.600000" rx="0" ry="0" transform="matrix(1 0 0 1 35.30000000000000 208.59999999999999)" clip-rule="evenodd" fill="rgb(215,223,224)" fill-rule="evenodd" stroke="none" stroke-width="1"/><polygon id="eRYgwb2CmJ926" points="33.800000,186 86.200000,186 87.600000,177.300000 32.400000,177.300000" clip-rule="evenodd" fill="rgb(215,223,224)" fill-rule="evenodd" stroke="none" stroke-width="1"/></g><g id="eRYgwb2CmJ927"><g id="eRYgwb2CmJ928"><rect id="eRYgwb2CmJ929" width="4.600000" height="13.400000" rx="0" ry="0" transform="matrix(1 0 0 1 64.80000000000000 190.59999999999999)" clip-rule="evenodd" fill="rgb(77,84,87)" fill-rule="evenodd" stroke="none" stroke-width="1"/><rect id="eRYgwb2CmJ930" width="4.600000" height="13.400000" rx="0" ry="0" transform="matrix(1 0 0 1 57.70000000000000 190.59999999999999)" clip-rule="evenodd" fill="rgb(77,84,87)" fill-rule="evenodd" stroke="none" stroke-width="1"/><rect id="eRYgwb2CmJ931" width="4.600000" height="13.400000" rx="0" ry="0" transform="matrix(1 0 0 1 50.60000000000000 190.59999999999999)" clip-rule="evenodd" fill="rgb(77,84,87)" fill-rule="evenodd" stroke="none" stroke-width="1"/></g><g id="eRYgwb2CmJ932"><rect id="eRYgwb2CmJ933" width="4.600000" height="13.400000" rx="0" ry="0" transform="matrix(1 0 0 1 64.80000000000000 221.80000000000001)" clip-rule="evenodd" fill="rgb(77,84,87)" fill-rule="evenodd" stroke="none" stroke-width="1"/><rect id="eRYgwb2CmJ934" width="4.600000" height="13.400000" rx="0" ry="0" transform="matrix(1 0 0 1 57.70000000000000 221.80000000000001)" clip-rule="evenodd" fill="rgb(77,84,87)" fill-rule="evenodd" stroke="none" stroke-width="1"/><rect id="eRYgwb2CmJ935" width="4.600000" height="13.400000" rx="0" ry="0" transform="matrix(1 0 0 1 50.60000000000000 221.80000000000001)" clip-rule="evenodd" fill="rgb(77,84,87)" fill-rule="evenodd" stroke="none" stroke-width="1"/></g><g id="eRYgwb2CmJ936"><rect id="eRYgwb2CmJ937" width="4.600000" height="13.400000" rx="0" ry="0" transform="matrix(1 0 0 1 64.80000000000000 253.09999999999999)" clip-rule="evenodd" fill="rgb(77,84,87)" fill-rule="evenodd" stroke="none" stroke-width="1"/><rect id="eRYgwb2CmJ938" width="4.600000" height="13.400000" rx="0" ry="0" transform="matrix(1 0 0 1 57.70000000000000 253.09999999999999)" clip-rule="evenodd" fill="rgb(77,84,87)" fill-rule="evenodd" stroke="none" stroke-width="1"/><rect id="eRYgwb2CmJ939" width="4.600000" height="13.400000" rx="0" ry="0" transform="matrix(1 0 0 1 50.60000000000000 253.09999999999999)" clip-rule="evenodd" fill="rgb(77,84,87)" fill-rule="evenodd" stroke="none" stroke-width="1"/></g><g id="eRYgwb2CmJ940"><g id="eRYgwb2CmJ941"><rect id="eRYgwb2CmJ942" width="3.500000" height="10.100000" rx="0" ry="0" transform="matrix(1 0 0 1 63.60000000000000 154.69999999999999)" clip-rule="evenodd" fill="rgb(77,84,87)" fill-rule="evenodd" stroke="none" stroke-width="1"/><rect id="eRYgwb2CmJ943" width="3.500000" height="10.100000" rx="0" ry="0" transform="matrix(1 0 0 1 58.30000000000000 154.69999999999999)" clip-rule="evenodd" fill="rgb(77,84,87)" fill-rule="evenodd" stroke="none" stroke-width="1"/><rect id="eRYgwb2CmJ944" width="3.500000" height="10.100000" rx="0" ry="0" transform="matrix(1 0 0 1 52.90000000000000 154.69999999999999)" clip-rule="evenodd" fill="rgb(77,84,87)" fill-rule="evenodd" stroke="none" stroke-width="1"/></g><rect id="eRYgwb2CmJ945" width="14.200000" height="5" rx="0" ry="0" transform="matrix(1 0 0 1 52.90000000000000 166.40000000000001)" clip-rule="evenodd" fill="rgb(77,84,87)" fill-rule="evenodd" stroke="none" stroke-width="1"/></g><g id="eRYgwb2CmJ946"><rect id="eRYgwb2CmJ947" width="3.500000" height="10.100000" rx="0" ry="0" transform="matrix(1 0 0 1 63.60000000000000 129.90000000000001)" clip-rule="evenodd" fill="rgb(77,84,87)" fill-rule="evenodd" stroke="none" stroke-width="1"/><rect id="eRYgwb2CmJ948" width="3.500000" height="10.100000" rx="0" ry="0" transform="matrix(1 0 0 1 58.30000000000000 129.90000000000001)" clip-rule="evenodd" fill="rgb(77,84,87)" fill-rule="evenodd" stroke="none" stroke-width="1"/><rect id="eRYgwb2CmJ949" width="3.500000" height="10.100000" rx="0" ry="0" transform="matrix(1 0 0 1 52.90000000000000 129.90000000000001)" clip-rule="evenodd" fill="rgb(77,84,87)" fill-rule="evenodd" stroke="none" stroke-width="1"/></g></g></g><g id="eRYgwb2CmJ950"><g id="eRYgwb2CmJ951"><polygon id="eRYgwb2CmJ952" points="315.400000,283.400000 317.200000,276.600000 210,247.900000 208.200000,254.600000" fill="rgb(99,107,110)" stroke="none" stroke-width="1"/><path id="eRYgwb2CmJ953" d="M311.200000,282.300000L300.300000,293.200000L296.300000,278.300000L294,277.700000L298.200000,293.300000L282.600000,286.200000L291.800000,277L289.500000,276.400000L281.400000,284.500000L278.200000,273.400000L275.800000,272.800000L279.200000,284.700000L266.900000,279.100000L273.800000,272.300000L271.500000,271.700000L265.700000,277.500000L263.600000,269.600000L261.300000,269L263.600000,277.700000L251.600000,272.200000L258.500000,268.200000L255.600000,267.400000L249.900000,270.600000L248.500000,265.500000L246.200000,264.900000L247.700000,270.400000L236.300000,265.200000L241.700000,263.700000L237.700000,262.600000L233.800000,263.700000L232.400000,261.200000L229.600000,260.500000L230.800000,262.800000L220.500000,258.100000L209.300000,255.100000L209.300000,255.100000C243.200000,270.500000,277,286.100000,310.900000,301.400000L315.700000,283.600000L312.300000,282.700000L312.300000,282.700000L311.200000,282.300000L311.200000,282.300000ZM301.600000,294.800000L313.300000,283.200000L309.300000,298.300000L301.600000,294.800000L301.600000,294.800000Z" fill="url(#eRYgwb2CmJ953-fill)" stroke="none" stroke-width="1"/></g><g id="eRYgwb2CmJ954"><rect id="eRYgwb2CmJ955" width="41" height="37.700000" rx="0" ry="0" transform="matrix(1 0 0 1 319.50000000000000 111)" clip-rule="evenodd" fill="rgb(104,173,152)" fill-rule="evenodd" stroke="none" stroke-width="1"/><g id="eRYgwb2CmJ956"><polygon id="eRYgwb2CmJ957" points="329.300000,122.200000 350.700000,122.200000 340,73.900000" clip-rule="evenodd" fill="url(#eRYgwb2CmJ957-fill)" fill-rule="evenodd" stroke="none" stroke-width="1"/><polygon id="eRYgwb2CmJ958" points="353.500000,122.200000 367.600000,122.200000 360.500000,93.300000" clip-rule="evenodd" fill="url(#eRYgwb2CmJ958-fill)" fill-rule="evenodd" stroke="none" stroke-width="1"/><polygon id="eRYgwb2CmJ959" points="312.400000,122.200000 326.500000,122.200000 319.500000,93.300000" clip-rule="evenodd" fill="url(#eRYgwb2CmJ959-fill)" fill-rule="evenodd" stroke="none" stroke-width="1"/></g><path id="eRYgwb2CmJ960" d="M326.500000,123.400000C327.100000,123.400000,327.600000,122.900000,327.600000,122.300000C327.600000,121.700000,327.100000,121.200000,326.500000,121.200000L312.400000,121.200000C311.800000,121.200000,311.300000,121.700000,311.300000,122.300000C311.300000,122.900000,311.800000,123.400000,312.400000,123.400000L326.500000,123.400000ZM367.600000,123.400000C368.200000,123.400000,368.700000,122.900000,368.700000,122.300000C368.700000,121.700000,368.200000,121.200000,367.600000,121.200000L353.500000,121.200000C352.900000,121.200000,352.400000,121.700000,352.400000,122.300000C352.400000,122.900000,352.900000,123.400000,353.500000,123.400000L367.600000,123.400000ZM350.700000,123.400000C351.300000,123.400000,351.800000,122.900000,351.800000,122.300000C351.800000,121.700000,351.300000,121.200000,350.700000,121.200000L348.900000,121.200000C348.600000,119.200000,347.700000,117.300000,346.300000,116C344.700000,114.400000,342.400000,113.400000,340,113.400000C337.600000,113.400000,335.300000,114.400000,333.600000,116C332.200000,117.400000,331.300000,119.200000,331,121.200000L329.200000,121.200000C328.600000,121.200000,328.100000,121.700000,328.100000,122.300000C328.100000,122.900000,328.600000,123.400000,329.200000,123.400000L332,123.400000C332.600000,123.400000,333.100000,122.900000,333.100000,122.300000C333.100000,120.400000,333.900000,118.700000,335.100000,117.500000C336.300000,116.300000,338,115.500000,339.900000,115.500000C341.800000,115.500000,343.500000,116.300000,344.700000,117.500000C345.900000,118.700000,346.700000,120.400000,346.700000,122.300000C346.700000,122.900000,347.200000,123.400000,347.800000,123.400000L350.700000,123.400000Z" fill="rgb(188,195,196)" stroke="none" stroke-width="1"/></g><polygon id="eRYgwb2CmJ961" points="372.800000,279.700000 307.200000,279.700000 305,326.100000 375,326.100000" clip-rule="evenodd" fill="url(#eRYgwb2CmJ961-fill)" fill-rule="evenodd" stroke="none" stroke-width="1"/><g id="eRYgwb2CmJ962"><rect id="eRYgwb2CmJ963" width="49.400000" height="8.600000" rx="0" ry="0" transform="matrix(1 0 0 1 315.30000000000001 271.10000000000002)" clip-rule="evenodd" fill="rgb(188,195,196)" fill-rule="evenodd" stroke="none" stroke-width="1"/><path id="eRYgwb2CmJ964" d="M315.300000,186L315.300000,271.100000L364.700000,271.100000L364.700000,186L366.100000,186L367.500000,177.400000C367.500000,159,367.500000,140.700000,367.500000,122.300000L353.400000,122.300000L353.400000,146.400000L350.600000,146.400000L350.600000,122.300000L347.800000,122.300000C347.800000,117.900000,344.300000,114.400000,339.900000,114.400000C335.500000,114.400000,332,117.900000,332,122.300000L329.200000,122.300000L329.200000,146.400000L326.400000,146.400000L326.400000,122.300000L312.300000,122.300000C312.300000,140.700000,312.300000,159,312.300000,177.400000L313.700000,186L315.300000,186L315.300000,186Z" clip-rule="evenodd" fill="rgb(228,234,235)" fill-rule="evenodd" stroke="none" stroke-width="1"/><rect id="eRYgwb2CmJ965" width="49.400000" height="8.600000" rx="0" ry="0" transform="matrix(1 0 0 1 315.30000000000001 239.80000000000001)" clip-rule="evenodd" fill="rgb(215,223,224)" fill-rule="evenodd" stroke="none" stroke-width="1"/><rect id="eRYgwb2CmJ966" width="49.400000" height="8.600000" rx="0" ry="0" transform="matrix(1 0 0 1 315.30000000000001 208.59999999999999)" clip-rule="evenodd" fill="rgb(215,223,224)" fill-rule="evenodd" stroke="none" stroke-width="1"/><polygon id="eRYgwb2CmJ967" points="366.200000,186 313.800000,186 312.400000,177.300000 367.600000,177.300000" clip-rule="evenodd" fill="rgb(215,223,224)" fill-rule="evenodd" stroke="none" stroke-width="1"/></g><g id="eRYgwb2CmJ968"><g id="eRYgwb2CmJ969"><rect id="eRYgwb2CmJ970" width="4.600000" height="13.400000" rx="0" ry="0" transform="matrix(1 0 0 1 330.60000000000002 190.59999999999999)" clip-rule="evenodd" fill="rgb(77,84,87)" fill-rule="evenodd" stroke="none" stroke-width="1"/><rect id="eRYgwb2CmJ971" width="4.600000" height="13.400000" rx="0" ry="0" transform="matrix(1 0 0 1 337.69999999999999 190.59999999999999)" clip-rule="evenodd" fill="rgb(77,84,87)" fill-rule="evenodd" stroke="none" stroke-width="1"/><rect id="eRYgwb2CmJ972" width="4.600000" height="13.400000" rx="0" ry="0" transform="matrix(1 0 0 1 344.80000000000001 190.59999999999999)" clip-rule="evenodd" fill="rgb(77,84,87)" fill-rule="evenodd" stroke="none" stroke-width="1"/></g><g id="eRYgwb2CmJ973"><rect id="eRYgwb2CmJ974" width="4.600000" height="13.400000" rx="0" ry="0" transform="matrix(1 0 0 1 330.60000000000002 221.80000000000001)" clip-rule="evenodd" fill="rgb(77,84,87)" fill-rule="evenodd" stroke="none" stroke-width="1"/><rect id="eRYgwb2CmJ975" width="4.600000" height="13.400000" rx="0" ry="0" transform="matrix(1 0 0 1 337.69999999999999 221.80000000000001)" clip-rule="evenodd" fill="rgb(77,84,87)" fill-rule="evenodd" stroke="none" stroke-width="1"/><rect id="eRYgwb2CmJ976" width="4.600000" height="13.400000" rx="0" ry="0" transform="matrix(1 0 0 1 344.80000000000001 221.80000000000001)" clip-rule="evenodd" fill="rgb(77,84,87)" fill-rule="evenodd" stroke="none" stroke-width="1"/></g><g id="eRYgwb2CmJ977"><rect id="eRYgwb2CmJ978" width="4.600000" height="13.400000" rx="0" ry="0" transform="matrix(1 0 0 1 330.60000000000002 253.09999999999999)" clip-rule="evenodd" fill="rgb(77,84,87)" fill-rule="evenodd" stroke="none" stroke-width="1"/><rect id="eRYgwb2CmJ979" width="4.600000" height="13.400000" rx="0" ry="0" transform="matrix(1 0 0 1 337.69999999999999 253.09999999999999)" clip-rule="evenodd" fill="rgb(77,84,87)" fill-rule="evenodd" stroke="none" stroke-width="1"/><rect id="eRYgwb2CmJ980" width="4.600000" height="13.400000" rx="0" ry="0" transform="matrix(1 0 0 1 344.80000000000001 253.09999999999999)" clip-rule="evenodd" fill="rgb(77,84,87)" fill-rule="evenodd" stroke="none" stroke-width="1"/></g><g id="eRYgwb2CmJ981"><g id="eRYgwb2CmJ982"><rect id="eRYgwb2CmJ983" width="3.500000" height="10.100000" rx="0" ry="0" transform="matrix(1 0 0 1 332.89999999999998 154.69999999999999)" clip-rule="evenodd" fill="rgb(77,84,87)" fill-rule="evenodd" stroke="none" stroke-width="1"/><rect id="eRYgwb2CmJ984" width="3.500000" height="10.100000" rx="0" ry="0" transform="matrix(1 0 0 1 338.30000000000001 154.69999999999999)" clip-rule="evenodd" fill="rgb(77,84,87)" fill-rule="evenodd" stroke="none" stroke-width="1"/><rect id="eRYgwb2CmJ985" width="3.500000" height="10.100000" rx="0" ry="0" transform="matrix(1 0 0 1 343.60000000000002 154.69999999999999)" clip-rule="evenodd" fill="rgb(77,84,87)" fill-rule="evenodd" stroke="none" stroke-width="1"/></g><rect id="eRYgwb2CmJ986" width="14.200000" height="5" rx="0" ry="0" transform="matrix(1 0 0 1 332.89999999999998 166.40000000000001)" clip-rule="evenodd" fill="rgb(77,84,87)" fill-rule="evenodd" stroke="none" stroke-width="1"/></g><g id="eRYgwb2CmJ987"><rect id="eRYgwb2CmJ988" width="3.500000" height="10.100000" rx="0" ry="0" transform="matrix(1 0 0 1 332.89999999999998 129.90000000000001)" clip-rule="evenodd" fill="rgb(77,84,87)" fill-rule="evenodd" stroke="none" stroke-width="1"/><rect id="eRYgwb2CmJ989" width="3.500000" height="10.100000" rx="0" ry="0" transform="matrix(1 0 0 1 338.30000000000001 129.90000000000001)" clip-rule="evenodd" fill="rgb(77,84,87)" fill-rule="evenodd" stroke="none" stroke-width="1"/><rect id="eRYgwb2CmJ990" width="3.500000" height="10.100000" rx="0" ry="0" transform="matrix(1 0 0 1 343.60000000000002 129.90000000000001)" clip-rule="evenodd" fill="rgb(77,84,87)" fill-rule="evenodd" stroke="none" stroke-width="1"/></g></g></g></svg>