<svg id="s1" xmlns="http://www.w3.org/2000/svg" xmlns:xlink="http://www.w3.org/1999/xlink" viewBox="0 0 400 400"><g id="s3"><path id="s5" d="M167.120000,175.110000L163.540000,175.110000C153.687594,175.082533,145.707467,167.102406,145.680000,157.250000L145.680000,151.740000C145.702980,143.906254,150.808982,136.994323,158.290000,134.670000L158.590000,134.570000C166.179251,132.318356,171.393769,125.356183,171.420000,117.440000L171.420000,89.780000L222.100000,89.780000L222.100000,117.440000C222.126231,125.356183,227.340749,132.318356,234.930000,134.570000L235.230000,134.670000C242.711018,136.994323,247.817020,143.906254,247.840000,151.740000L247.840000,157.250000C247.812591,167.094631,239.844595,175.071561,230,175.110000L167.120000,175.110000Z" fill="rgb(65,145,136)" stroke="none" stroke-width="1"/><rect id="s7" width="70.440000" height="165.810000" rx="2.160000" ry="2.160000" transform="translate(164.780000,191.650000)" fill="rgb(65,145,136)" stroke="none" stroke-width="1"/><path id="s9" d="M215.640000,138C209.146450,137.983512,203.886488,132.723550,203.870000,126.230000L190,126.230000C189.983473,132.731340,184.711359,137.994511,178.210000,138L178,138L178,148.150000L216.160000,148.150000L216.160000,138Z" fill="rgb(107,217,205)" stroke="none" stroke-width="1"/><g id="s11"><rect id="s13" width="56.170000" height="34.320000" rx="15.930000" ry="15.930000" transform="translate(168.690000,70.870000)" fill="rgb(95,193,183)" stroke="none" stroke-width="1"/><path id="s15" d="M195.100000,58.400000L191.860000,74.610000L201.680000,74.610000L198.440000,58.400000C198.287327,57.598130,197.586275,57.017962,196.770000,57.017962C195.953725,57.017962,195.252673,57.598130,195.100000,58.400000Z" fill="rgb(95,193,183)" stroke="none" stroke-width="1"/><path id="s17" d="M170.740000,63.640000L182.860000,74.870000L178.860000,77.750000L174.860000,80.630000L168,65.600000C167.603277,64.848070,167.823031,63.918676,168.514501,63.424048C169.205971,62.929420,170.156528,63.021657,170.740000,63.640000Z" fill="rgb(95,193,183)" stroke="none" stroke-width="1"/><path id="s19" d="M160.430000,92.240000L176.730000,95L176.570000,90.090000L176.410000,85.180000L160.320000,88.900000C159.521286,89.077097,158.961992,89.797981,158.988921,90.615649C159.015850,91.433318,159.621364,92.115840,160.430000,92.240000Z" fill="rgb(95,193,183)" stroke="none" stroke-width="1"/><path id="s21" d="M222.800000,63.640000L210.670000,74.870000L214.670000,77.750000L218.670000,80.630000L225.540000,65.630000C225.991445,64.874600,225.791770,63.899545,225.079730,63.382407C224.367691,62.865269,223.378694,62.977018,222.800000,63.640000Z" fill="rgb(95,193,183)" stroke="none" stroke-width="1"/><path id="s23" d="M233.110000,92.240000L216.810000,95L216.970000,90.090000L217.130000,85.180000L233.220000,88.940000C233.973430,89.151933,234.484801,89.850888,234.458726,90.633124C234.432652,91.415360,233.875871,92.078710,233.110000,92.240000Z" fill="rgb(95,193,183)" stroke="none" stroke-width="1"/></g><g id="s25"><rect id="s27" width="38.960000" height="51.670000" rx="19.110000" ry="19.110000" transform="translate(177.290000,78.020000)" fill="rgb(107,217,205)" stroke="none" stroke-width="1"/><path id="s29" d="M197.190000,78L196.340000,78C185.832649,78.032939,177.322939,86.542649,177.290000,97.050000L177.290000,101.520000L177.720000,101.520000C188.227351,101.487061,196.737061,92.977351,196.770000,82.470000C196.802939,92.977351,205.312649,101.487061,215.820000,101.520000L216.250000,101.520000L216.250000,97.080000C216.233516,86.557045,207.712932,78.027520,197.190000,78Z" fill="rgb(65,145,136)" stroke="none" stroke-width="1"/></g><rect id="s31" width="104.840000" height="36.430000" rx="4.070000" ry="4.070000" transform="translate(147.580000,340.890000)" fill="rgb(199,127,107)" stroke="none" stroke-width="1"/><rect id="s33" width="137.270000" height="17.110000" rx="4.070000" ry="4.070000" transform="translate(131.360000,371.150000)" fill="rgb(168,105,88)" stroke="none" stroke-width="1"/><g id="s35"><path id="s37" d="M236.580000,191.650000L236.580000,176.650000L236.100000,151.540000C236.061592,144.066332,230.003734,138.021867,222.530000,138L215.630000,138C213.899308,137.996438,212.191191,137.606987,210.630000,136.860000C203.010927,144.461735,190.695716,144.524135,183,137C181.492225,137.668966,179.859486,138.009830,178.210000,138C171.740000,138,163.340000,131.650000,156.670000,137.700000C147.070000,146.430000,152.010000,163.630000,155.360000,163.950000C160.167253,164.553724,163.777450,168.635001,163.790000,173.480000L163.790000,176.850000L163.790000,176.850000L159.620000,320.130000C159.630990,324.289666,163.000334,327.659010,167.160000,327.670000L168.580000,327.670000C171.131248,327.669074,173.621721,326.891237,175.720000,325.440000L192,314.200000C195.393136,311.855411,197.418965,307.994374,197.420000,303.870000L197.420000,294.870000C197.430988,290.853927,200.683927,287.600988,204.700000,287.590000L212.630000,287.590000C216.646073,287.579012,219.899012,284.326073,219.910000,280.310000L219.910000,272.250000C219.920988,268.233927,223.173927,264.980988,227.190000,264.970000L227.920000,264.970000C231.936073,264.980988,235.189012,268.233927,235.200000,272.250000L235.200000,276.450000C235.200000,278.811017,237.113983,280.725000,239.475000,280.725000C241.836017,280.725000,243.750000,278.811017,243.750000,276.450000Z" fill="rgb(95,193,183)" stroke="none" stroke-width="1"/><line id="s39" x1="215.010000" y1="221.050000" x2="212.030000" y2="277.590000" fill="none" stroke="rgb(78,165,155)" stroke-width="4.071590" stroke-linecap="round" stroke-miterlimit="10"/><line id="s41" x1="169.740000" y1="313.850000" x2="186.160000" y2="241.330000" fill="none" stroke="rgb(78,165,155)" stroke-width="4.308130" stroke-linecap="round" stroke-miterlimit="10"/><line id="s43" x1="223.380000" y1="209.380000" x2="236.580000" y2="265.500000" fill="none" stroke="rgb(78,165,155)" stroke-width="4.308730" stroke-linecap="round" stroke-miterlimit="10"/><path id="s45" d="M167,206C179.540000,206,211.770000,189.370000,215,141.660000" fill="none" stroke="rgb(78,165,155)" stroke-width="4.253170" stroke-linecap="round" stroke-miterlimit="10"/><path id="s47" d="M169.630000,185.230000C174.230000,184.900000,189.120000,181.160000,196.090000,172.230000" fill="none" stroke="rgb(78,165,155)" stroke-width="4.253170" stroke-linecap="round" stroke-miterlimit="10"/></g><g id="s49"><path id="s51" d="M171.750000,136.060000L171.750000,136.060000C168.442858,133.886418,166.448122,130.197471,166.440000,126.240000L166.230000,120.740000L166.230000,120.740000C165.792030,113.454761,159.768353,107.763788,152.470000,107.740000L152.470000,107.740000C144.857589,107.761970,138.691970,113.927589,138.670000,121.540000L139.060000,130.090000L139.060000,130.090000C139.060000,130.650000,139.890000,143.290000,139.890000,143.290000C140.330000,146.690000,142.800000,149.590000,145.430000,151.440000L146.490000,152.120000C148.262354,153.164358,149.355905,155.062885,149.370000,157.120000L149.370000,157.340000C149.378336,160.758068,151.969209,163.616665,155.370000,163.960000C156.646763,164.117634,157.878271,164.532673,158.990000,165.180000L158.990000,165.180000C167.040000,167.490000,177.770000,162.870000,179.120000,153.720000C180.740000,142.810000,177.470000,139.600000,171.750000,136.060000Z" fill="rgb(95,193,183)" stroke="none" stroke-width="1"/><rect id="s53" width="15.660000" height="12.390000" rx="6.190000" ry="6.190000" transform="translate(147.810000,53.610000)" fill="rgb(107,217,205)" stroke="none" stroke-width="1"/><path id="s55" d="M162.590000,128.340000C157.010000,116.340000,158.410000,102.110000,158.330000,89.220000L158.120000,57.270000C158.060000,47.770000,143.290000,47.750000,143.350000,57.270000L143.570000,91.140000C143.670000,106.560000,143.130000,121.390000,149.840000,135.800000C153.840000,144.410000,166.580000,136.920000,162.590000,128.340000Z" fill="rgb(107,217,205)" stroke="none" stroke-width="1"/><g id="s57"><path id="s59" d="M155.860000,29.580000C161.010783,28.845265,164.842635,24.442893,164.860000,19.240000L164.860000,16.080000C164.861791,13.721741,164.061270,11.433028,162.590000,9.590000C160.868928,10.507262,158.950226,10.991228,157,11L152.200000,11C146.435464,11.016478,141.766478,15.685464,141.750000,21.450000C141.733522,27.214536,141.750000,29.450000,141.750000,29.600000Z" fill="rgb(255,178,87)" stroke="none" stroke-width="1"/><rect id="s61" width="16.160000" height="32.910000" rx="3.940000" ry="3.940000" transform="translate(142.150000,37.080000)" fill="rgb(65,145,136)" stroke="none" stroke-width="1"/><path id="s63" d="M162.740000,43.520000L137.740000,43.520000C136.596969,43.525171,135.638603,42.657872,135.530000,41.520000L134.670000,31.380000C134.616642,30.761710,134.825705,30.149476,135.246084,29.692956C135.666463,29.236436,136.259417,28.977702,136.880000,28.980000L163.600000,28.980000C164.220583,28.977702,164.813537,29.236436,165.233916,29.692956C165.654295,30.149476,165.863358,30.761710,165.810000,31.380000L164.950000,41.520000C164.841397,42.657872,163.883031,43.525171,162.740000,43.520000Z" fill="rgb(95,193,183)" stroke="none" stroke-width="1"/></g><path id="s65" d="M144.280000,114.590000L144.280000,115.100000C144.290988,119.105027,147.534973,122.349012,151.540000,122.360000L151.540000,122.360000C155.545027,122.349012,158.789012,119.105027,158.800000,115.100000L158.800000,114.590000L159.290000,112.370000C165.850000,130.070000,166.040000,114.110000,165.850000,130.070000C165.660000,146.030000,143.150000,143.300000,142.360000,129.130000C142.180000,118.870000,142.570000,115.300000,144.280000,114.590000Z" fill="rgb(95,193,183)" stroke="none" stroke-width="1"/><path id="s67" d="M156,157C161,156,163.780000,151,163.780000,135.130000" fill="none" stroke="rgb(78,165,155)" stroke-width="4.729290" stroke-linecap="round" stroke-miterlimit="10"/><path id="s69" d="M147.110000,144.190000C149.630000,145.130000,156.400000,142.070000,157.390000,134.310000" fill="none" stroke="rgb(78,165,155)" stroke-width="4.729290" stroke-linecap="round" stroke-miterlimit="10"/><rect id="s71" width="17.260000" height="20.230000" rx="6.930000" ry="6.930000" transform="translate(134.450000,46.720000)" fill="rgb(107,217,205)" stroke="none" stroke-width="1"/></g><path id="s73" d="M239.340000,201.590000L207.280000,201.590000C206.544456,201.655530,205.828927,201.328041,205.397767,200.728523C204.966608,200.129006,204.883824,199.346461,205.180000,198.670000L219.870000,155.060000C220.531302,153.368578,222.125867,152.224566,223.940000,152.140000L256,152.140000C256.735544,152.074470,257.451073,152.401959,257.882233,153.001477C258.313392,153.600994,258.396176,154.383539,258.100000,155.060000L243.410000,198.670000C242.748698,200.361422,241.154133,201.505434,239.340000,201.590000Z" fill="rgb(78,165,155)" stroke="none" stroke-width="1"/><path id="s75" d="M244.190000,191.650000L244.190000,191.650000C239.190000,191.650000,236.130000,187.580000,237.280000,182.650000L237.540000,181.540000C238.690000,176.540000,243.690000,172.540000,248.650000,172.540000L248.650000,172.540000C253.650000,172.540000,256.710000,176.610000,255.560000,181.540000L255.300000,182.650000C254.140000,187.580000,249.140000,191.650000,244.190000,191.650000Z" fill="rgb(107,217,205)" stroke="none" stroke-width="1"/></g></svg>