<svg id="emFjrMWOoau1" xmlns="http://www.w3.org/2000/svg" xmlns:xlink="http://www.w3.org/1999/xlink" viewBox="0 0 400 400" shape-rendering="geometricPrecision" text-rendering="geometricPrecision"><defs><linearGradient id="emFjrMWOoau5-fill" x1="19.427829" y1="5.936966" x2="19.427829" y2="-0.031744" spreadMethod="pad" gradientUnits="userSpaceOnUse"><stop id="emFjrMWOoau5-fill-0" offset="0%" stop-color="rgb(174,140,95)"/><stop id="emFjrMWOoau5-fill-1" offset="100%" stop-color="rgb(148,119,81)"/></linearGradient><linearGradient id="emFjrMWOoau6-fill" x1="19.436204" y1="5.936966" x2="19.436204" y2="-0.031744" spreadMethod="pad" gradientUnits="userSpaceOnUse"><stop id="emFjrMWOoau6-fill-0" offset="0%" stop-color="rgb(174,140,95)"/><stop id="emFjrMWOoau6-fill-1" offset="100%" stop-color="rgb(148,119,81)"/></linearGradient><linearGradient id="emFjrMWOoau7-fill" x1="19.394118" y1="5.936966" x2="19.394118" y2="-0.031744" spreadMethod="pad" gradientUnits="userSpaceOnUse"><stop id="emFjrMWOoau7-fill-0" offset="0%" stop-color="rgb(174,140,95)"/><stop id="emFjrMWOoau7-fill-1" offset="100%" stop-color="rgb(148,119,81)"/></linearGradient><linearGradient id="emFjrMWOoau8-fill" x1="19.451573" y1="5.936966" x2="19.451573" y2="-0.031744" spreadMethod="pad" gradientUnits="userSpaceOnUse"><stop id="emFjrMWOoau8-fill-0" offset="0%" stop-color="rgb(174,140,95)"/><stop id="emFjrMWOoau8-fill-1" offset="100%" stop-color="rgb(148,119,81)"/></linearGradient><linearGradient id="emFjrMWOoau9-fill" x1="19.410173" y1="5.936966" x2="19.410173" y2="-0.031744" spreadMethod="pad" gradientUnits="userSpaceOnUse"><stop id="emFjrMWOoau9-fill-0" offset="0%" stop-color="rgb(174,140,95)"/><stop id="emFjrMWOoau9-fill-1" offset="100%" stop-color="rgb(148,119,81)"/></linearGradient><linearGradient id="emFjrMWOoau10-fill" x1="19.467629" y1="5.936966" x2="19.467629" y2="-0.031744" spreadMethod="pad" gradientUnits="userSpaceOnUse"><stop id="emFjrMWOoau10-fill-0" offset="0%" stop-color="rgb(174,140,95)"/><stop id="emFjrMWOoau10-fill-1" offset="100%" stop-color="rgb(148,119,81)"/></linearGradient><linearGradient id="emFjrMWOoau12-fill" x1="19.427829" y1="5.975275" x2="19.427829" y2="0.007023" spreadMethod="pad" gradientUnits="userSpaceOnUse"><stop id="emFjrMWOoau12-fill-0" offset="0%" stop-color="rgb(174,140,95)"/><stop id="emFjrMWOoau12-fill-1" offset="100%" stop-color="rgb(195,160,120)"/></linearGradient><linearGradient id="emFjrMWOoau13-fill" x1="19.436204" y1="5.975275" x2="19.436204" y2="0.007023" spreadMethod="pad" gradientUnits="userSpaceOnUse"><stop id="emFjrMWOoau13-fill-0" offset="0%" stop-color="rgb(174,140,95)"/><stop id="emFjrMWOoau13-fill-1" offset="100%" stop-color="rgb(195,160,120)"/></linearGradient><linearGradient id="emFjrMWOoau14-fill" x1="19.394118" y1="5.975275" x2="19.394118" y2="0.007023" spreadMethod="pad" gradientUnits="userSpaceOnUse"><stop id="emFjrMWOoau14-fill-0" offset="0%" stop-color="rgb(174,140,95)"/><stop id="emFjrMWOoau14-fill-1" offset="100%" stop-color="rgb(195,160,120)"/></linearGradient><linearGradient id="emFjrMWOoau15-fill" x1="19.451573" y1="5.975275" x2="19.451573" y2="0.007023" spreadMethod="pad" gradientUnits="userSpaceOnUse"><stop id="emFjrMWOoau15-fill-0" offset="0%" stop-color="rgb(174,140,95)"/><stop id="emFjrMWOoau15-fill-1" offset="100%" stop-color="rgb(195,160,120)"/></linearGradient><linearGradient id="emFjrMWOoau16-fill" x1="19.410173" y1="5.975275" x2="19.410173" y2="0.007023" spreadMethod="pad" gradientUnits="userSpaceOnUse"><stop id="emFjrMWOoau16-fill-0" offset="0%" stop-color="rgb(174,140,95)"/><stop id="emFjrMWOoau16-fill-1" offset="100%" stop-color="rgb(195,160,120)"/></linearGradient><linearGradient id="emFjrMWOoau17-fill" x1="19.467629" y1="5.975275" x2="19.467629" y2="0.007023" spreadMethod="pad" gradientUnits="userSpaceOnUse"><stop id="emFjrMWOoau17-fill-0" offset="0%" stop-color="rgb(174,140,95)"/><stop id="emFjrMWOoau17-fill-1" offset="100%" stop-color="rgb(195,160,120)"/></linearGradient><linearGradient id="emFjrMWOoau19-fill" x1="11.127829" y1="160.007023" x2="11.127829" y2="-0.061433" spreadMethod="pad" gradientUnits="userSpaceOnUse"><stop id="emFjrMWOoau19-fill-0" offset="0%" stop-color="rgb(232,204,169)"/><stop id="emFjrMWOoau19-fill-1" offset="100%" stop-color="rgb(195,160,120)"/></linearGradient><linearGradient id="emFjrMWOoau20-fill" x1="11.136662" y1="160.007023" x2="11.136662" y2="-0.061433" spreadMethod="pad" gradientUnits="userSpaceOnUse"><stop id="emFjrMWOoau20-fill-0" offset="0%" stop-color="rgb(232,204,169)"/><stop id="emFjrMWOoau20-fill-1" offset="100%" stop-color="rgb(195,160,120)"/></linearGradient><linearGradient id="emFjrMWOoau21-fill" x1="11.094118" y1="160.007023" x2="11.094118" y2="-0.061433" spreadMethod="pad" gradientUnits="userSpaceOnUse"><stop id="emFjrMWOoau21-fill-0" offset="0%" stop-color="rgb(232,204,169)"/><stop id="emFjrMWOoau21-fill-1" offset="100%" stop-color="rgb(195,160,120)"/></linearGradient><linearGradient id="emFjrMWOoau22-fill" x1="11.151573" y1="160.007023" x2="11.151573" y2="-0.061433" spreadMethod="pad" gradientUnits="userSpaceOnUse"><stop id="emFjrMWOoau22-fill-0" offset="0%" stop-color="rgb(232,204,169)"/><stop id="emFjrMWOoau22-fill-1" offset="100%" stop-color="rgb(195,160,120)"/></linearGradient><linearGradient id="emFjrMWOoau23-fill" x1="11.110173" y1="160.007023" x2="11.110173" y2="-0.061433" spreadMethod="pad" gradientUnits="userSpaceOnUse"><stop id="emFjrMWOoau23-fill-0" offset="0%" stop-color="rgb(232,204,169)"/><stop id="emFjrMWOoau23-fill-1" offset="100%" stop-color="rgb(195,160,120)"/></linearGradient><linearGradient id="emFjrMWOoau24-fill" x1="11.167629" y1="160.007023" x2="11.167629" y2="-0.061433" spreadMethod="pad" gradientUnits="userSpaceOnUse"><stop id="emFjrMWOoau24-fill-0" offset="0%" stop-color="rgb(232,204,169)"/><stop id="emFjrMWOoau24-fill-1" offset="100%" stop-color="rgb(195,160,120)"/></linearGradient><linearGradient id="emFjrMWOoau26-fill" x1="199.931788" y1="106.894098" x2="199.931788" y2="116.312514" spreadMethod="pad" gradientUnits="userSpaceOnUse"><stop id="emFjrMWOoau26-fill-0" offset="0%" stop-color="rgb(174,140,95)"/><stop id="emFjrMWOoau26-fill-1" offset="100%" stop-color="rgb(148,119,81)"/></linearGradient><linearGradient id="emFjrMWOoau28-fill" x1="199.931788" y1="142.384531" x2="199.931788" y2="152.385293" spreadMethod="pad" gradientUnits="userSpaceOnUse"><stop id="emFjrMWOoau28-fill-0" offset="0%" stop-color="rgb(174,140,95)"/><stop id="emFjrMWOoau28-fill-1" offset="100%" stop-color="rgb(148,119,81)"/></linearGradient><linearGradient id="emFjrMWOoau31-fill" x1="8.000625" y1="16.271736" x2="8.000625" y2="-0.018186" spreadMethod="pad" gradientUnits="userSpaceOnUse"><stop id="emFjrMWOoau31-fill-0" offset="0%" stop-color="rgb(195,160,120)"/><stop id="emFjrMWOoau31-fill-1" offset="100%" stop-color="rgb(174,140,95)"/></linearGradient><linearGradient id="emFjrMWOoau32-fill" x1="8.033647" y1="16.271736" x2="8.033647" y2="-0.018186" spreadMethod="pad" gradientUnits="userSpaceOnUse"><stop id="emFjrMWOoau32-fill-0" offset="0%" stop-color="rgb(195,160,120)"/><stop id="emFjrMWOoau32-fill-1" offset="100%" stop-color="rgb(174,140,95)"/></linearGradient><linearGradient id="emFjrMWOoau33-fill" x1="8.032007" y1="16.271736" x2="8.032007" y2="-0.018186" spreadMethod="pad" gradientUnits="userSpaceOnUse"><stop id="emFjrMWOoau33-fill-0" offset="0%" stop-color="rgb(195,160,120)"/><stop id="emFjrMWOoau33-fill-1" offset="100%" stop-color="rgb(174,140,95)"/></linearGradient><linearGradient id="emFjrMWOoau34-fill" x1="7.998528" y1="16.271736" x2="7.998528" y2="-0.018186" spreadMethod="pad" gradientUnits="userSpaceOnUse"><stop id="emFjrMWOoau34-fill-0" offset="0%" stop-color="rgb(195,160,120)"/><stop id="emFjrMWOoau34-fill-1" offset="100%" stop-color="rgb(174,140,95)"/></linearGradient><linearGradient id="emFjrMWOoau35-fill" x1="8.033170" y1="16.271736" x2="8.033170" y2="-0.018186" spreadMethod="pad" gradientUnits="userSpaceOnUse"><stop id="emFjrMWOoau35-fill-0" offset="0%" stop-color="rgb(195,160,120)"/><stop id="emFjrMWOoau35-fill-1" offset="100%" stop-color="rgb(174,140,95)"/></linearGradient><linearGradient id="emFjrMWOoau36-fill" x1="8.065963" y1="16.271736" x2="8.065963" y2="-0.018186" spreadMethod="pad" gradientUnits="userSpaceOnUse"><stop id="emFjrMWOoau36-fill-0" offset="0%" stop-color="rgb(195,160,120)"/><stop id="emFjrMWOoau36-fill-1" offset="100%" stop-color="rgb(174,140,95)"/></linearGradient><linearGradient id="emFjrMWOoau37-fill" x1="7.999005" y1="16.271736" x2="7.999005" y2="-0.018186" spreadMethod="pad" gradientUnits="userSpaceOnUse"><stop id="emFjrMWOoau37-fill-0" offset="0%" stop-color="rgb(195,160,120)"/><stop id="emFjrMWOoau37-fill-1" offset="100%" stop-color="rgb(174,140,95)"/></linearGradient><linearGradient id="emFjrMWOoau38-fill" x1="8.066669" y1="16.271736" x2="8.066669" y2="-0.018186" spreadMethod="pad" gradientUnits="userSpaceOnUse"><stop id="emFjrMWOoau38-fill-0" offset="0%" stop-color="rgb(195,160,120)"/><stop id="emFjrMWOoau38-fill-1" offset="100%" stop-color="rgb(174,140,95)"/></linearGradient><linearGradient id="emFjrMWOoau39-fill" x1="8.064343" y1="16.271736" x2="8.064343" y2="-0.018186" spreadMethod="pad" gradientUnits="userSpaceOnUse"><stop id="emFjrMWOoau39-fill-0" offset="0%" stop-color="rgb(195,160,120)"/><stop id="emFjrMWOoau39-fill-1" offset="100%" stop-color="rgb(174,140,95)"/></linearGradient><linearGradient id="emFjrMWOoau40-fill" x1="7.997364" y1="16.271736" x2="7.997364" y2="-0.018186" spreadMethod="pad" gradientUnits="userSpaceOnUse"><stop id="emFjrMWOoau40-fill-0" offset="0%" stop-color="rgb(195,160,120)"/><stop id="emFjrMWOoau40-fill-1" offset="100%" stop-color="rgb(174,140,95)"/></linearGradient><linearGradient id="emFjrMWOoau41-fill" x1="8.062722" y1="16.271736" x2="8.062722" y2="-0.018186" spreadMethod="pad" gradientUnits="userSpaceOnUse"><stop id="emFjrMWOoau41-fill-0" offset="0%" stop-color="rgb(195,160,120)"/><stop id="emFjrMWOoau41-fill-1" offset="100%" stop-color="rgb(174,140,95)"/></linearGradient><linearGradient id="emFjrMWOoau42-fill" x1="8.029700" y1="16.271736" x2="8.029700" y2="-0.018186" spreadMethod="pad" gradientUnits="userSpaceOnUse"><stop id="emFjrMWOoau42-fill-0" offset="0%" stop-color="rgb(195,160,120)"/><stop id="emFjrMWOoau42-fill-1" offset="100%" stop-color="rgb(174,140,95)"/></linearGradient><linearGradient id="emFjrMWOoau43-fill" x1="199.932246" y1="117.779588" x2="199.932246" y2="126.327914" spreadMethod="pad" gradientUnits="userSpaceOnUse"><stop id="emFjrMWOoau43-fill-0" offset="0%" stop-color="rgb(214,177,135)"/><stop id="emFjrMWOoau43-fill-1" offset="100%" stop-color="rgb(195,160,120)"/></linearGradient><linearGradient id="emFjrMWOoau50-fill" x1="199.932246" y1="48.800567" x2="199.932246" y2="87.373365" spreadMethod="pad" gradientUnits="userSpaceOnUse"><stop id="emFjrMWOoau50-fill-0" offset="0%" stop-color="rgb(174,140,95)"/><stop id="emFjrMWOoau50-fill-1" offset="100%" stop-color="rgb(148,119,81)"/></linearGradient></defs><polygon id="emFjrMWOoau2" points="25,362.100000 375,362.100000 365,352.100000 35,352.100000" clip-rule="evenodd" fill="rgb(195,160,120)" fill-rule="evenodd" stroke="none" stroke-width="1"/><g id="emFjrMWOoau3"><g id="emFjrMWOoau4"><rect id="emFjrMWOoau5" width="39" height="6" rx="0" ry="0" transform="matrix(1 0 0 1 316.39999999999998 180.09999999999999)" clip-rule="evenodd" fill="url(#emFjrMWOoau5-fill)" fill-rule="evenodd" stroke="none" stroke-width="1"/><rect id="emFjrMWOoau6" width="39" height="6" rx="0" ry="0" transform="matrix(1 0 0 1 44.60000000000000 180.09999999999999)" clip-rule="evenodd" fill="url(#emFjrMWOoau6-fill)" fill-rule="evenodd" stroke="none" stroke-width="1"/><rect id="emFjrMWOoau7" width="39" height="6" rx="0" ry="0" transform="matrix(1 0 0 1 99 180.09999999999999)" clip-rule="evenodd" fill="url(#emFjrMWOoau7-fill)" fill-rule="evenodd" stroke="none" stroke-width="1"/><rect id="emFjrMWOoau8" width="39" height="6" rx="0" ry="0" transform="matrix(1 0 0 1 153.30000000000001 180.09999999999999)" clip-rule="evenodd" fill="url(#emFjrMWOoau8-fill)" fill-rule="evenodd" stroke="none" stroke-width="1"/><rect id="emFjrMWOoau9" width="39" height="6" rx="0" ry="0" transform="matrix(1 0 0 1 207.69999999999999 180.09999999999999)" clip-rule="evenodd" fill="url(#emFjrMWOoau9-fill)" fill-rule="evenodd" stroke="none" stroke-width="1"/><rect id="emFjrMWOoau10" width="39" height="6" rx="0" ry="0" transform="matrix(1 0 0 1 262 180.09999999999999)" clip-rule="evenodd" fill="url(#emFjrMWOoau10-fill)" fill-rule="evenodd" stroke="none" stroke-width="1"/></g><g id="emFjrMWOoau11"><rect id="emFjrMWOoau12" width="39" height="6" rx="0" ry="0" transform="matrix(1 0 0 1 316.39999999999998 346.10000000000002)" clip-rule="evenodd" fill="url(#emFjrMWOoau12-fill)" fill-rule="evenodd" stroke="none" stroke-width="1"/><rect id="emFjrMWOoau13" width="39" height="6" rx="0" ry="0" transform="matrix(1 0 0 1 44.60000000000000 346.10000000000002)" clip-rule="evenodd" fill="url(#emFjrMWOoau13-fill)" fill-rule="evenodd" stroke="none" stroke-width="1"/><rect id="emFjrMWOoau14" width="39" height="6" rx="0" ry="0" transform="matrix(1 0 0 1 99 346.10000000000002)" clip-rule="evenodd" fill="url(#emFjrMWOoau14-fill)" fill-rule="evenodd" stroke="none" stroke-width="1"/><rect id="emFjrMWOoau15" width="39" height="6" rx="0" ry="0" transform="matrix(1 0 0 1 153.30000000000001 346.10000000000002)" clip-rule="evenodd" fill="url(#emFjrMWOoau15-fill)" fill-rule="evenodd" stroke="none" stroke-width="1"/><rect id="emFjrMWOoau16" width="39" height="6" rx="0" ry="0" transform="matrix(1 0 0 1 207.69999999999999 346.10000000000002)" clip-rule="evenodd" fill="url(#emFjrMWOoau16-fill)" fill-rule="evenodd" stroke="none" stroke-width="1"/><rect id="emFjrMWOoau17" width="39" height="6" rx="0" ry="0" transform="matrix(1 0 0 1 262 346.10000000000002)" clip-rule="evenodd" fill="url(#emFjrMWOoau17-fill)" fill-rule="evenodd" stroke="none" stroke-width="1"/></g><g id="emFjrMWOoau18"><rect id="emFjrMWOoau19" width="22.400000" height="160.100000" rx="0" ry="0" transform="matrix(1 0 0 1 324.69999999999999 186.09999999999999)" clip-rule="evenodd" fill="url(#emFjrMWOoau19-fill)" fill-rule="evenodd" stroke="none" stroke-width="1"/><rect id="emFjrMWOoau20" width="22.400000" height="160.100000" rx="0" ry="0" transform="matrix(1 0 0 1 52.90000000000000 186.09999999999999)" clip-rule="evenodd" fill="url(#emFjrMWOoau20-fill)" fill-rule="evenodd" stroke="none" stroke-width="1"/><rect id="emFjrMWOoau21" width="22.400000" height="160.100000" rx="0" ry="0" transform="matrix(1 0 0 1 107.30000000000000 186.09999999999999)" clip-rule="evenodd" fill="url(#emFjrMWOoau21-fill)" fill-rule="evenodd" stroke="none" stroke-width="1"/><rect id="emFjrMWOoau22" width="22.400000" height="160.100000" rx="0" ry="0" transform="matrix(1 0 0 1 161.59999999999999 186.09999999999999)" clip-rule="evenodd" fill="url(#emFjrMWOoau22-fill)" fill-rule="evenodd" stroke="none" stroke-width="1"/><rect id="emFjrMWOoau23" width="22.400000" height="160.100000" rx="0" ry="0" transform="matrix(1 0 0 1 216 186.09999999999999)" clip-rule="evenodd" fill="url(#emFjrMWOoau23-fill)" fill-rule="evenodd" stroke="none" stroke-width="1"/><rect id="emFjrMWOoau24" width="22.400000" height="160.100000" rx="0" ry="0" transform="matrix(1 0 0 1 270.30000000000001 186.09999999999999)" clip-rule="evenodd" fill="url(#emFjrMWOoau24-fill)" fill-rule="evenodd" stroke="none" stroke-width="1"/></g></g><g id="emFjrMWOoau25"><polygon id="emFjrMWOoau26" points="44.600000,106.900000 355.400000,106.900000 346.500000,116.400000 53.500000,116.400000" clip-rule="evenodd" fill="url(#emFjrMWOoau26-fill)" fill-rule="evenodd" stroke="none" stroke-width="1"/><rect id="emFjrMWOoau27" width="293" height="26.100000" rx="0" ry="0" transform="matrix(1 0 0 1 53.50000000000000 116.40000000000001)" clip-rule="evenodd" fill="rgb(195,160,120)" fill-rule="evenodd" stroke="none" stroke-width="1"/><polygon id="emFjrMWOoau28" points="25,142.400000 375,142.400000 365,152.400000 35,152.400000" clip-rule="evenodd" fill="url(#emFjrMWOoau28-fill)" fill-rule="evenodd" stroke="none" stroke-width="1"/><rect id="emFjrMWOoau29" width="310.800000" height="27.700000" rx="0" ry="0" transform="matrix(1 0 0 1 44.59999999999999 152.40000000000001)" clip-rule="evenodd" fill="rgb(195,160,120)" fill-rule="evenodd" stroke="none" stroke-width="1"/><g id="emFjrMWOoau30"><rect id="emFjrMWOoau31" width="16.200000" height="16.300000" rx="0" ry="0" transform="matrix(1 0 0 1 329.80000000000001 158.09999999999999)" clip-rule="evenodd" fill="url(#emFjrMWOoau31-fill)" fill-rule="evenodd" stroke="none" stroke-width="1"/><rect id="emFjrMWOoau32" width="16.200000" height="16.300000" rx="0" ry="0" transform="matrix(1 0 0 1 304.69999999999999 158.09999999999999)" clip-rule="evenodd" fill="url(#emFjrMWOoau32-fill)" fill-rule="evenodd" stroke="none" stroke-width="1"/><rect id="emFjrMWOoau33" width="16.200000" height="16.300000" rx="0" ry="0" transform="matrix(1 0 0 1 154.30000000000001 158.09999999999999)" clip-rule="evenodd" fill="url(#emFjrMWOoau33-fill)" fill-rule="evenodd" stroke="none" stroke-width="1"/><rect id="emFjrMWOoau34" width="16.200000" height="16.300000" rx="0" ry="0" transform="matrix(1 0 0 1 179.40000000000001 158.09999999999999)" clip-rule="evenodd" fill="url(#emFjrMWOoau34-fill)" fill-rule="evenodd" stroke="none" stroke-width="1"/><rect id="emFjrMWOoau35" width="16.200000" height="16.300000" rx="0" ry="0" transform="matrix(1 0 0 1 229.50000000000000 158.09999999999999)" clip-rule="evenodd" fill="url(#emFjrMWOoau35-fill)" fill-rule="evenodd" stroke="none" stroke-width="1"/><rect id="emFjrMWOoau36" width="16.200000" height="16.300000" rx="0" ry="0" transform="matrix(1 0 0 1 204.40000000000001 158.09999999999999)" clip-rule="evenodd" fill="url(#emFjrMWOoau36-fill)" fill-rule="evenodd" stroke="none" stroke-width="1"/><rect id="emFjrMWOoau37" width="16.200000" height="16.300000" rx="0" ry="0" transform="matrix(1 0 0 1 254.59999999999999 158.09999999999999)" clip-rule="evenodd" fill="url(#emFjrMWOoau37-fill)" fill-rule="evenodd" stroke="none" stroke-width="1"/><rect id="emFjrMWOoau38" width="16.200000" height="16.300000" rx="0" ry="0" transform="matrix(1 0 0 1 279.60000000000002 158.09999999999999)" clip-rule="evenodd" fill="url(#emFjrMWOoau38-fill)" fill-rule="evenodd" stroke="none" stroke-width="1"/><rect id="emFjrMWOoau39" width="16.200000" height="16.300000" rx="0" ry="0" transform="matrix(1 0 0 1 129.19999999999999 158.09999999999999)" clip-rule="evenodd" fill="url(#emFjrMWOoau39-fill)" fill-rule="evenodd" stroke="none" stroke-width="1"/><rect id="emFjrMWOoau40" width="16.200000" height="16.300000" rx="0" ry="0" transform="matrix(1 0 0 1 104.20000000000000 158.09999999999999)" clip-rule="evenodd" fill="url(#emFjrMWOoau40-fill)" fill-rule="evenodd" stroke="none" stroke-width="1"/><rect id="emFjrMWOoau41" width="16.200000" height="16.300000" rx="0" ry="0" transform="matrix(1 0 0 1 54 158.09999999999999)" clip-rule="evenodd" fill="url(#emFjrMWOoau41-fill)" fill-rule="evenodd" stroke="none" stroke-width="1"/><rect id="emFjrMWOoau42" width="16.200000" height="16.300000" rx="0" ry="0" transform="matrix(1 0 0 1 79.09999999999999 158.09999999999999)" clip-rule="evenodd" fill="url(#emFjrMWOoau42-fill)" fill-rule="evenodd" stroke="none" stroke-width="1"/></g><path id="emFjrMWOoau43" d="M58.300000,117.800000L60.100000,117.800000C60.300000,117.800000,60.400000,117.900000,60.500000,118C60.600000,118.100000,60.600000,118.300000,60.600000,118.400000L59.700000,125.900000C59.700000,126.200000,59.400000,126.400000,59.200000,126.400000C58.900000,126.400000,58.700000,126.200000,58.700000,125.900000L57.800000,118.400000C57.800000,118.200000,57.800000,118.100000,57.900000,118C58,117.900000,58.200000,117.800000,58.300000,117.800000ZM339.800000,117.800000L341.600000,117.800000C341.800000,117.800000,341.900000,117.900000,342,118C342.100000,118.100000,342.100000,118.300000,342.100000,118.400000L341.200000,125.900000C341.200000,126.200000,340.900000,126.400000,340.700000,126.400000C340.400000,126.400000,340.200000,126.200000,340.200000,125.900000L339.300000,118.400000C339.300000,118.200000,339.300000,118.100000,339.400000,118C339.500000,117.900000,339.700000,117.800000,339.800000,117.800000L339.800000,117.800000ZM332.400000,117.800000L334.200000,117.800000C334.400000,117.800000,334.500000,117.900000,334.600000,118C334.700000,118.100000,334.700000,118.300000,334.700000,118.400000L333.800000,125.900000C333.800000,126.200000,333.500000,126.400000,333.300000,126.400000C333,126.400000,332.800000,126.200000,332.800000,125.900000L331.900000,118.400000C331.900000,118.200000,331.900000,118.100000,332,118C332.100000,117.900000,332.300000,117.800000,332.400000,117.800000L332.400000,117.800000ZM325,117.800000L326.800000,117.800000C327,117.800000,327.100000,117.900000,327.200000,118C327.300000,118.100000,327.300000,118.300000,327.300000,118.400000L326.400000,125.900000C326.400000,126.200000,326.100000,126.400000,325.900000,126.400000C325.600000,126.400000,325.400000,126.200000,325.400000,125.900000L324.500000,118.400000C324.500000,118.200000,324.500000,118.100000,324.600000,118C324.700000,117.900000,324.900000,117.800000,325,117.800000L325,117.800000ZM317.600000,117.800000L319.400000,117.800000C319.600000,117.800000,319.700000,117.900000,319.800000,118C319.900000,118.100000,319.900000,118.300000,319.900000,118.400000L319,125.900000C319,126.200000,318.700000,126.400000,318.500000,126.400000C318.200000,126.400000,318,126.200000,318,125.900000L317.100000,118.400000C317.100000,118.200000,317.100000,118.100000,317.200000,118C317.300000,117.900000,317.500000,117.800000,317.600000,117.800000L317.600000,117.800000ZM310.200000,117.800000L312,117.800000C312.200000,117.800000,312.300000,117.900000,312.400000,118C312.500000,118.100000,312.500000,118.300000,312.500000,118.400000L311.600000,125.900000C311.600000,126.200000,311.300000,126.400000,311.100000,126.400000C310.800000,126.400000,310.600000,126.200000,310.600000,125.900000L309.700000,118.400000C309.700000,118.200000,309.700000,118.100000,309.800000,118C309.900000,117.900000,310,117.800000,310.200000,117.800000L310.200000,117.800000ZM302.800000,117.800000L304.600000,117.800000C304.800000,117.800000,304.900000,117.900000,305,118C305.100000,118.100000,305.100000,118.300000,305.100000,118.400000L304.200000,125.900000C304.200000,126.200000,303.900000,126.400000,303.700000,126.400000C303.400000,126.400000,303.200000,126.200000,303.200000,125.900000L302.300000,118.400000C302.300000,118.200000,302.300000,118.100000,302.400000,118C302.500000,117.900000,302.600000,117.800000,302.800000,117.800000L302.800000,117.800000ZM295.400000,117.800000L297.200000,117.800000C297.400000,117.800000,297.500000,117.900000,297.600000,118C297.700000,118.100000,297.700000,118.300000,297.700000,118.400000L296.800000,125.900000C296.800000,126.200000,296.500000,126.400000,296.300000,126.400000C296,126.400000,295.800000,126.200000,295.800000,125.900000L294.900000,118.400000C294.900000,118.200000,294.900000,118.100000,295,118C295.100000,117.900000,295.200000,117.800000,295.400000,117.800000L295.400000,117.800000ZM288,117.800000L289.800000,117.800000C290,117.800000,290.100000,117.900000,290.200000,118C290.300000,118.100000,290.300000,118.300000,290.300000,118.400000L289.400000,125.900000C289.400000,126.200000,289.100000,126.400000,288.900000,126.400000C288.600000,126.400000,288.400000,126.200000,288.400000,125.900000L287.500000,118.400000C287.500000,118.200000,287.500000,118.100000,287.600000,118C287.700000,117.900000,287.800000,117.800000,288,117.800000L288,117.800000ZM280.600000,117.800000L282.400000,117.800000C282.600000,117.800000,282.700000,117.900000,282.800000,118C282.900000,118.100000,282.900000,118.300000,282.900000,118.400000L282,125.900000C282,126.200000,281.700000,126.400000,281.500000,126.400000C281.200000,126.400000,281,126.200000,281,125.900000L280.100000,118.400000C280.100000,118.200000,280.100000,118.100000,280.200000,118C280.300000,117.900000,280.400000,117.800000,280.600000,117.800000L280.600000,117.800000ZM273.200000,117.800000L275,117.800000C275.200000,117.800000,275.300000,117.900000,275.400000,118C275.500000,118.100000,275.500000,118.300000,275.500000,118.400000L274.600000,125.900000C274.600000,126.200000,274.300000,126.400000,274.100000,126.400000C273.800000,126.400000,273.600000,126.200000,273.600000,125.900000L272.700000,118.400000C272.700000,118.200000,272.700000,118.100000,272.800000,118C272.900000,117.900000,273,117.800000,273.200000,117.800000L273.200000,117.800000ZM265.800000,117.800000L267.600000,117.800000C267.800000,117.800000,267.900000,117.900000,268,118C268.100000,118.100000,268.100000,118.300000,268.100000,118.400000L267.200000,125.900000C267.200000,126.200000,266.900000,126.400000,266.700000,126.400000C266.400000,126.400000,266.200000,126.200000,266.200000,125.900000L265.300000,118.400000C265.300000,118.200000,265.300000,118.100000,265.400000,118C265.500000,117.900000,265.600000,117.800000,265.800000,117.800000L265.800000,117.800000ZM258.300000,117.800000L260.100000,117.800000C260.300000,117.800000,260.400000,117.900000,260.500000,118C260.600000,118.100000,260.600000,118.300000,260.600000,118.400000L259.700000,125.900000C259.700000,126.200000,259.400000,126.400000,259.200000,126.400000C258.900000,126.400000,258.700000,126.200000,258.700000,125.900000L257.800000,118.400000C257.800000,118.200000,257.800000,118.100000,257.900000,118C258.100000,117.900000,258.200000,117.800000,258.300000,117.800000L258.300000,117.800000ZM250.900000,117.800000L252.700000,117.800000C252.900000,117.800000,253,117.900000,253.100000,118C253.200000,118.100000,253.200000,118.300000,253.200000,118.400000L252.300000,125.900000C252.300000,126.200000,252,126.400000,251.800000,126.400000C251.500000,126.400000,251.300000,126.200000,251.300000,125.900000L250.400000,118.400000C250.400000,118.200000,250.400000,118.100000,250.500000,118C250.700000,117.900000,250.800000,117.800000,250.900000,117.800000L250.900000,117.800000ZM243.500000,117.800000L245.300000,117.800000C245.500000,117.800000,245.600000,117.900000,245.700000,118C245.800000,118.100000,245.800000,118.300000,245.800000,118.400000L244.900000,125.900000C244.900000,126.200000,244.600000,126.400000,244.400000,126.400000C244.200000,126.400000,243.900000,126.200000,243.900000,125.900000L243,118.400000C243,118.200000,243,118.100000,243.100000,118C243.200000,117.900000,243.400000,117.800000,243.500000,117.800000L243.500000,117.800000ZM236.100000,117.800000L237.900000,117.800000C238.100000,117.800000,238.200000,117.900000,238.300000,118C238.400000,118.100000,238.400000,118.300000,238.400000,118.400000L237.500000,125.900000C237.500000,126.200000,237.200000,126.400000,237,126.400000C236.700000,126.400000,236.500000,126.200000,236.500000,125.900000L235.600000,118.400000C235.600000,118.200000,235.600000,118.100000,235.700000,118C235.800000,117.900000,236,117.800000,236.100000,117.800000L236.100000,117.800000ZM228.700000,117.800000L230.500000,117.800000C230.700000,117.800000,230.800000,117.900000,230.900000,118C231,118.100000,231,118.300000,231,118.400000L230.100000,125.900000C230.100000,126.200000,229.800000,126.400000,229.600000,126.400000C229.400000,126.400000,229.100000,126.200000,229.100000,125.900000L228.200000,118.400000C228.200000,118.200000,228.200000,118.100000,228.300000,118C228.400000,117.900000,228.600000,117.800000,228.700000,117.800000L228.700000,117.800000ZM221.300000,117.800000L223.100000,117.800000C223.300000,117.800000,223.400000,117.900000,223.500000,118C223.600000,118.100000,223.600000,118.300000,223.600000,118.400000L222.700000,125.900000C222.700000,126.200000,222.400000,126.400000,222.200000,126.400000C221.900000,126.400000,221.700000,126.200000,221.700000,125.900000L220.800000,118.400000C220.800000,118.200000,220.800000,118.100000,220.900000,118C221,117.900000,221.200000,117.800000,221.300000,117.800000L221.300000,117.800000ZM213.900000,117.800000L215.700000,117.800000C215.900000,117.800000,216,117.900000,216.100000,118C216.200000,118.100000,216.200000,118.300000,216.200000,118.400000L215.300000,125.900000C215.300000,126.200000,215,126.400000,214.800000,126.400000C214.600000,126.400000,214.300000,126.200000,214.300000,125.900000L213.400000,118.400000C213.400000,118.200000,213.400000,118.100000,213.500000,118C213.600000,117.900000,213.700000,117.800000,213.900000,117.800000L213.900000,117.800000ZM206.500000,117.800000L208.300000,117.800000C208.500000,117.800000,208.600000,117.900000,208.700000,118C208.800000,118.100000,208.800000,118.300000,208.800000,118.400000L207.900000,125.900000C207.900000,126.200000,207.600000,126.400000,207.400000,126.400000C207.100000,126.400000,206.900000,126.200000,206.900000,125.900000L206,118.400000C206,118.200000,206,118.100000,206.100000,118C206.200000,117.900000,206.300000,117.800000,206.500000,117.800000L206.500000,117.800000ZM199.100000,117.800000L200.900000,117.800000C201.100000,117.800000,201.200000,117.900000,201.300000,118C201.400000,118.100000,201.400000,118.300000,201.400000,118.400000L200.500000,125.900000C200.500000,126.200000,200.200000,126.400000,200,126.400000C199.800000,126.400000,199.500000,126.200000,199.500000,125.900000L198.600000,118.400000C198.600000,118.200000,198.600000,118.100000,198.700000,118C198.800000,117.900000,198.900000,117.800000,199.100000,117.800000L199.100000,117.800000ZM191.700000,117.800000L193.500000,117.800000C193.700000,117.800000,193.800000,117.900000,193.900000,118C194,118.100000,194,118.300000,194,118.400000L193.100000,125.900000C193.100000,126.200000,192.800000,126.400000,192.600000,126.400000C192.300000,126.400000,192.100000,126.200000,192.100000,125.900000L191.200000,118.400000C191.200000,118.200000,191.200000,118.100000,191.300000,118C191.400000,117.900000,191.500000,117.800000,191.700000,117.800000L191.700000,117.800000ZM184.300000,117.800000L186.100000,117.800000C186.300000,117.800000,186.400000,117.900000,186.500000,118C186.600000,118.100000,186.600000,118.300000,186.600000,118.400000L185.700000,125.900000C185.700000,126.200000,185.400000,126.400000,185.200000,126.400000C184.900000,126.400000,184.700000,126.200000,184.700000,125.900000L183.800000,118.400000C183.800000,118.200000,183.800000,118.100000,183.900000,118C184,117.900000,184.100000,117.800000,184.300000,117.800000L184.300000,117.800000ZM176.900000,117.800000L178.700000,117.800000C178.900000,117.800000,179,117.900000,179.100000,118C179.200000,118.100000,179.200000,118.300000,179.200000,118.400000L178.300000,125.900000C178.300000,126.200000,178,126.400000,177.800000,126.400000C177.500000,126.400000,177.300000,126.200000,177.300000,125.900000L176.400000,118.400000C176.400000,118.200000,176.400000,118.100000,176.500000,118C176.600000,117.900000,176.700000,117.800000,176.900000,117.800000L176.900000,117.800000ZM169.400000,117.800000L171.200000,117.800000C171.400000,117.800000,171.500000,117.900000,171.600000,118C171.700000,118.100000,171.700000,118.300000,171.700000,118.400000L170.800000,125.900000C170.800000,126.200000,170.500000,126.400000,170.300000,126.400000C170,126.400000,169.800000,126.200000,169.800000,125.900000L168.900000,118.400000C168.900000,118.200000,168.900000,118.100000,169,118C169.200000,117.900000,169.300000,117.800000,169.400000,117.800000L169.400000,117.800000ZM162,117.800000L163.800000,117.800000C164,117.800000,164.100000,117.900000,164.200000,118C164.300000,118.100000,164.300000,118.300000,164.300000,118.400000L163.400000,125.900000C163.400000,126.200000,163.100000,126.400000,162.900000,126.400000C162.600000,126.400000,162.400000,126.200000,162.400000,125.900000L161.500000,118.400000C161.500000,118.200000,161.500000,118.100000,161.600000,118C161.800000,117.900000,161.900000,117.800000,162,117.800000L162,117.800000ZM154.600000,117.800000L156.400000,117.800000C156.600000,117.800000,156.700000,117.900000,156.800000,118C156.900000,118.100000,156.900000,118.300000,156.900000,118.400000L156,125.900000C156,126.200000,155.700000,126.400000,155.500000,126.400000C155.200000,126.400000,155,126.200000,155,125.900000L154.100000,118.400000C154.100000,118.200000,154.100000,118.100000,154.200000,118C154.300000,117.900000,154.500000,117.800000,154.600000,117.800000L154.600000,117.800000ZM147.200000,117.800000L149,117.800000C149.200000,117.800000,149.300000,117.900000,149.400000,118C149.500000,118.100000,149.500000,118.300000,149.500000,118.400000L148.600000,125.900000C148.600000,126.200000,148.300000,126.400000,148.100000,126.400000C147.800000,126.400000,147.600000,126.200000,147.600000,125.900000L146.700000,118.400000C146.700000,118.200000,146.700000,118.100000,146.800000,118C146.900000,117.900000,147.100000,117.800000,147.200000,117.800000L147.200000,117.800000ZM139.800000,117.800000L141.600000,117.800000C141.800000,117.800000,141.900000,117.900000,142,118C142.100000,118.100000,142.100000,118.300000,142.100000,118.400000L141.200000,125.900000C141.200000,126.200000,140.900000,126.400000,140.700000,126.400000C140.400000,126.400000,140.200000,126.200000,140.200000,125.900000L139.300000,118.400000C139.300000,118.200000,139.300000,118.100000,139.400000,118C139.500000,117.900000,139.700000,117.800000,139.800000,117.800000L139.800000,117.800000ZM132.400000,117.800000L134.200000,117.800000C134.400000,117.800000,134.500000,117.900000,134.600000,118C134.700000,118.100000,134.700000,118.300000,134.700000,118.400000L133.800000,125.900000C133.800000,126.200000,133.500000,126.400000,133.300000,126.400000C133,126.400000,132.800000,126.200000,132.800000,125.900000L131.900000,118.400000C131.900000,118.200000,131.900000,118.100000,132,118C132.100000,117.900000,132.300000,117.800000,132.400000,117.800000L132.400000,117.800000ZM125,117.800000L126.800000,117.800000C127,117.800000,127.100000,117.900000,127.200000,118C127.300000,118.100000,127.300000,118.300000,127.300000,118.400000L126.400000,125.900000C126.400000,126.200000,126.100000,126.400000,125.900000,126.400000C125.600000,126.400000,125.400000,126.200000,125.400000,125.900000L124.500000,118.400000C124.500000,118.200000,124.500000,118.100000,124.600000,118C124.700000,117.900000,124.800000,117.800000,125,117.800000L125,117.800000ZM117.600000,117.800000L119.400000,117.800000C119.600000,117.800000,119.700000,117.900000,119.800000,118C119.900000,118.100000,119.900000,118.300000,119.900000,118.400000L119,125.900000C119,126.200000,118.700000,126.400000,118.500000,126.400000C118.300000,126.400000,118,126.200000,118,125.900000L117.100000,118.400000C117.100000,118.200000,117.100000,118.100000,117.200000,118C117.300000,117.900000,117.400000,117.800000,117.600000,117.800000ZM110.200000,117.800000L112,117.800000C112.200000,117.800000,112.300000,117.900000,112.400000,118C112.500000,118.100000,112.500000,118.300000,112.500000,118.400000L111.600000,125.900000C111.600000,126.200000,111.300000,126.400000,111.100000,126.400000C110.800000,126.400000,110.600000,126.200000,110.600000,125.900000L109.700000,118.400000C109.700000,118.200000,109.700000,118.100000,109.800000,118C109.900000,117.900000,110,117.800000,110.200000,117.800000L110.200000,117.800000ZM102.800000,117.800000L104.600000,117.800000C104.800000,117.800000,104.900000,117.900000,105,118C105.100000,118.100000,105.100000,118.300000,105.100000,118.400000L104.200000,125.900000C104.200000,126.200000,103.900000,126.400000,103.700000,126.400000C103.500000,126.400000,103.200000,126.200000,103.200000,125.900000L102.300000,118.400000C102.300000,118.200000,102.300000,118.100000,102.400000,118C102.500000,117.900000,102.600000,117.800000,102.800000,117.800000ZM95.400000,117.800000L97.200000,117.800000C97.400000,117.800000,97.500000,117.900000,97.600000,118C97.700000,118.100000,97.700000,118.300000,97.700000,118.400000L96.800000,125.900000C96.800000,126.200000,96.500000,126.400000,96.300000,126.400000C96,126.400000,95.800000,126.200000,95.800000,125.900000L94.900000,118.400000C94.900000,118.200000,94.900000,118.100000,95,118C95.100000,117.900000,95.200000,117.800000,95.400000,117.800000L95.400000,117.800000ZM88,117.800000L89.800000,117.800000C90,117.800000,90.100000,117.900000,90.200000,118C90.300000,118.100000,90.300000,118.300000,90.300000,118.400000L89.400000,125.900000C89.400000,126.200000,89.100000,126.400000,88.900000,126.400000C88.700000,126.400000,88.400000,126.200000,88.400000,125.900000L87.500000,118.400000C87.500000,118.200000,87.500000,118.100000,87.600000,118C87.700000,117.900000,87.800000,117.800000,88,117.800000ZM80.600000,117.800000L82.400000,117.800000C82.600000,117.800000,82.700000,117.900000,82.800000,118C82.900000,118.100000,82.900000,118.300000,82.900000,118.400000L82,125.900000C82,126.200000,81.700000,126.400000,81.500000,126.400000C81.200000,126.400000,81,126.200000,81,125.900000L80.100000,118.400000C80.100000,118.200000,80.100000,118.100000,80.200000,118C80.300000,117.900000,80.400000,117.800000,80.600000,117.800000ZM73.100000,117.800000L75,117.800000C75.200000,117.800000,75.300000,117.900000,75.400000,118C75.500000,118.100000,75.500000,118.300000,75.500000,118.400000L74.600000,125.900000C74.600000,126.200000,74.300000,126.400000,74.100000,126.400000C73.800000,126.400000,73.600000,126.200000,73.600000,125.900000L72.700000,118.400000C72.700000,118.200000,72.700000,118.100000,72.800000,118C72.900000,117.900000,73,117.800000,73.100000,117.800000ZM65.700000,117.800000L67.500000,117.800000C67.700000,117.800000,67.800000,117.900000,67.900000,118C68,118.100000,68,118.300000,68,118.400000L67.100000,125.900000C67.100000,126.200000,66.800000,126.400000,66.600000,126.400000C66.300000,126.400000,66.100000,126.200000,66.100000,125.900000L65.200000,118.400000C65.200000,118.200000,65.200000,118.100000,65.300000,118C65.500000,117.900000,65.600000,117.800000,65.700000,117.800000Z" clip-rule="evenodd" fill="url(#emFjrMWOoau43-fill)" fill-rule="evenodd" stroke="none" stroke-width="1"/><g id="emFjrMWOoau44"><polygon id="emFjrMWOoau45" points="362.800000,135.600000 303.600000,135.600000 245,123.500000 155,123.500000 96.400000,135.600000 37.200000,135.600000 37.200000,142.400000 362.800000,142.400000" clip-rule="evenodd" fill="rgb(214,177,135)" fill-rule="evenodd" stroke="none" stroke-width="1"/><rect id="emFjrMWOoau46" width="106.300000" height="39.200000" rx="0" ry="0" transform="matrix(1 0 0 1 146.90000000000001 94)" clip-rule="evenodd" fill="rgb(232,204,169)" fill-rule="evenodd" stroke="none" stroke-width="1"/><path id="emFjrMWOoau47" d="M243,104.300000L157,104.300000L157,123L243,123L243,104.300000ZM155.200000,100.600000L246.700000,100.600000L246.700000,126.700000L153.300000,126.700000L153.300000,100.600000L155.200000,100.600000L155.200000,100.600000Z" fill="rgb(225,192,151)" stroke="none" stroke-width="1"/></g><g id="emFjrMWOoau48"><rect id="emFjrMWOoau49" width="85.400000" height="6.600000" rx="0" ry="0" transform="matrix(1 0 0 1 157.30000000000001 87.40000000000001)" clip-rule="evenodd" fill="rgb(225,192,151)" fill-rule="evenodd" stroke="none" stroke-width="1"/><polygon id="emFjrMWOoau50" points="177.700000,87.400000 222.300000,87.400000 200,48.800000" clip-rule="evenodd" fill="url(#emFjrMWOoau50-fill)" fill-rule="evenodd" stroke="none" stroke-width="1"/><path id="emFjrMWOoau51" d="M201.300000,77.300000L231.400000,59.900000C232.500000,59.300000,233.700000,59.500000,234.600000,60.300000L240.300000,66C241.200000,66.900000,241.300000,68.200000,240.700000,69.200000L239,72.100000C238.400000,73.200000,237.200000,73.700000,236,73.300000L233.900000,72.700000C232.500000,72.300000,231,73.200000,230.600000,74.600000L227.700000,87.400000C209.200000,87.400000,190.600000,87.400000,172.100000,87.400000L169.200000,74.600000C168.800000,73.200000,167.400000,72.300000,165.900000,72.700000L163.800000,73.300000C162.600000,73.600000,161.400000,73.100000,160.800000,72.100000L159.100000,69.200000C158.500000,68.100000,158.700000,66.900000,159.500000,66L165.200000,60.300000C166.100000,59.400000,167.400000,59.300000,168.400000,59.900000L198.500000,77.300000C199.500000,77.800000,200.400000,77.800000,201.300000,77.300000L201.300000,77.300000Z" clip-rule="evenodd" fill="rgb(195,160,120)" fill-rule="evenodd" stroke="none" stroke-width="1"/><circle id="emFjrMWOoau52" r="11" transform="matrix(1 0 0 1 200 48.80000000000000)" clip-rule="evenodd" fill="rgb(232,204,169)" fill-rule="evenodd" stroke="none" stroke-width="1"/></g></g></svg>