<svg id="s1" xmlns="http://www.w3.org/2000/svg" xmlns:xlink="http://www.w3.org/1999/xlink" viewBox="0 0 400 400"><g id="s3"><g id="s5"><path id="s7" d="M99.360000,93.140000L102.820000,119C103.024348,120.496964,104.109306,121.723953,105.570000,122.110000C111.354045,123.645504,115.644167,128.513189,116.440821,134.444318C117.237474,140.375447,114.383862,146.202659,109.210000,149.210000C107.900934,149.954039,107.173328,151.417161,107.370000,152.910000C115.050000,210.210000,130.730000,327.310000,130.730000,327.310000C131.351130,331.846227,135.520684,335.028137,140.060000,334.430000L234.570000,321.760000C239.101799,321.138754,242.282165,316.975690,241.690000,312.440000L218.320000,138.070000C218.115652,136.573036,217.030694,135.346047,215.570000,134.960000C209.781477,133.425456,205.488168,128.553839,204.693411,122.618337C203.898653,116.682835,206.759095,110.853339,211.940000,107.850000C213.248017,107.090998,213.970220,105.618968,213.770000,104.120000L210.310000,78.270000C209.688646,73.742623,205.532062,70.563796,201,71.150000L106.480000,83.820000C101.948201,84.441246,98.767835,88.604310,99.360000,93.140000Z" fill="rgb(255,165,61)" stroke="none" stroke-width="1"/><line id="s9" x1="133.090000" y1="132.220000" x2="183.930000" y2="125.400000" fill="none" stroke="rgb(235,147,47)" stroke-width="10" stroke-linecap="round" stroke-miterlimit="10"/></g><g id="s11"><path id="s13" d="M234.190000,55.500000L222.270000,78.700000C221.579528,80.046961,221.769011,81.677301,222.750000,82.830000C226.617992,87.394109,227.357716,93.838083,224.624566,99.159958C221.891415,104.481832,216.223006,107.634787,210.260000,107.150000C208.758602,107.017096,207.326658,107.808225,206.640000,109.150000C180.210000,160.570000,126.180000,265.630000,126.180000,265.630000C124.100893,269.707002,125.704894,274.697727,129.770000,276.800000L214.570000,320.400000C218.647002,322.479107,223.637727,320.875106,225.740000,316.810000L306.170000,160.350000C306.860472,159.003039,306.670989,157.372699,305.690000,156.220000C301.820249,151.654535,301.081017,145.207798,303.816891,139.884882C306.552765,134.561966,312.225185,131.410692,318.190000,131.900000C319.696020,132.030204,321.132343,131.241016,321.830000,129.900000L333.760000,106.700000C335.839107,102.622998,334.235106,97.632273,330.170000,95.530000L245.370000,51.930000C241.295850,49.841179,236.299614,51.436578,234.190000,55.500000Z" fill="rgb(255,200,117)" stroke="none" stroke-width="1"/><line id="s15" x1="239.710000" y1="106.930000" x2="288.900000" y2="132.220000" fill="none" stroke="rgb(255,165,61)" stroke-width="10" stroke-linecap="round" stroke-miterlimit="10"/></g><g id="s17"><path id="s19" d="M99.280000,144.210000L255.070000,144.210000C262.531367,144.210000,268.580000,150.258633,268.580000,157.720000L268.580000,359.490000C268.580000,366.951367,262.531367,373,255.070000,373L99.280000,373L99.280000,144.210000Z" fill="rgb(112,71,140)" stroke="none" stroke-width="1"/><g id="s21"><circle id="s23" r="55.780000" transform="translate(183.930000,258.570000)" fill="none" stroke="rgb(255,200,117)" stroke-width="7" stroke-miterlimit="10"/><path id="s25" d="M142.220000,221.560000C152.440000,227.390000,167.340000,231.060000,183.930000,231.060000C200.520000,231.060000,215.420000,227.390000,225.640000,221.560000" fill="none" stroke="rgb(255,200,117)" stroke-width="7" stroke-miterlimit="10"/><path id="s27" d="M142.780000,295.330000C152.980000,289.680000,167.640000,286.140000,183.930000,286.140000C200.500000,286.140000,215.380000,289.800000,225.600000,295.620000" fill="none" stroke="rgb(255,200,117)" stroke-width="7" stroke-miterlimit="10"/><ellipse id="s29" rx="29.930000" ry="55.780000" transform="translate(183.930000,258.570000)" fill="none" stroke="rgb(255,200,117)" stroke-width="7" stroke-miterlimit="10"/><line id="s31" x1="183.930000" y1="202.790000" x2="183.930000" y2="314.420000" fill="none" stroke="rgb(255,200,117)" stroke-width="7" stroke-miterlimit="10"/><line id="s33" x1="128.120000" y1="258.600000" x2="239.750000" y2="258.600000" fill="none" stroke="rgb(255,200,117)" stroke-width="7" stroke-miterlimit="10"/></g></g></g></svg>