<svg id="s1" xmlns="http://www.w3.org/2000/svg" xmlns:xlink="http://www.w3.org/1999/xlink" viewBox="0 0 400 400"><g id="s3"><g id="s5"><rect id="s7" width="26.900000" height="45.870000" rx="0" ry="0" transform="translate(186.670000,66.390000)" fill="rgb(255,200,117)" stroke="none" stroke-width="1"/><rect id="s9" width="50.720000" height="23.720000" rx="6.610000" ry="6.610000" transform="translate(174.760000,51.770000)" fill="rgb(217,92,38)" stroke="none" stroke-width="1"/></g><g id="s11"><circle id="s13" r="125.780000" transform="translate(200,222.450000)" fill="rgb(255,165,61)" stroke="none" stroke-width="1"/><circle id="s15" r="89.980000" transform="translate(200,222.450000)" fill="rgb(255,226,196)" stroke="none" stroke-width="1"/></g><g id="s17"><line id="s19" x1="199.970000" y1="149.440000" x2="199.970000" y2="159.770000" fill="none" stroke="rgb(217,92,38)" stroke-width="10" stroke-linecap="round" stroke-miterlimit="10"/><line id="s21" x1="148.350000" y1="170.840000" x2="155.660000" y2="178.150000" fill="none" stroke="rgb(255,165,61)" stroke-width="10" stroke-linecap="round" stroke-miterlimit="10"/><line id="s23" x1="126.990000" y1="222.480000" x2="137.320000" y2="222.480000" fill="none" stroke="rgb(217,92,38)" stroke-width="10" stroke-linecap="round" stroke-miterlimit="10"/><line id="s25" x1="148.390000" y1="274.100000" x2="155.700000" y2="266.790000" fill="none" stroke="rgb(255,165,61)" stroke-width="10" stroke-linecap="round" stroke-miterlimit="10"/><line id="s27" x1="200.030000" y1="295.460000" x2="200.030000" y2="285.130000" fill="none" stroke="rgb(217,92,38)" stroke-width="10" stroke-linecap="round" stroke-miterlimit="10"/><line id="s29" x1="251.650000" y1="274.060000" x2="244.340000" y2="266.750000" fill="none" stroke="rgb(255,165,61)" stroke-width="10" stroke-linecap="round" stroke-miterlimit="10"/><line id="s31" x1="273.010000" y1="222.420000" x2="262.680000" y2="222.420000" fill="none" stroke="rgb(217,92,38)" stroke-width="10" stroke-linecap="round" stroke-miterlimit="10"/><line id="s33" x1="251.610000" y1="170.800000" x2="244.300000" y2="178.110000" fill="none" stroke="rgb(255,165,61)" stroke-width="10" stroke-linecap="round" stroke-miterlimit="10"/></g><path id="s35" d="M247,173.440000L186.490000,208.150000C186.145637,208.349487,185.859487,208.635637,185.660000,208.980000L151,269.500000C150.150000,270.990000,151.470000,272.310000,153,271.500000L213.510000,236.790000C213.854363,236.590513,214.140513,236.304363,214.340000,235.960000L249,175.400000C249.860000,173.910000,248.540000,172.590000,247,173.440000Z" fill="rgb(217,92,38)" stroke="none" stroke-width="1"/><circle id="s37" r="10.450000" transform="translate(-98.720000,206.580000) rotate(-45) scale(1,1) translate(200,222.450000)" fill="rgb(255,226,196)" stroke="none" stroke-width="1"/></g></svg>