<svg id="s1" xmlns="http://www.w3.org/2000/svg" xmlns:xlink="http://www.w3.org/1999/xlink" viewBox="0 0 400 400"><g id="s3"><path id="s5" d="M207.350000,239.650000L171.730000,193L194.070000,193C195.506079,193.001373,196.839253,192.254875,197.588592,191.029797C198.337931,189.804720,198.395299,188.277852,197.740000,187L151.590000,104.780000C150.886284,103.400605,149.468530,102.532298,147.920000,102.532298C146.371470,102.532298,144.953716,103.400605,144.250000,104.780000L98.090000,187C97.434701,188.277852,97.492069,189.804720,98.241408,191.029797C98.990747,192.254875,100.323921,193.001373,101.760000,193L124.100000,193L88.480000,239.650000C87.528662,240.896179,87.367058,242.574304,88.063103,243.979127C88.759148,245.383950,90.192198,246.271975,91.760000,246.270000L122.250000,246.270000L118.850000,273.210000C118.700584,274.384368,119.063552,275.566264,119.846360,276.454340C120.629168,277.342415,121.756165,277.850847,122.940000,277.850000L172.940000,277.850000C174.123835,277.850847,175.250832,277.342415,176.033640,276.454340C176.816448,275.566264,177.179416,274.384368,177.030000,273.210000L173.630000,246.270000L204.120000,246.270000C205.678790,246.253114,207.094561,245.357890,207.778136,243.956878C208.461712,242.555865,208.296015,240.889019,207.350000,239.650000Z" fill="rgb(28,128,100)" stroke="none" stroke-width="1"/><path id="s7" d="M364.600000,190.640000L337.600000,155.260000L354.550000,155.260000C355.638934,155.260224,356.649723,154.694478,357.218950,153.766169C357.788177,152.837860,357.834021,151.680422,357.340000,150.710000L322.340000,88.350000C321.804209,87.305440,320.728958,86.648522,319.555000,86.648522C318.381042,86.648522,317.305791,87.305440,316.770000,88.350000L281.770000,150.710000C281.275979,151.680422,281.321823,152.837860,281.891050,153.766169C282.460277,154.694478,283.471066,155.260224,284.560000,155.260000L301.510000,155.260000L274.510000,190.640000C273.805911,191.584941,273.692224,192.845254,274.215845,193.900941C274.739466,194.956628,275.811642,195.628753,276.990000,195.640000L300,195.640000L297.420000,216.070000C297.308217,216.960124,297.583750,217.855424,298.176668,218.528673C298.769586,219.201922,299.622886,219.588393,300.520000,219.590000L338.420000,219.590000C339.317114,219.588393,340.170414,219.201922,340.763332,218.528673C341.356250,217.855424,341.631783,216.960124,341.520000,216.070000L339,195.670000L362.120000,195.670000C363.309203,195.667211,364.394102,194.990749,364.919986,193.924138C365.445869,192.857527,365.321886,191.585036,364.600000,190.640000Z" fill="rgb(130,181,14)" stroke="none" stroke-width="1"/><path id="s9" d="M165.870000,241.130000L124.710000,187.250000L150.520000,187.250000C152.178548,187.251188,153.718135,186.388990,154.583728,184.974236C155.449320,183.559481,155.516103,181.796174,154.760000,180.320000L101.450000,85.320000C100.636932,83.726436,98.999002,82.723331,97.210000,82.723331C95.420998,82.723331,93.783068,83.726436,92.970000,85.320000L39.660000,180.320000C38.903897,181.796174,38.970680,183.559481,39.836272,184.974236C40.701865,186.388990,42.241452,187.251188,43.900000,187.250000L69.700000,187.250000L28.550000,241.130000C27.450931,242.568396,27.262880,244.505711,28.064794,246.128631C28.866707,247.751552,30.519769,248.779140,32.330000,248.780000L67.550000,248.780000L63.630000,279.900000C63.457733,281.255747,63.876505,282.620134,64.779695,283.645791C65.682885,284.671448,66.983353,285.259416,68.350000,285.260000L126.070000,285.260000C127.436647,285.259416,128.737115,284.671448,129.640305,283.645791C130.543495,282.620134,130.962267,281.255747,130.790000,279.900000L126.870000,248.780000L162.090000,248.780000C163.900231,248.779140,165.553293,247.751552,166.355206,246.128631C167.157120,244.505711,166.969069,242.568396,165.870000,241.130000Z" fill="rgb(84,168,91)" stroke="none" stroke-width="1"/><g id="s11"><path id="s13" d="M276,167.930000L171,167.930000L171,335L340.760000,335C341.983389,334.999518,343.126554,334.391096,343.810249,333.376581C344.493944,332.362066,344.628771,331.074112,344.170000,329.940000L279.460000,170.220000C278.887951,168.817263,277.514742,167.908405,276,167.930000Z" fill="rgb(103,85,158)" stroke="none" stroke-width="1"/><line id="s15" x1="80.460000" y1="318.700000" x2="84.290000" y2="332.710000" fill="none" stroke="rgb(122,108,166)" stroke-width="10" stroke-linecap="round" stroke-miterlimit="10"/><line id="s17" x1="372.440000" y1="318.700000" x2="368.600000" y2="332.710000" fill="none" stroke="rgb(122,108,166)" stroke-width="10" stroke-linecap="round" stroke-miterlimit="10"/><line id="s19" x1="84.290000" y1="332.710000" x2="106.670000" y2="291.580000" fill="none" stroke="rgb(122,108,166)" stroke-width="10" stroke-linecap="round" stroke-miterlimit="10"/><line id="s21" x1="368.600000" y1="332.710000" x2="346.230000" y2="291.580000" fill="none" stroke="rgb(122,108,166)" stroke-width="10" stroke-linecap="round" stroke-miterlimit="10"/><path id="s23" d="M352.470000,291.520000L285,168.720000C284.397079,167.632718,283.243052,166.967228,282,166.990000L171.150000,166.990000C170.015213,167.055392,168.992757,167.696785,168.440000,168.690000L100.440000,291.460000C99.879484,292.499365,99.915141,293.758625,100.533573,294.764607C101.152004,295.770589,102.259533,296.370911,103.440000,296.340000L349.440000,296.340000C350.612794,296.382280,351.719314,295.796648,352.343889,294.803099C352.968465,293.809550,353.016519,292.558533,352.470000,291.520000Z" fill="rgb(255,165,61)" stroke="none" stroke-width="1"/><path id="s25" d="M168.160000,196.500000L103.380000,330.090000C102.870637,331.143479,102.938799,332.384862,103.560442,333.376239C104.182085,334.367617,105.269842,334.969663,106.440000,334.970000L236,334.970000C237.170158,334.969663,238.257915,334.367617,238.879558,333.376239C239.501201,332.384862,239.569363,331.143479,239.060000,330.090000L174.280000,196.500000C173.711906,195.327033,172.523297,194.582026,171.220000,194.582026C169.916703,194.582026,168.728094,195.327033,168.160000,196.500000Z" fill="rgb(240,139,19)" stroke="none" stroke-width="1"/><line id="s27" x1="171.220000" y1="167.930000" x2="171.220000" y2="334.980000" fill="none" stroke="rgb(91,74,143)" stroke-width="9" stroke-linecap="round" stroke-miterlimit="10"/></g></g></svg>