<svg id="evQTUqNxOXl1" xmlns="http://www.w3.org/2000/svg" xmlns:xlink="http://www.w3.org/1999/xlink" viewBox="0 0 400 400" shape-rendering="geometricPrecision" text-rendering="geometricPrecision"><defs><linearGradient id="evQTUqNxOXl24-fill" x1="155.171608" y1="366.423115" x2="155.171608" y2="107.526083" spreadMethod="pad" gradientUnits="userSpaceOnUse"><stop id="evQTUqNxOXl24-fill-0" offset="0%" stop-color="rgb(99,107,110)"/><stop id="evQTUqNxOXl24-fill-1" offset="100%" stop-color="rgb(255,255,255)"/></linearGradient></defs><polygon id="evQTUqNxOXl2" points="294.400000,375 105.600000,375 105.600000,366.400000 294.400000,366.400000" fill="rgb(255,204,153)" stroke="none" stroke-width="1"/><g id="evQTUqNxOXl3"><path id="evQTUqNxOXl4" d="M251.100000,366.400000L139.600000,366.400000L139.600000,356.300000L253.200000,356.300000C252.600000,359.700000,251.900000,363,251.100000,366.400000Z" fill="rgb(99,107,110)" stroke="none" stroke-width="1"/><path id="evQTUqNxOXl5" d="M256.200000,337.700000L139.600000,337.700000L139.600000,327L257.400000,327C257.100000,330.500000,256.700000,334.100000,256.200000,337.700000Z" fill="rgb(99,107,110)" stroke="none" stroke-width="1"/><path id="evQTUqNxOXl6" d="M258.500000,308.300000L139.600000,308.300000L139.600000,297.600000L258.600000,297.600000C258.600000,301.100000,258.600000,304.700000,258.500000,308.300000L258.500000,308.300000Z" fill="rgb(99,107,110)" stroke="none" stroke-width="1"/><path id="evQTUqNxOXl7" d="M257.800000,278.900000L139.600000,278.900000L139.600000,268.200000L256.600000,268.200000C257.100000,271.700000,257.500000,275.300000,257.800000,278.900000Z" fill="rgb(99,107,110)" stroke="none" stroke-width="1"/><path id="evQTUqNxOXl8" d="M253.700000,249.500000L139.700000,249.500000L139.700000,238.800000L251.400000,238.800000C252.200000,242.300000,253,245.900000,253.700000,249.500000Z" fill="rgb(99,107,110)" stroke="none" stroke-width="1"/><path id="evQTUqNxOXl9" d="M246,220.100000L139.600000,220.100000L139.600000,209.400000L242.200000,209.400000C243.500000,213,244.800000,216.500000,246,220.100000Z" fill="rgb(99,107,110)" stroke="none" stroke-width="1"/><path id="evQTUqNxOXl10" d="M234.300000,190.700000L139.600000,190.700000L139.600000,180L229,180C230.800000,183.600000,232.600000,187.100000,234.300000,190.700000Z" fill="rgb(99,107,110)" stroke="none" stroke-width="1"/></g><g id="evQTUqNxOXl11"><path id="evQTUqNxOXl12" d="M227.600000,180.300000L179.400000,180.300000L179.400000,161L216,161C220.200000,167.400000,224.100000,173.800000,227.600000,180.300000L227.600000,180.300000Z" fill="rgb(154,187,204)" stroke="none" stroke-width="1"/><path id="evQTUqNxOXl13" d="M241.500000,209.700000L179.400000,209.700000L179.400000,190.400000L232.900000,190.400000C236.100000,196.800000,238.900000,203.200000,241.500000,209.700000L241.500000,209.700000Z" fill="rgb(214,228,235)" stroke="none" stroke-width="1"/><path id="evQTUqNxOXl14" d="M251,239.100000L179.400000,239.100000L179.400000,219.800000L245.200000,219.800000C245.700000,221.100000,246.100000,222.500000,246.600000,223.800000C248.200000,228.900000,249.700000,234,251,239.100000Z" fill="rgb(154,187,204)" stroke="none" stroke-width="1"/><path id="evQTUqNxOXl15" d="M256.600000,268.500000L179.400000,268.500000L179.400000,249.200000L253.300000,249.200000C254.700000,255.600000,255.800000,262,256.600000,268.500000Z" fill="rgb(214,228,235)" stroke="none" stroke-width="1"/><path id="evQTUqNxOXl16" d="M258.600000,297.900000L179.400000,297.900000L179.400000,278.600000L257.700000,278.600000C258.300000,284.900000,258.500000,291.400000,258.600000,297.900000Z" fill="rgb(154,187,204)" stroke="none" stroke-width="1"/><path id="evQTUqNxOXl17" d="M257.300000,327.300000L179.400000,327.300000L179.400000,308L258.500000,308C258.300000,314.300000,257.900000,320.800000,257.300000,327.300000Z" fill="rgb(214,228,235)" stroke="none" stroke-width="1"/><path id="evQTUqNxOXl18" d="M252.900000,356.700000L179.400000,356.700000L179.400000,337.400000L256.100000,337.400000C255.300000,343.700000,254.200000,350.200000,252.900000,356.700000L252.900000,356.700000Z" fill="rgb(154,187,204)" stroke="none" stroke-width="1"/></g><path id="evQTUqNxOXl19" d="M174.200000,92.300000C215.400000,131.700000,243.400000,174.200000,258.300000,219.900000C273.300000,265.700000,275,314.600000,263.500000,366.500000L250.400000,366.500000C262.100000,315.900000,260.600000,268.300000,246.100000,223.900000C231.200000,178.400000,202.500000,135.900000,160,96.700000L164,92.400000L174.200000,92.300000L174.200000,92.300000Z" fill="rgb(255,255,255)" stroke="none" stroke-width="1"/><polygon id="evQTUqNxOXl20" points="256.600000,160.700000 242.500000,160.700000 225.200000,190.700000 232.600000,160.700000 129.600000,160.700000 137.400000,191.400000 119.700000,160.700000 105.600000,160.700000 105.600000,152.100000 256.600000,152.100000" fill="rgb(77,84,87)" stroke="none" stroke-width="1"/><g id="evQTUqNxOXl21"><polygon id="evQTUqNxOXl22" points="159.200000,92.300000 159.200000,366.400000 133.500000,366.400000 133.500000,92.300000" fill="rgb(255,255,255)" stroke="none" stroke-width="1"/><path id="evQTUqNxOXl23" d="M163.600000,92.300000C200.600000,139.300000,224.700000,186,235.900000,232.200000C246.900000,277.400000,245.600000,322.100000,232.100000,366.400000L218.700000,366.400000C232.600000,323.100000,234.200000,279.300000,223.500000,235.200000C212.400000,189.600000,188.200000,143.400000,150.800000,96.700000L156.400000,92.300000L163.600000,92.300000L163.600000,92.300000Z" fill="rgb(255,255,255)" stroke="none" stroke-width="1"/><polygon id="evQTUqNxOXl24" points="159.200000,107.500000 159.200000,366.400000 151.100000,366.400000 151.100000,107.500000" fill="url(#evQTUqNxOXl24-fill)" stroke="none" stroke-width="1"/><g id="evQTUqNxOXl25"><polygon id="evQTUqNxOXl26" points="148.500000,25 148.500000,85.800000 144.200000,85.800000 144.200000,29.300000" fill="rgb(77,84,87)" stroke="none" stroke-width="1"/><polygon id="evQTUqNxOXl27" points="159.200000,92.300000 133.500000,92.300000 133.500000,79.400000 159.200000,79.400000" fill="rgb(99,107,110)" stroke="none" stroke-width="1"/></g></g></svg>