<svg id="s1" xmlns="http://www.w3.org/2000/svg" xmlns:xlink="http://www.w3.org/1999/xlink" viewBox="0 0 400 400"><g id="s3"><path id="s5" d="M106.470000,247.270000L106.470000,234.420000C106.466919,231.509954,108.708266,229.089822,111.610000,228.870000L239.820000,219.110000C241.489835,218.982386,243.128239,219.614237,244.280000,220.830000L267.680000,245.480000" fill="rgb(225,241,247)" stroke="none" stroke-width="1"/><path id="s7" d="M106.470000,260L106.470000,239.100000L260.930000,227.340000C262.907085,227.178944,264.852200,227.912950,266.230000,229.340000L293.290000,257.850000" fill="rgb(183,215,227)" stroke="none" stroke-width="1"/><path id="s9" d="M271.180000,234.590000C199.880000,238.590000,207.180000,238.060000,199.880000,238.590000C192.580000,239.120000,178,239.210000,183.180000,256.330000C183.632626,257.514252,184.494768,258.497023,185.610000,259.100000L293.290000,257.900000Z" fill="rgb(112,192,219)" stroke="none" stroke-width="1"/><line id="s11" x1="211.670000" y1="234.580000" x2="218.840000" y2="259.960000" fill="none" stroke="rgb(183,215,227)" stroke-width="4" stroke-miterlimit="10"/><line id="s13" x1="241.880000" y1="234.150000" x2="253.120000" y2="259.980000" fill="none" stroke="rgb(183,215,227)" stroke-width="4" stroke-miterlimit="10"/><path id="s15" d="M93.800000,260.130000L93.800000,267.300000L54.880000,267.300000C53.135805,267.299249,51.448344,267.919639,50.120000,269.050000L15.500000,298.550000L28.500000,317.280000C29.676698,318.972900,31.608319,319.981677,33.670000,319.980000L290.360000,319.980000C329.800000,304.540000,362.040000,283.340000,383.610000,258.440000C384.520135,257.358469,384.723986,255.848673,384.133266,254.564498C383.542545,253.280323,382.263469,252.452673,380.850000,252.440000L101.520000,252.440000C97.268050,252.439968,93.816523,255.878082,93.800000,260.130000Z" fill="rgb(225,241,247)" stroke="none" stroke-width="1"/><path id="s17" d="M22,293.060000L15.550000,298.560000L28.550000,317.290000C29.726698,318.982900,31.658319,319.991677,33.720000,319.990000L290.360000,319.990000C308.864588,312.859967,326.582171,303.835293,343.230000,293.060000Z" fill="rgb(75,141,148)" stroke="none" stroke-width="1"/><path id="s19" d="M375.340000,267.300000L54.880000,267.300000C53.135805,267.299249,51.448344,267.919639,50.120000,269.050000L15.500000,298.550000L334.500000,298.550000C349.329348,289.826733,363.043272,279.333097,375.340000,267.300000Z" fill="rgb(95,193,183)" stroke="none" stroke-width="1"/><path id="s21" d="M117.370000,276.620000L41.240000,276.620000L26.440000,289.230000L117.370000,289.230000C120.754527,289.095184,123.428853,286.312211,123.428853,282.925000C123.428853,279.537789,120.754527,276.754816,117.370000,276.620000Z" fill="rgb(123,222,211)" stroke="none" stroke-width="1"/></g></svg>