<svg id="ewi0Ja9Tf5k1" xmlns="http://www.w3.org/2000/svg" xmlns:xlink="http://www.w3.org/1999/xlink" viewBox="0 0 400 400" shape-rendering="geometricPrecision" text-rendering="geometricPrecision"><defs><linearGradient id="ewi0Ja9Tf5k3-fill" x1="313.814084" y1="161.735659" x2="296.053344" y2="316.677457" spreadMethod="pad" gradientUnits="userSpaceOnUse"><stop id="ewi0Ja9Tf5k3-fill-0" offset="0%" stop-color="rgb(165,131,93)"/><stop id="ewi0Ja9Tf5k3-fill-1" offset="100%" stop-color="rgb(140,109,78)"/></linearGradient><linearGradient id="ewi0Ja9Tf5k4-fill" x1="302.173487" y1="206.546026" x2="332.879562" y2="315.628498" spreadMethod="pad" gradientUnits="userSpaceOnUse"><stop id="ewi0Ja9Tf5k4-fill-0" offset="0%" stop-color="rgb(122,96,71)"/><stop id="ewi0Ja9Tf5k4-fill-1" offset="100%" stop-color="rgb(99,74,47)"/></linearGradient><linearGradient id="ewi0Ja9Tf5k7-fill" x1="127.745434" y1="86.500838" x2="158.053925" y2="317.831776" spreadMethod="pad" gradientUnits="userSpaceOnUse"><stop id="ewi0Ja9Tf5k7-fill-0" offset="0%" stop-color="rgb(225,192,151)"/><stop id="ewi0Ja9Tf5k7-fill-1" offset="100%" stop-color="rgb(186,147,102)"/></linearGradient><linearGradient id="ewi0Ja9Tf5k8-fill" x1="139.585486" y1="211.769617" x2="149.967729" y2="317.847679" spreadMethod="pad" gradientUnits="userSpaceOnUse"><stop id="ewi0Ja9Tf5k8-fill-0" offset="0%" stop-color="rgb(156,129,103)"/><stop id="ewi0Ja9Tf5k8-fill-1" offset="100%" stop-color="rgb(128,100,69)"/></linearGradient><linearGradient id="ewi0Ja9Tf5k9-fill" x1="130.433102" y1="83.073664" x2="121.861854" y2="316.878237" spreadMethod="pad" gradientUnits="userSpaceOnUse"><stop id="ewi0Ja9Tf5k9-fill-0" offset="0%" stop-color="rgb(255,220,184)"/><stop id="ewi0Ja9Tf5k9-fill-1" offset="100%" stop-color="rgb(222,188,147)"/></linearGradient></defs><g id="ewi0Ja9Tf5k2"><path id="ewi0Ja9Tf5k3" d="M261.300000,316.900000L229.200000,211.400000L264.700000,188.200000L291.700000,183.100000L320,164L375,160.900000L375,317L261.300000,317L261.300000,316.900000ZM268.300000,230.500000L252.100000,230.500000L252.100000,209.600000C252.100000,205.100000,255.700000,201.500000,260.200000,201.500000L260.200000,201.500000C264.700000,201.500000,268.300000,205.200000,268.300000,209.600000L268.300000,230.500000L268.300000,230.500000Z" clip-rule="evenodd" fill="url(#ewi0Ja9Tf5k3-fill)" fill-rule="evenodd" stroke="none" stroke-width="1"/><path id="ewi0Ja9Tf5k4" d="M300.200000,317L284,317L284,296.100000C284,291.600000,287.600000,288,292.100000,288L292.100000,288C296.600000,288,300.200000,291.700000,300.200000,296.100000L300.200000,317L300.200000,317ZM332.100000,230.500000L316,230.500000L316,209.600000C316,205.100000,319.600000,201.500000,324.100000,201.500000L324.100000,201.500000C328.600000,201.500000,332.200000,205.200000,332.200000,209.600000L332.200000,230.500000ZM300.200000,230.500000L284,230.500000L284,209.600000C284,205.100000,287.600000,201.500000,292.100000,201.500000L292.100000,201.500000C296.600000,201.500000,300.200000,205.200000,300.200000,209.600000L300.200000,230.500000L300.200000,230.500000ZM332.100000,317L316,317L316,296.100000C316,291.600000,319.600000,288,324.100000,288L324.100000,288C328.600000,288,332.200000,291.700000,332.200000,296.100000L332.200000,317ZM364.100000,317L347.900000,317L347.900000,296.100000C347.900000,291.600000,351.500000,288,356,288L356,288C360.500000,288,364.100000,291.700000,364.100000,296.100000L364.100000,317ZM300.200000,273.700000L284,273.700000L284,252.800000C284,248.300000,287.600000,244.700000,292.100000,244.700000L292.100000,244.700000C296.600000,244.700000,300.200000,248.300000,300.200000,252.800000L300.200000,273.700000L300.200000,273.700000ZM332.100000,273.700000L316,273.700000L316,252.800000C316,248.300000,319.600000,244.700000,324.100000,244.700000L324.100000,244.700000C328.600000,244.700000,332.200000,248.300000,332.200000,252.800000L332.200000,273.700000ZM364.100000,273.700000L347.900000,273.700000L347.900000,252.800000C347.900000,248.300000,351.500000,244.700000,356,244.700000L356,244.700000C360.500000,244.700000,364.100000,248.300000,364.100000,252.800000L364.100000,273.700000Z" clip-rule="evenodd" fill="url(#ewi0Ja9Tf5k4-fill)" fill-rule="evenodd" stroke="none" stroke-width="1"/></g><g id="ewi0Ja9Tf5k5"><g id="ewi0Ja9Tf5k6"><path id="ewi0Ja9Tf5k7" d="M28.300000,84.100000L162.500000,84.100000L175.200000,128.200000L187.200000,140.200000L190.700000,149.700000C186.200000,151.400000,183.100000,155.700000,183.100000,160.700000L183.100000,191.100000L205.800000,191.100000L230.900000,193.900000L249,254.100000L276.200000,257L282.300000,275.700000C278,277.400000,274.900000,281.700000,274.900000,286.600000L274.900000,317L28.300000,317L28.300000,84.100000L28.300000,84.100000ZM130.500000,98.400000C135.200000,98.400000,139,102.200000,139,106.900000C139,111.600000,135.200000,115.400000,130.500000,115.400000C125.800000,115.400000,122,111.600000,122,106.900000C122,102.200000,125.800000,98.400000,130.500000,98.400000ZM92,98.400000C96.700000,98.400000,100.500000,102.200000,100.500000,106.900000C100.500000,111.600000,96.700000,115.400000,92,115.400000C87.300000,115.400000,83.400000,111.600000,83.400000,106.900000C83.400000,102.200000,87.300000,98.400000,92,98.400000ZM53.500000,98.400000C58.200000,98.400000,62,102.200000,62,106.900000C62,111.600000,58.200000,115.400000,53.500000,115.400000C48.800000,115.400000,45,111.600000,45,106.900000C45,102.200000,48.800000,98.400000,53.500000,98.400000ZM160.100000,191.100000L136.600000,191.100000L136.600000,160.700000C136.600000,154.200000,141.900000,148.900000,148.400000,148.900000L148.400000,148.900000C154.900000,148.900000,160.200000,154.200000,160.200000,160.700000L160.200000,191.100000ZM113.700000,191.100000L90.100000,191.100000L90.100000,160.700000C90.100000,154.200000,95.400000,148.900000,101.900000,148.900000L101.900000,148.900000C108.400000,148.900000,113.700000,154.200000,113.700000,160.700000L113.700000,191.100000ZM67.200000,191.100000L43.700000,191.100000L43.700000,160.700000C43.700000,154.200000,49,148.900000,55.500000,148.900000L55.500000,148.900000C62,148.900000,67.300000,154.200000,67.300000,160.700000L67.300000,191.100000Z" clip-rule="evenodd" fill="url(#ewi0Ja9Tf5k7-fill)" fill-rule="evenodd" stroke="none" stroke-width="1"/><path id="ewi0Ja9Tf5k8" d="M67.200000,317L43.700000,317L43.700000,286.600000C43.700000,280.100000,49,274.800000,55.500000,274.800000L55.500000,274.800000C62,274.800000,67.300000,280.100000,67.300000,286.600000L67.300000,317L67.200000,317ZM206.600000,254.100000L183,254.100000L183,223.700000C183,217.200000,188.300000,211.900000,194.800000,211.900000L194.800000,211.900000C201.300000,211.900000,206.600000,217.200000,206.600000,223.700000L206.600000,254.100000ZM160.100000,254.100000L136.600000,254.100000L136.600000,223.700000C136.600000,217.200000,141.900000,211.900000,148.400000,211.900000L148.400000,211.900000C154.900000,211.900000,160.200000,217.200000,160.200000,223.700000L160.200000,254.100000ZM113.700000,254.100000L90.100000,254.100000L90.100000,223.700000C90.100000,217.200000,95.400000,211.900000,101.900000,211.900000L101.900000,211.900000C108.400000,211.900000,113.700000,217.200000,113.700000,223.700000L113.700000,254.100000ZM67.200000,254.100000L43.700000,254.100000L43.700000,223.700000C43.700000,217.200000,49,211.900000,55.500000,211.900000L55.500000,211.900000C62,211.900000,67.300000,217.200000,67.300000,223.700000L67.300000,254.100000ZM253.100000,317L229.600000,317L229.600000,286.600000C229.600000,280.100000,234.900000,274.800000,241.400000,274.800000L241.400000,274.800000C247.900000,274.800000,253.200000,280.100000,253.200000,286.600000L253.200000,317L253.100000,317ZM206.600000,317L183,317L183,286.600000C183,280.100000,188.300000,274.800000,194.800000,274.800000L194.800000,274.800000C201.300000,274.800000,206.600000,280.100000,206.600000,286.600000L206.600000,317L206.600000,317ZM160.100000,317L136.600000,317L136.600000,286.600000C136.600000,280.100000,141.900000,274.800000,148.400000,274.800000L148.400000,274.800000C154.900000,274.800000,160.200000,280.100000,160.200000,286.600000L160.200000,317L160.100000,317ZM113.700000,317L90.100000,317L90.100000,286.600000C90.100000,280.100000,95.400000,274.800000,101.900000,274.800000L101.900000,274.800000C108.400000,274.800000,113.700000,280.100000,113.700000,286.600000L113.700000,317L113.700000,317Z" clip-rule="evenodd" fill="url(#ewi0Ja9Tf5k8-fill)" fill-rule="evenodd" stroke="none" stroke-width="1"/></g><path id="ewi0Ja9Tf5k9" d="M32.200000,271.800000L36.200000,271.800000L36.200000,317L32.200000,317L32.200000,271.800000L32.200000,271.800000ZM147.800000,83L151.800000,83L151.800000,128.200000L147.800000,128.200000L147.800000,83ZM109.300000,83L113.300000,83L113.300000,128.200000L109.300000,128.200000L109.300000,83ZM70.800000,83L74.800000,83L74.800000,128.200000L70.800000,128.200000L70.800000,83ZM32.200000,83L36.200000,83L36.200000,128.200000L32.200000,128.200000C32.200000,128.200000,32.200000,83,32.200000,83ZM169.600000,145.900000L173.600000,145.900000L173.600000,191.100000L169.600000,191.100000L169.600000,145.900000ZM123.200000,145.900000L127.200000,145.900000L127.200000,191.100000L123.200000,191.100000L123.200000,145.900000ZM76.700000,145.900000L80.600000,145.900000L80.600000,191.100000L76.700000,191.100000L76.700000,145.900000ZM32.200000,145.900000L36.200000,145.900000L36.200000,191.100000L32.200000,191.100000C32.200000,191.100000,32.200000,145.900000,32.200000,145.900000ZM216.100000,208.800000L220.100000,208.800000L220.100000,254.100000L216.100000,254.100000L216.100000,208.800000ZM169.600000,208.800000L173.600000,208.800000L173.600000,254.100000L169.600000,254.100000L169.600000,208.800000ZM123.200000,208.800000L127.200000,208.800000L127.200000,254.100000L123.200000,254.100000L123.200000,208.800000ZM76.700000,208.800000L80.600000,208.800000L80.600000,254.100000L76.700000,254.100000L76.700000,208.800000ZM32.200000,208.800000L36.200000,208.800000L36.200000,254.100000L32.200000,254.100000C32.200000,254.100000,32.200000,208.800000,32.200000,208.800000ZM216.100000,271.800000L220.100000,271.800000L220.100000,317L216.100000,317L216.100000,271.800000L216.100000,271.800000ZM169.600000,271.800000L173.600000,271.800000L173.600000,317L169.600000,317L169.600000,271.800000L169.600000,271.800000ZM123.200000,271.800000L127.200000,271.800000L127.200000,317L123.200000,317L123.200000,271.800000L123.200000,271.800000ZM76.700000,271.800000L80.600000,271.800000L80.600000,317L76.700000,317L76.700000,271.800000L76.700000,271.800000Z" clip-rule="evenodd" fill="url(#ewi0Ja9Tf5k9-fill)" fill-rule="evenodd" stroke="none" stroke-width="1"/><g id="ewi0Ja9Tf5k10"><polygon id="ewi0Ja9Tf5k11" points="248.900000,254.100000 276.100000,257 279,266 25,266 25,254.100000" clip-rule="evenodd" fill="rgb(195,160,120)" fill-rule="evenodd" stroke="none" stroke-width="1"/><polygon id="ewi0Ja9Tf5k12" points="205.700000,191.100000 230.800000,193.900000 233.600000,203.100000 25,203.100000 25,191.100000" clip-rule="evenodd" fill="rgb(195,160,120)" fill-rule="evenodd" stroke="none" stroke-width="1"/><polygon id="ewi0Ja9Tf5k13" points="175.200000,128.200000 187.200000,140.200000 25,140.200000 25,128.200000" clip-rule="evenodd" fill="rgb(195,160,120)" fill-rule="evenodd" stroke="none" stroke-width="1"/></g></g></svg>