<svg id="s1" xmlns="http://www.w3.org/2000/svg" xmlns:xlink="http://www.w3.org/1999/xlink" viewBox="0 0 400 400"><g id="s3"><g id="s5"><line id="s7" x1="315.770000" y1="215.970000" x2="315.770000" y2="273.740000" fill="none" stroke="rgb(192,220,232)" stroke-width="2" stroke-linecap="round" stroke-miterlimit="10"/><line id="s9" x1="296.010000" y1="219.450000" x2="315.770000" y2="273.740000" fill="none" stroke="rgb(192,220,232)" stroke-width="2" stroke-linecap="round" stroke-miterlimit="10"/><line id="s11" x1="278.630000" y1="229.480000" x2="315.770000" y2="273.740000" fill="none" stroke="rgb(192,220,232)" stroke-width="2" stroke-linecap="round" stroke-miterlimit="10"/><line id="s13" x1="265.740000" y1="244.850000" x2="315.770000" y2="273.740000" fill="none" stroke="rgb(192,220,232)" stroke-width="2" stroke-linecap="round" stroke-miterlimit="10"/><line id="s15" x1="258.870000" y1="263.710000" x2="315.770000" y2="273.740000" fill="none" stroke="rgb(192,220,232)" stroke-width="2" stroke-linecap="round" stroke-miterlimit="10"/><line id="s17" x1="258.870000" y1="283.770000" x2="315.770000" y2="273.740000" fill="none" stroke="rgb(192,220,232)" stroke-width="2" stroke-linecap="round" stroke-miterlimit="10"/><line id="s19" x1="265.740000" y1="302.620000" x2="315.770000" y2="273.740000" fill="none" stroke="rgb(192,220,232)" stroke-width="2" stroke-linecap="round" stroke-miterlimit="10"/><line id="s21" x1="278.630000" y1="317.990000" x2="315.770000" y2="273.740000" fill="none" stroke="rgb(192,220,232)" stroke-width="2" stroke-linecap="round" stroke-miterlimit="10"/><line id="s23" x1="296.010000" y1="328.020000" x2="315.770000" y2="273.740000" fill="none" stroke="rgb(192,220,232)" stroke-width="2" stroke-linecap="round" stroke-miterlimit="10"/><line id="s25" x1="315.770000" y1="331.510000" x2="315.770000" y2="273.740000" fill="none" stroke="rgb(192,220,232)" stroke-width="2" stroke-linecap="round" stroke-miterlimit="10"/><line id="s27" x1="335.530000" y1="328.020000" x2="315.770000" y2="273.740000" fill="none" stroke="rgb(192,220,232)" stroke-width="2" stroke-linecap="round" stroke-miterlimit="10"/><line id="s29" x1="352.900000" y1="317.990000" x2="315.770000" y2="273.740000" fill="none" stroke="rgb(192,220,232)" stroke-width="2" stroke-linecap="round" stroke-miterlimit="10"/><line id="s31" x1="365.800000" y1="302.620000" x2="315.770000" y2="273.740000" fill="none" stroke="rgb(192,220,232)" stroke-width="2" stroke-linecap="round" stroke-miterlimit="10"/><line id="s33" x1="372.660000" y1="283.770000" x2="315.770000" y2="273.740000" fill="none" stroke="rgb(192,220,232)" stroke-width="2" stroke-linecap="round" stroke-miterlimit="10"/><line id="s35" x1="372.660000" y1="263.710000" x2="315.770000" y2="273.740000" fill="none" stroke="rgb(192,220,232)" stroke-width="2" stroke-linecap="round" stroke-miterlimit="10"/><line id="s37" x1="365.800000" y1="244.850000" x2="315.770000" y2="273.740000" fill="none" stroke="rgb(192,220,232)" stroke-width="2" stroke-linecap="round" stroke-miterlimit="10"/><line id="s39" x1="352.900000" y1="229.480000" x2="315.770000" y2="273.740000" fill="none" stroke="rgb(192,220,232)" stroke-width="2" stroke-linecap="round" stroke-miterlimit="10"/><line id="s41" x1="335.530000" y1="219.450000" x2="315.770000" y2="273.740000" fill="none" stroke="rgb(192,220,232)" stroke-width="2" stroke-linecap="round" stroke-miterlimit="10"/><circle id="s43" r="52.440000" transform="translate(315.770000,273.740000)" fill="none" stroke="rgb(131,180,194)" stroke-width="4" stroke-miterlimit="10"/><circle id="s45" r="63.800000" transform="translate(315.770000,273.740000)" fill="none" stroke="rgb(64,57,69)" stroke-width="13" stroke-miterlimit="10"/><circle id="s47" r="12.070000" transform="translate(315.770000,273.740000)" fill="rgb(109,156,168)" stroke="none" stroke-width="1"/><circle id="s49" r="4.760000" transform="translate(315.770000,273.740000)" fill="rgb(204,227,235)" stroke="none" stroke-width="1"/></g><g id="s51"><line id="s53" x1="84.230000" y1="215.970000" x2="84.230000" y2="274.120000" fill="none" stroke="rgb(192,220,232)" stroke-width="2" stroke-linecap="round" stroke-miterlimit="10"/><line id="s55" x1="64.340000" y1="219.480000" x2="84.230000" y2="274.120000" fill="none" stroke="rgb(192,220,232)" stroke-width="2" stroke-linecap="round" stroke-miterlimit="10"/><line id="s57" x1="46.850000" y1="229.570000" x2="84.230000" y2="274.120000" fill="none" stroke="rgb(192,220,232)" stroke-width="2" stroke-linecap="round" stroke-miterlimit="10"/><line id="s59" x1="33.870000" y1="245.040000" x2="84.230000" y2="274.120000" fill="none" stroke="rgb(192,220,232)" stroke-width="2" stroke-linecap="round" stroke-miterlimit="10"/><line id="s61" x1="26.970000" y1="264.020000" x2="84.230000" y2="274.120000" fill="none" stroke="rgb(192,220,232)" stroke-width="2" stroke-linecap="round" stroke-miterlimit="10"/><line id="s63" x1="26.970000" y1="284.220000" x2="84.230000" y2="274.120000" fill="none" stroke="rgb(192,220,232)" stroke-width="2" stroke-linecap="round" stroke-miterlimit="10"/><line id="s65" x1="33.870000" y1="303.190000" x2="84.230000" y2="274.120000" fill="none" stroke="rgb(192,220,232)" stroke-width="2" stroke-linecap="round" stroke-miterlimit="10"/><line id="s67" x1="46.850000" y1="318.660000" x2="84.230000" y2="274.120000" fill="none" stroke="rgb(192,220,232)" stroke-width="2" stroke-linecap="round" stroke-miterlimit="10"/><line id="s69" x1="64.340000" y1="328.760000" x2="84.230000" y2="274.120000" fill="none" stroke="rgb(192,220,232)" stroke-width="2" stroke-linecap="round" stroke-miterlimit="10"/><line id="s71" x1="84.230000" y1="332.270000" x2="84.230000" y2="274.120000" fill="none" stroke="rgb(192,220,232)" stroke-width="2" stroke-linecap="round" stroke-miterlimit="10"/><line id="s73" x1="104.120000" y1="328.760000" x2="84.230000" y2="274.120000" fill="none" stroke="rgb(192,220,232)" stroke-width="2" stroke-linecap="round" stroke-miterlimit="10"/><line id="s75" x1="121.610000" y1="318.660000" x2="84.230000" y2="274.120000" fill="none" stroke="rgb(192,220,232)" stroke-width="2" stroke-linecap="round" stroke-miterlimit="10"/><line id="s77" x1="134.590000" y1="303.190000" x2="84.230000" y2="274.120000" fill="none" stroke="rgb(192,220,232)" stroke-width="2" stroke-linecap="round" stroke-miterlimit="10"/><line id="s79" x1="141.500000" y1="284.220000" x2="84.230000" y2="274.120000" fill="none" stroke="rgb(192,220,232)" stroke-width="2" stroke-linecap="round" stroke-miterlimit="10"/><line id="s81" x1="141.500000" y1="264.020000" x2="84.230000" y2="274.120000" fill="none" stroke="rgb(192,220,232)" stroke-width="2" stroke-linecap="round" stroke-miterlimit="10"/><line id="s83" x1="134.590000" y1="245.040000" x2="84.230000" y2="274.120000" fill="none" stroke="rgb(192,220,232)" stroke-width="2" stroke-linecap="round" stroke-miterlimit="10"/><line id="s85" x1="121.610000" y1="229.570000" x2="84.230000" y2="274.120000" fill="none" stroke="rgb(192,220,232)" stroke-width="2" stroke-linecap="round" stroke-miterlimit="10"/><line id="s87" x1="104.120000" y1="219.480000" x2="84.230000" y2="274.120000" fill="none" stroke="rgb(192,220,232)" stroke-width="2" stroke-linecap="round" stroke-miterlimit="10"/><circle id="s89" r="63.800000" transform="translate(84.230000,274.120000)" fill="none" stroke="rgb(64,57,69)" stroke-width="13" stroke-miterlimit="10"/><circle id="s91" r="52.440000" transform="translate(84.230000,274.120000)" fill="none" stroke="rgb(131,180,194)" stroke-width="4" stroke-miterlimit="10"/><circle id="s93" r="12.070000" transform="translate(84.230000,274.120000)" fill="rgb(109,156,168)" stroke="none" stroke-width="1"/><circle id="s95" r="4.760000" transform="translate(84.230000,274.120000)" fill="rgb(204,227,235)" stroke="none" stroke-width="1"/></g><path id="s97" d="M249.900000,134C244,122.590000,243.310000,111.260000,261.320000,106.590000C279.330000,101.920000,266.670000,74.740000,238,92.650000" fill="none" stroke="rgb(204,227,235)" stroke-width="8" stroke-linecap="round" stroke-miterlimit="10"/><g id="s99"><line id="s101" x1="194.410000" y1="273.570000" x2="205.430000" y2="239.100000" fill="none" stroke="rgb(109,156,168)" stroke-width="5" stroke-miterlimit="10"/><rect id="s103" width="32.930000" height="8.820000" rx="4.410000" ry="4.410000" transform="translate(413.610000,475.900000) rotate(180) translate(190.340000,233.540000)" fill="rgb(64,57,69)" stroke="none" stroke-width="1"/></g><path id="s105" d="M189.630000,273C199.350000,262,271,179,271,179" fill="none" stroke="rgb(134,209,224)" stroke-width="11" stroke-linecap="round" stroke-miterlimit="10"/><polyline id="s107" points="84.230000,274.120000 151.680000,186.430000 264.210000,164.670000" fill="none" stroke="rgb(134,209,224)" stroke-width="11" stroke-linecap="round" stroke-miterlimit="10"/><line id="s109" x1="84.230000" y1="274.120000" x2="189.120000" y2="274.120000" fill="none" stroke="rgb(134,209,224)" stroke-width="11" stroke-linecap="round" stroke-miterlimit="10"/><line id="s111" x1="133.340000" y1="147.100000" x2="193.090000" y2="275.270000" fill="none" stroke="rgb(204,227,235)" stroke-width="8" stroke-linecap="round" stroke-miterlimit="10"/><line id="s113" x1="144.540000" y1="171.130000" x2="193.090000" y2="275.270000" fill="none" stroke="rgb(134,209,224)" stroke-width="11" stroke-linecap="round" stroke-miterlimit="10"/><line id="s115" x1="249.900000" y1="133.970000" x2="315.780000" y2="275.270000" fill="none" stroke="rgb(134,209,224)" stroke-width="11" stroke-linecap="round" stroke-miterlimit="10"/><circle id="s117" r="14.840000" transform="translate(193.310000,274.670000)" fill="none" stroke="rgb(109,156,168)" stroke-width="4.483500" stroke-miterlimit="10"/><g id="s119"><line id="s121" x1="193.310000" y1="274.670000" x2="182.280000" y2="309.140000" fill="none" stroke="rgb(109,156,168)" stroke-width="5" stroke-miterlimit="10"/><rect id="s123" width="32.930000" height="8.820000" rx="4.410000" ry="4.410000" transform="translate(169.420000,305.880000)" fill="rgb(64,57,69)" stroke="none" stroke-width="1"/></g><line id="s125" x1="222.500000" y1="100.730000" x2="249.900000" y2="87.380000" fill="none" stroke="rgb(64,57,69)" stroke-width="16" stroke-linecap="round" stroke-miterlimit="10"/><circle id="s127" r="5.820000" transform="translate(193.310000,274.670000)" fill="rgb(109,156,168)" stroke="none" stroke-width="1"/><path id="s129" d="M107.150000,129.660000C92.300000,124.660000,101.730000,159.040000,117.720000,153.100000C128.997254,148.846985,140.692101,145.796739,152.610000,144C168.610000,141.500000,165.320000,133.760000,150.810000,134.280000C131.520000,134.940000,129.210000,137,107.150000,129.660000Z" fill="rgb(64,57,69)" stroke="none" stroke-width="1"/></g></svg>