<svg id="eY8JrCGeqmN1" xmlns="http://www.w3.org/2000/svg" xmlns:xlink="http://www.w3.org/1999/xlink" viewBox="0 0 400 400" shape-rendering="geometricPrecision" text-rendering="geometricPrecision"><defs><linearGradient id="eY8JrCGeqmN4-fill" x1="119.013169" y1="110.068729" x2="105.625511" y2="49.961407" spreadMethod="pad" gradientUnits="userSpaceOnUse"><stop id="eY8JrCGeqmN4-fill-0" offset="0%" stop-color="rgb(255,153,153)"/><stop id="eY8JrCGeqmN4-fill-1" offset="100%" stop-color="rgb(255,56,56)"/></linearGradient><linearGradient id="eY8JrCGeqmN5-fill" x1="162.380644" y1="61.098408" x2="181.800476" y2="141.215335" spreadMethod="pad" gradientUnits="userSpaceOnUse"><stop id="eY8JrCGeqmN5-fill-0" offset="0%" stop-color="rgb(204,204,204)"/><stop id="eY8JrCGeqmN5-fill-1" offset="100%" stop-color="rgb(255,255,255)"/></linearGradient><linearGradient id="eY8JrCGeqmN6-fill" x1="319.714207" y1="101.329093" x2="319.714207" y2="163.485411" spreadMethod="pad" gradientUnits="userSpaceOnUse"><stop id="eY8JrCGeqmN6-fill-0" offset="0%" stop-color="rgb(204,204,204)"/><stop id="eY8JrCGeqmN6-fill-1" offset="100%" stop-color="rgb(255,255,255)"/></linearGradient><linearGradient id="eY8JrCGeqmN7-fill" x1="245.206014" y1="158.128385" x2="279.268122" y2="80.556021" spreadMethod="pad" gradientUnits="userSpaceOnUse"><stop id="eY8JrCGeqmN7-fill-0" offset="0%" stop-color="rgb(255,153,153)"/><stop id="eY8JrCGeqmN7-fill-1" offset="100%" stop-color="rgb(255,56,56)"/></linearGradient><linearGradient id="eY8JrCGeqmN8-fill" x1="46.751218" y1="56.815927" x2="84.579141" y2="56.815927" spreadMethod="pad" gradientUnits="userSpaceOnUse"><stop id="eY8JrCGeqmN8-fill-0" offset="0%" stop-color="rgb(204,204,204)"/><stop id="eY8JrCGeqmN8-fill-1" offset="100%" stop-color="rgb(255,255,255)"/></linearGradient><linearGradient id="eY8JrCGeqmN11-fill" x1="214.238009" y1="115.909055" x2="173.375844" y2="72.691722" spreadMethod="pad" gradientUnits="userSpaceOnUse"><stop id="eY8JrCGeqmN11-fill-0" offset="0%" stop-color="rgb(204,204,204)"/><stop id="eY8JrCGeqmN11-fill-1" offset="100%" stop-color="rgb(115,115,115)"/></linearGradient><linearGradient id="eY8JrCGeqmN14-fill" x1="182.044825" y1="122.316093" x2="190.842358" y2="65.016328" spreadMethod="pad" gradientUnits="userSpaceOnUse"><stop id="eY8JrCGeqmN14-fill-0" offset="0%" stop-color="rgb(128,128,128)"/><stop id="eY8JrCGeqmN14-fill-1" offset="100%" stop-color="rgb(84,84,84)"/></linearGradient><linearGradient id="eY8JrCGeqmN15-fill" x1="177.911505" y1="125.737465" x2="198.254268" y2="39.597686" spreadMethod="pad" gradientUnits="userSpaceOnUse"><stop id="eY8JrCGeqmN15-fill-0" offset="0%" stop-color="rgb(153,153,153)"/><stop id="eY8JrCGeqmN15-fill-1" offset="100%" stop-color="rgb(97,97,97)"/></linearGradient><linearGradient id="eY8JrCGeqmN16-fill" x1="117.702616" y1="115.497882" x2="166.611114" y2="40.863099" spreadMethod="pad" gradientUnits="userSpaceOnUse"><stop id="eY8JrCGeqmN16-fill-0" offset="0%" stop-color="rgb(179,179,179)"/><stop id="eY8JrCGeqmN16-fill-1" offset="100%" stop-color="rgb(130,130,130)"/></linearGradient><linearGradient id="eY8JrCGeqmN17-fill" x1="251.404522" y1="124.106021" x2="252.173386" y2="110.123192" spreadMethod="pad" gradientUnits="userSpaceOnUse"><stop id="eY8JrCGeqmN17-fill-0" offset="0%" stop-color="rgb(179,179,179)"/><stop id="eY8JrCGeqmN17-fill-1" offset="100%" stop-color="rgb(130,130,130)"/></linearGradient><linearGradient id="eY8JrCGeqmN18-fill" x1="191.265798" y1="112.275227" x2="238.456005" y2="34.495804" spreadMethod="pad" gradientUnits="userSpaceOnUse"><stop id="eY8JrCGeqmN18-fill-0" offset="0%" stop-color="rgb(204,204,204)"/><stop id="eY8JrCGeqmN18-fill-1" offset="100%" stop-color="rgb(94,94,94)"/></linearGradient><linearGradient id="eY8JrCGeqmN23-fill" x1="56.966759" y1="70.586791" x2="149.746149" y2="40.532884" spreadMethod="pad" gradientUnits="userSpaceOnUse"><stop id="eY8JrCGeqmN23-fill-0" offset="0%" stop-color="rgb(255,153,153)"/><stop id="eY8JrCGeqmN23-fill-1" offset="100%" stop-color="rgb(255,102,102)"/></linearGradient><linearGradient id="eY8JrCGeqmN24-fill" x1="53.036572" y1="41.809091" x2="187.568184" y2="41.809091" spreadMethod="pad" gradientUnits="userSpaceOnUse"><stop id="eY8JrCGeqmN24-fill-0" offset="0%" stop-color="rgb(255,153,153)"/><stop id="eY8JrCGeqmN24-fill-1" offset="100%" stop-color="rgb(255,56,56)"/></linearGradient><linearGradient id="eY8JrCGeqmN27-fill" x1="235.336879" y1="106.980515" x2="202.101043" y2="28.451854" spreadMethod="pad" gradientUnits="userSpaceOnUse"><stop id="eY8JrCGeqmN27-fill-0" offset="0%" stop-color="rgb(230,230,230)"/><stop id="eY8JrCGeqmN27-fill-1" offset="43.140000%" stop-color="rgb(253,253,253)"/><stop id="eY8JrCGeqmN27-fill-2" offset="100%" stop-color="rgb(255,255,255)"/></linearGradient><linearGradient id="eY8JrCGeqmN29-fill" x1="334.273071" y1="99.829636" x2="306.011055" y2="147.353492" spreadMethod="pad" gradientUnits="userSpaceOnUse"><stop id="eY8JrCGeqmN29-fill-0" offset="0%" stop-color="rgb(255,153,153)"/><stop id="eY8JrCGeqmN29-fill-1" offset="100%" stop-color="rgb(247,62,62)"/></linearGradient><linearGradient id="eY8JrCGeqmN30-fill" x1="306.528701" y1="53.598179" x2="301.817875" y2="140.833111" spreadMethod="pad" gradientUnits="userSpaceOnUse"><stop id="eY8JrCGeqmN30-fill-0" offset="0%" stop-color="rgb(255,153,153)"/><stop id="eY8JrCGeqmN30-fill-1" offset="100%" stop-color="rgb(255,56,56)"/></linearGradient></defs><g id="eY8JrCGeqmN2"><g id="eY8JrCGeqmN3"><path id="eY8JrCGeqmN4" d="M88.800000,53.400000C134.300000,49.500000,159.600000,52,164.700000,61C149.900000,73.700000,136.100000,87.400000,123.300000,102.100000C116.600000,112.200000,108.700000,112.400000,100.100000,102.100000C95.900000,97,90.100000,93.900000,83,90.800000C71,85.500000,67.500000,83.500000,61.100000,83.900000C54.700000,84.300000,50.600000,68.200000,59.800000,62.400000C75.400000,52.400000,84.300000,52.300000,88.800000,53.400000L88.800000,53.400000Z" clip-rule="evenodd" fill="url(#eY8JrCGeqmN4-fill)" fill-rule="evenodd" stroke="none" stroke-width="1"/><path id="eY8JrCGeqmN5" d="M164.700000,60.900000C186.500000,64.800000,204.800000,70.400000,219.600000,77.500000C221,112.400000,219.100000,133,214.500000,139.700000C212.700000,142.400000,209.300000,143.300000,204.400000,140.800000C178.600000,127.500000,155.700000,120.600000,135.300000,117.800000C121.600000,115.900000,117.200000,109.100000,123.300000,102.100000C139,84.100000,153.400000,70.800000,164.700000,60.900000L164.700000,60.900000Z" clip-rule="evenodd" fill="url(#eY8JrCGeqmN5-fill)" fill-rule="evenodd" stroke="none" stroke-width="1"/><path id="eY8JrCGeqmN6" d="M353.200000,140.900000C312.100000,104.200000,282.400000,96.500000,286.700000,103.900000C297.700000,123.100000,306.500000,141.500000,307.400000,157.800000C307.800000,164.900000,311.700000,165.200000,316.400000,160C321,155,330.600000,153.300000,343.300000,157.400000C349.200000,159.300000,346,146.800000,353.200000,140.900000L353.200000,140.900000Z" clip-rule="evenodd" fill="url(#eY8JrCGeqmN6-fill)" fill-rule="evenodd" stroke="none" stroke-width="1"/><path id="eY8JrCGeqmN7" d="M282.700000,95.600000C257.500000,92.200000,236.500000,86.200000,219.700000,77.500000C219.600000,102.400000,220.200000,121.400000,217.100000,133.700000C214.700000,143.500000,216.400000,148.300000,226.400000,148.100000C248.700000,147.700000,270.600000,151.900000,293,159.600000C303.900000,163.400000,309.500000,158.500000,307.200000,147.700000C303.400000,129.800000,294.600000,112.500000,282.700000,95.600000L282.700000,95.600000Z" clip-rule="evenodd" fill="url(#eY8JrCGeqmN7-fill)" fill-rule="evenodd" stroke="none" stroke-width="1"/><path id="eY8JrCGeqmN8" d="M56.900000,46.500000C92.800000,40.800000,93.800000,46,59.900000,62.200000C47.900000,75.500000,42.200000,69.100000,51.300000,51.900000C52.600000,49.500000,54.600000,48.100000,56.900000,46.500000Z" clip-rule="evenodd" fill="url(#eY8JrCGeqmN8-fill)" fill-rule="evenodd" stroke="none" stroke-width="1"/></g><g id="eY8JrCGeqmN9"><path id="eY8JrCGeqmN10" d="M210.700000,29.400000C211.400000,27.200000,213.700000,26,215.900000,26.700000C218.100000,27.400000,219.300000,29.700000,218.600000,31.900000L107.300000,372.100000C106.600000,374.300000,104.300000,375.500000,102.100000,374.800000C99.900000,374.100000,98.700000,371.800000,99.400000,369.600000L210.700000,29.400000L210.700000,29.400000Z" fill="rgb(204,204,204)" stroke="none" stroke-width="1"/><path id="eY8JrCGeqmN11" d="M209.100000,61.800000C209.800000,59.500000,208.600000,57,206.300000,56.300000C204,55.600000,201.500000,56.800000,200.800000,59.100000L178.600000,126.800000C177.900000,129.100000,179.100000,131.600000,181.400000,132.300000C183.700000,133,186.200000,131.800000,186.900000,129.500000L209.100000,61.800000L209.100000,61.800000Z" fill="url(#eY8JrCGeqmN11-fill)" stroke="none" stroke-width="1"/><g id="eY8JrCGeqmN12"><g id="eY8JrCGeqmN13"><path id="eY8JrCGeqmN14" d="M157.300000,67.700000C156.900000,66.800000,157.300000,65.800000,158.100000,65.400000C159,65,160,65.400000,160.400000,66.200000L185,118.200000L218.400000,82.600000C219.100000,81.900000,220.200000,81.900000,220.900000,82.500000C221.600000,83.200000,221.600000,84.300000,221,85L185.900000,122.500000L185.900000,122.500000L185.900000,122.500000L185.800000,122.600000L185.800000,122.600000L185.800000,122.600000L185.800000,122.600000L185.800000,122.600000L185.800000,122.600000L185.800000,122.600000L185.800000,122.600000L185.800000,122.600000L185.800000,122.600000L185.800000,122.600000L185.800000,122.600000L185.800000,122.600000L185.800000,122.600000L185.800000,122.600000L185.800000,122.600000L185.800000,122.600000L185.800000,122.600000L185.800000,122.600000L185.700000,122.600000L185.700000,122.600000L185.700000,122.600000L185.700000,122.600000L185.700000,122.600000L185.700000,122.600000L185.700000,122.600000L185.700000,122.600000L185.700000,122.600000L185.700000,122.600000L185.700000,122.600000L185.700000,122.600000L185.700000,122.600000L185.700000,122.600000L185.700000,122.600000L185.700000,122.600000L185.700000,122.600000L185.700000,122.600000L185.700000,122.600000L185.700000,122.600000L185.700000,122.600000L185.700000,122.600000L185.700000,122.600000L185.700000,122.600000L185.700000,122.600000L185.700000,122.600000L185.700000,122.600000L185.700000,122.600000L185.700000,122.600000L185.700000,122.600000C185.700000,122.600000,185.600000,122.600000,185.600000,122.600000L185.600000,122.600000L185.600000,122.600000L185.500000,122.600000L185.500000,122.600000L185.500000,122.600000L185.500000,122.600000L185.500000,122.600000L185.500000,122.600000L185.500000,122.600000L185.500000,122.600000L185.500000,122.600000L185.500000,122.600000L185.500000,122.600000L185.500000,122.600000L185.500000,122.600000L185.500000,122.600000L185.500000,122.600000L185.500000,122.600000L185.500000,122.600000L185.500000,122.600000C185.300000,122.600000,185.200000,122.500000,185,122.400000L185,122.400000L185,122.400000L185,122.400000L185,122.400000L185,122.400000L185,122.400000L185,122.400000L185,122.400000L185,122.400000L185,122.400000L185,122.400000L185,122.400000L185,122.400000L185,122.400000L185,122.400000L185,122.400000L185,122.400000L185,122.400000L185,122.400000L184.900000,122.300000L184.900000,122.300000L184.900000,122.300000L184.900000,122.300000L184.900000,122.300000L184.900000,122.300000L184.900000,122.300000L184.900000,122.300000L184.900000,122.300000L184.900000,122.300000L184.900000,122.300000L184.900000,122.300000L184.900000,122.300000L184.900000,122.300000L184.900000,122.300000L184.900000,122.300000L184.900000,122.300000L184.900000,122.300000L184.900000,122.300000L184.900000,122.200000L184.900000,122.200000L184.900000,122.200000L184.900000,122.200000L184.900000,122.200000L184.900000,122.200000L184.900000,122.200000L157.300000,67.700000L157.300000,67.700000Z" fill="url(#eY8JrCGeqmN14-fill)" stroke="none" stroke-width="1"/><path id="eY8JrCGeqmN15" d="M97.700000,46.600000C97,46,96.900000,44.900000,97.500000,44.100000C98.100000,43.400000,99.200000,43.300000,100,43.900000L185,119.300000L282,97.200000C282.900000,97,283.900000,97.600000,284.100000,98.500000C284.300000,99.400000,283.700000,100.400000,282.800000,100.600000L185,123C184.400000,123.100000,183.800000,122.900000,183.400000,122.500000L97.700000,46.600000L97.700000,46.600000Z" fill="url(#eY8JrCGeqmN15-fill)" stroke="none" stroke-width="1"/><path id="eY8JrCGeqmN16" d="M98.600000,36.400000C97.900000,35.700000,97.900000,34.600000,98.600000,33.900000C99.300000,33.200000,100.400000,33.200000,101.100000,33.900000L185.900000,120C186.600000,120.700000,186.600000,121.800000,185.900000,122.500000C185.200000,123.200000,184.100000,123.200000,183.400000,122.500000L98.600000,36.400000L98.600000,36.400000Z" fill="url(#eY8JrCGeqmN16-fill)" stroke="none" stroke-width="1"/><path id="eY8JrCGeqmN17" d="M319,111.300000C320,111.200000,320.800000,112,320.900000,112.900000C321,113.900000,320.200000,114.700000,319.300000,114.700000L184.700000,123C183.700000,123.100000,182.900000,122.300000,182.900000,121.400000C182.800000,120.400000,183.600000,119.600000,184.500000,119.600000L319,111.300000L319,111.300000Z" fill="url(#eY8JrCGeqmN17-fill)" stroke="none" stroke-width="1"/><path id="eY8JrCGeqmN18" d="M174.400000,38.400000C174.300000,37.400000,175,36.600000,176,36.500000C177,36.400000,177.800000,37.100000,177.900000,38.100000L186.100000,118.600000L273.800000,72.800000C274.700000,72.400000,275.700000,72.700000,276.200000,73.500000C276.600000,74.400000,276.300000,75.400000,275.500000,75.900000L185.600000,122.900000C185.400000,123,185.100000,123.100000,184.900000,123.100000C183.900000,123.200000,183.100000,122.500000,183,121.500000L174.400000,38.400000L174.400000,38.400000Z" fill="url(#eY8JrCGeqmN18-fill)" stroke="none" stroke-width="1"/></g><polygon id="eY8JrCGeqmN19" points="192,118.500000 184.500000,141.400000 173.500000,137.800000 181,114.900000" fill="rgb(179,179,179)" stroke="none" stroke-width="1"/><line id="eY8JrCGeqmN20" x1="181.600000" y1="131.900000" x2="178.200000" y2="142.100000" fill="none" stroke="rgb(153,153,153)" stroke-width="8.341100" stroke-linecap="round" stroke-linejoin="round" stroke-miterlimit="112.486000"/></g></g><g id="eY8JrCGeqmN21"><g id="eY8JrCGeqmN22"><path id="eY8JrCGeqmN23" d="M53.100000,44.900000C96,43.900000,130,48.500000,155.100000,58.700000C151,67.800000,144.800000,71.100000,136.400000,69.500000C113.700000,65,87.700000,61.500000,58.900000,56.300000C53.900000,55.400000,52.200000,51,53.100000,44.900000L53.100000,44.900000Z" clip-rule="evenodd" fill="url(#eY8JrCGeqmN23-fill)" fill-rule="evenodd" stroke="none" stroke-width="1"/><path id="eY8JrCGeqmN24" d="M155,58.700000C165.800000,45.800000,176.600000,36.400000,187.600000,30.400000C152,19.900000,107.200000,24.700000,53.100000,44.900000C91.400000,50.600000,125.400000,55.200000,155,58.700000Z" clip-rule="evenodd" fill="url(#eY8JrCGeqmN24-fill)" fill-rule="evenodd" stroke="none" stroke-width="1"/></g><g id="eY8JrCGeqmN25"><path id="eY8JrCGeqmN26" d="M155,58.700000C198.700000,53.300000,244.200000,66.600000,291.700000,98.700000C288,111.900000,280.600000,117.100000,271,111.400000C237.200000,91.700000,201.300000,78.800000,162.400000,72C156,70.900000,153.800000,65.300000,155,58.700000Z" clip-rule="evenodd" fill="rgb(230,230,230)" fill-rule="evenodd" stroke="none" stroke-width="1"/><path id="eY8JrCGeqmN27" d="M220.800000,74.600000C269.100000,96.600000,287.100000,108,291.700000,98.600000C275.800000,65.900000,253.500000,47.200000,225.700000,39.200000C203.700000,32.900000,190.800000,28.100000,186.500000,30C175.700000,34.900000,165.500000,44.900000,155,58.600000C165,61.100000,189.100000,60.200000,220.800000,74.600000Z" clip-rule="evenodd" fill="url(#eY8JrCGeqmN27-fill)" fill-rule="evenodd" stroke="none" stroke-width="1"/></g><g id="eY8JrCGeqmN28"><path id="eY8JrCGeqmN29" d="M353.200000,140.900000C320.500000,110.500000,300,96.400000,291.700000,98.600000C289,112,291.200000,116.500000,297.500000,118.300000C310.200000,121.800000,321.300000,129.900000,334.300000,143.200000C342,151.200000,346,152.800000,347.200000,148.500000C348.300000,144.500000,350.600000,142.100000,353.200000,140.900000L353.200000,140.900000Z" clip-rule="evenodd" fill="url(#eY8JrCGeqmN29-fill)" fill-rule="evenodd" stroke="none" stroke-width="1"/><path id="eY8JrCGeqmN30" d="M291.700000,98.600000C281.400000,79,269.300000,64,255.200000,53.600000C295.600000,78.900000,328.300000,108,353.200000,140.900000C337,129.200000,316.500000,115.100000,291.700000,98.600000L291.700000,98.600000Z" clip-rule="evenodd" fill="url(#eY8JrCGeqmN30-fill)" fill-rule="evenodd" stroke="none" stroke-width="1"/></g></g></g></svg>