<svg id="eCkmUrL25jx1" xmlns="http://www.w3.org/2000/svg" xmlns:xlink="http://www.w3.org/1999/xlink" viewBox="0 0 400 400" shape-rendering="geometricPrecision" text-rendering="geometricPrecision"><defs><linearGradient id="eCkmUrL25jx16-fill" x1="199.982419" y1="281.251211" x2="199.982419" y2="335.183404" spreadMethod="pad" gradientUnits="userSpaceOnUse"><stop id="eCkmUrL25jx16-fill-0" offset="0%" stop-color="rgb(246,174,66)"/><stop id="eCkmUrL25jx16-fill-1" offset="100%" stop-color="rgb(235,162,65)"/></linearGradient><linearGradient id="eCkmUrL25jx19-fill" x1="199.981111" y1="215.168434" x2="199.981111" y2="302.479750" spreadMethod="pad" gradientUnits="userSpaceOnUse"><stop id="eCkmUrL25jx19-fill-0" offset="0%" stop-color="rgb(246,174,66)"/><stop id="eCkmUrL25jx19-fill-1" offset="100%" stop-color="rgb(235,162,65)"/></linearGradient><linearGradient id="eCkmUrL25jx22-fill" x1="199.982419" y1="153.220203" x2="199.982419" y2="231.932866" spreadMethod="pad" gradientUnits="userSpaceOnUse"><stop id="eCkmUrL25jx22-fill-0" offset="0%" stop-color="rgb(246,174,66)"/><stop id="eCkmUrL25jx22-fill-1" offset="100%" stop-color="rgb(235,162,65)"/></linearGradient><linearGradient id="eCkmUrL25jx25-fill" x1="199.982419" y1="72.861699" x2="199.982419" y2="165.548645" spreadMethod="pad" gradientUnits="userSpaceOnUse"><stop id="eCkmUrL25jx25-fill-0" offset="0%" stop-color="rgb(246,174,66)"/><stop id="eCkmUrL25jx25-fill-1" offset="100%" stop-color="rgb(235,162,65)"/></linearGradient></defs><g id="eCkmUrL25jx2"><rect id="eCkmUrL25jx3" width="257.100000" height="33.600000" rx="0" ry="0" transform="matrix(1 0 0 1 71.50000000000000 341.39999999999998)" clip-rule="evenodd" fill="rgb(250,179,71)" fill-rule="evenodd" stroke="none" stroke-width="1"/><g id="eCkmUrL25jx4"><path id="eCkmUrL25jx5" d="M93.600000,350.800000L93.600000,350.800000C96,350.800000,98,352.800000,98,355.200000L98,365.500000L89.100000,365.500000L89.100000,355.200000C89.200000,352.800000,91.200000,350.800000,93.600000,350.800000Z" clip-rule="evenodd" fill="rgb(150,95,38)" fill-rule="evenodd" stroke="none" stroke-width="1"/><path id="eCkmUrL25jx6" d="M120.200000,350.800000L120.200000,350.800000C117.800000,350.800000,115.800000,352.800000,115.800000,355.200000L115.800000,365.500000L124.700000,365.500000L124.700000,355.200000C124.600000,352.800000,122.700000,350.800000,120.200000,350.800000Z" clip-rule="evenodd" fill="rgb(150,95,38)" fill-rule="evenodd" stroke="none" stroke-width="1"/><path id="eCkmUrL25jx7" d="M146.800000,350.800000L146.800000,350.800000C144.400000,350.800000,142.400000,352.800000,142.400000,355.200000L142.400000,365.500000L151.300000,365.500000L151.300000,355.200000C151.200000,352.800000,149.200000,350.800000,146.800000,350.800000Z" clip-rule="evenodd" fill="rgb(150,95,38)" fill-rule="evenodd" stroke="none" stroke-width="1"/><path id="eCkmUrL25jx8" d="M173.400000,350.800000L173.400000,350.800000C171,350.800000,169,352.800000,169,355.200000L169,365.500000L177.900000,365.500000L177.900000,355.200000C177.800000,352.800000,175.800000,350.800000,173.400000,350.800000Z" clip-rule="evenodd" fill="rgb(150,95,38)" fill-rule="evenodd" stroke="none" stroke-width="1"/><path id="eCkmUrL25jx9" d="M200,350.800000L200,350.800000C197.600000,350.800000,195.600000,352.800000,195.600000,355.200000L195.600000,365.500000L204.500000,365.500000L204.500000,355.200000C204.400000,352.800000,202.400000,350.800000,200,350.800000L200,350.800000Z" clip-rule="evenodd" fill="rgb(150,95,38)" fill-rule="evenodd" stroke="none" stroke-width="1"/><path id="eCkmUrL25jx10" d="M226.600000,350.800000L226.600000,350.800000C224.200000,350.800000,222.200000,352.800000,222.200000,355.200000L222.200000,365.500000L231.100000,365.500000L231.100000,355.200000C231,352.800000,229,350.800000,226.600000,350.800000Z" clip-rule="evenodd" fill="rgb(150,95,38)" fill-rule="evenodd" stroke="none" stroke-width="1"/><path id="eCkmUrL25jx11" d="M253.200000,350.800000L253.200000,350.800000C250.800000,350.800000,248.800000,352.800000,248.800000,355.200000L248.800000,365.500000L257.700000,365.500000L257.700000,355.200000C257.600000,352.800000,255.600000,350.800000,253.200000,350.800000Z" clip-rule="evenodd" fill="rgb(150,95,38)" fill-rule="evenodd" stroke="none" stroke-width="1"/><path id="eCkmUrL25jx12" d="M279.800000,350.800000L279.800000,350.800000C277.400000,350.800000,275.400000,352.800000,275.400000,355.200000L275.400000,365.500000L284.300000,365.500000L284.300000,355.200000C284.200000,352.800000,282.200000,350.800000,279.800000,350.800000L279.800000,350.800000Z" clip-rule="evenodd" fill="rgb(150,95,38)" fill-rule="evenodd" stroke="none" stroke-width="1"/><path id="eCkmUrL25jx13" d="M306.400000,350.800000L306.400000,350.800000C304,350.800000,302,352.800000,302,355.200000L302,365.500000L310.900000,365.500000L310.900000,355.200000C310.800000,352.800000,308.800000,350.800000,306.400000,350.800000Z" clip-rule="evenodd" fill="rgb(150,95,38)" fill-rule="evenodd" stroke="none" stroke-width="1"/></g><rect id="eCkmUrL25jx14" width="229.900000" height="6.200000" rx="0" ry="0" transform="matrix(1 0 0 1 85 335.19999999999999)" clip-rule="evenodd" fill="rgb(227,147,43)" fill-rule="evenodd" stroke="none" stroke-width="1"/></g><g id="eCkmUrL25jx15"><polygon id="eCkmUrL25jx16" points="299.800000,281.300000 100.200000,304.200000 100.200000,335.200000 299.800000,335.200000" clip-rule="evenodd" fill="url(#eCkmUrL25jx16-fill)" fill-rule="evenodd" stroke="none" stroke-width="1"/><polygon id="eCkmUrL25jx17" points="299.800000,281.300000 299.800000,317.100000 297.100000,283.100000 104,306.600000 100.200000,314.400000 100.200000,304.200000" clip-rule="evenodd" fill="rgb(232,157,58)" fill-rule="evenodd" stroke="none" stroke-width="1"/></g><g id="eCkmUrL25jx18"><path id="eCkmUrL25jx19" d="M285.200000,215.200000L114.700000,234.800000C114.700000,257.400000,114.700000,280,114.700000,302.600000L285.200000,283C285.200000,260.400000,285.200000,237.800000,285.200000,215.200000L285.200000,215.200000Z" clip-rule="evenodd" fill="url(#eCkmUrL25jx19-fill)" fill-rule="evenodd" stroke="none" stroke-width="1"/><polygon id="eCkmUrL25jx20" points="285.200000,215.200000 285.200000,251 280.300000,222.800000 118.600000,237.200000 114.800000,244.900000 114.800000,234.700000" clip-rule="evenodd" fill="rgb(232,157,58)" fill-rule="evenodd" stroke="none" stroke-width="1"/></g><g id="eCkmUrL25jx21"><path id="eCkmUrL25jx22" d="M137.900000,231.900000L262,217.700000C262,201.300000,262,169.700000,262,153.200000L137.900000,167.400000C137.900000,183.900000,137.900000,215.500000,137.900000,231.900000Z" clip-rule="evenodd" fill="url(#eCkmUrL25jx22-fill)" fill-rule="evenodd" stroke="none" stroke-width="1"/><polygon id="eCkmUrL25jx23" points="262.100000,153.200000 262.100000,167.600000 256.300000,154.700000 139.400000,169.500000 137.900000,187 137.900000,167.500000" clip-rule="evenodd" fill="rgb(232,157,58)" fill-rule="evenodd" stroke="none" stroke-width="1"/></g><g id="eCkmUrL25jx24"><path id="eCkmUrL25jx25" d="M245.700000,72.900000L154.400000,83.400000C154.400000,95.500000,154.400000,153.500000,154.400000,165.600000L245.700000,155.100000C245.700000,143,245.700000,85,245.700000,72.900000L245.700000,72.900000Z" clip-rule="evenodd" fill="url(#eCkmUrL25jx25-fill)" fill-rule="evenodd" stroke="none" stroke-width="1"/><polygon id="eCkmUrL25jx26" points="245.700000,72.900000 245.700000,92.100000 244.100000,78.100000 155.600000,84.300000 154.300000,107.300000 154.300000,83.400000" clip-rule="evenodd" fill="rgb(232,157,58)" fill-rule="evenodd" stroke="none" stroke-width="1"/></g><g id="eCkmUrL25jx27"><polygon id="eCkmUrL25jx28" points="173.800000,35.500000 173.800000,81.100000 226.200000,75.100000 226.200000,35.500000" clip-rule="evenodd" fill="rgb(246,174,66)" fill-rule="evenodd" stroke="none" stroke-width="1"/><g id="eCkmUrL25jx29"><path id="eCkmUrL25jx30" d="M183.300000,49L183.300000,49C185.600000,49,187.500000,50.900000,187.500000,53.200000L187.500000,62.900000L179.200000,62.900000L179.200000,53.200000C179.200000,50.800000,181.100000,49,183.300000,49Z" clip-rule="evenodd" fill="rgb(150,95,38)" fill-rule="evenodd" stroke="none" stroke-width="1"/><path id="eCkmUrL25jx31" d="M200,49L200,49C197.700000,49,195.800000,50.900000,195.800000,53.200000L195.800000,62.900000L204.100000,62.900000L204.100000,53.200000C204.200000,50.800000,202.300000,49,200,49Z" clip-rule="evenodd" fill="rgb(150,95,38)" fill-rule="evenodd" stroke="none" stroke-width="1"/><path id="eCkmUrL25jx32" d="M216.700000,49L216.700000,49C214.400000,49,212.500000,50.900000,212.500000,53.200000L212.500000,62.900000L220.800000,62.900000L220.800000,53.200000C220.800000,50.800000,218.900000,49,216.700000,49Z" clip-rule="evenodd" fill="rgb(150,95,38)" fill-rule="evenodd" stroke="none" stroke-width="1"/></g><polygon id="eCkmUrL25jx33" points="180,25 180,35.500000 220,35.500000 220,25" clip-rule="evenodd" fill="rgb(214,149,64)" fill-rule="evenodd" stroke="none" stroke-width="1"/></g></svg>