<svg id="eOc6eJNMYbo1" xmlns="http://www.w3.org/2000/svg" xmlns:xlink="http://www.w3.org/1999/xlink" viewBox="0 0 400 400" shape-rendering="geometricPrecision" text-rendering="geometricPrecision"><defs><linearGradient id="eOc6eJNMYbo3-fill" x1="161.520688" y1="29.267331" x2="238.428699" y2="370.678863" spreadMethod="pad" gradientUnits="userSpaceOnUse"><stop id="eOc6eJNMYbo3-fill-0" offset="0%" stop-color="rgb(254,254,254)"/><stop id="eOc6eJNMYbo3-fill-1" offset="69.020000%" stop-color="rgb(254,254,252)"/><stop id="eOc6eJNMYbo3-fill-2" offset="100%" stop-color="rgb(255,236,201)"/></linearGradient><linearGradient id="eOc6eJNMYbo4-fill" x1="63.862665" y1="135.629662" x2="99.911455" y2="292.134010" spreadMethod="pad" gradientUnits="userSpaceOnUse"><stop id="eOc6eJNMYbo4-fill-0" offset="0%" stop-color="rgb(201,227,201)"/><stop id="eOc6eJNMYbo4-fill-1" offset="100%" stop-color="rgb(138,199,98)"/></linearGradient><linearGradient id="eOc6eJNMYbo5-fill" x1="189.142883" y1="82.952404" x2="143.222995" y2="18.075376" spreadMethod="pad" gradientUnits="userSpaceOnUse"><stop id="eOc6eJNMYbo5-fill-0" offset="0%" stop-color="rgb(200,229,227)"/><stop id="eOc6eJNMYbo5-fill-1" offset="100%" stop-color="rgb(193,243,252)"/></linearGradient><linearGradient id="eOc6eJNMYbo6-fill" x1="231.654647" y1="55.703110" x2="272.884316" y2="317.303396" spreadMethod="pad" gradientUnits="userSpaceOnUse"><stop id="eOc6eJNMYbo6-fill-0" offset="0%" stop-color="rgb(246,192,204)"/><stop id="eOc6eJNMYbo6-fill-1" offset="100%" stop-color="rgb(209,15,67)"/></linearGradient></defs><g id="eOc6eJNMYbo2"><path id="eOc6eJNMYbo3" d="M133.400000,38.200000C44,75,1.400000,177.300000,38.200000,266.600000C75,356,177.300000,398.600000,266.600000,361.800000C356,325,398.600000,222.700000,361.800000,133.400000C325,44,222.700000,1.400000,133.400000,38.200000L133.400000,38.200000Z" clip-rule="evenodd" fill="url(#eOc6eJNMYbo3-fill)" fill-rule="evenodd" stroke="none" stroke-width="1"/><path id="eOc6eJNMYbo4" d="M29.600000,160.200000C21.500000,194.500000,23.700000,231.600000,38.200000,266.700000C47.900000,290.300000,62.200000,310.600000,79.600000,327.100000C61.600000,259.300000,69.500000,178.100000,117.500000,115.600000C85.800000,122.800000,55.700000,136.900000,29.600000,160.200000L29.600000,160.200000Z" clip-rule="evenodd" fill="url(#eOc6eJNMYbo4-fill)" fill-rule="evenodd" stroke="none" stroke-width="1"/><path id="eOc6eJNMYbo5" d="M133.400000,38.200000C122.100000,42.800000,111.600000,48.500000,101.900000,55.100000C104.600000,73.600000,110,93.600000,118.100000,114.700000C146.300000,78.400000,188,48.500000,246,31.200000C210,21.400000,170.600000,22.900000,133.400000,38.200000L133.400000,38.200000Z" clip-rule="evenodd" fill="url(#eOc6eJNMYbo5-fill)" fill-rule="evenodd" stroke="none" stroke-width="1"/><path id="eOc6eJNMYbo6" d="M291,349.400000C350.700000,313.200000,382.600000,244.700000,373.400000,176.600000C316.200000,132.400000,210.600000,94.700000,118.400000,115.300000C146.700000,188.600000,206.800000,274.200000,291,349.400000L291,349.400000Z" clip-rule="evenodd" fill="url(#eOc6eJNMYbo6-fill)" fill-rule="evenodd" stroke="none" stroke-width="1"/><g id="eOc6eJNMYbo7"><path id="eOc6eJNMYbo8" d="M101.400000,97.300000C85.500000,110.500000,80.500000,131.500000,90.100000,144.300000C99.700000,157.100000,120.400000,156.700000,136.200000,143.500000C152.100000,130.300000,157.100000,109.300000,147.500000,96.500000C137.900000,83.700000,117.300000,84.100000,101.400000,97.300000L101.400000,97.300000Z" clip-rule="evenodd" fill="rgb(255,102,0)" fill-rule="evenodd" stroke="none" stroke-width="1"/><path id="eOc6eJNMYbo9" d="M105.900000,103.300000C94.100000,113.100000,90.400000,128.700000,97.500000,138.200000C104.600000,147.700000,119.900000,147.400000,131.700000,137.600000C143.500000,127.800000,147.200000,112.200000,140.100000,102.700000C133,93.200000,117.700000,93.500000,105.900000,103.300000L105.900000,103.300000Z" clip-rule="evenodd" fill="rgb(254,254,254)" fill-rule="evenodd" stroke="none" stroke-width="1"/></g></g></svg>