<svg id="s1" xmlns="http://www.w3.org/2000/svg" xmlns:xlink="http://www.w3.org/1999/xlink" viewBox="0 0 400 400"><g id="s3"><path id="s5" d="M147,233.440000L139.740000,218.380000C138.961388,216.770381,139.066161,214.873319,140.017292,213.359232C140.968423,211.845145,142.631956,210.927277,144.420000,210.930000L149.070000,210.930000C150.644369,210.928918,152.134123,211.642528,153.120000,212.870000L165.190000,227.930000C166.440856,229.487384,166.686915,231.624425,165.822735,233.425335C164.958554,235.226245,163.137519,236.371374,161.140000,236.370000L151.680000,236.370000C149.686795,236.373034,147.867945,235.234309,147,233.440000Z" fill="rgb(112,192,219)" stroke="none" stroke-width="1"/><path id="s7" d="M95.080000,238.280000L166.750000,238.280000C174.697378,238.280000,181.140000,244.722622,181.140000,252.670000L181.140000,273.250000C181.140000,281.197378,174.697378,287.640000,166.750000,287.640000L103,287.640000C95.052622,287.640000,88.610000,281.197378,88.610000,273.250000L88.610000,244.780000C88.610000,241.190149,91.520149,238.280000,95.110000,238.280000Z" fill="rgb(204,227,235)" stroke="none" stroke-width="1"/><path id="s9" d="M49.750000,263.430000L121.420000,263.430000C129.367378,263.430000,135.810000,269.872622,135.810000,277.820000L135.810000,277.820000C135.810000,285.767378,129.367378,292.210000,121.420000,292.210000L57.640000,292.210000C49.692622,292.210000,43.250000,285.767378,43.250000,277.820000L43.250000,269.920000C43.255517,266.334055,46.164051,263.429996,49.750000,263.430000Z" fill="rgb(112,192,219)" stroke="none" stroke-width="1"/><path id="s11" d="M258.390000,235.400000L256.030000,216.400000C255.752808,214.174446,253.862748,212.502964,251.620000,212.500000L218.460000,212.500000C199.537020,212.529850,181.597309,220.932225,169.460000,235.450000Z" fill="rgb(204,227,235)" stroke="none" stroke-width="1"/><path id="s13" d="M223.860000,223.930000L257,223.930000L256,216.050000L249,216.050000C240.148978,216.043500,231.394596,217.889755,223.300000,221.470000C222.748082,221.726162,222.450206,222.333155,222.585263,222.926444C222.720321,223.519733,223.251585,223.937979,223.860000,223.930000Z" fill="rgb(112,192,219)" stroke="none" stroke-width="1"/><rect id="s15" width="35.630000" height="24.220000" rx="3.190000" ry="3.190000" transform="translate(30.820000,295.760000)" fill="rgb(112,192,219)" stroke="none" stroke-width="1"/><path id="s17" d="M345.870000,275.180000L296.370000,230.120000C295.186389,229.040081,293.642235,228.440964,292.040000,228.440000L143.670000,228.440000C142.283707,228.438314,140.975452,229.081354,140.130000,230.180000L102.370000,279.180000Z" fill="rgb(225,241,247)" stroke="none" stroke-width="1"/><path id="s19" d="M382.470000,273.900000L18.560000,273.900000C17.073896,273.892300,15.698815,274.685535,14.961491,275.975852C14.224168,277.266169,14.238883,278.853573,15,280.130000C26.242811,298.617013,43.485088,312.689676,63.850000,320L349.440000,320C356.105615,303.065665,368.279841,288.869446,384,279.700000C385.211651,278.997142,385.803907,277.571010,385.446620,276.216590C385.089333,274.862170,383.870685,273.913742,382.470000,273.900000Z" fill="rgb(225,241,247)" stroke="none" stroke-width="1"/><path id="s21" d="M45.740000,311.200000C51.448184,314.766052,57.518881,317.715921,63.850000,320L349.440000,320C350.625186,316.990356,351.991004,314.055016,353.530000,311.210000Z" fill="rgb(204,227,235)" stroke="none" stroke-width="1"/><path id="s23" d="M382.470000,273.900000L18.560000,273.900000C17.073896,273.892300,15.698815,274.685535,14.961491,275.975852C14.224168,277.266169,14.238883,278.853573,15,280.130000C15.900000,281.610000,16.850000,283.060000,17.830000,284.490000L376.770000,284.490000C379.092411,282.764909,381.505894,281.165935,384,279.700000C385.211651,278.997142,385.803907,277.571010,385.446620,276.216590C385.089333,274.862170,383.870685,273.913742,382.470000,273.900000Z" fill="rgb(230,92,90)" stroke="none" stroke-width="1"/><path id="s25" d="M302,235.280000L151.440000,235.280000C149.962154,235.285484,148.765484,236.482154,148.760000,237.960000L148.760000,238.600000C148.765484,240.077846,149.962154,241.274516,151.440000,241.280000L308.630000,241.280000Z" fill="rgb(112,192,219)" stroke="none" stroke-width="1"/><path id="s27" d="M315.810000,247.820000L159.690000,247.820000C158.208251,247.819990,157.005508,249.018261,157,250.500000L157,251.140000C157.005484,252.617846,158.202154,253.814516,159.680000,253.820000L322.400000,253.820000Z" fill="rgb(112,192,219)" stroke="none" stroke-width="1"/><path id="s29" d="M329.590000,260.360000L167.940000,260.360000C166.462154,260.365484,165.265484,261.562154,165.260000,263.040000L165.260000,263.680000C165.265484,265.157846,166.462154,266.354516,167.940000,266.360000L336.180000,266.360000Z" fill="rgb(112,192,219)" stroke="none" stroke-width="1"/><circle id="s31" r="3.550000" transform="translate(53.670000,295.760000)" fill="rgb(80,149,173)" stroke="none" stroke-width="1"/><circle id="s33" r="3.550000" transform="translate(75.920000,295.760000)" fill="rgb(80,149,173)" stroke="none" stroke-width="1"/><circle id="s35" r="3.550000" transform="translate(98.170000,295.760000)" fill="rgb(80,149,173)" stroke="none" stroke-width="1"/><circle id="s37" r="3.550000" transform="translate(120.420000,295.760000)" fill="rgb(80,149,173)" stroke="none" stroke-width="1"/><circle id="s39" r="3.550000" transform="translate(142.670000,295.760000)" fill="rgb(80,149,173)" stroke="none" stroke-width="1"/><circle id="s41" r="3.550000" transform="translate(164.920000,295.760000)" fill="rgb(80,149,173)" stroke="none" stroke-width="1"/><circle id="s43" r="3.550000" transform="translate(187.170000,295.760000)" fill="rgb(80,149,173)" stroke="none" stroke-width="1"/><circle id="s45" r="3.550000" transform="translate(209.420000,295.760000)" fill="rgb(80,149,173)" stroke="none" stroke-width="1"/><circle id="s47" r="3.550000" transform="translate(231.670000,295.760000)" fill="rgb(80,149,173)" stroke="none" stroke-width="1"/><circle id="s49" r="3.550000" transform="translate(253.920000,295.760000)" fill="rgb(80,149,173)" stroke="none" stroke-width="1"/><circle id="s51" r="3.550000" transform="translate(276.170000,295.760000)" fill="rgb(80,149,173)" stroke="none" stroke-width="1"/><circle id="s53" r="3.550000" transform="translate(298.420000,295.760000)" fill="rgb(80,149,173)" stroke="none" stroke-width="1"/><circle id="s55" r="3.550000" transform="translate(320.670000,295.760000)" fill="rgb(80,149,173)" stroke="none" stroke-width="1"/><circle id="s57" r="3.550000" transform="translate(342.920000,295.760000)" fill="rgb(80,149,173)" stroke="none" stroke-width="1"/></g></svg>