<svg id="s1" xmlns="http://www.w3.org/2000/svg" xmlns:xlink="http://www.w3.org/1999/xlink" viewBox="0 0 400 400"><g id="s3"><g id="s5"><path id="s7" d="M162,86.290000L22,279.790000C20.939142,281.251226,20.788107,283.184192,21.609127,284.792460C22.430146,286.400729,24.084288,287.412154,25.890000,287.410000L305.890000,287.410000C307.695712,287.412154,309.349854,286.400729,310.170873,284.792460C310.991893,283.184192,310.840858,281.251226,309.780000,279.790000L169.780000,86.280000C168.875864,85.032678,167.427986,84.295116,165.887445,84.297096C164.346903,84.299076,162.900926,85.040358,162,86.290000Z" fill="rgb(255,165,61)" stroke="none" stroke-width="1"/><path id="s9" d="M164.210000,85C163.111893,85.356904,162.158069,86.058245,161.490000,87L22.750000,278.790000C21.557910,280.444574,21.391322,282.626901,22.318459,284.443246C23.245595,286.259591,25.110719,287.404850,27.150000,287.410000L81.230000,287.410000Z" fill="rgb(255,188,110)" stroke="none" stroke-width="1"/><path id="s11" d="M205.730000,136L170.300000,87C169.276799,85.588018,167.638741,84.752111,165.895000,84.752111C164.151259,84.752111,162.513201,85.588018,161.490000,87L126.070000,136Z" fill="rgb(255,188,110)" stroke="none" stroke-width="1"/></g><g id="s13"><path id="s15" d="M262.450000,173.150000L154.340000,322.610000C153.331448,324.009017,153.190193,325.854648,153.974099,327.390851C154.758005,328.927054,156.335352,329.895702,158.060000,329.900000L374.290000,329.900000C376.014648,329.895702,377.591995,328.927054,378.375901,327.390851C379.159807,325.854648,379.018552,324.009017,378.010000,322.610000L269.900000,173.150000C269.034809,171.955897,267.649597,171.248958,266.175000,171.248958C264.700403,171.248958,263.315191,171.955897,262.450000,173.150000Z" fill="rgb(255,165,61)" stroke="none" stroke-width="1"/><path id="s17" d="M264.560000,171.940000C263.513888,172.276475,262.602829,172.938744,261.960000,173.830000L155,321.640000C153.854094,323.222323,153.691791,325.313420,154.579815,327.053610C155.467839,328.793799,157.256325,329.889402,159.210000,329.890000L199.800000,329.890000Z" fill="rgb(255,188,110)" stroke="none" stroke-width="1"/><path id="s19" d="M301.830000,217.290000L270.390000,173.840000C269.412333,172.486806,267.844421,171.685287,266.175000,171.685287C264.505579,171.685287,262.937667,172.486806,261.960000,173.840000L230.520000,217.290000Z" fill="rgb(255,188,110)" stroke="none" stroke-width="1"/></g></g></svg>