<svg id="s1" xmlns="http://www.w3.org/2000/svg" xmlns:xlink="http://www.w3.org/1999/xlink" viewBox="0 0 400 400"><g id="s3"><rect id="s5" width="324.440000" height="30.960000" rx="13.760000" ry="13.760000" transform="translate(37.780000,302.190000)" fill="rgb(107,199,115)" stroke="none" stroke-width="1"/><g id="s7"><path id="s9" d="M311.400000,155.240000C285.160000,164.120000,245,169.800000,200,169.800000C155,169.800000,114.840000,164.120000,88.600000,155.250000" fill="none" stroke="rgb(230,98,78)" stroke-width="19" stroke-linecap="round" stroke-miterlimit="10"/><path id="s11" d="M142.220000,313L114.220000,313C113.448318,313.000169,112.709080,312.689572,112.169092,312.138295C111.629104,311.587018,111.333867,310.841513,111.350000,310.070000L115.070000,134.010000C115.097278,132.444503,116.374265,131.189762,117.940000,131.190000L138.500000,131.190000C140.065735,131.189762,141.342722,132.444503,141.370000,134.010000L145.090000,310.070000C145.106133,310.841513,144.810896,311.587018,144.270908,312.138295C143.730920,312.689572,142.991682,313.000169,142.220000,313Z" fill="rgb(201,81,62)" stroke="none" stroke-width="1"/><path id="s13" d="M257.780000,313L285.780000,313C286.551682,313.000169,287.290920,312.689572,287.830908,312.138295C288.370896,311.587018,288.666133,310.841513,288.650000,310.070000L284.930000,134.010000C284.902722,132.444503,283.625735,131.189762,282.060000,131.190000L261.500000,131.190000C259.934265,131.189762,258.657278,132.444503,258.630000,134.010000L254.910000,310.070000C254.893867,310.841513,255.189104,311.587018,255.729092,312.138295C256.269080,312.689572,257.008318,313.000169,257.780000,313Z" fill="rgb(201,81,62)" stroke="none" stroke-width="1"/><path id="s15" d="M328,112.850000C297.860000,123.430000,251.740000,130.200000,200,130.200000C148.260000,130.200000,102.180000,123.430000,72,112.850000" fill="none" stroke="rgb(230,98,78)" stroke-width="19" stroke-linecap="round" stroke-miterlimit="10"/><path id="s17" d="M348.410000,84.270000C313.410000,100.140000,259.960000,110.270000,200,110.270000C140.040000,110.270000,86.550000,100.120000,51.590000,84.270000" fill="none" stroke="rgb(30,97,77)" stroke-width="24" stroke-linecap="round" stroke-miterlimit="10"/><rect id="s19" width="27.470000" height="41.330000" rx="4.790000" ry="4.790000" transform="translate(185.510000,128.750000)" fill="rgb(30,97,77)" stroke="none" stroke-width="1"/><g id="s21"><path id="s23" d="M121,320.650000L93,320.650000C92.226544,320.650230,91.485736,320.338266,90.945448,319.784801C90.405161,319.231335,90.111135,318.483226,90.130000,317.710000L92.860000,226.480000C92.898003,224.922345,94.171882,223.679536,95.730000,223.680000L118.220000,223.680000C119.778118,223.679536,121.051997,224.922345,121.090000,226.480000L123.820000,317.710000C123.838767,318.474630,123.551546,319.215121,123.022090,319.767107C122.492634,320.319093,121.764749,320.636905,121,320.650000Z" fill="rgb(230,98,78)" stroke="none" stroke-width="1"/><path id="s25" d="M104.270000,202.490000L84.810000,222.730000C83.751396,223.831545,83.453159,225.458917,84.052341,226.864273C84.651524,228.269629,86.032242,229.181168,87.560000,229.180000L126.500000,229.180000C128.027758,229.181168,129.408476,228.269629,130.007659,226.864273C130.606841,225.458917,130.308604,223.831545,129.250000,222.730000L109.780000,202.490000C109.061131,201.737463,108.065713,201.311744,107.025000,201.311744C105.984287,201.311744,104.988869,201.737463,104.270000,202.490000Z" fill="rgb(30,97,77)" stroke="none" stroke-width="1"/></g><g id="s27"><path id="s29" d="M279,320.650000L306.940000,320.650000C307.713456,320.650230,308.454264,320.338266,308.994552,319.784801C309.534839,319.231335,309.828865,318.483226,309.810000,317.710000L307.080000,226.480000C307.041997,224.922345,305.768118,223.679536,304.210000,223.680000L281.740000,223.680000C280.181882,223.679536,278.908003,224.922345,278.870000,226.480000L276.140000,317.710000C276.121174,318.481495,276.413840,319.228063,276.951953,319.781229C277.490067,320.334395,278.228280,320.647541,279,320.650000Z" fill="rgb(230,98,78)" stroke="none" stroke-width="1"/><path id="s31" d="M295.730000,202.490000L315.200000,222.730000C316.258604,223.831545,316.556841,225.458917,315.957659,226.864273C315.358476,228.269629,313.977758,229.181168,312.450000,229.180000L273.510000,229.180000C271.982242,229.181168,270.601524,228.269629,270.002341,226.864273C269.403159,225.458917,269.701396,223.831545,270.760000,222.730000L290.230000,202.490000C290.948558,201.740642,291.941798,201.316968,292.980000,201.316968C294.018202,201.316968,295.011442,201.740642,295.730000,202.490000Z" fill="rgb(30,97,77)" stroke="none" stroke-width="1"/></g></g></g></svg>