<svg id="eUSZiHo2Fb71" xmlns="http://www.w3.org/2000/svg" xmlns:xlink="http://www.w3.org/1999/xlink" viewBox="0 0 400 400" shape-rendering="geometricPrecision" text-rendering="geometricPrecision"><g id="eUSZiHo2Fb72"><rect id="eUSZiHo2Fb73" width="62.100000" height="134" rx="0" ry="0" transform="matrix(1 0 0 1 169 241)" clip-rule="evenodd" fill="rgb(217,147,54)" fill-rule="evenodd" stroke="none" stroke-width="1"/><rect id="eUSZiHo2Fb74" width="62.100000" height="11.100000" rx="0" ry="0" transform="matrix(1 0 0 1 169 301)" clip-rule="evenodd" fill="rgb(235,162,65)" fill-rule="evenodd" stroke="none" stroke-width="1"/><g id="eUSZiHo2Fb75"><rect id="eUSZiHo2Fb76" width="3.200000" height="130" rx="0" ry="0" transform="matrix(1 0 0 1 174.80000000000001 245)" clip-rule="evenodd" fill="rgb(208,117,46)" fill-rule="evenodd" stroke="none" stroke-width="1"/><rect id="eUSZiHo2Fb77" width="3.200000" height="130" rx="0" ry="0" transform="matrix(1 0 0 1 184.30000000000001 245)" clip-rule="evenodd" fill="rgb(208,117,46)" fill-rule="evenodd" stroke="none" stroke-width="1"/><rect id="eUSZiHo2Fb78" width="3.200000" height="130" rx="0" ry="0" transform="matrix(1 0 0 1 193.80000000000001 245)" clip-rule="evenodd" fill="rgb(208,117,46)" fill-rule="evenodd" stroke="none" stroke-width="1"/><rect id="eUSZiHo2Fb79" width="3.200000" height="130" rx="0" ry="0" transform="matrix(1 0 0 1 203.40000000000001 245)" clip-rule="evenodd" fill="rgb(208,117,46)" fill-rule="evenodd" stroke="none" stroke-width="1"/><rect id="eUSZiHo2Fb710" width="3.200000" height="130" rx="0" ry="0" transform="matrix(1 0 0 1 212.90000000000001 245)" clip-rule="evenodd" fill="rgb(208,117,46)" fill-rule="evenodd" stroke="none" stroke-width="1"/><rect id="eUSZiHo2Fb711" width="3.200000" height="130" rx="0" ry="0" transform="matrix(1 0 0 1 222.40000000000001 245)" clip-rule="evenodd" fill="rgb(208,117,46)" fill-rule="evenodd" stroke="none" stroke-width="1"/></g></g><g id="eUSZiHo2Fb712"><path id="eUSZiHo2Fb713" d="M239.300000,154.700000C213.100000,154.700000,186.900000,154.700000,160.700000,154.700000L160.700000,160.500000L166.100000,160.500000C166.100000,187.300000,166.100000,214.100000,166.100000,240.900000L233.900000,240.900000C233.900000,214.100000,233.900000,187.300000,233.900000,160.500000L239.300000,160.500000L239.300000,154.700000ZM171.800000,216.800000L171.800000,160.500000L228.200000,160.500000L228.200000,216.800000L171.800000,216.800000Z" clip-rule="evenodd" fill="rgb(251,174,70)" fill-rule="evenodd" stroke="none" stroke-width="1"/><g id="eUSZiHo2Fb714"><rect id="eUSZiHo2Fb715" width="5.800000" height="12.700000" rx="0" ry="0" transform="matrix(1 0 0 1 172.19999999999999 222.50000000000000)" clip-rule="evenodd" fill="rgb(208,117,46)" fill-rule="evenodd" stroke="none" stroke-width="1"/><rect id="eUSZiHo2Fb716" width="5.800000" height="12.700000" rx="0" ry="0" transform="matrix(1 0 0 1 182.19999999999999 222.50000000000000)" clip-rule="evenodd" fill="rgb(208,117,46)" fill-rule="evenodd" stroke="none" stroke-width="1"/><rect id="eUSZiHo2Fb717" width="5.800000" height="12.700000" rx="0" ry="0" transform="matrix(1 0 0 1 192.30000000000001 222.50000000000000)" clip-rule="evenodd" fill="rgb(208,117,46)" fill-rule="evenodd" stroke="none" stroke-width="1"/><rect id="eUSZiHo2Fb718" width="5.800000" height="12.700000" rx="0" ry="0" transform="matrix(1 0 0 1 202.30000000000001 222.50000000000000)" clip-rule="evenodd" fill="rgb(208,117,46)" fill-rule="evenodd" stroke="none" stroke-width="1"/><rect id="eUSZiHo2Fb719" width="5.800000" height="12.700000" rx="0" ry="0" transform="matrix(1 0 0 1 212.40000000000001 222.50000000000000)" clip-rule="evenodd" fill="rgb(208,117,46)" fill-rule="evenodd" stroke="none" stroke-width="1"/><rect id="eUSZiHo2Fb720" width="5.800000" height="12.700000" rx="0" ry="0" transform="matrix(1 0 0 1 222.40000000000001 222.50000000000000)" clip-rule="evenodd" fill="rgb(208,117,46)" fill-rule="evenodd" stroke="none" stroke-width="1"/></g><g id="eUSZiHo2Fb721"><rect id="eUSZiHo2Fb722" width="56.300000" height="56.300000" rx="0" ry="0" transform="matrix(1 0 0 1 171.80000000000001 160.50000000000000)" clip-rule="evenodd" fill="rgb(40,54,39)" fill-rule="evenodd" stroke="none" stroke-width="1"/><circle id="eUSZiHo2Fb723" r="19.900000" transform="matrix(1 0 0 1 200 188.69999999999999)" clip-rule="evenodd" fill="rgb(255,255,255)" fill-rule="evenodd" stroke="none" stroke-width="1"/><g id="eUSZiHo2Fb724"><path id="eUSZiHo2Fb725" d="M200,167.800000C205.800000,167.800000,211,170.100000,214.800000,174C218.500000,177.700000,220.900000,182.900000,220.900000,188.700000C220.900000,194.500000,218.600000,199.700000,214.800000,203.400000C211,207.200000,205.800000,209.600000,200,209.600000C194.300000,209.600000,189.100000,207.300000,185.300000,203.400000C181.600000,199.700000,179.200000,194.500000,179.200000,188.700000C179.200000,182.900000,181.500000,177.700000,185.300000,174C189,170.100000,194.300000,167.800000,200,167.800000ZM213.600000,175.200000C210.100000,171.800000,205.300000,169.600000,200,169.600000C194.800000,169.600000,190,171.700000,186.500000,175.200000C183.100000,178.600000,180.900000,183.400000,180.900000,188.700000C180.900000,193.900000,183,198.800000,186.500000,202.200000C190,205.600000,194.800000,207.800000,200,207.800000C205.300000,207.800000,210.100000,205.700000,213.600000,202.200000C217,198.800000,219.200000,193.900000,219.200000,188.700000C219.200000,183.400000,217,178.600000,213.600000,175.200000Z" fill="rgb(208,117,46)" stroke="none" stroke-width="1"/><path id="eUSZiHo2Fb726" d="M200,164.200000C213.600000,164.200000,224.500000,175.200000,224.500000,188.700000C224.500000,202.200000,213.600000,213.200000,200,213.200000C186.500000,213.200000,175.600000,202.200000,175.600000,188.700000C175.600000,175.200000,186.400000,164.200000,200,164.200000L200,164.200000ZM222.800000,188.700000C222.800000,176.100000,212.500000,166,200,166C187.500000,166,177.300000,176.200000,177.300000,188.700000C177.300000,201.300000,187.600000,211.400000,200,211.400000C212.500000,211.400000,222.800000,201.300000,222.800000,188.700000Z" fill="rgb(208,117,46)" stroke="none" stroke-width="1"/><path id="eUSZiHo2Fb727" d="M222.800000,165.900000L177.200000,165.900000L177.200000,211.400000L222.800000,211.400000L222.800000,165.900000ZM176.400000,164.200000L224.500000,164.200000L224.500000,213.200000L175.600000,213.200000L175.600000,164.200000L176.400000,164.200000Z" fill="rgb(208,117,46)" stroke="none" stroke-width="1"/><path id="eUSZiHo2Fb728" d="M181.400000,165.900000L177.200000,165.900000L177.200000,170L181.400000,170L181.400000,165.900000ZM176.400000,164.200000L183.200000,164.200000L183.200000,171.800000L175.600000,171.800000L175.600000,164.200000L176.400000,164.200000Z" fill="rgb(208,117,46)" stroke="none" stroke-width="1"/><path id="eUSZiHo2Fb729" d="M222.800000,165.900000L218.600000,165.900000L218.600000,170L222.800000,170L222.800000,165.900000ZM217.800000,164.200000L224.500000,164.200000L224.500000,171.800000L216.900000,171.800000L216.900000,164.200000L217.800000,164.200000Z" fill="rgb(208,117,46)" stroke="none" stroke-width="1"/><path id="eUSZiHo2Fb730" d="M181.400000,207.200000L177.200000,207.200000L177.200000,211.400000L181.400000,211.400000L181.400000,207.200000ZM176.400000,205.500000L183.200000,205.500000L183.200000,213.100000L175.600000,213.100000L175.600000,205.500000L176.400000,205.500000Z" fill="rgb(208,117,46)" stroke="none" stroke-width="1"/><path id="eUSZiHo2Fb731" d="M222.800000,207.200000L218.600000,207.200000L218.600000,211.400000L222.800000,211.400000L222.800000,207.200000ZM217.800000,205.500000L224.500000,205.500000L224.500000,213.100000L216.900000,213.100000L216.900000,205.500000L217.800000,205.500000Z" fill="rgb(208,117,46)" stroke="none" stroke-width="1"/></g><path id="eUSZiHo2Fb732" d="M200.800000,189C200.500000,189.500000,200.100000,189.600000,199.600000,189.400000C199.200000,189.200000,199,188.700000,199.200000,188.200000L207.200000,173C207.500000,172.600000,207.900000,172.400000,208.400000,172.600000C208.800000,172.900000,209,173.300000,208.800000,173.800000L200.800000,189L200.800000,189Z" fill="rgb(126,104,81)" stroke="none" stroke-width="1"/><path id="eUSZiHo2Fb733" d="M190.400000,184.600000C190,184.400000,189.800000,183.900000,190,183.400000C190.300000,183,190.700000,182.800000,191.200000,183.100000L200.400000,187.900000C200.800000,188.100000,201,188.600000,200.800000,189C200.500000,189.500000,200.100000,189.600000,199.600000,189.400000L190.400000,184.600000L190.400000,184.600000Z" fill="rgb(126,104,81)" stroke="none" stroke-width="1"/></g></g><g id="eUSZiHo2Fb734"><rect id="eUSZiHo2Fb735" width="62.100000" height="16.700000" rx="0" ry="0" transform="matrix(1 0 0 1 169 138.09999999999999)" clip-rule="evenodd" fill="rgb(217,147,54)" fill-rule="evenodd" stroke="none" stroke-width="1"/><rect id="eUSZiHo2Fb736" width="3.200000" height="10.400000" rx="0" ry="0" transform="matrix(1 0 0 1 174.80000000000001 141.09999999999999)" clip-rule="evenodd" fill="rgb(208,117,46)" fill-rule="evenodd" stroke="none" stroke-width="1"/><rect id="eUSZiHo2Fb737" width="3.200000" height="10.400000" rx="0" ry="0" transform="matrix(1 0 0 1 184.30000000000001 141.09999999999999)" clip-rule="evenodd" fill="rgb(208,117,46)" fill-rule="evenodd" stroke="none" stroke-width="1"/><rect id="eUSZiHo2Fb738" width="3.200000" height="10.400000" rx="0" ry="0" transform="matrix(1 0 0 1 193.80000000000001 141.09999999999999)" clip-rule="evenodd" fill="rgb(208,117,46)" fill-rule="evenodd" stroke="none" stroke-width="1"/><rect id="eUSZiHo2Fb739" width="3.200000" height="10.400000" rx="0" ry="0" transform="matrix(1 0 0 1 203.40000000000001 141.09999999999999)" clip-rule="evenodd" fill="rgb(208,117,46)" fill-rule="evenodd" stroke="none" stroke-width="1"/><rect id="eUSZiHo2Fb740" width="3.200000" height="10.400000" rx="0" ry="0" transform="matrix(1 0 0 1 212.90000000000001 141.09999999999999)" clip-rule="evenodd" fill="rgb(208,117,46)" fill-rule="evenodd" stroke="none" stroke-width="1"/><rect id="eUSZiHo2Fb741" width="3.200000" height="10.400000" rx="0" ry="0" transform="matrix(1 0 0 1 222.40000000000001 141.09999999999999)" clip-rule="evenodd" fill="rgb(208,117,46)" fill-rule="evenodd" stroke="none" stroke-width="1"/><g id="eUSZiHo2Fb742"><polygon id="eUSZiHo2Fb743" points="165.200000,142.300000 161.600000,142.300000 163.400000,130.800000" clip-rule="evenodd" fill="rgb(252,167,55)" fill-rule="evenodd" stroke="none" stroke-width="1"/><polygon id="eUSZiHo2Fb744" points="238.400000,142.300000 234.800000,142.300000 236.600000,130.800000" clip-rule="evenodd" fill="rgb(252,167,55)" fill-rule="evenodd" stroke="none" stroke-width="1"/><rect id="eUSZiHo2Fb745" width="2" height="12.500000" rx="0" ry="0" transform="matrix(1 0 0 1 162.50000000000000 142.30000000000001)" clip-rule="evenodd" fill="rgb(208,117,46)" fill-rule="evenodd" stroke="none" stroke-width="1"/><rect id="eUSZiHo2Fb746" width="2" height="12.500000" rx="0" ry="0" transform="matrix(1 0 0 1 235.69999999999999 142.30000000000001)" clip-rule="evenodd" fill="rgb(208,117,46)" fill-rule="evenodd" stroke="none" stroke-width="1"/></g></g><g id="eUSZiHo2Fb747"><polygon id="eUSZiHo2Fb748" points="231,138.100000 169,138.100000 184.600000,104.600000 215.400000,104.600000" clip-rule="evenodd" fill="rgb(40,54,39)" fill-rule="evenodd" stroke="none" stroke-width="1"/><path id="eUSZiHo2Fb749" d="M183.800000,124L183.800000,124C182.400000,124,181.300000,125.100000,181.300000,126.500000L181.300000,133.800000L186.300000,133.800000L186.300000,126.500000C186.300000,125.100000,185.200000,124,183.800000,124Z" clip-rule="evenodd" fill="rgb(246,174,66)" fill-rule="evenodd" stroke="none" stroke-width="1"/><path id="eUSZiHo2Fb750" d="M200,124L200,124C198.700000,124,197.500000,125.100000,197.500000,126.500000L197.500000,133.800000L202.600000,133.800000L202.600000,126.500000C202.600000,125.100000,201.400000,124,200,124Z" clip-rule="evenodd" fill="rgb(246,174,66)" fill-rule="evenodd" stroke="none" stroke-width="1"/><path id="eUSZiHo2Fb751" d="M216.200000,124L216.200000,124C214.800000,124,213.700000,125.100000,213.700000,126.500000L213.700000,133.800000L218.700000,133.800000L218.700000,126.500000C218.700000,125.100000,217.600000,124,216.200000,124Z" clip-rule="evenodd" fill="rgb(246,174,66)" fill-rule="evenodd" stroke="none" stroke-width="1"/><path id="eUSZiHo2Fb752" d="M191.900000,110.300000L191.900000,110.300000C190.500000,110.300000,189.400000,111.400000,189.400000,112.800000L189.400000,120L194.400000,120L194.400000,112.800000C194.500000,111.400000,193.300000,110.300000,191.900000,110.300000Z" clip-rule="evenodd" fill="rgb(246,174,66)" fill-rule="evenodd" stroke="none" stroke-width="1"/><path id="eUSZiHo2Fb753" d="M208.100000,110.300000L208.100000,110.300000C206.700000,110.300000,205.600000,111.400000,205.600000,112.800000L205.600000,120L210.600000,120L210.600000,112.800000C210.600000,111.400000,209.500000,110.300000,208.100000,110.300000Z" clip-rule="evenodd" fill="rgb(246,174,66)" fill-rule="evenodd" stroke="none" stroke-width="1"/></g><path id="eUSZiHo2Fb754" d="M212.200000,104.600000L209.400000,104.600000L209.400000,91.400000C209.400000,90.200000,208.400000,89.200000,207.200000,89.200000L207.200000,89.200000C206,89.200000,205,90.200000,205,91.400000L205,104.600000L202.400000,104.600000L202.400000,91.400000C202.400000,90.200000,201.400000,89.200000,200.100000,89.200000L200.100000,89.200000C198.900000,89.200000,197.900000,90.200000,197.900000,91.400000L197.900000,104.600000L195.300000,104.600000L195.300000,91.400000C195.300000,90.200000,194.300000,89.200000,193.100000,89.200000L193.100000,89.200000C191.900000,89.200000,190.900000,90.200000,190.900000,91.400000L190.900000,104.600000L188,104.600000L188,86.900000L212.400000,86.900000L212.400000,104.600000Z" clip-rule="evenodd" fill="rgb(217,147,54)" fill-rule="evenodd" stroke="none" stroke-width="1"/><g id="eUSZiHo2Fb755"><polygon id="eUSZiHo2Fb756" points="212.200000,86.900000 187.700000,86.900000 198.100000,48.200000 201.900000,48.200000" clip-rule="evenodd" fill="rgb(40,54,39)" fill-rule="evenodd" stroke="none" stroke-width="1"/><polygon id="eUSZiHo2Fb757" points="203.800000,48.200000 196.200000,48.200000 196.200000,46.400000 199.300000,46.400000 199.300000,32.700000 197.500000,31 200,25 202.500000,31 200.700000,32.700000 200.700000,46.400000 203.800000,46.400000" clip-rule="evenodd" fill="rgb(40,54,39)" fill-rule="evenodd" stroke="none" stroke-width="1"/></g></svg>