<svg id="s1" xmlns="http://www.w3.org/2000/svg" xmlns:xlink="http://www.w3.org/1999/xlink" viewBox="0 0 400 400"><g id="s3"><g id="s5"><rect id="s7" width="63.500000" height="108.970000" rx="17.950000" ry="17.950000" transform="translate(592.500000,571.810000) rotate(180) translate(264.500000,231.420000)" fill="rgb(224,139,114)" stroke="none" stroke-width="1"/><path id="s9" d="M282.450000,231.420000L310.050000,231.420000C319.952111,231.447468,327.972532,239.467889,328,249.370000L328,263.370000L270.280000,263.370000C267.880000,263.370000,265.920000,261.760000,265.920000,259.790000L265.920000,242.390000C268.735787,235.752850,275.240274,231.436201,282.450000,231.420000Z" fill="rgb(255,192,120)" stroke="none" stroke-width="1"/></g><g id="s11"><rect id="s13" width="63.500000" height="108.970000" rx="17.950000" ry="17.950000" transform="translate(72,231.420000)" fill="rgb(224,139,114)" stroke="none" stroke-width="1"/><path id="s15" d="M117.550000,231.420000L89.950000,231.420000C80.047889,231.447468,72.027468,239.467889,72,249.370000L72,263.370000L129.720000,263.370000C132.120000,263.370000,134.080000,261.760000,134.080000,259.790000L134.080000,242.390000C131.264213,235.752850,124.759726,231.436201,117.550000,231.420000Z" fill="rgb(255,192,120)" stroke="none" stroke-width="1"/></g><rect id="s17" width="75" height="44" rx="17" ry="17" transform="translate(162.500000,87.390000)" fill="none" stroke="rgb(255,192,120)" stroke-width="15" stroke-miterlimit="10"/><rect id="s19" width="190" height="237" rx="24.330000" ry="24.330000" transform="translate(105,116.890000)" fill="rgb(194,111,88)" stroke="none" stroke-width="1"/><g id="s21"><rect id="s23" width="215" height="77" rx="18.210000" ry="18.210000" transform="translate(92.500000,115.890000)" fill="rgb(173,90,68)" stroke="none" stroke-width="1"/><rect id="s25" width="20" height="77" rx="6.010000" ry="6.010000" transform="translate(140,161.390000)" fill="rgb(255,192,120)" stroke="none" stroke-width="1"/><rect id="s27" width="20" height="77" rx="6.010000" ry="6.010000" transform="translate(238.500000,161.390000)" fill="rgb(255,192,120)" stroke="none" stroke-width="1"/><rect id="s29" width="29" height="16" rx="5.750000" ry="5.750000" transform="translate(135.500000,205.390000)" fill="rgb(240,139,19)" stroke="none" stroke-width="1"/><rect id="s31" width="29" height="16" rx="5.750000" ry="5.750000" transform="translate(234,205.390000)" fill="rgb(240,139,19)" stroke="none" stroke-width="1"/></g><g id="s33"><rect id="s35" width="143" height="80" rx="8.300000" ry="8.300000" transform="translate(128.500000,255.390000)" fill="rgb(173,90,68)" stroke="none" stroke-width="1"/><line id="s37" x1="128.500000" y1="282.440000" x2="271.500000" y2="282.440000" fill="none" stroke="rgb(240,139,19)" stroke-width="10" stroke-miterlimit="10"/><rect id="s39" width="29" height="16" rx="5.750000" ry="5.750000" transform="translate(448.890000,148.890000) rotate(90) translate(135.500000,290.890000)" fill="rgb(255,192,120)" stroke="none" stroke-width="1"/></g></g></svg>