<svg id="e45ctEhzUsX1" xmlns="http://www.w3.org/2000/svg" xmlns:xlink="http://www.w3.org/1999/xlink" viewBox="0 0 400 400" shape-rendering="geometricPrecision" text-rendering="geometricPrecision"><defs><linearGradient id="e45ctEhzUsX5-fill" x1="346.884939" y1="337.125115" x2="53.116002" y2="337.125115" spreadMethod="pad" gradientUnits="userSpaceOnUse"><stop id="e45ctEhzUsX5-fill-0" offset="0%" stop-color="rgb(117,159,158)"/><stop id="e45ctEhzUsX5-fill-1" offset="100%" stop-color="rgb(158,196,197)"/></linearGradient><linearGradient id="e45ctEhzUsX10-fill" x1="250.331976" y1="232.386025" x2="148.476834" y2="134.765350" spreadMethod="pad" gradientUnits="userSpaceOnUse"><stop id="e45ctEhzUsX10-fill-0" offset="0%" stop-color="rgb(255,214,79)"/><stop id="e45ctEhzUsX10-fill-1" offset="100%" stop-color="rgb(248,205,0)"/></linearGradient><linearGradient id="e45ctEhzUsX12-fill" x1="95.487003" y1="126.837709" x2="181.494099" y2="214.115728" spreadMethod="pad" gradientUnits="userSpaceOnUse"><stop id="e45ctEhzUsX12-fill-0" offset="0%" stop-color="rgb(255,214,79)"/><stop id="e45ctEhzUsX12-fill-1" offset="100%" stop-color="rgb(248,205,0)"/></linearGradient></defs><g id="e45ctEhzUsX2"><g id="e45ctEhzUsX3"><polygon id="e45ctEhzUsX4" points="346.900000,324.100000 53.100000,335.700000 77.800000,375 320.700000,375" clip-rule="evenodd" fill="rgb(158,196,197)" fill-rule="evenodd" stroke="none" stroke-width="1"/><polygon id="e45ctEhzUsX5" points="346.900000,324.100000 53.100000,335.700000 62.200000,350.200000 335.400000,346.400000" clip-rule="evenodd" fill="url(#e45ctEhzUsX5-fill)" fill-rule="evenodd" stroke="none" stroke-width="1"/><polygon id="e45ctEhzUsX6" points="103.200000,333.700000 293.600000,326.200000 281,310.300000 121.100000,309.300000" clip-rule="evenodd" fill="rgb(77,84,87)" fill-rule="evenodd" stroke="none" stroke-width="1"/></g><circle id="e45ctEhzUsX7" r="11.400000" transform="matrix(1 0 0 1 307.89999999999998 346.80000000000001)" clip-rule="evenodd" fill="rgb(77,84,87)" fill-rule="evenodd" stroke="none" stroke-width="1"/></g><g id="e45ctEhzUsX8"><polygon id="e45ctEhzUsX9" points="175.600000,30.200000 175.600000,250.800000 287.500000,239.600000" clip-rule="evenodd" fill="rgb(248,205,0)" fill-rule="evenodd" stroke="none" stroke-width="1"/><polygon id="e45ctEhzUsX10" points="175.600000,70.600000 175.600000,250.800000 267,241.700000" clip-rule="evenodd" fill="url(#e45ctEhzUsX10-fill)" fill-rule="evenodd" stroke="none" stroke-width="1"/><polygon id="e45ctEhzUsX11" points="175.600000,51.300000 175.600000,291.900000 53.500000,279.700000" clip-rule="evenodd" fill="rgb(248,205,0)" fill-rule="evenodd" stroke="none" stroke-width="1"/><polygon id="e45ctEhzUsX12" points="175.600000,95.400000 175.600000,249.300000 97.500000,241.500000" clip-rule="evenodd" fill="url(#e45ctEhzUsX12-fill)" fill-rule="evenodd" stroke="none" stroke-width="1"/><path id="e45ctEhzUsX13" d="M170.400000,309.600000L170.400000,30.200000C170.400000,27.400000,172.700000,25,175.600000,25C178.400000,25,180.800000,27.300000,180.800000,30.200000L180.800000,309.700000L170.400000,309.600000L170.400000,309.600000Z" fill="rgb(214,149,64)" stroke="none" stroke-width="1"/></g></svg>